<?xml version="1.0" encoding="utf-8" standalone="no"?>
<!DOCTYPE svg PUBLIC "-//W3C//DTD SVG 1.1//EN"
  "http://www.w3.org/Graphics/SVG/1.1/DTD/svg11.dtd">
<svg xmlns:xlink="http://www.w3.org/1999/xlink" width="414.46375pt" height="310.86825pt" viewBox="0 0 414.46375 310.86825" xmlns="http://www.w3.org/2000/svg" version="1.1">
 <metadata>
  <rdf:RDF xmlns:dc="http://purl.org/dc/elements/1.1/" xmlns:cc="http://creativecommons.org/ns#" xmlns:rdf="http://www.w3.org/1999/02/22-rdf-syntax-ns#">
   <cc:Work>
    <dc:type rdf:resource="http://purl.org/dc/dcmitype/StillImage"/>
    <dc:date>2023-01-11T21:39:57.361352</dc:date>
    <dc:format>image/svg+xml</dc:format>
    <dc:creator>
     <cc:Agent>
      <dc:title>Matplotlib v3.5.3, https://matplotlib.org/</dc:title>
     </cc:Agent>
    </dc:creator>
   </cc:Work>
  </rdf:RDF>
 </metadata>
 <defs>
  <style type="text/css">*{stroke-linejoin: round; stroke-linecap: butt}</style>
 </defs>
 <g id="figure_1">
  <g id="patch_1">
   <path d="M 0 310.86825 
L 414.46375 310.86825 
L 414.46375 0 
L 0 0 
z
" style="fill: #ffffff"/>
  </g>
  <g id="axes_1">
   <g id="patch_2">
    <path d="M 50.14375 273.312 
L 407.26375 273.312 
L 407.26375 7.2 
L 50.14375 7.2 
z
" style="fill: #ffffff"/>
   </g>
   <g id="patch_3">
    <path d="M 67.658029 273.312 
L 69.274827 273.312 
L 69.274827 268.963765 
L 67.658029 268.963765 
z
" clip-path="url(#p15e86210ce)" style="fill: #1f77b4"/>
   </g>
   <g id="patch_4">
    <path d="M 69.274827 273.312 
L 70.891625 273.312 
L 70.891625 268.963765 
L 69.274827 268.963765 
z
" clip-path="url(#p15e86210ce)" style="fill: #1f77b4"/>
   </g>
   <g id="patch_5">
    <path d="M 70.891625 273.312 
L 72.508424 273.312 
L 72.508424 270.206118 
L 70.891625 270.206118 
z
" clip-path="url(#p15e86210ce)" style="fill: #1f77b4"/>
   </g>
   <g id="patch_6">
    <path d="M 72.508424 273.312 
L 74.125222 273.312 
L 74.125222 267.100235 
L 72.508424 267.100235 
z
" clip-path="url(#p15e86210ce)" style="fill: #1f77b4"/>
   </g>
   <g id="patch_7">
    <path d="M 74.125222 273.312 
L 75.74202 273.312 
L 75.74202 270.206118 
L 74.125222 270.206118 
z
" clip-path="url(#p15e86210ce)" style="fill: #1f77b4"/>
   </g>
   <g id="patch_8">
    <path d="M 75.74202 273.312 
L 77.358819 273.312 
L 77.358819 265.857882 
L 75.74202 265.857882 
z
" clip-path="url(#p15e86210ce)" style="fill: #1f77b4"/>
   </g>
   <g id="patch_9">
    <path d="M 77.358819 273.312 
L 78.975617 273.312 
L 78.975617 265.857882 
L 77.358819 265.857882 
z
" clip-path="url(#p15e86210ce)" style="fill: #1f77b4"/>
   </g>
   <g id="patch_10">
    <path d="M 78.975617 273.312 
L 80.592415 273.312 
L 80.592415 260.888471 
L 78.975617 260.888471 
z
" clip-path="url(#p15e86210ce)" style="fill: #1f77b4"/>
   </g>
   <g id="patch_11">
    <path d="M 80.592415 273.312 
L 82.209214 273.312 
L 82.209214 257.161412 
L 80.592415 257.161412 
z
" clip-path="url(#p15e86210ce)" style="fill: #1f77b4"/>
   </g>
   <g id="patch_12">
    <path d="M 82.209214 273.312 
L 83.826012 273.312 
L 83.826012 259.646118 
L 82.209214 259.646118 
z
" clip-path="url(#p15e86210ce)" style="fill: #1f77b4"/>
   </g>
   <g id="patch_13">
    <path d="M 83.826012 273.312 
L 85.44281 273.312 
L 85.44281 256.540235 
L 83.826012 256.540235 
z
" clip-path="url(#p15e86210ce)" style="fill: #1f77b4"/>
   </g>
   <g id="patch_14">
    <path d="M 85.44281 273.312 
L 87.059609 273.312 
L 87.059609 258.403765 
L 85.44281 258.403765 
z
" clip-path="url(#p15e86210ce)" style="fill: #1f77b4"/>
   </g>
   <g id="patch_15">
    <path d="M 87.059609 273.312 
L 88.676407 273.312 
L 88.676407 258.403765 
L 87.059609 258.403765 
z
" clip-path="url(#p15e86210ce)" style="fill: #1f77b4"/>
   </g>
   <g id="patch_16">
    <path d="M 88.676407 273.312 
L 90.293205 273.312 
L 90.293205 253.434353 
L 88.676407 253.434353 
z
" clip-path="url(#p15e86210ce)" style="fill: #1f77b4"/>
   </g>
   <g id="patch_17">
    <path d="M 90.293205 273.312 
L 91.910004 273.312 
L 91.910004 257.161412 
L 90.293205 257.161412 
z
" clip-path="url(#p15e86210ce)" style="fill: #1f77b4"/>
   </g>
   <g id="patch_18">
    <path d="M 91.910004 273.312 
L 93.526802 273.312 
L 93.526802 259.024941 
L 91.910004 259.024941 
z
" clip-path="url(#p15e86210ce)" style="fill: #1f77b4"/>
   </g>
   <g id="patch_19">
    <path d="M 93.526802 273.312 
L 95.1436 273.312 
L 95.1436 250.328471 
L 93.526802 250.328471 
z
" clip-path="url(#p15e86210ce)" style="fill: #1f77b4"/>
   </g>
   <g id="patch_20">
    <path d="M 95.1436 273.312 
L 96.760399 273.312 
L 96.760399 245.980235 
L 95.1436 245.980235 
z
" clip-path="url(#p15e86210ce)" style="fill: #1f77b4"/>
   </g>
   <g id="patch_21">
    <path d="M 96.760399 273.312 
L 98.377197 273.312 
L 98.377197 249.086118 
L 96.760399 249.086118 
z
" clip-path="url(#p15e86210ce)" style="fill: #1f77b4"/>
   </g>
   <g id="patch_22">
    <path d="M 98.377197 273.312 
L 99.993995 273.312 
L 99.993995 245.980235 
L 98.377197 245.980235 
z
" clip-path="url(#p15e86210ce)" style="fill: #1f77b4"/>
   </g>
   <g id="patch_23">
    <path d="M 99.993995 273.312 
L 101.610794 273.312 
L 101.610794 241.632 
L 99.993995 241.632 
z
" clip-path="url(#p15e86210ce)" style="fill: #1f77b4"/>
   </g>
   <g id="patch_24">
    <path d="M 101.610794 273.312 
L 103.227592 273.312 
L 103.227592 249.707294 
L 101.610794 249.707294 
z
" clip-path="url(#p15e86210ce)" style="fill: #1f77b4"/>
   </g>
   <g id="patch_25">
    <path d="M 103.227592 273.312 
L 104.84439 273.312 
L 104.84439 243.495529 
L 103.227592 243.495529 
z
" clip-path="url(#p15e86210ce)" style="fill: #1f77b4"/>
   </g>
   <g id="patch_26">
    <path d="M 104.84439 273.312 
L 106.461189 273.312 
L 106.461189 241.010824 
L 104.84439 241.010824 
z
" clip-path="url(#p15e86210ce)" style="fill: #1f77b4"/>
   </g>
   <g id="patch_27">
    <path d="M 106.461189 273.312 
L 108.077987 273.312 
L 108.077987 231.072 
L 106.461189 231.072 
z
" clip-path="url(#p15e86210ce)" style="fill: #1f77b4"/>
   </g>
   <g id="patch_28">
    <path d="M 108.077987 273.312 
L 109.694785 273.312 
L 109.694785 231.072 
L 108.077987 231.072 
z
" clip-path="url(#p15e86210ce)" style="fill: #1f77b4"/>
   </g>
   <g id="patch_29">
    <path d="M 109.694785 273.312 
L 111.311584 273.312 
L 111.311584 237.283765 
L 109.694785 237.283765 
z
" clip-path="url(#p15e86210ce)" style="fill: #1f77b4"/>
   </g>
   <g id="patch_30">
    <path d="M 111.311584 273.312 
L 112.928382 273.312 
L 112.928382 245.980235 
L 111.311584 245.980235 
z
" clip-path="url(#p15e86210ce)" style="fill: #1f77b4"/>
   </g>
   <g id="patch_31">
    <path d="M 112.928382 273.312 
L 114.54518 273.312 
L 114.54518 244.116706 
L 112.928382 244.116706 
z
" clip-path="url(#p15e86210ce)" style="fill: #1f77b4"/>
   </g>
   <g id="patch_32">
    <path d="M 114.54518 273.312 
L 116.161979 273.312 
L 116.161979 234.799059 
L 114.54518 234.799059 
z
" clip-path="url(#p15e86210ce)" style="fill: #1f77b4"/>
   </g>
   <g id="patch_33">
    <path d="M 116.161979 273.312 
L 117.778777 273.312 
L 117.778777 247.222588 
L 116.161979 247.222588 
z
" clip-path="url(#p15e86210ce)" style="fill: #1f77b4"/>
   </g>
   <g id="patch_34">
    <path d="M 117.778777 273.312 
L 119.395575 273.312 
L 119.395575 241.632 
L 117.778777 241.632 
z
" clip-path="url(#p15e86210ce)" style="fill: #1f77b4"/>
   </g>
   <g id="patch_35">
    <path d="M 119.395575 273.312 
L 121.012374 273.312 
L 121.012374 238.526118 
L 119.395575 238.526118 
z
" clip-path="url(#p15e86210ce)" style="fill: #1f77b4"/>
   </g>
   <g id="patch_36">
    <path d="M 121.012374 273.312 
L 122.629172 273.312 
L 122.629172 242.874353 
L 121.012374 242.874353 
z
" clip-path="url(#p15e86210ce)" style="fill: #1f77b4"/>
   </g>
   <g id="patch_37">
    <path d="M 122.629172 273.312 
L 124.24597 273.312 
L 124.24597 225.481412 
L 122.629172 225.481412 
z
" clip-path="url(#p15e86210ce)" style="fill: #1f77b4"/>
   </g>
   <g id="patch_38">
    <path d="M 124.24597 273.312 
L 125.862769 273.312 
L 125.862769 230.450824 
L 124.24597 230.450824 
z
" clip-path="url(#p15e86210ce)" style="fill: #1f77b4"/>
   </g>
   <g id="patch_39">
    <path d="M 125.862769 273.312 
L 127.479567 273.312 
L 127.479567 232.314353 
L 125.862769 232.314353 
z
" clip-path="url(#p15e86210ce)" style="fill: #1f77b4"/>
   </g>
   <g id="patch_40">
    <path d="M 127.479567 273.312 
L 129.096365 273.312 
L 129.096365 231.693176 
L 127.479567 231.693176 
z
" clip-path="url(#p15e86210ce)" style="fill: #1f77b4"/>
   </g>
   <g id="patch_41">
    <path d="M 129.096365 273.312 
L 130.713164 273.312 
L 130.713164 220.512 
L 129.096365 220.512 
z
" clip-path="url(#p15e86210ce)" style="fill: #1f77b4"/>
   </g>
   <g id="patch_42">
    <path d="M 130.713164 273.312 
L 132.329962 273.312 
L 132.329962 222.996706 
L 130.713164 222.996706 
z
" clip-path="url(#p15e86210ce)" style="fill: #1f77b4"/>
   </g>
   <g id="patch_43">
    <path d="M 132.329962 273.312 
L 133.94676 273.312 
L 133.94676 222.996706 
L 132.329962 222.996706 
z
" clip-path="url(#p15e86210ce)" style="fill: #1f77b4"/>
   </g>
   <g id="patch_44">
    <path d="M 133.94676 273.312 
L 135.563559 273.312 
L 135.563559 231.693176 
L 133.94676 231.693176 
z
" clip-path="url(#p15e86210ce)" style="fill: #1f77b4"/>
   </g>
   <g id="patch_45">
    <path d="M 135.563559 273.312 
L 137.180357 273.312 
L 137.180357 221.133176 
L 135.563559 221.133176 
z
" clip-path="url(#p15e86210ce)" style="fill: #1f77b4"/>
   </g>
   <g id="patch_46">
    <path d="M 137.180357 273.312 
L 138.797155 273.312 
L 138.797155 234.177882 
L 137.180357 234.177882 
z
" clip-path="url(#p15e86210ce)" style="fill: #1f77b4"/>
   </g>
   <g id="patch_47">
    <path d="M 138.797155 273.312 
L 140.413954 273.312 
L 140.413954 224.860235 
L 138.797155 224.860235 
z
" clip-path="url(#p15e86210ce)" style="fill: #1f77b4"/>
   </g>
   <g id="patch_48">
    <path d="M 140.413954 273.312 
L 142.030752 273.312 
L 142.030752 209.952 
L 140.413954 209.952 
z
" clip-path="url(#p15e86210ce)" style="fill: #1f77b4"/>
   </g>
   <g id="patch_49">
    <path d="M 142.030752 273.312 
L 143.64755 273.312 
L 143.64755 215.542588 
L 142.030752 215.542588 
z
" clip-path="url(#p15e86210ce)" style="fill: #1f77b4"/>
   </g>
   <g id="patch_50">
    <path d="M 143.64755 273.312 
L 145.264349 273.312 
L 145.264349 203.740235 
L 143.64755 203.740235 
z
" clip-path="url(#p15e86210ce)" style="fill: #1f77b4"/>
   </g>
   <g id="patch_51">
    <path d="M 145.264349 273.312 
L 146.881147 273.312 
L 146.881147 208.709647 
L 145.264349 208.709647 
z
" clip-path="url(#p15e86210ce)" style="fill: #1f77b4"/>
   </g>
   <g id="patch_52">
    <path d="M 146.881147 273.312 
L 148.497945 273.312 
L 148.497945 204.982588 
L 146.881147 204.982588 
z
" clip-path="url(#p15e86210ce)" style="fill: #1f77b4"/>
   </g>
   <g id="patch_53">
    <path d="M 148.497945 273.312 
L 150.114744 273.312 
L 150.114744 212.436706 
L 148.497945 212.436706 
z
" clip-path="url(#p15e86210ce)" style="fill: #1f77b4"/>
   </g>
   <g id="patch_54">
    <path d="M 150.114744 273.312 
L 151.731542 273.312 
L 151.731542 213.057882 
L 150.114744 213.057882 
z
" clip-path="url(#p15e86210ce)" style="fill: #1f77b4"/>
   </g>
   <g id="patch_55">
    <path d="M 151.731542 273.312 
L 153.34834 273.312 
L 153.34834 216.163765 
L 151.731542 216.163765 
z
" clip-path="url(#p15e86210ce)" style="fill: #1f77b4"/>
   </g>
   <g id="patch_56">
    <path d="M 153.34834 273.312 
L 154.965139 273.312 
L 154.965139 197.528471 
L 153.34834 197.528471 
z
" clip-path="url(#p15e86210ce)" style="fill: #1f77b4"/>
   </g>
   <g id="patch_57">
    <path d="M 154.965139 273.312 
L 156.581937 273.312 
L 156.581937 211.815529 
L 154.965139 211.815529 
z
" clip-path="url(#p15e86210ce)" style="fill: #1f77b4"/>
   </g>
   <g id="patch_58">
    <path d="M 156.581937 273.312 
L 158.198735 273.312 
L 158.198735 201.255529 
L 156.581937 201.255529 
z
" clip-path="url(#p15e86210ce)" style="fill: #1f77b4"/>
   </g>
   <g id="patch_59">
    <path d="M 158.198735 273.312 
L 159.815534 273.312 
L 159.815534 203.740235 
L 158.198735 203.740235 
z
" clip-path="url(#p15e86210ce)" style="fill: #1f77b4"/>
   </g>
   <g id="patch_60">
    <path d="M 159.815534 273.312 
L 161.432332 273.312 
L 161.432332 206.224941 
L 159.815534 206.224941 
z
" clip-path="url(#p15e86210ce)" style="fill: #1f77b4"/>
   </g>
   <g id="patch_61">
    <path d="M 161.432332 273.312 
L 163.04913 273.312 
L 163.04913 197.528471 
L 161.432332 197.528471 
z
" clip-path="url(#p15e86210ce)" style="fill: #1f77b4"/>
   </g>
   <g id="patch_62">
    <path d="M 163.04913 273.312 
L 164.665929 273.312 
L 164.665929 196.907294 
L 163.04913 196.907294 
z
" clip-path="url(#p15e86210ce)" style="fill: #1f77b4"/>
   </g>
   <g id="patch_63">
    <path d="M 164.665929 273.312 
L 166.282727 273.312 
L 166.282727 198.149647 
L 164.665929 198.149647 
z
" clip-path="url(#p15e86210ce)" style="fill: #1f77b4"/>
   </g>
   <g id="patch_64">
    <path d="M 166.282727 273.312 
L 167.899525 273.312 
L 167.899525 198.770824 
L 166.282727 198.770824 
z
" clip-path="url(#p15e86210ce)" style="fill: #1f77b4"/>
   </g>
   <g id="patch_65">
    <path d="M 167.899525 273.312 
L 169.516324 273.312 
L 169.516324 208.709647 
L 167.899525 208.709647 
z
" clip-path="url(#p15e86210ce)" style="fill: #1f77b4"/>
   </g>
   <g id="patch_66">
    <path d="M 169.516324 273.312 
L 171.133122 273.312 
L 171.133122 191.937882 
L 169.516324 191.937882 
z
" clip-path="url(#p15e86210ce)" style="fill: #1f77b4"/>
   </g>
   <g id="patch_67">
    <path d="M 171.133122 273.312 
L 172.74992 273.312 
L 172.74992 184.483765 
L 171.133122 184.483765 
z
" clip-path="url(#p15e86210ce)" style="fill: #1f77b4"/>
   </g>
   <g id="patch_68">
    <path d="M 172.74992 273.312 
L 174.366719 273.312 
L 174.366719 200.013176 
L 172.74992 200.013176 
z
" clip-path="url(#p15e86210ce)" style="fill: #1f77b4"/>
   </g>
   <g id="patch_69">
    <path d="M 174.366719 273.312 
L 175.983517 273.312 
L 175.983517 190.074353 
L 174.366719 190.074353 
z
" clip-path="url(#p15e86210ce)" style="fill: #1f77b4"/>
   </g>
   <g id="patch_70">
    <path d="M 175.983517 273.312 
L 177.600315 273.312 
L 177.600315 189.453176 
L 175.983517 189.453176 
z
" clip-path="url(#p15e86210ce)" style="fill: #1f77b4"/>
   </g>
   <g id="patch_71">
    <path d="M 177.600315 273.312 
L 179.217114 273.312 
L 179.217114 181.999059 
L 177.600315 181.999059 
z
" clip-path="url(#p15e86210ce)" style="fill: #1f77b4"/>
   </g>
   <g id="patch_72">
    <path d="M 179.217114 273.312 
L 180.833912 273.312 
L 180.833912 180.135529 
L 179.217114 180.135529 
z
" clip-path="url(#p15e86210ce)" style="fill: #1f77b4"/>
   </g>
   <g id="patch_73">
    <path d="M 180.833912 273.312 
L 182.45071 273.312 
L 182.45071 193.801412 
L 180.833912 193.801412 
z
" clip-path="url(#p15e86210ce)" style="fill: #1f77b4"/>
   </g>
   <g id="patch_74">
    <path d="M 182.45071 273.312 
L 184.067509 273.312 
L 184.067509 196.907294 
L 182.45071 196.907294 
z
" clip-path="url(#p15e86210ce)" style="fill: #1f77b4"/>
   </g>
   <g id="patch_75">
    <path d="M 184.067509 273.312 
L 185.684307 273.312 
L 185.684307 162.121412 
L 184.067509 162.121412 
z
" clip-path="url(#p15e86210ce)" style="fill: #1f77b4"/>
   </g>
   <g id="patch_76">
    <path d="M 185.684307 273.312 
L 187.301105 273.312 
L 187.301105 170.196706 
L 185.684307 170.196706 
z
" clip-path="url(#p15e86210ce)" style="fill: #1f77b4"/>
   </g>
   <g id="patch_77">
    <path d="M 187.301105 273.312 
L 188.917904 273.312 
L 188.917904 184.483765 
L 187.301105 184.483765 
z
" clip-path="url(#p15e86210ce)" style="fill: #1f77b4"/>
   </g>
   <g id="patch_78">
    <path d="M 188.917904 273.312 
L 190.534702 273.312 
L 190.534702 178.893176 
L 188.917904 178.893176 
z
" clip-path="url(#p15e86210ce)" style="fill: #1f77b4"/>
   </g>
   <g id="patch_79">
    <path d="M 190.534702 273.312 
L 192.1515 273.312 
L 192.1515 178.272 
L 190.534702 178.272 
z
" clip-path="url(#p15e86210ce)" style="fill: #1f77b4"/>
   </g>
   <g id="patch_80">
    <path d="M 192.1515 273.312 
L 193.768299 273.312 
L 193.768299 177.029647 
L 192.1515 177.029647 
z
" clip-path="url(#p15e86210ce)" style="fill: #1f77b4"/>
   </g>
   <g id="patch_81">
    <path d="M 193.768299 273.312 
L 195.385097 273.312 
L 195.385097 164.606118 
L 193.768299 164.606118 
z
" clip-path="url(#p15e86210ce)" style="fill: #1f77b4"/>
   </g>
   <g id="patch_82">
    <path d="M 195.385097 273.312 
L 197.001895 273.312 
L 197.001895 177.650824 
L 195.385097 177.650824 
z
" clip-path="url(#p15e86210ce)" style="fill: #1f77b4"/>
   </g>
   <g id="patch_83">
    <path d="M 197.001895 273.312 
L 198.618694 273.312 
L 198.618694 172.060235 
L 197.001895 172.060235 
z
" clip-path="url(#p15e86210ce)" style="fill: #1f77b4"/>
   </g>
   <g id="patch_84">
    <path d="M 198.618694 273.312 
L 200.235492 273.312 
L 200.235492 183.862588 
L 198.618694 183.862588 
z
" clip-path="url(#p15e86210ce)" style="fill: #1f77b4"/>
   </g>
   <g id="patch_85">
    <path d="M 200.235492 273.312 
L 201.85229 273.312 
L 201.85229 173.923765 
L 200.235492 173.923765 
z
" clip-path="url(#p15e86210ce)" style="fill: #1f77b4"/>
   </g>
   <g id="patch_86">
    <path d="M 201.85229 273.312 
L 203.469089 273.312 
L 203.469089 167.090824 
L 201.85229 167.090824 
z
" clip-path="url(#p15e86210ce)" style="fill: #1f77b4"/>
   </g>
   <g id="patch_87">
    <path d="M 203.469089 273.312 
L 205.085887 273.312 
L 205.085887 162.121412 
L 203.469089 162.121412 
z
" clip-path="url(#p15e86210ce)" style="fill: #1f77b4"/>
   </g>
   <g id="patch_88">
    <path d="M 205.085887 273.312 
L 206.702685 273.312 
L 206.702685 163.363765 
L 205.085887 163.363765 
z
" clip-path="url(#p15e86210ce)" style="fill: #1f77b4"/>
   </g>
   <g id="patch_89">
    <path d="M 206.702685 273.312 
L 208.319484 273.312 
L 208.319484 171.439059 
L 206.702685 171.439059 
z
" clip-path="url(#p15e86210ce)" style="fill: #1f77b4"/>
   </g>
   <g id="patch_90">
    <path d="M 208.319484 273.312 
L 209.936282 273.312 
L 209.936282 172.060235 
L 208.319484 172.060235 
z
" clip-path="url(#p15e86210ce)" style="fill: #1f77b4"/>
   </g>
   <g id="patch_91">
    <path d="M 209.936282 273.312 
L 211.55308 273.312 
L 211.55308 167.712 
L 209.936282 167.712 
z
" clip-path="url(#p15e86210ce)" style="fill: #1f77b4"/>
   </g>
   <g id="patch_92">
    <path d="M 211.55308 273.312 
L 213.169879 273.312 
L 213.169879 160.257882 
L 211.55308 160.257882 
z
" clip-path="url(#p15e86210ce)" style="fill: #1f77b4"/>
   </g>
   <g id="patch_93">
    <path d="M 213.169879 273.312 
L 214.786677 273.312 
L 214.786677 168.954353 
L 213.169879 168.954353 
z
" clip-path="url(#p15e86210ce)" style="fill: #1f77b4"/>
   </g>
   <g id="patch_94">
    <path d="M 214.786677 273.312 
L 216.403475 273.312 
L 216.403475 159.636706 
L 214.786677 159.636706 
z
" clip-path="url(#p15e86210ce)" style="fill: #1f77b4"/>
   </g>
   <g id="patch_95">
    <path d="M 216.403475 273.312 
L 218.020274 273.312 
L 218.020274 138.516706 
L 216.403475 138.516706 
z
" clip-path="url(#p15e86210ce)" style="fill: #1f77b4"/>
   </g>
   <g id="patch_96">
    <path d="M 218.020274 273.312 
L 219.637072 273.312 
L 219.637072 162.121412 
L 218.020274 162.121412 
z
" clip-path="url(#p15e86210ce)" style="fill: #1f77b4"/>
   </g>
   <g id="patch_97">
    <path d="M 219.637072 273.312 
L 221.25387 273.312 
L 221.25387 155.288471 
L 219.637072 155.288471 
z
" clip-path="url(#p15e86210ce)" style="fill: #1f77b4"/>
   </g>
   <g id="patch_98">
    <path d="M 221.25387 273.312 
L 222.870669 273.312 
L 222.870669 154.667294 
L 221.25387 154.667294 
z
" clip-path="url(#p15e86210ce)" style="fill: #1f77b4"/>
   </g>
   <g id="patch_99">
    <path d="M 222.870669 273.312 
L 224.487467 273.312 
L 224.487467 139.137882 
L 222.870669 139.137882 
z
" clip-path="url(#p15e86210ce)" style="fill: #1f77b4"/>
   </g>
   <g id="patch_100">
    <path d="M 224.487467 273.312 
L 226.104265 273.312 
L 226.104265 152.803765 
L 224.487467 152.803765 
z
" clip-path="url(#p15e86210ce)" style="fill: #1f77b4"/>
   </g>
   <g id="patch_101">
    <path d="M 226.104265 273.312 
L 227.721064 273.312 
L 227.721064 149.697882 
L 226.104265 149.697882 
z
" clip-path="url(#p15e86210ce)" style="fill: #1f77b4"/>
   </g>
   <g id="patch_102">
    <path d="M 227.721064 273.312 
L 229.337862 273.312 
L 229.337862 143.486118 
L 227.721064 143.486118 
z
" clip-path="url(#p15e86210ce)" style="fill: #1f77b4"/>
   </g>
   <g id="patch_103">
    <path d="M 229.337862 273.312 
L 230.95466 273.312 
L 230.95466 154.046118 
L 229.337862 154.046118 
z
" clip-path="url(#p15e86210ce)" style="fill: #1f77b4"/>
   </g>
   <g id="patch_104">
    <path d="M 230.95466 273.312 
L 232.571459 273.312 
L 232.571459 145.970824 
L 230.95466 145.970824 
z
" clip-path="url(#p15e86210ce)" style="fill: #1f77b4"/>
   </g>
   <g id="patch_105">
    <path d="M 232.571459 273.312 
L 234.188257 273.312 
L 234.188257 155.909647 
L 232.571459 155.909647 
z
" clip-path="url(#p15e86210ce)" style="fill: #1f77b4"/>
   </g>
   <g id="patch_106">
    <path d="M 234.188257 273.312 
L 235.805055 273.312 
L 235.805055 145.970824 
L 234.188257 145.970824 
z
" clip-path="url(#p15e86210ce)" style="fill: #1f77b4"/>
   </g>
   <g id="patch_107">
    <path d="M 235.805055 273.312 
L 237.421854 273.312 
L 237.421854 151.561412 
L 235.805055 151.561412 
z
" clip-path="url(#p15e86210ce)" style="fill: #1f77b4"/>
   </g>
   <g id="patch_108">
    <path d="M 237.421854 273.312 
L 239.038652 273.312 
L 239.038652 133.547294 
L 237.421854 133.547294 
z
" clip-path="url(#p15e86210ce)" style="fill: #1f77b4"/>
   </g>
   <g id="patch_109">
    <path d="M 239.038652 273.312 
L 240.65545 273.312 
L 240.65545 142.864941 
L 239.038652 142.864941 
z
" clip-path="url(#p15e86210ce)" style="fill: #1f77b4"/>
   </g>
   <g id="patch_110">
    <path d="M 240.65545 273.312 
L 242.272249 273.312 
L 242.272249 154.046118 
L 240.65545 154.046118 
z
" clip-path="url(#p15e86210ce)" style="fill: #1f77b4"/>
   </g>
   <g id="patch_111">
    <path d="M 242.272249 273.312 
L 243.889047 273.312 
L 243.889047 143.486118 
L 242.272249 143.486118 
z
" clip-path="url(#p15e86210ce)" style="fill: #1f77b4"/>
   </g>
   <g id="patch_112">
    <path d="M 243.889047 273.312 
L 245.505845 273.312 
L 245.505845 145.349647 
L 243.889047 145.349647 
z
" clip-path="url(#p15e86210ce)" style="fill: #1f77b4"/>
   </g>
   <g id="patch_113">
    <path d="M 245.505845 273.312 
L 247.122644 273.312 
L 247.122644 121.744941 
L 245.505845 121.744941 
z
" clip-path="url(#p15e86210ce)" style="fill: #1f77b4"/>
   </g>
   <g id="patch_114">
    <path d="M 247.122644 273.312 
L 248.739442 273.312 
L 248.739442 126.714353 
L 247.122644 126.714353 
z
" clip-path="url(#p15e86210ce)" style="fill: #1f77b4"/>
   </g>
   <g id="patch_115">
    <path d="M 248.739442 273.312 
L 250.35624 273.312 
L 250.35624 144.107294 
L 248.739442 144.107294 
z
" clip-path="url(#p15e86210ce)" style="fill: #1f77b4"/>
   </g>
   <g id="patch_116">
    <path d="M 250.35624 273.312 
L 251.973039 273.312 
L 251.973039 139.759059 
L 250.35624 139.759059 
z
" clip-path="url(#p15e86210ce)" style="fill: #1f77b4"/>
   </g>
   <g id="patch_117">
    <path d="M 251.973039 273.312 
L 253.589837 273.312 
L 253.589837 119.260235 
L 251.973039 119.260235 
z
" clip-path="url(#p15e86210ce)" style="fill: #1f77b4"/>
   </g>
   <g id="patch_118">
    <path d="M 253.589837 273.312 
L 255.206635 273.312 
L 255.206635 119.881412 
L 253.589837 119.881412 
z
" clip-path="url(#p15e86210ce)" style="fill: #1f77b4"/>
   </g>
   <g id="patch_119">
    <path d="M 255.206635 273.312 
L 256.823434 273.312 
L 256.823434 143.486118 
L 255.206635 143.486118 
z
" clip-path="url(#p15e86210ce)" style="fill: #1f77b4"/>
   </g>
   <g id="patch_120">
    <path d="M 256.823434 273.312 
L 258.440232 273.312 
L 258.440232 134.168471 
L 256.823434 134.168471 
z
" clip-path="url(#p15e86210ce)" style="fill: #1f77b4"/>
   </g>
   <g id="patch_121">
    <path d="M 258.440232 273.312 
L 260.05703 273.312 
L 260.05703 109.942588 
L 258.440232 109.942588 
z
" clip-path="url(#p15e86210ce)" style="fill: #1f77b4"/>
   </g>
   <g id="patch_122">
    <path d="M 260.05703 273.312 
L 261.673829 273.312 
L 261.673829 139.137882 
L 260.05703 139.137882 
z
" clip-path="url(#p15e86210ce)" style="fill: #1f77b4"/>
   </g>
   <g id="patch_123">
    <path d="M 261.673829 273.312 
L 263.290627 273.312 
L 263.290627 129.199059 
L 261.673829 129.199059 
z
" clip-path="url(#p15e86210ce)" style="fill: #1f77b4"/>
   </g>
   <g id="patch_124">
    <path d="M 263.290627 273.312 
L 264.907425 273.312 
L 264.907425 114.912 
L 263.290627 114.912 
z
" clip-path="url(#p15e86210ce)" style="fill: #1f77b4"/>
   </g>
   <g id="patch_125">
    <path d="M 264.907425 273.312 
L 266.524224 273.312 
L 266.524224 132.304941 
L 264.907425 132.304941 
z
" clip-path="url(#p15e86210ce)" style="fill: #1f77b4"/>
   </g>
   <g id="patch_126">
    <path d="M 266.524224 273.312 
L 268.141022 273.312 
L 268.141022 104.352 
L 266.524224 104.352 
z
" clip-path="url(#p15e86210ce)" style="fill: #1f77b4"/>
   </g>
   <g id="patch_127">
    <path d="M 268.141022 273.312 
L 269.75782 273.312 
L 269.75782 117.396706 
L 268.141022 117.396706 
z
" clip-path="url(#p15e86210ce)" style="fill: #1f77b4"/>
   </g>
   <g id="patch_128">
    <path d="M 269.75782 273.312 
L 271.374619 273.312 
L 271.374619 118.639059 
L 269.75782 118.639059 
z
" clip-path="url(#p15e86210ce)" style="fill: #1f77b4"/>
   </g>
   <g id="patch_129">
    <path d="M 271.374619 273.312 
L 272.991417 273.312 
L 272.991417 124.229647 
L 271.374619 124.229647 
z
" clip-path="url(#p15e86210ce)" style="fill: #1f77b4"/>
   </g>
   <g id="patch_130">
    <path d="M 272.991417 273.312 
L 274.608215 273.312 
L 274.608215 95.034353 
L 272.991417 95.034353 
z
" clip-path="url(#p15e86210ce)" style="fill: #1f77b4"/>
   </g>
   <g id="patch_131">
    <path d="M 274.608215 273.312 
L 276.225014 273.312 
L 276.225014 103.730824 
L 274.608215 103.730824 
z
" clip-path="url(#p15e86210ce)" style="fill: #1f77b4"/>
   </g>
   <g id="patch_132">
    <path d="M 276.225014 273.312 
L 277.841812 273.312 
L 277.841812 109.942588 
L 276.225014 109.942588 
z
" clip-path="url(#p15e86210ce)" style="fill: #1f77b4"/>
   </g>
   <g id="patch_133">
    <path d="M 277.841812 273.312 
L 279.45861 273.312 
L 279.45861 102.488471 
L 277.841812 102.488471 
z
" clip-path="url(#p15e86210ce)" style="fill: #1f77b4"/>
   </g>
   <g id="patch_134">
    <path d="M 279.45861 273.312 
L 281.075409 273.312 
L 281.075409 90.686118 
L 279.45861 90.686118 
z
" clip-path="url(#p15e86210ce)" style="fill: #1f77b4"/>
   </g>
   <g id="patch_135">
    <path d="M 281.075409 273.312 
L 282.692207 273.312 
L 282.692207 119.881412 
L 281.075409 119.881412 
z
" clip-path="url(#p15e86210ce)" style="fill: #1f77b4"/>
   </g>
   <g id="patch_136">
    <path d="M 282.692207 273.312 
L 284.309005 273.312 
L 284.309005 101.867294 
L 282.692207 101.867294 
z
" clip-path="url(#p15e86210ce)" style="fill: #1f77b4"/>
   </g>
   <g id="patch_137">
    <path d="M 284.309005 273.312 
L 285.925804 273.312 
L 285.925804 108.079059 
L 284.309005 108.079059 
z
" clip-path="url(#p15e86210ce)" style="fill: #1f77b4"/>
   </g>
   <g id="patch_138">
    <path d="M 285.925804 273.312 
L 287.542602 273.312 
L 287.542602 114.912 
L 285.925804 114.912 
z
" clip-path="url(#p15e86210ce)" style="fill: #1f77b4"/>
   </g>
   <g id="patch_139">
    <path d="M 287.542602 273.312 
L 289.1594 273.312 
L 289.1594 115.533176 
L 287.542602 115.533176 
z
" clip-path="url(#p15e86210ce)" style="fill: #1f77b4"/>
   </g>
   <g id="patch_140">
    <path d="M 289.1594 273.312 
L 290.776199 273.312 
L 290.776199 113.048471 
L 289.1594 113.048471 
z
" clip-path="url(#p15e86210ce)" style="fill: #1f77b4"/>
   </g>
   <g id="patch_141">
    <path d="M 290.776199 273.312 
L 292.392997 273.312 
L 292.392997 122.366118 
L 290.776199 122.366118 
z
" clip-path="url(#p15e86210ce)" style="fill: #1f77b4"/>
   </g>
   <g id="patch_142">
    <path d="M 292.392997 273.312 
L 294.009795 273.312 
L 294.009795 121.744941 
L 292.392997 121.744941 
z
" clip-path="url(#p15e86210ce)" style="fill: #1f77b4"/>
   </g>
   <g id="patch_143">
    <path d="M 294.009795 273.312 
L 295.626594 273.312 
L 295.626594 92.549647 
L 294.009795 92.549647 
z
" clip-path="url(#p15e86210ce)" style="fill: #1f77b4"/>
   </g>
   <g id="patch_144">
    <path d="M 295.626594 273.312 
L 297.243392 273.312 
L 297.243392 88.201412 
L 295.626594 88.201412 
z
" clip-path="url(#p15e86210ce)" style="fill: #1f77b4"/>
   </g>
   <g id="patch_145">
    <path d="M 297.243392 273.312 
L 298.86019 273.312 
L 298.86019 88.201412 
L 297.243392 88.201412 
z
" clip-path="url(#p15e86210ce)" style="fill: #1f77b4"/>
   </g>
   <g id="patch_146">
    <path d="M 298.86019 273.312 
L 300.476989 273.312 
L 300.476989 90.686118 
L 298.86019 90.686118 
z
" clip-path="url(#p15e86210ce)" style="fill: #1f77b4"/>
   </g>
   <g id="patch_147">
    <path d="M 300.476989 273.312 
L 302.093787 273.312 
L 302.093787 118.017882 
L 300.476989 118.017882 
z
" clip-path="url(#p15e86210ce)" style="fill: #1f77b4"/>
   </g>
   <g id="patch_148">
    <path d="M 302.093787 273.312 
L 303.710586 273.312 
L 303.710586 84.474353 
L 302.093787 84.474353 
z
" clip-path="url(#p15e86210ce)" style="fill: #1f77b4"/>
   </g>
   <g id="patch_149">
    <path d="M 303.710586 273.312 
L 305.327384 273.312 
L 305.327384 90.064941 
L 303.710586 90.064941 
z
" clip-path="url(#p15e86210ce)" style="fill: #1f77b4"/>
   </g>
   <g id="patch_150">
    <path d="M 305.327384 273.312 
L 306.944182 273.312 
L 306.944182 83.232 
L 305.327384 83.232 
z
" clip-path="url(#p15e86210ce)" style="fill: #1f77b4"/>
   </g>
   <g id="patch_151">
    <path d="M 306.944182 273.312 
L 308.560981 273.312 
L 308.560981 89.443765 
L 306.944182 89.443765 
z
" clip-path="url(#p15e86210ce)" style="fill: #1f77b4"/>
   </g>
   <g id="patch_152">
    <path d="M 308.560981 273.312 
L 310.177779 273.312 
L 310.177779 90.064941 
L 308.560981 90.064941 
z
" clip-path="url(#p15e86210ce)" style="fill: #1f77b4"/>
   </g>
   <g id="patch_153">
    <path d="M 310.177779 273.312 
L 311.794577 273.312 
L 311.794577 81.368471 
L 310.177779 81.368471 
z
" clip-path="url(#p15e86210ce)" style="fill: #1f77b4"/>
   </g>
   <g id="patch_154">
    <path d="M 311.794577 273.312 
L 313.411376 273.312 
L 313.411376 72.050824 
L 311.794577 72.050824 
z
" clip-path="url(#p15e86210ce)" style="fill: #1f77b4"/>
   </g>
   <g id="patch_155">
    <path d="M 313.411376 273.312 
L 315.028174 273.312 
L 315.028174 82.610824 
L 313.411376 82.610824 
z
" clip-path="url(#p15e86210ce)" style="fill: #1f77b4"/>
   </g>
   <g id="patch_156">
    <path d="M 315.028174 273.312 
L 316.644972 273.312 
L 316.644972 77.641412 
L 315.028174 77.641412 
z
" clip-path="url(#p15e86210ce)" style="fill: #1f77b4"/>
   </g>
   <g id="patch_157">
    <path d="M 316.644972 273.312 
L 318.261771 273.312 
L 318.261771 78.883765 
L 316.644972 78.883765 
z
" clip-path="url(#p15e86210ce)" style="fill: #1f77b4"/>
   </g>
   <g id="patch_158">
    <path d="M 318.261771 273.312 
L 319.878569 273.312 
L 319.878569 77.641412 
L 318.261771 77.641412 
z
" clip-path="url(#p15e86210ce)" style="fill: #1f77b4"/>
   </g>
   <g id="patch_159">
    <path d="M 319.878569 273.312 
L 321.495367 273.312 
L 321.495367 85.716706 
L 319.878569 85.716706 
z
" clip-path="url(#p15e86210ce)" style="fill: #1f77b4"/>
   </g>
   <g id="patch_160">
    <path d="M 321.495367 273.312 
L 323.112166 273.312 
L 323.112166 79.504941 
L 321.495367 79.504941 
z
" clip-path="url(#p15e86210ce)" style="fill: #1f77b4"/>
   </g>
   <g id="patch_161">
    <path d="M 323.112166 273.312 
L 324.728964 273.312 
L 324.728964 55.279059 
L 323.112166 55.279059 
z
" clip-path="url(#p15e86210ce)" style="fill: #1f77b4"/>
   </g>
   <g id="patch_162">
    <path d="M 324.728964 273.312 
L 326.345762 273.312 
L 326.345762 57.763765 
L 324.728964 57.763765 
z
" clip-path="url(#p15e86210ce)" style="fill: #1f77b4"/>
   </g>
   <g id="patch_163">
    <path d="M 326.345762 273.312 
L 327.962561 273.312 
L 327.962561 73.914353 
L 326.345762 73.914353 
z
" clip-path="url(#p15e86210ce)" style="fill: #1f77b4"/>
   </g>
   <g id="patch_164">
    <path d="M 327.962561 273.312 
L 329.579359 273.312 
L 329.579359 37.886118 
L 327.962561 37.886118 
z
" clip-path="url(#p15e86210ce)" style="fill: #1f77b4"/>
   </g>
   <g id="patch_165">
    <path d="M 329.579359 273.312 
L 331.196157 273.312 
L 331.196157 83.232 
L 329.579359 83.232 
z
" clip-path="url(#p15e86210ce)" style="fill: #1f77b4"/>
   </g>
   <g id="patch_166">
    <path d="M 331.196157 273.312 
L 332.812956 273.312 
L 332.812956 58.384941 
L 331.196157 58.384941 
z
" clip-path="url(#p15e86210ce)" style="fill: #1f77b4"/>
   </g>
   <g id="patch_167">
    <path d="M 332.812956 273.312 
L 334.429754 273.312 
L 334.429754 75.777882 
L 332.812956 75.777882 
z
" clip-path="url(#p15e86210ce)" style="fill: #1f77b4"/>
   </g>
   <g id="patch_168">
    <path d="M 334.429754 273.312 
L 336.046552 273.312 
L 336.046552 56.521412 
L 334.429754 56.521412 
z
" clip-path="url(#p15e86210ce)" style="fill: #1f77b4"/>
   </g>
   <g id="patch_169">
    <path d="M 336.046552 273.312 
L 337.663351 273.312 
L 337.663351 64.596706 
L 336.046552 64.596706 
z
" clip-path="url(#p15e86210ce)" style="fill: #1f77b4"/>
   </g>
   <g id="patch_170">
    <path d="M 337.663351 273.312 
L 339.280149 273.312 
L 339.280149 51.552 
L 337.663351 51.552 
z
" clip-path="url(#p15e86210ce)" style="fill: #1f77b4"/>
   </g>
   <g id="patch_171">
    <path d="M 339.280149 273.312 
L 340.896947 273.312 
L 340.896947 69.566118 
L 339.280149 69.566118 
z
" clip-path="url(#p15e86210ce)" style="fill: #1f77b4"/>
   </g>
   <g id="patch_172">
    <path d="M 340.896947 273.312 
L 342.513746 273.312 
L 342.513746 46.582588 
L 340.896947 46.582588 
z
" clip-path="url(#p15e86210ce)" style="fill: #1f77b4"/>
   </g>
   <g id="patch_173">
    <path d="M 342.513746 273.312 
L 344.130544 273.312 
L 344.130544 49.067294 
L 342.513746 49.067294 
z
" clip-path="url(#p15e86210ce)" style="fill: #1f77b4"/>
   </g>
   <g id="patch_174">
    <path d="M 344.130544 273.312 
L 345.747342 273.312 
L 345.747342 55.900235 
L 344.130544 55.900235 
z
" clip-path="url(#p15e86210ce)" style="fill: #1f77b4"/>
   </g>
   <g id="patch_175">
    <path d="M 345.747342 273.312 
L 347.364141 273.312 
L 347.364141 63.975529 
L 345.747342 63.975529 
z
" clip-path="url(#p15e86210ce)" style="fill: #1f77b4"/>
   </g>
   <g id="patch_176">
    <path d="M 347.364141 273.312 
L 348.980939 273.312 
L 348.980939 54.036706 
L 347.364141 54.036706 
z
" clip-path="url(#p15e86210ce)" style="fill: #1f77b4"/>
   </g>
   <g id="patch_177">
    <path d="M 348.980939 273.312 
L 350.597737 273.312 
L 350.597737 67.702588 
L 348.980939 67.702588 
z
" clip-path="url(#p15e86210ce)" style="fill: #1f77b4"/>
   </g>
   <g id="patch_178">
    <path d="M 350.597737 273.312 
L 352.214536 273.312 
L 352.214536 59.627294 
L 350.597737 59.627294 
z
" clip-path="url(#p15e86210ce)" style="fill: #1f77b4"/>
   </g>
   <g id="patch_179">
    <path d="M 352.214536 273.312 
L 353.831334 273.312 
L 353.831334 66.460235 
L 352.214536 66.460235 
z
" clip-path="url(#p15e86210ce)" style="fill: #1f77b4"/>
   </g>
   <g id="patch_180">
    <path d="M 353.831334 273.312 
L 355.448132 273.312 
L 355.448132 52.794353 
L 353.831334 52.794353 
z
" clip-path="url(#p15e86210ce)" style="fill: #1f77b4"/>
   </g>
   <g id="patch_181">
    <path d="M 355.448132 273.312 
L 357.064931 273.312 
L 357.064931 44.719059 
L 355.448132 44.719059 
z
" clip-path="url(#p15e86210ce)" style="fill: #1f77b4"/>
   </g>
   <g id="patch_182">
    <path d="M 357.064931 273.312 
L 358.681729 273.312 
L 358.681729 62.733176 
L 357.064931 62.733176 
z
" clip-path="url(#p15e86210ce)" style="fill: #1f77b4"/>
   </g>
   <g id="patch_183">
    <path d="M 358.681729 273.312 
L 360.298527 273.312 
L 360.298527 43.476706 
L 358.681729 43.476706 
z
" clip-path="url(#p15e86210ce)" style="fill: #1f77b4"/>
   </g>
   <g id="patch_184">
    <path d="M 360.298527 273.312 
L 361.915326 273.312 
L 361.915326 29.810824 
L 360.298527 29.810824 
z
" clip-path="url(#p15e86210ce)" style="fill: #1f77b4"/>
   </g>
   <g id="patch_185">
    <path d="M 361.915326 273.312 
L 363.532124 273.312 
L 363.532124 62.112 
L 361.915326 62.112 
z
" clip-path="url(#p15e86210ce)" style="fill: #1f77b4"/>
   </g>
   <g id="patch_186">
    <path d="M 363.532124 273.312 
L 365.148922 273.312 
L 365.148922 71.429647 
L 363.532124 71.429647 
z
" clip-path="url(#p15e86210ce)" style="fill: #1f77b4"/>
   </g>
   <g id="patch_187">
    <path d="M 365.148922 273.312 
L 366.765721 273.312 
L 366.765721 54.657882 
L 365.148922 54.657882 
z
" clip-path="url(#p15e86210ce)" style="fill: #1f77b4"/>
   </g>
   <g id="patch_188">
    <path d="M 366.765721 273.312 
L 368.382519 273.312 
L 368.382519 60.248471 
L 366.765721 60.248471 
z
" clip-path="url(#p15e86210ce)" style="fill: #1f77b4"/>
   </g>
   <g id="patch_189">
    <path d="M 368.382519 273.312 
L 369.999317 273.312 
L 369.999317 51.552 
L 368.382519 51.552 
z
" clip-path="url(#p15e86210ce)" style="fill: #1f77b4"/>
   </g>
   <g id="patch_190">
    <path d="M 369.999317 273.312 
L 371.616116 273.312 
L 371.616116 49.688471 
L 369.999317 49.688471 
z
" clip-path="url(#p15e86210ce)" style="fill: #1f77b4"/>
   </g>
   <g id="patch_191">
    <path d="M 371.616116 273.312 
L 373.232914 273.312 
L 373.232914 32.916706 
L 371.616116 32.916706 
z
" clip-path="url(#p15e86210ce)" style="fill: #1f77b4"/>
   </g>
   <g id="patch_192">
    <path d="M 373.232914 273.312 
L 374.849712 273.312 
L 374.849712 30.432 
L 373.232914 30.432 
z
" clip-path="url(#p15e86210ce)" style="fill: #1f77b4"/>
   </g>
   <g id="patch_193">
    <path d="M 374.849712 273.312 
L 376.466511 273.312 
L 376.466511 49.688471 
L 374.849712 49.688471 
z
" clip-path="url(#p15e86210ce)" style="fill: #1f77b4"/>
   </g>
   <g id="patch_194">
    <path d="M 376.466511 273.312 
L 378.083309 273.312 
L 378.083309 52.794353 
L 376.466511 52.794353 
z
" clip-path="url(#p15e86210ce)" style="fill: #1f77b4"/>
   </g>
   <g id="patch_195">
    <path d="M 378.083309 273.312 
L 379.700107 273.312 
L 379.700107 47.824941 
L 378.083309 47.824941 
z
" clip-path="url(#p15e86210ce)" style="fill: #1f77b4"/>
   </g>
   <g id="patch_196">
    <path d="M 379.700107 273.312 
L 381.316906 273.312 
L 381.316906 49.067294 
L 379.700107 49.067294 
z
" clip-path="url(#p15e86210ce)" style="fill: #1f77b4"/>
   </g>
   <g id="patch_197">
    <path d="M 381.316906 273.312 
L 382.933704 273.312 
L 382.933704 27.326118 
L 381.316906 27.326118 
z
" clip-path="url(#p15e86210ce)" style="fill: #1f77b4"/>
   </g>
   <g id="patch_198">
    <path d="M 382.933704 273.312 
L 384.550502 273.312 
L 384.550502 25.462588 
L 382.933704 25.462588 
z
" clip-path="url(#p15e86210ce)" style="fill: #1f77b4"/>
   </g>
   <g id="patch_199">
    <path d="M 384.550502 273.312 
L 386.167301 273.312 
L 386.167301 36.022588 
L 384.550502 36.022588 
z
" clip-path="url(#p15e86210ce)" style="fill: #1f77b4"/>
   </g>
   <g id="patch_200">
    <path d="M 386.167301 273.312 
L 387.784099 273.312 
L 387.784099 24.220235 
L 386.167301 24.220235 
z
" clip-path="url(#p15e86210ce)" style="fill: #1f77b4"/>
   </g>
   <g id="patch_201">
    <path d="M 387.784099 273.312 
L 389.400897 273.312 
L 389.400897 19.872 
L 387.784099 19.872 
z
" clip-path="url(#p15e86210ce)" style="fill: #1f77b4"/>
   </g>
   <g id="patch_202">
    <path d="M 389.400897 273.312 
L 391.017696 273.312 
L 391.017696 23.599059 
L 389.400897 23.599059 
z
" clip-path="url(#p15e86210ce)" style="fill: #1f77b4"/>
   </g>
   <g id="matplotlib.axis_1">
    <g id="xtick_1">
     <g id="line2d_1">
      <defs>
       <path id="mb41803f371" d="M 0 0 
L 0 3.5 
" style="stroke: #000000; stroke-width: 0.8"/>
      </defs>
      <g>
       <use xlink:href="#mb41803f371" x="66.376477" y="273.312" style="stroke: #000000; stroke-width: 0.8"/>
      </g>
     </g>
     <g id="text_1">
      <!-- 0.0 -->
      <g transform="translate(58.424915 287.910437)scale(0.1 -0.1)">
       <defs>
        <path id="DejaVuSans-30" d="M 2034 4250 
Q 1547 4250 1301 3770 
Q 1056 3291 1056 2328 
Q 1056 1369 1301 889 
Q 1547 409 2034 409 
Q 2525 409 2770 889 
Q 3016 1369 3016 2328 
Q 3016 3291 2770 3770 
Q 2525 4250 2034 4250 
z
M 2034 4750 
Q 2819 4750 3233 4129 
Q 3647 3509 3647 2328 
Q 3647 1150 3233 529 
Q 2819 -91 2034 -91 
Q 1250 -91 836 529 
Q 422 1150 422 2328 
Q 422 3509 836 4129 
Q 1250 4750 2034 4750 
z
" transform="scale(0.015625)"/>
        <path id="DejaVuSans-2e" d="M 684 794 
L 1344 794 
L 1344 0 
L 684 0 
L 684 794 
z
" transform="scale(0.015625)"/>
       </defs>
       <use xlink:href="#DejaVuSans-30"/>
       <use xlink:href="#DejaVuSans-2e" x="63.623047"/>
       <use xlink:href="#DejaVuSans-30" x="95.410156"/>
      </g>
     </g>
    </g>
    <g id="xtick_2">
     <g id="line2d_2">
      <g>
       <use xlink:href="#mb41803f371" x="131.307386" y="273.312" style="stroke: #000000; stroke-width: 0.8"/>
      </g>
     </g>
     <g id="text_2">
      <!-- 0.2 -->
      <g transform="translate(123.355824 287.910437)scale(0.1 -0.1)">
       <defs>
        <path id="DejaVuSans-32" d="M 1228 531 
L 3431 531 
L 3431 0 
L 469 0 
L 469 531 
Q 828 903 1448 1529 
Q 2069 2156 2228 2338 
Q 2531 2678 2651 2914 
Q 2772 3150 2772 3378 
Q 2772 3750 2511 3984 
Q 2250 4219 1831 4219 
Q 1534 4219 1204 4116 
Q 875 4013 500 3803 
L 500 4441 
Q 881 4594 1212 4672 
Q 1544 4750 1819 4750 
Q 2544 4750 2975 4387 
Q 3406 4025 3406 3419 
Q 3406 3131 3298 2873 
Q 3191 2616 2906 2266 
Q 2828 2175 2409 1742 
Q 1991 1309 1228 531 
z
" transform="scale(0.015625)"/>
       </defs>
       <use xlink:href="#DejaVuSans-30"/>
       <use xlink:href="#DejaVuSans-2e" x="63.623047"/>
       <use xlink:href="#DejaVuSans-32" x="95.410156"/>
      </g>
     </g>
    </g>
    <g id="xtick_3">
     <g id="line2d_3">
      <g>
       <use xlink:href="#mb41803f371" x="196.238295" y="273.312" style="stroke: #000000; stroke-width: 0.8"/>
      </g>
     </g>
     <g id="text_3">
      <!-- 0.4 -->
      <g transform="translate(188.286733 287.910437)scale(0.1 -0.1)">
       <defs>
        <path id="DejaVuSans-34" d="M 2419 4116 
L 825 1625 
L 2419 1625 
L 2419 4116 
z
M 2253 4666 
L 3047 4666 
L 3047 1625 
L 3713 1625 
L 3713 1100 
L 3047 1100 
L 3047 0 
L 2419 0 
L 2419 1100 
L 313 1100 
L 313 1709 
L 2253 4666 
z
" transform="scale(0.015625)"/>
       </defs>
       <use xlink:href="#DejaVuSans-30"/>
       <use xlink:href="#DejaVuSans-2e" x="63.623047"/>
       <use xlink:href="#DejaVuSans-34" x="95.410156"/>
      </g>
     </g>
    </g>
    <g id="xtick_4">
     <g id="line2d_4">
      <g>
       <use xlink:href="#mb41803f371" x="261.169205" y="273.312" style="stroke: #000000; stroke-width: 0.8"/>
      </g>
     </g>
     <g id="text_4">
      <!-- 0.6 -->
      <g transform="translate(253.217642 287.910437)scale(0.1 -0.1)">
       <defs>
        <path id="DejaVuSans-36" d="M 2113 2584 
Q 1688 2584 1439 2293 
Q 1191 2003 1191 1497 
Q 1191 994 1439 701 
Q 1688 409 2113 409 
Q 2538 409 2786 701 
Q 3034 994 3034 1497 
Q 3034 2003 2786 2293 
Q 2538 2584 2113 2584 
z
M 3366 4563 
L 3366 3988 
Q 3128 4100 2886 4159 
Q 2644 4219 2406 4219 
Q 1781 4219 1451 3797 
Q 1122 3375 1075 2522 
Q 1259 2794 1537 2939 
Q 1816 3084 2150 3084 
Q 2853 3084 3261 2657 
Q 3669 2231 3669 1497 
Q 3669 778 3244 343 
Q 2819 -91 2113 -91 
Q 1303 -91 875 529 
Q 447 1150 447 2328 
Q 447 3434 972 4092 
Q 1497 4750 2381 4750 
Q 2619 4750 2861 4703 
Q 3103 4656 3366 4563 
z
" transform="scale(0.015625)"/>
       </defs>
       <use xlink:href="#DejaVuSans-30"/>
       <use xlink:href="#DejaVuSans-2e" x="63.623047"/>
       <use xlink:href="#DejaVuSans-36" x="95.410156"/>
      </g>
     </g>
    </g>
    <g id="xtick_5">
     <g id="line2d_5">
      <g>
       <use xlink:href="#mb41803f371" x="326.100114" y="273.312" style="stroke: #000000; stroke-width: 0.8"/>
      </g>
     </g>
     <g id="text_5">
      <!-- 0.8 -->
      <g transform="translate(318.148551 287.910437)scale(0.1 -0.1)">
       <defs>
        <path id="DejaVuSans-38" d="M 2034 2216 
Q 1584 2216 1326 1975 
Q 1069 1734 1069 1313 
Q 1069 891 1326 650 
Q 1584 409 2034 409 
Q 2484 409 2743 651 
Q 3003 894 3003 1313 
Q 3003 1734 2745 1975 
Q 2488 2216 2034 2216 
z
M 1403 2484 
Q 997 2584 770 2862 
Q 544 3141 544 3541 
Q 544 4100 942 4425 
Q 1341 4750 2034 4750 
Q 2731 4750 3128 4425 
Q 3525 4100 3525 3541 
Q 3525 3141 3298 2862 
Q 3072 2584 2669 2484 
Q 3125 2378 3379 2068 
Q 3634 1759 3634 1313 
Q 3634 634 3220 271 
Q 2806 -91 2034 -91 
Q 1263 -91 848 271 
Q 434 634 434 1313 
Q 434 1759 690 2068 
Q 947 2378 1403 2484 
z
M 1172 3481 
Q 1172 3119 1398 2916 
Q 1625 2713 2034 2713 
Q 2441 2713 2670 2916 
Q 2900 3119 2900 3481 
Q 2900 3844 2670 4047 
Q 2441 4250 2034 4250 
Q 1625 4250 1398 4047 
Q 1172 3844 1172 3481 
z
" transform="scale(0.015625)"/>
       </defs>
       <use xlink:href="#DejaVuSans-30"/>
       <use xlink:href="#DejaVuSans-2e" x="63.623047"/>
       <use xlink:href="#DejaVuSans-38" x="95.410156"/>
      </g>
     </g>
    </g>
    <g id="xtick_6">
     <g id="line2d_6">
      <g>
       <use xlink:href="#mb41803f371" x="391.031023" y="273.312" style="stroke: #000000; stroke-width: 0.8"/>
      </g>
     </g>
     <g id="text_6">
      <!-- 1.0 -->
      <g transform="translate(383.07946 287.910437)scale(0.1 -0.1)">
       <defs>
        <path id="DejaVuSans-31" d="M 794 531 
L 1825 531 
L 1825 4091 
L 703 3866 
L 703 4441 
L 1819 4666 
L 2450 4666 
L 2450 531 
L 3481 531 
L 3481 0 
L 794 0 
L 794 531 
z
" transform="scale(0.015625)"/>
       </defs>
       <use xlink:href="#DejaVuSans-31"/>
       <use xlink:href="#DejaVuSans-2e" x="63.623047"/>
       <use xlink:href="#DejaVuSans-30" x="95.410156"/>
      </g>
     </g>
    </g>
    <g id="text_7">
     <!-- Propagation direction -->
     <g transform="translate(175.221719 301.588562)scale(0.1 -0.1)">
      <defs>
       <path id="DejaVuSans-50" d="M 1259 4147 
L 1259 2394 
L 2053 2394 
Q 2494 2394 2734 2622 
Q 2975 2850 2975 3272 
Q 2975 3691 2734 3919 
Q 2494 4147 2053 4147 
L 1259 4147 
z
M 628 4666 
L 2053 4666 
Q 2838 4666 3239 4311 
Q 3641 3956 3641 3272 
Q 3641 2581 3239 2228 
Q 2838 1875 2053 1875 
L 1259 1875 
L 1259 0 
L 628 0 
L 628 4666 
z
" transform="scale(0.015625)"/>
       <path id="DejaVuSans-72" d="M 2631 2963 
Q 2534 3019 2420 3045 
Q 2306 3072 2169 3072 
Q 1681 3072 1420 2755 
Q 1159 2438 1159 1844 
L 1159 0 
L 581 0 
L 581 3500 
L 1159 3500 
L 1159 2956 
Q 1341 3275 1631 3429 
Q 1922 3584 2338 3584 
Q 2397 3584 2469 3576 
Q 2541 3569 2628 3553 
L 2631 2963 
z
" transform="scale(0.015625)"/>
       <path id="DejaVuSans-6f" d="M 1959 3097 
Q 1497 3097 1228 2736 
Q 959 2375 959 1747 
Q 959 1119 1226 758 
Q 1494 397 1959 397 
Q 2419 397 2687 759 
Q 2956 1122 2956 1747 
Q 2956 2369 2687 2733 
Q 2419 3097 1959 3097 
z
M 1959 3584 
Q 2709 3584 3137 3096 
Q 3566 2609 3566 1747 
Q 3566 888 3137 398 
Q 2709 -91 1959 -91 
Q 1206 -91 779 398 
Q 353 888 353 1747 
Q 353 2609 779 3096 
Q 1206 3584 1959 3584 
z
" transform="scale(0.015625)"/>
       <path id="DejaVuSans-70" d="M 1159 525 
L 1159 -1331 
L 581 -1331 
L 581 3500 
L 1159 3500 
L 1159 2969 
Q 1341 3281 1617 3432 
Q 1894 3584 2278 3584 
Q 2916 3584 3314 3078 
Q 3713 2572 3713 1747 
Q 3713 922 3314 415 
Q 2916 -91 2278 -91 
Q 1894 -91 1617 61 
Q 1341 213 1159 525 
z
M 3116 1747 
Q 3116 2381 2855 2742 
Q 2594 3103 2138 3103 
Q 1681 3103 1420 2742 
Q 1159 2381 1159 1747 
Q 1159 1113 1420 752 
Q 1681 391 2138 391 
Q 2594 391 2855 752 
Q 3116 1113 3116 1747 
z
" transform="scale(0.015625)"/>
       <path id="DejaVuSans-61" d="M 2194 1759 
Q 1497 1759 1228 1600 
Q 959 1441 959 1056 
Q 959 750 1161 570 
Q 1363 391 1709 391 
Q 2188 391 2477 730 
Q 2766 1069 2766 1631 
L 2766 1759 
L 2194 1759 
z
M 3341 1997 
L 3341 0 
L 2766 0 
L 2766 531 
Q 2569 213 2275 61 
Q 1981 -91 1556 -91 
Q 1019 -91 701 211 
Q 384 513 384 1019 
Q 384 1609 779 1909 
Q 1175 2209 1959 2209 
L 2766 2209 
L 2766 2266 
Q 2766 2663 2505 2880 
Q 2244 3097 1772 3097 
Q 1472 3097 1187 3025 
Q 903 2953 641 2809 
L 641 3341 
Q 956 3463 1253 3523 
Q 1550 3584 1831 3584 
Q 2591 3584 2966 3190 
Q 3341 2797 3341 1997 
z
" transform="scale(0.015625)"/>
       <path id="DejaVuSans-67" d="M 2906 1791 
Q 2906 2416 2648 2759 
Q 2391 3103 1925 3103 
Q 1463 3103 1205 2759 
Q 947 2416 947 1791 
Q 947 1169 1205 825 
Q 1463 481 1925 481 
Q 2391 481 2648 825 
Q 2906 1169 2906 1791 
z
M 3481 434 
Q 3481 -459 3084 -895 
Q 2688 -1331 1869 -1331 
Q 1566 -1331 1297 -1286 
Q 1028 -1241 775 -1147 
L 775 -588 
Q 1028 -725 1275 -790 
Q 1522 -856 1778 -856 
Q 2344 -856 2625 -561 
Q 2906 -266 2906 331 
L 2906 616 
Q 2728 306 2450 153 
Q 2172 0 1784 0 
Q 1141 0 747 490 
Q 353 981 353 1791 
Q 353 2603 747 3093 
Q 1141 3584 1784 3584 
Q 2172 3584 2450 3431 
Q 2728 3278 2906 2969 
L 2906 3500 
L 3481 3500 
L 3481 434 
z
" transform="scale(0.015625)"/>
       <path id="DejaVuSans-74" d="M 1172 4494 
L 1172 3500 
L 2356 3500 
L 2356 3053 
L 1172 3053 
L 1172 1153 
Q 1172 725 1289 603 
Q 1406 481 1766 481 
L 2356 481 
L 2356 0 
L 1766 0 
Q 1100 0 847 248 
Q 594 497 594 1153 
L 594 3053 
L 172 3053 
L 172 3500 
L 594 3500 
L 594 4494 
L 1172 4494 
z
" transform="scale(0.015625)"/>
       <path id="DejaVuSans-69" d="M 603 3500 
L 1178 3500 
L 1178 0 
L 603 0 
L 603 3500 
z
M 603 4863 
L 1178 4863 
L 1178 4134 
L 603 4134 
L 603 4863 
z
" transform="scale(0.015625)"/>
       <path id="DejaVuSans-6e" d="M 3513 2113 
L 3513 0 
L 2938 0 
L 2938 2094 
Q 2938 2591 2744 2837 
Q 2550 3084 2163 3084 
Q 1697 3084 1428 2787 
Q 1159 2491 1159 1978 
L 1159 0 
L 581 0 
L 581 3500 
L 1159 3500 
L 1159 2956 
Q 1366 3272 1645 3428 
Q 1925 3584 2291 3584 
Q 2894 3584 3203 3211 
Q 3513 2838 3513 2113 
z
" transform="scale(0.015625)"/>
       <path id="DejaVuSans-20" transform="scale(0.015625)"/>
       <path id="DejaVuSans-64" d="M 2906 2969 
L 2906 4863 
L 3481 4863 
L 3481 0 
L 2906 0 
L 2906 525 
Q 2725 213 2448 61 
Q 2172 -91 1784 -91 
Q 1150 -91 751 415 
Q 353 922 353 1747 
Q 353 2572 751 3078 
Q 1150 3584 1784 3584 
Q 2172 3584 2448 3432 
Q 2725 3281 2906 2969 
z
M 947 1747 
Q 947 1113 1208 752 
Q 1469 391 1925 391 
Q 2381 391 2643 752 
Q 2906 1113 2906 1747 
Q 2906 2381 2643 2742 
Q 2381 3103 1925 3103 
Q 1469 3103 1208 2742 
Q 947 2381 947 1747 
z
" transform="scale(0.015625)"/>
       <path id="DejaVuSans-65" d="M 3597 1894 
L 3597 1613 
L 953 1613 
Q 991 1019 1311 708 
Q 1631 397 2203 397 
Q 2534 397 2845 478 
Q 3156 559 3463 722 
L 3463 178 
Q 3153 47 2828 -22 
Q 2503 -91 2169 -91 
Q 1331 -91 842 396 
Q 353 884 353 1716 
Q 353 2575 817 3079 
Q 1281 3584 2069 3584 
Q 2775 3584 3186 3129 
Q 3597 2675 3597 1894 
z
M 3022 2063 
Q 3016 2534 2758 2815 
Q 2500 3097 2075 3097 
Q 1594 3097 1305 2825 
Q 1016 2553 972 2059 
L 3022 2063 
z
" transform="scale(0.015625)"/>
       <path id="DejaVuSans-63" d="M 3122 3366 
L 3122 2828 
Q 2878 2963 2633 3030 
Q 2388 3097 2138 3097 
Q 1578 3097 1268 2742 
Q 959 2388 959 1747 
Q 959 1106 1268 751 
Q 1578 397 2138 397 
Q 2388 397 2633 464 
Q 2878 531 3122 666 
L 3122 134 
Q 2881 22 2623 -34 
Q 2366 -91 2075 -91 
Q 1284 -91 818 406 
Q 353 903 353 1747 
Q 353 2603 823 3093 
Q 1294 3584 2113 3584 
Q 2378 3584 2631 3529 
Q 2884 3475 3122 3366 
z
" transform="scale(0.015625)"/>
      </defs>
      <use xlink:href="#DejaVuSans-50"/>
      <use xlink:href="#DejaVuSans-72" x="58.552734"/>
      <use xlink:href="#DejaVuSans-6f" x="97.416016"/>
      <use xlink:href="#DejaVuSans-70" x="158.597656"/>
      <use xlink:href="#DejaVuSans-61" x="222.074219"/>
      <use xlink:href="#DejaVuSans-67" x="283.353516"/>
      <use xlink:href="#DejaVuSans-61" x="346.830078"/>
      <use xlink:href="#DejaVuSans-74" x="408.109375"/>
      <use xlink:href="#DejaVuSans-69" x="447.318359"/>
      <use xlink:href="#DejaVuSans-6f" x="475.101562"/>
      <use xlink:href="#DejaVuSans-6e" x="536.283203"/>
      <use xlink:href="#DejaVuSans-20" x="599.662109"/>
      <use xlink:href="#DejaVuSans-64" x="631.449219"/>
      <use xlink:href="#DejaVuSans-69" x="694.925781"/>
      <use xlink:href="#DejaVuSans-72" x="722.708984"/>
      <use xlink:href="#DejaVuSans-65" x="761.572266"/>
      <use xlink:href="#DejaVuSans-63" x="823.095703"/>
      <use xlink:href="#DejaVuSans-74" x="878.076172"/>
      <use xlink:href="#DejaVuSans-69" x="917.285156"/>
      <use xlink:href="#DejaVuSans-6f" x="945.068359"/>
      <use xlink:href="#DejaVuSans-6e" x="1006.25"/>
     </g>
    </g>
   </g>
   <g id="matplotlib.axis_2">
    <g id="ytick_1">
     <g id="line2d_7">
      <defs>
       <path id="m4a4dd36a9f" d="M 0 0 
L -3.5 0 
" style="stroke: #000000; stroke-width: 0.8"/>
      </defs>
      <g>
       <use xlink:href="#m4a4dd36a9f" x="50.14375" y="273.312" style="stroke: #000000; stroke-width: 0.8"/>
      </g>
     </g>
     <g id="text_8">
      <!-- 0.00 -->
      <g transform="translate(20.878125 277.111219)scale(0.1 -0.1)">
       <use xlink:href="#DejaVuSans-30"/>
       <use xlink:href="#DejaVuSans-2e" x="63.623047"/>
       <use xlink:href="#DejaVuSans-30" x="95.410156"/>
       <use xlink:href="#DejaVuSans-30" x="159.033203"/>
      </g>
     </g>
    </g>
    <g id="ytick_2">
     <g id="line2d_8">
      <g>
       <use xlink:href="#m4a4dd36a9f" x="50.14375" y="242.377054" style="stroke: #000000; stroke-width: 0.8"/>
      </g>
     </g>
     <g id="text_9">
      <!-- 0.25 -->
      <g transform="translate(20.878125 246.176273)scale(0.1 -0.1)">
       <defs>
        <path id="DejaVuSans-35" d="M 691 4666 
L 3169 4666 
L 3169 4134 
L 1269 4134 
L 1269 2991 
Q 1406 3038 1543 3061 
Q 1681 3084 1819 3084 
Q 2600 3084 3056 2656 
Q 3513 2228 3513 1497 
Q 3513 744 3044 326 
Q 2575 -91 1722 -91 
Q 1428 -91 1123 -41 
Q 819 9 494 109 
L 494 744 
Q 775 591 1075 516 
Q 1375 441 1709 441 
Q 2250 441 2565 725 
Q 2881 1009 2881 1497 
Q 2881 1984 2565 2268 
Q 2250 2553 1709 2553 
Q 1456 2553 1204 2497 
Q 953 2441 691 2322 
L 691 4666 
z
" transform="scale(0.015625)"/>
       </defs>
       <use xlink:href="#DejaVuSans-30"/>
       <use xlink:href="#DejaVuSans-2e" x="63.623047"/>
       <use xlink:href="#DejaVuSans-32" x="95.410156"/>
       <use xlink:href="#DejaVuSans-35" x="159.033203"/>
      </g>
     </g>
    </g>
    <g id="ytick_3">
     <g id="line2d_9">
      <g>
       <use xlink:href="#m4a4dd36a9f" x="50.14375" y="211.442108" style="stroke: #000000; stroke-width: 0.8"/>
      </g>
     </g>
     <g id="text_10">
      <!-- 0.50 -->
      <g transform="translate(20.878125 215.241327)scale(0.1 -0.1)">
       <use xlink:href="#DejaVuSans-30"/>
       <use xlink:href="#DejaVuSans-2e" x="63.623047"/>
       <use xlink:href="#DejaVuSans-35" x="95.410156"/>
       <use xlink:href="#DejaVuSans-30" x="159.033203"/>
      </g>
     </g>
    </g>
    <g id="ytick_4">
     <g id="line2d_10">
      <g>
       <use xlink:href="#m4a4dd36a9f" x="50.14375" y="180.507162" style="stroke: #000000; stroke-width: 0.8"/>
      </g>
     </g>
     <g id="text_11">
      <!-- 0.75 -->
      <g transform="translate(20.878125 184.306381)scale(0.1 -0.1)">
       <defs>
        <path id="DejaVuSans-37" d="M 525 4666 
L 3525 4666 
L 3525 4397 
L 1831 0 
L 1172 0 
L 2766 4134 
L 525 4134 
L 525 4666 
z
" transform="scale(0.015625)"/>
       </defs>
       <use xlink:href="#DejaVuSans-30"/>
       <use xlink:href="#DejaVuSans-2e" x="63.623047"/>
       <use xlink:href="#DejaVuSans-37" x="95.410156"/>
       <use xlink:href="#DejaVuSans-35" x="159.033203"/>
      </g>
     </g>
    </g>
    <g id="ytick_5">
     <g id="line2d_11">
      <g>
       <use xlink:href="#m4a4dd36a9f" x="50.14375" y="149.572216" style="stroke: #000000; stroke-width: 0.8"/>
      </g>
     </g>
     <g id="text_12">
      <!-- 1.00 -->
      <g transform="translate(20.878125 153.371435)scale(0.1 -0.1)">
       <use xlink:href="#DejaVuSans-31"/>
       <use xlink:href="#DejaVuSans-2e" x="63.623047"/>
       <use xlink:href="#DejaVuSans-30" x="95.410156"/>
       <use xlink:href="#DejaVuSans-30" x="159.033203"/>
      </g>
     </g>
    </g>
    <g id="ytick_6">
     <g id="line2d_12">
      <g>
       <use xlink:href="#m4a4dd36a9f" x="50.14375" y="118.63727" style="stroke: #000000; stroke-width: 0.8"/>
      </g>
     </g>
     <g id="text_13">
      <!-- 1.25 -->
      <g transform="translate(20.878125 122.436489)scale(0.1 -0.1)">
       <use xlink:href="#DejaVuSans-31"/>
       <use xlink:href="#DejaVuSans-2e" x="63.623047"/>
       <use xlink:href="#DejaVuSans-32" x="95.410156"/>
       <use xlink:href="#DejaVuSans-35" x="159.033203"/>
      </g>
     </g>
    </g>
    <g id="ytick_7">
     <g id="line2d_13">
      <g>
       <use xlink:href="#m4a4dd36a9f" x="50.14375" y="87.702324" style="stroke: #000000; stroke-width: 0.8"/>
      </g>
     </g>
     <g id="text_14">
      <!-- 1.50 -->
      <g transform="translate(20.878125 91.501543)scale(0.1 -0.1)">
       <use xlink:href="#DejaVuSans-31"/>
       <use xlink:href="#DejaVuSans-2e" x="63.623047"/>
       <use xlink:href="#DejaVuSans-35" x="95.410156"/>
       <use xlink:href="#DejaVuSans-30" x="159.033203"/>
      </g>
     </g>
    </g>
    <g id="ytick_8">
     <g id="line2d_14">
      <g>
       <use xlink:href="#m4a4dd36a9f" x="50.14375" y="56.767378" style="stroke: #000000; stroke-width: 0.8"/>
      </g>
     </g>
     <g id="text_15">
      <!-- 1.75 -->
      <g transform="translate(20.878125 60.566597)scale(0.1 -0.1)">
       <use xlink:href="#DejaVuSans-31"/>
       <use xlink:href="#DejaVuSans-2e" x="63.623047"/>
       <use xlink:href="#DejaVuSans-37" x="95.410156"/>
       <use xlink:href="#DejaVuSans-35" x="159.033203"/>
      </g>
     </g>
    </g>
    <g id="ytick_9">
     <g id="line2d_15">
      <g>
       <use xlink:href="#m4a4dd36a9f" x="50.14375" y="25.832432" style="stroke: #000000; stroke-width: 0.8"/>
      </g>
     </g>
     <g id="text_16">
      <!-- 2.00 -->
      <g transform="translate(20.878125 29.631651)scale(0.1 -0.1)">
       <use xlink:href="#DejaVuSans-32"/>
       <use xlink:href="#DejaVuSans-2e" x="63.623047"/>
       <use xlink:href="#DejaVuSans-30" x="95.410156"/>
       <use xlink:href="#DejaVuSans-30" x="159.033203"/>
      </g>
     </g>
    </g>
    <g id="text_17">
     <!-- Probability density -->
     <g transform="translate(14.798438 186.606781)rotate(-90)scale(0.1 -0.1)">
      <defs>
       <path id="DejaVuSans-62" d="M 3116 1747 
Q 3116 2381 2855 2742 
Q 2594 3103 2138 3103 
Q 1681 3103 1420 2742 
Q 1159 2381 1159 1747 
Q 1159 1113 1420 752 
Q 1681 391 2138 391 
Q 2594 391 2855 752 
Q 3116 1113 3116 1747 
z
M 1159 2969 
Q 1341 3281 1617 3432 
Q 1894 3584 2278 3584 
Q 2916 3584 3314 3078 
Q 3713 2572 3713 1747 
Q 3713 922 3314 415 
Q 2916 -91 2278 -91 
Q 1894 -91 1617 61 
Q 1341 213 1159 525 
L 1159 0 
L 581 0 
L 581 4863 
L 1159 4863 
L 1159 2969 
z
" transform="scale(0.015625)"/>
       <path id="DejaVuSans-6c" d="M 603 4863 
L 1178 4863 
L 1178 0 
L 603 0 
L 603 4863 
z
" transform="scale(0.015625)"/>
       <path id="DejaVuSans-79" d="M 2059 -325 
Q 1816 -950 1584 -1140 
Q 1353 -1331 966 -1331 
L 506 -1331 
L 506 -850 
L 844 -850 
Q 1081 -850 1212 -737 
Q 1344 -625 1503 -206 
L 1606 56 
L 191 3500 
L 800 3500 
L 1894 763 
L 2988 3500 
L 3597 3500 
L 2059 -325 
z
" transform="scale(0.015625)"/>
       <path id="DejaVuSans-73" d="M 2834 3397 
L 2834 2853 
Q 2591 2978 2328 3040 
Q 2066 3103 1784 3103 
Q 1356 3103 1142 2972 
Q 928 2841 928 2578 
Q 928 2378 1081 2264 
Q 1234 2150 1697 2047 
L 1894 2003 
Q 2506 1872 2764 1633 
Q 3022 1394 3022 966 
Q 3022 478 2636 193 
Q 2250 -91 1575 -91 
Q 1294 -91 989 -36 
Q 684 19 347 128 
L 347 722 
Q 666 556 975 473 
Q 1284 391 1588 391 
Q 1994 391 2212 530 
Q 2431 669 2431 922 
Q 2431 1156 2273 1281 
Q 2116 1406 1581 1522 
L 1381 1569 
Q 847 1681 609 1914 
Q 372 2147 372 2553 
Q 372 3047 722 3315 
Q 1072 3584 1716 3584 
Q 2034 3584 2315 3537 
Q 2597 3491 2834 3397 
z
" transform="scale(0.015625)"/>
      </defs>
      <use xlink:href="#DejaVuSans-50"/>
      <use xlink:href="#DejaVuSans-72" x="58.552734"/>
      <use xlink:href="#DejaVuSans-6f" x="97.416016"/>
      <use xlink:href="#DejaVuSans-62" x="158.597656"/>
      <use xlink:href="#DejaVuSans-61" x="222.074219"/>
      <use xlink:href="#DejaVuSans-62" x="283.353516"/>
      <use xlink:href="#DejaVuSans-69" x="346.830078"/>
      <use xlink:href="#DejaVuSans-6c" x="374.613281"/>
      <use xlink:href="#DejaVuSans-69" x="402.396484"/>
      <use xlink:href="#DejaVuSans-74" x="430.179688"/>
      <use xlink:href="#DejaVuSans-79" x="469.388672"/>
      <use xlink:href="#DejaVuSans-20" x="528.568359"/>
      <use xlink:href="#DejaVuSans-64" x="560.355469"/>
      <use xlink:href="#DejaVuSans-65" x="623.832031"/>
      <use xlink:href="#DejaVuSans-6e" x="685.355469"/>
      <use xlink:href="#DejaVuSans-73" x="748.734375"/>
      <use xlink:href="#DejaVuSans-69" x="800.833984"/>
      <use xlink:href="#DejaVuSans-74" x="828.617188"/>
      <use xlink:href="#DejaVuSans-79" x="867.826172"/>
     </g>
    </g>
   </g>
   <g id="line2d_16">
    <path d="M 66.376477 273.312 
L 391.031023 25.832432 
L 391.031023 25.832432 
" clip-path="url(#p15e86210ce)" style="fill: none; stroke: #ff7f0e; stroke-width: 1.5; stroke-linecap: square"/>
   </g>
   <g id="patch_203">
    <path d="M 50.14375 273.312 
L 50.14375 7.2 
" style="fill: none; stroke: #000000; stroke-width: 0.8; stroke-linejoin: miter; stroke-linecap: square"/>
   </g>
   <g id="patch_204">
    <path d="M 407.26375 273.312 
L 407.26375 7.2 
" style="fill: none; stroke: #000000; stroke-width: 0.8; stroke-linejoin: miter; stroke-linecap: square"/>
   </g>
   <g id="patch_205">
    <path d="M 50.14375 273.312 
L 407.26375 273.312 
" style="fill: none; stroke: #000000; stroke-width: 0.8; stroke-linejoin: miter; stroke-linecap: square"/>
   </g>
   <g id="patch_206">
    <path d="M 50.14375 7.2 
L 407.26375 7.2 
" style="fill: none; stroke: #000000; stroke-width: 0.8; stroke-linejoin: miter; stroke-linecap: square"/>
   </g>
  </g>
 </g>
 <defs>
  <clipPath id="p15e86210ce">
   <rect x="50.14375" y="7.2" width="357.12" height="266.112"/>
  </clipPath>
 </defs>
</svg>
