<?xml version="1.0" encoding="utf-8" standalone="no"?>
<!DOCTYPE svg PUBLIC "-//W3C//DTD SVG 1.1//EN"
  "http://www.w3.org/Graphics/SVG/1.1/DTD/svg11.dtd">
<svg xmlns:xlink="http://www.w3.org/1999/xlink" width="385.78125pt" height="262.19625pt" viewBox="0 0 385.78125 262.19625" xmlns="http://www.w3.org/2000/svg" version="1.1">
 <metadata>
  <rdf:RDF xmlns:dc="http://purl.org/dc/elements/1.1/" xmlns:cc="http://creativecommons.org/ns#" xmlns:rdf="http://www.w3.org/1999/02/22-rdf-syntax-ns#">
   <cc:Work>
    <dc:type rdf:resource="http://purl.org/dc/dcmitype/StillImage"/>
    <dc:date>2022-08-01T16:45:35.680948</dc:date>
    <dc:format>image/svg+xml</dc:format>
    <dc:creator>
     <cc:Agent>
      <dc:title>Matplotlib v3.5.2, https://matplotlib.org/</dc:title>
     </cc:Agent>
    </dc:creator>
   </cc:Work>
  </rdf:RDF>
 </metadata>
 <defs>
  <style type="text/css">*{stroke-linejoin: round; stroke-linecap: butt}</style>
 </defs>
 <g id="figure_1">
  <g id="patch_1">
   <path d="M 0 262.19625 
L 385.78125 262.19625 
L 385.78125 0 
L 0 0 
L 0 262.19625 
z
" style="fill: none"/>
  </g>
  <g id="axes_1">
   <g id="patch_2">
    <path d="M 43.78125 224.64 
L 378.58125 224.64 
L 378.58125 7.2 
L 43.78125 7.2 
z
" style="fill: #ffffff"/>
   </g>
   <g id="patch_3">
    <path d="M 60.566379 224.64 
L 62.074265 224.64 
L 62.074265 219.174395 
L 60.566379 219.174395 
z
" clip-path="url(#p23b9f9604e)" style="fill: #1f77b4"/>
   </g>
   <g id="patch_4">
    <path d="M 62.074265 224.64 
L 63.582151 224.64 
L 63.582151 213.1015 
L 62.074265 213.1015 
z
" clip-path="url(#p23b9f9604e)" style="fill: #1f77b4"/>
   </g>
   <g id="patch_5">
    <path d="M 63.582151 224.64 
L 65.090038 224.64 
L 65.090038 211.279631 
L 63.582151 211.279631 
z
" clip-path="url(#p23b9f9604e)" style="fill: #1f77b4"/>
   </g>
   <g id="patch_6">
    <path d="M 65.090038 224.64 
L 66.597924 224.64 
L 66.597924 209.457763 
L 65.090038 209.457763 
z
" clip-path="url(#p23b9f9604e)" style="fill: #1f77b4"/>
   </g>
   <g id="patch_7">
    <path d="M 66.597924 224.64 
L 68.10581 224.64 
L 68.10581 210.065052 
L 66.597924 210.065052 
z
" clip-path="url(#p23b9f9604e)" style="fill: #1f77b4"/>
   </g>
   <g id="patch_8">
    <path d="M 68.10581 224.64 
L 69.613696 224.64 
L 69.613696 206.421315 
L 68.10581 206.421315 
z
" clip-path="url(#p23b9f9604e)" style="fill: #1f77b4"/>
   </g>
   <g id="patch_9">
    <path d="M 69.613696 224.64 
L 71.121583 224.64 
L 71.121583 204.599447 
L 69.613696 204.599447 
z
" clip-path="url(#p23b9f9604e)" style="fill: #1f77b4"/>
   </g>
   <g id="patch_10">
    <path d="M 71.121583 224.64 
L 72.629469 224.64 
L 72.629469 204.599447 
L 71.121583 204.599447 
z
" clip-path="url(#p23b9f9604e)" style="fill: #1f77b4"/>
   </g>
   <g id="patch_11">
    <path d="M 72.629469 224.64 
L 74.137355 224.64 
L 74.137355 197.311973 
L 72.629469 197.311973 
z
" clip-path="url(#p23b9f9604e)" style="fill: #1f77b4"/>
   </g>
   <g id="patch_12">
    <path d="M 74.137355 224.64 
L 75.645241 224.64 
L 75.645241 193.668236 
L 74.137355 193.668236 
z
" clip-path="url(#p23b9f9604e)" style="fill: #1f77b4"/>
   </g>
   <g id="patch_13">
    <path d="M 75.645241 224.64 
L 77.153128 224.64 
L 77.153128 194.275526 
L 75.645241 194.275526 
z
" clip-path="url(#p23b9f9604e)" style="fill: #1f77b4"/>
   </g>
   <g id="patch_14">
    <path d="M 77.153128 224.64 
L 78.661014 224.64 
L 78.661014 171.198525 
L 77.153128 171.198525 
z
" clip-path="url(#p23b9f9604e)" style="fill: #1f77b4"/>
   </g>
   <g id="patch_15">
    <path d="M 78.661014 224.64 
L 80.1689 224.64 
L 80.1689 185.166183 
L 78.661014 185.166183 
z
" clip-path="url(#p23b9f9604e)" style="fill: #1f77b4"/>
   </g>
   <g id="patch_16">
    <path d="M 80.1689 224.64 
L 81.676786 224.64 
L 81.676786 185.166183 
L 80.1689 185.166183 
z
" clip-path="url(#p23b9f9604e)" style="fill: #1f77b4"/>
   </g>
   <g id="patch_17">
    <path d="M 81.676786 224.64 
L 83.184672 224.64 
L 83.184672 178.485999 
L 81.676786 178.485999 
z
" clip-path="url(#p23b9f9604e)" style="fill: #1f77b4"/>
   </g>
   <g id="patch_18">
    <path d="M 83.184672 224.64 
L 84.692559 224.64 
L 84.692559 165.73292 
L 83.184672 165.73292 
z
" clip-path="url(#p23b9f9604e)" style="fill: #1f77b4"/>
   </g>
   <g id="patch_19">
    <path d="M 84.692559 224.64 
L 86.200445 224.64 
L 86.200445 180.307868 
L 84.692559 180.307868 
z
" clip-path="url(#p23b9f9604e)" style="fill: #1f77b4"/>
   </g>
   <g id="patch_20">
    <path d="M 86.200445 224.64 
L 87.708331 224.64 
L 87.708331 170.591236 
L 86.200445 170.591236 
z
" clip-path="url(#p23b9f9604e)" style="fill: #1f77b4"/>
   </g>
   <g id="patch_21">
    <path d="M 87.708331 224.64 
L 89.216217 224.64 
L 89.216217 180.915157 
L 87.708331 180.915157 
z
" clip-path="url(#p23b9f9604e)" style="fill: #1f77b4"/>
   </g>
   <g id="patch_22">
    <path d="M 89.216217 224.64 
L 90.724104 224.64 
L 90.724104 167.554788 
L 89.216217 167.554788 
z
" clip-path="url(#p23b9f9604e)" style="fill: #1f77b4"/>
   </g>
   <g id="patch_23">
    <path d="M 90.724104 224.64 
L 92.23199 224.64 
L 92.23199 168.162078 
L 90.724104 168.162078 
z
" clip-path="url(#p23b9f9604e)" style="fill: #1f77b4"/>
   </g>
   <g id="patch_24">
    <path d="M 92.23199 224.64 
L 93.739876 224.64 
L 93.739876 157.230867 
L 92.23199 157.230867 
z
" clip-path="url(#p23b9f9604e)" style="fill: #1f77b4"/>
   </g>
   <g id="patch_25">
    <path d="M 93.739876 224.64 
L 95.247762 224.64 
L 95.247762 154.801709 
L 93.739876 154.801709 
z
" clip-path="url(#p23b9f9604e)" style="fill: #1f77b4"/>
   </g>
   <g id="patch_26">
    <path d="M 95.247762 224.64 
L 96.755649 224.64 
L 96.755649 160.267315 
L 95.247762 160.267315 
z
" clip-path="url(#p23b9f9604e)" style="fill: #1f77b4"/>
   </g>
   <g id="patch_27">
    <path d="M 96.755649 224.64 
L 98.263535 224.64 
L 98.263535 143.870499 
L 96.755649 143.870499 
z
" clip-path="url(#p23b9f9604e)" style="fill: #1f77b4"/>
   </g>
   <g id="patch_28">
    <path d="M 98.263535 224.64 
L 99.771421 224.64 
L 99.771421 143.870499 
L 98.263535 143.870499 
z
" clip-path="url(#p23b9f9604e)" style="fill: #1f77b4"/>
   </g>
   <g id="patch_29">
    <path d="M 99.771421 224.64 
L 101.279307 224.64 
L 101.279307 159.660025 
L 99.771421 159.660025 
z
" clip-path="url(#p23b9f9604e)" style="fill: #1f77b4"/>
   </g>
   <g id="patch_30">
    <path d="M 101.279307 224.64 
L 102.787194 224.64 
L 102.787194 129.295551 
L 101.279307 129.295551 
z
" clip-path="url(#p23b9f9604e)" style="fill: #1f77b4"/>
   </g>
   <g id="patch_31">
    <path d="M 102.787194 224.64 
L 104.29508 224.64 
L 104.29508 140.834051 
L 102.787194 140.834051 
z
" clip-path="url(#p23b9f9604e)" style="fill: #1f77b4"/>
   </g>
   <g id="patch_32">
    <path d="M 104.29508 224.64 
L 105.802966 224.64 
L 105.802966 140.834051 
L 104.29508 140.834051 
z
" clip-path="url(#p23b9f9604e)" style="fill: #1f77b4"/>
   </g>
   <g id="patch_33">
    <path d="M 105.802966 224.64 
L 107.310852 224.64 
L 107.310852 140.834051 
L 105.802966 140.834051 
z
" clip-path="url(#p23b9f9604e)" style="fill: #1f77b4"/>
   </g>
   <g id="patch_34">
    <path d="M 107.310852 224.64 
L 108.818738 224.64 
L 108.818738 123.222656 
L 107.310852 123.222656 
z
" clip-path="url(#p23b9f9604e)" style="fill: #1f77b4"/>
   </g>
   <g id="patch_35">
    <path d="M 108.818738 224.64 
L 110.326625 224.64 
L 110.326625 137.797604 
L 108.818738 137.797604 
z
" clip-path="url(#p23b9f9604e)" style="fill: #1f77b4"/>
   </g>
   <g id="patch_36">
    <path d="M 110.326625 224.64 
L 111.834511 224.64 
L 111.834511 134.153867 
L 110.326625 134.153867 
z
" clip-path="url(#p23b9f9604e)" style="fill: #1f77b4"/>
   </g>
   <g id="patch_37">
    <path d="M 111.834511 224.64 
L 113.342397 224.64 
L 113.342397 129.295551 
L 111.834511 129.295551 
z
" clip-path="url(#p23b9f9604e)" style="fill: #1f77b4"/>
   </g>
   <g id="patch_38">
    <path d="M 113.342397 224.64 
L 114.850283 224.64 
L 114.850283 119.578919 
L 113.342397 119.578919 
z
" clip-path="url(#p23b9f9604e)" style="fill: #1f77b4"/>
   </g>
   <g id="patch_39">
    <path d="M 114.850283 224.64 
L 116.35817 224.64 
L 116.35817 119.578919 
L 114.850283 119.578919 
z
" clip-path="url(#p23b9f9604e)" style="fill: #1f77b4"/>
   </g>
   <g id="patch_40">
    <path d="M 116.35817 224.64 
L 117.866056 224.64 
L 117.866056 134.761156 
L 116.35817 134.761156 
z
" clip-path="url(#p23b9f9604e)" style="fill: #1f77b4"/>
   </g>
   <g id="patch_41">
    <path d="M 117.866056 224.64 
L 119.373942 224.64 
L 119.373942 126.866393 
L 117.866056 126.866393 
z
" clip-path="url(#p23b9f9604e)" style="fill: #1f77b4"/>
   </g>
   <g id="patch_42">
    <path d="M 119.373942 224.64 
L 120.881828 224.64 
L 120.881828 113.506024 
L 119.373942 113.506024 
z
" clip-path="url(#p23b9f9604e)" style="fill: #1f77b4"/>
   </g>
   <g id="patch_43">
    <path d="M 120.881828 224.64 
L 122.389715 224.64 
L 122.389715 109.254998 
L 120.881828 109.254998 
z
" clip-path="url(#p23b9f9604e)" style="fill: #1f77b4"/>
   </g>
   <g id="patch_44">
    <path d="M 122.389715 224.64 
L 123.897601 224.64 
L 123.897601 106.21855 
L 122.389715 106.21855 
z
" clip-path="url(#p23b9f9604e)" style="fill: #1f77b4"/>
   </g>
   <g id="patch_45">
    <path d="M 123.897601 224.64 
L 125.405487 224.64 
L 125.405487 108.040419 
L 123.897601 108.040419 
z
" clip-path="url(#p23b9f9604e)" style="fill: #1f77b4"/>
   </g>
   <g id="patch_46">
    <path d="M 125.405487 224.64 
L 126.913373 224.64 
L 126.913373 111.076866 
L 125.405487 111.076866 
z
" clip-path="url(#p23b9f9604e)" style="fill: #1f77b4"/>
   </g>
   <g id="patch_47">
    <path d="M 126.913373 224.64 
L 128.421259 224.64 
L 128.421259 103.789393 
L 126.913373 103.789393 
z
" clip-path="url(#p23b9f9604e)" style="fill: #1f77b4"/>
   </g>
   <g id="patch_48">
    <path d="M 128.421259 224.64 
L 129.929146 224.64 
L 129.929146 105.611261 
L 128.421259 105.611261 
z
" clip-path="url(#p23b9f9604e)" style="fill: #1f77b4"/>
   </g>
   <g id="patch_49">
    <path d="M 129.929146 224.64 
L 131.437032 224.64 
L 131.437032 93.465471 
L 129.929146 93.465471 
z
" clip-path="url(#p23b9f9604e)" style="fill: #1f77b4"/>
   </g>
   <g id="patch_50">
    <path d="M 131.437032 224.64 
L 132.944918 224.64 
L 132.944918 89.821734 
L 131.437032 89.821734 
z
" clip-path="url(#p23b9f9604e)" style="fill: #1f77b4"/>
   </g>
   <g id="patch_51">
    <path d="M 132.944918 224.64 
L 134.452804 224.64 
L 134.452804 87.999866 
L 132.944918 87.999866 
z
" clip-path="url(#p23b9f9604e)" style="fill: #1f77b4"/>
   </g>
   <g id="patch_52">
    <path d="M 134.452804 224.64 
L 135.960691 224.64 
L 135.960691 85.570708 
L 134.452804 85.570708 
z
" clip-path="url(#p23b9f9604e)" style="fill: #1f77b4"/>
   </g>
   <g id="patch_53">
    <path d="M 135.960691 224.64 
L 137.468577 224.64 
L 137.468577 92.250892 
L 135.960691 92.250892 
z
" clip-path="url(#p23b9f9604e)" style="fill: #1f77b4"/>
   </g>
   <g id="patch_54">
    <path d="M 137.468577 224.64 
L 138.976463 224.64 
L 138.976463 99.538366 
L 137.468577 99.538366 
z
" clip-path="url(#p23b9f9604e)" style="fill: #1f77b4"/>
   </g>
   <g id="patch_55">
    <path d="M 138.976463 224.64 
L 140.484349 224.64 
L 140.484349 84.356129 
L 138.976463 84.356129 
z
" clip-path="url(#p23b9f9604e)" style="fill: #1f77b4"/>
   </g>
   <g id="patch_56">
    <path d="M 140.484349 224.64 
L 141.992236 224.64 
L 141.992236 94.68005 
L 140.484349 94.68005 
z
" clip-path="url(#p23b9f9604e)" style="fill: #1f77b4"/>
   </g>
   <g id="patch_57">
    <path d="M 141.992236 224.64 
L 143.500122 224.64 
L 143.500122 71.60305 
L 141.992236 71.60305 
z
" clip-path="url(#p23b9f9604e)" style="fill: #1f77b4"/>
   </g>
   <g id="patch_58">
    <path d="M 143.500122 224.64 
L 145.008008 224.64 
L 145.008008 66.744734 
L 143.500122 66.744734 
z
" clip-path="url(#p23b9f9604e)" style="fill: #1f77b4"/>
   </g>
   <g id="patch_59">
    <path d="M 145.008008 224.64 
L 146.515894 224.64 
L 146.515894 74.639497 
L 145.008008 74.639497 
z
" clip-path="url(#p23b9f9604e)" style="fill: #1f77b4"/>
   </g>
   <g id="patch_60">
    <path d="M 146.515894 224.64 
L 148.023781 224.64 
L 148.023781 86.785287 
L 146.515894 86.785287 
z
" clip-path="url(#p23b9f9604e)" style="fill: #1f77b4"/>
   </g>
   <g id="patch_61">
    <path d="M 148.023781 224.64 
L 149.531667 224.64 
L 149.531667 72.210339 
L 148.023781 72.210339 
z
" clip-path="url(#p23b9f9604e)" style="fill: #1f77b4"/>
   </g>
   <g id="patch_62">
    <path d="M 149.531667 224.64 
L 151.039553 224.64 
L 151.039553 66.744734 
L 149.531667 66.744734 
z
" clip-path="url(#p23b9f9604e)" style="fill: #1f77b4"/>
   </g>
   <g id="patch_63">
    <path d="M 151.039553 224.64 
L 152.547439 224.64 
L 152.547439 80.712392 
L 151.039553 80.712392 
z
" clip-path="url(#p23b9f9604e)" style="fill: #1f77b4"/>
   </g>
   <g id="patch_64">
    <path d="M 152.547439 224.64 
L 154.055325 224.64 
L 154.055325 79.497813 
L 152.547439 79.497813 
z
" clip-path="url(#p23b9f9604e)" style="fill: #1f77b4"/>
   </g>
   <g id="patch_65">
    <path d="M 154.055325 224.64 
L 155.563212 224.64 
L 155.563212 68.566602 
L 154.055325 68.566602 
z
" clip-path="url(#p23b9f9604e)" style="fill: #1f77b4"/>
   </g>
   <g id="patch_66">
    <path d="M 155.563212 224.64 
L 157.071098 224.64 
L 157.071098 67.959313 
L 155.563212 67.959313 
z
" clip-path="url(#p23b9f9604e)" style="fill: #1f77b4"/>
   </g>
   <g id="patch_67">
    <path d="M 157.071098 224.64 
L 158.578984 224.64 
L 158.578984 75.246787 
L 157.071098 75.246787 
z
" clip-path="url(#p23b9f9604e)" style="fill: #1f77b4"/>
   </g>
   <g id="patch_68">
    <path d="M 158.578984 224.64 
L 160.08687 224.64 
L 160.08687 50.347918 
L 158.578984 50.347918 
z
" clip-path="url(#p23b9f9604e)" style="fill: #1f77b4"/>
   </g>
   <g id="patch_69">
    <path d="M 160.08687 224.64 
L 161.594757 224.64 
L 161.594757 64.315576 
L 160.08687 64.315576 
z
" clip-path="url(#p23b9f9604e)" style="fill: #1f77b4"/>
   </g>
   <g id="patch_70">
    <path d="M 161.594757 224.64 
L 163.102643 224.64 
L 163.102643 61.279129 
L 161.594757 61.279129 
z
" clip-path="url(#p23b9f9604e)" style="fill: #1f77b4"/>
   </g>
   <g id="patch_71">
    <path d="M 163.102643 224.64 
L 164.610529 224.64 
L 164.610529 40.023997 
L 163.102643 40.023997 
z
" clip-path="url(#p23b9f9604e)" style="fill: #1f77b4"/>
   </g>
   <g id="patch_72">
    <path d="M 164.610529 224.64 
L 166.118415 224.64 
L 166.118415 47.31147 
L 164.610529 47.31147 
z
" clip-path="url(#p23b9f9604e)" style="fill: #1f77b4"/>
   </g>
   <g id="patch_73">
    <path d="M 166.118415 224.64 
L 167.626302 224.64 
L 167.626302 54.598944 
L 166.118415 54.598944 
z
" clip-path="url(#p23b9f9604e)" style="fill: #1f77b4"/>
   </g>
   <g id="patch_74">
    <path d="M 167.626302 224.64 
L 169.134188 224.64 
L 169.134188 61.886418 
L 167.626302 61.886418 
z
" clip-path="url(#p23b9f9604e)" style="fill: #1f77b4"/>
   </g>
   <g id="patch_75">
    <path d="M 169.134188 224.64 
L 170.642074 224.64 
L 170.642074 47.31147 
L 169.134188 47.31147 
z
" clip-path="url(#p23b9f9604e)" style="fill: #1f77b4"/>
   </g>
   <g id="patch_76">
    <path d="M 170.642074 224.64 
L 172.14996 224.64 
L 172.14996 60.06455 
L 170.642074 60.06455 
z
" clip-path="url(#p23b9f9604e)" style="fill: #1f77b4"/>
   </g>
   <g id="patch_77">
    <path d="M 172.14996 224.64 
L 173.657846 224.64 
L 173.657846 57.635392 
L 172.14996 57.635392 
z
" clip-path="url(#p23b9f9604e)" style="fill: #1f77b4"/>
   </g>
   <g id="patch_78">
    <path d="M 173.657846 224.64 
L 175.165733 224.64 
L 175.165733 52.169786 
L 173.657846 52.169786 
z
" clip-path="url(#p23b9f9604e)" style="fill: #1f77b4"/>
   </g>
   <g id="patch_79">
    <path d="M 175.165733 224.64 
L 176.673619 224.64 
L 176.673619 48.526049 
L 175.165733 48.526049 
z
" clip-path="url(#p23b9f9604e)" style="fill: #1f77b4"/>
   </g>
   <g id="patch_80">
    <path d="M 176.673619 224.64 
L 178.181505 224.64 
L 178.181505 52.777076 
L 176.673619 52.777076 
z
" clip-path="url(#p23b9f9604e)" style="fill: #1f77b4"/>
   </g>
   <g id="patch_81">
    <path d="M 178.181505 224.64 
L 179.689391 224.64 
L 179.689391 57.635392 
L 178.181505 57.635392 
z
" clip-path="url(#p23b9f9604e)" style="fill: #1f77b4"/>
   </g>
   <g id="patch_82">
    <path d="M 179.689391 224.64 
L 181.197278 224.64 
L 181.197278 49.740628 
L 179.689391 49.740628 
z
" clip-path="url(#p23b9f9604e)" style="fill: #1f77b4"/>
   </g>
   <g id="patch_83">
    <path d="M 181.197278 224.64 
L 182.705164 224.64 
L 182.705164 28.485496 
L 181.197278 28.485496 
z
" clip-path="url(#p23b9f9604e)" style="fill: #1f77b4"/>
   </g>
   <g id="patch_84">
    <path d="M 182.705164 224.64 
L 184.21305 224.64 
L 184.21305 34.558391 
L 182.705164 34.558391 
z
" clip-path="url(#p23b9f9604e)" style="fill: #1f77b4"/>
   </g>
   <g id="patch_85">
    <path d="M 184.21305 224.64 
L 185.720936 224.64 
L 185.720936 49.133339 
L 184.21305 49.133339 
z
" clip-path="url(#p23b9f9604e)" style="fill: #1f77b4"/>
   </g>
   <g id="patch_86">
    <path d="M 185.720936 224.64 
L 187.228823 224.64 
L 187.228823 47.91876 
L 185.720936 47.91876 
z
" clip-path="url(#p23b9f9604e)" style="fill: #1f77b4"/>
   </g>
   <g id="patch_87">
    <path d="M 187.228823 224.64 
L 188.736709 224.64 
L 188.736709 40.023997 
L 187.228823 40.023997 
z
" clip-path="url(#p23b9f9604e)" style="fill: #1f77b4"/>
   </g>
   <g id="patch_88">
    <path d="M 188.736709 224.64 
L 190.244595 224.64 
L 190.244595 24.23447 
L 188.736709 24.23447 
z
" clip-path="url(#p23b9f9604e)" style="fill: #1f77b4"/>
   </g>
   <g id="patch_89">
    <path d="M 190.244595 224.64 
L 191.752481 224.64 
L 191.752481 44.275023 
L 190.244595 44.275023 
z
" clip-path="url(#p23b9f9604e)" style="fill: #1f77b4"/>
   </g>
   <g id="patch_90">
    <path d="M 191.752481 224.64 
L 193.260368 224.64 
L 193.260368 41.238576 
L 191.752481 41.238576 
z
" clip-path="url(#p23b9f9604e)" style="fill: #1f77b4"/>
   </g>
   <g id="patch_91">
    <path d="M 193.260368 224.64 
L 194.768254 224.64 
L 194.768254 28.485496 
L 193.260368 28.485496 
z
" clip-path="url(#p23b9f9604e)" style="fill: #1f77b4"/>
   </g>
   <g id="patch_92">
    <path d="M 194.768254 224.64 
L 196.27614 224.64 
L 196.27614 35.77297 
L 194.768254 35.77297 
z
" clip-path="url(#p23b9f9604e)" style="fill: #1f77b4"/>
   </g>
   <g id="patch_93">
    <path d="M 196.27614 224.64 
L 197.784026 224.64 
L 197.784026 41.845865 
L 196.27614 41.845865 
z
" clip-path="url(#p23b9f9604e)" style="fill: #1f77b4"/>
   </g>
   <g id="patch_94">
    <path d="M 197.784026 224.64 
L 199.291912 224.64 
L 199.291912 40.023997 
L 197.784026 40.023997 
z
" clip-path="url(#p23b9f9604e)" style="fill: #1f77b4"/>
   </g>
   <g id="patch_95">
    <path d="M 199.291912 224.64 
L 200.799799 224.64 
L 200.799799 44.882313 
L 199.291912 44.882313 
z
" clip-path="url(#p23b9f9604e)" style="fill: #1f77b4"/>
   </g>
   <g id="patch_96">
    <path d="M 200.799799 224.64 
L 202.307685 224.64 
L 202.307685 28.485496 
L 200.799799 28.485496 
z
" clip-path="url(#p23b9f9604e)" style="fill: #1f77b4"/>
   </g>
   <g id="patch_97">
    <path d="M 202.307685 224.64 
L 203.815571 224.64 
L 203.815571 21.805312 
L 202.307685 21.805312 
z
" clip-path="url(#p23b9f9604e)" style="fill: #1f77b4"/>
   </g>
   <g id="patch_98">
    <path d="M 203.815571 224.64 
L 205.323457 224.64 
L 205.323457 41.238576 
L 203.815571 41.238576 
z
" clip-path="url(#p23b9f9604e)" style="fill: #1f77b4"/>
   </g>
   <g id="patch_99">
    <path d="M 205.323457 224.64 
L 206.831344 224.64 
L 206.831344 49.133339 
L 205.323457 49.133339 
z
" clip-path="url(#p23b9f9604e)" style="fill: #1f77b4"/>
   </g>
   <g id="patch_100">
    <path d="M 206.831344 224.64 
L 208.33923 224.64 
L 208.33923 35.165681 
L 206.831344 35.165681 
z
" clip-path="url(#p23b9f9604e)" style="fill: #1f77b4"/>
   </g>
   <g id="patch_101">
    <path d="M 208.33923 224.64 
L 209.847116 224.64 
L 209.847116 40.631286 
L 208.33923 40.631286 
z
" clip-path="url(#p23b9f9604e)" style="fill: #1f77b4"/>
   </g>
   <g id="patch_102">
    <path d="M 209.847116 224.64 
L 211.355002 224.64 
L 211.355002 38.202128 
L 209.847116 38.202128 
z
" clip-path="url(#p23b9f9604e)" style="fill: #1f77b4"/>
   </g>
   <g id="patch_103">
    <path d="M 211.355002 224.64 
L 212.862889 224.64 
L 212.862889 36.987549 
L 211.355002 36.987549 
z
" clip-path="url(#p23b9f9604e)" style="fill: #1f77b4"/>
   </g>
   <g id="patch_104">
    <path d="M 212.862889 224.64 
L 214.370775 224.64 
L 214.370775 27.270917 
L 212.862889 27.270917 
z
" clip-path="url(#p23b9f9604e)" style="fill: #1f77b4"/>
   </g>
   <g id="patch_105">
    <path d="M 214.370775 224.64 
L 215.878661 224.64 
L 215.878661 29.092786 
L 214.370775 29.092786 
z
" clip-path="url(#p23b9f9604e)" style="fill: #1f77b4"/>
   </g>
   <g id="patch_106">
    <path d="M 215.878661 224.64 
L 217.386547 224.64 
L 217.386547 38.202128 
L 215.878661 38.202128 
z
" clip-path="url(#p23b9f9604e)" style="fill: #1f77b4"/>
   </g>
   <g id="patch_107">
    <path d="M 217.386547 224.64 
L 218.894433 224.64 
L 218.894433 38.202128 
L 217.386547 38.202128 
z
" clip-path="url(#p23b9f9604e)" style="fill: #1f77b4"/>
   </g>
   <g id="patch_108">
    <path d="M 218.894433 224.64 
L 220.40232 224.64 
L 220.40232 36.38026 
L 218.894433 36.38026 
z
" clip-path="url(#p23b9f9604e)" style="fill: #1f77b4"/>
   </g>
   <g id="patch_109">
    <path d="M 220.40232 224.64 
L 221.910206 224.64 
L 221.910206 33.951102 
L 220.40232 33.951102 
z
" clip-path="url(#p23b9f9604e)" style="fill: #1f77b4"/>
   </g>
   <g id="patch_110">
    <path d="M 221.910206 224.64 
L 223.418092 224.64 
L 223.418092 51.562497 
L 221.910206 51.562497 
z
" clip-path="url(#p23b9f9604e)" style="fill: #1f77b4"/>
   </g>
   <g id="patch_111">
    <path d="M 223.418092 224.64 
L 224.925978 224.64 
L 224.925978 35.165681 
L 223.418092 35.165681 
z
" clip-path="url(#p23b9f9604e)" style="fill: #1f77b4"/>
   </g>
   <g id="patch_112">
    <path d="M 224.925978 224.64 
L 226.433865 224.64 
L 226.433865 46.096891 
L 224.925978 46.096891 
z
" clip-path="url(#p23b9f9604e)" style="fill: #1f77b4"/>
   </g>
   <g id="patch_113">
    <path d="M 226.433865 224.64 
L 227.941751 224.64 
L 227.941751 43.667734 
L 226.433865 43.667734 
z
" clip-path="url(#p23b9f9604e)" style="fill: #1f77b4"/>
   </g>
   <g id="patch_114">
    <path d="M 227.941751 224.64 
L 229.449637 224.64 
L 229.449637 45.489602 
L 227.941751 45.489602 
z
" clip-path="url(#p23b9f9604e)" style="fill: #1f77b4"/>
   </g>
   <g id="patch_115">
    <path d="M 229.449637 224.64 
L 230.957523 224.64 
L 230.957523 45.489602 
L 229.449637 45.489602 
z
" clip-path="url(#p23b9f9604e)" style="fill: #1f77b4"/>
   </g>
   <g id="patch_116">
    <path d="M 230.957523 224.64 
L 232.46541 224.64 
L 232.46541 39.416707 
L 230.957523 39.416707 
z
" clip-path="url(#p23b9f9604e)" style="fill: #1f77b4"/>
   </g>
   <g id="patch_117">
    <path d="M 232.46541 224.64 
L 233.973296 224.64 
L 233.973296 52.777076 
L 232.46541 52.777076 
z
" clip-path="url(#p23b9f9604e)" style="fill: #1f77b4"/>
   </g>
   <g id="patch_118">
    <path d="M 233.973296 224.64 
L 235.481182 224.64 
L 235.481182 33.343812 
L 233.973296 33.343812 
z
" clip-path="url(#p23b9f9604e)" style="fill: #1f77b4"/>
   </g>
   <g id="patch_119">
    <path d="M 235.481182 224.64 
L 236.989068 224.64 
L 236.989068 17.554286 
L 235.481182 17.554286 
z
" clip-path="url(#p23b9f9604e)" style="fill: #1f77b4"/>
   </g>
   <g id="patch_120">
    <path d="M 236.989068 224.64 
L 238.496955 224.64 
L 238.496955 29.700075 
L 236.989068 29.700075 
z
" clip-path="url(#p23b9f9604e)" style="fill: #1f77b4"/>
   </g>
   <g id="patch_121">
    <path d="M 238.496955 224.64 
L 240.004841 224.64 
L 240.004841 25.449049 
L 238.496955 25.449049 
z
" clip-path="url(#p23b9f9604e)" style="fill: #1f77b4"/>
   </g>
   <g id="patch_122">
    <path d="M 240.004841 224.64 
L 241.512727 224.64 
L 241.512727 57.635392 
L 240.004841 57.635392 
z
" clip-path="url(#p23b9f9604e)" style="fill: #1f77b4"/>
   </g>
   <g id="patch_123">
    <path d="M 241.512727 224.64 
L 243.020613 224.64 
L 243.020613 55.206234 
L 241.512727 55.206234 
z
" clip-path="url(#p23b9f9604e)" style="fill: #1f77b4"/>
   </g>
   <g id="patch_124">
    <path d="M 243.020613 224.64 
L 244.528499 224.64 
L 244.528499 47.91876 
L 243.020613 47.91876 
z
" clip-path="url(#p23b9f9604e)" style="fill: #1f77b4"/>
   </g>
   <g id="patch_125">
    <path d="M 244.528499 224.64 
L 246.036386 224.64 
L 246.036386 32.736523 
L 244.528499 32.736523 
z
" clip-path="url(#p23b9f9604e)" style="fill: #1f77b4"/>
   </g>
   <g id="patch_126">
    <path d="M 246.036386 224.64 
L 247.544272 224.64 
L 247.544272 43.667734 
L 246.036386 43.667734 
z
" clip-path="url(#p23b9f9604e)" style="fill: #1f77b4"/>
   </g>
   <g id="patch_127">
    <path d="M 247.544272 224.64 
L 249.052158 224.64 
L 249.052158 49.740628 
L 247.544272 49.740628 
z
" clip-path="url(#p23b9f9604e)" style="fill: #1f77b4"/>
   </g>
   <g id="patch_128">
    <path d="M 249.052158 224.64 
L 250.560044 224.64 
L 250.560044 43.060444 
L 249.052158 43.060444 
z
" clip-path="url(#p23b9f9604e)" style="fill: #1f77b4"/>
   </g>
   <g id="patch_129">
    <path d="M 250.560044 224.64 
L 252.067931 224.64 
L 252.067931 40.631286 
L 250.560044 40.631286 
z
" clip-path="url(#p23b9f9604e)" style="fill: #1f77b4"/>
   </g>
   <g id="patch_130">
    <path d="M 252.067931 224.64 
L 253.575817 224.64 
L 253.575817 61.279129 
L 252.067931 61.279129 
z
" clip-path="url(#p23b9f9604e)" style="fill: #1f77b4"/>
   </g>
   <g id="patch_131">
    <path d="M 253.575817 224.64 
L 255.083703 224.64 
L 255.083703 61.886418 
L 253.575817 61.886418 
z
" clip-path="url(#p23b9f9604e)" style="fill: #1f77b4"/>
   </g>
   <g id="patch_132">
    <path d="M 255.083703 224.64 
L 256.591589 224.64 
L 256.591589 47.31147 
L 255.083703 47.31147 
z
" clip-path="url(#p23b9f9604e)" style="fill: #1f77b4"/>
   </g>
   <g id="patch_133">
    <path d="M 256.591589 224.64 
L 258.099476 224.64 
L 258.099476 67.352023 
L 256.591589 67.352023 
z
" clip-path="url(#p23b9f9604e)" style="fill: #1f77b4"/>
   </g>
   <g id="patch_134">
    <path d="M 258.099476 224.64 
L 259.607362 224.64 
L 259.607362 30.307365 
L 258.099476 30.307365 
z
" clip-path="url(#p23b9f9604e)" style="fill: #1f77b4"/>
   </g>
   <g id="patch_135">
    <path d="M 259.607362 224.64 
L 261.115248 224.64 
L 261.115248 58.849971 
L 259.607362 58.849971 
z
" clip-path="url(#p23b9f9604e)" style="fill: #1f77b4"/>
   </g>
   <g id="patch_136">
    <path d="M 261.115248 224.64 
L 262.623134 224.64 
L 262.623134 56.420813 
L 261.115248 56.420813 
z
" clip-path="url(#p23b9f9604e)" style="fill: #1f77b4"/>
   </g>
   <g id="patch_137">
    <path d="M 262.623134 224.64 
L 264.13102 224.64 
L 264.13102 63.708287 
L 262.623134 63.708287 
z
" clip-path="url(#p23b9f9604e)" style="fill: #1f77b4"/>
   </g>
   <g id="patch_138">
    <path d="M 264.13102 224.64 
L 265.638907 224.64 
L 265.638907 89.821734 
L 264.13102 89.821734 
z
" clip-path="url(#p23b9f9604e)" style="fill: #1f77b4"/>
   </g>
   <g id="patch_139">
    <path d="M 265.638907 224.64 
L 267.146793 224.64 
L 267.146793 63.708287 
L 265.638907 63.708287 
z
" clip-path="url(#p23b9f9604e)" style="fill: #1f77b4"/>
   </g>
   <g id="patch_140">
    <path d="M 267.146793 224.64 
L 268.654679 224.64 
L 268.654679 80.105103 
L 267.146793 80.105103 
z
" clip-path="url(#p23b9f9604e)" style="fill: #1f77b4"/>
   </g>
   <g id="patch_141">
    <path d="M 268.654679 224.64 
L 270.162565 224.64 
L 270.162565 62.493708 
L 268.654679 62.493708 
z
" clip-path="url(#p23b9f9604e)" style="fill: #1f77b4"/>
   </g>
   <g id="patch_142">
    <path d="M 270.162565 224.64 
L 271.670452 224.64 
L 271.670452 74.639497 
L 270.162565 74.639497 
z
" clip-path="url(#p23b9f9604e)" style="fill: #1f77b4"/>
   </g>
   <g id="patch_143">
    <path d="M 271.670452 224.64 
L 273.178338 224.64 
L 273.178338 73.424918 
L 271.670452 73.424918 
z
" clip-path="url(#p23b9f9604e)" style="fill: #1f77b4"/>
   </g>
   <g id="patch_144">
    <path d="M 273.178338 224.64 
L 274.686224 224.64 
L 274.686224 78.890524 
L 273.178338 78.890524 
z
" clip-path="url(#p23b9f9604e)" style="fill: #1f77b4"/>
   </g>
   <g id="patch_145">
    <path d="M 274.686224 224.64 
L 276.19411 224.64 
L 276.19411 76.461366 
L 274.686224 76.461366 
z
" clip-path="url(#p23b9f9604e)" style="fill: #1f77b4"/>
   </g>
   <g id="patch_146">
    <path d="M 276.19411 224.64 
L 277.701997 224.64 
L 277.701997 69.173892 
L 276.19411 69.173892 
z
" clip-path="url(#p23b9f9604e)" style="fill: #1f77b4"/>
   </g>
   <g id="patch_147">
    <path d="M 277.701997 224.64 
L 279.209883 224.64 
L 279.209883 89.821734 
L 277.701997 89.821734 
z
" clip-path="url(#p23b9f9604e)" style="fill: #1f77b4"/>
   </g>
   <g id="patch_148">
    <path d="M 279.209883 224.64 
L 280.717769 224.64 
L 280.717769 76.461366 
L 279.209883 76.461366 
z
" clip-path="url(#p23b9f9604e)" style="fill: #1f77b4"/>
   </g>
   <g id="patch_149">
    <path d="M 280.717769 224.64 
L 282.225655 224.64 
L 282.225655 89.214445 
L 280.717769 89.214445 
z
" clip-path="url(#p23b9f9604e)" style="fill: #1f77b4"/>
   </g>
   <g id="patch_150">
    <path d="M 282.225655 224.64 
L 283.733542 224.64 
L 283.733542 97.109208 
L 282.225655 97.109208 
z
" clip-path="url(#p23b9f9604e)" style="fill: #1f77b4"/>
   </g>
   <g id="patch_151">
    <path d="M 283.733542 224.64 
L 285.241428 224.64 
L 285.241428 98.323787 
L 283.733542 98.323787 
z
" clip-path="url(#p23b9f9604e)" style="fill: #1f77b4"/>
   </g>
   <g id="patch_152">
    <path d="M 285.241428 224.64 
L 286.749314 224.64 
L 286.749314 103.789393 
L 285.241428 103.789393 
z
" clip-path="url(#p23b9f9604e)" style="fill: #1f77b4"/>
   </g>
   <g id="patch_153">
    <path d="M 286.749314 224.64 
L 288.2572 224.64 
L 288.2572 93.465471 
L 286.749314 93.465471 
z
" clip-path="url(#p23b9f9604e)" style="fill: #1f77b4"/>
   </g>
   <g id="patch_154">
    <path d="M 288.2572 224.64 
L 289.765086 224.64 
L 289.765086 98.323787 
L 288.2572 98.323787 
z
" clip-path="url(#p23b9f9604e)" style="fill: #1f77b4"/>
   </g>
   <g id="patch_155">
    <path d="M 289.765086 224.64 
L 291.272973 224.64 
L 291.272973 93.465471 
L 289.765086 93.465471 
z
" clip-path="url(#p23b9f9604e)" style="fill: #1f77b4"/>
   </g>
   <g id="patch_156">
    <path d="M 291.272973 224.64 
L 292.780859 224.64 
L 292.780859 78.890524 
L 291.272973 78.890524 
z
" clip-path="url(#p23b9f9604e)" style="fill: #1f77b4"/>
   </g>
   <g id="patch_157">
    <path d="M 292.780859 224.64 
L 294.288745 224.64 
L 294.288745 98.931077 
L 292.780859 98.931077 
z
" clip-path="url(#p23b9f9604e)" style="fill: #1f77b4"/>
   </g>
   <g id="patch_158">
    <path d="M 294.288745 224.64 
L 295.796631 224.64 
L 295.796631 83.74884 
L 294.288745 83.74884 
z
" clip-path="url(#p23b9f9604e)" style="fill: #1f77b4"/>
   </g>
   <g id="patch_159">
    <path d="M 295.796631 224.64 
L 297.304518 224.64 
L 297.304518 92.858182 
L 295.796631 92.858182 
z
" clip-path="url(#p23b9f9604e)" style="fill: #1f77b4"/>
   </g>
   <g id="patch_160">
    <path d="M 297.304518 224.64 
L 298.812404 224.64 
L 298.812404 100.145656 
L 297.304518 100.145656 
z
" clip-path="url(#p23b9f9604e)" style="fill: #1f77b4"/>
   </g>
   <g id="patch_161">
    <path d="M 298.812404 224.64 
L 300.32029 224.64 
L 300.32029 117.149761 
L 298.812404 117.149761 
z
" clip-path="url(#p23b9f9604e)" style="fill: #1f77b4"/>
   </g>
   <g id="patch_162">
    <path d="M 300.32029 224.64 
L 301.828176 224.64 
L 301.828176 123.829946 
L 300.32029 123.829946 
z
" clip-path="url(#p23b9f9604e)" style="fill: #1f77b4"/>
   </g>
   <g id="patch_163">
    <path d="M 301.828176 224.64 
L 303.336063 224.64 
L 303.336063 114.113314 
L 301.828176 114.113314 
z
" clip-path="url(#p23b9f9604e)" style="fill: #1f77b4"/>
   </g>
   <g id="patch_164">
    <path d="M 303.336063 224.64 
L 304.843949 224.64 
L 304.843949 121.400788 
L 303.336063 121.400788 
z
" clip-path="url(#p23b9f9604e)" style="fill: #1f77b4"/>
   </g>
   <g id="patch_165">
    <path d="M 304.843949 224.64 
L 306.351835 224.64 
L 306.351835 104.396682 
L 304.843949 104.396682 
z
" clip-path="url(#p23b9f9604e)" style="fill: #1f77b4"/>
   </g>
   <g id="patch_166">
    <path d="M 306.351835 224.64 
L 307.859721 224.64 
L 307.859721 111.684156 
L 306.351835 111.684156 
z
" clip-path="url(#p23b9f9604e)" style="fill: #1f77b4"/>
   </g>
   <g id="patch_167">
    <path d="M 307.859721 224.64 
L 309.367607 224.64 
L 309.367607 129.90284 
L 307.859721 129.90284 
z
" clip-path="url(#p23b9f9604e)" style="fill: #1f77b4"/>
   </g>
   <g id="patch_168">
    <path d="M 309.367607 224.64 
L 310.875494 224.64 
L 310.875494 125.651814 
L 309.367607 125.651814 
z
" clip-path="url(#p23b9f9604e)" style="fill: #1f77b4"/>
   </g>
   <g id="patch_169">
    <path d="M 310.875494 224.64 
L 312.38338 224.64 
L 312.38338 133.546577 
L 310.875494 133.546577 
z
" clip-path="url(#p23b9f9604e)" style="fill: #1f77b4"/>
   </g>
   <g id="patch_170">
    <path d="M 312.38338 224.64 
L 313.891266 224.64 
L 313.891266 134.761156 
L 312.38338 134.761156 
z
" clip-path="url(#p23b9f9604e)" style="fill: #1f77b4"/>
   </g>
   <g id="patch_171">
    <path d="M 313.891266 224.64 
L 315.399152 224.64 
L 315.399152 134.761156 
L 313.891266 134.761156 
z
" clip-path="url(#p23b9f9604e)" style="fill: #1f77b4"/>
   </g>
   <g id="patch_172">
    <path d="M 315.399152 224.64 
L 316.907039 224.64 
L 316.907039 132.331998 
L 315.399152 132.331998 
z
" clip-path="url(#p23b9f9604e)" style="fill: #1f77b4"/>
   </g>
   <g id="patch_173">
    <path d="M 316.907039 224.64 
L 318.414925 224.64 
L 318.414925 135.975735 
L 316.907039 135.975735 
z
" clip-path="url(#p23b9f9604e)" style="fill: #1f77b4"/>
   </g>
   <g id="patch_174">
    <path d="M 318.414925 224.64 
L 319.922811 224.64 
L 319.922811 130.51013 
L 318.414925 130.51013 
z
" clip-path="url(#p23b9f9604e)" style="fill: #1f77b4"/>
   </g>
   <g id="patch_175">
    <path d="M 319.922811 224.64 
L 321.430697 224.64 
L 321.430697 137.190314 
L 319.922811 137.190314 
z
" clip-path="url(#p23b9f9604e)" style="fill: #1f77b4"/>
   </g>
   <g id="patch_176">
    <path d="M 321.430697 224.64 
L 322.938584 224.64 
L 322.938584 131.724709 
L 321.430697 131.724709 
z
" clip-path="url(#p23b9f9604e)" style="fill: #1f77b4"/>
   </g>
   <g id="patch_177">
    <path d="M 322.938584 224.64 
L 324.44647 224.64 
L 324.44647 137.797604 
L 322.938584 137.797604 
z
" clip-path="url(#p23b9f9604e)" style="fill: #1f77b4"/>
   </g>
   <g id="patch_178">
    <path d="M 324.44647 224.64 
L 325.954356 224.64 
L 325.954356 142.65592 
L 324.44647 142.65592 
z
" clip-path="url(#p23b9f9604e)" style="fill: #1f77b4"/>
   </g>
   <g id="patch_179">
    <path d="M 325.954356 224.64 
L 327.462242 224.64 
L 327.462242 163.911052 
L 325.954356 163.911052 
z
" clip-path="url(#p23b9f9604e)" style="fill: #1f77b4"/>
   </g>
   <g id="patch_180">
    <path d="M 327.462242 224.64 
L 328.970129 224.64 
L 328.970129 162.696473 
L 327.462242 162.696473 
z
" clip-path="url(#p23b9f9604e)" style="fill: #1f77b4"/>
   </g>
   <g id="patch_181">
    <path d="M 328.970129 224.64 
L 330.478015 224.64 
L 330.478015 163.911052 
L 328.970129 163.911052 
z
" clip-path="url(#p23b9f9604e)" style="fill: #1f77b4"/>
   </g>
   <g id="patch_182">
    <path d="M 330.478015 224.64 
L 331.985901 224.64 
L 331.985901 159.660025 
L 330.478015 159.660025 
z
" clip-path="url(#p23b9f9604e)" style="fill: #1f77b4"/>
   </g>
   <g id="patch_183">
    <path d="M 331.985901 224.64 
L 333.493787 224.64 
L 333.493787 178.485999 
L 331.985901 178.485999 
z
" clip-path="url(#p23b9f9604e)" style="fill: #1f77b4"/>
   </g>
   <g id="patch_184">
    <path d="M 333.493787 224.64 
L 335.001673 224.64 
L 335.001673 162.089183 
L 333.493787 162.089183 
z
" clip-path="url(#p23b9f9604e)" style="fill: #1f77b4"/>
   </g>
   <g id="patch_185">
    <path d="M 335.001673 224.64 
L 336.50956 224.64 
L 336.50956 171.198525 
L 335.001673 171.198525 
z
" clip-path="url(#p23b9f9604e)" style="fill: #1f77b4"/>
   </g>
   <g id="patch_186">
    <path d="M 336.50956 224.64 
L 338.017446 224.64 
L 338.017446 163.911052 
L 336.50956 163.911052 
z
" clip-path="url(#p23b9f9604e)" style="fill: #1f77b4"/>
   </g>
   <g id="patch_187">
    <path d="M 338.017446 224.64 
L 339.525332 224.64 
L 339.525332 180.307868 
L 338.017446 180.307868 
z
" clip-path="url(#p23b9f9604e)" style="fill: #1f77b4"/>
   </g>
   <g id="patch_188">
    <path d="M 339.525332 224.64 
L 341.033218 224.64 
L 341.033218 173.627683 
L 339.525332 173.627683 
z
" clip-path="url(#p23b9f9604e)" style="fill: #1f77b4"/>
   </g>
   <g id="patch_189">
    <path d="M 341.033218 224.64 
L 342.541105 224.64 
L 342.541105 174.234973 
L 341.033218 174.234973 
z
" clip-path="url(#p23b9f9604e)" style="fill: #1f77b4"/>
   </g>
   <g id="patch_190">
    <path d="M 342.541105 224.64 
L 344.048991 224.64 
L 344.048991 182.737026 
L 342.541105 182.737026 
z
" clip-path="url(#p23b9f9604e)" style="fill: #1f77b4"/>
   </g>
   <g id="patch_191">
    <path d="M 344.048991 224.64 
L 345.556877 224.64 
L 345.556877 186.988052 
L 344.048991 186.988052 
z
" clip-path="url(#p23b9f9604e)" style="fill: #1f77b4"/>
   </g>
   <g id="patch_192">
    <path d="M 345.556877 224.64 
L 347.064763 224.64 
L 347.064763 191.239078 
L 345.556877 191.239078 
z
" clip-path="url(#p23b9f9604e)" style="fill: #1f77b4"/>
   </g>
   <g id="patch_193">
    <path d="M 347.064763 224.64 
L 348.57265 224.64 
L 348.57265 199.741131 
L 347.064763 199.741131 
z
" clip-path="url(#p23b9f9604e)" style="fill: #1f77b4"/>
   </g>
   <g id="patch_194">
    <path d="M 348.57265 224.64 
L 350.080536 224.64 
L 350.080536 189.41721 
L 348.57265 189.41721 
z
" clip-path="url(#p23b9f9604e)" style="fill: #1f77b4"/>
   </g>
   <g id="patch_195">
    <path d="M 350.080536 224.64 
L 351.588422 224.64 
L 351.588422 196.704684 
L 350.080536 196.704684 
z
" clip-path="url(#p23b9f9604e)" style="fill: #1f77b4"/>
   </g>
   <g id="patch_196">
    <path d="M 351.588422 224.64 
L 353.096308 224.64 
L 353.096308 208.243184 
L 351.588422 208.243184 
z
" clip-path="url(#p23b9f9604e)" style="fill: #1f77b4"/>
   </g>
   <g id="patch_197">
    <path d="M 353.096308 224.64 
L 354.604194 224.64 
L 354.604194 208.243184 
L 353.096308 208.243184 
z
" clip-path="url(#p23b9f9604e)" style="fill: #1f77b4"/>
   </g>
   <g id="patch_198">
    <path d="M 354.604194 224.64 
L 356.112081 224.64 
L 356.112081 201.563 
L 354.604194 201.563 
z
" clip-path="url(#p23b9f9604e)" style="fill: #1f77b4"/>
   </g>
   <g id="patch_199">
    <path d="M 356.112081 224.64 
L 357.619967 224.64 
L 357.619967 207.635894 
L 356.112081 207.635894 
z
" clip-path="url(#p23b9f9604e)" style="fill: #1f77b4"/>
   </g>
   <g id="patch_200">
    <path d="M 357.619967 224.64 
L 359.127853 224.64 
L 359.127853 214.316079 
L 357.619967 214.316079 
z
" clip-path="url(#p23b9f9604e)" style="fill: #1f77b4"/>
   </g>
   <g id="patch_201">
    <path d="M 359.127853 224.64 
L 360.635739 224.64 
L 360.635739 218.567105 
L 359.127853 218.567105 
z
" clip-path="url(#p23b9f9604e)" style="fill: #1f77b4"/>
   </g>
   <g id="patch_202">
    <path d="M 360.635739 224.64 
L 362.143626 224.64 
L 362.143626 219.781684 
L 360.635739 219.781684 
z
" clip-path="url(#p23b9f9604e)" style="fill: #1f77b4"/>
   </g>
   <g id="matplotlib.axis_1">
    <g id="xtick_1">
     <g id="line2d_1">
      <defs>
       <path id="m3910752c38" d="M 0 0 
L 0 3.5 
" style="stroke: #000000; stroke-width: 0.8"/>
      </defs>
      <g>
       <use xlink:href="#m3910752c38" x="58.999432" y="224.64" style="stroke: #000000; stroke-width: 0.8"/>
      </g>
     </g>
     <g id="text_1">
      <!-- 0.0 -->
      <g transform="translate(51.047869 239.238437)scale(0.1 -0.1)">
       <defs>
        <path id="DejaVuSans-30" d="M 2034 4250 
Q 1547 4250 1301 3770 
Q 1056 3291 1056 2328 
Q 1056 1369 1301 889 
Q 1547 409 2034 409 
Q 2525 409 2770 889 
Q 3016 1369 3016 2328 
Q 3016 3291 2770 3770 
Q 2525 4250 2034 4250 
z
M 2034 4750 
Q 2819 4750 3233 4129 
Q 3647 3509 3647 2328 
Q 3647 1150 3233 529 
Q 2819 -91 2034 -91 
Q 1250 -91 836 529 
Q 422 1150 422 2328 
Q 422 3509 836 4129 
Q 1250 4750 2034 4750 
z
" transform="scale(0.015625)"/>
        <path id="DejaVuSans-2e" d="M 684 794 
L 1344 794 
L 1344 0 
L 684 0 
L 684 794 
z
" transform="scale(0.015625)"/>
       </defs>
       <use xlink:href="#DejaVuSans-30"/>
       <use xlink:href="#DejaVuSans-2e" x="63.623047"/>
       <use xlink:href="#DejaVuSans-30" x="95.410156"/>
      </g>
     </g>
    </g>
    <g id="xtick_2">
     <g id="line2d_2">
      <g>
       <use xlink:href="#m3910752c38" x="97.752214" y="224.64" style="stroke: #000000; stroke-width: 0.8"/>
      </g>
     </g>
     <g id="text_2">
      <!-- 0.2 -->
      <g transform="translate(89.800651 239.238437)scale(0.1 -0.1)">
       <defs>
        <path id="DejaVuSans-32" d="M 1228 531 
L 3431 531 
L 3431 0 
L 469 0 
L 469 531 
Q 828 903 1448 1529 
Q 2069 2156 2228 2338 
Q 2531 2678 2651 2914 
Q 2772 3150 2772 3378 
Q 2772 3750 2511 3984 
Q 2250 4219 1831 4219 
Q 1534 4219 1204 4116 
Q 875 4013 500 3803 
L 500 4441 
Q 881 4594 1212 4672 
Q 1544 4750 1819 4750 
Q 2544 4750 2975 4387 
Q 3406 4025 3406 3419 
Q 3406 3131 3298 2873 
Q 3191 2616 2906 2266 
Q 2828 2175 2409 1742 
Q 1991 1309 1228 531 
z
" transform="scale(0.015625)"/>
       </defs>
       <use xlink:href="#DejaVuSans-30"/>
       <use xlink:href="#DejaVuSans-2e" x="63.623047"/>
       <use xlink:href="#DejaVuSans-32" x="95.410156"/>
      </g>
     </g>
    </g>
    <g id="xtick_3">
     <g id="line2d_3">
      <g>
       <use xlink:href="#m3910752c38" x="136.504995" y="224.64" style="stroke: #000000; stroke-width: 0.8"/>
      </g>
     </g>
     <g id="text_3">
      <!-- 0.4 -->
      <g transform="translate(128.553433 239.238437)scale(0.1 -0.1)">
       <defs>
        <path id="DejaVuSans-34" d="M 2419 4116 
L 825 1625 
L 2419 1625 
L 2419 4116 
z
M 2253 4666 
L 3047 4666 
L 3047 1625 
L 3713 1625 
L 3713 1100 
L 3047 1100 
L 3047 0 
L 2419 0 
L 2419 1100 
L 313 1100 
L 313 1709 
L 2253 4666 
z
" transform="scale(0.015625)"/>
       </defs>
       <use xlink:href="#DejaVuSans-30"/>
       <use xlink:href="#DejaVuSans-2e" x="63.623047"/>
       <use xlink:href="#DejaVuSans-34" x="95.410156"/>
      </g>
     </g>
    </g>
    <g id="xtick_4">
     <g id="line2d_4">
      <g>
       <use xlink:href="#m3910752c38" x="175.257777" y="224.64" style="stroke: #000000; stroke-width: 0.8"/>
      </g>
     </g>
     <g id="text_4">
      <!-- 0.6 -->
      <g transform="translate(167.306215 239.238437)scale(0.1 -0.1)">
       <defs>
        <path id="DejaVuSans-36" d="M 2113 2584 
Q 1688 2584 1439 2293 
Q 1191 2003 1191 1497 
Q 1191 994 1439 701 
Q 1688 409 2113 409 
Q 2538 409 2786 701 
Q 3034 994 3034 1497 
Q 3034 2003 2786 2293 
Q 2538 2584 2113 2584 
z
M 3366 4563 
L 3366 3988 
Q 3128 4100 2886 4159 
Q 2644 4219 2406 4219 
Q 1781 4219 1451 3797 
Q 1122 3375 1075 2522 
Q 1259 2794 1537 2939 
Q 1816 3084 2150 3084 
Q 2853 3084 3261 2657 
Q 3669 2231 3669 1497 
Q 3669 778 3244 343 
Q 2819 -91 2113 -91 
Q 1303 -91 875 529 
Q 447 1150 447 2328 
Q 447 3434 972 4092 
Q 1497 4750 2381 4750 
Q 2619 4750 2861 4703 
Q 3103 4656 3366 4563 
z
" transform="scale(0.015625)"/>
       </defs>
       <use xlink:href="#DejaVuSans-30"/>
       <use xlink:href="#DejaVuSans-2e" x="63.623047"/>
       <use xlink:href="#DejaVuSans-36" x="95.410156"/>
      </g>
     </g>
    </g>
    <g id="xtick_5">
     <g id="line2d_5">
      <g>
       <use xlink:href="#m3910752c38" x="214.010559" y="224.64" style="stroke: #000000; stroke-width: 0.8"/>
      </g>
     </g>
     <g id="text_5">
      <!-- 0.8 -->
      <g transform="translate(206.058996 239.238437)scale(0.1 -0.1)">
       <defs>
        <path id="DejaVuSans-38" d="M 2034 2216 
Q 1584 2216 1326 1975 
Q 1069 1734 1069 1313 
Q 1069 891 1326 650 
Q 1584 409 2034 409 
Q 2484 409 2743 651 
Q 3003 894 3003 1313 
Q 3003 1734 2745 1975 
Q 2488 2216 2034 2216 
z
M 1403 2484 
Q 997 2584 770 2862 
Q 544 3141 544 3541 
Q 544 4100 942 4425 
Q 1341 4750 2034 4750 
Q 2731 4750 3128 4425 
Q 3525 4100 3525 3541 
Q 3525 3141 3298 2862 
Q 3072 2584 2669 2484 
Q 3125 2378 3379 2068 
Q 3634 1759 3634 1313 
Q 3634 634 3220 271 
Q 2806 -91 2034 -91 
Q 1263 -91 848 271 
Q 434 634 434 1313 
Q 434 1759 690 2068 
Q 947 2378 1403 2484 
z
M 1172 3481 
Q 1172 3119 1398 2916 
Q 1625 2713 2034 2713 
Q 2441 2713 2670 2916 
Q 2900 3119 2900 3481 
Q 2900 3844 2670 4047 
Q 2441 4250 2034 4250 
Q 1625 4250 1398 4047 
Q 1172 3844 1172 3481 
z
" transform="scale(0.015625)"/>
       </defs>
       <use xlink:href="#DejaVuSans-30"/>
       <use xlink:href="#DejaVuSans-2e" x="63.623047"/>
       <use xlink:href="#DejaVuSans-38" x="95.410156"/>
      </g>
     </g>
    </g>
    <g id="xtick_6">
     <g id="line2d_6">
      <g>
       <use xlink:href="#m3910752c38" x="252.763341" y="224.64" style="stroke: #000000; stroke-width: 0.8"/>
      </g>
     </g>
     <g id="text_6">
      <!-- 1.0 -->
      <g transform="translate(244.811778 239.238437)scale(0.1 -0.1)">
       <defs>
        <path id="DejaVuSans-31" d="M 794 531 
L 1825 531 
L 1825 4091 
L 703 3866 
L 703 4441 
L 1819 4666 
L 2450 4666 
L 2450 531 
L 3481 531 
L 3481 0 
L 794 0 
L 794 531 
z
" transform="scale(0.015625)"/>
       </defs>
       <use xlink:href="#DejaVuSans-31"/>
       <use xlink:href="#DejaVuSans-2e" x="63.623047"/>
       <use xlink:href="#DejaVuSans-30" x="95.410156"/>
      </g>
     </g>
    </g>
    <g id="xtick_7">
     <g id="line2d_7">
      <g>
       <use xlink:href="#m3910752c38" x="291.516122" y="224.64" style="stroke: #000000; stroke-width: 0.8"/>
      </g>
     </g>
     <g id="text_7">
      <!-- 1.2 -->
      <g transform="translate(283.56456 239.238437)scale(0.1 -0.1)">
       <use xlink:href="#DejaVuSans-31"/>
       <use xlink:href="#DejaVuSans-2e" x="63.623047"/>
       <use xlink:href="#DejaVuSans-32" x="95.410156"/>
      </g>
     </g>
    </g>
    <g id="xtick_8">
     <g id="line2d_8">
      <g>
       <use xlink:href="#m3910752c38" x="330.268904" y="224.64" style="stroke: #000000; stroke-width: 0.8"/>
      </g>
     </g>
     <g id="text_8">
      <!-- 1.4 -->
      <g transform="translate(322.317342 239.238437)scale(0.1 -0.1)">
       <use xlink:href="#DejaVuSans-31"/>
       <use xlink:href="#DejaVuSans-2e" x="63.623047"/>
       <use xlink:href="#DejaVuSans-34" x="95.410156"/>
      </g>
     </g>
    </g>
    <g id="xtick_9">
     <g id="line2d_9">
      <g>
       <use xlink:href="#m3910752c38" x="369.021686" y="224.64" style="stroke: #000000; stroke-width: 0.8"/>
      </g>
     </g>
     <g id="text_9">
      <!-- 1.6 -->
      <g transform="translate(361.070124 239.238437)scale(0.1 -0.1)">
       <use xlink:href="#DejaVuSans-31"/>
       <use xlink:href="#DejaVuSans-2e" x="63.623047"/>
       <use xlink:href="#DejaVuSans-36" x="95.410156"/>
      </g>
     </g>
    </g>
    <g id="text_10">
     <!-- Angle with normal (rad) -->
     <g transform="translate(151.863281 252.916562)scale(0.1 -0.1)">
      <defs>
       <path id="DejaVuSans-41" d="M 2188 4044 
L 1331 1722 
L 3047 1722 
L 2188 4044 
z
M 1831 4666 
L 2547 4666 
L 4325 0 
L 3669 0 
L 3244 1197 
L 1141 1197 
L 716 0 
L 50 0 
L 1831 4666 
z
" transform="scale(0.015625)"/>
       <path id="DejaVuSans-6e" d="M 3513 2113 
L 3513 0 
L 2938 0 
L 2938 2094 
Q 2938 2591 2744 2837 
Q 2550 3084 2163 3084 
Q 1697 3084 1428 2787 
Q 1159 2491 1159 1978 
L 1159 0 
L 581 0 
L 581 3500 
L 1159 3500 
L 1159 2956 
Q 1366 3272 1645 3428 
Q 1925 3584 2291 3584 
Q 2894 3584 3203 3211 
Q 3513 2838 3513 2113 
z
" transform="scale(0.015625)"/>
       <path id="DejaVuSans-67" d="M 2906 1791 
Q 2906 2416 2648 2759 
Q 2391 3103 1925 3103 
Q 1463 3103 1205 2759 
Q 947 2416 947 1791 
Q 947 1169 1205 825 
Q 1463 481 1925 481 
Q 2391 481 2648 825 
Q 2906 1169 2906 1791 
z
M 3481 434 
Q 3481 -459 3084 -895 
Q 2688 -1331 1869 -1331 
Q 1566 -1331 1297 -1286 
Q 1028 -1241 775 -1147 
L 775 -588 
Q 1028 -725 1275 -790 
Q 1522 -856 1778 -856 
Q 2344 -856 2625 -561 
Q 2906 -266 2906 331 
L 2906 616 
Q 2728 306 2450 153 
Q 2172 0 1784 0 
Q 1141 0 747 490 
Q 353 981 353 1791 
Q 353 2603 747 3093 
Q 1141 3584 1784 3584 
Q 2172 3584 2450 3431 
Q 2728 3278 2906 2969 
L 2906 3500 
L 3481 3500 
L 3481 434 
z
" transform="scale(0.015625)"/>
       <path id="DejaVuSans-6c" d="M 603 4863 
L 1178 4863 
L 1178 0 
L 603 0 
L 603 4863 
z
" transform="scale(0.015625)"/>
       <path id="DejaVuSans-65" d="M 3597 1894 
L 3597 1613 
L 953 1613 
Q 991 1019 1311 708 
Q 1631 397 2203 397 
Q 2534 397 2845 478 
Q 3156 559 3463 722 
L 3463 178 
Q 3153 47 2828 -22 
Q 2503 -91 2169 -91 
Q 1331 -91 842 396 
Q 353 884 353 1716 
Q 353 2575 817 3079 
Q 1281 3584 2069 3584 
Q 2775 3584 3186 3129 
Q 3597 2675 3597 1894 
z
M 3022 2063 
Q 3016 2534 2758 2815 
Q 2500 3097 2075 3097 
Q 1594 3097 1305 2825 
Q 1016 2553 972 2059 
L 3022 2063 
z
" transform="scale(0.015625)"/>
       <path id="DejaVuSans-20" transform="scale(0.015625)"/>
       <path id="DejaVuSans-77" d="M 269 3500 
L 844 3500 
L 1563 769 
L 2278 3500 
L 2956 3500 
L 3675 769 
L 4391 3500 
L 4966 3500 
L 4050 0 
L 3372 0 
L 2619 2869 
L 1863 0 
L 1184 0 
L 269 3500 
z
" transform="scale(0.015625)"/>
       <path id="DejaVuSans-69" d="M 603 3500 
L 1178 3500 
L 1178 0 
L 603 0 
L 603 3500 
z
M 603 4863 
L 1178 4863 
L 1178 4134 
L 603 4134 
L 603 4863 
z
" transform="scale(0.015625)"/>
       <path id="DejaVuSans-74" d="M 1172 4494 
L 1172 3500 
L 2356 3500 
L 2356 3053 
L 1172 3053 
L 1172 1153 
Q 1172 725 1289 603 
Q 1406 481 1766 481 
L 2356 481 
L 2356 0 
L 1766 0 
Q 1100 0 847 248 
Q 594 497 594 1153 
L 594 3053 
L 172 3053 
L 172 3500 
L 594 3500 
L 594 4494 
L 1172 4494 
z
" transform="scale(0.015625)"/>
       <path id="DejaVuSans-68" d="M 3513 2113 
L 3513 0 
L 2938 0 
L 2938 2094 
Q 2938 2591 2744 2837 
Q 2550 3084 2163 3084 
Q 1697 3084 1428 2787 
Q 1159 2491 1159 1978 
L 1159 0 
L 581 0 
L 581 4863 
L 1159 4863 
L 1159 2956 
Q 1366 3272 1645 3428 
Q 1925 3584 2291 3584 
Q 2894 3584 3203 3211 
Q 3513 2838 3513 2113 
z
" transform="scale(0.015625)"/>
       <path id="DejaVuSans-6f" d="M 1959 3097 
Q 1497 3097 1228 2736 
Q 959 2375 959 1747 
Q 959 1119 1226 758 
Q 1494 397 1959 397 
Q 2419 397 2687 759 
Q 2956 1122 2956 1747 
Q 2956 2369 2687 2733 
Q 2419 3097 1959 3097 
z
M 1959 3584 
Q 2709 3584 3137 3096 
Q 3566 2609 3566 1747 
Q 3566 888 3137 398 
Q 2709 -91 1959 -91 
Q 1206 -91 779 398 
Q 353 888 353 1747 
Q 353 2609 779 3096 
Q 1206 3584 1959 3584 
z
" transform="scale(0.015625)"/>
       <path id="DejaVuSans-72" d="M 2631 2963 
Q 2534 3019 2420 3045 
Q 2306 3072 2169 3072 
Q 1681 3072 1420 2755 
Q 1159 2438 1159 1844 
L 1159 0 
L 581 0 
L 581 3500 
L 1159 3500 
L 1159 2956 
Q 1341 3275 1631 3429 
Q 1922 3584 2338 3584 
Q 2397 3584 2469 3576 
Q 2541 3569 2628 3553 
L 2631 2963 
z
" transform="scale(0.015625)"/>
       <path id="DejaVuSans-6d" d="M 3328 2828 
Q 3544 3216 3844 3400 
Q 4144 3584 4550 3584 
Q 5097 3584 5394 3201 
Q 5691 2819 5691 2113 
L 5691 0 
L 5113 0 
L 5113 2094 
Q 5113 2597 4934 2840 
Q 4756 3084 4391 3084 
Q 3944 3084 3684 2787 
Q 3425 2491 3425 1978 
L 3425 0 
L 2847 0 
L 2847 2094 
Q 2847 2600 2669 2842 
Q 2491 3084 2119 3084 
Q 1678 3084 1418 2786 
Q 1159 2488 1159 1978 
L 1159 0 
L 581 0 
L 581 3500 
L 1159 3500 
L 1159 2956 
Q 1356 3278 1631 3431 
Q 1906 3584 2284 3584 
Q 2666 3584 2933 3390 
Q 3200 3197 3328 2828 
z
" transform="scale(0.015625)"/>
       <path id="DejaVuSans-61" d="M 2194 1759 
Q 1497 1759 1228 1600 
Q 959 1441 959 1056 
Q 959 750 1161 570 
Q 1363 391 1709 391 
Q 2188 391 2477 730 
Q 2766 1069 2766 1631 
L 2766 1759 
L 2194 1759 
z
M 3341 1997 
L 3341 0 
L 2766 0 
L 2766 531 
Q 2569 213 2275 61 
Q 1981 -91 1556 -91 
Q 1019 -91 701 211 
Q 384 513 384 1019 
Q 384 1609 779 1909 
Q 1175 2209 1959 2209 
L 2766 2209 
L 2766 2266 
Q 2766 2663 2505 2880 
Q 2244 3097 1772 3097 
Q 1472 3097 1187 3025 
Q 903 2953 641 2809 
L 641 3341 
Q 956 3463 1253 3523 
Q 1550 3584 1831 3584 
Q 2591 3584 2966 3190 
Q 3341 2797 3341 1997 
z
" transform="scale(0.015625)"/>
       <path id="DejaVuSans-28" d="M 1984 4856 
Q 1566 4138 1362 3434 
Q 1159 2731 1159 2009 
Q 1159 1288 1364 580 
Q 1569 -128 1984 -844 
L 1484 -844 
Q 1016 -109 783 600 
Q 550 1309 550 2009 
Q 550 2706 781 3412 
Q 1013 4119 1484 4856 
L 1984 4856 
z
" transform="scale(0.015625)"/>
       <path id="DejaVuSans-64" d="M 2906 2969 
L 2906 4863 
L 3481 4863 
L 3481 0 
L 2906 0 
L 2906 525 
Q 2725 213 2448 61 
Q 2172 -91 1784 -91 
Q 1150 -91 751 415 
Q 353 922 353 1747 
Q 353 2572 751 3078 
Q 1150 3584 1784 3584 
Q 2172 3584 2448 3432 
Q 2725 3281 2906 2969 
z
M 947 1747 
Q 947 1113 1208 752 
Q 1469 391 1925 391 
Q 2381 391 2643 752 
Q 2906 1113 2906 1747 
Q 2906 2381 2643 2742 
Q 2381 3103 1925 3103 
Q 1469 3103 1208 2742 
Q 947 2381 947 1747 
z
" transform="scale(0.015625)"/>
       <path id="DejaVuSans-29" d="M 513 4856 
L 1013 4856 
Q 1481 4119 1714 3412 
Q 1947 2706 1947 2009 
Q 1947 1309 1714 600 
Q 1481 -109 1013 -844 
L 513 -844 
Q 928 -128 1133 580 
Q 1338 1288 1338 2009 
Q 1338 2731 1133 3434 
Q 928 4138 513 4856 
z
" transform="scale(0.015625)"/>
      </defs>
      <use xlink:href="#DejaVuSans-41"/>
      <use xlink:href="#DejaVuSans-6e" x="68.408203"/>
      <use xlink:href="#DejaVuSans-67" x="131.787109"/>
      <use xlink:href="#DejaVuSans-6c" x="195.263672"/>
      <use xlink:href="#DejaVuSans-65" x="223.046875"/>
      <use xlink:href="#DejaVuSans-20" x="284.570312"/>
      <use xlink:href="#DejaVuSans-77" x="316.357422"/>
      <use xlink:href="#DejaVuSans-69" x="398.144531"/>
      <use xlink:href="#DejaVuSans-74" x="425.927734"/>
      <use xlink:href="#DejaVuSans-68" x="465.136719"/>
      <use xlink:href="#DejaVuSans-20" x="528.515625"/>
      <use xlink:href="#DejaVuSans-6e" x="560.302734"/>
      <use xlink:href="#DejaVuSans-6f" x="623.681641"/>
      <use xlink:href="#DejaVuSans-72" x="684.863281"/>
      <use xlink:href="#DejaVuSans-6d" x="724.226562"/>
      <use xlink:href="#DejaVuSans-61" x="821.638672"/>
      <use xlink:href="#DejaVuSans-6c" x="882.917969"/>
      <use xlink:href="#DejaVuSans-20" x="910.701172"/>
      <use xlink:href="#DejaVuSans-28" x="942.488281"/>
      <use xlink:href="#DejaVuSans-72" x="981.501953"/>
      <use xlink:href="#DejaVuSans-61" x="1022.615234"/>
      <use xlink:href="#DejaVuSans-64" x="1083.894531"/>
      <use xlink:href="#DejaVuSans-29" x="1147.371094"/>
     </g>
    </g>
   </g>
   <g id="matplotlib.axis_2">
    <g id="ytick_1">
     <g id="line2d_10">
      <defs>
       <path id="mc97fee40c1" d="M 0 0 
L -3.5 0 
" style="stroke: #000000; stroke-width: 0.8"/>
      </defs>
      <g>
       <use xlink:href="#mc97fee40c1" x="43.78125" y="224.64" style="stroke: #000000; stroke-width: 0.8"/>
      </g>
     </g>
     <g id="text_11">
      <!-- 0.0 -->
      <g transform="translate(20.878125 228.439219)scale(0.1 -0.1)">
       <use xlink:href="#DejaVuSans-30"/>
       <use xlink:href="#DejaVuSans-2e" x="63.623047"/>
       <use xlink:href="#DejaVuSans-30" x="95.410156"/>
      </g>
     </g>
    </g>
    <g id="ytick_2">
     <g id="line2d_11">
      <g>
       <use xlink:href="#mc97fee40c1" x="43.78125" y="186.832197" style="stroke: #000000; stroke-width: 0.8"/>
      </g>
     </g>
     <g id="text_12">
      <!-- 0.2 -->
      <g transform="translate(20.878125 190.631416)scale(0.1 -0.1)">
       <use xlink:href="#DejaVuSans-30"/>
       <use xlink:href="#DejaVuSans-2e" x="63.623047"/>
       <use xlink:href="#DejaVuSans-32" x="95.410156"/>
      </g>
     </g>
    </g>
    <g id="ytick_3">
     <g id="line2d_12">
      <g>
       <use xlink:href="#mc97fee40c1" x="43.78125" y="149.024395" style="stroke: #000000; stroke-width: 0.8"/>
      </g>
     </g>
     <g id="text_13">
      <!-- 0.4 -->
      <g transform="translate(20.878125 152.823613)scale(0.1 -0.1)">
       <use xlink:href="#DejaVuSans-30"/>
       <use xlink:href="#DejaVuSans-2e" x="63.623047"/>
       <use xlink:href="#DejaVuSans-34" x="95.410156"/>
      </g>
     </g>
    </g>
    <g id="ytick_4">
     <g id="line2d_13">
      <g>
       <use xlink:href="#mc97fee40c1" x="43.78125" y="111.216592" style="stroke: #000000; stroke-width: 0.8"/>
      </g>
     </g>
     <g id="text_14">
      <!-- 0.6 -->
      <g transform="translate(20.878125 115.015811)scale(0.1 -0.1)">
       <use xlink:href="#DejaVuSans-30"/>
       <use xlink:href="#DejaVuSans-2e" x="63.623047"/>
       <use xlink:href="#DejaVuSans-36" x="95.410156"/>
      </g>
     </g>
    </g>
    <g id="ytick_5">
     <g id="line2d_14">
      <g>
       <use xlink:href="#mc97fee40c1" x="43.78125" y="73.408789" style="stroke: #000000; stroke-width: 0.8"/>
      </g>
     </g>
     <g id="text_15">
      <!-- 0.8 -->
      <g transform="translate(20.878125 77.208008)scale(0.1 -0.1)">
       <use xlink:href="#DejaVuSans-30"/>
       <use xlink:href="#DejaVuSans-2e" x="63.623047"/>
       <use xlink:href="#DejaVuSans-38" x="95.410156"/>
      </g>
     </g>
    </g>
    <g id="ytick_6">
     <g id="line2d_15">
      <g>
       <use xlink:href="#mc97fee40c1" x="43.78125" y="35.600987" style="stroke: #000000; stroke-width: 0.8"/>
      </g>
     </g>
     <g id="text_16">
      <!-- 1.0 -->
      <g transform="translate(20.878125 39.400205)scale(0.1 -0.1)">
       <use xlink:href="#DejaVuSans-31"/>
       <use xlink:href="#DejaVuSans-2e" x="63.623047"/>
       <use xlink:href="#DejaVuSans-30" x="95.410156"/>
      </g>
     </g>
    </g>
    <g id="text_17">
     <!-- Probability density -->
     <g transform="translate(14.798438 162.270781)rotate(-90)scale(0.1 -0.1)">
      <defs>
       <path id="DejaVuSans-50" d="M 1259 4147 
L 1259 2394 
L 2053 2394 
Q 2494 2394 2734 2622 
Q 2975 2850 2975 3272 
Q 2975 3691 2734 3919 
Q 2494 4147 2053 4147 
L 1259 4147 
z
M 628 4666 
L 2053 4666 
Q 2838 4666 3239 4311 
Q 3641 3956 3641 3272 
Q 3641 2581 3239 2228 
Q 2838 1875 2053 1875 
L 1259 1875 
L 1259 0 
L 628 0 
L 628 4666 
z
" transform="scale(0.015625)"/>
       <path id="DejaVuSans-62" d="M 3116 1747 
Q 3116 2381 2855 2742 
Q 2594 3103 2138 3103 
Q 1681 3103 1420 2742 
Q 1159 2381 1159 1747 
Q 1159 1113 1420 752 
Q 1681 391 2138 391 
Q 2594 391 2855 752 
Q 3116 1113 3116 1747 
z
M 1159 2969 
Q 1341 3281 1617 3432 
Q 1894 3584 2278 3584 
Q 2916 3584 3314 3078 
Q 3713 2572 3713 1747 
Q 3713 922 3314 415 
Q 2916 -91 2278 -91 
Q 1894 -91 1617 61 
Q 1341 213 1159 525 
L 1159 0 
L 581 0 
L 581 4863 
L 1159 4863 
L 1159 2969 
z
" transform="scale(0.015625)"/>
       <path id="DejaVuSans-79" d="M 2059 -325 
Q 1816 -950 1584 -1140 
Q 1353 -1331 966 -1331 
L 506 -1331 
L 506 -850 
L 844 -850 
Q 1081 -850 1212 -737 
Q 1344 -625 1503 -206 
L 1606 56 
L 191 3500 
L 800 3500 
L 1894 763 
L 2988 3500 
L 3597 3500 
L 2059 -325 
z
" transform="scale(0.015625)"/>
       <path id="DejaVuSans-73" d="M 2834 3397 
L 2834 2853 
Q 2591 2978 2328 3040 
Q 2066 3103 1784 3103 
Q 1356 3103 1142 2972 
Q 928 2841 928 2578 
Q 928 2378 1081 2264 
Q 1234 2150 1697 2047 
L 1894 2003 
Q 2506 1872 2764 1633 
Q 3022 1394 3022 966 
Q 3022 478 2636 193 
Q 2250 -91 1575 -91 
Q 1294 -91 989 -36 
Q 684 19 347 128 
L 347 722 
Q 666 556 975 473 
Q 1284 391 1588 391 
Q 1994 391 2212 530 
Q 2431 669 2431 922 
Q 2431 1156 2273 1281 
Q 2116 1406 1581 1522 
L 1381 1569 
Q 847 1681 609 1914 
Q 372 2147 372 2553 
Q 372 3047 722 3315 
Q 1072 3584 1716 3584 
Q 2034 3584 2315 3537 
Q 2597 3491 2834 3397 
z
" transform="scale(0.015625)"/>
      </defs>
      <use xlink:href="#DejaVuSans-50"/>
      <use xlink:href="#DejaVuSans-72" x="58.552734"/>
      <use xlink:href="#DejaVuSans-6f" x="97.416016"/>
      <use xlink:href="#DejaVuSans-62" x="158.597656"/>
      <use xlink:href="#DejaVuSans-61" x="222.074219"/>
      <use xlink:href="#DejaVuSans-62" x="283.353516"/>
      <use xlink:href="#DejaVuSans-69" x="346.830078"/>
      <use xlink:href="#DejaVuSans-6c" x="374.613281"/>
      <use xlink:href="#DejaVuSans-69" x="402.396484"/>
      <use xlink:href="#DejaVuSans-74" x="430.179688"/>
      <use xlink:href="#DejaVuSans-79" x="469.388672"/>
      <use xlink:href="#DejaVuSans-20" x="528.568359"/>
      <use xlink:href="#DejaVuSans-64" x="560.355469"/>
      <use xlink:href="#DejaVuSans-65" x="623.832031"/>
      <use xlink:href="#DejaVuSans-6e" x="685.355469"/>
      <use xlink:href="#DejaVuSans-73" x="748.734375"/>
      <use xlink:href="#DejaVuSans-69" x="800.833984"/>
      <use xlink:href="#DejaVuSans-74" x="828.617188"/>
      <use xlink:href="#DejaVuSans-79" x="867.826172"/>
     </g>
    </g>
   </g>
   <g id="line2d_16">
    <path d="M 58.999432 224.64 
L 77.888867 188.01544 
L 87.942921 169.000931 
L 96.473633 153.328952 
L 104.090341 139.799446 
L 111.097712 127.813286 
L 117.495746 117.310059 
L 123.589112 107.741359 
L 129.37781 99.078707 
L 134.86184 91.284873 
L 140.041201 84.31586 
L 144.915894 78.122717 
L 149.485918 72.653176 
L 154.055943 67.521759 
L 158.321299 63.047582 
L 162.586655 58.886571 
L 166.852012 55.046792 
L 170.8127 51.775429 
L 174.773388 48.792936 
L 178.734076 46.104296 
L 182.390095 43.887184 
L 186.046115 41.927446 
L 189.702135 40.227873 
L 193.358154 38.790884 
L 196.709506 37.706072 
L 200.060857 36.844926 
L 203.412208 36.208475 
L 206.76356 35.797481 
L 210.114911 35.612437 
L 213.466262 35.653563 
L 216.817614 35.920811 
L 220.168965 36.41386 
L 223.520316 37.13212 
L 226.871668 38.074733 
L 230.223019 39.24057 
L 233.57437 40.628237 
L 237.23039 42.393093 
L 240.88641 44.41745 
L 244.542429 46.698426 
L 248.198449 49.232774 
L 252.159137 52.260045 
L 256.119825 55.575376 
L 260.080513 59.173225 
L 264.345869 63.356879 
L 268.611225 67.853101 
L 273.18125 73.007423 
L 277.751275 78.499082 
L 282.625967 84.714892 
L 287.50066 91.284873 
L 292.680021 98.634928 
L 298.164051 106.809305 
L 303.952749 115.846752 
L 310.046115 125.778699 
L 316.444149 136.627267 
L 323.45152 148.947519 
L 331.372896 163.347919 
L 340.208277 179.888566 
L 351.176336 200.923538 
L 363.363068 224.64 
L 363.363068 224.64 
" clip-path="url(#p23b9f9604e)" style="fill: none; stroke: #ff7f0e; stroke-width: 1.5; stroke-linecap: square"/>
   </g>
   <g id="patch_203">
    <path d="M 43.78125 224.64 
L 43.78125 7.2 
" style="fill: none; stroke: #000000; stroke-width: 0.8; stroke-linejoin: miter; stroke-linecap: square"/>
   </g>
   <g id="patch_204">
    <path d="M 378.58125 224.64 
L 378.58125 7.2 
" style="fill: none; stroke: #000000; stroke-width: 0.8; stroke-linejoin: miter; stroke-linecap: square"/>
   </g>
   <g id="patch_205">
    <path d="M 43.78125 224.64 
L 378.58125 224.64 
" style="fill: none; stroke: #000000; stroke-width: 0.8; stroke-linejoin: miter; stroke-linecap: square"/>
   </g>
   <g id="patch_206">
    <path d="M 43.78125 7.2 
L 378.58125 7.2 
" style="fill: none; stroke: #000000; stroke-width: 0.8; stroke-linejoin: miter; stroke-linecap: square"/>
   </g>
  </g>
 </g>
 <defs>
  <clipPath id="p23b9f9604e">
   <rect x="43.78125" y="7.2" width="334.8" height="217.44"/>
  </clipPath>
 </defs>
</svg>
