<?xml version="1.0" encoding="utf-8" standalone="no"?>
<!DOCTYPE svg PUBLIC "-//W3C//DTD SVG 1.1//EN"
  "http://www.w3.org/Graphics/SVG/1.1/DTD/svg11.dtd">
<svg xmlns:xlink="http://www.w3.org/1999/xlink" width="392.14375pt" height="262.19625pt" viewBox="0 0 392.14375 262.19625" xmlns="http://www.w3.org/2000/svg" version="1.1">
 <metadata>
  <rdf:RDF xmlns:dc="http://purl.org/dc/elements/1.1/" xmlns:cc="http://creativecommons.org/ns#" xmlns:rdf="http://www.w3.org/1999/02/22-rdf-syntax-ns#">
   <cc:Work>
    <dc:type rdf:resource="http://purl.org/dc/dcmitype/StillImage"/>
    <dc:date>2022-09-06T16:53:35.615611</dc:date>
    <dc:format>image/svg+xml</dc:format>
    <dc:creator>
     <cc:Agent>
      <dc:title>Matplotlib v3.5.2, https://matplotlib.org/</dc:title>
     </cc:Agent>
    </dc:creator>
   </cc:Work>
  </rdf:RDF>
 </metadata>
 <defs>
  <style type="text/css">*{stroke-linejoin: round; stroke-linecap: butt}</style>
 </defs>
 <g id="figure_1">
  <g id="patch_1">
   <path d="M 0 262.19625 
L 392.14375 262.19625 
L 392.14375 0 
L 0 0 
L 0 262.19625 
z
" style="fill: none"/>
  </g>
  <g id="axes_1">
   <g id="patch_2">
    <path d="M 50.14375 224.64 
L 384.94375 224.64 
L 384.94375 7.2 
L 50.14375 7.2 
z
" style="fill: #ffffff"/>
   </g>
   <g id="patch_3">
    <path d="M 65.609097 224.64 
L 67.129671 224.64 
L 67.129671 223.660871 
L 65.609097 223.660871 
z
" clip-path="url(#p66fc084d86)" style="fill: #1f77b4"/>
   </g>
   <g id="patch_4">
    <path d="M 67.129671 224.64 
L 68.650245 224.64 
L 68.650245 223.171307 
L 67.129671 223.171307 
z
" clip-path="url(#p66fc084d86)" style="fill: #1f77b4"/>
   </g>
   <g id="patch_5">
    <path d="M 68.650245 224.64 
L 70.170819 224.64 
L 70.170819 223.660871 
L 68.650245 223.660871 
z
" clip-path="url(#p66fc084d86)" style="fill: #1f77b4"/>
   </g>
   <g id="patch_6">
    <path d="M 70.170819 224.64 
L 71.691393 224.64 
L 71.691393 223.171307 
L 70.170819 223.171307 
z
" clip-path="url(#p66fc084d86)" style="fill: #1f77b4"/>
   </g>
   <g id="patch_7">
    <path d="M 71.691393 224.64 
L 73.211967 224.64 
L 73.211967 219.254792 
L 71.691393 219.254792 
z
" clip-path="url(#p66fc084d86)" style="fill: #1f77b4"/>
   </g>
   <g id="patch_8">
    <path d="M 73.211967 224.64 
L 74.732541 224.64 
L 74.732541 218.275664 
L 73.211967 218.275664 
z
" clip-path="url(#p66fc084d86)" style="fill: #1f77b4"/>
   </g>
   <g id="patch_9">
    <path d="M 74.732541 224.64 
L 76.253115 224.64 
L 76.253115 217.296535 
L 74.732541 217.296535 
z
" clip-path="url(#p66fc084d86)" style="fill: #1f77b4"/>
   </g>
   <g id="patch_10">
    <path d="M 76.253115 224.64 
L 77.773689 224.64 
L 77.773689 216.806971 
L 76.253115 216.806971 
z
" clip-path="url(#p66fc084d86)" style="fill: #1f77b4"/>
   </g>
   <g id="patch_11">
    <path d="M 77.773689 224.64 
L 79.294263 224.64 
L 79.294263 217.786099 
L 77.773689 217.786099 
z
" clip-path="url(#p66fc084d86)" style="fill: #1f77b4"/>
   </g>
   <g id="patch_12">
    <path d="M 79.294263 224.64 
L 80.814837 224.64 
L 80.814837 217.296535 
L 79.294263 217.296535 
z
" clip-path="url(#p66fc084d86)" style="fill: #1f77b4"/>
   </g>
   <g id="patch_13">
    <path d="M 80.814837 224.64 
L 82.335411 224.64 
L 82.335411 212.400892 
L 80.814837 212.400892 
z
" clip-path="url(#p66fc084d86)" style="fill: #1f77b4"/>
   </g>
   <g id="patch_14">
    <path d="M 82.335411 224.64 
L 83.855985 224.64 
L 83.855985 207.994813 
L 82.335411 207.994813 
z
" clip-path="url(#p66fc084d86)" style="fill: #1f77b4"/>
   </g>
   <g id="patch_15">
    <path d="M 83.855985 224.64 
L 85.376559 224.64 
L 85.376559 212.400892 
L 83.855985 212.400892 
z
" clip-path="url(#p66fc084d86)" style="fill: #1f77b4"/>
   </g>
   <g id="patch_16">
    <path d="M 85.376559 224.64 
L 86.897133 224.64 
L 86.897133 207.505248 
L 85.376559 207.505248 
z
" clip-path="url(#p66fc084d86)" style="fill: #1f77b4"/>
   </g>
   <g id="patch_17">
    <path d="M 86.897133 224.64 
L 88.417706 224.64 
L 88.417706 209.463506 
L 86.897133 209.463506 
z
" clip-path="url(#p66fc084d86)" style="fill: #1f77b4"/>
   </g>
   <g id="patch_18">
    <path d="M 88.417706 224.64 
L 89.93828 224.64 
L 89.93828 210.932199 
L 88.417706 210.932199 
z
" clip-path="url(#p66fc084d86)" style="fill: #1f77b4"/>
   </g>
   <g id="patch_19">
    <path d="M 89.93828 224.64 
L 91.458854 224.64 
L 91.458854 207.505248 
L 89.93828 207.505248 
z
" clip-path="url(#p66fc084d86)" style="fill: #1f77b4"/>
   </g>
   <g id="patch_20">
    <path d="M 91.458854 224.64 
L 92.979428 224.64 
L 92.979428 207.994813 
L 91.458854 207.994813 
z
" clip-path="url(#p66fc084d86)" style="fill: #1f77b4"/>
   </g>
   <g id="patch_21">
    <path d="M 92.979428 224.64 
L 94.500002 224.64 
L 94.500002 206.52612 
L 92.979428 206.52612 
z
" clip-path="url(#p66fc084d86)" style="fill: #1f77b4"/>
   </g>
   <g id="patch_22">
    <path d="M 94.500002 224.64 
L 96.020576 224.64 
L 96.020576 206.036555 
L 94.500002 206.036555 
z
" clip-path="url(#p66fc084d86)" style="fill: #1f77b4"/>
   </g>
   <g id="patch_23">
    <path d="M 96.020576 224.64 
L 97.54115 224.64 
L 97.54115 205.057427 
L 96.020576 205.057427 
z
" clip-path="url(#p66fc084d86)" style="fill: #1f77b4"/>
   </g>
   <g id="patch_24">
    <path d="M 97.54115 224.64 
L 99.061724 224.64 
L 99.061724 207.994813 
L 97.54115 207.994813 
z
" clip-path="url(#p66fc084d86)" style="fill: #1f77b4"/>
   </g>
   <g id="patch_25">
    <path d="M 99.061724 224.64 
L 100.582298 224.64 
L 100.582298 201.630476 
L 99.061724 201.630476 
z
" clip-path="url(#p66fc084d86)" style="fill: #1f77b4"/>
   </g>
   <g id="patch_26">
    <path d="M 100.582298 224.64 
L 102.102872 224.64 
L 102.102872 203.099169 
L 100.582298 203.099169 
z
" clip-path="url(#p66fc084d86)" style="fill: #1f77b4"/>
   </g>
   <g id="patch_27">
    <path d="M 102.102872 224.64 
L 103.623446 224.64 
L 103.623446 204.078298 
L 102.102872 204.078298 
z
" clip-path="url(#p66fc084d86)" style="fill: #1f77b4"/>
   </g>
   <g id="patch_28">
    <path d="M 103.623446 224.64 
L 105.14402 224.64 
L 105.14402 196.245268 
L 103.623446 196.245268 
z
" clip-path="url(#p66fc084d86)" style="fill: #1f77b4"/>
   </g>
   <g id="patch_29">
    <path d="M 105.14402 224.64 
L 106.664594 224.64 
L 106.664594 198.203526 
L 105.14402 198.203526 
z
" clip-path="url(#p66fc084d86)" style="fill: #1f77b4"/>
   </g>
   <g id="patch_30">
    <path d="M 106.664594 224.64 
L 108.185168 224.64 
L 108.185168 198.69309 
L 106.664594 198.69309 
z
" clip-path="url(#p66fc084d86)" style="fill: #1f77b4"/>
   </g>
   <g id="patch_31">
    <path d="M 108.185168 224.64 
L 109.705742 224.64 
L 109.705742 200.161783 
L 108.185168 200.161783 
z
" clip-path="url(#p66fc084d86)" style="fill: #1f77b4"/>
   </g>
   <g id="patch_32">
    <path d="M 109.705742 224.64 
L 111.226316 224.64 
L 111.226316 191.839189 
L 109.705742 191.839189 
z
" clip-path="url(#p66fc084d86)" style="fill: #1f77b4"/>
   </g>
   <g id="patch_33">
    <path d="M 111.226316 224.64 
L 112.74689 224.64 
L 112.74689 194.287011 
L 111.226316 194.287011 
z
" clip-path="url(#p66fc084d86)" style="fill: #1f77b4"/>
   </g>
   <g id="patch_34">
    <path d="M 112.74689 224.64 
L 114.267464 224.64 
L 114.267464 189.391368 
L 112.74689 189.391368 
z
" clip-path="url(#p66fc084d86)" style="fill: #1f77b4"/>
   </g>
   <g id="patch_35">
    <path d="M 114.267464 224.64 
L 115.788038 224.64 
L 115.788038 191.349625 
L 114.267464 191.349625 
z
" clip-path="url(#p66fc084d86)" style="fill: #1f77b4"/>
   </g>
   <g id="patch_36">
    <path d="M 115.788038 224.64 
L 117.308612 224.64 
L 117.308612 193.307882 
L 115.788038 193.307882 
z
" clip-path="url(#p66fc084d86)" style="fill: #1f77b4"/>
   </g>
   <g id="patch_37">
    <path d="M 117.308612 224.64 
L 118.829186 224.64 
L 118.829186 193.307882 
L 117.308612 193.307882 
z
" clip-path="url(#p66fc084d86)" style="fill: #1f77b4"/>
   </g>
   <g id="patch_38">
    <path d="M 118.829186 224.64 
L 120.349759 224.64 
L 120.349759 195.755704 
L 118.829186 195.755704 
z
" clip-path="url(#p66fc084d86)" style="fill: #1f77b4"/>
   </g>
   <g id="patch_39">
    <path d="M 120.349759 224.64 
L 121.870333 224.64 
L 121.870333 185.474853 
L 120.349759 185.474853 
z
" clip-path="url(#p66fc084d86)" style="fill: #1f77b4"/>
   </g>
   <g id="patch_40">
    <path d="M 121.870333 224.64 
L 123.390907 224.64 
L 123.390907 190.860061 
L 121.870333 190.860061 
z
" clip-path="url(#p66fc084d86)" style="fill: #1f77b4"/>
   </g>
   <g id="patch_41">
    <path d="M 123.390907 224.64 
L 124.911481 224.64 
L 124.911481 184.00616 
L 123.390907 184.00616 
z
" clip-path="url(#p66fc084d86)" style="fill: #1f77b4"/>
   </g>
   <g id="patch_42">
    <path d="M 124.911481 224.64 
L 126.432055 224.64 
L 126.432055 185.474853 
L 124.911481 185.474853 
z
" clip-path="url(#p66fc084d86)" style="fill: #1f77b4"/>
   </g>
   <g id="patch_43">
    <path d="M 126.432055 224.64 
L 127.952629 224.64 
L 127.952629 189.880932 
L 126.432055 189.880932 
z
" clip-path="url(#p66fc084d86)" style="fill: #1f77b4"/>
   </g>
   <g id="patch_44">
    <path d="M 127.952629 224.64 
L 129.473203 224.64 
L 129.473203 187.43311 
L 127.952629 187.43311 
z
" clip-path="url(#p66fc084d86)" style="fill: #1f77b4"/>
   </g>
   <g id="patch_45">
    <path d="M 129.473203 224.64 
L 130.993777 224.64 
L 130.993777 179.110517 
L 129.473203 179.110517 
z
" clip-path="url(#p66fc084d86)" style="fill: #1f77b4"/>
   </g>
   <g id="patch_46">
    <path d="M 130.993777 224.64 
L 132.514351 224.64 
L 132.514351 183.027031 
L 130.993777 183.027031 
z
" clip-path="url(#p66fc084d86)" style="fill: #1f77b4"/>
   </g>
   <g id="patch_47">
    <path d="M 132.514351 224.64 
L 134.034925 224.64 
L 134.034925 179.600081 
L 132.514351 179.600081 
z
" clip-path="url(#p66fc084d86)" style="fill: #1f77b4"/>
   </g>
   <g id="patch_48">
    <path d="M 134.034925 224.64 
L 135.555499 224.64 
L 135.555499 189.391368 
L 134.034925 189.391368 
z
" clip-path="url(#p66fc084d86)" style="fill: #1f77b4"/>
   </g>
   <g id="patch_49">
    <path d="M 135.555499 224.64 
L 137.076073 224.64 
L 137.076073 178.131388 
L 135.555499 178.131388 
z
" clip-path="url(#p66fc084d86)" style="fill: #1f77b4"/>
   </g>
   <g id="patch_50">
    <path d="M 137.076073 224.64 
L 138.596647 224.64 
L 138.596647 179.110517 
L 137.076073 179.110517 
z
" clip-path="url(#p66fc084d86)" style="fill: #1f77b4"/>
   </g>
   <g id="patch_51">
    <path d="M 138.596647 224.64 
L 140.117221 224.64 
L 140.117221 166.381844 
L 138.596647 166.381844 
z
" clip-path="url(#p66fc084d86)" style="fill: #1f77b4"/>
   </g>
   <g id="patch_52">
    <path d="M 140.117221 224.64 
L 141.637795 224.64 
L 141.637795 177.641824 
L 140.117221 177.641824 
z
" clip-path="url(#p66fc084d86)" style="fill: #1f77b4"/>
   </g>
   <g id="patch_53">
    <path d="M 141.637795 224.64 
L 143.158369 224.64 
L 143.158369 177.152259 
L 141.637795 177.152259 
z
" clip-path="url(#p66fc084d86)" style="fill: #1f77b4"/>
   </g>
   <g id="patch_54">
    <path d="M 143.158369 224.64 
L 144.678943 224.64 
L 144.678943 165.402715 
L 143.158369 165.402715 
z
" clip-path="url(#p66fc084d86)" style="fill: #1f77b4"/>
   </g>
   <g id="patch_55">
    <path d="M 144.678943 224.64 
L 146.199517 224.64 
L 146.199517 174.214873 
L 144.678943 174.214873 
z
" clip-path="url(#p66fc084d86)" style="fill: #1f77b4"/>
   </g>
   <g id="patch_56">
    <path d="M 146.199517 224.64 
L 147.720091 224.64 
L 147.720091 172.74618 
L 146.199517 172.74618 
z
" clip-path="url(#p66fc084d86)" style="fill: #1f77b4"/>
   </g>
   <g id="patch_57">
    <path d="M 147.720091 224.64 
L 149.240665 224.64 
L 149.240665 169.31923 
L 147.720091 169.31923 
z
" clip-path="url(#p66fc084d86)" style="fill: #1f77b4"/>
   </g>
   <g id="patch_58">
    <path d="M 149.240665 224.64 
L 150.761239 224.64 
L 150.761239 171.277487 
L 149.240665 171.277487 
z
" clip-path="url(#p66fc084d86)" style="fill: #1f77b4"/>
   </g>
   <g id="patch_59">
    <path d="M 150.761239 224.64 
L 152.281812 224.64 
L 152.281812 167.850537 
L 150.761239 167.850537 
z
" clip-path="url(#p66fc084d86)" style="fill: #1f77b4"/>
   </g>
   <g id="patch_60">
    <path d="M 152.281812 224.64 
L 153.802386 224.64 
L 153.802386 172.74618 
L 152.281812 172.74618 
z
" clip-path="url(#p66fc084d86)" style="fill: #1f77b4"/>
   </g>
   <g id="patch_61">
    <path d="M 153.802386 224.64 
L 155.32296 224.64 
L 155.32296 170.298359 
L 153.802386 170.298359 
z
" clip-path="url(#p66fc084d86)" style="fill: #1f77b4"/>
   </g>
   <g id="patch_62">
    <path d="M 155.32296 224.64 
L 156.843534 224.64 
L 156.843534 166.871408 
L 155.32296 166.871408 
z
" clip-path="url(#p66fc084d86)" style="fill: #1f77b4"/>
   </g>
   <g id="patch_63">
    <path d="M 156.843534 224.64 
L 158.364108 224.64 
L 158.364108 168.340101 
L 156.843534 168.340101 
z
" clip-path="url(#p66fc084d86)" style="fill: #1f77b4"/>
   </g>
   <g id="patch_64">
    <path d="M 158.364108 224.64 
L 159.884682 224.64 
L 159.884682 170.298359 
L 158.364108 170.298359 
z
" clip-path="url(#p66fc084d86)" style="fill: #1f77b4"/>
   </g>
   <g id="patch_65">
    <path d="M 159.884682 224.64 
L 161.405256 224.64 
L 161.405256 155.611429 
L 159.884682 155.611429 
z
" clip-path="url(#p66fc084d86)" style="fill: #1f77b4"/>
   </g>
   <g id="patch_66">
    <path d="M 161.405256 224.64 
L 162.92583 224.64 
L 162.92583 162.954894 
L 161.405256 162.954894 
z
" clip-path="url(#p66fc084d86)" style="fill: #1f77b4"/>
   </g>
   <g id="patch_67">
    <path d="M 162.92583 224.64 
L 164.446404 224.64 
L 164.446404 154.6323 
L 162.92583 154.6323 
z
" clip-path="url(#p66fc084d86)" style="fill: #1f77b4"/>
   </g>
   <g id="patch_68">
    <path d="M 164.446404 224.64 
L 165.966978 224.64 
L 165.966978 161.975765 
L 164.446404 161.975765 
z
" clip-path="url(#p66fc084d86)" style="fill: #1f77b4"/>
   </g>
   <g id="patch_69">
    <path d="M 165.966978 224.64 
L 167.487552 224.64 
L 167.487552 158.548815 
L 165.966978 158.548815 
z
" clip-path="url(#p66fc084d86)" style="fill: #1f77b4"/>
   </g>
   <g id="patch_70">
    <path d="M 167.487552 224.64 
L 169.008126 224.64 
L 169.008126 148.757528 
L 167.487552 148.757528 
z
" clip-path="url(#p66fc084d86)" style="fill: #1f77b4"/>
   </g>
   <g id="patch_71">
    <path d="M 169.008126 224.64 
L 170.5287 224.64 
L 170.5287 160.996636 
L 169.008126 160.996636 
z
" clip-path="url(#p66fc084d86)" style="fill: #1f77b4"/>
   </g>
   <g id="patch_72">
    <path d="M 170.5287 224.64 
L 172.049274 224.64 
L 172.049274 165.89228 
L 170.5287 165.89228 
z
" clip-path="url(#p66fc084d86)" style="fill: #1f77b4"/>
   </g>
   <g id="patch_73">
    <path d="M 172.049274 224.64 
L 173.569848 224.64 
L 173.569848 161.975765 
L 172.049274 161.975765 
z
" clip-path="url(#p66fc084d86)" style="fill: #1f77b4"/>
   </g>
   <g id="patch_74">
    <path d="M 173.569848 224.64 
L 175.090422 224.64 
L 175.090422 160.507072 
L 173.569848 160.507072 
z
" clip-path="url(#p66fc084d86)" style="fill: #1f77b4"/>
   </g>
   <g id="patch_75">
    <path d="M 175.090422 224.64 
L 176.610996 224.64 
L 176.610996 144.841013 
L 175.090422 144.841013 
z
" clip-path="url(#p66fc084d86)" style="fill: #1f77b4"/>
   </g>
   <g id="patch_76">
    <path d="M 176.610996 224.64 
L 178.13157 224.64 
L 178.13157 160.017508 
L 176.610996 160.017508 
z
" clip-path="url(#p66fc084d86)" style="fill: #1f77b4"/>
   </g>
   <g id="patch_77">
    <path d="M 178.13157 224.64 
L 179.652144 224.64 
L 179.652144 144.351449 
L 178.13157 144.351449 
z
" clip-path="url(#p66fc084d86)" style="fill: #1f77b4"/>
   </g>
   <g id="patch_78">
    <path d="M 179.652144 224.64 
L 181.172718 224.64 
L 181.172718 139.94537 
L 179.652144 139.94537 
z
" clip-path="url(#p66fc084d86)" style="fill: #1f77b4"/>
   </g>
   <g id="patch_79">
    <path d="M 181.172718 224.64 
L 182.693292 224.64 
L 182.693292 148.267964 
L 181.172718 148.267964 
z
" clip-path="url(#p66fc084d86)" style="fill: #1f77b4"/>
   </g>
   <g id="patch_80">
    <path d="M 182.693292 224.64 
L 184.213865 224.64 
L 184.213865 141.903627 
L 182.693292 141.903627 
z
" clip-path="url(#p66fc084d86)" style="fill: #1f77b4"/>
   </g>
   <g id="patch_81">
    <path d="M 184.213865 224.64 
L 185.734439 224.64 
L 185.734439 141.414063 
L 184.213865 141.414063 
z
" clip-path="url(#p66fc084d86)" style="fill: #1f77b4"/>
   </g>
   <g id="patch_82">
    <path d="M 185.734439 224.64 
L 187.255013 224.64 
L 187.255013 144.841013 
L 185.734439 144.841013 
z
" clip-path="url(#p66fc084d86)" style="fill: #1f77b4"/>
   </g>
   <g id="patch_83">
    <path d="M 187.255013 224.64 
L 188.775587 224.64 
L 188.775587 151.694914 
L 187.255013 151.694914 
z
" clip-path="url(#p66fc084d86)" style="fill: #1f77b4"/>
   </g>
   <g id="patch_84">
    <path d="M 188.775587 224.64 
L 190.296161 224.64 
L 190.296161 152.184478 
L 188.775587 152.184478 
z
" clip-path="url(#p66fc084d86)" style="fill: #1f77b4"/>
   </g>
   <g id="patch_85">
    <path d="M 190.296161 224.64 
L 191.816735 224.64 
L 191.816735 147.288835 
L 190.296161 147.288835 
z
" clip-path="url(#p66fc084d86)" style="fill: #1f77b4"/>
   </g>
   <g id="patch_86">
    <path d="M 191.816735 224.64 
L 193.337309 224.64 
L 193.337309 142.882756 
L 191.816735 142.882756 
z
" clip-path="url(#p66fc084d86)" style="fill: #1f77b4"/>
   </g>
   <g id="patch_87">
    <path d="M 193.337309 224.64 
L 194.857883 224.64 
L 194.857883 144.351449 
L 193.337309 144.351449 
z
" clip-path="url(#p66fc084d86)" style="fill: #1f77b4"/>
   </g>
   <g id="patch_88">
    <path d="M 194.857883 224.64 
L 196.378457 224.64 
L 196.378457 142.882756 
L 194.857883 142.882756 
z
" clip-path="url(#p66fc084d86)" style="fill: #1f77b4"/>
   </g>
   <g id="patch_89">
    <path d="M 196.378457 224.64 
L 197.899031 224.64 
L 197.899031 133.581033 
L 196.378457 133.581033 
z
" clip-path="url(#p66fc084d86)" style="fill: #1f77b4"/>
   </g>
   <g id="patch_90">
    <path d="M 197.899031 224.64 
L 199.419605 224.64 
L 199.419605 129.174954 
L 197.899031 129.174954 
z
" clip-path="url(#p66fc084d86)" style="fill: #1f77b4"/>
   </g>
   <g id="patch_91">
    <path d="M 199.419605 224.64 
L 200.940179 224.64 
L 200.940179 140.434934 
L 199.419605 140.434934 
z
" clip-path="url(#p66fc084d86)" style="fill: #1f77b4"/>
   </g>
   <g id="patch_92">
    <path d="M 200.940179 224.64 
L 202.460753 224.64 
L 202.460753 137.497548 
L 200.940179 137.497548 
z
" clip-path="url(#p66fc084d86)" style="fill: #1f77b4"/>
   </g>
   <g id="patch_93">
    <path d="M 202.460753 224.64 
L 203.981327 224.64 
L 203.981327 144.841013 
L 202.460753 144.841013 
z
" clip-path="url(#p66fc084d86)" style="fill: #1f77b4"/>
   </g>
   <g id="patch_94">
    <path d="M 203.981327 224.64 
L 205.501901 224.64 
L 205.501901 148.757528 
L 203.981327 148.757528 
z
" clip-path="url(#p66fc084d86)" style="fill: #1f77b4"/>
   </g>
   <g id="patch_95">
    <path d="M 205.501901 224.64 
L 207.022475 224.64 
L 207.022475 134.560162 
L 205.501901 134.560162 
z
" clip-path="url(#p66fc084d86)" style="fill: #1f77b4"/>
   </g>
   <g id="patch_96">
    <path d="M 207.022475 224.64 
L 208.543049 224.64 
L 208.543049 124.768875 
L 207.022475 124.768875 
z
" clip-path="url(#p66fc084d86)" style="fill: #1f77b4"/>
   </g>
   <g id="patch_97">
    <path d="M 208.543049 224.64 
L 210.063623 224.64 
L 210.063623 147.778399 
L 208.543049 147.778399 
z
" clip-path="url(#p66fc084d86)" style="fill: #1f77b4"/>
   </g>
   <g id="patch_98">
    <path d="M 210.063623 224.64 
L 211.584197 224.64 
L 211.584197 126.727133 
L 210.063623 126.727133 
z
" clip-path="url(#p66fc084d86)" style="fill: #1f77b4"/>
   </g>
   <g id="patch_99">
    <path d="M 211.584197 224.64 
L 213.104771 224.64 
L 213.104771 128.195826 
L 211.584197 128.195826 
z
" clip-path="url(#p66fc084d86)" style="fill: #1f77b4"/>
   </g>
   <g id="patch_100">
    <path d="M 213.104771 224.64 
L 214.625345 224.64 
L 214.625345 137.007984 
L 213.104771 137.007984 
z
" clip-path="url(#p66fc084d86)" style="fill: #1f77b4"/>
   </g>
   <g id="patch_101">
    <path d="M 214.625345 224.64 
L 216.145918 224.64 
L 216.145918 121.831489 
L 214.625345 121.831489 
z
" clip-path="url(#p66fc084d86)" style="fill: #1f77b4"/>
   </g>
   <g id="patch_102">
    <path d="M 216.145918 224.64 
L 217.666492 224.64 
L 217.666492 126.237568 
L 216.145918 126.237568 
z
" clip-path="url(#p66fc084d86)" style="fill: #1f77b4"/>
   </g>
   <g id="patch_103">
    <path d="M 217.666492 224.64 
L 219.187066 224.64 
L 219.187066 121.341925 
L 217.666492 121.341925 
z
" clip-path="url(#p66fc084d86)" style="fill: #1f77b4"/>
   </g>
   <g id="patch_104">
    <path d="M 219.187066 224.64 
L 220.70764 224.64 
L 220.70764 139.455805 
L 219.187066 139.455805 
z
" clip-path="url(#p66fc084d86)" style="fill: #1f77b4"/>
   </g>
   <g id="patch_105">
    <path d="M 220.70764 224.64 
L 222.228214 224.64 
L 222.228214 126.727133 
L 220.70764 126.727133 
z
" clip-path="url(#p66fc084d86)" style="fill: #1f77b4"/>
   </g>
   <g id="patch_106">
    <path d="M 222.228214 224.64 
L 223.748788 224.64 
L 223.748788 126.237568 
L 222.228214 126.237568 
z
" clip-path="url(#p66fc084d86)" style="fill: #1f77b4"/>
   </g>
   <g id="patch_107">
    <path d="M 223.748788 224.64 
L 225.269362 224.64 
L 225.269362 115.956717 
L 223.748788 115.956717 
z
" clip-path="url(#p66fc084d86)" style="fill: #1f77b4"/>
   </g>
   <g id="patch_108">
    <path d="M 225.269362 224.64 
L 226.789936 224.64 
L 226.789936 132.11234 
L 225.269362 132.11234 
z
" clip-path="url(#p66fc084d86)" style="fill: #1f77b4"/>
   </g>
   <g id="patch_109">
    <path d="M 226.789936 224.64 
L 228.31051 224.64 
L 228.31051 111.061074 
L 226.789936 111.061074 
z
" clip-path="url(#p66fc084d86)" style="fill: #1f77b4"/>
   </g>
   <g id="patch_110">
    <path d="M 228.31051 224.64 
L 229.831084 224.64 
L 229.831084 121.831489 
L 228.31051 121.831489 
z
" clip-path="url(#p66fc084d86)" style="fill: #1f77b4"/>
   </g>
   <g id="patch_111">
    <path d="M 229.831084 224.64 
L 231.351658 224.64 
L 231.351658 124.279311 
L 229.831084 124.279311 
z
" clip-path="url(#p66fc084d86)" style="fill: #1f77b4"/>
   </g>
   <g id="patch_112">
    <path d="M 231.351658 224.64 
L 232.872232 224.64 
L 232.872232 108.613252 
L 231.351658 108.613252 
z
" clip-path="url(#p66fc084d86)" style="fill: #1f77b4"/>
   </g>
   <g id="patch_113">
    <path d="M 232.872232 224.64 
L 234.392806 224.64 
L 234.392806 115.467153 
L 232.872232 115.467153 
z
" clip-path="url(#p66fc084d86)" style="fill: #1f77b4"/>
   </g>
   <g id="patch_114">
    <path d="M 234.392806 224.64 
L 235.91338 224.64 
L 235.91338 113.508896 
L 234.392806 113.508896 
z
" clip-path="url(#p66fc084d86)" style="fill: #1f77b4"/>
   </g>
   <g id="patch_115">
    <path d="M 235.91338 224.64 
L 237.433954 224.64 
L 237.433954 116.446282 
L 235.91338 116.446282 
z
" clip-path="url(#p66fc084d86)" style="fill: #1f77b4"/>
   </g>
   <g id="patch_116">
    <path d="M 237.433954 224.64 
L 238.954528 224.64 
L 238.954528 118.894103 
L 237.433954 118.894103 
z
" clip-path="url(#p66fc084d86)" style="fill: #1f77b4"/>
   </g>
   <g id="patch_117">
    <path d="M 238.954528 224.64 
L 240.475102 224.64 
L 240.475102 106.654995 
L 238.954528 106.654995 
z
" clip-path="url(#p66fc084d86)" style="fill: #1f77b4"/>
   </g>
   <g id="patch_118">
    <path d="M 240.475102 224.64 
L 241.995676 224.64 
L 241.995676 121.341925 
L 240.475102 121.341925 
z
" clip-path="url(#p66fc084d86)" style="fill: #1f77b4"/>
   </g>
   <g id="patch_119">
    <path d="M 241.995676 224.64 
L 243.51625 224.64 
L 243.51625 113.99846 
L 241.995676 113.99846 
z
" clip-path="url(#p66fc084d86)" style="fill: #1f77b4"/>
   </g>
   <g id="patch_120">
    <path d="M 243.51625 224.64 
L 245.036824 224.64 
L 245.036824 121.341925 
L 243.51625 121.341925 
z
" clip-path="url(#p66fc084d86)" style="fill: #1f77b4"/>
   </g>
   <g id="patch_121">
    <path d="M 245.036824 224.64 
L 246.557398 224.64 
L 246.557398 111.061074 
L 245.036824 111.061074 
z
" clip-path="url(#p66fc084d86)" style="fill: #1f77b4"/>
   </g>
   <g id="patch_122">
    <path d="M 246.557398 224.64 
L 248.077971 224.64 
L 248.077971 100.780223 
L 246.557398 100.780223 
z
" clip-path="url(#p66fc084d86)" style="fill: #1f77b4"/>
   </g>
   <g id="patch_123">
    <path d="M 248.077971 224.64 
L 249.598545 224.64 
L 249.598545 107.144559 
L 248.077971 107.144559 
z
" clip-path="url(#p66fc084d86)" style="fill: #1f77b4"/>
   </g>
   <g id="patch_124">
    <path d="M 249.598545 224.64 
L 251.119119 224.64 
L 251.119119 99.31153 
L 249.598545 99.31153 
z
" clip-path="url(#p66fc084d86)" style="fill: #1f77b4"/>
   </g>
   <g id="patch_125">
    <path d="M 251.119119 224.64 
L 252.639693 224.64 
L 252.639693 105.675866 
L 251.119119 105.675866 
z
" clip-path="url(#p66fc084d86)" style="fill: #1f77b4"/>
   </g>
   <g id="patch_126">
    <path d="M 252.639693 224.64 
L 254.160267 224.64 
L 254.160267 93.436758 
L 252.639693 93.436758 
z
" clip-path="url(#p66fc084d86)" style="fill: #1f77b4"/>
   </g>
   <g id="patch_127">
    <path d="M 254.160267 224.64 
L 255.680841 224.64 
L 255.680841 100.780223 
L 254.160267 100.780223 
z
" clip-path="url(#p66fc084d86)" style="fill: #1f77b4"/>
   </g>
   <g id="patch_128">
    <path d="M 255.680841 224.64 
L 257.201415 224.64 
L 257.201415 105.186302 
L 255.680841 105.186302 
z
" clip-path="url(#p66fc084d86)" style="fill: #1f77b4"/>
   </g>
   <g id="patch_129">
    <path d="M 257.201415 224.64 
L 258.721989 224.64 
L 258.721989 91.968065 
L 257.201415 91.968065 
z
" clip-path="url(#p66fc084d86)" style="fill: #1f77b4"/>
   </g>
   <g id="patch_130">
    <path d="M 258.721989 224.64 
L 260.242563 224.64 
L 260.242563 87.561986 
L 258.721989 87.561986 
z
" clip-path="url(#p66fc084d86)" style="fill: #1f77b4"/>
   </g>
   <g id="patch_131">
    <path d="M 260.242563 224.64 
L 261.763137 224.64 
L 261.763137 98.821966 
L 260.242563 98.821966 
z
" clip-path="url(#p66fc084d86)" style="fill: #1f77b4"/>
   </g>
   <g id="patch_132">
    <path d="M 261.763137 224.64 
L 263.283711 224.64 
L 263.283711 86.582857 
L 261.763137 86.582857 
z
" clip-path="url(#p66fc084d86)" style="fill: #1f77b4"/>
   </g>
   <g id="patch_133">
    <path d="M 263.283711 224.64 
L 264.804285 224.64 
L 264.804285 93.436758 
L 263.283711 93.436758 
z
" clip-path="url(#p66fc084d86)" style="fill: #1f77b4"/>
   </g>
   <g id="patch_134">
    <path d="M 264.804285 224.64 
L 266.324859 224.64 
L 266.324859 86.093293 
L 264.804285 86.093293 
z
" clip-path="url(#p66fc084d86)" style="fill: #1f77b4"/>
   </g>
   <g id="patch_135">
    <path d="M 266.324859 224.64 
L 267.845433 224.64 
L 267.845433 83.155907 
L 266.324859 83.155907 
z
" clip-path="url(#p66fc084d86)" style="fill: #1f77b4"/>
   </g>
   <g id="patch_136">
    <path d="M 267.845433 224.64 
L 269.366007 224.64 
L 269.366007 102.73848 
L 267.845433 102.73848 
z
" clip-path="url(#p66fc084d86)" style="fill: #1f77b4"/>
   </g>
   <g id="patch_137">
    <path d="M 269.366007 224.64 
L 270.886581 224.64 
L 270.886581 97.353273 
L 269.366007 97.353273 
z
" clip-path="url(#p66fc084d86)" style="fill: #1f77b4"/>
   </g>
   <g id="patch_138">
    <path d="M 270.886581 224.64 
L 272.407155 224.64 
L 272.407155 94.415887 
L 270.886581 94.415887 
z
" clip-path="url(#p66fc084d86)" style="fill: #1f77b4"/>
   </g>
   <g id="patch_139">
    <path d="M 272.407155 224.64 
L 273.927729 224.64 
L 273.927729 85.114164 
L 272.407155 85.114164 
z
" clip-path="url(#p66fc084d86)" style="fill: #1f77b4"/>
   </g>
   <g id="patch_140">
    <path d="M 273.927729 224.64 
L 275.448303 224.64 
L 275.448303 84.6246 
L 273.927729 84.6246 
z
" clip-path="url(#p66fc084d86)" style="fill: #1f77b4"/>
   </g>
   <g id="patch_141">
    <path d="M 275.448303 224.64 
L 276.968877 224.64 
L 276.968877 87.561986 
L 275.448303 87.561986 
z
" clip-path="url(#p66fc084d86)" style="fill: #1f77b4"/>
   </g>
   <g id="patch_142">
    <path d="M 276.968877 224.64 
L 278.489451 224.64 
L 278.489451 89.520243 
L 276.968877 89.520243 
z
" clip-path="url(#p66fc084d86)" style="fill: #1f77b4"/>
   </g>
   <g id="patch_143">
    <path d="M 278.489451 224.64 
L 280.010024 224.64 
L 280.010024 96.863708 
L 278.489451 96.863708 
z
" clip-path="url(#p66fc084d86)" style="fill: #1f77b4"/>
   </g>
   <g id="patch_144">
    <path d="M 280.010024 224.64 
L 281.530598 224.64 
L 281.530598 83.645471 
L 280.010024 83.645471 
z
" clip-path="url(#p66fc084d86)" style="fill: #1f77b4"/>
   </g>
   <g id="patch_145">
    <path d="M 281.530598 224.64 
L 283.051172 224.64 
L 283.051172 89.520243 
L 281.530598 89.520243 
z
" clip-path="url(#p66fc084d86)" style="fill: #1f77b4"/>
   </g>
   <g id="patch_146">
    <path d="M 283.051172 224.64 
L 284.571746 224.64 
L 284.571746 78.260263 
L 283.051172 78.260263 
z
" clip-path="url(#p66fc084d86)" style="fill: #1f77b4"/>
   </g>
   <g id="patch_147">
    <path d="M 284.571746 224.64 
L 286.09232 224.64 
L 286.09232 72.385491 
L 284.571746 72.385491 
z
" clip-path="url(#p66fc084d86)" style="fill: #1f77b4"/>
   </g>
   <g id="patch_148">
    <path d="M 286.09232 224.64 
L 287.612894 224.64 
L 287.612894 72.385491 
L 286.09232 72.385491 
z
" clip-path="url(#p66fc084d86)" style="fill: #1f77b4"/>
   </g>
   <g id="patch_149">
    <path d="M 287.612894 224.64 
L 289.133468 224.64 
L 289.133468 74.833313 
L 287.612894 74.833313 
z
" clip-path="url(#p66fc084d86)" style="fill: #1f77b4"/>
   </g>
   <g id="patch_150">
    <path d="M 289.133468 224.64 
L 290.654042 224.64 
L 290.654042 75.812442 
L 289.133468 75.812442 
z
" clip-path="url(#p66fc084d86)" style="fill: #1f77b4"/>
   </g>
   <g id="patch_151">
    <path d="M 290.654042 224.64 
L 292.174616 224.64 
L 292.174616 72.875056 
L 290.654042 72.875056 
z
" clip-path="url(#p66fc084d86)" style="fill: #1f77b4"/>
   </g>
   <g id="patch_152">
    <path d="M 292.174616 224.64 
L 293.69519 224.64 
L 293.69519 82.176778 
L 292.174616 82.176778 
z
" clip-path="url(#p66fc084d86)" style="fill: #1f77b4"/>
   </g>
   <g id="patch_153">
    <path d="M 293.69519 224.64 
L 295.215764 224.64 
L 295.215764 69.93767 
L 293.69519 69.93767 
z
" clip-path="url(#p66fc084d86)" style="fill: #1f77b4"/>
   </g>
   <g id="patch_154">
    <path d="M 295.215764 224.64 
L 296.736338 224.64 
L 296.736338 87.561986 
L 295.215764 87.561986 
z
" clip-path="url(#p66fc084d86)" style="fill: #1f77b4"/>
   </g>
   <g id="patch_155">
    <path d="M 296.736338 224.64 
L 298.256912 224.64 
L 298.256912 81.687214 
L 296.736338 81.687214 
z
" clip-path="url(#p66fc084d86)" style="fill: #1f77b4"/>
   </g>
   <g id="patch_156">
    <path d="M 298.256912 224.64 
L 299.777486 224.64 
L 299.777486 80.218521 
L 298.256912 80.218521 
z
" clip-path="url(#p66fc084d86)" style="fill: #1f77b4"/>
   </g>
   <g id="patch_157">
    <path d="M 299.777486 224.64 
L 301.29806 224.64 
L 301.29806 84.6246 
L 299.777486 84.6246 
z
" clip-path="url(#p66fc084d86)" style="fill: #1f77b4"/>
   </g>
   <g id="patch_158">
    <path d="M 301.29806 224.64 
L 302.818634 224.64 
L 302.818634 67.979412 
L 301.29806 67.979412 
z
" clip-path="url(#p66fc084d86)" style="fill: #1f77b4"/>
   </g>
   <g id="patch_159">
    <path d="M 302.818634 224.64 
L 304.339208 224.64 
L 304.339208 62.10464 
L 302.818634 62.10464 
z
" clip-path="url(#p66fc084d86)" style="fill: #1f77b4"/>
   </g>
   <g id="patch_160">
    <path d="M 304.339208 224.64 
L 305.859782 224.64 
L 305.859782 73.36462 
L 304.339208 73.36462 
z
" clip-path="url(#p66fc084d86)" style="fill: #1f77b4"/>
   </g>
   <g id="patch_161">
    <path d="M 305.859782 224.64 
L 307.380356 224.64 
L 307.380356 76.79157 
L 305.859782 76.79157 
z
" clip-path="url(#p66fc084d86)" style="fill: #1f77b4"/>
   </g>
   <g id="patch_162">
    <path d="M 307.380356 224.64 
L 308.90093 224.64 
L 308.90093 69.448105 
L 307.380356 69.448105 
z
" clip-path="url(#p66fc084d86)" style="fill: #1f77b4"/>
   </g>
   <g id="patch_163">
    <path d="M 308.90093 224.64 
L 310.421504 224.64 
L 310.421504 59.656819 
L 308.90093 59.656819 
z
" clip-path="url(#p66fc084d86)" style="fill: #1f77b4"/>
   </g>
   <g id="patch_164">
    <path d="M 310.421504 224.64 
L 311.942077 224.64 
L 311.942077 75.322877 
L 310.421504 75.322877 
z
" clip-path="url(#p66fc084d86)" style="fill: #1f77b4"/>
   </g>
   <g id="patch_165">
    <path d="M 311.942077 224.64 
L 313.462651 224.64 
L 313.462651 59.167254 
L 311.942077 59.167254 
z
" clip-path="url(#p66fc084d86)" style="fill: #1f77b4"/>
   </g>
   <g id="patch_166">
    <path d="M 313.462651 224.64 
L 314.983225 224.64 
L 314.983225 58.188126 
L 313.462651 58.188126 
z
" clip-path="url(#p66fc084d86)" style="fill: #1f77b4"/>
   </g>
   <g id="patch_167">
    <path d="M 314.983225 224.64 
L 316.503799 224.64 
L 316.503799 43.501196 
L 314.983225 43.501196 
z
" clip-path="url(#p66fc084d86)" style="fill: #1f77b4"/>
   </g>
   <g id="patch_168">
    <path d="M 316.503799 224.64 
L 318.024373 224.64 
L 318.024373 76.79157 
L 316.503799 76.79157 
z
" clip-path="url(#p66fc084d86)" style="fill: #1f77b4"/>
   </g>
   <g id="patch_169">
    <path d="M 318.024373 224.64 
L 319.544947 224.64 
L 319.544947 74.833313 
L 318.024373 74.833313 
z
" clip-path="url(#p66fc084d86)" style="fill: #1f77b4"/>
   </g>
   <g id="patch_170">
    <path d="M 319.544947 224.64 
L 321.065521 224.64 
L 321.065521 64.062898 
L 319.544947 64.062898 
z
" clip-path="url(#p66fc084d86)" style="fill: #1f77b4"/>
   </g>
   <g id="patch_171">
    <path d="M 321.065521 224.64 
L 322.586095 224.64 
L 322.586095 56.719433 
L 321.065521 56.719433 
z
" clip-path="url(#p66fc084d86)" style="fill: #1f77b4"/>
   </g>
   <g id="patch_172">
    <path d="M 322.586095 224.64 
L 324.106669 224.64 
L 324.106669 63.083769 
L 322.586095 63.083769 
z
" clip-path="url(#p66fc084d86)" style="fill: #1f77b4"/>
   </g>
   <g id="patch_173">
    <path d="M 324.106669 224.64 
L 325.627243 224.64 
L 325.627243 56.719433 
L 324.106669 56.719433 
z
" clip-path="url(#p66fc084d86)" style="fill: #1f77b4"/>
   </g>
   <g id="patch_174">
    <path d="M 325.627243 224.64 
L 327.147817 224.64 
L 327.147817 58.188126 
L 325.627243 58.188126 
z
" clip-path="url(#p66fc084d86)" style="fill: #1f77b4"/>
   </g>
   <g id="patch_175">
    <path d="M 327.147817 224.64 
L 328.668391 224.64 
L 328.668391 60.146383 
L 327.147817 60.146383 
z
" clip-path="url(#p66fc084d86)" style="fill: #1f77b4"/>
   </g>
   <g id="patch_176">
    <path d="M 328.668391 224.64 
L 330.188965 224.64 
L 330.188965 46.928146 
L 328.668391 46.928146 
z
" clip-path="url(#p66fc084d86)" style="fill: #1f77b4"/>
   </g>
   <g id="patch_177">
    <path d="M 330.188965 224.64 
L 331.709539 224.64 
L 331.709539 58.188126 
L 330.188965 58.188126 
z
" clip-path="url(#p66fc084d86)" style="fill: #1f77b4"/>
   </g>
   <g id="patch_178">
    <path d="M 331.709539 224.64 
L 333.230113 224.64 
L 333.230113 54.761175 
L 331.709539 54.761175 
z
" clip-path="url(#p66fc084d86)" style="fill: #1f77b4"/>
   </g>
   <g id="patch_179">
    <path d="M 333.230113 224.64 
L 334.750687 224.64 
L 334.750687 60.635947 
L 333.230113 60.635947 
z
" clip-path="url(#p66fc084d86)" style="fill: #1f77b4"/>
   </g>
   <g id="patch_180">
    <path d="M 334.750687 224.64 
L 336.271261 224.64 
L 336.271261 44.969889 
L 334.750687 44.969889 
z
" clip-path="url(#p66fc084d86)" style="fill: #1f77b4"/>
   </g>
   <g id="patch_181">
    <path d="M 336.271261 224.64 
L 337.791835 224.64 
L 337.791835 57.698561 
L 336.271261 57.698561 
z
" clip-path="url(#p66fc084d86)" style="fill: #1f77b4"/>
   </g>
   <g id="patch_182">
    <path d="M 337.791835 224.64 
L 339.312409 224.64 
L 339.312409 51.334225 
L 337.791835 51.334225 
z
" clip-path="url(#p66fc084d86)" style="fill: #1f77b4"/>
   </g>
   <g id="patch_183">
    <path d="M 339.312409 224.64 
L 340.832983 224.64 
L 340.832983 45.949017 
L 339.312409 45.949017 
z
" clip-path="url(#p66fc084d86)" style="fill: #1f77b4"/>
   </g>
   <g id="patch_184">
    <path d="M 340.832983 224.64 
L 342.353556 224.64 
L 342.353556 48.396839 
L 340.832983 48.396839 
z
" clip-path="url(#p66fc084d86)" style="fill: #1f77b4"/>
   </g>
   <g id="patch_185">
    <path d="M 342.353556 224.64 
L 343.87413 224.64 
L 343.87413 59.656819 
L 342.353556 59.656819 
z
" clip-path="url(#p66fc084d86)" style="fill: #1f77b4"/>
   </g>
   <g id="patch_186">
    <path d="M 343.87413 224.64 
L 345.394704 224.64 
L 345.394704 61.125512 
L 343.87413 61.125512 
z
" clip-path="url(#p66fc084d86)" style="fill: #1f77b4"/>
   </g>
   <g id="patch_187">
    <path d="M 345.394704 224.64 
L 346.915278 224.64 
L 346.915278 41.053374 
L 345.394704 41.053374 
z
" clip-path="url(#p66fc084d86)" style="fill: #1f77b4"/>
   </g>
   <g id="patch_188">
    <path d="M 346.915278 224.64 
L 348.435852 224.64 
L 348.435852 26.856008 
L 346.915278 26.856008 
z
" clip-path="url(#p66fc084d86)" style="fill: #1f77b4"/>
   </g>
   <g id="patch_189">
    <path d="M 348.435852 224.64 
L 349.956426 224.64 
L 349.956426 49.375968 
L 348.435852 49.375968 
z
" clip-path="url(#p66fc084d86)" style="fill: #1f77b4"/>
   </g>
   <g id="patch_190">
    <path d="M 349.956426 224.64 
L 351.477 224.64 
L 351.477 49.375968 
L 349.956426 49.375968 
z
" clip-path="url(#p66fc084d86)" style="fill: #1f77b4"/>
   </g>
   <g id="patch_191">
    <path d="M 351.477 224.64 
L 352.997574 224.64 
L 352.997574 33.709909 
L 351.477 33.709909 
z
" clip-path="url(#p66fc084d86)" style="fill: #1f77b4"/>
   </g>
   <g id="patch_192">
    <path d="M 352.997574 224.64 
L 354.518148 224.64 
L 354.518148 43.99076 
L 352.997574 43.99076 
z
" clip-path="url(#p66fc084d86)" style="fill: #1f77b4"/>
   </g>
   <g id="patch_193">
    <path d="M 354.518148 224.64 
L 356.038722 224.64 
L 356.038722 46.438582 
L 354.518148 46.438582 
z
" clip-path="url(#p66fc084d86)" style="fill: #1f77b4"/>
   </g>
   <g id="patch_194">
    <path d="M 356.038722 224.64 
L 357.559296 224.64 
L 357.559296 27.835137 
L 356.038722 27.835137 
z
" clip-path="url(#p66fc084d86)" style="fill: #1f77b4"/>
   </g>
   <g id="patch_195">
    <path d="M 357.559296 224.64 
L 359.07987 224.64 
L 359.07987 38.605552 
L 357.559296 38.605552 
z
" clip-path="url(#p66fc084d86)" style="fill: #1f77b4"/>
   </g>
   <g id="patch_196">
    <path d="M 359.07987 224.64 
L 360.600444 224.64 
L 360.600444 49.865532 
L 359.07987 49.865532 
z
" clip-path="url(#p66fc084d86)" style="fill: #1f77b4"/>
   </g>
   <g id="patch_197">
    <path d="M 360.600444 224.64 
L 362.121018 224.64 
L 362.121018 49.375968 
L 360.600444 49.375968 
z
" clip-path="url(#p66fc084d86)" style="fill: #1f77b4"/>
   </g>
   <g id="patch_198">
    <path d="M 362.121018 224.64 
L 363.641592 224.64 
L 363.641592 26.856008 
L 362.121018 26.856008 
z
" clip-path="url(#p66fc084d86)" style="fill: #1f77b4"/>
   </g>
   <g id="patch_199">
    <path d="M 363.641592 224.64 
L 365.162166 224.64 
L 365.162166 26.856008 
L 363.641592 26.856008 
z
" clip-path="url(#p66fc084d86)" style="fill: #1f77b4"/>
   </g>
   <g id="patch_200">
    <path d="M 365.162166 224.64 
L 366.68274 224.64 
L 366.68274 23.918622 
L 365.162166 23.918622 
z
" clip-path="url(#p66fc084d86)" style="fill: #1f77b4"/>
   </g>
   <g id="patch_201">
    <path d="M 366.68274 224.64 
L 368.203314 224.64 
L 368.203314 21.960365 
L 366.68274 21.960365 
z
" clip-path="url(#p66fc084d86)" style="fill: #1f77b4"/>
   </g>
   <g id="patch_202">
    <path d="M 368.203314 224.64 
L 369.723888 224.64 
L 369.723888 17.554286 
L 368.203314 17.554286 
z
" clip-path="url(#p66fc084d86)" style="fill: #1f77b4"/>
   </g>
   <g id="matplotlib.axis_1">
    <g id="xtick_1">
     <g id="line2d_1">
      <defs>
       <path id="m077eb1eeae" d="M 0 0 
L 0 3.5 
" style="stroke: #000000; stroke-width: 0.8"/>
      </defs>
      <g>
       <use xlink:href="#m077eb1eeae" x="65.361932" y="224.64" style="stroke: #000000; stroke-width: 0.8"/>
      </g>
     </g>
     <g id="text_1">
      <!-- 0.0 -->
      <g transform="translate(57.410369 239.238437)scale(0.1 -0.1)">
       <defs>
        <path id="DejaVuSans-30" d="M 2034 4250 
Q 1547 4250 1301 3770 
Q 1056 3291 1056 2328 
Q 1056 1369 1301 889 
Q 1547 409 2034 409 
Q 2525 409 2770 889 
Q 3016 1369 3016 2328 
Q 3016 3291 2770 3770 
Q 2525 4250 2034 4250 
z
M 2034 4750 
Q 2819 4750 3233 4129 
Q 3647 3509 3647 2328 
Q 3647 1150 3233 529 
Q 2819 -91 2034 -91 
Q 1250 -91 836 529 
Q 422 1150 422 2328 
Q 422 3509 836 4129 
Q 1250 4750 2034 4750 
z
" transform="scale(0.015625)"/>
        <path id="DejaVuSans-2e" d="M 684 794 
L 1344 794 
L 1344 0 
L 684 0 
L 684 794 
z
" transform="scale(0.015625)"/>
       </defs>
       <use xlink:href="#DejaVuSans-30"/>
       <use xlink:href="#DejaVuSans-2e" x="63.623047"/>
       <use xlink:href="#DejaVuSans-30" x="95.410156"/>
      </g>
     </g>
    </g>
    <g id="xtick_2">
     <g id="line2d_2">
      <g>
       <use xlink:href="#m077eb1eeae" x="126.234659" y="224.64" style="stroke: #000000; stroke-width: 0.8"/>
      </g>
     </g>
     <g id="text_2">
      <!-- 0.2 -->
      <g transform="translate(118.283097 239.238437)scale(0.1 -0.1)">
       <defs>
        <path id="DejaVuSans-32" d="M 1228 531 
L 3431 531 
L 3431 0 
L 469 0 
L 469 531 
Q 828 903 1448 1529 
Q 2069 2156 2228 2338 
Q 2531 2678 2651 2914 
Q 2772 3150 2772 3378 
Q 2772 3750 2511 3984 
Q 2250 4219 1831 4219 
Q 1534 4219 1204 4116 
Q 875 4013 500 3803 
L 500 4441 
Q 881 4594 1212 4672 
Q 1544 4750 1819 4750 
Q 2544 4750 2975 4387 
Q 3406 4025 3406 3419 
Q 3406 3131 3298 2873 
Q 3191 2616 2906 2266 
Q 2828 2175 2409 1742 
Q 1991 1309 1228 531 
z
" transform="scale(0.015625)"/>
       </defs>
       <use xlink:href="#DejaVuSans-30"/>
       <use xlink:href="#DejaVuSans-2e" x="63.623047"/>
       <use xlink:href="#DejaVuSans-32" x="95.410156"/>
      </g>
     </g>
    </g>
    <g id="xtick_3">
     <g id="line2d_3">
      <g>
       <use xlink:href="#m077eb1eeae" x="187.107386" y="224.64" style="stroke: #000000; stroke-width: 0.8"/>
      </g>
     </g>
     <g id="text_3">
      <!-- 0.4 -->
      <g transform="translate(179.155824 239.238437)scale(0.1 -0.1)">
       <defs>
        <path id="DejaVuSans-34" d="M 2419 4116 
L 825 1625 
L 2419 1625 
L 2419 4116 
z
M 2253 4666 
L 3047 4666 
L 3047 1625 
L 3713 1625 
L 3713 1100 
L 3047 1100 
L 3047 0 
L 2419 0 
L 2419 1100 
L 313 1100 
L 313 1709 
L 2253 4666 
z
" transform="scale(0.015625)"/>
       </defs>
       <use xlink:href="#DejaVuSans-30"/>
       <use xlink:href="#DejaVuSans-2e" x="63.623047"/>
       <use xlink:href="#DejaVuSans-34" x="95.410156"/>
      </g>
     </g>
    </g>
    <g id="xtick_4">
     <g id="line2d_4">
      <g>
       <use xlink:href="#m077eb1eeae" x="247.980114" y="224.64" style="stroke: #000000; stroke-width: 0.8"/>
      </g>
     </g>
     <g id="text_4">
      <!-- 0.6 -->
      <g transform="translate(240.028551 239.238437)scale(0.1 -0.1)">
       <defs>
        <path id="DejaVuSans-36" d="M 2113 2584 
Q 1688 2584 1439 2293 
Q 1191 2003 1191 1497 
Q 1191 994 1439 701 
Q 1688 409 2113 409 
Q 2538 409 2786 701 
Q 3034 994 3034 1497 
Q 3034 2003 2786 2293 
Q 2538 2584 2113 2584 
z
M 3366 4563 
L 3366 3988 
Q 3128 4100 2886 4159 
Q 2644 4219 2406 4219 
Q 1781 4219 1451 3797 
Q 1122 3375 1075 2522 
Q 1259 2794 1537 2939 
Q 1816 3084 2150 3084 
Q 2853 3084 3261 2657 
Q 3669 2231 3669 1497 
Q 3669 778 3244 343 
Q 2819 -91 2113 -91 
Q 1303 -91 875 529 
Q 447 1150 447 2328 
Q 447 3434 972 4092 
Q 1497 4750 2381 4750 
Q 2619 4750 2861 4703 
Q 3103 4656 3366 4563 
z
" transform="scale(0.015625)"/>
       </defs>
       <use xlink:href="#DejaVuSans-30"/>
       <use xlink:href="#DejaVuSans-2e" x="63.623047"/>
       <use xlink:href="#DejaVuSans-36" x="95.410156"/>
      </g>
     </g>
    </g>
    <g id="xtick_5">
     <g id="line2d_5">
      <g>
       <use xlink:href="#m077eb1eeae" x="308.852841" y="224.64" style="stroke: #000000; stroke-width: 0.8"/>
      </g>
     </g>
     <g id="text_5">
      <!-- 0.8 -->
      <g transform="translate(300.901278 239.238437)scale(0.1 -0.1)">
       <defs>
        <path id="DejaVuSans-38" d="M 2034 2216 
Q 1584 2216 1326 1975 
Q 1069 1734 1069 1313 
Q 1069 891 1326 650 
Q 1584 409 2034 409 
Q 2484 409 2743 651 
Q 3003 894 3003 1313 
Q 3003 1734 2745 1975 
Q 2488 2216 2034 2216 
z
M 1403 2484 
Q 997 2584 770 2862 
Q 544 3141 544 3541 
Q 544 4100 942 4425 
Q 1341 4750 2034 4750 
Q 2731 4750 3128 4425 
Q 3525 4100 3525 3541 
Q 3525 3141 3298 2862 
Q 3072 2584 2669 2484 
Q 3125 2378 3379 2068 
Q 3634 1759 3634 1313 
Q 3634 634 3220 271 
Q 2806 -91 2034 -91 
Q 1263 -91 848 271 
Q 434 634 434 1313 
Q 434 1759 690 2068 
Q 947 2378 1403 2484 
z
M 1172 3481 
Q 1172 3119 1398 2916 
Q 1625 2713 2034 2713 
Q 2441 2713 2670 2916 
Q 2900 3119 2900 3481 
Q 2900 3844 2670 4047 
Q 2441 4250 2034 4250 
Q 1625 4250 1398 4047 
Q 1172 3844 1172 3481 
z
" transform="scale(0.015625)"/>
       </defs>
       <use xlink:href="#DejaVuSans-30"/>
       <use xlink:href="#DejaVuSans-2e" x="63.623047"/>
       <use xlink:href="#DejaVuSans-38" x="95.410156"/>
      </g>
     </g>
    </g>
    <g id="xtick_6">
     <g id="line2d_6">
      <g>
       <use xlink:href="#m077eb1eeae" x="369.725568" y="224.64" style="stroke: #000000; stroke-width: 0.8"/>
      </g>
     </g>
     <g id="text_6">
      <!-- 1.0 -->
      <g transform="translate(361.774006 239.238437)scale(0.1 -0.1)">
       <defs>
        <path id="DejaVuSans-31" d="M 794 531 
L 1825 531 
L 1825 4091 
L 703 3866 
L 703 4441 
L 1819 4666 
L 2450 4666 
L 2450 531 
L 3481 531 
L 3481 0 
L 794 0 
L 794 531 
z
" transform="scale(0.015625)"/>
       </defs>
       <use xlink:href="#DejaVuSans-31"/>
       <use xlink:href="#DejaVuSans-2e" x="63.623047"/>
       <use xlink:href="#DejaVuSans-30" x="95.410156"/>
      </g>
     </g>
    </g>
    <g id="text_7">
     <!-- Propagation direction -->
     <g transform="translate(164.061719 252.916562)scale(0.1 -0.1)">
      <defs>
       <path id="DejaVuSans-50" d="M 1259 4147 
L 1259 2394 
L 2053 2394 
Q 2494 2394 2734 2622 
Q 2975 2850 2975 3272 
Q 2975 3691 2734 3919 
Q 2494 4147 2053 4147 
L 1259 4147 
z
M 628 4666 
L 2053 4666 
Q 2838 4666 3239 4311 
Q 3641 3956 3641 3272 
Q 3641 2581 3239 2228 
Q 2838 1875 2053 1875 
L 1259 1875 
L 1259 0 
L 628 0 
L 628 4666 
z
" transform="scale(0.015625)"/>
       <path id="DejaVuSans-72" d="M 2631 2963 
Q 2534 3019 2420 3045 
Q 2306 3072 2169 3072 
Q 1681 3072 1420 2755 
Q 1159 2438 1159 1844 
L 1159 0 
L 581 0 
L 581 3500 
L 1159 3500 
L 1159 2956 
Q 1341 3275 1631 3429 
Q 1922 3584 2338 3584 
Q 2397 3584 2469 3576 
Q 2541 3569 2628 3553 
L 2631 2963 
z
" transform="scale(0.015625)"/>
       <path id="DejaVuSans-6f" d="M 1959 3097 
Q 1497 3097 1228 2736 
Q 959 2375 959 1747 
Q 959 1119 1226 758 
Q 1494 397 1959 397 
Q 2419 397 2687 759 
Q 2956 1122 2956 1747 
Q 2956 2369 2687 2733 
Q 2419 3097 1959 3097 
z
M 1959 3584 
Q 2709 3584 3137 3096 
Q 3566 2609 3566 1747 
Q 3566 888 3137 398 
Q 2709 -91 1959 -91 
Q 1206 -91 779 398 
Q 353 888 353 1747 
Q 353 2609 779 3096 
Q 1206 3584 1959 3584 
z
" transform="scale(0.015625)"/>
       <path id="DejaVuSans-70" d="M 1159 525 
L 1159 -1331 
L 581 -1331 
L 581 3500 
L 1159 3500 
L 1159 2969 
Q 1341 3281 1617 3432 
Q 1894 3584 2278 3584 
Q 2916 3584 3314 3078 
Q 3713 2572 3713 1747 
Q 3713 922 3314 415 
Q 2916 -91 2278 -91 
Q 1894 -91 1617 61 
Q 1341 213 1159 525 
z
M 3116 1747 
Q 3116 2381 2855 2742 
Q 2594 3103 2138 3103 
Q 1681 3103 1420 2742 
Q 1159 2381 1159 1747 
Q 1159 1113 1420 752 
Q 1681 391 2138 391 
Q 2594 391 2855 752 
Q 3116 1113 3116 1747 
z
" transform="scale(0.015625)"/>
       <path id="DejaVuSans-61" d="M 2194 1759 
Q 1497 1759 1228 1600 
Q 959 1441 959 1056 
Q 959 750 1161 570 
Q 1363 391 1709 391 
Q 2188 391 2477 730 
Q 2766 1069 2766 1631 
L 2766 1759 
L 2194 1759 
z
M 3341 1997 
L 3341 0 
L 2766 0 
L 2766 531 
Q 2569 213 2275 61 
Q 1981 -91 1556 -91 
Q 1019 -91 701 211 
Q 384 513 384 1019 
Q 384 1609 779 1909 
Q 1175 2209 1959 2209 
L 2766 2209 
L 2766 2266 
Q 2766 2663 2505 2880 
Q 2244 3097 1772 3097 
Q 1472 3097 1187 3025 
Q 903 2953 641 2809 
L 641 3341 
Q 956 3463 1253 3523 
Q 1550 3584 1831 3584 
Q 2591 3584 2966 3190 
Q 3341 2797 3341 1997 
z
" transform="scale(0.015625)"/>
       <path id="DejaVuSans-67" d="M 2906 1791 
Q 2906 2416 2648 2759 
Q 2391 3103 1925 3103 
Q 1463 3103 1205 2759 
Q 947 2416 947 1791 
Q 947 1169 1205 825 
Q 1463 481 1925 481 
Q 2391 481 2648 825 
Q 2906 1169 2906 1791 
z
M 3481 434 
Q 3481 -459 3084 -895 
Q 2688 -1331 1869 -1331 
Q 1566 -1331 1297 -1286 
Q 1028 -1241 775 -1147 
L 775 -588 
Q 1028 -725 1275 -790 
Q 1522 -856 1778 -856 
Q 2344 -856 2625 -561 
Q 2906 -266 2906 331 
L 2906 616 
Q 2728 306 2450 153 
Q 2172 0 1784 0 
Q 1141 0 747 490 
Q 353 981 353 1791 
Q 353 2603 747 3093 
Q 1141 3584 1784 3584 
Q 2172 3584 2450 3431 
Q 2728 3278 2906 2969 
L 2906 3500 
L 3481 3500 
L 3481 434 
z
" transform="scale(0.015625)"/>
       <path id="DejaVuSans-74" d="M 1172 4494 
L 1172 3500 
L 2356 3500 
L 2356 3053 
L 1172 3053 
L 1172 1153 
Q 1172 725 1289 603 
Q 1406 481 1766 481 
L 2356 481 
L 2356 0 
L 1766 0 
Q 1100 0 847 248 
Q 594 497 594 1153 
L 594 3053 
L 172 3053 
L 172 3500 
L 594 3500 
L 594 4494 
L 1172 4494 
z
" transform="scale(0.015625)"/>
       <path id="DejaVuSans-69" d="M 603 3500 
L 1178 3500 
L 1178 0 
L 603 0 
L 603 3500 
z
M 603 4863 
L 1178 4863 
L 1178 4134 
L 603 4134 
L 603 4863 
z
" transform="scale(0.015625)"/>
       <path id="DejaVuSans-6e" d="M 3513 2113 
L 3513 0 
L 2938 0 
L 2938 2094 
Q 2938 2591 2744 2837 
Q 2550 3084 2163 3084 
Q 1697 3084 1428 2787 
Q 1159 2491 1159 1978 
L 1159 0 
L 581 0 
L 581 3500 
L 1159 3500 
L 1159 2956 
Q 1366 3272 1645 3428 
Q 1925 3584 2291 3584 
Q 2894 3584 3203 3211 
Q 3513 2838 3513 2113 
z
" transform="scale(0.015625)"/>
       <path id="DejaVuSans-20" transform="scale(0.015625)"/>
       <path id="DejaVuSans-64" d="M 2906 2969 
L 2906 4863 
L 3481 4863 
L 3481 0 
L 2906 0 
L 2906 525 
Q 2725 213 2448 61 
Q 2172 -91 1784 -91 
Q 1150 -91 751 415 
Q 353 922 353 1747 
Q 353 2572 751 3078 
Q 1150 3584 1784 3584 
Q 2172 3584 2448 3432 
Q 2725 3281 2906 2969 
z
M 947 1747 
Q 947 1113 1208 752 
Q 1469 391 1925 391 
Q 2381 391 2643 752 
Q 2906 1113 2906 1747 
Q 2906 2381 2643 2742 
Q 2381 3103 1925 3103 
Q 1469 3103 1208 2742 
Q 947 2381 947 1747 
z
" transform="scale(0.015625)"/>
       <path id="DejaVuSans-65" d="M 3597 1894 
L 3597 1613 
L 953 1613 
Q 991 1019 1311 708 
Q 1631 397 2203 397 
Q 2534 397 2845 478 
Q 3156 559 3463 722 
L 3463 178 
Q 3153 47 2828 -22 
Q 2503 -91 2169 -91 
Q 1331 -91 842 396 
Q 353 884 353 1716 
Q 353 2575 817 3079 
Q 1281 3584 2069 3584 
Q 2775 3584 3186 3129 
Q 3597 2675 3597 1894 
z
M 3022 2063 
Q 3016 2534 2758 2815 
Q 2500 3097 2075 3097 
Q 1594 3097 1305 2825 
Q 1016 2553 972 2059 
L 3022 2063 
z
" transform="scale(0.015625)"/>
       <path id="DejaVuSans-63" d="M 3122 3366 
L 3122 2828 
Q 2878 2963 2633 3030 
Q 2388 3097 2138 3097 
Q 1578 3097 1268 2742 
Q 959 2388 959 1747 
Q 959 1106 1268 751 
Q 1578 397 2138 397 
Q 2388 397 2633 464 
Q 2878 531 3122 666 
L 3122 134 
Q 2881 22 2623 -34 
Q 2366 -91 2075 -91 
Q 1284 -91 818 406 
Q 353 903 353 1747 
Q 353 2603 823 3093 
Q 1294 3584 2113 3584 
Q 2378 3584 2631 3529 
Q 2884 3475 3122 3366 
z
" transform="scale(0.015625)"/>
      </defs>
      <use xlink:href="#DejaVuSans-50"/>
      <use xlink:href="#DejaVuSans-72" x="58.552734"/>
      <use xlink:href="#DejaVuSans-6f" x="97.416016"/>
      <use xlink:href="#DejaVuSans-70" x="158.597656"/>
      <use xlink:href="#DejaVuSans-61" x="222.074219"/>
      <use xlink:href="#DejaVuSans-67" x="283.353516"/>
      <use xlink:href="#DejaVuSans-61" x="346.830078"/>
      <use xlink:href="#DejaVuSans-74" x="408.109375"/>
      <use xlink:href="#DejaVuSans-69" x="447.318359"/>
      <use xlink:href="#DejaVuSans-6f" x="475.101562"/>
      <use xlink:href="#DejaVuSans-6e" x="536.283203"/>
      <use xlink:href="#DejaVuSans-20" x="599.662109"/>
      <use xlink:href="#DejaVuSans-64" x="631.449219"/>
      <use xlink:href="#DejaVuSans-69" x="694.925781"/>
      <use xlink:href="#DejaVuSans-72" x="722.708984"/>
      <use xlink:href="#DejaVuSans-65" x="761.572266"/>
      <use xlink:href="#DejaVuSans-63" x="823.095703"/>
      <use xlink:href="#DejaVuSans-74" x="878.076172"/>
      <use xlink:href="#DejaVuSans-69" x="917.285156"/>
      <use xlink:href="#DejaVuSans-6f" x="945.068359"/>
      <use xlink:href="#DejaVuSans-6e" x="1006.25"/>
     </g>
    </g>
   </g>
   <g id="matplotlib.axis_2">
    <g id="ytick_1">
     <g id="line2d_7">
      <defs>
       <path id="m0c2eba9283" d="M 0 0 
L -3.5 0 
" style="stroke: #000000; stroke-width: 0.8"/>
      </defs>
      <g>
       <use xlink:href="#m0c2eba9283" x="50.14375" y="224.64" style="stroke: #000000; stroke-width: 0.8"/>
      </g>
     </g>
     <g id="text_8">
      <!-- 0.00 -->
      <g transform="translate(20.878125 228.439219)scale(0.1 -0.1)">
       <use xlink:href="#DejaVuSans-30"/>
       <use xlink:href="#DejaVuSans-2e" x="63.623047"/>
       <use xlink:href="#DejaVuSans-30" x="95.410156"/>
       <use xlink:href="#DejaVuSans-30" x="159.033203"/>
      </g>
     </g>
    </g>
    <g id="ytick_2">
     <g id="line2d_8">
      <g>
       <use xlink:href="#m0c2eba9283" x="50.14375" y="200.181796" style="stroke: #000000; stroke-width: 0.8"/>
      </g>
     </g>
     <g id="text_9">
      <!-- 0.25 -->
      <g transform="translate(20.878125 203.981015)scale(0.1 -0.1)">
       <defs>
        <path id="DejaVuSans-35" d="M 691 4666 
L 3169 4666 
L 3169 4134 
L 1269 4134 
L 1269 2991 
Q 1406 3038 1543 3061 
Q 1681 3084 1819 3084 
Q 2600 3084 3056 2656 
Q 3513 2228 3513 1497 
Q 3513 744 3044 326 
Q 2575 -91 1722 -91 
Q 1428 -91 1123 -41 
Q 819 9 494 109 
L 494 744 
Q 775 591 1075 516 
Q 1375 441 1709 441 
Q 2250 441 2565 725 
Q 2881 1009 2881 1497 
Q 2881 1984 2565 2268 
Q 2250 2553 1709 2553 
Q 1456 2553 1204 2497 
Q 953 2441 691 2322 
L 691 4666 
z
" transform="scale(0.015625)"/>
       </defs>
       <use xlink:href="#DejaVuSans-30"/>
       <use xlink:href="#DejaVuSans-2e" x="63.623047"/>
       <use xlink:href="#DejaVuSans-32" x="95.410156"/>
       <use xlink:href="#DejaVuSans-35" x="159.033203"/>
      </g>
     </g>
    </g>
    <g id="ytick_3">
     <g id="line2d_9">
      <g>
       <use xlink:href="#m0c2eba9283" x="50.14375" y="175.723593" style="stroke: #000000; stroke-width: 0.8"/>
      </g>
     </g>
     <g id="text_10">
      <!-- 0.50 -->
      <g transform="translate(20.878125 179.522812)scale(0.1 -0.1)">
       <use xlink:href="#DejaVuSans-30"/>
       <use xlink:href="#DejaVuSans-2e" x="63.623047"/>
       <use xlink:href="#DejaVuSans-35" x="95.410156"/>
       <use xlink:href="#DejaVuSans-30" x="159.033203"/>
      </g>
     </g>
    </g>
    <g id="ytick_4">
     <g id="line2d_10">
      <g>
       <use xlink:href="#m0c2eba9283" x="50.14375" y="151.265389" style="stroke: #000000; stroke-width: 0.8"/>
      </g>
     </g>
     <g id="text_11">
      <!-- 0.75 -->
      <g transform="translate(20.878125 155.064608)scale(0.1 -0.1)">
       <defs>
        <path id="DejaVuSans-37" d="M 525 4666 
L 3525 4666 
L 3525 4397 
L 1831 0 
L 1172 0 
L 2766 4134 
L 525 4134 
L 525 4666 
z
" transform="scale(0.015625)"/>
       </defs>
       <use xlink:href="#DejaVuSans-30"/>
       <use xlink:href="#DejaVuSans-2e" x="63.623047"/>
       <use xlink:href="#DejaVuSans-37" x="95.410156"/>
       <use xlink:href="#DejaVuSans-35" x="159.033203"/>
      </g>
     </g>
    </g>
    <g id="ytick_5">
     <g id="line2d_11">
      <g>
       <use xlink:href="#m0c2eba9283" x="50.14375" y="126.807186" style="stroke: #000000; stroke-width: 0.8"/>
      </g>
     </g>
     <g id="text_12">
      <!-- 1.00 -->
      <g transform="translate(20.878125 130.606404)scale(0.1 -0.1)">
       <use xlink:href="#DejaVuSans-31"/>
       <use xlink:href="#DejaVuSans-2e" x="63.623047"/>
       <use xlink:href="#DejaVuSans-30" x="95.410156"/>
       <use xlink:href="#DejaVuSans-30" x="159.033203"/>
      </g>
     </g>
    </g>
    <g id="ytick_6">
     <g id="line2d_12">
      <g>
       <use xlink:href="#m0c2eba9283" x="50.14375" y="102.348982" style="stroke: #000000; stroke-width: 0.8"/>
      </g>
     </g>
     <g id="text_13">
      <!-- 1.25 -->
      <g transform="translate(20.878125 106.148201)scale(0.1 -0.1)">
       <use xlink:href="#DejaVuSans-31"/>
       <use xlink:href="#DejaVuSans-2e" x="63.623047"/>
       <use xlink:href="#DejaVuSans-32" x="95.410156"/>
       <use xlink:href="#DejaVuSans-35" x="159.033203"/>
      </g>
     </g>
    </g>
    <g id="ytick_7">
     <g id="line2d_13">
      <g>
       <use xlink:href="#m0c2eba9283" x="50.14375" y="77.890779" style="stroke: #000000; stroke-width: 0.8"/>
      </g>
     </g>
     <g id="text_14">
      <!-- 1.50 -->
      <g transform="translate(20.878125 81.689997)scale(0.1 -0.1)">
       <use xlink:href="#DejaVuSans-31"/>
       <use xlink:href="#DejaVuSans-2e" x="63.623047"/>
       <use xlink:href="#DejaVuSans-35" x="95.410156"/>
       <use xlink:href="#DejaVuSans-30" x="159.033203"/>
      </g>
     </g>
    </g>
    <g id="ytick_8">
     <g id="line2d_14">
      <g>
       <use xlink:href="#m0c2eba9283" x="50.14375" y="53.432575" style="stroke: #000000; stroke-width: 0.8"/>
      </g>
     </g>
     <g id="text_15">
      <!-- 1.75 -->
      <g transform="translate(20.878125 57.231794)scale(0.1 -0.1)">
       <use xlink:href="#DejaVuSans-31"/>
       <use xlink:href="#DejaVuSans-2e" x="63.623047"/>
       <use xlink:href="#DejaVuSans-37" x="95.410156"/>
       <use xlink:href="#DejaVuSans-35" x="159.033203"/>
      </g>
     </g>
    </g>
    <g id="ytick_9">
     <g id="line2d_15">
      <g>
       <use xlink:href="#m0c2eba9283" x="50.14375" y="28.974371" style="stroke: #000000; stroke-width: 0.8"/>
      </g>
     </g>
     <g id="text_16">
      <!-- 2.00 -->
      <g transform="translate(20.878125 32.77359)scale(0.1 -0.1)">
       <use xlink:href="#DejaVuSans-32"/>
       <use xlink:href="#DejaVuSans-2e" x="63.623047"/>
       <use xlink:href="#DejaVuSans-30" x="95.410156"/>
       <use xlink:href="#DejaVuSans-30" x="159.033203"/>
      </g>
     </g>
    </g>
    <g id="text_17">
     <!-- Probability density -->
     <g transform="translate(14.798438 162.270781)rotate(-90)scale(0.1 -0.1)">
      <defs>
       <path id="DejaVuSans-62" d="M 3116 1747 
Q 3116 2381 2855 2742 
Q 2594 3103 2138 3103 
Q 1681 3103 1420 2742 
Q 1159 2381 1159 1747 
Q 1159 1113 1420 752 
Q 1681 391 2138 391 
Q 2594 391 2855 752 
Q 3116 1113 3116 1747 
z
M 1159 2969 
Q 1341 3281 1617 3432 
Q 1894 3584 2278 3584 
Q 2916 3584 3314 3078 
Q 3713 2572 3713 1747 
Q 3713 922 3314 415 
Q 2916 -91 2278 -91 
Q 1894 -91 1617 61 
Q 1341 213 1159 525 
L 1159 0 
L 581 0 
L 581 4863 
L 1159 4863 
L 1159 2969 
z
" transform="scale(0.015625)"/>
       <path id="DejaVuSans-6c" d="M 603 4863 
L 1178 4863 
L 1178 0 
L 603 0 
L 603 4863 
z
" transform="scale(0.015625)"/>
       <path id="DejaVuSans-79" d="M 2059 -325 
Q 1816 -950 1584 -1140 
Q 1353 -1331 966 -1331 
L 506 -1331 
L 506 -850 
L 844 -850 
Q 1081 -850 1212 -737 
Q 1344 -625 1503 -206 
L 1606 56 
L 191 3500 
L 800 3500 
L 1894 763 
L 2988 3500 
L 3597 3500 
L 2059 -325 
z
" transform="scale(0.015625)"/>
       <path id="DejaVuSans-73" d="M 2834 3397 
L 2834 2853 
Q 2591 2978 2328 3040 
Q 2066 3103 1784 3103 
Q 1356 3103 1142 2972 
Q 928 2841 928 2578 
Q 928 2378 1081 2264 
Q 1234 2150 1697 2047 
L 1894 2003 
Q 2506 1872 2764 1633 
Q 3022 1394 3022 966 
Q 3022 478 2636 193 
Q 2250 -91 1575 -91 
Q 1294 -91 989 -36 
Q 684 19 347 128 
L 347 722 
Q 666 556 975 473 
Q 1284 391 1588 391 
Q 1994 391 2212 530 
Q 2431 669 2431 922 
Q 2431 1156 2273 1281 
Q 2116 1406 1581 1522 
L 1381 1569 
Q 847 1681 609 1914 
Q 372 2147 372 2553 
Q 372 3047 722 3315 
Q 1072 3584 1716 3584 
Q 2034 3584 2315 3537 
Q 2597 3491 2834 3397 
z
" transform="scale(0.015625)"/>
      </defs>
      <use xlink:href="#DejaVuSans-50"/>
      <use xlink:href="#DejaVuSans-72" x="58.552734"/>
      <use xlink:href="#DejaVuSans-6f" x="97.416016"/>
      <use xlink:href="#DejaVuSans-62" x="158.597656"/>
      <use xlink:href="#DejaVuSans-61" x="222.074219"/>
      <use xlink:href="#DejaVuSans-62" x="283.353516"/>
      <use xlink:href="#DejaVuSans-69" x="346.830078"/>
      <use xlink:href="#DejaVuSans-6c" x="374.613281"/>
      <use xlink:href="#DejaVuSans-69" x="402.396484"/>
      <use xlink:href="#DejaVuSans-74" x="430.179688"/>
      <use xlink:href="#DejaVuSans-79" x="469.388672"/>
      <use xlink:href="#DejaVuSans-20" x="528.568359"/>
      <use xlink:href="#DejaVuSans-64" x="560.355469"/>
      <use xlink:href="#DejaVuSans-65" x="623.832031"/>
      <use xlink:href="#DejaVuSans-6e" x="685.355469"/>
      <use xlink:href="#DejaVuSans-73" x="748.734375"/>
      <use xlink:href="#DejaVuSans-69" x="800.833984"/>
      <use xlink:href="#DejaVuSans-74" x="828.617188"/>
      <use xlink:href="#DejaVuSans-79" x="867.826172"/>
     </g>
    </g>
   </g>
   <g id="line2d_16">
    <path d="M 65.361932 224.64 
L 369.725568 28.974371 
L 369.725568 28.974371 
" clip-path="url(#p66fc084d86)" style="fill: none; stroke: #ff7f0e; stroke-width: 1.5; stroke-linecap: square"/>
   </g>
   <g id="patch_203">
    <path d="M 50.14375 224.64 
L 50.14375 7.2 
" style="fill: none; stroke: #000000; stroke-width: 0.8; stroke-linejoin: miter; stroke-linecap: square"/>
   </g>
   <g id="patch_204">
    <path d="M 384.94375 224.64 
L 384.94375 7.2 
" style="fill: none; stroke: #000000; stroke-width: 0.8; stroke-linejoin: miter; stroke-linecap: square"/>
   </g>
   <g id="patch_205">
    <path d="M 50.14375 224.64 
L 384.94375 224.64 
" style="fill: none; stroke: #000000; stroke-width: 0.8; stroke-linejoin: miter; stroke-linecap: square"/>
   </g>
   <g id="patch_206">
    <path d="M 50.14375 7.2 
L 384.94375 7.2 
" style="fill: none; stroke: #000000; stroke-width: 0.8; stroke-linejoin: miter; stroke-linecap: square"/>
   </g>
  </g>
 </g>
 <defs>
  <clipPath id="p66fc084d86">
   <rect x="50.14375" y="7.2" width="334.8" height="217.44"/>
  </clipPath>
 </defs>
</svg>
