<?xml version="1.0" encoding="utf-8" standalone="no"?>
<!DOCTYPE svg PUBLIC "-//W3C//DTD SVG 1.1//EN"
  "http://www.w3.org/Graphics/SVG/1.1/DTD/svg11.dtd">
<svg xmlns:xlink="http://www.w3.org/1999/xlink" width="385.78125pt" height="262.19625pt" viewBox="0 0 385.78125 262.19625" xmlns="http://www.w3.org/2000/svg" version="1.1">
 <metadata>
  <rdf:RDF xmlns:dc="http://purl.org/dc/elements/1.1/" xmlns:cc="http://creativecommons.org/ns#" xmlns:rdf="http://www.w3.org/1999/02/22-rdf-syntax-ns#">
   <cc:Work>
    <dc:type rdf:resource="http://purl.org/dc/dcmitype/StillImage"/>
    <dc:date>2022-09-07T12:42:46.515737</dc:date>
    <dc:format>image/svg+xml</dc:format>
    <dc:creator>
     <cc:Agent>
      <dc:title>Matplotlib v3.5.2, https://matplotlib.org/</dc:title>
     </cc:Agent>
    </dc:creator>
   </cc:Work>
  </rdf:RDF>
 </metadata>
 <defs>
  <style type="text/css">*{stroke-linejoin: round; stroke-linecap: butt}</style>
 </defs>
 <g id="figure_1">
  <g id="patch_1">
   <path d="M 0 262.19625 
L 385.78125 262.19625 
L 385.78125 0 
L 0 0 
L 0 262.19625 
z
" style="fill: none"/>
  </g>
  <g id="axes_1">
   <g id="patch_2">
    <path d="M 43.78125 224.64 
L 378.58125 224.64 
L 378.58125 7.2 
L 43.78125 7.2 
z
" style="fill: #ffffff"/>
   </g>
   <g id="patch_3">
    <path d="M 59.763132 224.64 
L 61.277084 224.64 
L 61.277084 217.940168 
L 59.763132 217.940168 
z
" clip-path="url(#p4fd068ea33)" style="fill: #1f77b4"/>
   </g>
   <g id="patch_4">
    <path d="M 61.277084 224.64 
L 62.791036 224.64 
L 62.791036 214.89479 
L 61.277084 214.89479 
z
" clip-path="url(#p4fd068ea33)" style="fill: #1f77b4"/>
   </g>
   <g id="patch_5">
    <path d="M 62.791036 224.64 
L 64.304988 224.64 
L 64.304988 216.722017 
L 62.791036 216.722017 
z
" clip-path="url(#p4fd068ea33)" style="fill: #1f77b4"/>
   </g>
   <g id="patch_6">
    <path d="M 64.304988 224.64 
L 65.81894 224.64 
L 65.81894 207.585882 
L 64.304988 207.585882 
z
" clip-path="url(#p4fd068ea33)" style="fill: #1f77b4"/>
   </g>
   <g id="patch_7">
    <path d="M 65.81894 224.64 
L 67.332891 224.64 
L 67.332891 205.758655 
L 65.81894 205.758655 
z
" clip-path="url(#p4fd068ea33)" style="fill: #1f77b4"/>
   </g>
   <g id="patch_8">
    <path d="M 67.332891 224.64 
L 68.846843 224.64 
L 68.846843 208.194958 
L 67.332891 208.194958 
z
" clip-path="url(#p4fd068ea33)" style="fill: #1f77b4"/>
   </g>
   <g id="patch_9">
    <path d="M 68.846843 224.64 
L 70.360795 224.64 
L 70.360795 208.194958 
L 68.846843 208.194958 
z
" clip-path="url(#p4fd068ea33)" style="fill: #1f77b4"/>
   </g>
   <g id="patch_10">
    <path d="M 70.360795 224.64 
L 71.874747 224.64 
L 71.874747 203.931429 
L 70.360795 203.931429 
z
" clip-path="url(#p4fd068ea33)" style="fill: #1f77b4"/>
   </g>
   <g id="patch_11">
    <path d="M 71.874747 224.64 
L 73.388699 224.64 
L 73.388699 200.88605 
L 71.874747 200.88605 
z
" clip-path="url(#p4fd068ea33)" style="fill: #1f77b4"/>
   </g>
   <g id="patch_12">
    <path d="M 73.388699 224.64 
L 74.90265 224.64 
L 74.90265 198.449748 
L 73.388699 198.449748 
z
" clip-path="url(#p4fd068ea33)" style="fill: #1f77b4"/>
   </g>
   <g id="patch_13">
    <path d="M 74.90265 224.64 
L 76.416602 224.64 
L 76.416602 192.968067 
L 74.90265 192.968067 
z
" clip-path="url(#p4fd068ea33)" style="fill: #1f77b4"/>
   </g>
   <g id="patch_14">
    <path d="M 76.416602 224.64 
L 77.930554 224.64 
L 77.930554 189.922689 
L 76.416602 189.922689 
z
" clip-path="url(#p4fd068ea33)" style="fill: #1f77b4"/>
   </g>
   <g id="patch_15">
    <path d="M 77.930554 224.64 
L 79.444506 224.64 
L 79.444506 183.831933 
L 77.930554 183.831933 
z
" clip-path="url(#p4fd068ea33)" style="fill: #1f77b4"/>
   </g>
   <g id="patch_16">
    <path d="M 79.444506 224.64 
L 80.958458 224.64 
L 80.958458 188.095462 
L 79.444506 188.095462 
z
" clip-path="url(#p4fd068ea33)" style="fill: #1f77b4"/>
   </g>
   <g id="patch_17">
    <path d="M 80.958458 224.64 
L 82.47241 224.64 
L 82.47241 177.741176 
L 80.958458 177.741176 
z
" clip-path="url(#p4fd068ea33)" style="fill: #1f77b4"/>
   </g>
   <g id="patch_18">
    <path d="M 82.47241 224.64 
L 83.986361 224.64 
L 83.986361 167.995966 
L 82.47241 167.995966 
z
" clip-path="url(#p4fd068ea33)" style="fill: #1f77b4"/>
   </g>
   <g id="patch_19">
    <path d="M 83.986361 224.64 
L 85.500313 224.64 
L 85.500313 172.868571 
L 83.986361 172.868571 
z
" clip-path="url(#p4fd068ea33)" style="fill: #1f77b4"/>
   </g>
   <g id="patch_20">
    <path d="M 85.500313 224.64 
L 87.014265 224.64 
L 87.014265 169.823193 
L 85.500313 169.823193 
z
" clip-path="url(#p4fd068ea33)" style="fill: #1f77b4"/>
   </g>
   <g id="patch_21">
    <path d="M 87.014265 224.64 
L 88.528217 224.64 
L 88.528217 169.214118 
L 87.014265 169.214118 
z
" clip-path="url(#p4fd068ea33)" style="fill: #1f77b4"/>
   </g>
   <g id="patch_22">
    <path d="M 88.528217 224.64 
L 90.042169 224.64 
L 90.042169 157.641681 
L 88.528217 157.641681 
z
" clip-path="url(#p4fd068ea33)" style="fill: #1f77b4"/>
   </g>
   <g id="patch_23">
    <path d="M 90.042169 224.64 
L 91.55612 224.64 
L 91.55612 162.514286 
L 90.042169 162.514286 
z
" clip-path="url(#p4fd068ea33)" style="fill: #1f77b4"/>
   </g>
   <g id="patch_24">
    <path d="M 91.55612 224.64 
L 93.070072 224.64 
L 93.070072 160.687059 
L 91.55612 160.687059 
z
" clip-path="url(#p4fd068ea33)" style="fill: #1f77b4"/>
   </g>
   <g id="patch_25">
    <path d="M 93.070072 224.64 
L 94.584024 224.64 
L 94.584024 161.296134 
L 93.070072 161.296134 
z
" clip-path="url(#p4fd068ea33)" style="fill: #1f77b4"/>
   </g>
   <g id="patch_26">
    <path d="M 94.584024 224.64 
L 96.097976 224.64 
L 96.097976 157.641681 
L 94.584024 157.641681 
z
" clip-path="url(#p4fd068ea33)" style="fill: #1f77b4"/>
   </g>
   <g id="patch_27">
    <path d="M 96.097976 224.64 
L 97.611928 224.64 
L 97.611928 150.941849 
L 96.097976 150.941849 
z
" clip-path="url(#p4fd068ea33)" style="fill: #1f77b4"/>
   </g>
   <g id="patch_28">
    <path d="M 97.611928 224.64 
L 99.125879 224.64 
L 99.125879 164.341513 
L 97.611928 164.341513 
z
" clip-path="url(#p4fd068ea33)" style="fill: #1f77b4"/>
   </g>
   <g id="patch_29">
    <path d="M 99.125879 224.64 
L 100.639831 224.64 
L 100.639831 138.151261 
L 99.125879 138.151261 
z
" clip-path="url(#p4fd068ea33)" style="fill: #1f77b4"/>
   </g>
   <g id="patch_30">
    <path d="M 100.639831 224.64 
L 102.153783 224.64 
L 102.153783 147.287395 
L 100.639831 147.287395 
z
" clip-path="url(#p4fd068ea33)" style="fill: #1f77b4"/>
   </g>
   <g id="patch_31">
    <path d="M 102.153783 224.64 
L 103.667735 224.64 
L 103.667735 149.114622 
L 102.153783 149.114622 
z
" clip-path="url(#p4fd068ea33)" style="fill: #1f77b4"/>
   </g>
   <g id="patch_32">
    <path d="M 103.667735 224.64 
L 105.181687 224.64 
L 105.181687 146.678319 
L 103.667735 146.678319 
z
" clip-path="url(#p4fd068ea33)" style="fill: #1f77b4"/>
   </g>
   <g id="patch_33">
    <path d="M 105.181687 224.64 
L 106.695639 224.64 
L 106.695639 140.587563 
L 105.181687 140.587563 
z
" clip-path="url(#p4fd068ea33)" style="fill: #1f77b4"/>
   </g>
   <g id="patch_34">
    <path d="M 106.695639 224.64 
L 108.20959 224.64 
L 108.20959 130.842353 
L 106.695639 130.842353 
z
" clip-path="url(#p4fd068ea33)" style="fill: #1f77b4"/>
   </g>
   <g id="patch_35">
    <path d="M 108.20959 224.64 
L 109.723542 224.64 
L 109.723542 127.187899 
L 108.20959 127.187899 
z
" clip-path="url(#p4fd068ea33)" style="fill: #1f77b4"/>
   </g>
   <g id="patch_36">
    <path d="M 109.723542 224.64 
L 111.237494 224.64 
L 111.237494 117.442689 
L 109.723542 117.442689 
z
" clip-path="url(#p4fd068ea33)" style="fill: #1f77b4"/>
   </g>
   <g id="patch_37">
    <path d="M 111.237494 224.64 
L 112.751446 224.64 
L 112.751446 130.842353 
L 111.237494 130.842353 
z
" clip-path="url(#p4fd068ea33)" style="fill: #1f77b4"/>
   </g>
   <g id="patch_38">
    <path d="M 112.751446 224.64 
L 114.265398 224.64 
L 114.265398 124.142521 
L 112.751446 124.142521 
z
" clip-path="url(#p4fd068ea33)" style="fill: #1f77b4"/>
   </g>
   <g id="patch_39">
    <path d="M 114.265398 224.64 
L 115.779349 224.64 
L 115.779349 118.66084 
L 114.265398 118.66084 
z
" clip-path="url(#p4fd068ea33)" style="fill: #1f77b4"/>
   </g>
   <g id="patch_40">
    <path d="M 115.779349 224.64 
L 117.293301 224.64 
L 117.293301 112.570084 
L 115.779349 112.570084 
z
" clip-path="url(#p4fd068ea33)" style="fill: #1f77b4"/>
   </g>
   <g id="patch_41">
    <path d="M 117.293301 224.64 
L 118.807253 224.64 
L 118.807253 119.878992 
L 117.293301 119.878992 
z
" clip-path="url(#p4fd068ea33)" style="fill: #1f77b4"/>
   </g>
   <g id="patch_42">
    <path d="M 118.807253 224.64 
L 120.321205 224.64 
L 120.321205 114.397311 
L 118.807253 114.397311 
z
" clip-path="url(#p4fd068ea33)" style="fill: #1f77b4"/>
   </g>
   <g id="patch_43">
    <path d="M 120.321205 224.64 
L 121.835157 224.64 
L 121.835157 121.706218 
L 120.321205 121.706218 
z
" clip-path="url(#p4fd068ea33)" style="fill: #1f77b4"/>
   </g>
   <g id="patch_44">
    <path d="M 121.835157 224.64 
L 123.349108 224.64 
L 123.349108 102.215798 
L 121.835157 102.215798 
z
" clip-path="url(#p4fd068ea33)" style="fill: #1f77b4"/>
   </g>
   <g id="patch_45">
    <path d="M 123.349108 224.64 
L 124.86306 224.64 
L 124.86306 111.961008 
L 123.349108 111.961008 
z
" clip-path="url(#p4fd068ea33)" style="fill: #1f77b4"/>
   </g>
   <g id="patch_46">
    <path d="M 124.86306 224.64 
L 126.377012 224.64 
L 126.377012 100.388571 
L 124.86306 100.388571 
z
" clip-path="url(#p4fd068ea33)" style="fill: #1f77b4"/>
   </g>
   <g id="patch_47">
    <path d="M 126.377012 224.64 
L 127.890964 224.64 
L 127.890964 104.652101 
L 126.377012 104.652101 
z
" clip-path="url(#p4fd068ea33)" style="fill: #1f77b4"/>
   </g>
   <g id="patch_48">
    <path d="M 127.890964 224.64 
L 129.404916 224.64 
L 129.404916 94.906891 
L 127.890964 94.906891 
z
" clip-path="url(#p4fd068ea33)" style="fill: #1f77b4"/>
   </g>
   <g id="patch_49">
    <path d="M 129.404916 224.64 
L 130.918867 224.64 
L 130.918867 105.261176 
L 129.404916 105.261176 
z
" clip-path="url(#p4fd068ea33)" style="fill: #1f77b4"/>
   </g>
   <g id="patch_50">
    <path d="M 130.918867 224.64 
L 132.432819 224.64 
L 132.432819 79.68 
L 130.918867 79.68 
z
" clip-path="url(#p4fd068ea33)" style="fill: #1f77b4"/>
   </g>
   <g id="patch_51">
    <path d="M 132.432819 224.64 
L 133.946771 224.64 
L 133.946771 103.43395 
L 132.432819 103.43395 
z
" clip-path="url(#p4fd068ea33)" style="fill: #1f77b4"/>
   </g>
   <g id="patch_52">
    <path d="M 133.946771 224.64 
L 135.460723 224.64 
L 135.460723 96.734118 
L 133.946771 96.734118 
z
" clip-path="url(#p4fd068ea33)" style="fill: #1f77b4"/>
   </g>
   <g id="patch_53">
    <path d="M 135.460723 224.64 
L 136.974675 224.64 
L 136.974675 96.125042 
L 135.460723 96.125042 
z
" clip-path="url(#p4fd068ea33)" style="fill: #1f77b4"/>
   </g>
   <g id="patch_54">
    <path d="M 136.974675 224.64 
L 138.488627 224.64 
L 138.488627 99.779496 
L 136.974675 99.779496 
z
" clip-path="url(#p4fd068ea33)" style="fill: #1f77b4"/>
   </g>
   <g id="patch_55">
    <path d="M 138.488627 224.64 
L 140.002578 224.64 
L 140.002578 93.079664 
L 138.488627 93.079664 
z
" clip-path="url(#p4fd068ea33)" style="fill: #1f77b4"/>
   </g>
   <g id="patch_56">
    <path d="M 140.002578 224.64 
L 141.51653 224.64 
L 141.51653 89.42521 
L 140.002578 89.42521 
z
" clip-path="url(#p4fd068ea33)" style="fill: #1f77b4"/>
   </g>
   <g id="patch_57">
    <path d="M 141.51653 224.64 
L 143.030482 224.64 
L 143.030482 106.479328 
L 141.51653 106.479328 
z
" clip-path="url(#p4fd068ea33)" style="fill: #1f77b4"/>
   </g>
   <g id="patch_58">
    <path d="M 143.030482 224.64 
L 144.544434 224.64 
L 144.544434 83.943529 
L 143.030482 83.943529 
z
" clip-path="url(#p4fd068ea33)" style="fill: #1f77b4"/>
   </g>
   <g id="patch_59">
    <path d="M 144.544434 224.64 
L 146.058386 224.64 
L 146.058386 63.234958 
L 144.544434 63.234958 
z
" clip-path="url(#p4fd068ea33)" style="fill: #1f77b4"/>
   </g>
   <g id="patch_60">
    <path d="M 146.058386 224.64 
L 147.572337 224.64 
L 147.572337 65.671261 
L 146.058386 65.671261 
z
" clip-path="url(#p4fd068ea33)" style="fill: #1f77b4"/>
   </g>
   <g id="patch_61">
    <path d="M 147.572337 224.64 
L 149.086289 224.64 
L 149.086289 69.93479 
L 147.572337 69.93479 
z
" clip-path="url(#p4fd068ea33)" style="fill: #1f77b4"/>
   </g>
   <g id="patch_62">
    <path d="M 149.086289 224.64 
L 150.600241 224.64 
L 150.600241 57.144202 
L 149.086289 57.144202 
z
" clip-path="url(#p4fd068ea33)" style="fill: #1f77b4"/>
   </g>
   <g id="patch_63">
    <path d="M 150.600241 224.64 
L 152.114193 224.64 
L 152.114193 48.617143 
L 150.600241 48.617143 
z
" clip-path="url(#p4fd068ea33)" style="fill: #1f77b4"/>
   </g>
   <g id="patch_64">
    <path d="M 152.114193 224.64 
L 153.628145 224.64 
L 153.628145 68.716639 
L 152.114193 68.716639 
z
" clip-path="url(#p4fd068ea33)" style="fill: #1f77b4"/>
   </g>
   <g id="patch_65">
    <path d="M 153.628145 224.64 
L 155.142096 224.64 
L 155.142096 49.226218 
L 153.628145 49.226218 
z
" clip-path="url(#p4fd068ea33)" style="fill: #1f77b4"/>
   </g>
   <g id="patch_66">
    <path d="M 155.142096 224.64 
L 156.656048 224.64 
L 156.656048 54.707899 
L 155.142096 54.707899 
z
" clip-path="url(#p4fd068ea33)" style="fill: #1f77b4"/>
   </g>
   <g id="patch_67">
    <path d="M 156.656048 224.64 
L 158.17 224.64 
L 158.17 64.453109 
L 156.656048 64.453109 
z
" clip-path="url(#p4fd068ea33)" style="fill: #1f77b4"/>
   </g>
   <g id="patch_68">
    <path d="M 158.17 224.64 
L 159.683952 224.64 
L 159.683952 62.016807 
L 158.17 62.016807 
z
" clip-path="url(#p4fd068ea33)" style="fill: #1f77b4"/>
   </g>
   <g id="patch_69">
    <path d="M 159.683952 224.64 
L 161.197904 224.64 
L 161.197904 68.107563 
L 159.683952 68.107563 
z
" clip-path="url(#p4fd068ea33)" style="fill: #1f77b4"/>
   </g>
   <g id="patch_70">
    <path d="M 161.197904 224.64 
L 162.711855 224.64 
L 162.711855 57.144202 
L 161.197904 57.144202 
z
" clip-path="url(#p4fd068ea33)" style="fill: #1f77b4"/>
   </g>
   <g id="patch_71">
    <path d="M 162.711855 224.64 
L 164.225807 224.64 
L 164.225807 63.234958 
L 162.711855 63.234958 
z
" clip-path="url(#p4fd068ea33)" style="fill: #1f77b4"/>
   </g>
   <g id="patch_72">
    <path d="M 164.225807 224.64 
L 165.739759 224.64 
L 165.739759 70.543866 
L 164.225807 70.543866 
z
" clip-path="url(#p4fd068ea33)" style="fill: #1f77b4"/>
   </g>
   <g id="patch_73">
    <path d="M 165.739759 224.64 
L 167.253711 224.64 
L 167.253711 48.008067 
L 165.739759 48.008067 
z
" clip-path="url(#p4fd068ea33)" style="fill: #1f77b4"/>
   </g>
   <g id="patch_74">
    <path d="M 167.253711 224.64 
L 168.767663 224.64 
L 168.767663 58.362353 
L 167.253711 58.362353 
z
" clip-path="url(#p4fd068ea33)" style="fill: #1f77b4"/>
   </g>
   <g id="patch_75">
    <path d="M 168.767663 224.64 
L 170.281615 224.64 
L 170.281615 38.871933 
L 168.767663 38.871933 
z
" clip-path="url(#p4fd068ea33)" style="fill: #1f77b4"/>
   </g>
   <g id="patch_76">
    <path d="M 170.281615 224.64 
L 171.795566 224.64 
L 171.795566 38.871933 
L 170.281615 38.871933 
z
" clip-path="url(#p4fd068ea33)" style="fill: #1f77b4"/>
   </g>
   <g id="patch_77">
    <path d="M 171.795566 224.64 
L 173.309518 224.64 
L 173.309518 43.135462 
L 171.795566 43.135462 
z
" clip-path="url(#p4fd068ea33)" style="fill: #1f77b4"/>
   </g>
   <g id="patch_78">
    <path d="M 173.309518 224.64 
L 174.82347 224.64 
L 174.82347 54.098824 
L 173.309518 54.098824 
z
" clip-path="url(#p4fd068ea33)" style="fill: #1f77b4"/>
   </g>
   <g id="patch_79">
    <path d="M 174.82347 224.64 
L 176.337422 224.64 
L 176.337422 53.489748 
L 174.82347 53.489748 
z
" clip-path="url(#p4fd068ea33)" style="fill: #1f77b4"/>
   </g>
   <g id="patch_80">
    <path d="M 176.337422 224.64 
L 177.851374 224.64 
L 177.851374 21.817815 
L 176.337422 21.817815 
z
" clip-path="url(#p4fd068ea33)" style="fill: #1f77b4"/>
   </g>
   <g id="patch_81">
    <path d="M 177.851374 224.64 
L 179.365325 224.64 
L 179.365325 58.362353 
L 177.851374 58.362353 
z
" clip-path="url(#p4fd068ea33)" style="fill: #1f77b4"/>
   </g>
   <g id="patch_82">
    <path d="M 179.365325 224.64 
L 180.879277 224.64 
L 180.879277 52.271597 
L 179.365325 52.271597 
z
" clip-path="url(#p4fd068ea33)" style="fill: #1f77b4"/>
   </g>
   <g id="patch_83">
    <path d="M 180.879277 224.64 
L 182.393229 224.64 
L 182.393229 19.381513 
L 180.879277 19.381513 
z
" clip-path="url(#p4fd068ea33)" style="fill: #1f77b4"/>
   </g>
   <g id="patch_84">
    <path d="M 182.393229 224.64 
L 183.907181 224.64 
L 183.907181 43.744538 
L 182.393229 43.744538 
z
" clip-path="url(#p4fd068ea33)" style="fill: #1f77b4"/>
   </g>
   <g id="patch_85">
    <path d="M 183.907181 224.64 
L 185.421133 224.64 
L 185.421133 48.008067 
L 183.907181 48.008067 
z
" clip-path="url(#p4fd068ea33)" style="fill: #1f77b4"/>
   </g>
   <g id="patch_86">
    <path d="M 185.421133 224.64 
L 186.935084 224.64 
L 186.935084 43.744538 
L 185.421133 43.744538 
z
" clip-path="url(#p4fd068ea33)" style="fill: #1f77b4"/>
   </g>
   <g id="patch_87">
    <path d="M 186.935084 224.64 
L 188.449036 224.64 
L 188.449036 37.044706 
L 186.935084 37.044706 
z
" clip-path="url(#p4fd068ea33)" style="fill: #1f77b4"/>
   </g>
   <g id="patch_88">
    <path d="M 188.449036 224.64 
L 189.962988 224.64 
L 189.962988 54.707899 
L 188.449036 54.707899 
z
" clip-path="url(#p4fd068ea33)" style="fill: #1f77b4"/>
   </g>
   <g id="patch_89">
    <path d="M 189.962988 224.64 
L 191.47694 224.64 
L 191.47694 44.353613 
L 189.962988 44.353613 
z
" clip-path="url(#p4fd068ea33)" style="fill: #1f77b4"/>
   </g>
   <g id="patch_90">
    <path d="M 191.47694 224.64 
L 192.990892 224.64 
L 192.990892 46.789916 
L 191.47694 46.789916 
z
" clip-path="url(#p4fd068ea33)" style="fill: #1f77b4"/>
   </g>
   <g id="patch_91">
    <path d="M 192.990892 224.64 
L 194.504844 224.64 
L 194.504844 32.172101 
L 192.990892 32.172101 
z
" clip-path="url(#p4fd068ea33)" style="fill: #1f77b4"/>
   </g>
   <g id="patch_92">
    <path d="M 194.504844 224.64 
L 196.018795 224.64 
L 196.018795 18.772437 
L 194.504844 18.772437 
z
" clip-path="url(#p4fd068ea33)" style="fill: #1f77b4"/>
   </g>
   <g id="patch_93">
    <path d="M 196.018795 224.64 
L 197.532747 224.64 
L 197.532747 27.908571 
L 196.018795 27.908571 
z
" clip-path="url(#p4fd068ea33)" style="fill: #1f77b4"/>
   </g>
   <g id="patch_94">
    <path d="M 197.532747 224.64 
L 199.046699 224.64 
L 199.046699 19.381513 
L 197.532747 19.381513 
z
" clip-path="url(#p4fd068ea33)" style="fill: #1f77b4"/>
   </g>
   <g id="patch_95">
    <path d="M 199.046699 224.64 
L 200.560651 224.64 
L 200.560651 43.744538 
L 199.046699 43.744538 
z
" clip-path="url(#p4fd068ea33)" style="fill: #1f77b4"/>
   </g>
   <g id="patch_96">
    <path d="M 200.560651 224.64 
L 202.074603 224.64 
L 202.074603 26.69042 
L 200.560651 26.69042 
z
" clip-path="url(#p4fd068ea33)" style="fill: #1f77b4"/>
   </g>
   <g id="patch_97">
    <path d="M 202.074603 224.64 
L 203.588554 224.64 
L 203.588554 30.95395 
L 202.074603 30.95395 
z
" clip-path="url(#p4fd068ea33)" style="fill: #1f77b4"/>
   </g>
   <g id="patch_98">
    <path d="M 203.588554 224.64 
L 205.102506 224.64 
L 205.102506 45.571765 
L 203.588554 45.571765 
z
" clip-path="url(#p4fd068ea33)" style="fill: #1f77b4"/>
   </g>
   <g id="patch_99">
    <path d="M 205.102506 224.64 
L 206.616458 224.64 
L 206.616458 30.344874 
L 205.102506 30.344874 
z
" clip-path="url(#p4fd068ea33)" style="fill: #1f77b4"/>
   </g>
   <g id="patch_100">
    <path d="M 206.616458 224.64 
L 208.13041 224.64 
L 208.13041 57.753277 
L 206.616458 57.753277 
z
" clip-path="url(#p4fd068ea33)" style="fill: #1f77b4"/>
   </g>
   <g id="patch_101">
    <path d="M 208.13041 224.64 
L 209.644362 224.64 
L 209.644362 39.481008 
L 208.13041 39.481008 
z
" clip-path="url(#p4fd068ea33)" style="fill: #1f77b4"/>
   </g>
   <g id="patch_102">
    <path d="M 209.644362 224.64 
L 211.158313 224.64 
L 211.158313 44.962689 
L 209.644362 44.962689 
z
" clip-path="url(#p4fd068ea33)" style="fill: #1f77b4"/>
   </g>
   <g id="patch_103">
    <path d="M 211.158313 224.64 
L 212.672265 224.64 
L 212.672265 31.563025 
L 211.158313 31.563025 
z
" clip-path="url(#p4fd068ea33)" style="fill: #1f77b4"/>
   </g>
   <g id="patch_104">
    <path d="M 212.672265 224.64 
L 214.186217 224.64 
L 214.186217 48.617143 
L 212.672265 48.617143 
z
" clip-path="url(#p4fd068ea33)" style="fill: #1f77b4"/>
   </g>
   <g id="patch_105">
    <path d="M 214.186217 224.64 
L 215.700169 224.64 
L 215.700169 27.908571 
L 214.186217 27.908571 
z
" clip-path="url(#p4fd068ea33)" style="fill: #1f77b4"/>
   </g>
   <g id="patch_106">
    <path d="M 215.700169 224.64 
L 217.214121 224.64 
L 217.214121 29.735798 
L 215.700169 29.735798 
z
" clip-path="url(#p4fd068ea33)" style="fill: #1f77b4"/>
   </g>
   <g id="patch_107">
    <path d="M 217.214121 224.64 
L 218.728072 224.64 
L 218.728072 39.481008 
L 217.214121 39.481008 
z
" clip-path="url(#p4fd068ea33)" style="fill: #1f77b4"/>
   </g>
   <g id="patch_108">
    <path d="M 218.728072 224.64 
L 220.242024 224.64 
L 220.242024 40.69916 
L 218.728072 40.69916 
z
" clip-path="url(#p4fd068ea33)" style="fill: #1f77b4"/>
   </g>
   <g id="patch_109">
    <path d="M 220.242024 224.64 
L 221.755976 224.64 
L 221.755976 40.69916 
L 220.242024 40.69916 
z
" clip-path="url(#p4fd068ea33)" style="fill: #1f77b4"/>
   </g>
   <g id="patch_110">
    <path d="M 221.755976 224.64 
L 223.269928 224.64 
L 223.269928 49.226218 
L 221.755976 49.226218 
z
" clip-path="url(#p4fd068ea33)" style="fill: #1f77b4"/>
   </g>
   <g id="patch_111">
    <path d="M 223.269928 224.64 
L 224.78388 224.64 
L 224.78388 51.662521 
L 223.269928 51.662521 
z
" clip-path="url(#p4fd068ea33)" style="fill: #1f77b4"/>
   </g>
   <g id="patch_112">
    <path d="M 224.78388 224.64 
L 226.297832 224.64 
L 226.297832 52.271597 
L 224.78388 52.271597 
z
" clip-path="url(#p4fd068ea33)" style="fill: #1f77b4"/>
   </g>
   <g id="patch_113">
    <path d="M 226.297832 224.64 
L 227.811783 224.64 
L 227.811783 20.599664 
L 226.297832 20.599664 
z
" clip-path="url(#p4fd068ea33)" style="fill: #1f77b4"/>
   </g>
   <g id="patch_114">
    <path d="M 227.811783 224.64 
L 229.325735 224.64 
L 229.325735 17.554286 
L 227.811783 17.554286 
z
" clip-path="url(#p4fd068ea33)" style="fill: #1f77b4"/>
   </g>
   <g id="patch_115">
    <path d="M 229.325735 224.64 
L 230.839687 224.64 
L 230.839687 35.826555 
L 229.325735 35.826555 
z
" clip-path="url(#p4fd068ea33)" style="fill: #1f77b4"/>
   </g>
   <g id="patch_116">
    <path d="M 230.839687 224.64 
L 232.353639 224.64 
L 232.353639 35.826555 
L 230.839687 35.826555 
z
" clip-path="url(#p4fd068ea33)" style="fill: #1f77b4"/>
   </g>
   <g id="patch_117">
    <path d="M 232.353639 224.64 
L 233.867591 224.64 
L 233.867591 46.18084 
L 232.353639 46.18084 
z
" clip-path="url(#p4fd068ea33)" style="fill: #1f77b4"/>
   </g>
   <g id="patch_118">
    <path d="M 233.867591 224.64 
L 235.381542 224.64 
L 235.381542 51.662521 
L 233.867591 51.662521 
z
" clip-path="url(#p4fd068ea33)" style="fill: #1f77b4"/>
   </g>
   <g id="patch_119">
    <path d="M 235.381542 224.64 
L 236.895494 224.64 
L 236.895494 40.090084 
L 235.381542 40.090084 
z
" clip-path="url(#p4fd068ea33)" style="fill: #1f77b4"/>
   </g>
   <g id="patch_120">
    <path d="M 236.895494 224.64 
L 238.409446 224.64 
L 238.409446 31.563025 
L 236.895494 31.563025 
z
" clip-path="url(#p4fd068ea33)" style="fill: #1f77b4"/>
   </g>
   <g id="patch_121">
    <path d="M 238.409446 224.64 
L 239.923398 224.64 
L 239.923398 53.489748 
L 238.409446 53.489748 
z
" clip-path="url(#p4fd068ea33)" style="fill: #1f77b4"/>
   </g>
   <g id="patch_122">
    <path d="M 239.923398 224.64 
L 241.43735 224.64 
L 241.43735 46.789916 
L 239.923398 46.789916 
z
" clip-path="url(#p4fd068ea33)" style="fill: #1f77b4"/>
   </g>
   <g id="patch_123">
    <path d="M 241.43735 224.64 
L 242.951301 224.64 
L 242.951301 33.999328 
L 241.43735 33.999328 
z
" clip-path="url(#p4fd068ea33)" style="fill: #1f77b4"/>
   </g>
   <g id="patch_124">
    <path d="M 242.951301 224.64 
L 244.465253 224.64 
L 244.465253 52.880672 
L 242.951301 52.880672 
z
" clip-path="url(#p4fd068ea33)" style="fill: #1f77b4"/>
   </g>
   <g id="patch_125">
    <path d="M 244.465253 224.64 
L 245.979205 224.64 
L 245.979205 44.962689 
L 244.465253 44.962689 
z
" clip-path="url(#p4fd068ea33)" style="fill: #1f77b4"/>
   </g>
   <g id="patch_126">
    <path d="M 245.979205 224.64 
L 247.493157 224.64 
L 247.493157 41.308235 
L 245.979205 41.308235 
z
" clip-path="url(#p4fd068ea33)" style="fill: #1f77b4"/>
   </g>
   <g id="patch_127">
    <path d="M 247.493157 224.64 
L 249.007109 224.64 
L 249.007109 38.871933 
L 247.493157 38.871933 
z
" clip-path="url(#p4fd068ea33)" style="fill: #1f77b4"/>
   </g>
   <g id="patch_128">
    <path d="M 249.007109 224.64 
L 250.521061 224.64 
L 250.521061 41.308235 
L 249.007109 41.308235 
z
" clip-path="url(#p4fd068ea33)" style="fill: #1f77b4"/>
   </g>
   <g id="patch_129">
    <path d="M 250.521061 224.64 
L 252.035012 224.64 
L 252.035012 41.917311 
L 250.521061 41.917311 
z
" clip-path="url(#p4fd068ea33)" style="fill: #1f77b4"/>
   </g>
   <g id="patch_130">
    <path d="M 252.035012 224.64 
L 253.548964 224.64 
L 253.548964 52.880672 
L 252.035012 52.880672 
z
" clip-path="url(#p4fd068ea33)" style="fill: #1f77b4"/>
   </g>
   <g id="patch_131">
    <path d="M 253.548964 224.64 
L 255.062916 224.64 
L 255.062916 43.135462 
L 253.548964 43.135462 
z
" clip-path="url(#p4fd068ea33)" style="fill: #1f77b4"/>
   </g>
   <g id="patch_132">
    <path d="M 255.062916 224.64 
L 256.576868 224.64 
L 256.576868 41.917311 
L 255.062916 41.917311 
z
" clip-path="url(#p4fd068ea33)" style="fill: #1f77b4"/>
   </g>
   <g id="patch_133">
    <path d="M 256.576868 224.64 
L 258.09082 224.64 
L 258.09082 58.971429 
L 256.576868 58.971429 
z
" clip-path="url(#p4fd068ea33)" style="fill: #1f77b4"/>
   </g>
   <g id="patch_134">
    <path d="M 258.09082 224.64 
L 259.604771 224.64 
L 259.604771 77.243697 
L 258.09082 77.243697 
z
" clip-path="url(#p4fd068ea33)" style="fill: #1f77b4"/>
   </g>
   <g id="patch_135">
    <path d="M 259.604771 224.64 
L 261.118723 224.64 
L 261.118723 41.308235 
L 259.604771 41.308235 
z
" clip-path="url(#p4fd068ea33)" style="fill: #1f77b4"/>
   </g>
   <g id="patch_136">
    <path d="M 261.118723 224.64 
L 262.632675 224.64 
L 262.632675 60.798655 
L 261.118723 60.798655 
z
" clip-path="url(#p4fd068ea33)" style="fill: #1f77b4"/>
   </g>
   <g id="patch_137">
    <path d="M 262.632675 224.64 
L 264.146627 224.64 
L 264.146627 76.634622 
L 262.632675 76.634622 
z
" clip-path="url(#p4fd068ea33)" style="fill: #1f77b4"/>
   </g>
   <g id="patch_138">
    <path d="M 264.146627 224.64 
L 265.660579 224.64 
L 265.660579 52.271597 
L 264.146627 52.271597 
z
" clip-path="url(#p4fd068ea33)" style="fill: #1f77b4"/>
   </g>
   <g id="patch_139">
    <path d="M 265.660579 224.64 
L 267.17453 224.64 
L 267.17453 68.716639 
L 265.660579 68.716639 
z
" clip-path="url(#p4fd068ea33)" style="fill: #1f77b4"/>
   </g>
   <g id="patch_140">
    <path d="M 267.17453 224.64 
L 268.688482 224.64 
L 268.688482 67.498487 
L 267.17453 67.498487 
z
" clip-path="url(#p4fd068ea33)" style="fill: #1f77b4"/>
   </g>
   <g id="patch_141">
    <path d="M 268.688482 224.64 
L 270.202434 224.64 
L 270.202434 56.535126 
L 268.688482 56.535126 
z
" clip-path="url(#p4fd068ea33)" style="fill: #1f77b4"/>
   </g>
   <g id="patch_142">
    <path d="M 270.202434 224.64 
L 271.716386 224.64 
L 271.716386 82.725378 
L 270.202434 82.725378 
z
" clip-path="url(#p4fd068ea33)" style="fill: #1f77b4"/>
   </g>
   <g id="patch_143">
    <path d="M 271.716386 224.64 
L 273.230338 224.64 
L 273.230338 69.325714 
L 271.716386 69.325714 
z
" clip-path="url(#p4fd068ea33)" style="fill: #1f77b4"/>
   </g>
   <g id="patch_144">
    <path d="M 273.230338 224.64 
L 274.744289 224.64 
L 274.744289 71.152941 
L 273.230338 71.152941 
z
" clip-path="url(#p4fd068ea33)" style="fill: #1f77b4"/>
   </g>
   <g id="patch_145">
    <path d="M 274.744289 224.64 
L 276.258241 224.64 
L 276.258241 80.289076 
L 274.744289 80.289076 
z
" clip-path="url(#p4fd068ea33)" style="fill: #1f77b4"/>
   </g>
   <g id="patch_146">
    <path d="M 276.258241 224.64 
L 277.772193 224.64 
L 277.772193 65.062185 
L 276.258241 65.062185 
z
" clip-path="url(#p4fd068ea33)" style="fill: #1f77b4"/>
   </g>
   <g id="patch_147">
    <path d="M 277.772193 224.64 
L 279.286145 224.64 
L 279.286145 88.207059 
L 277.772193 88.207059 
z
" clip-path="url(#p4fd068ea33)" style="fill: #1f77b4"/>
   </g>
   <g id="patch_148">
    <path d="M 279.286145 224.64 
L 280.800097 224.64 
L 280.800097 85.161681 
L 279.286145 85.161681 
z
" clip-path="url(#p4fd068ea33)" style="fill: #1f77b4"/>
   </g>
   <g id="patch_149">
    <path d="M 280.800097 224.64 
L 282.314049 224.64 
L 282.314049 93.688739 
L 280.800097 93.688739 
z
" clip-path="url(#p4fd068ea33)" style="fill: #1f77b4"/>
   </g>
   <g id="patch_150">
    <path d="M 282.314049 224.64 
L 283.828 224.64 
L 283.828 91.252437 
L 282.314049 91.252437 
z
" clip-path="url(#p4fd068ea33)" style="fill: #1f77b4"/>
   </g>
   <g id="patch_151">
    <path d="M 283.828 224.64 
L 285.341952 224.64 
L 285.341952 82.725378 
L 283.828 82.725378 
z
" clip-path="url(#p4fd068ea33)" style="fill: #1f77b4"/>
   </g>
   <g id="patch_152">
    <path d="M 285.341952 224.64 
L 286.855904 224.64 
L 286.855904 86.988908 
L 285.341952 86.988908 
z
" clip-path="url(#p4fd068ea33)" style="fill: #1f77b4"/>
   </g>
   <g id="patch_153">
    <path d="M 286.855904 224.64 
L 288.369856 224.64 
L 288.369856 69.93479 
L 286.855904 69.93479 
z
" clip-path="url(#p4fd068ea33)" style="fill: #1f77b4"/>
   </g>
   <g id="patch_154">
    <path d="M 288.369856 224.64 
L 289.883808 224.64 
L 289.883808 96.125042 
L 288.369856 96.125042 
z
" clip-path="url(#p4fd068ea33)" style="fill: #1f77b4"/>
   </g>
   <g id="patch_155">
    <path d="M 289.883808 224.64 
L 291.397759 224.64 
L 291.397759 96.125042 
L 289.883808 96.125042 
z
" clip-path="url(#p4fd068ea33)" style="fill: #1f77b4"/>
   </g>
   <g id="patch_156">
    <path d="M 291.397759 224.64 
L 292.911711 224.64 
L 292.911711 98.561345 
L 291.397759 98.561345 
z
" clip-path="url(#p4fd068ea33)" style="fill: #1f77b4"/>
   </g>
   <g id="patch_157">
    <path d="M 292.911711 224.64 
L 294.425663 224.64 
L 294.425663 98.561345 
L 292.911711 98.561345 
z
" clip-path="url(#p4fd068ea33)" style="fill: #1f77b4"/>
   </g>
   <g id="patch_158">
    <path d="M 294.425663 224.64 
L 295.939615 224.64 
L 295.939615 90.034286 
L 294.425663 90.034286 
z
" clip-path="url(#p4fd068ea33)" style="fill: #1f77b4"/>
   </g>
   <g id="patch_159">
    <path d="M 295.939615 224.64 
L 297.453567 224.64 
L 297.453567 88.816134 
L 295.939615 88.816134 
z
" clip-path="url(#p4fd068ea33)" style="fill: #1f77b4"/>
   </g>
   <g id="patch_160">
    <path d="M 297.453567 224.64 
L 298.967518 224.64 
L 298.967518 110.742857 
L 297.453567 110.742857 
z
" clip-path="url(#p4fd068ea33)" style="fill: #1f77b4"/>
   </g>
   <g id="patch_161">
    <path d="M 298.967518 224.64 
L 300.48147 224.64 
L 300.48147 115.615462 
L 298.967518 115.615462 
z
" clip-path="url(#p4fd068ea33)" style="fill: #1f77b4"/>
   </g>
   <g id="patch_162">
    <path d="M 300.48147 224.64 
L 301.995422 224.64 
L 301.995422 105.261176 
L 300.48147 105.261176 
z
" clip-path="url(#p4fd068ea33)" style="fill: #1f77b4"/>
   </g>
   <g id="patch_163">
    <path d="M 301.995422 224.64 
L 303.509374 224.64 
L 303.509374 116.833613 
L 301.995422 116.833613 
z
" clip-path="url(#p4fd068ea33)" style="fill: #1f77b4"/>
   </g>
   <g id="patch_164">
    <path d="M 303.509374 224.64 
L 305.023326 224.64 
L 305.023326 124.751597 
L 303.509374 124.751597 
z
" clip-path="url(#p4fd068ea33)" style="fill: #1f77b4"/>
   </g>
   <g id="patch_165">
    <path d="M 305.023326 224.64 
L 306.537278 224.64 
L 306.537278 125.969748 
L 305.023326 125.969748 
z
" clip-path="url(#p4fd068ea33)" style="fill: #1f77b4"/>
   </g>
   <g id="patch_166">
    <path d="M 306.537278 224.64 
L 308.051229 224.64 
L 308.051229 123.533445 
L 306.537278 123.533445 
z
" clip-path="url(#p4fd068ea33)" style="fill: #1f77b4"/>
   </g>
   <g id="patch_167">
    <path d="M 308.051229 224.64 
L 309.565181 224.64 
L 309.565181 121.097143 
L 308.051229 121.097143 
z
" clip-path="url(#p4fd068ea33)" style="fill: #1f77b4"/>
   </g>
   <g id="patch_168">
    <path d="M 309.565181 224.64 
L 311.079133 224.64 
L 311.079133 119.878992 
L 309.565181 119.878992 
z
" clip-path="url(#p4fd068ea33)" style="fill: #1f77b4"/>
   </g>
   <g id="patch_169">
    <path d="M 311.079133 224.64 
L 312.593085 224.64 
L 312.593085 126.578824 
L 311.079133 126.578824 
z
" clip-path="url(#p4fd068ea33)" style="fill: #1f77b4"/>
   </g>
   <g id="patch_170">
    <path d="M 312.593085 224.64 
L 314.107037 224.64 
L 314.107037 127.187899 
L 312.593085 127.187899 
z
" clip-path="url(#p4fd068ea33)" style="fill: #1f77b4"/>
   </g>
   <g id="patch_171">
    <path d="M 314.107037 224.64 
L 315.620988 224.64 
L 315.620988 138.760336 
L 314.107037 138.760336 
z
" clip-path="url(#p4fd068ea33)" style="fill: #1f77b4"/>
   </g>
   <g id="patch_172">
    <path d="M 315.620988 224.64 
L 317.13494 224.64 
L 317.13494 147.896471 
L 315.620988 147.896471 
z
" clip-path="url(#p4fd068ea33)" style="fill: #1f77b4"/>
   </g>
   <g id="patch_173">
    <path d="M 317.13494 224.64 
L 318.648892 224.64 
L 318.648892 143.023866 
L 317.13494 143.023866 
z
" clip-path="url(#p4fd068ea33)" style="fill: #1f77b4"/>
   </g>
   <g id="patch_174">
    <path d="M 318.648892 224.64 
L 320.162844 224.64 
L 320.162844 132.060504 
L 318.648892 132.060504 
z
" clip-path="url(#p4fd068ea33)" style="fill: #1f77b4"/>
   </g>
   <g id="patch_175">
    <path d="M 320.162844 224.64 
L 321.676796 224.64 
L 321.676796 140.587563 
L 320.162844 140.587563 
z
" clip-path="url(#p4fd068ea33)" style="fill: #1f77b4"/>
   </g>
   <g id="patch_176">
    <path d="M 321.676796 224.64 
L 323.190747 224.64 
L 323.190747 149.114622 
L 321.676796 149.114622 
z
" clip-path="url(#p4fd068ea33)" style="fill: #1f77b4"/>
   </g>
   <g id="patch_177">
    <path d="M 323.190747 224.64 
L 324.704699 224.64 
L 324.704699 146.678319 
L 323.190747 146.678319 
z
" clip-path="url(#p4fd068ea33)" style="fill: #1f77b4"/>
   </g>
   <g id="patch_178">
    <path d="M 324.704699 224.64 
L 326.218651 224.64 
L 326.218651 144.851092 
L 324.704699 144.851092 
z
" clip-path="url(#p4fd068ea33)" style="fill: #1f77b4"/>
   </g>
   <g id="patch_179">
    <path d="M 326.218651 224.64 
L 327.732603 224.64 
L 327.732603 153.378151 
L 326.218651 153.378151 
z
" clip-path="url(#p4fd068ea33)" style="fill: #1f77b4"/>
   </g>
   <g id="patch_180">
    <path d="M 327.732603 224.64 
L 329.246555 224.64 
L 329.246555 155.205378 
L 327.732603 155.205378 
z
" clip-path="url(#p4fd068ea33)" style="fill: #1f77b4"/>
   </g>
   <g id="patch_181">
    <path d="M 329.246555 224.64 
L 330.760506 224.64 
L 330.760506 156.423529 
L 329.246555 156.423529 
z
" clip-path="url(#p4fd068ea33)" style="fill: #1f77b4"/>
   </g>
   <g id="patch_182">
    <path d="M 330.760506 224.64 
L 332.274458 224.64 
L 332.274458 161.296134 
L 330.760506 161.296134 
z
" clip-path="url(#p4fd068ea33)" style="fill: #1f77b4"/>
   </g>
   <g id="patch_183">
    <path d="M 332.274458 224.64 
L 333.78841 224.64 
L 333.78841 165.559664 
L 332.274458 165.559664 
z
" clip-path="url(#p4fd068ea33)" style="fill: #1f77b4"/>
   </g>
   <g id="patch_184">
    <path d="M 333.78841 224.64 
L 335.302362 224.64 
L 335.302362 161.90521 
L 333.78841 161.90521 
z
" clip-path="url(#p4fd068ea33)" style="fill: #1f77b4"/>
   </g>
   <g id="patch_185">
    <path d="M 335.302362 224.64 
L 336.816314 224.64 
L 336.816314 172.259496 
L 335.302362 172.259496 
z
" clip-path="url(#p4fd068ea33)" style="fill: #1f77b4"/>
   </g>
   <g id="patch_186">
    <path d="M 336.816314 224.64 
L 338.330266 224.64 
L 338.330266 177.741176 
L 336.816314 177.741176 
z
" clip-path="url(#p4fd068ea33)" style="fill: #1f77b4"/>
   </g>
   <g id="patch_187">
    <path d="M 338.330266 224.64 
L 339.844217 224.64 
L 339.844217 175.304874 
L 338.330266 175.304874 
z
" clip-path="url(#p4fd068ea33)" style="fill: #1f77b4"/>
   </g>
   <g id="patch_188">
    <path d="M 339.844217 224.64 
L 341.358169 224.64 
L 341.358169 185.65916 
L 339.844217 185.65916 
z
" clip-path="url(#p4fd068ea33)" style="fill: #1f77b4"/>
   </g>
   <g id="patch_189">
    <path d="M 341.358169 224.64 
L 342.872121 224.64 
L 342.872121 182.613782 
L 341.358169 182.613782 
z
" clip-path="url(#p4fd068ea33)" style="fill: #1f77b4"/>
   </g>
   <g id="patch_190">
    <path d="M 342.872121 224.64 
L 344.386073 224.64 
L 344.386073 175.91395 
L 342.872121 175.91395 
z
" clip-path="url(#p4fd068ea33)" style="fill: #1f77b4"/>
   </g>
   <g id="patch_191">
    <path d="M 344.386073 224.64 
L 345.900025 224.64 
L 345.900025 181.39563 
L 344.386073 181.39563 
z
" clip-path="url(#p4fd068ea33)" style="fill: #1f77b4"/>
   </g>
   <g id="patch_192">
    <path d="M 345.900025 224.64 
L 347.413976 224.64 
L 347.413976 199.058824 
L 345.900025 199.058824 
z
" clip-path="url(#p4fd068ea33)" style="fill: #1f77b4"/>
   </g>
   <g id="patch_193">
    <path d="M 347.413976 224.64 
L 348.927928 224.64 
L 348.927928 205.14958 
L 347.413976 205.14958 
z
" clip-path="url(#p4fd068ea33)" style="fill: #1f77b4"/>
   </g>
   <g id="patch_194">
    <path d="M 348.927928 224.64 
L 350.44188 224.64 
L 350.44188 196.622521 
L 348.927928 196.622521 
z
" clip-path="url(#p4fd068ea33)" style="fill: #1f77b4"/>
   </g>
   <g id="patch_195">
    <path d="M 350.44188 224.64 
L 351.955832 224.64 
L 351.955832 192.968067 
L 350.44188 192.968067 
z
" clip-path="url(#p4fd068ea33)" style="fill: #1f77b4"/>
   </g>
   <g id="patch_196">
    <path d="M 351.955832 224.64 
L 353.469784 224.64 
L 353.469784 202.104202 
L 351.955832 202.104202 
z
" clip-path="url(#p4fd068ea33)" style="fill: #1f77b4"/>
   </g>
   <g id="patch_197">
    <path d="M 353.469784 224.64 
L 354.983735 224.64 
L 354.983735 205.758655 
L 353.469784 205.758655 
z
" clip-path="url(#p4fd068ea33)" style="fill: #1f77b4"/>
   </g>
   <g id="patch_198">
    <path d="M 354.983735 224.64 
L 356.497687 224.64 
L 356.497687 212.458487 
L 354.983735 212.458487 
z
" clip-path="url(#p4fd068ea33)" style="fill: #1f77b4"/>
   </g>
   <g id="patch_199">
    <path d="M 356.497687 224.64 
L 358.011639 224.64 
L 358.011639 208.804034 
L 356.497687 208.804034 
z
" clip-path="url(#p4fd068ea33)" style="fill: #1f77b4"/>
   </g>
   <g id="patch_200">
    <path d="M 358.011639 224.64 
L 359.525591 224.64 
L 359.525591 215.503866 
L 358.011639 215.503866 
z
" clip-path="url(#p4fd068ea33)" style="fill: #1f77b4"/>
   </g>
   <g id="patch_201">
    <path d="M 359.525591 224.64 
L 361.039543 224.64 
L 361.039543 216.112941 
L 359.525591 216.112941 
z
" clip-path="url(#p4fd068ea33)" style="fill: #1f77b4"/>
   </g>
   <g id="patch_202">
    <path d="M 361.039543 224.64 
L 362.553495 224.64 
L 362.553495 222.812773 
L 361.039543 222.812773 
z
" clip-path="url(#p4fd068ea33)" style="fill: #1f77b4"/>
   </g>
   <g id="matplotlib.axis_1">
    <g id="xtick_1">
     <g id="line2d_1">
      <defs>
       <path id="m9d776d60d8" d="M 0 0 
L 0 3.5 
" style="stroke: #000000; stroke-width: 0.8"/>
      </defs>
      <g>
       <use xlink:href="#m9d776d60d8" x="58.999432" y="224.64" style="stroke: #000000; stroke-width: 0.8"/>
      </g>
     </g>
     <g id="text_1">
      <!-- 0.0 -->
      <g transform="translate(51.047869 239.238437)scale(0.1 -0.1)">
       <defs>
        <path id="DejaVuSans-30" d="M 2034 4250 
Q 1547 4250 1301 3770 
Q 1056 3291 1056 2328 
Q 1056 1369 1301 889 
Q 1547 409 2034 409 
Q 2525 409 2770 889 
Q 3016 1369 3016 2328 
Q 3016 3291 2770 3770 
Q 2525 4250 2034 4250 
z
M 2034 4750 
Q 2819 4750 3233 4129 
Q 3647 3509 3647 2328 
Q 3647 1150 3233 529 
Q 2819 -91 2034 -91 
Q 1250 -91 836 529 
Q 422 1150 422 2328 
Q 422 3509 836 4129 
Q 1250 4750 2034 4750 
z
" transform="scale(0.015625)"/>
        <path id="DejaVuSans-2e" d="M 684 794 
L 1344 794 
L 1344 0 
L 684 0 
L 684 794 
z
" transform="scale(0.015625)"/>
       </defs>
       <use xlink:href="#DejaVuSans-30"/>
       <use xlink:href="#DejaVuSans-2e" x="63.623047"/>
       <use xlink:href="#DejaVuSans-30" x="95.410156"/>
      </g>
     </g>
    </g>
    <g id="xtick_2">
     <g id="line2d_2">
      <g>
       <use xlink:href="#m9d776d60d8" x="97.752214" y="224.64" style="stroke: #000000; stroke-width: 0.8"/>
      </g>
     </g>
     <g id="text_2">
      <!-- 0.2 -->
      <g transform="translate(89.800651 239.238437)scale(0.1 -0.1)">
       <defs>
        <path id="DejaVuSans-32" d="M 1228 531 
L 3431 531 
L 3431 0 
L 469 0 
L 469 531 
Q 828 903 1448 1529 
Q 2069 2156 2228 2338 
Q 2531 2678 2651 2914 
Q 2772 3150 2772 3378 
Q 2772 3750 2511 3984 
Q 2250 4219 1831 4219 
Q 1534 4219 1204 4116 
Q 875 4013 500 3803 
L 500 4441 
Q 881 4594 1212 4672 
Q 1544 4750 1819 4750 
Q 2544 4750 2975 4387 
Q 3406 4025 3406 3419 
Q 3406 3131 3298 2873 
Q 3191 2616 2906 2266 
Q 2828 2175 2409 1742 
Q 1991 1309 1228 531 
z
" transform="scale(0.015625)"/>
       </defs>
       <use xlink:href="#DejaVuSans-30"/>
       <use xlink:href="#DejaVuSans-2e" x="63.623047"/>
       <use xlink:href="#DejaVuSans-32" x="95.410156"/>
      </g>
     </g>
    </g>
    <g id="xtick_3">
     <g id="line2d_3">
      <g>
       <use xlink:href="#m9d776d60d8" x="136.504995" y="224.64" style="stroke: #000000; stroke-width: 0.8"/>
      </g>
     </g>
     <g id="text_3">
      <!-- 0.4 -->
      <g transform="translate(128.553433 239.238437)scale(0.1 -0.1)">
       <defs>
        <path id="DejaVuSans-34" d="M 2419 4116 
L 825 1625 
L 2419 1625 
L 2419 4116 
z
M 2253 4666 
L 3047 4666 
L 3047 1625 
L 3713 1625 
L 3713 1100 
L 3047 1100 
L 3047 0 
L 2419 0 
L 2419 1100 
L 313 1100 
L 313 1709 
L 2253 4666 
z
" transform="scale(0.015625)"/>
       </defs>
       <use xlink:href="#DejaVuSans-30"/>
       <use xlink:href="#DejaVuSans-2e" x="63.623047"/>
       <use xlink:href="#DejaVuSans-34" x="95.410156"/>
      </g>
     </g>
    </g>
    <g id="xtick_4">
     <g id="line2d_4">
      <g>
       <use xlink:href="#m9d776d60d8" x="175.257777" y="224.64" style="stroke: #000000; stroke-width: 0.8"/>
      </g>
     </g>
     <g id="text_4">
      <!-- 0.6 -->
      <g transform="translate(167.306215 239.238437)scale(0.1 -0.1)">
       <defs>
        <path id="DejaVuSans-36" d="M 2113 2584 
Q 1688 2584 1439 2293 
Q 1191 2003 1191 1497 
Q 1191 994 1439 701 
Q 1688 409 2113 409 
Q 2538 409 2786 701 
Q 3034 994 3034 1497 
Q 3034 2003 2786 2293 
Q 2538 2584 2113 2584 
z
M 3366 4563 
L 3366 3988 
Q 3128 4100 2886 4159 
Q 2644 4219 2406 4219 
Q 1781 4219 1451 3797 
Q 1122 3375 1075 2522 
Q 1259 2794 1537 2939 
Q 1816 3084 2150 3084 
Q 2853 3084 3261 2657 
Q 3669 2231 3669 1497 
Q 3669 778 3244 343 
Q 2819 -91 2113 -91 
Q 1303 -91 875 529 
Q 447 1150 447 2328 
Q 447 3434 972 4092 
Q 1497 4750 2381 4750 
Q 2619 4750 2861 4703 
Q 3103 4656 3366 4563 
z
" transform="scale(0.015625)"/>
       </defs>
       <use xlink:href="#DejaVuSans-30"/>
       <use xlink:href="#DejaVuSans-2e" x="63.623047"/>
       <use xlink:href="#DejaVuSans-36" x="95.410156"/>
      </g>
     </g>
    </g>
    <g id="xtick_5">
     <g id="line2d_5">
      <g>
       <use xlink:href="#m9d776d60d8" x="214.010559" y="224.64" style="stroke: #000000; stroke-width: 0.8"/>
      </g>
     </g>
     <g id="text_5">
      <!-- 0.8 -->
      <g transform="translate(206.058996 239.238437)scale(0.1 -0.1)">
       <defs>
        <path id="DejaVuSans-38" d="M 2034 2216 
Q 1584 2216 1326 1975 
Q 1069 1734 1069 1313 
Q 1069 891 1326 650 
Q 1584 409 2034 409 
Q 2484 409 2743 651 
Q 3003 894 3003 1313 
Q 3003 1734 2745 1975 
Q 2488 2216 2034 2216 
z
M 1403 2484 
Q 997 2584 770 2862 
Q 544 3141 544 3541 
Q 544 4100 942 4425 
Q 1341 4750 2034 4750 
Q 2731 4750 3128 4425 
Q 3525 4100 3525 3541 
Q 3525 3141 3298 2862 
Q 3072 2584 2669 2484 
Q 3125 2378 3379 2068 
Q 3634 1759 3634 1313 
Q 3634 634 3220 271 
Q 2806 -91 2034 -91 
Q 1263 -91 848 271 
Q 434 634 434 1313 
Q 434 1759 690 2068 
Q 947 2378 1403 2484 
z
M 1172 3481 
Q 1172 3119 1398 2916 
Q 1625 2713 2034 2713 
Q 2441 2713 2670 2916 
Q 2900 3119 2900 3481 
Q 2900 3844 2670 4047 
Q 2441 4250 2034 4250 
Q 1625 4250 1398 4047 
Q 1172 3844 1172 3481 
z
" transform="scale(0.015625)"/>
       </defs>
       <use xlink:href="#DejaVuSans-30"/>
       <use xlink:href="#DejaVuSans-2e" x="63.623047"/>
       <use xlink:href="#DejaVuSans-38" x="95.410156"/>
      </g>
     </g>
    </g>
    <g id="xtick_6">
     <g id="line2d_6">
      <g>
       <use xlink:href="#m9d776d60d8" x="252.763341" y="224.64" style="stroke: #000000; stroke-width: 0.8"/>
      </g>
     </g>
     <g id="text_6">
      <!-- 1.0 -->
      <g transform="translate(244.811778 239.238437)scale(0.1 -0.1)">
       <defs>
        <path id="DejaVuSans-31" d="M 794 531 
L 1825 531 
L 1825 4091 
L 703 3866 
L 703 4441 
L 1819 4666 
L 2450 4666 
L 2450 531 
L 3481 531 
L 3481 0 
L 794 0 
L 794 531 
z
" transform="scale(0.015625)"/>
       </defs>
       <use xlink:href="#DejaVuSans-31"/>
       <use xlink:href="#DejaVuSans-2e" x="63.623047"/>
       <use xlink:href="#DejaVuSans-30" x="95.410156"/>
      </g>
     </g>
    </g>
    <g id="xtick_7">
     <g id="line2d_7">
      <g>
       <use xlink:href="#m9d776d60d8" x="291.516122" y="224.64" style="stroke: #000000; stroke-width: 0.8"/>
      </g>
     </g>
     <g id="text_7">
      <!-- 1.2 -->
      <g transform="translate(283.56456 239.238437)scale(0.1 -0.1)">
       <use xlink:href="#DejaVuSans-31"/>
       <use xlink:href="#DejaVuSans-2e" x="63.623047"/>
       <use xlink:href="#DejaVuSans-32" x="95.410156"/>
      </g>
     </g>
    </g>
    <g id="xtick_8">
     <g id="line2d_8">
      <g>
       <use xlink:href="#m9d776d60d8" x="330.268904" y="224.64" style="stroke: #000000; stroke-width: 0.8"/>
      </g>
     </g>
     <g id="text_8">
      <!-- 1.4 -->
      <g transform="translate(322.317342 239.238437)scale(0.1 -0.1)">
       <use xlink:href="#DejaVuSans-31"/>
       <use xlink:href="#DejaVuSans-2e" x="63.623047"/>
       <use xlink:href="#DejaVuSans-34" x="95.410156"/>
      </g>
     </g>
    </g>
    <g id="xtick_9">
     <g id="line2d_9">
      <g>
       <use xlink:href="#m9d776d60d8" x="369.021686" y="224.64" style="stroke: #000000; stroke-width: 0.8"/>
      </g>
     </g>
     <g id="text_9">
      <!-- 1.6 -->
      <g transform="translate(361.070124 239.238437)scale(0.1 -0.1)">
       <use xlink:href="#DejaVuSans-31"/>
       <use xlink:href="#DejaVuSans-2e" x="63.623047"/>
       <use xlink:href="#DejaVuSans-36" x="95.410156"/>
      </g>
     </g>
    </g>
    <g id="text_10">
     <!-- Angle with normal (rad) -->
     <g transform="translate(151.863281 252.916562)scale(0.1 -0.1)">
      <defs>
       <path id="DejaVuSans-41" d="M 2188 4044 
L 1331 1722 
L 3047 1722 
L 2188 4044 
z
M 1831 4666 
L 2547 4666 
L 4325 0 
L 3669 0 
L 3244 1197 
L 1141 1197 
L 716 0 
L 50 0 
L 1831 4666 
z
" transform="scale(0.015625)"/>
       <path id="DejaVuSans-6e" d="M 3513 2113 
L 3513 0 
L 2938 0 
L 2938 2094 
Q 2938 2591 2744 2837 
Q 2550 3084 2163 3084 
Q 1697 3084 1428 2787 
Q 1159 2491 1159 1978 
L 1159 0 
L 581 0 
L 581 3500 
L 1159 3500 
L 1159 2956 
Q 1366 3272 1645 3428 
Q 1925 3584 2291 3584 
Q 2894 3584 3203 3211 
Q 3513 2838 3513 2113 
z
" transform="scale(0.015625)"/>
       <path id="DejaVuSans-67" d="M 2906 1791 
Q 2906 2416 2648 2759 
Q 2391 3103 1925 3103 
Q 1463 3103 1205 2759 
Q 947 2416 947 1791 
Q 947 1169 1205 825 
Q 1463 481 1925 481 
Q 2391 481 2648 825 
Q 2906 1169 2906 1791 
z
M 3481 434 
Q 3481 -459 3084 -895 
Q 2688 -1331 1869 -1331 
Q 1566 -1331 1297 -1286 
Q 1028 -1241 775 -1147 
L 775 -588 
Q 1028 -725 1275 -790 
Q 1522 -856 1778 -856 
Q 2344 -856 2625 -561 
Q 2906 -266 2906 331 
L 2906 616 
Q 2728 306 2450 153 
Q 2172 0 1784 0 
Q 1141 0 747 490 
Q 353 981 353 1791 
Q 353 2603 747 3093 
Q 1141 3584 1784 3584 
Q 2172 3584 2450 3431 
Q 2728 3278 2906 2969 
L 2906 3500 
L 3481 3500 
L 3481 434 
z
" transform="scale(0.015625)"/>
       <path id="DejaVuSans-6c" d="M 603 4863 
L 1178 4863 
L 1178 0 
L 603 0 
L 603 4863 
z
" transform="scale(0.015625)"/>
       <path id="DejaVuSans-65" d="M 3597 1894 
L 3597 1613 
L 953 1613 
Q 991 1019 1311 708 
Q 1631 397 2203 397 
Q 2534 397 2845 478 
Q 3156 559 3463 722 
L 3463 178 
Q 3153 47 2828 -22 
Q 2503 -91 2169 -91 
Q 1331 -91 842 396 
Q 353 884 353 1716 
Q 353 2575 817 3079 
Q 1281 3584 2069 3584 
Q 2775 3584 3186 3129 
Q 3597 2675 3597 1894 
z
M 3022 2063 
Q 3016 2534 2758 2815 
Q 2500 3097 2075 3097 
Q 1594 3097 1305 2825 
Q 1016 2553 972 2059 
L 3022 2063 
z
" transform="scale(0.015625)"/>
       <path id="DejaVuSans-20" transform="scale(0.015625)"/>
       <path id="DejaVuSans-77" d="M 269 3500 
L 844 3500 
L 1563 769 
L 2278 3500 
L 2956 3500 
L 3675 769 
L 4391 3500 
L 4966 3500 
L 4050 0 
L 3372 0 
L 2619 2869 
L 1863 0 
L 1184 0 
L 269 3500 
z
" transform="scale(0.015625)"/>
       <path id="DejaVuSans-69" d="M 603 3500 
L 1178 3500 
L 1178 0 
L 603 0 
L 603 3500 
z
M 603 4863 
L 1178 4863 
L 1178 4134 
L 603 4134 
L 603 4863 
z
" transform="scale(0.015625)"/>
       <path id="DejaVuSans-74" d="M 1172 4494 
L 1172 3500 
L 2356 3500 
L 2356 3053 
L 1172 3053 
L 1172 1153 
Q 1172 725 1289 603 
Q 1406 481 1766 481 
L 2356 481 
L 2356 0 
L 1766 0 
Q 1100 0 847 248 
Q 594 497 594 1153 
L 594 3053 
L 172 3053 
L 172 3500 
L 594 3500 
L 594 4494 
L 1172 4494 
z
" transform="scale(0.015625)"/>
       <path id="DejaVuSans-68" d="M 3513 2113 
L 3513 0 
L 2938 0 
L 2938 2094 
Q 2938 2591 2744 2837 
Q 2550 3084 2163 3084 
Q 1697 3084 1428 2787 
Q 1159 2491 1159 1978 
L 1159 0 
L 581 0 
L 581 4863 
L 1159 4863 
L 1159 2956 
Q 1366 3272 1645 3428 
Q 1925 3584 2291 3584 
Q 2894 3584 3203 3211 
Q 3513 2838 3513 2113 
z
" transform="scale(0.015625)"/>
       <path id="DejaVuSans-6f" d="M 1959 3097 
Q 1497 3097 1228 2736 
Q 959 2375 959 1747 
Q 959 1119 1226 758 
Q 1494 397 1959 397 
Q 2419 397 2687 759 
Q 2956 1122 2956 1747 
Q 2956 2369 2687 2733 
Q 2419 3097 1959 3097 
z
M 1959 3584 
Q 2709 3584 3137 3096 
Q 3566 2609 3566 1747 
Q 3566 888 3137 398 
Q 2709 -91 1959 -91 
Q 1206 -91 779 398 
Q 353 888 353 1747 
Q 353 2609 779 3096 
Q 1206 3584 1959 3584 
z
" transform="scale(0.015625)"/>
       <path id="DejaVuSans-72" d="M 2631 2963 
Q 2534 3019 2420 3045 
Q 2306 3072 2169 3072 
Q 1681 3072 1420 2755 
Q 1159 2438 1159 1844 
L 1159 0 
L 581 0 
L 581 3500 
L 1159 3500 
L 1159 2956 
Q 1341 3275 1631 3429 
Q 1922 3584 2338 3584 
Q 2397 3584 2469 3576 
Q 2541 3569 2628 3553 
L 2631 2963 
z
" transform="scale(0.015625)"/>
       <path id="DejaVuSans-6d" d="M 3328 2828 
Q 3544 3216 3844 3400 
Q 4144 3584 4550 3584 
Q 5097 3584 5394 3201 
Q 5691 2819 5691 2113 
L 5691 0 
L 5113 0 
L 5113 2094 
Q 5113 2597 4934 2840 
Q 4756 3084 4391 3084 
Q 3944 3084 3684 2787 
Q 3425 2491 3425 1978 
L 3425 0 
L 2847 0 
L 2847 2094 
Q 2847 2600 2669 2842 
Q 2491 3084 2119 3084 
Q 1678 3084 1418 2786 
Q 1159 2488 1159 1978 
L 1159 0 
L 581 0 
L 581 3500 
L 1159 3500 
L 1159 2956 
Q 1356 3278 1631 3431 
Q 1906 3584 2284 3584 
Q 2666 3584 2933 3390 
Q 3200 3197 3328 2828 
z
" transform="scale(0.015625)"/>
       <path id="DejaVuSans-61" d="M 2194 1759 
Q 1497 1759 1228 1600 
Q 959 1441 959 1056 
Q 959 750 1161 570 
Q 1363 391 1709 391 
Q 2188 391 2477 730 
Q 2766 1069 2766 1631 
L 2766 1759 
L 2194 1759 
z
M 3341 1997 
L 3341 0 
L 2766 0 
L 2766 531 
Q 2569 213 2275 61 
Q 1981 -91 1556 -91 
Q 1019 -91 701 211 
Q 384 513 384 1019 
Q 384 1609 779 1909 
Q 1175 2209 1959 2209 
L 2766 2209 
L 2766 2266 
Q 2766 2663 2505 2880 
Q 2244 3097 1772 3097 
Q 1472 3097 1187 3025 
Q 903 2953 641 2809 
L 641 3341 
Q 956 3463 1253 3523 
Q 1550 3584 1831 3584 
Q 2591 3584 2966 3190 
Q 3341 2797 3341 1997 
z
" transform="scale(0.015625)"/>
       <path id="DejaVuSans-28" d="M 1984 4856 
Q 1566 4138 1362 3434 
Q 1159 2731 1159 2009 
Q 1159 1288 1364 580 
Q 1569 -128 1984 -844 
L 1484 -844 
Q 1016 -109 783 600 
Q 550 1309 550 2009 
Q 550 2706 781 3412 
Q 1013 4119 1484 4856 
L 1984 4856 
z
" transform="scale(0.015625)"/>
       <path id="DejaVuSans-64" d="M 2906 2969 
L 2906 4863 
L 3481 4863 
L 3481 0 
L 2906 0 
L 2906 525 
Q 2725 213 2448 61 
Q 2172 -91 1784 -91 
Q 1150 -91 751 415 
Q 353 922 353 1747 
Q 353 2572 751 3078 
Q 1150 3584 1784 3584 
Q 2172 3584 2448 3432 
Q 2725 3281 2906 2969 
z
M 947 1747 
Q 947 1113 1208 752 
Q 1469 391 1925 391 
Q 2381 391 2643 752 
Q 2906 1113 2906 1747 
Q 2906 2381 2643 2742 
Q 2381 3103 1925 3103 
Q 1469 3103 1208 2742 
Q 947 2381 947 1747 
z
" transform="scale(0.015625)"/>
       <path id="DejaVuSans-29" d="M 513 4856 
L 1013 4856 
Q 1481 4119 1714 3412 
Q 1947 2706 1947 2009 
Q 1947 1309 1714 600 
Q 1481 -109 1013 -844 
L 513 -844 
Q 928 -128 1133 580 
Q 1338 1288 1338 2009 
Q 1338 2731 1133 3434 
Q 928 4138 513 4856 
z
" transform="scale(0.015625)"/>
      </defs>
      <use xlink:href="#DejaVuSans-41"/>
      <use xlink:href="#DejaVuSans-6e" x="68.408203"/>
      <use xlink:href="#DejaVuSans-67" x="131.787109"/>
      <use xlink:href="#DejaVuSans-6c" x="195.263672"/>
      <use xlink:href="#DejaVuSans-65" x="223.046875"/>
      <use xlink:href="#DejaVuSans-20" x="284.570312"/>
      <use xlink:href="#DejaVuSans-77" x="316.357422"/>
      <use xlink:href="#DejaVuSans-69" x="398.144531"/>
      <use xlink:href="#DejaVuSans-74" x="425.927734"/>
      <use xlink:href="#DejaVuSans-68" x="465.136719"/>
      <use xlink:href="#DejaVuSans-20" x="528.515625"/>
      <use xlink:href="#DejaVuSans-6e" x="560.302734"/>
      <use xlink:href="#DejaVuSans-6f" x="623.681641"/>
      <use xlink:href="#DejaVuSans-72" x="684.863281"/>
      <use xlink:href="#DejaVuSans-6d" x="724.226562"/>
      <use xlink:href="#DejaVuSans-61" x="821.638672"/>
      <use xlink:href="#DejaVuSans-6c" x="882.917969"/>
      <use xlink:href="#DejaVuSans-20" x="910.701172"/>
      <use xlink:href="#DejaVuSans-28" x="942.488281"/>
      <use xlink:href="#DejaVuSans-72" x="981.501953"/>
      <use xlink:href="#DejaVuSans-61" x="1022.615234"/>
      <use xlink:href="#DejaVuSans-64" x="1083.894531"/>
      <use xlink:href="#DejaVuSans-29" x="1147.371094"/>
     </g>
    </g>
   </g>
   <g id="matplotlib.axis_2">
    <g id="ytick_1">
     <g id="line2d_10">
      <defs>
       <path id="mbd4ba9dce5" d="M 0 0 
L -3.5 0 
" style="stroke: #000000; stroke-width: 0.8"/>
      </defs>
      <g>
       <use xlink:href="#mbd4ba9dce5" x="43.78125" y="224.64" style="stroke: #000000; stroke-width: 0.8"/>
      </g>
     </g>
     <g id="text_11">
      <!-- 0.0 -->
      <g transform="translate(20.878125 228.439219)scale(0.1 -0.1)">
       <use xlink:href="#DejaVuSans-30"/>
       <use xlink:href="#DejaVuSans-2e" x="63.623047"/>
       <use xlink:href="#DejaVuSans-30" x="95.410156"/>
      </g>
     </g>
    </g>
    <g id="ytick_2">
     <g id="line2d_11">
      <g>
       <use xlink:href="#mbd4ba9dce5" x="43.78125" y="186.568466" style="stroke: #000000; stroke-width: 0.8"/>
      </g>
     </g>
     <g id="text_12">
      <!-- 0.2 -->
      <g transform="translate(20.878125 190.367685)scale(0.1 -0.1)">
       <use xlink:href="#DejaVuSans-30"/>
       <use xlink:href="#DejaVuSans-2e" x="63.623047"/>
       <use xlink:href="#DejaVuSans-32" x="95.410156"/>
      </g>
     </g>
    </g>
    <g id="ytick_3">
     <g id="line2d_12">
      <g>
       <use xlink:href="#mbd4ba9dce5" x="43.78125" y="148.496932" style="stroke: #000000; stroke-width: 0.8"/>
      </g>
     </g>
     <g id="text_13">
      <!-- 0.4 -->
      <g transform="translate(20.878125 152.296151)scale(0.1 -0.1)">
       <use xlink:href="#DejaVuSans-30"/>
       <use xlink:href="#DejaVuSans-2e" x="63.623047"/>
       <use xlink:href="#DejaVuSans-34" x="95.410156"/>
      </g>
     </g>
    </g>
    <g id="ytick_4">
     <g id="line2d_13">
      <g>
       <use xlink:href="#mbd4ba9dce5" x="43.78125" y="110.425398" style="stroke: #000000; stroke-width: 0.8"/>
      </g>
     </g>
     <g id="text_14">
      <!-- 0.6 -->
      <g transform="translate(20.878125 114.224617)scale(0.1 -0.1)">
       <use xlink:href="#DejaVuSans-30"/>
       <use xlink:href="#DejaVuSans-2e" x="63.623047"/>
       <use xlink:href="#DejaVuSans-36" x="95.410156"/>
      </g>
     </g>
    </g>
    <g id="ytick_5">
     <g id="line2d_14">
      <g>
       <use xlink:href="#mbd4ba9dce5" x="43.78125" y="72.353864" style="stroke: #000000; stroke-width: 0.8"/>
      </g>
     </g>
     <g id="text_15">
      <!-- 0.8 -->
      <g transform="translate(20.878125 76.153083)scale(0.1 -0.1)">
       <use xlink:href="#DejaVuSans-30"/>
       <use xlink:href="#DejaVuSans-2e" x="63.623047"/>
       <use xlink:href="#DejaVuSans-38" x="95.410156"/>
      </g>
     </g>
    </g>
    <g id="ytick_6">
     <g id="line2d_15">
      <g>
       <use xlink:href="#mbd4ba9dce5" x="43.78125" y="34.28233" style="stroke: #000000; stroke-width: 0.8"/>
      </g>
     </g>
     <g id="text_16">
      <!-- 1.0 -->
      <g transform="translate(20.878125 38.081549)scale(0.1 -0.1)">
       <use xlink:href="#DejaVuSans-31"/>
       <use xlink:href="#DejaVuSans-2e" x="63.623047"/>
       <use xlink:href="#DejaVuSans-30" x="95.410156"/>
      </g>
     </g>
    </g>
    <g id="text_17">
     <!-- Probability density -->
     <g transform="translate(14.798438 162.270781)rotate(-90)scale(0.1 -0.1)">
      <defs>
       <path id="DejaVuSans-50" d="M 1259 4147 
L 1259 2394 
L 2053 2394 
Q 2494 2394 2734 2622 
Q 2975 2850 2975 3272 
Q 2975 3691 2734 3919 
Q 2494 4147 2053 4147 
L 1259 4147 
z
M 628 4666 
L 2053 4666 
Q 2838 4666 3239 4311 
Q 3641 3956 3641 3272 
Q 3641 2581 3239 2228 
Q 2838 1875 2053 1875 
L 1259 1875 
L 1259 0 
L 628 0 
L 628 4666 
z
" transform="scale(0.015625)"/>
       <path id="DejaVuSans-62" d="M 3116 1747 
Q 3116 2381 2855 2742 
Q 2594 3103 2138 3103 
Q 1681 3103 1420 2742 
Q 1159 2381 1159 1747 
Q 1159 1113 1420 752 
Q 1681 391 2138 391 
Q 2594 391 2855 752 
Q 3116 1113 3116 1747 
z
M 1159 2969 
Q 1341 3281 1617 3432 
Q 1894 3584 2278 3584 
Q 2916 3584 3314 3078 
Q 3713 2572 3713 1747 
Q 3713 922 3314 415 
Q 2916 -91 2278 -91 
Q 1894 -91 1617 61 
Q 1341 213 1159 525 
L 1159 0 
L 581 0 
L 581 4863 
L 1159 4863 
L 1159 2969 
z
" transform="scale(0.015625)"/>
       <path id="DejaVuSans-79" d="M 2059 -325 
Q 1816 -950 1584 -1140 
Q 1353 -1331 966 -1331 
L 506 -1331 
L 506 -850 
L 844 -850 
Q 1081 -850 1212 -737 
Q 1344 -625 1503 -206 
L 1606 56 
L 191 3500 
L 800 3500 
L 1894 763 
L 2988 3500 
L 3597 3500 
L 2059 -325 
z
" transform="scale(0.015625)"/>
       <path id="DejaVuSans-73" d="M 2834 3397 
L 2834 2853 
Q 2591 2978 2328 3040 
Q 2066 3103 1784 3103 
Q 1356 3103 1142 2972 
Q 928 2841 928 2578 
Q 928 2378 1081 2264 
Q 1234 2150 1697 2047 
L 1894 2003 
Q 2506 1872 2764 1633 
Q 3022 1394 3022 966 
Q 3022 478 2636 193 
Q 2250 -91 1575 -91 
Q 1294 -91 989 -36 
Q 684 19 347 128 
L 347 722 
Q 666 556 975 473 
Q 1284 391 1588 391 
Q 1994 391 2212 530 
Q 2431 669 2431 922 
Q 2431 1156 2273 1281 
Q 2116 1406 1581 1522 
L 1381 1569 
Q 847 1681 609 1914 
Q 372 2147 372 2553 
Q 372 3047 722 3315 
Q 1072 3584 1716 3584 
Q 2034 3584 2315 3537 
Q 2597 3491 2834 3397 
z
" transform="scale(0.015625)"/>
      </defs>
      <use xlink:href="#DejaVuSans-50"/>
      <use xlink:href="#DejaVuSans-72" x="58.552734"/>
      <use xlink:href="#DejaVuSans-6f" x="97.416016"/>
      <use xlink:href="#DejaVuSans-62" x="158.597656"/>
      <use xlink:href="#DejaVuSans-61" x="222.074219"/>
      <use xlink:href="#DejaVuSans-62" x="283.353516"/>
      <use xlink:href="#DejaVuSans-69" x="346.830078"/>
      <use xlink:href="#DejaVuSans-6c" x="374.613281"/>
      <use xlink:href="#DejaVuSans-69" x="402.396484"/>
      <use xlink:href="#DejaVuSans-74" x="430.179688"/>
      <use xlink:href="#DejaVuSans-79" x="469.388672"/>
      <use xlink:href="#DejaVuSans-20" x="528.568359"/>
      <use xlink:href="#DejaVuSans-64" x="560.355469"/>
      <use xlink:href="#DejaVuSans-65" x="623.832031"/>
      <use xlink:href="#DejaVuSans-6e" x="685.355469"/>
      <use xlink:href="#DejaVuSans-73" x="748.734375"/>
      <use xlink:href="#DejaVuSans-69" x="800.833984"/>
      <use xlink:href="#DejaVuSans-74" x="828.617188"/>
      <use xlink:href="#DejaVuSans-79" x="867.826172"/>
     </g>
    </g>
   </g>
   <g id="line2d_16">
    <path d="M 58.999432 224.64 
L 77.888867 187.759962 
L 87.942921 168.612816 
L 96.473633 152.831516 
L 104.090341 139.207634 
L 111.097712 127.137864 
L 117.495746 116.561371 
L 123.589112 106.925923 
L 129.073142 98.650969 
L 134.557171 90.779596 
L 139.736533 83.738834 
L 144.611225 77.479665 
L 149.485918 71.59298 
L 154.055943 66.425768 
L 158.321299 61.920381 
L 162.586655 57.730345 
L 166.852012 53.863781 
L 170.8127 50.569599 
L 174.773388 47.566301 
L 178.429407 45.056556 
L 182.085427 42.802519 
L 185.741447 40.807401 
L 189.397466 39.074043 
L 192.748818 37.717194 
L 196.100169 36.583997 
L 199.45152 35.675808 
L 202.802872 34.993714 
L 206.154223 34.538531 
L 209.505574 34.310803 
L 212.856926 34.310803 
L 216.208277 34.538531 
L 219.559628 34.993714 
L 222.91098 35.675808 
L 226.262331 36.583997 
L 229.613682 37.717194 
L 232.965034 39.074043 
L 236.621053 40.807401 
L 240.277073 42.802519 
L 243.933093 45.056556 
L 247.589112 47.566301 
L 251.5498 50.569599 
L 255.510488 53.863781 
L 259.471176 57.443343 
L 263.736533 61.610535 
L 268.001889 66.09368 
L 272.571913 71.237775 
L 277.141938 76.723144 
L 282.016631 82.9366 
L 286.891324 89.508728 
L 292.070685 96.865989 
L 297.554714 105.053505 
L 303.343412 114.110923 
L 309.436778 124.070581 
L 315.834813 134.955514 
L 322.842184 147.32395 
L 330.458891 161.224285 
L 339.294272 177.833603 
L 349.957663 198.384473 
L 363.363068 224.64 
L 363.363068 224.64 
" clip-path="url(#p4fd068ea33)" style="fill: none; stroke: #ff7f0e; stroke-width: 1.5; stroke-linecap: square"/>
   </g>
   <g id="patch_203">
    <path d="M 43.78125 224.64 
L 43.78125 7.2 
" style="fill: none; stroke: #000000; stroke-width: 0.8; stroke-linejoin: miter; stroke-linecap: square"/>
   </g>
   <g id="patch_204">
    <path d="M 378.58125 224.64 
L 378.58125 7.2 
" style="fill: none; stroke: #000000; stroke-width: 0.8; stroke-linejoin: miter; stroke-linecap: square"/>
   </g>
   <g id="patch_205">
    <path d="M 43.78125 224.64 
L 378.58125 224.64 
" style="fill: none; stroke: #000000; stroke-width: 0.8; stroke-linejoin: miter; stroke-linecap: square"/>
   </g>
   <g id="patch_206">
    <path d="M 43.78125 7.2 
L 378.58125 7.2 
" style="fill: none; stroke: #000000; stroke-width: 0.8; stroke-linejoin: miter; stroke-linecap: square"/>
   </g>
  </g>
 </g>
 <defs>
  <clipPath id="p4fd068ea33">
   <rect x="43.78125" y="7.2" width="334.8" height="217.44"/>
  </clipPath>
 </defs>
</svg>
