<?xml version="1.0" encoding="utf-8" standalone="no"?>
<!DOCTYPE svg PUBLIC "-//W3C//DTD SVG 1.1//EN"
  "http://www.w3.org/Graphics/SVG/1.1/DTD/svg11.dtd">
<svg xmlns:xlink="http://www.w3.org/1999/xlink" width="385.78125pt" height="262.19625pt" viewBox="0 0 385.78125 262.19625" xmlns="http://www.w3.org/2000/svg" version="1.1">
 <metadata>
  <rdf:RDF xmlns:dc="http://purl.org/dc/elements/1.1/" xmlns:cc="http://creativecommons.org/ns#" xmlns:rdf="http://www.w3.org/1999/02/22-rdf-syntax-ns#">
   <cc:Work>
    <dc:type rdf:resource="http://purl.org/dc/dcmitype/StillImage"/>
    <dc:date>2022-11-08T16:36:25.986537</dc:date>
    <dc:format>image/svg+xml</dc:format>
    <dc:creator>
     <cc:Agent>
      <dc:title>Matplotlib v3.5.2, https://matplotlib.org/</dc:title>
     </cc:Agent>
    </dc:creator>
   </cc:Work>
  </rdf:RDF>
 </metadata>
 <defs>
  <style type="text/css">*{stroke-linejoin: round; stroke-linecap: butt}</style>
 </defs>
 <g id="figure_1">
  <g id="patch_1">
   <path d="M 0 262.19625 
L 385.78125 262.19625 
L 385.78125 0 
L 0 0 
L 0 262.19625 
z
" style="fill: none"/>
  </g>
  <g id="axes_1">
   <g id="patch_2">
    <path d="M 43.78125 224.64 
L 378.58125 224.64 
L 378.58125 7.2 
L 43.78125 7.2 
z
" style="fill: #ffffff"/>
   </g>
   <g id="patch_3">
    <path d="M 59.790075 224.64 
L 61.305102 224.64 
L 61.305102 222.259704 
L 59.790075 222.259704 
z
" clip-path="url(#pb1863a4711)" style="fill: #1f77b4"/>
   </g>
   <g id="patch_4">
    <path d="M 61.305102 224.64 
L 62.820129 224.64 
L 62.820129 219.879409 
L 61.305102 219.879409 
z
" clip-path="url(#pb1863a4711)" style="fill: #1f77b4"/>
   </g>
   <g id="patch_5">
    <path d="M 62.820129 224.64 
L 64.335156 224.64 
L 64.335156 215.118818 
L 62.820129 215.118818 
z
" clip-path="url(#pb1863a4711)" style="fill: #1f77b4"/>
   </g>
   <g id="patch_6">
    <path d="M 64.335156 224.64 
L 65.850183 224.64 
L 65.850183 212.738522 
L 64.335156 212.738522 
z
" clip-path="url(#pb1863a4711)" style="fill: #1f77b4"/>
   </g>
   <g id="patch_7">
    <path d="M 65.850183 224.64 
L 67.36521 224.64 
L 67.36521 213.333596 
L 65.850183 213.333596 
z
" clip-path="url(#pb1863a4711)" style="fill: #1f77b4"/>
   </g>
   <g id="patch_8">
    <path d="M 67.36521 224.64 
L 68.880237 224.64 
L 68.880237 210.358227 
L 67.36521 210.358227 
z
" clip-path="url(#pb1863a4711)" style="fill: #1f77b4"/>
   </g>
   <g id="patch_9">
    <path d="M 68.880237 224.64 
L 70.395264 224.64 
L 70.395264 205.597635 
L 68.880237 205.597635 
z
" clip-path="url(#pb1863a4711)" style="fill: #1f77b4"/>
   </g>
   <g id="patch_10">
    <path d="M 70.395264 224.64 
L 71.91029 224.64 
L 71.91029 193.696158 
L 70.395264 193.696158 
z
" clip-path="url(#pb1863a4711)" style="fill: #1f77b4"/>
   </g>
   <g id="patch_11">
    <path d="M 71.91029 224.64 
L 73.425317 224.64 
L 73.425317 200.837044 
L 71.91029 200.837044 
z
" clip-path="url(#pb1863a4711)" style="fill: #1f77b4"/>
   </g>
   <g id="patch_12">
    <path d="M 73.425317 224.64 
L 74.940344 224.64 
L 74.940344 200.837044 
L 73.425317 200.837044 
z
" clip-path="url(#pb1863a4711)" style="fill: #1f77b4"/>
   </g>
   <g id="patch_13">
    <path d="M 74.940344 224.64 
L 76.455371 224.64 
L 76.455371 187.150345 
L 74.940344 187.150345 
z
" clip-path="url(#pb1863a4711)" style="fill: #1f77b4"/>
   </g>
   <g id="patch_14">
    <path d="M 76.455371 224.64 
L 77.970398 224.64 
L 77.970398 191.315862 
L 76.455371 191.315862 
z
" clip-path="url(#pb1863a4711)" style="fill: #1f77b4"/>
   </g>
   <g id="patch_15">
    <path d="M 77.970398 224.64 
L 79.485425 224.64 
L 79.485425 193.101084 
L 77.970398 193.101084 
z
" clip-path="url(#pb1863a4711)" style="fill: #1f77b4"/>
   </g>
   <g id="patch_16">
    <path d="M 79.485425 224.64 
L 81.000452 224.64 
L 81.000452 190.125714 
L 79.485425 190.125714 
z
" clip-path="url(#pb1863a4711)" style="fill: #1f77b4"/>
   </g>
   <g id="patch_17">
    <path d="M 81.000452 224.64 
L 82.515479 224.64 
L 82.515479 187.150345 
L 81.000452 187.150345 
z
" clip-path="url(#pb1863a4711)" style="fill: #1f77b4"/>
   </g>
   <g id="patch_18">
    <path d="M 82.515479 224.64 
L 84.030506 224.64 
L 84.030506 182.389754 
L 82.515479 182.389754 
z
" clip-path="url(#pb1863a4711)" style="fill: #1f77b4"/>
   </g>
   <g id="patch_19">
    <path d="M 84.030506 224.64 
L 85.545533 224.64 
L 85.545533 185.365123 
L 84.030506 185.365123 
z
" clip-path="url(#pb1863a4711)" style="fill: #1f77b4"/>
   </g>
   <g id="patch_20">
    <path d="M 85.545533 224.64 
L 87.06056 224.64 
L 87.06056 164.537537 
L 85.545533 164.537537 
z
" clip-path="url(#pb1863a4711)" style="fill: #1f77b4"/>
   </g>
   <g id="patch_21">
    <path d="M 87.06056 224.64 
L 88.575587 224.64 
L 88.575587 174.058719 
L 87.06056 174.058719 
z
" clip-path="url(#pb1863a4711)" style="fill: #1f77b4"/>
   </g>
   <g id="patch_22">
    <path d="M 88.575587 224.64 
L 90.090614 224.64 
L 90.090614 164.537537 
L 88.575587 164.537537 
z
" clip-path="url(#pb1863a4711)" style="fill: #1f77b4"/>
   </g>
   <g id="patch_23">
    <path d="M 90.090614 224.64 
L 91.605641 224.64 
L 91.605641 166.322759 
L 90.090614 166.322759 
z
" clip-path="url(#pb1863a4711)" style="fill: #1f77b4"/>
   </g>
   <g id="patch_24">
    <path d="M 91.605641 224.64 
L 93.120668 224.64 
L 93.120668 146.68532 
L 91.605641 146.68532 
z
" clip-path="url(#pb1863a4711)" style="fill: #1f77b4"/>
   </g>
   <g id="patch_25">
    <path d="M 93.120668 224.64 
L 94.635695 224.64 
L 94.635695 153.231133 
L 93.120668 153.231133 
z
" clip-path="url(#pb1863a4711)" style="fill: #1f77b4"/>
   </g>
   <g id="patch_26">
    <path d="M 94.635695 224.64 
L 96.150722 224.64 
L 96.150722 155.016355 
L 94.635695 155.016355 
z
" clip-path="url(#pb1863a4711)" style="fill: #1f77b4"/>
   </g>
   <g id="patch_27">
    <path d="M 96.150722 224.64 
L 97.665749 224.64 
L 97.665749 149.065616 
L 96.150722 149.065616 
z
" clip-path="url(#pb1863a4711)" style="fill: #1f77b4"/>
   </g>
   <g id="patch_28">
    <path d="M 97.665749 224.64 
L 99.180776 224.64 
L 99.180776 150.255764 
L 97.665749 150.255764 
z
" clip-path="url(#pb1863a4711)" style="fill: #1f77b4"/>
   </g>
   <g id="patch_29">
    <path d="M 99.180776 224.64 
L 100.695803 224.64 
L 100.695803 152.636059 
L 99.180776 152.636059 
z
" clip-path="url(#pb1863a4711)" style="fill: #1f77b4"/>
   </g>
   <g id="patch_30">
    <path d="M 100.695803 224.64 
L 102.21083 224.64 
L 102.21083 154.421281 
L 100.695803 154.421281 
z
" clip-path="url(#pb1863a4711)" style="fill: #1f77b4"/>
   </g>
   <g id="patch_31">
    <path d="M 102.21083 224.64 
L 103.725856 224.64 
L 103.725856 140.139507 
L 102.21083 140.139507 
z
" clip-path="url(#pb1863a4711)" style="fill: #1f77b4"/>
   </g>
   <g id="patch_32">
    <path d="M 103.725856 224.64 
L 105.240883 224.64 
L 105.240883 149.065616 
L 103.725856 149.065616 
z
" clip-path="url(#pb1863a4711)" style="fill: #1f77b4"/>
   </g>
   <g id="patch_33">
    <path d="M 105.240883 224.64 
L 106.75591 224.64 
L 106.75591 137.164138 
L 105.240883 137.164138 
z
" clip-path="url(#pb1863a4711)" style="fill: #1f77b4"/>
   </g>
   <g id="patch_34">
    <path d="M 106.75591 224.64 
L 108.270937 224.64 
L 108.270937 132.403547 
L 106.75591 132.403547 
z
" clip-path="url(#pb1863a4711)" style="fill: #1f77b4"/>
   </g>
   <g id="patch_35">
    <path d="M 108.270937 224.64 
L 109.785964 224.64 
L 109.785964 120.502069 
L 108.270937 120.502069 
z
" clip-path="url(#pb1863a4711)" style="fill: #1f77b4"/>
   </g>
   <g id="patch_36">
    <path d="M 109.785964 224.64 
L 111.300991 224.64 
L 111.300991 137.759212 
L 109.785964 137.759212 
z
" clip-path="url(#pb1863a4711)" style="fill: #1f77b4"/>
   </g>
   <g id="patch_37">
    <path d="M 111.300991 224.64 
L 112.816018 224.64 
L 112.816018 128.833103 
L 111.300991 128.833103 
z
" clip-path="url(#pb1863a4711)" style="fill: #1f77b4"/>
   </g>
   <g id="patch_38">
    <path d="M 112.816018 224.64 
L 114.331045 224.64 
L 114.331045 130.618325 
L 112.816018 130.618325 
z
" clip-path="url(#pb1863a4711)" style="fill: #1f77b4"/>
   </g>
   <g id="patch_39">
    <path d="M 114.331045 224.64 
L 115.846072 224.64 
L 115.846072 122.287291 
L 114.331045 122.287291 
z
" clip-path="url(#pb1863a4711)" style="fill: #1f77b4"/>
   </g>
   <g id="patch_40">
    <path d="M 115.846072 224.64 
L 117.361099 224.64 
L 117.361099 105.030148 
L 115.846072 105.030148 
z
" clip-path="url(#pb1863a4711)" style="fill: #1f77b4"/>
   </g>
   <g id="patch_41">
    <path d="M 117.361099 224.64 
L 118.876126 224.64 
L 118.876126 124.072512 
L 117.361099 124.072512 
z
" clip-path="url(#pb1863a4711)" style="fill: #1f77b4"/>
   </g>
   <g id="patch_42">
    <path d="M 118.876126 224.64 
L 120.391153 224.64 
L 120.391153 112.766108 
L 118.876126 112.766108 
z
" clip-path="url(#pb1863a4711)" style="fill: #1f77b4"/>
   </g>
   <g id="patch_43">
    <path d="M 120.391153 224.64 
L 121.90618 224.64 
L 121.90618 118.716847 
L 120.391153 118.716847 
z
" clip-path="url(#pb1863a4711)" style="fill: #1f77b4"/>
   </g>
   <g id="patch_44">
    <path d="M 121.90618 224.64 
L 123.421207 224.64 
L 123.421207 108.005517 
L 121.90618 108.005517 
z
" clip-path="url(#pb1863a4711)" style="fill: #1f77b4"/>
   </g>
   <g id="patch_45">
    <path d="M 123.421207 224.64 
L 124.936234 224.64 
L 124.936234 111.575961 
L 123.421207 111.575961 
z
" clip-path="url(#pb1863a4711)" style="fill: #1f77b4"/>
   </g>
   <g id="patch_46">
    <path d="M 124.936234 224.64 
L 126.451261 224.64 
L 126.451261 102.649852 
L 124.936234 102.649852 
z
" clip-path="url(#pb1863a4711)" style="fill: #1f77b4"/>
   </g>
   <g id="patch_47">
    <path d="M 126.451261 224.64 
L 127.966288 224.64 
L 127.966288 117.5267 
L 126.451261 117.5267 
z
" clip-path="url(#pb1863a4711)" style="fill: #1f77b4"/>
   </g>
   <g id="patch_48">
    <path d="M 127.966288 224.64 
L 129.481315 224.64 
L 129.481315 104.435074 
L 127.966288 104.435074 
z
" clip-path="url(#pb1863a4711)" style="fill: #1f77b4"/>
   </g>
   <g id="patch_49">
    <path d="M 129.481315 224.64 
L 130.996342 224.64 
L 130.996342 98.484335 
L 129.481315 98.484335 
z
" clip-path="url(#pb1863a4711)" style="fill: #1f77b4"/>
   </g>
   <g id="patch_50">
    <path d="M 130.996342 224.64 
L 132.511369 224.64 
L 132.511369 96.699113 
L 130.996342 96.699113 
z
" clip-path="url(#pb1863a4711)" style="fill: #1f77b4"/>
   </g>
   <g id="patch_51">
    <path d="M 132.511369 224.64 
L 134.026396 224.64 
L 134.026396 102.649852 
L 132.511369 102.649852 
z
" clip-path="url(#pb1863a4711)" style="fill: #1f77b4"/>
   </g>
   <g id="patch_52">
    <path d="M 134.026396 224.64 
L 135.541422 224.64 
L 135.541422 91.343448 
L 134.026396 91.343448 
z
" clip-path="url(#pb1863a4711)" style="fill: #1f77b4"/>
   </g>
   <g id="patch_53">
    <path d="M 135.541422 224.64 
L 137.056449 224.64 
L 137.056449 82.41734 
L 135.541422 82.41734 
z
" clip-path="url(#pb1863a4711)" style="fill: #1f77b4"/>
   </g>
   <g id="patch_54">
    <path d="M 137.056449 224.64 
L 138.571476 224.64 
L 138.571476 90.1533 
L 137.056449 90.1533 
z
" clip-path="url(#pb1863a4711)" style="fill: #1f77b4"/>
   </g>
   <g id="patch_55">
    <path d="M 138.571476 224.64 
L 140.086503 224.64 
L 140.086503 100.864631 
L 138.571476 100.864631 
z
" clip-path="url(#pb1863a4711)" style="fill: #1f77b4"/>
   </g>
   <g id="patch_56">
    <path d="M 140.086503 224.64 
L 141.60153 224.64 
L 141.60153 86.582857 
L 140.086503 86.582857 
z
" clip-path="url(#pb1863a4711)" style="fill: #1f77b4"/>
   </g>
   <g id="patch_57">
    <path d="M 141.60153 224.64 
L 143.116557 224.64 
L 143.116557 85.987783 
L 141.60153 85.987783 
z
" clip-path="url(#pb1863a4711)" style="fill: #1f77b4"/>
   </g>
   <g id="patch_58">
    <path d="M 143.116557 224.64 
L 144.631584 224.64 
L 144.631584 81.227192 
L 143.116557 81.227192 
z
" clip-path="url(#pb1863a4711)" style="fill: #1f77b4"/>
   </g>
   <g id="patch_59">
    <path d="M 144.631584 224.64 
L 146.146611 224.64 
L 146.146611 84.202562 
L 144.631584 84.202562 
z
" clip-path="url(#pb1863a4711)" style="fill: #1f77b4"/>
   </g>
   <g id="patch_60">
    <path d="M 146.146611 224.64 
L 147.661638 224.64 
L 147.661638 85.392709 
L 146.146611 85.392709 
z
" clip-path="url(#pb1863a4711)" style="fill: #1f77b4"/>
   </g>
   <g id="patch_61">
    <path d="M 147.661638 224.64 
L 149.176665 224.64 
L 149.176665 81.822266 
L 147.661638 81.822266 
z
" clip-path="url(#pb1863a4711)" style="fill: #1f77b4"/>
   </g>
   <g id="patch_62">
    <path d="M 149.176665 224.64 
L 150.691692 224.64 
L 150.691692 78.251823 
L 149.176665 78.251823 
z
" clip-path="url(#pb1863a4711)" style="fill: #1f77b4"/>
   </g>
   <g id="patch_63">
    <path d="M 150.691692 224.64 
L 152.206719 224.64 
L 152.206719 93.12867 
L 150.691692 93.12867 
z
" clip-path="url(#pb1863a4711)" style="fill: #1f77b4"/>
   </g>
   <g id="patch_64">
    <path d="M 152.206719 224.64 
L 153.721746 224.64 
L 153.721746 69.325714 
L 152.206719 69.325714 
z
" clip-path="url(#pb1863a4711)" style="fill: #1f77b4"/>
   </g>
   <g id="patch_65">
    <path d="M 153.721746 224.64 
L 155.236773 224.64 
L 155.236773 69.325714 
L 153.721746 69.325714 
z
" clip-path="url(#pb1863a4711)" style="fill: #1f77b4"/>
   </g>
   <g id="patch_66">
    <path d="M 155.236773 224.64 
L 156.7518 224.64 
L 156.7518 63.374975 
L 155.236773 63.374975 
z
" clip-path="url(#pb1863a4711)" style="fill: #1f77b4"/>
   </g>
   <g id="patch_67">
    <path d="M 156.7518 224.64 
L 158.266827 224.64 
L 158.266827 71.110936 
L 156.7518 71.110936 
z
" clip-path="url(#pb1863a4711)" style="fill: #1f77b4"/>
   </g>
   <g id="patch_68">
    <path d="M 158.266827 224.64 
L 159.781854 224.64 
L 159.781854 55.043941 
L 158.266827 55.043941 
z
" clip-path="url(#pb1863a4711)" style="fill: #1f77b4"/>
   </g>
   <g id="patch_69">
    <path d="M 159.781854 224.64 
L 161.296881 224.64 
L 161.296881 62.779901 
L 159.781854 62.779901 
z
" clip-path="url(#pb1863a4711)" style="fill: #1f77b4"/>
   </g>
   <g id="patch_70">
    <path d="M 161.296881 224.64 
L 162.811908 224.64 
L 162.811908 53.853793 
L 161.296881 53.853793 
z
" clip-path="url(#pb1863a4711)" style="fill: #1f77b4"/>
   </g>
   <g id="patch_71">
    <path d="M 162.811908 224.64 
L 164.326935 224.64 
L 164.326935 64.565123 
L 162.811908 64.565123 
z
" clip-path="url(#pb1863a4711)" style="fill: #1f77b4"/>
   </g>
   <g id="patch_72">
    <path d="M 164.326935 224.64 
L 165.841962 224.64 
L 165.841962 65.160197 
L 164.326935 65.160197 
z
" clip-path="url(#pb1863a4711)" style="fill: #1f77b4"/>
   </g>
   <g id="patch_73">
    <path d="M 165.841962 224.64 
L 167.356988 224.64 
L 167.356988 69.920788 
L 165.841962 69.920788 
z
" clip-path="url(#pb1863a4711)" style="fill: #1f77b4"/>
   </g>
   <g id="patch_74">
    <path d="M 167.356988 224.64 
L 168.872015 224.64 
L 168.872015 46.712906 
L 167.356988 46.712906 
z
" clip-path="url(#pb1863a4711)" style="fill: #1f77b4"/>
   </g>
   <g id="patch_75">
    <path d="M 168.872015 224.64 
L 170.387042 224.64 
L 170.387042 47.903054 
L 168.872015 47.903054 
z
" clip-path="url(#pb1863a4711)" style="fill: #1f77b4"/>
   </g>
   <g id="patch_76">
    <path d="M 170.387042 224.64 
L 171.902069 224.64 
L 171.902069 49.093202 
L 170.387042 49.093202 
z
" clip-path="url(#pb1863a4711)" style="fill: #1f77b4"/>
   </g>
   <g id="patch_77">
    <path d="M 171.902069 224.64 
L 173.417096 224.64 
L 173.417096 74.086305 
L 171.902069 74.086305 
z
" clip-path="url(#pb1863a4711)" style="fill: #1f77b4"/>
   </g>
   <g id="patch_78">
    <path d="M 173.417096 224.64 
L 174.932123 224.64 
L 174.932123 56.234089 
L 173.417096 56.234089 
z
" clip-path="url(#pb1863a4711)" style="fill: #1f77b4"/>
   </g>
   <g id="patch_79">
    <path d="M 174.932123 224.64 
L 176.44715 224.64 
L 176.44715 51.473498 
L 174.932123 51.473498 
z
" clip-path="url(#pb1863a4711)" style="fill: #1f77b4"/>
   </g>
   <g id="patch_80">
    <path d="M 176.44715 224.64 
L 177.962177 224.64 
L 177.962177 52.663645 
L 176.44715 52.663645 
z
" clip-path="url(#pb1863a4711)" style="fill: #1f77b4"/>
   </g>
   <g id="patch_81">
    <path d="M 177.962177 224.64 
L 179.477204 224.64 
L 179.477204 20.529655 
L 177.962177 20.529655 
z
" clip-path="url(#pb1863a4711)" style="fill: #1f77b4"/>
   </g>
   <g id="patch_82">
    <path d="M 179.477204 224.64 
L 180.992231 224.64 
L 180.992231 62.184828 
L 179.477204 62.184828 
z
" clip-path="url(#pb1863a4711)" style="fill: #1f77b4"/>
   </g>
   <g id="patch_83">
    <path d="M 180.992231 224.64 
L 182.507258 224.64 
L 182.507258 50.878424 
L 180.992231 50.878424 
z
" clip-path="url(#pb1863a4711)" style="fill: #1f77b4"/>
   </g>
   <g id="patch_84">
    <path d="M 182.507258 224.64 
L 184.022285 224.64 
L 184.022285 41.952315 
L 182.507258 41.952315 
z
" clip-path="url(#pb1863a4711)" style="fill: #1f77b4"/>
   </g>
   <g id="patch_85">
    <path d="M 184.022285 224.64 
L 185.537312 224.64 
L 185.537312 48.498128 
L 184.022285 48.498128 
z
" clip-path="url(#pb1863a4711)" style="fill: #1f77b4"/>
   </g>
   <g id="patch_86">
    <path d="M 185.537312 224.64 
L 187.052339 224.64 
L 187.052339 46.117833 
L 185.537312 46.117833 
z
" clip-path="url(#pb1863a4711)" style="fill: #1f77b4"/>
   </g>
   <g id="patch_87">
    <path d="M 187.052339 224.64 
L 188.567366 224.64 
L 188.567366 41.952315 
L 187.052339 41.952315 
z
" clip-path="url(#pb1863a4711)" style="fill: #1f77b4"/>
   </g>
   <g id="patch_88">
    <path d="M 188.567366 224.64 
L 190.082393 224.64 
L 190.082393 28.265616 
L 188.567366 28.265616 
z
" clip-path="url(#pb1863a4711)" style="fill: #1f77b4"/>
   </g>
   <g id="patch_89">
    <path d="M 190.082393 224.64 
L 191.59742 224.64 
L 191.59742 39.57202 
L 190.082393 39.57202 
z
" clip-path="url(#pb1863a4711)" style="fill: #1f77b4"/>
   </g>
   <g id="patch_90">
    <path d="M 191.59742 224.64 
L 193.112447 224.64 
L 193.112447 17.554286 
L 191.59742 17.554286 
z
" clip-path="url(#pb1863a4711)" style="fill: #1f77b4"/>
   </g>
   <g id="patch_91">
    <path d="M 193.112447 224.64 
L 194.627474 224.64 
L 194.627474 42.547389 
L 193.112447 42.547389 
z
" clip-path="url(#pb1863a4711)" style="fill: #1f77b4"/>
   </g>
   <g id="patch_92">
    <path d="M 194.627474 224.64 
L 196.142501 224.64 
L 196.142501 59.804532 
L 194.627474 59.804532 
z
" clip-path="url(#pb1863a4711)" style="fill: #1f77b4"/>
   </g>
   <g id="patch_93">
    <path d="M 196.142501 224.64 
L 197.657528 224.64 
L 197.657528 19.339507 
L 196.142501 19.339507 
z
" clip-path="url(#pb1863a4711)" style="fill: #1f77b4"/>
   </g>
   <g id="patch_94">
    <path d="M 197.657528 224.64 
L 199.172555 224.64 
L 199.172555 31.240985 
L 197.657528 31.240985 
z
" clip-path="url(#pb1863a4711)" style="fill: #1f77b4"/>
   </g>
   <g id="patch_95">
    <path d="M 199.172555 224.64 
L 200.687581 224.64 
L 200.687581 36.59665 
L 199.172555 36.59665 
z
" clip-path="url(#pb1863a4711)" style="fill: #1f77b4"/>
   </g>
   <g id="patch_96">
    <path d="M 200.687581 224.64 
L 202.202608 224.64 
L 202.202608 21.124729 
L 200.687581 21.124729 
z
" clip-path="url(#pb1863a4711)" style="fill: #1f77b4"/>
   </g>
   <g id="patch_97">
    <path d="M 202.202608 224.64 
L 203.717635 224.64 
L 203.717635 43.142463 
L 202.202608 43.142463 
z
" clip-path="url(#pb1863a4711)" style="fill: #1f77b4"/>
   </g>
   <g id="patch_98">
    <path d="M 203.717635 224.64 
L 205.232662 224.64 
L 205.232662 54.448867 
L 203.717635 54.448867 
z
" clip-path="url(#pb1863a4711)" style="fill: #1f77b4"/>
   </g>
   <g id="patch_99">
    <path d="M 205.232662 224.64 
L 206.747689 224.64 
L 206.747689 37.786798 
L 205.232662 37.786798 
z
" clip-path="url(#pb1863a4711)" style="fill: #1f77b4"/>
   </g>
   <g id="patch_100">
    <path d="M 206.747689 224.64 
L 208.262716 224.64 
L 208.262716 37.786798 
L 206.747689 37.786798 
z
" clip-path="url(#pb1863a4711)" style="fill: #1f77b4"/>
   </g>
   <g id="patch_101">
    <path d="M 208.262716 224.64 
L 209.777743 224.64 
L 209.777743 36.001576 
L 208.262716 36.001576 
z
" clip-path="url(#pb1863a4711)" style="fill: #1f77b4"/>
   </g>
   <g id="patch_102">
    <path d="M 209.777743 224.64 
L 211.29277 224.64 
L 211.29277 18.744433 
L 209.777743 18.744433 
z
" clip-path="url(#pb1863a4711)" style="fill: #1f77b4"/>
   </g>
   <g id="patch_103">
    <path d="M 211.29277 224.64 
L 212.807797 224.64 
L 212.807797 25.290246 
L 211.29277 25.290246 
z
" clip-path="url(#pb1863a4711)" style="fill: #1f77b4"/>
   </g>
   <g id="patch_104">
    <path d="M 212.807797 224.64 
L 214.322824 224.64 
L 214.322824 36.59665 
L 212.807797 36.59665 
z
" clip-path="url(#pb1863a4711)" style="fill: #1f77b4"/>
   </g>
   <g id="patch_105">
    <path d="M 214.322824 224.64 
L 215.837851 224.64 
L 215.837851 34.811429 
L 214.322824 34.811429 
z
" clip-path="url(#pb1863a4711)" style="fill: #1f77b4"/>
   </g>
   <g id="patch_106">
    <path d="M 215.837851 224.64 
L 217.352878 224.64 
L 217.352878 58.01931 
L 215.837851 58.01931 
z
" clip-path="url(#pb1863a4711)" style="fill: #1f77b4"/>
   </g>
   <g id="patch_107">
    <path d="M 217.352878 224.64 
L 218.867905 224.64 
L 218.867905 43.737537 
L 217.352878 43.737537 
z
" clip-path="url(#pb1863a4711)" style="fill: #1f77b4"/>
   </g>
   <g id="patch_108">
    <path d="M 218.867905 224.64 
L 220.382932 224.64 
L 220.382932 38.381872 
L 218.867905 38.381872 
z
" clip-path="url(#pb1863a4711)" style="fill: #1f77b4"/>
   </g>
   <g id="patch_109">
    <path d="M 220.382932 224.64 
L 221.897959 224.64 
L 221.897959 30.645911 
L 220.382932 30.645911 
z
" clip-path="url(#pb1863a4711)" style="fill: #1f77b4"/>
   </g>
   <g id="patch_110">
    <path d="M 221.897959 224.64 
L 223.412986 224.64 
L 223.412986 34.811429 
L 221.897959 34.811429 
z
" clip-path="url(#pb1863a4711)" style="fill: #1f77b4"/>
   </g>
   <g id="patch_111">
    <path d="M 223.412986 224.64 
L 224.928013 224.64 
L 224.928013 38.976946 
L 223.412986 38.976946 
z
" clip-path="url(#pb1863a4711)" style="fill: #1f77b4"/>
   </g>
   <g id="patch_112">
    <path d="M 224.928013 224.64 
L 226.44304 224.64 
L 226.44304 50.28335 
L 224.928013 50.28335 
z
" clip-path="url(#pb1863a4711)" style="fill: #1f77b4"/>
   </g>
   <g id="patch_113">
    <path d="M 226.44304 224.64 
L 227.958067 224.64 
L 227.958067 28.265616 
L 226.44304 28.265616 
z
" clip-path="url(#pb1863a4711)" style="fill: #1f77b4"/>
   </g>
   <g id="patch_114">
    <path d="M 227.958067 224.64 
L 229.473094 224.64 
L 229.473094 44.927685 
L 227.958067 44.927685 
z
" clip-path="url(#pb1863a4711)" style="fill: #1f77b4"/>
   </g>
   <g id="patch_115">
    <path d="M 229.473094 224.64 
L 230.988121 224.64 
L 230.988121 57.424236 
L 229.473094 57.424236 
z
" clip-path="url(#pb1863a4711)" style="fill: #1f77b4"/>
   </g>
   <g id="patch_116">
    <path d="M 230.988121 224.64 
L 232.503147 224.64 
L 232.503147 37.786798 
L 230.988121 37.786798 
z
" clip-path="url(#pb1863a4711)" style="fill: #1f77b4"/>
   </g>
   <g id="patch_117">
    <path d="M 232.503147 224.64 
L 234.018174 224.64 
L 234.018174 36.001576 
L 232.503147 36.001576 
z
" clip-path="url(#pb1863a4711)" style="fill: #1f77b4"/>
   </g>
   <g id="patch_118">
    <path d="M 234.018174 224.64 
L 235.533201 224.64 
L 235.533201 35.406502 
L 234.018174 35.406502 
z
" clip-path="url(#pb1863a4711)" style="fill: #1f77b4"/>
   </g>
   <g id="patch_119">
    <path d="M 235.533201 224.64 
L 237.048228 224.64 
L 237.048228 49.688276 
L 235.533201 49.688276 
z
" clip-path="url(#pb1863a4711)" style="fill: #1f77b4"/>
   </g>
   <g id="patch_120">
    <path d="M 237.048228 224.64 
L 238.563255 224.64 
L 238.563255 53.258719 
L 237.048228 53.258719 
z
" clip-path="url(#pb1863a4711)" style="fill: #1f77b4"/>
   </g>
   <g id="patch_121">
    <path d="M 238.563255 224.64 
L 240.078282 224.64 
L 240.078282 66.945419 
L 238.563255 66.945419 
z
" clip-path="url(#pb1863a4711)" style="fill: #1f77b4"/>
   </g>
   <g id="patch_122">
    <path d="M 240.078282 224.64 
L 241.593309 224.64 
L 241.593309 56.234089 
L 240.078282 56.234089 
z
" clip-path="url(#pb1863a4711)" style="fill: #1f77b4"/>
   </g>
   <g id="patch_123">
    <path d="M 241.593309 224.64 
L 243.108336 224.64 
L 243.108336 52.663645 
L 241.593309 52.663645 
z
" clip-path="url(#pb1863a4711)" style="fill: #1f77b4"/>
   </g>
   <g id="patch_124">
    <path d="M 243.108336 224.64 
L 244.623363 224.64 
L 244.623363 44.927685 
L 243.108336 44.927685 
z
" clip-path="url(#pb1863a4711)" style="fill: #1f77b4"/>
   </g>
   <g id="patch_125">
    <path d="M 244.623363 224.64 
L 246.13839 224.64 
L 246.13839 39.57202 
L 244.623363 39.57202 
z
" clip-path="url(#pb1863a4711)" style="fill: #1f77b4"/>
   </g>
   <g id="patch_126">
    <path d="M 246.13839 224.64 
L 247.653417 224.64 
L 247.653417 57.424236 
L 246.13839 57.424236 
z
" clip-path="url(#pb1863a4711)" style="fill: #1f77b4"/>
   </g>
   <g id="patch_127">
    <path d="M 247.653417 224.64 
L 249.168444 224.64 
L 249.168444 39.57202 
L 247.653417 39.57202 
z
" clip-path="url(#pb1863a4711)" style="fill: #1f77b4"/>
   </g>
   <g id="patch_128">
    <path d="M 249.168444 224.64 
L 250.683471 224.64 
L 250.683471 51.473498 
L 249.168444 51.473498 
z
" clip-path="url(#pb1863a4711)" style="fill: #1f77b4"/>
   </g>
   <g id="patch_129">
    <path d="M 250.683471 224.64 
L 252.198498 224.64 
L 252.198498 52.068571 
L 250.683471 52.068571 
z
" clip-path="url(#pb1863a4711)" style="fill: #1f77b4"/>
   </g>
   <g id="patch_130">
    <path d="M 252.198498 224.64 
L 253.713525 224.64 
L 253.713525 55.639015 
L 252.198498 55.639015 
z
" clip-path="url(#pb1863a4711)" style="fill: #1f77b4"/>
   </g>
   <g id="patch_131">
    <path d="M 253.713525 224.64 
L 255.228552 224.64 
L 255.228552 67.540493 
L 253.713525 67.540493 
z
" clip-path="url(#pb1863a4711)" style="fill: #1f77b4"/>
   </g>
   <g id="patch_132">
    <path d="M 255.228552 224.64 
L 256.743579 224.64 
L 256.743579 53.258719 
L 255.228552 53.258719 
z
" clip-path="url(#pb1863a4711)" style="fill: #1f77b4"/>
   </g>
   <g id="patch_133">
    <path d="M 256.743579 224.64 
L 258.258606 224.64 
L 258.258606 53.258719 
L 256.743579 53.258719 
z
" clip-path="url(#pb1863a4711)" style="fill: #1f77b4"/>
   </g>
   <g id="patch_134">
    <path d="M 258.258606 224.64 
L 259.773633 224.64 
L 259.773633 72.896158 
L 258.258606 72.896158 
z
" clip-path="url(#pb1863a4711)" style="fill: #1f77b4"/>
   </g>
   <g id="patch_135">
    <path d="M 259.773633 224.64 
L 261.28866 224.64 
L 261.28866 69.325714 
L 259.773633 69.325714 
z
" clip-path="url(#pb1863a4711)" style="fill: #1f77b4"/>
   </g>
   <g id="patch_136">
    <path d="M 261.28866 224.64 
L 262.803687 224.64 
L 262.803687 62.779901 
L 261.28866 62.779901 
z
" clip-path="url(#pb1863a4711)" style="fill: #1f77b4"/>
   </g>
   <g id="patch_137">
    <path d="M 262.803687 224.64 
L 264.318713 224.64 
L 264.318713 57.424236 
L 262.803687 57.424236 
z
" clip-path="url(#pb1863a4711)" style="fill: #1f77b4"/>
   </g>
   <g id="patch_138">
    <path d="M 264.318713 224.64 
L 265.83374 224.64 
L 265.83374 58.01931 
L 264.318713 58.01931 
z
" clip-path="url(#pb1863a4711)" style="fill: #1f77b4"/>
   </g>
   <g id="patch_139">
    <path d="M 265.83374 224.64 
L 267.348767 224.64 
L 267.348767 48.498128 
L 265.83374 48.498128 
z
" clip-path="url(#pb1863a4711)" style="fill: #1f77b4"/>
   </g>
   <g id="patch_140">
    <path d="M 267.348767 224.64 
L 268.863794 224.64 
L 268.863794 68.73064 
L 267.348767 68.73064 
z
" clip-path="url(#pb1863a4711)" style="fill: #1f77b4"/>
   </g>
   <g id="patch_141">
    <path d="M 268.863794 224.64 
L 270.378821 224.64 
L 270.378821 67.540493 
L 268.863794 67.540493 
z
" clip-path="url(#pb1863a4711)" style="fill: #1f77b4"/>
   </g>
   <g id="patch_142">
    <path d="M 270.378821 224.64 
L 271.893848 224.64 
L 271.893848 93.723744 
L 270.378821 93.723744 
z
" clip-path="url(#pb1863a4711)" style="fill: #1f77b4"/>
   </g>
   <g id="patch_143">
    <path d="M 271.893848 224.64 
L 273.408875 224.64 
L 273.408875 69.920788 
L 271.893848 69.920788 
z
" clip-path="url(#pb1863a4711)" style="fill: #1f77b4"/>
   </g>
   <g id="patch_144">
    <path d="M 273.408875 224.64 
L 274.923902 224.64 
L 274.923902 71.70601 
L 273.408875 71.70601 
z
" clip-path="url(#pb1863a4711)" style="fill: #1f77b4"/>
   </g>
   <g id="patch_145">
    <path d="M 274.923902 224.64 
L 276.438929 224.64 
L 276.438929 97.294187 
L 274.923902 97.294187 
z
" clip-path="url(#pb1863a4711)" style="fill: #1f77b4"/>
   </g>
   <g id="patch_146">
    <path d="M 276.438929 224.64 
L 277.953956 224.64 
L 277.953956 71.70601 
L 276.438929 71.70601 
z
" clip-path="url(#pb1863a4711)" style="fill: #1f77b4"/>
   </g>
   <g id="patch_147">
    <path d="M 277.953956 224.64 
L 279.468983 224.64 
L 279.468983 87.773005 
L 277.953956 87.773005 
z
" clip-path="url(#pb1863a4711)" style="fill: #1f77b4"/>
   </g>
   <g id="patch_148">
    <path d="M 279.468983 224.64 
L 280.98401 224.64 
L 280.98401 90.748374 
L 279.468983 90.748374 
z
" clip-path="url(#pb1863a4711)" style="fill: #1f77b4"/>
   </g>
   <g id="patch_149">
    <path d="M 280.98401 224.64 
L 282.499037 224.64 
L 282.499037 64.565123 
L 280.98401 64.565123 
z
" clip-path="url(#pb1863a4711)" style="fill: #1f77b4"/>
   </g>
   <g id="patch_150">
    <path d="M 282.499037 224.64 
L 284.014064 224.64 
L 284.014064 91.938522 
L 282.499037 91.938522 
z
" clip-path="url(#pb1863a4711)" style="fill: #1f77b4"/>
   </g>
   <g id="patch_151">
    <path d="M 284.014064 224.64 
L 285.529091 224.64 
L 285.529091 84.797635 
L 284.014064 84.797635 
z
" clip-path="url(#pb1863a4711)" style="fill: #1f77b4"/>
   </g>
   <g id="patch_152">
    <path d="M 285.529091 224.64 
L 287.044118 224.64 
L 287.044118 83.607488 
L 285.529091 83.607488 
z
" clip-path="url(#pb1863a4711)" style="fill: #1f77b4"/>
   </g>
   <g id="patch_153">
    <path d="M 287.044118 224.64 
L 288.559145 224.64 
L 288.559145 81.227192 
L 287.044118 81.227192 
z
" clip-path="url(#pb1863a4711)" style="fill: #1f77b4"/>
   </g>
   <g id="patch_154">
    <path d="M 288.559145 224.64 
L 290.074172 224.64 
L 290.074172 89.558227 
L 288.559145 89.558227 
z
" clip-path="url(#pb1863a4711)" style="fill: #1f77b4"/>
   </g>
   <g id="patch_155">
    <path d="M 290.074172 224.64 
L 291.589199 224.64 
L 291.589199 92.533596 
L 290.074172 92.533596 
z
" clip-path="url(#pb1863a4711)" style="fill: #1f77b4"/>
   </g>
   <g id="patch_156">
    <path d="M 291.589199 224.64 
L 293.104226 224.64 
L 293.104226 101.459704 
L 291.589199 101.459704 
z
" clip-path="url(#pb1863a4711)" style="fill: #1f77b4"/>
   </g>
   <g id="patch_157">
    <path d="M 293.104226 224.64 
L 294.619253 224.64 
L 294.619253 108.600591 
L 293.104226 108.600591 
z
" clip-path="url(#pb1863a4711)" style="fill: #1f77b4"/>
   </g>
   <g id="patch_158">
    <path d="M 294.619253 224.64 
L 296.134279 224.64 
L 296.134279 112.171034 
L 294.619253 112.171034 
z
" clip-path="url(#pb1863a4711)" style="fill: #1f77b4"/>
   </g>
   <g id="patch_159">
    <path d="M 296.134279 224.64 
L 297.649306 224.64 
L 297.649306 118.121773 
L 296.134279 118.121773 
z
" clip-path="url(#pb1863a4711)" style="fill: #1f77b4"/>
   </g>
   <g id="patch_160">
    <path d="M 297.649306 224.64 
L 299.164333 224.64 
L 299.164333 110.385813 
L 297.649306 110.385813 
z
" clip-path="url(#pb1863a4711)" style="fill: #1f77b4"/>
   </g>
   <g id="patch_161">
    <path d="M 299.164333 224.64 
L 300.67936 224.64 
L 300.67936 101.459704 
L 299.164333 101.459704 
z
" clip-path="url(#pb1863a4711)" style="fill: #1f77b4"/>
   </g>
   <g id="patch_162">
    <path d="M 300.67936 224.64 
L 302.194387 224.64 
L 302.194387 113.361182 
L 300.67936 113.361182 
z
" clip-path="url(#pb1863a4711)" style="fill: #1f77b4"/>
   </g>
   <g id="patch_163">
    <path d="M 302.194387 224.64 
L 303.709414 224.64 
L 303.709414 112.171034 
L 302.194387 112.171034 
z
" clip-path="url(#pb1863a4711)" style="fill: #1f77b4"/>
   </g>
   <g id="patch_164">
    <path d="M 303.709414 224.64 
L 305.224441 224.64 
L 305.224441 116.931626 
L 303.709414 116.931626 
z
" clip-path="url(#pb1863a4711)" style="fill: #1f77b4"/>
   </g>
   <g id="patch_165">
    <path d="M 305.224441 224.64 
L 306.739468 224.64 
L 306.739468 131.213399 
L 305.224441 131.213399 
z
" clip-path="url(#pb1863a4711)" style="fill: #1f77b4"/>
   </g>
   <g id="patch_166">
    <path d="M 306.739468 224.64 
L 308.254495 224.64 
L 308.254495 115.741478 
L 306.739468 115.741478 
z
" clip-path="url(#pb1863a4711)" style="fill: #1f77b4"/>
   </g>
   <g id="patch_167">
    <path d="M 308.254495 224.64 
L 309.769522 224.64 
L 309.769522 115.146404 
L 308.254495 115.146404 
z
" clip-path="url(#pb1863a4711)" style="fill: #1f77b4"/>
   </g>
   <g id="patch_168">
    <path d="M 309.769522 224.64 
L 311.284549 224.64 
L 311.284549 127.642956 
L 309.769522 127.642956 
z
" clip-path="url(#pb1863a4711)" style="fill: #1f77b4"/>
   </g>
   <g id="patch_169">
    <path d="M 311.284549 224.64 
L 312.799576 224.64 
L 312.799576 136.569064 
L 311.284549 136.569064 
z
" clip-path="url(#pb1863a4711)" style="fill: #1f77b4"/>
   </g>
   <g id="patch_170">
    <path d="M 312.799576 224.64 
L 314.314603 224.64 
L 314.314603 119.311921 
L 312.799576 119.311921 
z
" clip-path="url(#pb1863a4711)" style="fill: #1f77b4"/>
   </g>
   <g id="patch_171">
    <path d="M 314.314603 224.64 
L 315.82963 224.64 
L 315.82963 127.642956 
L 314.314603 127.642956 
z
" clip-path="url(#pb1863a4711)" style="fill: #1f77b4"/>
   </g>
   <g id="patch_172">
    <path d="M 315.82963 224.64 
L 317.344657 224.64 
L 317.344657 138.94936 
L 315.82963 138.94936 
z
" clip-path="url(#pb1863a4711)" style="fill: #1f77b4"/>
   </g>
   <g id="patch_173">
    <path d="M 317.344657 224.64 
L 318.859684 224.64 
L 318.859684 149.66069 
L 317.344657 149.66069 
z
" clip-path="url(#pb1863a4711)" style="fill: #1f77b4"/>
   </g>
   <g id="patch_174">
    <path d="M 318.859684 224.64 
L 320.374711 224.64 
L 320.374711 150.255764 
L 318.859684 150.255764 
z
" clip-path="url(#pb1863a4711)" style="fill: #1f77b4"/>
   </g>
   <g id="patch_175">
    <path d="M 320.374711 224.64 
L 321.889738 224.64 
L 321.889738 150.850837 
L 320.374711 150.850837 
z
" clip-path="url(#pb1863a4711)" style="fill: #1f77b4"/>
   </g>
   <g id="patch_176">
    <path d="M 321.889738 224.64 
L 323.404765 224.64 
L 323.404765 145.495172 
L 321.889738 145.495172 
z
" clip-path="url(#pb1863a4711)" style="fill: #1f77b4"/>
   </g>
   <g id="patch_177">
    <path d="M 323.404765 224.64 
L 324.919792 224.64 
L 324.919792 161.562167 
L 323.404765 161.562167 
z
" clip-path="url(#pb1863a4711)" style="fill: #1f77b4"/>
   </g>
   <g id="patch_178">
    <path d="M 324.919792 224.64 
L 326.434819 224.64 
L 326.434819 154.421281 
L 324.919792 154.421281 
z
" clip-path="url(#pb1863a4711)" style="fill: #1f77b4"/>
   </g>
   <g id="patch_179">
    <path d="M 326.434819 224.64 
L 327.949845 224.64 
L 327.949845 157.991724 
L 326.434819 157.991724 
z
" clip-path="url(#pb1863a4711)" style="fill: #1f77b4"/>
   </g>
   <g id="patch_180">
    <path d="M 327.949845 224.64 
L 329.464872 224.64 
L 329.464872 163.942463 
L 327.949845 163.942463 
z
" clip-path="url(#pb1863a4711)" style="fill: #1f77b4"/>
   </g>
   <g id="patch_181">
    <path d="M 329.464872 224.64 
L 330.979899 224.64 
L 330.979899 160.37202 
L 329.464872 160.37202 
z
" clip-path="url(#pb1863a4711)" style="fill: #1f77b4"/>
   </g>
   <g id="patch_182">
    <path d="M 330.979899 224.64 
L 332.494926 224.64 
L 332.494926 163.942463 
L 330.979899 163.942463 
z
" clip-path="url(#pb1863a4711)" style="fill: #1f77b4"/>
   </g>
   <g id="patch_183">
    <path d="M 332.494926 224.64 
L 334.009953 224.64 
L 334.009953 160.37202 
L 332.494926 160.37202 
z
" clip-path="url(#pb1863a4711)" style="fill: #1f77b4"/>
   </g>
   <g id="patch_184">
    <path d="M 334.009953 224.64 
L 335.52498 224.64 
L 335.52498 172.868571 
L 334.009953 172.868571 
z
" clip-path="url(#pb1863a4711)" style="fill: #1f77b4"/>
   </g>
   <g id="patch_185">
    <path d="M 335.52498 224.64 
L 337.040007 224.64 
L 337.040007 166.917833 
L 335.52498 166.917833 
z
" clip-path="url(#pb1863a4711)" style="fill: #1f77b4"/>
   </g>
   <g id="patch_186">
    <path d="M 337.040007 224.64 
L 338.555034 224.64 
L 338.555034 177.629163 
L 337.040007 177.629163 
z
" clip-path="url(#pb1863a4711)" style="fill: #1f77b4"/>
   </g>
   <g id="patch_187">
    <path d="M 338.555034 224.64 
L 340.070061 224.64 
L 340.070061 179.414384 
L 338.555034 179.414384 
z
" clip-path="url(#pb1863a4711)" style="fill: #1f77b4"/>
   </g>
   <g id="patch_188">
    <path d="M 340.070061 224.64 
L 341.585088 224.64 
L 341.585088 185.365123 
L 340.070061 185.365123 
z
" clip-path="url(#pb1863a4711)" style="fill: #1f77b4"/>
   </g>
   <g id="patch_189">
    <path d="M 341.585088 224.64 
L 343.100115 224.64 
L 343.100115 193.101084 
L 341.585088 193.101084 
z
" clip-path="url(#pb1863a4711)" style="fill: #1f77b4"/>
   </g>
   <g id="patch_190">
    <path d="M 343.100115 224.64 
L 344.615142 224.64 
L 344.615142 190.720788 
L 343.100115 190.720788 
z
" clip-path="url(#pb1863a4711)" style="fill: #1f77b4"/>
   </g>
   <g id="patch_191">
    <path d="M 344.615142 224.64 
L 346.130169 224.64 
L 346.130169 201.432118 
L 344.615142 201.432118 
z
" clip-path="url(#pb1863a4711)" style="fill: #1f77b4"/>
   </g>
   <g id="patch_192">
    <path d="M 346.130169 224.64 
L 347.645196 224.64 
L 347.645196 196.076453 
L 346.130169 196.076453 
z
" clip-path="url(#pb1863a4711)" style="fill: #1f77b4"/>
   </g>
   <g id="patch_193">
    <path d="M 347.645196 224.64 
L 349.160223 224.64 
L 349.160223 199.646897 
L 347.645196 199.646897 
z
" clip-path="url(#pb1863a4711)" style="fill: #1f77b4"/>
   </g>
   <g id="patch_194">
    <path d="M 349.160223 224.64 
L 350.67525 224.64 
L 350.67525 201.432118 
L 349.160223 201.432118 
z
" clip-path="url(#pb1863a4711)" style="fill: #1f77b4"/>
   </g>
   <g id="patch_195">
    <path d="M 350.67525 224.64 
L 352.190277 224.64 
L 352.190277 200.837044 
L 350.67525 200.837044 
z
" clip-path="url(#pb1863a4711)" style="fill: #1f77b4"/>
   </g>
   <g id="patch_196">
    <path d="M 352.190277 224.64 
L 353.705304 224.64 
L 353.705304 206.192709 
L 352.190277 206.192709 
z
" clip-path="url(#pb1863a4711)" style="fill: #1f77b4"/>
   </g>
   <g id="patch_197">
    <path d="M 353.705304 224.64 
L 355.220331 224.64 
L 355.220331 209.763153 
L 353.705304 209.763153 
z
" clip-path="url(#pb1863a4711)" style="fill: #1f77b4"/>
   </g>
   <g id="patch_198">
    <path d="M 355.220331 224.64 
L 356.735358 224.64 
L 356.735358 209.763153 
L 355.220331 209.763153 
z
" clip-path="url(#pb1863a4711)" style="fill: #1f77b4"/>
   </g>
   <g id="patch_199">
    <path d="M 356.735358 224.64 
L 358.250385 224.64 
L 358.250385 213.92867 
L 356.735358 213.92867 
z
" clip-path="url(#pb1863a4711)" style="fill: #1f77b4"/>
   </g>
   <g id="patch_200">
    <path d="M 358.250385 224.64 
L 359.765411 224.64 
L 359.765411 211.548374 
L 358.250385 211.548374 
z
" clip-path="url(#pb1863a4711)" style="fill: #1f77b4"/>
   </g>
   <g id="patch_201">
    <path d="M 359.765411 224.64 
L 361.280438 224.64 
L 361.280438 216.904039 
L 359.765411 216.904039 
z
" clip-path="url(#pb1863a4711)" style="fill: #1f77b4"/>
   </g>
   <g id="patch_202">
    <path d="M 361.280438 224.64 
L 362.795465 224.64 
L 362.795465 221.069557 
L 361.280438 221.069557 
z
" clip-path="url(#pb1863a4711)" style="fill: #1f77b4"/>
   </g>
   <g id="matplotlib.axis_1">
    <g id="xtick_1">
     <g id="line2d_1">
      <defs>
       <path id="mabd33d98a2" d="M 0 0 
L 0 3.5 
" style="stroke: #000000; stroke-width: 0.8"/>
      </defs>
      <g>
       <use xlink:href="#mabd33d98a2" x="58.999432" y="224.64" style="stroke: #000000; stroke-width: 0.8"/>
      </g>
     </g>
     <g id="text_1">
      <!-- 0.0 -->
      <g transform="translate(51.047869 239.238438)scale(0.1 -0.1)">
       <defs>
        <path id="DejaVuSans-30" d="M 2034 4250 
Q 1547 4250 1301 3770 
Q 1056 3291 1056 2328 
Q 1056 1369 1301 889 
Q 1547 409 2034 409 
Q 2525 409 2770 889 
Q 3016 1369 3016 2328 
Q 3016 3291 2770 3770 
Q 2525 4250 2034 4250 
z
M 2034 4750 
Q 2819 4750 3233 4129 
Q 3647 3509 3647 2328 
Q 3647 1150 3233 529 
Q 2819 -91 2034 -91 
Q 1250 -91 836 529 
Q 422 1150 422 2328 
Q 422 3509 836 4129 
Q 1250 4750 2034 4750 
z
" transform="scale(0.015625)"/>
        <path id="DejaVuSans-2e" d="M 684 794 
L 1344 794 
L 1344 0 
L 684 0 
L 684 794 
z
" transform="scale(0.015625)"/>
       </defs>
       <use xlink:href="#DejaVuSans-30"/>
       <use xlink:href="#DejaVuSans-2e" x="63.623047"/>
       <use xlink:href="#DejaVuSans-30" x="95.410156"/>
      </g>
     </g>
    </g>
    <g id="xtick_2">
     <g id="line2d_2">
      <g>
       <use xlink:href="#mabd33d98a2" x="97.752214" y="224.64" style="stroke: #000000; stroke-width: 0.8"/>
      </g>
     </g>
     <g id="text_2">
      <!-- 0.2 -->
      <g transform="translate(89.800651 239.238438)scale(0.1 -0.1)">
       <defs>
        <path id="DejaVuSans-32" d="M 1228 531 
L 3431 531 
L 3431 0 
L 469 0 
L 469 531 
Q 828 903 1448 1529 
Q 2069 2156 2228 2338 
Q 2531 2678 2651 2914 
Q 2772 3150 2772 3378 
Q 2772 3750 2511 3984 
Q 2250 4219 1831 4219 
Q 1534 4219 1204 4116 
Q 875 4013 500 3803 
L 500 4441 
Q 881 4594 1212 4672 
Q 1544 4750 1819 4750 
Q 2544 4750 2975 4387 
Q 3406 4025 3406 3419 
Q 3406 3131 3298 2873 
Q 3191 2616 2906 2266 
Q 2828 2175 2409 1742 
Q 1991 1309 1228 531 
z
" transform="scale(0.015625)"/>
       </defs>
       <use xlink:href="#DejaVuSans-30"/>
       <use xlink:href="#DejaVuSans-2e" x="63.623047"/>
       <use xlink:href="#DejaVuSans-32" x="95.410156"/>
      </g>
     </g>
    </g>
    <g id="xtick_3">
     <g id="line2d_3">
      <g>
       <use xlink:href="#mabd33d98a2" x="136.504995" y="224.64" style="stroke: #000000; stroke-width: 0.8"/>
      </g>
     </g>
     <g id="text_3">
      <!-- 0.4 -->
      <g transform="translate(128.553433 239.238438)scale(0.1 -0.1)">
       <defs>
        <path id="DejaVuSans-34" d="M 2419 4116 
L 825 1625 
L 2419 1625 
L 2419 4116 
z
M 2253 4666 
L 3047 4666 
L 3047 1625 
L 3713 1625 
L 3713 1100 
L 3047 1100 
L 3047 0 
L 2419 0 
L 2419 1100 
L 313 1100 
L 313 1709 
L 2253 4666 
z
" transform="scale(0.015625)"/>
       </defs>
       <use xlink:href="#DejaVuSans-30"/>
       <use xlink:href="#DejaVuSans-2e" x="63.623047"/>
       <use xlink:href="#DejaVuSans-34" x="95.410156"/>
      </g>
     </g>
    </g>
    <g id="xtick_4">
     <g id="line2d_4">
      <g>
       <use xlink:href="#mabd33d98a2" x="175.257777" y="224.64" style="stroke: #000000; stroke-width: 0.8"/>
      </g>
     </g>
     <g id="text_4">
      <!-- 0.6 -->
      <g transform="translate(167.306215 239.238438)scale(0.1 -0.1)">
       <defs>
        <path id="DejaVuSans-36" d="M 2113 2584 
Q 1688 2584 1439 2293 
Q 1191 2003 1191 1497 
Q 1191 994 1439 701 
Q 1688 409 2113 409 
Q 2538 409 2786 701 
Q 3034 994 3034 1497 
Q 3034 2003 2786 2293 
Q 2538 2584 2113 2584 
z
M 3366 4563 
L 3366 3988 
Q 3128 4100 2886 4159 
Q 2644 4219 2406 4219 
Q 1781 4219 1451 3797 
Q 1122 3375 1075 2522 
Q 1259 2794 1537 2939 
Q 1816 3084 2150 3084 
Q 2853 3084 3261 2657 
Q 3669 2231 3669 1497 
Q 3669 778 3244 343 
Q 2819 -91 2113 -91 
Q 1303 -91 875 529 
Q 447 1150 447 2328 
Q 447 3434 972 4092 
Q 1497 4750 2381 4750 
Q 2619 4750 2861 4703 
Q 3103 4656 3366 4563 
z
" transform="scale(0.015625)"/>
       </defs>
       <use xlink:href="#DejaVuSans-30"/>
       <use xlink:href="#DejaVuSans-2e" x="63.623047"/>
       <use xlink:href="#DejaVuSans-36" x="95.410156"/>
      </g>
     </g>
    </g>
    <g id="xtick_5">
     <g id="line2d_5">
      <g>
       <use xlink:href="#mabd33d98a2" x="214.010559" y="224.64" style="stroke: #000000; stroke-width: 0.8"/>
      </g>
     </g>
     <g id="text_5">
      <!-- 0.8 -->
      <g transform="translate(206.058996 239.238438)scale(0.1 -0.1)">
       <defs>
        <path id="DejaVuSans-38" d="M 2034 2216 
Q 1584 2216 1326 1975 
Q 1069 1734 1069 1313 
Q 1069 891 1326 650 
Q 1584 409 2034 409 
Q 2484 409 2743 651 
Q 3003 894 3003 1313 
Q 3003 1734 2745 1975 
Q 2488 2216 2034 2216 
z
M 1403 2484 
Q 997 2584 770 2862 
Q 544 3141 544 3541 
Q 544 4100 942 4425 
Q 1341 4750 2034 4750 
Q 2731 4750 3128 4425 
Q 3525 4100 3525 3541 
Q 3525 3141 3298 2862 
Q 3072 2584 2669 2484 
Q 3125 2378 3379 2068 
Q 3634 1759 3634 1313 
Q 3634 634 3220 271 
Q 2806 -91 2034 -91 
Q 1263 -91 848 271 
Q 434 634 434 1313 
Q 434 1759 690 2068 
Q 947 2378 1403 2484 
z
M 1172 3481 
Q 1172 3119 1398 2916 
Q 1625 2713 2034 2713 
Q 2441 2713 2670 2916 
Q 2900 3119 2900 3481 
Q 2900 3844 2670 4047 
Q 2441 4250 2034 4250 
Q 1625 4250 1398 4047 
Q 1172 3844 1172 3481 
z
" transform="scale(0.015625)"/>
       </defs>
       <use xlink:href="#DejaVuSans-30"/>
       <use xlink:href="#DejaVuSans-2e" x="63.623047"/>
       <use xlink:href="#DejaVuSans-38" x="95.410156"/>
      </g>
     </g>
    </g>
    <g id="xtick_6">
     <g id="line2d_6">
      <g>
       <use xlink:href="#mabd33d98a2" x="252.763341" y="224.64" style="stroke: #000000; stroke-width: 0.8"/>
      </g>
     </g>
     <g id="text_6">
      <!-- 1.0 -->
      <g transform="translate(244.811778 239.238438)scale(0.1 -0.1)">
       <defs>
        <path id="DejaVuSans-31" d="M 794 531 
L 1825 531 
L 1825 4091 
L 703 3866 
L 703 4441 
L 1819 4666 
L 2450 4666 
L 2450 531 
L 3481 531 
L 3481 0 
L 794 0 
L 794 531 
z
" transform="scale(0.015625)"/>
       </defs>
       <use xlink:href="#DejaVuSans-31"/>
       <use xlink:href="#DejaVuSans-2e" x="63.623047"/>
       <use xlink:href="#DejaVuSans-30" x="95.410156"/>
      </g>
     </g>
    </g>
    <g id="xtick_7">
     <g id="line2d_7">
      <g>
       <use xlink:href="#mabd33d98a2" x="291.516122" y="224.64" style="stroke: #000000; stroke-width: 0.8"/>
      </g>
     </g>
     <g id="text_7">
      <!-- 1.2 -->
      <g transform="translate(283.56456 239.238438)scale(0.1 -0.1)">
       <use xlink:href="#DejaVuSans-31"/>
       <use xlink:href="#DejaVuSans-2e" x="63.623047"/>
       <use xlink:href="#DejaVuSans-32" x="95.410156"/>
      </g>
     </g>
    </g>
    <g id="xtick_8">
     <g id="line2d_8">
      <g>
       <use xlink:href="#mabd33d98a2" x="330.268904" y="224.64" style="stroke: #000000; stroke-width: 0.8"/>
      </g>
     </g>
     <g id="text_8">
      <!-- 1.4 -->
      <g transform="translate(322.317342 239.238438)scale(0.1 -0.1)">
       <use xlink:href="#DejaVuSans-31"/>
       <use xlink:href="#DejaVuSans-2e" x="63.623047"/>
       <use xlink:href="#DejaVuSans-34" x="95.410156"/>
      </g>
     </g>
    </g>
    <g id="xtick_9">
     <g id="line2d_9">
      <g>
       <use xlink:href="#mabd33d98a2" x="369.021686" y="224.64" style="stroke: #000000; stroke-width: 0.8"/>
      </g>
     </g>
     <g id="text_9">
      <!-- 1.6 -->
      <g transform="translate(361.070124 239.238438)scale(0.1 -0.1)">
       <use xlink:href="#DejaVuSans-31"/>
       <use xlink:href="#DejaVuSans-2e" x="63.623047"/>
       <use xlink:href="#DejaVuSans-36" x="95.410156"/>
      </g>
     </g>
    </g>
    <g id="text_10">
     <!-- Angle with normal (rad) -->
     <g transform="translate(151.863281 252.916563)scale(0.1 -0.1)">
      <defs>
       <path id="DejaVuSans-41" d="M 2188 4044 
L 1331 1722 
L 3047 1722 
L 2188 4044 
z
M 1831 4666 
L 2547 4666 
L 4325 0 
L 3669 0 
L 3244 1197 
L 1141 1197 
L 716 0 
L 50 0 
L 1831 4666 
z
" transform="scale(0.015625)"/>
       <path id="DejaVuSans-6e" d="M 3513 2113 
L 3513 0 
L 2938 0 
L 2938 2094 
Q 2938 2591 2744 2837 
Q 2550 3084 2163 3084 
Q 1697 3084 1428 2787 
Q 1159 2491 1159 1978 
L 1159 0 
L 581 0 
L 581 3500 
L 1159 3500 
L 1159 2956 
Q 1366 3272 1645 3428 
Q 1925 3584 2291 3584 
Q 2894 3584 3203 3211 
Q 3513 2838 3513 2113 
z
" transform="scale(0.015625)"/>
       <path id="DejaVuSans-67" d="M 2906 1791 
Q 2906 2416 2648 2759 
Q 2391 3103 1925 3103 
Q 1463 3103 1205 2759 
Q 947 2416 947 1791 
Q 947 1169 1205 825 
Q 1463 481 1925 481 
Q 2391 481 2648 825 
Q 2906 1169 2906 1791 
z
M 3481 434 
Q 3481 -459 3084 -895 
Q 2688 -1331 1869 -1331 
Q 1566 -1331 1297 -1286 
Q 1028 -1241 775 -1147 
L 775 -588 
Q 1028 -725 1275 -790 
Q 1522 -856 1778 -856 
Q 2344 -856 2625 -561 
Q 2906 -266 2906 331 
L 2906 616 
Q 2728 306 2450 153 
Q 2172 0 1784 0 
Q 1141 0 747 490 
Q 353 981 353 1791 
Q 353 2603 747 3093 
Q 1141 3584 1784 3584 
Q 2172 3584 2450 3431 
Q 2728 3278 2906 2969 
L 2906 3500 
L 3481 3500 
L 3481 434 
z
" transform="scale(0.015625)"/>
       <path id="DejaVuSans-6c" d="M 603 4863 
L 1178 4863 
L 1178 0 
L 603 0 
L 603 4863 
z
" transform="scale(0.015625)"/>
       <path id="DejaVuSans-65" d="M 3597 1894 
L 3597 1613 
L 953 1613 
Q 991 1019 1311 708 
Q 1631 397 2203 397 
Q 2534 397 2845 478 
Q 3156 559 3463 722 
L 3463 178 
Q 3153 47 2828 -22 
Q 2503 -91 2169 -91 
Q 1331 -91 842 396 
Q 353 884 353 1716 
Q 353 2575 817 3079 
Q 1281 3584 2069 3584 
Q 2775 3584 3186 3129 
Q 3597 2675 3597 1894 
z
M 3022 2063 
Q 3016 2534 2758 2815 
Q 2500 3097 2075 3097 
Q 1594 3097 1305 2825 
Q 1016 2553 972 2059 
L 3022 2063 
z
" transform="scale(0.015625)"/>
       <path id="DejaVuSans-20" transform="scale(0.015625)"/>
       <path id="DejaVuSans-77" d="M 269 3500 
L 844 3500 
L 1563 769 
L 2278 3500 
L 2956 3500 
L 3675 769 
L 4391 3500 
L 4966 3500 
L 4050 0 
L 3372 0 
L 2619 2869 
L 1863 0 
L 1184 0 
L 269 3500 
z
" transform="scale(0.015625)"/>
       <path id="DejaVuSans-69" d="M 603 3500 
L 1178 3500 
L 1178 0 
L 603 0 
L 603 3500 
z
M 603 4863 
L 1178 4863 
L 1178 4134 
L 603 4134 
L 603 4863 
z
" transform="scale(0.015625)"/>
       <path id="DejaVuSans-74" d="M 1172 4494 
L 1172 3500 
L 2356 3500 
L 2356 3053 
L 1172 3053 
L 1172 1153 
Q 1172 725 1289 603 
Q 1406 481 1766 481 
L 2356 481 
L 2356 0 
L 1766 0 
Q 1100 0 847 248 
Q 594 497 594 1153 
L 594 3053 
L 172 3053 
L 172 3500 
L 594 3500 
L 594 4494 
L 1172 4494 
z
" transform="scale(0.015625)"/>
       <path id="DejaVuSans-68" d="M 3513 2113 
L 3513 0 
L 2938 0 
L 2938 2094 
Q 2938 2591 2744 2837 
Q 2550 3084 2163 3084 
Q 1697 3084 1428 2787 
Q 1159 2491 1159 1978 
L 1159 0 
L 581 0 
L 581 4863 
L 1159 4863 
L 1159 2956 
Q 1366 3272 1645 3428 
Q 1925 3584 2291 3584 
Q 2894 3584 3203 3211 
Q 3513 2838 3513 2113 
z
" transform="scale(0.015625)"/>
       <path id="DejaVuSans-6f" d="M 1959 3097 
Q 1497 3097 1228 2736 
Q 959 2375 959 1747 
Q 959 1119 1226 758 
Q 1494 397 1959 397 
Q 2419 397 2687 759 
Q 2956 1122 2956 1747 
Q 2956 2369 2687 2733 
Q 2419 3097 1959 3097 
z
M 1959 3584 
Q 2709 3584 3137 3096 
Q 3566 2609 3566 1747 
Q 3566 888 3137 398 
Q 2709 -91 1959 -91 
Q 1206 -91 779 398 
Q 353 888 353 1747 
Q 353 2609 779 3096 
Q 1206 3584 1959 3584 
z
" transform="scale(0.015625)"/>
       <path id="DejaVuSans-72" d="M 2631 2963 
Q 2534 3019 2420 3045 
Q 2306 3072 2169 3072 
Q 1681 3072 1420 2755 
Q 1159 2438 1159 1844 
L 1159 0 
L 581 0 
L 581 3500 
L 1159 3500 
L 1159 2956 
Q 1341 3275 1631 3429 
Q 1922 3584 2338 3584 
Q 2397 3584 2469 3576 
Q 2541 3569 2628 3553 
L 2631 2963 
z
" transform="scale(0.015625)"/>
       <path id="DejaVuSans-6d" d="M 3328 2828 
Q 3544 3216 3844 3400 
Q 4144 3584 4550 3584 
Q 5097 3584 5394 3201 
Q 5691 2819 5691 2113 
L 5691 0 
L 5113 0 
L 5113 2094 
Q 5113 2597 4934 2840 
Q 4756 3084 4391 3084 
Q 3944 3084 3684 2787 
Q 3425 2491 3425 1978 
L 3425 0 
L 2847 0 
L 2847 2094 
Q 2847 2600 2669 2842 
Q 2491 3084 2119 3084 
Q 1678 3084 1418 2786 
Q 1159 2488 1159 1978 
L 1159 0 
L 581 0 
L 581 3500 
L 1159 3500 
L 1159 2956 
Q 1356 3278 1631 3431 
Q 1906 3584 2284 3584 
Q 2666 3584 2933 3390 
Q 3200 3197 3328 2828 
z
" transform="scale(0.015625)"/>
       <path id="DejaVuSans-61" d="M 2194 1759 
Q 1497 1759 1228 1600 
Q 959 1441 959 1056 
Q 959 750 1161 570 
Q 1363 391 1709 391 
Q 2188 391 2477 730 
Q 2766 1069 2766 1631 
L 2766 1759 
L 2194 1759 
z
M 3341 1997 
L 3341 0 
L 2766 0 
L 2766 531 
Q 2569 213 2275 61 
Q 1981 -91 1556 -91 
Q 1019 -91 701 211 
Q 384 513 384 1019 
Q 384 1609 779 1909 
Q 1175 2209 1959 2209 
L 2766 2209 
L 2766 2266 
Q 2766 2663 2505 2880 
Q 2244 3097 1772 3097 
Q 1472 3097 1187 3025 
Q 903 2953 641 2809 
L 641 3341 
Q 956 3463 1253 3523 
Q 1550 3584 1831 3584 
Q 2591 3584 2966 3190 
Q 3341 2797 3341 1997 
z
" transform="scale(0.015625)"/>
       <path id="DejaVuSans-28" d="M 1984 4856 
Q 1566 4138 1362 3434 
Q 1159 2731 1159 2009 
Q 1159 1288 1364 580 
Q 1569 -128 1984 -844 
L 1484 -844 
Q 1016 -109 783 600 
Q 550 1309 550 2009 
Q 550 2706 781 3412 
Q 1013 4119 1484 4856 
L 1984 4856 
z
" transform="scale(0.015625)"/>
       <path id="DejaVuSans-64" d="M 2906 2969 
L 2906 4863 
L 3481 4863 
L 3481 0 
L 2906 0 
L 2906 525 
Q 2725 213 2448 61 
Q 2172 -91 1784 -91 
Q 1150 -91 751 415 
Q 353 922 353 1747 
Q 353 2572 751 3078 
Q 1150 3584 1784 3584 
Q 2172 3584 2448 3432 
Q 2725 3281 2906 2969 
z
M 947 1747 
Q 947 1113 1208 752 
Q 1469 391 1925 391 
Q 2381 391 2643 752 
Q 2906 1113 2906 1747 
Q 2906 2381 2643 2742 
Q 2381 3103 1925 3103 
Q 1469 3103 1208 2742 
Q 947 2381 947 1747 
z
" transform="scale(0.015625)"/>
       <path id="DejaVuSans-29" d="M 513 4856 
L 1013 4856 
Q 1481 4119 1714 3412 
Q 1947 2706 1947 2009 
Q 1947 1309 1714 600 
Q 1481 -109 1013 -844 
L 513 -844 
Q 928 -128 1133 580 
Q 1338 1288 1338 2009 
Q 1338 2731 1133 3434 
Q 928 4138 513 4856 
z
" transform="scale(0.015625)"/>
      </defs>
      <use xlink:href="#DejaVuSans-41"/>
      <use xlink:href="#DejaVuSans-6e" x="68.408203"/>
      <use xlink:href="#DejaVuSans-67" x="131.787109"/>
      <use xlink:href="#DejaVuSans-6c" x="195.263672"/>
      <use xlink:href="#DejaVuSans-65" x="223.046875"/>
      <use xlink:href="#DejaVuSans-20" x="284.570312"/>
      <use xlink:href="#DejaVuSans-77" x="316.357422"/>
      <use xlink:href="#DejaVuSans-69" x="398.144531"/>
      <use xlink:href="#DejaVuSans-74" x="425.927734"/>
      <use xlink:href="#DejaVuSans-68" x="465.136719"/>
      <use xlink:href="#DejaVuSans-20" x="528.515625"/>
      <use xlink:href="#DejaVuSans-6e" x="560.302734"/>
      <use xlink:href="#DejaVuSans-6f" x="623.681641"/>
      <use xlink:href="#DejaVuSans-72" x="684.863281"/>
      <use xlink:href="#DejaVuSans-6d" x="724.226562"/>
      <use xlink:href="#DejaVuSans-61" x="821.638672"/>
      <use xlink:href="#DejaVuSans-6c" x="882.917969"/>
      <use xlink:href="#DejaVuSans-20" x="910.701172"/>
      <use xlink:href="#DejaVuSans-28" x="942.488281"/>
      <use xlink:href="#DejaVuSans-72" x="981.501953"/>
      <use xlink:href="#DejaVuSans-61" x="1022.615234"/>
      <use xlink:href="#DejaVuSans-64" x="1083.894531"/>
      <use xlink:href="#DejaVuSans-29" x="1147.371094"/>
     </g>
    </g>
   </g>
   <g id="matplotlib.axis_2">
    <g id="ytick_1">
     <g id="line2d_10">
      <defs>
       <path id="m72ee144562" d="M 0 0 
L -3.5 0 
" style="stroke: #000000; stroke-width: 0.8"/>
      </defs>
      <g>
       <use xlink:href="#m72ee144562" x="43.78125" y="224.64" style="stroke: #000000; stroke-width: 0.8"/>
      </g>
     </g>
     <g id="text_11">
      <!-- 0.0 -->
      <g transform="translate(20.878125 228.439219)scale(0.1 -0.1)">
       <use xlink:href="#DejaVuSans-30"/>
       <use xlink:href="#DejaVuSans-2e" x="63.623047"/>
       <use xlink:href="#DejaVuSans-30" x="95.410156"/>
      </g>
     </g>
    </g>
    <g id="ytick_2">
     <g id="line2d_11">
      <g>
       <use xlink:href="#m72ee144562" x="43.78125" y="187.417259" style="stroke: #000000; stroke-width: 0.8"/>
      </g>
     </g>
     <g id="text_12">
      <!-- 0.2 -->
      <g transform="translate(20.878125 191.216477)scale(0.1 -0.1)">
       <use xlink:href="#DejaVuSans-30"/>
       <use xlink:href="#DejaVuSans-2e" x="63.623047"/>
       <use xlink:href="#DejaVuSans-32" x="95.410156"/>
      </g>
     </g>
    </g>
    <g id="ytick_3">
     <g id="line2d_12">
      <g>
       <use xlink:href="#m72ee144562" x="43.78125" y="150.194517" style="stroke: #000000; stroke-width: 0.8"/>
      </g>
     </g>
     <g id="text_13">
      <!-- 0.4 -->
      <g transform="translate(20.878125 153.993736)scale(0.1 -0.1)">
       <use xlink:href="#DejaVuSans-30"/>
       <use xlink:href="#DejaVuSans-2e" x="63.623047"/>
       <use xlink:href="#DejaVuSans-34" x="95.410156"/>
      </g>
     </g>
    </g>
    <g id="ytick_4">
     <g id="line2d_13">
      <g>
       <use xlink:href="#m72ee144562" x="43.78125" y="112.971776" style="stroke: #000000; stroke-width: 0.8"/>
      </g>
     </g>
     <g id="text_14">
      <!-- 0.6 -->
      <g transform="translate(20.878125 116.770994)scale(0.1 -0.1)">
       <use xlink:href="#DejaVuSans-30"/>
       <use xlink:href="#DejaVuSans-2e" x="63.623047"/>
       <use xlink:href="#DejaVuSans-36" x="95.410156"/>
      </g>
     </g>
    </g>
    <g id="ytick_5">
     <g id="line2d_14">
      <g>
       <use xlink:href="#m72ee144562" x="43.78125" y="75.749034" style="stroke: #000000; stroke-width: 0.8"/>
      </g>
     </g>
     <g id="text_15">
      <!-- 0.8 -->
      <g transform="translate(20.878125 79.548253)scale(0.1 -0.1)">
       <use xlink:href="#DejaVuSans-30"/>
       <use xlink:href="#DejaVuSans-2e" x="63.623047"/>
       <use xlink:href="#DejaVuSans-38" x="95.410156"/>
      </g>
     </g>
    </g>
    <g id="ytick_6">
     <g id="line2d_15">
      <g>
       <use xlink:href="#m72ee144562" x="43.78125" y="38.526293" style="stroke: #000000; stroke-width: 0.8"/>
      </g>
     </g>
     <g id="text_16">
      <!-- 1.0 -->
      <g transform="translate(20.878125 42.325512)scale(0.1 -0.1)">
       <use xlink:href="#DejaVuSans-31"/>
       <use xlink:href="#DejaVuSans-2e" x="63.623047"/>
       <use xlink:href="#DejaVuSans-30" x="95.410156"/>
      </g>
     </g>
    </g>
    <g id="text_17">
     <!-- Probability density -->
     <g transform="translate(14.798438 162.270781)rotate(-90)scale(0.1 -0.1)">
      <defs>
       <path id="DejaVuSans-50" d="M 1259 4147 
L 1259 2394 
L 2053 2394 
Q 2494 2394 2734 2622 
Q 2975 2850 2975 3272 
Q 2975 3691 2734 3919 
Q 2494 4147 2053 4147 
L 1259 4147 
z
M 628 4666 
L 2053 4666 
Q 2838 4666 3239 4311 
Q 3641 3956 3641 3272 
Q 3641 2581 3239 2228 
Q 2838 1875 2053 1875 
L 1259 1875 
L 1259 0 
L 628 0 
L 628 4666 
z
" transform="scale(0.015625)"/>
       <path id="DejaVuSans-62" d="M 3116 1747 
Q 3116 2381 2855 2742 
Q 2594 3103 2138 3103 
Q 1681 3103 1420 2742 
Q 1159 2381 1159 1747 
Q 1159 1113 1420 752 
Q 1681 391 2138 391 
Q 2594 391 2855 752 
Q 3116 1113 3116 1747 
z
M 1159 2969 
Q 1341 3281 1617 3432 
Q 1894 3584 2278 3584 
Q 2916 3584 3314 3078 
Q 3713 2572 3713 1747 
Q 3713 922 3314 415 
Q 2916 -91 2278 -91 
Q 1894 -91 1617 61 
Q 1341 213 1159 525 
L 1159 0 
L 581 0 
L 581 4863 
L 1159 4863 
L 1159 2969 
z
" transform="scale(0.015625)"/>
       <path id="DejaVuSans-79" d="M 2059 -325 
Q 1816 -950 1584 -1140 
Q 1353 -1331 966 -1331 
L 506 -1331 
L 506 -850 
L 844 -850 
Q 1081 -850 1212 -737 
Q 1344 -625 1503 -206 
L 1606 56 
L 191 3500 
L 800 3500 
L 1894 763 
L 2988 3500 
L 3597 3500 
L 2059 -325 
z
" transform="scale(0.015625)"/>
       <path id="DejaVuSans-73" d="M 2834 3397 
L 2834 2853 
Q 2591 2978 2328 3040 
Q 2066 3103 1784 3103 
Q 1356 3103 1142 2972 
Q 928 2841 928 2578 
Q 928 2378 1081 2264 
Q 1234 2150 1697 2047 
L 1894 2003 
Q 2506 1872 2764 1633 
Q 3022 1394 3022 966 
Q 3022 478 2636 193 
Q 2250 -91 1575 -91 
Q 1294 -91 989 -36 
Q 684 19 347 128 
L 347 722 
Q 666 556 975 473 
Q 1284 391 1588 391 
Q 1994 391 2212 530 
Q 2431 669 2431 922 
Q 2431 1156 2273 1281 
Q 2116 1406 1581 1522 
L 1381 1569 
Q 847 1681 609 1914 
Q 372 2147 372 2553 
Q 372 3047 722 3315 
Q 1072 3584 1716 3584 
Q 2034 3584 2315 3537 
Q 2597 3491 2834 3397 
z
" transform="scale(0.015625)"/>
      </defs>
      <use xlink:href="#DejaVuSans-50"/>
      <use xlink:href="#DejaVuSans-72" x="58.552734"/>
      <use xlink:href="#DejaVuSans-6f" x="97.416016"/>
      <use xlink:href="#DejaVuSans-62" x="158.597656"/>
      <use xlink:href="#DejaVuSans-61" x="222.074219"/>
      <use xlink:href="#DejaVuSans-62" x="283.353516"/>
      <use xlink:href="#DejaVuSans-69" x="346.830078"/>
      <use xlink:href="#DejaVuSans-6c" x="374.613281"/>
      <use xlink:href="#DejaVuSans-69" x="402.396484"/>
      <use xlink:href="#DejaVuSans-74" x="430.179688"/>
      <use xlink:href="#DejaVuSans-79" x="469.388672"/>
      <use xlink:href="#DejaVuSans-20" x="528.568359"/>
      <use xlink:href="#DejaVuSans-64" x="560.355469"/>
      <use xlink:href="#DejaVuSans-65" x="623.832031"/>
      <use xlink:href="#DejaVuSans-6e" x="685.355469"/>
      <use xlink:href="#DejaVuSans-73" x="748.734375"/>
      <use xlink:href="#DejaVuSans-69" x="800.833984"/>
      <use xlink:href="#DejaVuSans-74" x="828.617188"/>
      <use xlink:href="#DejaVuSans-79" x="867.826172"/>
     </g>
    </g>
   </g>
   <g id="line2d_16">
    <path d="M 58.999432 224.64 
L 77.888867 188.582191 
L 88.247589 169.302842 
L 96.778302 153.890773 
L 104.395009 140.589711 
L 111.097712 129.311642 
L 117.495746 118.970949 
L 123.589112 109.550321 
L 129.37781 101.02172 
L 134.86184 93.348492 
L 140.041201 86.487322 
L 144.915894 80.390016 
L 149.790587 74.657828 
L 154.360611 69.628418 
L 158.625967 65.245224 
L 162.891324 61.170938 
L 167.15668 57.413455 
L 171.117368 54.214408 
L 175.078056 51.300153 
L 179.038744 48.675562 
L 182.694764 46.513762 
L 186.350783 44.605595 
L 190.006803 42.95378 
L 193.662822 41.560667 
L 197.014174 40.512612 
L 200.365525 39.684864 
L 203.716877 39.078414 
L 207.068228 38.693988 
L 210.419579 38.532045 
L 213.770931 38.592779 
L 217.122282 38.876117 
L 220.473633 39.381722 
L 223.824985 40.108986 
L 227.176336 41.057042 
L 230.527687 42.224753 
L 234.183707 43.747488 
L 237.839727 45.527796 
L 241.495746 47.563142 
L 245.151766 49.850628 
L 248.807786 52.386996 
L 252.768474 55.411389 
L 256.729162 58.718574 
L 260.68985 62.303027 
L 264.955206 66.466405 
L 269.220562 70.936324 
L 273.790587 76.055836 
L 278.360611 81.505902 
L 283.235304 87.669977 
L 288.414665 94.598805 
L 293.594026 101.899206 
L 299.078056 110.010846 
L 304.866754 118.970949 
L 310.96012 128.80944 
L 317.662822 140.067931 
L 324.974862 152.809497 
L 332.896238 167.072041 
L 342.036287 184.000571 
L 353.613682 205.942675 
L 363.363068 224.64 
L 363.363068 224.64 
" clip-path="url(#pb1863a4711)" style="fill: none; stroke: #ff7f0e; stroke-width: 1.5; stroke-linecap: square"/>
   </g>
   <g id="patch_203">
    <path d="M 43.78125 224.64 
L 43.78125 7.2 
" style="fill: none; stroke: #000000; stroke-width: 0.8; stroke-linejoin: miter; stroke-linecap: square"/>
   </g>
   <g id="patch_204">
    <path d="M 378.58125 224.64 
L 378.58125 7.2 
" style="fill: none; stroke: #000000; stroke-width: 0.8; stroke-linejoin: miter; stroke-linecap: square"/>
   </g>
   <g id="patch_205">
    <path d="M 43.78125 224.64 
L 378.58125 224.64 
" style="fill: none; stroke: #000000; stroke-width: 0.8; stroke-linejoin: miter; stroke-linecap: square"/>
   </g>
   <g id="patch_206">
    <path d="M 43.78125 7.2 
L 378.58125 7.2 
" style="fill: none; stroke: #000000; stroke-width: 0.8; stroke-linejoin: miter; stroke-linecap: square"/>
   </g>
  </g>
 </g>
 <defs>
  <clipPath id="pb1863a4711">
   <rect x="43.78125" y="7.2" width="334.8" height="217.44"/>
  </clipPath>
 </defs>
</svg>
