<?xml version="1.0" encoding="utf-8" standalone="no"?>
<!DOCTYPE svg PUBLIC "-//W3C//DTD SVG 1.1//EN"
  "http://www.w3.org/Graphics/SVG/1.1/DTD/svg11.dtd">
<svg xmlns:xlink="http://www.w3.org/1999/xlink" width="385.78125pt" height="262.19625pt" viewBox="0 0 385.78125 262.19625" xmlns="http://www.w3.org/2000/svg" version="1.1">
 <metadata>
  <rdf:RDF xmlns:dc="http://purl.org/dc/elements/1.1/" xmlns:cc="http://creativecommons.org/ns#" xmlns:rdf="http://www.w3.org/1999/02/22-rdf-syntax-ns#">
   <cc:Work>
    <dc:type rdf:resource="http://purl.org/dc/dcmitype/StillImage"/>
    <dc:date>2022-06-14T12:25:27.960790</dc:date>
    <dc:format>image/svg+xml</dc:format>
    <dc:creator>
     <cc:Agent>
      <dc:title>Matplotlib v3.5.2, https://matplotlib.org/</dc:title>
     </cc:Agent>
    </dc:creator>
   </cc:Work>
  </rdf:RDF>
 </metadata>
 <defs>
  <style type="text/css">*{stroke-linejoin: round; stroke-linecap: butt}</style>
 </defs>
 <g id="figure_1">
  <g id="patch_1">
   <path d="M 0 262.19625 
L 385.78125 262.19625 
L 385.78125 0 
L 0 0 
L 0 262.19625 
z
" style="fill: none"/>
  </g>
  <g id="axes_1">
   <g id="patch_2">
    <path d="M 43.78125 224.64 
L 378.58125 224.64 
L 378.58125 7.2 
L 43.78125 7.2 
z
" style="fill: #ffffff"/>
   </g>
   <g id="patch_3">
    <path d="M 59.970257 224.64 
L 61.481872 224.64 
L 61.481872 218.584862 
L 59.970257 218.584862 
z
" clip-path="url(#p5164e07f0f)" style="fill: #1f77b4"/>
   </g>
   <g id="patch_4">
    <path d="M 61.481872 224.64 
L 62.993488 224.64 
L 62.993488 217.979348 
L 61.481872 217.979348 
z
" clip-path="url(#p5164e07f0f)" style="fill: #1f77b4"/>
   </g>
   <g id="patch_5">
    <path d="M 62.993488 224.64 
L 64.505103 224.64 
L 64.505103 218.584862 
L 62.993488 218.584862 
z
" clip-path="url(#p5164e07f0f)" style="fill: #1f77b4"/>
   </g>
   <g id="patch_6">
    <path d="M 64.505103 224.64 
L 66.016718 224.64 
L 66.016718 209.502155 
L 64.505103 209.502155 
z
" clip-path="url(#p5164e07f0f)" style="fill: #1f77b4"/>
   </g>
   <g id="patch_7">
    <path d="M 66.016718 224.64 
L 67.528333 224.64 
L 67.528333 207.0801 
L 66.016718 207.0801 
z
" clip-path="url(#p5164e07f0f)" style="fill: #1f77b4"/>
   </g>
   <g id="patch_8">
    <path d="M 67.528333 224.64 
L 69.039948 224.64 
L 69.039948 211.318697 
L 67.528333 211.318697 
z
" clip-path="url(#p5164e07f0f)" style="fill: #1f77b4"/>
   </g>
   <g id="patch_9">
    <path d="M 69.039948 224.64 
L 70.551563 224.64 
L 70.551563 206.474586 
L 69.039948 206.474586 
z
" clip-path="url(#p5164e07f0f)" style="fill: #1f77b4"/>
   </g>
   <g id="patch_10">
    <path d="M 70.551563 224.64 
L 72.063178 224.64 
L 72.063178 195.575338 
L 70.551563 195.575338 
z
" clip-path="url(#p5164e07f0f)" style="fill: #1f77b4"/>
   </g>
   <g id="patch_11">
    <path d="M 72.063178 224.64 
L 73.574793 224.64 
L 73.574793 201.630476 
L 72.063178 201.630476 
z
" clip-path="url(#p5164e07f0f)" style="fill: #1f77b4"/>
   </g>
   <g id="patch_12">
    <path d="M 73.574793 224.64 
L 75.086409 224.64 
L 75.086409 199.208421 
L 73.574793 199.208421 
z
" clip-path="url(#p5164e07f0f)" style="fill: #1f77b4"/>
   </g>
   <g id="patch_13">
    <path d="M 75.086409 224.64 
L 76.598024 224.64 
L 76.598024 184.67609 
L 75.086409 184.67609 
z
" clip-path="url(#p5164e07f0f)" style="fill: #1f77b4"/>
   </g>
   <g id="patch_14">
    <path d="M 76.598024 224.64 
L 78.109639 224.64 
L 78.109639 181.043008 
L 76.598024 181.043008 
z
" clip-path="url(#p5164e07f0f)" style="fill: #1f77b4"/>
   </g>
   <g id="patch_15">
    <path d="M 78.109639 224.64 
L 79.621254 224.64 
L 79.621254 188.309173 
L 78.109639 188.309173 
z
" clip-path="url(#p5164e07f0f)" style="fill: #1f77b4"/>
   </g>
   <g id="patch_16">
    <path d="M 79.621254 224.64 
L 81.132869 224.64 
L 81.132869 184.67609 
L 79.621254 184.67609 
z
" clip-path="url(#p5164e07f0f)" style="fill: #1f77b4"/>
   </g>
   <g id="patch_17">
    <path d="M 81.132869 224.64 
L 82.644484 224.64 
L 82.644484 172.565815 
L 81.132869 172.565815 
z
" clip-path="url(#p5164e07f0f)" style="fill: #1f77b4"/>
   </g>
   <g id="patch_18">
    <path d="M 82.644484 224.64 
L 84.156099 224.64 
L 84.156099 174.98787 
L 82.644484 174.98787 
z
" clip-path="url(#p5164e07f0f)" style="fill: #1f77b4"/>
   </g>
   <g id="patch_19">
    <path d="M 84.156099 224.64 
L 85.667714 224.64 
L 85.667714 167.11619 
L 84.156099 167.11619 
z
" clip-path="url(#p5164e07f0f)" style="fill: #1f77b4"/>
   </g>
   <g id="patch_20">
    <path d="M 85.667714 224.64 
L 87.17933 224.64 
L 87.17933 161.666566 
L 85.667714 161.666566 
z
" clip-path="url(#p5164e07f0f)" style="fill: #1f77b4"/>
   </g>
   <g id="patch_21">
    <path d="M 87.17933 224.64 
L 88.690945 224.64 
L 88.690945 171.354787 
L 87.17933 171.354787 
z
" clip-path="url(#p5164e07f0f)" style="fill: #1f77b4"/>
   </g>
   <g id="patch_22">
    <path d="M 88.690945 224.64 
L 90.20256 224.64 
L 90.20256 167.721704 
L 88.690945 167.721704 
z
" clip-path="url(#p5164e07f0f)" style="fill: #1f77b4"/>
   </g>
   <g id="patch_23">
    <path d="M 90.20256 224.64 
L 91.714175 224.64 
L 91.714175 160.455539 
L 90.20256 160.455539 
z
" clip-path="url(#p5164e07f0f)" style="fill: #1f77b4"/>
   </g>
   <g id="patch_24">
    <path d="M 91.714175 224.64 
L 93.22579 224.64 
L 93.22579 166.510677 
L 91.714175 166.510677 
z
" clip-path="url(#p5164e07f0f)" style="fill: #1f77b4"/>
   </g>
   <g id="patch_25">
    <path d="M 93.22579 224.64 
L 94.737405 224.64 
L 94.737405 165.299649 
L 93.22579 165.299649 
z
" clip-path="url(#p5164e07f0f)" style="fill: #1f77b4"/>
   </g>
   <g id="patch_26">
    <path d="M 94.737405 224.64 
L 96.24902 224.64 
L 96.24902 151.372832 
L 94.737405 151.372832 
z
" clip-path="url(#p5164e07f0f)" style="fill: #1f77b4"/>
   </g>
   <g id="patch_27">
    <path d="M 96.24902 224.64 
L 97.760635 224.64 
L 97.760635 159.244511 
L 96.24902 159.244511 
z
" clip-path="url(#p5164e07f0f)" style="fill: #1f77b4"/>
   </g>
   <g id="patch_28">
    <path d="M 97.760635 224.64 
L 99.272251 224.64 
L 99.272251 150.161805 
L 97.760635 150.161805 
z
" clip-path="url(#p5164e07f0f)" style="fill: #1f77b4"/>
   </g>
   <g id="patch_29">
    <path d="M 99.272251 224.64 
L 100.783866 224.64 
L 100.783866 157.42797 
L 99.272251 157.42797 
z
" clip-path="url(#p5164e07f0f)" style="fill: #1f77b4"/>
   </g>
   <g id="patch_30">
    <path d="M 100.783866 224.64 
L 102.295481 224.64 
L 102.295481 142.290125 
L 100.783866 142.290125 
z
" clip-path="url(#p5164e07f0f)" style="fill: #1f77b4"/>
   </g>
   <g id="patch_31">
    <path d="M 102.295481 224.64 
L 103.807096 224.64 
L 103.807096 136.840501 
L 102.295481 136.840501 
z
" clip-path="url(#p5164e07f0f)" style="fill: #1f77b4"/>
   </g>
   <g id="patch_32">
    <path d="M 103.807096 224.64 
L 105.318711 224.64 
L 105.318711 133.812932 
L 103.807096 133.812932 
z
" clip-path="url(#p5164e07f0f)" style="fill: #1f77b4"/>
   </g>
   <g id="patch_33">
    <path d="M 105.318711 224.64 
L 106.830326 224.64 
L 106.830326 135.629474 
L 105.318711 135.629474 
z
" clip-path="url(#p5164e07f0f)" style="fill: #1f77b4"/>
   </g>
   <g id="patch_34">
    <path d="M 106.830326 224.64 
L 108.341941 224.64 
L 108.341941 133.207419 
L 106.830326 133.207419 
z
" clip-path="url(#p5164e07f0f)" style="fill: #1f77b4"/>
   </g>
   <g id="patch_35">
    <path d="M 108.341941 224.64 
L 109.853557 224.64 
L 109.853557 135.02396 
L 108.341941 135.02396 
z
" clip-path="url(#p5164e07f0f)" style="fill: #1f77b4"/>
   </g>
   <g id="patch_36">
    <path d="M 109.853557 224.64 
L 111.365172 224.64 
L 111.365172 132.601905 
L 109.853557 132.601905 
z
" clip-path="url(#p5164e07f0f)" style="fill: #1f77b4"/>
   </g>
   <g id="patch_37">
    <path d="M 111.365172 224.64 
L 112.876787 224.64 
L 112.876787 130.17985 
L 111.365172 130.17985 
z
" clip-path="url(#p5164e07f0f)" style="fill: #1f77b4"/>
   </g>
   <g id="patch_38">
    <path d="M 112.876787 224.64 
L 114.388402 224.64 
L 114.388402 132.601905 
L 112.876787 132.601905 
z
" clip-path="url(#p5164e07f0f)" style="fill: #1f77b4"/>
   </g>
   <g id="patch_39">
    <path d="M 114.388402 224.64 
L 115.900017 224.64 
L 115.900017 121.097143 
L 114.388402 121.097143 
z
" clip-path="url(#p5164e07f0f)" style="fill: #1f77b4"/>
   </g>
   <g id="patch_40">
    <path d="M 115.900017 224.64 
L 117.411632 224.64 
L 117.411632 124.124712 
L 115.900017 124.124712 
z
" clip-path="url(#p5164e07f0f)" style="fill: #1f77b4"/>
   </g>
   <g id="patch_41">
    <path d="M 117.411632 224.64 
L 118.923247 224.64 
L 118.923247 127.757794 
L 117.411632 127.757794 
z
" clip-path="url(#p5164e07f0f)" style="fill: #1f77b4"/>
   </g>
   <g id="patch_42">
    <path d="M 118.923247 224.64 
L 120.434862 224.64 
L 120.434862 117.46406 
L 118.923247 117.46406 
z
" clip-path="url(#p5164e07f0f)" style="fill: #1f77b4"/>
   </g>
   <g id="patch_43">
    <path d="M 120.434862 224.64 
L 121.946478 224.64 
L 121.946478 96.271078 
L 120.434862 96.271078 
z
" clip-path="url(#p5164e07f0f)" style="fill: #1f77b4"/>
   </g>
   <g id="patch_44">
    <path d="M 121.946478 224.64 
L 123.458093 224.64 
L 123.458093 116.253033 
L 121.946478 116.253033 
z
" clip-path="url(#p5164e07f0f)" style="fill: #1f77b4"/>
   </g>
   <g id="patch_45">
    <path d="M 123.458093 224.64 
L 124.969708 224.64 
L 124.969708 121.702657 
L 123.458093 121.702657 
z
" clip-path="url(#p5164e07f0f)" style="fill: #1f77b4"/>
   </g>
   <g id="patch_46">
    <path d="M 124.969708 224.64 
L 126.481323 224.64 
L 126.481323 94.454536 
L 124.969708 94.454536 
z
" clip-path="url(#p5164e07f0f)" style="fill: #1f77b4"/>
   </g>
   <g id="patch_47">
    <path d="M 126.481323 224.64 
L 127.992938 224.64 
L 127.992938 101.720702 
L 126.481323 101.720702 
z
" clip-path="url(#p5164e07f0f)" style="fill: #1f77b4"/>
   </g>
   <g id="patch_48">
    <path d="M 127.992938 224.64 
L 129.504553 224.64 
L 129.504553 115.042005 
L 127.992938 115.042005 
z
" clip-path="url(#p5164e07f0f)" style="fill: #1f77b4"/>
   </g>
   <g id="patch_49">
    <path d="M 129.504553 224.64 
L 131.016168 224.64 
L 131.016168 85.977343 
L 129.504553 85.977343 
z
" clip-path="url(#p5164e07f0f)" style="fill: #1f77b4"/>
   </g>
   <g id="patch_50">
    <path d="M 131.016168 224.64 
L 132.527783 224.64 
L 132.527783 101.720702 
L 131.016168 101.720702 
z
" clip-path="url(#p5164e07f0f)" style="fill: #1f77b4"/>
   </g>
   <g id="patch_51">
    <path d="M 132.527783 224.64 
L 134.039399 224.64 
L 134.039399 85.977343 
L 132.527783 85.977343 
z
" clip-path="url(#p5164e07f0f)" style="fill: #1f77b4"/>
   </g>
   <g id="patch_52">
    <path d="M 134.039399 224.64 
L 135.551014 224.64 
L 135.551014 86.582857 
L 134.039399 86.582857 
z
" clip-path="url(#p5164e07f0f)" style="fill: #1f77b4"/>
   </g>
   <g id="patch_53">
    <path d="M 135.551014 224.64 
L 137.062629 224.64 
L 137.062629 93.849023 
L 135.551014 93.849023 
z
" clip-path="url(#p5164e07f0f)" style="fill: #1f77b4"/>
   </g>
   <g id="patch_54">
    <path d="M 137.062629 224.64 
L 138.574244 224.64 
L 138.574244 100.509674 
L 137.062629 100.509674 
z
" clip-path="url(#p5164e07f0f)" style="fill: #1f77b4"/>
   </g>
   <g id="patch_55">
    <path d="M 138.574244 224.64 
L 140.085859 224.64 
L 140.085859 75.683609 
L 138.574244 75.683609 
z
" clip-path="url(#p5164e07f0f)" style="fill: #1f77b4"/>
   </g>
   <g id="patch_56">
    <path d="M 140.085859 224.64 
L 141.597474 224.64 
L 141.597474 94.454536 
L 140.085859 94.454536 
z
" clip-path="url(#p5164e07f0f)" style="fill: #1f77b4"/>
   </g>
   <g id="patch_57">
    <path d="M 141.597474 224.64 
L 143.109089 224.64 
L 143.109089 78.105664 
L 141.597474 78.105664 
z
" clip-path="url(#p5164e07f0f)" style="fill: #1f77b4"/>
   </g>
   <g id="patch_58">
    <path d="M 143.109089 224.64 
L 144.620704 224.64 
L 144.620704 67.81193 
L 143.109089 67.81193 
z
" clip-path="url(#p5164e07f0f)" style="fill: #1f77b4"/>
   </g>
   <g id="patch_59">
    <path d="M 144.620704 224.64 
L 146.13232 224.64 
L 146.13232 90.21594 
L 144.620704 90.21594 
z
" clip-path="url(#p5164e07f0f)" style="fill: #1f77b4"/>
   </g>
   <g id="patch_60">
    <path d="M 146.13232 224.64 
L 147.643935 224.64 
L 147.643935 63.573333 
L 146.13232 63.573333 
z
" clip-path="url(#p5164e07f0f)" style="fill: #1f77b4"/>
   </g>
   <g id="patch_61">
    <path d="M 147.643935 224.64 
L 149.15555 224.64 
L 149.15555 79.922206 
L 147.643935 79.922206 
z
" clip-path="url(#p5164e07f0f)" style="fill: #1f77b4"/>
   </g>
   <g id="patch_62">
    <path d="M 149.15555 224.64 
L 150.667165 224.64 
L 150.667165 73.867068 
L 149.15555 73.867068 
z
" clip-path="url(#p5164e07f0f)" style="fill: #1f77b4"/>
   </g>
   <g id="patch_63">
    <path d="M 150.667165 224.64 
L 152.17878 224.64 
L 152.17878 73.867068 
L 150.667165 73.867068 
z
" clip-path="url(#p5164e07f0f)" style="fill: #1f77b4"/>
   </g>
   <g id="patch_64">
    <path d="M 152.17878 224.64 
L 153.690395 224.64 
L 153.690395 58.729223 
L 152.17878 58.729223 
z
" clip-path="url(#p5164e07f0f)" style="fill: #1f77b4"/>
   </g>
   <g id="patch_65">
    <path d="M 153.690395 224.64 
L 155.20201 224.64 
L 155.20201 76.894637 
L 153.690395 76.894637 
z
" clip-path="url(#p5164e07f0f)" style="fill: #1f77b4"/>
   </g>
   <g id="patch_66">
    <path d="M 155.20201 224.64 
L 156.713625 224.64 
L 156.713625 58.123709 
L 155.20201 58.123709 
z
" clip-path="url(#p5164e07f0f)" style="fill: #1f77b4"/>
   </g>
   <g id="patch_67">
    <path d="M 156.713625 224.64 
L 158.225241 224.64 
L 158.225241 51.463058 
L 156.713625 51.463058 
z
" clip-path="url(#p5164e07f0f)" style="fill: #1f77b4"/>
   </g>
   <g id="patch_68">
    <path d="M 158.225241 224.64 
L 159.736856 224.64 
L 159.736856 82.949774 
L 158.225241 82.949774 
z
" clip-path="url(#p5164e07f0f)" style="fill: #1f77b4"/>
   </g>
   <g id="patch_69">
    <path d="M 159.736856 224.64 
L 161.248471 224.64 
L 161.248471 65.995388 
L 159.736856 65.995388 
z
" clip-path="url(#p5164e07f0f)" style="fill: #1f77b4"/>
   </g>
   <g id="patch_70">
    <path d="M 161.248471 224.64 
L 162.760086 224.64 
L 162.760086 58.729223 
L 161.248471 58.729223 
z
" clip-path="url(#p5164e07f0f)" style="fill: #1f77b4"/>
   </g>
   <g id="patch_71">
    <path d="M 162.760086 224.64 
L 164.271701 224.64 
L 164.271701 64.784361 
L 162.760086 64.784361 
z
" clip-path="url(#p5164e07f0f)" style="fill: #1f77b4"/>
   </g>
   <g id="patch_72">
    <path d="M 164.271701 224.64 
L 165.783316 224.64 
L 165.783316 44.802406 
L 164.271701 44.802406 
z
" clip-path="url(#p5164e07f0f)" style="fill: #1f77b4"/>
   </g>
   <g id="patch_73">
    <path d="M 165.783316 224.64 
L 167.294931 224.64 
L 167.294931 47.224461 
L 165.783316 47.224461 
z
" clip-path="url(#p5164e07f0f)" style="fill: #1f77b4"/>
   </g>
   <g id="patch_74">
    <path d="M 167.294931 224.64 
L 168.806546 224.64 
L 168.806546 64.178847 
L 167.294931 64.178847 
z
" clip-path="url(#p5164e07f0f)" style="fill: #1f77b4"/>
   </g>
   <g id="patch_75">
    <path d="M 168.806546 224.64 
L 170.318162 224.64 
L 170.318162 24.820451 
L 168.806546 24.820451 
z
" clip-path="url(#p5164e07f0f)" style="fill: #1f77b4"/>
   </g>
   <g id="patch_76">
    <path d="M 170.318162 224.64 
L 171.829777 224.64 
L 171.829777 49.041003 
L 170.318162 49.041003 
z
" clip-path="url(#p5164e07f0f)" style="fill: #1f77b4"/>
   </g>
   <g id="patch_77">
    <path d="M 171.829777 224.64 
L 173.341392 224.64 
L 173.341392 47.829975 
L 171.829777 47.829975 
z
" clip-path="url(#p5164e07f0f)" style="fill: #1f77b4"/>
   </g>
   <g id="patch_78">
    <path d="M 173.341392 224.64 
L 174.853007 224.64 
L 174.853007 44.196892 
L 173.341392 44.196892 
z
" clip-path="url(#p5164e07f0f)" style="fill: #1f77b4"/>
   </g>
   <g id="patch_79">
    <path d="M 174.853007 224.64 
L 176.364622 224.64 
L 176.364622 63.573333 
L 174.853007 63.573333 
z
" clip-path="url(#p5164e07f0f)" style="fill: #1f77b4"/>
   </g>
   <g id="patch_80">
    <path d="M 176.364622 224.64 
L 177.876237 224.64 
L 177.876237 42.985865 
L 176.364622 42.985865 
z
" clip-path="url(#p5164e07f0f)" style="fill: #1f77b4"/>
   </g>
   <g id="patch_81">
    <path d="M 177.876237 224.64 
L 179.387852 224.64 
L 179.387852 45.40792 
L 177.876237 45.40792 
z
" clip-path="url(#p5164e07f0f)" style="fill: #1f77b4"/>
   </g>
   <g id="patch_82">
    <path d="M 179.387852 224.64 
L 180.899467 224.64 
L 180.899467 52.068571 
L 179.387852 52.068571 
z
" clip-path="url(#p5164e07f0f)" style="fill: #1f77b4"/>
   </g>
   <g id="patch_83">
    <path d="M 180.899467 224.64 
L 182.411083 224.64 
L 182.411083 44.196892 
L 180.899467 44.196892 
z
" clip-path="url(#p5164e07f0f)" style="fill: #1f77b4"/>
   </g>
   <g id="patch_84">
    <path d="M 182.411083 224.64 
L 183.922698 224.64 
L 183.922698 49.041003 
L 182.411083 49.041003 
z
" clip-path="url(#p5164e07f0f)" style="fill: #1f77b4"/>
   </g>
   <g id="patch_85">
    <path d="M 183.922698 224.64 
L 185.434313 224.64 
L 185.434313 47.829975 
L 183.922698 47.829975 
z
" clip-path="url(#p5164e07f0f)" style="fill: #1f77b4"/>
   </g>
   <g id="patch_86">
    <path d="M 185.434313 224.64 
L 186.945928 224.64 
L 186.945928 44.802406 
L 185.434313 44.802406 
z
" clip-path="url(#p5164e07f0f)" style="fill: #1f77b4"/>
   </g>
   <g id="patch_87">
    <path d="M 186.945928 224.64 
L 188.457543 224.64 
L 188.457543 41.774837 
L 186.945928 41.774837 
z
" clip-path="url(#p5164e07f0f)" style="fill: #1f77b4"/>
   </g>
   <g id="patch_88">
    <path d="M 188.457543 224.64 
L 189.969158 224.64 
L 189.969158 33.903158 
L 188.457543 33.903158 
z
" clip-path="url(#p5164e07f0f)" style="fill: #1f77b4"/>
   </g>
   <g id="patch_89">
    <path d="M 189.969158 224.64 
L 191.480773 224.64 
L 191.480773 52.068571 
L 189.969158 52.068571 
z
" clip-path="url(#p5164e07f0f)" style="fill: #1f77b4"/>
   </g>
   <g id="patch_90">
    <path d="M 191.480773 224.64 
L 192.992389 224.64 
L 192.992389 44.802406 
L 191.480773 44.802406 
z
" clip-path="url(#p5164e07f0f)" style="fill: #1f77b4"/>
   </g>
   <g id="patch_91">
    <path d="M 192.992389 224.64 
L 194.504004 224.64 
L 194.504004 61.756792 
L 192.992389 61.756792 
z
" clip-path="url(#p5164e07f0f)" style="fill: #1f77b4"/>
   </g>
   <g id="patch_92">
    <path d="M 194.504004 224.64 
L 196.015619 224.64 
L 196.015619 29.664561 
L 194.504004 29.664561 
z
" clip-path="url(#p5164e07f0f)" style="fill: #1f77b4"/>
   </g>
   <g id="patch_93">
    <path d="M 196.015619 224.64 
L 197.527234 224.64 
L 197.527234 30.270075 
L 196.015619 30.270075 
z
" clip-path="url(#p5164e07f0f)" style="fill: #1f77b4"/>
   </g>
   <g id="patch_94">
    <path d="M 197.527234 224.64 
L 199.038849 224.64 
L 199.038849 44.196892 
L 197.527234 44.196892 
z
" clip-path="url(#p5164e07f0f)" style="fill: #1f77b4"/>
   </g>
   <g id="patch_95">
    <path d="M 199.038849 224.64 
L 200.550464 224.64 
L 200.550464 41.169323 
L 199.038849 41.169323 
z
" clip-path="url(#p5164e07f0f)" style="fill: #1f77b4"/>
   </g>
   <g id="patch_96">
    <path d="M 200.550464 224.64 
L 202.062079 224.64 
L 202.062079 30.270075 
L 200.550464 30.270075 
z
" clip-path="url(#p5164e07f0f)" style="fill: #1f77b4"/>
   </g>
   <g id="patch_97">
    <path d="M 202.062079 224.64 
L 203.573694 224.64 
L 203.573694 26.636992 
L 202.062079 26.636992 
z
" clip-path="url(#p5164e07f0f)" style="fill: #1f77b4"/>
   </g>
   <g id="patch_98">
    <path d="M 203.573694 224.64 
L 205.08531 224.64 
L 205.08531 47.224461 
L 203.573694 47.224461 
z
" clip-path="url(#p5164e07f0f)" style="fill: #1f77b4"/>
   </g>
   <g id="patch_99">
    <path d="M 205.08531 224.64 
L 206.596925 224.64 
L 206.596925 41.774837 
L 205.08531 41.774837 
z
" clip-path="url(#p5164e07f0f)" style="fill: #1f77b4"/>
   </g>
   <g id="patch_100">
    <path d="M 206.596925 224.64 
L 208.10854 224.64 
L 208.10854 52.674085 
L 206.596925 52.674085 
z
" clip-path="url(#p5164e07f0f)" style="fill: #1f77b4"/>
   </g>
   <g id="patch_101">
    <path d="M 208.10854 224.64 
L 209.620155 224.64 
L 209.620155 32.086617 
L 208.10854 32.086617 
z
" clip-path="url(#p5164e07f0f)" style="fill: #1f77b4"/>
   </g>
   <g id="patch_102">
    <path d="M 209.620155 224.64 
L 211.13177 224.64 
L 211.13177 17.554286 
L 209.620155 17.554286 
z
" clip-path="url(#p5164e07f0f)" style="fill: #1f77b4"/>
   </g>
   <g id="patch_103">
    <path d="M 211.13177 224.64 
L 212.643385 224.64 
L 212.643385 35.719699 
L 211.13177 35.719699 
z
" clip-path="url(#p5164e07f0f)" style="fill: #1f77b4"/>
   </g>
   <g id="patch_104">
    <path d="M 212.643385 224.64 
L 214.155 224.64 
L 214.155 47.224461 
L 212.643385 47.224461 
z
" clip-path="url(#p5164e07f0f)" style="fill: #1f77b4"/>
   </g>
   <g id="patch_105">
    <path d="M 214.155 224.64 
L 215.666615 224.64 
L 215.666615 37.536241 
L 214.155 37.536241 
z
" clip-path="url(#p5164e07f0f)" style="fill: #1f77b4"/>
   </g>
   <g id="patch_106">
    <path d="M 215.666615 224.64 
L 217.178231 224.64 
L 217.178231 55.09614 
L 215.666615 55.09614 
z
" clip-path="url(#p5164e07f0f)" style="fill: #1f77b4"/>
   </g>
   <g id="patch_107">
    <path d="M 217.178231 224.64 
L 218.689846 224.64 
L 218.689846 38.141754 
L 217.178231 38.141754 
z
" clip-path="url(#p5164e07f0f)" style="fill: #1f77b4"/>
   </g>
   <g id="patch_108">
    <path d="M 218.689846 224.64 
L 220.201461 224.64 
L 220.201461 37.536241 
L 218.689846 37.536241 
z
" clip-path="url(#p5164e07f0f)" style="fill: #1f77b4"/>
   </g>
   <g id="patch_109">
    <path d="M 220.201461 224.64 
L 221.713076 224.64 
L 221.713076 41.774837 
L 220.201461 41.774837 
z
" clip-path="url(#p5164e07f0f)" style="fill: #1f77b4"/>
   </g>
   <g id="patch_110">
    <path d="M 221.713076 224.64 
L 223.224691 224.64 
L 223.224691 38.141754 
L 221.713076 38.141754 
z
" clip-path="url(#p5164e07f0f)" style="fill: #1f77b4"/>
   </g>
   <g id="patch_111">
    <path d="M 223.224691 224.64 
L 224.736306 224.64 
L 224.736306 50.25203 
L 223.224691 50.25203 
z
" clip-path="url(#p5164e07f0f)" style="fill: #1f77b4"/>
   </g>
   <g id="patch_112">
    <path d="M 224.736306 224.64 
L 226.247921 224.64 
L 226.247921 25.425965 
L 224.736306 25.425965 
z
" clip-path="url(#p5164e07f0f)" style="fill: #1f77b4"/>
   </g>
   <g id="patch_113">
    <path d="M 226.247921 224.64 
L 227.759536 224.64 
L 227.759536 55.701654 
L 226.247921 55.701654 
z
" clip-path="url(#p5164e07f0f)" style="fill: #1f77b4"/>
   </g>
   <g id="patch_114">
    <path d="M 227.759536 224.64 
L 229.271152 224.64 
L 229.271152 41.169323 
L 227.759536 41.169323 
z
" clip-path="url(#p5164e07f0f)" style="fill: #1f77b4"/>
   </g>
   <g id="patch_115">
    <path d="M 229.271152 224.64 
L 230.782767 224.64 
L 230.782767 44.196892 
L 229.271152 44.196892 
z
" clip-path="url(#p5164e07f0f)" style="fill: #1f77b4"/>
   </g>
   <g id="patch_116">
    <path d="M 230.782767 224.64 
L 232.294382 224.64 
L 232.294382 49.646516 
L 230.782767 49.646516 
z
" clip-path="url(#p5164e07f0f)" style="fill: #1f77b4"/>
   </g>
   <g id="patch_117">
    <path d="M 232.294382 224.64 
L 233.805997 224.64 
L 233.805997 33.297644 
L 232.294382 33.297644 
z
" clip-path="url(#p5164e07f0f)" style="fill: #1f77b4"/>
   </g>
   <g id="patch_118">
    <path d="M 233.805997 224.64 
L 235.317612 224.64 
L 235.317612 18.765313 
L 233.805997 18.765313 
z
" clip-path="url(#p5164e07f0f)" style="fill: #1f77b4"/>
   </g>
   <g id="patch_119">
    <path d="M 235.317612 224.64 
L 236.829227 224.64 
L 236.829227 44.196892 
L 235.317612 44.196892 
z
" clip-path="url(#p5164e07f0f)" style="fill: #1f77b4"/>
   </g>
   <g id="patch_120">
    <path d="M 236.829227 224.64 
L 238.340842 224.64 
L 238.340842 32.086617 
L 236.829227 32.086617 
z
" clip-path="url(#p5164e07f0f)" style="fill: #1f77b4"/>
   </g>
   <g id="patch_121">
    <path d="M 238.340842 224.64 
L 239.852457 224.64 
L 239.852457 46.618947 
L 238.340842 46.618947 
z
" clip-path="url(#p5164e07f0f)" style="fill: #1f77b4"/>
   </g>
   <g id="patch_122">
    <path d="M 239.852457 224.64 
L 241.364073 224.64 
L 241.364073 39.958296 
L 239.852457 39.958296 
z
" clip-path="url(#p5164e07f0f)" style="fill: #1f77b4"/>
   </g>
   <g id="patch_123">
    <path d="M 241.364073 224.64 
L 242.875688 224.64 
L 242.875688 51.463058 
L 241.364073 51.463058 
z
" clip-path="url(#p5164e07f0f)" style="fill: #1f77b4"/>
   </g>
   <g id="patch_124">
    <path d="M 242.875688 224.64 
L 244.387303 224.64 
L 244.387303 45.40792 
L 242.875688 45.40792 
z
" clip-path="url(#p5164e07f0f)" style="fill: #1f77b4"/>
   </g>
   <g id="patch_125">
    <path d="M 244.387303 224.64 
L 245.898918 224.64 
L 245.898918 55.701654 
L 244.387303 55.701654 
z
" clip-path="url(#p5164e07f0f)" style="fill: #1f77b4"/>
   </g>
   <g id="patch_126">
    <path d="M 245.898918 224.64 
L 247.410533 224.64 
L 247.410533 58.729223 
L 245.898918 58.729223 
z
" clip-path="url(#p5164e07f0f)" style="fill: #1f77b4"/>
   </g>
   <g id="patch_127">
    <path d="M 247.410533 224.64 
L 248.922148 224.64 
L 248.922148 45.40792 
L 247.410533 45.40792 
z
" clip-path="url(#p5164e07f0f)" style="fill: #1f77b4"/>
   </g>
   <g id="patch_128">
    <path d="M 248.922148 224.64 
L 250.433763 224.64 
L 250.433763 53.279599 
L 248.922148 53.279599 
z
" clip-path="url(#p5164e07f0f)" style="fill: #1f77b4"/>
   </g>
   <g id="patch_129">
    <path d="M 250.433763 224.64 
L 251.945378 224.64 
L 251.945378 44.196892 
L 250.433763 44.196892 
z
" clip-path="url(#p5164e07f0f)" style="fill: #1f77b4"/>
   </g>
   <g id="patch_130">
    <path d="M 251.945378 224.64 
L 253.456994 224.64 
L 253.456994 75.078095 
L 251.945378 75.078095 
z
" clip-path="url(#p5164e07f0f)" style="fill: #1f77b4"/>
   </g>
   <g id="patch_131">
    <path d="M 253.456994 224.64 
L 254.968609 224.64 
L 254.968609 58.123709 
L 253.456994 58.123709 
z
" clip-path="url(#p5164e07f0f)" style="fill: #1f77b4"/>
   </g>
   <g id="patch_132">
    <path d="M 254.968609 224.64 
L 256.480224 224.64 
L 256.480224 49.646516 
L 254.968609 49.646516 
z
" clip-path="url(#p5164e07f0f)" style="fill: #1f77b4"/>
   </g>
   <g id="patch_133">
    <path d="M 256.480224 224.64 
L 257.991839 224.64 
L 257.991839 34.508672 
L 256.480224 34.508672 
z
" clip-path="url(#p5164e07f0f)" style="fill: #1f77b4"/>
   </g>
   <g id="patch_134">
    <path d="M 257.991839 224.64 
L 259.503454 224.64 
L 259.503454 41.169323 
L 257.991839 41.169323 
z
" clip-path="url(#p5164e07f0f)" style="fill: #1f77b4"/>
   </g>
   <g id="patch_135">
    <path d="M 259.503454 224.64 
L 261.015069 224.64 
L 261.015069 56.912682 
L 259.503454 56.912682 
z
" clip-path="url(#p5164e07f0f)" style="fill: #1f77b4"/>
   </g>
   <g id="patch_136">
    <path d="M 261.015069 224.64 
L 262.526684 224.64 
L 262.526684 65.389875 
L 261.015069 65.389875 
z
" clip-path="url(#p5164e07f0f)" style="fill: #1f77b4"/>
   </g>
   <g id="patch_137">
    <path d="M 262.526684 224.64 
L 264.0383 224.64 
L 264.0383 62.96782 
L 262.526684 62.96782 
z
" clip-path="url(#p5164e07f0f)" style="fill: #1f77b4"/>
   </g>
   <g id="patch_138">
    <path d="M 264.0383 224.64 
L 265.549915 224.64 
L 265.549915 58.123709 
L 264.0383 58.123709 
z
" clip-path="url(#p5164e07f0f)" style="fill: #1f77b4"/>
   </g>
   <g id="patch_139">
    <path d="M 265.549915 224.64 
L 267.06153 224.64 
L 267.06153 67.81193 
L 265.549915 67.81193 
z
" clip-path="url(#p5164e07f0f)" style="fill: #1f77b4"/>
   </g>
   <g id="patch_140">
    <path d="M 267.06153 224.64 
L 268.573145 224.64 
L 268.573145 53.279599 
L 267.06153 53.279599 
z
" clip-path="url(#p5164e07f0f)" style="fill: #1f77b4"/>
   </g>
   <g id="patch_141">
    <path d="M 268.573145 224.64 
L 270.08476 224.64 
L 270.08476 64.178847 
L 268.573145 64.178847 
z
" clip-path="url(#p5164e07f0f)" style="fill: #1f77b4"/>
   </g>
   <g id="patch_142">
    <path d="M 270.08476 224.64 
L 271.596375 224.64 
L 271.596375 64.784361 
L 270.08476 64.784361 
z
" clip-path="url(#p5164e07f0f)" style="fill: #1f77b4"/>
   </g>
   <g id="patch_143">
    <path d="M 271.596375 224.64 
L 273.10799 224.64 
L 273.10799 68.417444 
L 271.596375 68.417444 
z
" clip-path="url(#p5164e07f0f)" style="fill: #1f77b4"/>
   </g>
   <g id="patch_144">
    <path d="M 273.10799 224.64 
L 274.619605 224.64 
L 274.619605 87.188371 
L 273.10799 87.188371 
z
" clip-path="url(#p5164e07f0f)" style="fill: #1f77b4"/>
   </g>
   <g id="patch_145">
    <path d="M 274.619605 224.64 
L 276.131221 224.64 
L 276.131221 57.518195 
L 274.619605 57.518195 
z
" clip-path="url(#p5164e07f0f)" style="fill: #1f77b4"/>
   </g>
   <g id="patch_146">
    <path d="M 276.131221 224.64 
L 277.642836 224.64 
L 277.642836 89.004912 
L 276.131221 89.004912 
z
" clip-path="url(#p5164e07f0f)" style="fill: #1f77b4"/>
   </g>
   <g id="patch_147">
    <path d="M 277.642836 224.64 
L 279.154451 224.64 
L 279.154451 60.545764 
L 277.642836 60.545764 
z
" clip-path="url(#p5164e07f0f)" style="fill: #1f77b4"/>
   </g>
   <g id="patch_148">
    <path d="M 279.154451 224.64 
L 280.666066 224.64 
L 280.666066 58.123709 
L 279.154451 58.123709 
z
" clip-path="url(#p5164e07f0f)" style="fill: #1f77b4"/>
   </g>
   <g id="patch_149">
    <path d="M 280.666066 224.64 
L 282.177681 224.64 
L 282.177681 89.610426 
L 280.666066 89.610426 
z
" clip-path="url(#p5164e07f0f)" style="fill: #1f77b4"/>
   </g>
   <g id="patch_150">
    <path d="M 282.177681 224.64 
L 283.689296 224.64 
L 283.689296 72.050526 
L 282.177681 72.050526 
z
" clip-path="url(#p5164e07f0f)" style="fill: #1f77b4"/>
   </g>
   <g id="patch_151">
    <path d="M 283.689296 224.64 
L 285.200911 224.64 
L 285.200911 85.977343 
L 283.689296 85.977343 
z
" clip-path="url(#p5164e07f0f)" style="fill: #1f77b4"/>
   </g>
   <g id="patch_152">
    <path d="M 285.200911 224.64 
L 286.712526 224.64 
L 286.712526 84.160802 
L 285.200911 84.160802 
z
" clip-path="url(#p5164e07f0f)" style="fill: #1f77b4"/>
   </g>
   <g id="patch_153">
    <path d="M 286.712526 224.64 
L 288.224142 224.64 
L 288.224142 91.426967 
L 286.712526 91.426967 
z
" clip-path="url(#p5164e07f0f)" style="fill: #1f77b4"/>
   </g>
   <g id="patch_154">
    <path d="M 288.224142 224.64 
L 289.735757 224.64 
L 289.735757 79.316692 
L 288.224142 79.316692 
z
" clip-path="url(#p5164e07f0f)" style="fill: #1f77b4"/>
   </g>
   <g id="patch_155">
    <path d="M 289.735757 224.64 
L 291.247372 224.64 
L 291.247372 79.922206 
L 289.735757 79.922206 
z
" clip-path="url(#p5164e07f0f)" style="fill: #1f77b4"/>
   </g>
   <g id="patch_156">
    <path d="M 291.247372 224.64 
L 292.758987 224.64 
L 292.758987 95.06005 
L 291.247372 95.06005 
z
" clip-path="url(#p5164e07f0f)" style="fill: #1f77b4"/>
   </g>
   <g id="patch_157">
    <path d="M 292.758987 224.64 
L 294.270602 224.64 
L 294.270602 97.482105 
L 292.758987 97.482105 
z
" clip-path="url(#p5164e07f0f)" style="fill: #1f77b4"/>
   </g>
   <g id="patch_158">
    <path d="M 294.270602 224.64 
L 295.782217 224.64 
L 295.782217 105.959298 
L 294.270602 105.959298 
z
" clip-path="url(#p5164e07f0f)" style="fill: #1f77b4"/>
   </g>
   <g id="patch_159">
    <path d="M 295.782217 224.64 
L 297.293832 224.64 
L 297.293832 101.115188 
L 295.782217 101.115188 
z
" clip-path="url(#p5164e07f0f)" style="fill: #1f77b4"/>
   </g>
   <g id="patch_160">
    <path d="M 297.293832 224.64 
L 298.805447 224.64 
L 298.805447 115.647519 
L 297.293832 115.647519 
z
" clip-path="url(#p5164e07f0f)" style="fill: #1f77b4"/>
   </g>
   <g id="patch_161">
    <path d="M 298.805447 224.64 
L 300.317063 224.64 
L 300.317063 111.408922 
L 298.805447 111.408922 
z
" clip-path="url(#p5164e07f0f)" style="fill: #1f77b4"/>
   </g>
   <g id="patch_162">
    <path d="M 300.317063 224.64 
L 301.828678 224.64 
L 301.828678 125.941253 
L 300.317063 125.941253 
z
" clip-path="url(#p5164e07f0f)" style="fill: #1f77b4"/>
   </g>
   <g id="patch_163">
    <path d="M 301.828678 224.64 
L 303.340293 224.64 
L 303.340293 121.097143 
L 301.828678 121.097143 
z
" clip-path="url(#p5164e07f0f)" style="fill: #1f77b4"/>
   </g>
   <g id="patch_164">
    <path d="M 303.340293 224.64 
L 304.851908 224.64 
L 304.851908 124.124712 
L 303.340293 124.124712 
z
" clip-path="url(#p5164e07f0f)" style="fill: #1f77b4"/>
   </g>
   <g id="patch_165">
    <path d="M 304.851908 224.64 
L 306.363523 224.64 
L 306.363523 127.757794 
L 304.851908 127.757794 
z
" clip-path="url(#p5164e07f0f)" style="fill: #1f77b4"/>
   </g>
   <g id="patch_166">
    <path d="M 306.363523 224.64 
L 307.875138 224.64 
L 307.875138 114.436491 
L 306.363523 114.436491 
z
" clip-path="url(#p5164e07f0f)" style="fill: #1f77b4"/>
   </g>
   <g id="patch_167">
    <path d="M 307.875138 224.64 
L 309.386753 224.64 
L 309.386753 137.446015 
L 307.875138 137.446015 
z
" clip-path="url(#p5164e07f0f)" style="fill: #1f77b4"/>
   </g>
   <g id="patch_168">
    <path d="M 309.386753 224.64 
L 310.898368 224.64 
L 310.898368 126.546767 
L 309.386753 126.546767 
z
" clip-path="url(#p5164e07f0f)" style="fill: #1f77b4"/>
   </g>
   <g id="patch_169">
    <path d="M 310.898368 224.64 
L 312.409984 224.64 
L 312.409984 121.097143 
L 310.898368 121.097143 
z
" clip-path="url(#p5164e07f0f)" style="fill: #1f77b4"/>
   </g>
   <g id="patch_170">
    <path d="M 312.409984 224.64 
L 313.921599 224.64 
L 313.921599 139.262556 
L 312.409984 139.262556 
z
" clip-path="url(#p5164e07f0f)" style="fill: #1f77b4"/>
   </g>
   <g id="patch_171">
    <path d="M 313.921599 224.64 
L 315.433214 224.64 
L 315.433214 125.335739 
L 313.921599 125.335739 
z
" clip-path="url(#p5164e07f0f)" style="fill: #1f77b4"/>
   </g>
   <g id="patch_172">
    <path d="M 315.433214 224.64 
L 316.944829 224.64 
L 316.944829 123.519198 
L 315.433214 123.519198 
z
" clip-path="url(#p5164e07f0f)" style="fill: #1f77b4"/>
   </g>
   <g id="patch_173">
    <path d="M 316.944829 224.64 
L 318.456444 224.64 
L 318.456444 136.840501 
L 316.944829 136.840501 
z
" clip-path="url(#p5164e07f0f)" style="fill: #1f77b4"/>
   </g>
   <g id="patch_174">
    <path d="M 318.456444 224.64 
L 319.968059 224.64 
L 319.968059 140.473584 
L 318.456444 140.473584 
z
" clip-path="url(#p5164e07f0f)" style="fill: #1f77b4"/>
   </g>
   <g id="patch_175">
    <path d="M 319.968059 224.64 
L 321.479674 224.64 
L 321.479674 150.161805 
L 319.968059 150.161805 
z
" clip-path="url(#p5164e07f0f)" style="fill: #1f77b4"/>
   </g>
   <g id="patch_176">
    <path d="M 321.479674 224.64 
L 322.991289 224.64 
L 322.991289 150.161805 
L 321.479674 150.161805 
z
" clip-path="url(#p5164e07f0f)" style="fill: #1f77b4"/>
   </g>
   <g id="patch_177">
    <path d="M 322.991289 224.64 
L 324.502905 224.64 
L 324.502905 142.290125 
L 322.991289 142.290125 
z
" clip-path="url(#p5164e07f0f)" style="fill: #1f77b4"/>
   </g>
   <g id="patch_178">
    <path d="M 324.502905 224.64 
L 326.01452 224.64 
L 326.01452 159.850025 
L 324.502905 159.850025 
z
" clip-path="url(#p5164e07f0f)" style="fill: #1f77b4"/>
   </g>
   <g id="patch_179">
    <path d="M 326.01452 224.64 
L 327.526135 224.64 
L 327.526135 164.088622 
L 326.01452 164.088622 
z
" clip-path="url(#p5164e07f0f)" style="fill: #1f77b4"/>
   </g>
   <g id="patch_180">
    <path d="M 327.526135 224.64 
L 329.03775 224.64 
L 329.03775 144.106667 
L 327.526135 144.106667 
z
" clip-path="url(#p5164e07f0f)" style="fill: #1f77b4"/>
   </g>
   <g id="patch_181">
    <path d="M 329.03775 224.64 
L 330.549365 224.64 
L 330.549365 176.804411 
L 329.03775 176.804411 
z
" clip-path="url(#p5164e07f0f)" style="fill: #1f77b4"/>
   </g>
   <g id="patch_182">
    <path d="M 330.549365 224.64 
L 332.06098 224.64 
L 332.06098 154.400401 
L 330.549365 154.400401 
z
" clip-path="url(#p5164e07f0f)" style="fill: #1f77b4"/>
   </g>
   <g id="patch_183">
    <path d="M 332.06098 224.64 
L 333.572595 224.64 
L 333.572595 164.088622 
L 332.06098 164.088622 
z
" clip-path="url(#p5164e07f0f)" style="fill: #1f77b4"/>
   </g>
   <g id="patch_184">
    <path d="M 333.572595 224.64 
L 335.084211 224.64 
L 335.084211 171.960301 
L 333.572595 171.960301 
z
" clip-path="url(#p5164e07f0f)" style="fill: #1f77b4"/>
   </g>
   <g id="patch_185">
    <path d="M 335.084211 224.64 
L 336.595826 224.64 
L 336.595826 170.749273 
L 335.084211 170.749273 
z
" clip-path="url(#p5164e07f0f)" style="fill: #1f77b4"/>
   </g>
   <g id="patch_186">
    <path d="M 336.595826 224.64 
L 338.107441 224.64 
L 338.107441 172.565815 
L 336.595826 172.565815 
z
" clip-path="url(#p5164e07f0f)" style="fill: #1f77b4"/>
   </g>
   <g id="patch_187">
    <path d="M 338.107441 224.64 
L 339.619056 224.64 
L 339.619056 173.776842 
L 338.107441 173.776842 
z
" clip-path="url(#p5164e07f0f)" style="fill: #1f77b4"/>
   </g>
   <g id="patch_188">
    <path d="M 339.619056 224.64 
L 341.130671 224.64 
L 341.130671 175.593383 
L 339.619056 175.593383 
z
" clip-path="url(#p5164e07f0f)" style="fill: #1f77b4"/>
   </g>
   <g id="patch_189">
    <path d="M 341.130671 224.64 
L 342.642286 224.64 
L 342.642286 186.492632 
L 341.130671 186.492632 
z
" clip-path="url(#p5164e07f0f)" style="fill: #1f77b4"/>
   </g>
   <g id="patch_190">
    <path d="M 342.642286 224.64 
L 344.153901 224.64 
L 344.153901 184.070576 
L 342.642286 184.070576 
z
" clip-path="url(#p5164e07f0f)" style="fill: #1f77b4"/>
   </g>
   <g id="patch_191">
    <path d="M 344.153901 224.64 
L 345.665516 224.64 
L 345.665516 184.070576 
L 344.153901 184.070576 
z
" clip-path="url(#p5164e07f0f)" style="fill: #1f77b4"/>
   </g>
   <g id="patch_192">
    <path d="M 345.665516 224.64 
L 347.177132 224.64 
L 347.177132 191.942256 
L 345.665516 191.942256 
z
" clip-path="url(#p5164e07f0f)" style="fill: #1f77b4"/>
   </g>
   <g id="patch_193">
    <path d="M 347.177132 224.64 
L 348.688747 224.64 
L 348.688747 193.153283 
L 347.177132 193.153283 
z
" clip-path="url(#p5164e07f0f)" style="fill: #1f77b4"/>
   </g>
   <g id="patch_194">
    <path d="M 348.688747 224.64 
L 350.200362 224.64 
L 350.200362 198.602907 
L 348.688747 198.602907 
z
" clip-path="url(#p5164e07f0f)" style="fill: #1f77b4"/>
   </g>
   <g id="patch_195">
    <path d="M 350.200362 224.64 
L 351.711977 224.64 
L 351.711977 198.602907 
L 350.200362 198.602907 
z
" clip-path="url(#p5164e07f0f)" style="fill: #1f77b4"/>
   </g>
   <g id="patch_196">
    <path d="M 351.711977 224.64 
L 353.223592 224.64 
L 353.223592 199.813935 
L 351.711977 199.813935 
z
" clip-path="url(#p5164e07f0f)" style="fill: #1f77b4"/>
   </g>
   <g id="patch_197">
    <path d="M 353.223592 224.64 
L 354.735207 224.64 
L 354.735207 202.841504 
L 353.223592 202.841504 
z
" clip-path="url(#p5164e07f0f)" style="fill: #1f77b4"/>
   </g>
   <g id="patch_198">
    <path d="M 354.735207 224.64 
L 356.246822 224.64 
L 356.246822 207.685614 
L 354.735207 207.685614 
z
" clip-path="url(#p5164e07f0f)" style="fill: #1f77b4"/>
   </g>
   <g id="patch_199">
    <path d="M 356.246822 224.64 
L 357.758437 224.64 
L 357.758437 213.740752 
L 356.246822 213.740752 
z
" clip-path="url(#p5164e07f0f)" style="fill: #1f77b4"/>
   </g>
   <g id="patch_200">
    <path d="M 357.758437 224.64 
L 359.270053 224.64 
L 359.270053 216.768321 
L 357.758437 216.768321 
z
" clip-path="url(#p5164e07f0f)" style="fill: #1f77b4"/>
   </g>
   <g id="patch_201">
    <path d="M 359.270053 224.64 
L 360.781668 224.64 
L 360.781668 219.190376 
L 359.270053 219.190376 
z
" clip-path="url(#p5164e07f0f)" style="fill: #1f77b4"/>
   </g>
   <g id="patch_202">
    <path d="M 360.781668 224.64 
L 362.293283 224.64 
L 362.293283 219.190376 
L 360.781668 219.190376 
z
" clip-path="url(#p5164e07f0f)" style="fill: #1f77b4"/>
   </g>
   <g id="matplotlib.axis_1">
    <g id="xtick_1">
     <g id="line2d_1">
      <defs>
       <path id="m7dc15cd810" d="M 0 0 
L 0 3.5 
" style="stroke: #000000; stroke-width: 0.8"/>
      </defs>
      <g>
       <use xlink:href="#m7dc15cd810" x="58.999432" y="224.64" style="stroke: #000000; stroke-width: 0.8"/>
      </g>
     </g>
     <g id="text_1">
      <!-- 0.0 -->
      <g transform="translate(51.047869 239.238437)scale(0.1 -0.1)">
       <defs>
        <path id="DejaVuSans-30" d="M 2034 4250 
Q 1547 4250 1301 3770 
Q 1056 3291 1056 2328 
Q 1056 1369 1301 889 
Q 1547 409 2034 409 
Q 2525 409 2770 889 
Q 3016 1369 3016 2328 
Q 3016 3291 2770 3770 
Q 2525 4250 2034 4250 
z
M 2034 4750 
Q 2819 4750 3233 4129 
Q 3647 3509 3647 2328 
Q 3647 1150 3233 529 
Q 2819 -91 2034 -91 
Q 1250 -91 836 529 
Q 422 1150 422 2328 
Q 422 3509 836 4129 
Q 1250 4750 2034 4750 
z
" transform="scale(0.015625)"/>
        <path id="DejaVuSans-2e" d="M 684 794 
L 1344 794 
L 1344 0 
L 684 0 
L 684 794 
z
" transform="scale(0.015625)"/>
       </defs>
       <use xlink:href="#DejaVuSans-30"/>
       <use xlink:href="#DejaVuSans-2e" x="63.623047"/>
       <use xlink:href="#DejaVuSans-30" x="95.410156"/>
      </g>
     </g>
    </g>
    <g id="xtick_2">
     <g id="line2d_2">
      <g>
       <use xlink:href="#m7dc15cd810" x="97.752214" y="224.64" style="stroke: #000000; stroke-width: 0.8"/>
      </g>
     </g>
     <g id="text_2">
      <!-- 0.2 -->
      <g transform="translate(89.800651 239.238437)scale(0.1 -0.1)">
       <defs>
        <path id="DejaVuSans-32" d="M 1228 531 
L 3431 531 
L 3431 0 
L 469 0 
L 469 531 
Q 828 903 1448 1529 
Q 2069 2156 2228 2338 
Q 2531 2678 2651 2914 
Q 2772 3150 2772 3378 
Q 2772 3750 2511 3984 
Q 2250 4219 1831 4219 
Q 1534 4219 1204 4116 
Q 875 4013 500 3803 
L 500 4441 
Q 881 4594 1212 4672 
Q 1544 4750 1819 4750 
Q 2544 4750 2975 4387 
Q 3406 4025 3406 3419 
Q 3406 3131 3298 2873 
Q 3191 2616 2906 2266 
Q 2828 2175 2409 1742 
Q 1991 1309 1228 531 
z
" transform="scale(0.015625)"/>
       </defs>
       <use xlink:href="#DejaVuSans-30"/>
       <use xlink:href="#DejaVuSans-2e" x="63.623047"/>
       <use xlink:href="#DejaVuSans-32" x="95.410156"/>
      </g>
     </g>
    </g>
    <g id="xtick_3">
     <g id="line2d_3">
      <g>
       <use xlink:href="#m7dc15cd810" x="136.504995" y="224.64" style="stroke: #000000; stroke-width: 0.8"/>
      </g>
     </g>
     <g id="text_3">
      <!-- 0.4 -->
      <g transform="translate(128.553433 239.238437)scale(0.1 -0.1)">
       <defs>
        <path id="DejaVuSans-34" d="M 2419 4116 
L 825 1625 
L 2419 1625 
L 2419 4116 
z
M 2253 4666 
L 3047 4666 
L 3047 1625 
L 3713 1625 
L 3713 1100 
L 3047 1100 
L 3047 0 
L 2419 0 
L 2419 1100 
L 313 1100 
L 313 1709 
L 2253 4666 
z
" transform="scale(0.015625)"/>
       </defs>
       <use xlink:href="#DejaVuSans-30"/>
       <use xlink:href="#DejaVuSans-2e" x="63.623047"/>
       <use xlink:href="#DejaVuSans-34" x="95.410156"/>
      </g>
     </g>
    </g>
    <g id="xtick_4">
     <g id="line2d_4">
      <g>
       <use xlink:href="#m7dc15cd810" x="175.257777" y="224.64" style="stroke: #000000; stroke-width: 0.8"/>
      </g>
     </g>
     <g id="text_4">
      <!-- 0.6 -->
      <g transform="translate(167.306215 239.238437)scale(0.1 -0.1)">
       <defs>
        <path id="DejaVuSans-36" d="M 2113 2584 
Q 1688 2584 1439 2293 
Q 1191 2003 1191 1497 
Q 1191 994 1439 701 
Q 1688 409 2113 409 
Q 2538 409 2786 701 
Q 3034 994 3034 1497 
Q 3034 2003 2786 2293 
Q 2538 2584 2113 2584 
z
M 3366 4563 
L 3366 3988 
Q 3128 4100 2886 4159 
Q 2644 4219 2406 4219 
Q 1781 4219 1451 3797 
Q 1122 3375 1075 2522 
Q 1259 2794 1537 2939 
Q 1816 3084 2150 3084 
Q 2853 3084 3261 2657 
Q 3669 2231 3669 1497 
Q 3669 778 3244 343 
Q 2819 -91 2113 -91 
Q 1303 -91 875 529 
Q 447 1150 447 2328 
Q 447 3434 972 4092 
Q 1497 4750 2381 4750 
Q 2619 4750 2861 4703 
Q 3103 4656 3366 4563 
z
" transform="scale(0.015625)"/>
       </defs>
       <use xlink:href="#DejaVuSans-30"/>
       <use xlink:href="#DejaVuSans-2e" x="63.623047"/>
       <use xlink:href="#DejaVuSans-36" x="95.410156"/>
      </g>
     </g>
    </g>
    <g id="xtick_5">
     <g id="line2d_5">
      <g>
       <use xlink:href="#m7dc15cd810" x="214.010559" y="224.64" style="stroke: #000000; stroke-width: 0.8"/>
      </g>
     </g>
     <g id="text_5">
      <!-- 0.8 -->
      <g transform="translate(206.058996 239.238437)scale(0.1 -0.1)">
       <defs>
        <path id="DejaVuSans-38" d="M 2034 2216 
Q 1584 2216 1326 1975 
Q 1069 1734 1069 1313 
Q 1069 891 1326 650 
Q 1584 409 2034 409 
Q 2484 409 2743 651 
Q 3003 894 3003 1313 
Q 3003 1734 2745 1975 
Q 2488 2216 2034 2216 
z
M 1403 2484 
Q 997 2584 770 2862 
Q 544 3141 544 3541 
Q 544 4100 942 4425 
Q 1341 4750 2034 4750 
Q 2731 4750 3128 4425 
Q 3525 4100 3525 3541 
Q 3525 3141 3298 2862 
Q 3072 2584 2669 2484 
Q 3125 2378 3379 2068 
Q 3634 1759 3634 1313 
Q 3634 634 3220 271 
Q 2806 -91 2034 -91 
Q 1263 -91 848 271 
Q 434 634 434 1313 
Q 434 1759 690 2068 
Q 947 2378 1403 2484 
z
M 1172 3481 
Q 1172 3119 1398 2916 
Q 1625 2713 2034 2713 
Q 2441 2713 2670 2916 
Q 2900 3119 2900 3481 
Q 2900 3844 2670 4047 
Q 2441 4250 2034 4250 
Q 1625 4250 1398 4047 
Q 1172 3844 1172 3481 
z
" transform="scale(0.015625)"/>
       </defs>
       <use xlink:href="#DejaVuSans-30"/>
       <use xlink:href="#DejaVuSans-2e" x="63.623047"/>
       <use xlink:href="#DejaVuSans-38" x="95.410156"/>
      </g>
     </g>
    </g>
    <g id="xtick_6">
     <g id="line2d_6">
      <g>
       <use xlink:href="#m7dc15cd810" x="252.763341" y="224.64" style="stroke: #000000; stroke-width: 0.8"/>
      </g>
     </g>
     <g id="text_6">
      <!-- 1.0 -->
      <g transform="translate(244.811778 239.238437)scale(0.1 -0.1)">
       <defs>
        <path id="DejaVuSans-31" d="M 794 531 
L 1825 531 
L 1825 4091 
L 703 3866 
L 703 4441 
L 1819 4666 
L 2450 4666 
L 2450 531 
L 3481 531 
L 3481 0 
L 794 0 
L 794 531 
z
" transform="scale(0.015625)"/>
       </defs>
       <use xlink:href="#DejaVuSans-31"/>
       <use xlink:href="#DejaVuSans-2e" x="63.623047"/>
       <use xlink:href="#DejaVuSans-30" x="95.410156"/>
      </g>
     </g>
    </g>
    <g id="xtick_7">
     <g id="line2d_7">
      <g>
       <use xlink:href="#m7dc15cd810" x="291.516122" y="224.64" style="stroke: #000000; stroke-width: 0.8"/>
      </g>
     </g>
     <g id="text_7">
      <!-- 1.2 -->
      <g transform="translate(283.56456 239.238437)scale(0.1 -0.1)">
       <use xlink:href="#DejaVuSans-31"/>
       <use xlink:href="#DejaVuSans-2e" x="63.623047"/>
       <use xlink:href="#DejaVuSans-32" x="95.410156"/>
      </g>
     </g>
    </g>
    <g id="xtick_8">
     <g id="line2d_8">
      <g>
       <use xlink:href="#m7dc15cd810" x="330.268904" y="224.64" style="stroke: #000000; stroke-width: 0.8"/>
      </g>
     </g>
     <g id="text_8">
      <!-- 1.4 -->
      <g transform="translate(322.317342 239.238437)scale(0.1 -0.1)">
       <use xlink:href="#DejaVuSans-31"/>
       <use xlink:href="#DejaVuSans-2e" x="63.623047"/>
       <use xlink:href="#DejaVuSans-34" x="95.410156"/>
      </g>
     </g>
    </g>
    <g id="xtick_9">
     <g id="line2d_9">
      <g>
       <use xlink:href="#m7dc15cd810" x="369.021686" y="224.64" style="stroke: #000000; stroke-width: 0.8"/>
      </g>
     </g>
     <g id="text_9">
      <!-- 1.6 -->
      <g transform="translate(361.070124 239.238437)scale(0.1 -0.1)">
       <use xlink:href="#DejaVuSans-31"/>
       <use xlink:href="#DejaVuSans-2e" x="63.623047"/>
       <use xlink:href="#DejaVuSans-36" x="95.410156"/>
      </g>
     </g>
    </g>
    <g id="text_10">
     <!-- Angle with normal (rad) -->
     <g transform="translate(151.863281 252.916562)scale(0.1 -0.1)">
      <defs>
       <path id="DejaVuSans-41" d="M 2188 4044 
L 1331 1722 
L 3047 1722 
L 2188 4044 
z
M 1831 4666 
L 2547 4666 
L 4325 0 
L 3669 0 
L 3244 1197 
L 1141 1197 
L 716 0 
L 50 0 
L 1831 4666 
z
" transform="scale(0.015625)"/>
       <path id="DejaVuSans-6e" d="M 3513 2113 
L 3513 0 
L 2938 0 
L 2938 2094 
Q 2938 2591 2744 2837 
Q 2550 3084 2163 3084 
Q 1697 3084 1428 2787 
Q 1159 2491 1159 1978 
L 1159 0 
L 581 0 
L 581 3500 
L 1159 3500 
L 1159 2956 
Q 1366 3272 1645 3428 
Q 1925 3584 2291 3584 
Q 2894 3584 3203 3211 
Q 3513 2838 3513 2113 
z
" transform="scale(0.015625)"/>
       <path id="DejaVuSans-67" d="M 2906 1791 
Q 2906 2416 2648 2759 
Q 2391 3103 1925 3103 
Q 1463 3103 1205 2759 
Q 947 2416 947 1791 
Q 947 1169 1205 825 
Q 1463 481 1925 481 
Q 2391 481 2648 825 
Q 2906 1169 2906 1791 
z
M 3481 434 
Q 3481 -459 3084 -895 
Q 2688 -1331 1869 -1331 
Q 1566 -1331 1297 -1286 
Q 1028 -1241 775 -1147 
L 775 -588 
Q 1028 -725 1275 -790 
Q 1522 -856 1778 -856 
Q 2344 -856 2625 -561 
Q 2906 -266 2906 331 
L 2906 616 
Q 2728 306 2450 153 
Q 2172 0 1784 0 
Q 1141 0 747 490 
Q 353 981 353 1791 
Q 353 2603 747 3093 
Q 1141 3584 1784 3584 
Q 2172 3584 2450 3431 
Q 2728 3278 2906 2969 
L 2906 3500 
L 3481 3500 
L 3481 434 
z
" transform="scale(0.015625)"/>
       <path id="DejaVuSans-6c" d="M 603 4863 
L 1178 4863 
L 1178 0 
L 603 0 
L 603 4863 
z
" transform="scale(0.015625)"/>
       <path id="DejaVuSans-65" d="M 3597 1894 
L 3597 1613 
L 953 1613 
Q 991 1019 1311 708 
Q 1631 397 2203 397 
Q 2534 397 2845 478 
Q 3156 559 3463 722 
L 3463 178 
Q 3153 47 2828 -22 
Q 2503 -91 2169 -91 
Q 1331 -91 842 396 
Q 353 884 353 1716 
Q 353 2575 817 3079 
Q 1281 3584 2069 3584 
Q 2775 3584 3186 3129 
Q 3597 2675 3597 1894 
z
M 3022 2063 
Q 3016 2534 2758 2815 
Q 2500 3097 2075 3097 
Q 1594 3097 1305 2825 
Q 1016 2553 972 2059 
L 3022 2063 
z
" transform="scale(0.015625)"/>
       <path id="DejaVuSans-20" transform="scale(0.015625)"/>
       <path id="DejaVuSans-77" d="M 269 3500 
L 844 3500 
L 1563 769 
L 2278 3500 
L 2956 3500 
L 3675 769 
L 4391 3500 
L 4966 3500 
L 4050 0 
L 3372 0 
L 2619 2869 
L 1863 0 
L 1184 0 
L 269 3500 
z
" transform="scale(0.015625)"/>
       <path id="DejaVuSans-69" d="M 603 3500 
L 1178 3500 
L 1178 0 
L 603 0 
L 603 3500 
z
M 603 4863 
L 1178 4863 
L 1178 4134 
L 603 4134 
L 603 4863 
z
" transform="scale(0.015625)"/>
       <path id="DejaVuSans-74" d="M 1172 4494 
L 1172 3500 
L 2356 3500 
L 2356 3053 
L 1172 3053 
L 1172 1153 
Q 1172 725 1289 603 
Q 1406 481 1766 481 
L 2356 481 
L 2356 0 
L 1766 0 
Q 1100 0 847 248 
Q 594 497 594 1153 
L 594 3053 
L 172 3053 
L 172 3500 
L 594 3500 
L 594 4494 
L 1172 4494 
z
" transform="scale(0.015625)"/>
       <path id="DejaVuSans-68" d="M 3513 2113 
L 3513 0 
L 2938 0 
L 2938 2094 
Q 2938 2591 2744 2837 
Q 2550 3084 2163 3084 
Q 1697 3084 1428 2787 
Q 1159 2491 1159 1978 
L 1159 0 
L 581 0 
L 581 4863 
L 1159 4863 
L 1159 2956 
Q 1366 3272 1645 3428 
Q 1925 3584 2291 3584 
Q 2894 3584 3203 3211 
Q 3513 2838 3513 2113 
z
" transform="scale(0.015625)"/>
       <path id="DejaVuSans-6f" d="M 1959 3097 
Q 1497 3097 1228 2736 
Q 959 2375 959 1747 
Q 959 1119 1226 758 
Q 1494 397 1959 397 
Q 2419 397 2687 759 
Q 2956 1122 2956 1747 
Q 2956 2369 2687 2733 
Q 2419 3097 1959 3097 
z
M 1959 3584 
Q 2709 3584 3137 3096 
Q 3566 2609 3566 1747 
Q 3566 888 3137 398 
Q 2709 -91 1959 -91 
Q 1206 -91 779 398 
Q 353 888 353 1747 
Q 353 2609 779 3096 
Q 1206 3584 1959 3584 
z
" transform="scale(0.015625)"/>
       <path id="DejaVuSans-72" d="M 2631 2963 
Q 2534 3019 2420 3045 
Q 2306 3072 2169 3072 
Q 1681 3072 1420 2755 
Q 1159 2438 1159 1844 
L 1159 0 
L 581 0 
L 581 3500 
L 1159 3500 
L 1159 2956 
Q 1341 3275 1631 3429 
Q 1922 3584 2338 3584 
Q 2397 3584 2469 3576 
Q 2541 3569 2628 3553 
L 2631 2963 
z
" transform="scale(0.015625)"/>
       <path id="DejaVuSans-6d" d="M 3328 2828 
Q 3544 3216 3844 3400 
Q 4144 3584 4550 3584 
Q 5097 3584 5394 3201 
Q 5691 2819 5691 2113 
L 5691 0 
L 5113 0 
L 5113 2094 
Q 5113 2597 4934 2840 
Q 4756 3084 4391 3084 
Q 3944 3084 3684 2787 
Q 3425 2491 3425 1978 
L 3425 0 
L 2847 0 
L 2847 2094 
Q 2847 2600 2669 2842 
Q 2491 3084 2119 3084 
Q 1678 3084 1418 2786 
Q 1159 2488 1159 1978 
L 1159 0 
L 581 0 
L 581 3500 
L 1159 3500 
L 1159 2956 
Q 1356 3278 1631 3431 
Q 1906 3584 2284 3584 
Q 2666 3584 2933 3390 
Q 3200 3197 3328 2828 
z
" transform="scale(0.015625)"/>
       <path id="DejaVuSans-61" d="M 2194 1759 
Q 1497 1759 1228 1600 
Q 959 1441 959 1056 
Q 959 750 1161 570 
Q 1363 391 1709 391 
Q 2188 391 2477 730 
Q 2766 1069 2766 1631 
L 2766 1759 
L 2194 1759 
z
M 3341 1997 
L 3341 0 
L 2766 0 
L 2766 531 
Q 2569 213 2275 61 
Q 1981 -91 1556 -91 
Q 1019 -91 701 211 
Q 384 513 384 1019 
Q 384 1609 779 1909 
Q 1175 2209 1959 2209 
L 2766 2209 
L 2766 2266 
Q 2766 2663 2505 2880 
Q 2244 3097 1772 3097 
Q 1472 3097 1187 3025 
Q 903 2953 641 2809 
L 641 3341 
Q 956 3463 1253 3523 
Q 1550 3584 1831 3584 
Q 2591 3584 2966 3190 
Q 3341 2797 3341 1997 
z
" transform="scale(0.015625)"/>
       <path id="DejaVuSans-28" d="M 1984 4856 
Q 1566 4138 1362 3434 
Q 1159 2731 1159 2009 
Q 1159 1288 1364 580 
Q 1569 -128 1984 -844 
L 1484 -844 
Q 1016 -109 783 600 
Q 550 1309 550 2009 
Q 550 2706 781 3412 
Q 1013 4119 1484 4856 
L 1984 4856 
z
" transform="scale(0.015625)"/>
       <path id="DejaVuSans-64" d="M 2906 2969 
L 2906 4863 
L 3481 4863 
L 3481 0 
L 2906 0 
L 2906 525 
Q 2725 213 2448 61 
Q 2172 -91 1784 -91 
Q 1150 -91 751 415 
Q 353 922 353 1747 
Q 353 2572 751 3078 
Q 1150 3584 1784 3584 
Q 2172 3584 2448 3432 
Q 2725 3281 2906 2969 
z
M 947 1747 
Q 947 1113 1208 752 
Q 1469 391 1925 391 
Q 2381 391 2643 752 
Q 2906 1113 2906 1747 
Q 2906 2381 2643 2742 
Q 2381 3103 1925 3103 
Q 1469 3103 1208 2742 
Q 947 2381 947 1747 
z
" transform="scale(0.015625)"/>
       <path id="DejaVuSans-29" d="M 513 4856 
L 1013 4856 
Q 1481 4119 1714 3412 
Q 1947 2706 1947 2009 
Q 1947 1309 1714 600 
Q 1481 -109 1013 -844 
L 513 -844 
Q 928 -128 1133 580 
Q 1338 1288 1338 2009 
Q 1338 2731 1133 3434 
Q 928 4138 513 4856 
z
" transform="scale(0.015625)"/>
      </defs>
      <use xlink:href="#DejaVuSans-41"/>
      <use xlink:href="#DejaVuSans-6e" x="68.408203"/>
      <use xlink:href="#DejaVuSans-67" x="131.787109"/>
      <use xlink:href="#DejaVuSans-6c" x="195.263672"/>
      <use xlink:href="#DejaVuSans-65" x="223.046875"/>
      <use xlink:href="#DejaVuSans-20" x="284.570312"/>
      <use xlink:href="#DejaVuSans-77" x="316.357422"/>
      <use xlink:href="#DejaVuSans-69" x="398.144531"/>
      <use xlink:href="#DejaVuSans-74" x="425.927734"/>
      <use xlink:href="#DejaVuSans-68" x="465.136719"/>
      <use xlink:href="#DejaVuSans-20" x="528.515625"/>
      <use xlink:href="#DejaVuSans-6e" x="560.302734"/>
      <use xlink:href="#DejaVuSans-6f" x="623.681641"/>
      <use xlink:href="#DejaVuSans-72" x="684.863281"/>
      <use xlink:href="#DejaVuSans-6d" x="724.226562"/>
      <use xlink:href="#DejaVuSans-61" x="821.638672"/>
      <use xlink:href="#DejaVuSans-6c" x="882.917969"/>
      <use xlink:href="#DejaVuSans-20" x="910.701172"/>
      <use xlink:href="#DejaVuSans-28" x="942.488281"/>
      <use xlink:href="#DejaVuSans-72" x="981.501953"/>
      <use xlink:href="#DejaVuSans-61" x="1022.615234"/>
      <use xlink:href="#DejaVuSans-64" x="1083.894531"/>
      <use xlink:href="#DejaVuSans-29" x="1147.371094"/>
     </g>
    </g>
   </g>
   <g id="matplotlib.axis_2">
    <g id="ytick_1">
     <g id="line2d_10">
      <defs>
       <path id="ma6592ca8ce" d="M 0 0 
L -3.5 0 
" style="stroke: #000000; stroke-width: 0.8"/>
      </defs>
      <g>
       <use xlink:href="#ma6592ca8ce" x="43.78125" y="224.64" style="stroke: #000000; stroke-width: 0.8"/>
      </g>
     </g>
     <g id="text_11">
      <!-- 0.0 -->
      <g transform="translate(20.878125 228.439219)scale(0.1 -0.1)">
       <use xlink:href="#DejaVuSans-30"/>
       <use xlink:href="#DejaVuSans-2e" x="63.623047"/>
       <use xlink:href="#DejaVuSans-30" x="95.410156"/>
      </g>
     </g>
    </g>
    <g id="ytick_2">
     <g id="line2d_11">
      <g>
       <use xlink:href="#ma6592ca8ce" x="43.78125" y="186.849524" style="stroke: #000000; stroke-width: 0.8"/>
      </g>
     </g>
     <g id="text_12">
      <!-- 0.2 -->
      <g transform="translate(20.878125 190.648743)scale(0.1 -0.1)">
       <use xlink:href="#DejaVuSans-30"/>
       <use xlink:href="#DejaVuSans-2e" x="63.623047"/>
       <use xlink:href="#DejaVuSans-32" x="95.410156"/>
      </g>
     </g>
    </g>
    <g id="ytick_3">
     <g id="line2d_12">
      <g>
       <use xlink:href="#ma6592ca8ce" x="43.78125" y="149.059048" style="stroke: #000000; stroke-width: 0.8"/>
      </g>
     </g>
     <g id="text_13">
      <!-- 0.4 -->
      <g transform="translate(20.878125 152.858267)scale(0.1 -0.1)">
       <use xlink:href="#DejaVuSans-30"/>
       <use xlink:href="#DejaVuSans-2e" x="63.623047"/>
       <use xlink:href="#DejaVuSans-34" x="95.410156"/>
      </g>
     </g>
    </g>
    <g id="ytick_4">
     <g id="line2d_13">
      <g>
       <use xlink:href="#ma6592ca8ce" x="43.78125" y="111.268572" style="stroke: #000000; stroke-width: 0.8"/>
      </g>
     </g>
     <g id="text_14">
      <!-- 0.6 -->
      <g transform="translate(20.878125 115.06779)scale(0.1 -0.1)">
       <use xlink:href="#DejaVuSans-30"/>
       <use xlink:href="#DejaVuSans-2e" x="63.623047"/>
       <use xlink:href="#DejaVuSans-36" x="95.410156"/>
      </g>
     </g>
    </g>
    <g id="ytick_5">
     <g id="line2d_14">
      <g>
       <use xlink:href="#ma6592ca8ce" x="43.78125" y="73.478096" style="stroke: #000000; stroke-width: 0.8"/>
      </g>
     </g>
     <g id="text_15">
      <!-- 0.8 -->
      <g transform="translate(20.878125 77.277314)scale(0.1 -0.1)">
       <use xlink:href="#DejaVuSans-30"/>
       <use xlink:href="#DejaVuSans-2e" x="63.623047"/>
       <use xlink:href="#DejaVuSans-38" x="95.410156"/>
      </g>
     </g>
    </g>
    <g id="ytick_6">
     <g id="line2d_15">
      <g>
       <use xlink:href="#ma6592ca8ce" x="43.78125" y="35.687619" style="stroke: #000000; stroke-width: 0.8"/>
      </g>
     </g>
     <g id="text_16">
      <!-- 1.0 -->
      <g transform="translate(20.878125 39.486838)scale(0.1 -0.1)">
       <use xlink:href="#DejaVuSans-31"/>
       <use xlink:href="#DejaVuSans-2e" x="63.623047"/>
       <use xlink:href="#DejaVuSans-30" x="95.410156"/>
      </g>
     </g>
    </g>
    <g id="text_17">
     <!-- Probability density -->
     <g transform="translate(14.798438 162.270781)rotate(-90)scale(0.1 -0.1)">
      <defs>
       <path id="DejaVuSans-50" d="M 1259 4147 
L 1259 2394 
L 2053 2394 
Q 2494 2394 2734 2622 
Q 2975 2850 2975 3272 
Q 2975 3691 2734 3919 
Q 2494 4147 2053 4147 
L 1259 4147 
z
M 628 4666 
L 2053 4666 
Q 2838 4666 3239 4311 
Q 3641 3956 3641 3272 
Q 3641 2581 3239 2228 
Q 2838 1875 2053 1875 
L 1259 1875 
L 1259 0 
L 628 0 
L 628 4666 
z
" transform="scale(0.015625)"/>
       <path id="DejaVuSans-62" d="M 3116 1747 
Q 3116 2381 2855 2742 
Q 2594 3103 2138 3103 
Q 1681 3103 1420 2742 
Q 1159 2381 1159 1747 
Q 1159 1113 1420 752 
Q 1681 391 2138 391 
Q 2594 391 2855 752 
Q 3116 1113 3116 1747 
z
M 1159 2969 
Q 1341 3281 1617 3432 
Q 1894 3584 2278 3584 
Q 2916 3584 3314 3078 
Q 3713 2572 3713 1747 
Q 3713 922 3314 415 
Q 2916 -91 2278 -91 
Q 1894 -91 1617 61 
Q 1341 213 1159 525 
L 1159 0 
L 581 0 
L 581 4863 
L 1159 4863 
L 1159 2969 
z
" transform="scale(0.015625)"/>
       <path id="DejaVuSans-79" d="M 2059 -325 
Q 1816 -950 1584 -1140 
Q 1353 -1331 966 -1331 
L 506 -1331 
L 506 -850 
L 844 -850 
Q 1081 -850 1212 -737 
Q 1344 -625 1503 -206 
L 1606 56 
L 191 3500 
L 800 3500 
L 1894 763 
L 2988 3500 
L 3597 3500 
L 2059 -325 
z
" transform="scale(0.015625)"/>
       <path id="DejaVuSans-73" d="M 2834 3397 
L 2834 2853 
Q 2591 2978 2328 3040 
Q 2066 3103 1784 3103 
Q 1356 3103 1142 2972 
Q 928 2841 928 2578 
Q 928 2378 1081 2264 
Q 1234 2150 1697 2047 
L 1894 2003 
Q 2506 1872 2764 1633 
Q 3022 1394 3022 966 
Q 3022 478 2636 193 
Q 2250 -91 1575 -91 
Q 1294 -91 989 -36 
Q 684 19 347 128 
L 347 722 
Q 666 556 975 473 
Q 1284 391 1588 391 
Q 1994 391 2212 530 
Q 2431 669 2431 922 
Q 2431 1156 2273 1281 
Q 2116 1406 1581 1522 
L 1381 1569 
Q 847 1681 609 1914 
Q 372 2147 372 2553 
Q 372 3047 722 3315 
Q 1072 3584 1716 3584 
Q 2034 3584 2315 3537 
Q 2597 3491 2834 3397 
z
" transform="scale(0.015625)"/>
      </defs>
      <use xlink:href="#DejaVuSans-50"/>
      <use xlink:href="#DejaVuSans-72" x="58.552734"/>
      <use xlink:href="#DejaVuSans-6f" x="97.416016"/>
      <use xlink:href="#DejaVuSans-62" x="158.597656"/>
      <use xlink:href="#DejaVuSans-61" x="222.074219"/>
      <use xlink:href="#DejaVuSans-62" x="283.353516"/>
      <use xlink:href="#DejaVuSans-69" x="346.830078"/>
      <use xlink:href="#DejaVuSans-6c" x="374.613281"/>
      <use xlink:href="#DejaVuSans-69" x="402.396484"/>
      <use xlink:href="#DejaVuSans-74" x="430.179688"/>
      <use xlink:href="#DejaVuSans-79" x="469.388672"/>
      <use xlink:href="#DejaVuSans-20" x="528.568359"/>
      <use xlink:href="#DejaVuSans-64" x="560.355469"/>
      <use xlink:href="#DejaVuSans-65" x="623.832031"/>
      <use xlink:href="#DejaVuSans-6e" x="685.355469"/>
      <use xlink:href="#DejaVuSans-73" x="748.734375"/>
      <use xlink:href="#DejaVuSans-69" x="800.833984"/>
      <use xlink:href="#DejaVuSans-74" x="828.617188"/>
      <use xlink:href="#DejaVuSans-79" x="867.826172"/>
     </g>
    </g>
   </g>
   <g id="line2d_16">
    <path d="M 58.999432 224.64 
L 77.888867 188.032224 
L 87.942921 169.026429 
L 96.473633 153.361632 
L 104.090341 139.838326 
L 111.097712 127.85766 
L 117.495746 117.359246 
L 123.589112 107.794931 
L 129.37781 99.136249 
L 134.86184 91.345987 
L 140.041201 84.380168 
L 144.915894 78.189863 
L 149.485918 72.722828 
L 154.055943 67.593763 
L 158.321299 63.121636 
L 162.586655 58.962533 
L 166.852012 55.124513 
L 170.8127 51.85465 
L 174.773388 48.873523 
L 178.734076 46.186115 
L 182.390095 43.970019 
L 186.046115 42.01118 
L 189.702135 40.312385 
L 193.358154 38.876055 
L 196.709506 37.79174 
L 200.060857 36.930988 
L 203.412208 36.294829 
L 206.76356 35.884024 
L 210.114911 35.699065 
L 213.466262 35.740172 
L 216.817614 36.007297 
L 220.168965 36.50012 
L 223.520316 37.218051 
L 226.871668 38.160232 
L 230.223019 39.325535 
L 233.57437 40.712566 
L 237.23039 42.476613 
L 240.88641 44.500042 
L 244.542429 46.779973 
L 248.198449 49.313159 
L 252.159137 52.339043 
L 256.119825 55.652855 
L 260.080513 59.249055 
L 264.345869 63.430792 
L 268.611225 67.924953 
L 273.18125 73.076913 
L 277.751275 78.566055 
L 282.625967 84.779017 
L 287.50066 91.345987 
L 292.680021 98.692673 
L 298.164051 106.863304 
L 303.952749 115.89661 
L 310.046115 125.824005 
L 316.444149 136.667601 
L 323.45152 148.982207 
L 331.372896 163.376008 
L 340.208277 179.909074 
L 351.176336 200.934407 
L 363.363068 224.64 
L 363.363068 224.64 
" clip-path="url(#p5164e07f0f)" style="fill: none; stroke: #ff7f0e; stroke-width: 1.5; stroke-linecap: square"/>
   </g>
   <g id="patch_203">
    <path d="M 43.78125 224.64 
L 43.78125 7.2 
" style="fill: none; stroke: #000000; stroke-width: 0.8; stroke-linejoin: miter; stroke-linecap: square"/>
   </g>
   <g id="patch_204">
    <path d="M 378.58125 224.64 
L 378.58125 7.2 
" style="fill: none; stroke: #000000; stroke-width: 0.8; stroke-linejoin: miter; stroke-linecap: square"/>
   </g>
   <g id="patch_205">
    <path d="M 43.78125 224.64 
L 378.58125 224.64 
" style="fill: none; stroke: #000000; stroke-width: 0.8; stroke-linejoin: miter; stroke-linecap: square"/>
   </g>
   <g id="patch_206">
    <path d="M 43.78125 7.2 
L 378.58125 7.2 
" style="fill: none; stroke: #000000; stroke-width: 0.8; stroke-linejoin: miter; stroke-linecap: square"/>
   </g>
  </g>
 </g>
 <defs>
  <clipPath id="p5164e07f0f">
   <rect x="43.78125" y="7.2" width="334.8" height="217.44"/>
  </clipPath>
 </defs>
</svg>
