<?xml version="1.0" encoding="utf-8" standalone="no"?>
<!DOCTYPE svg PUBLIC "-//W3C//DTD SVG 1.1//EN"
  "http://www.w3.org/Graphics/SVG/1.1/DTD/svg11.dtd">
<svg xmlns:xlink="http://www.w3.org/1999/xlink" width="408.10125pt" height="310.86825pt" viewBox="0 0 408.10125 310.86825" xmlns="http://www.w3.org/2000/svg" version="1.1">
 <metadata>
  <rdf:RDF xmlns:dc="http://purl.org/dc/elements/1.1/" xmlns:cc="http://creativecommons.org/ns#" xmlns:rdf="http://www.w3.org/1999/02/22-rdf-syntax-ns#">
   <cc:Work>
    <dc:type rdf:resource="http://purl.org/dc/dcmitype/StillImage"/>
    <dc:date>2022-11-20T00:34:58.896942</dc:date>
    <dc:format>image/svg+xml</dc:format>
    <dc:creator>
     <cc:Agent>
      <dc:title>Matplotlib v3.5.3, https://matplotlib.org/</dc:title>
     </cc:Agent>
    </dc:creator>
   </cc:Work>
  </rdf:RDF>
 </metadata>
 <defs>
  <style type="text/css">*{stroke-linejoin: round; stroke-linecap: butt}</style>
 </defs>
 <g id="figure_1">
  <g id="patch_1">
   <path d="M 0 310.86825 
L 408.10125 310.86825 
L 408.10125 0 
L 0 0 
z
" style="fill: #ffffff"/>
  </g>
  <g id="axes_1">
   <g id="patch_2">
    <path d="M 43.78125 273.312 
L 400.90125 273.312 
L 400.90125 7.2 
L 43.78125 7.2 
z
" style="fill: #ffffff"/>
   </g>
   <g id="patch_3">
    <path d="M 60.291287 273.312 
L 61.913146 273.312 
L 61.913146 271.6224 
L 60.291287 271.6224 
z
" clip-path="url(#p9676d823e9)" style="fill: #1f77b4"/>
   </g>
   <g id="patch_4">
    <path d="M 61.913146 273.312 
L 63.535004 273.312 
L 63.535004 270.496 
L 61.913146 270.496 
z
" clip-path="url(#p9676d823e9)" style="fill: #1f77b4"/>
   </g>
   <g id="patch_5">
    <path d="M 63.535004 273.312 
L 65.156862 273.312 
L 65.156862 269.9328 
L 63.535004 269.9328 
z
" clip-path="url(#p9676d823e9)" style="fill: #1f77b4"/>
   </g>
   <g id="patch_6">
    <path d="M 65.156862 273.312 
L 66.778721 273.312 
L 66.778721 268.8064 
L 65.156862 268.8064 
z
" clip-path="url(#p9676d823e9)" style="fill: #1f77b4"/>
   </g>
   <g id="patch_7">
    <path d="M 66.778721 273.312 
L 68.400579 273.312 
L 68.400579 268.2432 
L 66.778721 268.2432 
z
" clip-path="url(#p9676d823e9)" style="fill: #1f77b4"/>
   </g>
   <g id="patch_8">
    <path d="M 68.400579 273.312 
L 70.022438 273.312 
L 70.022438 263.1744 
L 68.400579 263.1744 
z
" clip-path="url(#p9676d823e9)" style="fill: #1f77b4"/>
   </g>
   <g id="patch_9">
    <path d="M 70.022438 273.312 
L 71.644296 273.312 
L 71.644296 264.3008 
L 70.022438 264.3008 
z
" clip-path="url(#p9676d823e9)" style="fill: #1f77b4"/>
   </g>
   <g id="patch_10">
    <path d="M 71.644296 273.312 
L 73.266155 273.312 
L 73.266155 263.7376 
L 71.644296 263.7376 
z
" clip-path="url(#p9676d823e9)" style="fill: #1f77b4"/>
   </g>
   <g id="patch_11">
    <path d="M 73.266155 273.312 
L 74.888013 273.312 
L 74.888013 262.6112 
L 73.266155 262.6112 
z
" clip-path="url(#p9676d823e9)" style="fill: #1f77b4"/>
   </g>
   <g id="patch_12">
    <path d="M 74.888013 273.312 
L 76.509871 273.312 
L 76.509871 264.3008 
L 74.888013 264.3008 
z
" clip-path="url(#p9676d823e9)" style="fill: #1f77b4"/>
   </g>
   <g id="patch_13">
    <path d="M 76.509871 273.312 
L 78.13173 273.312 
L 78.13173 261.4848 
L 76.509871 261.4848 
z
" clip-path="url(#p9676d823e9)" style="fill: #1f77b4"/>
   </g>
   <g id="patch_14">
    <path d="M 78.13173 273.312 
L 79.753588 273.312 
L 79.753588 261.4848 
L 78.13173 261.4848 
z
" clip-path="url(#p9676d823e9)" style="fill: #1f77b4"/>
   </g>
   <g id="patch_15">
    <path d="M 79.753588 273.312 
L 81.375447 273.312 
L 81.375447 256.416 
L 79.753588 256.416 
z
" clip-path="url(#p9676d823e9)" style="fill: #1f77b4"/>
   </g>
   <g id="patch_16">
    <path d="M 81.375447 273.312 
L 82.997305 273.312 
L 82.997305 259.232 
L 81.375447 259.232 
z
" clip-path="url(#p9676d823e9)" style="fill: #1f77b4"/>
   </g>
   <g id="patch_17">
    <path d="M 82.997305 273.312 
L 84.619164 273.312 
L 84.619164 259.232 
L 82.997305 259.232 
z
" clip-path="url(#p9676d823e9)" style="fill: #1f77b4"/>
   </g>
   <g id="patch_18">
    <path d="M 84.619164 273.312 
L 86.241022 273.312 
L 86.241022 254.7264 
L 84.619164 254.7264 
z
" clip-path="url(#p9676d823e9)" style="fill: #1f77b4"/>
   </g>
   <g id="patch_19">
    <path d="M 86.241022 273.312 
L 87.862881 273.312 
L 87.862881 247.4048 
L 86.241022 247.4048 
z
" clip-path="url(#p9676d823e9)" style="fill: #1f77b4"/>
   </g>
   <g id="patch_20">
    <path d="M 87.862881 273.312 
L 89.484739 273.312 
L 89.484739 256.416 
L 87.862881 256.416 
z
" clip-path="url(#p9676d823e9)" style="fill: #1f77b4"/>
   </g>
   <g id="patch_21">
    <path d="M 89.484739 273.312 
L 91.106597 273.312 
L 91.106597 245.7152 
L 89.484739 245.7152 
z
" clip-path="url(#p9676d823e9)" style="fill: #1f77b4"/>
   </g>
   <g id="patch_22">
    <path d="M 91.106597 273.312 
L 92.728456 273.312 
L 92.728456 248.5312 
L 91.106597 248.5312 
z
" clip-path="url(#p9676d823e9)" style="fill: #1f77b4"/>
   </g>
   <g id="patch_23">
    <path d="M 92.728456 273.312 
L 94.350314 273.312 
L 94.350314 247.968 
L 92.728456 247.968 
z
" clip-path="url(#p9676d823e9)" style="fill: #1f77b4"/>
   </g>
   <g id="patch_24">
    <path d="M 94.350314 273.312 
L 95.972173 273.312 
L 95.972173 241.7728 
L 94.350314 241.7728 
z
" clip-path="url(#p9676d823e9)" style="fill: #1f77b4"/>
   </g>
   <g id="patch_25">
    <path d="M 95.972173 273.312 
L 97.594031 273.312 
L 97.594031 249.0944 
L 95.972173 249.0944 
z
" clip-path="url(#p9676d823e9)" style="fill: #1f77b4"/>
   </g>
   <g id="patch_26">
    <path d="M 97.594031 273.312 
L 99.21589 273.312 
L 99.21589 252.4736 
L 97.594031 252.4736 
z
" clip-path="url(#p9676d823e9)" style="fill: #1f77b4"/>
   </g>
   <g id="patch_27">
    <path d="M 99.21589 273.312 
L 100.837748 273.312 
L 100.837748 250.2208 
L 99.21589 250.2208 
z
" clip-path="url(#p9676d823e9)" style="fill: #1f77b4"/>
   </g>
   <g id="patch_28">
    <path d="M 100.837748 273.312 
L 102.459606 273.312 
L 102.459606 244.0256 
L 100.837748 244.0256 
z
" clip-path="url(#p9676d823e9)" style="fill: #1f77b4"/>
   </g>
   <g id="patch_29">
    <path d="M 102.459606 273.312 
L 104.081465 273.312 
L 104.081465 246.8416 
L 102.459606 246.8416 
z
" clip-path="url(#p9676d823e9)" style="fill: #1f77b4"/>
   </g>
   <g id="patch_30">
    <path d="M 104.081465 273.312 
L 105.703323 273.312 
L 105.703323 237.8304 
L 104.081465 237.8304 
z
" clip-path="url(#p9676d823e9)" style="fill: #1f77b4"/>
   </g>
   <g id="patch_31">
    <path d="M 105.703323 273.312 
L 107.325182 273.312 
L 107.325182 246.8416 
L 105.703323 246.8416 
z
" clip-path="url(#p9676d823e9)" style="fill: #1f77b4"/>
   </g>
   <g id="patch_32">
    <path d="M 107.325182 273.312 
L 108.94704 273.312 
L 108.94704 244.0256 
L 107.325182 244.0256 
z
" clip-path="url(#p9676d823e9)" style="fill: #1f77b4"/>
   </g>
   <g id="patch_33">
    <path d="M 108.94704 273.312 
L 110.568899 273.312 
L 110.568899 234.4512 
L 108.94704 234.4512 
z
" clip-path="url(#p9676d823e9)" style="fill: #1f77b4"/>
   </g>
   <g id="patch_34">
    <path d="M 110.568899 273.312 
L 112.190757 273.312 
L 112.190757 241.2096 
L 110.568899 241.2096 
z
" clip-path="url(#p9676d823e9)" style="fill: #1f77b4"/>
   </g>
   <g id="patch_35">
    <path d="M 112.190757 273.312 
L 113.812615 273.312 
L 113.812615 232.1984 
L 112.190757 232.1984 
z
" clip-path="url(#p9676d823e9)" style="fill: #1f77b4"/>
   </g>
   <g id="patch_36">
    <path d="M 113.812615 273.312 
L 115.434474 273.312 
L 115.434474 241.7728 
L 113.812615 241.7728 
z
" clip-path="url(#p9676d823e9)" style="fill: #1f77b4"/>
   </g>
   <g id="patch_37">
    <path d="M 115.434474 273.312 
L 117.056332 273.312 
L 117.056332 227.6928 
L 115.434474 227.6928 
z
" clip-path="url(#p9676d823e9)" style="fill: #1f77b4"/>
   </g>
   <g id="patch_38">
    <path d="M 117.056332 273.312 
L 118.678191 273.312 
L 118.678191 226.5664 
L 117.056332 226.5664 
z
" clip-path="url(#p9676d823e9)" style="fill: #1f77b4"/>
   </g>
   <g id="patch_39">
    <path d="M 118.678191 273.312 
L 120.300049 273.312 
L 120.300049 238.3936 
L 118.678191 238.3936 
z
" clip-path="url(#p9676d823e9)" style="fill: #1f77b4"/>
   </g>
   <g id="patch_40">
    <path d="M 120.300049 273.312 
L 121.921908 273.312 
L 121.921908 234.4512 
L 120.300049 234.4512 
z
" clip-path="url(#p9676d823e9)" style="fill: #1f77b4"/>
   </g>
   <g id="patch_41">
    <path d="M 121.921908 273.312 
L 123.543766 273.312 
L 123.543766 227.1296 
L 121.921908 227.1296 
z
" clip-path="url(#p9676d823e9)" style="fill: #1f77b4"/>
   </g>
   <g id="patch_42">
    <path d="M 123.543766 273.312 
L 125.165625 273.312 
L 125.165625 224.3136 
L 123.543766 224.3136 
z
" clip-path="url(#p9676d823e9)" style="fill: #1f77b4"/>
   </g>
   <g id="patch_43">
    <path d="M 125.165625 273.312 
L 126.787483 273.312 
L 126.787483 231.6352 
L 125.165625 231.6352 
z
" clip-path="url(#p9676d823e9)" style="fill: #1f77b4"/>
   </g>
   <g id="patch_44">
    <path d="M 126.787483 273.312 
L 128.409341 273.312 
L 128.409341 231.6352 
L 126.787483 231.6352 
z
" clip-path="url(#p9676d823e9)" style="fill: #1f77b4"/>
   </g>
   <g id="patch_45">
    <path d="M 128.409341 273.312 
L 130.0312 273.312 
L 130.0312 223.7504 
L 128.409341 223.7504 
z
" clip-path="url(#p9676d823e9)" style="fill: #1f77b4"/>
   </g>
   <g id="patch_46">
    <path d="M 130.0312 273.312 
L 131.653058 273.312 
L 131.653058 230.5088 
L 130.0312 230.5088 
z
" clip-path="url(#p9676d823e9)" style="fill: #1f77b4"/>
   </g>
   <g id="patch_47">
    <path d="M 131.653058 273.312 
L 133.274917 273.312 
L 133.274917 224.3136 
L 131.653058 224.3136 
z
" clip-path="url(#p9676d823e9)" style="fill: #1f77b4"/>
   </g>
   <g id="patch_48">
    <path d="M 133.274917 273.312 
L 134.896775 273.312 
L 134.896775 220.3712 
L 133.274917 220.3712 
z
" clip-path="url(#p9676d823e9)" style="fill: #1f77b4"/>
   </g>
   <g id="patch_49">
    <path d="M 134.896775 273.312 
L 136.518634 273.312 
L 136.518634 214.7392 
L 134.896775 214.7392 
z
" clip-path="url(#p9676d823e9)" style="fill: #1f77b4"/>
   </g>
   <g id="patch_50">
    <path d="M 136.518634 273.312 
L 138.140492 273.312 
L 138.140492 221.4976 
L 136.518634 221.4976 
z
" clip-path="url(#p9676d823e9)" style="fill: #1f77b4"/>
   </g>
   <g id="patch_51">
    <path d="M 138.140492 273.312 
L 139.76235 273.312 
L 139.76235 214.176 
L 138.140492 214.176 
z
" clip-path="url(#p9676d823e9)" style="fill: #1f77b4"/>
   </g>
   <g id="patch_52">
    <path d="M 139.76235 273.312 
L 141.384209 273.312 
L 141.384209 216.4288 
L 139.76235 216.4288 
z
" clip-path="url(#p9676d823e9)" style="fill: #1f77b4"/>
   </g>
   <g id="patch_53">
    <path d="M 141.384209 273.312 
L 143.006067 273.312 
L 143.006067 219.808 
L 141.384209 219.808 
z
" clip-path="url(#p9676d823e9)" style="fill: #1f77b4"/>
   </g>
   <g id="patch_54">
    <path d="M 143.006067 273.312 
L 144.627926 273.312 
L 144.627926 213.0496 
L 143.006067 213.0496 
z
" clip-path="url(#p9676d823e9)" style="fill: #1f77b4"/>
   </g>
   <g id="patch_55">
    <path d="M 144.627926 273.312 
L 146.249784 273.312 
L 146.249784 226.0032 
L 144.627926 226.0032 
z
" clip-path="url(#p9676d823e9)" style="fill: #1f77b4"/>
   </g>
   <g id="patch_56">
    <path d="M 146.249784 273.312 
L 147.871643 273.312 
L 147.871643 208.544 
L 146.249784 208.544 
z
" clip-path="url(#p9676d823e9)" style="fill: #1f77b4"/>
   </g>
   <g id="patch_57">
    <path d="M 147.871643 273.312 
L 149.493501 273.312 
L 149.493501 213.0496 
L 147.871643 213.0496 
z
" clip-path="url(#p9676d823e9)" style="fill: #1f77b4"/>
   </g>
   <g id="patch_58">
    <path d="M 149.493501 273.312 
L 151.11536 273.312 
L 151.11536 207.4176 
L 149.493501 207.4176 
z
" clip-path="url(#p9676d823e9)" style="fill: #1f77b4"/>
   </g>
   <g id="patch_59">
    <path d="M 151.11536 273.312 
L 152.737218 273.312 
L 152.737218 206.8544 
L 151.11536 206.8544 
z
" clip-path="url(#p9676d823e9)" style="fill: #1f77b4"/>
   </g>
   <g id="patch_60">
    <path d="M 152.737218 273.312 
L 154.359076 273.312 
L 154.359076 207.9808 
L 152.737218 207.9808 
z
" clip-path="url(#p9676d823e9)" style="fill: #1f77b4"/>
   </g>
   <g id="patch_61">
    <path d="M 154.359076 273.312 
L 155.980935 273.312 
L 155.980935 207.4176 
L 154.359076 207.4176 
z
" clip-path="url(#p9676d823e9)" style="fill: #1f77b4"/>
   </g>
   <g id="patch_62">
    <path d="M 155.980935 273.312 
L 157.602793 273.312 
L 157.602793 216.4288 
L 155.980935 216.4288 
z
" clip-path="url(#p9676d823e9)" style="fill: #1f77b4"/>
   </g>
   <g id="patch_63">
    <path d="M 157.602793 273.312 
L 159.224652 273.312 
L 159.224652 209.1072 
L 157.602793 209.1072 
z
" clip-path="url(#p9676d823e9)" style="fill: #1f77b4"/>
   </g>
   <g id="patch_64">
    <path d="M 159.224652 273.312 
L 160.84651 273.312 
L 160.84651 204.0384 
L 159.224652 204.0384 
z
" clip-path="url(#p9676d823e9)" style="fill: #1f77b4"/>
   </g>
   <g id="patch_65">
    <path d="M 160.84651 273.312 
L 162.468369 273.312 
L 162.468369 197.28 
L 160.84651 197.28 
z
" clip-path="url(#p9676d823e9)" style="fill: #1f77b4"/>
   </g>
   <g id="patch_66">
    <path d="M 162.468369 273.312 
L 164.090227 273.312 
L 164.090227 199.5328 
L 162.468369 199.5328 
z
" clip-path="url(#p9676d823e9)" style="fill: #1f77b4"/>
   </g>
   <g id="patch_67">
    <path d="M 164.090227 273.312 
L 165.712085 273.312 
L 165.712085 197.8432 
L 164.090227 197.8432 
z
" clip-path="url(#p9676d823e9)" style="fill: #1f77b4"/>
   </g>
   <g id="patch_68">
    <path d="M 165.712085 273.312 
L 167.333944 273.312 
L 167.333944 207.9808 
L 165.712085 207.9808 
z
" clip-path="url(#p9676d823e9)" style="fill: #1f77b4"/>
   </g>
   <g id="patch_69">
    <path d="M 167.333944 273.312 
L 168.955802 273.312 
L 168.955802 198.9696 
L 167.333944 198.9696 
z
" clip-path="url(#p9676d823e9)" style="fill: #1f77b4"/>
   </g>
   <g id="patch_70">
    <path d="M 168.955802 273.312 
L 170.577661 273.312 
L 170.577661 202.3488 
L 168.955802 202.3488 
z
" clip-path="url(#p9676d823e9)" style="fill: #1f77b4"/>
   </g>
   <g id="patch_71">
    <path d="M 170.577661 273.312 
L 172.199519 273.312 
L 172.199519 196.1536 
L 170.577661 196.1536 
z
" clip-path="url(#p9676d823e9)" style="fill: #1f77b4"/>
   </g>
   <g id="patch_72">
    <path d="M 172.199519 273.312 
L 173.821378 273.312 
L 173.821378 188.2688 
L 172.199519 188.2688 
z
" clip-path="url(#p9676d823e9)" style="fill: #1f77b4"/>
   </g>
   <g id="patch_73">
    <path d="M 173.821378 273.312 
L 175.443236 273.312 
L 175.443236 178.6944 
L 173.821378 178.6944 
z
" clip-path="url(#p9676d823e9)" style="fill: #1f77b4"/>
   </g>
   <g id="patch_74">
    <path d="M 175.443236 273.312 
L 177.065095 273.312 
L 177.065095 198.4064 
L 175.443236 198.4064 
z
" clip-path="url(#p9676d823e9)" style="fill: #1f77b4"/>
   </g>
   <g id="patch_75">
    <path d="M 177.065095 273.312 
L 178.686953 273.312 
L 178.686953 195.0272 
L 177.065095 195.0272 
z
" clip-path="url(#p9676d823e9)" style="fill: #1f77b4"/>
   </g>
   <g id="patch_76">
    <path d="M 178.686953 273.312 
L 180.308811 273.312 
L 180.308811 182.6368 
L 178.686953 182.6368 
z
" clip-path="url(#p9676d823e9)" style="fill: #1f77b4"/>
   </g>
   <g id="patch_77">
    <path d="M 180.308811 273.312 
L 181.93067 273.312 
L 181.93067 174.752 
L 180.308811 174.752 
z
" clip-path="url(#p9676d823e9)" style="fill: #1f77b4"/>
   </g>
   <g id="patch_78">
    <path d="M 181.93067 273.312 
L 183.552528 273.312 
L 183.552528 191.648 
L 181.93067 191.648 
z
" clip-path="url(#p9676d823e9)" style="fill: #1f77b4"/>
   </g>
   <g id="patch_79">
    <path d="M 183.552528 273.312 
L 185.174387 273.312 
L 185.174387 186.016 
L 183.552528 186.016 
z
" clip-path="url(#p9676d823e9)" style="fill: #1f77b4"/>
   </g>
   <g id="patch_80">
    <path d="M 185.174387 273.312 
L 186.796245 273.312 
L 186.796245 178.6944 
L 185.174387 178.6944 
z
" clip-path="url(#p9676d823e9)" style="fill: #1f77b4"/>
   </g>
   <g id="patch_81">
    <path d="M 186.796245 273.312 
L 188.418104 273.312 
L 188.418104 182.0736 
L 186.796245 182.0736 
z
" clip-path="url(#p9676d823e9)" style="fill: #1f77b4"/>
   </g>
   <g id="patch_82">
    <path d="M 188.418104 273.312 
L 190.039962 273.312 
L 190.039962 187.1424 
L 188.418104 187.1424 
z
" clip-path="url(#p9676d823e9)" style="fill: #1f77b4"/>
   </g>
   <g id="patch_83">
    <path d="M 190.039962 273.312 
L 191.66182 273.312 
L 191.66182 171.3728 
L 190.039962 171.3728 
z
" clip-path="url(#p9676d823e9)" style="fill: #1f77b4"/>
   </g>
   <g id="patch_84">
    <path d="M 191.66182 273.312 
L 193.283679 273.312 
L 193.283679 174.1888 
L 191.66182 174.1888 
z
" clip-path="url(#p9676d823e9)" style="fill: #1f77b4"/>
   </g>
   <g id="patch_85">
    <path d="M 193.283679 273.312 
L 194.905537 273.312 
L 194.905537 187.7056 
L 193.283679 187.7056 
z
" clip-path="url(#p9676d823e9)" style="fill: #1f77b4"/>
   </g>
   <g id="patch_86">
    <path d="M 194.905537 273.312 
L 196.527396 273.312 
L 196.527396 180.9472 
L 194.905537 180.9472 
z
" clip-path="url(#p9676d823e9)" style="fill: #1f77b4"/>
   </g>
   <g id="patch_87">
    <path d="M 196.527396 273.312 
L 198.149254 273.312 
L 198.149254 181.5104 
L 196.527396 181.5104 
z
" clip-path="url(#p9676d823e9)" style="fill: #1f77b4"/>
   </g>
   <g id="patch_88">
    <path d="M 198.149254 273.312 
L 199.771113 273.312 
L 199.771113 180.384 
L 198.149254 180.384 
z
" clip-path="url(#p9676d823e9)" style="fill: #1f77b4"/>
   </g>
   <g id="patch_89">
    <path d="M 199.771113 273.312 
L 201.392971 273.312 
L 201.392971 174.752 
L 199.771113 174.752 
z
" clip-path="url(#p9676d823e9)" style="fill: #1f77b4"/>
   </g>
   <g id="patch_90">
    <path d="M 201.392971 273.312 
L 203.01483 273.312 
L 203.01483 174.752 
L 201.392971 174.752 
z
" clip-path="url(#p9676d823e9)" style="fill: #1f77b4"/>
   </g>
   <g id="patch_91">
    <path d="M 203.01483 273.312 
L 204.636688 273.312 
L 204.636688 164.6144 
L 203.01483 164.6144 
z
" clip-path="url(#p9676d823e9)" style="fill: #1f77b4"/>
   </g>
   <g id="patch_92">
    <path d="M 204.636688 273.312 
L 206.258546 273.312 
L 206.258546 170.8096 
L 204.636688 170.8096 
z
" clip-path="url(#p9676d823e9)" style="fill: #1f77b4"/>
   </g>
   <g id="patch_93">
    <path d="M 206.258546 273.312 
L 207.880405 273.312 
L 207.880405 170.8096 
L 206.258546 170.8096 
z
" clip-path="url(#p9676d823e9)" style="fill: #1f77b4"/>
   </g>
   <g id="patch_94">
    <path d="M 207.880405 273.312 
L 209.502263 273.312 
L 209.502263 176.4416 
L 207.880405 176.4416 
z
" clip-path="url(#p9676d823e9)" style="fill: #1f77b4"/>
   </g>
   <g id="patch_95">
    <path d="M 209.502263 273.312 
L 211.124122 273.312 
L 211.124122 155.6032 
L 209.502263 155.6032 
z
" clip-path="url(#p9676d823e9)" style="fill: #1f77b4"/>
   </g>
   <g id="patch_96">
    <path d="M 211.124122 273.312 
L 212.74598 273.312 
L 212.74598 180.384 
L 211.124122 180.384 
z
" clip-path="url(#p9676d823e9)" style="fill: #1f77b4"/>
   </g>
   <g id="patch_97">
    <path d="M 212.74598 273.312 
L 214.367839 273.312 
L 214.367839 171.936 
L 212.74598 171.936 
z
" clip-path="url(#p9676d823e9)" style="fill: #1f77b4"/>
   </g>
   <g id="patch_98">
    <path d="M 214.367839 273.312 
L 215.989697 273.312 
L 215.989697 179.2576 
L 214.367839 179.2576 
z
" clip-path="url(#p9676d823e9)" style="fill: #1f77b4"/>
   </g>
   <g id="patch_99">
    <path d="M 215.989697 273.312 
L 217.611555 273.312 
L 217.611555 156.7296 
L 215.989697 156.7296 
z
" clip-path="url(#p9676d823e9)" style="fill: #1f77b4"/>
   </g>
   <g id="patch_100">
    <path d="M 217.611555 273.312 
L 219.233414 273.312 
L 219.233414 152.7872 
L 217.611555 152.7872 
z
" clip-path="url(#p9676d823e9)" style="fill: #1f77b4"/>
   </g>
   <g id="patch_101">
    <path d="M 219.233414 273.312 
L 220.855272 273.312 
L 220.855272 170.2464 
L 219.233414 170.2464 
z
" clip-path="url(#p9676d823e9)" style="fill: #1f77b4"/>
   </g>
   <g id="patch_102">
    <path d="M 220.855272 273.312 
L 222.477131 273.312 
L 222.477131 168.5568 
L 220.855272 168.5568 
z
" clip-path="url(#p9676d823e9)" style="fill: #1f77b4"/>
   </g>
   <g id="patch_103">
    <path d="M 222.477131 273.312 
L 224.098989 273.312 
L 224.098989 156.1664 
L 222.477131 156.1664 
z
" clip-path="url(#p9676d823e9)" style="fill: #1f77b4"/>
   </g>
   <g id="patch_104">
    <path d="M 224.098989 273.312 
L 225.720848 273.312 
L 225.720848 162.3616 
L 224.098989 162.3616 
z
" clip-path="url(#p9676d823e9)" style="fill: #1f77b4"/>
   </g>
   <g id="patch_105">
    <path d="M 225.720848 273.312 
L 227.342706 273.312 
L 227.342706 148.2816 
L 225.720848 148.2816 
z
" clip-path="url(#p9676d823e9)" style="fill: #1f77b4"/>
   </g>
   <g id="patch_106">
    <path d="M 227.342706 273.312 
L 228.964564 273.312 
L 228.964564 144.9024 
L 227.342706 144.9024 
z
" clip-path="url(#p9676d823e9)" style="fill: #1f77b4"/>
   </g>
   <g id="patch_107">
    <path d="M 228.964564 273.312 
L 230.586423 273.312 
L 230.586423 160.672 
L 228.964564 160.672 
z
" clip-path="url(#p9676d823e9)" style="fill: #1f77b4"/>
   </g>
   <g id="patch_108">
    <path d="M 230.586423 273.312 
L 232.208281 273.312 
L 232.208281 146.592 
L 230.586423 146.592 
z
" clip-path="url(#p9676d823e9)" style="fill: #1f77b4"/>
   </g>
   <g id="patch_109">
    <path d="M 232.208281 273.312 
L 233.83014 273.312 
L 233.83014 155.04 
L 232.208281 155.04 
z
" clip-path="url(#p9676d823e9)" style="fill: #1f77b4"/>
   </g>
   <g id="patch_110">
    <path d="M 233.83014 273.312 
L 235.451998 273.312 
L 235.451998 168.5568 
L 233.83014 168.5568 
z
" clip-path="url(#p9676d823e9)" style="fill: #1f77b4"/>
   </g>
   <g id="patch_111">
    <path d="M 235.451998 273.312 
L 237.073857 273.312 
L 237.073857 134.2016 
L 235.451998 134.2016 
z
" clip-path="url(#p9676d823e9)" style="fill: #1f77b4"/>
   </g>
   <g id="patch_112">
    <path d="M 237.073857 273.312 
L 238.695715 273.312 
L 238.695715 171.936 
L 237.073857 171.936 
z
" clip-path="url(#p9676d823e9)" style="fill: #1f77b4"/>
   </g>
   <g id="patch_113">
    <path d="M 238.695715 273.312 
L 240.317574 273.312 
L 240.317574 157.856 
L 238.695715 157.856 
z
" clip-path="url(#p9676d823e9)" style="fill: #1f77b4"/>
   </g>
   <g id="patch_114">
    <path d="M 240.317574 273.312 
L 241.939432 273.312 
L 241.939432 141.5232 
L 240.317574 141.5232 
z
" clip-path="url(#p9676d823e9)" style="fill: #1f77b4"/>
   </g>
   <g id="patch_115">
    <path d="M 241.939432 273.312 
L 243.56129 273.312 
L 243.56129 142.0864 
L 241.939432 142.0864 
z
" clip-path="url(#p9676d823e9)" style="fill: #1f77b4"/>
   </g>
   <g id="patch_116">
    <path d="M 243.56129 273.312 
L 245.183149 273.312 
L 245.183149 150.5344 
L 243.56129 150.5344 
z
" clip-path="url(#p9676d823e9)" style="fill: #1f77b4"/>
   </g>
   <g id="patch_117">
    <path d="M 245.183149 273.312 
L 246.805007 273.312 
L 246.805007 136.4544 
L 245.183149 136.4544 
z
" clip-path="url(#p9676d823e9)" style="fill: #1f77b4"/>
   </g>
   <g id="patch_118">
    <path d="M 246.805007 273.312 
L 248.426866 273.312 
L 248.426866 147.1552 
L 246.805007 147.1552 
z
" clip-path="url(#p9676d823e9)" style="fill: #1f77b4"/>
   </g>
   <g id="patch_119">
    <path d="M 248.426866 273.312 
L 250.048724 273.312 
L 250.048724 147.7184 
L 248.426866 147.7184 
z
" clip-path="url(#p9676d823e9)" style="fill: #1f77b4"/>
   </g>
   <g id="patch_120">
    <path d="M 250.048724 273.312 
L 251.670583 273.312 
L 251.670583 140.3968 
L 250.048724 140.3968 
z
" clip-path="url(#p9676d823e9)" style="fill: #1f77b4"/>
   </g>
   <g id="patch_121">
    <path d="M 251.670583 273.312 
L 253.292441 273.312 
L 253.292441 139.8336 
L 251.670583 139.8336 
z
" clip-path="url(#p9676d823e9)" style="fill: #1f77b4"/>
   </g>
   <g id="patch_122">
    <path d="M 253.292441 273.312 
L 254.914299 273.312 
L 254.914299 152.7872 
L 253.292441 152.7872 
z
" clip-path="url(#p9676d823e9)" style="fill: #1f77b4"/>
   </g>
   <g id="patch_123">
    <path d="M 254.914299 273.312 
L 256.536158 273.312 
L 256.536158 138.144 
L 254.914299 138.144 
z
" clip-path="url(#p9676d823e9)" style="fill: #1f77b4"/>
   </g>
   <g id="patch_124">
    <path d="M 256.536158 273.312 
L 258.158016 273.312 
L 258.158016 137.0176 
L 256.536158 137.0176 
z
" clip-path="url(#p9676d823e9)" style="fill: #1f77b4"/>
   </g>
   <g id="patch_125">
    <path d="M 258.158016 273.312 
L 259.779875 273.312 
L 259.779875 137.0176 
L 258.158016 137.0176 
z
" clip-path="url(#p9676d823e9)" style="fill: #1f77b4"/>
   </g>
   <g id="patch_126">
    <path d="M 259.779875 273.312 
L 261.401733 273.312 
L 261.401733 123.5008 
L 259.779875 123.5008 
z
" clip-path="url(#p9676d823e9)" style="fill: #1f77b4"/>
   </g>
   <g id="patch_127">
    <path d="M 261.401733 273.312 
L 263.023592 273.312 
L 263.023592 134.2016 
L 261.401733 134.2016 
z
" clip-path="url(#p9676d823e9)" style="fill: #1f77b4"/>
   </g>
   <g id="patch_128">
    <path d="M 263.023592 273.312 
L 264.64545 273.312 
L 264.64545 138.144 
L 263.023592 138.144 
z
" clip-path="url(#p9676d823e9)" style="fill: #1f77b4"/>
   </g>
   <g id="patch_129">
    <path d="M 264.64545 273.312 
L 266.267309 273.312 
L 266.267309 134.7648 
L 264.64545 134.7648 
z
" clip-path="url(#p9676d823e9)" style="fill: #1f77b4"/>
   </g>
   <g id="patch_130">
    <path d="M 266.267309 273.312 
L 267.889167 273.312 
L 267.889167 121.8112 
L 266.267309 121.8112 
z
" clip-path="url(#p9676d823e9)" style="fill: #1f77b4"/>
   </g>
   <g id="patch_131">
    <path d="M 267.889167 273.312 
L 269.511025 273.312 
L 269.511025 129.1328 
L 267.889167 129.1328 
z
" clip-path="url(#p9676d823e9)" style="fill: #1f77b4"/>
   </g>
   <g id="patch_132">
    <path d="M 269.511025 273.312 
L 271.132884 273.312 
L 271.132884 120.6848 
L 269.511025 120.6848 
z
" clip-path="url(#p9676d823e9)" style="fill: #1f77b4"/>
   </g>
   <g id="patch_133">
    <path d="M 271.132884 273.312 
L 272.754742 273.312 
L 272.754742 110.5472 
L 271.132884 110.5472 
z
" clip-path="url(#p9676d823e9)" style="fill: #1f77b4"/>
   </g>
   <g id="patch_134">
    <path d="M 272.754742 273.312 
L 274.376601 273.312 
L 274.376601 118.9952 
L 272.754742 118.9952 
z
" clip-path="url(#p9676d823e9)" style="fill: #1f77b4"/>
   </g>
   <g id="patch_135">
    <path d="M 274.376601 273.312 
L 275.998459 273.312 
L 275.998459 139.8336 
L 274.376601 139.8336 
z
" clip-path="url(#p9676d823e9)" style="fill: #1f77b4"/>
   </g>
   <g id="patch_136">
    <path d="M 275.998459 273.312 
L 277.620318 273.312 
L 277.620318 122.3744 
L 275.998459 122.3744 
z
" clip-path="url(#p9676d823e9)" style="fill: #1f77b4"/>
   </g>
   <g id="patch_137">
    <path d="M 277.620318 273.312 
L 279.242176 273.312 
L 279.242176 119.5584 
L 277.620318 119.5584 
z
" clip-path="url(#p9676d823e9)" style="fill: #1f77b4"/>
   </g>
   <g id="patch_138">
    <path d="M 279.242176 273.312 
L 280.864034 273.312 
L 280.864034 134.2016 
L 279.242176 134.2016 
z
" clip-path="url(#p9676d823e9)" style="fill: #1f77b4"/>
   </g>
   <g id="patch_139">
    <path d="M 280.864034 273.312 
L 282.485893 273.312 
L 282.485893 121.248 
L 280.864034 121.248 
z
" clip-path="url(#p9676d823e9)" style="fill: #1f77b4"/>
   </g>
   <g id="patch_140">
    <path d="M 282.485893 273.312 
L 284.107751 273.312 
L 284.107751 129.696 
L 282.485893 129.696 
z
" clip-path="url(#p9676d823e9)" style="fill: #1f77b4"/>
   </g>
   <g id="patch_141">
    <path d="M 284.107751 273.312 
L 285.72961 273.312 
L 285.72961 115.616 
L 284.107751 115.616 
z
" clip-path="url(#p9676d823e9)" style="fill: #1f77b4"/>
   </g>
   <g id="patch_142">
    <path d="M 285.72961 273.312 
L 287.351468 273.312 
L 287.351468 124.6272 
L 285.72961 124.6272 
z
" clip-path="url(#p9676d823e9)" style="fill: #1f77b4"/>
   </g>
   <g id="patch_143">
    <path d="M 287.351468 273.312 
L 288.973327 273.312 
L 288.973327 118.432 
L 287.351468 118.432 
z
" clip-path="url(#p9676d823e9)" style="fill: #1f77b4"/>
   </g>
   <g id="patch_144">
    <path d="M 288.973327 273.312 
L 290.595185 273.312 
L 290.595185 115.0528 
L 288.973327 115.0528 
z
" clip-path="url(#p9676d823e9)" style="fill: #1f77b4"/>
   </g>
   <g id="patch_145">
    <path d="M 290.595185 273.312 
L 292.217044 273.312 
L 292.217044 102.6624 
L 290.595185 102.6624 
z
" clip-path="url(#p9676d823e9)" style="fill: #1f77b4"/>
   </g>
   <g id="patch_146">
    <path d="M 292.217044 273.312 
L 293.838902 273.312 
L 293.838902 118.9952 
L 292.217044 118.9952 
z
" clip-path="url(#p9676d823e9)" style="fill: #1f77b4"/>
   </g>
   <g id="patch_147">
    <path d="M 293.838902 273.312 
L 295.46076 273.312 
L 295.46076 110.5472 
L 293.838902 110.5472 
z
" clip-path="url(#p9676d823e9)" style="fill: #1f77b4"/>
   </g>
   <g id="patch_148">
    <path d="M 295.46076 273.312 
L 297.082619 273.312 
L 297.082619 98.1568 
L 295.46076 98.1568 
z
" clip-path="url(#p9676d823e9)" style="fill: #1f77b4"/>
   </g>
   <g id="patch_149">
    <path d="M 297.082619 273.312 
L 298.704477 273.312 
L 298.704477 99.2832 
L 297.082619 99.2832 
z
" clip-path="url(#p9676d823e9)" style="fill: #1f77b4"/>
   </g>
   <g id="patch_150">
    <path d="M 298.704477 273.312 
L 300.326336 273.312 
L 300.326336 108.2944 
L 298.704477 108.2944 
z
" clip-path="url(#p9676d823e9)" style="fill: #1f77b4"/>
   </g>
   <g id="patch_151">
    <path d="M 300.326336 273.312 
L 301.948194 273.312 
L 301.948194 111.6736 
L 300.326336 111.6736 
z
" clip-path="url(#p9676d823e9)" style="fill: #1f77b4"/>
   </g>
   <g id="patch_152">
    <path d="M 301.948194 273.312 
L 303.570053 273.312 
L 303.570053 113.9264 
L 301.948194 113.9264 
z
" clip-path="url(#p9676d823e9)" style="fill: #1f77b4"/>
   </g>
   <g id="patch_153">
    <path d="M 303.570053 273.312 
L 305.191911 273.312 
L 305.191911 102.6624 
L 303.570053 102.6624 
z
" clip-path="url(#p9676d823e9)" style="fill: #1f77b4"/>
   </g>
   <g id="patch_154">
    <path d="M 305.191911 273.312 
L 306.813769 273.312 
L 306.813769 94.7776 
L 305.191911 94.7776 
z
" clip-path="url(#p9676d823e9)" style="fill: #1f77b4"/>
   </g>
   <g id="patch_155">
    <path d="M 306.813769 273.312 
L 308.435628 273.312 
L 308.435628 91.9616 
L 306.813769 91.9616 
z
" clip-path="url(#p9676d823e9)" style="fill: #1f77b4"/>
   </g>
   <g id="patch_156">
    <path d="M 308.435628 273.312 
L 310.057486 273.312 
L 310.057486 100.9728 
L 308.435628 100.9728 
z
" clip-path="url(#p9676d823e9)" style="fill: #1f77b4"/>
   </g>
   <g id="patch_157">
    <path d="M 310.057486 273.312 
L 311.679345 273.312 
L 311.679345 100.4096 
L 310.057486 100.4096 
z
" clip-path="url(#p9676d823e9)" style="fill: #1f77b4"/>
   </g>
   <g id="patch_158">
    <path d="M 311.679345 273.312 
L 313.301203 273.312 
L 313.301203 101.536 
L 311.679345 101.536 
z
" clip-path="url(#p9676d823e9)" style="fill: #1f77b4"/>
   </g>
   <g id="patch_159">
    <path d="M 313.301203 273.312 
L 314.923062 273.312 
L 314.923062 95.904 
L 313.301203 95.904 
z
" clip-path="url(#p9676d823e9)" style="fill: #1f77b4"/>
   </g>
   <g id="patch_160">
    <path d="M 314.923062 273.312 
L 316.54492 273.312 
L 316.54492 89.1456 
L 314.923062 89.1456 
z
" clip-path="url(#p9676d823e9)" style="fill: #1f77b4"/>
   </g>
   <g id="patch_161">
    <path d="M 316.54492 273.312 
L 318.166779 273.312 
L 318.166779 91.3984 
L 316.54492 91.3984 
z
" clip-path="url(#p9676d823e9)" style="fill: #1f77b4"/>
   </g>
   <g id="patch_162">
    <path d="M 318.166779 273.312 
L 319.788637 273.312 
L 319.788637 108.8576 
L 318.166779 108.8576 
z
" clip-path="url(#p9676d823e9)" style="fill: #1f77b4"/>
   </g>
   <g id="patch_163">
    <path d="M 319.788637 273.312 
L 321.410495 273.312 
L 321.410495 97.0304 
L 319.788637 97.0304 
z
" clip-path="url(#p9676d823e9)" style="fill: #1f77b4"/>
   </g>
   <g id="patch_164">
    <path d="M 321.410495 273.312 
L 323.032354 273.312 
L 323.032354 95.3408 
L 321.410495 95.3408 
z
" clip-path="url(#p9676d823e9)" style="fill: #1f77b4"/>
   </g>
   <g id="patch_165">
    <path d="M 323.032354 273.312 
L 324.654212 273.312 
L 324.654212 89.1456 
L 323.032354 89.1456 
z
" clip-path="url(#p9676d823e9)" style="fill: #1f77b4"/>
   </g>
   <g id="patch_166">
    <path d="M 324.654212 273.312 
L 326.276071 273.312 
L 326.276071 97.5936 
L 324.654212 97.5936 
z
" clip-path="url(#p9676d823e9)" style="fill: #1f77b4"/>
   </g>
   <g id="patch_167">
    <path d="M 326.276071 273.312 
L 327.897929 273.312 
L 327.897929 67.1808 
L 326.276071 67.1808 
z
" clip-path="url(#p9676d823e9)" style="fill: #1f77b4"/>
   </g>
   <g id="patch_168">
    <path d="M 327.897929 273.312 
L 329.519788 273.312 
L 329.519788 100.9728 
L 327.897929 100.9728 
z
" clip-path="url(#p9676d823e9)" style="fill: #1f77b4"/>
   </g>
   <g id="patch_169">
    <path d="M 329.519788 273.312 
L 331.141646 273.312 
L 331.141646 115.0528 
L 329.519788 115.0528 
z
" clip-path="url(#p9676d823e9)" style="fill: #1f77b4"/>
   </g>
   <g id="patch_170">
    <path d="M 331.141646 273.312 
L 332.763504 273.312 
L 332.763504 76.7552 
L 331.141646 76.7552 
z
" clip-path="url(#p9676d823e9)" style="fill: #1f77b4"/>
   </g>
   <g id="patch_171">
    <path d="M 332.763504 273.312 
L 334.385363 273.312 
L 334.385363 69.4336 
L 332.763504 69.4336 
z
" clip-path="url(#p9676d823e9)" style="fill: #1f77b4"/>
   </g>
   <g id="patch_172">
    <path d="M 334.385363 273.312 
L 336.007221 273.312 
L 336.007221 88.5824 
L 334.385363 88.5824 
z
" clip-path="url(#p9676d823e9)" style="fill: #1f77b4"/>
   </g>
   <g id="patch_173">
    <path d="M 336.007221 273.312 
L 337.62908 273.312 
L 337.62908 79.008 
L 336.007221 79.008 
z
" clip-path="url(#p9676d823e9)" style="fill: #1f77b4"/>
   </g>
   <g id="patch_174">
    <path d="M 337.62908 273.312 
L 339.250938 273.312 
L 339.250938 87.456 
L 337.62908 87.456 
z
" clip-path="url(#p9676d823e9)" style="fill: #1f77b4"/>
   </g>
   <g id="patch_175">
    <path d="M 339.250938 273.312 
L 340.872797 273.312 
L 340.872797 68.8704 
L 339.250938 68.8704 
z
" clip-path="url(#p9676d823e9)" style="fill: #1f77b4"/>
   </g>
   <g id="patch_176">
    <path d="M 340.872797 273.312 
L 342.494655 273.312 
L 342.494655 69.9968 
L 340.872797 69.9968 
z
" clip-path="url(#p9676d823e9)" style="fill: #1f77b4"/>
   </g>
   <g id="patch_177">
    <path d="M 342.494655 273.312 
L 344.116514 273.312 
L 344.116514 75.6288 
L 342.494655 75.6288 
z
" clip-path="url(#p9676d823e9)" style="fill: #1f77b4"/>
   </g>
   <g id="patch_178">
    <path d="M 344.116514 273.312 
L 345.738372 273.312 
L 345.738372 73.9392 
L 344.116514 73.9392 
z
" clip-path="url(#p9676d823e9)" style="fill: #1f77b4"/>
   </g>
   <g id="patch_179">
    <path d="M 345.738372 273.312 
L 347.36023 273.312 
L 347.36023 96.4672 
L 345.738372 96.4672 
z
" clip-path="url(#p9676d823e9)" style="fill: #1f77b4"/>
   </g>
   <g id="patch_180">
    <path d="M 347.36023 273.312 
L 348.982089 273.312 
L 348.982089 60.9856 
L 347.36023 60.9856 
z
" clip-path="url(#p9676d823e9)" style="fill: #1f77b4"/>
   </g>
   <g id="patch_181">
    <path d="M 348.982089 273.312 
L 350.603947 273.312 
L 350.603947 81.2608 
L 348.982089 81.2608 
z
" clip-path="url(#p9676d823e9)" style="fill: #1f77b4"/>
   </g>
   <g id="patch_182">
    <path d="M 350.603947 273.312 
L 352.225806 273.312 
L 352.225806 72.2496 
L 350.603947 72.2496 
z
" clip-path="url(#p9676d823e9)" style="fill: #1f77b4"/>
   </g>
   <g id="patch_183">
    <path d="M 352.225806 273.312 
L 353.847664 273.312 
L 353.847664 63.2384 
L 352.225806 63.2384 
z
" clip-path="url(#p9676d823e9)" style="fill: #1f77b4"/>
   </g>
   <g id="patch_184">
    <path d="M 353.847664 273.312 
L 355.469523 273.312 
L 355.469523 70.56 
L 353.847664 70.56 
z
" clip-path="url(#p9676d823e9)" style="fill: #1f77b4"/>
   </g>
   <g id="patch_185">
    <path d="M 355.469523 273.312 
L 357.091381 273.312 
L 357.091381 75.6288 
L 355.469523 75.6288 
z
" clip-path="url(#p9676d823e9)" style="fill: #1f77b4"/>
   </g>
   <g id="patch_186">
    <path d="M 357.091381 273.312 
L 358.713239 273.312 
L 358.713239 67.1808 
L 357.091381 67.1808 
z
" clip-path="url(#p9676d823e9)" style="fill: #1f77b4"/>
   </g>
   <g id="patch_187">
    <path d="M 358.713239 273.312 
L 360.335098 273.312 
L 360.335098 57.6064 
L 358.713239 57.6064 
z
" clip-path="url(#p9676d823e9)" style="fill: #1f77b4"/>
   </g>
   <g id="patch_188">
    <path d="M 360.335098 273.312 
L 361.956956 273.312 
L 361.956956 67.744 
L 360.335098 67.744 
z
" clip-path="url(#p9676d823e9)" style="fill: #1f77b4"/>
   </g>
   <g id="patch_189">
    <path d="M 361.956956 273.312 
L 363.578815 273.312 
L 363.578815 59.296 
L 361.956956 59.296 
z
" clip-path="url(#p9676d823e9)" style="fill: #1f77b4"/>
   </g>
   <g id="patch_190">
    <path d="M 363.578815 273.312 
L 365.200673 273.312 
L 365.200673 50.848 
L 363.578815 50.848 
z
" clip-path="url(#p9676d823e9)" style="fill: #1f77b4"/>
   </g>
   <g id="patch_191">
    <path d="M 365.200673 273.312 
L 366.822532 273.312 
L 366.822532 67.1808 
L 365.200673 67.1808 
z
" clip-path="url(#p9676d823e9)" style="fill: #1f77b4"/>
   </g>
   <g id="patch_192">
    <path d="M 366.822532 273.312 
L 368.44439 273.312 
L 368.44439 48.032 
L 366.822532 48.032 
z
" clip-path="url(#p9676d823e9)" style="fill: #1f77b4"/>
   </g>
   <g id="patch_193">
    <path d="M 368.44439 273.312 
L 370.066248 273.312 
L 370.066248 59.296 
L 368.44439 59.296 
z
" clip-path="url(#p9676d823e9)" style="fill: #1f77b4"/>
   </g>
   <g id="patch_194">
    <path d="M 370.066248 273.312 
L 371.688107 273.312 
L 371.688107 53.664 
L 370.066248 53.664 
z
" clip-path="url(#p9676d823e9)" style="fill: #1f77b4"/>
   </g>
   <g id="patch_195">
    <path d="M 371.688107 273.312 
L 373.309965 273.312 
L 373.309965 66.6176 
L 371.688107 66.6176 
z
" clip-path="url(#p9676d823e9)" style="fill: #1f77b4"/>
   </g>
   <g id="patch_196">
    <path d="M 373.309965 273.312 
L 374.931824 273.312 
L 374.931824 60.4224 
L 373.309965 60.4224 
z
" clip-path="url(#p9676d823e9)" style="fill: #1f77b4"/>
   </g>
   <g id="patch_197">
    <path d="M 374.931824 273.312 
L 376.553682 273.312 
L 376.553682 48.032 
L 374.931824 48.032 
z
" clip-path="url(#p9676d823e9)" style="fill: #1f77b4"/>
   </g>
   <g id="patch_198">
    <path d="M 376.553682 273.312 
L 378.175541 273.312 
L 378.175541 55.9168 
L 376.553682 55.9168 
z
" clip-path="url(#p9676d823e9)" style="fill: #1f77b4"/>
   </g>
   <g id="patch_199">
    <path d="M 378.175541 273.312 
L 379.797399 273.312 
L 379.797399 61.5488 
L 378.175541 61.5488 
z
" clip-path="url(#p9676d823e9)" style="fill: #1f77b4"/>
   </g>
   <g id="patch_200">
    <path d="M 379.797399 273.312 
L 381.419258 273.312 
L 381.419258 63.2384 
L 379.797399 63.2384 
z
" clip-path="url(#p9676d823e9)" style="fill: #1f77b4"/>
   </g>
   <g id="patch_201">
    <path d="M 381.419258 273.312 
L 383.041116 273.312 
L 383.041116 61.5488 
L 381.419258 61.5488 
z
" clip-path="url(#p9676d823e9)" style="fill: #1f77b4"/>
   </g>
   <g id="patch_202">
    <path d="M 383.041116 273.312 
L 384.662974 273.312 
L 384.662974 19.872 
L 383.041116 19.872 
z
" clip-path="url(#p9676d823e9)" style="fill: #1f77b4"/>
   </g>
   <g id="matplotlib.axis_1">
    <g id="xtick_1">
     <g id="line2d_1">
      <defs>
       <path id="m8a500c6e88" d="M 0 0 
L 0 3.5 
" style="stroke: #000000; stroke-width: 0.8"/>
      </defs>
      <g>
       <use xlink:href="#m8a500c6e88" x="60.013977" y="273.312" style="stroke: #000000; stroke-width: 0.8"/>
      </g>
     </g>
     <g id="text_1">
      <!-- 0.0 -->
      <g transform="translate(52.062415 287.910437)scale(0.1 -0.1)">
       <defs>
        <path id="DejaVuSans-30" d="M 2034 4250 
Q 1547 4250 1301 3770 
Q 1056 3291 1056 2328 
Q 1056 1369 1301 889 
Q 1547 409 2034 409 
Q 2525 409 2770 889 
Q 3016 1369 3016 2328 
Q 3016 3291 2770 3770 
Q 2525 4250 2034 4250 
z
M 2034 4750 
Q 2819 4750 3233 4129 
Q 3647 3509 3647 2328 
Q 3647 1150 3233 529 
Q 2819 -91 2034 -91 
Q 1250 -91 836 529 
Q 422 1150 422 2328 
Q 422 3509 836 4129 
Q 1250 4750 2034 4750 
z
" transform="scale(0.015625)"/>
        <path id="DejaVuSans-2e" d="M 684 794 
L 1344 794 
L 1344 0 
L 684 0 
L 684 794 
z
" transform="scale(0.015625)"/>
       </defs>
       <use xlink:href="#DejaVuSans-30"/>
       <use xlink:href="#DejaVuSans-2e" x="63.623047"/>
       <use xlink:href="#DejaVuSans-30" x="95.410156"/>
      </g>
     </g>
    </g>
    <g id="xtick_2">
     <g id="line2d_2">
      <g>
       <use xlink:href="#m8a500c6e88" x="124.944886" y="273.312" style="stroke: #000000; stroke-width: 0.8"/>
      </g>
     </g>
     <g id="text_2">
      <!-- 0.2 -->
      <g transform="translate(116.993324 287.910437)scale(0.1 -0.1)">
       <defs>
        <path id="DejaVuSans-32" d="M 1228 531 
L 3431 531 
L 3431 0 
L 469 0 
L 469 531 
Q 828 903 1448 1529 
Q 2069 2156 2228 2338 
Q 2531 2678 2651 2914 
Q 2772 3150 2772 3378 
Q 2772 3750 2511 3984 
Q 2250 4219 1831 4219 
Q 1534 4219 1204 4116 
Q 875 4013 500 3803 
L 500 4441 
Q 881 4594 1212 4672 
Q 1544 4750 1819 4750 
Q 2544 4750 2975 4387 
Q 3406 4025 3406 3419 
Q 3406 3131 3298 2873 
Q 3191 2616 2906 2266 
Q 2828 2175 2409 1742 
Q 1991 1309 1228 531 
z
" transform="scale(0.015625)"/>
       </defs>
       <use xlink:href="#DejaVuSans-30"/>
       <use xlink:href="#DejaVuSans-2e" x="63.623047"/>
       <use xlink:href="#DejaVuSans-32" x="95.410156"/>
      </g>
     </g>
    </g>
    <g id="xtick_3">
     <g id="line2d_3">
      <g>
       <use xlink:href="#m8a500c6e88" x="189.875795" y="273.312" style="stroke: #000000; stroke-width: 0.8"/>
      </g>
     </g>
     <g id="text_3">
      <!-- 0.4 -->
      <g transform="translate(181.924233 287.910437)scale(0.1 -0.1)">
       <defs>
        <path id="DejaVuSans-34" d="M 2419 4116 
L 825 1625 
L 2419 1625 
L 2419 4116 
z
M 2253 4666 
L 3047 4666 
L 3047 1625 
L 3713 1625 
L 3713 1100 
L 3047 1100 
L 3047 0 
L 2419 0 
L 2419 1100 
L 313 1100 
L 313 1709 
L 2253 4666 
z
" transform="scale(0.015625)"/>
       </defs>
       <use xlink:href="#DejaVuSans-30"/>
       <use xlink:href="#DejaVuSans-2e" x="63.623047"/>
       <use xlink:href="#DejaVuSans-34" x="95.410156"/>
      </g>
     </g>
    </g>
    <g id="xtick_4">
     <g id="line2d_4">
      <g>
       <use xlink:href="#m8a500c6e88" x="254.806705" y="273.312" style="stroke: #000000; stroke-width: 0.8"/>
      </g>
     </g>
     <g id="text_4">
      <!-- 0.6 -->
      <g transform="translate(246.855142 287.910437)scale(0.1 -0.1)">
       <defs>
        <path id="DejaVuSans-36" d="M 2113 2584 
Q 1688 2584 1439 2293 
Q 1191 2003 1191 1497 
Q 1191 994 1439 701 
Q 1688 409 2113 409 
Q 2538 409 2786 701 
Q 3034 994 3034 1497 
Q 3034 2003 2786 2293 
Q 2538 2584 2113 2584 
z
M 3366 4563 
L 3366 3988 
Q 3128 4100 2886 4159 
Q 2644 4219 2406 4219 
Q 1781 4219 1451 3797 
Q 1122 3375 1075 2522 
Q 1259 2794 1537 2939 
Q 1816 3084 2150 3084 
Q 2853 3084 3261 2657 
Q 3669 2231 3669 1497 
Q 3669 778 3244 343 
Q 2819 -91 2113 -91 
Q 1303 -91 875 529 
Q 447 1150 447 2328 
Q 447 3434 972 4092 
Q 1497 4750 2381 4750 
Q 2619 4750 2861 4703 
Q 3103 4656 3366 4563 
z
" transform="scale(0.015625)"/>
       </defs>
       <use xlink:href="#DejaVuSans-30"/>
       <use xlink:href="#DejaVuSans-2e" x="63.623047"/>
       <use xlink:href="#DejaVuSans-36" x="95.410156"/>
      </g>
     </g>
    </g>
    <g id="xtick_5">
     <g id="line2d_5">
      <g>
       <use xlink:href="#m8a500c6e88" x="319.737614" y="273.312" style="stroke: #000000; stroke-width: 0.8"/>
      </g>
     </g>
     <g id="text_5">
      <!-- 0.8 -->
      <g transform="translate(311.786051 287.910437)scale(0.1 -0.1)">
       <defs>
        <path id="DejaVuSans-38" d="M 2034 2216 
Q 1584 2216 1326 1975 
Q 1069 1734 1069 1313 
Q 1069 891 1326 650 
Q 1584 409 2034 409 
Q 2484 409 2743 651 
Q 3003 894 3003 1313 
Q 3003 1734 2745 1975 
Q 2488 2216 2034 2216 
z
M 1403 2484 
Q 997 2584 770 2862 
Q 544 3141 544 3541 
Q 544 4100 942 4425 
Q 1341 4750 2034 4750 
Q 2731 4750 3128 4425 
Q 3525 4100 3525 3541 
Q 3525 3141 3298 2862 
Q 3072 2584 2669 2484 
Q 3125 2378 3379 2068 
Q 3634 1759 3634 1313 
Q 3634 634 3220 271 
Q 2806 -91 2034 -91 
Q 1263 -91 848 271 
Q 434 634 434 1313 
Q 434 1759 690 2068 
Q 947 2378 1403 2484 
z
M 1172 3481 
Q 1172 3119 1398 2916 
Q 1625 2713 2034 2713 
Q 2441 2713 2670 2916 
Q 2900 3119 2900 3481 
Q 2900 3844 2670 4047 
Q 2441 4250 2034 4250 
Q 1625 4250 1398 4047 
Q 1172 3844 1172 3481 
z
" transform="scale(0.015625)"/>
       </defs>
       <use xlink:href="#DejaVuSans-30"/>
       <use xlink:href="#DejaVuSans-2e" x="63.623047"/>
       <use xlink:href="#DejaVuSans-38" x="95.410156"/>
      </g>
     </g>
    </g>
    <g id="xtick_6">
     <g id="line2d_6">
      <g>
       <use xlink:href="#m8a500c6e88" x="384.668523" y="273.312" style="stroke: #000000; stroke-width: 0.8"/>
      </g>
     </g>
     <g id="text_6">
      <!-- 1.0 -->
      <g transform="translate(376.71696 287.910437)scale(0.1 -0.1)">
       <defs>
        <path id="DejaVuSans-31" d="M 794 531 
L 1825 531 
L 1825 4091 
L 703 3866 
L 703 4441 
L 1819 4666 
L 2450 4666 
L 2450 531 
L 3481 531 
L 3481 0 
L 794 0 
L 794 531 
z
" transform="scale(0.015625)"/>
       </defs>
       <use xlink:href="#DejaVuSans-31"/>
       <use xlink:href="#DejaVuSans-2e" x="63.623047"/>
       <use xlink:href="#DejaVuSans-30" x="95.410156"/>
      </g>
     </g>
    </g>
    <g id="text_7">
     <!-- Propagation direction -->
     <g transform="translate(168.859219 301.588562)scale(0.1 -0.1)">
      <defs>
       <path id="DejaVuSans-50" d="M 1259 4147 
L 1259 2394 
L 2053 2394 
Q 2494 2394 2734 2622 
Q 2975 2850 2975 3272 
Q 2975 3691 2734 3919 
Q 2494 4147 2053 4147 
L 1259 4147 
z
M 628 4666 
L 2053 4666 
Q 2838 4666 3239 4311 
Q 3641 3956 3641 3272 
Q 3641 2581 3239 2228 
Q 2838 1875 2053 1875 
L 1259 1875 
L 1259 0 
L 628 0 
L 628 4666 
z
" transform="scale(0.015625)"/>
       <path id="DejaVuSans-72" d="M 2631 2963 
Q 2534 3019 2420 3045 
Q 2306 3072 2169 3072 
Q 1681 3072 1420 2755 
Q 1159 2438 1159 1844 
L 1159 0 
L 581 0 
L 581 3500 
L 1159 3500 
L 1159 2956 
Q 1341 3275 1631 3429 
Q 1922 3584 2338 3584 
Q 2397 3584 2469 3576 
Q 2541 3569 2628 3553 
L 2631 2963 
z
" transform="scale(0.015625)"/>
       <path id="DejaVuSans-6f" d="M 1959 3097 
Q 1497 3097 1228 2736 
Q 959 2375 959 1747 
Q 959 1119 1226 758 
Q 1494 397 1959 397 
Q 2419 397 2687 759 
Q 2956 1122 2956 1747 
Q 2956 2369 2687 2733 
Q 2419 3097 1959 3097 
z
M 1959 3584 
Q 2709 3584 3137 3096 
Q 3566 2609 3566 1747 
Q 3566 888 3137 398 
Q 2709 -91 1959 -91 
Q 1206 -91 779 398 
Q 353 888 353 1747 
Q 353 2609 779 3096 
Q 1206 3584 1959 3584 
z
" transform="scale(0.015625)"/>
       <path id="DejaVuSans-70" d="M 1159 525 
L 1159 -1331 
L 581 -1331 
L 581 3500 
L 1159 3500 
L 1159 2969 
Q 1341 3281 1617 3432 
Q 1894 3584 2278 3584 
Q 2916 3584 3314 3078 
Q 3713 2572 3713 1747 
Q 3713 922 3314 415 
Q 2916 -91 2278 -91 
Q 1894 -91 1617 61 
Q 1341 213 1159 525 
z
M 3116 1747 
Q 3116 2381 2855 2742 
Q 2594 3103 2138 3103 
Q 1681 3103 1420 2742 
Q 1159 2381 1159 1747 
Q 1159 1113 1420 752 
Q 1681 391 2138 391 
Q 2594 391 2855 752 
Q 3116 1113 3116 1747 
z
" transform="scale(0.015625)"/>
       <path id="DejaVuSans-61" d="M 2194 1759 
Q 1497 1759 1228 1600 
Q 959 1441 959 1056 
Q 959 750 1161 570 
Q 1363 391 1709 391 
Q 2188 391 2477 730 
Q 2766 1069 2766 1631 
L 2766 1759 
L 2194 1759 
z
M 3341 1997 
L 3341 0 
L 2766 0 
L 2766 531 
Q 2569 213 2275 61 
Q 1981 -91 1556 -91 
Q 1019 -91 701 211 
Q 384 513 384 1019 
Q 384 1609 779 1909 
Q 1175 2209 1959 2209 
L 2766 2209 
L 2766 2266 
Q 2766 2663 2505 2880 
Q 2244 3097 1772 3097 
Q 1472 3097 1187 3025 
Q 903 2953 641 2809 
L 641 3341 
Q 956 3463 1253 3523 
Q 1550 3584 1831 3584 
Q 2591 3584 2966 3190 
Q 3341 2797 3341 1997 
z
" transform="scale(0.015625)"/>
       <path id="DejaVuSans-67" d="M 2906 1791 
Q 2906 2416 2648 2759 
Q 2391 3103 1925 3103 
Q 1463 3103 1205 2759 
Q 947 2416 947 1791 
Q 947 1169 1205 825 
Q 1463 481 1925 481 
Q 2391 481 2648 825 
Q 2906 1169 2906 1791 
z
M 3481 434 
Q 3481 -459 3084 -895 
Q 2688 -1331 1869 -1331 
Q 1566 -1331 1297 -1286 
Q 1028 -1241 775 -1147 
L 775 -588 
Q 1028 -725 1275 -790 
Q 1522 -856 1778 -856 
Q 2344 -856 2625 -561 
Q 2906 -266 2906 331 
L 2906 616 
Q 2728 306 2450 153 
Q 2172 0 1784 0 
Q 1141 0 747 490 
Q 353 981 353 1791 
Q 353 2603 747 3093 
Q 1141 3584 1784 3584 
Q 2172 3584 2450 3431 
Q 2728 3278 2906 2969 
L 2906 3500 
L 3481 3500 
L 3481 434 
z
" transform="scale(0.015625)"/>
       <path id="DejaVuSans-74" d="M 1172 4494 
L 1172 3500 
L 2356 3500 
L 2356 3053 
L 1172 3053 
L 1172 1153 
Q 1172 725 1289 603 
Q 1406 481 1766 481 
L 2356 481 
L 2356 0 
L 1766 0 
Q 1100 0 847 248 
Q 594 497 594 1153 
L 594 3053 
L 172 3053 
L 172 3500 
L 594 3500 
L 594 4494 
L 1172 4494 
z
" transform="scale(0.015625)"/>
       <path id="DejaVuSans-69" d="M 603 3500 
L 1178 3500 
L 1178 0 
L 603 0 
L 603 3500 
z
M 603 4863 
L 1178 4863 
L 1178 4134 
L 603 4134 
L 603 4863 
z
" transform="scale(0.015625)"/>
       <path id="DejaVuSans-6e" d="M 3513 2113 
L 3513 0 
L 2938 0 
L 2938 2094 
Q 2938 2591 2744 2837 
Q 2550 3084 2163 3084 
Q 1697 3084 1428 2787 
Q 1159 2491 1159 1978 
L 1159 0 
L 581 0 
L 581 3500 
L 1159 3500 
L 1159 2956 
Q 1366 3272 1645 3428 
Q 1925 3584 2291 3584 
Q 2894 3584 3203 3211 
Q 3513 2838 3513 2113 
z
" transform="scale(0.015625)"/>
       <path id="DejaVuSans-20" transform="scale(0.015625)"/>
       <path id="DejaVuSans-64" d="M 2906 2969 
L 2906 4863 
L 3481 4863 
L 3481 0 
L 2906 0 
L 2906 525 
Q 2725 213 2448 61 
Q 2172 -91 1784 -91 
Q 1150 -91 751 415 
Q 353 922 353 1747 
Q 353 2572 751 3078 
Q 1150 3584 1784 3584 
Q 2172 3584 2448 3432 
Q 2725 3281 2906 2969 
z
M 947 1747 
Q 947 1113 1208 752 
Q 1469 391 1925 391 
Q 2381 391 2643 752 
Q 2906 1113 2906 1747 
Q 2906 2381 2643 2742 
Q 2381 3103 1925 3103 
Q 1469 3103 1208 2742 
Q 947 2381 947 1747 
z
" transform="scale(0.015625)"/>
       <path id="DejaVuSans-65" d="M 3597 1894 
L 3597 1613 
L 953 1613 
Q 991 1019 1311 708 
Q 1631 397 2203 397 
Q 2534 397 2845 478 
Q 3156 559 3463 722 
L 3463 178 
Q 3153 47 2828 -22 
Q 2503 -91 2169 -91 
Q 1331 -91 842 396 
Q 353 884 353 1716 
Q 353 2575 817 3079 
Q 1281 3584 2069 3584 
Q 2775 3584 3186 3129 
Q 3597 2675 3597 1894 
z
M 3022 2063 
Q 3016 2534 2758 2815 
Q 2500 3097 2075 3097 
Q 1594 3097 1305 2825 
Q 1016 2553 972 2059 
L 3022 2063 
z
" transform="scale(0.015625)"/>
       <path id="DejaVuSans-63" d="M 3122 3366 
L 3122 2828 
Q 2878 2963 2633 3030 
Q 2388 3097 2138 3097 
Q 1578 3097 1268 2742 
Q 959 2388 959 1747 
Q 959 1106 1268 751 
Q 1578 397 2138 397 
Q 2388 397 2633 464 
Q 2878 531 3122 666 
L 3122 134 
Q 2881 22 2623 -34 
Q 2366 -91 2075 -91 
Q 1284 -91 818 406 
Q 353 903 353 1747 
Q 353 2603 823 3093 
Q 1294 3584 2113 3584 
Q 2378 3584 2631 3529 
Q 2884 3475 3122 3366 
z
" transform="scale(0.015625)"/>
      </defs>
      <use xlink:href="#DejaVuSans-50"/>
      <use xlink:href="#DejaVuSans-72" x="58.552734"/>
      <use xlink:href="#DejaVuSans-6f" x="97.416016"/>
      <use xlink:href="#DejaVuSans-70" x="158.597656"/>
      <use xlink:href="#DejaVuSans-61" x="222.074219"/>
      <use xlink:href="#DejaVuSans-67" x="283.353516"/>
      <use xlink:href="#DejaVuSans-61" x="346.830078"/>
      <use xlink:href="#DejaVuSans-74" x="408.109375"/>
      <use xlink:href="#DejaVuSans-69" x="447.318359"/>
      <use xlink:href="#DejaVuSans-6f" x="475.101562"/>
      <use xlink:href="#DejaVuSans-6e" x="536.283203"/>
      <use xlink:href="#DejaVuSans-20" x="599.662109"/>
      <use xlink:href="#DejaVuSans-64" x="631.449219"/>
      <use xlink:href="#DejaVuSans-69" x="694.925781"/>
      <use xlink:href="#DejaVuSans-72" x="722.708984"/>
      <use xlink:href="#DejaVuSans-65" x="761.572266"/>
      <use xlink:href="#DejaVuSans-63" x="823.095703"/>
      <use xlink:href="#DejaVuSans-74" x="878.076172"/>
      <use xlink:href="#DejaVuSans-69" x="917.285156"/>
      <use xlink:href="#DejaVuSans-6f" x="945.068359"/>
      <use xlink:href="#DejaVuSans-6e" x="1006.25"/>
     </g>
    </g>
   </g>
   <g id="matplotlib.axis_2">
    <g id="ytick_1">
     <g id="line2d_7">
      <defs>
       <path id="m00063f021c" d="M 0 0 
L -3.5 0 
" style="stroke: #000000; stroke-width: 0.8"/>
      </defs>
      <g>
       <use xlink:href="#m00063f021c" x="43.78125" y="273.312" style="stroke: #000000; stroke-width: 0.8"/>
      </g>
     </g>
     <g id="text_8">
      <!-- 0.0 -->
      <g transform="translate(20.878125 277.111219)scale(0.1 -0.1)">
       <use xlink:href="#DejaVuSans-30"/>
       <use xlink:href="#DejaVuSans-2e" x="63.623047"/>
       <use xlink:href="#DejaVuSans-30" x="95.410156"/>
      </g>
     </g>
    </g>
    <g id="ytick_2">
     <g id="line2d_8">
      <g>
       <use xlink:href="#m00063f021c" x="43.78125" y="217.041069" style="stroke: #000000; stroke-width: 0.8"/>
      </g>
     </g>
     <g id="text_9">
      <!-- 0.5 -->
      <g transform="translate(20.878125 220.840288)scale(0.1 -0.1)">
       <defs>
        <path id="DejaVuSans-35" d="M 691 4666 
L 3169 4666 
L 3169 4134 
L 1269 4134 
L 1269 2991 
Q 1406 3038 1543 3061 
Q 1681 3084 1819 3084 
Q 2600 3084 3056 2656 
Q 3513 2228 3513 1497 
Q 3513 744 3044 326 
Q 2575 -91 1722 -91 
Q 1428 -91 1123 -41 
Q 819 9 494 109 
L 494 744 
Q 775 591 1075 516 
Q 1375 441 1709 441 
Q 2250 441 2565 725 
Q 2881 1009 2881 1497 
Q 2881 1984 2565 2268 
Q 2250 2553 1709 2553 
Q 1456 2553 1204 2497 
Q 953 2441 691 2322 
L 691 4666 
z
" transform="scale(0.015625)"/>
       </defs>
       <use xlink:href="#DejaVuSans-30"/>
       <use xlink:href="#DejaVuSans-2e" x="63.623047"/>
       <use xlink:href="#DejaVuSans-35" x="95.410156"/>
      </g>
     </g>
    </g>
    <g id="ytick_3">
     <g id="line2d_9">
      <g>
       <use xlink:href="#m00063f021c" x="43.78125" y="160.770139" style="stroke: #000000; stroke-width: 0.8"/>
      </g>
     </g>
     <g id="text_10">
      <!-- 1.0 -->
      <g transform="translate(20.878125 164.569357)scale(0.1 -0.1)">
       <use xlink:href="#DejaVuSans-31"/>
       <use xlink:href="#DejaVuSans-2e" x="63.623047"/>
       <use xlink:href="#DejaVuSans-30" x="95.410156"/>
      </g>
     </g>
    </g>
    <g id="ytick_4">
     <g id="line2d_10">
      <g>
       <use xlink:href="#m00063f021c" x="43.78125" y="104.499208" style="stroke: #000000; stroke-width: 0.8"/>
      </g>
     </g>
     <g id="text_11">
      <!-- 1.5 -->
      <g transform="translate(20.878125 108.298427)scale(0.1 -0.1)">
       <use xlink:href="#DejaVuSans-31"/>
       <use xlink:href="#DejaVuSans-2e" x="63.623047"/>
       <use xlink:href="#DejaVuSans-35" x="95.410156"/>
      </g>
     </g>
    </g>
    <g id="ytick_5">
     <g id="line2d_11">
      <g>
       <use xlink:href="#m00063f021c" x="43.78125" y="48.228277" style="stroke: #000000; stroke-width: 0.8"/>
      </g>
     </g>
     <g id="text_12">
      <!-- 2.0 -->
      <g transform="translate(20.878125 52.027496)scale(0.1 -0.1)">
       <use xlink:href="#DejaVuSans-32"/>
       <use xlink:href="#DejaVuSans-2e" x="63.623047"/>
       <use xlink:href="#DejaVuSans-30" x="95.410156"/>
      </g>
     </g>
    </g>
    <g id="text_13">
     <!-- Probability density -->
     <g transform="translate(14.798438 186.606781)rotate(-90)scale(0.1 -0.1)">
      <defs>
       <path id="DejaVuSans-62" d="M 3116 1747 
Q 3116 2381 2855 2742 
Q 2594 3103 2138 3103 
Q 1681 3103 1420 2742 
Q 1159 2381 1159 1747 
Q 1159 1113 1420 752 
Q 1681 391 2138 391 
Q 2594 391 2855 752 
Q 3116 1113 3116 1747 
z
M 1159 2969 
Q 1341 3281 1617 3432 
Q 1894 3584 2278 3584 
Q 2916 3584 3314 3078 
Q 3713 2572 3713 1747 
Q 3713 922 3314 415 
Q 2916 -91 2278 -91 
Q 1894 -91 1617 61 
Q 1341 213 1159 525 
L 1159 0 
L 581 0 
L 581 4863 
L 1159 4863 
L 1159 2969 
z
" transform="scale(0.015625)"/>
       <path id="DejaVuSans-6c" d="M 603 4863 
L 1178 4863 
L 1178 0 
L 603 0 
L 603 4863 
z
" transform="scale(0.015625)"/>
       <path id="DejaVuSans-79" d="M 2059 -325 
Q 1816 -950 1584 -1140 
Q 1353 -1331 966 -1331 
L 506 -1331 
L 506 -850 
L 844 -850 
Q 1081 -850 1212 -737 
Q 1344 -625 1503 -206 
L 1606 56 
L 191 3500 
L 800 3500 
L 1894 763 
L 2988 3500 
L 3597 3500 
L 2059 -325 
z
" transform="scale(0.015625)"/>
       <path id="DejaVuSans-73" d="M 2834 3397 
L 2834 2853 
Q 2591 2978 2328 3040 
Q 2066 3103 1784 3103 
Q 1356 3103 1142 2972 
Q 928 2841 928 2578 
Q 928 2378 1081 2264 
Q 1234 2150 1697 2047 
L 1894 2003 
Q 2506 1872 2764 1633 
Q 3022 1394 3022 966 
Q 3022 478 2636 193 
Q 2250 -91 1575 -91 
Q 1294 -91 989 -36 
Q 684 19 347 128 
L 347 722 
Q 666 556 975 473 
Q 1284 391 1588 391 
Q 1994 391 2212 530 
Q 2431 669 2431 922 
Q 2431 1156 2273 1281 
Q 2116 1406 1581 1522 
L 1381 1569 
Q 847 1681 609 1914 
Q 372 2147 372 2553 
Q 372 3047 722 3315 
Q 1072 3584 1716 3584 
Q 2034 3584 2315 3537 
Q 2597 3491 2834 3397 
z
" transform="scale(0.015625)"/>
      </defs>
      <use xlink:href="#DejaVuSans-50"/>
      <use xlink:href="#DejaVuSans-72" x="58.552734"/>
      <use xlink:href="#DejaVuSans-6f" x="97.416016"/>
      <use xlink:href="#DejaVuSans-62" x="158.597656"/>
      <use xlink:href="#DejaVuSans-61" x="222.074219"/>
      <use xlink:href="#DejaVuSans-62" x="283.353516"/>
      <use xlink:href="#DejaVuSans-69" x="346.830078"/>
      <use xlink:href="#DejaVuSans-6c" x="374.613281"/>
      <use xlink:href="#DejaVuSans-69" x="402.396484"/>
      <use xlink:href="#DejaVuSans-74" x="430.179688"/>
      <use xlink:href="#DejaVuSans-79" x="469.388672"/>
      <use xlink:href="#DejaVuSans-20" x="528.568359"/>
      <use xlink:href="#DejaVuSans-64" x="560.355469"/>
      <use xlink:href="#DejaVuSans-65" x="623.832031"/>
      <use xlink:href="#DejaVuSans-6e" x="685.355469"/>
      <use xlink:href="#DejaVuSans-73" x="748.734375"/>
      <use xlink:href="#DejaVuSans-69" x="800.833984"/>
      <use xlink:href="#DejaVuSans-74" x="828.617188"/>
      <use xlink:href="#DejaVuSans-79" x="867.826172"/>
     </g>
    </g>
   </g>
   <g id="line2d_12">
    <path d="M 60.013977 273.312 
L 384.668523 48.228277 
L 384.668523 48.228277 
" clip-path="url(#p9676d823e9)" style="fill: none; stroke: #ff7f0e; stroke-width: 1.5; stroke-linecap: square"/>
   </g>
   <g id="patch_203">
    <path d="M 43.78125 273.312 
L 43.78125 7.2 
" style="fill: none; stroke: #000000; stroke-width: 0.8; stroke-linejoin: miter; stroke-linecap: square"/>
   </g>
   <g id="patch_204">
    <path d="M 400.90125 273.312 
L 400.90125 7.2 
" style="fill: none; stroke: #000000; stroke-width: 0.8; stroke-linejoin: miter; stroke-linecap: square"/>
   </g>
   <g id="patch_205">
    <path d="M 43.78125 273.312 
L 400.90125 273.312 
" style="fill: none; stroke: #000000; stroke-width: 0.8; stroke-linejoin: miter; stroke-linecap: square"/>
   </g>
   <g id="patch_206">
    <path d="M 43.78125 7.2 
L 400.90125 7.2 
" style="fill: none; stroke: #000000; stroke-width: 0.8; stroke-linejoin: miter; stroke-linecap: square"/>
   </g>
  </g>
 </g>
 <defs>
  <clipPath id="p9676d823e9">
   <rect x="43.78125" y="7.2" width="357.12" height="266.112"/>
  </clipPath>
 </defs>
</svg>
