<?xml version="1.0" encoding="utf-8" standalone="no"?>
<!DOCTYPE svg PUBLIC "-//W3C//DTD SVG 1.1//EN"
  "http://www.w3.org/Graphics/SVG/1.1/DTD/svg11.dtd">
<svg xmlns:xlink="http://www.w3.org/1999/xlink" width="385.78125pt" height="262.19625pt" viewBox="0 0 385.78125 262.19625" xmlns="http://www.w3.org/2000/svg" version="1.1">
 <metadata>
  <rdf:RDF xmlns:dc="http://purl.org/dc/elements/1.1/" xmlns:cc="http://creativecommons.org/ns#" xmlns:rdf="http://www.w3.org/1999/02/22-rdf-syntax-ns#">
   <cc:Work>
    <dc:type rdf:resource="http://purl.org/dc/dcmitype/StillImage"/>
    <dc:date>2022-07-15T21:37:32.809002</dc:date>
    <dc:format>image/svg+xml</dc:format>
    <dc:creator>
     <cc:Agent>
      <dc:title>Matplotlib v3.5.2, https://matplotlib.org/</dc:title>
     </cc:Agent>
    </dc:creator>
   </cc:Work>
  </rdf:RDF>
 </metadata>
 <defs>
  <style type="text/css">*{stroke-linejoin: round; stroke-linecap: butt}</style>
 </defs>
 <g id="figure_1">
  <g id="patch_1">
   <path d="M 0 262.19625 
L 385.78125 262.19625 
L 385.78125 0 
L 0 0 
L 0 262.19625 
z
" style="fill: none"/>
  </g>
  <g id="axes_1">
   <g id="patch_2">
    <path d="M 43.78125 224.64 
L 378.58125 224.64 
L 378.58125 7.2 
L 43.78125 7.2 
z
" style="fill: #ffffff"/>
   </g>
   <g id="patch_3">
    <path d="M 60.538047 224.64 
L 62.048347 224.64 
L 62.048347 219.781684 
L 60.538047 219.781684 
z
" clip-path="url(#p3b19a888ca)" style="fill: #1f77b4"/>
   </g>
   <g id="patch_4">
    <path d="M 62.048347 224.64 
L 63.558646 224.64 
L 63.558646 215.530658 
L 62.048347 215.530658 
z
" clip-path="url(#p3b19a888ca)" style="fill: #1f77b4"/>
   </g>
   <g id="patch_5">
    <path d="M 63.558646 224.64 
L 65.068945 224.64 
L 65.068945 213.1015 
L 63.558646 213.1015 
z
" clip-path="url(#p3b19a888ca)" style="fill: #1f77b4"/>
   </g>
   <g id="patch_6">
    <path d="M 65.068945 224.64 
L 66.579245 224.64 
L 66.579245 214.923368 
L 65.068945 214.923368 
z
" clip-path="url(#p3b19a888ca)" style="fill: #1f77b4"/>
   </g>
   <g id="patch_7">
    <path d="M 66.579245 224.64 
L 68.089544 224.64 
L 68.089544 210.672342 
L 66.579245 210.672342 
z
" clip-path="url(#p3b19a888ca)" style="fill: #1f77b4"/>
   </g>
   <g id="patch_8">
    <path d="M 68.089544 224.64 
L 69.599844 224.64 
L 69.599844 203.992158 
L 68.089544 203.992158 
z
" clip-path="url(#p3b19a888ca)" style="fill: #1f77b4"/>
   </g>
   <g id="patch_9">
    <path d="M 69.599844 224.64 
L 71.110143 224.64 
L 71.110143 201.563 
L 69.599844 201.563 
z
" clip-path="url(#p3b19a888ca)" style="fill: #1f77b4"/>
   </g>
   <g id="patch_10">
    <path d="M 71.110143 224.64 
L 72.620442 224.64 
L 72.620442 196.704684 
L 71.110143 196.704684 
z
" clip-path="url(#p3b19a888ca)" style="fill: #1f77b4"/>
   </g>
   <g id="patch_11">
    <path d="M 72.620442 224.64 
L 74.130742 224.64 
L 74.130742 196.704684 
L 72.620442 196.704684 
z
" clip-path="url(#p3b19a888ca)" style="fill: #1f77b4"/>
   </g>
   <g id="patch_12">
    <path d="M 74.130742 224.64 
L 75.641041 224.64 
L 75.641041 188.80992 
L 74.130742 188.80992 
z
" clip-path="url(#p3b19a888ca)" style="fill: #1f77b4"/>
   </g>
   <g id="patch_13">
    <path d="M 75.641041 224.64 
L 77.151341 224.64 
L 77.151341 201.563 
L 75.641041 201.563 
z
" clip-path="url(#p3b19a888ca)" style="fill: #1f77b4"/>
   </g>
   <g id="patch_14">
    <path d="M 77.151341 224.64 
L 78.66164 224.64 
L 78.66164 181.522447 
L 77.151341 181.522447 
z
" clip-path="url(#p3b19a888ca)" style="fill: #1f77b4"/>
   </g>
   <g id="patch_15">
    <path d="M 78.66164 224.64 
L 80.171939 224.64 
L 80.171939 188.202631 
L 78.66164 188.202631 
z
" clip-path="url(#p3b19a888ca)" style="fill: #1f77b4"/>
   </g>
   <g id="patch_16">
    <path d="M 80.171939 224.64 
L 81.682239 224.64 
L 81.682239 183.344315 
L 80.171939 183.344315 
z
" clip-path="url(#p3b19a888ca)" style="fill: #1f77b4"/>
   </g>
   <g id="patch_17">
    <path d="M 81.682239 224.64 
L 83.192538 224.64 
L 83.192538 174.842262 
L 81.682239 174.842262 
z
" clip-path="url(#p3b19a888ca)" style="fill: #1f77b4"/>
   </g>
   <g id="patch_18">
    <path d="M 83.192538 224.64 
L 84.702838 224.64 
L 84.702838 177.87871 
L 83.192538 177.87871 
z
" clip-path="url(#p3b19a888ca)" style="fill: #1f77b4"/>
   </g>
   <g id="patch_19">
    <path d="M 84.702838 224.64 
L 86.213137 224.64 
L 86.213137 176.056841 
L 84.702838 176.056841 
z
" clip-path="url(#p3b19a888ca)" style="fill: #1f77b4"/>
   </g>
   <g id="patch_20">
    <path d="M 86.213137 224.64 
L 87.723436 224.64 
L 87.723436 172.413104 
L 86.213137 172.413104 
z
" clip-path="url(#p3b19a888ca)" style="fill: #1f77b4"/>
   </g>
   <g id="patch_21">
    <path d="M 87.723436 224.64 
L 89.233736 224.64 
L 89.233736 170.591236 
L 87.723436 170.591236 
z
" clip-path="url(#p3b19a888ca)" style="fill: #1f77b4"/>
   </g>
   <g id="patch_22">
    <path d="M 89.233736 224.64 
L 90.744035 224.64 
L 90.744035 168.162078 
L 89.233736 168.162078 
z
" clip-path="url(#p3b19a888ca)" style="fill: #1f77b4"/>
   </g>
   <g id="patch_23">
    <path d="M 90.744035 224.64 
L 92.254335 224.64 
L 92.254335 163.911052 
L 90.744035 163.911052 
z
" clip-path="url(#p3b19a888ca)" style="fill: #1f77b4"/>
   </g>
   <g id="patch_24">
    <path d="M 92.254335 224.64 
L 93.764634 224.64 
L 93.764634 149.336104 
L 92.254335 149.336104 
z
" clip-path="url(#p3b19a888ca)" style="fill: #1f77b4"/>
   </g>
   <g id="patch_25">
    <path d="M 93.764634 224.64 
L 95.274933 224.64 
L 95.274933 165.73292 
L 93.764634 165.73292 
z
" clip-path="url(#p3b19a888ca)" style="fill: #1f77b4"/>
   </g>
   <g id="patch_26">
    <path d="M 95.274933 224.64 
L 96.785233 224.64 
L 96.785233 149.336104 
L 95.274933 149.336104 
z
" clip-path="url(#p3b19a888ca)" style="fill: #1f77b4"/>
   </g>
   <g id="patch_27">
    <path d="M 96.785233 224.64 
L 98.295532 224.64 
L 98.295532 152.979841 
L 96.785233 152.979841 
z
" clip-path="url(#p3b19a888ca)" style="fill: #1f77b4"/>
   </g>
   <g id="patch_28">
    <path d="M 98.295532 224.64 
L 99.805832 224.64 
L 99.805832 152.372551 
L 98.295532 152.372551 
z
" clip-path="url(#p3b19a888ca)" style="fill: #1f77b4"/>
   </g>
   <g id="patch_29">
    <path d="M 99.805832 224.64 
L 101.316131 224.64 
L 101.316131 145.692367 
L 99.805832 145.692367 
z
" clip-path="url(#p3b19a888ca)" style="fill: #1f77b4"/>
   </g>
   <g id="patch_30">
    <path d="M 101.316131 224.64 
L 102.82643 224.64 
L 102.82643 142.65592 
L 101.316131 142.65592 
z
" clip-path="url(#p3b19a888ca)" style="fill: #1f77b4"/>
   </g>
   <g id="patch_31">
    <path d="M 102.82643 224.64 
L 104.33673 224.64 
L 104.33673 137.190314 
L 102.82643 137.190314 
z
" clip-path="url(#p3b19a888ca)" style="fill: #1f77b4"/>
   </g>
   <g id="patch_32">
    <path d="M 104.33673 224.64 
L 105.847029 224.64 
L 105.847029 151.765262 
L 104.33673 151.765262 
z
" clip-path="url(#p3b19a888ca)" style="fill: #1f77b4"/>
   </g>
   <g id="patch_33">
    <path d="M 105.847029 224.64 
L 107.357329 224.64 
L 107.357329 131.117419 
L 105.847029 131.117419 
z
" clip-path="url(#p3b19a888ca)" style="fill: #1f77b4"/>
   </g>
   <g id="patch_34">
    <path d="M 107.357329 224.64 
L 108.867628 224.64 
L 108.867628 134.153867 
L 107.357329 134.153867 
z
" clip-path="url(#p3b19a888ca)" style="fill: #1f77b4"/>
   </g>
   <g id="patch_35">
    <path d="M 108.867628 224.64 
L 110.377927 224.64 
L 110.377927 128.688261 
L 108.867628 128.688261 
z
" clip-path="url(#p3b19a888ca)" style="fill: #1f77b4"/>
   </g>
   <g id="patch_36">
    <path d="M 110.377927 224.64 
L 111.888227 224.64 
L 111.888227 119.578919 
L 110.377927 119.578919 
z
" clip-path="url(#p3b19a888ca)" style="fill: #1f77b4"/>
   </g>
   <g id="patch_37">
    <path d="M 111.888227 224.64 
L 113.398526 224.64 
L 113.398526 136.583025 
L 111.888227 136.583025 
z
" clip-path="url(#p3b19a888ca)" style="fill: #1f77b4"/>
   </g>
   <g id="patch_38">
    <path d="M 113.398526 224.64 
L 114.908826 224.64 
L 114.908826 133.546577 
L 113.398526 133.546577 
z
" clip-path="url(#p3b19a888ca)" style="fill: #1f77b4"/>
   </g>
   <g id="patch_39">
    <path d="M 114.908826 224.64 
L 116.419125 224.64 
L 116.419125 114.113314 
L 114.908826 114.113314 
z
" clip-path="url(#p3b19a888ca)" style="fill: #1f77b4"/>
   </g>
   <g id="patch_40">
    <path d="M 116.419125 224.64 
L 117.929424 224.64 
L 117.929424 122.008077 
L 116.419125 122.008077 
z
" clip-path="url(#p3b19a888ca)" style="fill: #1f77b4"/>
   </g>
   <g id="patch_41">
    <path d="M 117.929424 224.64 
L 119.439724 224.64 
L 119.439724 112.898735 
L 117.929424 112.898735 
z
" clip-path="url(#p3b19a888ca)" style="fill: #1f77b4"/>
   </g>
   <g id="patch_42">
    <path d="M 119.439724 224.64 
L 120.950023 224.64 
L 120.950023 111.684156 
L 119.439724 111.684156 
z
" clip-path="url(#p3b19a888ca)" style="fill: #1f77b4"/>
   </g>
   <g id="patch_43">
    <path d="M 120.950023 224.64 
L 122.460323 224.64 
L 122.460323 119.578919 
L 120.950023 119.578919 
z
" clip-path="url(#p3b19a888ca)" style="fill: #1f77b4"/>
   </g>
   <g id="patch_44">
    <path d="M 122.460323 224.64 
L 123.970622 224.64 
L 123.970622 97.716498 
L 122.460323 97.716498 
z
" clip-path="url(#p3b19a888ca)" style="fill: #1f77b4"/>
   </g>
   <g id="patch_45">
    <path d="M 123.970622 224.64 
L 125.480921 224.64 
L 125.480921 110.469577 
L 123.970622 110.469577 
z
" clip-path="url(#p3b19a888ca)" style="fill: #1f77b4"/>
   </g>
   <g id="patch_46">
    <path d="M 125.480921 224.64 
L 126.991221 224.64 
L 126.991221 103.789393 
L 125.480921 103.789393 
z
" clip-path="url(#p3b19a888ca)" style="fill: #1f77b4"/>
   </g>
   <g id="patch_47">
    <path d="M 126.991221 224.64 
L 128.50152 224.64 
L 128.50152 92.858182 
L 126.991221 92.858182 
z
" clip-path="url(#p3b19a888ca)" style="fill: #1f77b4"/>
   </g>
   <g id="patch_48">
    <path d="M 128.50152 224.64 
L 130.01182 224.64 
L 130.01182 108.040419 
L 128.50152 108.040419 
z
" clip-path="url(#p3b19a888ca)" style="fill: #1f77b4"/>
   </g>
   <g id="patch_49">
    <path d="M 130.01182 224.64 
L 131.522119 224.64 
L 131.522119 94.072761 
L 130.01182 94.072761 
z
" clip-path="url(#p3b19a888ca)" style="fill: #1f77b4"/>
   </g>
   <g id="patch_50">
    <path d="M 131.522119 224.64 
L 133.032418 224.64 
L 133.032418 89.214445 
L 131.522119 89.214445 
z
" clip-path="url(#p3b19a888ca)" style="fill: #1f77b4"/>
   </g>
   <g id="patch_51">
    <path d="M 133.032418 224.64 
L 134.542718 224.64 
L 134.542718 93.465471 
L 133.032418 93.465471 
z
" clip-path="url(#p3b19a888ca)" style="fill: #1f77b4"/>
   </g>
   <g id="patch_52">
    <path d="M 134.542718 224.64 
L 136.053017 224.64 
L 136.053017 80.105103 
L 134.542718 80.105103 
z
" clip-path="url(#p3b19a888ca)" style="fill: #1f77b4"/>
   </g>
   <g id="patch_53">
    <path d="M 136.053017 224.64 
L 137.563317 224.64 
L 137.563317 102.574814 
L 136.053017 102.574814 
z
" clip-path="url(#p3b19a888ca)" style="fill: #1f77b4"/>
   </g>
   <g id="patch_54">
    <path d="M 137.563317 224.64 
L 139.073616 224.64 
L 139.073616 86.785287 
L 137.563317 86.785287 
z
" clip-path="url(#p3b19a888ca)" style="fill: #1f77b4"/>
   </g>
   <g id="patch_55">
    <path d="M 139.073616 224.64 
L 140.583915 224.64 
L 140.583915 88.607155 
L 139.073616 88.607155 
z
" clip-path="url(#p3b19a888ca)" style="fill: #1f77b4"/>
   </g>
   <g id="patch_56">
    <path d="M 140.583915 224.64 
L 142.094215 224.64 
L 142.094215 64.922866 
L 140.583915 64.922866 
z
" clip-path="url(#p3b19a888ca)" style="fill: #1f77b4"/>
   </g>
   <g id="patch_57">
    <path d="M 142.094215 224.64 
L 143.604514 224.64 
L 143.604514 92.858182 
L 142.094215 92.858182 
z
" clip-path="url(#p3b19a888ca)" style="fill: #1f77b4"/>
   </g>
   <g id="patch_58">
    <path d="M 143.604514 224.64 
L 145.114814 224.64 
L 145.114814 80.105103 
L 143.604514 80.105103 
z
" clip-path="url(#p3b19a888ca)" style="fill: #1f77b4"/>
   </g>
   <g id="patch_59">
    <path d="M 145.114814 224.64 
L 146.625113 224.64 
L 146.625113 78.283234 
L 145.114814 78.283234 
z
" clip-path="url(#p3b19a888ca)" style="fill: #1f77b4"/>
   </g>
   <g id="patch_60">
    <path d="M 146.625113 224.64 
L 148.135412 224.64 
L 148.135412 82.534261 
L 146.625113 82.534261 
z
" clip-path="url(#p3b19a888ca)" style="fill: #1f77b4"/>
   </g>
   <g id="patch_61">
    <path d="M 148.135412 224.64 
L 149.645712 224.64 
L 149.645712 77.675945 
L 148.135412 77.675945 
z
" clip-path="url(#p3b19a888ca)" style="fill: #1f77b4"/>
   </g>
   <g id="patch_62">
    <path d="M 149.645712 224.64 
L 151.156011 224.64 
L 151.156011 79.497813 
L 149.645712 79.497813 
z
" clip-path="url(#p3b19a888ca)" style="fill: #1f77b4"/>
   </g>
   <g id="patch_63">
    <path d="M 151.156011 224.64 
L 152.66631 224.64 
L 152.66631 63.708287 
L 151.156011 63.708287 
z
" clip-path="url(#p3b19a888ca)" style="fill: #1f77b4"/>
   </g>
   <g id="patch_64">
    <path d="M 152.66631 224.64 
L 154.17661 224.64 
L 154.17661 61.279129 
L 152.66631 61.279129 
z
" clip-path="url(#p3b19a888ca)" style="fill: #1f77b4"/>
   </g>
   <g id="patch_65">
    <path d="M 154.17661 224.64 
L 155.686909 224.64 
L 155.686909 57.028102 
L 154.17661 57.028102 
z
" clip-path="url(#p3b19a888ca)" style="fill: #1f77b4"/>
   </g>
   <g id="patch_66">
    <path d="M 155.686909 224.64 
L 157.197209 224.64 
L 157.197209 56.420813 
L 155.686909 56.420813 
z
" clip-path="url(#p3b19a888ca)" style="fill: #1f77b4"/>
   </g>
   <g id="patch_67">
    <path d="M 157.197209 224.64 
L 158.707508 224.64 
L 158.707508 78.890524 
L 157.197209 78.890524 
z
" clip-path="url(#p3b19a888ca)" style="fill: #1f77b4"/>
   </g>
   <g id="patch_68">
    <path d="M 158.707508 224.64 
L 160.217807 224.64 
L 160.217807 54.598944 
L 158.707508 54.598944 
z
" clip-path="url(#p3b19a888ca)" style="fill: #1f77b4"/>
   </g>
   <g id="patch_69">
    <path d="M 160.217807 224.64 
L 161.728107 224.64 
L 161.728107 49.133339 
L 160.217807 49.133339 
z
" clip-path="url(#p3b19a888ca)" style="fill: #1f77b4"/>
   </g>
   <g id="patch_70">
    <path d="M 161.728107 224.64 
L 163.238406 224.64 
L 163.238406 48.526049 
L 161.728107 48.526049 
z
" clip-path="url(#p3b19a888ca)" style="fill: #1f77b4"/>
   </g>
   <g id="patch_71">
    <path d="M 163.238406 224.64 
L 164.748706 224.64 
L 164.748706 65.530155 
L 163.238406 65.530155 
z
" clip-path="url(#p3b19a888ca)" style="fill: #1f77b4"/>
   </g>
   <g id="patch_72">
    <path d="M 164.748706 224.64 
L 166.259005 224.64 
L 166.259005 55.206234 
L 164.748706 55.206234 
z
" clip-path="url(#p3b19a888ca)" style="fill: #1f77b4"/>
   </g>
   <g id="patch_73">
    <path d="M 166.259005 224.64 
L 167.769304 224.64 
L 167.769304 32.736523 
L 166.259005 32.736523 
z
" clip-path="url(#p3b19a888ca)" style="fill: #1f77b4"/>
   </g>
   <g id="patch_74">
    <path d="M 167.769304 224.64 
L 169.279604 224.64 
L 169.279604 49.133339 
L 167.769304 49.133339 
z
" clip-path="url(#p3b19a888ca)" style="fill: #1f77b4"/>
   </g>
   <g id="patch_75">
    <path d="M 169.279604 224.64 
L 170.789903 224.64 
L 170.789903 67.959313 
L 169.279604 67.959313 
z
" clip-path="url(#p3b19a888ca)" style="fill: #1f77b4"/>
   </g>
   <g id="patch_76">
    <path d="M 170.789903 224.64 
L 172.300203 224.64 
L 172.300203 44.882313 
L 170.789903 44.882313 
z
" clip-path="url(#p3b19a888ca)" style="fill: #1f77b4"/>
   </g>
   <g id="patch_77">
    <path d="M 172.300203 224.64 
L 173.810502 224.64 
L 173.810502 48.526049 
L 172.300203 48.526049 
z
" clip-path="url(#p3b19a888ca)" style="fill: #1f77b4"/>
   </g>
   <g id="patch_78">
    <path d="M 173.810502 224.64 
L 175.320801 224.64 
L 175.320801 35.165681 
L 173.810502 35.165681 
z
" clip-path="url(#p3b19a888ca)" style="fill: #1f77b4"/>
   </g>
   <g id="patch_79">
    <path d="M 175.320801 224.64 
L 176.831101 224.64 
L 176.831101 58.849971 
L 175.320801 58.849971 
z
" clip-path="url(#p3b19a888ca)" style="fill: #1f77b4"/>
   </g>
   <g id="patch_80">
    <path d="M 176.831101 224.64 
L 178.3414 224.64 
L 178.3414 41.845865 
L 176.831101 41.845865 
z
" clip-path="url(#p3b19a888ca)" style="fill: #1f77b4"/>
   </g>
   <g id="patch_81">
    <path d="M 178.3414 224.64 
L 179.8517 224.64 
L 179.8517 39.416707 
L 178.3414 39.416707 
z
" clip-path="url(#p3b19a888ca)" style="fill: #1f77b4"/>
   </g>
   <g id="patch_82">
    <path d="M 179.8517 224.64 
L 181.361999 224.64 
L 181.361999 47.91876 
L 179.8517 47.91876 
z
" clip-path="url(#p3b19a888ca)" style="fill: #1f77b4"/>
   </g>
   <g id="patch_83">
    <path d="M 181.361999 224.64 
L 182.872298 224.64 
L 182.872298 47.31147 
L 181.361999 47.31147 
z
" clip-path="url(#p3b19a888ca)" style="fill: #1f77b4"/>
   </g>
   <g id="patch_84">
    <path d="M 182.872298 224.64 
L 184.382598 224.64 
L 184.382598 41.845865 
L 182.872298 41.845865 
z
" clip-path="url(#p3b19a888ca)" style="fill: #1f77b4"/>
   </g>
   <g id="patch_85">
    <path d="M 184.382598 224.64 
L 185.892897 224.64 
L 185.892897 70.99576 
L 184.382598 70.99576 
z
" clip-path="url(#p3b19a888ca)" style="fill: #1f77b4"/>
   </g>
   <g id="patch_86">
    <path d="M 185.892897 224.64 
L 187.403197 224.64 
L 187.403197 38.809418 
L 185.892897 38.809418 
z
" clip-path="url(#p3b19a888ca)" style="fill: #1f77b4"/>
   </g>
   <g id="patch_87">
    <path d="M 187.403197 224.64 
L 188.913496 224.64 
L 188.913496 40.631286 
L 187.403197 40.631286 
z
" clip-path="url(#p3b19a888ca)" style="fill: #1f77b4"/>
   </g>
   <g id="patch_88">
    <path d="M 188.913496 224.64 
L 190.423795 224.64 
L 190.423795 27.878207 
L 188.913496 27.878207 
z
" clip-path="url(#p3b19a888ca)" style="fill: #1f77b4"/>
   </g>
   <g id="patch_89">
    <path d="M 190.423795 224.64 
L 191.934095 224.64 
L 191.934095 29.092786 
L 190.423795 29.092786 
z
" clip-path="url(#p3b19a888ca)" style="fill: #1f77b4"/>
   </g>
   <g id="patch_90">
    <path d="M 191.934095 224.64 
L 193.444394 224.64 
L 193.444394 35.77297 
L 191.934095 35.77297 
z
" clip-path="url(#p3b19a888ca)" style="fill: #1f77b4"/>
   </g>
   <g id="patch_91">
    <path d="M 193.444394 224.64 
L 194.954694 224.64 
L 194.954694 41.238576 
L 193.444394 41.238576 
z
" clip-path="url(#p3b19a888ca)" style="fill: #1f77b4"/>
   </g>
   <g id="patch_92">
    <path d="M 194.954694 224.64 
L 196.464993 224.64 
L 196.464993 56.420813 
L 194.954694 56.420813 
z
" clip-path="url(#p3b19a888ca)" style="fill: #1f77b4"/>
   </g>
   <g id="patch_93">
    <path d="M 196.464993 224.64 
L 197.975292 224.64 
L 197.975292 27.878207 
L 196.464993 27.878207 
z
" clip-path="url(#p3b19a888ca)" style="fill: #1f77b4"/>
   </g>
   <g id="patch_94">
    <path d="M 197.975292 224.64 
L 199.485592 224.64 
L 199.485592 31.521944 
L 197.975292 31.521944 
z
" clip-path="url(#p3b19a888ca)" style="fill: #1f77b4"/>
   </g>
   <g id="patch_95">
    <path d="M 199.485592 224.64 
L 200.995891 224.64 
L 200.995891 29.700075 
L 199.485592 29.700075 
z
" clip-path="url(#p3b19a888ca)" style="fill: #1f77b4"/>
   </g>
   <g id="patch_96">
    <path d="M 200.995891 224.64 
L 202.506191 224.64 
L 202.506191 24.23447 
L 200.995891 24.23447 
z
" clip-path="url(#p3b19a888ca)" style="fill: #1f77b4"/>
   </g>
   <g id="patch_97">
    <path d="M 202.506191 224.64 
L 204.01649 224.64 
L 204.01649 49.133339 
L 202.506191 49.133339 
z
" clip-path="url(#p3b19a888ca)" style="fill: #1f77b4"/>
   </g>
   <g id="patch_98">
    <path d="M 204.01649 224.64 
L 205.526789 224.64 
L 205.526789 32.736523 
L 204.01649 32.736523 
z
" clip-path="url(#p3b19a888ca)" style="fill: #1f77b4"/>
   </g>
   <g id="patch_99">
    <path d="M 205.526789 224.64 
L 207.037089 224.64 
L 207.037089 31.521944 
L 205.526789 31.521944 
z
" clip-path="url(#p3b19a888ca)" style="fill: #1f77b4"/>
   </g>
   <g id="patch_100">
    <path d="M 207.037089 224.64 
L 208.547388 224.64 
L 208.547388 46.096891 
L 207.037089 46.096891 
z
" clip-path="url(#p3b19a888ca)" style="fill: #1f77b4"/>
   </g>
   <g id="patch_101">
    <path d="M 208.547388 224.64 
L 210.057688 224.64 
L 210.057688 38.202128 
L 208.547388 38.202128 
z
" clip-path="url(#p3b19a888ca)" style="fill: #1f77b4"/>
   </g>
   <g id="patch_102">
    <path d="M 210.057688 224.64 
L 211.567987 224.64 
L 211.567987 33.951102 
L 210.057688 33.951102 
z
" clip-path="url(#p3b19a888ca)" style="fill: #1f77b4"/>
   </g>
   <g id="patch_103">
    <path d="M 211.567987 224.64 
L 213.078286 224.64 
L 213.078286 43.060444 
L 211.567987 43.060444 
z
" clip-path="url(#p3b19a888ca)" style="fill: #1f77b4"/>
   </g>
   <g id="patch_104">
    <path d="M 213.078286 224.64 
L 214.588586 224.64 
L 214.588586 42.453155 
L 213.078286 42.453155 
z
" clip-path="url(#p3b19a888ca)" style="fill: #1f77b4"/>
   </g>
   <g id="patch_105">
    <path d="M 214.588586 224.64 
L 216.098885 224.64 
L 216.098885 35.77297 
L 214.588586 35.77297 
z
" clip-path="url(#p3b19a888ca)" style="fill: #1f77b4"/>
   </g>
   <g id="patch_106">
    <path d="M 216.098885 224.64 
L 217.609185 224.64 
L 217.609185 26.663628 
L 216.098885 26.663628 
z
" clip-path="url(#p3b19a888ca)" style="fill: #1f77b4"/>
   </g>
   <g id="patch_107">
    <path d="M 217.609185 224.64 
L 219.119484 224.64 
L 219.119484 33.343812 
L 217.609185 33.343812 
z
" clip-path="url(#p3b19a888ca)" style="fill: #1f77b4"/>
   </g>
   <g id="patch_108">
    <path d="M 219.119484 224.64 
L 220.629783 224.64 
L 220.629783 35.165681 
L 219.119484 35.165681 
z
" clip-path="url(#p3b19a888ca)" style="fill: #1f77b4"/>
   </g>
   <g id="patch_109">
    <path d="M 220.629783 224.64 
L 222.140083 224.64 
L 222.140083 32.736523 
L 220.629783 32.736523 
z
" clip-path="url(#p3b19a888ca)" style="fill: #1f77b4"/>
   </g>
   <g id="patch_110">
    <path d="M 222.140083 224.64 
L 223.650382 224.64 
L 223.650382 55.206234 
L 222.140083 55.206234 
z
" clip-path="url(#p3b19a888ca)" style="fill: #1f77b4"/>
   </g>
   <g id="patch_111">
    <path d="M 223.650382 224.64 
L 225.160682 224.64 
L 225.160682 24.84176 
L 223.650382 24.84176 
z
" clip-path="url(#p3b19a888ca)" style="fill: #1f77b4"/>
   </g>
   <g id="patch_112">
    <path d="M 225.160682 224.64 
L 226.670981 224.64 
L 226.670981 40.023997 
L 225.160682 40.023997 
z
" clip-path="url(#p3b19a888ca)" style="fill: #1f77b4"/>
   </g>
   <g id="patch_113">
    <path d="M 226.670981 224.64 
L 228.18128 224.64 
L 228.18128 61.279129 
L 226.670981 61.279129 
z
" clip-path="url(#p3b19a888ca)" style="fill: #1f77b4"/>
   </g>
   <g id="patch_114">
    <path d="M 228.18128 224.64 
L 229.69158 224.64 
L 229.69158 23.627181 
L 228.18128 23.627181 
z
" clip-path="url(#p3b19a888ca)" style="fill: #1f77b4"/>
   </g>
   <g id="patch_115">
    <path d="M 229.69158 224.64 
L 231.201879 224.64 
L 231.201879 37.594839 
L 229.69158 37.594839 
z
" clip-path="url(#p3b19a888ca)" style="fill: #1f77b4"/>
   </g>
   <g id="patch_116">
    <path d="M 231.201879 224.64 
L 232.712179 224.64 
L 232.712179 17.554286 
L 231.201879 17.554286 
z
" clip-path="url(#p3b19a888ca)" style="fill: #1f77b4"/>
   </g>
   <g id="patch_117">
    <path d="M 232.712179 224.64 
L 234.222478 224.64 
L 234.222478 32.129233 
L 232.712179 32.129233 
z
" clip-path="url(#p3b19a888ca)" style="fill: #1f77b4"/>
   </g>
   <g id="patch_118">
    <path d="M 234.222478 224.64 
L 235.732777 224.64 
L 235.732777 33.951102 
L 234.222478 33.951102 
z
" clip-path="url(#p3b19a888ca)" style="fill: #1f77b4"/>
   </g>
   <g id="patch_119">
    <path d="M 235.732777 224.64 
L 237.243077 224.64 
L 237.243077 54.598944 
L 235.732777 54.598944 
z
" clip-path="url(#p3b19a888ca)" style="fill: #1f77b4"/>
   </g>
   <g id="patch_120">
    <path d="M 237.243077 224.64 
L 238.753376 224.64 
L 238.753376 48.526049 
L 237.243077 48.526049 
z
" clip-path="url(#p3b19a888ca)" style="fill: #1f77b4"/>
   </g>
   <g id="patch_121">
    <path d="M 238.753376 224.64 
L 240.263676 224.64 
L 240.263676 44.882313 
L 238.753376 44.882313 
z
" clip-path="url(#p3b19a888ca)" style="fill: #1f77b4"/>
   </g>
   <g id="patch_122">
    <path d="M 240.263676 224.64 
L 241.773975 224.64 
L 241.773975 40.023997 
L 240.263676 40.023997 
z
" clip-path="url(#p3b19a888ca)" style="fill: #1f77b4"/>
   </g>
   <g id="patch_123">
    <path d="M 241.773975 224.64 
L 243.284274 224.64 
L 243.284274 44.275023 
L 241.773975 44.275023 
z
" clip-path="url(#p3b19a888ca)" style="fill: #1f77b4"/>
   </g>
   <g id="patch_124">
    <path d="M 243.284274 224.64 
L 244.794574 224.64 
L 244.794574 58.242681 
L 243.284274 58.242681 
z
" clip-path="url(#p3b19a888ca)" style="fill: #1f77b4"/>
   </g>
   <g id="patch_125">
    <path d="M 244.794574 224.64 
L 246.304873 224.64 
L 246.304873 61.279129 
L 244.794574 61.279129 
z
" clip-path="url(#p3b19a888ca)" style="fill: #1f77b4"/>
   </g>
   <g id="patch_126">
    <path d="M 246.304873 224.64 
L 247.815173 224.64 
L 247.815173 41.238576 
L 246.304873 41.238576 
z
" clip-path="url(#p3b19a888ca)" style="fill: #1f77b4"/>
   </g>
   <g id="patch_127">
    <path d="M 247.815173 224.64 
L 249.325472 224.64 
L 249.325472 44.882313 
L 247.815173 44.882313 
z
" clip-path="url(#p3b19a888ca)" style="fill: #1f77b4"/>
   </g>
   <g id="patch_128">
    <path d="M 249.325472 224.64 
L 250.835771 224.64 
L 250.835771 60.671839 
L 249.325472 60.671839 
z
" clip-path="url(#p3b19a888ca)" style="fill: #1f77b4"/>
   </g>
   <g id="patch_129">
    <path d="M 250.835771 224.64 
L 252.346071 224.64 
L 252.346071 55.813523 
L 250.835771 55.813523 
z
" clip-path="url(#p3b19a888ca)" style="fill: #1f77b4"/>
   </g>
   <g id="patch_130">
    <path d="M 252.346071 224.64 
L 253.85637 224.64 
L 253.85637 39.416707 
L 252.346071 39.416707 
z
" clip-path="url(#p3b19a888ca)" style="fill: #1f77b4"/>
   </g>
   <g id="patch_131">
    <path d="M 253.85637 224.64 
L 255.36667 224.64 
L 255.36667 34.558391 
L 253.85637 34.558391 
z
" clip-path="url(#p3b19a888ca)" style="fill: #1f77b4"/>
   </g>
   <g id="patch_132">
    <path d="M 255.36667 224.64 
L 256.876969 224.64 
L 256.876969 60.06455 
L 255.36667 60.06455 
z
" clip-path="url(#p3b19a888ca)" style="fill: #1f77b4"/>
   </g>
   <g id="patch_133">
    <path d="M 256.876969 224.64 
L 258.387268 224.64 
L 258.387268 39.416707 
L 256.876969 39.416707 
z
" clip-path="url(#p3b19a888ca)" style="fill: #1f77b4"/>
   </g>
   <g id="patch_134">
    <path d="M 258.387268 224.64 
L 259.897568 224.64 
L 259.897568 59.45726 
L 258.387268 59.45726 
z
" clip-path="url(#p3b19a888ca)" style="fill: #1f77b4"/>
   </g>
   <g id="patch_135">
    <path d="M 259.897568 224.64 
L 261.407867 224.64 
L 261.407867 64.315576 
L 259.897568 64.315576 
z
" clip-path="url(#p3b19a888ca)" style="fill: #1f77b4"/>
   </g>
   <g id="patch_136">
    <path d="M 261.407867 224.64 
L 262.918167 224.64 
L 262.918167 61.279129 
L 261.407867 61.279129 
z
" clip-path="url(#p3b19a888ca)" style="fill: #1f77b4"/>
   </g>
   <g id="patch_137">
    <path d="M 262.918167 224.64 
L 264.428466 224.64 
L 264.428466 70.388471 
L 262.918167 70.388471 
z
" clip-path="url(#p3b19a888ca)" style="fill: #1f77b4"/>
   </g>
   <g id="patch_138">
    <path d="M 264.428466 224.64 
L 265.938765 224.64 
L 265.938765 81.926971 
L 264.428466 81.926971 
z
" clip-path="url(#p3b19a888ca)" style="fill: #1f77b4"/>
   </g>
   <g id="patch_139">
    <path d="M 265.938765 224.64 
L 267.449065 224.64 
L 267.449065 68.566602 
L 265.938765 68.566602 
z
" clip-path="url(#p3b19a888ca)" style="fill: #1f77b4"/>
   </g>
   <g id="patch_140">
    <path d="M 267.449065 224.64 
L 268.959364 224.64 
L 268.959364 52.777076 
L 267.449065 52.777076 
z
" clip-path="url(#p3b19a888ca)" style="fill: #1f77b4"/>
   </g>
   <g id="patch_141">
    <path d="M 268.959364 224.64 
L 270.469664 224.64 
L 270.469664 78.890524 
L 268.959364 78.890524 
z
" clip-path="url(#p3b19a888ca)" style="fill: #1f77b4"/>
   </g>
   <g id="patch_142">
    <path d="M 270.469664 224.64 
L 271.979963 224.64 
L 271.979963 82.534261 
L 270.469664 82.534261 
z
" clip-path="url(#p3b19a888ca)" style="fill: #1f77b4"/>
   </g>
   <g id="patch_143">
    <path d="M 271.979963 224.64 
L 273.490262 224.64 
L 273.490262 72.210339 
L 271.979963 72.210339 
z
" clip-path="url(#p3b19a888ca)" style="fill: #1f77b4"/>
   </g>
   <g id="patch_144">
    <path d="M 273.490262 224.64 
L 275.000562 224.64 
L 275.000562 78.890524 
L 273.490262 78.890524 
z
" clip-path="url(#p3b19a888ca)" style="fill: #1f77b4"/>
   </g>
   <g id="patch_145">
    <path d="M 275.000562 224.64 
L 276.510861 224.64 
L 276.510861 57.635392 
L 275.000562 57.635392 
z
" clip-path="url(#p3b19a888ca)" style="fill: #1f77b4"/>
   </g>
   <g id="patch_146">
    <path d="M 276.510861 224.64 
L 278.021161 224.64 
L 278.021161 66.744734 
L 276.510861 66.744734 
z
" clip-path="url(#p3b19a888ca)" style="fill: #1f77b4"/>
   </g>
   <g id="patch_147">
    <path d="M 278.021161 224.64 
L 279.53146 224.64 
L 279.53146 77.675945 
L 278.021161 77.675945 
z
" clip-path="url(#p3b19a888ca)" style="fill: #1f77b4"/>
   </g>
   <g id="patch_148">
    <path d="M 279.53146 224.64 
L 281.041759 224.64 
L 281.041759 83.74884 
L 279.53146 83.74884 
z
" clip-path="url(#p3b19a888ca)" style="fill: #1f77b4"/>
   </g>
   <g id="patch_149">
    <path d="M 281.041759 224.64 
L 282.552059 224.64 
L 282.552059 95.28734 
L 281.041759 95.28734 
z
" clip-path="url(#p3b19a888ca)" style="fill: #1f77b4"/>
   </g>
   <g id="patch_150">
    <path d="M 282.552059 224.64 
L 284.062358 224.64 
L 284.062358 91.036313 
L 282.552059 91.036313 
z
" clip-path="url(#p3b19a888ca)" style="fill: #1f77b4"/>
   </g>
   <g id="patch_151">
    <path d="M 284.062358 224.64 
L 285.572658 224.64 
L 285.572658 92.250892 
L 284.062358 92.250892 
z
" clip-path="url(#p3b19a888ca)" style="fill: #1f77b4"/>
   </g>
   <g id="patch_152">
    <path d="M 285.572658 224.64 
L 287.082957 224.64 
L 287.082957 84.356129 
L 285.572658 84.356129 
z
" clip-path="url(#p3b19a888ca)" style="fill: #1f77b4"/>
   </g>
   <g id="patch_153">
    <path d="M 287.082957 224.64 
L 288.593256 224.64 
L 288.593256 89.821734 
L 287.082957 89.821734 
z
" clip-path="url(#p3b19a888ca)" style="fill: #1f77b4"/>
   </g>
   <g id="patch_154">
    <path d="M 288.593256 224.64 
L 290.103556 224.64 
L 290.103556 94.68005 
L 288.593256 94.68005 
z
" clip-path="url(#p3b19a888ca)" style="fill: #1f77b4"/>
   </g>
   <g id="patch_155">
    <path d="M 290.103556 224.64 
L 291.613855 224.64 
L 291.613855 101.360235 
L 290.103556 101.360235 
z
" clip-path="url(#p3b19a888ca)" style="fill: #1f77b4"/>
   </g>
   <g id="patch_156">
    <path d="M 291.613855 224.64 
L 293.124155 224.64 
L 293.124155 95.894629 
L 291.613855 95.894629 
z
" clip-path="url(#p3b19a888ca)" style="fill: #1f77b4"/>
   </g>
   <g id="patch_157">
    <path d="M 293.124155 224.64 
L 294.634454 224.64 
L 294.634454 100.145656 
L 293.124155 100.145656 
z
" clip-path="url(#p3b19a888ca)" style="fill: #1f77b4"/>
   </g>
   <g id="patch_158">
    <path d="M 294.634454 224.64 
L 296.144753 224.64 
L 296.144753 96.501919 
L 294.634454 96.501919 
z
" clip-path="url(#p3b19a888ca)" style="fill: #1f77b4"/>
   </g>
   <g id="patch_159">
    <path d="M 296.144753 224.64 
L 297.655053 224.64 
L 297.655053 95.894629 
L 296.144753 95.894629 
z
" clip-path="url(#p3b19a888ca)" style="fill: #1f77b4"/>
   </g>
   <g id="patch_160">
    <path d="M 297.655053 224.64 
L 299.165352 224.64 
L 299.165352 98.323787 
L 297.655053 98.323787 
z
" clip-path="url(#p3b19a888ca)" style="fill: #1f77b4"/>
   </g>
   <g id="patch_161">
    <path d="M 299.165352 224.64 
L 300.675652 224.64 
L 300.675652 115.935182 
L 299.165352 115.935182 
z
" clip-path="url(#p3b19a888ca)" style="fill: #1f77b4"/>
   </g>
   <g id="patch_162">
    <path d="M 300.675652 224.64 
L 302.185951 224.64 
L 302.185951 100.752945 
L 300.675652 100.752945 
z
" clip-path="url(#p3b19a888ca)" style="fill: #1f77b4"/>
   </g>
   <g id="patch_163">
    <path d="M 302.185951 224.64 
L 303.69625 224.64 
L 303.69625 109.254998 
L 302.185951 109.254998 
z
" clip-path="url(#p3b19a888ca)" style="fill: #1f77b4"/>
   </g>
   <g id="patch_164">
    <path d="M 303.69625 224.64 
L 305.20655 224.64 
L 305.20655 117.149761 
L 303.69625 117.149761 
z
" clip-path="url(#p3b19a888ca)" style="fill: #1f77b4"/>
   </g>
   <g id="patch_165">
    <path d="M 305.20655 224.64 
L 306.716849 224.64 
L 306.716849 102.574814 
L 305.20655 102.574814 
z
" clip-path="url(#p3b19a888ca)" style="fill: #1f77b4"/>
   </g>
   <g id="patch_166">
    <path d="M 306.716849 224.64 
L 308.227149 224.64 
L 308.227149 122.008077 
L 306.716849 122.008077 
z
" clip-path="url(#p3b19a888ca)" style="fill: #1f77b4"/>
   </g>
   <g id="patch_167">
    <path d="M 308.227149 224.64 
L 309.737448 224.64 
L 309.737448 114.720603 
L 308.227149 114.720603 
z
" clip-path="url(#p3b19a888ca)" style="fill: #1f77b4"/>
   </g>
   <g id="patch_168">
    <path d="M 309.737448 224.64 
L 311.247747 224.64 
L 311.247747 130.51013 
L 309.737448 130.51013 
z
" clip-path="url(#p3b19a888ca)" style="fill: #1f77b4"/>
   </g>
   <g id="patch_169">
    <path d="M 311.247747 224.64 
L 312.758047 224.64 
L 312.758047 133.546577 
L 311.247747 133.546577 
z
" clip-path="url(#p3b19a888ca)" style="fill: #1f77b4"/>
   </g>
   <g id="patch_170">
    <path d="M 312.758047 224.64 
L 314.268346 224.64 
L 314.268346 135.975735 
L 312.758047 135.975735 
z
" clip-path="url(#p3b19a888ca)" style="fill: #1f77b4"/>
   </g>
   <g id="patch_171">
    <path d="M 314.268346 224.64 
L 315.778646 224.64 
L 315.778646 135.368446 
L 314.268346 135.368446 
z
" clip-path="url(#p3b19a888ca)" style="fill: #1f77b4"/>
   </g>
   <g id="patch_172">
    <path d="M 315.778646 224.64 
L 317.288945 224.64 
L 317.288945 131.117419 
L 315.778646 131.117419 
z
" clip-path="url(#p3b19a888ca)" style="fill: #1f77b4"/>
   </g>
   <g id="patch_173">
    <path d="M 317.288945 224.64 
L 318.799244 224.64 
L 318.799244 135.975735 
L 317.288945 135.975735 
z
" clip-path="url(#p3b19a888ca)" style="fill: #1f77b4"/>
   </g>
   <g id="patch_174">
    <path d="M 318.799244 224.64 
L 320.309544 224.64 
L 320.309544 150.550683 
L 318.799244 150.550683 
z
" clip-path="url(#p3b19a888ca)" style="fill: #1f77b4"/>
   </g>
   <g id="patch_175">
    <path d="M 320.309544 224.64 
L 321.819843 224.64 
L 321.819843 148.728814 
L 320.309544 148.728814 
z
" clip-path="url(#p3b19a888ca)" style="fill: #1f77b4"/>
   </g>
   <g id="patch_176">
    <path d="M 321.819843 224.64 
L 323.330143 224.64 
L 323.330143 151.157972 
L 321.819843 151.157972 
z
" clip-path="url(#p3b19a888ca)" style="fill: #1f77b4"/>
   </g>
   <g id="patch_177">
    <path d="M 323.330143 224.64 
L 324.840442 224.64 
L 324.840442 155.408999 
L 323.330143 155.408999 
z
" clip-path="url(#p3b19a888ca)" style="fill: #1f77b4"/>
   </g>
   <g id="patch_178">
    <path d="M 324.840442 224.64 
L 326.350741 224.64 
L 326.350741 157.838157 
L 324.840442 157.838157 
z
" clip-path="url(#p3b19a888ca)" style="fill: #1f77b4"/>
   </g>
   <g id="patch_179">
    <path d="M 326.350741 224.64 
L 327.861041 224.64 
L 327.861041 153.58713 
L 326.350741 153.58713 
z
" clip-path="url(#p3b19a888ca)" style="fill: #1f77b4"/>
   </g>
   <g id="patch_180">
    <path d="M 327.861041 224.64 
L 329.37134 224.64 
L 329.37134 157.838157 
L 327.861041 157.838157 
z
" clip-path="url(#p3b19a888ca)" style="fill: #1f77b4"/>
   </g>
   <g id="patch_181">
    <path d="M 329.37134 224.64 
L 330.88164 224.64 
L 330.88164 160.874604 
L 329.37134 160.874604 
z
" clip-path="url(#p3b19a888ca)" style="fill: #1f77b4"/>
   </g>
   <g id="patch_182">
    <path d="M 330.88164 224.64 
L 332.391939 224.64 
L 332.391939 163.911052 
L 330.88164 163.911052 
z
" clip-path="url(#p3b19a888ca)" style="fill: #1f77b4"/>
   </g>
   <g id="patch_183">
    <path d="M 332.391939 224.64 
L 333.902238 224.64 
L 333.902238 173.627683 
L 332.391939 173.627683 
z
" clip-path="url(#p3b19a888ca)" style="fill: #1f77b4"/>
   </g>
   <g id="patch_184">
    <path d="M 333.902238 224.64 
L 335.412538 224.64 
L 335.412538 170.591236 
L 333.902238 170.591236 
z
" clip-path="url(#p3b19a888ca)" style="fill: #1f77b4"/>
   </g>
   <g id="patch_185">
    <path d="M 335.412538 224.64 
L 336.922837 224.64 
L 336.922837 173.627683 
L 335.412538 173.627683 
z
" clip-path="url(#p3b19a888ca)" style="fill: #1f77b4"/>
   </g>
   <g id="patch_186">
    <path d="M 336.922837 224.64 
L 338.433137 224.64 
L 338.433137 173.627683 
L 336.922837 173.627683 
z
" clip-path="url(#p3b19a888ca)" style="fill: #1f77b4"/>
   </g>
   <g id="patch_187">
    <path d="M 338.433137 224.64 
L 339.943436 224.64 
L 339.943436 180.307868 
L 338.433137 180.307868 
z
" clip-path="url(#p3b19a888ca)" style="fill: #1f77b4"/>
   </g>
   <g id="patch_188">
    <path d="M 339.943436 224.64 
L 341.453735 224.64 
L 341.453735 177.27142 
L 339.943436 177.27142 
z
" clip-path="url(#p3b19a888ca)" style="fill: #1f77b4"/>
   </g>
   <g id="patch_189">
    <path d="M 341.453735 224.64 
L 342.964035 224.64 
L 342.964035 186.380762 
L 341.453735 186.380762 
z
" clip-path="url(#p3b19a888ca)" style="fill: #1f77b4"/>
   </g>
   <g id="patch_190">
    <path d="M 342.964035 224.64 
L 344.474334 224.64 
L 344.474334 184.558894 
L 342.964035 184.558894 
z
" clip-path="url(#p3b19a888ca)" style="fill: #1f77b4"/>
   </g>
   <g id="patch_191">
    <path d="M 344.474334 224.64 
L 345.984633 224.64 
L 345.984633 191.846368 
L 344.474334 191.846368 
z
" clip-path="url(#p3b19a888ca)" style="fill: #1f77b4"/>
   </g>
   <g id="patch_192">
    <path d="M 345.984633 224.64 
L 347.494933 224.64 
L 347.494933 193.060947 
L 345.984633 193.060947 
z
" clip-path="url(#p3b19a888ca)" style="fill: #1f77b4"/>
   </g>
   <g id="patch_193">
    <path d="M 347.494933 224.64 
L 349.005232 224.64 
L 349.005232 191.846368 
L 347.494933 191.846368 
z
" clip-path="url(#p3b19a888ca)" style="fill: #1f77b4"/>
   </g>
   <g id="patch_194">
    <path d="M 349.005232 224.64 
L 350.515532 224.64 
L 350.515532 196.097394 
L 349.005232 196.097394 
z
" clip-path="url(#p3b19a888ca)" style="fill: #1f77b4"/>
   </g>
   <g id="patch_195">
    <path d="M 350.515532 224.64 
L 352.025831 224.64 
L 352.025831 197.919263 
L 350.515532 197.919263 
z
" clip-path="url(#p3b19a888ca)" style="fill: #1f77b4"/>
   </g>
   <g id="patch_196">
    <path d="M 352.025831 224.64 
L 353.53613 224.64 
L 353.53613 202.170289 
L 352.025831 202.170289 
z
" clip-path="url(#p3b19a888ca)" style="fill: #1f77b4"/>
   </g>
   <g id="patch_197">
    <path d="M 353.53613 224.64 
L 355.04643 224.64 
L 355.04643 212.49421 
L 353.53613 212.49421 
z
" clip-path="url(#p3b19a888ca)" style="fill: #1f77b4"/>
   </g>
   <g id="patch_198">
    <path d="M 355.04643 224.64 
L 356.556729 224.64 
L 356.556729 212.49421 
L 355.04643 212.49421 
z
" clip-path="url(#p3b19a888ca)" style="fill: #1f77b4"/>
   </g>
   <g id="patch_199">
    <path d="M 356.556729 224.64 
L 358.067029 224.64 
L 358.067029 208.850473 
L 356.556729 208.850473 
z
" clip-path="url(#p3b19a888ca)" style="fill: #1f77b4"/>
   </g>
   <g id="patch_200">
    <path d="M 358.067029 224.64 
L 359.577328 224.64 
L 359.577328 217.959816 
L 358.067029 217.959816 
z
" clip-path="url(#p3b19a888ca)" style="fill: #1f77b4"/>
   </g>
   <g id="patch_201">
    <path d="M 359.577328 224.64 
L 361.087627 224.64 
L 361.087627 221.603553 
L 359.577328 221.603553 
z
" clip-path="url(#p3b19a888ca)" style="fill: #1f77b4"/>
   </g>
   <g id="patch_202">
    <path d="M 361.087627 224.64 
L 362.597927 224.64 
L 362.597927 222.818132 
L 361.087627 222.818132 
z
" clip-path="url(#p3b19a888ca)" style="fill: #1f77b4"/>
   </g>
   <g id="matplotlib.axis_1">
    <g id="xtick_1">
     <g id="line2d_1">
      <defs>
       <path id="m17b0e3e648" d="M 0 0 
L 0 3.5 
" style="stroke: #000000; stroke-width: 0.8"/>
      </defs>
      <g>
       <use xlink:href="#m17b0e3e648" x="58.999432" y="224.64" style="stroke: #000000; stroke-width: 0.8"/>
      </g>
     </g>
     <g id="text_1">
      <!-- 0.0 -->
      <g transform="translate(51.047869 239.238437)scale(0.1 -0.1)">
       <defs>
        <path id="DejaVuSans-30" d="M 2034 4250 
Q 1547 4250 1301 3770 
Q 1056 3291 1056 2328 
Q 1056 1369 1301 889 
Q 1547 409 2034 409 
Q 2525 409 2770 889 
Q 3016 1369 3016 2328 
Q 3016 3291 2770 3770 
Q 2525 4250 2034 4250 
z
M 2034 4750 
Q 2819 4750 3233 4129 
Q 3647 3509 3647 2328 
Q 3647 1150 3233 529 
Q 2819 -91 2034 -91 
Q 1250 -91 836 529 
Q 422 1150 422 2328 
Q 422 3509 836 4129 
Q 1250 4750 2034 4750 
z
" transform="scale(0.015625)"/>
        <path id="DejaVuSans-2e" d="M 684 794 
L 1344 794 
L 1344 0 
L 684 0 
L 684 794 
z
" transform="scale(0.015625)"/>
       </defs>
       <use xlink:href="#DejaVuSans-30"/>
       <use xlink:href="#DejaVuSans-2e" x="63.623047"/>
       <use xlink:href="#DejaVuSans-30" x="95.410156"/>
      </g>
     </g>
    </g>
    <g id="xtick_2">
     <g id="line2d_2">
      <g>
       <use xlink:href="#m17b0e3e648" x="97.752214" y="224.64" style="stroke: #000000; stroke-width: 0.8"/>
      </g>
     </g>
     <g id="text_2">
      <!-- 0.2 -->
      <g transform="translate(89.800651 239.238437)scale(0.1 -0.1)">
       <defs>
        <path id="DejaVuSans-32" d="M 1228 531 
L 3431 531 
L 3431 0 
L 469 0 
L 469 531 
Q 828 903 1448 1529 
Q 2069 2156 2228 2338 
Q 2531 2678 2651 2914 
Q 2772 3150 2772 3378 
Q 2772 3750 2511 3984 
Q 2250 4219 1831 4219 
Q 1534 4219 1204 4116 
Q 875 4013 500 3803 
L 500 4441 
Q 881 4594 1212 4672 
Q 1544 4750 1819 4750 
Q 2544 4750 2975 4387 
Q 3406 4025 3406 3419 
Q 3406 3131 3298 2873 
Q 3191 2616 2906 2266 
Q 2828 2175 2409 1742 
Q 1991 1309 1228 531 
z
" transform="scale(0.015625)"/>
       </defs>
       <use xlink:href="#DejaVuSans-30"/>
       <use xlink:href="#DejaVuSans-2e" x="63.623047"/>
       <use xlink:href="#DejaVuSans-32" x="95.410156"/>
      </g>
     </g>
    </g>
    <g id="xtick_3">
     <g id="line2d_3">
      <g>
       <use xlink:href="#m17b0e3e648" x="136.504995" y="224.64" style="stroke: #000000; stroke-width: 0.8"/>
      </g>
     </g>
     <g id="text_3">
      <!-- 0.4 -->
      <g transform="translate(128.553433 239.238437)scale(0.1 -0.1)">
       <defs>
        <path id="DejaVuSans-34" d="M 2419 4116 
L 825 1625 
L 2419 1625 
L 2419 4116 
z
M 2253 4666 
L 3047 4666 
L 3047 1625 
L 3713 1625 
L 3713 1100 
L 3047 1100 
L 3047 0 
L 2419 0 
L 2419 1100 
L 313 1100 
L 313 1709 
L 2253 4666 
z
" transform="scale(0.015625)"/>
       </defs>
       <use xlink:href="#DejaVuSans-30"/>
       <use xlink:href="#DejaVuSans-2e" x="63.623047"/>
       <use xlink:href="#DejaVuSans-34" x="95.410156"/>
      </g>
     </g>
    </g>
    <g id="xtick_4">
     <g id="line2d_4">
      <g>
       <use xlink:href="#m17b0e3e648" x="175.257777" y="224.64" style="stroke: #000000; stroke-width: 0.8"/>
      </g>
     </g>
     <g id="text_4">
      <!-- 0.6 -->
      <g transform="translate(167.306215 239.238437)scale(0.1 -0.1)">
       <defs>
        <path id="DejaVuSans-36" d="M 2113 2584 
Q 1688 2584 1439 2293 
Q 1191 2003 1191 1497 
Q 1191 994 1439 701 
Q 1688 409 2113 409 
Q 2538 409 2786 701 
Q 3034 994 3034 1497 
Q 3034 2003 2786 2293 
Q 2538 2584 2113 2584 
z
M 3366 4563 
L 3366 3988 
Q 3128 4100 2886 4159 
Q 2644 4219 2406 4219 
Q 1781 4219 1451 3797 
Q 1122 3375 1075 2522 
Q 1259 2794 1537 2939 
Q 1816 3084 2150 3084 
Q 2853 3084 3261 2657 
Q 3669 2231 3669 1497 
Q 3669 778 3244 343 
Q 2819 -91 2113 -91 
Q 1303 -91 875 529 
Q 447 1150 447 2328 
Q 447 3434 972 4092 
Q 1497 4750 2381 4750 
Q 2619 4750 2861 4703 
Q 3103 4656 3366 4563 
z
" transform="scale(0.015625)"/>
       </defs>
       <use xlink:href="#DejaVuSans-30"/>
       <use xlink:href="#DejaVuSans-2e" x="63.623047"/>
       <use xlink:href="#DejaVuSans-36" x="95.410156"/>
      </g>
     </g>
    </g>
    <g id="xtick_5">
     <g id="line2d_5">
      <g>
       <use xlink:href="#m17b0e3e648" x="214.010559" y="224.64" style="stroke: #000000; stroke-width: 0.8"/>
      </g>
     </g>
     <g id="text_5">
      <!-- 0.8 -->
      <g transform="translate(206.058996 239.238437)scale(0.1 -0.1)">
       <defs>
        <path id="DejaVuSans-38" d="M 2034 2216 
Q 1584 2216 1326 1975 
Q 1069 1734 1069 1313 
Q 1069 891 1326 650 
Q 1584 409 2034 409 
Q 2484 409 2743 651 
Q 3003 894 3003 1313 
Q 3003 1734 2745 1975 
Q 2488 2216 2034 2216 
z
M 1403 2484 
Q 997 2584 770 2862 
Q 544 3141 544 3541 
Q 544 4100 942 4425 
Q 1341 4750 2034 4750 
Q 2731 4750 3128 4425 
Q 3525 4100 3525 3541 
Q 3525 3141 3298 2862 
Q 3072 2584 2669 2484 
Q 3125 2378 3379 2068 
Q 3634 1759 3634 1313 
Q 3634 634 3220 271 
Q 2806 -91 2034 -91 
Q 1263 -91 848 271 
Q 434 634 434 1313 
Q 434 1759 690 2068 
Q 947 2378 1403 2484 
z
M 1172 3481 
Q 1172 3119 1398 2916 
Q 1625 2713 2034 2713 
Q 2441 2713 2670 2916 
Q 2900 3119 2900 3481 
Q 2900 3844 2670 4047 
Q 2441 4250 2034 4250 
Q 1625 4250 1398 4047 
Q 1172 3844 1172 3481 
z
" transform="scale(0.015625)"/>
       </defs>
       <use xlink:href="#DejaVuSans-30"/>
       <use xlink:href="#DejaVuSans-2e" x="63.623047"/>
       <use xlink:href="#DejaVuSans-38" x="95.410156"/>
      </g>
     </g>
    </g>
    <g id="xtick_6">
     <g id="line2d_6">
      <g>
       <use xlink:href="#m17b0e3e648" x="252.763341" y="224.64" style="stroke: #000000; stroke-width: 0.8"/>
      </g>
     </g>
     <g id="text_6">
      <!-- 1.0 -->
      <g transform="translate(244.811778 239.238437)scale(0.1 -0.1)">
       <defs>
        <path id="DejaVuSans-31" d="M 794 531 
L 1825 531 
L 1825 4091 
L 703 3866 
L 703 4441 
L 1819 4666 
L 2450 4666 
L 2450 531 
L 3481 531 
L 3481 0 
L 794 0 
L 794 531 
z
" transform="scale(0.015625)"/>
       </defs>
       <use xlink:href="#DejaVuSans-31"/>
       <use xlink:href="#DejaVuSans-2e" x="63.623047"/>
       <use xlink:href="#DejaVuSans-30" x="95.410156"/>
      </g>
     </g>
    </g>
    <g id="xtick_7">
     <g id="line2d_7">
      <g>
       <use xlink:href="#m17b0e3e648" x="291.516122" y="224.64" style="stroke: #000000; stroke-width: 0.8"/>
      </g>
     </g>
     <g id="text_7">
      <!-- 1.2 -->
      <g transform="translate(283.56456 239.238437)scale(0.1 -0.1)">
       <use xlink:href="#DejaVuSans-31"/>
       <use xlink:href="#DejaVuSans-2e" x="63.623047"/>
       <use xlink:href="#DejaVuSans-32" x="95.410156"/>
      </g>
     </g>
    </g>
    <g id="xtick_8">
     <g id="line2d_8">
      <g>
       <use xlink:href="#m17b0e3e648" x="330.268904" y="224.64" style="stroke: #000000; stroke-width: 0.8"/>
      </g>
     </g>
     <g id="text_8">
      <!-- 1.4 -->
      <g transform="translate(322.317342 239.238437)scale(0.1 -0.1)">
       <use xlink:href="#DejaVuSans-31"/>
       <use xlink:href="#DejaVuSans-2e" x="63.623047"/>
       <use xlink:href="#DejaVuSans-34" x="95.410156"/>
      </g>
     </g>
    </g>
    <g id="xtick_9">
     <g id="line2d_9">
      <g>
       <use xlink:href="#m17b0e3e648" x="369.021686" y="224.64" style="stroke: #000000; stroke-width: 0.8"/>
      </g>
     </g>
     <g id="text_9">
      <!-- 1.6 -->
      <g transform="translate(361.070124 239.238437)scale(0.1 -0.1)">
       <use xlink:href="#DejaVuSans-31"/>
       <use xlink:href="#DejaVuSans-2e" x="63.623047"/>
       <use xlink:href="#DejaVuSans-36" x="95.410156"/>
      </g>
     </g>
    </g>
    <g id="text_10">
     <!-- Angle with normal (rad) -->
     <g transform="translate(151.863281 252.916562)scale(0.1 -0.1)">
      <defs>
       <path id="DejaVuSans-41" d="M 2188 4044 
L 1331 1722 
L 3047 1722 
L 2188 4044 
z
M 1831 4666 
L 2547 4666 
L 4325 0 
L 3669 0 
L 3244 1197 
L 1141 1197 
L 716 0 
L 50 0 
L 1831 4666 
z
" transform="scale(0.015625)"/>
       <path id="DejaVuSans-6e" d="M 3513 2113 
L 3513 0 
L 2938 0 
L 2938 2094 
Q 2938 2591 2744 2837 
Q 2550 3084 2163 3084 
Q 1697 3084 1428 2787 
Q 1159 2491 1159 1978 
L 1159 0 
L 581 0 
L 581 3500 
L 1159 3500 
L 1159 2956 
Q 1366 3272 1645 3428 
Q 1925 3584 2291 3584 
Q 2894 3584 3203 3211 
Q 3513 2838 3513 2113 
z
" transform="scale(0.015625)"/>
       <path id="DejaVuSans-67" d="M 2906 1791 
Q 2906 2416 2648 2759 
Q 2391 3103 1925 3103 
Q 1463 3103 1205 2759 
Q 947 2416 947 1791 
Q 947 1169 1205 825 
Q 1463 481 1925 481 
Q 2391 481 2648 825 
Q 2906 1169 2906 1791 
z
M 3481 434 
Q 3481 -459 3084 -895 
Q 2688 -1331 1869 -1331 
Q 1566 -1331 1297 -1286 
Q 1028 -1241 775 -1147 
L 775 -588 
Q 1028 -725 1275 -790 
Q 1522 -856 1778 -856 
Q 2344 -856 2625 -561 
Q 2906 -266 2906 331 
L 2906 616 
Q 2728 306 2450 153 
Q 2172 0 1784 0 
Q 1141 0 747 490 
Q 353 981 353 1791 
Q 353 2603 747 3093 
Q 1141 3584 1784 3584 
Q 2172 3584 2450 3431 
Q 2728 3278 2906 2969 
L 2906 3500 
L 3481 3500 
L 3481 434 
z
" transform="scale(0.015625)"/>
       <path id="DejaVuSans-6c" d="M 603 4863 
L 1178 4863 
L 1178 0 
L 603 0 
L 603 4863 
z
" transform="scale(0.015625)"/>
       <path id="DejaVuSans-65" d="M 3597 1894 
L 3597 1613 
L 953 1613 
Q 991 1019 1311 708 
Q 1631 397 2203 397 
Q 2534 397 2845 478 
Q 3156 559 3463 722 
L 3463 178 
Q 3153 47 2828 -22 
Q 2503 -91 2169 -91 
Q 1331 -91 842 396 
Q 353 884 353 1716 
Q 353 2575 817 3079 
Q 1281 3584 2069 3584 
Q 2775 3584 3186 3129 
Q 3597 2675 3597 1894 
z
M 3022 2063 
Q 3016 2534 2758 2815 
Q 2500 3097 2075 3097 
Q 1594 3097 1305 2825 
Q 1016 2553 972 2059 
L 3022 2063 
z
" transform="scale(0.015625)"/>
       <path id="DejaVuSans-20" transform="scale(0.015625)"/>
       <path id="DejaVuSans-77" d="M 269 3500 
L 844 3500 
L 1563 769 
L 2278 3500 
L 2956 3500 
L 3675 769 
L 4391 3500 
L 4966 3500 
L 4050 0 
L 3372 0 
L 2619 2869 
L 1863 0 
L 1184 0 
L 269 3500 
z
" transform="scale(0.015625)"/>
       <path id="DejaVuSans-69" d="M 603 3500 
L 1178 3500 
L 1178 0 
L 603 0 
L 603 3500 
z
M 603 4863 
L 1178 4863 
L 1178 4134 
L 603 4134 
L 603 4863 
z
" transform="scale(0.015625)"/>
       <path id="DejaVuSans-74" d="M 1172 4494 
L 1172 3500 
L 2356 3500 
L 2356 3053 
L 1172 3053 
L 1172 1153 
Q 1172 725 1289 603 
Q 1406 481 1766 481 
L 2356 481 
L 2356 0 
L 1766 0 
Q 1100 0 847 248 
Q 594 497 594 1153 
L 594 3053 
L 172 3053 
L 172 3500 
L 594 3500 
L 594 4494 
L 1172 4494 
z
" transform="scale(0.015625)"/>
       <path id="DejaVuSans-68" d="M 3513 2113 
L 3513 0 
L 2938 0 
L 2938 2094 
Q 2938 2591 2744 2837 
Q 2550 3084 2163 3084 
Q 1697 3084 1428 2787 
Q 1159 2491 1159 1978 
L 1159 0 
L 581 0 
L 581 4863 
L 1159 4863 
L 1159 2956 
Q 1366 3272 1645 3428 
Q 1925 3584 2291 3584 
Q 2894 3584 3203 3211 
Q 3513 2838 3513 2113 
z
" transform="scale(0.015625)"/>
       <path id="DejaVuSans-6f" d="M 1959 3097 
Q 1497 3097 1228 2736 
Q 959 2375 959 1747 
Q 959 1119 1226 758 
Q 1494 397 1959 397 
Q 2419 397 2687 759 
Q 2956 1122 2956 1747 
Q 2956 2369 2687 2733 
Q 2419 3097 1959 3097 
z
M 1959 3584 
Q 2709 3584 3137 3096 
Q 3566 2609 3566 1747 
Q 3566 888 3137 398 
Q 2709 -91 1959 -91 
Q 1206 -91 779 398 
Q 353 888 353 1747 
Q 353 2609 779 3096 
Q 1206 3584 1959 3584 
z
" transform="scale(0.015625)"/>
       <path id="DejaVuSans-72" d="M 2631 2963 
Q 2534 3019 2420 3045 
Q 2306 3072 2169 3072 
Q 1681 3072 1420 2755 
Q 1159 2438 1159 1844 
L 1159 0 
L 581 0 
L 581 3500 
L 1159 3500 
L 1159 2956 
Q 1341 3275 1631 3429 
Q 1922 3584 2338 3584 
Q 2397 3584 2469 3576 
Q 2541 3569 2628 3553 
L 2631 2963 
z
" transform="scale(0.015625)"/>
       <path id="DejaVuSans-6d" d="M 3328 2828 
Q 3544 3216 3844 3400 
Q 4144 3584 4550 3584 
Q 5097 3584 5394 3201 
Q 5691 2819 5691 2113 
L 5691 0 
L 5113 0 
L 5113 2094 
Q 5113 2597 4934 2840 
Q 4756 3084 4391 3084 
Q 3944 3084 3684 2787 
Q 3425 2491 3425 1978 
L 3425 0 
L 2847 0 
L 2847 2094 
Q 2847 2600 2669 2842 
Q 2491 3084 2119 3084 
Q 1678 3084 1418 2786 
Q 1159 2488 1159 1978 
L 1159 0 
L 581 0 
L 581 3500 
L 1159 3500 
L 1159 2956 
Q 1356 3278 1631 3431 
Q 1906 3584 2284 3584 
Q 2666 3584 2933 3390 
Q 3200 3197 3328 2828 
z
" transform="scale(0.015625)"/>
       <path id="DejaVuSans-61" d="M 2194 1759 
Q 1497 1759 1228 1600 
Q 959 1441 959 1056 
Q 959 750 1161 570 
Q 1363 391 1709 391 
Q 2188 391 2477 730 
Q 2766 1069 2766 1631 
L 2766 1759 
L 2194 1759 
z
M 3341 1997 
L 3341 0 
L 2766 0 
L 2766 531 
Q 2569 213 2275 61 
Q 1981 -91 1556 -91 
Q 1019 -91 701 211 
Q 384 513 384 1019 
Q 384 1609 779 1909 
Q 1175 2209 1959 2209 
L 2766 2209 
L 2766 2266 
Q 2766 2663 2505 2880 
Q 2244 3097 1772 3097 
Q 1472 3097 1187 3025 
Q 903 2953 641 2809 
L 641 3341 
Q 956 3463 1253 3523 
Q 1550 3584 1831 3584 
Q 2591 3584 2966 3190 
Q 3341 2797 3341 1997 
z
" transform="scale(0.015625)"/>
       <path id="DejaVuSans-28" d="M 1984 4856 
Q 1566 4138 1362 3434 
Q 1159 2731 1159 2009 
Q 1159 1288 1364 580 
Q 1569 -128 1984 -844 
L 1484 -844 
Q 1016 -109 783 600 
Q 550 1309 550 2009 
Q 550 2706 781 3412 
Q 1013 4119 1484 4856 
L 1984 4856 
z
" transform="scale(0.015625)"/>
       <path id="DejaVuSans-64" d="M 2906 2969 
L 2906 4863 
L 3481 4863 
L 3481 0 
L 2906 0 
L 2906 525 
Q 2725 213 2448 61 
Q 2172 -91 1784 -91 
Q 1150 -91 751 415 
Q 353 922 353 1747 
Q 353 2572 751 3078 
Q 1150 3584 1784 3584 
Q 2172 3584 2448 3432 
Q 2725 3281 2906 2969 
z
M 947 1747 
Q 947 1113 1208 752 
Q 1469 391 1925 391 
Q 2381 391 2643 752 
Q 2906 1113 2906 1747 
Q 2906 2381 2643 2742 
Q 2381 3103 1925 3103 
Q 1469 3103 1208 2742 
Q 947 2381 947 1747 
z
" transform="scale(0.015625)"/>
       <path id="DejaVuSans-29" d="M 513 4856 
L 1013 4856 
Q 1481 4119 1714 3412 
Q 1947 2706 1947 2009 
Q 1947 1309 1714 600 
Q 1481 -109 1013 -844 
L 513 -844 
Q 928 -128 1133 580 
Q 1338 1288 1338 2009 
Q 1338 2731 1133 3434 
Q 928 4138 513 4856 
z
" transform="scale(0.015625)"/>
      </defs>
      <use xlink:href="#DejaVuSans-41"/>
      <use xlink:href="#DejaVuSans-6e" x="68.408203"/>
      <use xlink:href="#DejaVuSans-67" x="131.787109"/>
      <use xlink:href="#DejaVuSans-6c" x="195.263672"/>
      <use xlink:href="#DejaVuSans-65" x="223.046875"/>
      <use xlink:href="#DejaVuSans-20" x="284.570312"/>
      <use xlink:href="#DejaVuSans-77" x="316.357422"/>
      <use xlink:href="#DejaVuSans-69" x="398.144531"/>
      <use xlink:href="#DejaVuSans-74" x="425.927734"/>
      <use xlink:href="#DejaVuSans-68" x="465.136719"/>
      <use xlink:href="#DejaVuSans-20" x="528.515625"/>
      <use xlink:href="#DejaVuSans-6e" x="560.302734"/>
      <use xlink:href="#DejaVuSans-6f" x="623.681641"/>
      <use xlink:href="#DejaVuSans-72" x="684.863281"/>
      <use xlink:href="#DejaVuSans-6d" x="724.226562"/>
      <use xlink:href="#DejaVuSans-61" x="821.638672"/>
      <use xlink:href="#DejaVuSans-6c" x="882.917969"/>
      <use xlink:href="#DejaVuSans-20" x="910.701172"/>
      <use xlink:href="#DejaVuSans-28" x="942.488281"/>
      <use xlink:href="#DejaVuSans-72" x="981.501953"/>
      <use xlink:href="#DejaVuSans-61" x="1022.615234"/>
      <use xlink:href="#DejaVuSans-64" x="1083.894531"/>
      <use xlink:href="#DejaVuSans-29" x="1147.371094"/>
     </g>
    </g>
   </g>
   <g id="matplotlib.axis_2">
    <g id="ytick_1">
     <g id="line2d_10">
      <defs>
       <path id="mbd62230873" d="M 0 0 
L -3.5 0 
" style="stroke: #000000; stroke-width: 0.8"/>
      </defs>
      <g>
       <use xlink:href="#mbd62230873" x="43.78125" y="224.64" style="stroke: #000000; stroke-width: 0.8"/>
      </g>
     </g>
     <g id="text_11">
      <!-- 0.0 -->
      <g transform="translate(20.878125 228.439219)scale(0.1 -0.1)">
       <use xlink:href="#DejaVuSans-30"/>
       <use xlink:href="#DejaVuSans-2e" x="63.623047"/>
       <use xlink:href="#DejaVuSans-30" x="95.410156"/>
      </g>
     </g>
    </g>
    <g id="ytick_2">
     <g id="line2d_11">
      <g>
       <use xlink:href="#mbd62230873" x="43.78125" y="186.771691" style="stroke: #000000; stroke-width: 0.8"/>
      </g>
     </g>
     <g id="text_12">
      <!-- 0.2 -->
      <g transform="translate(20.878125 190.57091)scale(0.1 -0.1)">
       <use xlink:href="#DejaVuSans-30"/>
       <use xlink:href="#DejaVuSans-2e" x="63.623047"/>
       <use xlink:href="#DejaVuSans-32" x="95.410156"/>
      </g>
     </g>
    </g>
    <g id="ytick_3">
     <g id="line2d_12">
      <g>
       <use xlink:href="#mbd62230873" x="43.78125" y="148.903382" style="stroke: #000000; stroke-width: 0.8"/>
      </g>
     </g>
     <g id="text_13">
      <!-- 0.4 -->
      <g transform="translate(20.878125 152.702601)scale(0.1 -0.1)">
       <use xlink:href="#DejaVuSans-30"/>
       <use xlink:href="#DejaVuSans-2e" x="63.623047"/>
       <use xlink:href="#DejaVuSans-34" x="95.410156"/>
      </g>
     </g>
    </g>
    <g id="ytick_4">
     <g id="line2d_13">
      <g>
       <use xlink:href="#mbd62230873" x="43.78125" y="111.035073" style="stroke: #000000; stroke-width: 0.8"/>
      </g>
     </g>
     <g id="text_14">
      <!-- 0.6 -->
      <g transform="translate(20.878125 114.834292)scale(0.1 -0.1)">
       <use xlink:href="#DejaVuSans-30"/>
       <use xlink:href="#DejaVuSans-2e" x="63.623047"/>
       <use xlink:href="#DejaVuSans-36" x="95.410156"/>
      </g>
     </g>
    </g>
    <g id="ytick_5">
     <g id="line2d_14">
      <g>
       <use xlink:href="#mbd62230873" x="43.78125" y="73.166765" style="stroke: #000000; stroke-width: 0.8"/>
      </g>
     </g>
     <g id="text_15">
      <!-- 0.8 -->
      <g transform="translate(20.878125 76.965983)scale(0.1 -0.1)">
       <use xlink:href="#DejaVuSans-30"/>
       <use xlink:href="#DejaVuSans-2e" x="63.623047"/>
       <use xlink:href="#DejaVuSans-38" x="95.410156"/>
      </g>
     </g>
    </g>
    <g id="ytick_6">
     <g id="line2d_15">
      <g>
       <use xlink:href="#mbd62230873" x="43.78125" y="35.298456" style="stroke: #000000; stroke-width: 0.8"/>
      </g>
     </g>
     <g id="text_16">
      <!-- 1.0 -->
      <g transform="translate(20.878125 39.097674)scale(0.1 -0.1)">
       <use xlink:href="#DejaVuSans-31"/>
       <use xlink:href="#DejaVuSans-2e" x="63.623047"/>
       <use xlink:href="#DejaVuSans-30" x="95.410156"/>
      </g>
     </g>
    </g>
    <g id="text_17">
     <!-- Probability density -->
     <g transform="translate(14.798438 162.270781)rotate(-90)scale(0.1 -0.1)">
      <defs>
       <path id="DejaVuSans-50" d="M 1259 4147 
L 1259 2394 
L 2053 2394 
Q 2494 2394 2734 2622 
Q 2975 2850 2975 3272 
Q 2975 3691 2734 3919 
Q 2494 4147 2053 4147 
L 1259 4147 
z
M 628 4666 
L 2053 4666 
Q 2838 4666 3239 4311 
Q 3641 3956 3641 3272 
Q 3641 2581 3239 2228 
Q 2838 1875 2053 1875 
L 1259 1875 
L 1259 0 
L 628 0 
L 628 4666 
z
" transform="scale(0.015625)"/>
       <path id="DejaVuSans-62" d="M 3116 1747 
Q 3116 2381 2855 2742 
Q 2594 3103 2138 3103 
Q 1681 3103 1420 2742 
Q 1159 2381 1159 1747 
Q 1159 1113 1420 752 
Q 1681 391 2138 391 
Q 2594 391 2855 752 
Q 3116 1113 3116 1747 
z
M 1159 2969 
Q 1341 3281 1617 3432 
Q 1894 3584 2278 3584 
Q 2916 3584 3314 3078 
Q 3713 2572 3713 1747 
Q 3713 922 3314 415 
Q 2916 -91 2278 -91 
Q 1894 -91 1617 61 
Q 1341 213 1159 525 
L 1159 0 
L 581 0 
L 581 4863 
L 1159 4863 
L 1159 2969 
z
" transform="scale(0.015625)"/>
       <path id="DejaVuSans-79" d="M 2059 -325 
Q 1816 -950 1584 -1140 
Q 1353 -1331 966 -1331 
L 506 -1331 
L 506 -850 
L 844 -850 
Q 1081 -850 1212 -737 
Q 1344 -625 1503 -206 
L 1606 56 
L 191 3500 
L 800 3500 
L 1894 763 
L 2988 3500 
L 3597 3500 
L 2059 -325 
z
" transform="scale(0.015625)"/>
       <path id="DejaVuSans-73" d="M 2834 3397 
L 2834 2853 
Q 2591 2978 2328 3040 
Q 2066 3103 1784 3103 
Q 1356 3103 1142 2972 
Q 928 2841 928 2578 
Q 928 2378 1081 2264 
Q 1234 2150 1697 2047 
L 1894 2003 
Q 2506 1872 2764 1633 
Q 3022 1394 3022 966 
Q 3022 478 2636 193 
Q 2250 -91 1575 -91 
Q 1294 -91 989 -36 
Q 684 19 347 128 
L 347 722 
Q 666 556 975 473 
Q 1284 391 1588 391 
Q 1994 391 2212 530 
Q 2431 669 2431 922 
Q 2431 1156 2273 1281 
Q 2116 1406 1581 1522 
L 1381 1569 
Q 847 1681 609 1914 
Q 372 2147 372 2553 
Q 372 3047 722 3315 
Q 1072 3584 1716 3584 
Q 2034 3584 2315 3537 
Q 2597 3491 2834 3397 
z
" transform="scale(0.015625)"/>
      </defs>
      <use xlink:href="#DejaVuSans-50"/>
      <use xlink:href="#DejaVuSans-72" x="58.552734"/>
      <use xlink:href="#DejaVuSans-6f" x="97.416016"/>
      <use xlink:href="#DejaVuSans-62" x="158.597656"/>
      <use xlink:href="#DejaVuSans-61" x="222.074219"/>
      <use xlink:href="#DejaVuSans-62" x="283.353516"/>
      <use xlink:href="#DejaVuSans-69" x="346.830078"/>
      <use xlink:href="#DejaVuSans-6c" x="374.613281"/>
      <use xlink:href="#DejaVuSans-69" x="402.396484"/>
      <use xlink:href="#DejaVuSans-74" x="430.179688"/>
      <use xlink:href="#DejaVuSans-79" x="469.388672"/>
      <use xlink:href="#DejaVuSans-20" x="528.568359"/>
      <use xlink:href="#DejaVuSans-64" x="560.355469"/>
      <use xlink:href="#DejaVuSans-65" x="623.832031"/>
      <use xlink:href="#DejaVuSans-6e" x="685.355469"/>
      <use xlink:href="#DejaVuSans-73" x="748.734375"/>
      <use xlink:href="#DejaVuSans-69" x="800.833984"/>
      <use xlink:href="#DejaVuSans-74" x="828.617188"/>
      <use xlink:href="#DejaVuSans-79" x="867.826172"/>
     </g>
    </g>
   </g>
   <g id="line2d_16">
    <path d="M 58.999432 224.64 
L 77.888867 187.956827 
L 87.942921 168.911888 
L 96.473633 153.214829 
L 104.090341 139.66367 
L 111.097712 127.658328 
L 117.495746 117.138292 
L 123.589112 107.554279 
L 129.37781 98.877763 
L 134.86184 91.071456 
L 140.041201 84.09129 
L 144.915894 77.888237 
L 149.485918 72.409942 
L 154.055943 67.270312 
L 158.321299 62.788975 
L 162.586655 58.621306 
L 166.852012 54.775381 
L 170.8127 51.498783 
L 174.773388 48.511517 
L 178.429407 46.015169 
L 182.085427 43.773164 
L 185.741447 41.788696 
L 189.397466 40.06459 
L 193.053486 38.603301 
L 196.404837 37.496448 
L 199.756189 36.613511 
L 203.10754 35.955546 
L 206.458891 35.523342 
L 209.810243 35.317414 
L 213.161594 35.33801 
L 216.512945 35.585105 
L 219.864297 36.058403 
L 223.215648 36.757338 
L 226.566999 37.681074 
L 229.918351 38.828505 
L 233.269702 40.198259 
L 236.925722 41.944161 
L 240.581741 43.950203 
L 244.237761 46.21353 
L 247.893781 48.730918 
L 251.854469 51.740624 
L 255.815157 55.039257 
L 259.775845 58.621306 
L 264.041201 62.788975 
L 268.306557 67.270312 
L 272.876582 72.409942 
L 277.446606 77.888237 
L 282.321299 84.09129 
L 287.195992 90.650093 
L 292.375353 97.990033 
L 297.859383 106.155708 
L 303.64808 115.186243 
L 309.741447 125.113459 
L 316.139481 135.959893 
L 323.146852 148.281145 
L 330.76356 162.124525 
L 339.59894 178.660832 
L 350.262331 199.114492 
L 363.363068 224.64 
L 363.363068 224.64 
" clip-path="url(#p3b19a888ca)" style="fill: none; stroke: #ff7f0e; stroke-width: 1.5; stroke-linecap: square"/>
   </g>
   <g id="patch_203">
    <path d="M 43.78125 224.64 
L 43.78125 7.2 
" style="fill: none; stroke: #000000; stroke-width: 0.8; stroke-linejoin: miter; stroke-linecap: square"/>
   </g>
   <g id="patch_204">
    <path d="M 378.58125 224.64 
L 378.58125 7.2 
" style="fill: none; stroke: #000000; stroke-width: 0.8; stroke-linejoin: miter; stroke-linecap: square"/>
   </g>
   <g id="patch_205">
    <path d="M 43.78125 224.64 
L 378.58125 224.64 
" style="fill: none; stroke: #000000; stroke-width: 0.8; stroke-linejoin: miter; stroke-linecap: square"/>
   </g>
   <g id="patch_206">
    <path d="M 43.78125 7.2 
L 378.58125 7.2 
" style="fill: none; stroke: #000000; stroke-width: 0.8; stroke-linejoin: miter; stroke-linecap: square"/>
   </g>
  </g>
 </g>
 <defs>
  <clipPath id="p3b19a888ca">
   <rect x="43.78125" y="7.2" width="334.8" height="217.44"/>
  </clipPath>
 </defs>
</svg>
