<?xml version="1.0" encoding="utf-8" standalone="no"?>
<!DOCTYPE svg PUBLIC "-//W3C//DTD SVG 1.1//EN"
  "http://www.w3.org/Graphics/SVG/1.1/DTD/svg11.dtd">
<svg xmlns:xlink="http://www.w3.org/1999/xlink" width="385.78125pt" height="262.19625pt" viewBox="0 0 385.78125 262.19625" xmlns="http://www.w3.org/2000/svg" version="1.1">
 <metadata>
  <rdf:RDF xmlns:dc="http://purl.org/dc/elements/1.1/" xmlns:cc="http://creativecommons.org/ns#" xmlns:rdf="http://www.w3.org/1999/02/22-rdf-syntax-ns#">
   <cc:Work>
    <dc:type rdf:resource="http://purl.org/dc/dcmitype/StillImage"/>
    <dc:date>2022-07-15T22:40:01.133707</dc:date>
    <dc:format>image/svg+xml</dc:format>
    <dc:creator>
     <cc:Agent>
      <dc:title>Matplotlib v3.5.2, https://matplotlib.org/</dc:title>
     </cc:Agent>
    </dc:creator>
   </cc:Work>
  </rdf:RDF>
 </metadata>
 <defs>
  <style type="text/css">*{stroke-linejoin: round; stroke-linecap: butt}</style>
 </defs>
 <g id="figure_1">
  <g id="patch_1">
   <path d="M 0 262.19625 
L 385.78125 262.19625 
L 385.78125 0 
L 0 0 
L 0 262.19625 
z
" style="fill: none"/>
  </g>
  <g id="axes_1">
   <g id="patch_2">
    <path d="M 43.78125 224.64 
L 378.58125 224.64 
L 378.58125 7.2 
L 43.78125 7.2 
z
" style="fill: #ffffff"/>
   </g>
   <g id="patch_3">
    <path d="M 60.318229 224.64 
L 61.825651 224.64 
L 61.825651 218.513204 
L 60.318229 218.513204 
z
" clip-path="url(#pd2c10ffcbd)" style="fill: #1f77b4"/>
   </g>
   <g id="patch_4">
    <path d="M 61.825651 224.64 
L 63.333073 224.64 
L 63.333073 219.738563 
L 61.825651 219.738563 
z
" clip-path="url(#pd2c10ffcbd)" style="fill: #1f77b4"/>
   </g>
   <g id="patch_5">
    <path d="M 63.333073 224.64 
L 64.840496 224.64 
L 64.840496 219.125883 
L 63.333073 219.125883 
z
" clip-path="url(#pd2c10ffcbd)" style="fill: #1f77b4"/>
   </g>
   <g id="patch_6">
    <path d="M 64.840496 224.64 
L 66.347918 224.64 
L 66.347918 213.611767 
L 64.840496 213.611767 
z
" clip-path="url(#pd2c10ffcbd)" style="fill: #1f77b4"/>
   </g>
   <g id="patch_7">
    <path d="M 66.347918 224.64 
L 67.85534 224.64 
L 67.85534 209.323009 
L 66.347918 209.323009 
z
" clip-path="url(#pd2c10ffcbd)" style="fill: #1f77b4"/>
   </g>
   <g id="patch_8">
    <path d="M 67.85534 224.64 
L 69.362762 224.64 
L 69.362762 201.358174 
L 67.85534 201.358174 
z
" clip-path="url(#pd2c10ffcbd)" style="fill: #1f77b4"/>
   </g>
   <g id="patch_9">
    <path d="M 69.362762 224.64 
L 70.870185 224.64 
L 70.870185 202.583533 
L 69.362762 202.583533 
z
" clip-path="url(#pd2c10ffcbd)" style="fill: #1f77b4"/>
   </g>
   <g id="patch_10">
    <path d="M 70.870185 224.64 
L 72.377607 224.64 
L 72.377607 203.808893 
L 70.870185 203.808893 
z
" clip-path="url(#pd2c10ffcbd)" style="fill: #1f77b4"/>
   </g>
   <g id="patch_11">
    <path d="M 72.377607 224.64 
L 73.885029 224.64 
L 73.885029 197.682096 
L 72.377607 197.682096 
z
" clip-path="url(#pd2c10ffcbd)" style="fill: #1f77b4"/>
   </g>
   <g id="patch_12">
    <path d="M 73.885029 224.64 
L 75.392452 224.64 
L 75.392452 189.104582 
L 73.885029 189.104582 
z
" clip-path="url(#pd2c10ffcbd)" style="fill: #1f77b4"/>
   </g>
   <g id="patch_13">
    <path d="M 75.392452 224.64 
L 76.899874 224.64 
L 76.899874 194.618698 
L 75.392452 194.618698 
z
" clip-path="url(#pd2c10ffcbd)" style="fill: #1f77b4"/>
   </g>
   <g id="patch_14">
    <path d="M 76.899874 224.64 
L 78.407296 224.64 
L 78.407296 176.238309 
L 76.899874 176.238309 
z
" clip-path="url(#pd2c10ffcbd)" style="fill: #1f77b4"/>
   </g>
   <g id="patch_15">
    <path d="M 78.407296 224.64 
L 79.914718 224.64 
L 79.914718 186.041183 
L 78.407296 186.041183 
z
" clip-path="url(#pd2c10ffcbd)" style="fill: #1f77b4"/>
   </g>
   <g id="patch_16">
    <path d="M 79.914718 224.64 
L 81.422141 224.64 
L 81.422141 175.62563 
L 79.914718 175.62563 
z
" clip-path="url(#pd2c10ffcbd)" style="fill: #1f77b4"/>
   </g>
   <g id="patch_17">
    <path d="M 81.422141 224.64 
L 82.929563 224.64 
L 82.929563 181.752426 
L 81.422141 181.752426 
z
" clip-path="url(#pd2c10ffcbd)" style="fill: #1f77b4"/>
   </g>
   <g id="patch_18">
    <path d="M 82.929563 224.64 
L 84.436985 224.64 
L 84.436985 170.111513 
L 82.929563 170.111513 
z
" clip-path="url(#pd2c10ffcbd)" style="fill: #1f77b4"/>
   </g>
   <g id="patch_19">
    <path d="M 84.436985 224.64 
L 85.944408 224.64 
L 85.944408 160.921319 
L 84.436985 160.921319 
z
" clip-path="url(#pd2c10ffcbd)" style="fill: #1f77b4"/>
   </g>
   <g id="patch_20">
    <path d="M 85.944408 224.64 
L 87.45183 224.64 
L 87.45183 178.076348 
L 85.944408 178.076348 
z
" clip-path="url(#pd2c10ffcbd)" style="fill: #1f77b4"/>
   </g>
   <g id="patch_21">
    <path d="M 87.45183 224.64 
L 88.959252 224.64 
L 88.959252 165.822756 
L 87.45183 165.822756 
z
" clip-path="url(#pd2c10ffcbd)" style="fill: #1f77b4"/>
   </g>
   <g id="patch_22">
    <path d="M 88.959252 224.64 
L 90.466674 224.64 
L 90.466674 164.597396 
L 88.959252 164.597396 
z
" clip-path="url(#pd2c10ffcbd)" style="fill: #1f77b4"/>
   </g>
   <g id="patch_23">
    <path d="M 90.466674 224.64 
L 91.974097 224.64 
L 91.974097 163.984717 
L 90.466674 163.984717 
z
" clip-path="url(#pd2c10ffcbd)" style="fill: #1f77b4"/>
   </g>
   <g id="patch_24">
    <path d="M 91.974097 224.64 
L 93.481519 224.64 
L 93.481519 160.921319 
L 91.974097 160.921319 
z
" clip-path="url(#pd2c10ffcbd)" style="fill: #1f77b4"/>
   </g>
   <g id="patch_25">
    <path d="M 93.481519 224.64 
L 94.988941 224.64 
L 94.988941 151.731124 
L 93.481519 151.731124 
z
" clip-path="url(#pd2c10ffcbd)" style="fill: #1f77b4"/>
   </g>
   <g id="patch_26">
    <path d="M 94.988941 224.64 
L 96.496363 224.64 
L 96.496363 153.569163 
L 94.988941 153.569163 
z
" clip-path="url(#pd2c10ffcbd)" style="fill: #1f77b4"/>
   </g>
   <g id="patch_27">
    <path d="M 96.496363 224.64 
L 98.003786 224.64 
L 98.003786 145.604328 
L 96.496363 145.604328 
z
" clip-path="url(#pd2c10ffcbd)" style="fill: #1f77b4"/>
   </g>
   <g id="patch_28">
    <path d="M 98.003786 224.64 
L 99.511208 224.64 
L 99.511208 150.505765 
L 98.003786 150.505765 
z
" clip-path="url(#pd2c10ffcbd)" style="fill: #1f77b4"/>
   </g>
   <g id="patch_29">
    <path d="M 99.511208 224.64 
L 101.01863 224.64 
L 101.01863 141.315571 
L 99.511208 141.315571 
z
" clip-path="url(#pd2c10ffcbd)" style="fill: #1f77b4"/>
   </g>
   <g id="patch_30">
    <path d="M 101.01863 224.64 
L 102.526053 224.64 
L 102.526053 158.4706 
L 101.01863 158.4706 
z
" clip-path="url(#pd2c10ffcbd)" style="fill: #1f77b4"/>
   </g>
   <g id="patch_31">
    <path d="M 102.526053 224.64 
L 104.033475 224.64 
L 104.033475 144.991648 
L 102.526053 144.991648 
z
" clip-path="url(#pd2c10ffcbd)" style="fill: #1f77b4"/>
   </g>
   <g id="patch_32">
    <path d="M 104.033475 224.64 
L 105.540897 224.64 
L 105.540897 124.773221 
L 104.033475 124.773221 
z
" clip-path="url(#pd2c10ffcbd)" style="fill: #1f77b4"/>
   </g>
   <g id="patch_33">
    <path d="M 105.540897 224.64 
L 107.048319 224.64 
L 107.048319 146.829687 
L 105.540897 146.829687 
z
" clip-path="url(#pd2c10ffcbd)" style="fill: #1f77b4"/>
   </g>
   <g id="patch_34">
    <path d="M 107.048319 224.64 
L 108.555742 224.64 
L 108.555742 125.99858 
L 107.048319 125.99858 
z
" clip-path="url(#pd2c10ffcbd)" style="fill: #1f77b4"/>
   </g>
   <g id="patch_35">
    <path d="M 108.555742 224.64 
L 110.063164 224.64 
L 110.063164 140.090211 
L 108.555742 140.090211 
z
" clip-path="url(#pd2c10ffcbd)" style="fill: #1f77b4"/>
   </g>
   <g id="patch_36">
    <path d="M 110.063164 224.64 
L 111.570586 224.64 
L 111.570586 123.547861 
L 110.063164 123.547861 
z
" clip-path="url(#pd2c10ffcbd)" style="fill: #1f77b4"/>
   </g>
   <g id="patch_37">
    <path d="M 111.570586 224.64 
L 113.078008 224.64 
L 113.078008 118.033745 
L 111.570586 118.033745 
z
" clip-path="url(#pd2c10ffcbd)" style="fill: #1f77b4"/>
   </g>
   <g id="patch_38">
    <path d="M 113.078008 224.64 
L 114.585431 224.64 
L 114.585431 115.583026 
L 113.078008 115.583026 
z
" clip-path="url(#pd2c10ffcbd)" style="fill: #1f77b4"/>
   </g>
   <g id="patch_39">
    <path d="M 114.585431 224.64 
L 116.092853 224.64 
L 116.092853 105.167473 
L 114.585431 105.167473 
z
" clip-path="url(#pd2c10ffcbd)" style="fill: #1f77b4"/>
   </g>
   <g id="patch_40">
    <path d="M 116.092853 224.64 
L 117.600275 224.64 
L 117.600275 108.230871 
L 116.092853 108.230871 
z
" clip-path="url(#pd2c10ffcbd)" style="fill: #1f77b4"/>
   </g>
   <g id="patch_41">
    <path d="M 117.600275 224.64 
L 119.107698 224.64 
L 119.107698 125.99858 
L 117.600275 125.99858 
z
" clip-path="url(#pd2c10ffcbd)" style="fill: #1f77b4"/>
   </g>
   <g id="patch_42">
    <path d="M 119.107698 224.64 
L 120.61512 224.64 
L 120.61512 125.99858 
L 119.107698 125.99858 
z
" clip-path="url(#pd2c10ffcbd)" style="fill: #1f77b4"/>
   </g>
   <g id="patch_43">
    <path d="M 120.61512 224.64 
L 122.122542 224.64 
L 122.122542 107.618191 
L 120.61512 107.618191 
z
" clip-path="url(#pd2c10ffcbd)" style="fill: #1f77b4"/>
   </g>
   <g id="patch_44">
    <path d="M 122.122542 224.64 
L 123.629964 224.64 
L 123.629964 91.688521 
L 122.122542 91.688521 
z
" clip-path="url(#pd2c10ffcbd)" style="fill: #1f77b4"/>
   </g>
   <g id="patch_45">
    <path d="M 123.629964 224.64 
L 125.137387 224.64 
L 125.137387 106.392832 
L 123.629964 106.392832 
z
" clip-path="url(#pd2c10ffcbd)" style="fill: #1f77b4"/>
   </g>
   <g id="patch_46">
    <path d="M 125.137387 224.64 
L 126.644809 224.64 
L 126.644809 96.589958 
L 125.137387 96.589958 
z
" clip-path="url(#pd2c10ffcbd)" style="fill: #1f77b4"/>
   </g>
   <g id="patch_47">
    <path d="M 126.644809 224.64 
L 128.152231 224.64 
L 128.152231 93.52656 
L 126.644809 93.52656 
z
" clip-path="url(#pd2c10ffcbd)" style="fill: #1f77b4"/>
   </g>
   <g id="patch_48">
    <path d="M 128.152231 224.64 
L 129.659654 224.64 
L 129.659654 94.139239 
L 128.152231 94.139239 
z
" clip-path="url(#pd2c10ffcbd)" style="fill: #1f77b4"/>
   </g>
   <g id="patch_49">
    <path d="M 129.659654 224.64 
L 131.167076 224.64 
L 131.167076 97.815317 
L 129.659654 97.815317 
z
" clip-path="url(#pd2c10ffcbd)" style="fill: #1f77b4"/>
   </g>
   <g id="patch_50">
    <path d="M 131.167076 224.64 
L 132.674498 224.64 
L 132.674498 89.237802 
L 131.167076 89.237802 
z
" clip-path="url(#pd2c10ffcbd)" style="fill: #1f77b4"/>
   </g>
   <g id="patch_51">
    <path d="M 132.674498 224.64 
L 134.18192 224.64 
L 134.18192 84.336365 
L 132.674498 84.336365 
z
" clip-path="url(#pd2c10ffcbd)" style="fill: #1f77b4"/>
   </g>
   <g id="patch_52">
    <path d="M 134.18192 224.64 
L 135.689343 224.64 
L 135.689343 65.343297 
L 134.18192 65.343297 
z
" clip-path="url(#pd2c10ffcbd)" style="fill: #1f77b4"/>
   </g>
   <g id="patch_53">
    <path d="M 135.689343 224.64 
L 137.196765 224.64 
L 137.196765 86.787084 
L 135.689343 86.787084 
z
" clip-path="url(#pd2c10ffcbd)" style="fill: #1f77b4"/>
   </g>
   <g id="patch_54">
    <path d="M 137.196765 224.64 
L 138.704187 224.64 
L 138.704187 84.336365 
L 137.196765 84.336365 
z
" clip-path="url(#pd2c10ffcbd)" style="fill: #1f77b4"/>
   </g>
   <g id="patch_55">
    <path d="M 138.704187 224.64 
L 140.211609 224.64 
L 140.211609 88.625123 
L 138.704187 88.625123 
z
" clip-path="url(#pd2c10ffcbd)" style="fill: #1f77b4"/>
   </g>
   <g id="patch_56">
    <path d="M 140.211609 224.64 
L 141.719032 224.64 
L 141.719032 79.434928 
L 140.211609 79.434928 
z
" clip-path="url(#pd2c10ffcbd)" style="fill: #1f77b4"/>
   </g>
   <g id="patch_57">
    <path d="M 141.719032 224.64 
L 143.226454 224.64 
L 143.226454 84.336365 
L 141.719032 84.336365 
z
" clip-path="url(#pd2c10ffcbd)" style="fill: #1f77b4"/>
   </g>
   <g id="patch_58">
    <path d="M 143.226454 224.64 
L 144.733876 224.64 
L 144.733876 82.498326 
L 143.226454 82.498326 
z
" clip-path="url(#pd2c10ffcbd)" style="fill: #1f77b4"/>
   </g>
   <g id="patch_59">
    <path d="M 144.733876 224.64 
L 146.241299 224.64 
L 146.241299 85.561724 
L 144.733876 85.561724 
z
" clip-path="url(#pd2c10ffcbd)" style="fill: #1f77b4"/>
   </g>
   <g id="patch_60">
    <path d="M 146.241299 224.64 
L 147.748721 224.64 
L 147.748721 61.667219 
L 146.241299 61.667219 
z
" clip-path="url(#pd2c10ffcbd)" style="fill: #1f77b4"/>
   </g>
   <g id="patch_61">
    <path d="M 147.748721 224.64 
L 149.256143 224.64 
L 149.256143 83.111006 
L 147.748721 83.111006 
z
" clip-path="url(#pd2c10ffcbd)" style="fill: #1f77b4"/>
   </g>
   <g id="patch_62">
    <path d="M 149.256143 224.64 
L 150.763565 224.64 
L 150.763565 70.857413 
L 149.256143 70.857413 
z
" clip-path="url(#pd2c10ffcbd)" style="fill: #1f77b4"/>
   </g>
   <g id="patch_63">
    <path d="M 150.763565 224.64 
L 152.270988 224.64 
L 152.270988 82.498326 
L 150.763565 82.498326 
z
" clip-path="url(#pd2c10ffcbd)" style="fill: #1f77b4"/>
   </g>
   <g id="patch_64">
    <path d="M 152.270988 224.64 
L 153.77841 224.64 
L 153.77841 66.568656 
L 152.270988 66.568656 
z
" clip-path="url(#pd2c10ffcbd)" style="fill: #1f77b4"/>
   </g>
   <g id="patch_65">
    <path d="M 153.77841 224.64 
L 155.285832 224.64 
L 155.285832 66.568656 
L 153.77841 66.568656 
z
" clip-path="url(#pd2c10ffcbd)" style="fill: #1f77b4"/>
   </g>
   <g id="patch_66">
    <path d="M 155.285832 224.64 
L 156.793254 224.64 
L 156.793254 71.470093 
L 155.285832 71.470093 
z
" clip-path="url(#pd2c10ffcbd)" style="fill: #1f77b4"/>
   </g>
   <g id="patch_67">
    <path d="M 156.793254 224.64 
L 158.300677 224.64 
L 158.300677 78.822249 
L 156.793254 78.822249 
z
" clip-path="url(#pd2c10ffcbd)" style="fill: #1f77b4"/>
   </g>
   <g id="patch_68">
    <path d="M 158.300677 224.64 
L 159.808099 224.64 
L 159.808099 71.470093 
L 158.300677 71.470093 
z
" clip-path="url(#pd2c10ffcbd)" style="fill: #1f77b4"/>
   </g>
   <g id="patch_69">
    <path d="M 159.808099 224.64 
L 161.315521 224.64 
L 161.315521 61.667219 
L 159.808099 61.667219 
z
" clip-path="url(#pd2c10ffcbd)" style="fill: #1f77b4"/>
   </g>
   <g id="patch_70">
    <path d="M 161.315521 224.64 
L 162.822944 224.64 
L 162.822944 64.730617 
L 161.315521 64.730617 
z
" clip-path="url(#pd2c10ffcbd)" style="fill: #1f77b4"/>
   </g>
   <g id="patch_71">
    <path d="M 162.822944 224.64 
L 164.330366 224.64 
L 164.330366 69.632054 
L 162.822944 69.632054 
z
" clip-path="url(#pd2c10ffcbd)" style="fill: #1f77b4"/>
   </g>
   <g id="patch_72">
    <path d="M 164.330366 224.64 
L 165.837788 224.64 
L 165.837788 48.188267 
L 164.330366 48.188267 
z
" clip-path="url(#pd2c10ffcbd)" style="fill: #1f77b4"/>
   </g>
   <g id="patch_73">
    <path d="M 165.837788 224.64 
L 167.34521 224.64 
L 167.34521 40.223432 
L 165.837788 40.223432 
z
" clip-path="url(#pd2c10ffcbd)" style="fill: #1f77b4"/>
   </g>
   <g id="patch_74">
    <path d="M 167.34521 224.64 
L 168.852633 224.64 
L 168.852633 65.955976 
L 167.34521 65.955976 
z
" clip-path="url(#pd2c10ffcbd)" style="fill: #1f77b4"/>
   </g>
   <g id="patch_75">
    <path d="M 168.852633 224.64 
L 170.360055 224.64 
L 170.360055 54.927743 
L 168.852633 54.927743 
z
" clip-path="url(#pd2c10ffcbd)" style="fill: #1f77b4"/>
   </g>
   <g id="patch_76">
    <path d="M 170.360055 224.64 
L 171.867477 224.64 
L 171.867477 50.638986 
L 170.360055 50.638986 
z
" clip-path="url(#pd2c10ffcbd)" style="fill: #1f77b4"/>
   </g>
   <g id="patch_77">
    <path d="M 171.867477 224.64 
L 173.3749 224.64 
L 173.3749 51.864345 
L 171.867477 51.864345 
z
" clip-path="url(#pd2c10ffcbd)" style="fill: #1f77b4"/>
   </g>
   <g id="patch_78">
    <path d="M 173.3749 224.64 
L 174.882322 224.64 
L 174.882322 45.124869 
L 173.3749 45.124869 
z
" clip-path="url(#pd2c10ffcbd)" style="fill: #1f77b4"/>
   </g>
   <g id="patch_79">
    <path d="M 174.882322 224.64 
L 176.389744 224.64 
L 176.389744 60.44186 
L 174.882322 60.44186 
z
" clip-path="url(#pd2c10ffcbd)" style="fill: #1f77b4"/>
   </g>
   <g id="patch_80">
    <path d="M 176.389744 224.64 
L 177.897166 224.64 
L 177.897166 34.096636 
L 176.389744 34.096636 
z
" clip-path="url(#pd2c10ffcbd)" style="fill: #1f77b4"/>
   </g>
   <g id="patch_81">
    <path d="M 177.897166 224.64 
L 179.404589 224.64 
L 179.404589 61.667219 
L 177.897166 61.667219 
z
" clip-path="url(#pd2c10ffcbd)" style="fill: #1f77b4"/>
   </g>
   <g id="patch_82">
    <path d="M 179.404589 224.64 
L 180.912011 224.64 
L 180.912011 65.343297 
L 179.404589 65.343297 
z
" clip-path="url(#pd2c10ffcbd)" style="fill: #1f77b4"/>
   </g>
   <g id="patch_83">
    <path d="M 180.912011 224.64 
L 182.419433 224.64 
L 182.419433 64.730617 
L 180.912011 64.730617 
z
" clip-path="url(#pd2c10ffcbd)" style="fill: #1f77b4"/>
   </g>
   <g id="patch_84">
    <path d="M 182.419433 224.64 
L 183.926855 224.64 
L 183.926855 43.28683 
L 182.419433 43.28683 
z
" clip-path="url(#pd2c10ffcbd)" style="fill: #1f77b4"/>
   </g>
   <g id="patch_85">
    <path d="M 183.926855 224.64 
L 185.434278 224.64 
L 185.434278 41.448791 
L 183.926855 41.448791 
z
" clip-path="url(#pd2c10ffcbd)" style="fill: #1f77b4"/>
   </g>
   <g id="patch_86">
    <path d="M 185.434278 224.64 
L 186.9417 224.64 
L 186.9417 29.807878 
L 185.434278 29.807878 
z
" clip-path="url(#pd2c10ffcbd)" style="fill: #1f77b4"/>
   </g>
   <g id="patch_87">
    <path d="M 186.9417 224.64 
L 188.449122 224.64 
L 188.449122 30.420558 
L 186.9417 30.420558 
z
" clip-path="url(#pd2c10ffcbd)" style="fill: #1f77b4"/>
   </g>
   <g id="patch_88">
    <path d="M 188.449122 224.64 
L 189.956545 224.64 
L 189.956545 34.096636 
L 188.449122 34.096636 
z
" clip-path="url(#pd2c10ffcbd)" style="fill: #1f77b4"/>
   </g>
   <g id="patch_89">
    <path d="M 189.956545 224.64 
L 191.463967 224.64 
L 191.463967 17.554286 
L 189.956545 17.554286 
z
" clip-path="url(#pd2c10ffcbd)" style="fill: #1f77b4"/>
   </g>
   <g id="patch_90">
    <path d="M 191.463967 224.64 
L 192.971389 224.64 
L 192.971389 43.89951 
L 191.463967 43.89951 
z
" clip-path="url(#pd2c10ffcbd)" style="fill: #1f77b4"/>
   </g>
   <g id="patch_91">
    <path d="M 192.971389 224.64 
L 194.478811 224.64 
L 194.478811 55.540423 
L 192.971389 55.540423 
z
" clip-path="url(#pd2c10ffcbd)" style="fill: #1f77b4"/>
   </g>
   <g id="patch_92">
    <path d="M 194.478811 224.64 
L 195.986234 224.64 
L 195.986234 31.645917 
L 194.478811 31.645917 
z
" clip-path="url(#pd2c10ffcbd)" style="fill: #1f77b4"/>
   </g>
   <g id="patch_93">
    <path d="M 195.986234 224.64 
L 197.493656 224.64 
L 197.493656 32.258597 
L 195.986234 32.258597 
z
" clip-path="url(#pd2c10ffcbd)" style="fill: #1f77b4"/>
   </g>
   <g id="patch_94">
    <path d="M 197.493656 224.64 
L 199.001078 224.64 
L 199.001078 22.455723 
L 197.493656 22.455723 
z
" clip-path="url(#pd2c10ffcbd)" style="fill: #1f77b4"/>
   </g>
   <g id="patch_95">
    <path d="M 199.001078 224.64 
L 200.5085 224.64 
L 200.5085 26.74448 
L 199.001078 26.74448 
z
" clip-path="url(#pd2c10ffcbd)" style="fill: #1f77b4"/>
   </g>
   <g id="patch_96">
    <path d="M 200.5085 224.64 
L 202.015923 224.64 
L 202.015923 20.617684 
L 200.5085 20.617684 
z
" clip-path="url(#pd2c10ffcbd)" style="fill: #1f77b4"/>
   </g>
   <g id="patch_97">
    <path d="M 202.015923 224.64 
L 203.523345 224.64 
L 203.523345 37.160034 
L 202.015923 37.160034 
z
" clip-path="url(#pd2c10ffcbd)" style="fill: #1f77b4"/>
   </g>
   <g id="patch_98">
    <path d="M 203.523345 224.64 
L 205.030767 224.64 
L 205.030767 29.195199 
L 203.523345 29.195199 
z
" clip-path="url(#pd2c10ffcbd)" style="fill: #1f77b4"/>
   </g>
   <g id="patch_99">
    <path d="M 205.030767 224.64 
L 206.53819 224.64 
L 206.53819 40.836112 
L 205.030767 40.836112 
z
" clip-path="url(#pd2c10ffcbd)" style="fill: #1f77b4"/>
   </g>
   <g id="patch_100">
    <path d="M 206.53819 224.64 
L 208.045612 224.64 
L 208.045612 42.061471 
L 206.53819 42.061471 
z
" clip-path="url(#pd2c10ffcbd)" style="fill: #1f77b4"/>
   </g>
   <g id="patch_101">
    <path d="M 208.045612 224.64 
L 209.553034 224.64 
L 209.553034 50.026306 
L 208.045612 50.026306 
z
" clip-path="url(#pd2c10ffcbd)" style="fill: #1f77b4"/>
   </g>
   <g id="patch_102">
    <path d="M 209.553034 224.64 
L 211.060456 224.64 
L 211.060456 48.800947 
L 209.553034 48.800947 
z
" clip-path="url(#pd2c10ffcbd)" style="fill: #1f77b4"/>
   </g>
   <g id="patch_103">
    <path d="M 211.060456 224.64 
L 212.567879 224.64 
L 212.567879 46.350228 
L 211.060456 46.350228 
z
" clip-path="url(#pd2c10ffcbd)" style="fill: #1f77b4"/>
   </g>
   <g id="patch_104">
    <path d="M 212.567879 224.64 
L 214.075301 224.64 
L 214.075301 25.519121 
L 212.567879 25.519121 
z
" clip-path="url(#pd2c10ffcbd)" style="fill: #1f77b4"/>
   </g>
   <g id="patch_105">
    <path d="M 214.075301 224.64 
L 215.582723 224.64 
L 215.582723 27.969839 
L 214.075301 27.969839 
z
" clip-path="url(#pd2c10ffcbd)" style="fill: #1f77b4"/>
   </g>
   <g id="patch_106">
    <path d="M 215.582723 224.64 
L 217.090145 224.64 
L 217.090145 26.74448 
L 215.582723 26.74448 
z
" clip-path="url(#pd2c10ffcbd)" style="fill: #1f77b4"/>
   </g>
   <g id="patch_107">
    <path d="M 217.090145 224.64 
L 218.597568 224.64 
L 218.597568 34.709315 
L 217.090145 34.709315 
z
" clip-path="url(#pd2c10ffcbd)" style="fill: #1f77b4"/>
   </g>
   <g id="patch_108">
    <path d="M 218.597568 224.64 
L 220.10499 224.64 
L 220.10499 23.068402 
L 218.597568 23.068402 
z
" clip-path="url(#pd2c10ffcbd)" style="fill: #1f77b4"/>
   </g>
   <g id="patch_109">
    <path d="M 220.10499 224.64 
L 221.612412 224.64 
L 221.612412 46.962908 
L 220.10499 46.962908 
z
" clip-path="url(#pd2c10ffcbd)" style="fill: #1f77b4"/>
   </g>
   <g id="patch_110">
    <path d="M 221.612412 224.64 
L 223.119835 224.64 
L 223.119835 43.89951 
L 221.612412 43.89951 
z
" clip-path="url(#pd2c10ffcbd)" style="fill: #1f77b4"/>
   </g>
   <g id="patch_111">
    <path d="M 223.119835 224.64 
L 224.627257 224.64 
L 224.627257 59.82918 
L 223.119835 59.82918 
z
" clip-path="url(#pd2c10ffcbd)" style="fill: #1f77b4"/>
   </g>
   <g id="patch_112">
    <path d="M 224.627257 224.64 
L 226.134679 224.64 
L 226.134679 29.195199 
L 224.627257 29.195199 
z
" clip-path="url(#pd2c10ffcbd)" style="fill: #1f77b4"/>
   </g>
   <g id="patch_113">
    <path d="M 226.134679 224.64 
L 227.642101 224.64 
L 227.642101 40.223432 
L 226.134679 40.223432 
z
" clip-path="url(#pd2c10ffcbd)" style="fill: #1f77b4"/>
   </g>
   <g id="patch_114">
    <path d="M 227.642101 224.64 
L 229.149524 224.64 
L 229.149524 48.800947 
L 227.642101 48.800947 
z
" clip-path="url(#pd2c10ffcbd)" style="fill: #1f77b4"/>
   </g>
   <g id="patch_115">
    <path d="M 229.149524 224.64 
L 230.656946 224.64 
L 230.656946 19.392325 
L 229.149524 19.392325 
z
" clip-path="url(#pd2c10ffcbd)" style="fill: #1f77b4"/>
   </g>
   <g id="patch_116">
    <path d="M 230.656946 224.64 
L 232.164368 224.64 
L 232.164368 32.258597 
L 230.656946 32.258597 
z
" clip-path="url(#pd2c10ffcbd)" style="fill: #1f77b4"/>
   </g>
   <g id="patch_117">
    <path d="M 232.164368 224.64 
L 233.671791 224.64 
L 233.671791 52.477025 
L 232.164368 52.477025 
z
" clip-path="url(#pd2c10ffcbd)" style="fill: #1f77b4"/>
   </g>
   <g id="patch_118">
    <path d="M 233.671791 224.64 
L 235.179213 224.64 
L 235.179213 54.315063 
L 233.671791 54.315063 
z
" clip-path="url(#pd2c10ffcbd)" style="fill: #1f77b4"/>
   </g>
   <g id="patch_119">
    <path d="M 235.179213 224.64 
L 236.686635 224.64 
L 236.686635 48.800947 
L 235.179213 48.800947 
z
" clip-path="url(#pd2c10ffcbd)" style="fill: #1f77b4"/>
   </g>
   <g id="patch_120">
    <path d="M 236.686635 224.64 
L 238.194057 224.64 
L 238.194057 46.350228 
L 236.686635 46.350228 
z
" clip-path="url(#pd2c10ffcbd)" style="fill: #1f77b4"/>
   </g>
   <g id="patch_121">
    <path d="M 238.194057 224.64 
L 239.70148 224.64 
L 239.70148 39.610752 
L 238.194057 39.610752 
z
" clip-path="url(#pd2c10ffcbd)" style="fill: #1f77b4"/>
   </g>
   <g id="patch_122">
    <path d="M 239.70148 224.64 
L 241.208902 224.64 
L 241.208902 46.962908 
L 239.70148 46.962908 
z
" clip-path="url(#pd2c10ffcbd)" style="fill: #1f77b4"/>
   </g>
   <g id="patch_123">
    <path d="M 241.208902 224.64 
L 242.716324 224.64 
L 242.716324 46.350228 
L 241.208902 46.350228 
z
" clip-path="url(#pd2c10ffcbd)" style="fill: #1f77b4"/>
   </g>
   <g id="patch_124">
    <path d="M 242.716324 224.64 
L 244.223746 224.64 
L 244.223746 42.061471 
L 242.716324 42.061471 
z
" clip-path="url(#pd2c10ffcbd)" style="fill: #1f77b4"/>
   </g>
   <g id="patch_125">
    <path d="M 244.223746 224.64 
L 245.731169 224.64 
L 245.731169 35.934675 
L 244.223746 35.934675 
z
" clip-path="url(#pd2c10ffcbd)" style="fill: #1f77b4"/>
   </g>
   <g id="patch_126">
    <path d="M 245.731169 224.64 
L 247.238591 224.64 
L 247.238591 39.610752 
L 245.731169 39.610752 
z
" clip-path="url(#pd2c10ffcbd)" style="fill: #1f77b4"/>
   </g>
   <g id="patch_127">
    <path d="M 247.238591 224.64 
L 248.746013 224.64 
L 248.746013 43.89951 
L 247.238591 43.89951 
z
" clip-path="url(#pd2c10ffcbd)" style="fill: #1f77b4"/>
   </g>
   <g id="patch_128">
    <path d="M 248.746013 224.64 
L 250.253436 224.64 
L 250.253436 37.772713 
L 248.746013 37.772713 
z
" clip-path="url(#pd2c10ffcbd)" style="fill: #1f77b4"/>
   </g>
   <g id="patch_129">
    <path d="M 250.253436 224.64 
L 251.760858 224.64 
L 251.760858 59.82918 
L 250.253436 59.82918 
z
" clip-path="url(#pd2c10ffcbd)" style="fill: #1f77b4"/>
   </g>
   <g id="patch_130">
    <path d="M 251.760858 224.64 
L 253.26828 224.64 
L 253.26828 57.378462 
L 251.760858 57.378462 
z
" clip-path="url(#pd2c10ffcbd)" style="fill: #1f77b4"/>
   </g>
   <g id="patch_131">
    <path d="M 253.26828 224.64 
L 254.775702 224.64 
L 254.775702 62.892578 
L 253.26828 62.892578 
z
" clip-path="url(#pd2c10ffcbd)" style="fill: #1f77b4"/>
   </g>
   <g id="patch_132">
    <path d="M 254.775702 224.64 
L 256.283125 224.64 
L 256.283125 51.251665 
L 254.775702 51.251665 
z
" clip-path="url(#pd2c10ffcbd)" style="fill: #1f77b4"/>
   </g>
   <g id="patch_133">
    <path d="M 256.283125 224.64 
L 257.790547 224.64 
L 257.790547 34.709315 
L 256.283125 34.709315 
z
" clip-path="url(#pd2c10ffcbd)" style="fill: #1f77b4"/>
   </g>
   <g id="patch_134">
    <path d="M 257.790547 224.64 
L 259.297969 224.64 
L 259.297969 48.800947 
L 257.790547 48.800947 
z
" clip-path="url(#pd2c10ffcbd)" style="fill: #1f77b4"/>
   </g>
   <g id="patch_135">
    <path d="M 259.297969 224.64 
L 260.805391 224.64 
L 260.805391 59.82918 
L 259.297969 59.82918 
z
" clip-path="url(#pd2c10ffcbd)" style="fill: #1f77b4"/>
   </g>
   <g id="patch_136">
    <path d="M 260.805391 224.64 
L 262.312814 224.64 
L 262.312814 65.955976 
L 260.805391 65.955976 
z
" clip-path="url(#pd2c10ffcbd)" style="fill: #1f77b4"/>
   </g>
   <g id="patch_137">
    <path d="M 262.312814 224.64 
L 263.820236 224.64 
L 263.820236 64.730617 
L 262.312814 64.730617 
z
" clip-path="url(#pd2c10ffcbd)" style="fill: #1f77b4"/>
   </g>
   <g id="patch_138">
    <path d="M 263.820236 224.64 
L 265.327658 224.64 
L 265.327658 61.054539 
L 263.820236 61.054539 
z
" clip-path="url(#pd2c10ffcbd)" style="fill: #1f77b4"/>
   </g>
   <g id="patch_139">
    <path d="M 265.327658 224.64 
L 266.835081 224.64 
L 266.835081 65.343297 
L 265.327658 65.343297 
z
" clip-path="url(#pd2c10ffcbd)" style="fill: #1f77b4"/>
   </g>
   <g id="patch_140">
    <path d="M 266.835081 224.64 
L 268.342503 224.64 
L 268.342503 69.019374 
L 266.835081 69.019374 
z
" clip-path="url(#pd2c10ffcbd)" style="fill: #1f77b4"/>
   </g>
   <g id="patch_141">
    <path d="M 268.342503 224.64 
L 269.849925 224.64 
L 269.849925 55.540423 
L 268.342503 55.540423 
z
" clip-path="url(#pd2c10ffcbd)" style="fill: #1f77b4"/>
   </g>
   <g id="patch_142">
    <path d="M 269.849925 224.64 
L 271.357347 224.64 
L 271.357347 74.533491 
L 269.849925 74.533491 
z
" clip-path="url(#pd2c10ffcbd)" style="fill: #1f77b4"/>
   </g>
   <g id="patch_143">
    <path d="M 271.357347 224.64 
L 272.86477 224.64 
L 272.86477 64.117937 
L 271.357347 64.117937 
z
" clip-path="url(#pd2c10ffcbd)" style="fill: #1f77b4"/>
   </g>
   <g id="patch_144">
    <path d="M 272.86477 224.64 
L 274.372192 224.64 
L 274.372192 73.308132 
L 272.86477 73.308132 
z
" clip-path="url(#pd2c10ffcbd)" style="fill: #1f77b4"/>
   </g>
   <g id="patch_145">
    <path d="M 274.372192 224.64 
L 275.879614 224.64 
L 275.879614 89.237802 
L 274.372192 89.237802 
z
" clip-path="url(#pd2c10ffcbd)" style="fill: #1f77b4"/>
   </g>
   <g id="patch_146">
    <path d="M 275.879614 224.64 
L 277.387037 224.64 
L 277.387037 78.209569 
L 275.879614 78.209569 
z
" clip-path="url(#pd2c10ffcbd)" style="fill: #1f77b4"/>
   </g>
   <g id="patch_147">
    <path d="M 277.387037 224.64 
L 278.894459 224.64 
L 278.894459 73.920811 
L 277.387037 73.920811 
z
" clip-path="url(#pd2c10ffcbd)" style="fill: #1f77b4"/>
   </g>
   <g id="patch_148">
    <path d="M 278.894459 224.64 
L 280.401881 224.64 
L 280.401881 70.857413 
L 278.894459 70.857413 
z
" clip-path="url(#pd2c10ffcbd)" style="fill: #1f77b4"/>
   </g>
   <g id="patch_149">
    <path d="M 280.401881 224.64 
L 281.909303 224.64 
L 281.909303 98.427997 
L 280.401881 98.427997 
z
" clip-path="url(#pd2c10ffcbd)" style="fill: #1f77b4"/>
   </g>
   <g id="patch_150">
    <path d="M 281.909303 224.64 
L 283.416726 224.64 
L 283.416726 58.603821 
L 281.909303 58.603821 
z
" clip-path="url(#pd2c10ffcbd)" style="fill: #1f77b4"/>
   </g>
   <g id="patch_151">
    <path d="M 283.416726 224.64 
L 284.924148 224.64 
L 284.924148 81.272967 
L 283.416726 81.272967 
z
" clip-path="url(#pd2c10ffcbd)" style="fill: #1f77b4"/>
   </g>
   <g id="patch_152">
    <path d="M 284.924148 224.64 
L 286.43157 224.64 
L 286.43157 86.787084 
L 284.924148 86.787084 
z
" clip-path="url(#pd2c10ffcbd)" style="fill: #1f77b4"/>
   </g>
   <g id="patch_153">
    <path d="M 286.43157 224.64 
L 287.938992 224.64 
L 287.938992 88.012443 
L 286.43157 88.012443 
z
" clip-path="url(#pd2c10ffcbd)" style="fill: #1f77b4"/>
   </g>
   <g id="patch_154">
    <path d="M 287.938992 224.64 
L 289.446415 224.64 
L 289.446415 90.463161 
L 287.938992 90.463161 
z
" clip-path="url(#pd2c10ffcbd)" style="fill: #1f77b4"/>
   </g>
   <g id="patch_155">
    <path d="M 289.446415 224.64 
L 290.953837 224.64 
L 290.953837 92.91388 
L 289.446415 92.91388 
z
" clip-path="url(#pd2c10ffcbd)" style="fill: #1f77b4"/>
   </g>
   <g id="patch_156">
    <path d="M 290.953837 224.64 
L 292.461259 224.64 
L 292.461259 109.45623 
L 290.953837 109.45623 
z
" clip-path="url(#pd2c10ffcbd)" style="fill: #1f77b4"/>
   </g>
   <g id="patch_157">
    <path d="M 292.461259 224.64 
L 293.968682 224.64 
L 293.968682 91.688521 
L 292.461259 91.688521 
z
" clip-path="url(#pd2c10ffcbd)" style="fill: #1f77b4"/>
   </g>
   <g id="patch_158">
    <path d="M 293.968682 224.64 
L 295.476104 224.64 
L 295.476104 94.139239 
L 293.968682 94.139239 
z
" clip-path="url(#pd2c10ffcbd)" style="fill: #1f77b4"/>
   </g>
   <g id="patch_159">
    <path d="M 295.476104 224.64 
L 296.983526 224.64 
L 296.983526 90.463161 
L 295.476104 90.463161 
z
" clip-path="url(#pd2c10ffcbd)" style="fill: #1f77b4"/>
   </g>
   <g id="patch_160">
    <path d="M 296.983526 224.64 
L 298.490948 224.64 
L 298.490948 110.681589 
L 296.983526 110.681589 
z
" clip-path="url(#pd2c10ffcbd)" style="fill: #1f77b4"/>
   </g>
   <g id="patch_161">
    <path d="M 298.490948 224.64 
L 299.998371 224.64 
L 299.998371 102.716754 
L 298.490948 102.716754 
z
" clip-path="url(#pd2c10ffcbd)" style="fill: #1f77b4"/>
   </g>
   <g id="patch_162">
    <path d="M 299.998371 224.64 
L 301.505793 224.64 
L 301.505793 92.91388 
L 299.998371 92.91388 
z
" clip-path="url(#pd2c10ffcbd)" style="fill: #1f77b4"/>
   </g>
   <g id="patch_163">
    <path d="M 301.505793 224.64 
L 303.013215 224.64 
L 303.013215 125.3859 
L 301.505793 125.3859 
z
" clip-path="url(#pd2c10ffcbd)" style="fill: #1f77b4"/>
   </g>
   <g id="patch_164">
    <path d="M 303.013215 224.64 
L 304.520637 224.64 
L 304.520637 116.195706 
L 303.013215 116.195706 
z
" clip-path="url(#pd2c10ffcbd)" style="fill: #1f77b4"/>
   </g>
   <g id="patch_165">
    <path d="M 304.520637 224.64 
L 306.02806 224.64 
L 306.02806 124.160541 
L 304.520637 124.160541 
z
" clip-path="url(#pd2c10ffcbd)" style="fill: #1f77b4"/>
   </g>
   <g id="patch_166">
    <path d="M 306.02806 224.64 
L 307.535482 224.64 
L 307.535482 111.906948 
L 306.02806 111.906948 
z
" clip-path="url(#pd2c10ffcbd)" style="fill: #1f77b4"/>
   </g>
   <g id="patch_167">
    <path d="M 307.535482 224.64 
L 309.042904 224.64 
L 309.042904 128.449298 
L 307.535482 128.449298 
z
" clip-path="url(#pd2c10ffcbd)" style="fill: #1f77b4"/>
   </g>
   <g id="patch_168">
    <path d="M 309.042904 224.64 
L 310.550327 224.64 
L 310.550327 122.322502 
L 309.042904 122.322502 
z
" clip-path="url(#pd2c10ffcbd)" style="fill: #1f77b4"/>
   </g>
   <g id="patch_169">
    <path d="M 310.550327 224.64 
L 312.057749 224.64 
L 312.057749 123.547861 
L 310.550327 123.547861 
z
" clip-path="url(#pd2c10ffcbd)" style="fill: #1f77b4"/>
   </g>
   <g id="patch_170">
    <path d="M 312.057749 224.64 
L 313.565171 224.64 
L 313.565171 118.033745 
L 312.057749 118.033745 
z
" clip-path="url(#pd2c10ffcbd)" style="fill: #1f77b4"/>
   </g>
   <g id="patch_171">
    <path d="M 313.565171 224.64 
L 315.072593 224.64 
L 315.072593 127.836619 
L 313.565171 127.836619 
z
" clip-path="url(#pd2c10ffcbd)" style="fill: #1f77b4"/>
   </g>
   <g id="patch_172">
    <path d="M 315.072593 224.64 
L 316.580016 224.64 
L 316.580016 127.836619 
L 315.072593 127.836619 
z
" clip-path="url(#pd2c10ffcbd)" style="fill: #1f77b4"/>
   </g>
   <g id="patch_173">
    <path d="M 316.580016 224.64 
L 318.087438 224.64 
L 318.087438 132.738056 
L 316.580016 132.738056 
z
" clip-path="url(#pd2c10ffcbd)" style="fill: #1f77b4"/>
   </g>
   <g id="patch_174">
    <path d="M 318.087438 224.64 
L 319.59486 224.64 
L 319.59486 148.667726 
L 318.087438 148.667726 
z
" clip-path="url(#pd2c10ffcbd)" style="fill: #1f77b4"/>
   </g>
   <g id="patch_175">
    <path d="M 319.59486 224.64 
L 321.102283 224.64 
L 321.102283 137.639493 
L 319.59486 137.639493 
z
" clip-path="url(#pd2c10ffcbd)" style="fill: #1f77b4"/>
   </g>
   <g id="patch_176">
    <path d="M 321.102283 224.64 
L 322.609705 224.64 
L 322.609705 146.829687 
L 321.102283 146.829687 
z
" clip-path="url(#pd2c10ffcbd)" style="fill: #1f77b4"/>
   </g>
   <g id="patch_177">
    <path d="M 322.609705 224.64 
L 324.117127 224.64 
L 324.117127 138.864852 
L 322.609705 138.864852 
z
" clip-path="url(#pd2c10ffcbd)" style="fill: #1f77b4"/>
   </g>
   <g id="patch_178">
    <path d="M 324.117127 224.64 
L 325.624549 224.64 
L 325.624549 150.505765 
L 324.117127 150.505765 
z
" clip-path="url(#pd2c10ffcbd)" style="fill: #1f77b4"/>
   </g>
   <g id="patch_179">
    <path d="M 325.624549 224.64 
L 327.131972 224.64 
L 327.131972 157.857921 
L 325.624549 157.857921 
z
" clip-path="url(#pd2c10ffcbd)" style="fill: #1f77b4"/>
   </g>
   <g id="patch_180">
    <path d="M 327.131972 224.64 
L 328.639394 224.64 
L 328.639394 153.569163 
L 327.131972 153.569163 
z
" clip-path="url(#pd2c10ffcbd)" style="fill: #1f77b4"/>
   </g>
   <g id="patch_181">
    <path d="M 328.639394 224.64 
L 330.146816 224.64 
L 330.146816 160.921319 
L 328.639394 160.921319 
z
" clip-path="url(#pd2c10ffcbd)" style="fill: #1f77b4"/>
   </g>
   <g id="patch_182">
    <path d="M 330.146816 224.64 
L 331.654238 224.64 
L 331.654238 162.146678 
L 330.146816 162.146678 
z
" clip-path="url(#pd2c10ffcbd)" style="fill: #1f77b4"/>
   </g>
   <g id="patch_183">
    <path d="M 331.654238 224.64 
L 333.161661 224.64 
L 333.161661 159.695959 
L 331.654238 159.695959 
z
" clip-path="url(#pd2c10ffcbd)" style="fill: #1f77b4"/>
   </g>
   <g id="patch_184">
    <path d="M 333.161661 224.64 
L 334.669083 224.64 
L 334.669083 156.019882 
L 333.161661 156.019882 
z
" clip-path="url(#pd2c10ffcbd)" style="fill: #1f77b4"/>
   </g>
   <g id="patch_185">
    <path d="M 334.669083 224.64 
L 336.176505 224.64 
L 336.176505 171.949552 
L 334.669083 171.949552 
z
" clip-path="url(#pd2c10ffcbd)" style="fill: #1f77b4"/>
   </g>
   <g id="patch_186">
    <path d="M 336.176505 224.64 
L 337.683928 224.64 
L 337.683928 164.597396 
L 336.176505 164.597396 
z
" clip-path="url(#pd2c10ffcbd)" style="fill: #1f77b4"/>
   </g>
   <g id="patch_187">
    <path d="M 337.683928 224.64 
L 339.19135 224.64 
L 339.19135 173.174911 
L 337.683928 173.174911 
z
" clip-path="url(#pd2c10ffcbd)" style="fill: #1f77b4"/>
   </g>
   <g id="patch_188">
    <path d="M 339.19135 224.64 
L 340.698772 224.64 
L 340.698772 188.491902 
L 339.19135 188.491902 
z
" clip-path="url(#pd2c10ffcbd)" style="fill: #1f77b4"/>
   </g>
   <g id="patch_189">
    <path d="M 340.698772 224.64 
L 342.206194 224.64 
L 342.206194 189.717261 
L 340.698772 189.717261 
z
" clip-path="url(#pd2c10ffcbd)" style="fill: #1f77b4"/>
   </g>
   <g id="patch_190">
    <path d="M 342.206194 224.64 
L 343.713617 224.64 
L 343.713617 186.653863 
L 342.206194 186.653863 
z
" clip-path="url(#pd2c10ffcbd)" style="fill: #1f77b4"/>
   </g>
   <g id="patch_191">
    <path d="M 343.713617 224.64 
L 345.221039 224.64 
L 345.221039 194.006019 
L 343.713617 194.006019 
z
" clip-path="url(#pd2c10ffcbd)" style="fill: #1f77b4"/>
   </g>
   <g id="patch_192">
    <path d="M 345.221039 224.64 
L 346.728461 224.64 
L 346.728461 187.879222 
L 345.221039 187.879222 
z
" clip-path="url(#pd2c10ffcbd)" style="fill: #1f77b4"/>
   </g>
   <g id="patch_193">
    <path d="M 346.728461 224.64 
L 348.235883 224.64 
L 348.235883 201.970854 
L 346.728461 201.970854 
z
" clip-path="url(#pd2c10ffcbd)" style="fill: #1f77b4"/>
   </g>
   <g id="patch_194">
    <path d="M 348.235883 224.64 
L 349.743306 224.64 
L 349.743306 200.745495 
L 348.235883 200.745495 
z
" clip-path="url(#pd2c10ffcbd)" style="fill: #1f77b4"/>
   </g>
   <g id="patch_195">
    <path d="M 349.743306 224.64 
L 351.250728 224.64 
L 351.250728 196.456737 
L 349.743306 196.456737 
z
" clip-path="url(#pd2c10ffcbd)" style="fill: #1f77b4"/>
   </g>
   <g id="patch_196">
    <path d="M 351.250728 224.64 
L 352.75815 224.64 
L 352.75815 202.583533 
L 351.250728 202.583533 
z
" clip-path="url(#pd2c10ffcbd)" style="fill: #1f77b4"/>
   </g>
   <g id="patch_197">
    <path d="M 352.75815 224.64 
L 354.265573 224.64 
L 354.265573 199.520135 
L 352.75815 199.520135 
z
" clip-path="url(#pd2c10ffcbd)" style="fill: #1f77b4"/>
   </g>
   <g id="patch_198">
    <path d="M 354.265573 224.64 
L 355.772995 224.64 
L 355.772995 208.71033 
L 354.265573 208.71033 
z
" clip-path="url(#pd2c10ffcbd)" style="fill: #1f77b4"/>
   </g>
   <g id="patch_199">
    <path d="M 355.772995 224.64 
L 357.280417 224.64 
L 357.280417 216.062485 
L 355.772995 216.062485 
z
" clip-path="url(#pd2c10ffcbd)" style="fill: #1f77b4"/>
   </g>
   <g id="patch_200">
    <path d="M 357.280417 224.64 
L 358.787839 224.64 
L 358.787839 215.449806 
L 357.280417 215.449806 
z
" clip-path="url(#pd2c10ffcbd)" style="fill: #1f77b4"/>
   </g>
   <g id="patch_201">
    <path d="M 358.787839 224.64 
L 360.295262 224.64 
L 360.295262 216.062485 
L 358.787839 216.062485 
z
" clip-path="url(#pd2c10ffcbd)" style="fill: #1f77b4"/>
   </g>
   <g id="patch_202">
    <path d="M 360.295262 224.64 
L 361.802684 224.64 
L 361.802684 219.125883 
L 360.295262 219.125883 
z
" clip-path="url(#pd2c10ffcbd)" style="fill: #1f77b4"/>
   </g>
   <g id="matplotlib.axis_1">
    <g id="xtick_1">
     <g id="line2d_1">
      <defs>
       <path id="m6d4a4df8d3" d="M 0 0 
L 0 3.5 
" style="stroke: #000000; stroke-width: 0.8"/>
      </defs>
      <g>
       <use xlink:href="#m6d4a4df8d3" x="58.999432" y="224.64" style="stroke: #000000; stroke-width: 0.8"/>
      </g>
     </g>
     <g id="text_1">
      <!-- 0.0 -->
      <g transform="translate(51.047869 239.238437)scale(0.1 -0.1)">
       <defs>
        <path id="DejaVuSans-30" d="M 2034 4250 
Q 1547 4250 1301 3770 
Q 1056 3291 1056 2328 
Q 1056 1369 1301 889 
Q 1547 409 2034 409 
Q 2525 409 2770 889 
Q 3016 1369 3016 2328 
Q 3016 3291 2770 3770 
Q 2525 4250 2034 4250 
z
M 2034 4750 
Q 2819 4750 3233 4129 
Q 3647 3509 3647 2328 
Q 3647 1150 3233 529 
Q 2819 -91 2034 -91 
Q 1250 -91 836 529 
Q 422 1150 422 2328 
Q 422 3509 836 4129 
Q 1250 4750 2034 4750 
z
" transform="scale(0.015625)"/>
        <path id="DejaVuSans-2e" d="M 684 794 
L 1344 794 
L 1344 0 
L 684 0 
L 684 794 
z
" transform="scale(0.015625)"/>
       </defs>
       <use xlink:href="#DejaVuSans-30"/>
       <use xlink:href="#DejaVuSans-2e" x="63.623047"/>
       <use xlink:href="#DejaVuSans-30" x="95.410156"/>
      </g>
     </g>
    </g>
    <g id="xtick_2">
     <g id="line2d_2">
      <g>
       <use xlink:href="#m6d4a4df8d3" x="97.752214" y="224.64" style="stroke: #000000; stroke-width: 0.8"/>
      </g>
     </g>
     <g id="text_2">
      <!-- 0.2 -->
      <g transform="translate(89.800651 239.238437)scale(0.1 -0.1)">
       <defs>
        <path id="DejaVuSans-32" d="M 1228 531 
L 3431 531 
L 3431 0 
L 469 0 
L 469 531 
Q 828 903 1448 1529 
Q 2069 2156 2228 2338 
Q 2531 2678 2651 2914 
Q 2772 3150 2772 3378 
Q 2772 3750 2511 3984 
Q 2250 4219 1831 4219 
Q 1534 4219 1204 4116 
Q 875 4013 500 3803 
L 500 4441 
Q 881 4594 1212 4672 
Q 1544 4750 1819 4750 
Q 2544 4750 2975 4387 
Q 3406 4025 3406 3419 
Q 3406 3131 3298 2873 
Q 3191 2616 2906 2266 
Q 2828 2175 2409 1742 
Q 1991 1309 1228 531 
z
" transform="scale(0.015625)"/>
       </defs>
       <use xlink:href="#DejaVuSans-30"/>
       <use xlink:href="#DejaVuSans-2e" x="63.623047"/>
       <use xlink:href="#DejaVuSans-32" x="95.410156"/>
      </g>
     </g>
    </g>
    <g id="xtick_3">
     <g id="line2d_3">
      <g>
       <use xlink:href="#m6d4a4df8d3" x="136.504995" y="224.64" style="stroke: #000000; stroke-width: 0.8"/>
      </g>
     </g>
     <g id="text_3">
      <!-- 0.4 -->
      <g transform="translate(128.553433 239.238437)scale(0.1 -0.1)">
       <defs>
        <path id="DejaVuSans-34" d="M 2419 4116 
L 825 1625 
L 2419 1625 
L 2419 4116 
z
M 2253 4666 
L 3047 4666 
L 3047 1625 
L 3713 1625 
L 3713 1100 
L 3047 1100 
L 3047 0 
L 2419 0 
L 2419 1100 
L 313 1100 
L 313 1709 
L 2253 4666 
z
" transform="scale(0.015625)"/>
       </defs>
       <use xlink:href="#DejaVuSans-30"/>
       <use xlink:href="#DejaVuSans-2e" x="63.623047"/>
       <use xlink:href="#DejaVuSans-34" x="95.410156"/>
      </g>
     </g>
    </g>
    <g id="xtick_4">
     <g id="line2d_4">
      <g>
       <use xlink:href="#m6d4a4df8d3" x="175.257777" y="224.64" style="stroke: #000000; stroke-width: 0.8"/>
      </g>
     </g>
     <g id="text_4">
      <!-- 0.6 -->
      <g transform="translate(167.306215 239.238437)scale(0.1 -0.1)">
       <defs>
        <path id="DejaVuSans-36" d="M 2113 2584 
Q 1688 2584 1439 2293 
Q 1191 2003 1191 1497 
Q 1191 994 1439 701 
Q 1688 409 2113 409 
Q 2538 409 2786 701 
Q 3034 994 3034 1497 
Q 3034 2003 2786 2293 
Q 2538 2584 2113 2584 
z
M 3366 4563 
L 3366 3988 
Q 3128 4100 2886 4159 
Q 2644 4219 2406 4219 
Q 1781 4219 1451 3797 
Q 1122 3375 1075 2522 
Q 1259 2794 1537 2939 
Q 1816 3084 2150 3084 
Q 2853 3084 3261 2657 
Q 3669 2231 3669 1497 
Q 3669 778 3244 343 
Q 2819 -91 2113 -91 
Q 1303 -91 875 529 
Q 447 1150 447 2328 
Q 447 3434 972 4092 
Q 1497 4750 2381 4750 
Q 2619 4750 2861 4703 
Q 3103 4656 3366 4563 
z
" transform="scale(0.015625)"/>
       </defs>
       <use xlink:href="#DejaVuSans-30"/>
       <use xlink:href="#DejaVuSans-2e" x="63.623047"/>
       <use xlink:href="#DejaVuSans-36" x="95.410156"/>
      </g>
     </g>
    </g>
    <g id="xtick_5">
     <g id="line2d_5">
      <g>
       <use xlink:href="#m6d4a4df8d3" x="214.010559" y="224.64" style="stroke: #000000; stroke-width: 0.8"/>
      </g>
     </g>
     <g id="text_5">
      <!-- 0.8 -->
      <g transform="translate(206.058996 239.238437)scale(0.1 -0.1)">
       <defs>
        <path id="DejaVuSans-38" d="M 2034 2216 
Q 1584 2216 1326 1975 
Q 1069 1734 1069 1313 
Q 1069 891 1326 650 
Q 1584 409 2034 409 
Q 2484 409 2743 651 
Q 3003 894 3003 1313 
Q 3003 1734 2745 1975 
Q 2488 2216 2034 2216 
z
M 1403 2484 
Q 997 2584 770 2862 
Q 544 3141 544 3541 
Q 544 4100 942 4425 
Q 1341 4750 2034 4750 
Q 2731 4750 3128 4425 
Q 3525 4100 3525 3541 
Q 3525 3141 3298 2862 
Q 3072 2584 2669 2484 
Q 3125 2378 3379 2068 
Q 3634 1759 3634 1313 
Q 3634 634 3220 271 
Q 2806 -91 2034 -91 
Q 1263 -91 848 271 
Q 434 634 434 1313 
Q 434 1759 690 2068 
Q 947 2378 1403 2484 
z
M 1172 3481 
Q 1172 3119 1398 2916 
Q 1625 2713 2034 2713 
Q 2441 2713 2670 2916 
Q 2900 3119 2900 3481 
Q 2900 3844 2670 4047 
Q 2441 4250 2034 4250 
Q 1625 4250 1398 4047 
Q 1172 3844 1172 3481 
z
" transform="scale(0.015625)"/>
       </defs>
       <use xlink:href="#DejaVuSans-30"/>
       <use xlink:href="#DejaVuSans-2e" x="63.623047"/>
       <use xlink:href="#DejaVuSans-38" x="95.410156"/>
      </g>
     </g>
    </g>
    <g id="xtick_6">
     <g id="line2d_6">
      <g>
       <use xlink:href="#m6d4a4df8d3" x="252.763341" y="224.64" style="stroke: #000000; stroke-width: 0.8"/>
      </g>
     </g>
     <g id="text_6">
      <!-- 1.0 -->
      <g transform="translate(244.811778 239.238437)scale(0.1 -0.1)">
       <defs>
        <path id="DejaVuSans-31" d="M 794 531 
L 1825 531 
L 1825 4091 
L 703 3866 
L 703 4441 
L 1819 4666 
L 2450 4666 
L 2450 531 
L 3481 531 
L 3481 0 
L 794 0 
L 794 531 
z
" transform="scale(0.015625)"/>
       </defs>
       <use xlink:href="#DejaVuSans-31"/>
       <use xlink:href="#DejaVuSans-2e" x="63.623047"/>
       <use xlink:href="#DejaVuSans-30" x="95.410156"/>
      </g>
     </g>
    </g>
    <g id="xtick_7">
     <g id="line2d_7">
      <g>
       <use xlink:href="#m6d4a4df8d3" x="291.516122" y="224.64" style="stroke: #000000; stroke-width: 0.8"/>
      </g>
     </g>
     <g id="text_7">
      <!-- 1.2 -->
      <g transform="translate(283.56456 239.238437)scale(0.1 -0.1)">
       <use xlink:href="#DejaVuSans-31"/>
       <use xlink:href="#DejaVuSans-2e" x="63.623047"/>
       <use xlink:href="#DejaVuSans-32" x="95.410156"/>
      </g>
     </g>
    </g>
    <g id="xtick_8">
     <g id="line2d_8">
      <g>
       <use xlink:href="#m6d4a4df8d3" x="330.268904" y="224.64" style="stroke: #000000; stroke-width: 0.8"/>
      </g>
     </g>
     <g id="text_8">
      <!-- 1.4 -->
      <g transform="translate(322.317342 239.238437)scale(0.1 -0.1)">
       <use xlink:href="#DejaVuSans-31"/>
       <use xlink:href="#DejaVuSans-2e" x="63.623047"/>
       <use xlink:href="#DejaVuSans-34" x="95.410156"/>
      </g>
     </g>
    </g>
    <g id="xtick_9">
     <g id="line2d_9">
      <g>
       <use xlink:href="#m6d4a4df8d3" x="369.021686" y="224.64" style="stroke: #000000; stroke-width: 0.8"/>
      </g>
     </g>
     <g id="text_9">
      <!-- 1.6 -->
      <g transform="translate(361.070124 239.238437)scale(0.1 -0.1)">
       <use xlink:href="#DejaVuSans-31"/>
       <use xlink:href="#DejaVuSans-2e" x="63.623047"/>
       <use xlink:href="#DejaVuSans-36" x="95.410156"/>
      </g>
     </g>
    </g>
    <g id="text_10">
     <!-- Angle with normal (rad) -->
     <g transform="translate(151.863281 252.916562)scale(0.1 -0.1)">
      <defs>
       <path id="DejaVuSans-41" d="M 2188 4044 
L 1331 1722 
L 3047 1722 
L 2188 4044 
z
M 1831 4666 
L 2547 4666 
L 4325 0 
L 3669 0 
L 3244 1197 
L 1141 1197 
L 716 0 
L 50 0 
L 1831 4666 
z
" transform="scale(0.015625)"/>
       <path id="DejaVuSans-6e" d="M 3513 2113 
L 3513 0 
L 2938 0 
L 2938 2094 
Q 2938 2591 2744 2837 
Q 2550 3084 2163 3084 
Q 1697 3084 1428 2787 
Q 1159 2491 1159 1978 
L 1159 0 
L 581 0 
L 581 3500 
L 1159 3500 
L 1159 2956 
Q 1366 3272 1645 3428 
Q 1925 3584 2291 3584 
Q 2894 3584 3203 3211 
Q 3513 2838 3513 2113 
z
" transform="scale(0.015625)"/>
       <path id="DejaVuSans-67" d="M 2906 1791 
Q 2906 2416 2648 2759 
Q 2391 3103 1925 3103 
Q 1463 3103 1205 2759 
Q 947 2416 947 1791 
Q 947 1169 1205 825 
Q 1463 481 1925 481 
Q 2391 481 2648 825 
Q 2906 1169 2906 1791 
z
M 3481 434 
Q 3481 -459 3084 -895 
Q 2688 -1331 1869 -1331 
Q 1566 -1331 1297 -1286 
Q 1028 -1241 775 -1147 
L 775 -588 
Q 1028 -725 1275 -790 
Q 1522 -856 1778 -856 
Q 2344 -856 2625 -561 
Q 2906 -266 2906 331 
L 2906 616 
Q 2728 306 2450 153 
Q 2172 0 1784 0 
Q 1141 0 747 490 
Q 353 981 353 1791 
Q 353 2603 747 3093 
Q 1141 3584 1784 3584 
Q 2172 3584 2450 3431 
Q 2728 3278 2906 2969 
L 2906 3500 
L 3481 3500 
L 3481 434 
z
" transform="scale(0.015625)"/>
       <path id="DejaVuSans-6c" d="M 603 4863 
L 1178 4863 
L 1178 0 
L 603 0 
L 603 4863 
z
" transform="scale(0.015625)"/>
       <path id="DejaVuSans-65" d="M 3597 1894 
L 3597 1613 
L 953 1613 
Q 991 1019 1311 708 
Q 1631 397 2203 397 
Q 2534 397 2845 478 
Q 3156 559 3463 722 
L 3463 178 
Q 3153 47 2828 -22 
Q 2503 -91 2169 -91 
Q 1331 -91 842 396 
Q 353 884 353 1716 
Q 353 2575 817 3079 
Q 1281 3584 2069 3584 
Q 2775 3584 3186 3129 
Q 3597 2675 3597 1894 
z
M 3022 2063 
Q 3016 2534 2758 2815 
Q 2500 3097 2075 3097 
Q 1594 3097 1305 2825 
Q 1016 2553 972 2059 
L 3022 2063 
z
" transform="scale(0.015625)"/>
       <path id="DejaVuSans-20" transform="scale(0.015625)"/>
       <path id="DejaVuSans-77" d="M 269 3500 
L 844 3500 
L 1563 769 
L 2278 3500 
L 2956 3500 
L 3675 769 
L 4391 3500 
L 4966 3500 
L 4050 0 
L 3372 0 
L 2619 2869 
L 1863 0 
L 1184 0 
L 269 3500 
z
" transform="scale(0.015625)"/>
       <path id="DejaVuSans-69" d="M 603 3500 
L 1178 3500 
L 1178 0 
L 603 0 
L 603 3500 
z
M 603 4863 
L 1178 4863 
L 1178 4134 
L 603 4134 
L 603 4863 
z
" transform="scale(0.015625)"/>
       <path id="DejaVuSans-74" d="M 1172 4494 
L 1172 3500 
L 2356 3500 
L 2356 3053 
L 1172 3053 
L 1172 1153 
Q 1172 725 1289 603 
Q 1406 481 1766 481 
L 2356 481 
L 2356 0 
L 1766 0 
Q 1100 0 847 248 
Q 594 497 594 1153 
L 594 3053 
L 172 3053 
L 172 3500 
L 594 3500 
L 594 4494 
L 1172 4494 
z
" transform="scale(0.015625)"/>
       <path id="DejaVuSans-68" d="M 3513 2113 
L 3513 0 
L 2938 0 
L 2938 2094 
Q 2938 2591 2744 2837 
Q 2550 3084 2163 3084 
Q 1697 3084 1428 2787 
Q 1159 2491 1159 1978 
L 1159 0 
L 581 0 
L 581 4863 
L 1159 4863 
L 1159 2956 
Q 1366 3272 1645 3428 
Q 1925 3584 2291 3584 
Q 2894 3584 3203 3211 
Q 3513 2838 3513 2113 
z
" transform="scale(0.015625)"/>
       <path id="DejaVuSans-6f" d="M 1959 3097 
Q 1497 3097 1228 2736 
Q 959 2375 959 1747 
Q 959 1119 1226 758 
Q 1494 397 1959 397 
Q 2419 397 2687 759 
Q 2956 1122 2956 1747 
Q 2956 2369 2687 2733 
Q 2419 3097 1959 3097 
z
M 1959 3584 
Q 2709 3584 3137 3096 
Q 3566 2609 3566 1747 
Q 3566 888 3137 398 
Q 2709 -91 1959 -91 
Q 1206 -91 779 398 
Q 353 888 353 1747 
Q 353 2609 779 3096 
Q 1206 3584 1959 3584 
z
" transform="scale(0.015625)"/>
       <path id="DejaVuSans-72" d="M 2631 2963 
Q 2534 3019 2420 3045 
Q 2306 3072 2169 3072 
Q 1681 3072 1420 2755 
Q 1159 2438 1159 1844 
L 1159 0 
L 581 0 
L 581 3500 
L 1159 3500 
L 1159 2956 
Q 1341 3275 1631 3429 
Q 1922 3584 2338 3584 
Q 2397 3584 2469 3576 
Q 2541 3569 2628 3553 
L 2631 2963 
z
" transform="scale(0.015625)"/>
       <path id="DejaVuSans-6d" d="M 3328 2828 
Q 3544 3216 3844 3400 
Q 4144 3584 4550 3584 
Q 5097 3584 5394 3201 
Q 5691 2819 5691 2113 
L 5691 0 
L 5113 0 
L 5113 2094 
Q 5113 2597 4934 2840 
Q 4756 3084 4391 3084 
Q 3944 3084 3684 2787 
Q 3425 2491 3425 1978 
L 3425 0 
L 2847 0 
L 2847 2094 
Q 2847 2600 2669 2842 
Q 2491 3084 2119 3084 
Q 1678 3084 1418 2786 
Q 1159 2488 1159 1978 
L 1159 0 
L 581 0 
L 581 3500 
L 1159 3500 
L 1159 2956 
Q 1356 3278 1631 3431 
Q 1906 3584 2284 3584 
Q 2666 3584 2933 3390 
Q 3200 3197 3328 2828 
z
" transform="scale(0.015625)"/>
       <path id="DejaVuSans-61" d="M 2194 1759 
Q 1497 1759 1228 1600 
Q 959 1441 959 1056 
Q 959 750 1161 570 
Q 1363 391 1709 391 
Q 2188 391 2477 730 
Q 2766 1069 2766 1631 
L 2766 1759 
L 2194 1759 
z
M 3341 1997 
L 3341 0 
L 2766 0 
L 2766 531 
Q 2569 213 2275 61 
Q 1981 -91 1556 -91 
Q 1019 -91 701 211 
Q 384 513 384 1019 
Q 384 1609 779 1909 
Q 1175 2209 1959 2209 
L 2766 2209 
L 2766 2266 
Q 2766 2663 2505 2880 
Q 2244 3097 1772 3097 
Q 1472 3097 1187 3025 
Q 903 2953 641 2809 
L 641 3341 
Q 956 3463 1253 3523 
Q 1550 3584 1831 3584 
Q 2591 3584 2966 3190 
Q 3341 2797 3341 1997 
z
" transform="scale(0.015625)"/>
       <path id="DejaVuSans-28" d="M 1984 4856 
Q 1566 4138 1362 3434 
Q 1159 2731 1159 2009 
Q 1159 1288 1364 580 
Q 1569 -128 1984 -844 
L 1484 -844 
Q 1016 -109 783 600 
Q 550 1309 550 2009 
Q 550 2706 781 3412 
Q 1013 4119 1484 4856 
L 1984 4856 
z
" transform="scale(0.015625)"/>
       <path id="DejaVuSans-64" d="M 2906 2969 
L 2906 4863 
L 3481 4863 
L 3481 0 
L 2906 0 
L 2906 525 
Q 2725 213 2448 61 
Q 2172 -91 1784 -91 
Q 1150 -91 751 415 
Q 353 922 353 1747 
Q 353 2572 751 3078 
Q 1150 3584 1784 3584 
Q 2172 3584 2448 3432 
Q 2725 3281 2906 2969 
z
M 947 1747 
Q 947 1113 1208 752 
Q 1469 391 1925 391 
Q 2381 391 2643 752 
Q 2906 1113 2906 1747 
Q 2906 2381 2643 2742 
Q 2381 3103 1925 3103 
Q 1469 3103 1208 2742 
Q 947 2381 947 1747 
z
" transform="scale(0.015625)"/>
       <path id="DejaVuSans-29" d="M 513 4856 
L 1013 4856 
Q 1481 4119 1714 3412 
Q 1947 2706 1947 2009 
Q 1947 1309 1714 600 
Q 1481 -109 1013 -844 
L 513 -844 
Q 928 -128 1133 580 
Q 1338 1288 1338 2009 
Q 1338 2731 1133 3434 
Q 928 4138 513 4856 
z
" transform="scale(0.015625)"/>
      </defs>
      <use xlink:href="#DejaVuSans-41"/>
      <use xlink:href="#DejaVuSans-6e" x="68.408203"/>
      <use xlink:href="#DejaVuSans-67" x="131.787109"/>
      <use xlink:href="#DejaVuSans-6c" x="195.263672"/>
      <use xlink:href="#DejaVuSans-65" x="223.046875"/>
      <use xlink:href="#DejaVuSans-20" x="284.570312"/>
      <use xlink:href="#DejaVuSans-77" x="316.357422"/>
      <use xlink:href="#DejaVuSans-69" x="398.144531"/>
      <use xlink:href="#DejaVuSans-74" x="425.927734"/>
      <use xlink:href="#DejaVuSans-68" x="465.136719"/>
      <use xlink:href="#DejaVuSans-20" x="528.515625"/>
      <use xlink:href="#DejaVuSans-6e" x="560.302734"/>
      <use xlink:href="#DejaVuSans-6f" x="623.681641"/>
      <use xlink:href="#DejaVuSans-72" x="684.863281"/>
      <use xlink:href="#DejaVuSans-6d" x="724.226562"/>
      <use xlink:href="#DejaVuSans-61" x="821.638672"/>
      <use xlink:href="#DejaVuSans-6c" x="882.917969"/>
      <use xlink:href="#DejaVuSans-20" x="910.701172"/>
      <use xlink:href="#DejaVuSans-28" x="942.488281"/>
      <use xlink:href="#DejaVuSans-72" x="981.501953"/>
      <use xlink:href="#DejaVuSans-61" x="1022.615234"/>
      <use xlink:href="#DejaVuSans-64" x="1083.894531"/>
      <use xlink:href="#DejaVuSans-29" x="1147.371094"/>
     </g>
    </g>
   </g>
   <g id="matplotlib.axis_2">
    <g id="ytick_1">
     <g id="line2d_10">
      <defs>
       <path id="mf670b963b7" d="M 0 0 
L -3.5 0 
" style="stroke: #000000; stroke-width: 0.8"/>
      </defs>
      <g>
       <use xlink:href="#mf670b963b7" x="43.78125" y="224.64" style="stroke: #000000; stroke-width: 0.8"/>
      </g>
     </g>
     <g id="text_11">
      <!-- 0.0 -->
      <g transform="translate(20.878125 228.439219)scale(0.1 -0.1)">
       <use xlink:href="#DejaVuSans-30"/>
       <use xlink:href="#DejaVuSans-2e" x="63.623047"/>
       <use xlink:href="#DejaVuSans-30" x="95.410156"/>
      </g>
     </g>
    </g>
    <g id="ytick_2">
     <g id="line2d_11">
      <g>
       <use xlink:href="#mf670b963b7" x="43.78125" y="186.508361" style="stroke: #000000; stroke-width: 0.8"/>
      </g>
     </g>
     <g id="text_12">
      <!-- 0.2 -->
      <g transform="translate(20.878125 190.30758)scale(0.1 -0.1)">
       <use xlink:href="#DejaVuSans-30"/>
       <use xlink:href="#DejaVuSans-2e" x="63.623047"/>
       <use xlink:href="#DejaVuSans-32" x="95.410156"/>
      </g>
     </g>
    </g>
    <g id="ytick_3">
     <g id="line2d_12">
      <g>
       <use xlink:href="#mf670b963b7" x="43.78125" y="148.376723" style="stroke: #000000; stroke-width: 0.8"/>
      </g>
     </g>
     <g id="text_13">
      <!-- 0.4 -->
      <g transform="translate(20.878125 152.175941)scale(0.1 -0.1)">
       <use xlink:href="#DejaVuSans-30"/>
       <use xlink:href="#DejaVuSans-2e" x="63.623047"/>
       <use xlink:href="#DejaVuSans-34" x="95.410156"/>
      </g>
     </g>
    </g>
    <g id="ytick_4">
     <g id="line2d_13">
      <g>
       <use xlink:href="#mf670b963b7" x="43.78125" y="110.245084" style="stroke: #000000; stroke-width: 0.8"/>
      </g>
     </g>
     <g id="text_14">
      <!-- 0.6 -->
      <g transform="translate(20.878125 114.044303)scale(0.1 -0.1)">
       <use xlink:href="#DejaVuSans-30"/>
       <use xlink:href="#DejaVuSans-2e" x="63.623047"/>
       <use xlink:href="#DejaVuSans-36" x="95.410156"/>
      </g>
     </g>
    </g>
    <g id="ytick_5">
     <g id="line2d_14">
      <g>
       <use xlink:href="#mf670b963b7" x="43.78125" y="72.113445" style="stroke: #000000; stroke-width: 0.8"/>
      </g>
     </g>
     <g id="text_15">
      <!-- 0.8 -->
      <g transform="translate(20.878125 75.912664)scale(0.1 -0.1)">
       <use xlink:href="#DejaVuSans-30"/>
       <use xlink:href="#DejaVuSans-2e" x="63.623047"/>
       <use xlink:href="#DejaVuSans-38" x="95.410156"/>
      </g>
     </g>
    </g>
    <g id="ytick_6">
     <g id="line2d_15">
      <g>
       <use xlink:href="#mf670b963b7" x="43.78125" y="33.981807" style="stroke: #000000; stroke-width: 0.8"/>
      </g>
     </g>
     <g id="text_16">
      <!-- 1.0 -->
      <g transform="translate(20.878125 37.781026)scale(0.1 -0.1)">
       <use xlink:href="#DejaVuSans-31"/>
       <use xlink:href="#DejaVuSans-2e" x="63.623047"/>
       <use xlink:href="#DejaVuSans-30" x="95.410156"/>
      </g>
     </g>
    </g>
    <g id="text_17">
     <!-- Probability density -->
     <g transform="translate(14.798438 162.270781)rotate(-90)scale(0.1 -0.1)">
      <defs>
       <path id="DejaVuSans-50" d="M 1259 4147 
L 1259 2394 
L 2053 2394 
Q 2494 2394 2734 2622 
Q 2975 2850 2975 3272 
Q 2975 3691 2734 3919 
Q 2494 4147 2053 4147 
L 1259 4147 
z
M 628 4666 
L 2053 4666 
Q 2838 4666 3239 4311 
Q 3641 3956 3641 3272 
Q 3641 2581 3239 2228 
Q 2838 1875 2053 1875 
L 1259 1875 
L 1259 0 
L 628 0 
L 628 4666 
z
" transform="scale(0.015625)"/>
       <path id="DejaVuSans-62" d="M 3116 1747 
Q 3116 2381 2855 2742 
Q 2594 3103 2138 3103 
Q 1681 3103 1420 2742 
Q 1159 2381 1159 1747 
Q 1159 1113 1420 752 
Q 1681 391 2138 391 
Q 2594 391 2855 752 
Q 3116 1113 3116 1747 
z
M 1159 2969 
Q 1341 3281 1617 3432 
Q 1894 3584 2278 3584 
Q 2916 3584 3314 3078 
Q 3713 2572 3713 1747 
Q 3713 922 3314 415 
Q 2916 -91 2278 -91 
Q 1894 -91 1617 61 
Q 1341 213 1159 525 
L 1159 0 
L 581 0 
L 581 4863 
L 1159 4863 
L 1159 2969 
z
" transform="scale(0.015625)"/>
       <path id="DejaVuSans-79" d="M 2059 -325 
Q 1816 -950 1584 -1140 
Q 1353 -1331 966 -1331 
L 506 -1331 
L 506 -850 
L 844 -850 
Q 1081 -850 1212 -737 
Q 1344 -625 1503 -206 
L 1606 56 
L 191 3500 
L 800 3500 
L 1894 763 
L 2988 3500 
L 3597 3500 
L 2059 -325 
z
" transform="scale(0.015625)"/>
       <path id="DejaVuSans-73" d="M 2834 3397 
L 2834 2853 
Q 2591 2978 2328 3040 
Q 2066 3103 1784 3103 
Q 1356 3103 1142 2972 
Q 928 2841 928 2578 
Q 928 2378 1081 2264 
Q 1234 2150 1697 2047 
L 1894 2003 
Q 2506 1872 2764 1633 
Q 3022 1394 3022 966 
Q 3022 478 2636 193 
Q 2250 -91 1575 -91 
Q 1294 -91 989 -36 
Q 684 19 347 128 
L 347 722 
Q 666 556 975 473 
Q 1284 391 1588 391 
Q 1994 391 2212 530 
Q 2431 669 2431 922 
Q 2431 1156 2273 1281 
Q 2116 1406 1581 1522 
L 1381 1569 
Q 847 1681 609 1914 
Q 372 2147 372 2553 
Q 372 3047 722 3315 
Q 1072 3584 1716 3584 
Q 2034 3584 2315 3537 
Q 2597 3491 2834 3397 
z
" transform="scale(0.015625)"/>
      </defs>
      <use xlink:href="#DejaVuSans-50"/>
      <use xlink:href="#DejaVuSans-72" x="58.552734"/>
      <use xlink:href="#DejaVuSans-6f" x="97.416016"/>
      <use xlink:href="#DejaVuSans-62" x="158.597656"/>
      <use xlink:href="#DejaVuSans-61" x="222.074219"/>
      <use xlink:href="#DejaVuSans-62" x="283.353516"/>
      <use xlink:href="#DejaVuSans-69" x="346.830078"/>
      <use xlink:href="#DejaVuSans-6c" x="374.613281"/>
      <use xlink:href="#DejaVuSans-69" x="402.396484"/>
      <use xlink:href="#DejaVuSans-74" x="430.179688"/>
      <use xlink:href="#DejaVuSans-79" x="469.388672"/>
      <use xlink:href="#DejaVuSans-20" x="528.568359"/>
      <use xlink:href="#DejaVuSans-64" x="560.355469"/>
      <use xlink:href="#DejaVuSans-65" x="623.832031"/>
      <use xlink:href="#DejaVuSans-6e" x="685.355469"/>
      <use xlink:href="#DejaVuSans-73" x="748.734375"/>
      <use xlink:href="#DejaVuSans-69" x="800.833984"/>
      <use xlink:href="#DejaVuSans-74" x="828.617188"/>
      <use xlink:href="#DejaVuSans-79" x="867.826172"/>
     </g>
    </g>
   </g>
   <g id="line2d_16">
    <path d="M 58.999432 224.64 
L 77.888867 187.701738 
L 87.942921 168.524364 
L 96.473633 152.71815 
L 104.090341 139.072759 
L 110.793044 127.499365 
L 117.191078 116.884838 
L 123.284444 107.211855 
L 129.073142 98.452066 
L 134.557171 90.568266 
L 139.736533 83.516389 
L 144.611225 77.247338 
L 149.485918 71.35136 
L 154.055943 66.17599 
L 158.321299 61.663491 
L 162.586655 57.46684 
L 166.852012 53.594172 
L 170.8127 50.294789 
L 174.773388 47.28675 
L 178.429407 44.773042 
L 182.085427 42.515447 
L 185.741447 40.517179 
L 189.397466 38.781084 
L 192.748818 37.422093 
L 196.100169 36.287107 
L 199.45152 35.377485 
L 202.802872 34.694314 
L 206.154223 34.238412 
L 209.505574 34.010324 
L 212.856926 34.010324 
L 216.208277 34.238412 
L 219.559628 34.694314 
L 222.91098 35.377485 
L 226.262331 36.287107 
L 229.613682 37.422093 
L 232.965034 38.781084 
L 236.621053 40.517179 
L 240.277073 42.515447 
L 243.933093 44.773042 
L 247.589112 47.28675 
L 251.5498 50.294789 
L 255.510488 53.594172 
L 259.471176 57.179384 
L 263.736533 61.353155 
L 268.001889 65.843377 
L 272.571913 70.995594 
L 277.141938 76.489623 
L 282.016631 82.712888 
L 286.891324 89.295392 
L 292.070685 96.664269 
L 297.554714 104.86471 
L 303.343412 113.936427 
L 309.436778 123.911809 
L 315.834813 134.813926 
L 322.842184 147.201889 
L 330.458891 161.124169 
L 339.294272 177.759708 
L 349.957663 198.343023 
L 363.363068 224.64 
L 363.363068 224.64 
" clip-path="url(#pd2c10ffcbd)" style="fill: none; stroke: #ff7f0e; stroke-width: 1.5; stroke-linecap: square"/>
   </g>
   <g id="patch_203">
    <path d="M 43.78125 224.64 
L 43.78125 7.2 
" style="fill: none; stroke: #000000; stroke-width: 0.8; stroke-linejoin: miter; stroke-linecap: square"/>
   </g>
   <g id="patch_204">
    <path d="M 378.58125 224.64 
L 378.58125 7.2 
" style="fill: none; stroke: #000000; stroke-width: 0.8; stroke-linejoin: miter; stroke-linecap: square"/>
   </g>
   <g id="patch_205">
    <path d="M 43.78125 224.64 
L 378.58125 224.64 
" style="fill: none; stroke: #000000; stroke-width: 0.8; stroke-linejoin: miter; stroke-linecap: square"/>
   </g>
   <g id="patch_206">
    <path d="M 43.78125 7.2 
L 378.58125 7.2 
" style="fill: none; stroke: #000000; stroke-width: 0.8; stroke-linejoin: miter; stroke-linecap: square"/>
   </g>
  </g>
 </g>
 <defs>
  <clipPath id="pd2c10ffcbd">
   <rect x="43.78125" y="7.2" width="334.8" height="217.44"/>
  </clipPath>
 </defs>
</svg>
