<?xml version="1.0" encoding="utf-8" standalone="no"?>
<!DOCTYPE svg PUBLIC "-//W3C//DTD SVG 1.1//EN"
  "http://www.w3.org/Graphics/SVG/1.1/DTD/svg11.dtd">
<svg xmlns:xlink="http://www.w3.org/1999/xlink" width="385.78125pt" height="262.19625pt" viewBox="0 0 385.78125 262.19625" xmlns="http://www.w3.org/2000/svg" version="1.1">
 <metadata>
  <rdf:RDF xmlns:dc="http://purl.org/dc/elements/1.1/" xmlns:cc="http://creativecommons.org/ns#" xmlns:rdf="http://www.w3.org/1999/02/22-rdf-syntax-ns#">
   <cc:Work>
    <dc:type rdf:resource="http://purl.org/dc/dcmitype/StillImage"/>
    <dc:date>2022-07-15T22:40:00.465436</dc:date>
    <dc:format>image/svg+xml</dc:format>
    <dc:creator>
     <cc:Agent>
      <dc:title>Matplotlib v3.5.2, https://matplotlib.org/</dc:title>
     </cc:Agent>
    </dc:creator>
   </cc:Work>
  </rdf:RDF>
 </metadata>
 <defs>
  <style type="text/css">*{stroke-linejoin: round; stroke-linecap: butt}</style>
 </defs>
 <g id="figure_1">
  <g id="patch_1">
   <path d="M 0 262.19625 
L 385.78125 262.19625 
L 385.78125 0 
L 0 0 
L 0 262.19625 
z
" style="fill: none"/>
  </g>
  <g id="axes_1">
   <g id="patch_2">
    <path d="M 43.78125 224.64 
L 378.58125 224.64 
L 378.58125 7.2 
L 43.78125 7.2 
z
" style="fill: #ffffff"/>
   </g>
   <g id="patch_3">
    <path d="M 61.450451 224.64 
L 62.959979 224.64 
L 62.959979 222.713621 
L 61.450451 222.713621 
z
" clip-path="url(#p75fd1ad5ff)" style="fill: #1f77b4"/>
   </g>
   <g id="patch_4">
    <path d="M 62.959979 224.64 
L 64.469507 224.64 
L 64.469507 220.787243 
L 62.959979 220.787243 
z
" clip-path="url(#p75fd1ad5ff)" style="fill: #1f77b4"/>
   </g>
   <g id="patch_5">
    <path d="M 64.469507 224.64 
L 65.979035 224.64 
L 65.979035 220.305648 
L 64.469507 220.305648 
z
" clip-path="url(#p75fd1ad5ff)" style="fill: #1f77b4"/>
   </g>
   <g id="patch_6">
    <path d="M 65.979035 224.64 
L 67.488562 224.64 
L 67.488562 220.305648 
L 65.979035 220.305648 
z
" clip-path="url(#p75fd1ad5ff)" style="fill: #1f77b4"/>
   </g>
   <g id="patch_7">
    <path d="M 67.488562 224.64 
L 68.99809 224.64 
L 68.99809 219.824053 
L 67.488562 219.824053 
z
" clip-path="url(#p75fd1ad5ff)" style="fill: #1f77b4"/>
   </g>
   <g id="patch_8">
    <path d="M 68.99809 224.64 
L 70.507618 224.64 
L 70.507618 220.787243 
L 68.99809 220.787243 
z
" clip-path="url(#p75fd1ad5ff)" style="fill: #1f77b4"/>
   </g>
   <g id="patch_9">
    <path d="M 70.507618 224.64 
L 72.017146 224.64 
L 72.017146 218.860864 
L 70.507618 218.860864 
z
" clip-path="url(#p75fd1ad5ff)" style="fill: #1f77b4"/>
   </g>
   <g id="patch_10">
    <path d="M 72.017146 224.64 
L 73.526674 224.64 
L 73.526674 215.008106 
L 72.017146 215.008106 
z
" clip-path="url(#p75fd1ad5ff)" style="fill: #1f77b4"/>
   </g>
   <g id="patch_11">
    <path d="M 73.526674 224.64 
L 75.036202 224.64 
L 75.036202 212.118538 
L 73.526674 212.118538 
z
" clip-path="url(#p75fd1ad5ff)" style="fill: #1f77b4"/>
   </g>
   <g id="patch_12">
    <path d="M 75.036202 224.64 
L 76.545729 224.64 
L 76.545729 211.636944 
L 75.036202 211.636944 
z
" clip-path="url(#p75fd1ad5ff)" style="fill: #1f77b4"/>
   </g>
   <g id="patch_13">
    <path d="M 76.545729 224.64 
L 78.055257 224.64 
L 78.055257 214.044917 
L 76.545729 214.044917 
z
" clip-path="url(#p75fd1ad5ff)" style="fill: #1f77b4"/>
   </g>
   <g id="patch_14">
    <path d="M 78.055257 224.64 
L 79.564785 224.64 
L 79.564785 212.118538 
L 78.055257 212.118538 
z
" clip-path="url(#p75fd1ad5ff)" style="fill: #1f77b4"/>
   </g>
   <g id="patch_15">
    <path d="M 79.564785 224.64 
L 81.074313 224.64 
L 81.074313 210.673754 
L 79.564785 210.673754 
z
" clip-path="url(#p75fd1ad5ff)" style="fill: #1f77b4"/>
   </g>
   <g id="patch_16">
    <path d="M 81.074313 224.64 
L 82.583841 224.64 
L 82.583841 210.673754 
L 81.074313 210.673754 
z
" clip-path="url(#p75fd1ad5ff)" style="fill: #1f77b4"/>
   </g>
   <g id="patch_17">
    <path d="M 82.583841 224.64 
L 84.093369 224.64 
L 84.093369 214.526512 
L 82.583841 214.526512 
z
" clip-path="url(#p75fd1ad5ff)" style="fill: #1f77b4"/>
   </g>
   <g id="patch_18">
    <path d="M 84.093369 224.64 
L 85.602896 224.64 
L 85.602896 211.155349 
L 84.093369 211.155349 
z
" clip-path="url(#p75fd1ad5ff)" style="fill: #1f77b4"/>
   </g>
   <g id="patch_19">
    <path d="M 85.602896 224.64 
L 87.112424 224.64 
L 87.112424 206.339402 
L 85.602896 206.339402 
z
" clip-path="url(#p75fd1ad5ff)" style="fill: #1f77b4"/>
   </g>
   <g id="patch_20">
    <path d="M 87.112424 224.64 
L 88.621952 224.64 
L 88.621952 206.339402 
L 87.112424 206.339402 
z
" clip-path="url(#p75fd1ad5ff)" style="fill: #1f77b4"/>
   </g>
   <g id="patch_21">
    <path d="M 88.621952 224.64 
L 90.13148 224.64 
L 90.13148 209.710565 
L 88.621952 209.710565 
z
" clip-path="url(#p75fd1ad5ff)" style="fill: #1f77b4"/>
   </g>
   <g id="patch_22">
    <path d="M 90.13148 224.64 
L 91.641008 224.64 
L 91.641008 204.894618 
L 90.13148 204.894618 
z
" clip-path="url(#p75fd1ad5ff)" style="fill: #1f77b4"/>
   </g>
   <g id="patch_23">
    <path d="M 91.641008 224.64 
L 93.150536 224.64 
L 93.150536 207.302591 
L 91.641008 207.302591 
z
" clip-path="url(#p75fd1ad5ff)" style="fill: #1f77b4"/>
   </g>
   <g id="patch_24">
    <path d="M 93.150536 224.64 
L 94.660064 224.64 
L 94.660064 206.339402 
L 93.150536 206.339402 
z
" clip-path="url(#p75fd1ad5ff)" style="fill: #1f77b4"/>
   </g>
   <g id="patch_25">
    <path d="M 94.660064 224.64 
L 96.169591 224.64 
L 96.169591 209.22897 
L 94.660064 209.22897 
z
" clip-path="url(#p75fd1ad5ff)" style="fill: #1f77b4"/>
   </g>
   <g id="patch_26">
    <path d="M 96.169591 224.64 
L 97.679119 224.64 
L 97.679119 201.04186 
L 96.169591 201.04186 
z
" clip-path="url(#p75fd1ad5ff)" style="fill: #1f77b4"/>
   </g>
   <g id="patch_27">
    <path d="M 97.679119 224.64 
L 99.188647 224.64 
L 99.188647 196.707508 
L 97.679119 196.707508 
z
" clip-path="url(#p75fd1ad5ff)" style="fill: #1f77b4"/>
   </g>
   <g id="patch_28">
    <path d="M 99.188647 224.64 
L 100.698175 224.64 
L 100.698175 193.81794 
L 99.188647 193.81794 
z
" clip-path="url(#p75fd1ad5ff)" style="fill: #1f77b4"/>
   </g>
   <g id="patch_29">
    <path d="M 100.698175 224.64 
L 102.207703 224.64 
L 102.207703 199.115482 
L 100.698175 199.115482 
z
" clip-path="url(#p75fd1ad5ff)" style="fill: #1f77b4"/>
   </g>
   <g id="patch_30">
    <path d="M 102.207703 224.64 
L 103.717231 224.64 
L 103.717231 193.81794 
L 102.207703 193.81794 
z
" clip-path="url(#p75fd1ad5ff)" style="fill: #1f77b4"/>
   </g>
   <g id="patch_31">
    <path d="M 103.717231 224.64 
L 105.226758 224.64 
L 105.226758 195.262724 
L 103.717231 195.262724 
z
" clip-path="url(#p75fd1ad5ff)" style="fill: #1f77b4"/>
   </g>
   <g id="patch_32">
    <path d="M 105.226758 224.64 
L 106.736286 224.64 
L 106.736286 190.928372 
L 105.226758 190.928372 
z
" clip-path="url(#p75fd1ad5ff)" style="fill: #1f77b4"/>
   </g>
   <g id="patch_33">
    <path d="M 106.736286 224.64 
L 108.245814 224.64 
L 108.245814 189.483588 
L 106.736286 189.483588 
z
" clip-path="url(#p75fd1ad5ff)" style="fill: #1f77b4"/>
   </g>
   <g id="patch_34">
    <path d="M 108.245814 224.64 
L 109.755342 224.64 
L 109.755342 186.59402 
L 108.245814 186.59402 
z
" clip-path="url(#p75fd1ad5ff)" style="fill: #1f77b4"/>
   </g>
   <g id="patch_35">
    <path d="M 109.755342 224.64 
L 111.26487 224.64 
L 111.26487 198.633887 
L 109.755342 198.633887 
z
" clip-path="url(#p75fd1ad5ff)" style="fill: #1f77b4"/>
   </g>
   <g id="patch_36">
    <path d="M 111.26487 224.64 
L 112.774398 224.64 
L 112.774398 192.373156 
L 111.26487 192.373156 
z
" clip-path="url(#p75fd1ad5ff)" style="fill: #1f77b4"/>
   </g>
   <g id="patch_37">
    <path d="M 112.774398 224.64 
L 114.283925 224.64 
L 114.283925 190.928372 
L 112.774398 190.928372 
z
" clip-path="url(#p75fd1ad5ff)" style="fill: #1f77b4"/>
   </g>
   <g id="patch_38">
    <path d="M 114.283925 224.64 
L 115.793453 224.64 
L 115.793453 186.59402 
L 114.283925 186.59402 
z
" clip-path="url(#p75fd1ad5ff)" style="fill: #1f77b4"/>
   </g>
   <g id="patch_39">
    <path d="M 115.793453 224.64 
L 117.302981 224.64 
L 117.302981 193.336346 
L 115.793453 193.336346 
z
" clip-path="url(#p75fd1ad5ff)" style="fill: #1f77b4"/>
   </g>
   <g id="patch_40">
    <path d="M 117.302981 224.64 
L 118.812509 224.64 
L 118.812509 190.446777 
L 117.302981 190.446777 
z
" clip-path="url(#p75fd1ad5ff)" style="fill: #1f77b4"/>
   </g>
   <g id="patch_41">
    <path d="M 118.812509 224.64 
L 120.322037 224.64 
L 120.322037 183.222857 
L 118.812509 183.222857 
z
" clip-path="url(#p75fd1ad5ff)" style="fill: #1f77b4"/>
   </g>
   <g id="patch_42">
    <path d="M 120.322037 224.64 
L 121.831565 224.64 
L 121.831565 179.3701 
L 120.322037 179.3701 
z
" clip-path="url(#p75fd1ad5ff)" style="fill: #1f77b4"/>
   </g>
   <g id="patch_43">
    <path d="M 121.831565 224.64 
L 123.341092 224.64 
L 123.341092 175.517342 
L 121.831565 175.517342 
z
" clip-path="url(#p75fd1ad5ff)" style="fill: #1f77b4"/>
   </g>
   <g id="patch_44">
    <path d="M 123.341092 224.64 
L 124.85062 224.64 
L 124.85062 191.891561 
L 123.341092 191.891561 
z
" clip-path="url(#p75fd1ad5ff)" style="fill: #1f77b4"/>
   </g>
   <g id="patch_45">
    <path d="M 124.85062 224.64 
L 126.360148 224.64 
L 126.360148 177.443721 
L 124.85062 177.443721 
z
" clip-path="url(#p75fd1ad5ff)" style="fill: #1f77b4"/>
   </g>
   <g id="patch_46">
    <path d="M 126.360148 224.64 
L 127.869676 224.64 
L 127.869676 183.222857 
L 126.360148 183.222857 
z
" clip-path="url(#p75fd1ad5ff)" style="fill: #1f77b4"/>
   </g>
   <g id="patch_47">
    <path d="M 127.869676 224.64 
L 129.379204 224.64 
L 129.379204 185.149236 
L 127.869676 185.149236 
z
" clip-path="url(#p75fd1ad5ff)" style="fill: #1f77b4"/>
   </g>
   <g id="patch_48">
    <path d="M 129.379204 224.64 
L 130.888732 224.64 
L 130.888732 176.480532 
L 129.379204 176.480532 
z
" clip-path="url(#p75fd1ad5ff)" style="fill: #1f77b4"/>
   </g>
   <g id="patch_49">
    <path d="M 130.888732 224.64 
L 132.398259 224.64 
L 132.398259 176.962126 
L 130.888732 176.962126 
z
" clip-path="url(#p75fd1ad5ff)" style="fill: #1f77b4"/>
   </g>
   <g id="patch_50">
    <path d="M 132.398259 224.64 
L 133.907787 224.64 
L 133.907787 175.998937 
L 132.398259 175.998937 
z
" clip-path="url(#p75fd1ad5ff)" style="fill: #1f77b4"/>
   </g>
   <g id="patch_51">
    <path d="M 133.907787 224.64 
L 135.417315 224.64 
L 135.417315 178.888505 
L 133.907787 178.888505 
z
" clip-path="url(#p75fd1ad5ff)" style="fill: #1f77b4"/>
   </g>
   <g id="patch_52">
    <path d="M 135.417315 224.64 
L 136.926843 224.64 
L 136.926843 165.885449 
L 135.417315 165.885449 
z
" clip-path="url(#p75fd1ad5ff)" style="fill: #1f77b4"/>
   </g>
   <g id="patch_53">
    <path d="M 136.926843 224.64 
L 138.436371 224.64 
L 138.436371 170.701395 
L 136.926843 170.701395 
z
" clip-path="url(#p75fd1ad5ff)" style="fill: #1f77b4"/>
   </g>
   <g id="patch_54">
    <path d="M 138.436371 224.64 
L 139.945899 224.64 
L 139.945899 176.962126 
L 138.436371 176.962126 
z
" clip-path="url(#p75fd1ad5ff)" style="fill: #1f77b4"/>
   </g>
   <g id="patch_55">
    <path d="M 139.945899 224.64 
L 141.455426 224.64 
L 141.455426 164.440664 
L 139.945899 164.440664 
z
" clip-path="url(#p75fd1ad5ff)" style="fill: #1f77b4"/>
   </g>
   <g id="patch_56">
    <path d="M 141.455426 224.64 
L 142.964954 224.64 
L 142.964954 175.035748 
L 141.455426 175.035748 
z
" clip-path="url(#p75fd1ad5ff)" style="fill: #1f77b4"/>
   </g>
   <g id="patch_57">
    <path d="M 142.964954 224.64 
L 144.474482 224.64 
L 144.474482 175.517342 
L 142.964954 175.517342 
z
" clip-path="url(#p75fd1ad5ff)" style="fill: #1f77b4"/>
   </g>
   <g id="patch_58">
    <path d="M 144.474482 224.64 
L 145.98401 224.64 
L 145.98401 170.701395 
L 144.474482 170.701395 
z
" clip-path="url(#p75fd1ad5ff)" style="fill: #1f77b4"/>
   </g>
   <g id="patch_59">
    <path d="M 145.98401 224.64 
L 147.493538 224.64 
L 147.493538 164.922259 
L 145.98401 164.922259 
z
" clip-path="url(#p75fd1ad5ff)" style="fill: #1f77b4"/>
   </g>
   <g id="patch_60">
    <path d="M 147.493538 224.64 
L 149.003066 224.64 
L 149.003066 165.885449 
L 147.493538 165.885449 
z
" clip-path="url(#p75fd1ad5ff)" style="fill: #1f77b4"/>
   </g>
   <g id="patch_61">
    <path d="M 149.003066 224.64 
L 150.512593 224.64 
L 150.512593 174.554153 
L 149.003066 174.554153 
z
" clip-path="url(#p75fd1ad5ff)" style="fill: #1f77b4"/>
   </g>
   <g id="patch_62">
    <path d="M 150.512593 224.64 
L 152.022121 224.64 
L 152.022121 165.403854 
L 150.512593 165.403854 
z
" clip-path="url(#p75fd1ad5ff)" style="fill: #1f77b4"/>
   </g>
   <g id="patch_63">
    <path d="M 152.022121 224.64 
L 153.531649 224.64 
L 153.531649 176.962126 
L 152.022121 176.962126 
z
" clip-path="url(#p75fd1ad5ff)" style="fill: #1f77b4"/>
   </g>
   <g id="patch_64">
    <path d="M 153.531649 224.64 
L 155.041177 224.64 
L 155.041177 162.032691 
L 153.531649 162.032691 
z
" clip-path="url(#p75fd1ad5ff)" style="fill: #1f77b4"/>
   </g>
   <g id="patch_65">
    <path d="M 155.041177 224.64 
L 156.550705 224.64 
L 156.550705 157.698339 
L 155.041177 157.698339 
z
" clip-path="url(#p75fd1ad5ff)" style="fill: #1f77b4"/>
   </g>
   <g id="patch_66">
    <path d="M 156.550705 224.64 
L 158.060233 224.64 
L 158.060233 159.624718 
L 156.550705 159.624718 
z
" clip-path="url(#p75fd1ad5ff)" style="fill: #1f77b4"/>
   </g>
   <g id="patch_67">
    <path d="M 158.060233 224.64 
L 159.569761 224.64 
L 159.569761 163.477475 
L 158.060233 163.477475 
z
" clip-path="url(#p75fd1ad5ff)" style="fill: #1f77b4"/>
   </g>
   <g id="patch_68">
    <path d="M 159.569761 224.64 
L 161.079288 224.64 
L 161.079288 162.99588 
L 159.569761 162.99588 
z
" clip-path="url(#p75fd1ad5ff)" style="fill: #1f77b4"/>
   </g>
   <g id="patch_69">
    <path d="M 161.079288 224.64 
L 162.588816 224.64 
L 162.588816 151.437608 
L 161.079288 151.437608 
z
" clip-path="url(#p75fd1ad5ff)" style="fill: #1f77b4"/>
   </g>
   <g id="patch_70">
    <path d="M 162.588816 224.64 
L 164.098344 224.64 
L 164.098344 150.956013 
L 162.588816 150.956013 
z
" clip-path="url(#p75fd1ad5ff)" style="fill: #1f77b4"/>
   </g>
   <g id="patch_71">
    <path d="M 164.098344 224.64 
L 165.607872 224.64 
L 165.607872 160.587907 
L 164.098344 160.587907 
z
" clip-path="url(#p75fd1ad5ff)" style="fill: #1f77b4"/>
   </g>
   <g id="patch_72">
    <path d="M 165.607872 224.64 
L 167.1174 224.64 
L 167.1174 156.73515 
L 165.607872 156.73515 
z
" clip-path="url(#p75fd1ad5ff)" style="fill: #1f77b4"/>
   </g>
   <g id="patch_73">
    <path d="M 167.1174 224.64 
L 168.626928 224.64 
L 168.626928 153.845581 
L 167.1174 153.845581 
z
" clip-path="url(#p75fd1ad5ff)" style="fill: #1f77b4"/>
   </g>
   <g id="patch_74">
    <path d="M 168.626928 224.64 
L 170.136455 224.64 
L 170.136455 162.99588 
L 168.626928 162.99588 
z
" clip-path="url(#p75fd1ad5ff)" style="fill: #1f77b4"/>
   </g>
   <g id="patch_75">
    <path d="M 170.136455 224.64 
L 171.645983 224.64 
L 171.645983 150.474419 
L 170.136455 150.474419 
z
" clip-path="url(#p75fd1ad5ff)" style="fill: #1f77b4"/>
   </g>
   <g id="patch_76">
    <path d="M 171.645983 224.64 
L 173.155511 224.64 
L 173.155511 156.73515 
L 171.645983 156.73515 
z
" clip-path="url(#p75fd1ad5ff)" style="fill: #1f77b4"/>
   </g>
   <g id="patch_77">
    <path d="M 173.155511 224.64 
L 174.665039 224.64 
L 174.665039 154.808771 
L 173.155511 154.808771 
z
" clip-path="url(#p75fd1ad5ff)" style="fill: #1f77b4"/>
   </g>
   <g id="patch_78">
    <path d="M 174.665039 224.64 
L 176.174567 224.64 
L 176.174567 140.842525 
L 174.665039 140.842525 
z
" clip-path="url(#p75fd1ad5ff)" style="fill: #1f77b4"/>
   </g>
   <g id="patch_79">
    <path d="M 176.174567 224.64 
L 177.684095 224.64 
L 177.684095 156.253555 
L 176.174567 156.253555 
z
" clip-path="url(#p75fd1ad5ff)" style="fill: #1f77b4"/>
   </g>
   <g id="patch_80">
    <path d="M 177.684095 224.64 
L 179.193622 224.64 
L 179.193622 149.029635 
L 177.684095 149.029635 
z
" clip-path="url(#p75fd1ad5ff)" style="fill: #1f77b4"/>
   </g>
   <g id="patch_81">
    <path d="M 179.193622 224.64 
L 180.70315 224.64 
L 180.70315 145.176877 
L 179.193622 145.176877 
z
" clip-path="url(#p75fd1ad5ff)" style="fill: #1f77b4"/>
   </g>
   <g id="patch_82">
    <path d="M 180.70315 224.64 
L 182.212678 224.64 
L 182.212678 140.36093 
L 180.70315 140.36093 
z
" clip-path="url(#p75fd1ad5ff)" style="fill: #1f77b4"/>
   </g>
   <g id="patch_83">
    <path d="M 182.212678 224.64 
L 183.722206 224.64 
L 183.722206 135.063389 
L 182.212678 135.063389 
z
" clip-path="url(#p75fd1ad5ff)" style="fill: #1f77b4"/>
   </g>
   <g id="patch_84">
    <path d="M 183.722206 224.64 
L 185.231734 224.64 
L 185.231734 157.698339 
L 183.722206 157.698339 
z
" clip-path="url(#p75fd1ad5ff)" style="fill: #1f77b4"/>
   </g>
   <g id="patch_85">
    <path d="M 185.231734 224.64 
L 186.741262 224.64 
L 186.741262 140.36093 
L 185.231734 140.36093 
z
" clip-path="url(#p75fd1ad5ff)" style="fill: #1f77b4"/>
   </g>
   <g id="patch_86">
    <path d="M 186.741262 224.64 
L 188.250789 224.64 
L 188.250789 137.471362 
L 186.741262 137.471362 
z
" clip-path="url(#p75fd1ad5ff)" style="fill: #1f77b4"/>
   </g>
   <g id="patch_87">
    <path d="M 188.250789 224.64 
L 189.760317 224.64 
L 189.760317 144.213688 
L 188.250789 144.213688 
z
" clip-path="url(#p75fd1ad5ff)" style="fill: #1f77b4"/>
   </g>
   <g id="patch_88">
    <path d="M 189.760317 224.64 
L 191.269845 224.64 
L 191.269845 142.287309 
L 189.760317 142.287309 
z
" clip-path="url(#p75fd1ad5ff)" style="fill: #1f77b4"/>
   </g>
   <g id="patch_89">
    <path d="M 191.269845 224.64 
L 192.779373 224.64 
L 192.779373 144.695282 
L 191.269845 144.695282 
z
" clip-path="url(#p75fd1ad5ff)" style="fill: #1f77b4"/>
   </g>
   <g id="patch_90">
    <path d="M 192.779373 224.64 
L 194.288901 224.64 
L 194.288901 154.808771 
L 192.779373 154.808771 
z
" clip-path="url(#p75fd1ad5ff)" style="fill: #1f77b4"/>
   </g>
   <g id="patch_91">
    <path d="M 194.288901 224.64 
L 195.798429 224.64 
L 195.798429 138.434551 
L 194.288901 138.434551 
z
" clip-path="url(#p75fd1ad5ff)" style="fill: #1f77b4"/>
   </g>
   <g id="patch_92">
    <path d="M 195.798429 224.64 
L 197.307956 224.64 
L 197.307956 128.321063 
L 195.798429 128.321063 
z
" clip-path="url(#p75fd1ad5ff)" style="fill: #1f77b4"/>
   </g>
   <g id="patch_93">
    <path d="M 197.307956 224.64 
L 198.817484 224.64 
L 198.817484 140.842525 
L 197.307956 140.842525 
z
" clip-path="url(#p75fd1ad5ff)" style="fill: #1f77b4"/>
   </g>
   <g id="patch_94">
    <path d="M 198.817484 224.64 
L 200.327012 224.64 
L 200.327012 140.36093 
L 198.817484 140.36093 
z
" clip-path="url(#p75fd1ad5ff)" style="fill: #1f77b4"/>
   </g>
   <g id="patch_95">
    <path d="M 200.327012 224.64 
L 201.83654 224.64 
L 201.83654 131.692226 
L 200.327012 131.692226 
z
" clip-path="url(#p75fd1ad5ff)" style="fill: #1f77b4"/>
   </g>
   <g id="patch_96">
    <path d="M 201.83654 224.64 
L 203.346068 224.64 
L 203.346068 127.839468 
L 201.83654 127.839468 
z
" clip-path="url(#p75fd1ad5ff)" style="fill: #1f77b4"/>
   </g>
   <g id="patch_97">
    <path d="M 203.346068 224.64 
L 204.855596 224.64 
L 204.855596 139.397741 
L 203.346068 139.397741 
z
" clip-path="url(#p75fd1ad5ff)" style="fill: #1f77b4"/>
   </g>
   <g id="patch_98">
    <path d="M 204.855596 224.64 
L 206.365123 224.64 
L 206.365123 131.692226 
L 204.855596 131.692226 
z
" clip-path="url(#p75fd1ad5ff)" style="fill: #1f77b4"/>
   </g>
   <g id="patch_99">
    <path d="M 206.365123 224.64 
L 207.874651 224.64 
L 207.874651 128.321063 
L 206.365123 128.321063 
z
" clip-path="url(#p75fd1ad5ff)" style="fill: #1f77b4"/>
   </g>
   <g id="patch_100">
    <path d="M 207.874651 224.64 
L 209.384179 224.64 
L 209.384179 142.287309 
L 207.874651 142.287309 
z
" clip-path="url(#p75fd1ad5ff)" style="fill: #1f77b4"/>
   </g>
   <g id="patch_101">
    <path d="M 209.384179 224.64 
L 210.893707 224.64 
L 210.893707 125.431495 
L 209.384179 125.431495 
z
" clip-path="url(#p75fd1ad5ff)" style="fill: #1f77b4"/>
   </g>
   <g id="patch_102">
    <path d="M 210.893707 224.64 
L 212.403235 224.64 
L 212.403235 130.247442 
L 210.893707 130.247442 
z
" clip-path="url(#p75fd1ad5ff)" style="fill: #1f77b4"/>
   </g>
   <g id="patch_103">
    <path d="M 212.403235 224.64 
L 213.912763 224.64 
L 213.912763 131.210631 
L 212.403235 131.210631 
z
" clip-path="url(#p75fd1ad5ff)" style="fill: #1f77b4"/>
   </g>
   <g id="patch_104">
    <path d="M 213.912763 224.64 
L 215.42229 224.64 
L 215.42229 118.689169 
L 213.912763 118.689169 
z
" clip-path="url(#p75fd1ad5ff)" style="fill: #1f77b4"/>
   </g>
   <g id="patch_105">
    <path d="M 215.42229 224.64 
L 216.931818 224.64 
L 216.931818 127.839468 
L 215.42229 127.839468 
z
" clip-path="url(#p75fd1ad5ff)" style="fill: #1f77b4"/>
   </g>
   <g id="patch_106">
    <path d="M 216.931818 224.64 
L 218.441346 224.64 
L 218.441346 113.391628 
L 216.931818 113.391628 
z
" clip-path="url(#p75fd1ad5ff)" style="fill: #1f77b4"/>
   </g>
   <g id="patch_107">
    <path d="M 218.441346 224.64 
L 219.950874 224.64 
L 219.950874 120.133953 
L 218.441346 120.133953 
z
" clip-path="url(#p75fd1ad5ff)" style="fill: #1f77b4"/>
   </g>
   <g id="patch_108">
    <path d="M 219.950874 224.64 
L 221.460402 224.64 
L 221.460402 124.468306 
L 219.950874 124.468306 
z
" clip-path="url(#p75fd1ad5ff)" style="fill: #1f77b4"/>
   </g>
   <g id="patch_109">
    <path d="M 221.460402 224.64 
L 222.96993 224.64 
L 222.96993 127.357874 
L 221.460402 127.357874 
z
" clip-path="url(#p75fd1ad5ff)" style="fill: #1f77b4"/>
   </g>
   <g id="patch_110">
    <path d="M 222.96993 224.64 
L 224.479457 224.64 
L 224.479457 124.468306 
L 222.96993 124.468306 
z
" clip-path="url(#p75fd1ad5ff)" style="fill: #1f77b4"/>
   </g>
   <g id="patch_111">
    <path d="M 224.479457 224.64 
L 225.988985 224.64 
L 225.988985 130.729037 
L 224.479457 130.729037 
z
" clip-path="url(#p75fd1ad5ff)" style="fill: #1f77b4"/>
   </g>
   <g id="patch_112">
    <path d="M 225.988985 224.64 
L 227.498513 224.64 
L 227.498513 107.612492 
L 225.988985 107.612492 
z
" clip-path="url(#p75fd1ad5ff)" style="fill: #1f77b4"/>
   </g>
   <g id="patch_113">
    <path d="M 227.498513 224.64 
L 229.008041 224.64 
L 229.008041 121.097143 
L 227.498513 121.097143 
z
" clip-path="url(#p75fd1ad5ff)" style="fill: #1f77b4"/>
   </g>
   <g id="patch_114">
    <path d="M 229.008041 224.64 
L 230.517569 224.64 
L 230.517569 114.354817 
L 229.008041 114.354817 
z
" clip-path="url(#p75fd1ad5ff)" style="fill: #1f77b4"/>
   </g>
   <g id="patch_115">
    <path d="M 230.517569 224.64 
L 232.027097 224.64 
L 232.027097 109.057276 
L 230.517569 109.057276 
z
" clip-path="url(#p75fd1ad5ff)" style="fill: #1f77b4"/>
   </g>
   <g id="patch_116">
    <path d="M 232.027097 224.64 
L 233.536625 224.64 
L 233.536625 119.170764 
L 232.027097 119.170764 
z
" clip-path="url(#p75fd1ad5ff)" style="fill: #1f77b4"/>
   </g>
   <g id="patch_117">
    <path d="M 233.536625 224.64 
L 235.046152 224.64 
L 235.046152 110.983654 
L 233.536625 110.983654 
z
" clip-path="url(#p75fd1ad5ff)" style="fill: #1f77b4"/>
   </g>
   <g id="patch_118">
    <path d="M 235.046152 224.64 
L 236.55568 224.64 
L 236.55568 106.167708 
L 235.046152 106.167708 
z
" clip-path="url(#p75fd1ad5ff)" style="fill: #1f77b4"/>
   </g>
   <g id="patch_119">
    <path d="M 236.55568 224.64 
L 238.065208 224.64 
L 238.065208 110.50206 
L 236.55568 110.50206 
z
" clip-path="url(#p75fd1ad5ff)" style="fill: #1f77b4"/>
   </g>
   <g id="patch_120">
    <path d="M 238.065208 224.64 
L 239.574736 224.64 
L 239.574736 109.53887 
L 238.065208 109.53887 
z
" clip-path="url(#p75fd1ad5ff)" style="fill: #1f77b4"/>
   </g>
   <g id="patch_121">
    <path d="M 239.574736 224.64 
L 241.084264 224.64 
L 241.084264 118.689169 
L 239.574736 118.689169 
z
" clip-path="url(#p75fd1ad5ff)" style="fill: #1f77b4"/>
   </g>
   <g id="patch_122">
    <path d="M 241.084264 224.64 
L 242.593792 224.64 
L 242.593792 110.50206 
L 241.084264 110.50206 
z
" clip-path="url(#p75fd1ad5ff)" style="fill: #1f77b4"/>
   </g>
   <g id="patch_123">
    <path d="M 242.593792 224.64 
L 244.103319 224.64 
L 244.103319 113.391628 
L 242.593792 113.391628 
z
" clip-path="url(#p75fd1ad5ff)" style="fill: #1f77b4"/>
   </g>
   <g id="patch_124">
    <path d="M 244.103319 224.64 
L 245.612847 224.64 
L 245.612847 116.281196 
L 244.103319 116.281196 
z
" clip-path="url(#p75fd1ad5ff)" style="fill: #1f77b4"/>
   </g>
   <g id="patch_125">
    <path d="M 245.612847 224.64 
L 247.122375 224.64 
L 247.122375 108.094086 
L 245.612847 108.094086 
z
" clip-path="url(#p75fd1ad5ff)" style="fill: #1f77b4"/>
   </g>
   <g id="patch_126">
    <path d="M 247.122375 224.64 
L 248.631903 224.64 
L 248.631903 120.615548 
L 247.122375 120.615548 
z
" clip-path="url(#p75fd1ad5ff)" style="fill: #1f77b4"/>
   </g>
   <g id="patch_127">
    <path d="M 248.631903 224.64 
L 250.141431 224.64 
L 250.141431 112.428439 
L 248.631903 112.428439 
z
" clip-path="url(#p75fd1ad5ff)" style="fill: #1f77b4"/>
   </g>
   <g id="patch_128">
    <path d="M 250.141431 224.64 
L 251.650959 224.64 
L 251.650959 99.425382 
L 250.141431 99.425382 
z
" clip-path="url(#p75fd1ad5ff)" style="fill: #1f77b4"/>
   </g>
   <g id="patch_129">
    <path d="M 251.650959 224.64 
L 253.160486 224.64 
L 253.160486 89.311894 
L 251.650959 89.311894 
z
" clip-path="url(#p75fd1ad5ff)" style="fill: #1f77b4"/>
   </g>
   <g id="patch_130">
    <path d="M 253.160486 224.64 
L 254.670014 224.64 
L 254.670014 108.575681 
L 253.160486 108.575681 
z
" clip-path="url(#p75fd1ad5ff)" style="fill: #1f77b4"/>
   </g>
   <g id="patch_131">
    <path d="M 254.670014 224.64 
L 256.179542 224.64 
L 256.179542 106.649302 
L 254.670014 106.649302 
z
" clip-path="url(#p75fd1ad5ff)" style="fill: #1f77b4"/>
   </g>
   <g id="patch_132">
    <path d="M 256.179542 224.64 
L 257.68907 224.64 
L 257.68907 97.499003 
L 256.179542 97.499003 
z
" clip-path="url(#p75fd1ad5ff)" style="fill: #1f77b4"/>
   </g>
   <g id="patch_133">
    <path d="M 257.68907 224.64 
L 259.198598 224.64 
L 259.198598 98.462193 
L 257.68907 98.462193 
z
" clip-path="url(#p75fd1ad5ff)" style="fill: #1f77b4"/>
   </g>
   <g id="patch_134">
    <path d="M 259.198598 224.64 
L 260.708126 224.64 
L 260.708126 117.72598 
L 259.198598 117.72598 
z
" clip-path="url(#p75fd1ad5ff)" style="fill: #1f77b4"/>
   </g>
   <g id="patch_135">
    <path d="M 260.708126 224.64 
L 262.217653 224.64 
L 262.217653 99.906977 
L 260.708126 99.906977 
z
" clip-path="url(#p75fd1ad5ff)" style="fill: #1f77b4"/>
   </g>
   <g id="patch_136">
    <path d="M 262.217653 224.64 
L 263.727181 224.64 
L 263.727181 103.759734 
L 262.217653 103.759734 
z
" clip-path="url(#p75fd1ad5ff)" style="fill: #1f77b4"/>
   </g>
   <g id="patch_137">
    <path d="M 263.727181 224.64 
L 265.236709 224.64 
L 265.236709 87.86711 
L 263.727181 87.86711 
z
" clip-path="url(#p75fd1ad5ff)" style="fill: #1f77b4"/>
   </g>
   <g id="patch_138">
    <path d="M 265.236709 224.64 
L 266.746237 224.64 
L 266.746237 95.572625 
L 265.236709 95.572625 
z
" clip-path="url(#p75fd1ad5ff)" style="fill: #1f77b4"/>
   </g>
   <g id="patch_139">
    <path d="M 266.746237 224.64 
L 268.255765 224.64 
L 268.255765 90.275083 
L 266.746237 90.275083 
z
" clip-path="url(#p75fd1ad5ff)" style="fill: #1f77b4"/>
   </g>
   <g id="patch_140">
    <path d="M 268.255765 224.64 
L 269.765293 224.64 
L 269.765293 91.238272 
L 268.255765 91.238272 
z
" clip-path="url(#p75fd1ad5ff)" style="fill: #1f77b4"/>
   </g>
   <g id="patch_141">
    <path d="M 269.765293 224.64 
L 271.27482 224.64 
L 271.27482 80.643189 
L 269.765293 80.643189 
z
" clip-path="url(#p75fd1ad5ff)" style="fill: #1f77b4"/>
   </g>
   <g id="patch_142">
    <path d="M 271.27482 224.64 
L 272.784348 224.64 
L 272.784348 89.793488 
L 271.27482 89.793488 
z
" clip-path="url(#p75fd1ad5ff)" style="fill: #1f77b4"/>
   </g>
   <g id="patch_143">
    <path d="M 272.784348 224.64 
L 274.293876 224.64 
L 274.293876 101.351761 
L 272.784348 101.351761 
z
" clip-path="url(#p75fd1ad5ff)" style="fill: #1f77b4"/>
   </g>
   <g id="patch_144">
    <path d="M 274.293876 224.64 
L 275.803404 224.64 
L 275.803404 103.27814 
L 274.293876 103.27814 
z
" clip-path="url(#p75fd1ad5ff)" style="fill: #1f77b4"/>
   </g>
   <g id="patch_145">
    <path d="M 275.803404 224.64 
L 277.312932 224.64 
L 277.312932 91.719867 
L 275.803404 91.719867 
z
" clip-path="url(#p75fd1ad5ff)" style="fill: #1f77b4"/>
   </g>
   <g id="patch_146">
    <path d="M 277.312932 224.64 
L 278.82246 224.64 
L 278.82246 92.683056 
L 277.312932 92.683056 
z
" clip-path="url(#p75fd1ad5ff)" style="fill: #1f77b4"/>
   </g>
   <g id="patch_147">
    <path d="M 278.82246 224.64 
L 280.331987 224.64 
L 280.331987 97.980598 
L 278.82246 97.980598 
z
" clip-path="url(#p75fd1ad5ff)" style="fill: #1f77b4"/>
   </g>
   <g id="patch_148">
    <path d="M 280.331987 224.64 
L 281.841515 224.64 
L 281.841515 88.830299 
L 280.331987 88.830299 
z
" clip-path="url(#p75fd1ad5ff)" style="fill: #1f77b4"/>
   </g>
   <g id="patch_149">
    <path d="M 281.841515 224.64 
L 283.351043 224.64 
L 283.351043 72.937674 
L 281.841515 72.937674 
z
" clip-path="url(#p75fd1ad5ff)" style="fill: #1f77b4"/>
   </g>
   <g id="patch_150">
    <path d="M 283.351043 224.64 
L 284.860571 224.64 
L 284.860571 87.385515 
L 283.351043 87.385515 
z
" clip-path="url(#p75fd1ad5ff)" style="fill: #1f77b4"/>
   </g>
   <g id="patch_151">
    <path d="M 284.860571 224.64 
L 286.370099 224.64 
L 286.370099 65.232159 
L 284.860571 65.232159 
z
" clip-path="url(#p75fd1ad5ff)" style="fill: #1f77b4"/>
   </g>
   <g id="patch_152">
    <path d="M 286.370099 224.64 
L 287.879627 224.64 
L 287.879627 75.345648 
L 286.370099 75.345648 
z
" clip-path="url(#p75fd1ad5ff)" style="fill: #1f77b4"/>
   </g>
   <g id="patch_153">
    <path d="M 287.879627 224.64 
L 289.389154 224.64 
L 289.389154 75.827243 
L 287.879627 75.827243 
z
" clip-path="url(#p75fd1ad5ff)" style="fill: #1f77b4"/>
   </g>
   <g id="patch_154">
    <path d="M 289.389154 224.64 
L 290.898682 224.64 
L 290.898682 82.087973 
L 289.389154 82.087973 
z
" clip-path="url(#p75fd1ad5ff)" style="fill: #1f77b4"/>
   </g>
   <g id="patch_155">
    <path d="M 290.898682 224.64 
L 292.40821 224.64 
L 292.40821 71.011296 
L 290.898682 71.011296 
z
" clip-path="url(#p75fd1ad5ff)" style="fill: #1f77b4"/>
   </g>
   <g id="patch_156">
    <path d="M 292.40821 224.64 
L 293.917738 224.64 
L 293.917738 89.311894 
L 292.40821 89.311894 
z
" clip-path="url(#p75fd1ad5ff)" style="fill: #1f77b4"/>
   </g>
   <g id="patch_157">
    <path d="M 293.917738 224.64 
L 295.427266 224.64 
L 295.427266 70.529701 
L 293.917738 70.529701 
z
" clip-path="url(#p75fd1ad5ff)" style="fill: #1f77b4"/>
   </g>
   <g id="patch_158">
    <path d="M 295.427266 224.64 
L 296.936794 224.64 
L 296.936794 82.087973 
L 295.427266 82.087973 
z
" clip-path="url(#p75fd1ad5ff)" style="fill: #1f77b4"/>
   </g>
   <g id="patch_159">
    <path d="M 296.936794 224.64 
L 298.446321 224.64 
L 298.446321 55.118671 
L 296.936794 55.118671 
z
" clip-path="url(#p75fd1ad5ff)" style="fill: #1f77b4"/>
   </g>
   <g id="patch_160">
    <path d="M 298.446321 224.64 
L 299.955849 224.64 
L 299.955849 69.084917 
L 298.446321 69.084917 
z
" clip-path="url(#p75fd1ad5ff)" style="fill: #1f77b4"/>
   </g>
   <g id="patch_161">
    <path d="M 299.955849 224.64 
L 301.465377 224.64 
L 301.465377 62.342591 
L 299.955849 62.342591 
z
" clip-path="url(#p75fd1ad5ff)" style="fill: #1f77b4"/>
   </g>
   <g id="patch_162">
    <path d="M 301.465377 224.64 
L 302.974905 224.64 
L 302.974905 72.45608 
L 301.465377 72.45608 
z
" clip-path="url(#p75fd1ad5ff)" style="fill: #1f77b4"/>
   </g>
   <g id="patch_163">
    <path d="M 302.974905 224.64 
L 304.484433 224.64 
L 304.484433 91.238272 
L 302.974905 91.238272 
z
" clip-path="url(#p75fd1ad5ff)" style="fill: #1f77b4"/>
   </g>
   <g id="patch_164">
    <path d="M 304.484433 224.64 
L 305.993961 224.64 
L 305.993961 84.014352 
L 304.484433 84.014352 
z
" clip-path="url(#p75fd1ad5ff)" style="fill: #1f77b4"/>
   </g>
   <g id="patch_165">
    <path d="M 305.993961 224.64 
L 307.503489 224.64 
L 307.503489 87.86711 
L 305.993961 87.86711 
z
" clip-path="url(#p75fd1ad5ff)" style="fill: #1f77b4"/>
   </g>
   <g id="patch_166">
    <path d="M 307.503489 224.64 
L 309.013016 224.64 
L 309.013016 58.489834 
L 307.503489 58.489834 
z
" clip-path="url(#p75fd1ad5ff)" style="fill: #1f77b4"/>
   </g>
   <g id="patch_167">
    <path d="M 309.013016 224.64 
L 310.522544 224.64 
L 310.522544 81.124784 
L 309.013016 81.124784 
z
" clip-path="url(#p75fd1ad5ff)" style="fill: #1f77b4"/>
   </g>
   <g id="patch_168">
    <path d="M 310.522544 224.64 
L 312.032072 224.64 
L 312.032072 67.640133 
L 310.522544 67.640133 
z
" clip-path="url(#p75fd1ad5ff)" style="fill: #1f77b4"/>
   </g>
   <g id="patch_169">
    <path d="M 312.032072 224.64 
L 313.5416 224.64 
L 313.5416 64.750565 
L 312.032072 64.750565 
z
" clip-path="url(#p75fd1ad5ff)" style="fill: #1f77b4"/>
   </g>
   <g id="patch_170">
    <path d="M 313.5416 224.64 
L 315.051128 224.64 
L 315.051128 58.489834 
L 313.5416 58.489834 
z
" clip-path="url(#p75fd1ad5ff)" style="fill: #1f77b4"/>
   </g>
   <g id="patch_171">
    <path d="M 315.051128 224.64 
L 316.560656 224.64 
L 316.560656 73.419269 
L 315.051128 73.419269 
z
" clip-path="url(#p75fd1ad5ff)" style="fill: #1f77b4"/>
   </g>
   <g id="patch_172">
    <path d="M 316.560656 224.64 
L 318.070183 224.64 
L 318.070183 61.379402 
L 316.560656 61.379402 
z
" clip-path="url(#p75fd1ad5ff)" style="fill: #1f77b4"/>
   </g>
   <g id="patch_173">
    <path d="M 318.070183 224.64 
L 319.579711 224.64 
L 319.579711 56.08186 
L 318.070183 56.08186 
z
" clip-path="url(#p75fd1ad5ff)" style="fill: #1f77b4"/>
   </g>
   <g id="patch_174">
    <path d="M 319.579711 224.64 
L 321.089239 224.64 
L 321.089239 64.26897 
L 319.579711 64.26897 
z
" clip-path="url(#p75fd1ad5ff)" style="fill: #1f77b4"/>
   </g>
   <g id="patch_175">
    <path d="M 321.089239 224.64 
L 322.598767 224.64 
L 322.598767 67.640133 
L 321.089239 67.640133 
z
" clip-path="url(#p75fd1ad5ff)" style="fill: #1f77b4"/>
   </g>
   <g id="patch_176">
    <path d="M 322.598767 224.64 
L 324.108295 224.64 
L 324.108295 72.937674 
L 322.598767 72.937674 
z
" clip-path="url(#p75fd1ad5ff)" style="fill: #1f77b4"/>
   </g>
   <g id="patch_177">
    <path d="M 324.108295 224.64 
L 325.617823 224.64 
L 325.617823 71.49289 
L 324.108295 71.49289 
z
" clip-path="url(#p75fd1ad5ff)" style="fill: #1f77b4"/>
   </g>
   <g id="patch_178">
    <path d="M 325.617823 224.64 
L 327.12735 224.64 
L 327.12735 57.04505 
L 325.617823 57.04505 
z
" clip-path="url(#p75fd1ad5ff)" style="fill: #1f77b4"/>
   </g>
   <g id="patch_179">
    <path d="M 327.12735 224.64 
L 328.636878 224.64 
L 328.636878 58.008239 
L 327.12735 58.008239 
z
" clip-path="url(#p75fd1ad5ff)" style="fill: #1f77b4"/>
   </g>
   <g id="patch_180">
    <path d="M 328.636878 224.64 
L 330.146406 224.64 
L 330.146406 65.713754 
L 328.636878 65.713754 
z
" clip-path="url(#p75fd1ad5ff)" style="fill: #1f77b4"/>
   </g>
   <g id="patch_181">
    <path d="M 330.146406 224.64 
L 331.655934 224.64 
L 331.655934 64.26897 
L 330.146406 64.26897 
z
" clip-path="url(#p75fd1ad5ff)" style="fill: #1f77b4"/>
   </g>
   <g id="patch_182">
    <path d="M 331.655934 224.64 
L 333.165462 224.64 
L 333.165462 39.226047 
L 331.655934 39.226047 
z
" clip-path="url(#p75fd1ad5ff)" style="fill: #1f77b4"/>
   </g>
   <g id="patch_183">
    <path d="M 333.165462 224.64 
L 334.67499 224.64 
L 334.67499 75.345648 
L 333.165462 75.345648 
z
" clip-path="url(#p75fd1ad5ff)" style="fill: #1f77b4"/>
   </g>
   <g id="patch_184">
    <path d="M 334.67499 224.64 
L 336.184517 224.64 
L 336.184517 45.005183 
L 334.67499 45.005183 
z
" clip-path="url(#p75fd1ad5ff)" style="fill: #1f77b4"/>
   </g>
   <g id="patch_185">
    <path d="M 336.184517 224.64 
L 337.694045 224.64 
L 337.694045 54.155482 
L 336.184517 54.155482 
z
" clip-path="url(#p75fd1ad5ff)" style="fill: #1f77b4"/>
   </g>
   <g id="patch_186">
    <path d="M 337.694045 224.64 
L 339.203573 224.64 
L 339.203573 45.968372 
L 337.694045 45.968372 
z
" clip-path="url(#p75fd1ad5ff)" style="fill: #1f77b4"/>
   </g>
   <g id="patch_187">
    <path d="M 339.203573 224.64 
L 340.713101 224.64 
L 340.713101 29.594153 
L 339.203573 29.594153 
z
" clip-path="url(#p75fd1ad5ff)" style="fill: #1f77b4"/>
   </g>
   <g id="patch_188">
    <path d="M 340.713101 224.64 
L 342.222629 224.64 
L 342.222629 40.189236 
L 340.713101 40.189236 
z
" clip-path="url(#p75fd1ad5ff)" style="fill: #1f77b4"/>
   </g>
   <g id="patch_189">
    <path d="M 342.222629 224.64 
L 343.732157 224.64 
L 343.732157 41.152425 
L 342.222629 41.152425 
z
" clip-path="url(#p75fd1ad5ff)" style="fill: #1f77b4"/>
   </g>
   <g id="patch_190">
    <path d="M 343.732157 224.64 
L 345.241684 224.64 
L 345.241684 32.965316 
L 343.732157 32.965316 
z
" clip-path="url(#p75fd1ad5ff)" style="fill: #1f77b4"/>
   </g>
   <g id="patch_191">
    <path d="M 345.241684 224.64 
L 346.751212 224.64 
L 346.751212 46.449967 
L 345.241684 46.449967 
z
" clip-path="url(#p75fd1ad5ff)" style="fill: #1f77b4"/>
   </g>
   <g id="patch_192">
    <path d="M 346.751212 224.64 
L 348.26074 224.64 
L 348.26074 29.112558 
L 346.751212 29.112558 
z
" clip-path="url(#p75fd1ad5ff)" style="fill: #1f77b4"/>
   </g>
   <g id="patch_193">
    <path d="M 348.26074 224.64 
L 349.770268 224.64 
L 349.770268 57.526645 
L 348.26074 57.526645 
z
" clip-path="url(#p75fd1ad5ff)" style="fill: #1f77b4"/>
   </g>
   <g id="patch_194">
    <path d="M 349.770268 224.64 
L 351.279796 224.64 
L 351.279796 22.851827 
L 349.770268 22.851827 
z
" clip-path="url(#p75fd1ad5ff)" style="fill: #1f77b4"/>
   </g>
   <g id="patch_195">
    <path d="M 351.279796 224.64 
L 352.789324 224.64 
L 352.789324 26.704585 
L 351.279796 26.704585 
z
" clip-path="url(#p75fd1ad5ff)" style="fill: #1f77b4"/>
   </g>
   <g id="patch_196">
    <path d="M 352.789324 224.64 
L 354.298851 224.64 
L 354.298851 50.784319 
L 352.789324 50.784319 
z
" clip-path="url(#p75fd1ad5ff)" style="fill: #1f77b4"/>
   </g>
   <g id="patch_197">
    <path d="M 354.298851 224.64 
L 355.808379 224.64 
L 355.808379 34.891694 
L 354.298851 34.891694 
z
" clip-path="url(#p75fd1ad5ff)" style="fill: #1f77b4"/>
   </g>
   <g id="patch_198">
    <path d="M 355.808379 224.64 
L 357.317907 224.64 
L 357.317907 45.486777 
L 355.808379 45.486777 
z
" clip-path="url(#p75fd1ad5ff)" style="fill: #1f77b4"/>
   </g>
   <g id="patch_199">
    <path d="M 357.317907 224.64 
L 358.827435 224.64 
L 358.827435 29.112558 
L 357.317907 29.112558 
z
" clip-path="url(#p75fd1ad5ff)" style="fill: #1f77b4"/>
   </g>
   <g id="patch_200">
    <path d="M 358.827435 224.64 
L 360.336963 224.64 
L 360.336963 41.152425 
L 358.827435 41.152425 
z
" clip-path="url(#p75fd1ad5ff)" style="fill: #1f77b4"/>
   </g>
   <g id="patch_201">
    <path d="M 360.336963 224.64 
L 361.846491 224.64 
L 361.846491 17.554286 
L 360.336963 17.554286 
z
" clip-path="url(#p75fd1ad5ff)" style="fill: #1f77b4"/>
   </g>
   <g id="patch_202">
    <path d="M 361.846491 224.64 
L 363.356018 224.64 
L 363.356018 29.594153 
L 361.846491 29.594153 
z
" clip-path="url(#p75fd1ad5ff)" style="fill: #1f77b4"/>
   </g>
   <g id="matplotlib.axis_1">
    <g id="xtick_1">
     <g id="line2d_1">
      <defs>
       <path id="m3b0d5fc7b5" d="M 0 0 
L 0 3.5 
" style="stroke: #000000; stroke-width: 0.8"/>
      </defs>
      <g>
       <use xlink:href="#m3b0d5fc7b5" x="58.999432" y="224.64" style="stroke: #000000; stroke-width: 0.8"/>
      </g>
     </g>
     <g id="text_1">
      <!-- 0.0 -->
      <g transform="translate(51.047869 239.238437)scale(0.1 -0.1)">
       <defs>
        <path id="DejaVuSans-30" d="M 2034 4250 
Q 1547 4250 1301 3770 
Q 1056 3291 1056 2328 
Q 1056 1369 1301 889 
Q 1547 409 2034 409 
Q 2525 409 2770 889 
Q 3016 1369 3016 2328 
Q 3016 3291 2770 3770 
Q 2525 4250 2034 4250 
z
M 2034 4750 
Q 2819 4750 3233 4129 
Q 3647 3509 3647 2328 
Q 3647 1150 3233 529 
Q 2819 -91 2034 -91 
Q 1250 -91 836 529 
Q 422 1150 422 2328 
Q 422 3509 836 4129 
Q 1250 4750 2034 4750 
z
" transform="scale(0.015625)"/>
        <path id="DejaVuSans-2e" d="M 684 794 
L 1344 794 
L 1344 0 
L 684 0 
L 684 794 
z
" transform="scale(0.015625)"/>
       </defs>
       <use xlink:href="#DejaVuSans-30"/>
       <use xlink:href="#DejaVuSans-2e" x="63.623047"/>
       <use xlink:href="#DejaVuSans-30" x="95.410156"/>
      </g>
     </g>
    </g>
    <g id="xtick_2">
     <g id="line2d_2">
      <g>
       <use xlink:href="#m3b0d5fc7b5" x="119.872159" y="224.64" style="stroke: #000000; stroke-width: 0.8"/>
      </g>
     </g>
     <g id="text_2">
      <!-- 0.2 -->
      <g transform="translate(111.920597 239.238437)scale(0.1 -0.1)">
       <defs>
        <path id="DejaVuSans-32" d="M 1228 531 
L 3431 531 
L 3431 0 
L 469 0 
L 469 531 
Q 828 903 1448 1529 
Q 2069 2156 2228 2338 
Q 2531 2678 2651 2914 
Q 2772 3150 2772 3378 
Q 2772 3750 2511 3984 
Q 2250 4219 1831 4219 
Q 1534 4219 1204 4116 
Q 875 4013 500 3803 
L 500 4441 
Q 881 4594 1212 4672 
Q 1544 4750 1819 4750 
Q 2544 4750 2975 4387 
Q 3406 4025 3406 3419 
Q 3406 3131 3298 2873 
Q 3191 2616 2906 2266 
Q 2828 2175 2409 1742 
Q 1991 1309 1228 531 
z
" transform="scale(0.015625)"/>
       </defs>
       <use xlink:href="#DejaVuSans-30"/>
       <use xlink:href="#DejaVuSans-2e" x="63.623047"/>
       <use xlink:href="#DejaVuSans-32" x="95.410156"/>
      </g>
     </g>
    </g>
    <g id="xtick_3">
     <g id="line2d_3">
      <g>
       <use xlink:href="#m3b0d5fc7b5" x="180.744886" y="224.64" style="stroke: #000000; stroke-width: 0.8"/>
      </g>
     </g>
     <g id="text_3">
      <!-- 0.4 -->
      <g transform="translate(172.793324 239.238437)scale(0.1 -0.1)">
       <defs>
        <path id="DejaVuSans-34" d="M 2419 4116 
L 825 1625 
L 2419 1625 
L 2419 4116 
z
M 2253 4666 
L 3047 4666 
L 3047 1625 
L 3713 1625 
L 3713 1100 
L 3047 1100 
L 3047 0 
L 2419 0 
L 2419 1100 
L 313 1100 
L 313 1709 
L 2253 4666 
z
" transform="scale(0.015625)"/>
       </defs>
       <use xlink:href="#DejaVuSans-30"/>
       <use xlink:href="#DejaVuSans-2e" x="63.623047"/>
       <use xlink:href="#DejaVuSans-34" x="95.410156"/>
      </g>
     </g>
    </g>
    <g id="xtick_4">
     <g id="line2d_4">
      <g>
       <use xlink:href="#m3b0d5fc7b5" x="241.617614" y="224.64" style="stroke: #000000; stroke-width: 0.8"/>
      </g>
     </g>
     <g id="text_4">
      <!-- 0.6 -->
      <g transform="translate(233.666051 239.238437)scale(0.1 -0.1)">
       <defs>
        <path id="DejaVuSans-36" d="M 2113 2584 
Q 1688 2584 1439 2293 
Q 1191 2003 1191 1497 
Q 1191 994 1439 701 
Q 1688 409 2113 409 
Q 2538 409 2786 701 
Q 3034 994 3034 1497 
Q 3034 2003 2786 2293 
Q 2538 2584 2113 2584 
z
M 3366 4563 
L 3366 3988 
Q 3128 4100 2886 4159 
Q 2644 4219 2406 4219 
Q 1781 4219 1451 3797 
Q 1122 3375 1075 2522 
Q 1259 2794 1537 2939 
Q 1816 3084 2150 3084 
Q 2853 3084 3261 2657 
Q 3669 2231 3669 1497 
Q 3669 778 3244 343 
Q 2819 -91 2113 -91 
Q 1303 -91 875 529 
Q 447 1150 447 2328 
Q 447 3434 972 4092 
Q 1497 4750 2381 4750 
Q 2619 4750 2861 4703 
Q 3103 4656 3366 4563 
z
" transform="scale(0.015625)"/>
       </defs>
       <use xlink:href="#DejaVuSans-30"/>
       <use xlink:href="#DejaVuSans-2e" x="63.623047"/>
       <use xlink:href="#DejaVuSans-36" x="95.410156"/>
      </g>
     </g>
    </g>
    <g id="xtick_5">
     <g id="line2d_5">
      <g>
       <use xlink:href="#m3b0d5fc7b5" x="302.490341" y="224.64" style="stroke: #000000; stroke-width: 0.8"/>
      </g>
     </g>
     <g id="text_5">
      <!-- 0.8 -->
      <g transform="translate(294.538778 239.238437)scale(0.1 -0.1)">
       <defs>
        <path id="DejaVuSans-38" d="M 2034 2216 
Q 1584 2216 1326 1975 
Q 1069 1734 1069 1313 
Q 1069 891 1326 650 
Q 1584 409 2034 409 
Q 2484 409 2743 651 
Q 3003 894 3003 1313 
Q 3003 1734 2745 1975 
Q 2488 2216 2034 2216 
z
M 1403 2484 
Q 997 2584 770 2862 
Q 544 3141 544 3541 
Q 544 4100 942 4425 
Q 1341 4750 2034 4750 
Q 2731 4750 3128 4425 
Q 3525 4100 3525 3541 
Q 3525 3141 3298 2862 
Q 3072 2584 2669 2484 
Q 3125 2378 3379 2068 
Q 3634 1759 3634 1313 
Q 3634 634 3220 271 
Q 2806 -91 2034 -91 
Q 1263 -91 848 271 
Q 434 634 434 1313 
Q 434 1759 690 2068 
Q 947 2378 1403 2484 
z
M 1172 3481 
Q 1172 3119 1398 2916 
Q 1625 2713 2034 2713 
Q 2441 2713 2670 2916 
Q 2900 3119 2900 3481 
Q 2900 3844 2670 4047 
Q 2441 4250 2034 4250 
Q 1625 4250 1398 4047 
Q 1172 3844 1172 3481 
z
" transform="scale(0.015625)"/>
       </defs>
       <use xlink:href="#DejaVuSans-30"/>
       <use xlink:href="#DejaVuSans-2e" x="63.623047"/>
       <use xlink:href="#DejaVuSans-38" x="95.410156"/>
      </g>
     </g>
    </g>
    <g id="xtick_6">
     <g id="line2d_6">
      <g>
       <use xlink:href="#m3b0d5fc7b5" x="363.363068" y="224.64" style="stroke: #000000; stroke-width: 0.8"/>
      </g>
     </g>
     <g id="text_6">
      <!-- 1.0 -->
      <g transform="translate(355.411506 239.238437)scale(0.1 -0.1)">
       <defs>
        <path id="DejaVuSans-31" d="M 794 531 
L 1825 531 
L 1825 4091 
L 703 3866 
L 703 4441 
L 1819 4666 
L 2450 4666 
L 2450 531 
L 3481 531 
L 3481 0 
L 794 0 
L 794 531 
z
" transform="scale(0.015625)"/>
       </defs>
       <use xlink:href="#DejaVuSans-31"/>
       <use xlink:href="#DejaVuSans-2e" x="63.623047"/>
       <use xlink:href="#DejaVuSans-30" x="95.410156"/>
      </g>
     </g>
    </g>
    <g id="text_7">
     <!-- Propagation direction -->
     <g transform="translate(157.699219 252.916562)scale(0.1 -0.1)">
      <defs>
       <path id="DejaVuSans-50" d="M 1259 4147 
L 1259 2394 
L 2053 2394 
Q 2494 2394 2734 2622 
Q 2975 2850 2975 3272 
Q 2975 3691 2734 3919 
Q 2494 4147 2053 4147 
L 1259 4147 
z
M 628 4666 
L 2053 4666 
Q 2838 4666 3239 4311 
Q 3641 3956 3641 3272 
Q 3641 2581 3239 2228 
Q 2838 1875 2053 1875 
L 1259 1875 
L 1259 0 
L 628 0 
L 628 4666 
z
" transform="scale(0.015625)"/>
       <path id="DejaVuSans-72" d="M 2631 2963 
Q 2534 3019 2420 3045 
Q 2306 3072 2169 3072 
Q 1681 3072 1420 2755 
Q 1159 2438 1159 1844 
L 1159 0 
L 581 0 
L 581 3500 
L 1159 3500 
L 1159 2956 
Q 1341 3275 1631 3429 
Q 1922 3584 2338 3584 
Q 2397 3584 2469 3576 
Q 2541 3569 2628 3553 
L 2631 2963 
z
" transform="scale(0.015625)"/>
       <path id="DejaVuSans-6f" d="M 1959 3097 
Q 1497 3097 1228 2736 
Q 959 2375 959 1747 
Q 959 1119 1226 758 
Q 1494 397 1959 397 
Q 2419 397 2687 759 
Q 2956 1122 2956 1747 
Q 2956 2369 2687 2733 
Q 2419 3097 1959 3097 
z
M 1959 3584 
Q 2709 3584 3137 3096 
Q 3566 2609 3566 1747 
Q 3566 888 3137 398 
Q 2709 -91 1959 -91 
Q 1206 -91 779 398 
Q 353 888 353 1747 
Q 353 2609 779 3096 
Q 1206 3584 1959 3584 
z
" transform="scale(0.015625)"/>
       <path id="DejaVuSans-70" d="M 1159 525 
L 1159 -1331 
L 581 -1331 
L 581 3500 
L 1159 3500 
L 1159 2969 
Q 1341 3281 1617 3432 
Q 1894 3584 2278 3584 
Q 2916 3584 3314 3078 
Q 3713 2572 3713 1747 
Q 3713 922 3314 415 
Q 2916 -91 2278 -91 
Q 1894 -91 1617 61 
Q 1341 213 1159 525 
z
M 3116 1747 
Q 3116 2381 2855 2742 
Q 2594 3103 2138 3103 
Q 1681 3103 1420 2742 
Q 1159 2381 1159 1747 
Q 1159 1113 1420 752 
Q 1681 391 2138 391 
Q 2594 391 2855 752 
Q 3116 1113 3116 1747 
z
" transform="scale(0.015625)"/>
       <path id="DejaVuSans-61" d="M 2194 1759 
Q 1497 1759 1228 1600 
Q 959 1441 959 1056 
Q 959 750 1161 570 
Q 1363 391 1709 391 
Q 2188 391 2477 730 
Q 2766 1069 2766 1631 
L 2766 1759 
L 2194 1759 
z
M 3341 1997 
L 3341 0 
L 2766 0 
L 2766 531 
Q 2569 213 2275 61 
Q 1981 -91 1556 -91 
Q 1019 -91 701 211 
Q 384 513 384 1019 
Q 384 1609 779 1909 
Q 1175 2209 1959 2209 
L 2766 2209 
L 2766 2266 
Q 2766 2663 2505 2880 
Q 2244 3097 1772 3097 
Q 1472 3097 1187 3025 
Q 903 2953 641 2809 
L 641 3341 
Q 956 3463 1253 3523 
Q 1550 3584 1831 3584 
Q 2591 3584 2966 3190 
Q 3341 2797 3341 1997 
z
" transform="scale(0.015625)"/>
       <path id="DejaVuSans-67" d="M 2906 1791 
Q 2906 2416 2648 2759 
Q 2391 3103 1925 3103 
Q 1463 3103 1205 2759 
Q 947 2416 947 1791 
Q 947 1169 1205 825 
Q 1463 481 1925 481 
Q 2391 481 2648 825 
Q 2906 1169 2906 1791 
z
M 3481 434 
Q 3481 -459 3084 -895 
Q 2688 -1331 1869 -1331 
Q 1566 -1331 1297 -1286 
Q 1028 -1241 775 -1147 
L 775 -588 
Q 1028 -725 1275 -790 
Q 1522 -856 1778 -856 
Q 2344 -856 2625 -561 
Q 2906 -266 2906 331 
L 2906 616 
Q 2728 306 2450 153 
Q 2172 0 1784 0 
Q 1141 0 747 490 
Q 353 981 353 1791 
Q 353 2603 747 3093 
Q 1141 3584 1784 3584 
Q 2172 3584 2450 3431 
Q 2728 3278 2906 2969 
L 2906 3500 
L 3481 3500 
L 3481 434 
z
" transform="scale(0.015625)"/>
       <path id="DejaVuSans-74" d="M 1172 4494 
L 1172 3500 
L 2356 3500 
L 2356 3053 
L 1172 3053 
L 1172 1153 
Q 1172 725 1289 603 
Q 1406 481 1766 481 
L 2356 481 
L 2356 0 
L 1766 0 
Q 1100 0 847 248 
Q 594 497 594 1153 
L 594 3053 
L 172 3053 
L 172 3500 
L 594 3500 
L 594 4494 
L 1172 4494 
z
" transform="scale(0.015625)"/>
       <path id="DejaVuSans-69" d="M 603 3500 
L 1178 3500 
L 1178 0 
L 603 0 
L 603 3500 
z
M 603 4863 
L 1178 4863 
L 1178 4134 
L 603 4134 
L 603 4863 
z
" transform="scale(0.015625)"/>
       <path id="DejaVuSans-6e" d="M 3513 2113 
L 3513 0 
L 2938 0 
L 2938 2094 
Q 2938 2591 2744 2837 
Q 2550 3084 2163 3084 
Q 1697 3084 1428 2787 
Q 1159 2491 1159 1978 
L 1159 0 
L 581 0 
L 581 3500 
L 1159 3500 
L 1159 2956 
Q 1366 3272 1645 3428 
Q 1925 3584 2291 3584 
Q 2894 3584 3203 3211 
Q 3513 2838 3513 2113 
z
" transform="scale(0.015625)"/>
       <path id="DejaVuSans-20" transform="scale(0.015625)"/>
       <path id="DejaVuSans-64" d="M 2906 2969 
L 2906 4863 
L 3481 4863 
L 3481 0 
L 2906 0 
L 2906 525 
Q 2725 213 2448 61 
Q 2172 -91 1784 -91 
Q 1150 -91 751 415 
Q 353 922 353 1747 
Q 353 2572 751 3078 
Q 1150 3584 1784 3584 
Q 2172 3584 2448 3432 
Q 2725 3281 2906 2969 
z
M 947 1747 
Q 947 1113 1208 752 
Q 1469 391 1925 391 
Q 2381 391 2643 752 
Q 2906 1113 2906 1747 
Q 2906 2381 2643 2742 
Q 2381 3103 1925 3103 
Q 1469 3103 1208 2742 
Q 947 2381 947 1747 
z
" transform="scale(0.015625)"/>
       <path id="DejaVuSans-65" d="M 3597 1894 
L 3597 1613 
L 953 1613 
Q 991 1019 1311 708 
Q 1631 397 2203 397 
Q 2534 397 2845 478 
Q 3156 559 3463 722 
L 3463 178 
Q 3153 47 2828 -22 
Q 2503 -91 2169 -91 
Q 1331 -91 842 396 
Q 353 884 353 1716 
Q 353 2575 817 3079 
Q 1281 3584 2069 3584 
Q 2775 3584 3186 3129 
Q 3597 2675 3597 1894 
z
M 3022 2063 
Q 3016 2534 2758 2815 
Q 2500 3097 2075 3097 
Q 1594 3097 1305 2825 
Q 1016 2553 972 2059 
L 3022 2063 
z
" transform="scale(0.015625)"/>
       <path id="DejaVuSans-63" d="M 3122 3366 
L 3122 2828 
Q 2878 2963 2633 3030 
Q 2388 3097 2138 3097 
Q 1578 3097 1268 2742 
Q 959 2388 959 1747 
Q 959 1106 1268 751 
Q 1578 397 2138 397 
Q 2388 397 2633 464 
Q 2878 531 3122 666 
L 3122 134 
Q 2881 22 2623 -34 
Q 2366 -91 2075 -91 
Q 1284 -91 818 406 
Q 353 903 353 1747 
Q 353 2603 823 3093 
Q 1294 3584 2113 3584 
Q 2378 3584 2631 3529 
Q 2884 3475 3122 3366 
z
" transform="scale(0.015625)"/>
      </defs>
      <use xlink:href="#DejaVuSans-50"/>
      <use xlink:href="#DejaVuSans-72" x="58.552734"/>
      <use xlink:href="#DejaVuSans-6f" x="97.416016"/>
      <use xlink:href="#DejaVuSans-70" x="158.597656"/>
      <use xlink:href="#DejaVuSans-61" x="222.074219"/>
      <use xlink:href="#DejaVuSans-67" x="283.353516"/>
      <use xlink:href="#DejaVuSans-61" x="346.830078"/>
      <use xlink:href="#DejaVuSans-74" x="408.109375"/>
      <use xlink:href="#DejaVuSans-69" x="447.318359"/>
      <use xlink:href="#DejaVuSans-6f" x="475.101562"/>
      <use xlink:href="#DejaVuSans-6e" x="536.283203"/>
      <use xlink:href="#DejaVuSans-20" x="599.662109"/>
      <use xlink:href="#DejaVuSans-64" x="631.449219"/>
      <use xlink:href="#DejaVuSans-69" x="694.925781"/>
      <use xlink:href="#DejaVuSans-72" x="722.708984"/>
      <use xlink:href="#DejaVuSans-65" x="761.572266"/>
      <use xlink:href="#DejaVuSans-63" x="823.095703"/>
      <use xlink:href="#DejaVuSans-74" x="878.076172"/>
      <use xlink:href="#DejaVuSans-69" x="917.285156"/>
      <use xlink:href="#DejaVuSans-6f" x="945.068359"/>
      <use xlink:href="#DejaVuSans-6e" x="1006.25"/>
     </g>
    </g>
   </g>
   <g id="matplotlib.axis_2">
    <g id="ytick_1">
     <g id="line2d_7">
      <defs>
       <path id="m6cbd571c38" d="M 0 0 
L -3.5 0 
" style="stroke: #000000; stroke-width: 0.8"/>
      </defs>
      <g>
       <use xlink:href="#m6cbd571c38" x="43.78125" y="224.64" style="stroke: #000000; stroke-width: 0.8"/>
      </g>
     </g>
     <g id="text_8">
      <!-- 0.0 -->
      <g transform="translate(20.878125 228.439219)scale(0.1 -0.1)">
       <use xlink:href="#DejaVuSans-30"/>
       <use xlink:href="#DejaVuSans-2e" x="63.623047"/>
       <use xlink:href="#DejaVuSans-30" x="95.410156"/>
      </g>
     </g>
    </g>
    <g id="ytick_2">
     <g id="line2d_8">
      <g>
       <use xlink:href="#m6cbd571c38" x="43.78125" y="176.869472" style="stroke: #000000; stroke-width: 0.8"/>
      </g>
     </g>
     <g id="text_9">
      <!-- 0.5 -->
      <g transform="translate(20.878125 180.668691)scale(0.1 -0.1)">
       <defs>
        <path id="DejaVuSans-35" d="M 691 4666 
L 3169 4666 
L 3169 4134 
L 1269 4134 
L 1269 2991 
Q 1406 3038 1543 3061 
Q 1681 3084 1819 3084 
Q 2600 3084 3056 2656 
Q 3513 2228 3513 1497 
Q 3513 744 3044 326 
Q 2575 -91 1722 -91 
Q 1428 -91 1123 -41 
Q 819 9 494 109 
L 494 744 
Q 775 591 1075 516 
Q 1375 441 1709 441 
Q 2250 441 2565 725 
Q 2881 1009 2881 1497 
Q 2881 1984 2565 2268 
Q 2250 2553 1709 2553 
Q 1456 2553 1204 2497 
Q 953 2441 691 2322 
L 691 4666 
z
" transform="scale(0.015625)"/>
       </defs>
       <use xlink:href="#DejaVuSans-30"/>
       <use xlink:href="#DejaVuSans-2e" x="63.623047"/>
       <use xlink:href="#DejaVuSans-35" x="95.410156"/>
      </g>
     </g>
    </g>
    <g id="ytick_3">
     <g id="line2d_9">
      <g>
       <use xlink:href="#m6cbd571c38" x="43.78125" y="129.098944" style="stroke: #000000; stroke-width: 0.8"/>
      </g>
     </g>
     <g id="text_10">
      <!-- 1.0 -->
      <g transform="translate(20.878125 132.898163)scale(0.1 -0.1)">
       <use xlink:href="#DejaVuSans-31"/>
       <use xlink:href="#DejaVuSans-2e" x="63.623047"/>
       <use xlink:href="#DejaVuSans-30" x="95.410156"/>
      </g>
     </g>
    </g>
    <g id="ytick_4">
     <g id="line2d_10">
      <g>
       <use xlink:href="#m6cbd571c38" x="43.78125" y="81.328416" style="stroke: #000000; stroke-width: 0.8"/>
      </g>
     </g>
     <g id="text_11">
      <!-- 1.5 -->
      <g transform="translate(20.878125 85.127634)scale(0.1 -0.1)">
       <use xlink:href="#DejaVuSans-31"/>
       <use xlink:href="#DejaVuSans-2e" x="63.623047"/>
       <use xlink:href="#DejaVuSans-35" x="95.410156"/>
      </g>
     </g>
    </g>
    <g id="ytick_5">
     <g id="line2d_11">
      <g>
       <use xlink:href="#m6cbd571c38" x="43.78125" y="33.557888" style="stroke: #000000; stroke-width: 0.8"/>
      </g>
     </g>
     <g id="text_12">
      <!-- 2.0 -->
      <g transform="translate(20.878125 37.357106)scale(0.1 -0.1)">
       <use xlink:href="#DejaVuSans-32"/>
       <use xlink:href="#DejaVuSans-2e" x="63.623047"/>
       <use xlink:href="#DejaVuSans-30" x="95.410156"/>
      </g>
     </g>
    </g>
    <g id="text_13">
     <!-- Probability density -->
     <g transform="translate(14.798438 162.270781)rotate(-90)scale(0.1 -0.1)">
      <defs>
       <path id="DejaVuSans-62" d="M 3116 1747 
Q 3116 2381 2855 2742 
Q 2594 3103 2138 3103 
Q 1681 3103 1420 2742 
Q 1159 2381 1159 1747 
Q 1159 1113 1420 752 
Q 1681 391 2138 391 
Q 2594 391 2855 752 
Q 3116 1113 3116 1747 
z
M 1159 2969 
Q 1341 3281 1617 3432 
Q 1894 3584 2278 3584 
Q 2916 3584 3314 3078 
Q 3713 2572 3713 1747 
Q 3713 922 3314 415 
Q 2916 -91 2278 -91 
Q 1894 -91 1617 61 
Q 1341 213 1159 525 
L 1159 0 
L 581 0 
L 581 4863 
L 1159 4863 
L 1159 2969 
z
" transform="scale(0.015625)"/>
       <path id="DejaVuSans-6c" d="M 603 4863 
L 1178 4863 
L 1178 0 
L 603 0 
L 603 4863 
z
" transform="scale(0.015625)"/>
       <path id="DejaVuSans-79" d="M 2059 -325 
Q 1816 -950 1584 -1140 
Q 1353 -1331 966 -1331 
L 506 -1331 
L 506 -850 
L 844 -850 
Q 1081 -850 1212 -737 
Q 1344 -625 1503 -206 
L 1606 56 
L 191 3500 
L 800 3500 
L 1894 763 
L 2988 3500 
L 3597 3500 
L 2059 -325 
z
" transform="scale(0.015625)"/>
       <path id="DejaVuSans-73" d="M 2834 3397 
L 2834 2853 
Q 2591 2978 2328 3040 
Q 2066 3103 1784 3103 
Q 1356 3103 1142 2972 
Q 928 2841 928 2578 
Q 928 2378 1081 2264 
Q 1234 2150 1697 2047 
L 1894 2003 
Q 2506 1872 2764 1633 
Q 3022 1394 3022 966 
Q 3022 478 2636 193 
Q 2250 -91 1575 -91 
Q 1294 -91 989 -36 
Q 684 19 347 128 
L 347 722 
Q 666 556 975 473 
Q 1284 391 1588 391 
Q 1994 391 2212 530 
Q 2431 669 2431 922 
Q 2431 1156 2273 1281 
Q 2116 1406 1581 1522 
L 1381 1569 
Q 847 1681 609 1914 
Q 372 2147 372 2553 
Q 372 3047 722 3315 
Q 1072 3584 1716 3584 
Q 2034 3584 2315 3537 
Q 2597 3491 2834 3397 
z
" transform="scale(0.015625)"/>
      </defs>
      <use xlink:href="#DejaVuSans-50"/>
      <use xlink:href="#DejaVuSans-72" x="58.552734"/>
      <use xlink:href="#DejaVuSans-6f" x="97.416016"/>
      <use xlink:href="#DejaVuSans-62" x="158.597656"/>
      <use xlink:href="#DejaVuSans-61" x="222.074219"/>
      <use xlink:href="#DejaVuSans-62" x="283.353516"/>
      <use xlink:href="#DejaVuSans-69" x="346.830078"/>
      <use xlink:href="#DejaVuSans-6c" x="374.613281"/>
      <use xlink:href="#DejaVuSans-69" x="402.396484"/>
      <use xlink:href="#DejaVuSans-74" x="430.179688"/>
      <use xlink:href="#DejaVuSans-79" x="469.388672"/>
      <use xlink:href="#DejaVuSans-20" x="528.568359"/>
      <use xlink:href="#DejaVuSans-64" x="560.355469"/>
      <use xlink:href="#DejaVuSans-65" x="623.832031"/>
      <use xlink:href="#DejaVuSans-6e" x="685.355469"/>
      <use xlink:href="#DejaVuSans-73" x="748.734375"/>
      <use xlink:href="#DejaVuSans-69" x="800.833984"/>
      <use xlink:href="#DejaVuSans-74" x="828.617188"/>
      <use xlink:href="#DejaVuSans-79" x="867.826172"/>
     </g>
    </g>
   </g>
   <g id="line2d_12">
    <path d="M 58.999432 224.64 
L 363.363068 33.557888 
L 363.363068 33.557888 
" clip-path="url(#p75fd1ad5ff)" style="fill: none; stroke: #ff7f0e; stroke-width: 1.5; stroke-linecap: square"/>
   </g>
   <g id="patch_203">
    <path d="M 43.78125 224.64 
L 43.78125 7.2 
" style="fill: none; stroke: #000000; stroke-width: 0.8; stroke-linejoin: miter; stroke-linecap: square"/>
   </g>
   <g id="patch_204">
    <path d="M 378.58125 224.64 
L 378.58125 7.2 
" style="fill: none; stroke: #000000; stroke-width: 0.8; stroke-linejoin: miter; stroke-linecap: square"/>
   </g>
   <g id="patch_205">
    <path d="M 43.78125 224.64 
L 378.58125 224.64 
" style="fill: none; stroke: #000000; stroke-width: 0.8; stroke-linejoin: miter; stroke-linecap: square"/>
   </g>
   <g id="patch_206">
    <path d="M 43.78125 7.2 
L 378.58125 7.2 
" style="fill: none; stroke: #000000; stroke-width: 0.8; stroke-linejoin: miter; stroke-linecap: square"/>
   </g>
  </g>
 </g>
 <defs>
  <clipPath id="p75fd1ad5ff">
   <rect x="43.78125" y="7.2" width="334.8" height="217.44"/>
  </clipPath>
 </defs>
</svg>
