<?xml version="1.0" encoding="utf-8" standalone="no"?>
<!DOCTYPE svg PUBLIC "-//W3C//DTD SVG 1.1//EN"
  "http://www.w3.org/Graphics/SVG/1.1/DTD/svg11.dtd">
<svg xmlns:xlink="http://www.w3.org/1999/xlink" width="376.240625pt" height="272.794688pt" viewBox="0 0 376.240625 272.794688" xmlns="http://www.w3.org/2000/svg" version="1.1">
 <metadata>
  <rdf:RDF xmlns:dc="http://purl.org/dc/elements/1.1/" xmlns:cc="http://creativecommons.org/ns#" xmlns:rdf="http://www.w3.org/1999/02/22-rdf-syntax-ns#">
   <cc:Work>
    <dc:type rdf:resource="http://purl.org/dc/dcmitype/StillImage"/>
    <dc:date>2022-07-18T15:33:15.189214</dc:date>
    <dc:format>image/svg+xml</dc:format>
    <dc:creator>
     <cc:Agent>
      <dc:title>Matplotlib v3.5.2, https://matplotlib.org/</dc:title>
     </cc:Agent>
    </dc:creator>
   </cc:Work>
  </rdf:RDF>
 </metadata>
 <defs>
  <style type="text/css">*{stroke-linejoin: round; stroke-linecap: butt}</style>
 </defs>
 <g id="figure_1">
  <g id="patch_1">
   <path d="M 0 272.794688 
L 376.240625 272.794688 
L 376.240625 0 
L 0 0 
L 0 272.794688 
z
" style="fill: none"/>
  </g>
  <g id="axes_1">
   <g id="patch_2">
    <path d="M 34.240625 235.238438 
L 369.040625 235.238438 
L 369.040625 17.798438 
L 34.240625 17.798438 
z
" style="fill: #ffffff"/>
   </g>
   <g id="patch_3">
    <path d="M 49.458807 235.238438 
L 50.980625 235.238438 
L 50.980625 232.122564 
L 49.458807 232.122564 
z
" clip-path="url(#p5c7e77d06b)" style="fill: #1f77b4"/>
   </g>
   <g id="patch_4">
    <path d="M 50.980625 235.238438 
L 52.502443 235.238438 
L 52.502443 226.849549 
L 50.980625 226.849549 
z
" clip-path="url(#p5c7e77d06b)" style="fill: #1f77b4"/>
   </g>
   <g id="patch_5">
    <path d="M 52.502443 235.238438 
L 54.024261 235.238438 
L 54.024261 222.535263 
L 52.502443 222.535263 
z
" clip-path="url(#p5c7e77d06b)" style="fill: #1f77b4"/>
   </g>
   <g id="patch_6">
    <path d="M 54.024261 235.238438 
L 55.54608 235.238438 
L 55.54608 216.782882 
L 54.024261 216.782882 
z
" clip-path="url(#p5c7e77d06b)" style="fill: #1f77b4"/>
   </g>
   <g id="patch_7">
    <path d="M 55.54608 235.238438 
L 57.067898 235.238438 
L 57.067898 209.113041 
L 55.54608 209.113041 
z
" clip-path="url(#p5c7e77d06b)" style="fill: #1f77b4"/>
   </g>
   <g id="patch_8">
    <path d="M 57.067898 235.238438 
L 58.589716 235.238438 
L 58.589716 192.09558 
L 57.067898 192.09558 
z
" clip-path="url(#p5c7e77d06b)" style="fill: #1f77b4"/>
   </g>
   <g id="patch_9">
    <path d="M 58.589716 235.238438 
L 60.111534 235.238438 
L 60.111534 187.541612 
L 58.589716 187.541612 
z
" clip-path="url(#p5c7e77d06b)" style="fill: #1f77b4"/>
   </g>
   <g id="patch_10">
    <path d="M 60.111534 235.238438 
L 61.633352 235.238438 
L 61.633352 168.367009 
L 60.111534 168.367009 
z
" clip-path="url(#p5c7e77d06b)" style="fill: #1f77b4"/>
   </g>
   <g id="patch_11">
    <path d="M 61.633352 235.238438 
L 63.15517 235.238438 
L 63.15517 164.771771 
L 61.633352 164.771771 
z
" clip-path="url(#p5c7e77d06b)" style="fill: #1f77b4"/>
   </g>
   <g id="patch_12">
    <path d="M 63.15517 235.238438 
L 64.676989 235.238438 
L 64.676989 144.638438 
L 63.15517 144.638438 
z
" clip-path="url(#p5c7e77d06b)" style="fill: #1f77b4"/>
   </g>
   <g id="patch_13">
    <path d="M 64.676989 235.238438 
L 66.198807 235.238438 
L 66.198807 137.208279 
L 64.676989 137.208279 
z
" clip-path="url(#p5c7e77d06b)" style="fill: #1f77b4"/>
   </g>
   <g id="patch_14">
    <path d="M 66.198807 235.238438 
L 67.720625 235.238438 
L 67.720625 128.579707 
L 66.198807 128.579707 
z
" clip-path="url(#p5c7e77d06b)" style="fill: #1f77b4"/>
   </g>
   <g id="patch_15">
    <path d="M 67.720625 235.238438 
L 69.242443 235.238438 
L 69.242443 119.232088 
L 67.720625 119.232088 
z
" clip-path="url(#p5c7e77d06b)" style="fill: #1f77b4"/>
   </g>
   <g id="patch_16">
    <path d="M 69.242443 235.238438 
L 70.764261 235.238438 
L 70.764261 99.098755 
L 69.242443 99.098755 
z
" clip-path="url(#p5c7e77d06b)" style="fill: #1f77b4"/>
   </g>
   <g id="patch_17">
    <path d="M 70.764261 235.238438 
L 72.28608 235.238438 
L 72.28608 95.743199 
L 70.764261 95.743199 
z
" clip-path="url(#p5c7e77d06b)" style="fill: #1f77b4"/>
   </g>
   <g id="patch_18">
    <path d="M 72.28608 235.238438 
L 73.807898 235.238438 
L 73.807898 80.163834 
L 72.28608 80.163834 
z
" clip-path="url(#p5c7e77d06b)" style="fill: #1f77b4"/>
   </g>
   <g id="patch_19">
    <path d="M 73.807898 235.238438 
L 75.329716 235.238438 
L 75.329716 78.246374 
L 73.807898 78.246374 
z
" clip-path="url(#p5c7e77d06b)" style="fill: #1f77b4"/>
   </g>
   <g id="patch_20">
    <path d="M 75.329716 235.238438 
L 76.851534 235.238438 
L 76.851534 76.328914 
L 75.329716 76.328914 
z
" clip-path="url(#p5c7e77d06b)" style="fill: #1f77b4"/>
   </g>
   <g id="patch_21">
    <path d="M 76.851534 235.238438 
L 78.373352 235.238438 
L 78.373352 65.063834 
L 76.851534 65.063834 
z
" clip-path="url(#p5c7e77d06b)" style="fill: #1f77b4"/>
   </g>
   <g id="patch_22">
    <path d="M 78.373352 235.238438 
L 79.89517 235.238438 
L 79.89517 56.435263 
L 78.373352 56.435263 
z
" clip-path="url(#p5c7e77d06b)" style="fill: #1f77b4"/>
   </g>
   <g id="patch_23">
    <path d="M 79.89517 235.238438 
L 81.416989 235.238438 
L 81.416989 51.881295 
L 79.89517 51.881295 
z
" clip-path="url(#p5c7e77d06b)" style="fill: #1f77b4"/>
   </g>
   <g id="patch_24">
    <path d="M 81.416989 235.238438 
L 82.938807 235.238438 
L 82.938807 53.559072 
L 81.416989 53.559072 
z
" clip-path="url(#p5c7e77d06b)" style="fill: #1f77b4"/>
   </g>
   <g id="patch_25">
    <path d="M 82.938807 235.238438 
L 84.460625 235.238438 
L 84.460625 51.162247 
L 82.938807 51.162247 
z
" clip-path="url(#p5c7e77d06b)" style="fill: #1f77b4"/>
   </g>
   <g id="patch_26">
    <path d="M 84.460625 235.238438 
L 85.982443 235.238438 
L 85.982443 41.09558 
L 84.460625 41.09558 
z
" clip-path="url(#p5c7e77d06b)" style="fill: #1f77b4"/>
   </g>
   <g id="patch_27">
    <path d="M 85.982443 235.238438 
L 87.504261 235.238438 
L 87.504261 36.781295 
L 85.982443 36.781295 
z
" clip-path="url(#p5c7e77d06b)" style="fill: #1f77b4"/>
   </g>
   <g id="patch_28">
    <path d="M 87.504261 235.238438 
L 89.02608 235.238438 
L 89.02608 40.376533 
L 87.504261 40.376533 
z
" clip-path="url(#p5c7e77d06b)" style="fill: #1f77b4"/>
   </g>
   <g id="patch_29">
    <path d="M 89.02608 235.238438 
L 90.547898 235.238438 
L 90.547898 29.830501 
L 89.02608 29.830501 
z
" clip-path="url(#p5c7e77d06b)" style="fill: #1f77b4"/>
   </g>
   <g id="patch_30">
    <path d="M 90.547898 235.238438 
L 92.069716 235.238438 
L 92.069716 38.459072 
L 90.547898 38.459072 
z
" clip-path="url(#p5c7e77d06b)" style="fill: #1f77b4"/>
   </g>
   <g id="patch_31">
    <path d="M 92.069716 235.238438 
L 93.591534 235.238438 
L 93.591534 31.268596 
L 92.069716 31.268596 
z
" clip-path="url(#p5c7e77d06b)" style="fill: #1f77b4"/>
   </g>
   <g id="patch_32">
    <path d="M 93.591534 235.238438 
L 95.113352 235.238438 
L 95.113352 30.309866 
L 93.591534 30.309866 
z
" clip-path="url(#p5c7e77d06b)" style="fill: #1f77b4"/>
   </g>
   <g id="patch_33">
    <path d="M 95.113352 235.238438 
L 96.63517 235.238438 
L 96.63517 34.144787 
L 95.113352 34.144787 
z
" clip-path="url(#p5c7e77d06b)" style="fill: #1f77b4"/>
   </g>
   <g id="patch_34">
    <path d="M 96.63517 235.238438 
L 98.156989 235.238438 
L 98.156989 28.152723 
L 96.63517 28.152723 
z
" clip-path="url(#p5c7e77d06b)" style="fill: #1f77b4"/>
   </g>
   <g id="patch_35">
    <path d="M 98.156989 235.238438 
L 99.678807 235.238438 
L 99.678807 39.657485 
L 98.156989 39.657485 
z
" clip-path="url(#p5c7e77d06b)" style="fill: #1f77b4"/>
   </g>
   <g id="patch_36">
    <path d="M 99.678807 235.238438 
L 101.200625 235.238438 
L 101.200625 35.582882 
L 99.678807 35.582882 
z
" clip-path="url(#p5c7e77d06b)" style="fill: #1f77b4"/>
   </g>
   <g id="patch_37">
    <path d="M 101.200625 235.238438 
L 102.722443 235.238438 
L 102.722443 54.517803 
L 101.200625 54.517803 
z
" clip-path="url(#p5c7e77d06b)" style="fill: #1f77b4"/>
   </g>
   <g id="patch_38">
    <path d="M 102.722443 235.238438 
L 104.244261 235.238438 
L 104.244261 28.871771 
L 102.722443 28.871771 
z
" clip-path="url(#p5c7e77d06b)" style="fill: #1f77b4"/>
   </g>
   <g id="patch_39">
    <path d="M 104.244261 235.238438 
L 105.76608 235.238438 
L 105.76608 44.451136 
L 104.244261 44.451136 
z
" clip-path="url(#p5c7e77d06b)" style="fill: #1f77b4"/>
   </g>
   <g id="patch_40">
    <path d="M 105.76608 235.238438 
L 107.287898 235.238438 
L 107.287898 55.716215 
L 105.76608 55.716215 
z
" clip-path="url(#p5c7e77d06b)" style="fill: #1f77b4"/>
   </g>
   <g id="patch_41">
    <path d="M 107.287898 235.238438 
L 108.809716 235.238438 
L 108.809716 66.022564 
L 107.287898 66.022564 
z
" clip-path="url(#p5c7e77d06b)" style="fill: #1f77b4"/>
   </g>
   <g id="patch_42">
    <path d="M 108.809716 235.238438 
L 110.331534 235.238438 
L 110.331534 64.824152 
L 108.809716 64.824152 
z
" clip-path="url(#p5c7e77d06b)" style="fill: #1f77b4"/>
   </g>
   <g id="patch_43">
    <path d="M 110.331534 235.238438 
L 111.853352 235.238438 
L 111.853352 59.551136 
L 110.331534 59.551136 
z
" clip-path="url(#p5c7e77d06b)" style="fill: #1f77b4"/>
   </g>
   <g id="patch_44">
    <path d="M 111.853352 235.238438 
L 113.37517 235.238438 
L 113.37517 71.055898 
L 111.853352 71.055898 
z
" clip-path="url(#p5c7e77d06b)" style="fill: #1f77b4"/>
   </g>
   <g id="patch_45">
    <path d="M 113.37517 235.238438 
L 114.896989 235.238438 
L 114.896989 71.055898 
L 113.37517 71.055898 
z
" clip-path="url(#p5c7e77d06b)" style="fill: #1f77b4"/>
   </g>
   <g id="patch_46">
    <path d="M 114.896989 235.238438 
L 116.418807 235.238438 
L 116.418807 77.527326 
L 114.896989 77.527326 
z
" clip-path="url(#p5c7e77d06b)" style="fill: #1f77b4"/>
   </g>
   <g id="patch_47">
    <path d="M 116.418807 235.238438 
L 117.940625 235.238438 
L 117.940625 89.751136 
L 116.418807 89.751136 
z
" clip-path="url(#p5c7e77d06b)" style="fill: #1f77b4"/>
   </g>
   <g id="patch_48">
    <path d="M 117.940625 235.238438 
L 119.462443 235.238438 
L 119.462443 90.949549 
L 117.940625 90.949549 
z
" clip-path="url(#p5c7e77d06b)" style="fill: #1f77b4"/>
   </g>
   <g id="patch_49">
    <path d="M 119.462443 235.238438 
L 120.984261 235.238438 
L 120.984261 96.941612 
L 119.462443 96.941612 
z
" clip-path="url(#p5c7e77d06b)" style="fill: #1f77b4"/>
   </g>
   <g id="patch_50">
    <path d="M 120.984261 235.238438 
L 122.50608 235.238438 
L 122.50608 97.900342 
L 120.984261 97.900342 
z
" clip-path="url(#p5c7e77d06b)" style="fill: #1f77b4"/>
   </g>
   <g id="patch_51">
    <path d="M 122.50608 235.238438 
L 124.027898 235.238438 
L 124.027898 97.420977 
L 122.50608 97.420977 
z
" clip-path="url(#p5c7e77d06b)" style="fill: #1f77b4"/>
   </g>
   <g id="patch_52">
    <path d="M 124.027898 235.238438 
L 125.549716 235.238438 
L 125.549716 101.016215 
L 124.027898 101.016215 
z
" clip-path="url(#p5c7e77d06b)" style="fill: #1f77b4"/>
   </g>
   <g id="patch_53">
    <path d="M 125.549716 235.238438 
L 127.071534 235.238438 
L 127.071534 113.479707 
L 125.549716 113.479707 
z
" clip-path="url(#p5c7e77d06b)" style="fill: #1f77b4"/>
   </g>
   <g id="patch_54">
    <path d="M 127.071534 235.238438 
L 128.593352 235.238438 
L 128.593352 123.786057 
L 127.071534 123.786057 
z
" clip-path="url(#p5c7e77d06b)" style="fill: #1f77b4"/>
   </g>
   <g id="patch_55">
    <path d="M 128.593352 235.238438 
L 130.11517 235.238438 
L 130.11517 110.603517 
L 128.593352 110.603517 
z
" clip-path="url(#p5c7e77d06b)" style="fill: #1f77b4"/>
   </g>
   <g id="patch_56">
    <path d="M 130.11517 235.238438 
L 131.636989 235.238438 
L 131.636989 130.73685 
L 130.11517 130.73685 
z
" clip-path="url(#p5c7e77d06b)" style="fill: #1f77b4"/>
   </g>
   <g id="patch_57">
    <path d="M 131.636989 235.238438 
L 133.158807 235.238438 
L 133.158807 128.579707 
L 131.636989 128.579707 
z
" clip-path="url(#p5c7e77d06b)" style="fill: #1f77b4"/>
   </g>
   <g id="patch_58">
    <path d="M 133.158807 235.238438 
L 134.680625 235.238438 
L 134.680625 135.530501 
L 133.158807 135.530501 
z
" clip-path="url(#p5c7e77d06b)" style="fill: #1f77b4"/>
   </g>
   <g id="patch_59">
    <path d="M 134.680625 235.238438 
L 136.202443 235.238438 
L 136.202443 140.084469 
L 134.680625 140.084469 
z
" clip-path="url(#p5c7e77d06b)" style="fill: #1f77b4"/>
   </g>
   <g id="patch_60">
    <path d="M 136.202443 235.238438 
L 137.724261 235.238438 
L 137.724261 146.79558 
L 136.202443 146.79558 
z
" clip-path="url(#p5c7e77d06b)" style="fill: #1f77b4"/>
   </g>
   <g id="patch_61">
    <path d="M 137.724261 235.238438 
L 139.24608 235.238438 
L 139.24608 149.192406 
L 137.724261 149.192406 
z
" clip-path="url(#p5c7e77d06b)" style="fill: #1f77b4"/>
   </g>
   <g id="patch_62">
    <path d="M 139.24608 235.238438 
L 140.767898 235.238438 
L 140.767898 152.308279 
L 139.24608 152.308279 
z
" clip-path="url(#p5c7e77d06b)" style="fill: #1f77b4"/>
   </g>
   <g id="patch_63">
    <path d="M 140.767898 235.238438 
L 142.289716 235.238438 
L 142.289716 153.267009 
L 140.767898 153.267009 
z
" clip-path="url(#p5c7e77d06b)" style="fill: #1f77b4"/>
   </g>
   <g id="patch_64">
    <path d="M 142.289716 235.238438 
L 143.811534 235.238438 
L 143.811534 158.06066 
L 142.289716 158.06066 
z
" clip-path="url(#p5c7e77d06b)" style="fill: #1f77b4"/>
   </g>
   <g id="patch_65">
    <path d="M 143.811534 235.238438 
L 145.333352 235.238438 
L 145.333352 164.532088 
L 143.811534 164.532088 
z
" clip-path="url(#p5c7e77d06b)" style="fill: #1f77b4"/>
   </g>
   <g id="patch_66">
    <path d="M 145.333352 235.238438 
L 146.85517 235.238438 
L 146.85517 165.251136 
L 145.333352 165.251136 
z
" clip-path="url(#p5c7e77d06b)" style="fill: #1f77b4"/>
   </g>
   <g id="patch_67">
    <path d="M 146.85517 235.238438 
L 148.376989 235.238438 
L 148.376989 174.838438 
L 146.85517 174.838438 
z
" clip-path="url(#p5c7e77d06b)" style="fill: #1f77b4"/>
   </g>
   <g id="patch_68">
    <path d="M 148.376989 235.238438 
L 149.898807 235.238438 
L 149.898807 176.276533 
L 148.376989 176.276533 
z
" clip-path="url(#p5c7e77d06b)" style="fill: #1f77b4"/>
   </g>
   <g id="patch_69">
    <path d="M 149.898807 235.238438 
L 151.420625 235.238438 
L 151.420625 173.879707 
L 149.898807 173.879707 
z
" clip-path="url(#p5c7e77d06b)" style="fill: #1f77b4"/>
   </g>
   <g id="patch_70">
    <path d="M 151.420625 235.238438 
L 152.942443 235.238438 
L 152.942443 183.467009 
L 151.420625 183.467009 
z
" clip-path="url(#p5c7e77d06b)" style="fill: #1f77b4"/>
   </g>
   <g id="patch_71">
    <path d="M 152.942443 235.238438 
L 154.464261 235.238438 
L 154.464261 178.913041 
L 152.942443 178.913041 
z
" clip-path="url(#p5c7e77d06b)" style="fill: #1f77b4"/>
   </g>
   <g id="patch_72">
    <path d="M 154.464261 235.238438 
L 155.98608 235.238438 
L 155.98608 186.343199 
L 154.464261 186.343199 
z
" clip-path="url(#p5c7e77d06b)" style="fill: #1f77b4"/>
   </g>
   <g id="patch_73">
    <path d="M 155.98608 235.238438 
L 157.507898 235.238438 
L 157.507898 183.946374 
L 155.98608 183.946374 
z
" clip-path="url(#p5c7e77d06b)" style="fill: #1f77b4"/>
   </g>
   <g id="patch_74">
    <path d="M 157.507898 235.238438 
L 159.029716 235.238438 
L 159.029716 194.492406 
L 157.507898 194.492406 
z
" clip-path="url(#p5c7e77d06b)" style="fill: #1f77b4"/>
   </g>
   <g id="patch_75">
    <path d="M 159.029716 235.238438 
L 160.551534 235.238438 
L 160.551534 192.814628 
L 159.029716 192.814628 
z
" clip-path="url(#p5c7e77d06b)" style="fill: #1f77b4"/>
   </g>
   <g id="patch_76">
    <path d="M 160.551534 235.238438 
L 162.073352 235.238438 
L 162.073352 198.567009 
L 160.551534 198.567009 
z
" clip-path="url(#p5c7e77d06b)" style="fill: #1f77b4"/>
   </g>
   <g id="patch_77">
    <path d="M 162.073352 235.238438 
L 163.59517 235.238438 
L 163.59517 195.211453 
L 162.073352 195.211453 
z
" clip-path="url(#p5c7e77d06b)" style="fill: #1f77b4"/>
   </g>
   <g id="patch_78">
    <path d="M 163.59517 235.238438 
L 165.116989 235.238438 
L 165.116989 200.724152 
L 163.59517 200.724152 
z
" clip-path="url(#p5c7e77d06b)" style="fill: #1f77b4"/>
   </g>
   <g id="patch_79">
    <path d="M 165.116989 235.238438 
L 166.638807 235.238438 
L 166.638807 199.286057 
L 165.116989 199.286057 
z
" clip-path="url(#p5c7e77d06b)" style="fill: #1f77b4"/>
   </g>
   <g id="patch_80">
    <path d="M 166.638807 235.238438 
L 168.160625 235.238438 
L 168.160625 200.484469 
L 166.638807 200.484469 
z
" clip-path="url(#p5c7e77d06b)" style="fill: #1f77b4"/>
   </g>
   <g id="patch_81">
    <path d="M 168.160625 235.238438 
L 169.682443 235.238438 
L 169.682443 202.162247 
L 168.160625 202.162247 
z
" clip-path="url(#p5c7e77d06b)" style="fill: #1f77b4"/>
   </g>
   <g id="patch_82">
    <path d="M 169.682443 235.238438 
L 171.204261 235.238438 
L 171.204261 200.963834 
L 169.682443 200.963834 
z
" clip-path="url(#p5c7e77d06b)" style="fill: #1f77b4"/>
   </g>
   <g id="patch_83">
    <path d="M 171.204261 235.238438 
L 172.72608 235.238438 
L 172.72608 210.790818 
L 171.204261 210.790818 
z
" clip-path="url(#p5c7e77d06b)" style="fill: #1f77b4"/>
   </g>
   <g id="patch_84">
    <path d="M 172.72608 235.238438 
L 174.247898 235.238438 
L 174.247898 209.113041 
L 172.72608 209.113041 
z
" clip-path="url(#p5c7e77d06b)" style="fill: #1f77b4"/>
   </g>
   <g id="patch_85">
    <path d="M 174.247898 235.238438 
L 175.769716 235.238438 
L 175.769716 216.543199 
L 174.247898 216.543199 
z
" clip-path="url(#p5c7e77d06b)" style="fill: #1f77b4"/>
   </g>
   <g id="patch_86">
    <path d="M 175.769716 235.238438 
L 177.291534 235.238438 
L 177.291534 216.303517 
L 175.769716 216.303517 
z
" clip-path="url(#p5c7e77d06b)" style="fill: #1f77b4"/>
   </g>
   <g id="patch_87">
    <path d="M 177.291534 235.238438 
L 178.813352 235.238438 
L 178.813352 216.782882 
L 177.291534 216.782882 
z
" clip-path="url(#p5c7e77d06b)" style="fill: #1f77b4"/>
   </g>
   <g id="patch_88">
    <path d="M 178.813352 235.238438 
L 180.33517 235.238438 
L 180.33517 219.179707 
L 178.813352 219.179707 
z
" clip-path="url(#p5c7e77d06b)" style="fill: #1f77b4"/>
   </g>
   <g id="patch_89">
    <path d="M 180.33517 235.238438 
L 181.856989 235.238438 
L 181.856989 217.262247 
L 180.33517 217.262247 
z
" clip-path="url(#p5c7e77d06b)" style="fill: #1f77b4"/>
   </g>
   <g id="patch_90">
    <path d="M 181.856989 235.238438 
L 183.378807 235.238438 
L 183.378807 219.659072 
L 181.856989 219.659072 
z
" clip-path="url(#p5c7e77d06b)" style="fill: #1f77b4"/>
   </g>
   <g id="patch_91">
    <path d="M 183.378807 235.238438 
L 184.900625 235.238438 
L 184.900625 221.33685 
L 183.378807 221.33685 
z
" clip-path="url(#p5c7e77d06b)" style="fill: #1f77b4"/>
   </g>
   <g id="patch_92">
    <path d="M 184.900625 235.238438 
L 186.422443 235.238438 
L 186.422443 222.535263 
L 184.900625 222.535263 
z
" clip-path="url(#p5c7e77d06b)" style="fill: #1f77b4"/>
   </g>
   <g id="patch_93">
    <path d="M 186.422443 235.238438 
L 187.944261 235.238438 
L 187.944261 220.37812 
L 186.422443 220.37812 
z
" clip-path="url(#p5c7e77d06b)" style="fill: #1f77b4"/>
   </g>
   <g id="patch_94">
    <path d="M 187.944261 235.238438 
L 189.46608 235.238438 
L 189.46608 222.055898 
L 187.944261 222.055898 
z
" clip-path="url(#p5c7e77d06b)" style="fill: #1f77b4"/>
   </g>
   <g id="patch_95">
    <path d="M 189.46608 235.238438 
L 190.987898 235.238438 
L 190.987898 224.932088 
L 189.46608 224.932088 
z
" clip-path="url(#p5c7e77d06b)" style="fill: #1f77b4"/>
   </g>
   <g id="patch_96">
    <path d="M 190.987898 235.238438 
L 192.509716 235.238438 
L 192.509716 221.33685 
L 190.987898 221.33685 
z
" clip-path="url(#p5c7e77d06b)" style="fill: #1f77b4"/>
   </g>
   <g id="patch_97">
    <path d="M 192.509716 235.238438 
L 194.031534 235.238438 
L 194.031534 223.733676 
L 192.509716 223.733676 
z
" clip-path="url(#p5c7e77d06b)" style="fill: #1f77b4"/>
   </g>
   <g id="patch_98">
    <path d="M 194.031534 235.238438 
L 195.553352 235.238438 
L 195.553352 223.493993 
L 194.031534 223.493993 
z
" clip-path="url(#p5c7e77d06b)" style="fill: #1f77b4"/>
   </g>
   <g id="patch_99">
    <path d="M 195.553352 235.238438 
L 197.07517 235.238438 
L 197.07517 225.890818 
L 195.553352 225.890818 
z
" clip-path="url(#p5c7e77d06b)" style="fill: #1f77b4"/>
   </g>
   <g id="patch_100">
    <path d="M 197.07517 235.238438 
L 198.596989 235.238438 
L 198.596989 226.849549 
L 197.07517 226.849549 
z
" clip-path="url(#p5c7e77d06b)" style="fill: #1f77b4"/>
   </g>
   <g id="patch_101">
    <path d="M 198.596989 235.238438 
L 200.118807 235.238438 
L 200.118807 225.651136 
L 198.596989 225.651136 
z
" clip-path="url(#p5c7e77d06b)" style="fill: #1f77b4"/>
   </g>
   <g id="patch_102">
    <path d="M 200.118807 235.238438 
L 201.640625 235.238438 
L 201.640625 227.808279 
L 200.118807 227.808279 
z
" clip-path="url(#p5c7e77d06b)" style="fill: #1f77b4"/>
   </g>
   <g id="patch_103">
    <path d="M 201.640625 235.238438 
L 203.162443 235.238438 
L 203.162443 227.568596 
L 201.640625 227.568596 
z
" clip-path="url(#p5c7e77d06b)" style="fill: #1f77b4"/>
   </g>
   <g id="patch_104">
    <path d="M 203.162443 235.238438 
L 204.684261 235.238438 
L 204.684261 229.246374 
L 203.162443 229.246374 
z
" clip-path="url(#p5c7e77d06b)" style="fill: #1f77b4"/>
   </g>
   <g id="patch_105">
    <path d="M 204.684261 235.238438 
L 206.20608 235.238438 
L 206.20608 227.568596 
L 204.684261 227.568596 
z
" clip-path="url(#p5c7e77d06b)" style="fill: #1f77b4"/>
   </g>
   <g id="patch_106">
    <path d="M 206.20608 235.238438 
L 207.727898 235.238438 
L 207.727898 229.246374 
L 206.20608 229.246374 
z
" clip-path="url(#p5c7e77d06b)" style="fill: #1f77b4"/>
   </g>
   <g id="patch_107">
    <path d="M 207.727898 235.238438 
L 209.249716 235.238438 
L 209.249716 230.444787 
L 207.727898 230.444787 
z
" clip-path="url(#p5c7e77d06b)" style="fill: #1f77b4"/>
   </g>
   <g id="patch_108">
    <path d="M 209.249716 235.238438 
L 210.771534 235.238438 
L 210.771534 232.362247 
L 209.249716 232.362247 
z
" clip-path="url(#p5c7e77d06b)" style="fill: #1f77b4"/>
   </g>
   <g id="patch_109">
    <path d="M 210.771534 235.238438 
L 212.293352 235.238438 
L 212.293352 230.684469 
L 210.771534 230.684469 
z
" clip-path="url(#p5c7e77d06b)" style="fill: #1f77b4"/>
   </g>
   <g id="patch_110">
    <path d="M 212.293352 235.238438 
L 213.81517 235.238438 
L 213.81517 230.684469 
L 212.293352 230.684469 
z
" clip-path="url(#p5c7e77d06b)" style="fill: #1f77b4"/>
   </g>
   <g id="patch_111">
    <path d="M 213.81517 235.238438 
L 215.336989 235.238438 
L 215.336989 230.924152 
L 213.81517 230.924152 
z
" clip-path="url(#p5c7e77d06b)" style="fill: #1f77b4"/>
   </g>
   <g id="patch_112">
    <path d="M 215.336989 235.238438 
L 216.858807 235.238438 
L 216.858807 230.684469 
L 215.336989 230.684469 
z
" clip-path="url(#p5c7e77d06b)" style="fill: #1f77b4"/>
   </g>
   <g id="patch_113">
    <path d="M 216.858807 235.238438 
L 218.380625 235.238438 
L 218.380625 231.882882 
L 216.858807 231.882882 
z
" clip-path="url(#p5c7e77d06b)" style="fill: #1f77b4"/>
   </g>
   <g id="patch_114">
    <path d="M 218.380625 235.238438 
L 219.902443 235.238438 
L 219.902443 232.841612 
L 218.380625 232.841612 
z
" clip-path="url(#p5c7e77d06b)" style="fill: #1f77b4"/>
   </g>
   <g id="patch_115">
    <path d="M 219.902443 235.238438 
L 221.424261 235.238438 
L 221.424261 231.882882 
L 219.902443 231.882882 
z
" clip-path="url(#p5c7e77d06b)" style="fill: #1f77b4"/>
   </g>
   <g id="patch_116">
    <path d="M 221.424261 235.238438 
L 222.94608 235.238438 
L 222.94608 231.882882 
L 221.424261 231.882882 
z
" clip-path="url(#p5c7e77d06b)" style="fill: #1f77b4"/>
   </g>
   <g id="patch_117">
    <path d="M 222.94608 235.238438 
L 224.467898 235.238438 
L 224.467898 230.924152 
L 222.94608 230.924152 
z
" clip-path="url(#p5c7e77d06b)" style="fill: #1f77b4"/>
   </g>
   <g id="patch_118">
    <path d="M 224.467898 235.238438 
L 225.989716 235.238438 
L 225.989716 232.841612 
L 224.467898 232.841612 
z
" clip-path="url(#p5c7e77d06b)" style="fill: #1f77b4"/>
   </g>
   <g id="patch_119">
    <path d="M 225.989716 235.238438 
L 227.511534 235.238438 
L 227.511534 234.279707 
L 225.989716 234.279707 
z
" clip-path="url(#p5c7e77d06b)" style="fill: #1f77b4"/>
   </g>
   <g id="patch_120">
    <path d="M 227.511534 235.238438 
L 229.033352 235.238438 
L 229.033352 232.60193 
L 227.511534 232.60193 
z
" clip-path="url(#p5c7e77d06b)" style="fill: #1f77b4"/>
   </g>
   <g id="patch_121">
    <path d="M 229.033352 235.238438 
L 230.55517 235.238438 
L 230.55517 233.56066 
L 229.033352 233.56066 
z
" clip-path="url(#p5c7e77d06b)" style="fill: #1f77b4"/>
   </g>
   <g id="patch_122">
    <path d="M 230.55517 235.238438 
L 232.076989 235.238438 
L 232.076989 234.040025 
L 230.55517 234.040025 
z
" clip-path="url(#p5c7e77d06b)" style="fill: #1f77b4"/>
   </g>
   <g id="patch_123">
    <path d="M 232.076989 235.238438 
L 233.598807 235.238438 
L 233.598807 233.081295 
L 232.076989 233.081295 
z
" clip-path="url(#p5c7e77d06b)" style="fill: #1f77b4"/>
   </g>
   <g id="patch_124">
    <path d="M 233.598807 235.238438 
L 235.120625 235.238438 
L 235.120625 233.320977 
L 233.598807 233.320977 
z
" clip-path="url(#p5c7e77d06b)" style="fill: #1f77b4"/>
   </g>
   <g id="patch_125">
    <path d="M 235.120625 235.238438 
L 236.642443 235.238438 
L 236.642443 234.759072 
L 235.120625 234.759072 
z
" clip-path="url(#p5c7e77d06b)" style="fill: #1f77b4"/>
   </g>
   <g id="patch_126">
    <path d="M 236.642443 235.238438 
L 238.164261 235.238438 
L 238.164261 234.040025 
L 236.642443 234.040025 
z
" clip-path="url(#p5c7e77d06b)" style="fill: #1f77b4"/>
   </g>
   <g id="patch_127">
    <path d="M 238.164261 235.238438 
L 239.68608 235.238438 
L 239.68608 234.279707 
L 238.164261 234.279707 
z
" clip-path="url(#p5c7e77d06b)" style="fill: #1f77b4"/>
   </g>
   <g id="patch_128">
    <path d="M 239.68608 235.238438 
L 241.207898 235.238438 
L 241.207898 234.51939 
L 239.68608 234.51939 
z
" clip-path="url(#p5c7e77d06b)" style="fill: #1f77b4"/>
   </g>
   <g id="patch_129">
    <path d="M 241.207898 235.238438 
L 242.729716 235.238438 
L 242.729716 234.279707 
L 241.207898 234.279707 
z
" clip-path="url(#p5c7e77d06b)" style="fill: #1f77b4"/>
   </g>
   <g id="patch_130">
    <path d="M 242.729716 235.238438 
L 244.251534 235.238438 
L 244.251534 234.279707 
L 242.729716 234.279707 
z
" clip-path="url(#p5c7e77d06b)" style="fill: #1f77b4"/>
   </g>
   <g id="patch_131">
    <path d="M 244.251534 235.238438 
L 245.773352 235.238438 
L 245.773352 234.998755 
L 244.251534 234.998755 
z
" clip-path="url(#p5c7e77d06b)" style="fill: #1f77b4"/>
   </g>
   <g id="patch_132">
    <path d="M 245.773352 235.238438 
L 247.29517 235.238438 
L 247.29517 234.759072 
L 245.773352 234.759072 
z
" clip-path="url(#p5c7e77d06b)" style="fill: #1f77b4"/>
   </g>
   <g id="patch_133">
    <path d="M 247.29517 235.238438 
L 248.816989 235.238438 
L 248.816989 234.279707 
L 247.29517 234.279707 
z
" clip-path="url(#p5c7e77d06b)" style="fill: #1f77b4"/>
   </g>
   <g id="patch_134">
    <path d="M 248.816989 235.238438 
L 250.338807 235.238438 
L 250.338807 234.279707 
L 248.816989 234.279707 
z
" clip-path="url(#p5c7e77d06b)" style="fill: #1f77b4"/>
   </g>
   <g id="patch_135">
    <path d="M 250.338807 235.238438 
L 251.860625 235.238438 
L 251.860625 234.51939 
L 250.338807 234.51939 
z
" clip-path="url(#p5c7e77d06b)" style="fill: #1f77b4"/>
   </g>
   <g id="patch_136">
    <path d="M 251.860625 235.238438 
L 253.382443 235.238438 
L 253.382443 234.998755 
L 251.860625 234.998755 
z
" clip-path="url(#p5c7e77d06b)" style="fill: #1f77b4"/>
   </g>
   <g id="patch_137">
    <path d="M 253.382443 235.238438 
L 254.904261 235.238438 
L 254.904261 234.51939 
L 253.382443 234.51939 
z
" clip-path="url(#p5c7e77d06b)" style="fill: #1f77b4"/>
   </g>
   <g id="patch_138">
    <path d="M 254.904261 235.238438 
L 256.42608 235.238438 
L 256.42608 234.279707 
L 254.904261 234.279707 
z
" clip-path="url(#p5c7e77d06b)" style="fill: #1f77b4"/>
   </g>
   <g id="patch_139">
    <path d="M 256.42608 235.238438 
L 257.947898 235.238438 
L 257.947898 234.759072 
L 256.42608 234.759072 
z
" clip-path="url(#p5c7e77d06b)" style="fill: #1f77b4"/>
   </g>
   <g id="patch_140">
    <path d="M 257.947898 235.238438 
L 259.469716 235.238438 
L 259.469716 234.759072 
L 257.947898 234.759072 
z
" clip-path="url(#p5c7e77d06b)" style="fill: #1f77b4"/>
   </g>
   <g id="patch_141">
    <path d="M 259.469716 235.238438 
L 260.991534 235.238438 
L 260.991534 234.998755 
L 259.469716 234.998755 
z
" clip-path="url(#p5c7e77d06b)" style="fill: #1f77b4"/>
   </g>
   <g id="patch_142">
    <path d="M 260.991534 235.238438 
L 262.513352 235.238438 
L 262.513352 234.998755 
L 260.991534 234.998755 
z
" clip-path="url(#p5c7e77d06b)" style="fill: #1f77b4"/>
   </g>
   <g id="patch_143">
    <path d="M 262.513352 235.238438 
L 264.03517 235.238438 
L 264.03517 234.998755 
L 262.513352 234.998755 
z
" clip-path="url(#p5c7e77d06b)" style="fill: #1f77b4"/>
   </g>
   <g id="patch_144">
    <path d="M 264.03517 235.238438 
L 265.556989 235.238438 
L 265.556989 234.998755 
L 264.03517 234.998755 
z
" clip-path="url(#p5c7e77d06b)" style="fill: #1f77b4"/>
   </g>
   <g id="patch_145">
    <path d="M 265.556989 235.238438 
L 267.078807 235.238438 
L 267.078807 234.998755 
L 265.556989 234.998755 
z
" clip-path="url(#p5c7e77d06b)" style="fill: #1f77b4"/>
   </g>
   <g id="patch_146">
    <path d="M 267.078807 235.238438 
L 268.600625 235.238438 
L 268.600625 234.998755 
L 267.078807 234.998755 
z
" clip-path="url(#p5c7e77d06b)" style="fill: #1f77b4"/>
   </g>
   <g id="patch_147">
    <path d="M 268.600625 235.238438 
L 270.122443 235.238438 
L 270.122443 234.759072 
L 268.600625 234.759072 
z
" clip-path="url(#p5c7e77d06b)" style="fill: #1f77b4"/>
   </g>
   <g id="patch_148">
    <path d="M 270.122443 235.238438 
L 271.644261 235.238438 
L 271.644261 234.998755 
L 270.122443 234.998755 
z
" clip-path="url(#p5c7e77d06b)" style="fill: #1f77b4"/>
   </g>
   <g id="patch_149">
    <path d="M 271.644261 235.238438 
L 273.16608 235.238438 
L 273.16608 234.51939 
L 271.644261 234.51939 
z
" clip-path="url(#p5c7e77d06b)" style="fill: #1f77b4"/>
   </g>
   <g id="patch_150">
    <path d="M 273.16608 235.238438 
L 274.687898 235.238438 
L 274.687898 234.51939 
L 273.16608 234.51939 
z
" clip-path="url(#p5c7e77d06b)" style="fill: #1f77b4"/>
   </g>
   <g id="patch_151">
    <path d="M 274.687898 235.238438 
L 276.209716 235.238438 
L 276.209716 234.998755 
L 274.687898 234.998755 
z
" clip-path="url(#p5c7e77d06b)" style="fill: #1f77b4"/>
   </g>
   <g id="patch_152">
    <path d="M 276.209716 235.238438 
L 277.731534 235.238438 
L 277.731534 235.238438 
L 276.209716 235.238438 
z
" clip-path="url(#p5c7e77d06b)" style="fill: #1f77b4"/>
   </g>
   <g id="patch_153">
    <path d="M 277.731534 235.238438 
L 279.253352 235.238438 
L 279.253352 234.998755 
L 277.731534 234.998755 
z
" clip-path="url(#p5c7e77d06b)" style="fill: #1f77b4"/>
   </g>
   <g id="patch_154">
    <path d="M 279.253352 235.238438 
L 280.77517 235.238438 
L 280.77517 235.238438 
L 279.253352 235.238438 
z
" clip-path="url(#p5c7e77d06b)" style="fill: #1f77b4"/>
   </g>
   <g id="patch_155">
    <path d="M 280.77517 235.238438 
L 282.296989 235.238438 
L 282.296989 234.998755 
L 280.77517 234.998755 
z
" clip-path="url(#p5c7e77d06b)" style="fill: #1f77b4"/>
   </g>
   <g id="patch_156">
    <path d="M 282.296989 235.238438 
L 283.818807 235.238438 
L 283.818807 235.238438 
L 282.296989 235.238438 
z
" clip-path="url(#p5c7e77d06b)" style="fill: #1f77b4"/>
   </g>
   <g id="patch_157">
    <path d="M 283.818807 235.238438 
L 285.340625 235.238438 
L 285.340625 234.998755 
L 283.818807 234.998755 
z
" clip-path="url(#p5c7e77d06b)" style="fill: #1f77b4"/>
   </g>
   <g id="patch_158">
    <path d="M 285.340625 235.238438 
L 286.862443 235.238438 
L 286.862443 234.998755 
L 285.340625 234.998755 
z
" clip-path="url(#p5c7e77d06b)" style="fill: #1f77b4"/>
   </g>
   <g id="patch_159">
    <path d="M 286.862443 235.238438 
L 288.384261 235.238438 
L 288.384261 235.238438 
L 286.862443 235.238438 
z
" clip-path="url(#p5c7e77d06b)" style="fill: #1f77b4"/>
   </g>
   <g id="patch_160">
    <path d="M 288.384261 235.238438 
L 289.90608 235.238438 
L 289.90608 235.238438 
L 288.384261 235.238438 
z
" clip-path="url(#p5c7e77d06b)" style="fill: #1f77b4"/>
   </g>
   <g id="patch_161">
    <path d="M 289.90608 235.238438 
L 291.427898 235.238438 
L 291.427898 235.238438 
L 289.90608 235.238438 
z
" clip-path="url(#p5c7e77d06b)" style="fill: #1f77b4"/>
   </g>
   <g id="patch_162">
    <path d="M 291.427898 235.238438 
L 292.949716 235.238438 
L 292.949716 234.998755 
L 291.427898 234.998755 
z
" clip-path="url(#p5c7e77d06b)" style="fill: #1f77b4"/>
   </g>
   <g id="patch_163">
    <path d="M 292.949716 235.238438 
L 294.471534 235.238438 
L 294.471534 234.759072 
L 292.949716 234.759072 
z
" clip-path="url(#p5c7e77d06b)" style="fill: #1f77b4"/>
   </g>
   <g id="patch_164">
    <path d="M 294.471534 235.238438 
L 295.993352 235.238438 
L 295.993352 235.238438 
L 294.471534 235.238438 
z
" clip-path="url(#p5c7e77d06b)" style="fill: #1f77b4"/>
   </g>
   <g id="patch_165">
    <path d="M 295.993352 235.238438 
L 297.51517 235.238438 
L 297.51517 234.998755 
L 295.993352 234.998755 
z
" clip-path="url(#p5c7e77d06b)" style="fill: #1f77b4"/>
   </g>
   <g id="patch_166">
    <path d="M 297.51517 235.238438 
L 299.036989 235.238438 
L 299.036989 235.238438 
L 297.51517 235.238438 
z
" clip-path="url(#p5c7e77d06b)" style="fill: #1f77b4"/>
   </g>
   <g id="patch_167">
    <path d="M 299.036989 235.238438 
L 300.558807 235.238438 
L 300.558807 235.238438 
L 299.036989 235.238438 
z
" clip-path="url(#p5c7e77d06b)" style="fill: #1f77b4"/>
   </g>
   <g id="patch_168">
    <path d="M 300.558807 235.238438 
L 302.080625 235.238438 
L 302.080625 235.238438 
L 300.558807 235.238438 
z
" clip-path="url(#p5c7e77d06b)" style="fill: #1f77b4"/>
   </g>
   <g id="patch_169">
    <path d="M 302.080625 235.238438 
L 303.602443 235.238438 
L 303.602443 235.238438 
L 302.080625 235.238438 
z
" clip-path="url(#p5c7e77d06b)" style="fill: #1f77b4"/>
   </g>
   <g id="patch_170">
    <path d="M 303.602443 235.238438 
L 305.124261 235.238438 
L 305.124261 235.238438 
L 303.602443 235.238438 
z
" clip-path="url(#p5c7e77d06b)" style="fill: #1f77b4"/>
   </g>
   <g id="patch_171">
    <path d="M 305.124261 235.238438 
L 306.64608 235.238438 
L 306.64608 235.238438 
L 305.124261 235.238438 
z
" clip-path="url(#p5c7e77d06b)" style="fill: #1f77b4"/>
   </g>
   <g id="patch_172">
    <path d="M 306.64608 235.238438 
L 308.167898 235.238438 
L 308.167898 235.238438 
L 306.64608 235.238438 
z
" clip-path="url(#p5c7e77d06b)" style="fill: #1f77b4"/>
   </g>
   <g id="patch_173">
    <path d="M 308.167898 235.238438 
L 309.689716 235.238438 
L 309.689716 235.238438 
L 308.167898 235.238438 
z
" clip-path="url(#p5c7e77d06b)" style="fill: #1f77b4"/>
   </g>
   <g id="patch_174">
    <path d="M 309.689716 235.238438 
L 311.211534 235.238438 
L 311.211534 235.238438 
L 309.689716 235.238438 
z
" clip-path="url(#p5c7e77d06b)" style="fill: #1f77b4"/>
   </g>
   <g id="patch_175">
    <path d="M 311.211534 235.238438 
L 312.733352 235.238438 
L 312.733352 235.238438 
L 311.211534 235.238438 
z
" clip-path="url(#p5c7e77d06b)" style="fill: #1f77b4"/>
   </g>
   <g id="patch_176">
    <path d="M 312.733352 235.238438 
L 314.25517 235.238438 
L 314.25517 235.238438 
L 312.733352 235.238438 
z
" clip-path="url(#p5c7e77d06b)" style="fill: #1f77b4"/>
   </g>
   <g id="patch_177">
    <path d="M 314.25517 235.238438 
L 315.776989 235.238438 
L 315.776989 235.238438 
L 314.25517 235.238438 
z
" clip-path="url(#p5c7e77d06b)" style="fill: #1f77b4"/>
   </g>
   <g id="patch_178">
    <path d="M 315.776989 235.238438 
L 317.298807 235.238438 
L 317.298807 235.238438 
L 315.776989 235.238438 
z
" clip-path="url(#p5c7e77d06b)" style="fill: #1f77b4"/>
   </g>
   <g id="patch_179">
    <path d="M 317.298807 235.238438 
L 318.820625 235.238438 
L 318.820625 235.238438 
L 317.298807 235.238438 
z
" clip-path="url(#p5c7e77d06b)" style="fill: #1f77b4"/>
   </g>
   <g id="patch_180">
    <path d="M 318.820625 235.238438 
L 320.342443 235.238438 
L 320.342443 235.238438 
L 318.820625 235.238438 
z
" clip-path="url(#p5c7e77d06b)" style="fill: #1f77b4"/>
   </g>
   <g id="patch_181">
    <path d="M 320.342443 235.238438 
L 321.864261 235.238438 
L 321.864261 235.238438 
L 320.342443 235.238438 
z
" clip-path="url(#p5c7e77d06b)" style="fill: #1f77b4"/>
   </g>
   <g id="patch_182">
    <path d="M 321.864261 235.238438 
L 323.38608 235.238438 
L 323.38608 235.238438 
L 321.864261 235.238438 
z
" clip-path="url(#p5c7e77d06b)" style="fill: #1f77b4"/>
   </g>
   <g id="patch_183">
    <path d="M 323.38608 235.238438 
L 324.907898 235.238438 
L 324.907898 235.238438 
L 323.38608 235.238438 
z
" clip-path="url(#p5c7e77d06b)" style="fill: #1f77b4"/>
   </g>
   <g id="patch_184">
    <path d="M 324.907898 235.238438 
L 326.429716 235.238438 
L 326.429716 235.238438 
L 324.907898 235.238438 
z
" clip-path="url(#p5c7e77d06b)" style="fill: #1f77b4"/>
   </g>
   <g id="patch_185">
    <path d="M 326.429716 235.238438 
L 327.951534 235.238438 
L 327.951534 235.238438 
L 326.429716 235.238438 
z
" clip-path="url(#p5c7e77d06b)" style="fill: #1f77b4"/>
   </g>
   <g id="patch_186">
    <path d="M 327.951534 235.238438 
L 329.473352 235.238438 
L 329.473352 234.998755 
L 327.951534 234.998755 
z
" clip-path="url(#p5c7e77d06b)" style="fill: #1f77b4"/>
   </g>
   <g id="patch_187">
    <path d="M 329.473352 235.238438 
L 330.99517 235.238438 
L 330.99517 235.238438 
L 329.473352 235.238438 
z
" clip-path="url(#p5c7e77d06b)" style="fill: #1f77b4"/>
   </g>
   <g id="patch_188">
    <path d="M 330.99517 235.238438 
L 332.516989 235.238438 
L 332.516989 235.238438 
L 330.99517 235.238438 
z
" clip-path="url(#p5c7e77d06b)" style="fill: #1f77b4"/>
   </g>
   <g id="patch_189">
    <path d="M 332.516989 235.238438 
L 334.038807 235.238438 
L 334.038807 235.238438 
L 332.516989 235.238438 
z
" clip-path="url(#p5c7e77d06b)" style="fill: #1f77b4"/>
   </g>
   <g id="patch_190">
    <path d="M 334.038807 235.238438 
L 335.560625 235.238438 
L 335.560625 235.238438 
L 334.038807 235.238438 
z
" clip-path="url(#p5c7e77d06b)" style="fill: #1f77b4"/>
   </g>
   <g id="patch_191">
    <path d="M 335.560625 235.238438 
L 337.082443 235.238438 
L 337.082443 235.238438 
L 335.560625 235.238438 
z
" clip-path="url(#p5c7e77d06b)" style="fill: #1f77b4"/>
   </g>
   <g id="patch_192">
    <path d="M 337.082443 235.238438 
L 338.604261 235.238438 
L 338.604261 235.238438 
L 337.082443 235.238438 
z
" clip-path="url(#p5c7e77d06b)" style="fill: #1f77b4"/>
   </g>
   <g id="patch_193">
    <path d="M 338.604261 235.238438 
L 340.12608 235.238438 
L 340.12608 235.238438 
L 338.604261 235.238438 
z
" clip-path="url(#p5c7e77d06b)" style="fill: #1f77b4"/>
   </g>
   <g id="patch_194">
    <path d="M 340.12608 235.238438 
L 341.647898 235.238438 
L 341.647898 235.238438 
L 340.12608 235.238438 
z
" clip-path="url(#p5c7e77d06b)" style="fill: #1f77b4"/>
   </g>
   <g id="patch_195">
    <path d="M 341.647898 235.238438 
L 343.169716 235.238438 
L 343.169716 235.238438 
L 341.647898 235.238438 
z
" clip-path="url(#p5c7e77d06b)" style="fill: #1f77b4"/>
   </g>
   <g id="patch_196">
    <path d="M 343.169716 235.238438 
L 344.691534 235.238438 
L 344.691534 235.238438 
L 343.169716 235.238438 
z
" clip-path="url(#p5c7e77d06b)" style="fill: #1f77b4"/>
   </g>
   <g id="patch_197">
    <path d="M 344.691534 235.238438 
L 346.213352 235.238438 
L 346.213352 235.238438 
L 344.691534 235.238438 
z
" clip-path="url(#p5c7e77d06b)" style="fill: #1f77b4"/>
   </g>
   <g id="patch_198">
    <path d="M 346.213352 235.238438 
L 347.73517 235.238438 
L 347.73517 235.238438 
L 346.213352 235.238438 
z
" clip-path="url(#p5c7e77d06b)" style="fill: #1f77b4"/>
   </g>
   <g id="patch_199">
    <path d="M 347.73517 235.238438 
L 349.256989 235.238438 
L 349.256989 235.238438 
L 347.73517 235.238438 
z
" clip-path="url(#p5c7e77d06b)" style="fill: #1f77b4"/>
   </g>
   <g id="patch_200">
    <path d="M 349.256989 235.238438 
L 350.778807 235.238438 
L 350.778807 235.238438 
L 349.256989 235.238438 
z
" clip-path="url(#p5c7e77d06b)" style="fill: #1f77b4"/>
   </g>
   <g id="patch_201">
    <path d="M 350.778807 235.238438 
L 352.300625 235.238438 
L 352.300625 235.238438 
L 350.778807 235.238438 
z
" clip-path="url(#p5c7e77d06b)" style="fill: #1f77b4"/>
   </g>
   <g id="patch_202">
    <path d="M 352.300625 235.238438 
L 353.822443 235.238438 
L 353.822443 234.998755 
L 352.300625 234.998755 
z
" clip-path="url(#p5c7e77d06b)" style="fill: #1f77b4"/>
   </g>
   <g id="matplotlib.axis_1">
    <g id="xtick_1">
     <g id="line2d_1">
      <defs>
       <path id="m3b5a20c65a" d="M 0 0 
L 0 3.5 
" style="stroke: #000000; stroke-width: 0.8"/>
      </defs>
      <g>
       <use xlink:href="#m3b5a20c65a" x="48.084225" y="235.238438" style="stroke: #000000; stroke-width: 0.8"/>
      </g>
     </g>
     <g id="text_1">
      <!-- 0.0 -->
      <g transform="translate(40.132663 249.836875)scale(0.1 -0.1)">
       <defs>
        <path id="DejaVuSans-30" d="M 2034 4250 
Q 1547 4250 1301 3770 
Q 1056 3291 1056 2328 
Q 1056 1369 1301 889 
Q 1547 409 2034 409 
Q 2525 409 2770 889 
Q 3016 1369 3016 2328 
Q 3016 3291 2770 3770 
Q 2525 4250 2034 4250 
z
M 2034 4750 
Q 2819 4750 3233 4129 
Q 3647 3509 3647 2328 
Q 3647 1150 3233 529 
Q 2819 -91 2034 -91 
Q 1250 -91 836 529 
Q 422 1150 422 2328 
Q 422 3509 836 4129 
Q 1250 4750 2034 4750 
z
" transform="scale(0.015625)"/>
        <path id="DejaVuSans-2e" d="M 684 794 
L 1344 794 
L 1344 0 
L 684 0 
L 684 794 
z
" transform="scale(0.015625)"/>
       </defs>
       <use xlink:href="#DejaVuSans-30"/>
       <use xlink:href="#DejaVuSans-2e" x="63.623047"/>
       <use xlink:href="#DejaVuSans-30" x="95.410156"/>
      </g>
     </g>
    </g>
    <g id="xtick_2">
     <g id="line2d_2">
      <g>
       <use xlink:href="#m3b5a20c65a" x="85.748664" y="235.238438" style="stroke: #000000; stroke-width: 0.8"/>
      </g>
     </g>
     <g id="text_2">
      <!-- 0.5 -->
      <g transform="translate(77.797102 249.836875)scale(0.1 -0.1)">
       <defs>
        <path id="DejaVuSans-35" d="M 691 4666 
L 3169 4666 
L 3169 4134 
L 1269 4134 
L 1269 2991 
Q 1406 3038 1543 3061 
Q 1681 3084 1819 3084 
Q 2600 3084 3056 2656 
Q 3513 2228 3513 1497 
Q 3513 744 3044 326 
Q 2575 -91 1722 -91 
Q 1428 -91 1123 -41 
Q 819 9 494 109 
L 494 744 
Q 775 591 1075 516 
Q 1375 441 1709 441 
Q 2250 441 2565 725 
Q 2881 1009 2881 1497 
Q 2881 1984 2565 2268 
Q 2250 2553 1709 2553 
Q 1456 2553 1204 2497 
Q 953 2441 691 2322 
L 691 4666 
z
" transform="scale(0.015625)"/>
       </defs>
       <use xlink:href="#DejaVuSans-30"/>
       <use xlink:href="#DejaVuSans-2e" x="63.623047"/>
       <use xlink:href="#DejaVuSans-35" x="95.410156"/>
      </g>
     </g>
    </g>
    <g id="xtick_3">
     <g id="line2d_3">
      <g>
       <use xlink:href="#m3b5a20c65a" x="123.413103" y="235.238438" style="stroke: #000000; stroke-width: 0.8"/>
      </g>
     </g>
     <g id="text_3">
      <!-- 1.0 -->
      <g transform="translate(115.461541 249.836875)scale(0.1 -0.1)">
       <defs>
        <path id="DejaVuSans-31" d="M 794 531 
L 1825 531 
L 1825 4091 
L 703 3866 
L 703 4441 
L 1819 4666 
L 2450 4666 
L 2450 531 
L 3481 531 
L 3481 0 
L 794 0 
L 794 531 
z
" transform="scale(0.015625)"/>
       </defs>
       <use xlink:href="#DejaVuSans-31"/>
       <use xlink:href="#DejaVuSans-2e" x="63.623047"/>
       <use xlink:href="#DejaVuSans-30" x="95.410156"/>
      </g>
     </g>
    </g>
    <g id="xtick_4">
     <g id="line2d_4">
      <g>
       <use xlink:href="#m3b5a20c65a" x="161.077542" y="235.238438" style="stroke: #000000; stroke-width: 0.8"/>
      </g>
     </g>
     <g id="text_4">
      <!-- 1.5 -->
      <g transform="translate(153.12598 249.836875)scale(0.1 -0.1)">
       <use xlink:href="#DejaVuSans-31"/>
       <use xlink:href="#DejaVuSans-2e" x="63.623047"/>
       <use xlink:href="#DejaVuSans-35" x="95.410156"/>
      </g>
     </g>
    </g>
    <g id="xtick_5">
     <g id="line2d_5">
      <g>
       <use xlink:href="#m3b5a20c65a" x="198.741982" y="235.238438" style="stroke: #000000; stroke-width: 0.8"/>
      </g>
     </g>
     <g id="text_5">
      <!-- 2.0 -->
      <g transform="translate(190.790419 249.836875)scale(0.1 -0.1)">
       <defs>
        <path id="DejaVuSans-32" d="M 1228 531 
L 3431 531 
L 3431 0 
L 469 0 
L 469 531 
Q 828 903 1448 1529 
Q 2069 2156 2228 2338 
Q 2531 2678 2651 2914 
Q 2772 3150 2772 3378 
Q 2772 3750 2511 3984 
Q 2250 4219 1831 4219 
Q 1534 4219 1204 4116 
Q 875 4013 500 3803 
L 500 4441 
Q 881 4594 1212 4672 
Q 1544 4750 1819 4750 
Q 2544 4750 2975 4387 
Q 3406 4025 3406 3419 
Q 3406 3131 3298 2873 
Q 3191 2616 2906 2266 
Q 2828 2175 2409 1742 
Q 1991 1309 1228 531 
z
" transform="scale(0.015625)"/>
       </defs>
       <use xlink:href="#DejaVuSans-32"/>
       <use xlink:href="#DejaVuSans-2e" x="63.623047"/>
       <use xlink:href="#DejaVuSans-30" x="95.410156"/>
      </g>
     </g>
    </g>
    <g id="xtick_6">
     <g id="line2d_6">
      <g>
       <use xlink:href="#m3b5a20c65a" x="236.406421" y="235.238438" style="stroke: #000000; stroke-width: 0.8"/>
      </g>
     </g>
     <g id="text_6">
      <!-- 2.5 -->
      <g transform="translate(228.454858 249.836875)scale(0.1 -0.1)">
       <use xlink:href="#DejaVuSans-32"/>
       <use xlink:href="#DejaVuSans-2e" x="63.623047"/>
       <use xlink:href="#DejaVuSans-35" x="95.410156"/>
      </g>
     </g>
    </g>
    <g id="xtick_7">
     <g id="line2d_7">
      <g>
       <use xlink:href="#m3b5a20c65a" x="274.07086" y="235.238438" style="stroke: #000000; stroke-width: 0.8"/>
      </g>
     </g>
     <g id="text_7">
      <!-- 3.0 -->
      <g transform="translate(266.119297 249.836875)scale(0.1 -0.1)">
       <defs>
        <path id="DejaVuSans-33" d="M 2597 2516 
Q 3050 2419 3304 2112 
Q 3559 1806 3559 1356 
Q 3559 666 3084 287 
Q 2609 -91 1734 -91 
Q 1441 -91 1130 -33 
Q 819 25 488 141 
L 488 750 
Q 750 597 1062 519 
Q 1375 441 1716 441 
Q 2309 441 2620 675 
Q 2931 909 2931 1356 
Q 2931 1769 2642 2001 
Q 2353 2234 1838 2234 
L 1294 2234 
L 1294 2753 
L 1863 2753 
Q 2328 2753 2575 2939 
Q 2822 3125 2822 3475 
Q 2822 3834 2567 4026 
Q 2313 4219 1838 4219 
Q 1578 4219 1281 4162 
Q 984 4106 628 3988 
L 628 4550 
Q 988 4650 1302 4700 
Q 1616 4750 1894 4750 
Q 2613 4750 3031 4423 
Q 3450 4097 3450 3541 
Q 3450 3153 3228 2886 
Q 3006 2619 2597 2516 
z
" transform="scale(0.015625)"/>
       </defs>
       <use xlink:href="#DejaVuSans-33"/>
       <use xlink:href="#DejaVuSans-2e" x="63.623047"/>
       <use xlink:href="#DejaVuSans-30" x="95.410156"/>
      </g>
     </g>
    </g>
    <g id="xtick_8">
     <g id="line2d_8">
      <g>
       <use xlink:href="#m3b5a20c65a" x="311.735299" y="235.238438" style="stroke: #000000; stroke-width: 0.8"/>
      </g>
     </g>
     <g id="text_8">
      <!-- 3.5 -->
      <g transform="translate(303.783736 249.836875)scale(0.1 -0.1)">
       <use xlink:href="#DejaVuSans-33"/>
       <use xlink:href="#DejaVuSans-2e" x="63.623047"/>
       <use xlink:href="#DejaVuSans-35" x="95.410156"/>
      </g>
     </g>
    </g>
    <g id="xtick_9">
     <g id="line2d_9">
      <g>
       <use xlink:href="#m3b5a20c65a" x="349.399738" y="235.238438" style="stroke: #000000; stroke-width: 0.8"/>
      </g>
     </g>
     <g id="text_9">
      <!-- 4.0 -->
      <g transform="translate(341.448175 249.836875)scale(0.1 -0.1)">
       <defs>
        <path id="DejaVuSans-34" d="M 2419 4116 
L 825 1625 
L 2419 1625 
L 2419 4116 
z
M 2253 4666 
L 3047 4666 
L 3047 1625 
L 3713 1625 
L 3713 1100 
L 3047 1100 
L 3047 0 
L 2419 0 
L 2419 1100 
L 313 1100 
L 313 1709 
L 2253 4666 
z
" transform="scale(0.015625)"/>
       </defs>
       <use xlink:href="#DejaVuSans-34"/>
       <use xlink:href="#DejaVuSans-2e" x="63.623047"/>
       <use xlink:href="#DejaVuSans-30" x="95.410156"/>
      </g>
     </g>
    </g>
    <g id="text_10">
     <!-- Frequency (Hz) -->
     <g transform="translate(163.935937 263.515)scale(0.1 -0.1)">
      <defs>
       <path id="DejaVuSans-46" d="M 628 4666 
L 3309 4666 
L 3309 4134 
L 1259 4134 
L 1259 2759 
L 3109 2759 
L 3109 2228 
L 1259 2228 
L 1259 0 
L 628 0 
L 628 4666 
z
" transform="scale(0.015625)"/>
       <path id="DejaVuSans-72" d="M 2631 2963 
Q 2534 3019 2420 3045 
Q 2306 3072 2169 3072 
Q 1681 3072 1420 2755 
Q 1159 2438 1159 1844 
L 1159 0 
L 581 0 
L 581 3500 
L 1159 3500 
L 1159 2956 
Q 1341 3275 1631 3429 
Q 1922 3584 2338 3584 
Q 2397 3584 2469 3576 
Q 2541 3569 2628 3553 
L 2631 2963 
z
" transform="scale(0.015625)"/>
       <path id="DejaVuSans-65" d="M 3597 1894 
L 3597 1613 
L 953 1613 
Q 991 1019 1311 708 
Q 1631 397 2203 397 
Q 2534 397 2845 478 
Q 3156 559 3463 722 
L 3463 178 
Q 3153 47 2828 -22 
Q 2503 -91 2169 -91 
Q 1331 -91 842 396 
Q 353 884 353 1716 
Q 353 2575 817 3079 
Q 1281 3584 2069 3584 
Q 2775 3584 3186 3129 
Q 3597 2675 3597 1894 
z
M 3022 2063 
Q 3016 2534 2758 2815 
Q 2500 3097 2075 3097 
Q 1594 3097 1305 2825 
Q 1016 2553 972 2059 
L 3022 2063 
z
" transform="scale(0.015625)"/>
       <path id="DejaVuSans-71" d="M 947 1747 
Q 947 1113 1208 752 
Q 1469 391 1925 391 
Q 2381 391 2643 752 
Q 2906 1113 2906 1747 
Q 2906 2381 2643 2742 
Q 2381 3103 1925 3103 
Q 1469 3103 1208 2742 
Q 947 2381 947 1747 
z
M 2906 525 
Q 2725 213 2448 61 
Q 2172 -91 1784 -91 
Q 1150 -91 751 415 
Q 353 922 353 1747 
Q 353 2572 751 3078 
Q 1150 3584 1784 3584 
Q 2172 3584 2448 3432 
Q 2725 3281 2906 2969 
L 2906 3500 
L 3481 3500 
L 3481 -1331 
L 2906 -1331 
L 2906 525 
z
" transform="scale(0.015625)"/>
       <path id="DejaVuSans-75" d="M 544 1381 
L 544 3500 
L 1119 3500 
L 1119 1403 
Q 1119 906 1312 657 
Q 1506 409 1894 409 
Q 2359 409 2629 706 
Q 2900 1003 2900 1516 
L 2900 3500 
L 3475 3500 
L 3475 0 
L 2900 0 
L 2900 538 
Q 2691 219 2414 64 
Q 2138 -91 1772 -91 
Q 1169 -91 856 284 
Q 544 659 544 1381 
z
M 1991 3584 
L 1991 3584 
z
" transform="scale(0.015625)"/>
       <path id="DejaVuSans-6e" d="M 3513 2113 
L 3513 0 
L 2938 0 
L 2938 2094 
Q 2938 2591 2744 2837 
Q 2550 3084 2163 3084 
Q 1697 3084 1428 2787 
Q 1159 2491 1159 1978 
L 1159 0 
L 581 0 
L 581 3500 
L 1159 3500 
L 1159 2956 
Q 1366 3272 1645 3428 
Q 1925 3584 2291 3584 
Q 2894 3584 3203 3211 
Q 3513 2838 3513 2113 
z
" transform="scale(0.015625)"/>
       <path id="DejaVuSans-63" d="M 3122 3366 
L 3122 2828 
Q 2878 2963 2633 3030 
Q 2388 3097 2138 3097 
Q 1578 3097 1268 2742 
Q 959 2388 959 1747 
Q 959 1106 1268 751 
Q 1578 397 2138 397 
Q 2388 397 2633 464 
Q 2878 531 3122 666 
L 3122 134 
Q 2881 22 2623 -34 
Q 2366 -91 2075 -91 
Q 1284 -91 818 406 
Q 353 903 353 1747 
Q 353 2603 823 3093 
Q 1294 3584 2113 3584 
Q 2378 3584 2631 3529 
Q 2884 3475 3122 3366 
z
" transform="scale(0.015625)"/>
       <path id="DejaVuSans-79" d="M 2059 -325 
Q 1816 -950 1584 -1140 
Q 1353 -1331 966 -1331 
L 506 -1331 
L 506 -850 
L 844 -850 
Q 1081 -850 1212 -737 
Q 1344 -625 1503 -206 
L 1606 56 
L 191 3500 
L 800 3500 
L 1894 763 
L 2988 3500 
L 3597 3500 
L 2059 -325 
z
" transform="scale(0.015625)"/>
       <path id="DejaVuSans-20" transform="scale(0.015625)"/>
       <path id="DejaVuSans-28" d="M 1984 4856 
Q 1566 4138 1362 3434 
Q 1159 2731 1159 2009 
Q 1159 1288 1364 580 
Q 1569 -128 1984 -844 
L 1484 -844 
Q 1016 -109 783 600 
Q 550 1309 550 2009 
Q 550 2706 781 3412 
Q 1013 4119 1484 4856 
L 1984 4856 
z
" transform="scale(0.015625)"/>
       <path id="DejaVuSans-48" d="M 628 4666 
L 1259 4666 
L 1259 2753 
L 3553 2753 
L 3553 4666 
L 4184 4666 
L 4184 0 
L 3553 0 
L 3553 2222 
L 1259 2222 
L 1259 0 
L 628 0 
L 628 4666 
z
" transform="scale(0.015625)"/>
       <path id="DejaVuSans-7a" d="M 353 3500 
L 3084 3500 
L 3084 2975 
L 922 459 
L 3084 459 
L 3084 0 
L 275 0 
L 275 525 
L 2438 3041 
L 353 3041 
L 353 3500 
z
" transform="scale(0.015625)"/>
       <path id="DejaVuSans-29" d="M 513 4856 
L 1013 4856 
Q 1481 4119 1714 3412 
Q 1947 2706 1947 2009 
Q 1947 1309 1714 600 
Q 1481 -109 1013 -844 
L 513 -844 
Q 928 -128 1133 580 
Q 1338 1288 1338 2009 
Q 1338 2731 1133 3434 
Q 928 4138 513 4856 
z
" transform="scale(0.015625)"/>
      </defs>
      <use xlink:href="#DejaVuSans-46"/>
      <use xlink:href="#DejaVuSans-72" x="50.269531"/>
      <use xlink:href="#DejaVuSans-65" x="89.132812"/>
      <use xlink:href="#DejaVuSans-71" x="150.65625"/>
      <use xlink:href="#DejaVuSans-75" x="214.132812"/>
      <use xlink:href="#DejaVuSans-65" x="277.511719"/>
      <use xlink:href="#DejaVuSans-6e" x="339.035156"/>
      <use xlink:href="#DejaVuSans-63" x="402.414062"/>
      <use xlink:href="#DejaVuSans-79" x="457.394531"/>
      <use xlink:href="#DejaVuSans-20" x="516.574219"/>
      <use xlink:href="#DejaVuSans-28" x="548.361328"/>
      <use xlink:href="#DejaVuSans-48" x="587.375"/>
      <use xlink:href="#DejaVuSans-7a" x="662.570312"/>
      <use xlink:href="#DejaVuSans-29" x="715.060547"/>
     </g>
    </g>
    <g id="text_11">
     <!-- 1e15 -->
     <g transform="translate(343.8 262.515)scale(0.1 -0.1)">
      <use xlink:href="#DejaVuSans-31"/>
      <use xlink:href="#DejaVuSans-65" x="63.623047"/>
      <use xlink:href="#DejaVuSans-31" x="125.146484"/>
      <use xlink:href="#DejaVuSans-35" x="188.769531"/>
     </g>
    </g>
   </g>
   <g id="matplotlib.axis_2">
    <g id="ytick_1">
     <g id="line2d_10">
      <defs>
       <path id="mfa1479ba6d" d="M 0 0 
L -3.5 0 
" style="stroke: #000000; stroke-width: 0.8"/>
      </defs>
      <g>
       <use xlink:href="#mfa1479ba6d" x="34.240625" y="235.238438" style="stroke: #000000; stroke-width: 0.8"/>
      </g>
     </g>
     <g id="text_12">
      <!-- 0 -->
      <g transform="translate(20.878125 239.037656)scale(0.1 -0.1)">
       <use xlink:href="#DejaVuSans-30"/>
      </g>
     </g>
    </g>
    <g id="ytick_2">
     <g id="line2d_11">
      <g>
       <use xlink:href="#mfa1479ba6d" x="34.240625" y="207.920174" style="stroke: #000000; stroke-width: 0.8"/>
      </g>
     </g>
     <g id="text_13">
      <!-- 1 -->
      <g transform="translate(20.878125 211.719393)scale(0.1 -0.1)">
       <use xlink:href="#DejaVuSans-31"/>
      </g>
     </g>
    </g>
    <g id="ytick_3">
     <g id="line2d_12">
      <g>
       <use xlink:href="#mfa1479ba6d" x="34.240625" y="180.601911" style="stroke: #000000; stroke-width: 0.8"/>
      </g>
     </g>
     <g id="text_14">
      <!-- 2 -->
      <g transform="translate(20.878125 184.40113)scale(0.1 -0.1)">
       <use xlink:href="#DejaVuSans-32"/>
      </g>
     </g>
    </g>
    <g id="ytick_4">
     <g id="line2d_13">
      <g>
       <use xlink:href="#mfa1479ba6d" x="34.240625" y="153.283648" style="stroke: #000000; stroke-width: 0.8"/>
      </g>
     </g>
     <g id="text_15">
      <!-- 3 -->
      <g transform="translate(20.878125 157.082867)scale(0.1 -0.1)">
       <use xlink:href="#DejaVuSans-33"/>
      </g>
     </g>
    </g>
    <g id="ytick_5">
     <g id="line2d_14">
      <g>
       <use xlink:href="#mfa1479ba6d" x="34.240625" y="125.965385" style="stroke: #000000; stroke-width: 0.8"/>
      </g>
     </g>
     <g id="text_16">
      <!-- 4 -->
      <g transform="translate(20.878125 129.764603)scale(0.1 -0.1)">
       <use xlink:href="#DejaVuSans-34"/>
      </g>
     </g>
    </g>
    <g id="ytick_6">
     <g id="line2d_15">
      <g>
       <use xlink:href="#mfa1479ba6d" x="34.240625" y="98.647121" style="stroke: #000000; stroke-width: 0.8"/>
      </g>
     </g>
     <g id="text_17">
      <!-- 5 -->
      <g transform="translate(20.878125 102.44634)scale(0.1 -0.1)">
       <use xlink:href="#DejaVuSans-35"/>
      </g>
     </g>
    </g>
    <g id="ytick_7">
     <g id="line2d_16">
      <g>
       <use xlink:href="#mfa1479ba6d" x="34.240625" y="71.328858" style="stroke: #000000; stroke-width: 0.8"/>
      </g>
     </g>
     <g id="text_18">
      <!-- 6 -->
      <g transform="translate(20.878125 75.128077)scale(0.1 -0.1)">
       <defs>
        <path id="DejaVuSans-36" d="M 2113 2584 
Q 1688 2584 1439 2293 
Q 1191 2003 1191 1497 
Q 1191 994 1439 701 
Q 1688 409 2113 409 
Q 2538 409 2786 701 
Q 3034 994 3034 1497 
Q 3034 2003 2786 2293 
Q 2538 2584 2113 2584 
z
M 3366 4563 
L 3366 3988 
Q 3128 4100 2886 4159 
Q 2644 4219 2406 4219 
Q 1781 4219 1451 3797 
Q 1122 3375 1075 2522 
Q 1259 2794 1537 2939 
Q 1816 3084 2150 3084 
Q 2853 3084 3261 2657 
Q 3669 2231 3669 1497 
Q 3669 778 3244 343 
Q 2819 -91 2113 -91 
Q 1303 -91 875 529 
Q 447 1150 447 2328 
Q 447 3434 972 4092 
Q 1497 4750 2381 4750 
Q 2619 4750 2861 4703 
Q 3103 4656 3366 4563 
z
" transform="scale(0.015625)"/>
       </defs>
       <use xlink:href="#DejaVuSans-36"/>
      </g>
     </g>
    </g>
    <g id="ytick_8">
     <g id="line2d_17">
      <g>
       <use xlink:href="#mfa1479ba6d" x="34.240625" y="44.010595" style="stroke: #000000; stroke-width: 0.8"/>
      </g>
     </g>
     <g id="text_19">
      <!-- 7 -->
      <g transform="translate(20.878125 47.809814)scale(0.1 -0.1)">
       <defs>
        <path id="DejaVuSans-37" d="M 525 4666 
L 3525 4666 
L 3525 4397 
L 1831 0 
L 1172 0 
L 2766 4134 
L 525 4134 
L 525 4666 
z
" transform="scale(0.015625)"/>
       </defs>
       <use xlink:href="#DejaVuSans-37"/>
      </g>
     </g>
    </g>
    <g id="text_20">
     <!-- Luminosity density w.r.t. frequency (erg/s/Hz) -->
     <g transform="translate(14.798438 239.989531)rotate(-90)scale(0.1 -0.1)">
      <defs>
       <path id="DejaVuSans-4c" d="M 628 4666 
L 1259 4666 
L 1259 531 
L 3531 531 
L 3531 0 
L 628 0 
L 628 4666 
z
" transform="scale(0.015625)"/>
       <path id="DejaVuSans-6d" d="M 3328 2828 
Q 3544 3216 3844 3400 
Q 4144 3584 4550 3584 
Q 5097 3584 5394 3201 
Q 5691 2819 5691 2113 
L 5691 0 
L 5113 0 
L 5113 2094 
Q 5113 2597 4934 2840 
Q 4756 3084 4391 3084 
Q 3944 3084 3684 2787 
Q 3425 2491 3425 1978 
L 3425 0 
L 2847 0 
L 2847 2094 
Q 2847 2600 2669 2842 
Q 2491 3084 2119 3084 
Q 1678 3084 1418 2786 
Q 1159 2488 1159 1978 
L 1159 0 
L 581 0 
L 581 3500 
L 1159 3500 
L 1159 2956 
Q 1356 3278 1631 3431 
Q 1906 3584 2284 3584 
Q 2666 3584 2933 3390 
Q 3200 3197 3328 2828 
z
" transform="scale(0.015625)"/>
       <path id="DejaVuSans-69" d="M 603 3500 
L 1178 3500 
L 1178 0 
L 603 0 
L 603 3500 
z
M 603 4863 
L 1178 4863 
L 1178 4134 
L 603 4134 
L 603 4863 
z
" transform="scale(0.015625)"/>
       <path id="DejaVuSans-6f" d="M 1959 3097 
Q 1497 3097 1228 2736 
Q 959 2375 959 1747 
Q 959 1119 1226 758 
Q 1494 397 1959 397 
Q 2419 397 2687 759 
Q 2956 1122 2956 1747 
Q 2956 2369 2687 2733 
Q 2419 3097 1959 3097 
z
M 1959 3584 
Q 2709 3584 3137 3096 
Q 3566 2609 3566 1747 
Q 3566 888 3137 398 
Q 2709 -91 1959 -91 
Q 1206 -91 779 398 
Q 353 888 353 1747 
Q 353 2609 779 3096 
Q 1206 3584 1959 3584 
z
" transform="scale(0.015625)"/>
       <path id="DejaVuSans-73" d="M 2834 3397 
L 2834 2853 
Q 2591 2978 2328 3040 
Q 2066 3103 1784 3103 
Q 1356 3103 1142 2972 
Q 928 2841 928 2578 
Q 928 2378 1081 2264 
Q 1234 2150 1697 2047 
L 1894 2003 
Q 2506 1872 2764 1633 
Q 3022 1394 3022 966 
Q 3022 478 2636 193 
Q 2250 -91 1575 -91 
Q 1294 -91 989 -36 
Q 684 19 347 128 
L 347 722 
Q 666 556 975 473 
Q 1284 391 1588 391 
Q 1994 391 2212 530 
Q 2431 669 2431 922 
Q 2431 1156 2273 1281 
Q 2116 1406 1581 1522 
L 1381 1569 
Q 847 1681 609 1914 
Q 372 2147 372 2553 
Q 372 3047 722 3315 
Q 1072 3584 1716 3584 
Q 2034 3584 2315 3537 
Q 2597 3491 2834 3397 
z
" transform="scale(0.015625)"/>
       <path id="DejaVuSans-74" d="M 1172 4494 
L 1172 3500 
L 2356 3500 
L 2356 3053 
L 1172 3053 
L 1172 1153 
Q 1172 725 1289 603 
Q 1406 481 1766 481 
L 2356 481 
L 2356 0 
L 1766 0 
Q 1100 0 847 248 
Q 594 497 594 1153 
L 594 3053 
L 172 3053 
L 172 3500 
L 594 3500 
L 594 4494 
L 1172 4494 
z
" transform="scale(0.015625)"/>
       <path id="DejaVuSans-64" d="M 2906 2969 
L 2906 4863 
L 3481 4863 
L 3481 0 
L 2906 0 
L 2906 525 
Q 2725 213 2448 61 
Q 2172 -91 1784 -91 
Q 1150 -91 751 415 
Q 353 922 353 1747 
Q 353 2572 751 3078 
Q 1150 3584 1784 3584 
Q 2172 3584 2448 3432 
Q 2725 3281 2906 2969 
z
M 947 1747 
Q 947 1113 1208 752 
Q 1469 391 1925 391 
Q 2381 391 2643 752 
Q 2906 1113 2906 1747 
Q 2906 2381 2643 2742 
Q 2381 3103 1925 3103 
Q 1469 3103 1208 2742 
Q 947 2381 947 1747 
z
" transform="scale(0.015625)"/>
       <path id="DejaVuSans-77" d="M 269 3500 
L 844 3500 
L 1563 769 
L 2278 3500 
L 2956 3500 
L 3675 769 
L 4391 3500 
L 4966 3500 
L 4050 0 
L 3372 0 
L 2619 2869 
L 1863 0 
L 1184 0 
L 269 3500 
z
" transform="scale(0.015625)"/>
       <path id="DejaVuSans-66" d="M 2375 4863 
L 2375 4384 
L 1825 4384 
Q 1516 4384 1395 4259 
Q 1275 4134 1275 3809 
L 1275 3500 
L 2222 3500 
L 2222 3053 
L 1275 3053 
L 1275 0 
L 697 0 
L 697 3053 
L 147 3053 
L 147 3500 
L 697 3500 
L 697 3744 
Q 697 4328 969 4595 
Q 1241 4863 1831 4863 
L 2375 4863 
z
" transform="scale(0.015625)"/>
       <path id="DejaVuSans-67" d="M 2906 1791 
Q 2906 2416 2648 2759 
Q 2391 3103 1925 3103 
Q 1463 3103 1205 2759 
Q 947 2416 947 1791 
Q 947 1169 1205 825 
Q 1463 481 1925 481 
Q 2391 481 2648 825 
Q 2906 1169 2906 1791 
z
M 3481 434 
Q 3481 -459 3084 -895 
Q 2688 -1331 1869 -1331 
Q 1566 -1331 1297 -1286 
Q 1028 -1241 775 -1147 
L 775 -588 
Q 1028 -725 1275 -790 
Q 1522 -856 1778 -856 
Q 2344 -856 2625 -561 
Q 2906 -266 2906 331 
L 2906 616 
Q 2728 306 2450 153 
Q 2172 0 1784 0 
Q 1141 0 747 490 
Q 353 981 353 1791 
Q 353 2603 747 3093 
Q 1141 3584 1784 3584 
Q 2172 3584 2450 3431 
Q 2728 3278 2906 2969 
L 2906 3500 
L 3481 3500 
L 3481 434 
z
" transform="scale(0.015625)"/>
       <path id="DejaVuSans-2f" d="M 1625 4666 
L 2156 4666 
L 531 -594 
L 0 -594 
L 1625 4666 
z
" transform="scale(0.015625)"/>
      </defs>
      <use xlink:href="#DejaVuSans-4c"/>
      <use xlink:href="#DejaVuSans-75" x="53.962891"/>
      <use xlink:href="#DejaVuSans-6d" x="117.341797"/>
      <use xlink:href="#DejaVuSans-69" x="214.753906"/>
      <use xlink:href="#DejaVuSans-6e" x="242.537109"/>
      <use xlink:href="#DejaVuSans-6f" x="305.916016"/>
      <use xlink:href="#DejaVuSans-73" x="367.097656"/>
      <use xlink:href="#DejaVuSans-69" x="419.197266"/>
      <use xlink:href="#DejaVuSans-74" x="446.980469"/>
      <use xlink:href="#DejaVuSans-79" x="486.189453"/>
      <use xlink:href="#DejaVuSans-20" x="545.369141"/>
      <use xlink:href="#DejaVuSans-64" x="577.15625"/>
      <use xlink:href="#DejaVuSans-65" x="640.632812"/>
      <use xlink:href="#DejaVuSans-6e" x="702.15625"/>
      <use xlink:href="#DejaVuSans-73" x="765.535156"/>
      <use xlink:href="#DejaVuSans-69" x="817.634766"/>
      <use xlink:href="#DejaVuSans-74" x="845.417969"/>
      <use xlink:href="#DejaVuSans-79" x="884.626953"/>
      <use xlink:href="#DejaVuSans-20" x="943.806641"/>
      <use xlink:href="#DejaVuSans-77" x="975.59375"/>
      <use xlink:href="#DejaVuSans-2e" x="1048.255859"/>
      <use xlink:href="#DejaVuSans-72" x="1080.042969"/>
      <use xlink:href="#DejaVuSans-2e" x="1112.03125"/>
      <use xlink:href="#DejaVuSans-74" x="1143.818359"/>
      <use xlink:href="#DejaVuSans-2e" x="1183.027344"/>
      <use xlink:href="#DejaVuSans-20" x="1214.814453"/>
      <use xlink:href="#DejaVuSans-66" x="1246.601562"/>
      <use xlink:href="#DejaVuSans-72" x="1281.806641"/>
      <use xlink:href="#DejaVuSans-65" x="1320.669922"/>
      <use xlink:href="#DejaVuSans-71" x="1382.193359"/>
      <use xlink:href="#DejaVuSans-75" x="1445.669922"/>
      <use xlink:href="#DejaVuSans-65" x="1509.048828"/>
      <use xlink:href="#DejaVuSans-6e" x="1570.572266"/>
      <use xlink:href="#DejaVuSans-63" x="1633.951172"/>
      <use xlink:href="#DejaVuSans-79" x="1688.931641"/>
      <use xlink:href="#DejaVuSans-20" x="1748.111328"/>
      <use xlink:href="#DejaVuSans-28" x="1779.898438"/>
      <use xlink:href="#DejaVuSans-65" x="1818.912109"/>
      <use xlink:href="#DejaVuSans-72" x="1880.435547"/>
      <use xlink:href="#DejaVuSans-67" x="1919.798828"/>
      <use xlink:href="#DejaVuSans-2f" x="1983.275391"/>
      <use xlink:href="#DejaVuSans-73" x="2016.966797"/>
      <use xlink:href="#DejaVuSans-2f" x="2069.066406"/>
      <use xlink:href="#DejaVuSans-48" x="2102.757812"/>
      <use xlink:href="#DejaVuSans-7a" x="2177.953125"/>
      <use xlink:href="#DejaVuSans-29" x="2230.443359"/>
     </g>
    </g>
    <g id="text_21">
     <!-- 1e27 -->
     <g transform="translate(34.240625 14.798437)scale(0.1 -0.1)">
      <use xlink:href="#DejaVuSans-31"/>
      <use xlink:href="#DejaVuSans-65" x="63.623047"/>
      <use xlink:href="#DejaVuSans-32" x="125.146484"/>
      <use xlink:href="#DejaVuSans-37" x="188.769531"/>
     </g>
    </g>
   </g>
   <g id="line2d_18">
    <path d="M 49.458807 234.182721 
L 50.988272 230.755389 
L 52.517738 225.30547 
L 54.047203 218.170373 
L 55.576669 209.662097 
L 57.106134 200.067643 
L 60.165065 178.64641 
L 69.341858 110.900702 
L 72.400789 90.972812 
L 73.930255 81.925909 
L 75.45972 73.563073 
L 76.989186 65.922632 
L 78.518651 59.031316 
L 80.048117 52.905357 
L 81.577583 47.551576 
L 83.107048 42.968418 
L 84.636514 39.146955 
L 86.165979 36.071839 
L 87.695445 33.722202 
L 89.22491 32.072506 
L 90.754376 31.093335 
L 92.283841 30.75213 
L 93.813307 31.013864 
L 95.342772 31.841663 
L 96.872238 33.197369 
L 98.401703 35.04204 
L 99.931169 37.336408 
L 101.460634 40.041274 
L 102.9901 43.117858 
L 104.519565 46.528103 
L 107.578496 54.202455 
L 110.637427 62.783078 
L 113.696358 72.012728 
L 118.284755 86.578587 
L 127.461548 116.077788 
L 132.049944 130.117758 
L 136.638341 143.293827 
L 139.697272 151.512422 
L 142.756203 159.242603 
L 145.815134 166.468571 
L 148.874065 173.185492 
L 151.932996 179.397464 
L 154.991927 185.115692 
L 158.050858 190.356883 
L 161.109789 195.141849 
L 164.16872 199.494314 
L 167.227651 203.439907 
L 170.286582 207.005329 
L 173.345513 210.21767 
L 176.404444 213.103873 
L 179.463375 215.690298 
L 182.522306 218.002409 
L 185.581237 220.06453 
L 188.640168 221.899684 
L 191.699099 223.529487 
L 194.75803 224.974093 
L 199.346427 226.834202 
L 203.934823 228.376161 
L 208.52322 229.649744 
L 213.111616 230.698105 
L 219.229478 231.80891 
L 225.34734 232.657863 
L 232.994668 233.438951 
L 240.641995 233.990045 
L 249.818789 234.43843 
L 262.054513 234.800652 
L 278.878633 235.050347 
L 306.409012 235.192787 
L 353.822443 235.234747 
L 353.822443 235.234747 
" clip-path="url(#p5c7e77d06b)" style="fill: none; stroke: #ff7f0e; stroke-width: 1.5; stroke-linecap: square"/>
   </g>
   <g id="patch_203">
    <path d="M 34.240625 235.238438 
L 34.240625 17.798438 
" style="fill: none; stroke: #000000; stroke-width: 0.8; stroke-linejoin: miter; stroke-linecap: square"/>
   </g>
   <g id="patch_204">
    <path d="M 369.040625 235.238438 
L 369.040625 17.798438 
" style="fill: none; stroke: #000000; stroke-width: 0.8; stroke-linejoin: miter; stroke-linecap: square"/>
   </g>
   <g id="patch_205">
    <path d="M 34.240625 235.238438 
L 369.040625 235.238438 
" style="fill: none; stroke: #000000; stroke-width: 0.8; stroke-linejoin: miter; stroke-linecap: square"/>
   </g>
   <g id="patch_206">
    <path d="M 34.240625 17.798438 
L 369.040625 17.798438 
" style="fill: none; stroke: #000000; stroke-width: 0.8; stroke-linejoin: miter; stroke-linecap: square"/>
   </g>
  </g>
 </g>
 <defs>
  <clipPath id="p5c7e77d06b">
   <rect x="34.240625" y="17.798438" width="334.8" height="217.44"/>
  </clipPath>
 </defs>
</svg>
