<?xml version="1.0" encoding="utf-8" standalone="no"?>
<!DOCTYPE svg PUBLIC "-//W3C//DTD SVG 1.1//EN"
  "http://www.w3.org/Graphics/SVG/1.1/DTD/svg11.dtd">
<svg xmlns:xlink="http://www.w3.org/1999/xlink" width="392.14375pt" height="262.19625pt" viewBox="0 0 392.14375 262.19625" xmlns="http://www.w3.org/2000/svg" version="1.1">
 <metadata>
  <rdf:RDF xmlns:dc="http://purl.org/dc/elements/1.1/" xmlns:cc="http://creativecommons.org/ns#" xmlns:rdf="http://www.w3.org/1999/02/22-rdf-syntax-ns#">
   <cc:Work>
    <dc:type rdf:resource="http://purl.org/dc/dcmitype/StillImage"/>
    <dc:date>2022-07-19T19:50:57.514976</dc:date>
    <dc:format>image/svg+xml</dc:format>
    <dc:creator>
     <cc:Agent>
      <dc:title>Matplotlib v3.5.2, https://matplotlib.org/</dc:title>
     </cc:Agent>
    </dc:creator>
   </cc:Work>
  </rdf:RDF>
 </metadata>
 <defs>
  <style type="text/css">*{stroke-linejoin: round; stroke-linecap: butt}</style>
 </defs>
 <g id="figure_1">
  <g id="patch_1">
   <path d="M 0 262.19625 
L 392.14375 262.19625 
L 392.14375 0 
L 0 0 
L 0 262.19625 
z
" style="fill: none"/>
  </g>
  <g id="axes_1">
   <g id="patch_2">
    <path d="M 50.14375 224.64 
L 384.94375 224.64 
L 384.94375 7.2 
L 50.14375 7.2 
z
" style="fill: #ffffff"/>
   </g>
   <g id="patch_3">
    <path d="M 67.208864 224.64 
L 68.721419 224.64 
L 68.721419 222.16881 
L 67.208864 222.16881 
z
" clip-path="url(#p3e6b898044)" style="fill: #1f77b4"/>
   </g>
   <g id="patch_4">
    <path d="M 68.721419 224.64 
L 70.233974 224.64 
L 70.233974 220.686096 
L 68.721419 220.686096 
z
" clip-path="url(#p3e6b898044)" style="fill: #1f77b4"/>
   </g>
   <g id="patch_5">
    <path d="M 70.233974 224.64 
L 71.746529 224.64 
L 71.746529 221.180334 
L 70.233974 221.180334 
z
" clip-path="url(#p3e6b898044)" style="fill: #1f77b4"/>
   </g>
   <g id="patch_6">
    <path d="M 71.746529 224.64 
L 73.259084 224.64 
L 73.259084 219.69762 
L 71.746529 219.69762 
z
" clip-path="url(#p3e6b898044)" style="fill: #1f77b4"/>
   </g>
   <g id="patch_7">
    <path d="M 73.259084 224.64 
L 74.771638 224.64 
L 74.771638 219.203382 
L 73.259084 219.203382 
z
" clip-path="url(#p3e6b898044)" style="fill: #1f77b4"/>
   </g>
   <g id="patch_8">
    <path d="M 74.771638 224.64 
L 76.284193 224.64 
L 76.284193 218.214906 
L 74.771638 218.214906 
z
" clip-path="url(#p3e6b898044)" style="fill: #1f77b4"/>
   </g>
   <g id="patch_9">
    <path d="M 76.284193 224.64 
L 77.796748 224.64 
L 77.796748 220.191858 
L 76.284193 220.191858 
z
" clip-path="url(#p3e6b898044)" style="fill: #1f77b4"/>
   </g>
   <g id="patch_10">
    <path d="M 77.796748 224.64 
L 79.309303 224.64 
L 79.309303 218.709144 
L 77.796748 218.709144 
z
" clip-path="url(#p3e6b898044)" style="fill: #1f77b4"/>
   </g>
   <g id="patch_11">
    <path d="M 79.309303 224.64 
L 80.821858 224.64 
L 80.821858 217.720668 
L 79.309303 217.720668 
z
" clip-path="url(#p3e6b898044)" style="fill: #1f77b4"/>
   </g>
   <g id="patch_12">
    <path d="M 80.821858 224.64 
L 82.334413 224.64 
L 82.334413 213.272526 
L 80.821858 213.272526 
z
" clip-path="url(#p3e6b898044)" style="fill: #1f77b4"/>
   </g>
   <g id="patch_13">
    <path d="M 82.334413 224.64 
L 83.846967 224.64 
L 83.846967 212.778288 
L 82.334413 212.778288 
z
" clip-path="url(#p3e6b898044)" style="fill: #1f77b4"/>
   </g>
   <g id="patch_14">
    <path d="M 83.846967 224.64 
L 85.359522 224.64 
L 85.359522 213.272526 
L 83.846967 213.272526 
z
" clip-path="url(#p3e6b898044)" style="fill: #1f77b4"/>
   </g>
   <g id="patch_15">
    <path d="M 85.359522 224.64 
L 86.872077 224.64 
L 86.872077 208.824385 
L 85.359522 208.824385 
z
" clip-path="url(#p3e6b898044)" style="fill: #1f77b4"/>
   </g>
   <g id="patch_16">
    <path d="M 86.872077 224.64 
L 88.384632 224.64 
L 88.384632 209.318623 
L 86.872077 209.318623 
z
" clip-path="url(#p3e6b898044)" style="fill: #1f77b4"/>
   </g>
   <g id="patch_17">
    <path d="M 88.384632 224.64 
L 89.897187 224.64 
L 89.897187 205.364719 
L 88.384632 205.364719 
z
" clip-path="url(#p3e6b898044)" style="fill: #1f77b4"/>
   </g>
   <g id="patch_18">
    <path d="M 89.897187 224.64 
L 91.409742 224.64 
L 91.409742 210.801337 
L 89.897187 210.801337 
z
" clip-path="url(#p3e6b898044)" style="fill: #1f77b4"/>
   </g>
   <g id="patch_19">
    <path d="M 91.409742 224.64 
L 92.922296 224.64 
L 92.922296 208.330147 
L 91.409742 208.330147 
z
" clip-path="url(#p3e6b898044)" style="fill: #1f77b4"/>
   </g>
   <g id="patch_20">
    <path d="M 92.922296 224.64 
L 94.434851 224.64 
L 94.434851 209.812861 
L 92.922296 209.812861 
z
" clip-path="url(#p3e6b898044)" style="fill: #1f77b4"/>
   </g>
   <g id="patch_21">
    <path d="M 94.434851 224.64 
L 95.947406 224.64 
L 95.947406 207.341671 
L 94.434851 207.341671 
z
" clip-path="url(#p3e6b898044)" style="fill: #1f77b4"/>
   </g>
   <g id="patch_22">
    <path d="M 95.947406 224.64 
L 97.459961 224.64 
L 97.459961 207.341671 
L 95.947406 207.341671 
z
" clip-path="url(#p3e6b898044)" style="fill: #1f77b4"/>
   </g>
   <g id="patch_23">
    <path d="M 97.459961 224.64 
L 98.972516 224.64 
L 98.972516 193.503007 
L 97.459961 193.503007 
z
" clip-path="url(#p3e6b898044)" style="fill: #1f77b4"/>
   </g>
   <g id="patch_24">
    <path d="M 98.972516 224.64 
L 100.485071 224.64 
L 100.485071 202.399291 
L 98.972516 202.399291 
z
" clip-path="url(#p3e6b898044)" style="fill: #1f77b4"/>
   </g>
   <g id="patch_25">
    <path d="M 100.485071 224.64 
L 101.997625 224.64 
L 101.997625 201.410815 
L 100.485071 201.410815 
z
" clip-path="url(#p3e6b898044)" style="fill: #1f77b4"/>
   </g>
   <g id="patch_26">
    <path d="M 101.997625 224.64 
L 103.51018 224.64 
L 103.51018 200.916577 
L 101.997625 200.916577 
z
" clip-path="url(#p3e6b898044)" style="fill: #1f77b4"/>
   </g>
   <g id="patch_27">
    <path d="M 103.51018 224.64 
L 105.022735 224.64 
L 105.022735 191.526055 
L 103.51018 191.526055 
z
" clip-path="url(#p3e6b898044)" style="fill: #1f77b4"/>
   </g>
   <g id="patch_28">
    <path d="M 105.022735 224.64 
L 106.53529 224.64 
L 106.53529 195.479959 
L 105.022735 195.479959 
z
" clip-path="url(#p3e6b898044)" style="fill: #1f77b4"/>
   </g>
   <g id="patch_29">
    <path d="M 106.53529 224.64 
L 108.047845 224.64 
L 108.047845 194.985721 
L 106.53529 194.985721 
z
" clip-path="url(#p3e6b898044)" style="fill: #1f77b4"/>
   </g>
   <g id="patch_30">
    <path d="M 108.047845 224.64 
L 109.560399 224.64 
L 109.560399 200.916577 
L 108.047845 200.916577 
z
" clip-path="url(#p3e6b898044)" style="fill: #1f77b4"/>
   </g>
   <g id="patch_31">
    <path d="M 109.560399 224.64 
L 111.072954 224.64 
L 111.072954 194.491483 
L 109.560399 194.491483 
z
" clip-path="url(#p3e6b898044)" style="fill: #1f77b4"/>
   </g>
   <g id="patch_32">
    <path d="M 111.072954 224.64 
L 112.585509 224.64 
L 112.585509 196.962673 
L 111.072954 196.962673 
z
" clip-path="url(#p3e6b898044)" style="fill: #1f77b4"/>
   </g>
   <g id="patch_33">
    <path d="M 112.585509 224.64 
L 114.098064 224.64 
L 114.098064 195.479959 
L 112.585509 195.479959 
z
" clip-path="url(#p3e6b898044)" style="fill: #1f77b4"/>
   </g>
   <g id="patch_34">
    <path d="M 114.098064 224.64 
L 115.610619 224.64 
L 115.610619 195.974197 
L 114.098064 195.974197 
z
" clip-path="url(#p3e6b898044)" style="fill: #1f77b4"/>
   </g>
   <g id="patch_35">
    <path d="M 115.610619 224.64 
L 117.123174 224.64 
L 117.123174 201.410815 
L 115.610619 201.410815 
z
" clip-path="url(#p3e6b898044)" style="fill: #1f77b4"/>
   </g>
   <g id="patch_36">
    <path d="M 117.123174 224.64 
L 118.635728 224.64 
L 118.635728 189.054865 
L 117.123174 189.054865 
z
" clip-path="url(#p3e6b898044)" style="fill: #1f77b4"/>
   </g>
   <g id="patch_37">
    <path d="M 118.635728 224.64 
L 120.148283 224.64 
L 120.148283 191.526055 
L 118.635728 191.526055 
z
" clip-path="url(#p3e6b898044)" style="fill: #1f77b4"/>
   </g>
   <g id="patch_38">
    <path d="M 120.148283 224.64 
L 121.660838 224.64 
L 121.660838 187.077913 
L 120.148283 187.077913 
z
" clip-path="url(#p3e6b898044)" style="fill: #1f77b4"/>
   </g>
   <g id="patch_39">
    <path d="M 121.660838 224.64 
L 123.173393 224.64 
L 123.173393 187.077913 
L 121.660838 187.077913 
z
" clip-path="url(#p3e6b898044)" style="fill: #1f77b4"/>
   </g>
   <g id="patch_40">
    <path d="M 123.173393 224.64 
L 124.685948 224.64 
L 124.685948 189.054865 
L 123.173393 189.054865 
z
" clip-path="url(#p3e6b898044)" style="fill: #1f77b4"/>
   </g>
   <g id="patch_41">
    <path d="M 124.685948 224.64 
L 126.198503 224.64 
L 126.198503 187.572151 
L 124.685948 187.572151 
z
" clip-path="url(#p3e6b898044)" style="fill: #1f77b4"/>
   </g>
   <g id="patch_42">
    <path d="M 126.198503 224.64 
L 127.711057 224.64 
L 127.711057 183.12401 
L 126.198503 183.12401 
z
" clip-path="url(#p3e6b898044)" style="fill: #1f77b4"/>
   </g>
   <g id="patch_43">
    <path d="M 127.711057 224.64 
L 129.223612 224.64 
L 129.223612 178.18163 
L 127.711057 178.18163 
z
" clip-path="url(#p3e6b898044)" style="fill: #1f77b4"/>
   </g>
   <g id="patch_44">
    <path d="M 129.223612 224.64 
L 130.736167 224.64 
L 130.736167 181.641296 
L 129.223612 181.641296 
z
" clip-path="url(#p3e6b898044)" style="fill: #1f77b4"/>
   </g>
   <g id="patch_45">
    <path d="M 130.736167 224.64 
L 132.248722 224.64 
L 132.248722 180.158582 
L 130.736167 180.158582 
z
" clip-path="url(#p3e6b898044)" style="fill: #1f77b4"/>
   </g>
   <g id="patch_46">
    <path d="M 132.248722 224.64 
L 133.761277 224.64 
L 133.761277 182.135534 
L 132.248722 182.135534 
z
" clip-path="url(#p3e6b898044)" style="fill: #1f77b4"/>
   </g>
   <g id="patch_47">
    <path d="M 133.761277 224.64 
L 135.273832 224.64 
L 135.273832 176.698916 
L 133.761277 176.698916 
z
" clip-path="url(#p3e6b898044)" style="fill: #1f77b4"/>
   </g>
   <g id="patch_48">
    <path d="M 135.273832 224.64 
L 136.786386 224.64 
L 136.786386 182.629772 
L 135.273832 182.629772 
z
" clip-path="url(#p3e6b898044)" style="fill: #1f77b4"/>
   </g>
   <g id="patch_49">
    <path d="M 136.786386 224.64 
L 138.298941 224.64 
L 138.298941 176.698916 
L 136.786386 176.698916 
z
" clip-path="url(#p3e6b898044)" style="fill: #1f77b4"/>
   </g>
   <g id="patch_50">
    <path d="M 138.298941 224.64 
L 139.811496 224.64 
L 139.811496 173.23925 
L 138.298941 173.23925 
z
" clip-path="url(#p3e6b898044)" style="fill: #1f77b4"/>
   </g>
   <g id="patch_51">
    <path d="M 139.811496 224.64 
L 141.324051 224.64 
L 141.324051 177.687392 
L 139.811496 177.687392 
z
" clip-path="url(#p3e6b898044)" style="fill: #1f77b4"/>
   </g>
   <g id="patch_52">
    <path d="M 141.324051 224.64 
L 142.836606 224.64 
L 142.836606 172.745012 
L 141.324051 172.745012 
z
" clip-path="url(#p3e6b898044)" style="fill: #1f77b4"/>
   </g>
   <g id="patch_53">
    <path d="M 142.836606 224.64 
L 144.349161 224.64 
L 144.349161 174.721964 
L 142.836606 174.721964 
z
" clip-path="url(#p3e6b898044)" style="fill: #1f77b4"/>
   </g>
   <g id="patch_54">
    <path d="M 144.349161 224.64 
L 145.861715 224.64 
L 145.861715 173.733488 
L 144.349161 173.733488 
z
" clip-path="url(#p3e6b898044)" style="fill: #1f77b4"/>
   </g>
   <g id="patch_55">
    <path d="M 145.861715 224.64 
L 147.37427 224.64 
L 147.37427 162.366014 
L 145.861715 162.366014 
z
" clip-path="url(#p3e6b898044)" style="fill: #1f77b4"/>
   </g>
   <g id="patch_56">
    <path d="M 147.37427 224.64 
L 148.886825 224.64 
L 148.886825 166.814156 
L 147.37427 166.814156 
z
" clip-path="url(#p3e6b898044)" style="fill: #1f77b4"/>
   </g>
   <g id="patch_57">
    <path d="M 148.886825 224.64 
L 150.39938 224.64 
L 150.39938 167.802632 
L 148.886825 167.802632 
z
" clip-path="url(#p3e6b898044)" style="fill: #1f77b4"/>
   </g>
   <g id="patch_58">
    <path d="M 150.39938 224.64 
L 151.911935 224.64 
L 151.911935 161.377538 
L 150.39938 161.377538 
z
" clip-path="url(#p3e6b898044)" style="fill: #1f77b4"/>
   </g>
   <g id="patch_59">
    <path d="M 151.911935 224.64 
L 153.42449 224.64 
L 153.42449 151.987017 
L 151.911935 151.987017 
z
" clip-path="url(#p3e6b898044)" style="fill: #1f77b4"/>
   </g>
   <g id="patch_60">
    <path d="M 153.42449 224.64 
L 154.937044 224.64 
L 154.937044 168.29687 
L 153.42449 168.29687 
z
" clip-path="url(#p3e6b898044)" style="fill: #1f77b4"/>
   </g>
   <g id="patch_61">
    <path d="M 154.937044 224.64 
L 156.449599 224.64 
L 156.449599 160.389062 
L 154.937044 160.389062 
z
" clip-path="url(#p3e6b898044)" style="fill: #1f77b4"/>
   </g>
   <g id="patch_62">
    <path d="M 156.449599 224.64 
L 157.962154 224.64 
L 157.962154 170.273822 
L 156.449599 170.273822 
z
" clip-path="url(#p3e6b898044)" style="fill: #1f77b4"/>
   </g>
   <g id="patch_63">
    <path d="M 157.962154 224.64 
L 159.474709 224.64 
L 159.474709 160.8833 
L 157.962154 160.8833 
z
" clip-path="url(#p3e6b898044)" style="fill: #1f77b4"/>
   </g>
   <g id="patch_64">
    <path d="M 159.474709 224.64 
L 160.987264 224.64 
L 160.987264 157.917872 
L 159.474709 157.917872 
z
" clip-path="url(#p3e6b898044)" style="fill: #1f77b4"/>
   </g>
   <g id="patch_65">
    <path d="M 160.987264 224.64 
L 162.499819 224.64 
L 162.499819 162.860252 
L 160.987264 162.860252 
z
" clip-path="url(#p3e6b898044)" style="fill: #1f77b4"/>
   </g>
   <g id="patch_66">
    <path d="M 162.499819 224.64 
L 164.012373 224.64 
L 164.012373 158.906348 
L 162.499819 158.906348 
z
" clip-path="url(#p3e6b898044)" style="fill: #1f77b4"/>
   </g>
   <g id="patch_67">
    <path d="M 164.012373 224.64 
L 165.524928 224.64 
L 165.524928 167.308394 
L 164.012373 167.308394 
z
" clip-path="url(#p3e6b898044)" style="fill: #1f77b4"/>
   </g>
   <g id="patch_68">
    <path d="M 165.524928 224.64 
L 167.037483 224.64 
L 167.037483 174.227726 
L 165.524928 174.227726 
z
" clip-path="url(#p3e6b898044)" style="fill: #1f77b4"/>
   </g>
   <g id="patch_69">
    <path d="M 167.037483 224.64 
L 168.550038 224.64 
L 168.550038 154.952445 
L 167.037483 154.952445 
z
" clip-path="url(#p3e6b898044)" style="fill: #1f77b4"/>
   </g>
   <g id="patch_70">
    <path d="M 168.550038 224.64 
L 170.062593 224.64 
L 170.062593 152.975493 
L 168.550038 152.975493 
z
" clip-path="url(#p3e6b898044)" style="fill: #1f77b4"/>
   </g>
   <g id="patch_71">
    <path d="M 170.062593 224.64 
L 171.575148 224.64 
L 171.575148 156.435159 
L 170.062593 156.435159 
z
" clip-path="url(#p3e6b898044)" style="fill: #1f77b4"/>
   </g>
   <g id="patch_72">
    <path d="M 171.575148 224.64 
L 173.087702 224.64 
L 173.087702 162.366014 
L 171.575148 162.366014 
z
" clip-path="url(#p3e6b898044)" style="fill: #1f77b4"/>
   </g>
   <g id="patch_73">
    <path d="M 173.087702 224.64 
L 174.600257 224.64 
L 174.600257 150.010065 
L 173.087702 150.010065 
z
" clip-path="url(#p3e6b898044)" style="fill: #1f77b4"/>
   </g>
   <g id="patch_74">
    <path d="M 174.600257 224.64 
L 176.112812 224.64 
L 176.112812 151.492779 
L 174.600257 151.492779 
z
" clip-path="url(#p3e6b898044)" style="fill: #1f77b4"/>
   </g>
   <g id="patch_75">
    <path d="M 176.112812 224.64 
L 177.625367 224.64 
L 177.625367 149.515827 
L 176.112812 149.515827 
z
" clip-path="url(#p3e6b898044)" style="fill: #1f77b4"/>
   </g>
   <g id="patch_76">
    <path d="M 177.625367 224.64 
L 179.137922 224.64 
L 179.137922 147.538875 
L 177.625367 147.538875 
z
" clip-path="url(#p3e6b898044)" style="fill: #1f77b4"/>
   </g>
   <g id="patch_77">
    <path d="M 179.137922 224.64 
L 180.650477 224.64 
L 180.650477 148.033113 
L 179.137922 148.033113 
z
" clip-path="url(#p3e6b898044)" style="fill: #1f77b4"/>
   </g>
   <g id="patch_78">
    <path d="M 180.650477 224.64 
L 182.163031 224.64 
L 182.163031 143.584971 
L 180.650477 143.584971 
z
" clip-path="url(#p3e6b898044)" style="fill: #1f77b4"/>
   </g>
   <g id="patch_79">
    <path d="M 182.163031 224.64 
L 183.675586 224.64 
L 183.675586 150.998541 
L 182.163031 150.998541 
z
" clip-path="url(#p3e6b898044)" style="fill: #1f77b4"/>
   </g>
   <g id="patch_80">
    <path d="M 183.675586 224.64 
L 185.188141 224.64 
L 185.188141 141.608019 
L 183.675586 141.608019 
z
" clip-path="url(#p3e6b898044)" style="fill: #1f77b4"/>
   </g>
   <g id="patch_81">
    <path d="M 185.188141 224.64 
L 186.700696 224.64 
L 186.700696 147.538875 
L 185.188141 147.538875 
z
" clip-path="url(#p3e6b898044)" style="fill: #1f77b4"/>
   </g>
   <g id="patch_82">
    <path d="M 186.700696 224.64 
L 188.213251 224.64 
L 188.213251 137.159877 
L 186.700696 137.159877 
z
" clip-path="url(#p3e6b898044)" style="fill: #1f77b4"/>
   </g>
   <g id="patch_83">
    <path d="M 188.213251 224.64 
L 189.725806 224.64 
L 189.725806 150.010065 
L 188.213251 150.010065 
z
" clip-path="url(#p3e6b898044)" style="fill: #1f77b4"/>
   </g>
   <g id="patch_84">
    <path d="M 189.725806 224.64 
L 191.23836 224.64 
L 191.23836 147.538875 
L 189.725806 147.538875 
z
" clip-path="url(#p3e6b898044)" style="fill: #1f77b4"/>
   </g>
   <g id="patch_85">
    <path d="M 191.23836 224.64 
L 192.750915 224.64 
L 192.750915 149.021589 
L 191.23836 149.021589 
z
" clip-path="url(#p3e6b898044)" style="fill: #1f77b4"/>
   </g>
   <g id="patch_86">
    <path d="M 192.750915 224.64 
L 194.26347 224.64 
L 194.26347 138.642591 
L 192.750915 138.642591 
z
" clip-path="url(#p3e6b898044)" style="fill: #1f77b4"/>
   </g>
   <g id="patch_87">
    <path d="M 194.26347 224.64 
L 195.776025 224.64 
L 195.776025 136.665639 
L 194.26347 136.665639 
z
" clip-path="url(#p3e6b898044)" style="fill: #1f77b4"/>
   </g>
   <g id="patch_88">
    <path d="M 195.776025 224.64 
L 197.28858 224.64 
L 197.28858 143.090733 
L 195.776025 143.090733 
z
" clip-path="url(#p3e6b898044)" style="fill: #1f77b4"/>
   </g>
   <g id="patch_89">
    <path d="M 197.28858 224.64 
L 198.801135 224.64 
L 198.801135 140.125305 
L 197.28858 140.125305 
z
" clip-path="url(#p3e6b898044)" style="fill: #1f77b4"/>
   </g>
   <g id="patch_90">
    <path d="M 198.801135 224.64 
L 200.313689 224.64 
L 200.313689 132.711735 
L 198.801135 132.711735 
z
" clip-path="url(#p3e6b898044)" style="fill: #1f77b4"/>
   </g>
   <g id="patch_91">
    <path d="M 200.313689 224.64 
L 201.826244 224.64 
L 201.826244 134.688687 
L 200.313689 134.688687 
z
" clip-path="url(#p3e6b898044)" style="fill: #1f77b4"/>
   </g>
   <g id="patch_92">
    <path d="M 201.826244 224.64 
L 203.338799 224.64 
L 203.338799 136.665639 
L 201.826244 136.665639 
z
" clip-path="url(#p3e6b898044)" style="fill: #1f77b4"/>
   </g>
   <g id="patch_93">
    <path d="M 203.338799 224.64 
L 204.851354 224.64 
L 204.851354 128.757832 
L 203.338799 128.757832 
z
" clip-path="url(#p3e6b898044)" style="fill: #1f77b4"/>
   </g>
   <g id="patch_94">
    <path d="M 204.851354 224.64 
L 206.363909 224.64 
L 206.363909 131.229021 
L 204.851354 131.229021 
z
" clip-path="url(#p3e6b898044)" style="fill: #1f77b4"/>
   </g>
   <g id="patch_95">
    <path d="M 206.363909 224.64 
L 207.876464 224.64 
L 207.876464 125.298166 
L 206.363909 125.298166 
z
" clip-path="url(#p3e6b898044)" style="fill: #1f77b4"/>
   </g>
   <g id="patch_96">
    <path d="M 207.876464 224.64 
L 209.389018 224.64 
L 209.389018 137.159877 
L 207.876464 137.159877 
z
" clip-path="url(#p3e6b898044)" style="fill: #1f77b4"/>
   </g>
   <g id="patch_97">
    <path d="M 209.389018 224.64 
L 210.901573 224.64 
L 210.901573 123.321214 
L 209.389018 123.321214 
z
" clip-path="url(#p3e6b898044)" style="fill: #1f77b4"/>
   </g>
   <g id="patch_98">
    <path d="M 210.901573 224.64 
L 212.414128 224.64 
L 212.414128 125.298166 
L 210.901573 125.298166 
z
" clip-path="url(#p3e6b898044)" style="fill: #1f77b4"/>
   </g>
   <g id="patch_99">
    <path d="M 212.414128 224.64 
L 213.926683 224.64 
L 213.926683 133.205973 
L 212.414128 133.205973 
z
" clip-path="url(#p3e6b898044)" style="fill: #1f77b4"/>
   </g>
   <g id="patch_100">
    <path d="M 213.926683 224.64 
L 215.439238 224.64 
L 215.439238 136.665639 
L 213.926683 136.665639 
z
" clip-path="url(#p3e6b898044)" style="fill: #1f77b4"/>
   </g>
   <g id="patch_101">
    <path d="M 215.439238 224.64 
L 216.951793 224.64 
L 216.951793 139.631067 
L 215.439238 139.631067 
z
" clip-path="url(#p3e6b898044)" style="fill: #1f77b4"/>
   </g>
   <g id="patch_102">
    <path d="M 216.951793 224.64 
L 218.464347 224.64 
L 218.464347 120.850024 
L 216.951793 120.850024 
z
" clip-path="url(#p3e6b898044)" style="fill: #1f77b4"/>
   </g>
   <g id="patch_103">
    <path d="M 218.464347 224.64 
L 219.976902 224.64 
L 219.976902 126.78088 
L 218.464347 126.78088 
z
" clip-path="url(#p3e6b898044)" style="fill: #1f77b4"/>
   </g>
   <g id="patch_104">
    <path d="M 219.976902 224.64 
L 221.489457 224.64 
L 221.489457 136.665639 
L 219.976902 136.665639 
z
" clip-path="url(#p3e6b898044)" style="fill: #1f77b4"/>
   </g>
   <g id="patch_105">
    <path d="M 221.489457 224.64 
L 223.002012 224.64 
L 223.002012 127.769356 
L 221.489457 127.769356 
z
" clip-path="url(#p3e6b898044)" style="fill: #1f77b4"/>
   </g>
   <g id="patch_106">
    <path d="M 223.002012 224.64 
L 224.514567 224.64 
L 224.514567 136.171401 
L 223.002012 136.171401 
z
" clip-path="url(#p3e6b898044)" style="fill: #1f77b4"/>
   </g>
   <g id="patch_107">
    <path d="M 224.514567 224.64 
L 226.027122 224.64 
L 226.027122 134.194449 
L 224.514567 134.194449 
z
" clip-path="url(#p3e6b898044)" style="fill: #1f77b4"/>
   </g>
   <g id="patch_108">
    <path d="M 226.027122 224.64 
L 227.539676 224.64 
L 227.539676 121.344262 
L 226.027122 121.344262 
z
" clip-path="url(#p3e6b898044)" style="fill: #1f77b4"/>
   </g>
   <g id="patch_109">
    <path d="M 227.539676 224.64 
L 229.052231 224.64 
L 229.052231 133.700211 
L 227.539676 133.700211 
z
" clip-path="url(#p3e6b898044)" style="fill: #1f77b4"/>
   </g>
   <g id="patch_110">
    <path d="M 229.052231 224.64 
L 230.564786 224.64 
L 230.564786 122.826976 
L 229.052231 122.826976 
z
" clip-path="url(#p3e6b898044)" style="fill: #1f77b4"/>
   </g>
   <g id="patch_111">
    <path d="M 230.564786 224.64 
L 232.077341 224.64 
L 232.077341 122.332738 
L 230.564786 122.332738 
z
" clip-path="url(#p3e6b898044)" style="fill: #1f77b4"/>
   </g>
   <g id="patch_112">
    <path d="M 232.077341 224.64 
L 233.589896 224.64 
L 233.589896 135.677163 
L 232.077341 135.677163 
z
" clip-path="url(#p3e6b898044)" style="fill: #1f77b4"/>
   </g>
   <g id="patch_113">
    <path d="M 233.589896 224.64 
L 235.10245 224.64 
L 235.10245 110.471026 
L 233.589896 110.471026 
z
" clip-path="url(#p3e6b898044)" style="fill: #1f77b4"/>
   </g>
   <g id="patch_114">
    <path d="M 235.10245 224.64 
L 236.615005 224.64 
L 236.615005 110.471026 
L 235.10245 110.471026 
z
" clip-path="url(#p3e6b898044)" style="fill: #1f77b4"/>
   </g>
   <g id="patch_115">
    <path d="M 236.615005 224.64 
L 238.12756 224.64 
L 238.12756 124.30969 
L 236.615005 124.30969 
z
" clip-path="url(#p3e6b898044)" style="fill: #1f77b4"/>
   </g>
   <g id="patch_116">
    <path d="M 238.12756 224.64 
L 239.640115 224.64 
L 239.640115 111.95374 
L 238.12756 111.95374 
z
" clip-path="url(#p3e6b898044)" style="fill: #1f77b4"/>
   </g>
   <g id="patch_117">
    <path d="M 239.640115 224.64 
L 241.15267 224.64 
L 241.15267 107.505598 
L 239.640115 107.505598 
z
" clip-path="url(#p3e6b898044)" style="fill: #1f77b4"/>
   </g>
   <g id="patch_118">
    <path d="M 241.15267 224.64 
L 242.665225 224.64 
L 242.665225 98.609315 
L 241.15267 98.609315 
z
" clip-path="url(#p3e6b898044)" style="fill: #1f77b4"/>
   </g>
   <g id="patch_119">
    <path d="M 242.665225 224.64 
L 244.177779 224.64 
L 244.177779 119.36731 
L 242.665225 119.36731 
z
" clip-path="url(#p3e6b898044)" style="fill: #1f77b4"/>
   </g>
   <g id="patch_120">
    <path d="M 244.177779 224.64 
L 245.690334 224.64 
L 245.690334 105.034408 
L 244.177779 105.034408 
z
" clip-path="url(#p3e6b898044)" style="fill: #1f77b4"/>
   </g>
   <g id="patch_121">
    <path d="M 245.690334 224.64 
L 247.202889 224.64 
L 247.202889 110.965264 
L 245.690334 110.965264 
z
" clip-path="url(#p3e6b898044)" style="fill: #1f77b4"/>
   </g>
   <g id="patch_122">
    <path d="M 247.202889 224.64 
L 248.715444 224.64 
L 248.715444 112.942216 
L 247.202889 112.942216 
z
" clip-path="url(#p3e6b898044)" style="fill: #1f77b4"/>
   </g>
   <g id="patch_123">
    <path d="M 248.715444 224.64 
L 250.227999 224.64 
L 250.227999 116.401882 
L 248.715444 116.401882 
z
" clip-path="url(#p3e6b898044)" style="fill: #1f77b4"/>
   </g>
   <g id="patch_124">
    <path d="M 250.227999 224.64 
L 251.740554 224.64 
L 251.740554 92.184221 
L 250.227999 92.184221 
z
" clip-path="url(#p3e6b898044)" style="fill: #1f77b4"/>
   </g>
   <g id="patch_125">
    <path d="M 251.740554 224.64 
L 253.253108 224.64 
L 253.253108 103.057457 
L 251.740554 103.057457 
z
" clip-path="url(#p3e6b898044)" style="fill: #1f77b4"/>
   </g>
   <g id="patch_126">
    <path d="M 253.253108 224.64 
L 254.765663 224.64 
L 254.765663 107.505598 
L 253.253108 107.505598 
z
" clip-path="url(#p3e6b898044)" style="fill: #1f77b4"/>
   </g>
   <g id="patch_127">
    <path d="M 254.765663 224.64 
L 256.278218 224.64 
L 256.278218 106.517122 
L 254.765663 106.517122 
z
" clip-path="url(#p3e6b898044)" style="fill: #1f77b4"/>
   </g>
   <g id="patch_128">
    <path d="M 256.278218 224.64 
L 257.790773 224.64 
L 257.790773 98.115077 
L 256.278218 98.115077 
z
" clip-path="url(#p3e6b898044)" style="fill: #1f77b4"/>
   </g>
   <g id="patch_129">
    <path d="M 257.790773 224.64 
L 259.303328 224.64 
L 259.303328 83.782175 
L 257.790773 83.782175 
z
" clip-path="url(#p3e6b898044)" style="fill: #1f77b4"/>
   </g>
   <g id="patch_130">
    <path d="M 259.303328 224.64 
L 260.815883 224.64 
L 260.815883 91.689983 
L 259.303328 91.689983 
z
" clip-path="url(#p3e6b898044)" style="fill: #1f77b4"/>
   </g>
   <g id="patch_131">
    <path d="M 260.815883 224.64 
L 262.328437 224.64 
L 262.328437 93.172697 
L 260.815883 93.172697 
z
" clip-path="url(#p3e6b898044)" style="fill: #1f77b4"/>
   </g>
   <g id="patch_132">
    <path d="M 262.328437 224.64 
L 263.840992 224.64 
L 263.840992 107.505598 
L 262.328437 107.505598 
z
" clip-path="url(#p3e6b898044)" style="fill: #1f77b4"/>
   </g>
   <g id="patch_133">
    <path d="M 263.840992 224.64 
L 265.353547 224.64 
L 265.353547 84.276413 
L 263.840992 84.276413 
z
" clip-path="url(#p3e6b898044)" style="fill: #1f77b4"/>
   </g>
   <g id="patch_134">
    <path d="M 265.353547 224.64 
L 266.866102 224.64 
L 266.866102 94.655411 
L 265.353547 94.655411 
z
" clip-path="url(#p3e6b898044)" style="fill: #1f77b4"/>
   </g>
   <g id="patch_135">
    <path d="M 266.866102 224.64 
L 268.378657 224.64 
L 268.378657 93.666935 
L 266.866102 93.666935 
z
" clip-path="url(#p3e6b898044)" style="fill: #1f77b4"/>
   </g>
   <g id="patch_136">
    <path d="M 268.378657 224.64 
L 269.891212 224.64 
L 269.891212 102.563219 
L 268.378657 102.563219 
z
" clip-path="url(#p3e6b898044)" style="fill: #1f77b4"/>
   </g>
   <g id="patch_137">
    <path d="M 269.891212 224.64 
L 271.403766 224.64 
L 271.403766 97.620839 
L 269.891212 97.620839 
z
" clip-path="url(#p3e6b898044)" style="fill: #1f77b4"/>
   </g>
   <g id="patch_138">
    <path d="M 271.403766 224.64 
L 272.916321 224.64 
L 272.916321 105.034408 
L 271.403766 105.034408 
z
" clip-path="url(#p3e6b898044)" style="fill: #1f77b4"/>
   </g>
   <g id="patch_139">
    <path d="M 272.916321 224.64 
L 274.428876 224.64 
L 274.428876 92.184221 
L 272.916321 92.184221 
z
" clip-path="url(#p3e6b898044)" style="fill: #1f77b4"/>
   </g>
   <g id="patch_140">
    <path d="M 274.428876 224.64 
L 275.941431 224.64 
L 275.941431 96.138125 
L 274.428876 96.138125 
z
" clip-path="url(#p3e6b898044)" style="fill: #1f77b4"/>
   </g>
   <g id="patch_141">
    <path d="M 275.941431 224.64 
L 277.453986 224.64 
L 277.453986 106.517122 
L 275.941431 106.517122 
z
" clip-path="url(#p3e6b898044)" style="fill: #1f77b4"/>
   </g>
   <g id="patch_142">
    <path d="M 277.453986 224.64 
L 278.966541 224.64 
L 278.966541 101.080505 
L 277.453986 101.080505 
z
" clip-path="url(#p3e6b898044)" style="fill: #1f77b4"/>
   </g>
   <g id="patch_143">
    <path d="M 278.966541 224.64 
L 280.479095 224.64 
L 280.479095 82.299461 
L 278.966541 82.299461 
z
" clip-path="url(#p3e6b898044)" style="fill: #1f77b4"/>
   </g>
   <g id="patch_144">
    <path d="M 280.479095 224.64 
L 281.99165 224.64 
L 281.99165 91.195745 
L 280.479095 91.195745 
z
" clip-path="url(#p3e6b898044)" style="fill: #1f77b4"/>
   </g>
   <g id="patch_145">
    <path d="M 281.99165 224.64 
L 283.504205 224.64 
L 283.504205 72.414702 
L 281.99165 72.414702 
z
" clip-path="url(#p3e6b898044)" style="fill: #1f77b4"/>
   </g>
   <g id="patch_146">
    <path d="M 283.504205 224.64 
L 285.01676 224.64 
L 285.01676 76.368606 
L 283.504205 76.368606 
z
" clip-path="url(#p3e6b898044)" style="fill: #1f77b4"/>
   </g>
   <g id="patch_147">
    <path d="M 285.01676 224.64 
L 286.529315 224.64 
L 286.529315 89.218793 
L 285.01676 89.218793 
z
" clip-path="url(#p3e6b898044)" style="fill: #1f77b4"/>
   </g>
   <g id="patch_148">
    <path d="M 286.529315 224.64 
L 288.04187 224.64 
L 288.04187 70.43775 
L 286.529315 70.43775 
z
" clip-path="url(#p3e6b898044)" style="fill: #1f77b4"/>
   </g>
   <g id="patch_149">
    <path d="M 288.04187 224.64 
L 289.554424 224.64 
L 289.554424 83.782175 
L 288.04187 83.782175 
z
" clip-path="url(#p3e6b898044)" style="fill: #1f77b4"/>
   </g>
   <g id="patch_150">
    <path d="M 289.554424 224.64 
L 291.066979 224.64 
L 291.066979 65.001132 
L 289.554424 65.001132 
z
" clip-path="url(#p3e6b898044)" style="fill: #1f77b4"/>
   </g>
   <g id="patch_151">
    <path d="M 291.066979 224.64 
L 292.579534 224.64 
L 292.579534 76.862844 
L 291.066979 76.862844 
z
" clip-path="url(#p3e6b898044)" style="fill: #1f77b4"/>
   </g>
   <g id="patch_152">
    <path d="M 292.579534 224.64 
L 294.092089 224.64 
L 294.092089 79.828271 
L 292.579534 79.828271 
z
" clip-path="url(#p3e6b898044)" style="fill: #1f77b4"/>
   </g>
   <g id="patch_153">
    <path d="M 294.092089 224.64 
L 295.604644 224.64 
L 295.604644 61.047228 
L 294.092089 61.047228 
z
" clip-path="url(#p3e6b898044)" style="fill: #1f77b4"/>
   </g>
   <g id="patch_154">
    <path d="M 295.604644 224.64 
L 297.117199 224.64 
L 297.117199 68.460798 
L 295.604644 68.460798 
z
" clip-path="url(#p3e6b898044)" style="fill: #1f77b4"/>
   </g>
   <g id="patch_155">
    <path d="M 297.117199 224.64 
L 298.629753 224.64 
L 298.629753 55.61061 
L 297.117199 55.61061 
z
" clip-path="url(#p3e6b898044)" style="fill: #1f77b4"/>
   </g>
   <g id="patch_156">
    <path d="M 298.629753 224.64 
L 300.142308 224.64 
L 300.142308 71.426226 
L 298.629753 71.426226 
z
" clip-path="url(#p3e6b898044)" style="fill: #1f77b4"/>
   </g>
   <g id="patch_157">
    <path d="M 300.142308 224.64 
L 301.654863 224.64 
L 301.654863 78.345557 
L 300.142308 78.345557 
z
" clip-path="url(#p3e6b898044)" style="fill: #1f77b4"/>
   </g>
   <g id="patch_158">
    <path d="M 301.654863 224.64 
L 303.167418 224.64 
L 303.167418 65.49537 
L 301.654863 65.49537 
z
" clip-path="url(#p3e6b898044)" style="fill: #1f77b4"/>
   </g>
   <g id="patch_159">
    <path d="M 303.167418 224.64 
L 304.679973 224.64 
L 304.679973 67.472322 
L 303.167418 67.472322 
z
" clip-path="url(#p3e6b898044)" style="fill: #1f77b4"/>
   </g>
   <g id="patch_160">
    <path d="M 304.679973 224.64 
L 306.192528 224.64 
L 306.192528 70.931988 
L 304.679973 70.931988 
z
" clip-path="url(#p3e6b898044)" style="fill: #1f77b4"/>
   </g>
   <g id="patch_161">
    <path d="M 306.192528 224.64 
L 307.705082 224.64 
L 307.705082 65.989608 
L 306.192528 65.989608 
z
" clip-path="url(#p3e6b898044)" style="fill: #1f77b4"/>
   </g>
   <g id="patch_162">
    <path d="M 307.705082 224.64 
L 309.217637 224.64 
L 309.217637 60.058752 
L 307.705082 60.058752 
z
" clip-path="url(#p3e6b898044)" style="fill: #1f77b4"/>
   </g>
   <g id="patch_163">
    <path d="M 309.217637 224.64 
L 310.730192 224.64 
L 310.730192 67.96656 
L 309.217637 67.96656 
z
" clip-path="url(#p3e6b898044)" style="fill: #1f77b4"/>
   </g>
   <g id="patch_164">
    <path d="M 310.730192 224.64 
L 312.242747 224.64 
L 312.242747 67.472322 
L 310.730192 67.472322 
z
" clip-path="url(#p3e6b898044)" style="fill: #1f77b4"/>
   </g>
   <g id="patch_165">
    <path d="M 312.242747 224.64 
L 313.755302 224.64 
L 313.755302 71.426226 
L 312.242747 71.426226 
z
" clip-path="url(#p3e6b898044)" style="fill: #1f77b4"/>
   </g>
   <g id="patch_166">
    <path d="M 313.755302 224.64 
L 315.267857 224.64 
L 315.267857 71.920464 
L 313.755302 71.920464 
z
" clip-path="url(#p3e6b898044)" style="fill: #1f77b4"/>
   </g>
   <g id="patch_167">
    <path d="M 315.267857 224.64 
L 316.780411 224.64 
L 316.780411 64.506894 
L 315.267857 64.506894 
z
" clip-path="url(#p3e6b898044)" style="fill: #1f77b4"/>
   </g>
   <g id="patch_168">
    <path d="M 316.780411 224.64 
L 318.292966 224.64 
L 318.292966 67.472322 
L 316.780411 67.472322 
z
" clip-path="url(#p3e6b898044)" style="fill: #1f77b4"/>
   </g>
   <g id="patch_169">
    <path d="M 318.292966 224.64 
L 319.805521 224.64 
L 319.805521 64.012656 
L 318.292966 64.012656 
z
" clip-path="url(#p3e6b898044)" style="fill: #1f77b4"/>
   </g>
   <g id="patch_170">
    <path d="M 319.805521 224.64 
L 321.318076 224.64 
L 321.318076 58.0818 
L 319.805521 58.0818 
z
" clip-path="url(#p3e6b898044)" style="fill: #1f77b4"/>
   </g>
   <g id="patch_171">
    <path d="M 321.318076 224.64 
L 322.830631 224.64 
L 322.830631 65.989608 
L 321.318076 65.989608 
z
" clip-path="url(#p3e6b898044)" style="fill: #1f77b4"/>
   </g>
   <g id="patch_172">
    <path d="M 322.830631 224.64 
L 324.343186 224.64 
L 324.343186 54.127896 
L 322.830631 54.127896 
z
" clip-path="url(#p3e6b898044)" style="fill: #1f77b4"/>
   </g>
   <g id="patch_173">
    <path d="M 324.343186 224.64 
L 325.85574 224.64 
L 325.85574 60.55299 
L 324.343186 60.55299 
z
" clip-path="url(#p3e6b898044)" style="fill: #1f77b4"/>
   </g>
   <g id="patch_174">
    <path d="M 325.85574 224.64 
L 327.368295 224.64 
L 327.368295 66.483846 
L 325.85574 66.483846 
z
" clip-path="url(#p3e6b898044)" style="fill: #1f77b4"/>
   </g>
   <g id="patch_175">
    <path d="M 327.368295 224.64 
L 328.88085 224.64 
L 328.88085 61.047228 
L 327.368295 61.047228 
z
" clip-path="url(#p3e6b898044)" style="fill: #1f77b4"/>
   </g>
   <g id="patch_176">
    <path d="M 328.88085 224.64 
L 330.393405 224.64 
L 330.393405 54.622134 
L 328.88085 54.622134 
z
" clip-path="url(#p3e6b898044)" style="fill: #1f77b4"/>
   </g>
   <g id="patch_177">
    <path d="M 330.393405 224.64 
L 331.90596 224.64 
L 331.90596 31.887187 
L 330.393405 31.887187 
z
" clip-path="url(#p3e6b898044)" style="fill: #1f77b4"/>
   </g>
   <g id="patch_178">
    <path d="M 331.90596 224.64 
L 333.418515 224.64 
L 333.418515 55.61061 
L 331.90596 55.61061 
z
" clip-path="url(#p3e6b898044)" style="fill: #1f77b4"/>
   </g>
   <g id="patch_179">
    <path d="M 333.418515 224.64 
L 334.931069 224.64 
L 334.931069 53.633658 
L 333.418515 53.633658 
z
" clip-path="url(#p3e6b898044)" style="fill: #1f77b4"/>
   </g>
   <g id="patch_180">
    <path d="M 334.931069 224.64 
L 336.443624 224.64 
L 336.443624 49.679755 
L 334.931069 49.679755 
z
" clip-path="url(#p3e6b898044)" style="fill: #1f77b4"/>
   </g>
   <g id="patch_181">
    <path d="M 336.443624 224.64 
L 337.956179 224.64 
L 337.956179 58.576038 
L 336.443624 58.576038 
z
" clip-path="url(#p3e6b898044)" style="fill: #1f77b4"/>
   </g>
   <g id="patch_182">
    <path d="M 337.956179 224.64 
L 339.468734 224.64 
L 339.468734 48.197041 
L 337.956179 48.197041 
z
" clip-path="url(#p3e6b898044)" style="fill: #1f77b4"/>
   </g>
   <g id="patch_183">
    <path d="M 339.468734 224.64 
L 340.981289 224.64 
L 340.981289 44.243137 
L 339.468734 44.243137 
z
" clip-path="url(#p3e6b898044)" style="fill: #1f77b4"/>
   </g>
   <g id="patch_184">
    <path d="M 340.981289 224.64 
L 342.493844 224.64 
L 342.493844 39.300757 
L 340.981289 39.300757 
z
" clip-path="url(#p3e6b898044)" style="fill: #1f77b4"/>
   </g>
   <g id="patch_185">
    <path d="M 342.493844 224.64 
L 344.006398 224.64 
L 344.006398 44.243137 
L 342.493844 44.243137 
z
" clip-path="url(#p3e6b898044)" style="fill: #1f77b4"/>
   </g>
   <g id="patch_186">
    <path d="M 344.006398 224.64 
L 345.518953 224.64 
L 345.518953 41.277709 
L 344.006398 41.277709 
z
" clip-path="url(#p3e6b898044)" style="fill: #1f77b4"/>
   </g>
   <g id="patch_187">
    <path d="M 345.518953 224.64 
L 347.031508 224.64 
L 347.031508 60.058752 
L 345.518953 60.058752 
z
" clip-path="url(#p3e6b898044)" style="fill: #1f77b4"/>
   </g>
   <g id="patch_188">
    <path d="M 347.031508 224.64 
L 348.544063 224.64 
L 348.544063 46.714327 
L 347.031508 46.714327 
z
" clip-path="url(#p3e6b898044)" style="fill: #1f77b4"/>
   </g>
   <g id="patch_189">
    <path d="M 348.544063 224.64 
L 350.056618 224.64 
L 350.056618 35.841091 
L 348.544063 35.841091 
z
" clip-path="url(#p3e6b898044)" style="fill: #1f77b4"/>
   </g>
   <g id="patch_190">
    <path d="M 350.056618 224.64 
L 351.569173 224.64 
L 351.569173 33.864139 
L 350.056618 33.864139 
z
" clip-path="url(#p3e6b898044)" style="fill: #1f77b4"/>
   </g>
   <g id="patch_191">
    <path d="M 351.569173 224.64 
L 353.081727 224.64 
L 353.081727 48.691279 
L 351.569173 48.691279 
z
" clip-path="url(#p3e6b898044)" style="fill: #1f77b4"/>
   </g>
   <g id="patch_192">
    <path d="M 353.081727 224.64 
L 354.594282 224.64 
L 354.594282 17.554286 
L 353.081727 17.554286 
z
" clip-path="url(#p3e6b898044)" style="fill: #1f77b4"/>
   </g>
   <g id="patch_193">
    <path d="M 354.594282 224.64 
L 356.106837 224.64 
L 356.106837 28.427521 
L 354.594282 28.427521 
z
" clip-path="url(#p3e6b898044)" style="fill: #1f77b4"/>
   </g>
   <g id="patch_194">
    <path d="M 356.106837 224.64 
L 357.619392 224.64 
L 357.619392 25.956331 
L 356.106837 25.956331 
z
" clip-path="url(#p3e6b898044)" style="fill: #1f77b4"/>
   </g>
   <g id="patch_195">
    <path d="M 357.619392 224.64 
L 359.131947 224.64 
L 359.131947 49.185517 
L 357.619392 49.185517 
z
" clip-path="url(#p3e6b898044)" style="fill: #1f77b4"/>
   </g>
   <g id="patch_196">
    <path d="M 359.131947 224.64 
L 360.644502 224.64 
L 360.644502 28.427521 
L 359.131947 28.427521 
z
" clip-path="url(#p3e6b898044)" style="fill: #1f77b4"/>
   </g>
   <g id="patch_197">
    <path d="M 360.644502 224.64 
L 362.157056 224.64 
L 362.157056 33.864139 
L 360.644502 33.864139 
z
" clip-path="url(#p3e6b898044)" style="fill: #1f77b4"/>
   </g>
   <g id="patch_198">
    <path d="M 362.157056 224.64 
L 363.669611 224.64 
L 363.669611 30.898711 
L 362.157056 30.898711 
z
" clip-path="url(#p3e6b898044)" style="fill: #1f77b4"/>
   </g>
   <g id="patch_199">
    <path d="M 363.669611 224.64 
L 365.182166 224.64 
L 365.182166 27.933283 
L 363.669611 27.933283 
z
" clip-path="url(#p3e6b898044)" style="fill: #1f77b4"/>
   </g>
   <g id="patch_200">
    <path d="M 365.182166 224.64 
L 366.694721 224.64 
L 366.694721 28.921759 
L 365.182166 28.921759 
z
" clip-path="url(#p3e6b898044)" style="fill: #1f77b4"/>
   </g>
   <g id="patch_201">
    <path d="M 366.694721 224.64 
L 368.207276 224.64 
L 368.207276 27.933283 
L 366.694721 27.933283 
z
" clip-path="url(#p3e6b898044)" style="fill: #1f77b4"/>
   </g>
   <g id="patch_202">
    <path d="M 368.207276 224.64 
L 369.71983 224.64 
L 369.71983 46.220089 
L 368.207276 46.220089 
z
" clip-path="url(#p3e6b898044)" style="fill: #1f77b4"/>
   </g>
   <g id="matplotlib.axis_1">
    <g id="xtick_1">
     <g id="line2d_1">
      <defs>
       <path id="mcfa313da09" d="M 0 0 
L 0 3.5 
" style="stroke: #000000; stroke-width: 0.8"/>
      </defs>
      <g>
       <use xlink:href="#mcfa313da09" x="65.361932" y="224.64" style="stroke: #000000; stroke-width: 0.8"/>
      </g>
     </g>
     <g id="text_1">
      <!-- 0.0 -->
      <g transform="translate(57.410369 239.238437)scale(0.1 -0.1)">
       <defs>
        <path id="DejaVuSans-30" d="M 2034 4250 
Q 1547 4250 1301 3770 
Q 1056 3291 1056 2328 
Q 1056 1369 1301 889 
Q 1547 409 2034 409 
Q 2525 409 2770 889 
Q 3016 1369 3016 2328 
Q 3016 3291 2770 3770 
Q 2525 4250 2034 4250 
z
M 2034 4750 
Q 2819 4750 3233 4129 
Q 3647 3509 3647 2328 
Q 3647 1150 3233 529 
Q 2819 -91 2034 -91 
Q 1250 -91 836 529 
Q 422 1150 422 2328 
Q 422 3509 836 4129 
Q 1250 4750 2034 4750 
z
" transform="scale(0.015625)"/>
        <path id="DejaVuSans-2e" d="M 684 794 
L 1344 794 
L 1344 0 
L 684 0 
L 684 794 
z
" transform="scale(0.015625)"/>
       </defs>
       <use xlink:href="#DejaVuSans-30"/>
       <use xlink:href="#DejaVuSans-2e" x="63.623047"/>
       <use xlink:href="#DejaVuSans-30" x="95.410156"/>
      </g>
     </g>
    </g>
    <g id="xtick_2">
     <g id="line2d_2">
      <g>
       <use xlink:href="#mcfa313da09" x="126.234659" y="224.64" style="stroke: #000000; stroke-width: 0.8"/>
      </g>
     </g>
     <g id="text_2">
      <!-- 0.2 -->
      <g transform="translate(118.283097 239.238437)scale(0.1 -0.1)">
       <defs>
        <path id="DejaVuSans-32" d="M 1228 531 
L 3431 531 
L 3431 0 
L 469 0 
L 469 531 
Q 828 903 1448 1529 
Q 2069 2156 2228 2338 
Q 2531 2678 2651 2914 
Q 2772 3150 2772 3378 
Q 2772 3750 2511 3984 
Q 2250 4219 1831 4219 
Q 1534 4219 1204 4116 
Q 875 4013 500 3803 
L 500 4441 
Q 881 4594 1212 4672 
Q 1544 4750 1819 4750 
Q 2544 4750 2975 4387 
Q 3406 4025 3406 3419 
Q 3406 3131 3298 2873 
Q 3191 2616 2906 2266 
Q 2828 2175 2409 1742 
Q 1991 1309 1228 531 
z
" transform="scale(0.015625)"/>
       </defs>
       <use xlink:href="#DejaVuSans-30"/>
       <use xlink:href="#DejaVuSans-2e" x="63.623047"/>
       <use xlink:href="#DejaVuSans-32" x="95.410156"/>
      </g>
     </g>
    </g>
    <g id="xtick_3">
     <g id="line2d_3">
      <g>
       <use xlink:href="#mcfa313da09" x="187.107386" y="224.64" style="stroke: #000000; stroke-width: 0.8"/>
      </g>
     </g>
     <g id="text_3">
      <!-- 0.4 -->
      <g transform="translate(179.155824 239.238437)scale(0.1 -0.1)">
       <defs>
        <path id="DejaVuSans-34" d="M 2419 4116 
L 825 1625 
L 2419 1625 
L 2419 4116 
z
M 2253 4666 
L 3047 4666 
L 3047 1625 
L 3713 1625 
L 3713 1100 
L 3047 1100 
L 3047 0 
L 2419 0 
L 2419 1100 
L 313 1100 
L 313 1709 
L 2253 4666 
z
" transform="scale(0.015625)"/>
       </defs>
       <use xlink:href="#DejaVuSans-30"/>
       <use xlink:href="#DejaVuSans-2e" x="63.623047"/>
       <use xlink:href="#DejaVuSans-34" x="95.410156"/>
      </g>
     </g>
    </g>
    <g id="xtick_4">
     <g id="line2d_4">
      <g>
       <use xlink:href="#mcfa313da09" x="247.980114" y="224.64" style="stroke: #000000; stroke-width: 0.8"/>
      </g>
     </g>
     <g id="text_4">
      <!-- 0.6 -->
      <g transform="translate(240.028551 239.238437)scale(0.1 -0.1)">
       <defs>
        <path id="DejaVuSans-36" d="M 2113 2584 
Q 1688 2584 1439 2293 
Q 1191 2003 1191 1497 
Q 1191 994 1439 701 
Q 1688 409 2113 409 
Q 2538 409 2786 701 
Q 3034 994 3034 1497 
Q 3034 2003 2786 2293 
Q 2538 2584 2113 2584 
z
M 3366 4563 
L 3366 3988 
Q 3128 4100 2886 4159 
Q 2644 4219 2406 4219 
Q 1781 4219 1451 3797 
Q 1122 3375 1075 2522 
Q 1259 2794 1537 2939 
Q 1816 3084 2150 3084 
Q 2853 3084 3261 2657 
Q 3669 2231 3669 1497 
Q 3669 778 3244 343 
Q 2819 -91 2113 -91 
Q 1303 -91 875 529 
Q 447 1150 447 2328 
Q 447 3434 972 4092 
Q 1497 4750 2381 4750 
Q 2619 4750 2861 4703 
Q 3103 4656 3366 4563 
z
" transform="scale(0.015625)"/>
       </defs>
       <use xlink:href="#DejaVuSans-30"/>
       <use xlink:href="#DejaVuSans-2e" x="63.623047"/>
       <use xlink:href="#DejaVuSans-36" x="95.410156"/>
      </g>
     </g>
    </g>
    <g id="xtick_5">
     <g id="line2d_5">
      <g>
       <use xlink:href="#mcfa313da09" x="308.852841" y="224.64" style="stroke: #000000; stroke-width: 0.8"/>
      </g>
     </g>
     <g id="text_5">
      <!-- 0.8 -->
      <g transform="translate(300.901278 239.238437)scale(0.1 -0.1)">
       <defs>
        <path id="DejaVuSans-38" d="M 2034 2216 
Q 1584 2216 1326 1975 
Q 1069 1734 1069 1313 
Q 1069 891 1326 650 
Q 1584 409 2034 409 
Q 2484 409 2743 651 
Q 3003 894 3003 1313 
Q 3003 1734 2745 1975 
Q 2488 2216 2034 2216 
z
M 1403 2484 
Q 997 2584 770 2862 
Q 544 3141 544 3541 
Q 544 4100 942 4425 
Q 1341 4750 2034 4750 
Q 2731 4750 3128 4425 
Q 3525 4100 3525 3541 
Q 3525 3141 3298 2862 
Q 3072 2584 2669 2484 
Q 3125 2378 3379 2068 
Q 3634 1759 3634 1313 
Q 3634 634 3220 271 
Q 2806 -91 2034 -91 
Q 1263 -91 848 271 
Q 434 634 434 1313 
Q 434 1759 690 2068 
Q 947 2378 1403 2484 
z
M 1172 3481 
Q 1172 3119 1398 2916 
Q 1625 2713 2034 2713 
Q 2441 2713 2670 2916 
Q 2900 3119 2900 3481 
Q 2900 3844 2670 4047 
Q 2441 4250 2034 4250 
Q 1625 4250 1398 4047 
Q 1172 3844 1172 3481 
z
" transform="scale(0.015625)"/>
       </defs>
       <use xlink:href="#DejaVuSans-30"/>
       <use xlink:href="#DejaVuSans-2e" x="63.623047"/>
       <use xlink:href="#DejaVuSans-38" x="95.410156"/>
      </g>
     </g>
    </g>
    <g id="xtick_6">
     <g id="line2d_6">
      <g>
       <use xlink:href="#mcfa313da09" x="369.725568" y="224.64" style="stroke: #000000; stroke-width: 0.8"/>
      </g>
     </g>
     <g id="text_6">
      <!-- 1.0 -->
      <g transform="translate(361.774006 239.238437)scale(0.1 -0.1)">
       <defs>
        <path id="DejaVuSans-31" d="M 794 531 
L 1825 531 
L 1825 4091 
L 703 3866 
L 703 4441 
L 1819 4666 
L 2450 4666 
L 2450 531 
L 3481 531 
L 3481 0 
L 794 0 
L 794 531 
z
" transform="scale(0.015625)"/>
       </defs>
       <use xlink:href="#DejaVuSans-31"/>
       <use xlink:href="#DejaVuSans-2e" x="63.623047"/>
       <use xlink:href="#DejaVuSans-30" x="95.410156"/>
      </g>
     </g>
    </g>
    <g id="text_7">
     <!-- Propagation direction -->
     <g transform="translate(164.061719 252.916562)scale(0.1 -0.1)">
      <defs>
       <path id="DejaVuSans-50" d="M 1259 4147 
L 1259 2394 
L 2053 2394 
Q 2494 2394 2734 2622 
Q 2975 2850 2975 3272 
Q 2975 3691 2734 3919 
Q 2494 4147 2053 4147 
L 1259 4147 
z
M 628 4666 
L 2053 4666 
Q 2838 4666 3239 4311 
Q 3641 3956 3641 3272 
Q 3641 2581 3239 2228 
Q 2838 1875 2053 1875 
L 1259 1875 
L 1259 0 
L 628 0 
L 628 4666 
z
" transform="scale(0.015625)"/>
       <path id="DejaVuSans-72" d="M 2631 2963 
Q 2534 3019 2420 3045 
Q 2306 3072 2169 3072 
Q 1681 3072 1420 2755 
Q 1159 2438 1159 1844 
L 1159 0 
L 581 0 
L 581 3500 
L 1159 3500 
L 1159 2956 
Q 1341 3275 1631 3429 
Q 1922 3584 2338 3584 
Q 2397 3584 2469 3576 
Q 2541 3569 2628 3553 
L 2631 2963 
z
" transform="scale(0.015625)"/>
       <path id="DejaVuSans-6f" d="M 1959 3097 
Q 1497 3097 1228 2736 
Q 959 2375 959 1747 
Q 959 1119 1226 758 
Q 1494 397 1959 397 
Q 2419 397 2687 759 
Q 2956 1122 2956 1747 
Q 2956 2369 2687 2733 
Q 2419 3097 1959 3097 
z
M 1959 3584 
Q 2709 3584 3137 3096 
Q 3566 2609 3566 1747 
Q 3566 888 3137 398 
Q 2709 -91 1959 -91 
Q 1206 -91 779 398 
Q 353 888 353 1747 
Q 353 2609 779 3096 
Q 1206 3584 1959 3584 
z
" transform="scale(0.015625)"/>
       <path id="DejaVuSans-70" d="M 1159 525 
L 1159 -1331 
L 581 -1331 
L 581 3500 
L 1159 3500 
L 1159 2969 
Q 1341 3281 1617 3432 
Q 1894 3584 2278 3584 
Q 2916 3584 3314 3078 
Q 3713 2572 3713 1747 
Q 3713 922 3314 415 
Q 2916 -91 2278 -91 
Q 1894 -91 1617 61 
Q 1341 213 1159 525 
z
M 3116 1747 
Q 3116 2381 2855 2742 
Q 2594 3103 2138 3103 
Q 1681 3103 1420 2742 
Q 1159 2381 1159 1747 
Q 1159 1113 1420 752 
Q 1681 391 2138 391 
Q 2594 391 2855 752 
Q 3116 1113 3116 1747 
z
" transform="scale(0.015625)"/>
       <path id="DejaVuSans-61" d="M 2194 1759 
Q 1497 1759 1228 1600 
Q 959 1441 959 1056 
Q 959 750 1161 570 
Q 1363 391 1709 391 
Q 2188 391 2477 730 
Q 2766 1069 2766 1631 
L 2766 1759 
L 2194 1759 
z
M 3341 1997 
L 3341 0 
L 2766 0 
L 2766 531 
Q 2569 213 2275 61 
Q 1981 -91 1556 -91 
Q 1019 -91 701 211 
Q 384 513 384 1019 
Q 384 1609 779 1909 
Q 1175 2209 1959 2209 
L 2766 2209 
L 2766 2266 
Q 2766 2663 2505 2880 
Q 2244 3097 1772 3097 
Q 1472 3097 1187 3025 
Q 903 2953 641 2809 
L 641 3341 
Q 956 3463 1253 3523 
Q 1550 3584 1831 3584 
Q 2591 3584 2966 3190 
Q 3341 2797 3341 1997 
z
" transform="scale(0.015625)"/>
       <path id="DejaVuSans-67" d="M 2906 1791 
Q 2906 2416 2648 2759 
Q 2391 3103 1925 3103 
Q 1463 3103 1205 2759 
Q 947 2416 947 1791 
Q 947 1169 1205 825 
Q 1463 481 1925 481 
Q 2391 481 2648 825 
Q 2906 1169 2906 1791 
z
M 3481 434 
Q 3481 -459 3084 -895 
Q 2688 -1331 1869 -1331 
Q 1566 -1331 1297 -1286 
Q 1028 -1241 775 -1147 
L 775 -588 
Q 1028 -725 1275 -790 
Q 1522 -856 1778 -856 
Q 2344 -856 2625 -561 
Q 2906 -266 2906 331 
L 2906 616 
Q 2728 306 2450 153 
Q 2172 0 1784 0 
Q 1141 0 747 490 
Q 353 981 353 1791 
Q 353 2603 747 3093 
Q 1141 3584 1784 3584 
Q 2172 3584 2450 3431 
Q 2728 3278 2906 2969 
L 2906 3500 
L 3481 3500 
L 3481 434 
z
" transform="scale(0.015625)"/>
       <path id="DejaVuSans-74" d="M 1172 4494 
L 1172 3500 
L 2356 3500 
L 2356 3053 
L 1172 3053 
L 1172 1153 
Q 1172 725 1289 603 
Q 1406 481 1766 481 
L 2356 481 
L 2356 0 
L 1766 0 
Q 1100 0 847 248 
Q 594 497 594 1153 
L 594 3053 
L 172 3053 
L 172 3500 
L 594 3500 
L 594 4494 
L 1172 4494 
z
" transform="scale(0.015625)"/>
       <path id="DejaVuSans-69" d="M 603 3500 
L 1178 3500 
L 1178 0 
L 603 0 
L 603 3500 
z
M 603 4863 
L 1178 4863 
L 1178 4134 
L 603 4134 
L 603 4863 
z
" transform="scale(0.015625)"/>
       <path id="DejaVuSans-6e" d="M 3513 2113 
L 3513 0 
L 2938 0 
L 2938 2094 
Q 2938 2591 2744 2837 
Q 2550 3084 2163 3084 
Q 1697 3084 1428 2787 
Q 1159 2491 1159 1978 
L 1159 0 
L 581 0 
L 581 3500 
L 1159 3500 
L 1159 2956 
Q 1366 3272 1645 3428 
Q 1925 3584 2291 3584 
Q 2894 3584 3203 3211 
Q 3513 2838 3513 2113 
z
" transform="scale(0.015625)"/>
       <path id="DejaVuSans-20" transform="scale(0.015625)"/>
       <path id="DejaVuSans-64" d="M 2906 2969 
L 2906 4863 
L 3481 4863 
L 3481 0 
L 2906 0 
L 2906 525 
Q 2725 213 2448 61 
Q 2172 -91 1784 -91 
Q 1150 -91 751 415 
Q 353 922 353 1747 
Q 353 2572 751 3078 
Q 1150 3584 1784 3584 
Q 2172 3584 2448 3432 
Q 2725 3281 2906 2969 
z
M 947 1747 
Q 947 1113 1208 752 
Q 1469 391 1925 391 
Q 2381 391 2643 752 
Q 2906 1113 2906 1747 
Q 2906 2381 2643 2742 
Q 2381 3103 1925 3103 
Q 1469 3103 1208 2742 
Q 947 2381 947 1747 
z
" transform="scale(0.015625)"/>
       <path id="DejaVuSans-65" d="M 3597 1894 
L 3597 1613 
L 953 1613 
Q 991 1019 1311 708 
Q 1631 397 2203 397 
Q 2534 397 2845 478 
Q 3156 559 3463 722 
L 3463 178 
Q 3153 47 2828 -22 
Q 2503 -91 2169 -91 
Q 1331 -91 842 396 
Q 353 884 353 1716 
Q 353 2575 817 3079 
Q 1281 3584 2069 3584 
Q 2775 3584 3186 3129 
Q 3597 2675 3597 1894 
z
M 3022 2063 
Q 3016 2534 2758 2815 
Q 2500 3097 2075 3097 
Q 1594 3097 1305 2825 
Q 1016 2553 972 2059 
L 3022 2063 
z
" transform="scale(0.015625)"/>
       <path id="DejaVuSans-63" d="M 3122 3366 
L 3122 2828 
Q 2878 2963 2633 3030 
Q 2388 3097 2138 3097 
Q 1578 3097 1268 2742 
Q 959 2388 959 1747 
Q 959 1106 1268 751 
Q 1578 397 2138 397 
Q 2388 397 2633 464 
Q 2878 531 3122 666 
L 3122 134 
Q 2881 22 2623 -34 
Q 2366 -91 2075 -91 
Q 1284 -91 818 406 
Q 353 903 353 1747 
Q 353 2603 823 3093 
Q 1294 3584 2113 3584 
Q 2378 3584 2631 3529 
Q 2884 3475 3122 3366 
z
" transform="scale(0.015625)"/>
      </defs>
      <use xlink:href="#DejaVuSans-50"/>
      <use xlink:href="#DejaVuSans-72" x="58.552734"/>
      <use xlink:href="#DejaVuSans-6f" x="97.416016"/>
      <use xlink:href="#DejaVuSans-70" x="158.597656"/>
      <use xlink:href="#DejaVuSans-61" x="222.074219"/>
      <use xlink:href="#DejaVuSans-67" x="283.353516"/>
      <use xlink:href="#DejaVuSans-61" x="346.830078"/>
      <use xlink:href="#DejaVuSans-74" x="408.109375"/>
      <use xlink:href="#DejaVuSans-69" x="447.318359"/>
      <use xlink:href="#DejaVuSans-6f" x="475.101562"/>
      <use xlink:href="#DejaVuSans-6e" x="536.283203"/>
      <use xlink:href="#DejaVuSans-20" x="599.662109"/>
      <use xlink:href="#DejaVuSans-64" x="631.449219"/>
      <use xlink:href="#DejaVuSans-69" x="694.925781"/>
      <use xlink:href="#DejaVuSans-72" x="722.708984"/>
      <use xlink:href="#DejaVuSans-65" x="761.572266"/>
      <use xlink:href="#DejaVuSans-63" x="823.095703"/>
      <use xlink:href="#DejaVuSans-74" x="878.076172"/>
      <use xlink:href="#DejaVuSans-69" x="917.285156"/>
      <use xlink:href="#DejaVuSans-6f" x="945.068359"/>
      <use xlink:href="#DejaVuSans-6e" x="1006.25"/>
     </g>
    </g>
   </g>
   <g id="matplotlib.axis_2">
    <g id="ytick_1">
     <g id="line2d_7">
      <defs>
       <path id="md876abe191" d="M 0 0 
L -3.5 0 
" style="stroke: #000000; stroke-width: 0.8"/>
      </defs>
      <g>
       <use xlink:href="#md876abe191" x="50.14375" y="224.64" style="stroke: #000000; stroke-width: 0.8"/>
      </g>
     </g>
     <g id="text_8">
      <!-- 0.00 -->
      <g transform="translate(20.878125 228.439219)scale(0.1 -0.1)">
       <use xlink:href="#DejaVuSans-30"/>
       <use xlink:href="#DejaVuSans-2e" x="63.623047"/>
       <use xlink:href="#DejaVuSans-30" x="95.410156"/>
       <use xlink:href="#DejaVuSans-30" x="159.033203"/>
      </g>
     </g>
    </g>
    <g id="ytick_2">
     <g id="line2d_8">
      <g>
       <use xlink:href="#md876abe191" x="50.14375" y="200.078523" style="stroke: #000000; stroke-width: 0.8"/>
      </g>
     </g>
     <g id="text_9">
      <!-- 0.25 -->
      <g transform="translate(20.878125 203.877742)scale(0.1 -0.1)">
       <defs>
        <path id="DejaVuSans-35" d="M 691 4666 
L 3169 4666 
L 3169 4134 
L 1269 4134 
L 1269 2991 
Q 1406 3038 1543 3061 
Q 1681 3084 1819 3084 
Q 2600 3084 3056 2656 
Q 3513 2228 3513 1497 
Q 3513 744 3044 326 
Q 2575 -91 1722 -91 
Q 1428 -91 1123 -41 
Q 819 9 494 109 
L 494 744 
Q 775 591 1075 516 
Q 1375 441 1709 441 
Q 2250 441 2565 725 
Q 2881 1009 2881 1497 
Q 2881 1984 2565 2268 
Q 2250 2553 1709 2553 
Q 1456 2553 1204 2497 
Q 953 2441 691 2322 
L 691 4666 
z
" transform="scale(0.015625)"/>
       </defs>
       <use xlink:href="#DejaVuSans-30"/>
       <use xlink:href="#DejaVuSans-2e" x="63.623047"/>
       <use xlink:href="#DejaVuSans-32" x="95.410156"/>
       <use xlink:href="#DejaVuSans-35" x="159.033203"/>
      </g>
     </g>
    </g>
    <g id="ytick_3">
     <g id="line2d_9">
      <g>
       <use xlink:href="#md876abe191" x="50.14375" y="175.517046" style="stroke: #000000; stroke-width: 0.8"/>
      </g>
     </g>
     <g id="text_10">
      <!-- 0.50 -->
      <g transform="translate(20.878125 179.316265)scale(0.1 -0.1)">
       <use xlink:href="#DejaVuSans-30"/>
       <use xlink:href="#DejaVuSans-2e" x="63.623047"/>
       <use xlink:href="#DejaVuSans-35" x="95.410156"/>
       <use xlink:href="#DejaVuSans-30" x="159.033203"/>
      </g>
     </g>
    </g>
    <g id="ytick_4">
     <g id="line2d_10">
      <g>
       <use xlink:href="#md876abe191" x="50.14375" y="150.955569" style="stroke: #000000; stroke-width: 0.8"/>
      </g>
     </g>
     <g id="text_11">
      <!-- 0.75 -->
      <g transform="translate(20.878125 154.754788)scale(0.1 -0.1)">
       <defs>
        <path id="DejaVuSans-37" d="M 525 4666 
L 3525 4666 
L 3525 4397 
L 1831 0 
L 1172 0 
L 2766 4134 
L 525 4134 
L 525 4666 
z
" transform="scale(0.015625)"/>
       </defs>
       <use xlink:href="#DejaVuSans-30"/>
       <use xlink:href="#DejaVuSans-2e" x="63.623047"/>
       <use xlink:href="#DejaVuSans-37" x="95.410156"/>
       <use xlink:href="#DejaVuSans-35" x="159.033203"/>
      </g>
     </g>
    </g>
    <g id="ytick_5">
     <g id="line2d_11">
      <g>
       <use xlink:href="#md876abe191" x="50.14375" y="126.394092" style="stroke: #000000; stroke-width: 0.8"/>
      </g>
     </g>
     <g id="text_12">
      <!-- 1.00 -->
      <g transform="translate(20.878125 130.193311)scale(0.1 -0.1)">
       <use xlink:href="#DejaVuSans-31"/>
       <use xlink:href="#DejaVuSans-2e" x="63.623047"/>
       <use xlink:href="#DejaVuSans-30" x="95.410156"/>
       <use xlink:href="#DejaVuSans-30" x="159.033203"/>
      </g>
     </g>
    </g>
    <g id="ytick_6">
     <g id="line2d_12">
      <g>
       <use xlink:href="#md876abe191" x="50.14375" y="101.832615" style="stroke: #000000; stroke-width: 0.8"/>
      </g>
     </g>
     <g id="text_13">
      <!-- 1.25 -->
      <g transform="translate(20.878125 105.631834)scale(0.1 -0.1)">
       <use xlink:href="#DejaVuSans-31"/>
       <use xlink:href="#DejaVuSans-2e" x="63.623047"/>
       <use xlink:href="#DejaVuSans-32" x="95.410156"/>
       <use xlink:href="#DejaVuSans-35" x="159.033203"/>
      </g>
     </g>
    </g>
    <g id="ytick_7">
     <g id="line2d_13">
      <g>
       <use xlink:href="#md876abe191" x="50.14375" y="77.271138" style="stroke: #000000; stroke-width: 0.8"/>
      </g>
     </g>
     <g id="text_14">
      <!-- 1.50 -->
      <g transform="translate(20.878125 81.070356)scale(0.1 -0.1)">
       <use xlink:href="#DejaVuSans-31"/>
       <use xlink:href="#DejaVuSans-2e" x="63.623047"/>
       <use xlink:href="#DejaVuSans-35" x="95.410156"/>
       <use xlink:href="#DejaVuSans-30" x="159.033203"/>
      </g>
     </g>
    </g>
    <g id="ytick_8">
     <g id="line2d_14">
      <g>
       <use xlink:href="#md876abe191" x="50.14375" y="52.709661" style="stroke: #000000; stroke-width: 0.8"/>
      </g>
     </g>
     <g id="text_15">
      <!-- 1.75 -->
      <g transform="translate(20.878125 56.508879)scale(0.1 -0.1)">
       <use xlink:href="#DejaVuSans-31"/>
       <use xlink:href="#DejaVuSans-2e" x="63.623047"/>
       <use xlink:href="#DejaVuSans-37" x="95.410156"/>
       <use xlink:href="#DejaVuSans-35" x="159.033203"/>
      </g>
     </g>
    </g>
    <g id="ytick_9">
     <g id="line2d_15">
      <g>
       <use xlink:href="#md876abe191" x="50.14375" y="28.148184" style="stroke: #000000; stroke-width: 0.8"/>
      </g>
     </g>
     <g id="text_16">
      <!-- 2.00 -->
      <g transform="translate(20.878125 31.947402)scale(0.1 -0.1)">
       <use xlink:href="#DejaVuSans-32"/>
       <use xlink:href="#DejaVuSans-2e" x="63.623047"/>
       <use xlink:href="#DejaVuSans-30" x="95.410156"/>
       <use xlink:href="#DejaVuSans-30" x="159.033203"/>
      </g>
     </g>
    </g>
    <g id="text_17">
     <!-- Probability density -->
     <g transform="translate(14.798438 162.270781)rotate(-90)scale(0.1 -0.1)">
      <defs>
       <path id="DejaVuSans-62" d="M 3116 1747 
Q 3116 2381 2855 2742 
Q 2594 3103 2138 3103 
Q 1681 3103 1420 2742 
Q 1159 2381 1159 1747 
Q 1159 1113 1420 752 
Q 1681 391 2138 391 
Q 2594 391 2855 752 
Q 3116 1113 3116 1747 
z
M 1159 2969 
Q 1341 3281 1617 3432 
Q 1894 3584 2278 3584 
Q 2916 3584 3314 3078 
Q 3713 2572 3713 1747 
Q 3713 922 3314 415 
Q 2916 -91 2278 -91 
Q 1894 -91 1617 61 
Q 1341 213 1159 525 
L 1159 0 
L 581 0 
L 581 4863 
L 1159 4863 
L 1159 2969 
z
" transform="scale(0.015625)"/>
       <path id="DejaVuSans-6c" d="M 603 4863 
L 1178 4863 
L 1178 0 
L 603 0 
L 603 4863 
z
" transform="scale(0.015625)"/>
       <path id="DejaVuSans-79" d="M 2059 -325 
Q 1816 -950 1584 -1140 
Q 1353 -1331 966 -1331 
L 506 -1331 
L 506 -850 
L 844 -850 
Q 1081 -850 1212 -737 
Q 1344 -625 1503 -206 
L 1606 56 
L 191 3500 
L 800 3500 
L 1894 763 
L 2988 3500 
L 3597 3500 
L 2059 -325 
z
" transform="scale(0.015625)"/>
       <path id="DejaVuSans-73" d="M 2834 3397 
L 2834 2853 
Q 2591 2978 2328 3040 
Q 2066 3103 1784 3103 
Q 1356 3103 1142 2972 
Q 928 2841 928 2578 
Q 928 2378 1081 2264 
Q 1234 2150 1697 2047 
L 1894 2003 
Q 2506 1872 2764 1633 
Q 3022 1394 3022 966 
Q 3022 478 2636 193 
Q 2250 -91 1575 -91 
Q 1294 -91 989 -36 
Q 684 19 347 128 
L 347 722 
Q 666 556 975 473 
Q 1284 391 1588 391 
Q 1994 391 2212 530 
Q 2431 669 2431 922 
Q 2431 1156 2273 1281 
Q 2116 1406 1581 1522 
L 1381 1569 
Q 847 1681 609 1914 
Q 372 2147 372 2553 
Q 372 3047 722 3315 
Q 1072 3584 1716 3584 
Q 2034 3584 2315 3537 
Q 2597 3491 2834 3397 
z
" transform="scale(0.015625)"/>
      </defs>
      <use xlink:href="#DejaVuSans-50"/>
      <use xlink:href="#DejaVuSans-72" x="58.552734"/>
      <use xlink:href="#DejaVuSans-6f" x="97.416016"/>
      <use xlink:href="#DejaVuSans-62" x="158.597656"/>
      <use xlink:href="#DejaVuSans-61" x="222.074219"/>
      <use xlink:href="#DejaVuSans-62" x="283.353516"/>
      <use xlink:href="#DejaVuSans-69" x="346.830078"/>
      <use xlink:href="#DejaVuSans-6c" x="374.613281"/>
      <use xlink:href="#DejaVuSans-69" x="402.396484"/>
      <use xlink:href="#DejaVuSans-74" x="430.179688"/>
      <use xlink:href="#DejaVuSans-79" x="469.388672"/>
      <use xlink:href="#DejaVuSans-20" x="528.568359"/>
      <use xlink:href="#DejaVuSans-64" x="560.355469"/>
      <use xlink:href="#DejaVuSans-65" x="623.832031"/>
      <use xlink:href="#DejaVuSans-6e" x="685.355469"/>
      <use xlink:href="#DejaVuSans-73" x="748.734375"/>
      <use xlink:href="#DejaVuSans-69" x="800.833984"/>
      <use xlink:href="#DejaVuSans-74" x="828.617188"/>
      <use xlink:href="#DejaVuSans-79" x="867.826172"/>
     </g>
    </g>
   </g>
   <g id="line2d_16">
    <path d="M 65.361932 224.64 
L 369.725568 28.148184 
L 369.725568 28.148184 
" clip-path="url(#p3e6b898044)" style="fill: none; stroke: #ff7f0e; stroke-width: 1.5; stroke-linecap: square"/>
   </g>
   <g id="patch_203">
    <path d="M 50.14375 224.64 
L 50.14375 7.2 
" style="fill: none; stroke: #000000; stroke-width: 0.8; stroke-linejoin: miter; stroke-linecap: square"/>
   </g>
   <g id="patch_204">
    <path d="M 384.94375 224.64 
L 384.94375 7.2 
" style="fill: none; stroke: #000000; stroke-width: 0.8; stroke-linejoin: miter; stroke-linecap: square"/>
   </g>
   <g id="patch_205">
    <path d="M 50.14375 224.64 
L 384.94375 224.64 
" style="fill: none; stroke: #000000; stroke-width: 0.8; stroke-linejoin: miter; stroke-linecap: square"/>
   </g>
   <g id="patch_206">
    <path d="M 50.14375 7.2 
L 384.94375 7.2 
" style="fill: none; stroke: #000000; stroke-width: 0.8; stroke-linejoin: miter; stroke-linecap: square"/>
   </g>
  </g>
 </g>
 <defs>
  <clipPath id="p3e6b898044">
   <rect x="50.14375" y="7.2" width="334.8" height="217.44"/>
  </clipPath>
 </defs>
</svg>
