<?xml version="1.0" encoding="utf-8" standalone="no"?>
<!DOCTYPE svg PUBLIC "-//W3C//DTD SVG 1.1//EN"
  "http://www.w3.org/Graphics/SVG/1.1/DTD/svg11.dtd">
<svg xmlns:xlink="http://www.w3.org/1999/xlink" width="392.14375pt" height="262.19625pt" viewBox="0 0 392.14375 262.19625" xmlns="http://www.w3.org/2000/svg" version="1.1">
 <metadata>
  <rdf:RDF xmlns:dc="http://purl.org/dc/elements/1.1/" xmlns:cc="http://creativecommons.org/ns#" xmlns:rdf="http://www.w3.org/1999/02/22-rdf-syntax-ns#">
   <cc:Work>
    <dc:type rdf:resource="http://purl.org/dc/dcmitype/StillImage"/>
    <dc:date>2022-06-26T00:07:24.156027</dc:date>
    <dc:format>image/svg+xml</dc:format>
    <dc:creator>
     <cc:Agent>
      <dc:title>Matplotlib v3.5.2, https://matplotlib.org/</dc:title>
     </cc:Agent>
    </dc:creator>
   </cc:Work>
  </rdf:RDF>
 </metadata>
 <defs>
  <style type="text/css">*{stroke-linejoin: round; stroke-linecap: butt}</style>
 </defs>
 <g id="figure_1">
  <g id="patch_1">
   <path d="M 0 262.19625 
L 392.14375 262.19625 
L 392.14375 0 
L 0 0 
L 0 262.19625 
z
" style="fill: none"/>
  </g>
  <g id="axes_1">
   <g id="patch_2">
    <path d="M 50.14375 224.64 
L 384.94375 224.64 
L 384.94375 7.2 
L 50.14375 7.2 
z
" style="fill: #ffffff"/>
   </g>
   <g id="patch_3">
    <path d="M 65.664592 224.64 
L 67.184873 224.64 
L 67.184873 222.144991 
L 65.664592 222.144991 
z
" clip-path="url(#pcdd5f594fe)" style="fill: #1f77b4"/>
   </g>
   <g id="patch_4">
    <path d="M 67.184873 224.64 
L 68.705154 224.64 
L 68.705154 223.641997 
L 67.184873 223.641997 
z
" clip-path="url(#pcdd5f594fe)" style="fill: #1f77b4"/>
   </g>
   <g id="patch_5">
    <path d="M 68.705154 224.64 
L 70.225434 224.64 
L 70.225434 220.148985 
L 68.705154 220.148985 
z
" clip-path="url(#pcdd5f594fe)" style="fill: #1f77b4"/>
   </g>
   <g id="patch_6">
    <path d="M 70.225434 224.64 
L 71.745715 224.64 
L 71.745715 220.647986 
L 70.225434 220.647986 
z
" clip-path="url(#pcdd5f594fe)" style="fill: #1f77b4"/>
   </g>
   <g id="patch_7">
    <path d="M 71.745715 224.64 
L 73.265995 224.64 
L 73.265995 219.150981 
L 71.745715 219.150981 
z
" clip-path="url(#pcdd5f594fe)" style="fill: #1f77b4"/>
   </g>
   <g id="patch_8">
    <path d="M 73.265995 224.64 
L 74.786276 224.64 
L 74.786276 218.651979 
L 73.265995 218.651979 
z
" clip-path="url(#pcdd5f594fe)" style="fill: #1f77b4"/>
   </g>
   <g id="patch_9">
    <path d="M 74.786276 224.64 
L 76.306557 224.64 
L 76.306557 215.657969 
L 74.786276 215.657969 
z
" clip-path="url(#pcdd5f594fe)" style="fill: #1f77b4"/>
   </g>
   <g id="patch_10">
    <path d="M 76.306557 224.64 
L 77.826837 224.64 
L 77.826837 217.653976 
L 76.306557 217.653976 
z
" clip-path="url(#pcdd5f594fe)" style="fill: #1f77b4"/>
   </g>
   <g id="patch_11">
    <path d="M 77.826837 224.64 
L 79.347118 224.64 
L 79.347118 217.653976 
L 77.826837 217.653976 
z
" clip-path="url(#pcdd5f594fe)" style="fill: #1f77b4"/>
   </g>
   <g id="patch_12">
    <path d="M 79.347118 224.64 
L 80.867398 224.64 
L 80.867398 215.158967 
L 79.347118 215.158967 
z
" clip-path="url(#pcdd5f594fe)" style="fill: #1f77b4"/>
   </g>
   <g id="patch_13">
    <path d="M 80.867398 224.64 
L 82.387679 224.64 
L 82.387679 214.160964 
L 80.867398 214.160964 
z
" clip-path="url(#pcdd5f594fe)" style="fill: #1f77b4"/>
   </g>
   <g id="patch_14">
    <path d="M 82.387679 224.64 
L 83.90796 224.64 
L 83.90796 215.158967 
L 82.387679 215.158967 
z
" clip-path="url(#pcdd5f594fe)" style="fill: #1f77b4"/>
   </g>
   <g id="patch_15">
    <path d="M 83.90796 224.64 
L 85.42824 224.64 
L 85.42824 212.164957 
L 83.90796 212.164957 
z
" clip-path="url(#pcdd5f594fe)" style="fill: #1f77b4"/>
   </g>
   <g id="patch_16">
    <path d="M 85.42824 224.64 
L 86.948521 224.64 
L 86.948521 213.661962 
L 85.42824 213.661962 
z
" clip-path="url(#pcdd5f594fe)" style="fill: #1f77b4"/>
   </g>
   <g id="patch_17">
    <path d="M 86.948521 224.64 
L 88.468801 224.64 
L 88.468801 214.659966 
L 86.948521 214.659966 
z
" clip-path="url(#pcdd5f594fe)" style="fill: #1f77b4"/>
   </g>
   <g id="patch_18">
    <path d="M 88.468801 224.64 
L 89.989082 224.64 
L 89.989082 208.671945 
L 88.468801 208.671945 
z
" clip-path="url(#pcdd5f594fe)" style="fill: #1f77b4"/>
   </g>
   <g id="patch_19">
    <path d="M 89.989082 224.64 
L 91.509363 224.64 
L 91.509363 203.182926 
L 89.989082 203.182926 
z
" clip-path="url(#pcdd5f594fe)" style="fill: #1f77b4"/>
   </g>
   <g id="patch_20">
    <path d="M 91.509363 224.64 
L 93.029643 224.64 
L 93.029643 207.673941 
L 91.509363 207.673941 
z
" clip-path="url(#pcdd5f594fe)" style="fill: #1f77b4"/>
   </g>
   <g id="patch_21">
    <path d="M 93.029643 224.64 
L 94.549924 224.64 
L 94.549924 201.186919 
L 93.029643 201.186919 
z
" clip-path="url(#pcdd5f594fe)" style="fill: #1f77b4"/>
   </g>
   <g id="patch_22">
    <path d="M 94.549924 224.64 
L 96.070205 224.64 
L 96.070205 205.677935 
L 94.549924 205.677935 
z
" clip-path="url(#pcdd5f594fe)" style="fill: #1f77b4"/>
   </g>
   <g id="patch_23">
    <path d="M 96.070205 224.64 
L 97.590485 224.64 
L 97.590485 204.679931 
L 96.070205 204.679931 
z
" clip-path="url(#pcdd5f594fe)" style="fill: #1f77b4"/>
   </g>
   <g id="patch_24">
    <path d="M 97.590485 224.64 
L 99.110766 224.64 
L 99.110766 196.196902 
L 97.590485 196.196902 
z
" clip-path="url(#pcdd5f594fe)" style="fill: #1f77b4"/>
   </g>
   <g id="patch_25">
    <path d="M 99.110766 224.64 
L 100.631046 224.64 
L 100.631046 201.186919 
L 99.110766 201.186919 
z
" clip-path="url(#pcdd5f594fe)" style="fill: #1f77b4"/>
   </g>
   <g id="patch_26">
    <path d="M 100.631046 224.64 
L 102.151327 224.64 
L 102.151327 208.671945 
L 100.631046 208.671945 
z
" clip-path="url(#pcdd5f594fe)" style="fill: #1f77b4"/>
   </g>
   <g id="patch_27">
    <path d="M 102.151327 224.64 
L 103.671608 224.64 
L 103.671608 202.184923 
L 102.151327 202.184923 
z
" clip-path="url(#pcdd5f594fe)" style="fill: #1f77b4"/>
   </g>
   <g id="patch_28">
    <path d="M 103.671608 224.64 
L 105.191888 224.64 
L 105.191888 197.194905 
L 103.671608 197.194905 
z
" clip-path="url(#pcdd5f594fe)" style="fill: #1f77b4"/>
   </g>
   <g id="patch_29">
    <path d="M 105.191888 224.64 
L 106.712169 224.64 
L 106.712169 199.689914 
L 105.191888 199.689914 
z
" clip-path="url(#pcdd5f594fe)" style="fill: #1f77b4"/>
   </g>
   <g id="patch_30">
    <path d="M 106.712169 224.64 
L 108.232449 224.64 
L 108.232449 197.693907 
L 106.712169 197.693907 
z
" clip-path="url(#pcdd5f594fe)" style="fill: #1f77b4"/>
   </g>
   <g id="patch_31">
    <path d="M 108.232449 224.64 
L 109.75273 224.64 
L 109.75273 192.70389 
L 108.232449 192.70389 
z
" clip-path="url(#pcdd5f594fe)" style="fill: #1f77b4"/>
   </g>
   <g id="patch_32">
    <path d="M 109.75273 224.64 
L 111.273011 224.64 
L 111.273011 196.196902 
L 109.75273 196.196902 
z
" clip-path="url(#pcdd5f594fe)" style="fill: #1f77b4"/>
   </g>
   <g id="patch_33">
    <path d="M 111.273011 224.64 
L 112.793291 224.64 
L 112.793291 192.204888 
L 111.273011 192.204888 
z
" clip-path="url(#pcdd5f594fe)" style="fill: #1f77b4"/>
   </g>
   <g id="patch_34">
    <path d="M 112.793291 224.64 
L 114.313572 224.64 
L 114.313572 193.202892 
L 112.793291 193.202892 
z
" clip-path="url(#pcdd5f594fe)" style="fill: #1f77b4"/>
   </g>
   <g id="patch_35">
    <path d="M 114.313572 224.64 
L 115.833852 224.64 
L 115.833852 196.695904 
L 114.313572 196.695904 
z
" clip-path="url(#pcdd5f594fe)" style="fill: #1f77b4"/>
   </g>
   <g id="patch_36">
    <path d="M 115.833852 224.64 
L 117.354133 224.64 
L 117.354133 195.198898 
L 115.833852 195.198898 
z
" clip-path="url(#pcdd5f594fe)" style="fill: #1f77b4"/>
   </g>
   <g id="patch_37">
    <path d="M 117.354133 224.64 
L 118.874414 224.64 
L 118.874414 198.69191 
L 117.354133 198.69191 
z
" clip-path="url(#pcdd5f594fe)" style="fill: #1f77b4"/>
   </g>
   <g id="patch_38">
    <path d="M 118.874414 224.64 
L 120.394694 224.64 
L 120.394694 183.222857 
L 118.874414 183.222857 
z
" clip-path="url(#pcdd5f594fe)" style="fill: #1f77b4"/>
   </g>
   <g id="patch_39">
    <path d="M 120.394694 224.64 
L 121.914975 224.64 
L 121.914975 182.723855 
L 120.394694 182.723855 
z
" clip-path="url(#pcdd5f594fe)" style="fill: #1f77b4"/>
   </g>
   <g id="patch_40">
    <path d="M 121.914975 224.64 
L 123.435255 224.64 
L 123.435255 190.707883 
L 121.914975 190.707883 
z
" clip-path="url(#pcdd5f594fe)" style="fill: #1f77b4"/>
   </g>
   <g id="patch_41">
    <path d="M 123.435255 224.64 
L 124.955536 224.64 
L 124.955536 184.220861 
L 123.435255 184.220861 
z
" clip-path="url(#pcdd5f594fe)" style="fill: #1f77b4"/>
   </g>
   <g id="patch_42">
    <path d="M 124.955536 224.64 
L 126.475817 224.64 
L 126.475817 184.719862 
L 124.955536 184.719862 
z
" clip-path="url(#pcdd5f594fe)" style="fill: #1f77b4"/>
   </g>
   <g id="patch_43">
    <path d="M 126.475817 224.64 
L 127.996097 224.64 
L 127.996097 193.202892 
L 126.475817 193.202892 
z
" clip-path="url(#pcdd5f594fe)" style="fill: #1f77b4"/>
   </g>
   <g id="patch_44">
    <path d="M 127.996097 224.64 
L 129.516378 224.64 
L 129.516378 179.230843 
L 127.996097 179.230843 
z
" clip-path="url(#pcdd5f594fe)" style="fill: #1f77b4"/>
   </g>
   <g id="patch_45">
    <path d="M 129.516378 224.64 
L 131.036658 224.64 
L 131.036658 180.727849 
L 129.516378 180.727849 
z
" clip-path="url(#pcdd5f594fe)" style="fill: #1f77b4"/>
   </g>
   <g id="patch_46">
    <path d="M 131.036658 224.64 
L 132.556939 224.64 
L 132.556939 176.735835 
L 131.036658 176.735835 
z
" clip-path="url(#pcdd5f594fe)" style="fill: #1f77b4"/>
   </g>
   <g id="patch_47">
    <path d="M 132.556939 224.64 
L 134.07722 224.64 
L 134.07722 182.723855 
L 132.556939 182.723855 
z
" clip-path="url(#pcdd5f594fe)" style="fill: #1f77b4"/>
   </g>
   <g id="patch_48">
    <path d="M 134.07722 224.64 
L 135.5975 224.64 
L 135.5975 176.236833 
L 134.07722 176.236833 
z
" clip-path="url(#pcdd5f594fe)" style="fill: #1f77b4"/>
   </g>
   <g id="patch_49">
    <path d="M 135.5975 224.64 
L 137.117781 224.64 
L 137.117781 182.224854 
L 135.5975 182.224854 
z
" clip-path="url(#pcdd5f594fe)" style="fill: #1f77b4"/>
   </g>
   <g id="patch_50">
    <path d="M 137.117781 224.64 
L 138.638062 224.64 
L 138.638062 175.737831 
L 137.117781 175.737831 
z
" clip-path="url(#pcdd5f594fe)" style="fill: #1f77b4"/>
   </g>
   <g id="patch_51">
    <path d="M 138.638062 224.64 
L 140.158342 224.64 
L 140.158342 179.729845 
L 138.638062 179.729845 
z
" clip-path="url(#pcdd5f594fe)" style="fill: #1f77b4"/>
   </g>
   <g id="patch_52">
    <path d="M 140.158342 224.64 
L 141.678623 224.64 
L 141.678623 170.248812 
L 140.158342 170.248812 
z
" clip-path="url(#pcdd5f594fe)" style="fill: #1f77b4"/>
   </g>
   <g id="patch_53">
    <path d="M 141.678623 224.64 
L 143.198903 224.64 
L 143.198903 168.751807 
L 141.678623 168.751807 
z
" clip-path="url(#pcdd5f594fe)" style="fill: #1f77b4"/>
   </g>
   <g id="patch_54">
    <path d="M 143.198903 224.64 
L 144.719184 224.64 
L 144.719184 173.741824 
L 143.198903 173.741824 
z
" clip-path="url(#pcdd5f594fe)" style="fill: #1f77b4"/>
   </g>
   <g id="patch_55">
    <path d="M 144.719184 224.64 
L 146.239465 224.64 
L 146.239465 172.743821 
L 144.719184 172.743821 
z
" clip-path="url(#pcdd5f594fe)" style="fill: #1f77b4"/>
   </g>
   <g id="patch_56">
    <path d="M 146.239465 224.64 
L 147.759745 224.64 
L 147.759745 175.23883 
L 146.239465 175.23883 
z
" clip-path="url(#pcdd5f594fe)" style="fill: #1f77b4"/>
   </g>
   <g id="patch_57">
    <path d="M 147.759745 224.64 
L 149.280026 224.64 
L 149.280026 183.222857 
L 147.759745 183.222857 
z
" clip-path="url(#pcdd5f594fe)" style="fill: #1f77b4"/>
   </g>
   <g id="patch_58">
    <path d="M 149.280026 224.64 
L 150.800306 224.64 
L 150.800306 176.236833 
L 149.280026 176.236833 
z
" clip-path="url(#pcdd5f594fe)" style="fill: #1f77b4"/>
   </g>
   <g id="patch_59">
    <path d="M 150.800306 224.64 
L 152.320587 224.64 
L 152.320587 174.240826 
L 150.800306 174.240826 
z
" clip-path="url(#pcdd5f594fe)" style="fill: #1f77b4"/>
   </g>
   <g id="patch_60">
    <path d="M 152.320587 224.64 
L 153.840868 224.64 
L 153.840868 162.763787 
L 152.320587 162.763787 
z
" clip-path="url(#pcdd5f594fe)" style="fill: #1f77b4"/>
   </g>
   <g id="patch_61">
    <path d="M 153.840868 224.64 
L 155.361148 224.64 
L 155.361148 164.759793 
L 153.840868 164.759793 
z
" clip-path="url(#pcdd5f594fe)" style="fill: #1f77b4"/>
   </g>
   <g id="patch_62">
    <path d="M 155.361148 224.64 
L 156.881429 224.64 
L 156.881429 157.773769 
L 155.361148 157.773769 
z
" clip-path="url(#pcdd5f594fe)" style="fill: #1f77b4"/>
   </g>
   <g id="patch_63">
    <path d="M 156.881429 224.64 
L 158.401709 224.64 
L 158.401709 167.753804 
L 156.881429 167.753804 
z
" clip-path="url(#pcdd5f594fe)" style="fill: #1f77b4"/>
   </g>
   <g id="patch_64">
    <path d="M 158.401709 224.64 
L 159.92199 224.64 
L 159.92199 159.270775 
L 158.401709 159.270775 
z
" clip-path="url(#pcdd5f594fe)" style="fill: #1f77b4"/>
   </g>
   <g id="patch_65">
    <path d="M 159.92199 224.64 
L 161.442271 224.64 
L 161.442271 163.76179 
L 159.92199 163.76179 
z
" clip-path="url(#pcdd5f594fe)" style="fill: #1f77b4"/>
   </g>
   <g id="patch_66">
    <path d="M 161.442271 224.64 
L 162.962551 224.64 
L 162.962551 166.7558 
L 161.442271 166.7558 
z
" clip-path="url(#pcdd5f594fe)" style="fill: #1f77b4"/>
   </g>
   <g id="patch_67">
    <path d="M 162.962551 224.64 
L 164.482832 224.64 
L 164.482832 163.76179 
L 162.962551 163.76179 
z
" clip-path="url(#pcdd5f594fe)" style="fill: #1f77b4"/>
   </g>
   <g id="patch_68">
    <path d="M 164.482832 224.64 
L 166.003112 224.64 
L 166.003112 149.789742 
L 164.482832 149.789742 
z
" clip-path="url(#pcdd5f594fe)" style="fill: #1f77b4"/>
   </g>
   <g id="patch_69">
    <path d="M 166.003112 224.64 
L 167.523393 224.64 
L 167.523393 154.280757 
L 166.003112 154.280757 
z
" clip-path="url(#pcdd5f594fe)" style="fill: #1f77b4"/>
   </g>
   <g id="patch_70">
    <path d="M 167.523393 224.64 
L 169.043674 224.64 
L 169.043674 153.781756 
L 167.523393 153.781756 
z
" clip-path="url(#pcdd5f594fe)" style="fill: #1f77b4"/>
   </g>
   <g id="patch_71">
    <path d="M 169.043674 224.64 
L 170.563954 224.64 
L 170.563954 153.781756 
L 169.043674 153.781756 
z
" clip-path="url(#pcdd5f594fe)" style="fill: #1f77b4"/>
   </g>
   <g id="patch_72">
    <path d="M 170.563954 224.64 
L 172.084235 224.64 
L 172.084235 150.288744 
L 170.563954 150.288744 
z
" clip-path="url(#pcdd5f594fe)" style="fill: #1f77b4"/>
   </g>
   <g id="patch_73">
    <path d="M 172.084235 224.64 
L 173.604516 224.64 
L 173.604516 151.286747 
L 172.084235 151.286747 
z
" clip-path="url(#pcdd5f594fe)" style="fill: #1f77b4"/>
   </g>
   <g id="patch_74">
    <path d="M 173.604516 224.64 
L 175.124796 224.64 
L 175.124796 155.278761 
L 173.604516 155.278761 
z
" clip-path="url(#pcdd5f594fe)" style="fill: #1f77b4"/>
   </g>
   <g id="patch_75">
    <path d="M 175.124796 224.64 
L 176.645077 224.64 
L 176.645077 154.280757 
L 175.124796 154.280757 
z
" clip-path="url(#pcdd5f594fe)" style="fill: #1f77b4"/>
   </g>
   <g id="patch_76">
    <path d="M 176.645077 224.64 
L 178.165357 224.64 
L 178.165357 151.785749 
L 176.645077 151.785749 
z
" clip-path="url(#pcdd5f594fe)" style="fill: #1f77b4"/>
   </g>
   <g id="patch_77">
    <path d="M 178.165357 224.64 
L 179.685638 224.64 
L 179.685638 146.795731 
L 178.165357 146.795731 
z
" clip-path="url(#pcdd5f594fe)" style="fill: #1f77b4"/>
   </g>
   <g id="patch_78">
    <path d="M 179.685638 224.64 
L 181.205919 224.64 
L 181.205919 143.801721 
L 179.685638 143.801721 
z
" clip-path="url(#pcdd5f594fe)" style="fill: #1f77b4"/>
   </g>
   <g id="patch_79">
    <path d="M 181.205919 224.64 
L 182.726199 224.64 
L 182.726199 151.286747 
L 181.205919 151.286747 
z
" clip-path="url(#pcdd5f594fe)" style="fill: #1f77b4"/>
   </g>
   <g id="patch_80">
    <path d="M 182.726199 224.64 
L 184.24648 224.64 
L 184.24648 136.815697 
L 182.726199 136.815697 
z
" clip-path="url(#pcdd5f594fe)" style="fill: #1f77b4"/>
   </g>
   <g id="patch_81">
    <path d="M 184.24648 224.64 
L 185.76676 224.64 
L 185.76676 147.294733 
L 184.24648 147.294733 
z
" clip-path="url(#pcdd5f594fe)" style="fill: #1f77b4"/>
   </g>
   <g id="patch_82">
    <path d="M 185.76676 224.64 
L 187.287041 224.64 
L 187.287041 151.286747 
L 185.76676 151.286747 
z
" clip-path="url(#pcdd5f594fe)" style="fill: #1f77b4"/>
   </g>
   <g id="patch_83">
    <path d="M 187.287041 224.64 
L 188.807322 224.64 
L 188.807322 151.785749 
L 187.287041 151.785749 
z
" clip-path="url(#pcdd5f594fe)" style="fill: #1f77b4"/>
   </g>
   <g id="patch_84">
    <path d="M 188.807322 224.64 
L 190.327602 224.64 
L 190.327602 141.805714 
L 188.807322 141.805714 
z
" clip-path="url(#pcdd5f594fe)" style="fill: #1f77b4"/>
   </g>
   <g id="patch_85">
    <path d="M 190.327602 224.64 
L 191.847883 224.64 
L 191.847883 138.312702 
L 190.327602 138.312702 
z
" clip-path="url(#pcdd5f594fe)" style="fill: #1f77b4"/>
   </g>
   <g id="patch_86">
    <path d="M 191.847883 224.64 
L 193.368163 224.64 
L 193.368163 137.813701 
L 191.847883 137.813701 
z
" clip-path="url(#pcdd5f594fe)" style="fill: #1f77b4"/>
   </g>
   <g id="patch_87">
    <path d="M 193.368163 224.64 
L 194.888444 224.64 
L 194.888444 140.308709 
L 193.368163 140.308709 
z
" clip-path="url(#pcdd5f594fe)" style="fill: #1f77b4"/>
   </g>
   <g id="patch_88">
    <path d="M 194.888444 224.64 
L 196.408725 224.64 
L 196.408725 146.29673 
L 194.888444 146.29673 
z
" clip-path="url(#pcdd5f594fe)" style="fill: #1f77b4"/>
   </g>
   <g id="patch_89">
    <path d="M 196.408725 224.64 
L 197.929005 224.64 
L 197.929005 128.83167 
L 196.408725 128.83167 
z
" clip-path="url(#pcdd5f594fe)" style="fill: #1f77b4"/>
   </g>
   <g id="patch_90">
    <path d="M 197.929005 224.64 
L 199.449286 224.64 
L 199.449286 139.310706 
L 197.929005 139.310706 
z
" clip-path="url(#pcdd5f594fe)" style="fill: #1f77b4"/>
   </g>
   <g id="patch_91">
    <path d="M 199.449286 224.64 
L 200.969566 224.64 
L 200.969566 131.326678 
L 199.449286 131.326678 
z
" clip-path="url(#pcdd5f594fe)" style="fill: #1f77b4"/>
   </g>
   <g id="patch_92">
    <path d="M 200.969566 224.64 
L 202.489847 224.64 
L 202.489847 135.318692 
L 200.969566 135.318692 
z
" clip-path="url(#pcdd5f594fe)" style="fill: #1f77b4"/>
   </g>
   <g id="patch_93">
    <path d="M 202.489847 224.64 
L 204.010128 224.64 
L 204.010128 121.346644 
L 202.489847 121.346644 
z
" clip-path="url(#pcdd5f594fe)" style="fill: #1f77b4"/>
   </g>
   <g id="patch_94">
    <path d="M 204.010128 224.64 
L 205.530408 224.64 
L 205.530408 137.314699 
L 204.010128 137.314699 
z
" clip-path="url(#pcdd5f594fe)" style="fill: #1f77b4"/>
   </g>
   <g id="patch_95">
    <path d="M 205.530408 224.64 
L 207.050689 224.64 
L 207.050689 141.306713 
L 205.530408 141.306713 
z
" clip-path="url(#pcdd5f594fe)" style="fill: #1f77b4"/>
   </g>
   <g id="patch_96">
    <path d="M 207.050689 224.64 
L 208.570969 224.64 
L 208.570969 140.308709 
L 207.050689 140.308709 
z
" clip-path="url(#pcdd5f594fe)" style="fill: #1f77b4"/>
   </g>
   <g id="patch_97">
    <path d="M 208.570969 224.64 
L 210.09125 224.64 
L 210.09125 135.318692 
L 208.570969 135.318692 
z
" clip-path="url(#pcdd5f594fe)" style="fill: #1f77b4"/>
   </g>
   <g id="patch_98">
    <path d="M 210.09125 224.64 
L 211.611531 224.64 
L 211.611531 134.81969 
L 210.09125 134.81969 
z
" clip-path="url(#pcdd5f594fe)" style="fill: #1f77b4"/>
   </g>
   <g id="patch_99">
    <path d="M 211.611531 224.64 
L 213.131811 224.64 
L 213.131811 128.332668 
L 211.611531 128.332668 
z
" clip-path="url(#pcdd5f594fe)" style="fill: #1f77b4"/>
   </g>
   <g id="patch_100">
    <path d="M 213.131811 224.64 
L 214.652092 224.64 
L 214.652092 123.841652 
L 213.131811 123.841652 
z
" clip-path="url(#pcdd5f594fe)" style="fill: #1f77b4"/>
   </g>
   <g id="patch_101">
    <path d="M 214.652092 224.64 
L 216.172373 224.64 
L 216.172373 136.815697 
L 214.652092 136.815697 
z
" clip-path="url(#pcdd5f594fe)" style="fill: #1f77b4"/>
   </g>
   <g id="patch_102">
    <path d="M 216.172373 224.64 
L 217.692653 224.64 
L 217.692653 125.338657 
L 216.172373 125.338657 
z
" clip-path="url(#pcdd5f594fe)" style="fill: #1f77b4"/>
   </g>
   <g id="patch_103">
    <path d="M 217.692653 224.64 
L 219.212934 224.64 
L 219.212934 124.340654 
L 217.692653 124.340654 
z
" clip-path="url(#pcdd5f594fe)" style="fill: #1f77b4"/>
   </g>
   <g id="patch_104">
    <path d="M 219.212934 224.64 
L 220.733214 224.64 
L 220.733214 127.334664 
L 219.212934 127.334664 
z
" clip-path="url(#pcdd5f594fe)" style="fill: #1f77b4"/>
   </g>
   <g id="patch_105">
    <path d="M 220.733214 224.64 
L 222.253495 224.64 
L 222.253495 119.849639 
L 220.733214 119.849639 
z
" clip-path="url(#pcdd5f594fe)" style="fill: #1f77b4"/>
   </g>
   <g id="patch_106">
    <path d="M 222.253495 224.64 
L 223.773776 224.64 
L 223.773776 123.841652 
L 222.253495 123.841652 
z
" clip-path="url(#pcdd5f594fe)" style="fill: #1f77b4"/>
   </g>
   <g id="patch_107">
    <path d="M 223.773776 224.64 
L 225.294056 224.64 
L 225.294056 110.867608 
L 223.773776 110.867608 
z
" clip-path="url(#pcdd5f594fe)" style="fill: #1f77b4"/>
   </g>
   <g id="patch_108">
    <path d="M 225.294056 224.64 
L 226.814337 224.64 
L 226.814337 121.346644 
L 225.294056 121.346644 
z
" clip-path="url(#pcdd5f594fe)" style="fill: #1f77b4"/>
   </g>
   <g id="patch_109">
    <path d="M 226.814337 224.64 
L 228.334617 224.64 
L 228.334617 118.851635 
L 226.814337 118.851635 
z
" clip-path="url(#pcdd5f594fe)" style="fill: #1f77b4"/>
   </g>
   <g id="patch_110">
    <path d="M 228.334617 224.64 
L 229.854898 224.64 
L 229.854898 112.364613 
L 228.334617 112.364613 
z
" clip-path="url(#pcdd5f594fe)" style="fill: #1f77b4"/>
   </g>
   <g id="patch_111">
    <path d="M 229.854898 224.64 
L 231.375179 224.64 
L 231.375179 112.364613 
L 229.854898 112.364613 
z
" clip-path="url(#pcdd5f594fe)" style="fill: #1f77b4"/>
   </g>
   <g id="patch_112">
    <path d="M 231.375179 224.64 
L 232.895459 224.64 
L 232.895459 110.368606 
L 231.375179 110.368606 
z
" clip-path="url(#pcdd5f594fe)" style="fill: #1f77b4"/>
   </g>
   <g id="patch_113">
    <path d="M 232.895459 224.64 
L 234.41574 224.64 
L 234.41574 121.845645 
L 232.895459 121.845645 
z
" clip-path="url(#pcdd5f594fe)" style="fill: #1f77b4"/>
   </g>
   <g id="patch_114">
    <path d="M 234.41574 224.64 
L 235.93602 224.64 
L 235.93602 106.875594 
L 234.41574 106.875594 
z
" clip-path="url(#pcdd5f594fe)" style="fill: #1f77b4"/>
   </g>
   <g id="patch_115">
    <path d="M 235.93602 224.64 
L 237.456301 224.64 
L 237.456301 106.376592 
L 235.93602 106.376592 
z
" clip-path="url(#pcdd5f594fe)" style="fill: #1f77b4"/>
   </g>
   <g id="patch_116">
    <path d="M 237.456301 224.64 
L 238.976582 224.64 
L 238.976582 122.344647 
L 237.456301 122.344647 
z
" clip-path="url(#pcdd5f594fe)" style="fill: #1f77b4"/>
   </g>
   <g id="patch_117">
    <path d="M 238.976582 224.64 
L 240.496862 224.64 
L 240.496862 115.857625 
L 238.976582 115.857625 
z
" clip-path="url(#pcdd5f594fe)" style="fill: #1f77b4"/>
   </g>
   <g id="patch_118">
    <path d="M 240.496862 224.64 
L 242.017143 224.64 
L 242.017143 103.382582 
L 240.496862 103.382582 
z
" clip-path="url(#pcdd5f594fe)" style="fill: #1f77b4"/>
   </g>
   <g id="patch_119">
    <path d="M 242.017143 224.64 
L 243.537423 224.64 
L 243.537423 107.374596 
L 242.017143 107.374596 
z
" clip-path="url(#pcdd5f594fe)" style="fill: #1f77b4"/>
   </g>
   <g id="patch_120">
    <path d="M 243.537423 224.64 
L 245.057704 224.64 
L 245.057704 111.865611 
L 243.537423 111.865611 
z
" clip-path="url(#pcdd5f594fe)" style="fill: #1f77b4"/>
   </g>
   <g id="patch_121">
    <path d="M 245.057704 224.64 
L 246.577985 224.64 
L 246.577985 95.897556 
L 245.057704 95.897556 
z
" clip-path="url(#pcdd5f594fe)" style="fill: #1f77b4"/>
   </g>
   <g id="patch_122">
    <path d="M 246.577985 224.64 
L 248.098265 224.64 
L 248.098265 104.879587 
L 246.577985 104.879587 
z
" clip-path="url(#pcdd5f594fe)" style="fill: #1f77b4"/>
   </g>
   <g id="patch_123">
    <path d="M 248.098265 224.64 
L 249.618546 224.64 
L 249.618546 99.390568 
L 248.098265 99.390568 
z
" clip-path="url(#pcdd5f594fe)" style="fill: #1f77b4"/>
   </g>
   <g id="patch_124">
    <path d="M 249.618546 224.64 
L 251.138827 224.64 
L 251.138827 115.857625 
L 249.618546 115.857625 
z
" clip-path="url(#pcdd5f594fe)" style="fill: #1f77b4"/>
   </g>
   <g id="patch_125">
    <path d="M 251.138827 224.64 
L 252.659107 224.64 
L 252.659107 110.867608 
L 251.138827 110.867608 
z
" clip-path="url(#pcdd5f594fe)" style="fill: #1f77b4"/>
   </g>
   <g id="patch_126">
    <path d="M 252.659107 224.64 
L 254.179388 224.64 
L 254.179388 94.899552 
L 252.659107 94.899552 
z
" clip-path="url(#pcdd5f594fe)" style="fill: #1f77b4"/>
   </g>
   <g id="patch_127">
    <path d="M 254.179388 224.64 
L 255.699668 224.64 
L 255.699668 99.88957 
L 254.179388 99.88957 
z
" clip-path="url(#pcdd5f594fe)" style="fill: #1f77b4"/>
   </g>
   <g id="patch_128">
    <path d="M 255.699668 224.64 
L 257.219949 224.64 
L 257.219949 91.40654 
L 255.699668 91.40654 
z
" clip-path="url(#pcdd5f594fe)" style="fill: #1f77b4"/>
   </g>
   <g id="patch_129">
    <path d="M 257.219949 224.64 
L 258.74023 224.64 
L 258.74023 84.919518 
L 257.219949 84.919518 
z
" clip-path="url(#pcdd5f594fe)" style="fill: #1f77b4"/>
   </g>
   <g id="patch_130">
    <path d="M 258.74023 224.64 
L 260.26051 224.64 
L 260.26051 95.398554 
L 258.74023 95.398554 
z
" clip-path="url(#pcdd5f594fe)" style="fill: #1f77b4"/>
   </g>
   <g id="patch_131">
    <path d="M 260.26051 224.64 
L 261.780791 224.64 
L 261.780791 107.873597 
L 260.26051 107.873597 
z
" clip-path="url(#pcdd5f594fe)" style="fill: #1f77b4"/>
   </g>
   <g id="patch_132">
    <path d="M 261.780791 224.64 
L 263.301071 224.64 
L 263.301071 104.380585 
L 261.780791 104.380585 
z
" clip-path="url(#pcdd5f594fe)" style="fill: #1f77b4"/>
   </g>
   <g id="patch_133">
    <path d="M 263.301071 224.64 
L 264.821352 224.64 
L 264.821352 86.416523 
L 263.301071 86.416523 
z
" clip-path="url(#pcdd5f594fe)" style="fill: #1f77b4"/>
   </g>
   <g id="patch_134">
    <path d="M 264.821352 224.64 
L 266.341633 224.64 
L 266.341633 100.388571 
L 264.821352 100.388571 
z
" clip-path="url(#pcdd5f594fe)" style="fill: #1f77b4"/>
   </g>
   <g id="patch_135">
    <path d="M 266.341633 224.64 
L 267.861913 224.64 
L 267.861913 85.917522 
L 266.341633 85.917522 
z
" clip-path="url(#pcdd5f594fe)" style="fill: #1f77b4"/>
   </g>
   <g id="patch_136">
    <path d="M 267.861913 224.64 
L 269.382194 224.64 
L 269.382194 86.915525 
L 267.861913 86.915525 
z
" clip-path="url(#pcdd5f594fe)" style="fill: #1f77b4"/>
   </g>
   <g id="patch_137">
    <path d="M 269.382194 224.64 
L 270.902474 224.64 
L 270.902474 99.390568 
L 269.382194 99.390568 
z
" clip-path="url(#pcdd5f594fe)" style="fill: #1f77b4"/>
   </g>
   <g id="patch_138">
    <path d="M 270.902474 224.64 
L 272.422755 224.64 
L 272.422755 98.891566 
L 270.902474 98.891566 
z
" clip-path="url(#pcdd5f594fe)" style="fill: #1f77b4"/>
   </g>
   <g id="patch_139">
    <path d="M 272.422755 224.64 
L 273.943036 224.64 
L 273.943036 98.891566 
L 272.422755 98.891566 
z
" clip-path="url(#pcdd5f594fe)" style="fill: #1f77b4"/>
   </g>
   <g id="patch_140">
    <path d="M 273.943036 224.64 
L 275.463316 224.64 
L 275.463316 74.939484 
L 273.943036 74.939484 
z
" clip-path="url(#pcdd5f594fe)" style="fill: #1f77b4"/>
   </g>
   <g id="patch_141">
    <path d="M 275.463316 224.64 
L 276.983597 224.64 
L 276.983597 96.396558 
L 275.463316 96.396558 
z
" clip-path="url(#pcdd5f594fe)" style="fill: #1f77b4"/>
   </g>
   <g id="patch_142">
    <path d="M 276.983597 224.64 
L 278.503877 224.64 
L 278.503877 87.414527 
L 276.983597 87.414527 
z
" clip-path="url(#pcdd5f594fe)" style="fill: #1f77b4"/>
   </g>
   <g id="patch_143">
    <path d="M 278.503877 224.64 
L 280.024158 224.64 
L 280.024158 70.94747 
L 278.503877 70.94747 
z
" clip-path="url(#pcdd5f594fe)" style="fill: #1f77b4"/>
   </g>
   <g id="patch_144">
    <path d="M 280.024158 224.64 
L 281.544439 224.64 
L 281.544439 98.891566 
L 280.024158 98.891566 
z
" clip-path="url(#pcdd5f594fe)" style="fill: #1f77b4"/>
   </g>
   <g id="patch_145">
    <path d="M 281.544439 224.64 
L 283.064719 224.64 
L 283.064719 74.939484 
L 281.544439 74.939484 
z
" clip-path="url(#pcdd5f594fe)" style="fill: #1f77b4"/>
   </g>
   <g id="patch_146">
    <path d="M 283.064719 224.64 
L 284.585 224.64 
L 284.585 83.921515 
L 283.064719 83.921515 
z
" clip-path="url(#pcdd5f594fe)" style="fill: #1f77b4"/>
   </g>
   <g id="patch_147">
    <path d="M 284.585 224.64 
L 286.10528 224.64 
L 286.10528 75.438485 
L 284.585 75.438485 
z
" clip-path="url(#pcdd5f594fe)" style="fill: #1f77b4"/>
   </g>
   <g id="patch_148">
    <path d="M 286.10528 224.64 
L 287.625561 224.64 
L 287.625561 70.94747 
L 286.10528 70.94747 
z
" clip-path="url(#pcdd5f594fe)" style="fill: #1f77b4"/>
   </g>
   <g id="patch_149">
    <path d="M 287.625561 224.64 
L 289.145842 224.64 
L 289.145842 80.927504 
L 287.625561 80.927504 
z
" clip-path="url(#pcdd5f594fe)" style="fill: #1f77b4"/>
   </g>
   <g id="patch_150">
    <path d="M 289.145842 224.64 
L 290.666122 224.64 
L 290.666122 76.436489 
L 289.145842 76.436489 
z
" clip-path="url(#pcdd5f594fe)" style="fill: #1f77b4"/>
   </g>
   <g id="patch_151">
    <path d="M 290.666122 224.64 
L 292.186403 224.64 
L 292.186403 73.442478 
L 290.666122 73.442478 
z
" clip-path="url(#pcdd5f594fe)" style="fill: #1f77b4"/>
   </g>
   <g id="patch_152">
    <path d="M 292.186403 224.64 
L 293.706684 224.64 
L 293.706684 72.943477 
L 292.186403 72.943477 
z
" clip-path="url(#pcdd5f594fe)" style="fill: #1f77b4"/>
   </g>
   <g id="patch_153">
    <path d="M 293.706684 224.64 
L 295.226964 224.64 
L 295.226964 76.436489 
L 293.706684 76.436489 
z
" clip-path="url(#pcdd5f594fe)" style="fill: #1f77b4"/>
   </g>
   <g id="patch_154">
    <path d="M 295.226964 224.64 
L 296.747245 224.64 
L 296.747245 89.410534 
L 295.226964 89.410534 
z
" clip-path="url(#pcdd5f594fe)" style="fill: #1f77b4"/>
   </g>
   <g id="patch_155">
    <path d="M 296.747245 224.64 
L 298.267525 224.64 
L 298.267525 79.929501 
L 296.747245 79.929501 
z
" clip-path="url(#pcdd5f594fe)" style="fill: #1f77b4"/>
   </g>
   <g id="patch_156">
    <path d="M 298.267525 224.64 
L 299.787806 224.64 
L 299.787806 76.935491 
L 298.267525 76.935491 
z
" clip-path="url(#pcdd5f594fe)" style="fill: #1f77b4"/>
   </g>
   <g id="patch_157">
    <path d="M 299.787806 224.64 
L 301.308087 224.64 
L 301.308087 87.913528 
L 299.787806 87.913528 
z
" clip-path="url(#pcdd5f594fe)" style="fill: #1f77b4"/>
   </g>
   <g id="patch_158">
    <path d="M 301.308087 224.64 
L 302.828367 224.64 
L 302.828367 67.454458 
L 301.308087 67.454458 
z
" clip-path="url(#pcdd5f594fe)" style="fill: #1f77b4"/>
   </g>
   <g id="patch_159">
    <path d="M 302.828367 224.64 
L 304.348648 224.64 
L 304.348648 78.931497 
L 302.828367 78.931497 
z
" clip-path="url(#pcdd5f594fe)" style="fill: #1f77b4"/>
   </g>
   <g id="patch_160">
    <path d="M 304.348648 224.64 
L 305.868928 224.64 
L 305.868928 60.967435 
L 304.348648 60.967435 
z
" clip-path="url(#pcdd5f594fe)" style="fill: #1f77b4"/>
   </g>
   <g id="patch_161">
    <path d="M 305.868928 224.64 
L 307.389209 224.64 
L 307.389209 65.458451 
L 305.868928 65.458451 
z
" clip-path="url(#pcdd5f594fe)" style="fill: #1f77b4"/>
   </g>
   <g id="patch_162">
    <path d="M 307.389209 224.64 
L 308.90949 224.64 
L 308.90949 74.939484 
L 307.389209 74.939484 
z
" clip-path="url(#pcdd5f594fe)" style="fill: #1f77b4"/>
   </g>
   <g id="patch_163">
    <path d="M 308.90949 224.64 
L 310.42977 224.64 
L 310.42977 57.474423 
L 308.90949 57.474423 
z
" clip-path="url(#pcdd5f594fe)" style="fill: #1f77b4"/>
   </g>
   <g id="patch_164">
    <path d="M 310.42977 224.64 
L 311.950051 224.64 
L 311.950051 49.989398 
L 310.42977 49.989398 
z
" clip-path="url(#pcdd5f594fe)" style="fill: #1f77b4"/>
   </g>
   <g id="patch_165">
    <path d="M 311.950051 224.64 
L 313.470331 224.64 
L 313.470331 58.971429 
L 311.950051 58.971429 
z
" clip-path="url(#pcdd5f594fe)" style="fill: #1f77b4"/>
   </g>
   <g id="patch_166">
    <path d="M 313.470331 224.64 
L 314.990612 224.64 
L 314.990612 64.959449 
L 313.470331 64.959449 
z
" clip-path="url(#pcdd5f594fe)" style="fill: #1f77b4"/>
   </g>
   <g id="patch_167">
    <path d="M 314.990612 224.64 
L 316.510893 224.64 
L 316.510893 71.446472 
L 314.990612 71.446472 
z
" clip-path="url(#pcdd5f594fe)" style="fill: #1f77b4"/>
   </g>
   <g id="patch_168">
    <path d="M 316.510893 224.64 
L 318.031173 224.64 
L 318.031173 53.981411 
L 316.510893 53.981411 
z
" clip-path="url(#pcdd5f594fe)" style="fill: #1f77b4"/>
   </g>
   <g id="patch_169">
    <path d="M 318.031173 224.64 
L 319.551454 224.64 
L 319.551454 43.003373 
L 318.031173 43.003373 
z
" clip-path="url(#pcdd5f594fe)" style="fill: #1f77b4"/>
   </g>
   <g id="patch_170">
    <path d="M 319.551454 224.64 
L 321.071734 224.64 
L 321.071734 61.965439 
L 319.551454 61.965439 
z
" clip-path="url(#pcdd5f594fe)" style="fill: #1f77b4"/>
   </g>
   <g id="patch_171">
    <path d="M 321.071734 224.64 
L 322.592015 224.64 
L 322.592015 58.971429 
L 321.071734 58.971429 
z
" clip-path="url(#pcdd5f594fe)" style="fill: #1f77b4"/>
   </g>
   <g id="patch_172">
    <path d="M 322.592015 224.64 
L 324.112296 224.64 
L 324.112296 48.991394 
L 322.592015 48.991394 
z
" clip-path="url(#pcdd5f594fe)" style="fill: #1f77b4"/>
   </g>
   <g id="patch_173">
    <path d="M 324.112296 224.64 
L 325.632576 224.64 
L 325.632576 58.472427 
L 324.112296 58.472427 
z
" clip-path="url(#pcdd5f594fe)" style="fill: #1f77b4"/>
   </g>
   <g id="patch_174">
    <path d="M 325.632576 224.64 
L 327.152857 224.64 
L 327.152857 60.967435 
L 325.632576 60.967435 
z
" clip-path="url(#pcdd5f594fe)" style="fill: #1f77b4"/>
   </g>
   <g id="patch_175">
    <path d="M 327.152857 224.64 
L 328.673138 224.64 
L 328.673138 49.490396 
L 327.152857 49.490396 
z
" clip-path="url(#pcdd5f594fe)" style="fill: #1f77b4"/>
   </g>
   <g id="patch_176">
    <path d="M 328.673138 224.64 
L 330.193418 224.64 
L 330.193418 50.987401 
L 328.673138 50.987401 
z
" clip-path="url(#pcdd5f594fe)" style="fill: #1f77b4"/>
   </g>
   <g id="patch_177">
    <path d="M 330.193418 224.64 
L 331.713699 224.64 
L 331.713699 46.496386 
L 330.193418 46.496386 
z
" clip-path="url(#pcdd5f594fe)" style="fill: #1f77b4"/>
   </g>
   <g id="patch_178">
    <path d="M 331.713699 224.64 
L 333.233979 224.64 
L 333.233979 57.474423 
L 331.713699 57.474423 
z
" clip-path="url(#pcdd5f594fe)" style="fill: #1f77b4"/>
   </g>
   <g id="patch_179">
    <path d="M 333.233979 224.64 
L 334.75426 224.64 
L 334.75426 46.496386 
L 333.233979 46.496386 
z
" clip-path="url(#pcdd5f594fe)" style="fill: #1f77b4"/>
   </g>
   <g id="patch_180">
    <path d="M 334.75426 224.64 
L 336.274541 224.64 
L 336.274541 34.520344 
L 334.75426 34.520344 
z
" clip-path="url(#pcdd5f594fe)" style="fill: #1f77b4"/>
   </g>
   <g id="patch_181">
    <path d="M 336.274541 224.64 
L 337.794821 224.64 
L 337.794821 48.492392 
L 336.274541 48.492392 
z
" clip-path="url(#pcdd5f594fe)" style="fill: #1f77b4"/>
   </g>
   <g id="patch_182">
    <path d="M 337.794821 224.64 
L 339.315102 224.64 
L 339.315102 44.99938 
L 337.794821 44.99938 
z
" clip-path="url(#pcdd5f594fe)" style="fill: #1f77b4"/>
   </g>
   <g id="patch_183">
    <path d="M 339.315102 224.64 
L 340.835382 224.64 
L 340.835382 37.015353 
L 339.315102 37.015353 
z
" clip-path="url(#pcdd5f594fe)" style="fill: #1f77b4"/>
   </g>
   <g id="patch_184">
    <path d="M 340.835382 224.64 
L 342.355663 224.64 
L 342.355663 38.512358 
L 340.835382 38.512358 
z
" clip-path="url(#pcdd5f594fe)" style="fill: #1f77b4"/>
   </g>
   <g id="patch_185">
    <path d="M 342.355663 224.64 
L 343.875944 224.64 
L 343.875944 44.001377 
L 342.355663 44.001377 
z
" clip-path="url(#pcdd5f594fe)" style="fill: #1f77b4"/>
   </g>
   <g id="patch_186">
    <path d="M 343.875944 224.64 
L 345.396224 224.64 
L 345.396224 57.474423 
L 343.875944 57.474423 
z
" clip-path="url(#pcdd5f594fe)" style="fill: #1f77b4"/>
   </g>
   <g id="patch_187">
    <path d="M 345.396224 224.64 
L 346.916505 224.64 
L 346.916505 29.031325 
L 345.396224 29.031325 
z
" clip-path="url(#pcdd5f594fe)" style="fill: #1f77b4"/>
   </g>
   <g id="patch_188">
    <path d="M 346.916505 224.64 
L 348.436785 224.64 
L 348.436785 45.498382 
L 346.916505 45.498382 
z
" clip-path="url(#pcdd5f594fe)" style="fill: #1f77b4"/>
   </g>
   <g id="patch_189">
    <path d="M 348.436785 224.64 
L 349.957066 224.64 
L 349.957066 47.494389 
L 348.436785 47.494389 
z
" clip-path="url(#pcdd5f594fe)" style="fill: #1f77b4"/>
   </g>
   <g id="patch_190">
    <path d="M 349.957066 224.64 
L 351.477347 224.64 
L 351.477347 28.033322 
L 349.957066 28.033322 
z
" clip-path="url(#pcdd5f594fe)" style="fill: #1f77b4"/>
   </g>
   <g id="patch_191">
    <path d="M 351.477347 224.64 
L 352.997627 224.64 
L 352.997627 50.488399 
L 351.477347 50.488399 
z
" clip-path="url(#pcdd5f594fe)" style="fill: #1f77b4"/>
   </g>
   <g id="patch_192">
    <path d="M 352.997627 224.64 
L 354.517908 224.64 
L 354.517908 45.498382 
L 352.997627 45.498382 
z
" clip-path="url(#pcdd5f594fe)" style="fill: #1f77b4"/>
   </g>
   <g id="patch_193">
    <path d="M 354.517908 224.64 
L 356.038188 224.64 
L 356.038188 38.013356 
L 354.517908 38.013356 
z
" clip-path="url(#pcdd5f594fe)" style="fill: #1f77b4"/>
   </g>
   <g id="patch_194">
    <path d="M 356.038188 224.64 
L 357.558469 224.64 
L 357.558469 26.037315 
L 356.038188 26.037315 
z
" clip-path="url(#pcdd5f594fe)" style="fill: #1f77b4"/>
   </g>
   <g id="patch_195">
    <path d="M 357.558469 224.64 
L 359.07875 224.64 
L 359.07875 40.009363 
L 357.558469 40.009363 
z
" clip-path="url(#pcdd5f594fe)" style="fill: #1f77b4"/>
   </g>
   <g id="patch_196">
    <path d="M 359.07875 224.64 
L 360.59903 224.64 
L 360.59903 19.051291 
L 359.07875 19.051291 
z
" clip-path="url(#pcdd5f594fe)" style="fill: #1f77b4"/>
   </g>
   <g id="patch_197">
    <path d="M 360.59903 224.64 
L 362.119311 224.64 
L 362.119311 17.554286 
L 360.59903 17.554286 
z
" clip-path="url(#pcdd5f594fe)" style="fill: #1f77b4"/>
   </g>
   <g id="patch_198">
    <path d="M 362.119311 224.64 
L 363.639591 224.64 
L 363.639591 36.017349 
L 362.119311 36.017349 
z
" clip-path="url(#pcdd5f594fe)" style="fill: #1f77b4"/>
   </g>
   <g id="patch_199">
    <path d="M 363.639591 224.64 
L 365.159872 224.64 
L 365.159872 18.053287 
L 363.639591 18.053287 
z
" clip-path="url(#pcdd5f594fe)" style="fill: #1f77b4"/>
   </g>
   <g id="patch_200">
    <path d="M 365.159872 224.64 
L 366.680153 224.64 
L 366.680153 28.532324 
L 365.159872 28.532324 
z
" clip-path="url(#pcdd5f594fe)" style="fill: #1f77b4"/>
   </g>
   <g id="patch_201">
    <path d="M 366.680153 224.64 
L 368.200433 224.64 
L 368.200433 18.552289 
L 366.680153 18.552289 
z
" clip-path="url(#pcdd5f594fe)" style="fill: #1f77b4"/>
   </g>
   <g id="patch_202">
    <path d="M 368.200433 224.64 
L 369.720714 224.64 
L 369.720714 19.051291 
L 368.200433 19.051291 
z
" clip-path="url(#pcdd5f594fe)" style="fill: #1f77b4"/>
   </g>
   <g id="matplotlib.axis_1">
    <g id="xtick_1">
     <g id="line2d_1">
      <defs>
       <path id="m40b69c5176" d="M 0 0 
L 0 3.5 
" style="stroke: #000000; stroke-width: 0.8"/>
      </defs>
      <g>
       <use xlink:href="#m40b69c5176" x="65.361932" y="224.64" style="stroke: #000000; stroke-width: 0.8"/>
      </g>
     </g>
     <g id="text_1">
      <!-- 0.0 -->
      <g transform="translate(57.410369 239.238438)scale(0.1 -0.1)">
       <defs>
        <path id="DejaVuSans-30" d="M 2034 4250 
Q 1547 4250 1301 3770 
Q 1056 3291 1056 2328 
Q 1056 1369 1301 889 
Q 1547 409 2034 409 
Q 2525 409 2770 889 
Q 3016 1369 3016 2328 
Q 3016 3291 2770 3770 
Q 2525 4250 2034 4250 
z
M 2034 4750 
Q 2819 4750 3233 4129 
Q 3647 3509 3647 2328 
Q 3647 1150 3233 529 
Q 2819 -91 2034 -91 
Q 1250 -91 836 529 
Q 422 1150 422 2328 
Q 422 3509 836 4129 
Q 1250 4750 2034 4750 
z
" transform="scale(0.015625)"/>
        <path id="DejaVuSans-2e" d="M 684 794 
L 1344 794 
L 1344 0 
L 684 0 
L 684 794 
z
" transform="scale(0.015625)"/>
       </defs>
       <use xlink:href="#DejaVuSans-30"/>
       <use xlink:href="#DejaVuSans-2e" x="63.623047"/>
       <use xlink:href="#DejaVuSans-30" x="95.410156"/>
      </g>
     </g>
    </g>
    <g id="xtick_2">
     <g id="line2d_2">
      <g>
       <use xlink:href="#m40b69c5176" x="126.234659" y="224.64" style="stroke: #000000; stroke-width: 0.8"/>
      </g>
     </g>
     <g id="text_2">
      <!-- 0.2 -->
      <g transform="translate(118.283097 239.238438)scale(0.1 -0.1)">
       <defs>
        <path id="DejaVuSans-32" d="M 1228 531 
L 3431 531 
L 3431 0 
L 469 0 
L 469 531 
Q 828 903 1448 1529 
Q 2069 2156 2228 2338 
Q 2531 2678 2651 2914 
Q 2772 3150 2772 3378 
Q 2772 3750 2511 3984 
Q 2250 4219 1831 4219 
Q 1534 4219 1204 4116 
Q 875 4013 500 3803 
L 500 4441 
Q 881 4594 1212 4672 
Q 1544 4750 1819 4750 
Q 2544 4750 2975 4387 
Q 3406 4025 3406 3419 
Q 3406 3131 3298 2873 
Q 3191 2616 2906 2266 
Q 2828 2175 2409 1742 
Q 1991 1309 1228 531 
z
" transform="scale(0.015625)"/>
       </defs>
       <use xlink:href="#DejaVuSans-30"/>
       <use xlink:href="#DejaVuSans-2e" x="63.623047"/>
       <use xlink:href="#DejaVuSans-32" x="95.410156"/>
      </g>
     </g>
    </g>
    <g id="xtick_3">
     <g id="line2d_3">
      <g>
       <use xlink:href="#m40b69c5176" x="187.107386" y="224.64" style="stroke: #000000; stroke-width: 0.8"/>
      </g>
     </g>
     <g id="text_3">
      <!-- 0.4 -->
      <g transform="translate(179.155824 239.238438)scale(0.1 -0.1)">
       <defs>
        <path id="DejaVuSans-34" d="M 2419 4116 
L 825 1625 
L 2419 1625 
L 2419 4116 
z
M 2253 4666 
L 3047 4666 
L 3047 1625 
L 3713 1625 
L 3713 1100 
L 3047 1100 
L 3047 0 
L 2419 0 
L 2419 1100 
L 313 1100 
L 313 1709 
L 2253 4666 
z
" transform="scale(0.015625)"/>
       </defs>
       <use xlink:href="#DejaVuSans-30"/>
       <use xlink:href="#DejaVuSans-2e" x="63.623047"/>
       <use xlink:href="#DejaVuSans-34" x="95.410156"/>
      </g>
     </g>
    </g>
    <g id="xtick_4">
     <g id="line2d_4">
      <g>
       <use xlink:href="#m40b69c5176" x="247.980114" y="224.64" style="stroke: #000000; stroke-width: 0.8"/>
      </g>
     </g>
     <g id="text_4">
      <!-- 0.6 -->
      <g transform="translate(240.028551 239.238438)scale(0.1 -0.1)">
       <defs>
        <path id="DejaVuSans-36" d="M 2113 2584 
Q 1688 2584 1439 2293 
Q 1191 2003 1191 1497 
Q 1191 994 1439 701 
Q 1688 409 2113 409 
Q 2538 409 2786 701 
Q 3034 994 3034 1497 
Q 3034 2003 2786 2293 
Q 2538 2584 2113 2584 
z
M 3366 4563 
L 3366 3988 
Q 3128 4100 2886 4159 
Q 2644 4219 2406 4219 
Q 1781 4219 1451 3797 
Q 1122 3375 1075 2522 
Q 1259 2794 1537 2939 
Q 1816 3084 2150 3084 
Q 2853 3084 3261 2657 
Q 3669 2231 3669 1497 
Q 3669 778 3244 343 
Q 2819 -91 2113 -91 
Q 1303 -91 875 529 
Q 447 1150 447 2328 
Q 447 3434 972 4092 
Q 1497 4750 2381 4750 
Q 2619 4750 2861 4703 
Q 3103 4656 3366 4563 
z
" transform="scale(0.015625)"/>
       </defs>
       <use xlink:href="#DejaVuSans-30"/>
       <use xlink:href="#DejaVuSans-2e" x="63.623047"/>
       <use xlink:href="#DejaVuSans-36" x="95.410156"/>
      </g>
     </g>
    </g>
    <g id="xtick_5">
     <g id="line2d_5">
      <g>
       <use xlink:href="#m40b69c5176" x="308.852841" y="224.64" style="stroke: #000000; stroke-width: 0.8"/>
      </g>
     </g>
     <g id="text_5">
      <!-- 0.8 -->
      <g transform="translate(300.901278 239.238438)scale(0.1 -0.1)">
       <defs>
        <path id="DejaVuSans-38" d="M 2034 2216 
Q 1584 2216 1326 1975 
Q 1069 1734 1069 1313 
Q 1069 891 1326 650 
Q 1584 409 2034 409 
Q 2484 409 2743 651 
Q 3003 894 3003 1313 
Q 3003 1734 2745 1975 
Q 2488 2216 2034 2216 
z
M 1403 2484 
Q 997 2584 770 2862 
Q 544 3141 544 3541 
Q 544 4100 942 4425 
Q 1341 4750 2034 4750 
Q 2731 4750 3128 4425 
Q 3525 4100 3525 3541 
Q 3525 3141 3298 2862 
Q 3072 2584 2669 2484 
Q 3125 2378 3379 2068 
Q 3634 1759 3634 1313 
Q 3634 634 3220 271 
Q 2806 -91 2034 -91 
Q 1263 -91 848 271 
Q 434 634 434 1313 
Q 434 1759 690 2068 
Q 947 2378 1403 2484 
z
M 1172 3481 
Q 1172 3119 1398 2916 
Q 1625 2713 2034 2713 
Q 2441 2713 2670 2916 
Q 2900 3119 2900 3481 
Q 2900 3844 2670 4047 
Q 2441 4250 2034 4250 
Q 1625 4250 1398 4047 
Q 1172 3844 1172 3481 
z
" transform="scale(0.015625)"/>
       </defs>
       <use xlink:href="#DejaVuSans-30"/>
       <use xlink:href="#DejaVuSans-2e" x="63.623047"/>
       <use xlink:href="#DejaVuSans-38" x="95.410156"/>
      </g>
     </g>
    </g>
    <g id="xtick_6">
     <g id="line2d_6">
      <g>
       <use xlink:href="#m40b69c5176" x="369.725568" y="224.64" style="stroke: #000000; stroke-width: 0.8"/>
      </g>
     </g>
     <g id="text_6">
      <!-- 1.0 -->
      <g transform="translate(361.774006 239.238438)scale(0.1 -0.1)">
       <defs>
        <path id="DejaVuSans-31" d="M 794 531 
L 1825 531 
L 1825 4091 
L 703 3866 
L 703 4441 
L 1819 4666 
L 2450 4666 
L 2450 531 
L 3481 531 
L 3481 0 
L 794 0 
L 794 531 
z
" transform="scale(0.015625)"/>
       </defs>
       <use xlink:href="#DejaVuSans-31"/>
       <use xlink:href="#DejaVuSans-2e" x="63.623047"/>
       <use xlink:href="#DejaVuSans-30" x="95.410156"/>
      </g>
     </g>
    </g>
    <g id="text_7">
     <!-- Propagation direction -->
     <g transform="translate(164.061719 252.916563)scale(0.1 -0.1)">
      <defs>
       <path id="DejaVuSans-50" d="M 1259 4147 
L 1259 2394 
L 2053 2394 
Q 2494 2394 2734 2622 
Q 2975 2850 2975 3272 
Q 2975 3691 2734 3919 
Q 2494 4147 2053 4147 
L 1259 4147 
z
M 628 4666 
L 2053 4666 
Q 2838 4666 3239 4311 
Q 3641 3956 3641 3272 
Q 3641 2581 3239 2228 
Q 2838 1875 2053 1875 
L 1259 1875 
L 1259 0 
L 628 0 
L 628 4666 
z
" transform="scale(0.015625)"/>
       <path id="DejaVuSans-72" d="M 2631 2963 
Q 2534 3019 2420 3045 
Q 2306 3072 2169 3072 
Q 1681 3072 1420 2755 
Q 1159 2438 1159 1844 
L 1159 0 
L 581 0 
L 581 3500 
L 1159 3500 
L 1159 2956 
Q 1341 3275 1631 3429 
Q 1922 3584 2338 3584 
Q 2397 3584 2469 3576 
Q 2541 3569 2628 3553 
L 2631 2963 
z
" transform="scale(0.015625)"/>
       <path id="DejaVuSans-6f" d="M 1959 3097 
Q 1497 3097 1228 2736 
Q 959 2375 959 1747 
Q 959 1119 1226 758 
Q 1494 397 1959 397 
Q 2419 397 2687 759 
Q 2956 1122 2956 1747 
Q 2956 2369 2687 2733 
Q 2419 3097 1959 3097 
z
M 1959 3584 
Q 2709 3584 3137 3096 
Q 3566 2609 3566 1747 
Q 3566 888 3137 398 
Q 2709 -91 1959 -91 
Q 1206 -91 779 398 
Q 353 888 353 1747 
Q 353 2609 779 3096 
Q 1206 3584 1959 3584 
z
" transform="scale(0.015625)"/>
       <path id="DejaVuSans-70" d="M 1159 525 
L 1159 -1331 
L 581 -1331 
L 581 3500 
L 1159 3500 
L 1159 2969 
Q 1341 3281 1617 3432 
Q 1894 3584 2278 3584 
Q 2916 3584 3314 3078 
Q 3713 2572 3713 1747 
Q 3713 922 3314 415 
Q 2916 -91 2278 -91 
Q 1894 -91 1617 61 
Q 1341 213 1159 525 
z
M 3116 1747 
Q 3116 2381 2855 2742 
Q 2594 3103 2138 3103 
Q 1681 3103 1420 2742 
Q 1159 2381 1159 1747 
Q 1159 1113 1420 752 
Q 1681 391 2138 391 
Q 2594 391 2855 752 
Q 3116 1113 3116 1747 
z
" transform="scale(0.015625)"/>
       <path id="DejaVuSans-61" d="M 2194 1759 
Q 1497 1759 1228 1600 
Q 959 1441 959 1056 
Q 959 750 1161 570 
Q 1363 391 1709 391 
Q 2188 391 2477 730 
Q 2766 1069 2766 1631 
L 2766 1759 
L 2194 1759 
z
M 3341 1997 
L 3341 0 
L 2766 0 
L 2766 531 
Q 2569 213 2275 61 
Q 1981 -91 1556 -91 
Q 1019 -91 701 211 
Q 384 513 384 1019 
Q 384 1609 779 1909 
Q 1175 2209 1959 2209 
L 2766 2209 
L 2766 2266 
Q 2766 2663 2505 2880 
Q 2244 3097 1772 3097 
Q 1472 3097 1187 3025 
Q 903 2953 641 2809 
L 641 3341 
Q 956 3463 1253 3523 
Q 1550 3584 1831 3584 
Q 2591 3584 2966 3190 
Q 3341 2797 3341 1997 
z
" transform="scale(0.015625)"/>
       <path id="DejaVuSans-67" d="M 2906 1791 
Q 2906 2416 2648 2759 
Q 2391 3103 1925 3103 
Q 1463 3103 1205 2759 
Q 947 2416 947 1791 
Q 947 1169 1205 825 
Q 1463 481 1925 481 
Q 2391 481 2648 825 
Q 2906 1169 2906 1791 
z
M 3481 434 
Q 3481 -459 3084 -895 
Q 2688 -1331 1869 -1331 
Q 1566 -1331 1297 -1286 
Q 1028 -1241 775 -1147 
L 775 -588 
Q 1028 -725 1275 -790 
Q 1522 -856 1778 -856 
Q 2344 -856 2625 -561 
Q 2906 -266 2906 331 
L 2906 616 
Q 2728 306 2450 153 
Q 2172 0 1784 0 
Q 1141 0 747 490 
Q 353 981 353 1791 
Q 353 2603 747 3093 
Q 1141 3584 1784 3584 
Q 2172 3584 2450 3431 
Q 2728 3278 2906 2969 
L 2906 3500 
L 3481 3500 
L 3481 434 
z
" transform="scale(0.015625)"/>
       <path id="DejaVuSans-74" d="M 1172 4494 
L 1172 3500 
L 2356 3500 
L 2356 3053 
L 1172 3053 
L 1172 1153 
Q 1172 725 1289 603 
Q 1406 481 1766 481 
L 2356 481 
L 2356 0 
L 1766 0 
Q 1100 0 847 248 
Q 594 497 594 1153 
L 594 3053 
L 172 3053 
L 172 3500 
L 594 3500 
L 594 4494 
L 1172 4494 
z
" transform="scale(0.015625)"/>
       <path id="DejaVuSans-69" d="M 603 3500 
L 1178 3500 
L 1178 0 
L 603 0 
L 603 3500 
z
M 603 4863 
L 1178 4863 
L 1178 4134 
L 603 4134 
L 603 4863 
z
" transform="scale(0.015625)"/>
       <path id="DejaVuSans-6e" d="M 3513 2113 
L 3513 0 
L 2938 0 
L 2938 2094 
Q 2938 2591 2744 2837 
Q 2550 3084 2163 3084 
Q 1697 3084 1428 2787 
Q 1159 2491 1159 1978 
L 1159 0 
L 581 0 
L 581 3500 
L 1159 3500 
L 1159 2956 
Q 1366 3272 1645 3428 
Q 1925 3584 2291 3584 
Q 2894 3584 3203 3211 
Q 3513 2838 3513 2113 
z
" transform="scale(0.015625)"/>
       <path id="DejaVuSans-20" transform="scale(0.015625)"/>
       <path id="DejaVuSans-64" d="M 2906 2969 
L 2906 4863 
L 3481 4863 
L 3481 0 
L 2906 0 
L 2906 525 
Q 2725 213 2448 61 
Q 2172 -91 1784 -91 
Q 1150 -91 751 415 
Q 353 922 353 1747 
Q 353 2572 751 3078 
Q 1150 3584 1784 3584 
Q 2172 3584 2448 3432 
Q 2725 3281 2906 2969 
z
M 947 1747 
Q 947 1113 1208 752 
Q 1469 391 1925 391 
Q 2381 391 2643 752 
Q 2906 1113 2906 1747 
Q 2906 2381 2643 2742 
Q 2381 3103 1925 3103 
Q 1469 3103 1208 2742 
Q 947 2381 947 1747 
z
" transform="scale(0.015625)"/>
       <path id="DejaVuSans-65" d="M 3597 1894 
L 3597 1613 
L 953 1613 
Q 991 1019 1311 708 
Q 1631 397 2203 397 
Q 2534 397 2845 478 
Q 3156 559 3463 722 
L 3463 178 
Q 3153 47 2828 -22 
Q 2503 -91 2169 -91 
Q 1331 -91 842 396 
Q 353 884 353 1716 
Q 353 2575 817 3079 
Q 1281 3584 2069 3584 
Q 2775 3584 3186 3129 
Q 3597 2675 3597 1894 
z
M 3022 2063 
Q 3016 2534 2758 2815 
Q 2500 3097 2075 3097 
Q 1594 3097 1305 2825 
Q 1016 2553 972 2059 
L 3022 2063 
z
" transform="scale(0.015625)"/>
       <path id="DejaVuSans-63" d="M 3122 3366 
L 3122 2828 
Q 2878 2963 2633 3030 
Q 2388 3097 2138 3097 
Q 1578 3097 1268 2742 
Q 959 2388 959 1747 
Q 959 1106 1268 751 
Q 1578 397 2138 397 
Q 2388 397 2633 464 
Q 2878 531 3122 666 
L 3122 134 
Q 2881 22 2623 -34 
Q 2366 -91 2075 -91 
Q 1284 -91 818 406 
Q 353 903 353 1747 
Q 353 2603 823 3093 
Q 1294 3584 2113 3584 
Q 2378 3584 2631 3529 
Q 2884 3475 3122 3366 
z
" transform="scale(0.015625)"/>
      </defs>
      <use xlink:href="#DejaVuSans-50"/>
      <use xlink:href="#DejaVuSans-72" x="58.552734"/>
      <use xlink:href="#DejaVuSans-6f" x="97.416016"/>
      <use xlink:href="#DejaVuSans-70" x="158.597656"/>
      <use xlink:href="#DejaVuSans-61" x="222.074219"/>
      <use xlink:href="#DejaVuSans-67" x="283.353516"/>
      <use xlink:href="#DejaVuSans-61" x="346.830078"/>
      <use xlink:href="#DejaVuSans-74" x="408.109375"/>
      <use xlink:href="#DejaVuSans-69" x="447.318359"/>
      <use xlink:href="#DejaVuSans-6f" x="475.101562"/>
      <use xlink:href="#DejaVuSans-6e" x="536.283203"/>
      <use xlink:href="#DejaVuSans-20" x="599.662109"/>
      <use xlink:href="#DejaVuSans-64" x="631.449219"/>
      <use xlink:href="#DejaVuSans-69" x="694.925781"/>
      <use xlink:href="#DejaVuSans-72" x="722.708984"/>
      <use xlink:href="#DejaVuSans-65" x="761.572266"/>
      <use xlink:href="#DejaVuSans-63" x="823.095703"/>
      <use xlink:href="#DejaVuSans-74" x="878.076172"/>
      <use xlink:href="#DejaVuSans-69" x="917.285156"/>
      <use xlink:href="#DejaVuSans-6f" x="945.068359"/>
      <use xlink:href="#DejaVuSans-6e" x="1006.25"/>
     </g>
    </g>
   </g>
   <g id="matplotlib.axis_2">
    <g id="ytick_1">
     <g id="line2d_7">
      <defs>
       <path id="m4c8cbb1f6b" d="M 0 0 
L -3.5 0 
" style="stroke: #000000; stroke-width: 0.8"/>
      </defs>
      <g>
       <use xlink:href="#m4c8cbb1f6b" x="50.14375" y="224.64" style="stroke: #000000; stroke-width: 0.8"/>
      </g>
     </g>
     <g id="text_8">
      <!-- 0.00 -->
      <g transform="translate(20.878125 228.439219)scale(0.1 -0.1)">
       <use xlink:href="#DejaVuSans-30"/>
       <use xlink:href="#DejaVuSans-2e" x="63.623047"/>
       <use xlink:href="#DejaVuSans-30" x="95.410156"/>
       <use xlink:href="#DejaVuSans-30" x="159.033203"/>
      </g>
     </g>
    </g>
    <g id="ytick_2">
     <g id="line2d_8">
      <g>
       <use xlink:href="#m4c8cbb1f6b" x="50.14375" y="199.715122" style="stroke: #000000; stroke-width: 0.8"/>
      </g>
     </g>
     <g id="text_9">
      <!-- 0.25 -->
      <g transform="translate(20.878125 203.514341)scale(0.1 -0.1)">
       <defs>
        <path id="DejaVuSans-35" d="M 691 4666 
L 3169 4666 
L 3169 4134 
L 1269 4134 
L 1269 2991 
Q 1406 3038 1543 3061 
Q 1681 3084 1819 3084 
Q 2600 3084 3056 2656 
Q 3513 2228 3513 1497 
Q 3513 744 3044 326 
Q 2575 -91 1722 -91 
Q 1428 -91 1123 -41 
Q 819 9 494 109 
L 494 744 
Q 775 591 1075 516 
Q 1375 441 1709 441 
Q 2250 441 2565 725 
Q 2881 1009 2881 1497 
Q 2881 1984 2565 2268 
Q 2250 2553 1709 2553 
Q 1456 2553 1204 2497 
Q 953 2441 691 2322 
L 691 4666 
z
" transform="scale(0.015625)"/>
       </defs>
       <use xlink:href="#DejaVuSans-30"/>
       <use xlink:href="#DejaVuSans-2e" x="63.623047"/>
       <use xlink:href="#DejaVuSans-32" x="95.410156"/>
       <use xlink:href="#DejaVuSans-35" x="159.033203"/>
      </g>
     </g>
    </g>
    <g id="ytick_3">
     <g id="line2d_9">
      <g>
       <use xlink:href="#m4c8cbb1f6b" x="50.14375" y="174.790245" style="stroke: #000000; stroke-width: 0.8"/>
      </g>
     </g>
     <g id="text_10">
      <!-- 0.50 -->
      <g transform="translate(20.878125 178.589463)scale(0.1 -0.1)">
       <use xlink:href="#DejaVuSans-30"/>
       <use xlink:href="#DejaVuSans-2e" x="63.623047"/>
       <use xlink:href="#DejaVuSans-35" x="95.410156"/>
       <use xlink:href="#DejaVuSans-30" x="159.033203"/>
      </g>
     </g>
    </g>
    <g id="ytick_4">
     <g id="line2d_10">
      <g>
       <use xlink:href="#m4c8cbb1f6b" x="50.14375" y="149.865367" style="stroke: #000000; stroke-width: 0.8"/>
      </g>
     </g>
     <g id="text_11">
      <!-- 0.75 -->
      <g transform="translate(20.878125 153.664586)scale(0.1 -0.1)">
       <defs>
        <path id="DejaVuSans-37" d="M 525 4666 
L 3525 4666 
L 3525 4397 
L 1831 0 
L 1172 0 
L 2766 4134 
L 525 4134 
L 525 4666 
z
" transform="scale(0.015625)"/>
       </defs>
       <use xlink:href="#DejaVuSans-30"/>
       <use xlink:href="#DejaVuSans-2e" x="63.623047"/>
       <use xlink:href="#DejaVuSans-37" x="95.410156"/>
       <use xlink:href="#DejaVuSans-35" x="159.033203"/>
      </g>
     </g>
    </g>
    <g id="ytick_5">
     <g id="line2d_11">
      <g>
       <use xlink:href="#m4c8cbb1f6b" x="50.14375" y="124.940489" style="stroke: #000000; stroke-width: 0.8"/>
      </g>
     </g>
     <g id="text_12">
      <!-- 1.00 -->
      <g transform="translate(20.878125 128.739708)scale(0.1 -0.1)">
       <use xlink:href="#DejaVuSans-31"/>
       <use xlink:href="#DejaVuSans-2e" x="63.623047"/>
       <use xlink:href="#DejaVuSans-30" x="95.410156"/>
       <use xlink:href="#DejaVuSans-30" x="159.033203"/>
      </g>
     </g>
    </g>
    <g id="ytick_6">
     <g id="line2d_12">
      <g>
       <use xlink:href="#m4c8cbb1f6b" x="50.14375" y="100.015612" style="stroke: #000000; stroke-width: 0.8"/>
      </g>
     </g>
     <g id="text_13">
      <!-- 1.25 -->
      <g transform="translate(20.878125 103.81483)scale(0.1 -0.1)">
       <use xlink:href="#DejaVuSans-31"/>
       <use xlink:href="#DejaVuSans-2e" x="63.623047"/>
       <use xlink:href="#DejaVuSans-32" x="95.410156"/>
       <use xlink:href="#DejaVuSans-35" x="159.033203"/>
      </g>
     </g>
    </g>
    <g id="ytick_7">
     <g id="line2d_13">
      <g>
       <use xlink:href="#m4c8cbb1f6b" x="50.14375" y="75.090734" style="stroke: #000000; stroke-width: 0.8"/>
      </g>
     </g>
     <g id="text_14">
      <!-- 1.50 -->
      <g transform="translate(20.878125 78.889953)scale(0.1 -0.1)">
       <use xlink:href="#DejaVuSans-31"/>
       <use xlink:href="#DejaVuSans-2e" x="63.623047"/>
       <use xlink:href="#DejaVuSans-35" x="95.410156"/>
       <use xlink:href="#DejaVuSans-30" x="159.033203"/>
      </g>
     </g>
    </g>
    <g id="ytick_8">
     <g id="line2d_14">
      <g>
       <use xlink:href="#m4c8cbb1f6b" x="50.14375" y="50.165856" style="stroke: #000000; stroke-width: 0.8"/>
      </g>
     </g>
     <g id="text_15">
      <!-- 1.75 -->
      <g transform="translate(20.878125 53.965075)scale(0.1 -0.1)">
       <use xlink:href="#DejaVuSans-31"/>
       <use xlink:href="#DejaVuSans-2e" x="63.623047"/>
       <use xlink:href="#DejaVuSans-37" x="95.410156"/>
       <use xlink:href="#DejaVuSans-35" x="159.033203"/>
      </g>
     </g>
    </g>
    <g id="ytick_9">
     <g id="line2d_15">
      <g>
       <use xlink:href="#m4c8cbb1f6b" x="50.14375" y="25.240979" style="stroke: #000000; stroke-width: 0.8"/>
      </g>
     </g>
     <g id="text_16">
      <!-- 2.00 -->
      <g transform="translate(20.878125 29.040197)scale(0.1 -0.1)">
       <use xlink:href="#DejaVuSans-32"/>
       <use xlink:href="#DejaVuSans-2e" x="63.623047"/>
       <use xlink:href="#DejaVuSans-30" x="95.410156"/>
       <use xlink:href="#DejaVuSans-30" x="159.033203"/>
      </g>
     </g>
    </g>
    <g id="text_17">
     <!-- Probability density -->
     <g transform="translate(14.798438 162.270781)rotate(-90)scale(0.1 -0.1)">
      <defs>
       <path id="DejaVuSans-62" d="M 3116 1747 
Q 3116 2381 2855 2742 
Q 2594 3103 2138 3103 
Q 1681 3103 1420 2742 
Q 1159 2381 1159 1747 
Q 1159 1113 1420 752 
Q 1681 391 2138 391 
Q 2594 391 2855 752 
Q 3116 1113 3116 1747 
z
M 1159 2969 
Q 1341 3281 1617 3432 
Q 1894 3584 2278 3584 
Q 2916 3584 3314 3078 
Q 3713 2572 3713 1747 
Q 3713 922 3314 415 
Q 2916 -91 2278 -91 
Q 1894 -91 1617 61 
Q 1341 213 1159 525 
L 1159 0 
L 581 0 
L 581 4863 
L 1159 4863 
L 1159 2969 
z
" transform="scale(0.015625)"/>
       <path id="DejaVuSans-6c" d="M 603 4863 
L 1178 4863 
L 1178 0 
L 603 0 
L 603 4863 
z
" transform="scale(0.015625)"/>
       <path id="DejaVuSans-79" d="M 2059 -325 
Q 1816 -950 1584 -1140 
Q 1353 -1331 966 -1331 
L 506 -1331 
L 506 -850 
L 844 -850 
Q 1081 -850 1212 -737 
Q 1344 -625 1503 -206 
L 1606 56 
L 191 3500 
L 800 3500 
L 1894 763 
L 2988 3500 
L 3597 3500 
L 2059 -325 
z
" transform="scale(0.015625)"/>
       <path id="DejaVuSans-73" d="M 2834 3397 
L 2834 2853 
Q 2591 2978 2328 3040 
Q 2066 3103 1784 3103 
Q 1356 3103 1142 2972 
Q 928 2841 928 2578 
Q 928 2378 1081 2264 
Q 1234 2150 1697 2047 
L 1894 2003 
Q 2506 1872 2764 1633 
Q 3022 1394 3022 966 
Q 3022 478 2636 193 
Q 2250 -91 1575 -91 
Q 1294 -91 989 -36 
Q 684 19 347 128 
L 347 722 
Q 666 556 975 473 
Q 1284 391 1588 391 
Q 1994 391 2212 530 
Q 2431 669 2431 922 
Q 2431 1156 2273 1281 
Q 2116 1406 1581 1522 
L 1381 1569 
Q 847 1681 609 1914 
Q 372 2147 372 2553 
Q 372 3047 722 3315 
Q 1072 3584 1716 3584 
Q 2034 3584 2315 3537 
Q 2597 3491 2834 3397 
z
" transform="scale(0.015625)"/>
      </defs>
      <use xlink:href="#DejaVuSans-50"/>
      <use xlink:href="#DejaVuSans-72" x="58.552734"/>
      <use xlink:href="#DejaVuSans-6f" x="97.416016"/>
      <use xlink:href="#DejaVuSans-62" x="158.597656"/>
      <use xlink:href="#DejaVuSans-61" x="222.074219"/>
      <use xlink:href="#DejaVuSans-62" x="283.353516"/>
      <use xlink:href="#DejaVuSans-69" x="346.830078"/>
      <use xlink:href="#DejaVuSans-6c" x="374.613281"/>
      <use xlink:href="#DejaVuSans-69" x="402.396484"/>
      <use xlink:href="#DejaVuSans-74" x="430.179688"/>
      <use xlink:href="#DejaVuSans-79" x="469.388672"/>
      <use xlink:href="#DejaVuSans-20" x="528.568359"/>
      <use xlink:href="#DejaVuSans-64" x="560.355469"/>
      <use xlink:href="#DejaVuSans-65" x="623.832031"/>
      <use xlink:href="#DejaVuSans-6e" x="685.355469"/>
      <use xlink:href="#DejaVuSans-73" x="748.734375"/>
      <use xlink:href="#DejaVuSans-69" x="800.833984"/>
      <use xlink:href="#DejaVuSans-74" x="828.617188"/>
      <use xlink:href="#DejaVuSans-79" x="867.826172"/>
     </g>
    </g>
   </g>
   <g id="line2d_16">
    <path d="M 65.361932 224.64 
L 369.725568 25.240979 
L 369.725568 25.240979 
" clip-path="url(#pcdd5f594fe)" style="fill: none; stroke: #ff7f0e; stroke-width: 1.5; stroke-linecap: square"/>
   </g>
   <g id="patch_203">
    <path d="M 50.14375 224.64 
L 50.14375 7.2 
" style="fill: none; stroke: #000000; stroke-width: 0.8; stroke-linejoin: miter; stroke-linecap: square"/>
   </g>
   <g id="patch_204">
    <path d="M 384.94375 224.64 
L 384.94375 7.2 
" style="fill: none; stroke: #000000; stroke-width: 0.8; stroke-linejoin: miter; stroke-linecap: square"/>
   </g>
   <g id="patch_205">
    <path d="M 50.14375 224.64 
L 384.94375 224.64 
" style="fill: none; stroke: #000000; stroke-width: 0.8; stroke-linejoin: miter; stroke-linecap: square"/>
   </g>
   <g id="patch_206">
    <path d="M 50.14375 7.2 
L 384.94375 7.2 
" style="fill: none; stroke: #000000; stroke-width: 0.8; stroke-linejoin: miter; stroke-linecap: square"/>
   </g>
  </g>
 </g>
 <defs>
  <clipPath id="pcdd5f594fe">
   <rect x="50.14375" y="7.2" width="334.8" height="217.44"/>
  </clipPath>
 </defs>
</svg>
