<?xml version="1.0" encoding="utf-8" standalone="no"?>
<!DOCTYPE svg PUBLIC "-//W3C//DTD SVG 1.1//EN"
  "http://www.w3.org/Graphics/SVG/1.1/DTD/svg11.dtd">
<svg xmlns:xlink="http://www.w3.org/1999/xlink" width="392.14375pt" height="262.19625pt" viewBox="0 0 392.14375 262.19625" xmlns="http://www.w3.org/2000/svg" version="1.1">
 <metadata>
  <rdf:RDF xmlns:dc="http://purl.org/dc/elements/1.1/" xmlns:cc="http://creativecommons.org/ns#" xmlns:rdf="http://www.w3.org/1999/02/22-rdf-syntax-ns#">
   <cc:Work>
    <dc:type rdf:resource="http://purl.org/dc/dcmitype/StillImage"/>
    <dc:date>2022-07-26T04:18:04.811702</dc:date>
    <dc:format>image/svg+xml</dc:format>
    <dc:creator>
     <cc:Agent>
      <dc:title>Matplotlib v3.5.2, https://matplotlib.org/</dc:title>
     </cc:Agent>
    </dc:creator>
   </cc:Work>
  </rdf:RDF>
 </metadata>
 <defs>
  <style type="text/css">*{stroke-linejoin: round; stroke-linecap: butt}</style>
 </defs>
 <g id="figure_1">
  <g id="patch_1">
   <path d="M 0 262.19625 
L 392.14375 262.19625 
L 392.14375 0 
L 0 0 
L 0 262.19625 
z
" style="fill: none"/>
  </g>
  <g id="axes_1">
   <g id="patch_2">
    <path d="M 50.14375 224.64 
L 384.94375 224.64 
L 384.94375 7.2 
L 50.14375 7.2 
z
" style="fill: #ffffff"/>
   </g>
   <g id="patch_3">
    <path d="M 65.974532 224.64 
L 67.493271 224.64 
L 67.493271 223.663181 
L 65.974532 223.663181 
z
" clip-path="url(#pd610750681)" style="fill: #1f77b4"/>
   </g>
   <g id="patch_4">
    <path d="M 67.493271 224.64 
L 69.01201 224.64 
L 69.01201 223.174771 
L 67.493271 223.174771 
z
" clip-path="url(#pd610750681)" style="fill: #1f77b4"/>
   </g>
   <g id="patch_5">
    <path d="M 69.01201 224.64 
L 70.53075 224.64 
L 70.53075 222.197951 
L 69.01201 222.197951 
z
" clip-path="url(#pd610750681)" style="fill: #1f77b4"/>
   </g>
   <g id="patch_6">
    <path d="M 70.53075 224.64 
L 72.049489 224.64 
L 72.049489 223.663181 
L 70.53075 223.663181 
z
" clip-path="url(#pd610750681)" style="fill: #1f77b4"/>
   </g>
   <g id="patch_7">
    <path d="M 72.049489 224.64 
L 73.568228 224.64 
L 73.568228 221.221132 
L 72.049489 221.221132 
z
" clip-path="url(#pd610750681)" style="fill: #1f77b4"/>
   </g>
   <g id="patch_8">
    <path d="M 73.568228 224.64 
L 75.086967 224.64 
L 75.086967 218.779084 
L 73.568228 218.779084 
z
" clip-path="url(#pd610750681)" style="fill: #1f77b4"/>
   </g>
   <g id="patch_9">
    <path d="M 75.086967 224.64 
L 76.605706 224.64 
L 76.605706 218.290674 
L 75.086967 218.290674 
z
" clip-path="url(#pd610750681)" style="fill: #1f77b4"/>
   </g>
   <g id="patch_10">
    <path d="M 76.605706 224.64 
L 78.124445 224.64 
L 78.124445 214.871806 
L 76.605706 214.871806 
z
" clip-path="url(#pd610750681)" style="fill: #1f77b4"/>
   </g>
   <g id="patch_11">
    <path d="M 78.124445 224.64 
L 79.643184 224.64 
L 79.643184 213.406577 
L 78.124445 213.406577 
z
" clip-path="url(#pd610750681)" style="fill: #1f77b4"/>
   </g>
   <g id="patch_12">
    <path d="M 79.643184 224.64 
L 81.161924 224.64 
L 81.161924 214.871806 
L 79.643184 214.871806 
z
" clip-path="url(#pd610750681)" style="fill: #1f77b4"/>
   </g>
   <g id="patch_13">
    <path d="M 81.161924 224.64 
L 82.680663 224.64 
L 82.680663 213.406577 
L 81.161924 213.406577 
z
" clip-path="url(#pd610750681)" style="fill: #1f77b4"/>
   </g>
   <g id="patch_14">
    <path d="M 82.680663 224.64 
L 84.199402 224.64 
L 84.199402 212.918167 
L 82.680663 212.918167 
z
" clip-path="url(#pd610750681)" style="fill: #1f77b4"/>
   </g>
   <g id="patch_15">
    <path d="M 84.199402 224.64 
L 85.718141 224.64 
L 85.718141 212.429757 
L 84.199402 212.429757 
z
" clip-path="url(#pd610750681)" style="fill: #1f77b4"/>
   </g>
   <g id="patch_16">
    <path d="M 85.718141 224.64 
L 87.23688 224.64 
L 87.23688 210.476119 
L 85.718141 210.476119 
z
" clip-path="url(#pd610750681)" style="fill: #1f77b4"/>
   </g>
   <g id="patch_17">
    <path d="M 87.23688 224.64 
L 88.755619 224.64 
L 88.755619 208.03407 
L 87.23688 208.03407 
z
" clip-path="url(#pd610750681)" style="fill: #1f77b4"/>
   </g>
   <g id="patch_18">
    <path d="M 88.755619 224.64 
L 90.274358 224.64 
L 90.274358 203.638383 
L 88.755619 203.638383 
z
" clip-path="url(#pd610750681)" style="fill: #1f77b4"/>
   </g>
   <g id="patch_19">
    <path d="M 90.274358 224.64 
L 91.793098 224.64 
L 91.793098 211.941348 
L 90.274358 211.941348 
z
" clip-path="url(#pd610750681)" style="fill: #1f77b4"/>
   </g>
   <g id="patch_20">
    <path d="M 91.793098 224.64 
L 93.311837 224.64 
L 93.311837 206.080431 
L 91.793098 206.080431 
z
" clip-path="url(#pd610750681)" style="fill: #1f77b4"/>
   </g>
   <g id="patch_21">
    <path d="M 93.311837 224.64 
L 94.830576 224.64 
L 94.830576 209.987709 
L 93.311837 209.987709 
z
" clip-path="url(#pd610750681)" style="fill: #1f77b4"/>
   </g>
   <g id="patch_22">
    <path d="M 94.830576 224.64 
L 96.349315 224.64 
L 96.349315 198.754286 
L 94.830576 198.754286 
z
" clip-path="url(#pd610750681)" style="fill: #1f77b4"/>
   </g>
   <g id="patch_23">
    <path d="M 96.349315 224.64 
L 97.868054 224.64 
L 97.868054 207.057251 
L 96.349315 207.057251 
z
" clip-path="url(#pd610750681)" style="fill: #1f77b4"/>
   </g>
   <g id="patch_24">
    <path d="M 97.868054 224.64 
L 99.386793 224.64 
L 99.386793 201.684744 
L 97.868054 201.684744 
z
" clip-path="url(#pd610750681)" style="fill: #1f77b4"/>
   </g>
   <g id="patch_25">
    <path d="M 99.386793 224.64 
L 100.905532 224.64 
L 100.905532 206.080431 
L 99.386793 206.080431 
z
" clip-path="url(#pd610750681)" style="fill: #1f77b4"/>
   </g>
   <g id="patch_26">
    <path d="M 100.905532 224.64 
L 102.424272 224.64 
L 102.424272 200.707925 
L 100.905532 200.707925 
z
" clip-path="url(#pd610750681)" style="fill: #1f77b4"/>
   </g>
   <g id="patch_27">
    <path d="M 102.424272 224.64 
L 103.943011 224.64 
L 103.943011 203.149973 
L 102.424272 203.149973 
z
" clip-path="url(#pd610750681)" style="fill: #1f77b4"/>
   </g>
   <g id="patch_28">
    <path d="M 103.943011 224.64 
L 105.46175 224.64 
L 105.46175 198.754286 
L 103.943011 198.754286 
z
" clip-path="url(#pd610750681)" style="fill: #1f77b4"/>
   </g>
   <g id="patch_29">
    <path d="M 105.46175 224.64 
L 106.980489 224.64 
L 106.980489 204.615202 
L 105.46175 204.615202 
z
" clip-path="url(#pd610750681)" style="fill: #1f77b4"/>
   </g>
   <g id="patch_30">
    <path d="M 106.980489 224.64 
L 108.499228 224.64 
L 108.499228 204.615202 
L 106.980489 204.615202 
z
" clip-path="url(#pd610750681)" style="fill: #1f77b4"/>
   </g>
   <g id="patch_31">
    <path d="M 108.499228 224.64 
L 110.017967 224.64 
L 110.017967 190.93973 
L 108.499228 190.93973 
z
" clip-path="url(#pd610750681)" style="fill: #1f77b4"/>
   </g>
   <g id="patch_32">
    <path d="M 110.017967 224.64 
L 111.536706 224.64 
L 111.536706 188.986092 
L 110.017967 188.986092 
z
" clip-path="url(#pd610750681)" style="fill: #1f77b4"/>
   </g>
   <g id="patch_33">
    <path d="M 111.536706 224.64 
L 113.055446 224.64 
L 113.055446 192.893369 
L 111.536706 192.893369 
z
" clip-path="url(#pd610750681)" style="fill: #1f77b4"/>
   </g>
   <g id="patch_34">
    <path d="M 113.055446 224.64 
L 114.574185 224.64 
L 114.574185 197.289057 
L 113.055446 197.289057 
z
" clip-path="url(#pd610750681)" style="fill: #1f77b4"/>
   </g>
   <g id="patch_35">
    <path d="M 114.574185 224.64 
L 116.092924 224.64 
L 116.092924 188.009272 
L 114.574185 188.009272 
z
" clip-path="url(#pd610750681)" style="fill: #1f77b4"/>
   </g>
   <g id="patch_36">
    <path d="M 116.092924 224.64 
L 117.611663 224.64 
L 117.611663 192.893369 
L 116.092924 192.893369 
z
" clip-path="url(#pd610750681)" style="fill: #1f77b4"/>
   </g>
   <g id="patch_37">
    <path d="M 117.611663 224.64 
L 119.130402 224.64 
L 119.130402 192.893369 
L 117.611663 192.893369 
z
" clip-path="url(#pd610750681)" style="fill: #1f77b4"/>
   </g>
   <g id="patch_38">
    <path d="M 119.130402 224.64 
L 120.649141 224.64 
L 120.649141 187.520863 
L 119.130402 187.520863 
z
" clip-path="url(#pd610750681)" style="fill: #1f77b4"/>
   </g>
   <g id="patch_39">
    <path d="M 120.649141 224.64 
L 122.16788 224.64 
L 122.16788 183.613585 
L 120.649141 183.613585 
z
" clip-path="url(#pd610750681)" style="fill: #1f77b4"/>
   </g>
   <g id="patch_40">
    <path d="M 122.16788 224.64 
L 123.68662 224.64 
L 123.68662 188.986092 
L 122.16788 188.986092 
z
" clip-path="url(#pd610750681)" style="fill: #1f77b4"/>
   </g>
   <g id="patch_41">
    <path d="M 123.68662 224.64 
L 125.205359 224.64 
L 125.205359 195.335418 
L 123.68662 195.335418 
z
" clip-path="url(#pd610750681)" style="fill: #1f77b4"/>
   </g>
   <g id="patch_42">
    <path d="M 125.205359 224.64 
L 126.724098 224.64 
L 126.724098 183.125175 
L 125.205359 183.125175 
z
" clip-path="url(#pd610750681)" style="fill: #1f77b4"/>
   </g>
   <g id="patch_43">
    <path d="M 126.724098 224.64 
L 128.242837 224.64 
L 128.242837 179.706307 
L 126.724098 179.706307 
z
" clip-path="url(#pd610750681)" style="fill: #1f77b4"/>
   </g>
   <g id="patch_44">
    <path d="M 128.242837 224.64 
L 129.761576 224.64 
L 129.761576 182.148356 
L 128.242837 182.148356 
z
" clip-path="url(#pd610750681)" style="fill: #1f77b4"/>
   </g>
   <g id="patch_45">
    <path d="M 129.761576 224.64 
L 131.280315 224.64 
L 131.280315 188.497682 
L 129.761576 188.497682 
z
" clip-path="url(#pd610750681)" style="fill: #1f77b4"/>
   </g>
   <g id="patch_46">
    <path d="M 131.280315 224.64 
L 132.799054 224.64 
L 132.799054 173.845391 
L 131.280315 173.845391 
z
" clip-path="url(#pd610750681)" style="fill: #1f77b4"/>
   </g>
   <g id="patch_47">
    <path d="M 132.799054 224.64 
L 134.317794 224.64 
L 134.317794 188.986092 
L 132.799054 188.986092 
z
" clip-path="url(#pd610750681)" style="fill: #1f77b4"/>
   </g>
   <g id="patch_48">
    <path d="M 134.317794 224.64 
L 135.836533 224.64 
L 135.836533 185.078814 
L 134.317794 185.078814 
z
" clip-path="url(#pd610750681)" style="fill: #1f77b4"/>
   </g>
   <g id="patch_49">
    <path d="M 135.836533 224.64 
L 137.355272 224.64 
L 137.355272 178.729488 
L 135.836533 178.729488 
z
" clip-path="url(#pd610750681)" style="fill: #1f77b4"/>
   </g>
   <g id="patch_50">
    <path d="M 137.355272 224.64 
L 138.874011 224.64 
L 138.874011 181.171536 
L 137.355272 181.171536 
z
" clip-path="url(#pd610750681)" style="fill: #1f77b4"/>
   </g>
   <g id="patch_51">
    <path d="M 138.874011 224.64 
L 140.39275 224.64 
L 140.39275 185.567224 
L 138.874011 185.567224 
z
" clip-path="url(#pd610750681)" style="fill: #1f77b4"/>
   </g>
   <g id="patch_52">
    <path d="M 140.39275 224.64 
L 141.911489 224.64 
L 141.911489 177.752668 
L 140.39275 177.752668 
z
" clip-path="url(#pd610750681)" style="fill: #1f77b4"/>
   </g>
   <g id="patch_53">
    <path d="M 141.911489 224.64 
L 143.430228 224.64 
L 143.430228 181.171536 
L 141.911489 181.171536 
z
" clip-path="url(#pd610750681)" style="fill: #1f77b4"/>
   </g>
   <g id="patch_54">
    <path d="M 143.430228 224.64 
L 144.948968 224.64 
L 144.948968 173.356981 
L 143.430228 173.356981 
z
" clip-path="url(#pd610750681)" style="fill: #1f77b4"/>
   </g>
   <g id="patch_55">
    <path d="M 144.948968 224.64 
L 146.467707 224.64 
L 146.467707 176.287439 
L 144.948968 176.287439 
z
" clip-path="url(#pd610750681)" style="fill: #1f77b4"/>
   </g>
   <g id="patch_56">
    <path d="M 146.467707 224.64 
L 147.986446 224.64 
L 147.986446 174.333801 
L 146.467707 174.333801 
z
" clip-path="url(#pd610750681)" style="fill: #1f77b4"/>
   </g>
   <g id="patch_57">
    <path d="M 147.986446 224.64 
L 149.505185 224.64 
L 149.505185 173.356981 
L 147.986446 173.356981 
z
" clip-path="url(#pd610750681)" style="fill: #1f77b4"/>
   </g>
   <g id="patch_58">
    <path d="M 149.505185 224.64 
L 151.023924 224.64 
L 151.023924 167.007655 
L 149.505185 167.007655 
z
" clip-path="url(#pd610750681)" style="fill: #1f77b4"/>
   </g>
   <g id="patch_59">
    <path d="M 151.023924 224.64 
L 152.542663 224.64 
L 152.542663 168.961294 
L 151.023924 168.961294 
z
" clip-path="url(#pd610750681)" style="fill: #1f77b4"/>
   </g>
   <g id="patch_60">
    <path d="M 152.542663 224.64 
L 154.061402 224.64 
L 154.061402 167.496065 
L 152.542663 167.496065 
z
" clip-path="url(#pd610750681)" style="fill: #1f77b4"/>
   </g>
   <g id="patch_61">
    <path d="M 154.061402 224.64 
L 155.580142 224.64 
L 155.580142 178.729488 
L 154.061402 178.729488 
z
" clip-path="url(#pd610750681)" style="fill: #1f77b4"/>
   </g>
   <g id="patch_62">
    <path d="M 155.580142 224.64 
L 157.098881 224.64 
L 157.098881 180.683127 
L 155.580142 180.683127 
z
" clip-path="url(#pd610750681)" style="fill: #1f77b4"/>
   </g>
   <g id="patch_63">
    <path d="M 157.098881 224.64 
L 158.61762 224.64 
L 158.61762 174.333801 
L 157.098881 174.333801 
z
" clip-path="url(#pd610750681)" style="fill: #1f77b4"/>
   </g>
   <g id="patch_64">
    <path d="M 158.61762 224.64 
L 160.136359 224.64 
L 160.136359 170.914933 
L 158.61762 170.914933 
z
" clip-path="url(#pd610750681)" style="fill: #1f77b4"/>
   </g>
   <g id="patch_65">
    <path d="M 160.136359 224.64 
L 161.655098 224.64 
L 161.655098 159.1931 
L 160.136359 159.1931 
z
" clip-path="url(#pd610750681)" style="fill: #1f77b4"/>
   </g>
   <g id="patch_66">
    <path d="M 161.655098 224.64 
L 163.173837 224.64 
L 163.173837 158.21628 
L 161.655098 158.21628 
z
" clip-path="url(#pd610750681)" style="fill: #1f77b4"/>
   </g>
   <g id="patch_67">
    <path d="M 163.173837 224.64 
L 164.692576 224.64 
L 164.692576 157.239461 
L 163.173837 157.239461 
z
" clip-path="url(#pd610750681)" style="fill: #1f77b4"/>
   </g>
   <g id="patch_68">
    <path d="M 164.692576 224.64 
L 166.211316 224.64 
L 166.211316 161.635148 
L 164.692576 161.635148 
z
" clip-path="url(#pd610750681)" style="fill: #1f77b4"/>
   </g>
   <g id="patch_69">
    <path d="M 166.211316 224.64 
L 167.730055 224.64 
L 167.730055 155.774232 
L 166.211316 155.774232 
z
" clip-path="url(#pd610750681)" style="fill: #1f77b4"/>
   </g>
   <g id="patch_70">
    <path d="M 167.730055 224.64 
L 169.248794 224.64 
L 169.248794 146.006038 
L 167.730055 146.006038 
z
" clip-path="url(#pd610750681)" style="fill: #1f77b4"/>
   </g>
   <g id="patch_71">
    <path d="M 169.248794 224.64 
L 170.767533 224.64 
L 170.767533 158.70469 
L 169.248794 158.70469 
z
" clip-path="url(#pd610750681)" style="fill: #1f77b4"/>
   </g>
   <g id="patch_72">
    <path d="M 170.767533 224.64 
L 172.286272 224.64 
L 172.286272 154.797412 
L 170.767533 154.797412 
z
" clip-path="url(#pd610750681)" style="fill: #1f77b4"/>
   </g>
   <g id="patch_73">
    <path d="M 172.286272 224.64 
L 173.805011 224.64 
L 173.805011 154.797412 
L 172.286272 154.797412 
z
" clip-path="url(#pd610750681)" style="fill: #1f77b4"/>
   </g>
   <g id="patch_74">
    <path d="M 173.805011 224.64 
L 175.32375 224.64 
L 175.32375 156.262642 
L 173.805011 156.262642 
z
" clip-path="url(#pd610750681)" style="fill: #1f77b4"/>
   </g>
   <g id="patch_75">
    <path d="M 175.32375 224.64 
L 176.84249 224.64 
L 176.84249 161.635148 
L 175.32375 161.635148 
z
" clip-path="url(#pd610750681)" style="fill: #1f77b4"/>
   </g>
   <g id="patch_76">
    <path d="M 176.84249 224.64 
L 178.361229 224.64 
L 178.361229 156.751051 
L 176.84249 156.751051 
z
" clip-path="url(#pd610750681)" style="fill: #1f77b4"/>
   </g>
   <g id="patch_77">
    <path d="M 178.361229 224.64 
L 179.879968 224.64 
L 179.879968 158.21628 
L 178.361229 158.21628 
z
" clip-path="url(#pd610750681)" style="fill: #1f77b4"/>
   </g>
   <g id="patch_78">
    <path d="M 179.879968 224.64 
L 181.398707 224.64 
L 181.398707 164.565606 
L 179.879968 164.565606 
z
" clip-path="url(#pd610750681)" style="fill: #1f77b4"/>
   </g>
   <g id="patch_79">
    <path d="M 181.398707 224.64 
L 182.917446 224.64 
L 182.917446 151.378544 
L 181.398707 151.378544 
z
" clip-path="url(#pd610750681)" style="fill: #1f77b4"/>
   </g>
   <g id="patch_80">
    <path d="M 182.917446 224.64 
L 184.436185 224.64 
L 184.436185 145.517628 
L 182.917446 145.517628 
z
" clip-path="url(#pd610750681)" style="fill: #1f77b4"/>
   </g>
   <g id="patch_81">
    <path d="M 184.436185 224.64 
L 185.954924 224.64 
L 185.954924 144.540809 
L 184.436185 144.540809 
z
" clip-path="url(#pd610750681)" style="fill: #1f77b4"/>
   </g>
   <g id="patch_82">
    <path d="M 185.954924 224.64 
L 187.473664 224.64 
L 187.473664 159.681509 
L 185.954924 159.681509 
z
" clip-path="url(#pd610750681)" style="fill: #1f77b4"/>
   </g>
   <g id="patch_83">
    <path d="M 187.473664 224.64 
L 188.992403 224.64 
L 188.992403 150.890135 
L 187.473664 150.890135 
z
" clip-path="url(#pd610750681)" style="fill: #1f77b4"/>
   </g>
   <g id="patch_84">
    <path d="M 188.992403 224.64 
L 190.511142 224.64 
L 190.511142 147.471267 
L 188.992403 147.471267 
z
" clip-path="url(#pd610750681)" style="fill: #1f77b4"/>
   </g>
   <g id="patch_85">
    <path d="M 190.511142 224.64 
L 192.029881 224.64 
L 192.029881 146.006038 
L 190.511142 146.006038 
z
" clip-path="url(#pd610750681)" style="fill: #1f77b4"/>
   </g>
   <g id="patch_86">
    <path d="M 192.029881 224.64 
L 193.54862 224.64 
L 193.54862 148.448086 
L 192.029881 148.448086 
z
" clip-path="url(#pd610750681)" style="fill: #1f77b4"/>
   </g>
   <g id="patch_87">
    <path d="M 193.54862 224.64 
L 195.067359 224.64 
L 195.067359 140.145121 
L 193.54862 140.145121 
z
" clip-path="url(#pd610750681)" style="fill: #1f77b4"/>
   </g>
   <g id="patch_88">
    <path d="M 195.067359 224.64 
L 196.586099 224.64 
L 196.586099 137.703073 
L 195.067359 137.703073 
z
" clip-path="url(#pd610750681)" style="fill: #1f77b4"/>
   </g>
   <g id="patch_89">
    <path d="M 196.586099 224.64 
L 198.104838 224.64 
L 198.104838 144.052399 
L 196.586099 144.052399 
z
" clip-path="url(#pd610750681)" style="fill: #1f77b4"/>
   </g>
   <g id="patch_90">
    <path d="M 198.104838 224.64 
L 199.623577 224.64 
L 199.623577 140.145121 
L 198.104838 140.145121 
z
" clip-path="url(#pd610750681)" style="fill: #1f77b4"/>
   </g>
   <g id="patch_91">
    <path d="M 199.623577 224.64 
L 201.142316 224.64 
L 201.142316 139.168302 
L 199.623577 139.168302 
z
" clip-path="url(#pd610750681)" style="fill: #1f77b4"/>
   </g>
   <g id="patch_92">
    <path d="M 201.142316 224.64 
L 202.661055 224.64 
L 202.661055 135.749434 
L 201.142316 135.749434 
z
" clip-path="url(#pd610750681)" style="fill: #1f77b4"/>
   </g>
   <g id="patch_93">
    <path d="M 202.661055 224.64 
L 204.179794 224.64 
L 204.179794 140.633531 
L 202.661055 140.633531 
z
" clip-path="url(#pd610750681)" style="fill: #1f77b4"/>
   </g>
   <g id="patch_94">
    <path d="M 204.179794 224.64 
L 205.698533 224.64 
L 205.698533 121.097143 
L 204.179794 121.097143 
z
" clip-path="url(#pd610750681)" style="fill: #1f77b4"/>
   </g>
   <g id="patch_95">
    <path d="M 205.698533 224.64 
L 207.217273 224.64 
L 207.217273 141.61035 
L 205.698533 141.61035 
z
" clip-path="url(#pd610750681)" style="fill: #1f77b4"/>
   </g>
   <g id="patch_96">
    <path d="M 207.217273 224.64 
L 208.736012 224.64 
L 208.736012 134.284205 
L 207.217273 134.284205 
z
" clip-path="url(#pd610750681)" style="fill: #1f77b4"/>
   </g>
   <g id="patch_97">
    <path d="M 208.736012 224.64 
L 210.254751 224.64 
L 210.254751 125.98124 
L 208.736012 125.98124 
z
" clip-path="url(#pd610750681)" style="fill: #1f77b4"/>
   </g>
   <g id="patch_98">
    <path d="M 210.254751 224.64 
L 211.77349 224.64 
L 211.77349 129.400108 
L 210.254751 129.400108 
z
" clip-path="url(#pd610750681)" style="fill: #1f77b4"/>
   </g>
   <g id="patch_99">
    <path d="M 211.77349 224.64 
L 213.292229 224.64 
L 213.292229 131.353747 
L 211.77349 131.353747 
z
" clip-path="url(#pd610750681)" style="fill: #1f77b4"/>
   </g>
   <g id="patch_100">
    <path d="M 213.292229 224.64 
L 214.810968 224.64 
L 214.810968 136.237844 
L 213.292229 136.237844 
z
" clip-path="url(#pd610750681)" style="fill: #1f77b4"/>
   </g>
   <g id="patch_101">
    <path d="M 214.810968 224.64 
L 216.329707 224.64 
L 216.329707 128.911698 
L 214.810968 128.911698 
z
" clip-path="url(#pd610750681)" style="fill: #1f77b4"/>
   </g>
   <g id="patch_102">
    <path d="M 216.329707 224.64 
L 217.848447 224.64 
L 217.848447 125.49283 
L 216.329707 125.49283 
z
" clip-path="url(#pd610750681)" style="fill: #1f77b4"/>
   </g>
   <g id="patch_103">
    <path d="M 217.848447 224.64 
L 219.367186 224.64 
L 219.367186 128.423288 
L 217.848447 128.423288 
z
" clip-path="url(#pd610750681)" style="fill: #1f77b4"/>
   </g>
   <g id="patch_104">
    <path d="M 219.367186 224.64 
L 220.885925 224.64 
L 220.885925 126.958059 
L 219.367186 126.958059 
z
" clip-path="url(#pd610750681)" style="fill: #1f77b4"/>
   </g>
   <g id="patch_105">
    <path d="M 220.885925 224.64 
L 222.404664 224.64 
L 222.404664 122.073962 
L 220.885925 122.073962 
z
" clip-path="url(#pd610750681)" style="fill: #1f77b4"/>
   </g>
   <g id="patch_106">
    <path d="M 222.404664 224.64 
L 223.923403 224.64 
L 223.923403 125.00442 
L 222.404664 125.00442 
z
" clip-path="url(#pd610750681)" style="fill: #1f77b4"/>
   </g>
   <g id="patch_107">
    <path d="M 223.923403 224.64 
L 225.442142 224.64 
L 225.442142 111.328949 
L 223.923403 111.328949 
z
" clip-path="url(#pd610750681)" style="fill: #1f77b4"/>
   </g>
   <g id="patch_108">
    <path d="M 225.442142 224.64 
L 226.960881 224.64 
L 226.960881 131.353747 
L 225.442142 131.353747 
z
" clip-path="url(#pd610750681)" style="fill: #1f77b4"/>
   </g>
   <g id="patch_109">
    <path d="M 226.960881 224.64 
L 228.479621 224.64 
L 228.479621 116.701456 
L 226.960881 116.701456 
z
" clip-path="url(#pd610750681)" style="fill: #1f77b4"/>
   </g>
   <g id="patch_110">
    <path d="M 228.479621 224.64 
L 229.99836 224.64 
L 229.99836 110.840539 
L 228.479621 110.840539 
z
" clip-path="url(#pd610750681)" style="fill: #1f77b4"/>
   </g>
   <g id="patch_111">
    <path d="M 229.99836 224.64 
L 231.517099 224.64 
L 231.517099 119.631914 
L 229.99836 119.631914 
z
" clip-path="url(#pd610750681)" style="fill: #1f77b4"/>
   </g>
   <g id="patch_112">
    <path d="M 231.517099 224.64 
L 233.035838 224.64 
L 233.035838 106.933261 
L 231.517099 106.933261 
z
" clip-path="url(#pd610750681)" style="fill: #1f77b4"/>
   </g>
   <g id="patch_113">
    <path d="M 233.035838 224.64 
L 234.554577 224.64 
L 234.554577 112.305768 
L 233.035838 112.305768 
z
" clip-path="url(#pd610750681)" style="fill: #1f77b4"/>
   </g>
   <g id="patch_114">
    <path d="M 234.554577 224.64 
L 236.073316 224.64 
L 236.073316 102.537574 
L 234.554577 102.537574 
z
" clip-path="url(#pd610750681)" style="fill: #1f77b4"/>
   </g>
   <g id="patch_115">
    <path d="M 236.073316 224.64 
L 237.592055 224.64 
L 237.592055 107.910081 
L 236.073316 107.910081 
z
" clip-path="url(#pd610750681)" style="fill: #1f77b4"/>
   </g>
   <g id="patch_116">
    <path d="M 237.592055 224.64 
L 239.110795 224.64 
L 239.110795 108.398491 
L 237.592055 108.398491 
z
" clip-path="url(#pd610750681)" style="fill: #1f77b4"/>
   </g>
   <g id="patch_117">
    <path d="M 239.110795 224.64 
L 240.629534 224.64 
L 240.629534 94.723019 
L 239.110795 94.723019 
z
" clip-path="url(#pd610750681)" style="fill: #1f77b4"/>
   </g>
   <g id="patch_118">
    <path d="M 240.629534 224.64 
L 242.148273 224.64 
L 242.148273 103.514394 
L 240.629534 103.514394 
z
" clip-path="url(#pd610750681)" style="fill: #1f77b4"/>
   </g>
   <g id="patch_119">
    <path d="M 242.148273 224.64 
L 243.667012 224.64 
L 243.667012 108.8869 
L 242.148273 108.8869 
z
" clip-path="url(#pd610750681)" style="fill: #1f77b4"/>
   </g>
   <g id="patch_120">
    <path d="M 243.667012 224.64 
L 245.185751 224.64 
L 245.185751 116.213046 
L 243.667012 116.213046 
z
" clip-path="url(#pd610750681)" style="fill: #1f77b4"/>
   </g>
   <g id="patch_121">
    <path d="M 245.185751 224.64 
L 246.70449 224.64 
L 246.70449 109.37531 
L 245.185751 109.37531 
z
" clip-path="url(#pd610750681)" style="fill: #1f77b4"/>
   </g>
   <g id="patch_122">
    <path d="M 246.70449 224.64 
L 248.223229 224.64 
L 248.223229 106.933261 
L 246.70449 106.933261 
z
" clip-path="url(#pd610750681)" style="fill: #1f77b4"/>
   </g>
   <g id="patch_123">
    <path d="M 248.223229 224.64 
L 249.741969 224.64 
L 249.741969 113.770997 
L 248.223229 113.770997 
z
" clip-path="url(#pd610750681)" style="fill: #1f77b4"/>
   </g>
   <g id="patch_124">
    <path d="M 249.741969 224.64 
L 251.260708 224.64 
L 251.260708 114.747817 
L 249.741969 114.747817 
z
" clip-path="url(#pd610750681)" style="fill: #1f77b4"/>
   </g>
   <g id="patch_125">
    <path d="M 251.260708 224.64 
L 252.779447 224.64 
L 252.779447 89.350512 
L 251.260708 89.350512 
z
" clip-path="url(#pd610750681)" style="fill: #1f77b4"/>
   </g>
   <g id="patch_126">
    <path d="M 252.779447 224.64 
L 254.298186 224.64 
L 254.298186 110.840539 
L 252.779447 110.840539 
z
" clip-path="url(#pd610750681)" style="fill: #1f77b4"/>
   </g>
   <g id="patch_127">
    <path d="M 254.298186 224.64 
L 255.816925 224.64 
L 255.816925 103.514394 
L 254.298186 103.514394 
z
" clip-path="url(#pd610750681)" style="fill: #1f77b4"/>
   </g>
   <g id="patch_128">
    <path d="M 255.816925 224.64 
L 257.335664 224.64 
L 257.335664 110.840539 
L 255.816925 110.840539 
z
" clip-path="url(#pd610750681)" style="fill: #1f77b4"/>
   </g>
   <g id="patch_129">
    <path d="M 257.335664 224.64 
L 258.854403 224.64 
L 258.854403 103.025984 
L 257.335664 103.025984 
z
" clip-path="url(#pd610750681)" style="fill: #1f77b4"/>
   </g>
   <g id="patch_130">
    <path d="M 258.854403 224.64 
L 260.373143 224.64 
L 260.373143 100.583935 
L 258.854403 100.583935 
z
" clip-path="url(#pd610750681)" style="fill: #1f77b4"/>
   </g>
   <g id="patch_131">
    <path d="M 260.373143 224.64 
L 261.891882 224.64 
L 261.891882 99.118706 
L 260.373143 99.118706 
z
" clip-path="url(#pd610750681)" style="fill: #1f77b4"/>
   </g>
   <g id="patch_132">
    <path d="M 261.891882 224.64 
L 263.410621 224.64 
L 263.410621 108.8869 
L 261.891882 108.8869 
z
" clip-path="url(#pd610750681)" style="fill: #1f77b4"/>
   </g>
   <g id="patch_133">
    <path d="M 263.410621 224.64 
L 264.92936 224.64 
L 264.92936 97.653477 
L 263.410621 97.653477 
z
" clip-path="url(#pd610750681)" style="fill: #1f77b4"/>
   </g>
   <g id="patch_134">
    <path d="M 264.92936 224.64 
L 266.448099 224.64 
L 266.448099 97.653477 
L 264.92936 97.653477 
z
" clip-path="url(#pd610750681)" style="fill: #1f77b4"/>
   </g>
   <g id="patch_135">
    <path d="M 266.448099 224.64 
L 267.966838 224.64 
L 267.966838 94.723019 
L 266.448099 94.723019 
z
" clip-path="url(#pd610750681)" style="fill: #1f77b4"/>
   </g>
   <g id="patch_136">
    <path d="M 267.966838 224.64 
L 269.485577 224.64 
L 269.485577 96.676658 
L 267.966838 96.676658 
z
" clip-path="url(#pd610750681)" style="fill: #1f77b4"/>
   </g>
   <g id="patch_137">
    <path d="M 269.485577 224.64 
L 271.004317 224.64 
L 271.004317 80.070728 
L 269.485577 80.070728 
z
" clip-path="url(#pd610750681)" style="fill: #1f77b4"/>
   </g>
   <g id="patch_138">
    <path d="M 271.004317 224.64 
L 272.523056 224.64 
L 272.523056 110.840539 
L 271.004317 110.840539 
z
" clip-path="url(#pd610750681)" style="fill: #1f77b4"/>
   </g>
   <g id="patch_139">
    <path d="M 272.523056 224.64 
L 274.041795 224.64 
L 274.041795 87.396873 
L 272.523056 87.396873 
z
" clip-path="url(#pd610750681)" style="fill: #1f77b4"/>
   </g>
   <g id="patch_140">
    <path d="M 274.041795 224.64 
L 275.560534 224.64 
L 275.560534 83.489596 
L 274.041795 83.489596 
z
" clip-path="url(#pd610750681)" style="fill: #1f77b4"/>
   </g>
   <g id="patch_141">
    <path d="M 275.560534 224.64 
L 277.079273 224.64 
L 277.079273 95.699838 
L 275.560534 95.699838 
z
" clip-path="url(#pd610750681)" style="fill: #1f77b4"/>
   </g>
   <g id="patch_142">
    <path d="M 277.079273 224.64 
L 278.598012 224.64 
L 278.598012 88.862102 
L 277.079273 88.862102 
z
" clip-path="url(#pd610750681)" style="fill: #1f77b4"/>
   </g>
   <g id="patch_143">
    <path d="M 278.598012 224.64 
L 280.116751 224.64 
L 280.116751 95.699838 
L 278.598012 95.699838 
z
" clip-path="url(#pd610750681)" style="fill: #1f77b4"/>
   </g>
   <g id="patch_144">
    <path d="M 280.116751 224.64 
L 281.635491 224.64 
L 281.635491 68.348895 
L 280.116751 68.348895 
z
" clip-path="url(#pd610750681)" style="fill: #1f77b4"/>
   </g>
   <g id="patch_145">
    <path d="M 281.635491 224.64 
L 283.15423 224.64 
L 283.15423 67.372075 
L 281.635491 67.372075 
z
" clip-path="url(#pd610750681)" style="fill: #1f77b4"/>
   </g>
   <g id="patch_146">
    <path d="M 283.15423 224.64 
L 284.672969 224.64 
L 284.672969 74.698221 
L 283.15423 74.698221 
z
" clip-path="url(#pd610750681)" style="fill: #1f77b4"/>
   </g>
   <g id="patch_147">
    <path d="M 284.672969 224.64 
L 286.191708 224.64 
L 286.191708 87.885283 
L 284.672969 87.885283 
z
" clip-path="url(#pd610750681)" style="fill: #1f77b4"/>
   </g>
   <g id="patch_148">
    <path d="M 286.191708 224.64 
L 287.710447 224.64 
L 287.710447 80.559137 
L 286.191708 80.559137 
z
" clip-path="url(#pd610750681)" style="fill: #1f77b4"/>
   </g>
   <g id="patch_149">
    <path d="M 287.710447 224.64 
L 289.229186 224.64 
L 289.229186 73.721402 
L 287.710447 73.721402 
z
" clip-path="url(#pd610750681)" style="fill: #1f77b4"/>
   </g>
   <g id="patch_150">
    <path d="M 289.229186 224.64 
L 290.747925 224.64 
L 290.747925 96.676658 
L 289.229186 96.676658 
z
" clip-path="url(#pd610750681)" style="fill: #1f77b4"/>
   </g>
   <g id="patch_151">
    <path d="M 290.747925 224.64 
L 292.266665 224.64 
L 292.266665 74.698221 
L 290.747925 74.698221 
z
" clip-path="url(#pd610750681)" style="fill: #1f77b4"/>
   </g>
   <g id="patch_152">
    <path d="M 292.266665 224.64 
L 293.785404 224.64 
L 293.785404 82.512776 
L 292.266665 82.512776 
z
" clip-path="url(#pd610750681)" style="fill: #1f77b4"/>
   </g>
   <g id="patch_153">
    <path d="M 293.785404 224.64 
L 295.304143 224.64 
L 295.304143 89.838922 
L 293.785404 89.838922 
z
" clip-path="url(#pd610750681)" style="fill: #1f77b4"/>
   </g>
   <g id="patch_154">
    <path d="M 295.304143 224.64 
L 296.822882 224.64 
L 296.822882 72.256173 
L 295.304143 72.256173 
z
" clip-path="url(#pd610750681)" style="fill: #1f77b4"/>
   </g>
   <g id="patch_155">
    <path d="M 296.822882 224.64 
L 298.341621 224.64 
L 298.341621 69.814124 
L 296.822882 69.814124 
z
" clip-path="url(#pd610750681)" style="fill: #1f77b4"/>
   </g>
   <g id="patch_156">
    <path d="M 298.341621 224.64 
L 299.86036 224.64 
L 299.86036 76.65186 
L 298.341621 76.65186 
z
" clip-path="url(#pd610750681)" style="fill: #1f77b4"/>
   </g>
   <g id="patch_157">
    <path d="M 299.86036 224.64 
L 301.379099 224.64 
L 301.379099 69.325714 
L 299.86036 69.325714 
z
" clip-path="url(#pd610750681)" style="fill: #1f77b4"/>
   </g>
   <g id="patch_158">
    <path d="M 301.379099 224.64 
L 302.897839 224.64 
L 302.897839 78.605499 
L 301.379099 78.605499 
z
" clip-path="url(#pd610750681)" style="fill: #1f77b4"/>
   </g>
   <g id="patch_159">
    <path d="M 302.897839 224.64 
L 304.416578 224.64 
L 304.416578 60.04593 
L 302.897839 60.04593 
z
" clip-path="url(#pd610750681)" style="fill: #1f77b4"/>
   </g>
   <g id="patch_160">
    <path d="M 304.416578 224.64 
L 305.935317 224.64 
L 305.935317 66.395256 
L 304.416578 66.395256 
z
" clip-path="url(#pd610750681)" style="fill: #1f77b4"/>
   </g>
   <g id="patch_161">
    <path d="M 305.935317 224.64 
L 307.454056 224.64 
L 307.454056 62.976388 
L 305.935317 62.976388 
z
" clip-path="url(#pd610750681)" style="fill: #1f77b4"/>
   </g>
   <g id="patch_162">
    <path d="M 307.454056 224.64 
L 308.972795 224.64 
L 308.972795 71.767763 
L 307.454056 71.767763 
z
" clip-path="url(#pd610750681)" style="fill: #1f77b4"/>
   </g>
   <g id="patch_163">
    <path d="M 308.972795 224.64 
L 310.491534 224.64 
L 310.491534 57.115472 
L 308.972795 57.115472 
z
" clip-path="url(#pd610750681)" style="fill: #1f77b4"/>
   </g>
   <g id="patch_164">
    <path d="M 310.491534 224.64 
L 312.010273 224.64 
L 312.010273 67.860485 
L 310.491534 67.860485 
z
" clip-path="url(#pd610750681)" style="fill: #1f77b4"/>
   </g>
   <g id="patch_165">
    <path d="M 312.010273 224.64 
L 313.529013 224.64 
L 313.529013 64.930027 
L 312.010273 64.930027 
z
" clip-path="url(#pd610750681)" style="fill: #1f77b4"/>
   </g>
   <g id="patch_166">
    <path d="M 313.529013 224.64 
L 315.047752 224.64 
L 315.047752 72.744582 
L 313.529013 72.744582 
z
" clip-path="url(#pd610750681)" style="fill: #1f77b4"/>
   </g>
   <g id="patch_167">
    <path d="M 315.047752 224.64 
L 316.566491 224.64 
L 316.566491 64.441617 
L 315.047752 64.441617 
z
" clip-path="url(#pd610750681)" style="fill: #1f77b4"/>
   </g>
   <g id="patch_168">
    <path d="M 316.566491 224.64 
L 318.08523 224.64 
L 318.08523 56.138652 
L 316.566491 56.138652 
z
" clip-path="url(#pd610750681)" style="fill: #1f77b4"/>
   </g>
   <g id="patch_169">
    <path d="M 318.08523 224.64 
L 319.603969 224.64 
L 319.603969 51.742965 
L 318.08523 51.742965 
z
" clip-path="url(#pd610750681)" style="fill: #1f77b4"/>
   </g>
   <g id="patch_170">
    <path d="M 319.603969 224.64 
L 321.122708 224.64 
L 321.122708 79.093908 
L 319.603969 79.093908 
z
" clip-path="url(#pd610750681)" style="fill: #1f77b4"/>
   </g>
   <g id="patch_171">
    <path d="M 321.122708 224.64 
L 322.641447 224.64 
L 322.641447 58.580701 
L 321.122708 58.580701 
z
" clip-path="url(#pd610750681)" style="fill: #1f77b4"/>
   </g>
   <g id="patch_172">
    <path d="M 322.641447 224.64 
L 324.160187 224.64 
L 324.160187 52.719784 
L 322.641447 52.719784 
z
" clip-path="url(#pd610750681)" style="fill: #1f77b4"/>
   </g>
   <g id="patch_173">
    <path d="M 324.160187 224.64 
L 325.678926 224.64 
L 325.678926 67.860485 
L 324.160187 67.860485 
z
" clip-path="url(#pd610750681)" style="fill: #1f77b4"/>
   </g>
   <g id="patch_174">
    <path d="M 325.678926 224.64 
L 327.197665 224.64 
L 327.197665 60.04593 
L 325.678926 60.04593 
z
" clip-path="url(#pd610750681)" style="fill: #1f77b4"/>
   </g>
   <g id="patch_175">
    <path d="M 327.197665 224.64 
L 328.716404 224.64 
L 328.716404 53.696604 
L 327.197665 53.696604 
z
" clip-path="url(#pd610750681)" style="fill: #1f77b4"/>
   </g>
   <g id="patch_176">
    <path d="M 328.716404 224.64 
L 330.235143 224.64 
L 330.235143 53.696604 
L 328.716404 53.696604 
z
" clip-path="url(#pd610750681)" style="fill: #1f77b4"/>
   </g>
   <g id="patch_177">
    <path d="M 330.235143 224.64 
L 331.753882 224.64 
L 331.753882 59.55752 
L 330.235143 59.55752 
z
" clip-path="url(#pd610750681)" style="fill: #1f77b4"/>
   </g>
   <g id="patch_178">
    <path d="M 331.753882 224.64 
L 333.272621 224.64 
L 333.272621 69.814124 
L 331.753882 69.814124 
z
" clip-path="url(#pd610750681)" style="fill: #1f77b4"/>
   </g>
   <g id="patch_179">
    <path d="M 333.272621 224.64 
L 334.791361 224.64 
L 334.791361 57.115472 
L 333.272621 57.115472 
z
" clip-path="url(#pd610750681)" style="fill: #1f77b4"/>
   </g>
   <g id="patch_180">
    <path d="M 334.791361 224.64 
L 336.3101 224.64 
L 336.3101 43.92841 
L 334.791361 43.92841 
z
" clip-path="url(#pd610750681)" style="fill: #1f77b4"/>
   </g>
   <g id="patch_181">
    <path d="M 336.3101 224.64 
L 337.828839 224.64 
L 337.828839 40.509542 
L 336.3101 40.509542 
z
" clip-path="url(#pd610750681)" style="fill: #1f77b4"/>
   </g>
   <g id="patch_182">
    <path d="M 337.828839 224.64 
L 339.347578 224.64 
L 339.347578 47.835687 
L 337.828839 47.835687 
z
" clip-path="url(#pd610750681)" style="fill: #1f77b4"/>
   </g>
   <g id="patch_183">
    <path d="M 339.347578 224.64 
L 340.866317 224.64 
L 340.866317 45.882049 
L 339.347578 45.882049 
z
" clip-path="url(#pd610750681)" style="fill: #1f77b4"/>
   </g>
   <g id="patch_184">
    <path d="M 340.866317 224.64 
L 342.385056 224.64 
L 342.385056 53.208194 
L 340.866317 53.208194 
z
" clip-path="url(#pd610750681)" style="fill: #1f77b4"/>
   </g>
   <g id="patch_185">
    <path d="M 342.385056 224.64 
L 343.903795 224.64 
L 343.903795 37.579084 
L 342.385056 37.579084 
z
" clip-path="url(#pd610750681)" style="fill: #1f77b4"/>
   </g>
   <g id="patch_186">
    <path d="M 343.903795 224.64 
L 345.422535 224.64 
L 345.422535 55.161833 
L 343.903795 55.161833 
z
" clip-path="url(#pd610750681)" style="fill: #1f77b4"/>
   </g>
   <g id="patch_187">
    <path d="M 345.422535 224.64 
L 346.941274 224.64 
L 346.941274 46.370458 
L 345.422535 46.370458 
z
" clip-path="url(#pd610750681)" style="fill: #1f77b4"/>
   </g>
   <g id="patch_188">
    <path d="M 346.941274 224.64 
L 348.460013 224.64 
L 348.460013 33.183396 
L 346.941274 33.183396 
z
" clip-path="url(#pd610750681)" style="fill: #1f77b4"/>
   </g>
   <g id="patch_189">
    <path d="M 348.460013 224.64 
L 349.978752 224.64 
L 349.978752 36.602264 
L 348.460013 36.602264 
z
" clip-path="url(#pd610750681)" style="fill: #1f77b4"/>
   </g>
   <g id="patch_190">
    <path d="M 349.978752 224.64 
L 351.497491 224.64 
L 351.497491 47.347278 
L 349.978752 47.347278 
z
" clip-path="url(#pd610750681)" style="fill: #1f77b4"/>
   </g>
   <g id="patch_191">
    <path d="M 351.497491 224.64 
L 353.01623 224.64 
L 353.01623 43.44 
L 351.497491 43.44 
z
" clip-path="url(#pd610750681)" style="fill: #1f77b4"/>
   </g>
   <g id="patch_192">
    <path d="M 353.01623 224.64 
L 354.534969 224.64 
L 354.534969 23.903612 
L 353.01623 23.903612 
z
" clip-path="url(#pd610750681)" style="fill: #1f77b4"/>
   </g>
   <g id="patch_193">
    <path d="M 354.534969 224.64 
L 356.053709 224.64 
L 356.053709 17.554286 
L 354.534969 17.554286 
z
" clip-path="url(#pd610750681)" style="fill: #1f77b4"/>
   </g>
   <g id="patch_194">
    <path d="M 356.053709 224.64 
L 357.572448 224.64 
L 357.572448 34.648625 
L 356.053709 34.648625 
z
" clip-path="url(#pd610750681)" style="fill: #1f77b4"/>
   </g>
   <g id="patch_195">
    <path d="M 357.572448 224.64 
L 359.091187 224.64 
L 359.091187 34.160216 
L 357.572448 34.160216 
z
" clip-path="url(#pd610750681)" style="fill: #1f77b4"/>
   </g>
   <g id="patch_196">
    <path d="M 359.091187 224.64 
L 360.609926 224.64 
L 360.609926 42.463181 
L 359.091187 42.463181 
z
" clip-path="url(#pd610750681)" style="fill: #1f77b4"/>
   </g>
   <g id="patch_197">
    <path d="M 360.609926 224.64 
L 362.128665 224.64 
L 362.128665 37.090674 
L 360.609926 37.090674 
z
" clip-path="url(#pd610750681)" style="fill: #1f77b4"/>
   </g>
   <g id="patch_198">
    <path d="M 362.128665 224.64 
L 363.647404 224.64 
L 363.647404 47.347278 
L 362.128665 47.347278 
z
" clip-path="url(#pd610750681)" style="fill: #1f77b4"/>
   </g>
   <g id="patch_199">
    <path d="M 363.647404 224.64 
L 365.166143 224.64 
L 365.166143 34.160216 
L 363.647404 34.160216 
z
" clip-path="url(#pd610750681)" style="fill: #1f77b4"/>
   </g>
   <g id="patch_200">
    <path d="M 365.166143 224.64 
L 366.684883 224.64 
L 366.684883 44.416819 
L 365.166143 44.416819 
z
" clip-path="url(#pd610750681)" style="fill: #1f77b4"/>
   </g>
   <g id="patch_201">
    <path d="M 366.684883 224.64 
L 368.203622 224.64 
L 368.203622 40.509542 
L 366.684883 40.509542 
z
" clip-path="url(#pd610750681)" style="fill: #1f77b4"/>
   </g>
   <g id="patch_202">
    <path d="M 368.203622 224.64 
L 369.722361 224.64 
L 369.722361 30.741348 
L 368.203622 30.741348 
z
" clip-path="url(#pd610750681)" style="fill: #1f77b4"/>
   </g>
   <g id="matplotlib.axis_1">
    <g id="xtick_1">
     <g id="line2d_1">
      <defs>
       <path id="mb197753e45" d="M 0 0 
L 0 3.5 
" style="stroke: #000000; stroke-width: 0.8"/>
      </defs>
      <g>
       <use xlink:href="#mb197753e45" x="65.361932" y="224.64" style="stroke: #000000; stroke-width: 0.8"/>
      </g>
     </g>
     <g id="text_1">
      <!-- 0.0 -->
      <g transform="translate(57.410369 239.238437)scale(0.1 -0.1)">
       <defs>
        <path id="DejaVuSans-30" d="M 2034 4250 
Q 1547 4250 1301 3770 
Q 1056 3291 1056 2328 
Q 1056 1369 1301 889 
Q 1547 409 2034 409 
Q 2525 409 2770 889 
Q 3016 1369 3016 2328 
Q 3016 3291 2770 3770 
Q 2525 4250 2034 4250 
z
M 2034 4750 
Q 2819 4750 3233 4129 
Q 3647 3509 3647 2328 
Q 3647 1150 3233 529 
Q 2819 -91 2034 -91 
Q 1250 -91 836 529 
Q 422 1150 422 2328 
Q 422 3509 836 4129 
Q 1250 4750 2034 4750 
z
" transform="scale(0.015625)"/>
        <path id="DejaVuSans-2e" d="M 684 794 
L 1344 794 
L 1344 0 
L 684 0 
L 684 794 
z
" transform="scale(0.015625)"/>
       </defs>
       <use xlink:href="#DejaVuSans-30"/>
       <use xlink:href="#DejaVuSans-2e" x="63.623047"/>
       <use xlink:href="#DejaVuSans-30" x="95.410156"/>
      </g>
     </g>
    </g>
    <g id="xtick_2">
     <g id="line2d_2">
      <g>
       <use xlink:href="#mb197753e45" x="126.234659" y="224.64" style="stroke: #000000; stroke-width: 0.8"/>
      </g>
     </g>
     <g id="text_2">
      <!-- 0.2 -->
      <g transform="translate(118.283097 239.238437)scale(0.1 -0.1)">
       <defs>
        <path id="DejaVuSans-32" d="M 1228 531 
L 3431 531 
L 3431 0 
L 469 0 
L 469 531 
Q 828 903 1448 1529 
Q 2069 2156 2228 2338 
Q 2531 2678 2651 2914 
Q 2772 3150 2772 3378 
Q 2772 3750 2511 3984 
Q 2250 4219 1831 4219 
Q 1534 4219 1204 4116 
Q 875 4013 500 3803 
L 500 4441 
Q 881 4594 1212 4672 
Q 1544 4750 1819 4750 
Q 2544 4750 2975 4387 
Q 3406 4025 3406 3419 
Q 3406 3131 3298 2873 
Q 3191 2616 2906 2266 
Q 2828 2175 2409 1742 
Q 1991 1309 1228 531 
z
" transform="scale(0.015625)"/>
       </defs>
       <use xlink:href="#DejaVuSans-30"/>
       <use xlink:href="#DejaVuSans-2e" x="63.623047"/>
       <use xlink:href="#DejaVuSans-32" x="95.410156"/>
      </g>
     </g>
    </g>
    <g id="xtick_3">
     <g id="line2d_3">
      <g>
       <use xlink:href="#mb197753e45" x="187.107386" y="224.64" style="stroke: #000000; stroke-width: 0.8"/>
      </g>
     </g>
     <g id="text_3">
      <!-- 0.4 -->
      <g transform="translate(179.155824 239.238437)scale(0.1 -0.1)">
       <defs>
        <path id="DejaVuSans-34" d="M 2419 4116 
L 825 1625 
L 2419 1625 
L 2419 4116 
z
M 2253 4666 
L 3047 4666 
L 3047 1625 
L 3713 1625 
L 3713 1100 
L 3047 1100 
L 3047 0 
L 2419 0 
L 2419 1100 
L 313 1100 
L 313 1709 
L 2253 4666 
z
" transform="scale(0.015625)"/>
       </defs>
       <use xlink:href="#DejaVuSans-30"/>
       <use xlink:href="#DejaVuSans-2e" x="63.623047"/>
       <use xlink:href="#DejaVuSans-34" x="95.410156"/>
      </g>
     </g>
    </g>
    <g id="xtick_4">
     <g id="line2d_4">
      <g>
       <use xlink:href="#mb197753e45" x="247.980114" y="224.64" style="stroke: #000000; stroke-width: 0.8"/>
      </g>
     </g>
     <g id="text_4">
      <!-- 0.6 -->
      <g transform="translate(240.028551 239.238437)scale(0.1 -0.1)">
       <defs>
        <path id="DejaVuSans-36" d="M 2113 2584 
Q 1688 2584 1439 2293 
Q 1191 2003 1191 1497 
Q 1191 994 1439 701 
Q 1688 409 2113 409 
Q 2538 409 2786 701 
Q 3034 994 3034 1497 
Q 3034 2003 2786 2293 
Q 2538 2584 2113 2584 
z
M 3366 4563 
L 3366 3988 
Q 3128 4100 2886 4159 
Q 2644 4219 2406 4219 
Q 1781 4219 1451 3797 
Q 1122 3375 1075 2522 
Q 1259 2794 1537 2939 
Q 1816 3084 2150 3084 
Q 2853 3084 3261 2657 
Q 3669 2231 3669 1497 
Q 3669 778 3244 343 
Q 2819 -91 2113 -91 
Q 1303 -91 875 529 
Q 447 1150 447 2328 
Q 447 3434 972 4092 
Q 1497 4750 2381 4750 
Q 2619 4750 2861 4703 
Q 3103 4656 3366 4563 
z
" transform="scale(0.015625)"/>
       </defs>
       <use xlink:href="#DejaVuSans-30"/>
       <use xlink:href="#DejaVuSans-2e" x="63.623047"/>
       <use xlink:href="#DejaVuSans-36" x="95.410156"/>
      </g>
     </g>
    </g>
    <g id="xtick_5">
     <g id="line2d_5">
      <g>
       <use xlink:href="#mb197753e45" x="308.852841" y="224.64" style="stroke: #000000; stroke-width: 0.8"/>
      </g>
     </g>
     <g id="text_5">
      <!-- 0.8 -->
      <g transform="translate(300.901278 239.238437)scale(0.1 -0.1)">
       <defs>
        <path id="DejaVuSans-38" d="M 2034 2216 
Q 1584 2216 1326 1975 
Q 1069 1734 1069 1313 
Q 1069 891 1326 650 
Q 1584 409 2034 409 
Q 2484 409 2743 651 
Q 3003 894 3003 1313 
Q 3003 1734 2745 1975 
Q 2488 2216 2034 2216 
z
M 1403 2484 
Q 997 2584 770 2862 
Q 544 3141 544 3541 
Q 544 4100 942 4425 
Q 1341 4750 2034 4750 
Q 2731 4750 3128 4425 
Q 3525 4100 3525 3541 
Q 3525 3141 3298 2862 
Q 3072 2584 2669 2484 
Q 3125 2378 3379 2068 
Q 3634 1759 3634 1313 
Q 3634 634 3220 271 
Q 2806 -91 2034 -91 
Q 1263 -91 848 271 
Q 434 634 434 1313 
Q 434 1759 690 2068 
Q 947 2378 1403 2484 
z
M 1172 3481 
Q 1172 3119 1398 2916 
Q 1625 2713 2034 2713 
Q 2441 2713 2670 2916 
Q 2900 3119 2900 3481 
Q 2900 3844 2670 4047 
Q 2441 4250 2034 4250 
Q 1625 4250 1398 4047 
Q 1172 3844 1172 3481 
z
" transform="scale(0.015625)"/>
       </defs>
       <use xlink:href="#DejaVuSans-30"/>
       <use xlink:href="#DejaVuSans-2e" x="63.623047"/>
       <use xlink:href="#DejaVuSans-38" x="95.410156"/>
      </g>
     </g>
    </g>
    <g id="xtick_6">
     <g id="line2d_6">
      <g>
       <use xlink:href="#mb197753e45" x="369.725568" y="224.64" style="stroke: #000000; stroke-width: 0.8"/>
      </g>
     </g>
     <g id="text_6">
      <!-- 1.0 -->
      <g transform="translate(361.774006 239.238437)scale(0.1 -0.1)">
       <defs>
        <path id="DejaVuSans-31" d="M 794 531 
L 1825 531 
L 1825 4091 
L 703 3866 
L 703 4441 
L 1819 4666 
L 2450 4666 
L 2450 531 
L 3481 531 
L 3481 0 
L 794 0 
L 794 531 
z
" transform="scale(0.015625)"/>
       </defs>
       <use xlink:href="#DejaVuSans-31"/>
       <use xlink:href="#DejaVuSans-2e" x="63.623047"/>
       <use xlink:href="#DejaVuSans-30" x="95.410156"/>
      </g>
     </g>
    </g>
    <g id="text_7">
     <!-- Propagation direction -->
     <g transform="translate(164.061719 252.916562)scale(0.1 -0.1)">
      <defs>
       <path id="DejaVuSans-50" d="M 1259 4147 
L 1259 2394 
L 2053 2394 
Q 2494 2394 2734 2622 
Q 2975 2850 2975 3272 
Q 2975 3691 2734 3919 
Q 2494 4147 2053 4147 
L 1259 4147 
z
M 628 4666 
L 2053 4666 
Q 2838 4666 3239 4311 
Q 3641 3956 3641 3272 
Q 3641 2581 3239 2228 
Q 2838 1875 2053 1875 
L 1259 1875 
L 1259 0 
L 628 0 
L 628 4666 
z
" transform="scale(0.015625)"/>
       <path id="DejaVuSans-72" d="M 2631 2963 
Q 2534 3019 2420 3045 
Q 2306 3072 2169 3072 
Q 1681 3072 1420 2755 
Q 1159 2438 1159 1844 
L 1159 0 
L 581 0 
L 581 3500 
L 1159 3500 
L 1159 2956 
Q 1341 3275 1631 3429 
Q 1922 3584 2338 3584 
Q 2397 3584 2469 3576 
Q 2541 3569 2628 3553 
L 2631 2963 
z
" transform="scale(0.015625)"/>
       <path id="DejaVuSans-6f" d="M 1959 3097 
Q 1497 3097 1228 2736 
Q 959 2375 959 1747 
Q 959 1119 1226 758 
Q 1494 397 1959 397 
Q 2419 397 2687 759 
Q 2956 1122 2956 1747 
Q 2956 2369 2687 2733 
Q 2419 3097 1959 3097 
z
M 1959 3584 
Q 2709 3584 3137 3096 
Q 3566 2609 3566 1747 
Q 3566 888 3137 398 
Q 2709 -91 1959 -91 
Q 1206 -91 779 398 
Q 353 888 353 1747 
Q 353 2609 779 3096 
Q 1206 3584 1959 3584 
z
" transform="scale(0.015625)"/>
       <path id="DejaVuSans-70" d="M 1159 525 
L 1159 -1331 
L 581 -1331 
L 581 3500 
L 1159 3500 
L 1159 2969 
Q 1341 3281 1617 3432 
Q 1894 3584 2278 3584 
Q 2916 3584 3314 3078 
Q 3713 2572 3713 1747 
Q 3713 922 3314 415 
Q 2916 -91 2278 -91 
Q 1894 -91 1617 61 
Q 1341 213 1159 525 
z
M 3116 1747 
Q 3116 2381 2855 2742 
Q 2594 3103 2138 3103 
Q 1681 3103 1420 2742 
Q 1159 2381 1159 1747 
Q 1159 1113 1420 752 
Q 1681 391 2138 391 
Q 2594 391 2855 752 
Q 3116 1113 3116 1747 
z
" transform="scale(0.015625)"/>
       <path id="DejaVuSans-61" d="M 2194 1759 
Q 1497 1759 1228 1600 
Q 959 1441 959 1056 
Q 959 750 1161 570 
Q 1363 391 1709 391 
Q 2188 391 2477 730 
Q 2766 1069 2766 1631 
L 2766 1759 
L 2194 1759 
z
M 3341 1997 
L 3341 0 
L 2766 0 
L 2766 531 
Q 2569 213 2275 61 
Q 1981 -91 1556 -91 
Q 1019 -91 701 211 
Q 384 513 384 1019 
Q 384 1609 779 1909 
Q 1175 2209 1959 2209 
L 2766 2209 
L 2766 2266 
Q 2766 2663 2505 2880 
Q 2244 3097 1772 3097 
Q 1472 3097 1187 3025 
Q 903 2953 641 2809 
L 641 3341 
Q 956 3463 1253 3523 
Q 1550 3584 1831 3584 
Q 2591 3584 2966 3190 
Q 3341 2797 3341 1997 
z
" transform="scale(0.015625)"/>
       <path id="DejaVuSans-67" d="M 2906 1791 
Q 2906 2416 2648 2759 
Q 2391 3103 1925 3103 
Q 1463 3103 1205 2759 
Q 947 2416 947 1791 
Q 947 1169 1205 825 
Q 1463 481 1925 481 
Q 2391 481 2648 825 
Q 2906 1169 2906 1791 
z
M 3481 434 
Q 3481 -459 3084 -895 
Q 2688 -1331 1869 -1331 
Q 1566 -1331 1297 -1286 
Q 1028 -1241 775 -1147 
L 775 -588 
Q 1028 -725 1275 -790 
Q 1522 -856 1778 -856 
Q 2344 -856 2625 -561 
Q 2906 -266 2906 331 
L 2906 616 
Q 2728 306 2450 153 
Q 2172 0 1784 0 
Q 1141 0 747 490 
Q 353 981 353 1791 
Q 353 2603 747 3093 
Q 1141 3584 1784 3584 
Q 2172 3584 2450 3431 
Q 2728 3278 2906 2969 
L 2906 3500 
L 3481 3500 
L 3481 434 
z
" transform="scale(0.015625)"/>
       <path id="DejaVuSans-74" d="M 1172 4494 
L 1172 3500 
L 2356 3500 
L 2356 3053 
L 1172 3053 
L 1172 1153 
Q 1172 725 1289 603 
Q 1406 481 1766 481 
L 2356 481 
L 2356 0 
L 1766 0 
Q 1100 0 847 248 
Q 594 497 594 1153 
L 594 3053 
L 172 3053 
L 172 3500 
L 594 3500 
L 594 4494 
L 1172 4494 
z
" transform="scale(0.015625)"/>
       <path id="DejaVuSans-69" d="M 603 3500 
L 1178 3500 
L 1178 0 
L 603 0 
L 603 3500 
z
M 603 4863 
L 1178 4863 
L 1178 4134 
L 603 4134 
L 603 4863 
z
" transform="scale(0.015625)"/>
       <path id="DejaVuSans-6e" d="M 3513 2113 
L 3513 0 
L 2938 0 
L 2938 2094 
Q 2938 2591 2744 2837 
Q 2550 3084 2163 3084 
Q 1697 3084 1428 2787 
Q 1159 2491 1159 1978 
L 1159 0 
L 581 0 
L 581 3500 
L 1159 3500 
L 1159 2956 
Q 1366 3272 1645 3428 
Q 1925 3584 2291 3584 
Q 2894 3584 3203 3211 
Q 3513 2838 3513 2113 
z
" transform="scale(0.015625)"/>
       <path id="DejaVuSans-20" transform="scale(0.015625)"/>
       <path id="DejaVuSans-64" d="M 2906 2969 
L 2906 4863 
L 3481 4863 
L 3481 0 
L 2906 0 
L 2906 525 
Q 2725 213 2448 61 
Q 2172 -91 1784 -91 
Q 1150 -91 751 415 
Q 353 922 353 1747 
Q 353 2572 751 3078 
Q 1150 3584 1784 3584 
Q 2172 3584 2448 3432 
Q 2725 3281 2906 2969 
z
M 947 1747 
Q 947 1113 1208 752 
Q 1469 391 1925 391 
Q 2381 391 2643 752 
Q 2906 1113 2906 1747 
Q 2906 2381 2643 2742 
Q 2381 3103 1925 3103 
Q 1469 3103 1208 2742 
Q 947 2381 947 1747 
z
" transform="scale(0.015625)"/>
       <path id="DejaVuSans-65" d="M 3597 1894 
L 3597 1613 
L 953 1613 
Q 991 1019 1311 708 
Q 1631 397 2203 397 
Q 2534 397 2845 478 
Q 3156 559 3463 722 
L 3463 178 
Q 3153 47 2828 -22 
Q 2503 -91 2169 -91 
Q 1331 -91 842 396 
Q 353 884 353 1716 
Q 353 2575 817 3079 
Q 1281 3584 2069 3584 
Q 2775 3584 3186 3129 
Q 3597 2675 3597 1894 
z
M 3022 2063 
Q 3016 2534 2758 2815 
Q 2500 3097 2075 3097 
Q 1594 3097 1305 2825 
Q 1016 2553 972 2059 
L 3022 2063 
z
" transform="scale(0.015625)"/>
       <path id="DejaVuSans-63" d="M 3122 3366 
L 3122 2828 
Q 2878 2963 2633 3030 
Q 2388 3097 2138 3097 
Q 1578 3097 1268 2742 
Q 959 2388 959 1747 
Q 959 1106 1268 751 
Q 1578 397 2138 397 
Q 2388 397 2633 464 
Q 2878 531 3122 666 
L 3122 134 
Q 2881 22 2623 -34 
Q 2366 -91 2075 -91 
Q 1284 -91 818 406 
Q 353 903 353 1747 
Q 353 2603 823 3093 
Q 1294 3584 2113 3584 
Q 2378 3584 2631 3529 
Q 2884 3475 3122 3366 
z
" transform="scale(0.015625)"/>
      </defs>
      <use xlink:href="#DejaVuSans-50"/>
      <use xlink:href="#DejaVuSans-72" x="58.552734"/>
      <use xlink:href="#DejaVuSans-6f" x="97.416016"/>
      <use xlink:href="#DejaVuSans-70" x="158.597656"/>
      <use xlink:href="#DejaVuSans-61" x="222.074219"/>
      <use xlink:href="#DejaVuSans-67" x="283.353516"/>
      <use xlink:href="#DejaVuSans-61" x="346.830078"/>
      <use xlink:href="#DejaVuSans-74" x="408.109375"/>
      <use xlink:href="#DejaVuSans-69" x="447.318359"/>
      <use xlink:href="#DejaVuSans-6f" x="475.101562"/>
      <use xlink:href="#DejaVuSans-6e" x="536.283203"/>
      <use xlink:href="#DejaVuSans-20" x="599.662109"/>
      <use xlink:href="#DejaVuSans-64" x="631.449219"/>
      <use xlink:href="#DejaVuSans-69" x="694.925781"/>
      <use xlink:href="#DejaVuSans-72" x="722.708984"/>
      <use xlink:href="#DejaVuSans-65" x="761.572266"/>
      <use xlink:href="#DejaVuSans-63" x="823.095703"/>
      <use xlink:href="#DejaVuSans-74" x="878.076172"/>
      <use xlink:href="#DejaVuSans-69" x="917.285156"/>
      <use xlink:href="#DejaVuSans-6f" x="945.068359"/>
      <use xlink:href="#DejaVuSans-6e" x="1006.25"/>
     </g>
    </g>
   </g>
   <g id="matplotlib.axis_2">
    <g id="ytick_1">
     <g id="line2d_7">
      <defs>
       <path id="m7c6f450711" d="M 0 0 
L -3.5 0 
" style="stroke: #000000; stroke-width: 0.8"/>
      </defs>
      <g>
       <use xlink:href="#m7c6f450711" x="50.14375" y="224.64" style="stroke: #000000; stroke-width: 0.8"/>
      </g>
     </g>
     <g id="text_8">
      <!-- 0.00 -->
      <g transform="translate(20.878125 228.439219)scale(0.1 -0.1)">
       <use xlink:href="#DejaVuSans-30"/>
       <use xlink:href="#DejaVuSans-2e" x="63.623047"/>
       <use xlink:href="#DejaVuSans-30" x="95.410156"/>
       <use xlink:href="#DejaVuSans-30" x="159.033203"/>
      </g>
     </g>
    </g>
    <g id="ytick_2">
     <g id="line2d_8">
      <g>
       <use xlink:href="#m7c6f450711" x="50.14375" y="200.268924" style="stroke: #000000; stroke-width: 0.8"/>
      </g>
     </g>
     <g id="text_9">
      <!-- 0.25 -->
      <g transform="translate(20.878125 204.068143)scale(0.1 -0.1)">
       <defs>
        <path id="DejaVuSans-35" d="M 691 4666 
L 3169 4666 
L 3169 4134 
L 1269 4134 
L 1269 2991 
Q 1406 3038 1543 3061 
Q 1681 3084 1819 3084 
Q 2600 3084 3056 2656 
Q 3513 2228 3513 1497 
Q 3513 744 3044 326 
Q 2575 -91 1722 -91 
Q 1428 -91 1123 -41 
Q 819 9 494 109 
L 494 744 
Q 775 591 1075 516 
Q 1375 441 1709 441 
Q 2250 441 2565 725 
Q 2881 1009 2881 1497 
Q 2881 1984 2565 2268 
Q 2250 2553 1709 2553 
Q 1456 2553 1204 2497 
Q 953 2441 691 2322 
L 691 4666 
z
" transform="scale(0.015625)"/>
       </defs>
       <use xlink:href="#DejaVuSans-30"/>
       <use xlink:href="#DejaVuSans-2e" x="63.623047"/>
       <use xlink:href="#DejaVuSans-32" x="95.410156"/>
       <use xlink:href="#DejaVuSans-35" x="159.033203"/>
      </g>
     </g>
    </g>
    <g id="ytick_3">
     <g id="line2d_9">
      <g>
       <use xlink:href="#m7c6f450711" x="50.14375" y="175.897848" style="stroke: #000000; stroke-width: 0.8"/>
      </g>
     </g>
     <g id="text_10">
      <!-- 0.50 -->
      <g transform="translate(20.878125 179.697067)scale(0.1 -0.1)">
       <use xlink:href="#DejaVuSans-30"/>
       <use xlink:href="#DejaVuSans-2e" x="63.623047"/>
       <use xlink:href="#DejaVuSans-35" x="95.410156"/>
       <use xlink:href="#DejaVuSans-30" x="159.033203"/>
      </g>
     </g>
    </g>
    <g id="ytick_4">
     <g id="line2d_10">
      <g>
       <use xlink:href="#m7c6f450711" x="50.14375" y="151.526772" style="stroke: #000000; stroke-width: 0.8"/>
      </g>
     </g>
     <g id="text_11">
      <!-- 0.75 -->
      <g transform="translate(20.878125 155.32599)scale(0.1 -0.1)">
       <defs>
        <path id="DejaVuSans-37" d="M 525 4666 
L 3525 4666 
L 3525 4397 
L 1831 0 
L 1172 0 
L 2766 4134 
L 525 4134 
L 525 4666 
z
" transform="scale(0.015625)"/>
       </defs>
       <use xlink:href="#DejaVuSans-30"/>
       <use xlink:href="#DejaVuSans-2e" x="63.623047"/>
       <use xlink:href="#DejaVuSans-37" x="95.410156"/>
       <use xlink:href="#DejaVuSans-35" x="159.033203"/>
      </g>
     </g>
    </g>
    <g id="ytick_5">
     <g id="line2d_11">
      <g>
       <use xlink:href="#m7c6f450711" x="50.14375" y="127.155696" style="stroke: #000000; stroke-width: 0.8"/>
      </g>
     </g>
     <g id="text_12">
      <!-- 1.00 -->
      <g transform="translate(20.878125 130.954914)scale(0.1 -0.1)">
       <use xlink:href="#DejaVuSans-31"/>
       <use xlink:href="#DejaVuSans-2e" x="63.623047"/>
       <use xlink:href="#DejaVuSans-30" x="95.410156"/>
       <use xlink:href="#DejaVuSans-30" x="159.033203"/>
      </g>
     </g>
    </g>
    <g id="ytick_6">
     <g id="line2d_12">
      <g>
       <use xlink:href="#m7c6f450711" x="50.14375" y="102.784619" style="stroke: #000000; stroke-width: 0.8"/>
      </g>
     </g>
     <g id="text_13">
      <!-- 1.25 -->
      <g transform="translate(20.878125 106.583838)scale(0.1 -0.1)">
       <use xlink:href="#DejaVuSans-31"/>
       <use xlink:href="#DejaVuSans-2e" x="63.623047"/>
       <use xlink:href="#DejaVuSans-32" x="95.410156"/>
       <use xlink:href="#DejaVuSans-35" x="159.033203"/>
      </g>
     </g>
    </g>
    <g id="ytick_7">
     <g id="line2d_13">
      <g>
       <use xlink:href="#m7c6f450711" x="50.14375" y="78.413543" style="stroke: #000000; stroke-width: 0.8"/>
      </g>
     </g>
     <g id="text_14">
      <!-- 1.50 -->
      <g transform="translate(20.878125 82.212762)scale(0.1 -0.1)">
       <use xlink:href="#DejaVuSans-31"/>
       <use xlink:href="#DejaVuSans-2e" x="63.623047"/>
       <use xlink:href="#DejaVuSans-35" x="95.410156"/>
       <use xlink:href="#DejaVuSans-30" x="159.033203"/>
      </g>
     </g>
    </g>
    <g id="ytick_8">
     <g id="line2d_14">
      <g>
       <use xlink:href="#m7c6f450711" x="50.14375" y="54.042467" style="stroke: #000000; stroke-width: 0.8"/>
      </g>
     </g>
     <g id="text_15">
      <!-- 1.75 -->
      <g transform="translate(20.878125 57.841686)scale(0.1 -0.1)">
       <use xlink:href="#DejaVuSans-31"/>
       <use xlink:href="#DejaVuSans-2e" x="63.623047"/>
       <use xlink:href="#DejaVuSans-37" x="95.410156"/>
       <use xlink:href="#DejaVuSans-35" x="159.033203"/>
      </g>
     </g>
    </g>
    <g id="ytick_9">
     <g id="line2d_15">
      <g>
       <use xlink:href="#m7c6f450711" x="50.14375" y="29.671391" style="stroke: #000000; stroke-width: 0.8"/>
      </g>
     </g>
     <g id="text_16">
      <!-- 2.00 -->
      <g transform="translate(20.878125 33.47061)scale(0.1 -0.1)">
       <use xlink:href="#DejaVuSans-32"/>
       <use xlink:href="#DejaVuSans-2e" x="63.623047"/>
       <use xlink:href="#DejaVuSans-30" x="95.410156"/>
       <use xlink:href="#DejaVuSans-30" x="159.033203"/>
      </g>
     </g>
    </g>
    <g id="text_17">
     <!-- Probability density -->
     <g transform="translate(14.798438 162.270781)rotate(-90)scale(0.1 -0.1)">
      <defs>
       <path id="DejaVuSans-62" d="M 3116 1747 
Q 3116 2381 2855 2742 
Q 2594 3103 2138 3103 
Q 1681 3103 1420 2742 
Q 1159 2381 1159 1747 
Q 1159 1113 1420 752 
Q 1681 391 2138 391 
Q 2594 391 2855 752 
Q 3116 1113 3116 1747 
z
M 1159 2969 
Q 1341 3281 1617 3432 
Q 1894 3584 2278 3584 
Q 2916 3584 3314 3078 
Q 3713 2572 3713 1747 
Q 3713 922 3314 415 
Q 2916 -91 2278 -91 
Q 1894 -91 1617 61 
Q 1341 213 1159 525 
L 1159 0 
L 581 0 
L 581 4863 
L 1159 4863 
L 1159 2969 
z
" transform="scale(0.015625)"/>
       <path id="DejaVuSans-6c" d="M 603 4863 
L 1178 4863 
L 1178 0 
L 603 0 
L 603 4863 
z
" transform="scale(0.015625)"/>
       <path id="DejaVuSans-79" d="M 2059 -325 
Q 1816 -950 1584 -1140 
Q 1353 -1331 966 -1331 
L 506 -1331 
L 506 -850 
L 844 -850 
Q 1081 -850 1212 -737 
Q 1344 -625 1503 -206 
L 1606 56 
L 191 3500 
L 800 3500 
L 1894 763 
L 2988 3500 
L 3597 3500 
L 2059 -325 
z
" transform="scale(0.015625)"/>
       <path id="DejaVuSans-73" d="M 2834 3397 
L 2834 2853 
Q 2591 2978 2328 3040 
Q 2066 3103 1784 3103 
Q 1356 3103 1142 2972 
Q 928 2841 928 2578 
Q 928 2378 1081 2264 
Q 1234 2150 1697 2047 
L 1894 2003 
Q 2506 1872 2764 1633 
Q 3022 1394 3022 966 
Q 3022 478 2636 193 
Q 2250 -91 1575 -91 
Q 1294 -91 989 -36 
Q 684 19 347 128 
L 347 722 
Q 666 556 975 473 
Q 1284 391 1588 391 
Q 1994 391 2212 530 
Q 2431 669 2431 922 
Q 2431 1156 2273 1281 
Q 2116 1406 1581 1522 
L 1381 1569 
Q 847 1681 609 1914 
Q 372 2147 372 2553 
Q 372 3047 722 3315 
Q 1072 3584 1716 3584 
Q 2034 3584 2315 3537 
Q 2597 3491 2834 3397 
z
" transform="scale(0.015625)"/>
      </defs>
      <use xlink:href="#DejaVuSans-50"/>
      <use xlink:href="#DejaVuSans-72" x="58.552734"/>
      <use xlink:href="#DejaVuSans-6f" x="97.416016"/>
      <use xlink:href="#DejaVuSans-62" x="158.597656"/>
      <use xlink:href="#DejaVuSans-61" x="222.074219"/>
      <use xlink:href="#DejaVuSans-62" x="283.353516"/>
      <use xlink:href="#DejaVuSans-69" x="346.830078"/>
      <use xlink:href="#DejaVuSans-6c" x="374.613281"/>
      <use xlink:href="#DejaVuSans-69" x="402.396484"/>
      <use xlink:href="#DejaVuSans-74" x="430.179688"/>
      <use xlink:href="#DejaVuSans-79" x="469.388672"/>
      <use xlink:href="#DejaVuSans-20" x="528.568359"/>
      <use xlink:href="#DejaVuSans-64" x="560.355469"/>
      <use xlink:href="#DejaVuSans-65" x="623.832031"/>
      <use xlink:href="#DejaVuSans-6e" x="685.355469"/>
      <use xlink:href="#DejaVuSans-73" x="748.734375"/>
      <use xlink:href="#DejaVuSans-69" x="800.833984"/>
      <use xlink:href="#DejaVuSans-74" x="828.617188"/>
      <use xlink:href="#DejaVuSans-79" x="867.826172"/>
     </g>
    </g>
   </g>
   <g id="line2d_16">
    <path d="M 65.361932 224.64 
L 369.725568 29.671391 
L 369.725568 29.671391 
" clip-path="url(#pd610750681)" style="fill: none; stroke: #ff7f0e; stroke-width: 1.5; stroke-linecap: square"/>
   </g>
   <g id="patch_203">
    <path d="M 50.14375 224.64 
L 50.14375 7.2 
" style="fill: none; stroke: #000000; stroke-width: 0.8; stroke-linejoin: miter; stroke-linecap: square"/>
   </g>
   <g id="patch_204">
    <path d="M 384.94375 224.64 
L 384.94375 7.2 
" style="fill: none; stroke: #000000; stroke-width: 0.8; stroke-linejoin: miter; stroke-linecap: square"/>
   </g>
   <g id="patch_205">
    <path d="M 50.14375 224.64 
L 384.94375 224.64 
" style="fill: none; stroke: #000000; stroke-width: 0.8; stroke-linejoin: miter; stroke-linecap: square"/>
   </g>
   <g id="patch_206">
    <path d="M 50.14375 7.2 
L 384.94375 7.2 
" style="fill: none; stroke: #000000; stroke-width: 0.8; stroke-linejoin: miter; stroke-linecap: square"/>
   </g>
  </g>
 </g>
 <defs>
  <clipPath id="pd610750681">
   <rect x="50.14375" y="7.2" width="334.8" height="217.44"/>
  </clipPath>
 </defs>
</svg>
