<?xml version="1.0" encoding="utf-8" standalone="no"?>
<!DOCTYPE svg PUBLIC "-//W3C//DTD SVG 1.1//EN"
  "http://www.w3.org/Graphics/SVG/1.1/DTD/svg11.dtd">
<svg xmlns:xlink="http://www.w3.org/1999/xlink" width="392.14375pt" height="262.19625pt" viewBox="0 0 392.14375 262.19625" xmlns="http://www.w3.org/2000/svg" version="1.1">
 <metadata>
  <rdf:RDF xmlns:dc="http://purl.org/dc/elements/1.1/" xmlns:cc="http://creativecommons.org/ns#" xmlns:rdf="http://www.w3.org/1999/02/22-rdf-syntax-ns#">
   <cc:Work>
    <dc:type rdf:resource="http://purl.org/dc/dcmitype/StillImage"/>
    <dc:date>2022-07-20T14:20:25.675075</dc:date>
    <dc:format>image/svg+xml</dc:format>
    <dc:creator>
     <cc:Agent>
      <dc:title>Matplotlib v3.5.2, https://matplotlib.org/</dc:title>
     </cc:Agent>
    </dc:creator>
   </cc:Work>
  </rdf:RDF>
 </metadata>
 <defs>
  <style type="text/css">*{stroke-linejoin: round; stroke-linecap: butt}</style>
 </defs>
 <g id="figure_1">
  <g id="patch_1">
   <path d="M 0 262.19625 
L 392.14375 262.19625 
L 392.14375 0 
L 0 0 
L 0 262.19625 
z
" style="fill: none"/>
  </g>
  <g id="axes_1">
   <g id="patch_2">
    <path d="M 50.14375 224.64 
L 384.94375 224.64 
L 384.94375 7.2 
L 50.14375 7.2 
z
" style="fill: #ffffff"/>
   </g>
   <g id="patch_3">
    <path d="M 66.725299 224.64 
L 68.240299 224.64 
L 68.240299 223.132094 
L 66.725299 223.132094 
z
" clip-path="url(#pee64d533cb)" style="fill: #1f77b4"/>
   </g>
   <g id="patch_4">
    <path d="M 68.240299 224.64 
L 69.755299 224.64 
L 69.755299 223.132094 
L 68.240299 223.132094 
z
" clip-path="url(#pee64d533cb)" style="fill: #1f77b4"/>
   </g>
   <g id="patch_5">
    <path d="M 69.755299 224.64 
L 71.2703 224.64 
L 71.2703 219.111012 
L 69.755299 219.111012 
z
" clip-path="url(#pee64d533cb)" style="fill: #1f77b4"/>
   </g>
   <g id="patch_6">
    <path d="M 71.2703 224.64 
L 72.7853 224.64 
L 72.7853 221.121553 
L 71.2703 221.121553 
z
" clip-path="url(#pee64d533cb)" style="fill: #1f77b4"/>
   </g>
   <g id="patch_7">
    <path d="M 72.7853 224.64 
L 74.3003 224.64 
L 74.3003 216.597836 
L 72.7853 216.597836 
z
" clip-path="url(#pee64d533cb)" style="fill: #1f77b4"/>
   </g>
   <g id="patch_8">
    <path d="M 74.3003 224.64 
L 75.8153 224.64 
L 75.8153 221.624189 
L 74.3003 221.624189 
z
" clip-path="url(#pee64d533cb)" style="fill: #1f77b4"/>
   </g>
   <g id="patch_9">
    <path d="M 75.8153 224.64 
L 77.3303 224.64 
L 77.3303 218.608377 
L 75.8153 218.608377 
z
" clip-path="url(#pee64d533cb)" style="fill: #1f77b4"/>
   </g>
   <g id="patch_10">
    <path d="M 77.3303 224.64 
L 78.8453 224.64 
L 78.8453 216.597836 
L 77.3303 216.597836 
z
" clip-path="url(#pee64d533cb)" style="fill: #1f77b4"/>
   </g>
   <g id="patch_11">
    <path d="M 78.8453 224.64 
L 80.3603 224.64 
L 80.3603 216.597836 
L 78.8453 216.597836 
z
" clip-path="url(#pee64d533cb)" style="fill: #1f77b4"/>
   </g>
   <g id="patch_12">
    <path d="M 80.3603 224.64 
L 81.8753 224.64 
L 81.8753 208.555673 
L 80.3603 208.555673 
z
" clip-path="url(#pee64d533cb)" style="fill: #1f77b4"/>
   </g>
   <g id="patch_13">
    <path d="M 81.8753 224.64 
L 83.390301 224.64 
L 83.390301 212.074119 
L 81.8753 212.074119 
z
" clip-path="url(#pee64d533cb)" style="fill: #1f77b4"/>
   </g>
   <g id="patch_14">
    <path d="M 83.390301 224.64 
L 84.905301 224.64 
L 84.905301 210.063578 
L 83.390301 210.063578 
z
" clip-path="url(#pee64d533cb)" style="fill: #1f77b4"/>
   </g>
   <g id="patch_15">
    <path d="M 84.905301 224.64 
L 86.420301 224.64 
L 86.420301 213.582025 
L 84.905301 213.582025 
z
" clip-path="url(#pee64d533cb)" style="fill: #1f77b4"/>
   </g>
   <g id="patch_16">
    <path d="M 86.420301 224.64 
L 87.935301 224.64 
L 87.935301 210.063578 
L 86.420301 210.063578 
z
" clip-path="url(#pee64d533cb)" style="fill: #1f77b4"/>
   </g>
   <g id="patch_17">
    <path d="M 87.935301 224.64 
L 89.450301 224.64 
L 89.450301 213.07939 
L 87.935301 213.07939 
z
" clip-path="url(#pee64d533cb)" style="fill: #1f77b4"/>
   </g>
   <g id="patch_18">
    <path d="M 89.450301 224.64 
L 90.965301 224.64 
L 90.965301 204.534591 
L 89.450301 204.534591 
z
" clip-path="url(#pee64d533cb)" style="fill: #1f77b4"/>
   </g>
   <g id="patch_19">
    <path d="M 90.965301 224.64 
L 92.480301 224.64 
L 92.480301 207.550402 
L 90.965301 207.550402 
z
" clip-path="url(#pee64d533cb)" style="fill: #1f77b4"/>
   </g>
   <g id="patch_20">
    <path d="M 92.480301 224.64 
L 93.995301 224.64 
L 93.995301 208.555673 
L 92.480301 208.555673 
z
" clip-path="url(#pee64d533cb)" style="fill: #1f77b4"/>
   </g>
   <g id="patch_21">
    <path d="M 93.995301 224.64 
L 95.510301 224.64 
L 95.510301 204.031956 
L 93.995301 204.031956 
z
" clip-path="url(#pee64d533cb)" style="fill: #1f77b4"/>
   </g>
   <g id="patch_22">
    <path d="M 95.510301 224.64 
L 97.025302 224.64 
L 97.025302 200.010874 
L 95.510301 200.010874 
z
" clip-path="url(#pee64d533cb)" style="fill: #1f77b4"/>
   </g>
   <g id="patch_23">
    <path d="M 97.025302 224.64 
L 98.540302 224.64 
L 98.540302 198.502968 
L 97.025302 198.502968 
z
" clip-path="url(#pee64d533cb)" style="fill: #1f77b4"/>
   </g>
   <g id="patch_24">
    <path d="M 98.540302 224.64 
L 100.055302 224.64 
L 100.055302 200.010874 
L 98.540302 200.010874 
z
" clip-path="url(#pee64d533cb)" style="fill: #1f77b4"/>
   </g>
   <g id="patch_25">
    <path d="M 100.055302 224.64 
L 101.570302 224.64 
L 101.570302 206.042497 
L 100.055302 206.042497 
z
" clip-path="url(#pee64d533cb)" style="fill: #1f77b4"/>
   </g>
   <g id="patch_26">
    <path d="M 101.570302 224.64 
L 103.085302 224.64 
L 103.085302 201.518779 
L 101.570302 201.518779 
z
" clip-path="url(#pee64d533cb)" style="fill: #1f77b4"/>
   </g>
   <g id="patch_27">
    <path d="M 103.085302 224.64 
L 104.600302 224.64 
L 104.600302 198.000333 
L 103.085302 198.000333 
z
" clip-path="url(#pee64d533cb)" style="fill: #1f77b4"/>
   </g>
   <g id="patch_28">
    <path d="M 104.600302 224.64 
L 106.115302 224.64 
L 106.115302 200.513509 
L 104.600302 200.513509 
z
" clip-path="url(#pee64d533cb)" style="fill: #1f77b4"/>
   </g>
   <g id="patch_29">
    <path d="M 106.115302 224.64 
L 107.630302 224.64 
L 107.630302 197.497698 
L 106.115302 197.497698 
z
" clip-path="url(#pee64d533cb)" style="fill: #1f77b4"/>
   </g>
   <g id="patch_30">
    <path d="M 107.630302 224.64 
L 109.145302 224.64 
L 109.145302 195.487157 
L 107.630302 195.487157 
z
" clip-path="url(#pee64d533cb)" style="fill: #1f77b4"/>
   </g>
   <g id="patch_31">
    <path d="M 109.145302 224.64 
L 110.660303 224.64 
L 110.660303 193.476616 
L 109.145302 193.476616 
z
" clip-path="url(#pee64d533cb)" style="fill: #1f77b4"/>
   </g>
   <g id="patch_32">
    <path d="M 110.660303 224.64 
L 112.175303 224.64 
L 112.175303 188.952899 
L 110.660303 188.952899 
z
" clip-path="url(#pee64d533cb)" style="fill: #1f77b4"/>
   </g>
   <g id="patch_33">
    <path d="M 112.175303 224.64 
L 113.690303 224.64 
L 113.690303 198.502968 
L 112.175303 198.502968 
z
" clip-path="url(#pee64d533cb)" style="fill: #1f77b4"/>
   </g>
   <g id="patch_34">
    <path d="M 113.690303 224.64 
L 115.205303 224.64 
L 115.205303 196.995062 
L 113.690303 196.995062 
z
" clip-path="url(#pee64d533cb)" style="fill: #1f77b4"/>
   </g>
   <g id="patch_35">
    <path d="M 115.205303 224.64 
L 116.720303 224.64 
L 116.720303 193.476616 
L 115.205303 193.476616 
z
" clip-path="url(#pee64d533cb)" style="fill: #1f77b4"/>
   </g>
   <g id="patch_36">
    <path d="M 116.720303 224.64 
L 118.235303 224.64 
L 118.235303 193.979251 
L 116.720303 193.979251 
z
" clip-path="url(#pee64d533cb)" style="fill: #1f77b4"/>
   </g>
   <g id="patch_37">
    <path d="M 118.235303 224.64 
L 119.750303 224.64 
L 119.750303 190.460804 
L 118.235303 190.460804 
z
" clip-path="url(#pee64d533cb)" style="fill: #1f77b4"/>
   </g>
   <g id="patch_38">
    <path d="M 119.750303 224.64 
L 121.265303 224.64 
L 121.265303 188.952899 
L 119.750303 188.952899 
z
" clip-path="url(#pee64d533cb)" style="fill: #1f77b4"/>
   </g>
   <g id="patch_39">
    <path d="M 121.265303 224.64 
L 122.780303 224.64 
L 122.780303 189.958169 
L 121.265303 189.958169 
z
" clip-path="url(#pee64d533cb)" style="fill: #1f77b4"/>
   </g>
   <g id="patch_40">
    <path d="M 122.780303 224.64 
L 124.295304 224.64 
L 124.295304 188.450264 
L 122.780303 188.450264 
z
" clip-path="url(#pee64d533cb)" style="fill: #1f77b4"/>
   </g>
   <g id="patch_41">
    <path d="M 124.295304 224.64 
L 125.810304 224.64 
L 125.810304 191.96871 
L 124.295304 191.96871 
z
" clip-path="url(#pee64d533cb)" style="fill: #1f77b4"/>
   </g>
   <g id="patch_42">
    <path d="M 125.810304 224.64 
L 127.325304 224.64 
L 127.325304 180.4081 
L 125.810304 180.4081 
z
" clip-path="url(#pee64d533cb)" style="fill: #1f77b4"/>
   </g>
   <g id="patch_43">
    <path d="M 127.325304 224.64 
L 128.840304 224.64 
L 128.840304 176.387018 
L 127.325304 176.387018 
z
" clip-path="url(#pee64d533cb)" style="fill: #1f77b4"/>
   </g>
   <g id="patch_44">
    <path d="M 128.840304 224.64 
L 130.355304 224.64 
L 130.355304 180.910735 
L 128.840304 180.910735 
z
" clip-path="url(#pee64d533cb)" style="fill: #1f77b4"/>
   </g>
   <g id="patch_45">
    <path d="M 130.355304 224.64 
L 131.870304 224.64 
L 131.870304 184.429182 
L 130.355304 184.429182 
z
" clip-path="url(#pee64d533cb)" style="fill: #1f77b4"/>
   </g>
   <g id="patch_46">
    <path d="M 131.870304 224.64 
L 133.385304 224.64 
L 133.385304 193.979251 
L 131.870304 193.979251 
z
" clip-path="url(#pee64d533cb)" style="fill: #1f77b4"/>
   </g>
   <g id="patch_47">
    <path d="M 133.385304 224.64 
L 134.900304 224.64 
L 134.900304 170.355395 
L 133.385304 170.355395 
z
" clip-path="url(#pee64d533cb)" style="fill: #1f77b4"/>
   </g>
   <g id="patch_48">
    <path d="M 134.900304 224.64 
L 136.415304 224.64 
L 136.415304 171.863301 
L 134.900304 171.863301 
z
" clip-path="url(#pee64d533cb)" style="fill: #1f77b4"/>
   </g>
   <g id="patch_49">
    <path d="M 136.415304 224.64 
L 137.930305 224.64 
L 137.930305 173.873842 
L 136.415304 173.873842 
z
" clip-path="url(#pee64d533cb)" style="fill: #1f77b4"/>
   </g>
   <g id="patch_50">
    <path d="M 137.930305 224.64 
L 139.445305 224.64 
L 139.445305 177.392288 
L 137.930305 177.392288 
z
" clip-path="url(#pee64d533cb)" style="fill: #1f77b4"/>
   </g>
   <g id="patch_51">
    <path d="M 139.445305 224.64 
L 140.960305 224.64 
L 140.960305 168.84749 
L 139.445305 168.84749 
z
" clip-path="url(#pee64d533cb)" style="fill: #1f77b4"/>
   </g>
   <g id="patch_52">
    <path d="M 140.960305 224.64 
L 142.475305 224.64 
L 142.475305 179.905465 
L 140.960305 179.905465 
z
" clip-path="url(#pee64d533cb)" style="fill: #1f77b4"/>
   </g>
   <g id="patch_53">
    <path d="M 142.475305 224.64 
L 143.990305 224.64 
L 143.990305 168.344854 
L 142.475305 168.344854 
z
" clip-path="url(#pee64d533cb)" style="fill: #1f77b4"/>
   </g>
   <g id="patch_54">
    <path d="M 143.990305 224.64 
L 145.505305 224.64 
L 145.505305 170.858031 
L 143.990305 170.858031 
z
" clip-path="url(#pee64d533cb)" style="fill: #1f77b4"/>
   </g>
   <g id="patch_55">
    <path d="M 145.505305 224.64 
L 147.020305 224.64 
L 147.020305 162.815867 
L 145.505305 162.815867 
z
" clip-path="url(#pee64d533cb)" style="fill: #1f77b4"/>
   </g>
   <g id="patch_56">
    <path d="M 147.020305 224.64 
L 148.535305 224.64 
L 148.535305 162.815867 
L 147.020305 162.815867 
z
" clip-path="url(#pee64d533cb)" style="fill: #1f77b4"/>
   </g>
   <g id="patch_57">
    <path d="M 148.535305 224.64 
L 150.050306 224.64 
L 150.050306 175.884383 
L 148.535305 175.884383 
z
" clip-path="url(#pee64d533cb)" style="fill: #1f77b4"/>
   </g>
   <g id="patch_58">
    <path d="M 150.050306 224.64 
L 151.565306 224.64 
L 151.565306 161.810596 
L 150.050306 161.810596 
z
" clip-path="url(#pee64d533cb)" style="fill: #1f77b4"/>
   </g>
   <g id="patch_59">
    <path d="M 151.565306 224.64 
L 153.080306 224.64 
L 153.080306 163.318502 
L 151.565306 163.318502 
z
" clip-path="url(#pee64d533cb)" style="fill: #1f77b4"/>
   </g>
   <g id="patch_60">
    <path d="M 153.080306 224.64 
L 154.595306 224.64 
L 154.595306 175.381748 
L 153.080306 175.381748 
z
" clip-path="url(#pee64d533cb)" style="fill: #1f77b4"/>
   </g>
   <g id="patch_61">
    <path d="M 154.595306 224.64 
L 156.110306 224.64 
L 156.110306 166.836949 
L 154.595306 166.836949 
z
" clip-path="url(#pee64d533cb)" style="fill: #1f77b4"/>
   </g>
   <g id="patch_62">
    <path d="M 156.110306 224.64 
L 157.625306 224.64 
L 157.625306 164.826408 
L 156.110306 164.826408 
z
" clip-path="url(#pee64d533cb)" style="fill: #1f77b4"/>
   </g>
   <g id="patch_63">
    <path d="M 157.625306 224.64 
L 159.140306 224.64 
L 159.140306 159.29742 
L 157.625306 159.29742 
z
" clip-path="url(#pee64d533cb)" style="fill: #1f77b4"/>
   </g>
   <g id="patch_64">
    <path d="M 159.140306 224.64 
L 160.655306 224.64 
L 160.655306 171.360666 
L 159.140306 171.360666 
z
" clip-path="url(#pee64d533cb)" style="fill: #1f77b4"/>
   </g>
   <g id="patch_65">
    <path d="M 160.655306 224.64 
L 162.170306 224.64 
L 162.170306 159.29742 
L 160.655306 159.29742 
z
" clip-path="url(#pee64d533cb)" style="fill: #1f77b4"/>
   </g>
   <g id="patch_66">
    <path d="M 162.170306 224.64 
L 163.685307 224.64 
L 163.685307 157.789515 
L 162.170306 157.789515 
z
" clip-path="url(#pee64d533cb)" style="fill: #1f77b4"/>
   </g>
   <g id="patch_67">
    <path d="M 163.685307 224.64 
L 165.200307 224.64 
L 165.200307 170.355395 
L 163.685307 170.355395 
z
" clip-path="url(#pee64d533cb)" style="fill: #1f77b4"/>
   </g>
   <g id="patch_68">
    <path d="M 165.200307 224.64 
L 166.715307 224.64 
L 166.715307 171.863301 
L 165.200307 171.863301 
z
" clip-path="url(#pee64d533cb)" style="fill: #1f77b4"/>
   </g>
   <g id="patch_69">
    <path d="M 166.715307 224.64 
L 168.230307 224.64 
L 168.230307 159.29742 
L 166.715307 159.29742 
z
" clip-path="url(#pee64d533cb)" style="fill: #1f77b4"/>
   </g>
   <g id="patch_70">
    <path d="M 168.230307 224.64 
L 169.745307 224.64 
L 169.745307 155.276338 
L 168.230307 155.276338 
z
" clip-path="url(#pee64d533cb)" style="fill: #1f77b4"/>
   </g>
   <g id="patch_71">
    <path d="M 169.745307 224.64 
L 171.260307 224.64 
L 171.260307 159.800055 
L 169.745307 159.800055 
z
" clip-path="url(#pee64d533cb)" style="fill: #1f77b4"/>
   </g>
   <g id="patch_72">
    <path d="M 171.260307 224.64 
L 172.775307 224.64 
L 172.775307 152.763162 
L 171.260307 152.763162 
z
" clip-path="url(#pee64d533cb)" style="fill: #1f77b4"/>
   </g>
   <g id="patch_73">
    <path d="M 172.775307 224.64 
L 174.290307 224.64 
L 174.290307 149.747351 
L 172.775307 149.747351 
z
" clip-path="url(#pee64d533cb)" style="fill: #1f77b4"/>
   </g>
   <g id="patch_74">
    <path d="M 174.290307 224.64 
L 175.805307 224.64 
L 175.805307 153.265798 
L 174.290307 153.265798 
z
" clip-path="url(#pee64d533cb)" style="fill: #1f77b4"/>
   </g>
   <g id="patch_75">
    <path d="M 175.805307 224.64 
L 177.320308 224.64 
L 177.320308 163.318502 
L 175.805307 163.318502 
z
" clip-path="url(#pee64d533cb)" style="fill: #1f77b4"/>
   </g>
   <g id="patch_76">
    <path d="M 177.320308 224.64 
L 178.835308 224.64 
L 178.835308 146.73154 
L 177.320308 146.73154 
z
" clip-path="url(#pee64d533cb)" style="fill: #1f77b4"/>
   </g>
   <g id="patch_77">
    <path d="M 178.835308 224.64 
L 180.350308 224.64 
L 180.350308 168.84749 
L 178.835308 168.84749 
z
" clip-path="url(#pee64d533cb)" style="fill: #1f77b4"/>
   </g>
   <g id="patch_78">
    <path d="M 180.350308 224.64 
L 181.865308 224.64 
L 181.865308 157.789515 
L 180.350308 157.789515 
z
" clip-path="url(#pee64d533cb)" style="fill: #1f77b4"/>
   </g>
   <g id="patch_79">
    <path d="M 181.865308 224.64 
L 183.380308 224.64 
L 183.380308 151.757892 
L 181.865308 151.757892 
z
" clip-path="url(#pee64d533cb)" style="fill: #1f77b4"/>
   </g>
   <g id="patch_80">
    <path d="M 183.380308 224.64 
L 184.895308 224.64 
L 184.895308 144.720999 
L 183.380308 144.720999 
z
" clip-path="url(#pee64d533cb)" style="fill: #1f77b4"/>
   </g>
   <g id="patch_81">
    <path d="M 184.895308 224.64 
L 186.410308 224.64 
L 186.410308 150.752621 
L 184.895308 150.752621 
z
" clip-path="url(#pee64d533cb)" style="fill: #1f77b4"/>
   </g>
   <g id="patch_82">
    <path d="M 186.410308 224.64 
L 187.925308 224.64 
L 187.925308 151.757892 
L 186.410308 151.757892 
z
" clip-path="url(#pee64d533cb)" style="fill: #1f77b4"/>
   </g>
   <g id="patch_83">
    <path d="M 187.925308 224.64 
L 189.440308 224.64 
L 189.440308 142.710458 
L 187.925308 142.710458 
z
" clip-path="url(#pee64d533cb)" style="fill: #1f77b4"/>
   </g>
   <g id="patch_84">
    <path d="M 189.440308 224.64 
L 190.955309 224.64 
L 190.955309 143.715728 
L 189.440308 143.715728 
z
" clip-path="url(#pee64d533cb)" style="fill: #1f77b4"/>
   </g>
   <g id="patch_85">
    <path d="M 190.955309 224.64 
L 192.470309 224.64 
L 192.470309 137.18147 
L 190.955309 137.18147 
z
" clip-path="url(#pee64d533cb)" style="fill: #1f77b4"/>
   </g>
   <g id="patch_86">
    <path d="M 192.470309 224.64 
L 193.985309 224.64 
L 193.985309 134.668294 
L 192.470309 134.668294 
z
" clip-path="url(#pee64d533cb)" style="fill: #1f77b4"/>
   </g>
   <g id="patch_87">
    <path d="M 193.985309 224.64 
L 195.500309 224.64 
L 195.500309 138.689376 
L 193.985309 138.689376 
z
" clip-path="url(#pee64d533cb)" style="fill: #1f77b4"/>
   </g>
   <g id="patch_88">
    <path d="M 195.500309 224.64 
L 197.015309 224.64 
L 197.015309 136.1762 
L 195.500309 136.1762 
z
" clip-path="url(#pee64d533cb)" style="fill: #1f77b4"/>
   </g>
   <g id="patch_89">
    <path d="M 197.015309 224.64 
L 198.530309 224.64 
L 198.530309 137.18147 
L 197.015309 137.18147 
z
" clip-path="url(#pee64d533cb)" style="fill: #1f77b4"/>
   </g>
   <g id="patch_90">
    <path d="M 198.530309 224.64 
L 200.045309 224.64 
L 200.045309 134.668294 
L 198.530309 134.668294 
z
" clip-path="url(#pee64d533cb)" style="fill: #1f77b4"/>
   </g>
   <g id="patch_91">
    <path d="M 200.045309 224.64 
L 201.560309 224.64 
L 201.560309 134.668294 
L 200.045309 134.668294 
z
" clip-path="url(#pee64d533cb)" style="fill: #1f77b4"/>
   </g>
   <g id="patch_92">
    <path d="M 201.560309 224.64 
L 203.075309 224.64 
L 203.075309 129.641942 
L 201.560309 129.641942 
z
" clip-path="url(#pee64d533cb)" style="fill: #1f77b4"/>
   </g>
   <g id="patch_93">
    <path d="M 203.075309 224.64 
L 204.59031 224.64 
L 204.59031 125.62086 
L 203.075309 125.62086 
z
" clip-path="url(#pee64d533cb)" style="fill: #1f77b4"/>
   </g>
   <g id="patch_94">
    <path d="M 204.59031 224.64 
L 206.10531 224.64 
L 206.10531 129.641942 
L 204.59031 129.641942 
z
" clip-path="url(#pee64d533cb)" style="fill: #1f77b4"/>
   </g>
   <g id="patch_95">
    <path d="M 206.10531 224.64 
L 207.62031 224.64 
L 207.62031 138.689376 
L 206.10531 138.689376 
z
" clip-path="url(#pee64d533cb)" style="fill: #1f77b4"/>
   </g>
   <g id="patch_96">
    <path d="M 207.62031 224.64 
L 209.13531 224.64 
L 209.13531 127.128766 
L 207.62031 127.128766 
z
" clip-path="url(#pee64d533cb)" style="fill: #1f77b4"/>
   </g>
   <g id="patch_97">
    <path d="M 209.13531 224.64 
L 210.65031 224.64 
L 210.65031 119.086602 
L 209.13531 119.086602 
z
" clip-path="url(#pee64d533cb)" style="fill: #1f77b4"/>
   </g>
   <g id="patch_98">
    <path d="M 210.65031 224.64 
L 212.16531 224.64 
L 212.16531 132.155118 
L 210.65031 132.155118 
z
" clip-path="url(#pee64d533cb)" style="fill: #1f77b4"/>
   </g>
   <g id="patch_99">
    <path d="M 212.16531 224.64 
L 213.68031 224.64 
L 213.68031 119.086602 
L 212.16531 119.086602 
z
" clip-path="url(#pee64d533cb)" style="fill: #1f77b4"/>
   </g>
   <g id="patch_100">
    <path d="M 213.68031 224.64 
L 215.19531 224.64 
L 215.19531 116.070791 
L 213.68031 116.070791 
z
" clip-path="url(#pee64d533cb)" style="fill: #1f77b4"/>
   </g>
   <g id="patch_101">
    <path d="M 215.19531 224.64 
L 216.710311 224.64 
L 216.710311 123.610319 
L 215.19531 123.610319 
z
" clip-path="url(#pee64d533cb)" style="fill: #1f77b4"/>
   </g>
   <g id="patch_102">
    <path d="M 216.710311 224.64 
L 218.225311 224.64 
L 218.225311 116.070791 
L 216.710311 116.070791 
z
" clip-path="url(#pee64d533cb)" style="fill: #1f77b4"/>
   </g>
   <g id="patch_103">
    <path d="M 218.225311 224.64 
L 219.740311 224.64 
L 219.740311 122.605049 
L 218.225311 122.605049 
z
" clip-path="url(#pee64d533cb)" style="fill: #1f77b4"/>
   </g>
   <g id="patch_104">
    <path d="M 219.740311 224.64 
L 221.255311 224.64 
L 221.255311 121.097143 
L 219.740311 121.097143 
z
" clip-path="url(#pee64d533cb)" style="fill: #1f77b4"/>
   </g>
   <g id="patch_105">
    <path d="M 221.255311 224.64 
L 222.770311 224.64 
L 222.770311 119.589237 
L 221.255311 119.589237 
z
" clip-path="url(#pee64d533cb)" style="fill: #1f77b4"/>
   </g>
   <g id="patch_106">
    <path d="M 222.770311 224.64 
L 224.285311 224.64 
L 224.285311 115.568155 
L 222.770311 115.568155 
z
" clip-path="url(#pee64d533cb)" style="fill: #1f77b4"/>
   </g>
   <g id="patch_107">
    <path d="M 224.285311 224.64 
L 225.800311 224.64 
L 225.800311 120.594508 
L 224.285311 120.594508 
z
" clip-path="url(#pee64d533cb)" style="fill: #1f77b4"/>
   </g>
   <g id="patch_108">
    <path d="M 225.800311 224.64 
L 227.315311 224.64 
L 227.315311 127.631401 
L 225.800311 127.631401 
z
" clip-path="url(#pee64d533cb)" style="fill: #1f77b4"/>
   </g>
   <g id="patch_109">
    <path d="M 227.315311 224.64 
L 228.830311 224.64 
L 228.830311 129.139307 
L 227.315311 129.139307 
z
" clip-path="url(#pee64d533cb)" style="fill: #1f77b4"/>
   </g>
   <g id="patch_110">
    <path d="M 228.830311 224.64 
L 230.345312 224.64 
L 230.345312 120.091872 
L 228.830311 120.091872 
z
" clip-path="url(#pee64d533cb)" style="fill: #1f77b4"/>
   </g>
   <g id="patch_111">
    <path d="M 230.345312 224.64 
L 231.860312 224.64 
L 231.860312 107.525992 
L 230.345312 107.525992 
z
" clip-path="url(#pee64d533cb)" style="fill: #1f77b4"/>
   </g>
   <g id="patch_112">
    <path d="M 231.860312 224.64 
L 233.375312 224.64 
L 233.375312 112.049709 
L 231.860312 112.049709 
z
" clip-path="url(#pee64d533cb)" style="fill: #1f77b4"/>
   </g>
   <g id="patch_113">
    <path d="M 233.375312 224.64 
L 234.890312 224.64 
L 234.890312 106.520721 
L 233.375312 106.520721 
z
" clip-path="url(#pee64d533cb)" style="fill: #1f77b4"/>
   </g>
   <g id="patch_114">
    <path d="M 234.890312 224.64 
L 236.405312 224.64 
L 236.405312 117.578696 
L 234.890312 117.578696 
z
" clip-path="url(#pee64d533cb)" style="fill: #1f77b4"/>
   </g>
   <g id="patch_115">
    <path d="M 236.405312 224.64 
L 237.920312 224.64 
L 237.920312 120.594508 
L 236.405312 120.594508 
z
" clip-path="url(#pee64d533cb)" style="fill: #1f77b4"/>
   </g>
   <g id="patch_116">
    <path d="M 237.920312 224.64 
L 239.435312 224.64 
L 239.435312 107.525992 
L 237.920312 107.525992 
z
" clip-path="url(#pee64d533cb)" style="fill: #1f77b4"/>
   </g>
   <g id="patch_117">
    <path d="M 239.435312 224.64 
L 240.950312 224.64 
L 240.950312 109.536533 
L 239.435312 109.536533 
z
" clip-path="url(#pee64d533cb)" style="fill: #1f77b4"/>
   </g>
   <g id="patch_118">
    <path d="M 240.950312 224.64 
L 242.465312 224.64 
L 242.465312 108.028627 
L 240.950312 108.028627 
z
" clip-path="url(#pee64d533cb)" style="fill: #1f77b4"/>
   </g>
   <g id="patch_119">
    <path d="M 242.465312 224.64 
L 243.980313 224.64 
L 243.980313 112.049709 
L 242.465312 112.049709 
z
" clip-path="url(#pee64d533cb)" style="fill: #1f77b4"/>
   </g>
   <g id="patch_120">
    <path d="M 243.980313 224.64 
L 245.495313 224.64 
L 245.495313 107.023356 
L 243.980313 107.023356 
z
" clip-path="url(#pee64d533cb)" style="fill: #1f77b4"/>
   </g>
   <g id="patch_121">
    <path d="M 245.495313 224.64 
L 247.010313 224.64 
L 247.010313 116.573426 
L 245.495313 116.573426 
z
" clip-path="url(#pee64d533cb)" style="fill: #1f77b4"/>
   </g>
   <g id="patch_122">
    <path d="M 247.010313 224.64 
L 248.525313 224.64 
L 248.525313 90.436394 
L 247.010313 90.436394 
z
" clip-path="url(#pee64d533cb)" style="fill: #1f77b4"/>
   </g>
   <g id="patch_123">
    <path d="M 248.525313 224.64 
L 250.040313 224.64 
L 250.040313 108.531262 
L 248.525313 108.531262 
z
" clip-path="url(#pee64d533cb)" style="fill: #1f77b4"/>
   </g>
   <g id="patch_124">
    <path d="M 250.040313 224.64 
L 251.555313 224.64 
L 251.555313 99.986463 
L 250.040313 99.986463 
z
" clip-path="url(#pee64d533cb)" style="fill: #1f77b4"/>
   </g>
   <g id="patch_125">
    <path d="M 251.555313 224.64 
L 253.070313 224.64 
L 253.070313 104.007545 
L 251.555313 104.007545 
z
" clip-path="url(#pee64d533cb)" style="fill: #1f77b4"/>
   </g>
   <g id="patch_126">
    <path d="M 253.070313 224.64 
L 254.585313 224.64 
L 254.585313 92.94957 
L 253.070313 92.94957 
z
" clip-path="url(#pee64d533cb)" style="fill: #1f77b4"/>
   </g>
   <g id="patch_127">
    <path d="M 254.585313 224.64 
L 256.100313 224.64 
L 256.100313 101.997004 
L 254.585313 101.997004 
z
" clip-path="url(#pee64d533cb)" style="fill: #1f77b4"/>
   </g>
   <g id="patch_128">
    <path d="M 256.100313 224.64 
L 257.615314 224.64 
L 257.615314 91.9443 
L 256.100313 91.9443 
z
" clip-path="url(#pee64d533cb)" style="fill: #1f77b4"/>
   </g>
   <g id="patch_129">
    <path d="M 257.615314 224.64 
L 259.130314 224.64 
L 259.130314 88.425853 
L 257.615314 88.425853 
z
" clip-path="url(#pee64d533cb)" style="fill: #1f77b4"/>
   </g>
   <g id="patch_130">
    <path d="M 259.130314 224.64 
L 260.645314 224.64 
L 260.645314 97.473287 
L 259.130314 97.473287 
z
" clip-path="url(#pee64d533cb)" style="fill: #1f77b4"/>
   </g>
   <g id="patch_131">
    <path d="M 260.645314 224.64 
L 262.160314 224.64 
L 262.160314 86.415312 
L 260.645314 86.415312 
z
" clip-path="url(#pee64d533cb)" style="fill: #1f77b4"/>
   </g>
   <g id="patch_132">
    <path d="M 262.160314 224.64 
L 263.675314 224.64 
L 263.675314 91.441664 
L 262.160314 91.441664 
z
" clip-path="url(#pee64d533cb)" style="fill: #1f77b4"/>
   </g>
   <g id="patch_133">
    <path d="M 263.675314 224.64 
L 265.190314 224.64 
L 265.190314 87.923218 
L 263.675314 87.923218 
z
" clip-path="url(#pee64d533cb)" style="fill: #1f77b4"/>
   </g>
   <g id="patch_134">
    <path d="M 265.190314 224.64 
L 266.705314 224.64 
L 266.705314 100.991734 
L 265.190314 100.991734 
z
" clip-path="url(#pee64d533cb)" style="fill: #1f77b4"/>
   </g>
   <g id="patch_135">
    <path d="M 266.705314 224.64 
L 268.220314 224.64 
L 268.220314 95.462746 
L 266.705314 95.462746 
z
" clip-path="url(#pee64d533cb)" style="fill: #1f77b4"/>
   </g>
   <g id="patch_136">
    <path d="M 268.220314 224.64 
L 269.735314 224.64 
L 269.735314 92.94957 
L 268.220314 92.94957 
z
" clip-path="url(#pee64d533cb)" style="fill: #1f77b4"/>
   </g>
   <g id="patch_137">
    <path d="M 269.735314 224.64 
L 271.250315 224.64 
L 271.250315 98.478558 
L 269.735314 98.478558 
z
" clip-path="url(#pee64d533cb)" style="fill: #1f77b4"/>
   </g>
   <g id="patch_138">
    <path d="M 271.250315 224.64 
L 272.765315 224.64 
L 272.765315 83.399501 
L 271.250315 83.399501 
z
" clip-path="url(#pee64d533cb)" style="fill: #1f77b4"/>
   </g>
   <g id="patch_139">
    <path d="M 272.765315 224.64 
L 274.280315 224.64 
L 274.280315 92.94957 
L 272.765315 92.94957 
z
" clip-path="url(#pee64d533cb)" style="fill: #1f77b4"/>
   </g>
   <g id="patch_140">
    <path d="M 274.280315 224.64 
L 275.795315 224.64 
L 275.795315 75.357337 
L 274.280315 75.357337 
z
" clip-path="url(#pee64d533cb)" style="fill: #1f77b4"/>
   </g>
   <g id="patch_141">
    <path d="M 275.795315 224.64 
L 277.310315 224.64 
L 277.310315 96.468017 
L 275.795315 96.468017 
z
" clip-path="url(#pee64d533cb)" style="fill: #1f77b4"/>
   </g>
   <g id="patch_142">
    <path d="M 277.310315 224.64 
L 278.825315 224.64 
L 278.825315 80.886325 
L 277.310315 80.886325 
z
" clip-path="url(#pee64d533cb)" style="fill: #1f77b4"/>
   </g>
   <g id="patch_143">
    <path d="M 278.825315 224.64 
L 280.340315 224.64 
L 280.340315 86.917947 
L 278.825315 86.917947 
z
" clip-path="url(#pee64d533cb)" style="fill: #1f77b4"/>
   </g>
   <g id="patch_144">
    <path d="M 280.340315 224.64 
L 281.855315 224.64 
L 281.855315 91.9443 
L 280.340315 91.9443 
z
" clip-path="url(#pee64d533cb)" style="fill: #1f77b4"/>
   </g>
   <g id="patch_145">
    <path d="M 281.855315 224.64 
L 283.370316 224.64 
L 283.370316 88.928488 
L 281.855315 88.928488 
z
" clip-path="url(#pee64d533cb)" style="fill: #1f77b4"/>
   </g>
   <g id="patch_146">
    <path d="M 283.370316 224.64 
L 284.885316 224.64 
L 284.885316 68.320444 
L 283.370316 68.320444 
z
" clip-path="url(#pee64d533cb)" style="fill: #1f77b4"/>
   </g>
   <g id="patch_147">
    <path d="M 284.885316 224.64 
L 286.400316 224.64 
L 286.400316 72.341526 
L 284.885316 72.341526 
z
" clip-path="url(#pee64d533cb)" style="fill: #1f77b4"/>
   </g>
   <g id="patch_148">
    <path d="M 286.400316 224.64 
L 287.915316 224.64 
L 287.915316 72.341526 
L 286.400316 72.341526 
z
" clip-path="url(#pee64d533cb)" style="fill: #1f77b4"/>
   </g>
   <g id="patch_149">
    <path d="M 287.915316 224.64 
L 289.430316 224.64 
L 289.430316 80.383689 
L 287.915316 80.383689 
z
" clip-path="url(#pee64d533cb)" style="fill: #1f77b4"/>
   </g>
   <g id="patch_150">
    <path d="M 289.430316 224.64 
L 290.945316 224.64 
L 290.945316 78.373148 
L 289.430316 78.373148 
z
" clip-path="url(#pee64d533cb)" style="fill: #1f77b4"/>
   </g>
   <g id="patch_151">
    <path d="M 290.945316 224.64 
L 292.460316 224.64 
L 292.460316 73.849431 
L 290.945316 73.849431 
z
" clip-path="url(#pee64d533cb)" style="fill: #1f77b4"/>
   </g>
   <g id="patch_152">
    <path d="M 292.460316 224.64 
L 293.975316 224.64 
L 293.975316 83.902136 
L 292.460316 83.902136 
z
" clip-path="url(#pee64d533cb)" style="fill: #1f77b4"/>
   </g>
   <g id="patch_153">
    <path d="M 293.975316 224.64 
L 295.490316 224.64 
L 295.490316 62.791456 
L 293.975316 62.791456 
z
" clip-path="url(#pee64d533cb)" style="fill: #1f77b4"/>
   </g>
   <g id="patch_154">
    <path d="M 295.490316 224.64 
L 297.005317 224.64 
L 297.005317 65.807268 
L 295.490316 65.807268 
z
" clip-path="url(#pee64d533cb)" style="fill: #1f77b4"/>
   </g>
   <g id="patch_155">
    <path d="M 297.005317 224.64 
L 298.520317 224.64 
L 298.520317 66.812538 
L 297.005317 66.812538 
z
" clip-path="url(#pee64d533cb)" style="fill: #1f77b4"/>
   </g>
   <g id="patch_156">
    <path d="M 298.520317 224.64 
L 300.035317 224.64 
L 300.035317 75.357337 
L 298.520317 75.357337 
z
" clip-path="url(#pee64d533cb)" style="fill: #1f77b4"/>
   </g>
   <g id="patch_157">
    <path d="M 300.035317 224.64 
L 301.550317 224.64 
L 301.550317 67.817809 
L 300.035317 67.817809 
z
" clip-path="url(#pee64d533cb)" style="fill: #1f77b4"/>
   </g>
   <g id="patch_158">
    <path d="M 301.550317 224.64 
L 303.065317 224.64 
L 303.065317 76.865243 
L 301.550317 76.865243 
z
" clip-path="url(#pee64d533cb)" style="fill: #1f77b4"/>
   </g>
   <g id="patch_159">
    <path d="M 303.065317 224.64 
L 304.580317 224.64 
L 304.580317 59.27301 
L 303.065317 59.27301 
z
" clip-path="url(#pee64d533cb)" style="fill: #1f77b4"/>
   </g>
   <g id="patch_160">
    <path d="M 304.580317 224.64 
L 306.095317 224.64 
L 306.095317 68.320444 
L 304.580317 68.320444 
z
" clip-path="url(#pee64d533cb)" style="fill: #1f77b4"/>
   </g>
   <g id="patch_161">
    <path d="M 306.095317 224.64 
L 307.610317 224.64 
L 307.610317 64.299362 
L 306.095317 64.299362 
z
" clip-path="url(#pee64d533cb)" style="fill: #1f77b4"/>
   </g>
   <g id="patch_162">
    <path d="M 307.610317 224.64 
L 309.125317 224.64 
L 309.125317 70.330985 
L 307.610317 70.330985 
z
" clip-path="url(#pee64d533cb)" style="fill: #1f77b4"/>
   </g>
   <g id="patch_163">
    <path d="M 309.125317 224.64 
L 310.640318 224.64 
L 310.640318 72.844161 
L 309.125317 72.844161 
z
" clip-path="url(#pee64d533cb)" style="fill: #1f77b4"/>
   </g>
   <g id="patch_164">
    <path d="M 310.640318 224.64 
L 312.155318 224.64 
L 312.155318 57.262469 
L 310.640318 57.262469 
z
" clip-path="url(#pee64d533cb)" style="fill: #1f77b4"/>
   </g>
   <g id="patch_165">
    <path d="M 312.155318 224.64 
L 313.670318 224.64 
L 313.670318 63.796727 
L 312.155318 63.796727 
z
" clip-path="url(#pee64d533cb)" style="fill: #1f77b4"/>
   </g>
   <g id="patch_166">
    <path d="M 313.670318 224.64 
L 315.185318 224.64 
L 315.185318 62.791456 
L 313.670318 62.791456 
z
" clip-path="url(#pee64d533cb)" style="fill: #1f77b4"/>
   </g>
   <g id="patch_167">
    <path d="M 315.185318 224.64 
L 316.700318 224.64 
L 316.700318 52.738752 
L 315.185318 52.738752 
z
" clip-path="url(#pee64d533cb)" style="fill: #1f77b4"/>
   </g>
   <g id="patch_168">
    <path d="M 316.700318 224.64 
L 318.215318 224.64 
L 318.215318 69.82835 
L 316.700318 69.82835 
z
" clip-path="url(#pee64d533cb)" style="fill: #1f77b4"/>
   </g>
   <g id="patch_169">
    <path d="M 318.215318 224.64 
L 319.730318 224.64 
L 319.730318 68.823079 
L 318.215318 68.823079 
z
" clip-path="url(#pee64d533cb)" style="fill: #1f77b4"/>
   </g>
   <g id="patch_170">
    <path d="M 319.730318 224.64 
L 321.245318 224.64 
L 321.245318 64.299362 
L 319.730318 64.299362 
z
" clip-path="url(#pee64d533cb)" style="fill: #1f77b4"/>
   </g>
   <g id="patch_171">
    <path d="M 321.245318 224.64 
L 322.760318 224.64 
L 322.760318 49.72294 
L 321.245318 49.72294 
z
" clip-path="url(#pee64d533cb)" style="fill: #1f77b4"/>
   </g>
   <g id="patch_172">
    <path d="M 322.760318 224.64 
L 324.275319 224.64 
L 324.275319 50.728211 
L 322.760318 50.728211 
z
" clip-path="url(#pee64d533cb)" style="fill: #1f77b4"/>
   </g>
   <g id="patch_173">
    <path d="M 324.275319 224.64 
L 325.790319 224.64 
L 325.790319 58.267739 
L 324.275319 58.267739 
z
" clip-path="url(#pee64d533cb)" style="fill: #1f77b4"/>
   </g>
   <g id="patch_174">
    <path d="M 325.790319 224.64 
L 327.305319 224.64 
L 327.305319 54.246657 
L 325.790319 54.246657 
z
" clip-path="url(#pee64d533cb)" style="fill: #1f77b4"/>
   </g>
   <g id="patch_175">
    <path d="M 327.305319 224.64 
L 328.820319 224.64 
L 328.820319 58.770374 
L 327.305319 58.770374 
z
" clip-path="url(#pee64d533cb)" style="fill: #1f77b4"/>
   </g>
   <g id="patch_176">
    <path d="M 328.820319 224.64 
L 330.335319 224.64 
L 330.335319 48.71767 
L 328.820319 48.71767 
z
" clip-path="url(#pee64d533cb)" style="fill: #1f77b4"/>
   </g>
   <g id="patch_177">
    <path d="M 330.335319 224.64 
L 331.850319 224.64 
L 331.850319 47.209764 
L 330.335319 47.209764 
z
" clip-path="url(#pee64d533cb)" style="fill: #1f77b4"/>
   </g>
   <g id="patch_178">
    <path d="M 331.850319 224.64 
L 333.365319 224.64 
L 333.365319 27.104355 
L 331.850319 27.104355 
z
" clip-path="url(#pee64d533cb)" style="fill: #1f77b4"/>
   </g>
   <g id="patch_179">
    <path d="M 333.365319 224.64 
L 334.880319 224.64 
L 334.880319 50.225576 
L 333.365319 50.225576 
z
" clip-path="url(#pee64d533cb)" style="fill: #1f77b4"/>
   </g>
   <g id="patch_180">
    <path d="M 334.880319 224.64 
L 336.395319 224.64 
L 336.395319 42.686047 
L 334.880319 42.686047 
z
" clip-path="url(#pee64d533cb)" style="fill: #1f77b4"/>
   </g>
   <g id="patch_181">
    <path d="M 336.395319 224.64 
L 337.91032 224.64 
L 337.91032 60.780915 
L 336.395319 60.780915 
z
" clip-path="url(#pee64d533cb)" style="fill: #1f77b4"/>
   </g>
   <g id="patch_182">
    <path d="M 337.91032 224.64 
L 339.42532 224.64 
L 339.42532 56.759834 
L 337.91032 56.759834 
z
" clip-path="url(#pee64d533cb)" style="fill: #1f77b4"/>
   </g>
   <g id="patch_183">
    <path d="M 339.42532 224.64 
L 340.94032 224.64 
L 340.94032 47.712399 
L 339.42532 47.712399 
z
" clip-path="url(#pee64d533cb)" style="fill: #1f77b4"/>
   </g>
   <g id="patch_184">
    <path d="M 340.94032 224.64 
L 342.45532 224.64 
L 342.45532 28.109626 
L 340.94032 28.109626 
z
" clip-path="url(#pee64d533cb)" style="fill: #1f77b4"/>
   </g>
   <g id="patch_185">
    <path d="M 342.45532 224.64 
L 343.97032 224.64 
L 343.97032 42.183412 
L 342.45532 42.183412 
z
" clip-path="url(#pee64d533cb)" style="fill: #1f77b4"/>
   </g>
   <g id="patch_186">
    <path d="M 343.97032 224.64 
L 345.48532 224.64 
L 345.48532 40.172871 
L 343.97032 40.172871 
z
" clip-path="url(#pee64d533cb)" style="fill: #1f77b4"/>
   </g>
   <g id="patch_187">
    <path d="M 345.48532 224.64 
L 347.00032 224.64 
L 347.00032 34.141248 
L 345.48532 34.141248 
z
" clip-path="url(#pee64d533cb)" style="fill: #1f77b4"/>
   </g>
   <g id="patch_188">
    <path d="M 347.00032 224.64 
L 348.51532 224.64 
L 348.51532 58.770374 
L 347.00032 58.770374 
z
" clip-path="url(#pee64d533cb)" style="fill: #1f77b4"/>
   </g>
   <g id="patch_189">
    <path d="M 348.51532 224.64 
L 350.030321 224.64 
L 350.030321 39.167601 
L 348.51532 39.167601 
z
" clip-path="url(#pee64d533cb)" style="fill: #1f77b4"/>
   </g>
   <g id="patch_190">
    <path d="M 350.030321 224.64 
L 351.545321 224.64 
L 351.545321 28.109626 
L 350.030321 28.109626 
z
" clip-path="url(#pee64d533cb)" style="fill: #1f77b4"/>
   </g>
   <g id="patch_191">
    <path d="M 351.545321 224.64 
L 353.060321 224.64 
L 353.060321 36.654424 
L 351.545321 36.654424 
z
" clip-path="url(#pee64d533cb)" style="fill: #1f77b4"/>
   </g>
   <g id="patch_192">
    <path d="M 353.060321 224.64 
L 354.575321 224.64 
L 354.575321 29.114896 
L 353.060321 29.114896 
z
" clip-path="url(#pee64d533cb)" style="fill: #1f77b4"/>
   </g>
   <g id="patch_193">
    <path d="M 354.575321 224.64 
L 356.090321 224.64 
L 356.090321 36.654424 
L 354.575321 36.654424 
z
" clip-path="url(#pee64d533cb)" style="fill: #1f77b4"/>
   </g>
   <g id="patch_194">
    <path d="M 356.090321 224.64 
L 357.605321 224.64 
L 357.605321 23.083273 
L 356.090321 23.083273 
z
" clip-path="url(#pee64d533cb)" style="fill: #1f77b4"/>
   </g>
   <g id="patch_195">
    <path d="M 357.605321 224.64 
L 359.120321 224.64 
L 359.120321 47.712399 
L 357.605321 47.712399 
z
" clip-path="url(#pee64d533cb)" style="fill: #1f77b4"/>
   </g>
   <g id="patch_196">
    <path d="M 359.120321 224.64 
L 360.635321 224.64 
L 360.635321 37.15706 
L 359.120321 37.15706 
z
" clip-path="url(#pee64d533cb)" style="fill: #1f77b4"/>
   </g>
   <g id="patch_197">
    <path d="M 360.635321 224.64 
L 362.150321 224.64 
L 362.150321 21.072732 
L 360.635321 21.072732 
z
" clip-path="url(#pee64d533cb)" style="fill: #1f77b4"/>
   </g>
   <g id="patch_198">
    <path d="M 362.150321 224.64 
L 363.665322 224.64 
L 363.665322 29.114896 
L 362.150321 29.114896 
z
" clip-path="url(#pee64d533cb)" style="fill: #1f77b4"/>
   </g>
   <g id="patch_199">
    <path d="M 363.665322 224.64 
L 365.180322 224.64 
L 365.180322 33.135978 
L 363.665322 33.135978 
z
" clip-path="url(#pee64d533cb)" style="fill: #1f77b4"/>
   </g>
   <g id="patch_200">
    <path d="M 365.180322 224.64 
L 366.695322 224.64 
L 366.695322 33.135978 
L 365.180322 33.135978 
z
" clip-path="url(#pee64d533cb)" style="fill: #1f77b4"/>
   </g>
   <g id="patch_201">
    <path d="M 366.695322 224.64 
L 368.210322 224.64 
L 368.210322 22.580638 
L 366.695322 22.580638 
z
" clip-path="url(#pee64d533cb)" style="fill: #1f77b4"/>
   </g>
   <g id="patch_202">
    <path d="M 368.210322 224.64 
L 369.725322 224.64 
L 369.725322 17.554286 
L 368.210322 17.554286 
z
" clip-path="url(#pee64d533cb)" style="fill: #1f77b4"/>
   </g>
   <g id="matplotlib.axis_1">
    <g id="xtick_1">
     <g id="line2d_1">
      <defs>
       <path id="m3fbb47d970" d="M 0 0 
L 0 3.5 
" style="stroke: #000000; stroke-width: 0.8"/>
      </defs>
      <g>
       <use xlink:href="#m3fbb47d970" x="65.361932" y="224.64" style="stroke: #000000; stroke-width: 0.8"/>
      </g>
     </g>
     <g id="text_1">
      <!-- 0.0 -->
      <g transform="translate(57.410369 239.238437)scale(0.1 -0.1)">
       <defs>
        <path id="DejaVuSans-30" d="M 2034 4250 
Q 1547 4250 1301 3770 
Q 1056 3291 1056 2328 
Q 1056 1369 1301 889 
Q 1547 409 2034 409 
Q 2525 409 2770 889 
Q 3016 1369 3016 2328 
Q 3016 3291 2770 3770 
Q 2525 4250 2034 4250 
z
M 2034 4750 
Q 2819 4750 3233 4129 
Q 3647 3509 3647 2328 
Q 3647 1150 3233 529 
Q 2819 -91 2034 -91 
Q 1250 -91 836 529 
Q 422 1150 422 2328 
Q 422 3509 836 4129 
Q 1250 4750 2034 4750 
z
" transform="scale(0.015625)"/>
        <path id="DejaVuSans-2e" d="M 684 794 
L 1344 794 
L 1344 0 
L 684 0 
L 684 794 
z
" transform="scale(0.015625)"/>
       </defs>
       <use xlink:href="#DejaVuSans-30"/>
       <use xlink:href="#DejaVuSans-2e" x="63.623047"/>
       <use xlink:href="#DejaVuSans-30" x="95.410156"/>
      </g>
     </g>
    </g>
    <g id="xtick_2">
     <g id="line2d_2">
      <g>
       <use xlink:href="#m3fbb47d970" x="126.234659" y="224.64" style="stroke: #000000; stroke-width: 0.8"/>
      </g>
     </g>
     <g id="text_2">
      <!-- 0.2 -->
      <g transform="translate(118.283097 239.238437)scale(0.1 -0.1)">
       <defs>
        <path id="DejaVuSans-32" d="M 1228 531 
L 3431 531 
L 3431 0 
L 469 0 
L 469 531 
Q 828 903 1448 1529 
Q 2069 2156 2228 2338 
Q 2531 2678 2651 2914 
Q 2772 3150 2772 3378 
Q 2772 3750 2511 3984 
Q 2250 4219 1831 4219 
Q 1534 4219 1204 4116 
Q 875 4013 500 3803 
L 500 4441 
Q 881 4594 1212 4672 
Q 1544 4750 1819 4750 
Q 2544 4750 2975 4387 
Q 3406 4025 3406 3419 
Q 3406 3131 3298 2873 
Q 3191 2616 2906 2266 
Q 2828 2175 2409 1742 
Q 1991 1309 1228 531 
z
" transform="scale(0.015625)"/>
       </defs>
       <use xlink:href="#DejaVuSans-30"/>
       <use xlink:href="#DejaVuSans-2e" x="63.623047"/>
       <use xlink:href="#DejaVuSans-32" x="95.410156"/>
      </g>
     </g>
    </g>
    <g id="xtick_3">
     <g id="line2d_3">
      <g>
       <use xlink:href="#m3fbb47d970" x="187.107386" y="224.64" style="stroke: #000000; stroke-width: 0.8"/>
      </g>
     </g>
     <g id="text_3">
      <!-- 0.4 -->
      <g transform="translate(179.155824 239.238437)scale(0.1 -0.1)">
       <defs>
        <path id="DejaVuSans-34" d="M 2419 4116 
L 825 1625 
L 2419 1625 
L 2419 4116 
z
M 2253 4666 
L 3047 4666 
L 3047 1625 
L 3713 1625 
L 3713 1100 
L 3047 1100 
L 3047 0 
L 2419 0 
L 2419 1100 
L 313 1100 
L 313 1709 
L 2253 4666 
z
" transform="scale(0.015625)"/>
       </defs>
       <use xlink:href="#DejaVuSans-30"/>
       <use xlink:href="#DejaVuSans-2e" x="63.623047"/>
       <use xlink:href="#DejaVuSans-34" x="95.410156"/>
      </g>
     </g>
    </g>
    <g id="xtick_4">
     <g id="line2d_4">
      <g>
       <use xlink:href="#m3fbb47d970" x="247.980114" y="224.64" style="stroke: #000000; stroke-width: 0.8"/>
      </g>
     </g>
     <g id="text_4">
      <!-- 0.6 -->
      <g transform="translate(240.028551 239.238437)scale(0.1 -0.1)">
       <defs>
        <path id="DejaVuSans-36" d="M 2113 2584 
Q 1688 2584 1439 2293 
Q 1191 2003 1191 1497 
Q 1191 994 1439 701 
Q 1688 409 2113 409 
Q 2538 409 2786 701 
Q 3034 994 3034 1497 
Q 3034 2003 2786 2293 
Q 2538 2584 2113 2584 
z
M 3366 4563 
L 3366 3988 
Q 3128 4100 2886 4159 
Q 2644 4219 2406 4219 
Q 1781 4219 1451 3797 
Q 1122 3375 1075 2522 
Q 1259 2794 1537 2939 
Q 1816 3084 2150 3084 
Q 2853 3084 3261 2657 
Q 3669 2231 3669 1497 
Q 3669 778 3244 343 
Q 2819 -91 2113 -91 
Q 1303 -91 875 529 
Q 447 1150 447 2328 
Q 447 3434 972 4092 
Q 1497 4750 2381 4750 
Q 2619 4750 2861 4703 
Q 3103 4656 3366 4563 
z
" transform="scale(0.015625)"/>
       </defs>
       <use xlink:href="#DejaVuSans-30"/>
       <use xlink:href="#DejaVuSans-2e" x="63.623047"/>
       <use xlink:href="#DejaVuSans-36" x="95.410156"/>
      </g>
     </g>
    </g>
    <g id="xtick_5">
     <g id="line2d_5">
      <g>
       <use xlink:href="#m3fbb47d970" x="308.852841" y="224.64" style="stroke: #000000; stroke-width: 0.8"/>
      </g>
     </g>
     <g id="text_5">
      <!-- 0.8 -->
      <g transform="translate(300.901278 239.238437)scale(0.1 -0.1)">
       <defs>
        <path id="DejaVuSans-38" d="M 2034 2216 
Q 1584 2216 1326 1975 
Q 1069 1734 1069 1313 
Q 1069 891 1326 650 
Q 1584 409 2034 409 
Q 2484 409 2743 651 
Q 3003 894 3003 1313 
Q 3003 1734 2745 1975 
Q 2488 2216 2034 2216 
z
M 1403 2484 
Q 997 2584 770 2862 
Q 544 3141 544 3541 
Q 544 4100 942 4425 
Q 1341 4750 2034 4750 
Q 2731 4750 3128 4425 
Q 3525 4100 3525 3541 
Q 3525 3141 3298 2862 
Q 3072 2584 2669 2484 
Q 3125 2378 3379 2068 
Q 3634 1759 3634 1313 
Q 3634 634 3220 271 
Q 2806 -91 2034 -91 
Q 1263 -91 848 271 
Q 434 634 434 1313 
Q 434 1759 690 2068 
Q 947 2378 1403 2484 
z
M 1172 3481 
Q 1172 3119 1398 2916 
Q 1625 2713 2034 2713 
Q 2441 2713 2670 2916 
Q 2900 3119 2900 3481 
Q 2900 3844 2670 4047 
Q 2441 4250 2034 4250 
Q 1625 4250 1398 4047 
Q 1172 3844 1172 3481 
z
" transform="scale(0.015625)"/>
       </defs>
       <use xlink:href="#DejaVuSans-30"/>
       <use xlink:href="#DejaVuSans-2e" x="63.623047"/>
       <use xlink:href="#DejaVuSans-38" x="95.410156"/>
      </g>
     </g>
    </g>
    <g id="xtick_6">
     <g id="line2d_6">
      <g>
       <use xlink:href="#m3fbb47d970" x="369.725568" y="224.64" style="stroke: #000000; stroke-width: 0.8"/>
      </g>
     </g>
     <g id="text_6">
      <!-- 1.0 -->
      <g transform="translate(361.774006 239.238437)scale(0.1 -0.1)">
       <defs>
        <path id="DejaVuSans-31" d="M 794 531 
L 1825 531 
L 1825 4091 
L 703 3866 
L 703 4441 
L 1819 4666 
L 2450 4666 
L 2450 531 
L 3481 531 
L 3481 0 
L 794 0 
L 794 531 
z
" transform="scale(0.015625)"/>
       </defs>
       <use xlink:href="#DejaVuSans-31"/>
       <use xlink:href="#DejaVuSans-2e" x="63.623047"/>
       <use xlink:href="#DejaVuSans-30" x="95.410156"/>
      </g>
     </g>
    </g>
    <g id="text_7">
     <!-- Propagation direction -->
     <g transform="translate(164.061719 252.916562)scale(0.1 -0.1)">
      <defs>
       <path id="DejaVuSans-50" d="M 1259 4147 
L 1259 2394 
L 2053 2394 
Q 2494 2394 2734 2622 
Q 2975 2850 2975 3272 
Q 2975 3691 2734 3919 
Q 2494 4147 2053 4147 
L 1259 4147 
z
M 628 4666 
L 2053 4666 
Q 2838 4666 3239 4311 
Q 3641 3956 3641 3272 
Q 3641 2581 3239 2228 
Q 2838 1875 2053 1875 
L 1259 1875 
L 1259 0 
L 628 0 
L 628 4666 
z
" transform="scale(0.015625)"/>
       <path id="DejaVuSans-72" d="M 2631 2963 
Q 2534 3019 2420 3045 
Q 2306 3072 2169 3072 
Q 1681 3072 1420 2755 
Q 1159 2438 1159 1844 
L 1159 0 
L 581 0 
L 581 3500 
L 1159 3500 
L 1159 2956 
Q 1341 3275 1631 3429 
Q 1922 3584 2338 3584 
Q 2397 3584 2469 3576 
Q 2541 3569 2628 3553 
L 2631 2963 
z
" transform="scale(0.015625)"/>
       <path id="DejaVuSans-6f" d="M 1959 3097 
Q 1497 3097 1228 2736 
Q 959 2375 959 1747 
Q 959 1119 1226 758 
Q 1494 397 1959 397 
Q 2419 397 2687 759 
Q 2956 1122 2956 1747 
Q 2956 2369 2687 2733 
Q 2419 3097 1959 3097 
z
M 1959 3584 
Q 2709 3584 3137 3096 
Q 3566 2609 3566 1747 
Q 3566 888 3137 398 
Q 2709 -91 1959 -91 
Q 1206 -91 779 398 
Q 353 888 353 1747 
Q 353 2609 779 3096 
Q 1206 3584 1959 3584 
z
" transform="scale(0.015625)"/>
       <path id="DejaVuSans-70" d="M 1159 525 
L 1159 -1331 
L 581 -1331 
L 581 3500 
L 1159 3500 
L 1159 2969 
Q 1341 3281 1617 3432 
Q 1894 3584 2278 3584 
Q 2916 3584 3314 3078 
Q 3713 2572 3713 1747 
Q 3713 922 3314 415 
Q 2916 -91 2278 -91 
Q 1894 -91 1617 61 
Q 1341 213 1159 525 
z
M 3116 1747 
Q 3116 2381 2855 2742 
Q 2594 3103 2138 3103 
Q 1681 3103 1420 2742 
Q 1159 2381 1159 1747 
Q 1159 1113 1420 752 
Q 1681 391 2138 391 
Q 2594 391 2855 752 
Q 3116 1113 3116 1747 
z
" transform="scale(0.015625)"/>
       <path id="DejaVuSans-61" d="M 2194 1759 
Q 1497 1759 1228 1600 
Q 959 1441 959 1056 
Q 959 750 1161 570 
Q 1363 391 1709 391 
Q 2188 391 2477 730 
Q 2766 1069 2766 1631 
L 2766 1759 
L 2194 1759 
z
M 3341 1997 
L 3341 0 
L 2766 0 
L 2766 531 
Q 2569 213 2275 61 
Q 1981 -91 1556 -91 
Q 1019 -91 701 211 
Q 384 513 384 1019 
Q 384 1609 779 1909 
Q 1175 2209 1959 2209 
L 2766 2209 
L 2766 2266 
Q 2766 2663 2505 2880 
Q 2244 3097 1772 3097 
Q 1472 3097 1187 3025 
Q 903 2953 641 2809 
L 641 3341 
Q 956 3463 1253 3523 
Q 1550 3584 1831 3584 
Q 2591 3584 2966 3190 
Q 3341 2797 3341 1997 
z
" transform="scale(0.015625)"/>
       <path id="DejaVuSans-67" d="M 2906 1791 
Q 2906 2416 2648 2759 
Q 2391 3103 1925 3103 
Q 1463 3103 1205 2759 
Q 947 2416 947 1791 
Q 947 1169 1205 825 
Q 1463 481 1925 481 
Q 2391 481 2648 825 
Q 2906 1169 2906 1791 
z
M 3481 434 
Q 3481 -459 3084 -895 
Q 2688 -1331 1869 -1331 
Q 1566 -1331 1297 -1286 
Q 1028 -1241 775 -1147 
L 775 -588 
Q 1028 -725 1275 -790 
Q 1522 -856 1778 -856 
Q 2344 -856 2625 -561 
Q 2906 -266 2906 331 
L 2906 616 
Q 2728 306 2450 153 
Q 2172 0 1784 0 
Q 1141 0 747 490 
Q 353 981 353 1791 
Q 353 2603 747 3093 
Q 1141 3584 1784 3584 
Q 2172 3584 2450 3431 
Q 2728 3278 2906 2969 
L 2906 3500 
L 3481 3500 
L 3481 434 
z
" transform="scale(0.015625)"/>
       <path id="DejaVuSans-74" d="M 1172 4494 
L 1172 3500 
L 2356 3500 
L 2356 3053 
L 1172 3053 
L 1172 1153 
Q 1172 725 1289 603 
Q 1406 481 1766 481 
L 2356 481 
L 2356 0 
L 1766 0 
Q 1100 0 847 248 
Q 594 497 594 1153 
L 594 3053 
L 172 3053 
L 172 3500 
L 594 3500 
L 594 4494 
L 1172 4494 
z
" transform="scale(0.015625)"/>
       <path id="DejaVuSans-69" d="M 603 3500 
L 1178 3500 
L 1178 0 
L 603 0 
L 603 3500 
z
M 603 4863 
L 1178 4863 
L 1178 4134 
L 603 4134 
L 603 4863 
z
" transform="scale(0.015625)"/>
       <path id="DejaVuSans-6e" d="M 3513 2113 
L 3513 0 
L 2938 0 
L 2938 2094 
Q 2938 2591 2744 2837 
Q 2550 3084 2163 3084 
Q 1697 3084 1428 2787 
Q 1159 2491 1159 1978 
L 1159 0 
L 581 0 
L 581 3500 
L 1159 3500 
L 1159 2956 
Q 1366 3272 1645 3428 
Q 1925 3584 2291 3584 
Q 2894 3584 3203 3211 
Q 3513 2838 3513 2113 
z
" transform="scale(0.015625)"/>
       <path id="DejaVuSans-20" transform="scale(0.015625)"/>
       <path id="DejaVuSans-64" d="M 2906 2969 
L 2906 4863 
L 3481 4863 
L 3481 0 
L 2906 0 
L 2906 525 
Q 2725 213 2448 61 
Q 2172 -91 1784 -91 
Q 1150 -91 751 415 
Q 353 922 353 1747 
Q 353 2572 751 3078 
Q 1150 3584 1784 3584 
Q 2172 3584 2448 3432 
Q 2725 3281 2906 2969 
z
M 947 1747 
Q 947 1113 1208 752 
Q 1469 391 1925 391 
Q 2381 391 2643 752 
Q 2906 1113 2906 1747 
Q 2906 2381 2643 2742 
Q 2381 3103 1925 3103 
Q 1469 3103 1208 2742 
Q 947 2381 947 1747 
z
" transform="scale(0.015625)"/>
       <path id="DejaVuSans-65" d="M 3597 1894 
L 3597 1613 
L 953 1613 
Q 991 1019 1311 708 
Q 1631 397 2203 397 
Q 2534 397 2845 478 
Q 3156 559 3463 722 
L 3463 178 
Q 3153 47 2828 -22 
Q 2503 -91 2169 -91 
Q 1331 -91 842 396 
Q 353 884 353 1716 
Q 353 2575 817 3079 
Q 1281 3584 2069 3584 
Q 2775 3584 3186 3129 
Q 3597 2675 3597 1894 
z
M 3022 2063 
Q 3016 2534 2758 2815 
Q 2500 3097 2075 3097 
Q 1594 3097 1305 2825 
Q 1016 2553 972 2059 
L 3022 2063 
z
" transform="scale(0.015625)"/>
       <path id="DejaVuSans-63" d="M 3122 3366 
L 3122 2828 
Q 2878 2963 2633 3030 
Q 2388 3097 2138 3097 
Q 1578 3097 1268 2742 
Q 959 2388 959 1747 
Q 959 1106 1268 751 
Q 1578 397 2138 397 
Q 2388 397 2633 464 
Q 2878 531 3122 666 
L 3122 134 
Q 2881 22 2623 -34 
Q 2366 -91 2075 -91 
Q 1284 -91 818 406 
Q 353 903 353 1747 
Q 353 2603 823 3093 
Q 1294 3584 2113 3584 
Q 2378 3584 2631 3529 
Q 2884 3475 3122 3366 
z
" transform="scale(0.015625)"/>
      </defs>
      <use xlink:href="#DejaVuSans-50"/>
      <use xlink:href="#DejaVuSans-72" x="58.552734"/>
      <use xlink:href="#DejaVuSans-6f" x="97.416016"/>
      <use xlink:href="#DejaVuSans-70" x="158.597656"/>
      <use xlink:href="#DejaVuSans-61" x="222.074219"/>
      <use xlink:href="#DejaVuSans-67" x="283.353516"/>
      <use xlink:href="#DejaVuSans-61" x="346.830078"/>
      <use xlink:href="#DejaVuSans-74" x="408.109375"/>
      <use xlink:href="#DejaVuSans-69" x="447.318359"/>
      <use xlink:href="#DejaVuSans-6f" x="475.101562"/>
      <use xlink:href="#DejaVuSans-6e" x="536.283203"/>
      <use xlink:href="#DejaVuSans-20" x="599.662109"/>
      <use xlink:href="#DejaVuSans-64" x="631.449219"/>
      <use xlink:href="#DejaVuSans-69" x="694.925781"/>
      <use xlink:href="#DejaVuSans-72" x="722.708984"/>
      <use xlink:href="#DejaVuSans-65" x="761.572266"/>
      <use xlink:href="#DejaVuSans-63" x="823.095703"/>
      <use xlink:href="#DejaVuSans-74" x="878.076172"/>
      <use xlink:href="#DejaVuSans-69" x="917.285156"/>
      <use xlink:href="#DejaVuSans-6f" x="945.068359"/>
      <use xlink:href="#DejaVuSans-6e" x="1006.25"/>
     </g>
    </g>
   </g>
   <g id="matplotlib.axis_2">
    <g id="ytick_1">
     <g id="line2d_7">
      <defs>
       <path id="m41071ce8d5" d="M 0 0 
L -3.5 0 
" style="stroke: #000000; stroke-width: 0.8"/>
      </defs>
      <g>
       <use xlink:href="#m41071ce8d5" x="50.14375" y="224.64" style="stroke: #000000; stroke-width: 0.8"/>
      </g>
     </g>
     <g id="text_8">
      <!-- 0.00 -->
      <g transform="translate(20.878125 228.439219)scale(0.1 -0.1)">
       <use xlink:href="#DejaVuSans-30"/>
       <use xlink:href="#DejaVuSans-2e" x="63.623047"/>
       <use xlink:href="#DejaVuSans-30" x="95.410156"/>
       <use xlink:href="#DejaVuSans-30" x="159.033203"/>
      </g>
     </g>
    </g>
    <g id="ytick_2">
     <g id="line2d_8">
      <g>
       <use xlink:href="#m41071ce8d5" x="50.14375" y="199.620834" style="stroke: #000000; stroke-width: 0.8"/>
      </g>
     </g>
     <g id="text_9">
      <!-- 0.25 -->
      <g transform="translate(20.878125 203.420053)scale(0.1 -0.1)">
       <defs>
        <path id="DejaVuSans-35" d="M 691 4666 
L 3169 4666 
L 3169 4134 
L 1269 4134 
L 1269 2991 
Q 1406 3038 1543 3061 
Q 1681 3084 1819 3084 
Q 2600 3084 3056 2656 
Q 3513 2228 3513 1497 
Q 3513 744 3044 326 
Q 2575 -91 1722 -91 
Q 1428 -91 1123 -41 
Q 819 9 494 109 
L 494 744 
Q 775 591 1075 516 
Q 1375 441 1709 441 
Q 2250 441 2565 725 
Q 2881 1009 2881 1497 
Q 2881 1984 2565 2268 
Q 2250 2553 1709 2553 
Q 1456 2553 1204 2497 
Q 953 2441 691 2322 
L 691 4666 
z
" transform="scale(0.015625)"/>
       </defs>
       <use xlink:href="#DejaVuSans-30"/>
       <use xlink:href="#DejaVuSans-2e" x="63.623047"/>
       <use xlink:href="#DejaVuSans-32" x="95.410156"/>
       <use xlink:href="#DejaVuSans-35" x="159.033203"/>
      </g>
     </g>
    </g>
    <g id="ytick_3">
     <g id="line2d_9">
      <g>
       <use xlink:href="#m41071ce8d5" x="50.14375" y="174.601668" style="stroke: #000000; stroke-width: 0.8"/>
      </g>
     </g>
     <g id="text_10">
      <!-- 0.50 -->
      <g transform="translate(20.878125 178.400887)scale(0.1 -0.1)">
       <use xlink:href="#DejaVuSans-30"/>
       <use xlink:href="#DejaVuSans-2e" x="63.623047"/>
       <use xlink:href="#DejaVuSans-35" x="95.410156"/>
       <use xlink:href="#DejaVuSans-30" x="159.033203"/>
      </g>
     </g>
    </g>
    <g id="ytick_4">
     <g id="line2d_10">
      <g>
       <use xlink:href="#m41071ce8d5" x="50.14375" y="149.582503" style="stroke: #000000; stroke-width: 0.8"/>
      </g>
     </g>
     <g id="text_11">
      <!-- 0.75 -->
      <g transform="translate(20.878125 153.381721)scale(0.1 -0.1)">
       <defs>
        <path id="DejaVuSans-37" d="M 525 4666 
L 3525 4666 
L 3525 4397 
L 1831 0 
L 1172 0 
L 2766 4134 
L 525 4134 
L 525 4666 
z
" transform="scale(0.015625)"/>
       </defs>
       <use xlink:href="#DejaVuSans-30"/>
       <use xlink:href="#DejaVuSans-2e" x="63.623047"/>
       <use xlink:href="#DejaVuSans-37" x="95.410156"/>
       <use xlink:href="#DejaVuSans-35" x="159.033203"/>
      </g>
     </g>
    </g>
    <g id="ytick_5">
     <g id="line2d_11">
      <g>
       <use xlink:href="#m41071ce8d5" x="50.14375" y="124.563337" style="stroke: #000000; stroke-width: 0.8"/>
      </g>
     </g>
     <g id="text_12">
      <!-- 1.00 -->
      <g transform="translate(20.878125 128.362555)scale(0.1 -0.1)">
       <use xlink:href="#DejaVuSans-31"/>
       <use xlink:href="#DejaVuSans-2e" x="63.623047"/>
       <use xlink:href="#DejaVuSans-30" x="95.410156"/>
       <use xlink:href="#DejaVuSans-30" x="159.033203"/>
      </g>
     </g>
    </g>
    <g id="ytick_6">
     <g id="line2d_12">
      <g>
       <use xlink:href="#m41071ce8d5" x="50.14375" y="99.544171" style="stroke: #000000; stroke-width: 0.8"/>
      </g>
     </g>
     <g id="text_13">
      <!-- 1.25 -->
      <g transform="translate(20.878125 103.34339)scale(0.1 -0.1)">
       <use xlink:href="#DejaVuSans-31"/>
       <use xlink:href="#DejaVuSans-2e" x="63.623047"/>
       <use xlink:href="#DejaVuSans-32" x="95.410156"/>
       <use xlink:href="#DejaVuSans-35" x="159.033203"/>
      </g>
     </g>
    </g>
    <g id="ytick_7">
     <g id="line2d_13">
      <g>
       <use xlink:href="#m41071ce8d5" x="50.14375" y="74.525005" style="stroke: #000000; stroke-width: 0.8"/>
      </g>
     </g>
     <g id="text_14">
      <!-- 1.50 -->
      <g transform="translate(20.878125 78.324224)scale(0.1 -0.1)">
       <use xlink:href="#DejaVuSans-31"/>
       <use xlink:href="#DejaVuSans-2e" x="63.623047"/>
       <use xlink:href="#DejaVuSans-35" x="95.410156"/>
       <use xlink:href="#DejaVuSans-30" x="159.033203"/>
      </g>
     </g>
    </g>
    <g id="ytick_8">
     <g id="line2d_14">
      <g>
       <use xlink:href="#m41071ce8d5" x="50.14375" y="49.505839" style="stroke: #000000; stroke-width: 0.8"/>
      </g>
     </g>
     <g id="text_15">
      <!-- 1.75 -->
      <g transform="translate(20.878125 53.305058)scale(0.1 -0.1)">
       <use xlink:href="#DejaVuSans-31"/>
       <use xlink:href="#DejaVuSans-2e" x="63.623047"/>
       <use xlink:href="#DejaVuSans-37" x="95.410156"/>
       <use xlink:href="#DejaVuSans-35" x="159.033203"/>
      </g>
     </g>
    </g>
    <g id="ytick_9">
     <g id="line2d_15">
      <g>
       <use xlink:href="#m41071ce8d5" x="50.14375" y="24.486673" style="stroke: #000000; stroke-width: 0.8"/>
      </g>
     </g>
     <g id="text_16">
      <!-- 2.00 -->
      <g transform="translate(20.878125 28.285892)scale(0.1 -0.1)">
       <use xlink:href="#DejaVuSans-32"/>
       <use xlink:href="#DejaVuSans-2e" x="63.623047"/>
       <use xlink:href="#DejaVuSans-30" x="95.410156"/>
       <use xlink:href="#DejaVuSans-30" x="159.033203"/>
      </g>
     </g>
    </g>
    <g id="text_17">
     <!-- Probability density -->
     <g transform="translate(14.798438 162.270781)rotate(-90)scale(0.1 -0.1)">
      <defs>
       <path id="DejaVuSans-62" d="M 3116 1747 
Q 3116 2381 2855 2742 
Q 2594 3103 2138 3103 
Q 1681 3103 1420 2742 
Q 1159 2381 1159 1747 
Q 1159 1113 1420 752 
Q 1681 391 2138 391 
Q 2594 391 2855 752 
Q 3116 1113 3116 1747 
z
M 1159 2969 
Q 1341 3281 1617 3432 
Q 1894 3584 2278 3584 
Q 2916 3584 3314 3078 
Q 3713 2572 3713 1747 
Q 3713 922 3314 415 
Q 2916 -91 2278 -91 
Q 1894 -91 1617 61 
Q 1341 213 1159 525 
L 1159 0 
L 581 0 
L 581 4863 
L 1159 4863 
L 1159 2969 
z
" transform="scale(0.015625)"/>
       <path id="DejaVuSans-6c" d="M 603 4863 
L 1178 4863 
L 1178 0 
L 603 0 
L 603 4863 
z
" transform="scale(0.015625)"/>
       <path id="DejaVuSans-79" d="M 2059 -325 
Q 1816 -950 1584 -1140 
Q 1353 -1331 966 -1331 
L 506 -1331 
L 506 -850 
L 844 -850 
Q 1081 -850 1212 -737 
Q 1344 -625 1503 -206 
L 1606 56 
L 191 3500 
L 800 3500 
L 1894 763 
L 2988 3500 
L 3597 3500 
L 2059 -325 
z
" transform="scale(0.015625)"/>
       <path id="DejaVuSans-73" d="M 2834 3397 
L 2834 2853 
Q 2591 2978 2328 3040 
Q 2066 3103 1784 3103 
Q 1356 3103 1142 2972 
Q 928 2841 928 2578 
Q 928 2378 1081 2264 
Q 1234 2150 1697 2047 
L 1894 2003 
Q 2506 1872 2764 1633 
Q 3022 1394 3022 966 
Q 3022 478 2636 193 
Q 2250 -91 1575 -91 
Q 1294 -91 989 -36 
Q 684 19 347 128 
L 347 722 
Q 666 556 975 473 
Q 1284 391 1588 391 
Q 1994 391 2212 530 
Q 2431 669 2431 922 
Q 2431 1156 2273 1281 
Q 2116 1406 1581 1522 
L 1381 1569 
Q 847 1681 609 1914 
Q 372 2147 372 2553 
Q 372 3047 722 3315 
Q 1072 3584 1716 3584 
Q 2034 3584 2315 3537 
Q 2597 3491 2834 3397 
z
" transform="scale(0.015625)"/>
      </defs>
      <use xlink:href="#DejaVuSans-50"/>
      <use xlink:href="#DejaVuSans-72" x="58.552734"/>
      <use xlink:href="#DejaVuSans-6f" x="97.416016"/>
      <use xlink:href="#DejaVuSans-62" x="158.597656"/>
      <use xlink:href="#DejaVuSans-61" x="222.074219"/>
      <use xlink:href="#DejaVuSans-62" x="283.353516"/>
      <use xlink:href="#DejaVuSans-69" x="346.830078"/>
      <use xlink:href="#DejaVuSans-6c" x="374.613281"/>
      <use xlink:href="#DejaVuSans-69" x="402.396484"/>
      <use xlink:href="#DejaVuSans-74" x="430.179688"/>
      <use xlink:href="#DejaVuSans-79" x="469.388672"/>
      <use xlink:href="#DejaVuSans-20" x="528.568359"/>
      <use xlink:href="#DejaVuSans-64" x="560.355469"/>
      <use xlink:href="#DejaVuSans-65" x="623.832031"/>
      <use xlink:href="#DejaVuSans-6e" x="685.355469"/>
      <use xlink:href="#DejaVuSans-73" x="748.734375"/>
      <use xlink:href="#DejaVuSans-69" x="800.833984"/>
      <use xlink:href="#DejaVuSans-74" x="828.617188"/>
      <use xlink:href="#DejaVuSans-79" x="867.826172"/>
     </g>
    </g>
   </g>
   <g id="line2d_16">
    <path d="M 65.361932 224.64 
L 369.725568 24.486673 
L 369.725568 24.486673 
" clip-path="url(#pee64d533cb)" style="fill: none; stroke: #ff7f0e; stroke-width: 1.5; stroke-linecap: square"/>
   </g>
   <g id="patch_203">
    <path d="M 50.14375 224.64 
L 50.14375 7.2 
" style="fill: none; stroke: #000000; stroke-width: 0.8; stroke-linejoin: miter; stroke-linecap: square"/>
   </g>
   <g id="patch_204">
    <path d="M 384.94375 224.64 
L 384.94375 7.2 
" style="fill: none; stroke: #000000; stroke-width: 0.8; stroke-linejoin: miter; stroke-linecap: square"/>
   </g>
   <g id="patch_205">
    <path d="M 50.14375 224.64 
L 384.94375 224.64 
" style="fill: none; stroke: #000000; stroke-width: 0.8; stroke-linejoin: miter; stroke-linecap: square"/>
   </g>
   <g id="patch_206">
    <path d="M 50.14375 7.2 
L 384.94375 7.2 
" style="fill: none; stroke: #000000; stroke-width: 0.8; stroke-linejoin: miter; stroke-linecap: square"/>
   </g>
  </g>
 </g>
 <defs>
  <clipPath id="pee64d533cb">
   <rect x="50.14375" y="7.2" width="334.8" height="217.44"/>
  </clipPath>
 </defs>
</svg>
