<?xml version="1.0" encoding="utf-8" standalone="no"?>
<!DOCTYPE svg PUBLIC "-//W3C//DTD SVG 1.1//EN"
  "http://www.w3.org/Graphics/SVG/1.1/DTD/svg11.dtd">
<svg xmlns:xlink="http://www.w3.org/1999/xlink" width="414.46375pt" height="310.86825pt" viewBox="0 0 414.46375 310.86825" xmlns="http://www.w3.org/2000/svg" version="1.1">
 <metadata>
  <rdf:RDF xmlns:dc="http://purl.org/dc/elements/1.1/" xmlns:cc="http://creativecommons.org/ns#" xmlns:rdf="http://www.w3.org/1999/02/22-rdf-syntax-ns#">
   <cc:Work>
    <dc:type rdf:resource="http://purl.org/dc/dcmitype/StillImage"/>
    <dc:date>2023-02-05T00:37:58.168337</dc:date>
    <dc:format>image/svg+xml</dc:format>
    <dc:creator>
     <cc:Agent>
      <dc:title>Matplotlib v3.5.3, https://matplotlib.org/</dc:title>
     </cc:Agent>
    </dc:creator>
   </cc:Work>
  </rdf:RDF>
 </metadata>
 <defs>
  <style type="text/css">*{stroke-linejoin: round; stroke-linecap: butt}</style>
 </defs>
 <g id="figure_1">
  <g id="patch_1">
   <path d="M 0 310.86825 
L 414.46375 310.86825 
L 414.46375 0 
L 0 0 
z
" style="fill: #ffffff"/>
  </g>
  <g id="axes_1">
   <g id="patch_2">
    <path d="M 50.14375 273.312 
L 407.26375 273.312 
L 407.26375 7.2 
L 50.14375 7.2 
z
" style="fill: #ffffff"/>
   </g>
   <g id="patch_3">
    <path d="M 67.922646 273.312 
L 69.538163 273.312 
L 69.538163 271.514553 
L 67.922646 271.514553 
z
" clip-path="url(#p52d62c2a35)" style="fill: #1f77b4"/>
   </g>
   <g id="patch_4">
    <path d="M 69.538163 273.312 
L 71.15368 273.312 
L 71.15368 269.117957 
L 69.538163 269.117957 
z
" clip-path="url(#p52d62c2a35)" style="fill: #1f77b4"/>
   </g>
   <g id="patch_5">
    <path d="M 71.15368 273.312 
L 72.769197 273.312 
L 72.769197 268.518809 
L 71.15368 268.518809 
z
" clip-path="url(#p52d62c2a35)" style="fill: #1f77b4"/>
   </g>
   <g id="patch_6">
    <path d="M 72.769197 273.312 
L 74.384714 273.312 
L 74.384714 268.518809 
L 72.769197 268.518809 
z
" clip-path="url(#p52d62c2a35)" style="fill: #1f77b4"/>
   </g>
   <g id="patch_7">
    <path d="M 74.384714 273.312 
L 76.000231 273.312 
L 76.000231 266.721362 
L 74.384714 266.721362 
z
" clip-path="url(#p52d62c2a35)" style="fill: #1f77b4"/>
   </g>
   <g id="patch_8">
    <path d="M 76.000231 273.312 
L 77.615748 273.312 
L 77.615748 265.523064 
L 76.000231 265.523064 
z
" clip-path="url(#p52d62c2a35)" style="fill: #1f77b4"/>
   </g>
   <g id="patch_9">
    <path d="M 77.615748 273.312 
L 79.231265 273.312 
L 79.231265 262.527319 
L 77.615748 262.527319 
z
" clip-path="url(#p52d62c2a35)" style="fill: #1f77b4"/>
   </g>
   <g id="patch_10">
    <path d="M 79.231265 273.312 
L 80.846783 273.312 
L 80.846783 255.936681 
L 79.231265 255.936681 
z
" clip-path="url(#p52d62c2a35)" style="fill: #1f77b4"/>
   </g>
   <g id="patch_11">
    <path d="M 80.846783 273.312 
L 82.4623 273.312 
L 82.4623 260.130723 
L 80.846783 260.130723 
z
" clip-path="url(#p52d62c2a35)" style="fill: #1f77b4"/>
   </g>
   <g id="patch_12">
    <path d="M 82.4623 273.312 
L 84.077817 273.312 
L 84.077817 266.721362 
L 82.4623 266.721362 
z
" clip-path="url(#p52d62c2a35)" style="fill: #1f77b4"/>
   </g>
   <g id="patch_13">
    <path d="M 84.077817 273.312 
L 85.693334 273.312 
L 85.693334 260.729872 
L 84.077817 260.729872 
z
" clip-path="url(#p52d62c2a35)" style="fill: #1f77b4"/>
   </g>
   <g id="patch_14">
    <path d="M 85.693334 273.312 
L 87.308851 273.312 
L 87.308851 257.734128 
L 85.693334 257.734128 
z
" clip-path="url(#p52d62c2a35)" style="fill: #1f77b4"/>
   </g>
   <g id="patch_15">
    <path d="M 87.308851 273.312 
L 88.924368 273.312 
L 88.924368 257.734128 
L 87.308851 257.734128 
z
" clip-path="url(#p52d62c2a35)" style="fill: #1f77b4"/>
   </g>
   <g id="patch_16">
    <path d="M 88.924368 273.312 
L 90.539885 273.312 
L 90.539885 254.738383 
L 88.924368 254.738383 
z
" clip-path="url(#p52d62c2a35)" style="fill: #1f77b4"/>
   </g>
   <g id="patch_17">
    <path d="M 90.539885 273.312 
L 92.155402 273.312 
L 92.155402 252.341787 
L 90.539885 252.341787 
z
" clip-path="url(#p52d62c2a35)" style="fill: #1f77b4"/>
   </g>
   <g id="patch_18">
    <path d="M 92.155402 273.312 
L 93.770919 273.312 
L 93.770919 252.341787 
L 92.155402 252.341787 
z
" clip-path="url(#p52d62c2a35)" style="fill: #1f77b4"/>
   </g>
   <g id="patch_19">
    <path d="M 93.770919 273.312 
L 95.386436 273.312 
L 95.386436 251.143489 
L 93.770919 251.143489 
z
" clip-path="url(#p52d62c2a35)" style="fill: #1f77b4"/>
   </g>
   <g id="patch_20">
    <path d="M 95.386436 273.312 
L 97.001953 273.312 
L 97.001953 252.341787 
L 95.386436 252.341787 
z
" clip-path="url(#p52d62c2a35)" style="fill: #1f77b4"/>
   </g>
   <g id="patch_21">
    <path d="M 97.001953 273.312 
L 98.61747 273.312 
L 98.61747 254.139234 
L 97.001953 254.139234 
z
" clip-path="url(#p52d62c2a35)" style="fill: #1f77b4"/>
   </g>
   <g id="patch_22">
    <path d="M 98.61747 273.312 
L 100.232987 273.312 
L 100.232987 249.346043 
L 98.61747 249.346043 
z
" clip-path="url(#p52d62c2a35)" style="fill: #1f77b4"/>
   </g>
   <g id="patch_23">
    <path d="M 100.232987 273.312 
L 101.848504 273.312 
L 101.848504 249.945191 
L 100.232987 249.945191 
z
" clip-path="url(#p52d62c2a35)" style="fill: #1f77b4"/>
   </g>
   <g id="patch_24">
    <path d="M 101.848504 273.312 
L 103.464021 273.312 
L 103.464021 242.755404 
L 101.848504 242.755404 
z
" clip-path="url(#p52d62c2a35)" style="fill: #1f77b4"/>
   </g>
   <g id="patch_25">
    <path d="M 103.464021 273.312 
L 105.079538 273.312 
L 105.079538 242.156255 
L 103.464021 242.156255 
z
" clip-path="url(#p52d62c2a35)" style="fill: #1f77b4"/>
   </g>
   <g id="patch_26">
    <path d="M 105.079538 273.312 
L 106.695056 273.312 
L 106.695056 246.949447 
L 105.079538 246.949447 
z
" clip-path="url(#p52d62c2a35)" style="fill: #1f77b4"/>
   </g>
   <g id="patch_27">
    <path d="M 106.695056 273.312 
L 108.310573 273.312 
L 108.310573 239.75966 
L 106.695056 239.75966 
z
" clip-path="url(#p52d62c2a35)" style="fill: #1f77b4"/>
   </g>
   <g id="patch_28">
    <path d="M 108.310573 273.312 
L 109.92609 273.312 
L 109.92609 234.966468 
L 108.310573 234.966468 
z
" clip-path="url(#p52d62c2a35)" style="fill: #1f77b4"/>
   </g>
   <g id="patch_29">
    <path d="M 109.92609 273.312 
L 111.541607 273.312 
L 111.541607 247.548596 
L 109.92609 247.548596 
z
" clip-path="url(#p52d62c2a35)" style="fill: #1f77b4"/>
   </g>
   <g id="patch_30">
    <path d="M 111.541607 273.312 
L 113.157124 273.312 
L 113.157124 237.962213 
L 111.541607 237.962213 
z
" clip-path="url(#p52d62c2a35)" style="fill: #1f77b4"/>
   </g>
   <g id="patch_31">
    <path d="M 113.157124 273.312 
L 114.772641 273.312 
L 114.772641 229.574128 
L 113.157124 229.574128 
z
" clip-path="url(#p52d62c2a35)" style="fill: #1f77b4"/>
   </g>
   <g id="patch_32">
    <path d="M 114.772641 273.312 
L 116.388158 273.312 
L 116.388158 236.164766 
L 114.772641 236.164766 
z
" clip-path="url(#p52d62c2a35)" style="fill: #1f77b4"/>
   </g>
   <g id="patch_33">
    <path d="M 116.388158 273.312 
L 118.003675 273.312 
L 118.003675 235.565617 
L 116.388158 235.565617 
z
" clip-path="url(#p52d62c2a35)" style="fill: #1f77b4"/>
   </g>
   <g id="patch_34">
    <path d="M 118.003675 273.312 
L 119.619192 273.312 
L 119.619192 234.966468 
L 118.003675 234.966468 
z
" clip-path="url(#p52d62c2a35)" style="fill: #1f77b4"/>
   </g>
   <g id="patch_35">
    <path d="M 119.619192 273.312 
L 121.234709 273.312 
L 121.234709 228.974979 
L 119.619192 228.974979 
z
" clip-path="url(#p52d62c2a35)" style="fill: #1f77b4"/>
   </g>
   <g id="patch_36">
    <path d="M 121.234709 273.312 
L 122.850226 273.312 
L 122.850226 231.970723 
L 121.234709 231.970723 
z
" clip-path="url(#p52d62c2a35)" style="fill: #1f77b4"/>
   </g>
   <g id="patch_37">
    <path d="M 122.850226 273.312 
L 124.465743 273.312 
L 124.465743 225.380085 
L 122.850226 225.380085 
z
" clip-path="url(#p52d62c2a35)" style="fill: #1f77b4"/>
   </g>
   <g id="patch_38">
    <path d="M 124.465743 273.312 
L 126.08126 273.312 
L 126.08126 230.173277 
L 124.465743 230.173277 
z
" clip-path="url(#p52d62c2a35)" style="fill: #1f77b4"/>
   </g>
   <g id="patch_39">
    <path d="M 126.08126 273.312 
L 127.696777 273.312 
L 127.696777 237.363064 
L 126.08126 237.363064 
z
" clip-path="url(#p52d62c2a35)" style="fill: #1f77b4"/>
   </g>
   <g id="patch_40">
    <path d="M 127.696777 273.312 
L 129.312294 273.312 
L 129.312294 223.582638 
L 127.696777 223.582638 
z
" clip-path="url(#p52d62c2a35)" style="fill: #1f77b4"/>
   </g>
   <g id="patch_41">
    <path d="M 129.312294 273.312 
L 130.927812 273.312 
L 130.927812 237.962213 
L 129.312294 237.962213 
z
" clip-path="url(#p52d62c2a35)" style="fill: #1f77b4"/>
   </g>
   <g id="patch_42">
    <path d="M 130.927812 273.312 
L 132.543329 273.312 
L 132.543329 230.173277 
L 130.927812 230.173277 
z
" clip-path="url(#p52d62c2a35)" style="fill: #1f77b4"/>
   </g>
   <g id="patch_43">
    <path d="M 132.543329 273.312 
L 134.158846 273.312 
L 134.158846 224.780936 
L 132.543329 224.780936 
z
" clip-path="url(#p52d62c2a35)" style="fill: #1f77b4"/>
   </g>
   <g id="patch_44">
    <path d="M 134.158846 273.312 
L 135.774363 273.312 
L 135.774363 216.392851 
L 134.158846 216.392851 
z
" clip-path="url(#p52d62c2a35)" style="fill: #1f77b4"/>
   </g>
   <g id="patch_45">
    <path d="M 135.774363 273.312 
L 137.38988 273.312 
L 137.38988 224.780936 
L 135.774363 224.780936 
z
" clip-path="url(#p52d62c2a35)" style="fill: #1f77b4"/>
   </g>
   <g id="patch_46">
    <path d="M 137.38988 273.312 
L 139.005397 273.312 
L 139.005397 232.569872 
L 137.38988 232.569872 
z
" clip-path="url(#p52d62c2a35)" style="fill: #1f77b4"/>
   </g>
   <g id="patch_47">
    <path d="M 139.005397 273.312 
L 140.620914 273.312 
L 140.620914 215.194553 
L 139.005397 215.194553 
z
" clip-path="url(#p52d62c2a35)" style="fill: #1f77b4"/>
   </g>
   <g id="patch_48">
    <path d="M 140.620914 273.312 
L 142.236431 273.312 
L 142.236431 217.591149 
L 140.620914 217.591149 
z
" clip-path="url(#p52d62c2a35)" style="fill: #1f77b4"/>
   </g>
   <g id="patch_49">
    <path d="M 142.236431 273.312 
L 143.851948 273.312 
L 143.851948 227.177532 
L 142.236431 227.177532 
z
" clip-path="url(#p52d62c2a35)" style="fill: #1f77b4"/>
   </g>
   <g id="patch_50">
    <path d="M 143.851948 273.312 
L 145.467465 273.312 
L 145.467465 215.793702 
L 143.851948 215.793702 
z
" clip-path="url(#p52d62c2a35)" style="fill: #1f77b4"/>
   </g>
   <g id="patch_51">
    <path d="M 145.467465 273.312 
L 147.082982 273.312 
L 147.082982 220.586894 
L 145.467465 220.586894 
z
" clip-path="url(#p52d62c2a35)" style="fill: #1f77b4"/>
   </g>
   <g id="patch_52">
    <path d="M 147.082982 273.312 
L 148.698499 273.312 
L 148.698499 214.595404 
L 147.082982 214.595404 
z
" clip-path="url(#p52d62c2a35)" style="fill: #1f77b4"/>
   </g>
   <g id="patch_53">
    <path d="M 148.698499 273.312 
L 150.314016 273.312 
L 150.314016 218.789447 
L 148.698499 218.789447 
z
" clip-path="url(#p52d62c2a35)" style="fill: #1f77b4"/>
   </g>
   <g id="patch_54">
    <path d="M 150.314016 273.312 
L 151.929533 273.312 
L 151.929533 217.591149 
L 150.314016 217.591149 
z
" clip-path="url(#p52d62c2a35)" style="fill: #1f77b4"/>
   </g>
   <g id="patch_55">
    <path d="M 151.929533 273.312 
L 153.54505 273.312 
L 153.54505 212.797957 
L 151.929533 212.797957 
z
" clip-path="url(#p52d62c2a35)" style="fill: #1f77b4"/>
   </g>
   <g id="patch_56">
    <path d="M 153.54505 273.312 
L 155.160567 273.312 
L 155.160567 211.59966 
L 153.54505 211.59966 
z
" clip-path="url(#p52d62c2a35)" style="fill: #1f77b4"/>
   </g>
   <g id="patch_57">
    <path d="M 155.160567 273.312 
L 156.776085 273.312 
L 156.776085 202.612426 
L 155.160567 202.612426 
z
" clip-path="url(#p52d62c2a35)" style="fill: #1f77b4"/>
   </g>
   <g id="patch_58">
    <path d="M 156.776085 273.312 
L 158.391602 273.312 
L 158.391602 201.414128 
L 156.776085 201.414128 
z
" clip-path="url(#p52d62c2a35)" style="fill: #1f77b4"/>
   </g>
   <g id="patch_59">
    <path d="M 158.391602 273.312 
L 160.007119 273.312 
L 160.007119 211.59966 
L 158.391602 211.59966 
z
" clip-path="url(#p52d62c2a35)" style="fill: #1f77b4"/>
   </g>
   <g id="patch_60">
    <path d="M 160.007119 273.312 
L 161.622636 273.312 
L 161.622636 203.810723 
L 160.007119 203.810723 
z
" clip-path="url(#p52d62c2a35)" style="fill: #1f77b4"/>
   </g>
   <g id="patch_61">
    <path d="M 161.622636 273.312 
L 163.238153 273.312 
L 163.238153 203.810723 
L 161.622636 203.810723 
z
" clip-path="url(#p52d62c2a35)" style="fill: #1f77b4"/>
   </g>
   <g id="patch_62">
    <path d="M 163.238153 273.312 
L 164.85367 273.312 
L 164.85367 203.810723 
L 163.238153 203.810723 
z
" clip-path="url(#p52d62c2a35)" style="fill: #1f77b4"/>
   </g>
   <g id="patch_63">
    <path d="M 164.85367 273.312 
L 166.469187 273.312 
L 166.469187 200.21583 
L 164.85367 200.21583 
z
" clip-path="url(#p52d62c2a35)" style="fill: #1f77b4"/>
   </g>
   <g id="patch_64">
    <path d="M 166.469187 273.312 
L 168.084704 273.312 
L 168.084704 191.827745 
L 166.469187 191.827745 
z
" clip-path="url(#p52d62c2a35)" style="fill: #1f77b4"/>
   </g>
   <g id="patch_65">
    <path d="M 168.084704 273.312 
L 169.700221 273.312 
L 169.700221 200.21583 
L 168.084704 200.21583 
z
" clip-path="url(#p52d62c2a35)" style="fill: #1f77b4"/>
   </g>
   <g id="patch_66">
    <path d="M 169.700221 273.312 
L 171.315738 273.312 
L 171.315738 203.211574 
L 169.700221 203.211574 
z
" clip-path="url(#p52d62c2a35)" style="fill: #1f77b4"/>
   </g>
   <g id="patch_67">
    <path d="M 171.315738 273.312 
L 172.931255 273.312 
L 172.931255 195.422638 
L 171.315738 195.422638 
z
" clip-path="url(#p52d62c2a35)" style="fill: #1f77b4"/>
   </g>
   <g id="patch_68">
    <path d="M 172.931255 273.312 
L 174.546772 273.312 
L 174.546772 194.22434 
L 172.931255 194.22434 
z
" clip-path="url(#p52d62c2a35)" style="fill: #1f77b4"/>
   </g>
   <g id="patch_69">
    <path d="M 174.546772 273.312 
L 176.162289 273.312 
L 176.162289 196.021787 
L 174.546772 196.021787 
z
" clip-path="url(#p52d62c2a35)" style="fill: #1f77b4"/>
   </g>
   <g id="patch_70">
    <path d="M 176.162289 273.312 
L 177.777806 273.312 
L 177.777806 185.237106 
L 176.162289 185.237106 
z
" clip-path="url(#p52d62c2a35)" style="fill: #1f77b4"/>
   </g>
   <g id="patch_71">
    <path d="M 177.777806 273.312 
L 179.393323 273.312 
L 179.393323 187.034553 
L 177.777806 187.034553 
z
" clip-path="url(#p52d62c2a35)" style="fill: #1f77b4"/>
   </g>
   <g id="patch_72">
    <path d="M 179.393323 273.312 
L 181.008841 273.312 
L 181.008841 194.823489 
L 179.393323 194.823489 
z
" clip-path="url(#p52d62c2a35)" style="fill: #1f77b4"/>
   </g>
   <g id="patch_73">
    <path d="M 181.008841 273.312 
L 182.624358 273.312 
L 182.624358 181.642213 
L 181.008841 181.642213 
z
" clip-path="url(#p52d62c2a35)" style="fill: #1f77b4"/>
   </g>
   <g id="patch_74">
    <path d="M 182.624358 273.312 
L 184.239875 273.312 
L 184.239875 190.629447 
L 182.624358 190.629447 
z
" clip-path="url(#p52d62c2a35)" style="fill: #1f77b4"/>
   </g>
   <g id="patch_75">
    <path d="M 184.239875 273.312 
L 185.855392 273.312 
L 185.855392 190.030298 
L 184.239875 190.030298 
z
" clip-path="url(#p52d62c2a35)" style="fill: #1f77b4"/>
   </g>
   <g id="patch_76">
    <path d="M 185.855392 273.312 
L 187.470909 273.312 
L 187.470909 181.043064 
L 185.855392 181.043064 
z
" clip-path="url(#p52d62c2a35)" style="fill: #1f77b4"/>
   </g>
   <g id="patch_77">
    <path d="M 187.470909 273.312 
L 189.086426 273.312 
L 189.086426 179.844766 
L 187.470909 179.844766 
z
" clip-path="url(#p52d62c2a35)" style="fill: #1f77b4"/>
   </g>
   <g id="patch_78">
    <path d="M 189.086426 273.312 
L 190.701943 273.312 
L 190.701943 179.245617 
L 189.086426 179.245617 
z
" clip-path="url(#p52d62c2a35)" style="fill: #1f77b4"/>
   </g>
   <g id="patch_79">
    <path d="M 190.701943 273.312 
L 192.31746 273.312 
L 192.31746 178.646468 
L 190.701943 178.646468 
z
" clip-path="url(#p52d62c2a35)" style="fill: #1f77b4"/>
   </g>
   <g id="patch_80">
    <path d="M 192.31746 273.312 
L 193.932977 273.312 
L 193.932977 176.249872 
L 192.31746 176.249872 
z
" clip-path="url(#p52d62c2a35)" style="fill: #1f77b4"/>
   </g>
   <g id="patch_81">
    <path d="M 193.932977 273.312 
L 195.548494 273.312 
L 195.548494 178.646468 
L 193.932977 178.646468 
z
" clip-path="url(#p52d62c2a35)" style="fill: #1f77b4"/>
   </g>
   <g id="patch_82">
    <path d="M 195.548494 273.312 
L 197.164011 273.312 
L 197.164011 187.034553 
L 195.548494 187.034553 
z
" clip-path="url(#p52d62c2a35)" style="fill: #1f77b4"/>
   </g>
   <g id="patch_83">
    <path d="M 197.164011 273.312 
L 198.779528 273.312 
L 198.779528 164.266894 
L 197.164011 164.266894 
z
" clip-path="url(#p52d62c2a35)" style="fill: #1f77b4"/>
   </g>
   <g id="patch_84">
    <path d="M 198.779528 273.312 
L 200.395045 273.312 
L 200.395045 178.047319 
L 198.779528 178.047319 
z
" clip-path="url(#p52d62c2a35)" style="fill: #1f77b4"/>
   </g>
   <g id="patch_85">
    <path d="M 200.395045 273.312 
L 202.010562 273.312 
L 202.010562 175.051574 
L 200.395045 175.051574 
z
" clip-path="url(#p52d62c2a35)" style="fill: #1f77b4"/>
   </g>
   <g id="patch_86">
    <path d="M 202.010562 273.312 
L 203.626079 273.312 
L 203.626079 176.249872 
L 202.010562 176.249872 
z
" clip-path="url(#p52d62c2a35)" style="fill: #1f77b4"/>
   </g>
   <g id="patch_87">
    <path d="M 203.626079 273.312 
L 205.241596 273.312 
L 205.241596 176.249872 
L 203.626079 176.249872 
z
" clip-path="url(#p52d62c2a35)" style="fill: #1f77b4"/>
   </g>
   <g id="patch_88">
    <path d="M 205.241596 273.312 
L 206.857114 273.312 
L 206.857114 164.266894 
L 205.241596 164.266894 
z
" clip-path="url(#p52d62c2a35)" style="fill: #1f77b4"/>
   </g>
   <g id="patch_89">
    <path d="M 206.857114 273.312 
L 208.472631 273.312 
L 208.472631 158.874553 
L 206.857114 158.874553 
z
" clip-path="url(#p52d62c2a35)" style="fill: #1f77b4"/>
   </g>
   <g id="patch_90">
    <path d="M 208.472631 273.312 
L 210.088148 273.312 
L 210.088148 166.06434 
L 208.472631 166.06434 
z
" clip-path="url(#p52d62c2a35)" style="fill: #1f77b4"/>
   </g>
   <g id="patch_91">
    <path d="M 210.088148 273.312 
L 211.703665 273.312 
L 211.703665 161.870298 
L 210.088148 161.870298 
z
" clip-path="url(#p52d62c2a35)" style="fill: #1f77b4"/>
   </g>
   <g id="patch_92">
    <path d="M 211.703665 273.312 
L 213.319182 273.312 
L 213.319182 167.861787 
L 211.703665 167.861787 
z
" clip-path="url(#p52d62c2a35)" style="fill: #1f77b4"/>
   </g>
   <g id="patch_93">
    <path d="M 213.319182 273.312 
L 214.934699 273.312 
L 214.934699 162.469447 
L 213.319182 162.469447 
z
" clip-path="url(#p52d62c2a35)" style="fill: #1f77b4"/>
   </g>
   <g id="patch_94">
    <path d="M 214.934699 273.312 
L 216.550216 273.312 
L 216.550216 164.866043 
L 214.934699 164.866043 
z
" clip-path="url(#p52d62c2a35)" style="fill: #1f77b4"/>
   </g>
   <g id="patch_95">
    <path d="M 216.550216 273.312 
L 218.165733 273.312 
L 218.165733 175.051574 
L 216.550216 175.051574 
z
" clip-path="url(#p52d62c2a35)" style="fill: #1f77b4"/>
   </g>
   <g id="patch_96">
    <path d="M 218.165733 273.312 
L 219.78125 273.312 
L 219.78125 147.490723 
L 218.165733 147.490723 
z
" clip-path="url(#p52d62c2a35)" style="fill: #1f77b4"/>
   </g>
   <g id="patch_97">
    <path d="M 219.78125 273.312 
L 221.396767 273.312 
L 221.396767 155.27966 
L 219.78125 155.27966 
z
" clip-path="url(#p52d62c2a35)" style="fill: #1f77b4"/>
   </g>
   <g id="patch_98">
    <path d="M 221.396767 273.312 
L 223.012284 273.312 
L 223.012284 151.085617 
L 221.396767 151.085617 
z
" clip-path="url(#p52d62c2a35)" style="fill: #1f77b4"/>
   </g>
   <g id="patch_99">
    <path d="M 223.012284 273.312 
L 224.627801 273.312 
L 224.627801 174.452426 
L 223.012284 174.452426 
z
" clip-path="url(#p52d62c2a35)" style="fill: #1f77b4"/>
   </g>
   <g id="patch_100">
    <path d="M 224.627801 273.312 
L 226.243318 273.312 
L 226.243318 162.469447 
L 224.627801 162.469447 
z
" clip-path="url(#p52d62c2a35)" style="fill: #1f77b4"/>
   </g>
   <g id="patch_101">
    <path d="M 226.243318 273.312 
L 227.858835 273.312 
L 227.858835 145.693277 
L 226.243318 145.693277 
z
" clip-path="url(#p52d62c2a35)" style="fill: #1f77b4"/>
   </g>
   <g id="patch_102">
    <path d="M 227.858835 273.312 
L 229.474352 273.312 
L 229.474352 166.06434 
L 227.858835 166.06434 
z
" clip-path="url(#p52d62c2a35)" style="fill: #1f77b4"/>
   </g>
   <g id="patch_103">
    <path d="M 229.474352 273.312 
L 231.089869 273.312 
L 231.089869 157.077106 
L 229.474352 157.077106 
z
" clip-path="url(#p52d62c2a35)" style="fill: #1f77b4"/>
   </g>
   <g id="patch_104">
    <path d="M 231.089869 273.312 
L 232.705387 273.312 
L 232.705387 157.077106 
L 231.089869 157.077106 
z
" clip-path="url(#p52d62c2a35)" style="fill: #1f77b4"/>
   </g>
   <g id="patch_105">
    <path d="M 232.705387 273.312 
L 234.320904 273.312 
L 234.320904 142.697532 
L 232.705387 142.697532 
z
" clip-path="url(#p52d62c2a35)" style="fill: #1f77b4"/>
   </g>
   <g id="patch_106">
    <path d="M 234.320904 273.312 
L 235.936421 273.312 
L 235.936421 141.499234 
L 234.320904 141.499234 
z
" clip-path="url(#p52d62c2a35)" style="fill: #1f77b4"/>
   </g>
   <g id="patch_107">
    <path d="M 235.936421 273.312 
L 237.551938 273.312 
L 237.551938 148.089872 
L 235.936421 148.089872 
z
" clip-path="url(#p52d62c2a35)" style="fill: #1f77b4"/>
   </g>
   <g id="patch_108">
    <path d="M 237.551938 273.312 
L 239.167455 273.312 
L 239.167455 155.27966 
L 237.551938 155.27966 
z
" clip-path="url(#p52d62c2a35)" style="fill: #1f77b4"/>
   </g>
   <g id="patch_109">
    <path d="M 239.167455 273.312 
L 240.782972 273.312 
L 240.782972 152.283915 
L 239.167455 152.283915 
z
" clip-path="url(#p52d62c2a35)" style="fill: #1f77b4"/>
   </g>
   <g id="patch_110">
    <path d="M 240.782972 273.312 
L 242.398489 273.312 
L 242.398489 157.077106 
L 240.782972 157.077106 
z
" clip-path="url(#p52d62c2a35)" style="fill: #1f77b4"/>
   </g>
   <g id="patch_111">
    <path d="M 242.398489 273.312 
L 244.014006 273.312 
L 244.014006 145.693277 
L 242.398489 145.693277 
z
" clip-path="url(#p52d62c2a35)" style="fill: #1f77b4"/>
   </g>
   <g id="patch_112">
    <path d="M 244.014006 273.312 
L 245.629523 273.312 
L 245.629523 131.313702 
L 244.014006 131.313702 
z
" clip-path="url(#p52d62c2a35)" style="fill: #1f77b4"/>
   </g>
   <g id="patch_113">
    <path d="M 245.629523 273.312 
L 247.24504 273.312 
L 247.24504 135.507745 
L 245.629523 135.507745 
z
" clip-path="url(#p52d62c2a35)" style="fill: #1f77b4"/>
   </g>
   <g id="patch_114">
    <path d="M 247.24504 273.312 
L 248.860557 273.312 
L 248.860557 136.106894 
L 247.24504 136.106894 
z
" clip-path="url(#p52d62c2a35)" style="fill: #1f77b4"/>
   </g>
   <g id="patch_115">
    <path d="M 248.860557 273.312 
L 250.476074 273.312 
L 250.476074 134.309447 
L 248.860557 134.309447 
z
" clip-path="url(#p52d62c2a35)" style="fill: #1f77b4"/>
   </g>
   <g id="patch_116">
    <path d="M 250.476074 273.312 
L 252.091591 273.312 
L 252.091591 149.887319 
L 250.476074 149.887319 
z
" clip-path="url(#p52d62c2a35)" style="fill: #1f77b4"/>
   </g>
   <g id="patch_117">
    <path d="M 252.091591 273.312 
L 253.707108 273.312 
L 253.707108 132.512 
L 252.091591 132.512 
z
" clip-path="url(#p52d62c2a35)" style="fill: #1f77b4"/>
   </g>
   <g id="patch_118">
    <path d="M 253.707108 273.312 
L 255.322625 273.312 
L 255.322625 132.512 
L 253.707108 132.512 
z
" clip-path="url(#p52d62c2a35)" style="fill: #1f77b4"/>
   </g>
   <g id="patch_119">
    <path d="M 255.322625 273.312 
L 256.938143 273.312 
L 256.938143 140.300936 
L 255.322625 140.300936 
z
" clip-path="url(#p52d62c2a35)" style="fill: #1f77b4"/>
   </g>
   <g id="patch_120">
    <path d="M 256.938143 273.312 
L 258.55366 273.312 
L 258.55366 137.90434 
L 256.938143 137.90434 
z
" clip-path="url(#p52d62c2a35)" style="fill: #1f77b4"/>
   </g>
   <g id="patch_121">
    <path d="M 258.55366 273.312 
L 260.169177 273.312 
L 260.169177 125.921362 
L 258.55366 125.921362 
z
" clip-path="url(#p52d62c2a35)" style="fill: #1f77b4"/>
   </g>
   <g id="patch_122">
    <path d="M 260.169177 273.312 
L 261.784694 273.312 
L 261.784694 131.313702 
L 260.169177 131.313702 
z
" clip-path="url(#p52d62c2a35)" style="fill: #1f77b4"/>
   </g>
   <g id="patch_123">
    <path d="M 261.784694 273.312 
L 263.400211 273.312 
L 263.400211 128.317957 
L 261.784694 128.317957 
z
" clip-path="url(#p52d62c2a35)" style="fill: #1f77b4"/>
   </g>
   <g id="patch_124">
    <path d="M 263.400211 273.312 
L 265.015728 273.312 
L 265.015728 129.516255 
L 263.400211 129.516255 
z
" clip-path="url(#p52d62c2a35)" style="fill: #1f77b4"/>
   </g>
   <g id="patch_125">
    <path d="M 265.015728 273.312 
L 266.631245 273.312 
L 266.631245 125.921362 
L 265.015728 125.921362 
z
" clip-path="url(#p52d62c2a35)" style="fill: #1f77b4"/>
   </g>
   <g id="patch_126">
    <path d="M 266.631245 273.312 
L 268.246762 273.312 
L 268.246762 102.554553 
L 266.631245 102.554553 
z
" clip-path="url(#p52d62c2a35)" style="fill: #1f77b4"/>
   </g>
   <g id="patch_127">
    <path d="M 268.246762 273.312 
L 269.862279 273.312 
L 269.862279 116.934128 
L 268.246762 116.934128 
z
" clip-path="url(#p52d62c2a35)" style="fill: #1f77b4"/>
   </g>
   <g id="patch_128">
    <path d="M 269.862279 273.312 
L 271.477796 273.312 
L 271.477796 121.12817 
L 269.862279 121.12817 
z
" clip-path="url(#p52d62c2a35)" style="fill: #1f77b4"/>
   </g>
   <g id="patch_129">
    <path d="M 271.477796 273.312 
L 273.093313 273.312 
L 273.093313 106.748596 
L 271.477796 106.748596 
z
" clip-path="url(#p52d62c2a35)" style="fill: #1f77b4"/>
   </g>
   <g id="patch_130">
    <path d="M 273.093313 273.312 
L 274.70883 273.312 
L 274.70883 100.157957 
L 273.093313 100.157957 
z
" clip-path="url(#p52d62c2a35)" style="fill: #1f77b4"/>
   </g>
   <g id="patch_131">
    <path d="M 274.70883 273.312 
L 276.324347 273.312 
L 276.324347 127.718809 
L 274.70883 127.718809 
z
" clip-path="url(#p52d62c2a35)" style="fill: #1f77b4"/>
   </g>
   <g id="patch_132">
    <path d="M 276.324347 273.312 
L 277.939864 273.312 
L 277.939864 123.524766 
L 276.324347 123.524766 
z
" clip-path="url(#p52d62c2a35)" style="fill: #1f77b4"/>
   </g>
   <g id="patch_133">
    <path d="M 277.939864 273.312 
L 279.555381 273.312 
L 279.555381 133.111149 
L 277.939864 133.111149 
z
" clip-path="url(#p52d62c2a35)" style="fill: #1f77b4"/>
   </g>
   <g id="patch_134">
    <path d="M 279.555381 273.312 
L 281.170898 273.312 
L 281.170898 109.74434 
L 279.555381 109.74434 
z
" clip-path="url(#p52d62c2a35)" style="fill: #1f77b4"/>
   </g>
   <g id="patch_135">
    <path d="M 281.170898 273.312 
L 282.786416 273.312 
L 282.786416 110.942638 
L 281.170898 110.942638 
z
" clip-path="url(#p52d62c2a35)" style="fill: #1f77b4"/>
   </g>
   <g id="patch_136">
    <path d="M 282.786416 273.312 
L 284.401933 273.312 
L 284.401933 123.524766 
L 282.786416 123.524766 
z
" clip-path="url(#p52d62c2a35)" style="fill: #1f77b4"/>
   </g>
   <g id="patch_137">
    <path d="M 284.401933 273.312 
L 286.01745 273.312 
L 286.01745 125.322213 
L 284.401933 125.322213 
z
" clip-path="url(#p52d62c2a35)" style="fill: #1f77b4"/>
   </g>
   <g id="patch_138">
    <path d="M 286.01745 273.312 
L 287.632967 273.312 
L 287.632967 119.929872 
L 286.01745 119.929872 
z
" clip-path="url(#p52d62c2a35)" style="fill: #1f77b4"/>
   </g>
   <g id="patch_139">
    <path d="M 287.632967 273.312 
L 289.248484 273.312 
L 289.248484 124.123915 
L 287.632967 124.123915 
z
" clip-path="url(#p52d62c2a35)" style="fill: #1f77b4"/>
   </g>
   <g id="patch_140">
    <path d="M 289.248484 273.312 
L 290.864001 273.312 
L 290.864001 103.153702 
L 289.248484 103.153702 
z
" clip-path="url(#p52d62c2a35)" style="fill: #1f77b4"/>
   </g>
   <g id="patch_141">
    <path d="M 290.864001 273.312 
L 292.479518 273.312 
L 292.479518 94.765617 
L 290.864001 94.765617 
z
" clip-path="url(#p52d62c2a35)" style="fill: #1f77b4"/>
   </g>
   <g id="patch_142">
    <path d="M 292.479518 273.312 
L 294.095035 273.312 
L 294.095035 109.145191 
L 292.479518 109.145191 
z
" clip-path="url(#p52d62c2a35)" style="fill: #1f77b4"/>
   </g>
   <g id="patch_143">
    <path d="M 294.095035 273.312 
L 295.710552 273.312 
L 295.710552 103.752851 
L 294.095035 103.752851 
z
" clip-path="url(#p52d62c2a35)" style="fill: #1f77b4"/>
   </g>
   <g id="patch_144">
    <path d="M 295.710552 273.312 
L 297.326069 273.312 
L 297.326069 98.95966 
L 295.710552 98.95966 
z
" clip-path="url(#p52d62c2a35)" style="fill: #1f77b4"/>
   </g>
   <g id="patch_145">
    <path d="M 297.326069 273.312 
L 298.941586 273.312 
L 298.941586 95.364766 
L 297.326069 95.364766 
z
" clip-path="url(#p52d62c2a35)" style="fill: #1f77b4"/>
   </g>
   <g id="patch_146">
    <path d="M 298.941586 273.312 
L 300.557103 273.312 
L 300.557103 88.174979 
L 298.941586 88.174979 
z
" clip-path="url(#p52d62c2a35)" style="fill: #1f77b4"/>
   </g>
   <g id="patch_147">
    <path d="M 300.557103 273.312 
L 302.17262 273.312 
L 302.17262 105.550298 
L 300.557103 105.550298 
z
" clip-path="url(#p52d62c2a35)" style="fill: #1f77b4"/>
   </g>
   <g id="patch_148">
    <path d="M 302.17262 273.312 
L 303.788137 273.312 
L 303.788137 110.942638 
L 302.17262 110.942638 
z
" clip-path="url(#p52d62c2a35)" style="fill: #1f77b4"/>
   </g>
   <g id="patch_149">
    <path d="M 303.788137 273.312 
L 305.403654 273.312 
L 305.403654 94.765617 
L 303.788137 94.765617 
z
" clip-path="url(#p52d62c2a35)" style="fill: #1f77b4"/>
   </g>
   <g id="patch_150">
    <path d="M 305.403654 273.312 
L 307.019172 273.312 
L 307.019172 76.192 
L 305.403654 76.192 
z
" clip-path="url(#p52d62c2a35)" style="fill: #1f77b4"/>
   </g>
   <g id="patch_151">
    <path d="M 307.019172 273.312 
L 308.634689 273.312 
L 308.634689 105.550298 
L 307.019172 105.550298 
z
" clip-path="url(#p52d62c2a35)" style="fill: #1f77b4"/>
   </g>
   <g id="patch_152">
    <path d="M 308.634689 273.312 
L 310.250206 273.312 
L 310.250206 81.58434 
L 308.634689 81.58434 
z
" clip-path="url(#p52d62c2a35)" style="fill: #1f77b4"/>
   </g>
   <g id="patch_153">
    <path d="M 310.250206 273.312 
L 311.865723 273.312 
L 311.865723 96.563064 
L 310.250206 96.563064 
z
" clip-path="url(#p52d62c2a35)" style="fill: #1f77b4"/>
   </g>
   <g id="patch_154">
    <path d="M 311.865723 273.312 
L 313.48124 273.312 
L 313.48124 102.554553 
L 311.865723 102.554553 
z
" clip-path="url(#p52d62c2a35)" style="fill: #1f77b4"/>
   </g>
   <g id="patch_155">
    <path d="M 313.48124 273.312 
L 315.096757 273.312 
L 315.096757 116.934128 
L 313.48124 116.934128 
z
" clip-path="url(#p52d62c2a35)" style="fill: #1f77b4"/>
   </g>
   <g id="patch_156">
    <path d="M 315.096757 273.312 
L 316.712274 273.312 
L 316.712274 115.136681 
L 315.096757 115.136681 
z
" clip-path="url(#p52d62c2a35)" style="fill: #1f77b4"/>
   </g>
   <g id="patch_157">
    <path d="M 316.712274 273.312 
L 318.327791 273.312 
L 318.327791 89.972426 
L 316.712274 89.972426 
z
" clip-path="url(#p52d62c2a35)" style="fill: #1f77b4"/>
   </g>
   <g id="patch_158">
    <path d="M 318.327791 273.312 
L 319.943308 273.312 
L 319.943308 83.381787 
L 318.327791 83.381787 
z
" clip-path="url(#p52d62c2a35)" style="fill: #1f77b4"/>
   </g>
   <g id="patch_159">
    <path d="M 319.943308 273.312 
L 321.558825 273.312 
L 321.558825 90.571574 
L 319.943308 90.571574 
z
" clip-path="url(#p52d62c2a35)" style="fill: #1f77b4"/>
   </g>
   <g id="patch_160">
    <path d="M 321.558825 273.312 
L 323.174342 273.312 
L 323.174342 89.972426 
L 321.558825 89.972426 
z
" clip-path="url(#p52d62c2a35)" style="fill: #1f77b4"/>
   </g>
   <g id="patch_161">
    <path d="M 323.174342 273.312 
L 324.789859 273.312 
L 324.789859 68.403064 
L 323.174342 68.403064 
z
" clip-path="url(#p52d62c2a35)" style="fill: #1f77b4"/>
   </g>
   <g id="patch_162">
    <path d="M 324.789859 273.312 
L 326.405376 273.312 
L 326.405376 85.778383 
L 324.789859 85.778383 
z
" clip-path="url(#p52d62c2a35)" style="fill: #1f77b4"/>
   </g>
   <g id="patch_163">
    <path d="M 326.405376 273.312 
L 328.020893 273.312 
L 328.020893 80.386043 
L 326.405376 80.386043 
z
" clip-path="url(#p52d62c2a35)" style="fill: #1f77b4"/>
   </g>
   <g id="patch_164">
    <path d="M 328.020893 273.312 
L 329.63641 273.312 
L 329.63641 86.377532 
L 328.020893 86.377532 
z
" clip-path="url(#p52d62c2a35)" style="fill: #1f77b4"/>
   </g>
   <g id="patch_165">
    <path d="M 329.63641 273.312 
L 331.251927 273.312 
L 331.251927 81.58434 
L 329.63641 81.58434 
z
" clip-path="url(#p52d62c2a35)" style="fill: #1f77b4"/>
   </g>
   <g id="patch_166">
    <path d="M 331.251927 273.312 
L 332.867445 273.312 
L 332.867445 66.605617 
L 331.251927 66.605617 
z
" clip-path="url(#p52d62c2a35)" style="fill: #1f77b4"/>
   </g>
   <g id="patch_167">
    <path d="M 332.867445 273.312 
L 334.482962 273.312 
L 334.482962 77.989447 
L 332.867445 77.989447 
z
" clip-path="url(#p52d62c2a35)" style="fill: #1f77b4"/>
   </g>
   <g id="patch_168">
    <path d="M 334.482962 273.312 
L 336.098479 273.312 
L 336.098479 65.407319 
L 334.482962 65.407319 
z
" clip-path="url(#p52d62c2a35)" style="fill: #1f77b4"/>
   </g>
   <g id="patch_169">
    <path d="M 336.098479 273.312 
L 337.713996 273.312 
L 337.713996 61.812426 
L 336.098479 61.812426 
z
" clip-path="url(#p52d62c2a35)" style="fill: #1f77b4"/>
   </g>
   <g id="patch_170">
    <path d="M 337.713996 273.312 
L 339.329513 273.312 
L 339.329513 82.183489 
L 337.713996 82.183489 
z
" clip-path="url(#p52d62c2a35)" style="fill: #1f77b4"/>
   </g>
   <g id="patch_171">
    <path d="M 339.329513 273.312 
L 340.94503 273.312 
L 340.94503 67.204766 
L 339.329513 67.204766 
z
" clip-path="url(#p52d62c2a35)" style="fill: #1f77b4"/>
   </g>
   <g id="patch_172">
    <path d="M 340.94503 273.312 
L 342.560547 273.312 
L 342.560547 71.398809 
L 340.94503 71.398809 
z
" clip-path="url(#p52d62c2a35)" style="fill: #1f77b4"/>
   </g>
   <g id="patch_173">
    <path d="M 342.560547 273.312 
L 344.176064 273.312 
L 344.176064 74.394553 
L 342.560547 74.394553 
z
" clip-path="url(#p52d62c2a35)" style="fill: #1f77b4"/>
   </g>
   <g id="patch_174">
    <path d="M 344.176064 273.312 
L 345.791581 273.312 
L 345.791581 77.390298 
L 344.176064 77.390298 
z
" clip-path="url(#p52d62c2a35)" style="fill: #1f77b4"/>
   </g>
   <g id="patch_175">
    <path d="M 345.791581 273.312 
L 347.407098 273.312 
L 347.407098 73.795404 
L 345.791581 73.795404 
z
" clip-path="url(#p52d62c2a35)" style="fill: #1f77b4"/>
   </g>
   <g id="patch_176">
    <path d="M 347.407098 273.312 
L 349.022615 273.312 
L 349.022615 71.398809 
L 347.407098 71.398809 
z
" clip-path="url(#p52d62c2a35)" style="fill: #1f77b4"/>
   </g>
   <g id="patch_177">
    <path d="M 349.022615 273.312 
L 350.638132 273.312 
L 350.638132 82.782638 
L 349.022615 82.782638 
z
" clip-path="url(#p52d62c2a35)" style="fill: #1f77b4"/>
   </g>
   <g id="patch_178">
    <path d="M 350.638132 273.312 
L 352.253649 273.312 
L 352.253649 52.825191 
L 350.638132 52.825191 
z
" clip-path="url(#p52d62c2a35)" style="fill: #1f77b4"/>
   </g>
   <g id="patch_179">
    <path d="M 352.253649 273.312 
L 353.869166 273.312 
L 353.869166 60.014979 
L 352.253649 60.014979 
z
" clip-path="url(#p52d62c2a35)" style="fill: #1f77b4"/>
   </g>
   <g id="patch_180">
    <path d="M 353.869166 273.312 
L 355.484683 273.312 
L 355.484683 78.588596 
L 353.869166 78.588596 
z
" clip-path="url(#p52d62c2a35)" style="fill: #1f77b4"/>
   </g>
   <g id="patch_181">
    <path d="M 355.484683 273.312 
L 357.100201 273.312 
L 357.100201 55.221787 
L 355.484683 55.221787 
z
" clip-path="url(#p52d62c2a35)" style="fill: #1f77b4"/>
   </g>
   <g id="patch_182">
    <path d="M 357.100201 273.312 
L 358.715718 273.312 
L 358.715718 70.200511 
L 357.100201 70.200511 
z
" clip-path="url(#p52d62c2a35)" style="fill: #1f77b4"/>
   </g>
   <g id="patch_183">
    <path d="M 358.715718 273.312 
L 360.331235 273.312 
L 360.331235 73.196255 
L 358.715718 73.196255 
z
" clip-path="url(#p52d62c2a35)" style="fill: #1f77b4"/>
   </g>
   <g id="patch_184">
    <path d="M 360.331235 273.312 
L 361.946752 273.312 
L 361.946752 48.032 
L 360.331235 48.032 
z
" clip-path="url(#p52d62c2a35)" style="fill: #1f77b4"/>
   </g>
   <g id="patch_185">
    <path d="M 361.946752 273.312 
L 363.562269 273.312 
L 363.562269 59.41583 
L 361.946752 59.41583 
z
" clip-path="url(#p52d62c2a35)" style="fill: #1f77b4"/>
   </g>
   <g id="patch_186">
    <path d="M 363.562269 273.312 
L 365.177786 273.312 
L 365.177786 66.006468 
L 363.562269 66.006468 
z
" clip-path="url(#p52d62c2a35)" style="fill: #1f77b4"/>
   </g>
   <g id="patch_187">
    <path d="M 365.177786 273.312 
L 366.793303 273.312 
L 366.793303 52.226043 
L 365.177786 52.226043 
z
" clip-path="url(#p52d62c2a35)" style="fill: #1f77b4"/>
   </g>
   <g id="patch_188">
    <path d="M 366.793303 273.312 
L 368.40882 273.312 
L 368.40882 46.234553 
L 366.793303 46.234553 
z
" clip-path="url(#p52d62c2a35)" style="fill: #1f77b4"/>
   </g>
   <g id="patch_189">
    <path d="M 368.40882 273.312 
L 370.024337 273.312 
L 370.024337 50.428596 
L 368.40882 50.428596 
z
" clip-path="url(#p52d62c2a35)" style="fill: #1f77b4"/>
   </g>
   <g id="patch_190">
    <path d="M 370.024337 273.312 
L 371.639854 273.312 
L 371.639854 36.64817 
L 370.024337 36.64817 
z
" clip-path="url(#p52d62c2a35)" style="fill: #1f77b4"/>
   </g>
   <g id="patch_191">
    <path d="M 371.639854 273.312 
L 373.255371 273.312 
L 373.255371 48.032 
L 371.639854 48.032 
z
" clip-path="url(#p52d62c2a35)" style="fill: #1f77b4"/>
   </g>
   <g id="patch_192">
    <path d="M 373.255371 273.312 
L 374.870888 273.312 
L 374.870888 45.036255 
L 373.255371 45.036255 
z
" clip-path="url(#p52d62c2a35)" style="fill: #1f77b4"/>
   </g>
   <g id="patch_193">
    <path d="M 374.870888 273.312 
L 376.486405 273.312 
L 376.486405 48.631149 
L 374.870888 48.631149 
z
" clip-path="url(#p52d62c2a35)" style="fill: #1f77b4"/>
   </g>
   <g id="patch_194">
    <path d="M 376.486405 273.312 
L 378.101922 273.312 
L 378.101922 45.036255 
L 376.486405 45.036255 
z
" clip-path="url(#p52d62c2a35)" style="fill: #1f77b4"/>
   </g>
   <g id="patch_195">
    <path d="M 378.101922 273.312 
L 379.717439 273.312 
L 379.717439 44.437106 
L 378.101922 44.437106 
z
" clip-path="url(#p52d62c2a35)" style="fill: #1f77b4"/>
   </g>
   <g id="patch_196">
    <path d="M 379.717439 273.312 
L 381.332956 273.312 
L 381.332956 19.872 
L 379.717439 19.872 
z
" clip-path="url(#p52d62c2a35)" style="fill: #1f77b4"/>
   </g>
   <g id="patch_197">
    <path d="M 381.332956 273.312 
L 382.948474 273.312 
L 382.948474 37.846468 
L 381.332956 37.846468 
z
" clip-path="url(#p52d62c2a35)" style="fill: #1f77b4"/>
   </g>
   <g id="patch_198">
    <path d="M 382.948474 273.312 
L 384.563991 273.312 
L 384.563991 36.049021 
L 382.948474 36.049021 
z
" clip-path="url(#p52d62c2a35)" style="fill: #1f77b4"/>
   </g>
   <g id="patch_199">
    <path d="M 384.563991 273.312 
L 386.179508 273.312 
L 386.179508 31.25583 
L 384.563991 31.25583 
z
" clip-path="url(#p52d62c2a35)" style="fill: #1f77b4"/>
   </g>
   <g id="patch_200">
    <path d="M 386.179508 273.312 
L 387.795025 273.312 
L 387.795025 31.25583 
L 386.179508 31.25583 
z
" clip-path="url(#p52d62c2a35)" style="fill: #1f77b4"/>
   </g>
   <g id="patch_201">
    <path d="M 387.795025 273.312 
L 389.410542 273.312 
L 389.410542 32.454128 
L 387.795025 32.454128 
z
" clip-path="url(#p52d62c2a35)" style="fill: #1f77b4"/>
   </g>
   <g id="patch_202">
    <path d="M 389.410542 273.312 
L 391.026059 273.312 
L 391.026059 42.040511 
L 389.410542 42.040511 
z
" clip-path="url(#p52d62c2a35)" style="fill: #1f77b4"/>
   </g>
   <g id="matplotlib.axis_1">
    <g id="xtick_1">
     <g id="line2d_1">
      <defs>
       <path id="m5e973ef73d" d="M 0 0 
L 0 3.5 
" style="stroke: #000000; stroke-width: 0.8"/>
      </defs>
      <g>
       <use xlink:href="#m5e973ef73d" x="66.376477" y="273.312" style="stroke: #000000; stroke-width: 0.8"/>
      </g>
     </g>
     <g id="text_1">
      <!-- 0.0 -->
      <g transform="translate(58.424915 287.910437)scale(0.1 -0.1)">
       <defs>
        <path id="DejaVuSans-30" d="M 2034 4250 
Q 1547 4250 1301 3770 
Q 1056 3291 1056 2328 
Q 1056 1369 1301 889 
Q 1547 409 2034 409 
Q 2525 409 2770 889 
Q 3016 1369 3016 2328 
Q 3016 3291 2770 3770 
Q 2525 4250 2034 4250 
z
M 2034 4750 
Q 2819 4750 3233 4129 
Q 3647 3509 3647 2328 
Q 3647 1150 3233 529 
Q 2819 -91 2034 -91 
Q 1250 -91 836 529 
Q 422 1150 422 2328 
Q 422 3509 836 4129 
Q 1250 4750 2034 4750 
z
" transform="scale(0.015625)"/>
        <path id="DejaVuSans-2e" d="M 684 794 
L 1344 794 
L 1344 0 
L 684 0 
L 684 794 
z
" transform="scale(0.015625)"/>
       </defs>
       <use xlink:href="#DejaVuSans-30"/>
       <use xlink:href="#DejaVuSans-2e" x="63.623047"/>
       <use xlink:href="#DejaVuSans-30" x="95.410156"/>
      </g>
     </g>
    </g>
    <g id="xtick_2">
     <g id="line2d_2">
      <g>
       <use xlink:href="#m5e973ef73d" x="131.307386" y="273.312" style="stroke: #000000; stroke-width: 0.8"/>
      </g>
     </g>
     <g id="text_2">
      <!-- 0.2 -->
      <g transform="translate(123.355824 287.910437)scale(0.1 -0.1)">
       <defs>
        <path id="DejaVuSans-32" d="M 1228 531 
L 3431 531 
L 3431 0 
L 469 0 
L 469 531 
Q 828 903 1448 1529 
Q 2069 2156 2228 2338 
Q 2531 2678 2651 2914 
Q 2772 3150 2772 3378 
Q 2772 3750 2511 3984 
Q 2250 4219 1831 4219 
Q 1534 4219 1204 4116 
Q 875 4013 500 3803 
L 500 4441 
Q 881 4594 1212 4672 
Q 1544 4750 1819 4750 
Q 2544 4750 2975 4387 
Q 3406 4025 3406 3419 
Q 3406 3131 3298 2873 
Q 3191 2616 2906 2266 
Q 2828 2175 2409 1742 
Q 1991 1309 1228 531 
z
" transform="scale(0.015625)"/>
       </defs>
       <use xlink:href="#DejaVuSans-30"/>
       <use xlink:href="#DejaVuSans-2e" x="63.623047"/>
       <use xlink:href="#DejaVuSans-32" x="95.410156"/>
      </g>
     </g>
    </g>
    <g id="xtick_3">
     <g id="line2d_3">
      <g>
       <use xlink:href="#m5e973ef73d" x="196.238295" y="273.312" style="stroke: #000000; stroke-width: 0.8"/>
      </g>
     </g>
     <g id="text_3">
      <!-- 0.4 -->
      <g transform="translate(188.286733 287.910437)scale(0.1 -0.1)">
       <defs>
        <path id="DejaVuSans-34" d="M 2419 4116 
L 825 1625 
L 2419 1625 
L 2419 4116 
z
M 2253 4666 
L 3047 4666 
L 3047 1625 
L 3713 1625 
L 3713 1100 
L 3047 1100 
L 3047 0 
L 2419 0 
L 2419 1100 
L 313 1100 
L 313 1709 
L 2253 4666 
z
" transform="scale(0.015625)"/>
       </defs>
       <use xlink:href="#DejaVuSans-30"/>
       <use xlink:href="#DejaVuSans-2e" x="63.623047"/>
       <use xlink:href="#DejaVuSans-34" x="95.410156"/>
      </g>
     </g>
    </g>
    <g id="xtick_4">
     <g id="line2d_4">
      <g>
       <use xlink:href="#m5e973ef73d" x="261.169205" y="273.312" style="stroke: #000000; stroke-width: 0.8"/>
      </g>
     </g>
     <g id="text_4">
      <!-- 0.6 -->
      <g transform="translate(253.217642 287.910437)scale(0.1 -0.1)">
       <defs>
        <path id="DejaVuSans-36" d="M 2113 2584 
Q 1688 2584 1439 2293 
Q 1191 2003 1191 1497 
Q 1191 994 1439 701 
Q 1688 409 2113 409 
Q 2538 409 2786 701 
Q 3034 994 3034 1497 
Q 3034 2003 2786 2293 
Q 2538 2584 2113 2584 
z
M 3366 4563 
L 3366 3988 
Q 3128 4100 2886 4159 
Q 2644 4219 2406 4219 
Q 1781 4219 1451 3797 
Q 1122 3375 1075 2522 
Q 1259 2794 1537 2939 
Q 1816 3084 2150 3084 
Q 2853 3084 3261 2657 
Q 3669 2231 3669 1497 
Q 3669 778 3244 343 
Q 2819 -91 2113 -91 
Q 1303 -91 875 529 
Q 447 1150 447 2328 
Q 447 3434 972 4092 
Q 1497 4750 2381 4750 
Q 2619 4750 2861 4703 
Q 3103 4656 3366 4563 
z
" transform="scale(0.015625)"/>
       </defs>
       <use xlink:href="#DejaVuSans-30"/>
       <use xlink:href="#DejaVuSans-2e" x="63.623047"/>
       <use xlink:href="#DejaVuSans-36" x="95.410156"/>
      </g>
     </g>
    </g>
    <g id="xtick_5">
     <g id="line2d_5">
      <g>
       <use xlink:href="#m5e973ef73d" x="326.100114" y="273.312" style="stroke: #000000; stroke-width: 0.8"/>
      </g>
     </g>
     <g id="text_5">
      <!-- 0.8 -->
      <g transform="translate(318.148551 287.910437)scale(0.1 -0.1)">
       <defs>
        <path id="DejaVuSans-38" d="M 2034 2216 
Q 1584 2216 1326 1975 
Q 1069 1734 1069 1313 
Q 1069 891 1326 650 
Q 1584 409 2034 409 
Q 2484 409 2743 651 
Q 3003 894 3003 1313 
Q 3003 1734 2745 1975 
Q 2488 2216 2034 2216 
z
M 1403 2484 
Q 997 2584 770 2862 
Q 544 3141 544 3541 
Q 544 4100 942 4425 
Q 1341 4750 2034 4750 
Q 2731 4750 3128 4425 
Q 3525 4100 3525 3541 
Q 3525 3141 3298 2862 
Q 3072 2584 2669 2484 
Q 3125 2378 3379 2068 
Q 3634 1759 3634 1313 
Q 3634 634 3220 271 
Q 2806 -91 2034 -91 
Q 1263 -91 848 271 
Q 434 634 434 1313 
Q 434 1759 690 2068 
Q 947 2378 1403 2484 
z
M 1172 3481 
Q 1172 3119 1398 2916 
Q 1625 2713 2034 2713 
Q 2441 2713 2670 2916 
Q 2900 3119 2900 3481 
Q 2900 3844 2670 4047 
Q 2441 4250 2034 4250 
Q 1625 4250 1398 4047 
Q 1172 3844 1172 3481 
z
" transform="scale(0.015625)"/>
       </defs>
       <use xlink:href="#DejaVuSans-30"/>
       <use xlink:href="#DejaVuSans-2e" x="63.623047"/>
       <use xlink:href="#DejaVuSans-38" x="95.410156"/>
      </g>
     </g>
    </g>
    <g id="xtick_6">
     <g id="line2d_6">
      <g>
       <use xlink:href="#m5e973ef73d" x="391.031023" y="273.312" style="stroke: #000000; stroke-width: 0.8"/>
      </g>
     </g>
     <g id="text_6">
      <!-- 1.0 -->
      <g transform="translate(383.07946 287.910437)scale(0.1 -0.1)">
       <defs>
        <path id="DejaVuSans-31" d="M 794 531 
L 1825 531 
L 1825 4091 
L 703 3866 
L 703 4441 
L 1819 4666 
L 2450 4666 
L 2450 531 
L 3481 531 
L 3481 0 
L 794 0 
L 794 531 
z
" transform="scale(0.015625)"/>
       </defs>
       <use xlink:href="#DejaVuSans-31"/>
       <use xlink:href="#DejaVuSans-2e" x="63.623047"/>
       <use xlink:href="#DejaVuSans-30" x="95.410156"/>
      </g>
     </g>
    </g>
    <g id="text_7">
     <!-- Propagation direction -->
     <g transform="translate(175.221719 301.588562)scale(0.1 -0.1)">
      <defs>
       <path id="DejaVuSans-50" d="M 1259 4147 
L 1259 2394 
L 2053 2394 
Q 2494 2394 2734 2622 
Q 2975 2850 2975 3272 
Q 2975 3691 2734 3919 
Q 2494 4147 2053 4147 
L 1259 4147 
z
M 628 4666 
L 2053 4666 
Q 2838 4666 3239 4311 
Q 3641 3956 3641 3272 
Q 3641 2581 3239 2228 
Q 2838 1875 2053 1875 
L 1259 1875 
L 1259 0 
L 628 0 
L 628 4666 
z
" transform="scale(0.015625)"/>
       <path id="DejaVuSans-72" d="M 2631 2963 
Q 2534 3019 2420 3045 
Q 2306 3072 2169 3072 
Q 1681 3072 1420 2755 
Q 1159 2438 1159 1844 
L 1159 0 
L 581 0 
L 581 3500 
L 1159 3500 
L 1159 2956 
Q 1341 3275 1631 3429 
Q 1922 3584 2338 3584 
Q 2397 3584 2469 3576 
Q 2541 3569 2628 3553 
L 2631 2963 
z
" transform="scale(0.015625)"/>
       <path id="DejaVuSans-6f" d="M 1959 3097 
Q 1497 3097 1228 2736 
Q 959 2375 959 1747 
Q 959 1119 1226 758 
Q 1494 397 1959 397 
Q 2419 397 2687 759 
Q 2956 1122 2956 1747 
Q 2956 2369 2687 2733 
Q 2419 3097 1959 3097 
z
M 1959 3584 
Q 2709 3584 3137 3096 
Q 3566 2609 3566 1747 
Q 3566 888 3137 398 
Q 2709 -91 1959 -91 
Q 1206 -91 779 398 
Q 353 888 353 1747 
Q 353 2609 779 3096 
Q 1206 3584 1959 3584 
z
" transform="scale(0.015625)"/>
       <path id="DejaVuSans-70" d="M 1159 525 
L 1159 -1331 
L 581 -1331 
L 581 3500 
L 1159 3500 
L 1159 2969 
Q 1341 3281 1617 3432 
Q 1894 3584 2278 3584 
Q 2916 3584 3314 3078 
Q 3713 2572 3713 1747 
Q 3713 922 3314 415 
Q 2916 -91 2278 -91 
Q 1894 -91 1617 61 
Q 1341 213 1159 525 
z
M 3116 1747 
Q 3116 2381 2855 2742 
Q 2594 3103 2138 3103 
Q 1681 3103 1420 2742 
Q 1159 2381 1159 1747 
Q 1159 1113 1420 752 
Q 1681 391 2138 391 
Q 2594 391 2855 752 
Q 3116 1113 3116 1747 
z
" transform="scale(0.015625)"/>
       <path id="DejaVuSans-61" d="M 2194 1759 
Q 1497 1759 1228 1600 
Q 959 1441 959 1056 
Q 959 750 1161 570 
Q 1363 391 1709 391 
Q 2188 391 2477 730 
Q 2766 1069 2766 1631 
L 2766 1759 
L 2194 1759 
z
M 3341 1997 
L 3341 0 
L 2766 0 
L 2766 531 
Q 2569 213 2275 61 
Q 1981 -91 1556 -91 
Q 1019 -91 701 211 
Q 384 513 384 1019 
Q 384 1609 779 1909 
Q 1175 2209 1959 2209 
L 2766 2209 
L 2766 2266 
Q 2766 2663 2505 2880 
Q 2244 3097 1772 3097 
Q 1472 3097 1187 3025 
Q 903 2953 641 2809 
L 641 3341 
Q 956 3463 1253 3523 
Q 1550 3584 1831 3584 
Q 2591 3584 2966 3190 
Q 3341 2797 3341 1997 
z
" transform="scale(0.015625)"/>
       <path id="DejaVuSans-67" d="M 2906 1791 
Q 2906 2416 2648 2759 
Q 2391 3103 1925 3103 
Q 1463 3103 1205 2759 
Q 947 2416 947 1791 
Q 947 1169 1205 825 
Q 1463 481 1925 481 
Q 2391 481 2648 825 
Q 2906 1169 2906 1791 
z
M 3481 434 
Q 3481 -459 3084 -895 
Q 2688 -1331 1869 -1331 
Q 1566 -1331 1297 -1286 
Q 1028 -1241 775 -1147 
L 775 -588 
Q 1028 -725 1275 -790 
Q 1522 -856 1778 -856 
Q 2344 -856 2625 -561 
Q 2906 -266 2906 331 
L 2906 616 
Q 2728 306 2450 153 
Q 2172 0 1784 0 
Q 1141 0 747 490 
Q 353 981 353 1791 
Q 353 2603 747 3093 
Q 1141 3584 1784 3584 
Q 2172 3584 2450 3431 
Q 2728 3278 2906 2969 
L 2906 3500 
L 3481 3500 
L 3481 434 
z
" transform="scale(0.015625)"/>
       <path id="DejaVuSans-74" d="M 1172 4494 
L 1172 3500 
L 2356 3500 
L 2356 3053 
L 1172 3053 
L 1172 1153 
Q 1172 725 1289 603 
Q 1406 481 1766 481 
L 2356 481 
L 2356 0 
L 1766 0 
Q 1100 0 847 248 
Q 594 497 594 1153 
L 594 3053 
L 172 3053 
L 172 3500 
L 594 3500 
L 594 4494 
L 1172 4494 
z
" transform="scale(0.015625)"/>
       <path id="DejaVuSans-69" d="M 603 3500 
L 1178 3500 
L 1178 0 
L 603 0 
L 603 3500 
z
M 603 4863 
L 1178 4863 
L 1178 4134 
L 603 4134 
L 603 4863 
z
" transform="scale(0.015625)"/>
       <path id="DejaVuSans-6e" d="M 3513 2113 
L 3513 0 
L 2938 0 
L 2938 2094 
Q 2938 2591 2744 2837 
Q 2550 3084 2163 3084 
Q 1697 3084 1428 2787 
Q 1159 2491 1159 1978 
L 1159 0 
L 581 0 
L 581 3500 
L 1159 3500 
L 1159 2956 
Q 1366 3272 1645 3428 
Q 1925 3584 2291 3584 
Q 2894 3584 3203 3211 
Q 3513 2838 3513 2113 
z
" transform="scale(0.015625)"/>
       <path id="DejaVuSans-20" transform="scale(0.015625)"/>
       <path id="DejaVuSans-64" d="M 2906 2969 
L 2906 4863 
L 3481 4863 
L 3481 0 
L 2906 0 
L 2906 525 
Q 2725 213 2448 61 
Q 2172 -91 1784 -91 
Q 1150 -91 751 415 
Q 353 922 353 1747 
Q 353 2572 751 3078 
Q 1150 3584 1784 3584 
Q 2172 3584 2448 3432 
Q 2725 3281 2906 2969 
z
M 947 1747 
Q 947 1113 1208 752 
Q 1469 391 1925 391 
Q 2381 391 2643 752 
Q 2906 1113 2906 1747 
Q 2906 2381 2643 2742 
Q 2381 3103 1925 3103 
Q 1469 3103 1208 2742 
Q 947 2381 947 1747 
z
" transform="scale(0.015625)"/>
       <path id="DejaVuSans-65" d="M 3597 1894 
L 3597 1613 
L 953 1613 
Q 991 1019 1311 708 
Q 1631 397 2203 397 
Q 2534 397 2845 478 
Q 3156 559 3463 722 
L 3463 178 
Q 3153 47 2828 -22 
Q 2503 -91 2169 -91 
Q 1331 -91 842 396 
Q 353 884 353 1716 
Q 353 2575 817 3079 
Q 1281 3584 2069 3584 
Q 2775 3584 3186 3129 
Q 3597 2675 3597 1894 
z
M 3022 2063 
Q 3016 2534 2758 2815 
Q 2500 3097 2075 3097 
Q 1594 3097 1305 2825 
Q 1016 2553 972 2059 
L 3022 2063 
z
" transform="scale(0.015625)"/>
       <path id="DejaVuSans-63" d="M 3122 3366 
L 3122 2828 
Q 2878 2963 2633 3030 
Q 2388 3097 2138 3097 
Q 1578 3097 1268 2742 
Q 959 2388 959 1747 
Q 959 1106 1268 751 
Q 1578 397 2138 397 
Q 2388 397 2633 464 
Q 2878 531 3122 666 
L 3122 134 
Q 2881 22 2623 -34 
Q 2366 -91 2075 -91 
Q 1284 -91 818 406 
Q 353 903 353 1747 
Q 353 2603 823 3093 
Q 1294 3584 2113 3584 
Q 2378 3584 2631 3529 
Q 2884 3475 3122 3366 
z
" transform="scale(0.015625)"/>
      </defs>
      <use xlink:href="#DejaVuSans-50"/>
      <use xlink:href="#DejaVuSans-72" x="58.552734"/>
      <use xlink:href="#DejaVuSans-6f" x="97.416016"/>
      <use xlink:href="#DejaVuSans-70" x="158.597656"/>
      <use xlink:href="#DejaVuSans-61" x="222.074219"/>
      <use xlink:href="#DejaVuSans-67" x="283.353516"/>
      <use xlink:href="#DejaVuSans-61" x="346.830078"/>
      <use xlink:href="#DejaVuSans-74" x="408.109375"/>
      <use xlink:href="#DejaVuSans-69" x="447.318359"/>
      <use xlink:href="#DejaVuSans-6f" x="475.101562"/>
      <use xlink:href="#DejaVuSans-6e" x="536.283203"/>
      <use xlink:href="#DejaVuSans-20" x="599.662109"/>
      <use xlink:href="#DejaVuSans-64" x="631.449219"/>
      <use xlink:href="#DejaVuSans-69" x="694.925781"/>
      <use xlink:href="#DejaVuSans-72" x="722.708984"/>
      <use xlink:href="#DejaVuSans-65" x="761.572266"/>
      <use xlink:href="#DejaVuSans-63" x="823.095703"/>
      <use xlink:href="#DejaVuSans-74" x="878.076172"/>
      <use xlink:href="#DejaVuSans-69" x="917.285156"/>
      <use xlink:href="#DejaVuSans-6f" x="945.068359"/>
      <use xlink:href="#DejaVuSans-6e" x="1006.25"/>
     </g>
    </g>
   </g>
   <g id="matplotlib.axis_2">
    <g id="ytick_1">
     <g id="line2d_7">
      <defs>
       <path id="ma49b10ede3" d="M 0 0 
L -3.5 0 
" style="stroke: #000000; stroke-width: 0.8"/>
      </defs>
      <g>
       <use xlink:href="#ma49b10ede3" x="50.14375" y="273.312" style="stroke: #000000; stroke-width: 0.8"/>
      </g>
     </g>
     <g id="text_8">
      <!-- 0.00 -->
      <g transform="translate(20.878125 277.111219)scale(0.1 -0.1)">
       <use xlink:href="#DejaVuSans-30"/>
       <use xlink:href="#DejaVuSans-2e" x="63.623047"/>
       <use xlink:href="#DejaVuSans-30" x="95.410156"/>
       <use xlink:href="#DejaVuSans-30" x="159.033203"/>
      </g>
     </g>
    </g>
    <g id="ytick_2">
     <g id="line2d_8">
      <g>
       <use xlink:href="#ma49b10ede3" x="50.14375" y="243.497684" style="stroke: #000000; stroke-width: 0.8"/>
      </g>
     </g>
     <g id="text_9">
      <!-- 0.25 -->
      <g transform="translate(20.878125 247.296902)scale(0.1 -0.1)">
       <defs>
        <path id="DejaVuSans-35" d="M 691 4666 
L 3169 4666 
L 3169 4134 
L 1269 4134 
L 1269 2991 
Q 1406 3038 1543 3061 
Q 1681 3084 1819 3084 
Q 2600 3084 3056 2656 
Q 3513 2228 3513 1497 
Q 3513 744 3044 326 
Q 2575 -91 1722 -91 
Q 1428 -91 1123 -41 
Q 819 9 494 109 
L 494 744 
Q 775 591 1075 516 
Q 1375 441 1709 441 
Q 2250 441 2565 725 
Q 2881 1009 2881 1497 
Q 2881 1984 2565 2268 
Q 2250 2553 1709 2553 
Q 1456 2553 1204 2497 
Q 953 2441 691 2322 
L 691 4666 
z
" transform="scale(0.015625)"/>
       </defs>
       <use xlink:href="#DejaVuSans-30"/>
       <use xlink:href="#DejaVuSans-2e" x="63.623047"/>
       <use xlink:href="#DejaVuSans-32" x="95.410156"/>
       <use xlink:href="#DejaVuSans-35" x="159.033203"/>
      </g>
     </g>
    </g>
    <g id="ytick_3">
     <g id="line2d_9">
      <g>
       <use xlink:href="#ma49b10ede3" x="50.14375" y="213.683367" style="stroke: #000000; stroke-width: 0.8"/>
      </g>
     </g>
     <g id="text_10">
      <!-- 0.50 -->
      <g transform="translate(20.878125 217.482586)scale(0.1 -0.1)">
       <use xlink:href="#DejaVuSans-30"/>
       <use xlink:href="#DejaVuSans-2e" x="63.623047"/>
       <use xlink:href="#DejaVuSans-35" x="95.410156"/>
       <use xlink:href="#DejaVuSans-30" x="159.033203"/>
      </g>
     </g>
    </g>
    <g id="ytick_4">
     <g id="line2d_10">
      <g>
       <use xlink:href="#ma49b10ede3" x="50.14375" y="183.869051" style="stroke: #000000; stroke-width: 0.8"/>
      </g>
     </g>
     <g id="text_11">
      <!-- 0.75 -->
      <g transform="translate(20.878125 187.66827)scale(0.1 -0.1)">
       <defs>
        <path id="DejaVuSans-37" d="M 525 4666 
L 3525 4666 
L 3525 4397 
L 1831 0 
L 1172 0 
L 2766 4134 
L 525 4134 
L 525 4666 
z
" transform="scale(0.015625)"/>
       </defs>
       <use xlink:href="#DejaVuSans-30"/>
       <use xlink:href="#DejaVuSans-2e" x="63.623047"/>
       <use xlink:href="#DejaVuSans-37" x="95.410156"/>
       <use xlink:href="#DejaVuSans-35" x="159.033203"/>
      </g>
     </g>
    </g>
    <g id="ytick_5">
     <g id="line2d_11">
      <g>
       <use xlink:href="#ma49b10ede3" x="50.14375" y="154.054735" style="stroke: #000000; stroke-width: 0.8"/>
      </g>
     </g>
     <g id="text_12">
      <!-- 1.00 -->
      <g transform="translate(20.878125 157.853954)scale(0.1 -0.1)">
       <use xlink:href="#DejaVuSans-31"/>
       <use xlink:href="#DejaVuSans-2e" x="63.623047"/>
       <use xlink:href="#DejaVuSans-30" x="95.410156"/>
       <use xlink:href="#DejaVuSans-30" x="159.033203"/>
      </g>
     </g>
    </g>
    <g id="ytick_6">
     <g id="line2d_12">
      <g>
       <use xlink:href="#ma49b10ede3" x="50.14375" y="124.240419" style="stroke: #000000; stroke-width: 0.8"/>
      </g>
     </g>
     <g id="text_13">
      <!-- 1.25 -->
      <g transform="translate(20.878125 128.039637)scale(0.1 -0.1)">
       <use xlink:href="#DejaVuSans-31"/>
       <use xlink:href="#DejaVuSans-2e" x="63.623047"/>
       <use xlink:href="#DejaVuSans-32" x="95.410156"/>
       <use xlink:href="#DejaVuSans-35" x="159.033203"/>
      </g>
     </g>
    </g>
    <g id="ytick_7">
     <g id="line2d_13">
      <g>
       <use xlink:href="#ma49b10ede3" x="50.14375" y="94.426102" style="stroke: #000000; stroke-width: 0.8"/>
      </g>
     </g>
     <g id="text_14">
      <!-- 1.50 -->
      <g transform="translate(20.878125 98.225321)scale(0.1 -0.1)">
       <use xlink:href="#DejaVuSans-31"/>
       <use xlink:href="#DejaVuSans-2e" x="63.623047"/>
       <use xlink:href="#DejaVuSans-35" x="95.410156"/>
       <use xlink:href="#DejaVuSans-30" x="159.033203"/>
      </g>
     </g>
    </g>
    <g id="ytick_8">
     <g id="line2d_14">
      <g>
       <use xlink:href="#ma49b10ede3" x="50.14375" y="64.611786" style="stroke: #000000; stroke-width: 0.8"/>
      </g>
     </g>
     <g id="text_15">
      <!-- 1.75 -->
      <g transform="translate(20.878125 68.411005)scale(0.1 -0.1)">
       <use xlink:href="#DejaVuSans-31"/>
       <use xlink:href="#DejaVuSans-2e" x="63.623047"/>
       <use xlink:href="#DejaVuSans-37" x="95.410156"/>
       <use xlink:href="#DejaVuSans-35" x="159.033203"/>
      </g>
     </g>
    </g>
    <g id="ytick_9">
     <g id="line2d_15">
      <g>
       <use xlink:href="#ma49b10ede3" x="50.14375" y="34.79747" style="stroke: #000000; stroke-width: 0.8"/>
      </g>
     </g>
     <g id="text_16">
      <!-- 2.00 -->
      <g transform="translate(20.878125 38.596688)scale(0.1 -0.1)">
       <use xlink:href="#DejaVuSans-32"/>
       <use xlink:href="#DejaVuSans-2e" x="63.623047"/>
       <use xlink:href="#DejaVuSans-30" x="95.410156"/>
       <use xlink:href="#DejaVuSans-30" x="159.033203"/>
      </g>
     </g>
    </g>
    <g id="text_17">
     <!-- Probability density -->
     <g transform="translate(14.798438 186.606781)rotate(-90)scale(0.1 -0.1)">
      <defs>
       <path id="DejaVuSans-62" d="M 3116 1747 
Q 3116 2381 2855 2742 
Q 2594 3103 2138 3103 
Q 1681 3103 1420 2742 
Q 1159 2381 1159 1747 
Q 1159 1113 1420 752 
Q 1681 391 2138 391 
Q 2594 391 2855 752 
Q 3116 1113 3116 1747 
z
M 1159 2969 
Q 1341 3281 1617 3432 
Q 1894 3584 2278 3584 
Q 2916 3584 3314 3078 
Q 3713 2572 3713 1747 
Q 3713 922 3314 415 
Q 2916 -91 2278 -91 
Q 1894 -91 1617 61 
Q 1341 213 1159 525 
L 1159 0 
L 581 0 
L 581 4863 
L 1159 4863 
L 1159 2969 
z
" transform="scale(0.015625)"/>
       <path id="DejaVuSans-6c" d="M 603 4863 
L 1178 4863 
L 1178 0 
L 603 0 
L 603 4863 
z
" transform="scale(0.015625)"/>
       <path id="DejaVuSans-79" d="M 2059 -325 
Q 1816 -950 1584 -1140 
Q 1353 -1331 966 -1331 
L 506 -1331 
L 506 -850 
L 844 -850 
Q 1081 -850 1212 -737 
Q 1344 -625 1503 -206 
L 1606 56 
L 191 3500 
L 800 3500 
L 1894 763 
L 2988 3500 
L 3597 3500 
L 2059 -325 
z
" transform="scale(0.015625)"/>
       <path id="DejaVuSans-73" d="M 2834 3397 
L 2834 2853 
Q 2591 2978 2328 3040 
Q 2066 3103 1784 3103 
Q 1356 3103 1142 2972 
Q 928 2841 928 2578 
Q 928 2378 1081 2264 
Q 1234 2150 1697 2047 
L 1894 2003 
Q 2506 1872 2764 1633 
Q 3022 1394 3022 966 
Q 3022 478 2636 193 
Q 2250 -91 1575 -91 
Q 1294 -91 989 -36 
Q 684 19 347 128 
L 347 722 
Q 666 556 975 473 
Q 1284 391 1588 391 
Q 1994 391 2212 530 
Q 2431 669 2431 922 
Q 2431 1156 2273 1281 
Q 2116 1406 1581 1522 
L 1381 1569 
Q 847 1681 609 1914 
Q 372 2147 372 2553 
Q 372 3047 722 3315 
Q 1072 3584 1716 3584 
Q 2034 3584 2315 3537 
Q 2597 3491 2834 3397 
z
" transform="scale(0.015625)"/>
      </defs>
      <use xlink:href="#DejaVuSans-50"/>
      <use xlink:href="#DejaVuSans-72" x="58.552734"/>
      <use xlink:href="#DejaVuSans-6f" x="97.416016"/>
      <use xlink:href="#DejaVuSans-62" x="158.597656"/>
      <use xlink:href="#DejaVuSans-61" x="222.074219"/>
      <use xlink:href="#DejaVuSans-62" x="283.353516"/>
      <use xlink:href="#DejaVuSans-69" x="346.830078"/>
      <use xlink:href="#DejaVuSans-6c" x="374.613281"/>
      <use xlink:href="#DejaVuSans-69" x="402.396484"/>
      <use xlink:href="#DejaVuSans-74" x="430.179688"/>
      <use xlink:href="#DejaVuSans-79" x="469.388672"/>
      <use xlink:href="#DejaVuSans-20" x="528.568359"/>
      <use xlink:href="#DejaVuSans-64" x="560.355469"/>
      <use xlink:href="#DejaVuSans-65" x="623.832031"/>
      <use xlink:href="#DejaVuSans-6e" x="685.355469"/>
      <use xlink:href="#DejaVuSans-73" x="748.734375"/>
      <use xlink:href="#DejaVuSans-69" x="800.833984"/>
      <use xlink:href="#DejaVuSans-74" x="828.617188"/>
      <use xlink:href="#DejaVuSans-79" x="867.826172"/>
     </g>
    </g>
   </g>
   <g id="line2d_16">
    <path d="M 66.376477 273.312 
L 391.031023 34.79747 
L 391.031023 34.79747 
" clip-path="url(#p52d62c2a35)" style="fill: none; stroke: #ff7f0e; stroke-width: 1.5; stroke-linecap: square"/>
   </g>
   <g id="patch_203">
    <path d="M 50.14375 273.312 
L 50.14375 7.2 
" style="fill: none; stroke: #000000; stroke-width: 0.8; stroke-linejoin: miter; stroke-linecap: square"/>
   </g>
   <g id="patch_204">
    <path d="M 407.26375 273.312 
L 407.26375 7.2 
" style="fill: none; stroke: #000000; stroke-width: 0.8; stroke-linejoin: miter; stroke-linecap: square"/>
   </g>
   <g id="patch_205">
    <path d="M 50.14375 273.312 
L 407.26375 273.312 
" style="fill: none; stroke: #000000; stroke-width: 0.8; stroke-linejoin: miter; stroke-linecap: square"/>
   </g>
   <g id="patch_206">
    <path d="M 50.14375 7.2 
L 407.26375 7.2 
" style="fill: none; stroke: #000000; stroke-width: 0.8; stroke-linejoin: miter; stroke-linecap: square"/>
   </g>
  </g>
 </g>
 <defs>
  <clipPath id="p52d62c2a35">
   <rect x="50.14375" y="7.2" width="357.12" height="266.112"/>
  </clipPath>
 </defs>
</svg>
