<?xml version="1.0" encoding="utf-8" standalone="no"?>
<!DOCTYPE svg PUBLIC "-//W3C//DTD SVG 1.1//EN"
  "http://www.w3.org/Graphics/SVG/1.1/DTD/svg11.dtd">
<svg xmlns:xlink="http://www.w3.org/1999/xlink" width="385.78125pt" height="262.19625pt" viewBox="0 0 385.78125 262.19625" xmlns="http://www.w3.org/2000/svg" version="1.1">
 <metadata>
  <rdf:RDF xmlns:dc="http://purl.org/dc/elements/1.1/" xmlns:cc="http://creativecommons.org/ns#" xmlns:rdf="http://www.w3.org/1999/02/22-rdf-syntax-ns#">
   <cc:Work>
    <dc:type rdf:resource="http://purl.org/dc/dcmitype/StillImage"/>
    <dc:date>2022-10-25T19:46:07.762885</dc:date>
    <dc:format>image/svg+xml</dc:format>
    <dc:creator>
     <cc:Agent>
      <dc:title>Matplotlib v3.5.2, https://matplotlib.org/</dc:title>
     </cc:Agent>
    </dc:creator>
   </cc:Work>
  </rdf:RDF>
 </metadata>
 <defs>
  <style type="text/css">*{stroke-linejoin: round; stroke-linecap: butt}</style>
 </defs>
 <g id="figure_1">
  <g id="patch_1">
   <path d="M 0 262.19625 
L 385.78125 262.19625 
L 385.78125 0 
L 0 0 
L 0 262.19625 
z
" style="fill: none"/>
  </g>
  <g id="axes_1">
   <g id="patch_2">
    <path d="M 43.78125 224.64 
L 378.58125 224.64 
L 378.58125 7.2 
L 43.78125 7.2 
z
" style="fill: #ffffff"/>
   </g>
   <g id="patch_3">
    <path d="M 59.218783 224.64 
L 60.733052 224.64 
L 60.733052 220.450405 
L 59.218783 220.450405 
z
" clip-path="url(#pa79f561108)" style="fill: #1f77b4"/>
   </g>
   <g id="patch_4">
    <path d="M 60.733052 224.64 
L 62.247322 224.64 
L 62.247322 219.851891 
L 60.733052 219.851891 
z
" clip-path="url(#pa79f561108)" style="fill: #1f77b4"/>
   </g>
   <g id="patch_5">
    <path d="M 62.247322 224.64 
L 63.761591 224.64 
L 63.761591 215.662296 
L 62.247322 215.662296 
z
" clip-path="url(#pa79f561108)" style="fill: #1f77b4"/>
   </g>
   <g id="patch_6">
    <path d="M 63.761591 224.64 
L 65.275861 224.64 
L 65.275861 211.4727 
L 63.761591 211.4727 
z
" clip-path="url(#pa79f561108)" style="fill: #1f77b4"/>
   </g>
   <g id="patch_7">
    <path d="M 65.275861 224.64 
L 66.79013 224.64 
L 66.79013 209.677159 
L 65.275861 209.677159 
z
" clip-path="url(#pa79f561108)" style="fill: #1f77b4"/>
   </g>
   <g id="patch_8">
    <path d="M 66.79013 224.64 
L 68.3044 224.64 
L 68.3044 212.669727 
L 66.79013 212.669727 
z
" clip-path="url(#pa79f561108)" style="fill: #1f77b4"/>
   </g>
   <g id="patch_9">
    <path d="M 68.3044 224.64 
L 69.818669 224.64 
L 69.818669 202.494996 
L 68.3044 202.494996 
z
" clip-path="url(#pa79f561108)" style="fill: #1f77b4"/>
   </g>
   <g id="patch_10">
    <path d="M 69.818669 224.64 
L 71.332939 224.64 
L 71.332939 200.699455 
L 69.818669 200.699455 
z
" clip-path="url(#pa79f561108)" style="fill: #1f77b4"/>
   </g>
   <g id="patch_11">
    <path d="M 71.332939 224.64 
L 72.847208 224.64 
L 72.847208 193.517291 
L 71.332939 193.517291 
z
" clip-path="url(#pa79f561108)" style="fill: #1f77b4"/>
   </g>
   <g id="patch_12">
    <path d="M 72.847208 224.64 
L 74.361478 224.64 
L 74.361478 199.502428 
L 72.847208 199.502428 
z
" clip-path="url(#pa79f561108)" style="fill: #1f77b4"/>
   </g>
   <g id="patch_13">
    <path d="M 74.361478 224.64 
L 75.875747 224.64 
L 75.875747 196.50986 
L 74.361478 196.50986 
z
" clip-path="url(#pa79f561108)" style="fill: #1f77b4"/>
   </g>
   <g id="patch_14">
    <path d="M 75.875747 224.64 
L 77.390017 224.64 
L 77.390017 192.320264 
L 75.875747 192.320264 
z
" clip-path="url(#pa79f561108)" style="fill: #1f77b4"/>
   </g>
   <g id="patch_15">
    <path d="M 77.390017 224.64 
L 78.904286 224.64 
L 78.904286 185.138101 
L 77.390017 185.138101 
z
" clip-path="url(#pa79f561108)" style="fill: #1f77b4"/>
   </g>
   <g id="patch_16">
    <path d="M 78.904286 224.64 
L 80.418556 224.64 
L 80.418556 186.933642 
L 78.904286 186.933642 
z
" clip-path="url(#pa79f561108)" style="fill: #1f77b4"/>
   </g>
   <g id="patch_17">
    <path d="M 80.418556 224.64 
L 81.932825 224.64 
L 81.932825 176.75891 
L 80.418556 176.75891 
z
" clip-path="url(#pa79f561108)" style="fill: #1f77b4"/>
   </g>
   <g id="patch_18">
    <path d="M 81.932825 224.64 
L 83.447095 224.64 
L 83.447095 180.349992 
L 81.932825 180.349992 
z
" clip-path="url(#pa79f561108)" style="fill: #1f77b4"/>
   </g>
   <g id="patch_19">
    <path d="M 83.447095 224.64 
L 84.961364 224.64 
L 84.961364 182.145533 
L 83.447095 182.145533 
z
" clip-path="url(#pa79f561108)" style="fill: #1f77b4"/>
   </g>
   <g id="patch_20">
    <path d="M 84.961364 224.64 
L 86.475634 224.64 
L 86.475634 168.379719 
L 84.961364 168.379719 
z
" clip-path="url(#pa79f561108)" style="fill: #1f77b4"/>
   </g>
   <g id="patch_21">
    <path d="M 86.475634 224.64 
L 87.989903 224.64 
L 87.989903 160.599042 
L 86.475634 160.599042 
z
" clip-path="url(#pa79f561108)" style="fill: #1f77b4"/>
   </g>
   <g id="patch_22">
    <path d="M 87.989903 224.64 
L 89.504173 224.64 
L 89.504173 178.554451 
L 87.989903 178.554451 
z
" clip-path="url(#pa79f561108)" style="fill: #1f77b4"/>
   </g>
   <g id="patch_23">
    <path d="M 89.504173 224.64 
L 91.018442 224.64 
L 91.018442 160.000528 
L 89.504173 160.000528 
z
" clip-path="url(#pa79f561108)" style="fill: #1f77b4"/>
   </g>
   <g id="patch_24">
    <path d="M 91.018442 224.64 
L 92.532712 224.64 
L 92.532712 159.402015 
L 91.018442 159.402015 
z
" clip-path="url(#pa79f561108)" style="fill: #1f77b4"/>
   </g>
   <g id="patch_25">
    <path d="M 92.532712 224.64 
L 94.046981 224.64 
L 94.046981 156.409447 
L 92.532712 156.409447 
z
" clip-path="url(#pa79f561108)" style="fill: #1f77b4"/>
   </g>
   <g id="patch_26">
    <path d="M 94.046981 224.64 
L 95.561251 224.64 
L 95.561251 157.00796 
L 94.046981 157.00796 
z
" clip-path="url(#pa79f561108)" style="fill: #1f77b4"/>
   </g>
   <g id="patch_27">
    <path d="M 95.561251 224.64 
L 97.07552 224.64 
L 97.07552 166.584178 
L 95.561251 166.584178 
z
" clip-path="url(#pa79f561108)" style="fill: #1f77b4"/>
   </g>
   <g id="patch_28">
    <path d="M 97.07552 224.64 
L 98.58979 224.64 
L 98.58979 147.431742 
L 97.07552 147.431742 
z
" clip-path="url(#pa79f561108)" style="fill: #1f77b4"/>
   </g>
   <g id="patch_29">
    <path d="M 98.58979 224.64 
L 100.104059 224.64 
L 100.104059 146.234715 
L 98.58979 146.234715 
z
" clip-path="url(#pa79f561108)" style="fill: #1f77b4"/>
   </g>
   <g id="patch_30">
    <path d="M 100.104059 224.64 
L 101.618329 224.64 
L 101.618329 147.431742 
L 100.104059 147.431742 
z
" clip-path="url(#pa79f561108)" style="fill: #1f77b4"/>
   </g>
   <g id="patch_31">
    <path d="M 101.618329 224.64 
L 103.132598 224.64 
L 103.132598 143.840661 
L 101.618329 143.840661 
z
" clip-path="url(#pa79f561108)" style="fill: #1f77b4"/>
   </g>
   <g id="patch_32">
    <path d="M 103.132598 224.64 
L 104.646868 224.64 
L 104.646868 141.446606 
L 103.132598 141.446606 
z
" clip-path="url(#pa79f561108)" style="fill: #1f77b4"/>
   </g>
   <g id="patch_33">
    <path d="M 104.646868 224.64 
L 106.161137 224.64 
L 106.161137 142.643633 
L 104.646868 142.643633 
z
" clip-path="url(#pa79f561108)" style="fill: #1f77b4"/>
   </g>
   <g id="patch_34">
    <path d="M 106.161137 224.64 
L 107.675407 224.64 
L 107.675407 133.665929 
L 106.161137 133.665929 
z
" clip-path="url(#pa79f561108)" style="fill: #1f77b4"/>
   </g>
   <g id="patch_35">
    <path d="M 107.675407 224.64 
L 109.189676 224.64 
L 109.189676 128.279306 
L 107.675407 128.279306 
z
" clip-path="url(#pa79f561108)" style="fill: #1f77b4"/>
   </g>
   <g id="patch_36">
    <path d="M 109.189676 224.64 
L 110.703946 224.64 
L 110.703946 119.301602 
L 109.189676 119.301602 
z
" clip-path="url(#pa79f561108)" style="fill: #1f77b4"/>
   </g>
   <g id="patch_37">
    <path d="M 110.703946 224.64 
L 112.218215 224.64 
L 112.218215 128.279306 
L 110.703946 128.279306 
z
" clip-path="url(#pa79f561108)" style="fill: #1f77b4"/>
   </g>
   <g id="patch_38">
    <path d="M 112.218215 224.64 
L 113.732485 224.64 
L 113.732485 120.498629 
L 112.218215 120.498629 
z
" clip-path="url(#pa79f561108)" style="fill: #1f77b4"/>
   </g>
   <g id="patch_39">
    <path d="M 113.732485 224.64 
L 115.246754 224.64 
L 115.246754 133.067415 
L 113.732485 133.067415 
z
" clip-path="url(#pa79f561108)" style="fill: #1f77b4"/>
   </g>
   <g id="patch_40">
    <path d="M 115.246754 224.64 
L 116.761024 224.64 
L 116.761024 113.914979 
L 115.246754 113.914979 
z
" clip-path="url(#pa79f561108)" style="fill: #1f77b4"/>
   </g>
   <g id="patch_41">
    <path d="M 116.761024 224.64 
L 118.275293 224.64 
L 118.275293 125.885252 
L 116.761024 125.885252 
z
" clip-path="url(#pa79f561108)" style="fill: #1f77b4"/>
   </g>
   <g id="patch_42">
    <path d="M 118.275293 224.64 
L 119.789563 224.64 
L 119.789563 121.097143 
L 118.275293 121.097143 
z
" clip-path="url(#pa79f561108)" style="fill: #1f77b4"/>
   </g>
   <g id="patch_43">
    <path d="M 119.789563 224.64 
L 121.303832 224.64 
L 121.303832 113.316466 
L 119.789563 113.316466 
z
" clip-path="url(#pa79f561108)" style="fill: #1f77b4"/>
   </g>
   <g id="patch_44">
    <path d="M 121.303832 224.64 
L 122.818102 224.64 
L 122.818102 107.929843 
L 121.303832 107.929843 
z
" clip-path="url(#pa79f561108)" style="fill: #1f77b4"/>
   </g>
   <g id="patch_45">
    <path d="M 122.818102 224.64 
L 124.332372 224.64 
L 124.332372 98.952139 
L 122.818102 98.952139 
z
" clip-path="url(#pa79f561108)" style="fill: #1f77b4"/>
   </g>
   <g id="patch_46">
    <path d="M 124.332372 224.64 
L 125.846641 224.64 
L 125.846641 102.54322 
L 124.332372 102.54322 
z
" clip-path="url(#pa79f561108)" style="fill: #1f77b4"/>
   </g>
   <g id="patch_47">
    <path d="M 125.846641 224.64 
L 127.360911 224.64 
L 127.360911 91.769975 
L 125.846641 91.769975 
z
" clip-path="url(#pa79f561108)" style="fill: #1f77b4"/>
   </g>
   <g id="patch_48">
    <path d="M 127.360911 224.64 
L 128.87518 224.64 
L 128.87518 104.937275 
L 127.360911 104.937275 
z
" clip-path="url(#pa79f561108)" style="fill: #1f77b4"/>
   </g>
   <g id="patch_49">
    <path d="M 128.87518 224.64 
L 130.38945 224.64 
L 130.38945 105.535789 
L 128.87518 105.535789 
z
" clip-path="url(#pa79f561108)" style="fill: #1f77b4"/>
   </g>
   <g id="patch_50">
    <path d="M 130.38945 224.64 
L 131.903719 224.64 
L 131.903719 98.952139 
L 130.38945 98.952139 
z
" clip-path="url(#pa79f561108)" style="fill: #1f77b4"/>
   </g>
   <g id="patch_51">
    <path d="M 131.903719 224.64 
L 133.417989 224.64 
L 133.417989 88.777407 
L 131.903719 88.777407 
z
" clip-path="url(#pa79f561108)" style="fill: #1f77b4"/>
   </g>
   <g id="patch_52">
    <path d="M 133.417989 224.64 
L 134.932258 224.64 
L 134.932258 95.361057 
L 133.417989 95.361057 
z
" clip-path="url(#pa79f561108)" style="fill: #1f77b4"/>
   </g>
   <g id="patch_53">
    <path d="M 134.932258 224.64 
L 136.446528 224.64 
L 136.446528 82.193757 
L 134.932258 82.193757 
z
" clip-path="url(#pa79f561108)" style="fill: #1f77b4"/>
   </g>
   <g id="patch_54">
    <path d="M 136.446528 224.64 
L 137.960797 224.64 
L 137.960797 83.989298 
L 136.446528 83.989298 
z
" clip-path="url(#pa79f561108)" style="fill: #1f77b4"/>
   </g>
   <g id="patch_55">
    <path d="M 137.960797 224.64 
L 139.475067 224.64 
L 139.475067 84.587812 
L 137.960797 84.587812 
z
" clip-path="url(#pa79f561108)" style="fill: #1f77b4"/>
   </g>
   <g id="patch_56">
    <path d="M 139.475067 224.64 
L 140.989336 224.64 
L 140.989336 80.99673 
L 139.475067 80.99673 
z
" clip-path="url(#pa79f561108)" style="fill: #1f77b4"/>
   </g>
   <g id="patch_57">
    <path d="M 140.989336 224.64 
L 142.503606 224.64 
L 142.503606 88.777407 
L 140.989336 88.777407 
z
" clip-path="url(#pa79f561108)" style="fill: #1f77b4"/>
   </g>
   <g id="patch_58">
    <path d="M 142.503606 224.64 
L 144.017875 224.64 
L 144.017875 75.610107 
L 142.503606 75.610107 
z
" clip-path="url(#pa79f561108)" style="fill: #1f77b4"/>
   </g>
   <g id="patch_59">
    <path d="M 144.017875 224.64 
L 145.532145 224.64 
L 145.532145 82.193757 
L 144.017875 82.193757 
z
" clip-path="url(#pa79f561108)" style="fill: #1f77b4"/>
   </g>
   <g id="patch_60">
    <path d="M 145.532145 224.64 
L 147.046414 224.64 
L 147.046414 84.587812 
L 145.532145 84.587812 
z
" clip-path="url(#pa79f561108)" style="fill: #1f77b4"/>
   </g>
   <g id="patch_61">
    <path d="M 147.046414 224.64 
L 148.560684 224.64 
L 148.560684 83.390784 
L 147.046414 83.390784 
z
" clip-path="url(#pa79f561108)" style="fill: #1f77b4"/>
   </g>
   <g id="patch_62">
    <path d="M 148.560684 224.64 
L 150.074953 224.64 
L 150.074953 66.033889 
L 148.560684 66.033889 
z
" clip-path="url(#pa79f561108)" style="fill: #1f77b4"/>
   </g>
   <g id="patch_63">
    <path d="M 150.074953 224.64 
L 151.589223 224.64 
L 151.589223 84.587812 
L 150.074953 84.587812 
z
" clip-path="url(#pa79f561108)" style="fill: #1f77b4"/>
   </g>
   <g id="patch_64">
    <path d="M 151.589223 224.64 
L 153.103492 224.64 
L 153.103492 75.011594 
L 151.589223 75.011594 
z
" clip-path="url(#pa79f561108)" style="fill: #1f77b4"/>
   </g>
   <g id="patch_65">
    <path d="M 153.103492 224.64 
L 154.617762 224.64 
L 154.617762 76.807135 
L 153.103492 76.807135 
z
" clip-path="url(#pa79f561108)" style="fill: #1f77b4"/>
   </g>
   <g id="patch_66">
    <path d="M 154.617762 224.64 
L 156.132031 224.64 
L 156.132031 72.019026 
L 154.617762 72.019026 
z
" clip-path="url(#pa79f561108)" style="fill: #1f77b4"/>
   </g>
   <g id="patch_67">
    <path d="M 156.132031 224.64 
L 157.646301 224.64 
L 157.646301 86.383353 
L 156.132031 86.383353 
z
" clip-path="url(#pa79f561108)" style="fill: #1f77b4"/>
   </g>
   <g id="patch_68">
    <path d="M 157.646301 224.64 
L 159.16057 224.64 
L 159.16057 72.617539 
L 157.646301 72.617539 
z
" clip-path="url(#pa79f561108)" style="fill: #1f77b4"/>
   </g>
   <g id="patch_69">
    <path d="M 159.16057 224.64 
L 160.67484 224.64 
L 160.67484 57.654699 
L 159.16057 57.654699 
z
" clip-path="url(#pa79f561108)" style="fill: #1f77b4"/>
   </g>
   <g id="patch_70">
    <path d="M 160.67484 224.64 
L 162.189109 224.64 
L 162.189109 70.821998 
L 160.67484 70.821998 
z
" clip-path="url(#pa79f561108)" style="fill: #1f77b4"/>
   </g>
   <g id="patch_71">
    <path d="M 162.189109 224.64 
L 163.703379 224.64 
L 163.703379 46.881453 
L 162.189109 46.881453 
z
" clip-path="url(#pa79f561108)" style="fill: #1f77b4"/>
   </g>
   <g id="patch_72">
    <path d="M 163.703379 224.64 
L 165.217648 224.64 
L 165.217648 54.66213 
L 163.703379 54.66213 
z
" clip-path="url(#pa79f561108)" style="fill: #1f77b4"/>
   </g>
   <g id="patch_73">
    <path d="M 165.217648 224.64 
L 166.731918 224.64 
L 166.731918 45.085912 
L 165.217648 45.085912 
z
" clip-path="url(#pa79f561108)" style="fill: #1f77b4"/>
   </g>
   <g id="patch_74">
    <path d="M 166.731918 224.64 
L 168.246187 224.64 
L 168.246187 53.465103 
L 166.731918 53.465103 
z
" clip-path="url(#pa79f561108)" style="fill: #1f77b4"/>
   </g>
   <g id="patch_75">
    <path d="M 168.246187 224.64 
L 169.760457 224.64 
L 169.760457 51.669562 
L 168.246187 51.669562 
z
" clip-path="url(#pa79f561108)" style="fill: #1f77b4"/>
   </g>
   <g id="patch_76">
    <path d="M 169.760457 224.64 
L 171.274726 224.64 
L 171.274726 52.268076 
L 169.760457 52.268076 
z
" clip-path="url(#pa79f561108)" style="fill: #1f77b4"/>
   </g>
   <g id="patch_77">
    <path d="M 171.274726 224.64 
L 172.788996 224.64 
L 172.788996 52.268076 
L 171.274726 52.268076 
z
" clip-path="url(#pa79f561108)" style="fill: #1f77b4"/>
   </g>
   <g id="patch_78">
    <path d="M 172.788996 224.64 
L 174.303265 224.64 
L 174.303265 54.66213 
L 172.788996 54.66213 
z
" clip-path="url(#pa79f561108)" style="fill: #1f77b4"/>
   </g>
   <g id="patch_79">
    <path d="M 174.303265 224.64 
L 175.817535 224.64 
L 175.817535 46.28294 
L 174.303265 46.28294 
z
" clip-path="url(#pa79f561108)" style="fill: #1f77b4"/>
   </g>
   <g id="patch_80">
    <path d="M 175.817535 224.64 
L 177.331804 224.64 
L 177.331804 60.048753 
L 175.817535 60.048753 
z
" clip-path="url(#pa79f561108)" style="fill: #1f77b4"/>
   </g>
   <g id="patch_81">
    <path d="M 177.331804 224.64 
L 178.846074 224.64 
L 178.846074 49.874021 
L 177.331804 49.874021 
z
" clip-path="url(#pa79f561108)" style="fill: #1f77b4"/>
   </g>
   <g id="patch_82">
    <path d="M 178.846074 224.64 
L 180.360343 224.64 
L 180.360343 49.874021 
L 178.846074 49.874021 
z
" clip-path="url(#pa79f561108)" style="fill: #1f77b4"/>
   </g>
   <g id="patch_83">
    <path d="M 180.360343 224.64 
L 181.874613 224.64 
L 181.874613 52.268076 
L 180.360343 52.268076 
z
" clip-path="url(#pa79f561108)" style="fill: #1f77b4"/>
   </g>
   <g id="patch_84">
    <path d="M 181.874613 224.64 
L 183.388882 224.64 
L 183.388882 50.472535 
L 181.874613 50.472535 
z
" clip-path="url(#pa79f561108)" style="fill: #1f77b4"/>
   </g>
   <g id="patch_85">
    <path d="M 183.388882 224.64 
L 184.903152 224.64 
L 184.903152 46.28294 
L 183.388882 46.28294 
z
" clip-path="url(#pa79f561108)" style="fill: #1f77b4"/>
   </g>
   <g id="patch_86">
    <path d="M 184.903152 224.64 
L 186.417421 224.64 
L 186.417421 66.632403 
L 184.903152 66.632403 
z
" clip-path="url(#pa79f561108)" style="fill: #1f77b4"/>
   </g>
   <g id="patch_87">
    <path d="M 186.417421 224.64 
L 187.931691 224.64 
L 187.931691 40.896317 
L 186.417421 40.896317 
z
" clip-path="url(#pa79f561108)" style="fill: #1f77b4"/>
   </g>
   <g id="patch_88">
    <path d="M 187.931691 224.64 
L 189.44596 224.64 
L 189.44596 24.137936 
L 187.931691 24.137936 
z
" clip-path="url(#pa79f561108)" style="fill: #1f77b4"/>
   </g>
   <g id="patch_89">
    <path d="M 189.44596 224.64 
L 190.96023 224.64 
L 190.96023 39.69929 
L 189.44596 39.69929 
z
" clip-path="url(#pa79f561108)" style="fill: #1f77b4"/>
   </g>
   <g id="patch_90">
    <path d="M 190.96023 224.64 
L 192.474499 224.64 
L 192.474499 38.502263 
L 190.96023 38.502263 
z
" clip-path="url(#pa79f561108)" style="fill: #1f77b4"/>
   </g>
   <g id="patch_91">
    <path d="M 192.474499 224.64 
L 193.988769 224.64 
L 193.988769 43.290372 
L 192.474499 43.290372 
z
" clip-path="url(#pa79f561108)" style="fill: #1f77b4"/>
   </g>
   <g id="patch_92">
    <path d="M 193.988769 224.64 
L 195.503038 224.64 
L 195.503038 42.093344 
L 193.988769 42.093344 
z
" clip-path="url(#pa79f561108)" style="fill: #1f77b4"/>
   </g>
   <g id="patch_93">
    <path d="M 195.503038 224.64 
L 197.017308 224.64 
L 197.017308 52.86659 
L 195.503038 52.86659 
z
" clip-path="url(#pa79f561108)" style="fill: #1f77b4"/>
   </g>
   <g id="patch_94">
    <path d="M 197.017308 224.64 
L 198.531577 224.64 
L 198.531577 35.509694 
L 197.017308 35.509694 
z
" clip-path="url(#pa79f561108)" style="fill: #1f77b4"/>
   </g>
   <g id="patch_95">
    <path d="M 198.531577 224.64 
L 200.045847 224.64 
L 200.045847 27.130504 
L 198.531577 27.130504 
z
" clip-path="url(#pa79f561108)" style="fill: #1f77b4"/>
   </g>
   <g id="patch_96">
    <path d="M 200.045847 224.64 
L 201.560116 224.64 
L 201.560116 33.11564 
L 200.045847 33.11564 
z
" clip-path="url(#pa79f561108)" style="fill: #1f77b4"/>
   </g>
   <g id="patch_97">
    <path d="M 201.560116 224.64 
L 203.074386 224.64 
L 203.074386 44.487399 
L 201.560116 44.487399 
z
" clip-path="url(#pa79f561108)" style="fill: #1f77b4"/>
   </g>
   <g id="patch_98">
    <path d="M 203.074386 224.64 
L 204.588655 224.64 
L 204.588655 43.290372 
L 203.074386 43.290372 
z
" clip-path="url(#pa79f561108)" style="fill: #1f77b4"/>
   </g>
   <g id="patch_99">
    <path d="M 204.588655 224.64 
L 206.102925 224.64 
L 206.102925 42.093344 
L 204.588655 42.093344 
z
" clip-path="url(#pa79f561108)" style="fill: #1f77b4"/>
   </g>
   <g id="patch_100">
    <path d="M 206.102925 224.64 
L 207.617194 224.64 
L 207.617194 76.208621 
L 206.102925 76.208621 
z
" clip-path="url(#pa79f561108)" style="fill: #1f77b4"/>
   </g>
   <g id="patch_101">
    <path d="M 207.617194 224.64 
L 209.131464 224.64 
L 209.131464 23.539422 
L 207.617194 23.539422 
z
" clip-path="url(#pa79f561108)" style="fill: #1f77b4"/>
   </g>
   <g id="patch_102">
    <path d="M 209.131464 224.64 
L 210.645734 224.64 
L 210.645734 36.108208 
L 209.131464 36.108208 
z
" clip-path="url(#pa79f561108)" style="fill: #1f77b4"/>
   </g>
   <g id="patch_103">
    <path d="M 210.645734 224.64 
L 212.160003 224.64 
L 212.160003 45.684426 
L 210.645734 45.684426 
z
" clip-path="url(#pa79f561108)" style="fill: #1f77b4"/>
   </g>
   <g id="patch_104">
    <path d="M 212.160003 224.64 
L 213.674273 224.64 
L 213.674273 25.334963 
L 212.160003 25.334963 
z
" clip-path="url(#pa79f561108)" style="fill: #1f77b4"/>
   </g>
   <g id="patch_105">
    <path d="M 213.674273 224.64 
L 215.188542 224.64 
L 215.188542 41.494831 
L 213.674273 41.494831 
z
" clip-path="url(#pa79f561108)" style="fill: #1f77b4"/>
   </g>
   <g id="patch_106">
    <path d="M 215.188542 224.64 
L 216.702812 224.64 
L 216.702812 34.911181 
L 215.188542 34.911181 
z
" clip-path="url(#pa79f561108)" style="fill: #1f77b4"/>
   </g>
   <g id="patch_107">
    <path d="M 216.702812 224.64 
L 218.217081 224.64 
L 218.217081 25.334963 
L 216.702812 25.334963 
z
" clip-path="url(#pa79f561108)" style="fill: #1f77b4"/>
   </g>
   <g id="patch_108">
    <path d="M 218.217081 224.64 
L 219.731351 224.64 
L 219.731351 33.11564 
L 218.217081 33.11564 
z
" clip-path="url(#pa79f561108)" style="fill: #1f77b4"/>
   </g>
   <g id="patch_109">
    <path d="M 219.731351 224.64 
L 221.24562 224.64 
L 221.24562 28.926045 
L 219.731351 28.926045 
z
" clip-path="url(#pa79f561108)" style="fill: #1f77b4"/>
   </g>
   <g id="patch_110">
    <path d="M 221.24562 224.64 
L 222.75989 224.64 
L 222.75989 47.479967 
L 221.24562 47.479967 
z
" clip-path="url(#pa79f561108)" style="fill: #1f77b4"/>
   </g>
   <g id="patch_111">
    <path d="M 222.75989 224.64 
L 224.274159 224.64 
L 224.274159 46.28294 
L 222.75989 46.28294 
z
" clip-path="url(#pa79f561108)" style="fill: #1f77b4"/>
   </g>
   <g id="patch_112">
    <path d="M 224.274159 224.64 
L 225.788429 224.64 
L 225.788429 30.721585 
L 224.274159 30.721585 
z
" clip-path="url(#pa79f561108)" style="fill: #1f77b4"/>
   </g>
   <g id="patch_113">
    <path d="M 225.788429 224.64 
L 227.302698 224.64 
L 227.302698 55.859158 
L 225.788429 55.859158 
z
" clip-path="url(#pa79f561108)" style="fill: #1f77b4"/>
   </g>
   <g id="patch_114">
    <path d="M 227.302698 224.64 
L 228.816968 224.64 
L 228.816968 36.108208 
L 227.302698 36.108208 
z
" clip-path="url(#pa79f561108)" style="fill: #1f77b4"/>
   </g>
   <g id="patch_115">
    <path d="M 228.816968 224.64 
L 230.331237 224.64 
L 230.331237 39.100776 
L 228.816968 39.100776 
z
" clip-path="url(#pa79f561108)" style="fill: #1f77b4"/>
   </g>
   <g id="patch_116">
    <path d="M 230.331237 224.64 
L 231.845507 224.64 
L 231.845507 36.108208 
L 230.331237 36.108208 
z
" clip-path="url(#pa79f561108)" style="fill: #1f77b4"/>
   </g>
   <g id="patch_117">
    <path d="M 231.845507 224.64 
L 233.359776 224.64 
L 233.359776 17.554286 
L 231.845507 17.554286 
z
" clip-path="url(#pa79f561108)" style="fill: #1f77b4"/>
   </g>
   <g id="patch_118">
    <path d="M 233.359776 224.64 
L 234.874046 224.64 
L 234.874046 45.085912 
L 233.359776 45.085912 
z
" clip-path="url(#pa79f561108)" style="fill: #1f77b4"/>
   </g>
   <g id="patch_119">
    <path d="M 234.874046 224.64 
L 236.388315 224.64 
L 236.388315 33.714154 
L 234.874046 33.714154 
z
" clip-path="url(#pa79f561108)" style="fill: #1f77b4"/>
   </g>
   <g id="patch_120">
    <path d="M 236.388315 224.64 
L 237.902585 224.64 
L 237.902585 48.676994 
L 236.388315 48.676994 
z
" clip-path="url(#pa79f561108)" style="fill: #1f77b4"/>
   </g>
   <g id="patch_121">
    <path d="M 237.902585 224.64 
L 239.416854 224.64 
L 239.416854 44.487399 
L 237.902585 44.487399 
z
" clip-path="url(#pa79f561108)" style="fill: #1f77b4"/>
   </g>
   <g id="patch_122">
    <path d="M 239.416854 224.64 
L 240.931124 224.64 
L 240.931124 36.706722 
L 239.416854 36.706722 
z
" clip-path="url(#pa79f561108)" style="fill: #1f77b4"/>
   </g>
   <g id="patch_123">
    <path d="M 240.931124 224.64 
L 242.445393 224.64 
L 242.445393 54.66213 
L 240.931124 54.66213 
z
" clip-path="url(#pa79f561108)" style="fill: #1f77b4"/>
   </g>
   <g id="patch_124">
    <path d="M 242.445393 224.64 
L 243.959663 224.64 
L 243.959663 64.836862 
L 242.445393 64.836862 
z
" clip-path="url(#pa79f561108)" style="fill: #1f77b4"/>
   </g>
   <g id="patch_125">
    <path d="M 243.959663 224.64 
L 245.473932 224.64 
L 245.473932 58.851726 
L 243.959663 58.851726 
z
" clip-path="url(#pa79f561108)" style="fill: #1f77b4"/>
   </g>
   <g id="patch_126">
    <path d="M 245.473932 224.64 
L 246.988202 224.64 
L 246.988202 50.472535 
L 245.473932 50.472535 
z
" clip-path="url(#pa79f561108)" style="fill: #1f77b4"/>
   </g>
   <g id="patch_127">
    <path d="M 246.988202 224.64 
L 248.502471 224.64 
L 248.502471 50.472535 
L 246.988202 50.472535 
z
" clip-path="url(#pa79f561108)" style="fill: #1f77b4"/>
   </g>
   <g id="patch_128">
    <path d="M 248.502471 224.64 
L 250.016741 224.64 
L 250.016741 63.639835 
L 248.502471 63.639835 
z
" clip-path="url(#pa79f561108)" style="fill: #1f77b4"/>
   </g>
   <g id="patch_129">
    <path d="M 250.016741 224.64 
L 251.53101 224.64 
L 251.53101 37.305235 
L 250.016741 37.305235 
z
" clip-path="url(#pa79f561108)" style="fill: #1f77b4"/>
   </g>
   <g id="patch_130">
    <path d="M 251.53101 224.64 
L 253.04528 224.64 
L 253.04528 53.465103 
L 251.53101 53.465103 
z
" clip-path="url(#pa79f561108)" style="fill: #1f77b4"/>
   </g>
   <g id="patch_131">
    <path d="M 253.04528 224.64 
L 254.559549 224.64 
L 254.559549 66.033889 
L 253.04528 66.033889 
z
" clip-path="url(#pa79f561108)" style="fill: #1f77b4"/>
   </g>
   <g id="patch_132">
    <path d="M 254.559549 224.64 
L 256.073819 224.64 
L 256.073819 68.427944 
L 254.559549 68.427944 
z
" clip-path="url(#pa79f561108)" style="fill: #1f77b4"/>
   </g>
   <g id="patch_133">
    <path d="M 256.073819 224.64 
L 257.588088 224.64 
L 257.588088 60.048753 
L 256.073819 60.048753 
z
" clip-path="url(#pa79f561108)" style="fill: #1f77b4"/>
   </g>
   <g id="patch_134">
    <path d="M 257.588088 224.64 
L 259.102358 224.64 
L 259.102358 50.472535 
L 257.588088 50.472535 
z
" clip-path="url(#pa79f561108)" style="fill: #1f77b4"/>
   </g>
   <g id="patch_135">
    <path d="M 259.102358 224.64 
L 260.616627 224.64 
L 260.616627 54.063617 
L 259.102358 54.063617 
z
" clip-path="url(#pa79f561108)" style="fill: #1f77b4"/>
   </g>
   <g id="patch_136">
    <path d="M 260.616627 224.64 
L 262.130897 224.64 
L 262.130897 69.624971 
L 260.616627 69.624971 
z
" clip-path="url(#pa79f561108)" style="fill: #1f77b4"/>
   </g>
   <g id="patch_137">
    <path d="M 262.130897 224.64 
L 263.645166 224.64 
L 263.645166 73.814566 
L 262.130897 73.814566 
z
" clip-path="url(#pa79f561108)" style="fill: #1f77b4"/>
   </g>
   <g id="patch_138">
    <path d="M 263.645166 224.64 
L 265.159436 224.64 
L 265.159436 83.989298 
L 263.645166 83.989298 
z
" clip-path="url(#pa79f561108)" style="fill: #1f77b4"/>
   </g>
   <g id="patch_139">
    <path d="M 265.159436 224.64 
L 266.673705 224.64 
L 266.673705 76.807135 
L 265.159436 76.807135 
z
" clip-path="url(#pa79f561108)" style="fill: #1f77b4"/>
   </g>
   <g id="patch_140">
    <path d="M 266.673705 224.64 
L 268.187975 224.64 
L 268.187975 58.851726 
L 266.673705 58.851726 
z
" clip-path="url(#pa79f561108)" style="fill: #1f77b4"/>
   </g>
   <g id="patch_141">
    <path d="M 268.187975 224.64 
L 269.702244 224.64 
L 269.702244 69.026457 
L 268.187975 69.026457 
z
" clip-path="url(#pa79f561108)" style="fill: #1f77b4"/>
   </g>
   <g id="patch_142">
    <path d="M 269.702244 224.64 
L 271.216514 224.64 
L 271.216514 51.071049 
L 269.702244 51.071049 
z
" clip-path="url(#pa79f561108)" style="fill: #1f77b4"/>
   </g>
   <g id="patch_143">
    <path d="M 271.216514 224.64 
L 272.730783 224.64 
L 272.730783 70.821998 
L 271.216514 70.821998 
z
" clip-path="url(#pa79f561108)" style="fill: #1f77b4"/>
   </g>
   <g id="patch_144">
    <path d="M 272.730783 224.64 
L 274.245053 224.64 
L 274.245053 81.595244 
L 272.730783 81.595244 
z
" clip-path="url(#pa79f561108)" style="fill: #1f77b4"/>
   </g>
   <g id="patch_145">
    <path d="M 274.245053 224.64 
L 275.759322 224.64 
L 275.759322 74.41308 
L 274.245053 74.41308 
z
" clip-path="url(#pa79f561108)" style="fill: #1f77b4"/>
   </g>
   <g id="patch_146">
    <path d="M 275.759322 224.64 
L 277.273592 224.64 
L 277.273592 70.223485 
L 275.759322 70.223485 
z
" clip-path="url(#pa79f561108)" style="fill: #1f77b4"/>
   </g>
   <g id="patch_147">
    <path d="M 277.273592 224.64 
L 278.787861 224.64 
L 278.787861 80.398216 
L 277.273592 80.398216 
z
" clip-path="url(#pa79f561108)" style="fill: #1f77b4"/>
   </g>
   <g id="patch_148">
    <path d="M 278.787861 224.64 
L 280.302131 224.64 
L 280.302131 72.617539 
L 278.787861 72.617539 
z
" clip-path="url(#pa79f561108)" style="fill: #1f77b4"/>
   </g>
   <g id="patch_149">
    <path d="M 280.302131 224.64 
L 281.8164 224.64 
L 281.8164 75.011594 
L 280.302131 75.011594 
z
" clip-path="url(#pa79f561108)" style="fill: #1f77b4"/>
   </g>
   <g id="patch_150">
    <path d="M 281.8164 224.64 
L 283.33067 224.64 
L 283.33067 80.99673 
L 281.8164 80.99673 
z
" clip-path="url(#pa79f561108)" style="fill: #1f77b4"/>
   </g>
   <g id="patch_151">
    <path d="M 283.33067 224.64 
L 284.844939 224.64 
L 284.844939 100.74768 
L 283.33067 100.74768 
z
" clip-path="url(#pa79f561108)" style="fill: #1f77b4"/>
   </g>
   <g id="patch_152">
    <path d="M 284.844939 224.64 
L 286.359209 224.64 
L 286.359209 91.769975 
L 284.844939 91.769975 
z
" clip-path="url(#pa79f561108)" style="fill: #1f77b4"/>
   </g>
   <g id="patch_153">
    <path d="M 286.359209 224.64 
L 287.873478 224.64 
L 287.873478 98.952139 
L 286.359209 98.952139 
z
" clip-path="url(#pa79f561108)" style="fill: #1f77b4"/>
   </g>
   <g id="patch_154">
    <path d="M 287.873478 224.64 
L 289.387748 224.64 
L 289.387748 89.375921 
L 287.873478 89.375921 
z
" clip-path="url(#pa79f561108)" style="fill: #1f77b4"/>
   </g>
   <g id="patch_155">
    <path d="M 289.387748 224.64 
L 290.902017 224.64 
L 290.902017 113.914979 
L 289.387748 113.914979 
z
" clip-path="url(#pa79f561108)" style="fill: #1f77b4"/>
   </g>
   <g id="patch_156">
    <path d="M 290.902017 224.64 
L 292.416287 224.64 
L 292.416287 95.959571 
L 290.902017 95.959571 
z
" clip-path="url(#pa79f561108)" style="fill: #1f77b4"/>
   </g>
   <g id="patch_157">
    <path d="M 292.416287 224.64 
L 293.930557 224.64 
L 293.930557 100.74768 
L 292.416287 100.74768 
z
" clip-path="url(#pa79f561108)" style="fill: #1f77b4"/>
   </g>
   <g id="patch_158">
    <path d="M 293.930557 224.64 
L 295.444826 224.64 
L 295.444826 112.119438 
L 293.930557 112.119438 
z
" clip-path="url(#pa79f561108)" style="fill: #1f77b4"/>
   </g>
   <g id="patch_159">
    <path d="M 295.444826 224.64 
L 296.959096 224.64 
L 296.959096 113.914979 
L 295.444826 113.914979 
z
" clip-path="url(#pa79f561108)" style="fill: #1f77b4"/>
   </g>
   <g id="patch_160">
    <path d="M 296.959096 224.64 
L 298.473365 224.64 
L 298.473365 97.755111 
L 296.959096 97.755111 
z
" clip-path="url(#pa79f561108)" style="fill: #1f77b4"/>
   </g>
   <g id="patch_161">
    <path d="M 298.473365 224.64 
L 299.987635 224.64 
L 299.987635 109.12687 
L 298.473365 109.12687 
z
" clip-path="url(#pa79f561108)" style="fill: #1f77b4"/>
   </g>
   <g id="patch_162">
    <path d="M 299.987635 224.64 
L 301.501904 224.64 
L 301.501904 115.71052 
L 299.987635 115.71052 
z
" clip-path="url(#pa79f561108)" style="fill: #1f77b4"/>
   </g>
   <g id="patch_163">
    <path d="M 301.501904 224.64 
L 303.016174 224.64 
L 303.016174 97.156598 
L 301.501904 97.156598 
z
" clip-path="url(#pa79f561108)" style="fill: #1f77b4"/>
   </g>
   <g id="patch_164">
    <path d="M 303.016174 224.64 
L 304.530443 224.64 
L 304.530443 107.331329 
L 303.016174 107.331329 
z
" clip-path="url(#pa79f561108)" style="fill: #1f77b4"/>
   </g>
   <g id="patch_165">
    <path d="M 304.530443 224.64 
L 306.044713 224.64 
L 306.044713 110.922411 
L 304.530443 110.922411 
z
" clip-path="url(#pa79f561108)" style="fill: #1f77b4"/>
   </g>
   <g id="patch_166">
    <path d="M 306.044713 224.64 
L 307.558982 224.64 
L 307.558982 115.71052 
L 306.044713 115.71052 
z
" clip-path="url(#pa79f561108)" style="fill: #1f77b4"/>
   </g>
   <g id="patch_167">
    <path d="M 307.558982 224.64 
L 309.073252 224.64 
L 309.073252 141.446606 
L 307.558982 141.446606 
z
" clip-path="url(#pa79f561108)" style="fill: #1f77b4"/>
   </g>
   <g id="patch_168">
    <path d="M 309.073252 224.64 
L 310.587521 224.64 
L 310.587521 117.506061 
L 309.073252 117.506061 
z
" clip-path="url(#pa79f561108)" style="fill: #1f77b4"/>
   </g>
   <g id="patch_169">
    <path d="M 310.587521 224.64 
L 312.101791 224.64 
L 312.101791 137.855524 
L 310.587521 137.855524 
z
" clip-path="url(#pa79f561108)" style="fill: #1f77b4"/>
   </g>
   <g id="patch_170">
    <path d="M 312.101791 224.64 
L 313.61606 224.64 
L 313.61606 136.059983 
L 312.101791 136.059983 
z
" clip-path="url(#pa79f561108)" style="fill: #1f77b4"/>
   </g>
   <g id="patch_171">
    <path d="M 313.61606 224.64 
L 315.13033 224.64 
L 315.13033 134.264443 
L 313.61606 134.264443 
z
" clip-path="url(#pa79f561108)" style="fill: #1f77b4"/>
   </g>
   <g id="patch_172">
    <path d="M 315.13033 224.64 
L 316.644599 224.64 
L 316.644599 134.264443 
L 315.13033 134.264443 
z
" clip-path="url(#pa79f561108)" style="fill: #1f77b4"/>
   </g>
   <g id="patch_173">
    <path d="M 316.644599 224.64 
L 318.158869 224.64 
L 318.158869 123.491197 
L 316.644599 123.491197 
z
" clip-path="url(#pa79f561108)" style="fill: #1f77b4"/>
   </g>
   <g id="patch_174">
    <path d="M 318.158869 224.64 
L 319.673138 224.64 
L 319.673138 133.067415 
L 318.158869 133.067415 
z
" clip-path="url(#pa79f561108)" style="fill: #1f77b4"/>
   </g>
   <g id="patch_175">
    <path d="M 319.673138 224.64 
L 321.187408 224.64 
L 321.187408 148.030256 
L 319.673138 148.030256 
z
" clip-path="url(#pa79f561108)" style="fill: #1f77b4"/>
   </g>
   <g id="patch_176">
    <path d="M 321.187408 224.64 
L 322.701677 224.64 
L 322.701677 151.621338 
L 321.187408 151.621338 
z
" clip-path="url(#pa79f561108)" style="fill: #1f77b4"/>
   </g>
   <g id="patch_177">
    <path d="M 322.701677 224.64 
L 324.215947 224.64 
L 324.215947 148.62877 
L 322.701677 148.62877 
z
" clip-path="url(#pa79f561108)" style="fill: #1f77b4"/>
   </g>
   <g id="patch_178">
    <path d="M 324.215947 224.64 
L 325.730216 224.64 
L 325.730216 147.431742 
L 324.215947 147.431742 
z
" clip-path="url(#pa79f561108)" style="fill: #1f77b4"/>
   </g>
   <g id="patch_179">
    <path d="M 325.730216 224.64 
L 327.244486 224.64 
L 327.244486 161.197556 
L 325.730216 161.197556 
z
" clip-path="url(#pa79f561108)" style="fill: #1f77b4"/>
   </g>
   <g id="patch_180">
    <path d="M 327.244486 224.64 
L 328.758755 224.64 
L 328.758755 167.781206 
L 327.244486 167.781206 
z
" clip-path="url(#pa79f561108)" style="fill: #1f77b4"/>
   </g>
   <g id="patch_181">
    <path d="M 328.758755 224.64 
L 330.273025 224.64 
L 330.273025 151.022824 
L 328.758755 151.022824 
z
" clip-path="url(#pa79f561108)" style="fill: #1f77b4"/>
   </g>
   <g id="patch_182">
    <path d="M 330.273025 224.64 
L 331.787294 224.64 
L 331.787294 160.599042 
L 330.273025 160.599042 
z
" clip-path="url(#pa79f561108)" style="fill: #1f77b4"/>
   </g>
   <g id="patch_183">
    <path d="M 331.787294 224.64 
L 333.301564 224.64 
L 333.301564 160.000528 
L 331.787294 160.000528 
z
" clip-path="url(#pa79f561108)" style="fill: #1f77b4"/>
   </g>
   <g id="patch_184">
    <path d="M 333.301564 224.64 
L 334.815833 224.64 
L 334.815833 165.387151 
L 333.301564 165.387151 
z
" clip-path="url(#pa79f561108)" style="fill: #1f77b4"/>
   </g>
   <g id="patch_185">
    <path d="M 334.815833 224.64 
L 336.330103 224.64 
L 336.330103 173.167828 
L 334.815833 173.167828 
z
" clip-path="url(#pa79f561108)" style="fill: #1f77b4"/>
   </g>
   <g id="patch_186">
    <path d="M 336.330103 224.64 
L 337.844372 224.64 
L 337.844372 175.561883 
L 336.330103 175.561883 
z
" clip-path="url(#pa79f561108)" style="fill: #1f77b4"/>
   </g>
   <g id="patch_187">
    <path d="M 337.844372 224.64 
L 339.358642 224.64 
L 339.358642 181.547019 
L 337.844372 181.547019 
z
" clip-path="url(#pa79f561108)" style="fill: #1f77b4"/>
   </g>
   <g id="patch_188">
    <path d="M 339.358642 224.64 
L 340.872911 224.64 
L 340.872911 186.335128 
L 339.358642 186.335128 
z
" clip-path="url(#pa79f561108)" style="fill: #1f77b4"/>
   </g>
   <g id="patch_189">
    <path d="M 340.872911 224.64 
L 342.387181 224.64 
L 342.387181 176.160396 
L 340.872911 176.160396 
z
" clip-path="url(#pa79f561108)" style="fill: #1f77b4"/>
   </g>
   <g id="patch_190">
    <path d="M 342.387181 224.64 
L 343.90145 224.64 
L 343.90145 183.34256 
L 342.387181 183.34256 
z
" clip-path="url(#pa79f561108)" style="fill: #1f77b4"/>
   </g>
   <g id="patch_191">
    <path d="M 343.90145 224.64 
L 345.41572 224.64 
L 345.41572 189.92621 
L 343.90145 189.92621 
z
" clip-path="url(#pa79f561108)" style="fill: #1f77b4"/>
   </g>
   <g id="patch_192">
    <path d="M 345.41572 224.64 
L 346.929989 224.64 
L 346.929989 195.312832 
L 345.41572 195.312832 
z
" clip-path="url(#pa79f561108)" style="fill: #1f77b4"/>
   </g>
   <g id="patch_193">
    <path d="M 346.929989 224.64 
L 348.444259 224.64 
L 348.444259 197.108373 
L 346.929989 197.108373 
z
" clip-path="url(#pa79f561108)" style="fill: #1f77b4"/>
   </g>
   <g id="patch_194">
    <path d="M 348.444259 224.64 
L 349.958528 224.64 
L 349.958528 193.517291 
L 348.444259 193.517291 
z
" clip-path="url(#pa79f561108)" style="fill: #1f77b4"/>
   </g>
   <g id="patch_195">
    <path d="M 349.958528 224.64 
L 351.472798 224.64 
L 351.472798 199.502428 
L 349.958528 199.502428 
z
" clip-path="url(#pa79f561108)" style="fill: #1f77b4"/>
   </g>
   <g id="patch_196">
    <path d="M 351.472798 224.64 
L 352.987067 224.64 
L 352.987067 204.88905 
L 351.472798 204.88905 
z
" clip-path="url(#pa79f561108)" style="fill: #1f77b4"/>
   </g>
   <g id="patch_197">
    <path d="M 352.987067 224.64 
L 354.501337 224.64 
L 354.501337 210.874187 
L 352.987067 210.874187 
z
" clip-path="url(#pa79f561108)" style="fill: #1f77b4"/>
   </g>
   <g id="patch_198">
    <path d="M 354.501337 224.64 
L 356.015606 224.64 
L 356.015606 207.283105 
L 354.501337 207.283105 
z
" clip-path="url(#pa79f561108)" style="fill: #1f77b4"/>
   </g>
   <g id="patch_199">
    <path d="M 356.015606 224.64 
L 357.529876 224.64 
L 357.529876 213.866755 
L 356.015606 213.866755 
z
" clip-path="url(#pa79f561108)" style="fill: #1f77b4"/>
   </g>
   <g id="patch_200">
    <path d="M 357.529876 224.64 
L 359.044145 224.64 
L 359.044145 216.260809 
L 357.529876 216.260809 
z
" clip-path="url(#pa79f561108)" style="fill: #1f77b4"/>
   </g>
   <g id="patch_201">
    <path d="M 359.044145 224.64 
L 360.558415 224.64 
L 360.558415 219.253377 
L 359.044145 219.253377 
z
" clip-path="url(#pa79f561108)" style="fill: #1f77b4"/>
   </g>
   <g id="patch_202">
    <path d="M 360.558415 224.64 
L 362.072684 224.64 
L 362.072684 219.851891 
L 360.558415 219.851891 
z
" clip-path="url(#pa79f561108)" style="fill: #1f77b4"/>
   </g>
   <g id="matplotlib.axis_1">
    <g id="xtick_1">
     <g id="line2d_1">
      <defs>
       <path id="ma9b873d884" d="M 0 0 
L 0 3.5 
" style="stroke: #000000; stroke-width: 0.8"/>
      </defs>
      <g>
       <use xlink:href="#ma9b873d884" x="58.999432" y="224.64" style="stroke: #000000; stroke-width: 0.8"/>
      </g>
     </g>
     <g id="text_1">
      <!-- 0.0 -->
      <g transform="translate(51.047869 239.238437)scale(0.1 -0.1)">
       <defs>
        <path id="DejaVuSans-30" d="M 2034 4250 
Q 1547 4250 1301 3770 
Q 1056 3291 1056 2328 
Q 1056 1369 1301 889 
Q 1547 409 2034 409 
Q 2525 409 2770 889 
Q 3016 1369 3016 2328 
Q 3016 3291 2770 3770 
Q 2525 4250 2034 4250 
z
M 2034 4750 
Q 2819 4750 3233 4129 
Q 3647 3509 3647 2328 
Q 3647 1150 3233 529 
Q 2819 -91 2034 -91 
Q 1250 -91 836 529 
Q 422 1150 422 2328 
Q 422 3509 836 4129 
Q 1250 4750 2034 4750 
z
" transform="scale(0.015625)"/>
        <path id="DejaVuSans-2e" d="M 684 794 
L 1344 794 
L 1344 0 
L 684 0 
L 684 794 
z
" transform="scale(0.015625)"/>
       </defs>
       <use xlink:href="#DejaVuSans-30"/>
       <use xlink:href="#DejaVuSans-2e" x="63.623047"/>
       <use xlink:href="#DejaVuSans-30" x="95.410156"/>
      </g>
     </g>
    </g>
    <g id="xtick_2">
     <g id="line2d_2">
      <g>
       <use xlink:href="#ma9b873d884" x="97.752214" y="224.64" style="stroke: #000000; stroke-width: 0.8"/>
      </g>
     </g>
     <g id="text_2">
      <!-- 0.2 -->
      <g transform="translate(89.800651 239.238437)scale(0.1 -0.1)">
       <defs>
        <path id="DejaVuSans-32" d="M 1228 531 
L 3431 531 
L 3431 0 
L 469 0 
L 469 531 
Q 828 903 1448 1529 
Q 2069 2156 2228 2338 
Q 2531 2678 2651 2914 
Q 2772 3150 2772 3378 
Q 2772 3750 2511 3984 
Q 2250 4219 1831 4219 
Q 1534 4219 1204 4116 
Q 875 4013 500 3803 
L 500 4441 
Q 881 4594 1212 4672 
Q 1544 4750 1819 4750 
Q 2544 4750 2975 4387 
Q 3406 4025 3406 3419 
Q 3406 3131 3298 2873 
Q 3191 2616 2906 2266 
Q 2828 2175 2409 1742 
Q 1991 1309 1228 531 
z
" transform="scale(0.015625)"/>
       </defs>
       <use xlink:href="#DejaVuSans-30"/>
       <use xlink:href="#DejaVuSans-2e" x="63.623047"/>
       <use xlink:href="#DejaVuSans-32" x="95.410156"/>
      </g>
     </g>
    </g>
    <g id="xtick_3">
     <g id="line2d_3">
      <g>
       <use xlink:href="#ma9b873d884" x="136.504995" y="224.64" style="stroke: #000000; stroke-width: 0.8"/>
      </g>
     </g>
     <g id="text_3">
      <!-- 0.4 -->
      <g transform="translate(128.553433 239.238437)scale(0.1 -0.1)">
       <defs>
        <path id="DejaVuSans-34" d="M 2419 4116 
L 825 1625 
L 2419 1625 
L 2419 4116 
z
M 2253 4666 
L 3047 4666 
L 3047 1625 
L 3713 1625 
L 3713 1100 
L 3047 1100 
L 3047 0 
L 2419 0 
L 2419 1100 
L 313 1100 
L 313 1709 
L 2253 4666 
z
" transform="scale(0.015625)"/>
       </defs>
       <use xlink:href="#DejaVuSans-30"/>
       <use xlink:href="#DejaVuSans-2e" x="63.623047"/>
       <use xlink:href="#DejaVuSans-34" x="95.410156"/>
      </g>
     </g>
    </g>
    <g id="xtick_4">
     <g id="line2d_4">
      <g>
       <use xlink:href="#ma9b873d884" x="175.257777" y="224.64" style="stroke: #000000; stroke-width: 0.8"/>
      </g>
     </g>
     <g id="text_4">
      <!-- 0.6 -->
      <g transform="translate(167.306215 239.238437)scale(0.1 -0.1)">
       <defs>
        <path id="DejaVuSans-36" d="M 2113 2584 
Q 1688 2584 1439 2293 
Q 1191 2003 1191 1497 
Q 1191 994 1439 701 
Q 1688 409 2113 409 
Q 2538 409 2786 701 
Q 3034 994 3034 1497 
Q 3034 2003 2786 2293 
Q 2538 2584 2113 2584 
z
M 3366 4563 
L 3366 3988 
Q 3128 4100 2886 4159 
Q 2644 4219 2406 4219 
Q 1781 4219 1451 3797 
Q 1122 3375 1075 2522 
Q 1259 2794 1537 2939 
Q 1816 3084 2150 3084 
Q 2853 3084 3261 2657 
Q 3669 2231 3669 1497 
Q 3669 778 3244 343 
Q 2819 -91 2113 -91 
Q 1303 -91 875 529 
Q 447 1150 447 2328 
Q 447 3434 972 4092 
Q 1497 4750 2381 4750 
Q 2619 4750 2861 4703 
Q 3103 4656 3366 4563 
z
" transform="scale(0.015625)"/>
       </defs>
       <use xlink:href="#DejaVuSans-30"/>
       <use xlink:href="#DejaVuSans-2e" x="63.623047"/>
       <use xlink:href="#DejaVuSans-36" x="95.410156"/>
      </g>
     </g>
    </g>
    <g id="xtick_5">
     <g id="line2d_5">
      <g>
       <use xlink:href="#ma9b873d884" x="214.010559" y="224.64" style="stroke: #000000; stroke-width: 0.8"/>
      </g>
     </g>
     <g id="text_5">
      <!-- 0.8 -->
      <g transform="translate(206.058996 239.238437)scale(0.1 -0.1)">
       <defs>
        <path id="DejaVuSans-38" d="M 2034 2216 
Q 1584 2216 1326 1975 
Q 1069 1734 1069 1313 
Q 1069 891 1326 650 
Q 1584 409 2034 409 
Q 2484 409 2743 651 
Q 3003 894 3003 1313 
Q 3003 1734 2745 1975 
Q 2488 2216 2034 2216 
z
M 1403 2484 
Q 997 2584 770 2862 
Q 544 3141 544 3541 
Q 544 4100 942 4425 
Q 1341 4750 2034 4750 
Q 2731 4750 3128 4425 
Q 3525 4100 3525 3541 
Q 3525 3141 3298 2862 
Q 3072 2584 2669 2484 
Q 3125 2378 3379 2068 
Q 3634 1759 3634 1313 
Q 3634 634 3220 271 
Q 2806 -91 2034 -91 
Q 1263 -91 848 271 
Q 434 634 434 1313 
Q 434 1759 690 2068 
Q 947 2378 1403 2484 
z
M 1172 3481 
Q 1172 3119 1398 2916 
Q 1625 2713 2034 2713 
Q 2441 2713 2670 2916 
Q 2900 3119 2900 3481 
Q 2900 3844 2670 4047 
Q 2441 4250 2034 4250 
Q 1625 4250 1398 4047 
Q 1172 3844 1172 3481 
z
" transform="scale(0.015625)"/>
       </defs>
       <use xlink:href="#DejaVuSans-30"/>
       <use xlink:href="#DejaVuSans-2e" x="63.623047"/>
       <use xlink:href="#DejaVuSans-38" x="95.410156"/>
      </g>
     </g>
    </g>
    <g id="xtick_6">
     <g id="line2d_6">
      <g>
       <use xlink:href="#ma9b873d884" x="252.763341" y="224.64" style="stroke: #000000; stroke-width: 0.8"/>
      </g>
     </g>
     <g id="text_6">
      <!-- 1.0 -->
      <g transform="translate(244.811778 239.238437)scale(0.1 -0.1)">
       <defs>
        <path id="DejaVuSans-31" d="M 794 531 
L 1825 531 
L 1825 4091 
L 703 3866 
L 703 4441 
L 1819 4666 
L 2450 4666 
L 2450 531 
L 3481 531 
L 3481 0 
L 794 0 
L 794 531 
z
" transform="scale(0.015625)"/>
       </defs>
       <use xlink:href="#DejaVuSans-31"/>
       <use xlink:href="#DejaVuSans-2e" x="63.623047"/>
       <use xlink:href="#DejaVuSans-30" x="95.410156"/>
      </g>
     </g>
    </g>
    <g id="xtick_7">
     <g id="line2d_7">
      <g>
       <use xlink:href="#ma9b873d884" x="291.516122" y="224.64" style="stroke: #000000; stroke-width: 0.8"/>
      </g>
     </g>
     <g id="text_7">
      <!-- 1.2 -->
      <g transform="translate(283.56456 239.238437)scale(0.1 -0.1)">
       <use xlink:href="#DejaVuSans-31"/>
       <use xlink:href="#DejaVuSans-2e" x="63.623047"/>
       <use xlink:href="#DejaVuSans-32" x="95.410156"/>
      </g>
     </g>
    </g>
    <g id="xtick_8">
     <g id="line2d_8">
      <g>
       <use xlink:href="#ma9b873d884" x="330.268904" y="224.64" style="stroke: #000000; stroke-width: 0.8"/>
      </g>
     </g>
     <g id="text_8">
      <!-- 1.4 -->
      <g transform="translate(322.317342 239.238437)scale(0.1 -0.1)">
       <use xlink:href="#DejaVuSans-31"/>
       <use xlink:href="#DejaVuSans-2e" x="63.623047"/>
       <use xlink:href="#DejaVuSans-34" x="95.410156"/>
      </g>
     </g>
    </g>
    <g id="xtick_9">
     <g id="line2d_9">
      <g>
       <use xlink:href="#ma9b873d884" x="369.021686" y="224.64" style="stroke: #000000; stroke-width: 0.8"/>
      </g>
     </g>
     <g id="text_9">
      <!-- 1.6 -->
      <g transform="translate(361.070124 239.238437)scale(0.1 -0.1)">
       <use xlink:href="#DejaVuSans-31"/>
       <use xlink:href="#DejaVuSans-2e" x="63.623047"/>
       <use xlink:href="#DejaVuSans-36" x="95.410156"/>
      </g>
     </g>
    </g>
    <g id="text_10">
     <!-- Angle with normal (rad) -->
     <g transform="translate(151.863281 252.916562)scale(0.1 -0.1)">
      <defs>
       <path id="DejaVuSans-41" d="M 2188 4044 
L 1331 1722 
L 3047 1722 
L 2188 4044 
z
M 1831 4666 
L 2547 4666 
L 4325 0 
L 3669 0 
L 3244 1197 
L 1141 1197 
L 716 0 
L 50 0 
L 1831 4666 
z
" transform="scale(0.015625)"/>
       <path id="DejaVuSans-6e" d="M 3513 2113 
L 3513 0 
L 2938 0 
L 2938 2094 
Q 2938 2591 2744 2837 
Q 2550 3084 2163 3084 
Q 1697 3084 1428 2787 
Q 1159 2491 1159 1978 
L 1159 0 
L 581 0 
L 581 3500 
L 1159 3500 
L 1159 2956 
Q 1366 3272 1645 3428 
Q 1925 3584 2291 3584 
Q 2894 3584 3203 3211 
Q 3513 2838 3513 2113 
z
" transform="scale(0.015625)"/>
       <path id="DejaVuSans-67" d="M 2906 1791 
Q 2906 2416 2648 2759 
Q 2391 3103 1925 3103 
Q 1463 3103 1205 2759 
Q 947 2416 947 1791 
Q 947 1169 1205 825 
Q 1463 481 1925 481 
Q 2391 481 2648 825 
Q 2906 1169 2906 1791 
z
M 3481 434 
Q 3481 -459 3084 -895 
Q 2688 -1331 1869 -1331 
Q 1566 -1331 1297 -1286 
Q 1028 -1241 775 -1147 
L 775 -588 
Q 1028 -725 1275 -790 
Q 1522 -856 1778 -856 
Q 2344 -856 2625 -561 
Q 2906 -266 2906 331 
L 2906 616 
Q 2728 306 2450 153 
Q 2172 0 1784 0 
Q 1141 0 747 490 
Q 353 981 353 1791 
Q 353 2603 747 3093 
Q 1141 3584 1784 3584 
Q 2172 3584 2450 3431 
Q 2728 3278 2906 2969 
L 2906 3500 
L 3481 3500 
L 3481 434 
z
" transform="scale(0.015625)"/>
       <path id="DejaVuSans-6c" d="M 603 4863 
L 1178 4863 
L 1178 0 
L 603 0 
L 603 4863 
z
" transform="scale(0.015625)"/>
       <path id="DejaVuSans-65" d="M 3597 1894 
L 3597 1613 
L 953 1613 
Q 991 1019 1311 708 
Q 1631 397 2203 397 
Q 2534 397 2845 478 
Q 3156 559 3463 722 
L 3463 178 
Q 3153 47 2828 -22 
Q 2503 -91 2169 -91 
Q 1331 -91 842 396 
Q 353 884 353 1716 
Q 353 2575 817 3079 
Q 1281 3584 2069 3584 
Q 2775 3584 3186 3129 
Q 3597 2675 3597 1894 
z
M 3022 2063 
Q 3016 2534 2758 2815 
Q 2500 3097 2075 3097 
Q 1594 3097 1305 2825 
Q 1016 2553 972 2059 
L 3022 2063 
z
" transform="scale(0.015625)"/>
       <path id="DejaVuSans-20" transform="scale(0.015625)"/>
       <path id="DejaVuSans-77" d="M 269 3500 
L 844 3500 
L 1563 769 
L 2278 3500 
L 2956 3500 
L 3675 769 
L 4391 3500 
L 4966 3500 
L 4050 0 
L 3372 0 
L 2619 2869 
L 1863 0 
L 1184 0 
L 269 3500 
z
" transform="scale(0.015625)"/>
       <path id="DejaVuSans-69" d="M 603 3500 
L 1178 3500 
L 1178 0 
L 603 0 
L 603 3500 
z
M 603 4863 
L 1178 4863 
L 1178 4134 
L 603 4134 
L 603 4863 
z
" transform="scale(0.015625)"/>
       <path id="DejaVuSans-74" d="M 1172 4494 
L 1172 3500 
L 2356 3500 
L 2356 3053 
L 1172 3053 
L 1172 1153 
Q 1172 725 1289 603 
Q 1406 481 1766 481 
L 2356 481 
L 2356 0 
L 1766 0 
Q 1100 0 847 248 
Q 594 497 594 1153 
L 594 3053 
L 172 3053 
L 172 3500 
L 594 3500 
L 594 4494 
L 1172 4494 
z
" transform="scale(0.015625)"/>
       <path id="DejaVuSans-68" d="M 3513 2113 
L 3513 0 
L 2938 0 
L 2938 2094 
Q 2938 2591 2744 2837 
Q 2550 3084 2163 3084 
Q 1697 3084 1428 2787 
Q 1159 2491 1159 1978 
L 1159 0 
L 581 0 
L 581 4863 
L 1159 4863 
L 1159 2956 
Q 1366 3272 1645 3428 
Q 1925 3584 2291 3584 
Q 2894 3584 3203 3211 
Q 3513 2838 3513 2113 
z
" transform="scale(0.015625)"/>
       <path id="DejaVuSans-6f" d="M 1959 3097 
Q 1497 3097 1228 2736 
Q 959 2375 959 1747 
Q 959 1119 1226 758 
Q 1494 397 1959 397 
Q 2419 397 2687 759 
Q 2956 1122 2956 1747 
Q 2956 2369 2687 2733 
Q 2419 3097 1959 3097 
z
M 1959 3584 
Q 2709 3584 3137 3096 
Q 3566 2609 3566 1747 
Q 3566 888 3137 398 
Q 2709 -91 1959 -91 
Q 1206 -91 779 398 
Q 353 888 353 1747 
Q 353 2609 779 3096 
Q 1206 3584 1959 3584 
z
" transform="scale(0.015625)"/>
       <path id="DejaVuSans-72" d="M 2631 2963 
Q 2534 3019 2420 3045 
Q 2306 3072 2169 3072 
Q 1681 3072 1420 2755 
Q 1159 2438 1159 1844 
L 1159 0 
L 581 0 
L 581 3500 
L 1159 3500 
L 1159 2956 
Q 1341 3275 1631 3429 
Q 1922 3584 2338 3584 
Q 2397 3584 2469 3576 
Q 2541 3569 2628 3553 
L 2631 2963 
z
" transform="scale(0.015625)"/>
       <path id="DejaVuSans-6d" d="M 3328 2828 
Q 3544 3216 3844 3400 
Q 4144 3584 4550 3584 
Q 5097 3584 5394 3201 
Q 5691 2819 5691 2113 
L 5691 0 
L 5113 0 
L 5113 2094 
Q 5113 2597 4934 2840 
Q 4756 3084 4391 3084 
Q 3944 3084 3684 2787 
Q 3425 2491 3425 1978 
L 3425 0 
L 2847 0 
L 2847 2094 
Q 2847 2600 2669 2842 
Q 2491 3084 2119 3084 
Q 1678 3084 1418 2786 
Q 1159 2488 1159 1978 
L 1159 0 
L 581 0 
L 581 3500 
L 1159 3500 
L 1159 2956 
Q 1356 3278 1631 3431 
Q 1906 3584 2284 3584 
Q 2666 3584 2933 3390 
Q 3200 3197 3328 2828 
z
" transform="scale(0.015625)"/>
       <path id="DejaVuSans-61" d="M 2194 1759 
Q 1497 1759 1228 1600 
Q 959 1441 959 1056 
Q 959 750 1161 570 
Q 1363 391 1709 391 
Q 2188 391 2477 730 
Q 2766 1069 2766 1631 
L 2766 1759 
L 2194 1759 
z
M 3341 1997 
L 3341 0 
L 2766 0 
L 2766 531 
Q 2569 213 2275 61 
Q 1981 -91 1556 -91 
Q 1019 -91 701 211 
Q 384 513 384 1019 
Q 384 1609 779 1909 
Q 1175 2209 1959 2209 
L 2766 2209 
L 2766 2266 
Q 2766 2663 2505 2880 
Q 2244 3097 1772 3097 
Q 1472 3097 1187 3025 
Q 903 2953 641 2809 
L 641 3341 
Q 956 3463 1253 3523 
Q 1550 3584 1831 3584 
Q 2591 3584 2966 3190 
Q 3341 2797 3341 1997 
z
" transform="scale(0.015625)"/>
       <path id="DejaVuSans-28" d="M 1984 4856 
Q 1566 4138 1362 3434 
Q 1159 2731 1159 2009 
Q 1159 1288 1364 580 
Q 1569 -128 1984 -844 
L 1484 -844 
Q 1016 -109 783 600 
Q 550 1309 550 2009 
Q 550 2706 781 3412 
Q 1013 4119 1484 4856 
L 1984 4856 
z
" transform="scale(0.015625)"/>
       <path id="DejaVuSans-64" d="M 2906 2969 
L 2906 4863 
L 3481 4863 
L 3481 0 
L 2906 0 
L 2906 525 
Q 2725 213 2448 61 
Q 2172 -91 1784 -91 
Q 1150 -91 751 415 
Q 353 922 353 1747 
Q 353 2572 751 3078 
Q 1150 3584 1784 3584 
Q 2172 3584 2448 3432 
Q 2725 3281 2906 2969 
z
M 947 1747 
Q 947 1113 1208 752 
Q 1469 391 1925 391 
Q 2381 391 2643 752 
Q 2906 1113 2906 1747 
Q 2906 2381 2643 2742 
Q 2381 3103 1925 3103 
Q 1469 3103 1208 2742 
Q 947 2381 947 1747 
z
" transform="scale(0.015625)"/>
       <path id="DejaVuSans-29" d="M 513 4856 
L 1013 4856 
Q 1481 4119 1714 3412 
Q 1947 2706 1947 2009 
Q 1947 1309 1714 600 
Q 1481 -109 1013 -844 
L 513 -844 
Q 928 -128 1133 580 
Q 1338 1288 1338 2009 
Q 1338 2731 1133 3434 
Q 928 4138 513 4856 
z
" transform="scale(0.015625)"/>
      </defs>
      <use xlink:href="#DejaVuSans-41"/>
      <use xlink:href="#DejaVuSans-6e" x="68.408203"/>
      <use xlink:href="#DejaVuSans-67" x="131.787109"/>
      <use xlink:href="#DejaVuSans-6c" x="195.263672"/>
      <use xlink:href="#DejaVuSans-65" x="223.046875"/>
      <use xlink:href="#DejaVuSans-20" x="284.570312"/>
      <use xlink:href="#DejaVuSans-77" x="316.357422"/>
      <use xlink:href="#DejaVuSans-69" x="398.144531"/>
      <use xlink:href="#DejaVuSans-74" x="425.927734"/>
      <use xlink:href="#DejaVuSans-68" x="465.136719"/>
      <use xlink:href="#DejaVuSans-20" x="528.515625"/>
      <use xlink:href="#DejaVuSans-6e" x="560.302734"/>
      <use xlink:href="#DejaVuSans-6f" x="623.681641"/>
      <use xlink:href="#DejaVuSans-72" x="684.863281"/>
      <use xlink:href="#DejaVuSans-6d" x="724.226562"/>
      <use xlink:href="#DejaVuSans-61" x="821.638672"/>
      <use xlink:href="#DejaVuSans-6c" x="882.917969"/>
      <use xlink:href="#DejaVuSans-20" x="910.701172"/>
      <use xlink:href="#DejaVuSans-28" x="942.488281"/>
      <use xlink:href="#DejaVuSans-72" x="981.501953"/>
      <use xlink:href="#DejaVuSans-61" x="1022.615234"/>
      <use xlink:href="#DejaVuSans-64" x="1083.894531"/>
      <use xlink:href="#DejaVuSans-29" x="1147.371094"/>
     </g>
    </g>
   </g>
   <g id="matplotlib.axis_2">
    <g id="ytick_1">
     <g id="line2d_10">
      <defs>
       <path id="mbcc0c4bf1e" d="M 0 0 
L -3.5 0 
" style="stroke: #000000; stroke-width: 0.8"/>
      </defs>
      <g>
       <use xlink:href="#mbcc0c4bf1e" x="43.78125" y="224.64" style="stroke: #000000; stroke-width: 0.8"/>
      </g>
     </g>
     <g id="text_11">
      <!-- 0.0 -->
      <g transform="translate(20.878125 228.439219)scale(0.1 -0.1)">
       <use xlink:href="#DejaVuSans-30"/>
       <use xlink:href="#DejaVuSans-2e" x="63.623047"/>
       <use xlink:href="#DejaVuSans-30" x="95.410156"/>
      </g>
     </g>
    </g>
    <g id="ytick_2">
     <g id="line2d_11">
      <g>
       <use xlink:href="#mbcc0c4bf1e" x="43.78125" y="187.220815" style="stroke: #000000; stroke-width: 0.8"/>
      </g>
     </g>
     <g id="text_12">
      <!-- 0.2 -->
      <g transform="translate(20.878125 191.020034)scale(0.1 -0.1)">
       <use xlink:href="#DejaVuSans-30"/>
       <use xlink:href="#DejaVuSans-2e" x="63.623047"/>
       <use xlink:href="#DejaVuSans-32" x="95.410156"/>
      </g>
     </g>
    </g>
    <g id="ytick_3">
     <g id="line2d_12">
      <g>
       <use xlink:href="#mbcc0c4bf1e" x="43.78125" y="149.801631" style="stroke: #000000; stroke-width: 0.8"/>
      </g>
     </g>
     <g id="text_13">
      <!-- 0.4 -->
      <g transform="translate(20.878125 153.60085)scale(0.1 -0.1)">
       <use xlink:href="#DejaVuSans-30"/>
       <use xlink:href="#DejaVuSans-2e" x="63.623047"/>
       <use xlink:href="#DejaVuSans-34" x="95.410156"/>
      </g>
     </g>
    </g>
    <g id="ytick_4">
     <g id="line2d_13">
      <g>
       <use xlink:href="#mbcc0c4bf1e" x="43.78125" y="112.382446" style="stroke: #000000; stroke-width: 0.8"/>
      </g>
     </g>
     <g id="text_14">
      <!-- 0.6 -->
      <g transform="translate(20.878125 116.181665)scale(0.1 -0.1)">
       <use xlink:href="#DejaVuSans-30"/>
       <use xlink:href="#DejaVuSans-2e" x="63.623047"/>
       <use xlink:href="#DejaVuSans-36" x="95.410156"/>
      </g>
     </g>
    </g>
    <g id="ytick_5">
     <g id="line2d_14">
      <g>
       <use xlink:href="#mbcc0c4bf1e" x="43.78125" y="74.963262" style="stroke: #000000; stroke-width: 0.8"/>
      </g>
     </g>
     <g id="text_15">
      <!-- 0.8 -->
      <g transform="translate(20.878125 78.762481)scale(0.1 -0.1)">
       <use xlink:href="#DejaVuSans-30"/>
       <use xlink:href="#DejaVuSans-2e" x="63.623047"/>
       <use xlink:href="#DejaVuSans-38" x="95.410156"/>
      </g>
     </g>
    </g>
    <g id="ytick_6">
     <g id="line2d_15">
      <g>
       <use xlink:href="#mbcc0c4bf1e" x="43.78125" y="37.544077" style="stroke: #000000; stroke-width: 0.8"/>
      </g>
     </g>
     <g id="text_16">
      <!-- 1.0 -->
      <g transform="translate(20.878125 41.343296)scale(0.1 -0.1)">
       <use xlink:href="#DejaVuSans-31"/>
       <use xlink:href="#DejaVuSans-2e" x="63.623047"/>
       <use xlink:href="#DejaVuSans-30" x="95.410156"/>
      </g>
     </g>
    </g>
    <g id="text_17">
     <!-- Probability density -->
     <g transform="translate(14.798438 162.270781)rotate(-90)scale(0.1 -0.1)">
      <defs>
       <path id="DejaVuSans-50" d="M 1259 4147 
L 1259 2394 
L 2053 2394 
Q 2494 2394 2734 2622 
Q 2975 2850 2975 3272 
Q 2975 3691 2734 3919 
Q 2494 4147 2053 4147 
L 1259 4147 
z
M 628 4666 
L 2053 4666 
Q 2838 4666 3239 4311 
Q 3641 3956 3641 3272 
Q 3641 2581 3239 2228 
Q 2838 1875 2053 1875 
L 1259 1875 
L 1259 0 
L 628 0 
L 628 4666 
z
" transform="scale(0.015625)"/>
       <path id="DejaVuSans-62" d="M 3116 1747 
Q 3116 2381 2855 2742 
Q 2594 3103 2138 3103 
Q 1681 3103 1420 2742 
Q 1159 2381 1159 1747 
Q 1159 1113 1420 752 
Q 1681 391 2138 391 
Q 2594 391 2855 752 
Q 3116 1113 3116 1747 
z
M 1159 2969 
Q 1341 3281 1617 3432 
Q 1894 3584 2278 3584 
Q 2916 3584 3314 3078 
Q 3713 2572 3713 1747 
Q 3713 922 3314 415 
Q 2916 -91 2278 -91 
Q 1894 -91 1617 61 
Q 1341 213 1159 525 
L 1159 0 
L 581 0 
L 581 4863 
L 1159 4863 
L 1159 2969 
z
" transform="scale(0.015625)"/>
       <path id="DejaVuSans-79" d="M 2059 -325 
Q 1816 -950 1584 -1140 
Q 1353 -1331 966 -1331 
L 506 -1331 
L 506 -850 
L 844 -850 
Q 1081 -850 1212 -737 
Q 1344 -625 1503 -206 
L 1606 56 
L 191 3500 
L 800 3500 
L 1894 763 
L 2988 3500 
L 3597 3500 
L 2059 -325 
z
" transform="scale(0.015625)"/>
       <path id="DejaVuSans-73" d="M 2834 3397 
L 2834 2853 
Q 2591 2978 2328 3040 
Q 2066 3103 1784 3103 
Q 1356 3103 1142 2972 
Q 928 2841 928 2578 
Q 928 2378 1081 2264 
Q 1234 2150 1697 2047 
L 1894 2003 
Q 2506 1872 2764 1633 
Q 3022 1394 3022 966 
Q 3022 478 2636 193 
Q 2250 -91 1575 -91 
Q 1294 -91 989 -36 
Q 684 19 347 128 
L 347 722 
Q 666 556 975 473 
Q 1284 391 1588 391 
Q 1994 391 2212 530 
Q 2431 669 2431 922 
Q 2431 1156 2273 1281 
Q 2116 1406 1581 1522 
L 1381 1569 
Q 847 1681 609 1914 
Q 372 2147 372 2553 
Q 372 3047 722 3315 
Q 1072 3584 1716 3584 
Q 2034 3584 2315 3537 
Q 2597 3491 2834 3397 
z
" transform="scale(0.015625)"/>
      </defs>
      <use xlink:href="#DejaVuSans-50"/>
      <use xlink:href="#DejaVuSans-72" x="58.552734"/>
      <use xlink:href="#DejaVuSans-6f" x="97.416016"/>
      <use xlink:href="#DejaVuSans-62" x="158.597656"/>
      <use xlink:href="#DejaVuSans-61" x="222.074219"/>
      <use xlink:href="#DejaVuSans-62" x="283.353516"/>
      <use xlink:href="#DejaVuSans-69" x="346.830078"/>
      <use xlink:href="#DejaVuSans-6c" x="374.613281"/>
      <use xlink:href="#DejaVuSans-69" x="402.396484"/>
      <use xlink:href="#DejaVuSans-74" x="430.179688"/>
      <use xlink:href="#DejaVuSans-79" x="469.388672"/>
      <use xlink:href="#DejaVuSans-20" x="528.568359"/>
      <use xlink:href="#DejaVuSans-64" x="560.355469"/>
      <use xlink:href="#DejaVuSans-65" x="623.832031"/>
      <use xlink:href="#DejaVuSans-6e" x="685.355469"/>
      <use xlink:href="#DejaVuSans-73" x="748.734375"/>
      <use xlink:href="#DejaVuSans-69" x="800.833984"/>
      <use xlink:href="#DejaVuSans-74" x="828.617188"/>
      <use xlink:href="#DejaVuSans-79" x="867.826172"/>
     </g>
    </g>
   </g>
   <g id="line2d_16">
    <path d="M 58.999432 224.64 
L 77.888867 188.391895 
L 87.942921 169.572833 
L 96.473633 154.061943 
L 104.090341 140.671503 
L 111.097712 128.808546 
L 117.495746 118.41328 
L 123.589112 108.942934 
L 129.37781 100.369324 
L 134.86184 92.655601 
L 140.041201 85.758221 
L 144.915894 79.628736 
L 149.790587 73.866297 
L 154.360611 68.810344 
L 158.625967 64.404018 
L 162.891324 60.308229 
L 167.15668 56.530916 
L 171.117368 53.314986 
L 175.078056 50.385352 
L 179.038744 47.74691 
L 182.694764 45.5737 
L 186.350783 43.655463 
L 190.006803 41.99493 
L 193.662822 40.594466 
L 197.014174 39.540879 
L 200.365525 38.708763 
L 203.716877 38.099112 
L 207.068228 37.712657 
L 210.419579 37.549859 
L 213.770931 37.610914 
L 217.122282 37.895748 
L 220.473633 38.404021 
L 223.824985 39.135123 
L 227.176336 40.088182 
L 230.527687 41.262056 
L 233.879039 42.655341 
L 237.535058 44.423559 
L 241.191078 46.448387 
L 244.847098 48.726943 
L 248.503117 51.255981 
L 252.463805 54.27425 
L 256.424493 57.577213 
L 260.385181 61.159349 
L 264.650537 65.32237 
L 268.915894 69.79415 
L 273.485918 74.918111 
L 278.055943 80.375159 
L 282.930636 86.549452 
L 288.109997 93.492244 
L 293.289358 100.80977 
L 298.773388 108.942934 
L 304.562085 117.929468 
L 310.655451 127.799794 
L 317.358154 139.09791 
L 324.365525 151.346285 
L 332.286901 165.650351 
L 341.42695 182.638573 
L 352.699678 204.088689 
L 363.363068 224.64 
L 363.363068 224.64 
" clip-path="url(#pa79f561108)" style="fill: none; stroke: #ff7f0e; stroke-width: 1.5; stroke-linecap: square"/>
   </g>
   <g id="patch_203">
    <path d="M 43.78125 224.64 
L 43.78125 7.2 
" style="fill: none; stroke: #000000; stroke-width: 0.8; stroke-linejoin: miter; stroke-linecap: square"/>
   </g>
   <g id="patch_204">
    <path d="M 378.58125 224.64 
L 378.58125 7.2 
" style="fill: none; stroke: #000000; stroke-width: 0.8; stroke-linejoin: miter; stroke-linecap: square"/>
   </g>
   <g id="patch_205">
    <path d="M 43.78125 224.64 
L 378.58125 224.64 
" style="fill: none; stroke: #000000; stroke-width: 0.8; stroke-linejoin: miter; stroke-linecap: square"/>
   </g>
   <g id="patch_206">
    <path d="M 43.78125 7.2 
L 378.58125 7.2 
" style="fill: none; stroke: #000000; stroke-width: 0.8; stroke-linejoin: miter; stroke-linecap: square"/>
   </g>
  </g>
 </g>
 <defs>
  <clipPath id="pa79f561108">
   <rect x="43.78125" y="7.2" width="334.8" height="217.44"/>
  </clipPath>
 </defs>
</svg>
