<?xml version="1.0" encoding="utf-8" standalone="no"?>
<!DOCTYPE svg PUBLIC "-//W3C//DTD SVG 1.1//EN"
  "http://www.w3.org/Graphics/SVG/1.1/DTD/svg11.dtd">
<svg xmlns:xlink="http://www.w3.org/1999/xlink" width="385.78125pt" height="262.19625pt" viewBox="0 0 385.78125 262.19625" xmlns="http://www.w3.org/2000/svg" version="1.1">
 <metadata>
  <rdf:RDF xmlns:dc="http://purl.org/dc/elements/1.1/" xmlns:cc="http://creativecommons.org/ns#" xmlns:rdf="http://www.w3.org/1999/02/22-rdf-syntax-ns#">
   <cc:Work>
    <dc:type rdf:resource="http://purl.org/dc/dcmitype/StillImage"/>
    <dc:date>2022-10-25T14:10:21.995219</dc:date>
    <dc:format>image/svg+xml</dc:format>
    <dc:creator>
     <cc:Agent>
      <dc:title>Matplotlib v3.5.2, https://matplotlib.org/</dc:title>
     </cc:Agent>
    </dc:creator>
   </cc:Work>
  </rdf:RDF>
 </metadata>
 <defs>
  <style type="text/css">*{stroke-linejoin: round; stroke-linecap: butt}</style>
 </defs>
 <g id="figure_1">
  <g id="patch_1">
   <path d="M 0 262.19625 
L 385.78125 262.19625 
L 385.78125 0 
L 0 0 
L 0 262.19625 
z
" style="fill: none"/>
  </g>
  <g id="axes_1">
   <g id="patch_2">
    <path d="M 43.78125 224.64 
L 378.58125 224.64 
L 378.58125 7.2 
L 43.78125 7.2 
z
" style="fill: #ffffff"/>
   </g>
   <g id="patch_3">
    <path d="M 60.577009 224.64 
L 62.090904 224.64 
L 62.090904 221.268837 
L 60.577009 221.268837 
z
" clip-path="url(#p7612879d7f)" style="fill: #1f77b4"/>
   </g>
   <g id="patch_4">
    <path d="M 62.090904 224.64 
L 63.604799 224.64 
L 63.604799 223.195216 
L 62.090904 223.195216 
z
" clip-path="url(#p7612879d7f)" style="fill: #1f77b4"/>
   </g>
   <g id="patch_5">
    <path d="M 63.604799 224.64 
L 65.118694 224.64 
L 65.118694 219.824053 
L 63.604799 219.824053 
z
" clip-path="url(#p7612879d7f)" style="fill: #1f77b4"/>
   </g>
   <g id="patch_6">
    <path d="M 65.118694 224.64 
L 66.632589 224.64 
L 66.632589 218.379269 
L 65.118694 218.379269 
z
" clip-path="url(#p7612879d7f)" style="fill: #1f77b4"/>
   </g>
   <g id="patch_7">
    <path d="M 66.632589 224.64 
L 68.146484 224.64 
L 68.146484 220.305648 
L 66.632589 220.305648 
z
" clip-path="url(#p7612879d7f)" style="fill: #1f77b4"/>
   </g>
   <g id="patch_8">
    <path d="M 68.146484 224.64 
L 69.66038 224.64 
L 69.66038 219.342458 
L 68.146484 219.342458 
z
" clip-path="url(#p7612879d7f)" style="fill: #1f77b4"/>
   </g>
   <g id="patch_9">
    <path d="M 69.66038 224.64 
L 71.174275 224.64 
L 71.174275 219.824053 
L 69.66038 219.824053 
z
" clip-path="url(#p7612879d7f)" style="fill: #1f77b4"/>
   </g>
   <g id="patch_10">
    <path d="M 71.174275 224.64 
L 72.68817 224.64 
L 72.68817 215.489701 
L 71.174275 215.489701 
z
" clip-path="url(#p7612879d7f)" style="fill: #1f77b4"/>
   </g>
   <g id="patch_11">
    <path d="M 72.68817 224.64 
L 74.202065 224.64 
L 74.202065 215.489701 
L 72.68817 215.489701 
z
" clip-path="url(#p7612879d7f)" style="fill: #1f77b4"/>
   </g>
   <g id="patch_12">
    <path d="M 74.202065 224.64 
L 75.71596 224.64 
L 75.71596 214.044917 
L 74.202065 214.044917 
z
" clip-path="url(#p7612879d7f)" style="fill: #1f77b4"/>
   </g>
   <g id="patch_13">
    <path d="M 75.71596 224.64 
L 77.229855 224.64 
L 77.229855 211.155349 
L 75.71596 211.155349 
z
" clip-path="url(#p7612879d7f)" style="fill: #1f77b4"/>
   </g>
   <g id="patch_14">
    <path d="M 77.229855 224.64 
L 78.74375 224.64 
L 78.74375 207.784186 
L 77.229855 207.784186 
z
" clip-path="url(#p7612879d7f)" style="fill: #1f77b4"/>
   </g>
   <g id="patch_15">
    <path d="M 78.74375 224.64 
L 80.257645 224.64 
L 80.257645 211.636944 
L 78.74375 211.636944 
z
" clip-path="url(#p7612879d7f)" style="fill: #1f77b4"/>
   </g>
   <g id="patch_16">
    <path d="M 80.257645 224.64 
L 81.77154 224.64 
L 81.77154 207.784186 
L 80.257645 207.784186 
z
" clip-path="url(#p7612879d7f)" style="fill: #1f77b4"/>
   </g>
   <g id="patch_17">
    <path d="M 81.77154 224.64 
L 83.285435 224.64 
L 83.285435 210.192159 
L 81.77154 210.192159 
z
" clip-path="url(#p7612879d7f)" style="fill: #1f77b4"/>
   </g>
   <g id="patch_18">
    <path d="M 83.285435 224.64 
L 84.79933 224.64 
L 84.79933 206.820997 
L 83.285435 206.820997 
z
" clip-path="url(#p7612879d7f)" style="fill: #1f77b4"/>
   </g>
   <g id="patch_19">
    <path d="M 84.79933 224.64 
L 86.313226 224.64 
L 86.313226 208.265781 
L 84.79933 208.265781 
z
" clip-path="url(#p7612879d7f)" style="fill: #1f77b4"/>
   </g>
   <g id="patch_20">
    <path d="M 86.313226 224.64 
L 87.827121 224.64 
L 87.827121 198.633887 
L 86.313226 198.633887 
z
" clip-path="url(#p7612879d7f)" style="fill: #1f77b4"/>
   </g>
   <g id="patch_21">
    <path d="M 87.827121 224.64 
L 89.341016 224.64 
L 89.341016 203.931429 
L 87.827121 203.931429 
z
" clip-path="url(#p7612879d7f)" style="fill: #1f77b4"/>
   </g>
   <g id="patch_22">
    <path d="M 89.341016 224.64 
L 90.854911 224.64 
L 90.854911 210.673754 
L 89.341016 210.673754 
z
" clip-path="url(#p7612879d7f)" style="fill: #1f77b4"/>
   </g>
   <g id="patch_23">
    <path d="M 90.854911 224.64 
L 92.368806 224.64 
L 92.368806 201.04186 
L 90.854911 201.04186 
z
" clip-path="url(#p7612879d7f)" style="fill: #1f77b4"/>
   </g>
   <g id="patch_24">
    <path d="M 92.368806 224.64 
L 93.882701 224.64 
L 93.882701 206.820997 
L 92.368806 206.820997 
z
" clip-path="url(#p7612879d7f)" style="fill: #1f77b4"/>
   </g>
   <g id="patch_25">
    <path d="M 93.882701 224.64 
L 95.396596 224.64 
L 95.396596 206.339402 
L 93.882701 206.339402 
z
" clip-path="url(#p7612879d7f)" style="fill: #1f77b4"/>
   </g>
   <g id="patch_26">
    <path d="M 95.396596 224.64 
L 96.910491 224.64 
L 96.910491 198.633887 
L 95.396596 198.633887 
z
" clip-path="url(#p7612879d7f)" style="fill: #1f77b4"/>
   </g>
   <g id="patch_27">
    <path d="M 96.910491 224.64 
L 98.424386 224.64 
L 98.424386 198.633887 
L 96.910491 198.633887 
z
" clip-path="url(#p7612879d7f)" style="fill: #1f77b4"/>
   </g>
   <g id="patch_28">
    <path d="M 98.424386 224.64 
L 99.938281 224.64 
L 99.938281 201.04186 
L 98.424386 201.04186 
z
" clip-path="url(#p7612879d7f)" style="fill: #1f77b4"/>
   </g>
   <g id="patch_29">
    <path d="M 99.938281 224.64 
L 101.452176 224.64 
L 101.452176 204.894618 
L 99.938281 204.894618 
z
" clip-path="url(#p7612879d7f)" style="fill: #1f77b4"/>
   </g>
   <g id="patch_30">
    <path d="M 101.452176 224.64 
L 102.966071 224.64 
L 102.966071 199.597076 
L 101.452176 199.597076 
z
" clip-path="url(#p7612879d7f)" style="fill: #1f77b4"/>
   </g>
   <g id="patch_31">
    <path d="M 102.966071 224.64 
L 104.479967 224.64 
L 104.479967 190.928372 
L 102.966071 190.928372 
z
" clip-path="url(#p7612879d7f)" style="fill: #1f77b4"/>
   </g>
   <g id="patch_32">
    <path d="M 104.479967 224.64 
L 105.993862 224.64 
L 105.993862 193.81794 
L 104.479967 193.81794 
z
" clip-path="url(#p7612879d7f)" style="fill: #1f77b4"/>
   </g>
   <g id="patch_33">
    <path d="M 105.993862 224.64 
L 107.507757 224.64 
L 107.507757 195.262724 
L 105.993862 195.262724 
z
" clip-path="url(#p7612879d7f)" style="fill: #1f77b4"/>
   </g>
   <g id="patch_34">
    <path d="M 107.507757 224.64 
L 109.021652 224.64 
L 109.021652 196.225914 
L 107.507757 196.225914 
z
" clip-path="url(#p7612879d7f)" style="fill: #1f77b4"/>
   </g>
   <g id="patch_35">
    <path d="M 109.021652 224.64 
L 110.535547 224.64 
L 110.535547 190.928372 
L 109.021652 190.928372 
z
" clip-path="url(#p7612879d7f)" style="fill: #1f77b4"/>
   </g>
   <g id="patch_36">
    <path d="M 110.535547 224.64 
L 112.049442 224.64 
L 112.049442 185.630831 
L 110.535547 185.630831 
z
" clip-path="url(#p7612879d7f)" style="fill: #1f77b4"/>
   </g>
   <g id="patch_37">
    <path d="M 112.049442 224.64 
L 113.563337 224.64 
L 113.563337 188.520399 
L 112.049442 188.520399 
z
" clip-path="url(#p7612879d7f)" style="fill: #1f77b4"/>
   </g>
   <g id="patch_38">
    <path d="M 113.563337 224.64 
L 115.077232 224.64 
L 115.077232 194.299535 
L 113.563337 194.299535 
z
" clip-path="url(#p7612879d7f)" style="fill: #1f77b4"/>
   </g>
   <g id="patch_39">
    <path d="M 115.077232 224.64 
L 116.591127 224.64 
L 116.591127 185.630831 
L 115.077232 185.630831 
z
" clip-path="url(#p7612879d7f)" style="fill: #1f77b4"/>
   </g>
   <g id="patch_40">
    <path d="M 116.591127 224.64 
L 118.105022 224.64 
L 118.105022 183.704452 
L 116.591127 183.704452 
z
" clip-path="url(#p7612879d7f)" style="fill: #1f77b4"/>
   </g>
   <g id="patch_41">
    <path d="M 118.105022 224.64 
L 119.618917 224.64 
L 119.618917 188.038804 
L 118.105022 188.038804 
z
" clip-path="url(#p7612879d7f)" style="fill: #1f77b4"/>
   </g>
   <g id="patch_42">
    <path d="M 119.618917 224.64 
L 121.132813 224.64 
L 121.132813 187.075615 
L 119.618917 187.075615 
z
" clip-path="url(#p7612879d7f)" style="fill: #1f77b4"/>
   </g>
   <g id="patch_43">
    <path d="M 121.132813 224.64 
L 122.646708 224.64 
L 122.646708 190.928372 
L 121.132813 190.928372 
z
" clip-path="url(#p7612879d7f)" style="fill: #1f77b4"/>
   </g>
   <g id="patch_44">
    <path d="M 122.646708 224.64 
L 124.160603 224.64 
L 124.160603 185.630831 
L 122.646708 185.630831 
z
" clip-path="url(#p7612879d7f)" style="fill: #1f77b4"/>
   </g>
   <g id="patch_45">
    <path d="M 124.160603 224.64 
L 125.674498 224.64 
L 125.674498 172.146179 
L 124.160603 172.146179 
z
" clip-path="url(#p7612879d7f)" style="fill: #1f77b4"/>
   </g>
   <g id="patch_46">
    <path d="M 125.674498 224.64 
L 127.188393 224.64 
L 127.188393 182.259668 
L 125.674498 182.259668 
z
" clip-path="url(#p7612879d7f)" style="fill: #1f77b4"/>
   </g>
   <g id="patch_47">
    <path d="M 127.188393 224.64 
L 128.702288 224.64 
L 128.702288 179.851694 
L 127.188393 179.851694 
z
" clip-path="url(#p7612879d7f)" style="fill: #1f77b4"/>
   </g>
   <g id="patch_48">
    <path d="M 128.702288 224.64 
L 130.216183 224.64 
L 130.216183 184.186047 
L 128.702288 184.186047 
z
" clip-path="url(#p7612879d7f)" style="fill: #1f77b4"/>
   </g>
   <g id="patch_49">
    <path d="M 130.216183 224.64 
L 131.730078 224.64 
L 131.730078 184.667641 
L 130.216183 184.667641 
z
" clip-path="url(#p7612879d7f)" style="fill: #1f77b4"/>
   </g>
   <g id="patch_50">
    <path d="M 131.730078 224.64 
L 133.243973 224.64 
L 133.243973 178.40691 
L 131.730078 178.40691 
z
" clip-path="url(#p7612879d7f)" style="fill: #1f77b4"/>
   </g>
   <g id="patch_51">
    <path d="M 133.243973 224.64 
L 134.757868 224.64 
L 134.757868 181.296478 
L 133.243973 181.296478 
z
" clip-path="url(#p7612879d7f)" style="fill: #1f77b4"/>
   </g>
   <g id="patch_52">
    <path d="M 134.757868 224.64 
L 136.271763 224.64 
L 136.271763 175.517342 
L 134.757868 175.517342 
z
" clip-path="url(#p7612879d7f)" style="fill: #1f77b4"/>
   </g>
   <g id="patch_53">
    <path d="M 136.271763 224.64 
L 137.785659 224.64 
L 137.785659 172.146179 
L 136.271763 172.146179 
z
" clip-path="url(#p7612879d7f)" style="fill: #1f77b4"/>
   </g>
   <g id="patch_54">
    <path d="M 137.785659 224.64 
L 139.299554 224.64 
L 139.299554 175.998937 
L 137.785659 175.998937 
z
" clip-path="url(#p7612879d7f)" style="fill: #1f77b4"/>
   </g>
   <g id="patch_55">
    <path d="M 139.299554 224.64 
L 140.813449 224.64 
L 140.813449 174.072558 
L 139.299554 174.072558 
z
" clip-path="url(#p7612879d7f)" style="fill: #1f77b4"/>
   </g>
   <g id="patch_56">
    <path d="M 140.813449 224.64 
L 142.327344 224.64 
L 142.327344 168.293422 
L 140.813449 168.293422 
z
" clip-path="url(#p7612879d7f)" style="fill: #1f77b4"/>
   </g>
   <g id="patch_57">
    <path d="M 142.327344 224.64 
L 143.841239 224.64 
L 143.841239 182.259668 
L 142.327344 182.259668 
z
" clip-path="url(#p7612879d7f)" style="fill: #1f77b4"/>
   </g>
   <g id="patch_58">
    <path d="M 143.841239 224.64 
L 145.355134 224.64 
L 145.355134 176.962126 
L 143.841239 176.962126 
z
" clip-path="url(#p7612879d7f)" style="fill: #1f77b4"/>
   </g>
   <g id="patch_59">
    <path d="M 145.355134 224.64 
L 146.869029 224.64 
L 146.869029 171.18299 
L 145.355134 171.18299 
z
" clip-path="url(#p7612879d7f)" style="fill: #1f77b4"/>
   </g>
   <g id="patch_60">
    <path d="M 146.869029 224.64 
L 148.382924 224.64 
L 148.382924 167.811827 
L 146.869029 167.811827 
z
" clip-path="url(#p7612879d7f)" style="fill: #1f77b4"/>
   </g>
   <g id="patch_61">
    <path d="M 148.382924 224.64 
L 149.896819 224.64 
L 149.896819 165.403854 
L 148.382924 165.403854 
z
" clip-path="url(#p7612879d7f)" style="fill: #1f77b4"/>
   </g>
   <g id="patch_62">
    <path d="M 149.896819 224.64 
L 151.410714 224.64 
L 151.410714 169.738206 
L 149.896819 169.738206 
z
" clip-path="url(#p7612879d7f)" style="fill: #1f77b4"/>
   </g>
   <g id="patch_63">
    <path d="M 151.410714 224.64 
L 152.924609 224.64 
L 152.924609 167.330233 
L 151.410714 167.330233 
z
" clip-path="url(#p7612879d7f)" style="fill: #1f77b4"/>
   </g>
   <g id="patch_64">
    <path d="M 152.924609 224.64 
L 154.438504 224.64 
L 154.438504 162.99588 
L 152.924609 162.99588 
z
" clip-path="url(#p7612879d7f)" style="fill: #1f77b4"/>
   </g>
   <g id="patch_65">
    <path d="M 154.438504 224.64 
L 155.9524 224.64 
L 155.9524 160.587907 
L 154.438504 160.587907 
z
" clip-path="url(#p7612879d7f)" style="fill: #1f77b4"/>
   </g>
   <g id="patch_66">
    <path d="M 155.9524 224.64 
L 157.466295 224.64 
L 157.466295 157.698339 
L 155.9524 157.698339 
z
" clip-path="url(#p7612879d7f)" style="fill: #1f77b4"/>
   </g>
   <g id="patch_67">
    <path d="M 157.466295 224.64 
L 158.98019 224.64 
L 158.98019 156.73515 
L 157.466295 156.73515 
z
" clip-path="url(#p7612879d7f)" style="fill: #1f77b4"/>
   </g>
   <g id="patch_68">
    <path d="M 158.98019 224.64 
L 160.494085 224.64 
L 160.494085 160.106312 
L 158.98019 160.106312 
z
" clip-path="url(#p7612879d7f)" style="fill: #1f77b4"/>
   </g>
   <g id="patch_69">
    <path d="M 160.494085 224.64 
L 162.00798 224.64 
L 162.00798 157.698339 
L 160.494085 157.698339 
z
" clip-path="url(#p7612879d7f)" style="fill: #1f77b4"/>
   </g>
   <g id="patch_70">
    <path d="M 162.00798 224.64 
L 163.521875 224.64 
L 163.521875 162.514286 
L 162.00798 162.514286 
z
" clip-path="url(#p7612879d7f)" style="fill: #1f77b4"/>
   </g>
   <g id="patch_71">
    <path d="M 163.521875 224.64 
L 165.03577 224.64 
L 165.03577 155.290365 
L 163.521875 155.290365 
z
" clip-path="url(#p7612879d7f)" style="fill: #1f77b4"/>
   </g>
   <g id="patch_72">
    <path d="M 165.03577 224.64 
L 166.549665 224.64 
L 166.549665 155.290365 
L 165.03577 155.290365 
z
" clip-path="url(#p7612879d7f)" style="fill: #1f77b4"/>
   </g>
   <g id="patch_73">
    <path d="M 166.549665 224.64 
L 168.06356 224.64 
L 168.06356 158.661528 
L 166.549665 158.661528 
z
" clip-path="url(#p7612879d7f)" style="fill: #1f77b4"/>
   </g>
   <g id="patch_74">
    <path d="M 168.06356 224.64 
L 169.577455 224.64 
L 169.577455 159.143123 
L 168.06356 159.143123 
z
" clip-path="url(#p7612879d7f)" style="fill: #1f77b4"/>
   </g>
   <g id="patch_75">
    <path d="M 169.577455 224.64 
L 171.09135 224.64 
L 171.09135 155.290365 
L 169.577455 155.290365 
z
" clip-path="url(#p7612879d7f)" style="fill: #1f77b4"/>
   </g>
   <g id="patch_76">
    <path d="M 171.09135 224.64 
L 172.605246 224.64 
L 172.605246 147.58485 
L 171.09135 147.58485 
z
" clip-path="url(#p7612879d7f)" style="fill: #1f77b4"/>
   </g>
   <g id="patch_77">
    <path d="M 172.605246 224.64 
L 174.119141 224.64 
L 174.119141 147.103256 
L 172.605246 147.103256 
z
" clip-path="url(#p7612879d7f)" style="fill: #1f77b4"/>
   </g>
   <g id="patch_78">
    <path d="M 174.119141 224.64 
L 175.633036 224.64 
L 175.633036 158.179934 
L 174.119141 158.179934 
z
" clip-path="url(#p7612879d7f)" style="fill: #1f77b4"/>
   </g>
   <g id="patch_79">
    <path d="M 175.633036 224.64 
L 177.146931 224.64 
L 177.146931 152.882392 
L 175.633036 152.882392 
z
" clip-path="url(#p7612879d7f)" style="fill: #1f77b4"/>
   </g>
   <g id="patch_80">
    <path d="M 177.146931 224.64 
L 178.660826 224.64 
L 178.660826 154.808771 
L 177.146931 154.808771 
z
" clip-path="url(#p7612879d7f)" style="fill: #1f77b4"/>
   </g>
   <g id="patch_81">
    <path d="M 178.660826 224.64 
L 180.174721 224.64 
L 180.174721 148.066445 
L 178.660826 148.066445 
z
" clip-path="url(#p7612879d7f)" style="fill: #1f77b4"/>
   </g>
   <g id="patch_82">
    <path d="M 180.174721 224.64 
L 181.688616 224.64 
L 181.688616 143.250498 
L 180.174721 143.250498 
z
" clip-path="url(#p7612879d7f)" style="fill: #1f77b4"/>
   </g>
   <g id="patch_83">
    <path d="M 181.688616 224.64 
L 183.202511 224.64 
L 183.202511 143.732093 
L 181.688616 143.732093 
z
" clip-path="url(#p7612879d7f)" style="fill: #1f77b4"/>
   </g>
   <g id="patch_84">
    <path d="M 183.202511 224.64 
L 184.716406 224.64 
L 184.716406 142.768904 
L 183.202511 142.768904 
z
" clip-path="url(#p7612879d7f)" style="fill: #1f77b4"/>
   </g>
   <g id="patch_85">
    <path d="M 184.716406 224.64 
L 186.230301 224.64 
L 186.230301 147.58485 
L 184.716406 147.58485 
z
" clip-path="url(#p7612879d7f)" style="fill: #1f77b4"/>
   </g>
   <g id="patch_86">
    <path d="M 186.230301 224.64 
L 187.744196 224.64 
L 187.744196 146.140066 
L 186.230301 146.140066 
z
" clip-path="url(#p7612879d7f)" style="fill: #1f77b4"/>
   </g>
   <g id="patch_87">
    <path d="M 187.744196 224.64 
L 189.258091 224.64 
L 189.258091 141.32412 
L 187.744196 141.32412 
z
" clip-path="url(#p7612879d7f)" style="fill: #1f77b4"/>
   </g>
   <g id="patch_88">
    <path d="M 189.258091 224.64 
L 190.771987 224.64 
L 190.771987 135.063389 
L 189.258091 135.063389 
z
" clip-path="url(#p7612879d7f)" style="fill: #1f77b4"/>
   </g>
   <g id="patch_89">
    <path d="M 190.771987 224.64 
L 192.285882 224.64 
L 192.285882 140.36093 
L 190.771987 140.36093 
z
" clip-path="url(#p7612879d7f)" style="fill: #1f77b4"/>
   </g>
   <g id="patch_90">
    <path d="M 192.285882 224.64 
L 193.799777 224.64 
L 193.799777 141.32412 
L 192.285882 141.32412 
z
" clip-path="url(#p7612879d7f)" style="fill: #1f77b4"/>
   </g>
   <g id="patch_91">
    <path d="M 193.799777 224.64 
L 195.313672 224.64 
L 195.313672 143.732093 
L 193.799777 143.732093 
z
" clip-path="url(#p7612879d7f)" style="fill: #1f77b4"/>
   </g>
   <g id="patch_92">
    <path d="M 195.313672 224.64 
L 196.827567 224.64 
L 196.827567 130.247442 
L 195.313672 130.247442 
z
" clip-path="url(#p7612879d7f)" style="fill: #1f77b4"/>
   </g>
   <g id="patch_93">
    <path d="M 196.827567 224.64 
L 198.341462 224.64 
L 198.341462 132.173821 
L 196.827567 132.173821 
z
" clip-path="url(#p7612879d7f)" style="fill: #1f77b4"/>
   </g>
   <g id="patch_94">
    <path d="M 198.341462 224.64 
L 199.855357 224.64 
L 199.855357 134.581794 
L 198.341462 134.581794 
z
" clip-path="url(#p7612879d7f)" style="fill: #1f77b4"/>
   </g>
   <g id="patch_95">
    <path d="M 199.855357 224.64 
L 201.369252 224.64 
L 201.369252 139.879336 
L 199.855357 139.879336 
z
" clip-path="url(#p7612879d7f)" style="fill: #1f77b4"/>
   </g>
   <g id="patch_96">
    <path d="M 201.369252 224.64 
L 202.883147 224.64 
L 202.883147 140.36093 
L 201.369252 140.36093 
z
" clip-path="url(#p7612879d7f)" style="fill: #1f77b4"/>
   </g>
   <g id="patch_97">
    <path d="M 202.883147 224.64 
L 204.397042 224.64 
L 204.397042 139.397741 
L 202.883147 139.397741 
z
" clip-path="url(#p7612879d7f)" style="fill: #1f77b4"/>
   </g>
   <g id="patch_98">
    <path d="M 204.397042 224.64 
L 205.910937 224.64 
L 205.910937 123.505116 
L 204.397042 123.505116 
z
" clip-path="url(#p7612879d7f)" style="fill: #1f77b4"/>
   </g>
   <g id="patch_99">
    <path d="M 205.910937 224.64 
L 207.424833 224.64 
L 207.424833 136.026578 
L 205.910937 136.026578 
z
" clip-path="url(#p7612879d7f)" style="fill: #1f77b4"/>
   </g>
   <g id="patch_100">
    <path d="M 207.424833 224.64 
L 208.938728 224.64 
L 208.938728 142.768904 
L 207.424833 142.768904 
z
" clip-path="url(#p7612879d7f)" style="fill: #1f77b4"/>
   </g>
   <g id="patch_101">
    <path d="M 208.938728 224.64 
L 210.452623 224.64 
L 210.452623 131.210631 
L 208.938728 131.210631 
z
" clip-path="url(#p7612879d7f)" style="fill: #1f77b4"/>
   </g>
   <g id="patch_102">
    <path d="M 210.452623 224.64 
L 211.966518 224.64 
L 211.966518 139.879336 
L 210.452623 139.879336 
z
" clip-path="url(#p7612879d7f)" style="fill: #1f77b4"/>
   </g>
   <g id="patch_103">
    <path d="M 211.966518 224.64 
L 213.480413 224.64 
L 213.480413 120.615548 
L 211.966518 120.615548 
z
" clip-path="url(#p7612879d7f)" style="fill: #1f77b4"/>
   </g>
   <g id="patch_104">
    <path d="M 213.480413 224.64 
L 214.994308 224.64 
L 214.994308 131.210631 
L 213.480413 131.210631 
z
" clip-path="url(#p7612879d7f)" style="fill: #1f77b4"/>
   </g>
   <g id="patch_105">
    <path d="M 214.994308 224.64 
L 216.508203 224.64 
L 216.508203 122.060332 
L 214.994308 122.060332 
z
" clip-path="url(#p7612879d7f)" style="fill: #1f77b4"/>
   </g>
   <g id="patch_106">
    <path d="M 216.508203 224.64 
L 218.022098 224.64 
L 218.022098 119.170764 
L 216.508203 119.170764 
z
" clip-path="url(#p7612879d7f)" style="fill: #1f77b4"/>
   </g>
   <g id="patch_107">
    <path d="M 218.022098 224.64 
L 219.535993 224.64 
L 219.535993 123.986711 
L 218.022098 123.986711 
z
" clip-path="url(#p7612879d7f)" style="fill: #1f77b4"/>
   </g>
   <g id="patch_108">
    <path d="M 219.535993 224.64 
L 221.049888 224.64 
L 221.049888 125.91309 
L 219.535993 125.91309 
z
" clip-path="url(#p7612879d7f)" style="fill: #1f77b4"/>
   </g>
   <g id="patch_109">
    <path d="M 221.049888 224.64 
L 222.563783 224.64 
L 222.563783 123.505116 
L 221.049888 123.505116 
z
" clip-path="url(#p7612879d7f)" style="fill: #1f77b4"/>
   </g>
   <g id="patch_110">
    <path d="M 222.563783 224.64 
L 224.077679 224.64 
L 224.077679 123.505116 
L 222.563783 123.505116 
z
" clip-path="url(#p7612879d7f)" style="fill: #1f77b4"/>
   </g>
   <g id="patch_111">
    <path d="M 224.077679 224.64 
L 225.591574 224.64 
L 225.591574 124.9499 
L 224.077679 124.9499 
z
" clip-path="url(#p7612879d7f)" style="fill: #1f77b4"/>
   </g>
   <g id="patch_112">
    <path d="M 225.591574 224.64 
L 227.105469 224.64 
L 227.105469 121.097143 
L 225.591574 121.097143 
z
" clip-path="url(#p7612879d7f)" style="fill: #1f77b4"/>
   </g>
   <g id="patch_113">
    <path d="M 227.105469 224.64 
L 228.619364 224.64 
L 228.619364 121.097143 
L 227.105469 121.097143 
z
" clip-path="url(#p7612879d7f)" style="fill: #1f77b4"/>
   </g>
   <g id="patch_114">
    <path d="M 228.619364 224.64 
L 230.133259 224.64 
L 230.133259 112.428439 
L 228.619364 112.428439 
z
" clip-path="url(#p7612879d7f)" style="fill: #1f77b4"/>
   </g>
   <g id="patch_115">
    <path d="M 230.133259 224.64 
L 231.647154 224.64 
L 231.647154 107.130897 
L 230.133259 107.130897 
z
" clip-path="url(#p7612879d7f)" style="fill: #1f77b4"/>
   </g>
   <g id="patch_116">
    <path d="M 231.647154 224.64 
L 233.161049 224.64 
L 233.161049 112.910033 
L 231.647154 112.910033 
z
" clip-path="url(#p7612879d7f)" style="fill: #1f77b4"/>
   </g>
   <g id="patch_117">
    <path d="M 233.161049 224.64 
L 234.674944 224.64 
L 234.674944 116.762791 
L 233.161049 116.762791 
z
" clip-path="url(#p7612879d7f)" style="fill: #1f77b4"/>
   </g>
   <g id="patch_118">
    <path d="M 234.674944 224.64 
L 236.188839 224.64 
L 236.188839 112.910033 
L 234.674944 112.910033 
z
" clip-path="url(#p7612879d7f)" style="fill: #1f77b4"/>
   </g>
   <g id="patch_119">
    <path d="M 236.188839 224.64 
L 237.702734 224.64 
L 237.702734 101.351761 
L 236.188839 101.351761 
z
" clip-path="url(#p7612879d7f)" style="fill: #1f77b4"/>
   </g>
   <g id="patch_120">
    <path d="M 237.702734 224.64 
L 239.216629 224.64 
L 239.216629 115.799601 
L 237.702734 115.799601 
z
" clip-path="url(#p7612879d7f)" style="fill: #1f77b4"/>
   </g>
   <g id="patch_121">
    <path d="M 239.216629 224.64 
L 240.730524 224.64 
L 240.730524 110.983654 
L 239.216629 110.983654 
z
" clip-path="url(#p7612879d7f)" style="fill: #1f77b4"/>
   </g>
   <g id="patch_122">
    <path d="M 240.730524 224.64 
L 242.24442 224.64 
L 242.24442 126.876279 
L 240.730524 126.876279 
z
" clip-path="url(#p7612879d7f)" style="fill: #1f77b4"/>
   </g>
   <g id="patch_123">
    <path d="M 242.24442 224.64 
L 243.758315 224.64 
L 243.758315 118.207575 
L 242.24442 118.207575 
z
" clip-path="url(#p7612879d7f)" style="fill: #1f77b4"/>
   </g>
   <g id="patch_124">
    <path d="M 243.758315 224.64 
L 245.27221 224.64 
L 245.27221 110.50206 
L 243.758315 110.50206 
z
" clip-path="url(#p7612879d7f)" style="fill: #1f77b4"/>
   </g>
   <g id="patch_125">
    <path d="M 245.27221 224.64 
L 246.786105 224.64 
L 246.786105 93.646246 
L 245.27221 93.646246 
z
" clip-path="url(#p7612879d7f)" style="fill: #1f77b4"/>
   </g>
   <g id="patch_126">
    <path d="M 246.786105 224.64 
L 248.3 224.64 
L 248.3 110.020465 
L 246.786105 110.020465 
z
" clip-path="url(#p7612879d7f)" style="fill: #1f77b4"/>
   </g>
   <g id="patch_127">
    <path d="M 248.3 224.64 
L 249.813895 224.64 
L 249.813895 108.575681 
L 248.3 108.575681 
z
" clip-path="url(#p7612879d7f)" style="fill: #1f77b4"/>
   </g>
   <g id="patch_128">
    <path d="M 249.813895 224.64 
L 251.32779 224.64 
L 251.32779 109.53887 
L 249.813895 109.53887 
z
" clip-path="url(#p7612879d7f)" style="fill: #1f77b4"/>
   </g>
   <g id="patch_129">
    <path d="M 251.32779 224.64 
L 252.841685 224.64 
L 252.841685 101.351761 
L 251.32779 101.351761 
z
" clip-path="url(#p7612879d7f)" style="fill: #1f77b4"/>
   </g>
   <g id="patch_130">
    <path d="M 252.841685 224.64 
L 254.35558 224.64 
L 254.35558 99.906977 
L 252.841685 99.906977 
z
" clip-path="url(#p7612879d7f)" style="fill: #1f77b4"/>
   </g>
   <g id="patch_131">
    <path d="M 254.35558 224.64 
L 255.869475 224.64 
L 255.869475 107.130897 
L 254.35558 107.130897 
z
" clip-path="url(#p7612879d7f)" style="fill: #1f77b4"/>
   </g>
   <g id="patch_132">
    <path d="M 255.869475 224.64 
L 257.38337 224.64 
L 257.38337 99.906977 
L 255.869475 99.906977 
z
" clip-path="url(#p7612879d7f)" style="fill: #1f77b4"/>
   </g>
   <g id="patch_133">
    <path d="M 257.38337 224.64 
L 258.897266 224.64 
L 258.897266 101.351761 
L 257.38337 101.351761 
z
" clip-path="url(#p7612879d7f)" style="fill: #1f77b4"/>
   </g>
   <g id="patch_134">
    <path d="M 258.897266 224.64 
L 260.411161 224.64 
L 260.411161 81.606379 
L 258.897266 81.606379 
z
" clip-path="url(#p7612879d7f)" style="fill: #1f77b4"/>
   </g>
   <g id="patch_135">
    <path d="M 260.411161 224.64 
L 261.925056 224.64 
L 261.925056 88.348704 
L 260.411161 88.348704 
z
" clip-path="url(#p7612879d7f)" style="fill: #1f77b4"/>
   </g>
   <g id="patch_136">
    <path d="M 261.925056 224.64 
L 263.438951 224.64 
L 263.438951 91.238272 
L 261.925056 91.238272 
z
" clip-path="url(#p7612879d7f)" style="fill: #1f77b4"/>
   </g>
   <g id="patch_137">
    <path d="M 263.438951 224.64 
L 264.952846 224.64 
L 264.952846 99.425382 
L 263.438951 99.425382 
z
" clip-path="url(#p7612879d7f)" style="fill: #1f77b4"/>
   </g>
   <g id="patch_138">
    <path d="M 264.952846 224.64 
L 266.466741 224.64 
L 266.466741 93.164651 
L 264.952846 93.164651 
z
" clip-path="url(#p7612879d7f)" style="fill: #1f77b4"/>
   </g>
   <g id="patch_139">
    <path d="M 266.466741 224.64 
L 267.980636 224.64 
L 267.980636 108.094086 
L 266.466741 108.094086 
z
" clip-path="url(#p7612879d7f)" style="fill: #1f77b4"/>
   </g>
   <g id="patch_140">
    <path d="M 267.980636 224.64 
L 269.494531 224.64 
L 269.494531 98.462193 
L 267.980636 98.462193 
z
" clip-path="url(#p7612879d7f)" style="fill: #1f77b4"/>
   </g>
   <g id="patch_141">
    <path d="M 269.494531 224.64 
L 271.008426 224.64 
L 271.008426 98.462193 
L 269.494531 98.462193 
z
" clip-path="url(#p7612879d7f)" style="fill: #1f77b4"/>
   </g>
   <g id="patch_142">
    <path d="M 271.008426 224.64 
L 272.522321 224.64 
L 272.522321 87.385515 
L 271.008426 87.385515 
z
" clip-path="url(#p7612879d7f)" style="fill: #1f77b4"/>
   </g>
   <g id="patch_143">
    <path d="M 272.522321 224.64 
L 274.036216 224.64 
L 274.036216 97.017409 
L 272.522321 97.017409 
z
" clip-path="url(#p7612879d7f)" style="fill: #1f77b4"/>
   </g>
   <g id="patch_144">
    <path d="M 274.036216 224.64 
L 275.550112 224.64 
L 275.550112 84.014352 
L 274.036216 84.014352 
z
" clip-path="url(#p7612879d7f)" style="fill: #1f77b4"/>
   </g>
   <g id="patch_145">
    <path d="M 275.550112 224.64 
L 277.064007 224.64 
L 277.064007 85.940731 
L 275.550112 85.940731 
z
" clip-path="url(#p7612879d7f)" style="fill: #1f77b4"/>
   </g>
   <g id="patch_146">
    <path d="M 277.064007 224.64 
L 278.577902 224.64 
L 278.577902 87.385515 
L 277.064007 87.385515 
z
" clip-path="url(#p7612879d7f)" style="fill: #1f77b4"/>
   </g>
   <g id="patch_147">
    <path d="M 278.577902 224.64 
L 280.091797 224.64 
L 280.091797 76.790432 
L 278.577902 76.790432 
z
" clip-path="url(#p7612879d7f)" style="fill: #1f77b4"/>
   </g>
   <g id="patch_148">
    <path d="M 280.091797 224.64 
L 281.605692 224.64 
L 281.605692 91.238272 
L 280.091797 91.238272 
z
" clip-path="url(#p7612879d7f)" style="fill: #1f77b4"/>
   </g>
   <g id="patch_149">
    <path d="M 281.605692 224.64 
L 283.119587 224.64 
L 283.119587 82.569568 
L 281.605692 82.569568 
z
" clip-path="url(#p7612879d7f)" style="fill: #1f77b4"/>
   </g>
   <g id="patch_150">
    <path d="M 283.119587 224.64 
L 284.633482 224.64 
L 284.633482 82.087973 
L 283.119587 82.087973 
z
" clip-path="url(#p7612879d7f)" style="fill: #1f77b4"/>
   </g>
   <g id="patch_151">
    <path d="M 284.633482 224.64 
L 286.147377 224.64 
L 286.147377 83.532757 
L 284.633482 83.532757 
z
" clip-path="url(#p7612879d7f)" style="fill: #1f77b4"/>
   </g>
   <g id="patch_152">
    <path d="M 286.147377 224.64 
L 287.661272 224.64 
L 287.661272 77.272027 
L 286.147377 77.272027 
z
" clip-path="url(#p7612879d7f)" style="fill: #1f77b4"/>
   </g>
   <g id="patch_153">
    <path d="M 287.661272 224.64 
L 289.175167 224.64 
L 289.175167 84.977542 
L 287.661272 84.977542 
z
" clip-path="url(#p7612879d7f)" style="fill: #1f77b4"/>
   </g>
   <g id="patch_154">
    <path d="M 289.175167 224.64 
L 290.689062 224.64 
L 290.689062 84.495947 
L 289.175167 84.495947 
z
" clip-path="url(#p7612879d7f)" style="fill: #1f77b4"/>
   </g>
   <g id="patch_155">
    <path d="M 290.689062 224.64 
L 292.202957 224.64 
L 292.202957 72.45608 
L 290.689062 72.45608 
z
" clip-path="url(#p7612879d7f)" style="fill: #1f77b4"/>
   </g>
   <g id="patch_156">
    <path d="M 292.202957 224.64 
L 293.716853 224.64 
L 293.716853 89.793488 
L 292.202957 89.793488 
z
" clip-path="url(#p7612879d7f)" style="fill: #1f77b4"/>
   </g>
   <g id="patch_157">
    <path d="M 293.716853 224.64 
L 295.230748 224.64 
L 295.230748 69.566512 
L 293.716853 69.566512 
z
" clip-path="url(#p7612879d7f)" style="fill: #1f77b4"/>
   </g>
   <g id="patch_158">
    <path d="M 295.230748 224.64 
L 296.744643 224.64 
L 296.744643 93.164651 
L 295.230748 93.164651 
z
" clip-path="url(#p7612879d7f)" style="fill: #1f77b4"/>
   </g>
   <g id="patch_159">
    <path d="M 296.744643 224.64 
L 298.258538 224.64 
L 298.258538 63.787375 
L 296.744643 63.787375 
z
" clip-path="url(#p7612879d7f)" style="fill: #1f77b4"/>
   </g>
   <g id="patch_160">
    <path d="M 298.258538 224.64 
L 299.772433 224.64 
L 299.772433 71.974485 
L 298.258538 71.974485 
z
" clip-path="url(#p7612879d7f)" style="fill: #1f77b4"/>
   </g>
   <g id="patch_161">
    <path d="M 299.772433 224.64 
L 301.286328 224.64 
L 301.286328 70.048106 
L 299.772433 70.048106 
z
" clip-path="url(#p7612879d7f)" style="fill: #1f77b4"/>
   </g>
   <g id="patch_162">
    <path d="M 301.286328 224.64 
L 302.800223 224.64 
L 302.800223 76.308837 
L 301.286328 76.308837 
z
" clip-path="url(#p7612879d7f)" style="fill: #1f77b4"/>
   </g>
   <g id="patch_163">
    <path d="M 302.800223 224.64 
L 304.314118 224.64 
L 304.314118 73.419269 
L 302.800223 73.419269 
z
" clip-path="url(#p7612879d7f)" style="fill: #1f77b4"/>
   </g>
   <g id="patch_164">
    <path d="M 304.314118 224.64 
L 305.828013 224.64 
L 305.828013 69.566512 
L 304.314118 69.566512 
z
" clip-path="url(#p7612879d7f)" style="fill: #1f77b4"/>
   </g>
   <g id="patch_165">
    <path d="M 305.828013 224.64 
L 307.341908 224.64 
L 307.341908 63.305781 
L 305.828013 63.305781 
z
" clip-path="url(#p7612879d7f)" style="fill: #1f77b4"/>
   </g>
   <g id="patch_166">
    <path d="M 307.341908 224.64 
L 308.855803 224.64 
L 308.855803 60.897807 
L 307.341908 60.897807 
z
" clip-path="url(#p7612879d7f)" style="fill: #1f77b4"/>
   </g>
   <g id="patch_167">
    <path d="M 308.855803 224.64 
L 310.369699 224.64 
L 310.369699 55.118671 
L 308.855803 55.118671 
z
" clip-path="url(#p7612879d7f)" style="fill: #1f77b4"/>
   </g>
   <g id="patch_168">
    <path d="M 310.369699 224.64 
L 311.883594 224.64 
L 311.883594 72.937674 
L 310.369699 72.937674 
z
" clip-path="url(#p7612879d7f)" style="fill: #1f77b4"/>
   </g>
   <g id="patch_169">
    <path d="M 311.883594 224.64 
L 313.397489 224.64 
L 313.397489 69.084917 
L 311.883594 69.084917 
z
" clip-path="url(#p7612879d7f)" style="fill: #1f77b4"/>
   </g>
   <g id="patch_170">
    <path d="M 313.397489 224.64 
L 314.911384 224.64 
L 314.911384 59.934618 
L 313.397489 59.934618 
z
" clip-path="url(#p7612879d7f)" style="fill: #1f77b4"/>
   </g>
   <g id="patch_171">
    <path d="M 314.911384 224.64 
L 316.425279 224.64 
L 316.425279 60.416213 
L 314.911384 60.416213 
z
" clip-path="url(#p7612879d7f)" style="fill: #1f77b4"/>
   </g>
   <g id="patch_172">
    <path d="M 316.425279 224.64 
L 317.939174 224.64 
L 317.939174 64.750565 
L 316.425279 64.750565 
z
" clip-path="url(#p7612879d7f)" style="fill: #1f77b4"/>
   </g>
   <g id="patch_173">
    <path d="M 317.939174 224.64 
L 319.453069 224.64 
L 319.453069 69.566512 
L 317.939174 69.566512 
z
" clip-path="url(#p7612879d7f)" style="fill: #1f77b4"/>
   </g>
   <g id="patch_174">
    <path d="M 319.453069 224.64 
L 320.966964 224.64 
L 320.966964 49.82113 
L 319.453069 49.82113 
z
" clip-path="url(#p7612879d7f)" style="fill: #1f77b4"/>
   </g>
   <g id="patch_175">
    <path d="M 320.966964 224.64 
L 322.480859 224.64 
L 322.480859 61.379402 
L 320.966964 61.379402 
z
" clip-path="url(#p7612879d7f)" style="fill: #1f77b4"/>
   </g>
   <g id="patch_176">
    <path d="M 322.480859 224.64 
L 323.994754 224.64 
L 323.994754 56.08186 
L 322.480859 56.08186 
z
" clip-path="url(#p7612879d7f)" style="fill: #1f77b4"/>
   </g>
   <g id="patch_177">
    <path d="M 323.994754 224.64 
L 325.508649 224.64 
L 325.508649 52.229103 
L 323.994754 52.229103 
z
" clip-path="url(#p7612879d7f)" style="fill: #1f77b4"/>
   </g>
   <g id="patch_178">
    <path d="M 325.508649 224.64 
L 327.022544 224.64 
L 327.022544 67.158538 
L 325.508649 67.158538 
z
" clip-path="url(#p7612879d7f)" style="fill: #1f77b4"/>
   </g>
   <g id="patch_179">
    <path d="M 327.022544 224.64 
L 328.53644 224.64 
L 328.53644 64.750565 
L 327.022544 64.750565 
z
" clip-path="url(#p7612879d7f)" style="fill: #1f77b4"/>
   </g>
   <g id="patch_180">
    <path d="M 328.53644 224.64 
L 330.050335 224.64 
L 330.050335 57.526645 
L 328.53644 57.526645 
z
" clip-path="url(#p7612879d7f)" style="fill: #1f77b4"/>
   </g>
   <g id="patch_181">
    <path d="M 330.050335 224.64 
L 331.56423 224.64 
L 331.56423 49.82113 
L 330.050335 49.82113 
z
" clip-path="url(#p7612879d7f)" style="fill: #1f77b4"/>
   </g>
   <g id="patch_182">
    <path d="M 331.56423 224.64 
L 333.078125 224.64 
L 333.078125 51.265914 
L 331.56423 51.265914 
z
" clip-path="url(#p7612879d7f)" style="fill: #1f77b4"/>
   </g>
   <g id="patch_183">
    <path d="M 333.078125 224.64 
L 334.59202 224.64 
L 334.59202 58.489834 
L 333.078125 58.489834 
z
" clip-path="url(#p7612879d7f)" style="fill: #1f77b4"/>
   </g>
   <g id="patch_184">
    <path d="M 334.59202 224.64 
L 336.105915 224.64 
L 336.105915 48.376346 
L 334.59202 48.376346 
z
" clip-path="url(#p7612879d7f)" style="fill: #1f77b4"/>
   </g>
   <g id="patch_185">
    <path d="M 336.105915 224.64 
L 337.61981 224.64 
L 337.61981 45.005183 
L 336.105915 45.005183 
z
" clip-path="url(#p7612879d7f)" style="fill: #1f77b4"/>
   </g>
   <g id="patch_186">
    <path d="M 337.61981 224.64 
L 339.133705 224.64 
L 339.133705 41.152425 
L 337.61981 41.152425 
z
" clip-path="url(#p7612879d7f)" style="fill: #1f77b4"/>
   </g>
   <g id="patch_187">
    <path d="M 339.133705 224.64 
L 340.6476 224.64 
L 340.6476 46.931561 
L 339.133705 46.931561 
z
" clip-path="url(#p7612879d7f)" style="fill: #1f77b4"/>
   </g>
   <g id="patch_188">
    <path d="M 340.6476 224.64 
L 342.161495 224.64 
L 342.161495 51.265914 
L 340.6476 51.265914 
z
" clip-path="url(#p7612879d7f)" style="fill: #1f77b4"/>
   </g>
   <g id="patch_189">
    <path d="M 342.161495 224.64 
L 343.67539 224.64 
L 343.67539 51.265914 
L 342.161495 51.265914 
z
" clip-path="url(#p7612879d7f)" style="fill: #1f77b4"/>
   </g>
   <g id="patch_190">
    <path d="M 343.67539 224.64 
L 345.189286 224.64 
L 345.189286 56.563455 
L 343.67539 56.563455 
z
" clip-path="url(#p7612879d7f)" style="fill: #1f77b4"/>
   </g>
   <g id="patch_191">
    <path d="M 345.189286 224.64 
L 346.703181 224.64 
L 346.703181 47.894751 
L 345.189286 47.894751 
z
" clip-path="url(#p7612879d7f)" style="fill: #1f77b4"/>
   </g>
   <g id="patch_192">
    <path d="M 346.703181 224.64 
L 348.217076 224.64 
L 348.217076 36.336478 
L 346.703181 36.336478 
z
" clip-path="url(#p7612879d7f)" style="fill: #1f77b4"/>
   </g>
   <g id="patch_193">
    <path d="M 348.217076 224.64 
L 349.730971 224.64 
L 349.730971 33.928505 
L 348.217076 33.928505 
z
" clip-path="url(#p7612879d7f)" style="fill: #1f77b4"/>
   </g>
   <g id="patch_194">
    <path d="M 349.730971 224.64 
L 351.244866 224.64 
L 351.244866 37.299668 
L 349.730971 37.299668 
z
" clip-path="url(#p7612879d7f)" style="fill: #1f77b4"/>
   </g>
   <g id="patch_195">
    <path d="M 351.244866 224.64 
L 352.758761 224.64 
L 352.758761 45.486777 
L 351.244866 45.486777 
z
" clip-path="url(#p7612879d7f)" style="fill: #1f77b4"/>
   </g>
   <g id="patch_196">
    <path d="M 352.758761 224.64 
L 354.272656 224.64 
L 354.272656 31.038937 
L 352.758761 31.038937 
z
" clip-path="url(#p7612879d7f)" style="fill: #1f77b4"/>
   </g>
   <g id="patch_197">
    <path d="M 354.272656 224.64 
L 355.786551 224.64 
L 355.786551 40.189236 
L 354.272656 40.189236 
z
" clip-path="url(#p7612879d7f)" style="fill: #1f77b4"/>
   </g>
   <g id="patch_198">
    <path d="M 355.786551 224.64 
L 357.300446 224.64 
L 357.300446 52.710698 
L 355.786551 52.710698 
z
" clip-path="url(#p7612879d7f)" style="fill: #1f77b4"/>
   </g>
   <g id="patch_199">
    <path d="M 357.300446 224.64 
L 358.814341 224.64 
L 358.814341 17.554286 
L 357.300446 17.554286 
z
" clip-path="url(#p7612879d7f)" style="fill: #1f77b4"/>
   </g>
   <g id="patch_200">
    <path d="M 358.814341 224.64 
L 360.328236 224.64 
L 360.328236 35.373289 
L 358.814341 35.373289 
z
" clip-path="url(#p7612879d7f)" style="fill: #1f77b4"/>
   </g>
   <g id="patch_201">
    <path d="M 360.328236 224.64 
L 361.842132 224.64 
L 361.842132 30.075748 
L 360.328236 30.075748 
z
" clip-path="url(#p7612879d7f)" style="fill: #1f77b4"/>
   </g>
   <g id="patch_202">
    <path d="M 361.842132 224.64 
L 363.356027 224.64 
L 363.356027 30.075748 
L 361.842132 30.075748 
z
" clip-path="url(#p7612879d7f)" style="fill: #1f77b4"/>
   </g>
   <g id="matplotlib.axis_1">
    <g id="xtick_1">
     <g id="line2d_1">
      <defs>
       <path id="mcd772bb3eb" d="M 0 0 
L 0 3.5 
" style="stroke: #000000; stroke-width: 0.8"/>
      </defs>
      <g>
       <use xlink:href="#mcd772bb3eb" x="58.999432" y="224.64" style="stroke: #000000; stroke-width: 0.8"/>
      </g>
     </g>
     <g id="text_1">
      <!-- 0.0 -->
      <g transform="translate(51.047869 239.238437)scale(0.1 -0.1)">
       <defs>
        <path id="DejaVuSans-30" d="M 2034 4250 
Q 1547 4250 1301 3770 
Q 1056 3291 1056 2328 
Q 1056 1369 1301 889 
Q 1547 409 2034 409 
Q 2525 409 2770 889 
Q 3016 1369 3016 2328 
Q 3016 3291 2770 3770 
Q 2525 4250 2034 4250 
z
M 2034 4750 
Q 2819 4750 3233 4129 
Q 3647 3509 3647 2328 
Q 3647 1150 3233 529 
Q 2819 -91 2034 -91 
Q 1250 -91 836 529 
Q 422 1150 422 2328 
Q 422 3509 836 4129 
Q 1250 4750 2034 4750 
z
" transform="scale(0.015625)"/>
        <path id="DejaVuSans-2e" d="M 684 794 
L 1344 794 
L 1344 0 
L 684 0 
L 684 794 
z
" transform="scale(0.015625)"/>
       </defs>
       <use xlink:href="#DejaVuSans-30"/>
       <use xlink:href="#DejaVuSans-2e" x="63.623047"/>
       <use xlink:href="#DejaVuSans-30" x="95.410156"/>
      </g>
     </g>
    </g>
    <g id="xtick_2">
     <g id="line2d_2">
      <g>
       <use xlink:href="#mcd772bb3eb" x="119.872159" y="224.64" style="stroke: #000000; stroke-width: 0.8"/>
      </g>
     </g>
     <g id="text_2">
      <!-- 0.2 -->
      <g transform="translate(111.920597 239.238437)scale(0.1 -0.1)">
       <defs>
        <path id="DejaVuSans-32" d="M 1228 531 
L 3431 531 
L 3431 0 
L 469 0 
L 469 531 
Q 828 903 1448 1529 
Q 2069 2156 2228 2338 
Q 2531 2678 2651 2914 
Q 2772 3150 2772 3378 
Q 2772 3750 2511 3984 
Q 2250 4219 1831 4219 
Q 1534 4219 1204 4116 
Q 875 4013 500 3803 
L 500 4441 
Q 881 4594 1212 4672 
Q 1544 4750 1819 4750 
Q 2544 4750 2975 4387 
Q 3406 4025 3406 3419 
Q 3406 3131 3298 2873 
Q 3191 2616 2906 2266 
Q 2828 2175 2409 1742 
Q 1991 1309 1228 531 
z
" transform="scale(0.015625)"/>
       </defs>
       <use xlink:href="#DejaVuSans-30"/>
       <use xlink:href="#DejaVuSans-2e" x="63.623047"/>
       <use xlink:href="#DejaVuSans-32" x="95.410156"/>
      </g>
     </g>
    </g>
    <g id="xtick_3">
     <g id="line2d_3">
      <g>
       <use xlink:href="#mcd772bb3eb" x="180.744886" y="224.64" style="stroke: #000000; stroke-width: 0.8"/>
      </g>
     </g>
     <g id="text_3">
      <!-- 0.4 -->
      <g transform="translate(172.793324 239.238437)scale(0.1 -0.1)">
       <defs>
        <path id="DejaVuSans-34" d="M 2419 4116 
L 825 1625 
L 2419 1625 
L 2419 4116 
z
M 2253 4666 
L 3047 4666 
L 3047 1625 
L 3713 1625 
L 3713 1100 
L 3047 1100 
L 3047 0 
L 2419 0 
L 2419 1100 
L 313 1100 
L 313 1709 
L 2253 4666 
z
" transform="scale(0.015625)"/>
       </defs>
       <use xlink:href="#DejaVuSans-30"/>
       <use xlink:href="#DejaVuSans-2e" x="63.623047"/>
       <use xlink:href="#DejaVuSans-34" x="95.410156"/>
      </g>
     </g>
    </g>
    <g id="xtick_4">
     <g id="line2d_4">
      <g>
       <use xlink:href="#mcd772bb3eb" x="241.617614" y="224.64" style="stroke: #000000; stroke-width: 0.8"/>
      </g>
     </g>
     <g id="text_4">
      <!-- 0.6 -->
      <g transform="translate(233.666051 239.238437)scale(0.1 -0.1)">
       <defs>
        <path id="DejaVuSans-36" d="M 2113 2584 
Q 1688 2584 1439 2293 
Q 1191 2003 1191 1497 
Q 1191 994 1439 701 
Q 1688 409 2113 409 
Q 2538 409 2786 701 
Q 3034 994 3034 1497 
Q 3034 2003 2786 2293 
Q 2538 2584 2113 2584 
z
M 3366 4563 
L 3366 3988 
Q 3128 4100 2886 4159 
Q 2644 4219 2406 4219 
Q 1781 4219 1451 3797 
Q 1122 3375 1075 2522 
Q 1259 2794 1537 2939 
Q 1816 3084 2150 3084 
Q 2853 3084 3261 2657 
Q 3669 2231 3669 1497 
Q 3669 778 3244 343 
Q 2819 -91 2113 -91 
Q 1303 -91 875 529 
Q 447 1150 447 2328 
Q 447 3434 972 4092 
Q 1497 4750 2381 4750 
Q 2619 4750 2861 4703 
Q 3103 4656 3366 4563 
z
" transform="scale(0.015625)"/>
       </defs>
       <use xlink:href="#DejaVuSans-30"/>
       <use xlink:href="#DejaVuSans-2e" x="63.623047"/>
       <use xlink:href="#DejaVuSans-36" x="95.410156"/>
      </g>
     </g>
    </g>
    <g id="xtick_5">
     <g id="line2d_5">
      <g>
       <use xlink:href="#mcd772bb3eb" x="302.490341" y="224.64" style="stroke: #000000; stroke-width: 0.8"/>
      </g>
     </g>
     <g id="text_5">
      <!-- 0.8 -->
      <g transform="translate(294.538778 239.238437)scale(0.1 -0.1)">
       <defs>
        <path id="DejaVuSans-38" d="M 2034 2216 
Q 1584 2216 1326 1975 
Q 1069 1734 1069 1313 
Q 1069 891 1326 650 
Q 1584 409 2034 409 
Q 2484 409 2743 651 
Q 3003 894 3003 1313 
Q 3003 1734 2745 1975 
Q 2488 2216 2034 2216 
z
M 1403 2484 
Q 997 2584 770 2862 
Q 544 3141 544 3541 
Q 544 4100 942 4425 
Q 1341 4750 2034 4750 
Q 2731 4750 3128 4425 
Q 3525 4100 3525 3541 
Q 3525 3141 3298 2862 
Q 3072 2584 2669 2484 
Q 3125 2378 3379 2068 
Q 3634 1759 3634 1313 
Q 3634 634 3220 271 
Q 2806 -91 2034 -91 
Q 1263 -91 848 271 
Q 434 634 434 1313 
Q 434 1759 690 2068 
Q 947 2378 1403 2484 
z
M 1172 3481 
Q 1172 3119 1398 2916 
Q 1625 2713 2034 2713 
Q 2441 2713 2670 2916 
Q 2900 3119 2900 3481 
Q 2900 3844 2670 4047 
Q 2441 4250 2034 4250 
Q 1625 4250 1398 4047 
Q 1172 3844 1172 3481 
z
" transform="scale(0.015625)"/>
       </defs>
       <use xlink:href="#DejaVuSans-30"/>
       <use xlink:href="#DejaVuSans-2e" x="63.623047"/>
       <use xlink:href="#DejaVuSans-38" x="95.410156"/>
      </g>
     </g>
    </g>
    <g id="xtick_6">
     <g id="line2d_6">
      <g>
       <use xlink:href="#mcd772bb3eb" x="363.363068" y="224.64" style="stroke: #000000; stroke-width: 0.8"/>
      </g>
     </g>
     <g id="text_6">
      <!-- 1.0 -->
      <g transform="translate(355.411506 239.238437)scale(0.1 -0.1)">
       <defs>
        <path id="DejaVuSans-31" d="M 794 531 
L 1825 531 
L 1825 4091 
L 703 3866 
L 703 4441 
L 1819 4666 
L 2450 4666 
L 2450 531 
L 3481 531 
L 3481 0 
L 794 0 
L 794 531 
z
" transform="scale(0.015625)"/>
       </defs>
       <use xlink:href="#DejaVuSans-31"/>
       <use xlink:href="#DejaVuSans-2e" x="63.623047"/>
       <use xlink:href="#DejaVuSans-30" x="95.410156"/>
      </g>
     </g>
    </g>
    <g id="text_7">
     <!-- Propagation direction -->
     <g transform="translate(157.699219 252.916562)scale(0.1 -0.1)">
      <defs>
       <path id="DejaVuSans-50" d="M 1259 4147 
L 1259 2394 
L 2053 2394 
Q 2494 2394 2734 2622 
Q 2975 2850 2975 3272 
Q 2975 3691 2734 3919 
Q 2494 4147 2053 4147 
L 1259 4147 
z
M 628 4666 
L 2053 4666 
Q 2838 4666 3239 4311 
Q 3641 3956 3641 3272 
Q 3641 2581 3239 2228 
Q 2838 1875 2053 1875 
L 1259 1875 
L 1259 0 
L 628 0 
L 628 4666 
z
" transform="scale(0.015625)"/>
       <path id="DejaVuSans-72" d="M 2631 2963 
Q 2534 3019 2420 3045 
Q 2306 3072 2169 3072 
Q 1681 3072 1420 2755 
Q 1159 2438 1159 1844 
L 1159 0 
L 581 0 
L 581 3500 
L 1159 3500 
L 1159 2956 
Q 1341 3275 1631 3429 
Q 1922 3584 2338 3584 
Q 2397 3584 2469 3576 
Q 2541 3569 2628 3553 
L 2631 2963 
z
" transform="scale(0.015625)"/>
       <path id="DejaVuSans-6f" d="M 1959 3097 
Q 1497 3097 1228 2736 
Q 959 2375 959 1747 
Q 959 1119 1226 758 
Q 1494 397 1959 397 
Q 2419 397 2687 759 
Q 2956 1122 2956 1747 
Q 2956 2369 2687 2733 
Q 2419 3097 1959 3097 
z
M 1959 3584 
Q 2709 3584 3137 3096 
Q 3566 2609 3566 1747 
Q 3566 888 3137 398 
Q 2709 -91 1959 -91 
Q 1206 -91 779 398 
Q 353 888 353 1747 
Q 353 2609 779 3096 
Q 1206 3584 1959 3584 
z
" transform="scale(0.015625)"/>
       <path id="DejaVuSans-70" d="M 1159 525 
L 1159 -1331 
L 581 -1331 
L 581 3500 
L 1159 3500 
L 1159 2969 
Q 1341 3281 1617 3432 
Q 1894 3584 2278 3584 
Q 2916 3584 3314 3078 
Q 3713 2572 3713 1747 
Q 3713 922 3314 415 
Q 2916 -91 2278 -91 
Q 1894 -91 1617 61 
Q 1341 213 1159 525 
z
M 3116 1747 
Q 3116 2381 2855 2742 
Q 2594 3103 2138 3103 
Q 1681 3103 1420 2742 
Q 1159 2381 1159 1747 
Q 1159 1113 1420 752 
Q 1681 391 2138 391 
Q 2594 391 2855 752 
Q 3116 1113 3116 1747 
z
" transform="scale(0.015625)"/>
       <path id="DejaVuSans-61" d="M 2194 1759 
Q 1497 1759 1228 1600 
Q 959 1441 959 1056 
Q 959 750 1161 570 
Q 1363 391 1709 391 
Q 2188 391 2477 730 
Q 2766 1069 2766 1631 
L 2766 1759 
L 2194 1759 
z
M 3341 1997 
L 3341 0 
L 2766 0 
L 2766 531 
Q 2569 213 2275 61 
Q 1981 -91 1556 -91 
Q 1019 -91 701 211 
Q 384 513 384 1019 
Q 384 1609 779 1909 
Q 1175 2209 1959 2209 
L 2766 2209 
L 2766 2266 
Q 2766 2663 2505 2880 
Q 2244 3097 1772 3097 
Q 1472 3097 1187 3025 
Q 903 2953 641 2809 
L 641 3341 
Q 956 3463 1253 3523 
Q 1550 3584 1831 3584 
Q 2591 3584 2966 3190 
Q 3341 2797 3341 1997 
z
" transform="scale(0.015625)"/>
       <path id="DejaVuSans-67" d="M 2906 1791 
Q 2906 2416 2648 2759 
Q 2391 3103 1925 3103 
Q 1463 3103 1205 2759 
Q 947 2416 947 1791 
Q 947 1169 1205 825 
Q 1463 481 1925 481 
Q 2391 481 2648 825 
Q 2906 1169 2906 1791 
z
M 3481 434 
Q 3481 -459 3084 -895 
Q 2688 -1331 1869 -1331 
Q 1566 -1331 1297 -1286 
Q 1028 -1241 775 -1147 
L 775 -588 
Q 1028 -725 1275 -790 
Q 1522 -856 1778 -856 
Q 2344 -856 2625 -561 
Q 2906 -266 2906 331 
L 2906 616 
Q 2728 306 2450 153 
Q 2172 0 1784 0 
Q 1141 0 747 490 
Q 353 981 353 1791 
Q 353 2603 747 3093 
Q 1141 3584 1784 3584 
Q 2172 3584 2450 3431 
Q 2728 3278 2906 2969 
L 2906 3500 
L 3481 3500 
L 3481 434 
z
" transform="scale(0.015625)"/>
       <path id="DejaVuSans-74" d="M 1172 4494 
L 1172 3500 
L 2356 3500 
L 2356 3053 
L 1172 3053 
L 1172 1153 
Q 1172 725 1289 603 
Q 1406 481 1766 481 
L 2356 481 
L 2356 0 
L 1766 0 
Q 1100 0 847 248 
Q 594 497 594 1153 
L 594 3053 
L 172 3053 
L 172 3500 
L 594 3500 
L 594 4494 
L 1172 4494 
z
" transform="scale(0.015625)"/>
       <path id="DejaVuSans-69" d="M 603 3500 
L 1178 3500 
L 1178 0 
L 603 0 
L 603 3500 
z
M 603 4863 
L 1178 4863 
L 1178 4134 
L 603 4134 
L 603 4863 
z
" transform="scale(0.015625)"/>
       <path id="DejaVuSans-6e" d="M 3513 2113 
L 3513 0 
L 2938 0 
L 2938 2094 
Q 2938 2591 2744 2837 
Q 2550 3084 2163 3084 
Q 1697 3084 1428 2787 
Q 1159 2491 1159 1978 
L 1159 0 
L 581 0 
L 581 3500 
L 1159 3500 
L 1159 2956 
Q 1366 3272 1645 3428 
Q 1925 3584 2291 3584 
Q 2894 3584 3203 3211 
Q 3513 2838 3513 2113 
z
" transform="scale(0.015625)"/>
       <path id="DejaVuSans-20" transform="scale(0.015625)"/>
       <path id="DejaVuSans-64" d="M 2906 2969 
L 2906 4863 
L 3481 4863 
L 3481 0 
L 2906 0 
L 2906 525 
Q 2725 213 2448 61 
Q 2172 -91 1784 -91 
Q 1150 -91 751 415 
Q 353 922 353 1747 
Q 353 2572 751 3078 
Q 1150 3584 1784 3584 
Q 2172 3584 2448 3432 
Q 2725 3281 2906 2969 
z
M 947 1747 
Q 947 1113 1208 752 
Q 1469 391 1925 391 
Q 2381 391 2643 752 
Q 2906 1113 2906 1747 
Q 2906 2381 2643 2742 
Q 2381 3103 1925 3103 
Q 1469 3103 1208 2742 
Q 947 2381 947 1747 
z
" transform="scale(0.015625)"/>
       <path id="DejaVuSans-65" d="M 3597 1894 
L 3597 1613 
L 953 1613 
Q 991 1019 1311 708 
Q 1631 397 2203 397 
Q 2534 397 2845 478 
Q 3156 559 3463 722 
L 3463 178 
Q 3153 47 2828 -22 
Q 2503 -91 2169 -91 
Q 1331 -91 842 396 
Q 353 884 353 1716 
Q 353 2575 817 3079 
Q 1281 3584 2069 3584 
Q 2775 3584 3186 3129 
Q 3597 2675 3597 1894 
z
M 3022 2063 
Q 3016 2534 2758 2815 
Q 2500 3097 2075 3097 
Q 1594 3097 1305 2825 
Q 1016 2553 972 2059 
L 3022 2063 
z
" transform="scale(0.015625)"/>
       <path id="DejaVuSans-63" d="M 3122 3366 
L 3122 2828 
Q 2878 2963 2633 3030 
Q 2388 3097 2138 3097 
Q 1578 3097 1268 2742 
Q 959 2388 959 1747 
Q 959 1106 1268 751 
Q 1578 397 2138 397 
Q 2388 397 2633 464 
Q 2878 531 3122 666 
L 3122 134 
Q 2881 22 2623 -34 
Q 2366 -91 2075 -91 
Q 1284 -91 818 406 
Q 353 903 353 1747 
Q 353 2603 823 3093 
Q 1294 3584 2113 3584 
Q 2378 3584 2631 3529 
Q 2884 3475 3122 3366 
z
" transform="scale(0.015625)"/>
      </defs>
      <use xlink:href="#DejaVuSans-50"/>
      <use xlink:href="#DejaVuSans-72" x="58.552734"/>
      <use xlink:href="#DejaVuSans-6f" x="97.416016"/>
      <use xlink:href="#DejaVuSans-70" x="158.597656"/>
      <use xlink:href="#DejaVuSans-61" x="222.074219"/>
      <use xlink:href="#DejaVuSans-67" x="283.353516"/>
      <use xlink:href="#DejaVuSans-61" x="346.830078"/>
      <use xlink:href="#DejaVuSans-74" x="408.109375"/>
      <use xlink:href="#DejaVuSans-69" x="447.318359"/>
      <use xlink:href="#DejaVuSans-6f" x="475.101562"/>
      <use xlink:href="#DejaVuSans-6e" x="536.283203"/>
      <use xlink:href="#DejaVuSans-20" x="599.662109"/>
      <use xlink:href="#DejaVuSans-64" x="631.449219"/>
      <use xlink:href="#DejaVuSans-69" x="694.925781"/>
      <use xlink:href="#DejaVuSans-72" x="722.708984"/>
      <use xlink:href="#DejaVuSans-65" x="761.572266"/>
      <use xlink:href="#DejaVuSans-63" x="823.095703"/>
      <use xlink:href="#DejaVuSans-74" x="878.076172"/>
      <use xlink:href="#DejaVuSans-69" x="917.285156"/>
      <use xlink:href="#DejaVuSans-6f" x="945.068359"/>
      <use xlink:href="#DejaVuSans-6e" x="1006.25"/>
     </g>
    </g>
   </g>
   <g id="matplotlib.axis_2">
    <g id="ytick_1">
     <g id="line2d_7">
      <defs>
       <path id="m6dfef82145" d="M 0 0 
L -3.5 0 
" style="stroke: #000000; stroke-width: 0.8"/>
      </defs>
      <g>
       <use xlink:href="#m6dfef82145" x="43.78125" y="224.64" style="stroke: #000000; stroke-width: 0.8"/>
      </g>
     </g>
     <g id="text_8">
      <!-- 0.0 -->
      <g transform="translate(20.878125 228.439219)scale(0.1 -0.1)">
       <use xlink:href="#DejaVuSans-30"/>
       <use xlink:href="#DejaVuSans-2e" x="63.623047"/>
       <use xlink:href="#DejaVuSans-30" x="95.410156"/>
      </g>
     </g>
    </g>
    <g id="ytick_2">
     <g id="line2d_8">
      <g>
       <use xlink:href="#m6dfef82145" x="43.78125" y="176.731266" style="stroke: #000000; stroke-width: 0.8"/>
      </g>
     </g>
     <g id="text_9">
      <!-- 0.5 -->
      <g transform="translate(20.878125 180.530485)scale(0.1 -0.1)">
       <defs>
        <path id="DejaVuSans-35" d="M 691 4666 
L 3169 4666 
L 3169 4134 
L 1269 4134 
L 1269 2991 
Q 1406 3038 1543 3061 
Q 1681 3084 1819 3084 
Q 2600 3084 3056 2656 
Q 3513 2228 3513 1497 
Q 3513 744 3044 326 
Q 2575 -91 1722 -91 
Q 1428 -91 1123 -41 
Q 819 9 494 109 
L 494 744 
Q 775 591 1075 516 
Q 1375 441 1709 441 
Q 2250 441 2565 725 
Q 2881 1009 2881 1497 
Q 2881 1984 2565 2268 
Q 2250 2553 1709 2553 
Q 1456 2553 1204 2497 
Q 953 2441 691 2322 
L 691 4666 
z
" transform="scale(0.015625)"/>
       </defs>
       <use xlink:href="#DejaVuSans-30"/>
       <use xlink:href="#DejaVuSans-2e" x="63.623047"/>
       <use xlink:href="#DejaVuSans-35" x="95.410156"/>
      </g>
     </g>
    </g>
    <g id="ytick_3">
     <g id="line2d_9">
      <g>
       <use xlink:href="#m6dfef82145" x="43.78125" y="128.822532" style="stroke: #000000; stroke-width: 0.8"/>
      </g>
     </g>
     <g id="text_10">
      <!-- 1.0 -->
      <g transform="translate(20.878125 132.62175)scale(0.1 -0.1)">
       <use xlink:href="#DejaVuSans-31"/>
       <use xlink:href="#DejaVuSans-2e" x="63.623047"/>
       <use xlink:href="#DejaVuSans-30" x="95.410156"/>
      </g>
     </g>
    </g>
    <g id="ytick_4">
     <g id="line2d_10">
      <g>
       <use xlink:href="#m6dfef82145" x="43.78125" y="80.913798" style="stroke: #000000; stroke-width: 0.8"/>
      </g>
     </g>
     <g id="text_11">
      <!-- 1.5 -->
      <g transform="translate(20.878125 84.713016)scale(0.1 -0.1)">
       <use xlink:href="#DejaVuSans-31"/>
       <use xlink:href="#DejaVuSans-2e" x="63.623047"/>
       <use xlink:href="#DejaVuSans-35" x="95.410156"/>
      </g>
     </g>
    </g>
    <g id="ytick_5">
     <g id="line2d_11">
      <g>
       <use xlink:href="#m6dfef82145" x="43.78125" y="33.005063" style="stroke: #000000; stroke-width: 0.8"/>
      </g>
     </g>
     <g id="text_12">
      <!-- 2.0 -->
      <g transform="translate(20.878125 36.804282)scale(0.1 -0.1)">
       <use xlink:href="#DejaVuSans-32"/>
       <use xlink:href="#DejaVuSans-2e" x="63.623047"/>
       <use xlink:href="#DejaVuSans-30" x="95.410156"/>
      </g>
     </g>
    </g>
    <g id="text_13">
     <!-- Probability density -->
     <g transform="translate(14.798438 162.270781)rotate(-90)scale(0.1 -0.1)">
      <defs>
       <path id="DejaVuSans-62" d="M 3116 1747 
Q 3116 2381 2855 2742 
Q 2594 3103 2138 3103 
Q 1681 3103 1420 2742 
Q 1159 2381 1159 1747 
Q 1159 1113 1420 752 
Q 1681 391 2138 391 
Q 2594 391 2855 752 
Q 3116 1113 3116 1747 
z
M 1159 2969 
Q 1341 3281 1617 3432 
Q 1894 3584 2278 3584 
Q 2916 3584 3314 3078 
Q 3713 2572 3713 1747 
Q 3713 922 3314 415 
Q 2916 -91 2278 -91 
Q 1894 -91 1617 61 
Q 1341 213 1159 525 
L 1159 0 
L 581 0 
L 581 4863 
L 1159 4863 
L 1159 2969 
z
" transform="scale(0.015625)"/>
       <path id="DejaVuSans-6c" d="M 603 4863 
L 1178 4863 
L 1178 0 
L 603 0 
L 603 4863 
z
" transform="scale(0.015625)"/>
       <path id="DejaVuSans-79" d="M 2059 -325 
Q 1816 -950 1584 -1140 
Q 1353 -1331 966 -1331 
L 506 -1331 
L 506 -850 
L 844 -850 
Q 1081 -850 1212 -737 
Q 1344 -625 1503 -206 
L 1606 56 
L 191 3500 
L 800 3500 
L 1894 763 
L 2988 3500 
L 3597 3500 
L 2059 -325 
z
" transform="scale(0.015625)"/>
       <path id="DejaVuSans-73" d="M 2834 3397 
L 2834 2853 
Q 2591 2978 2328 3040 
Q 2066 3103 1784 3103 
Q 1356 3103 1142 2972 
Q 928 2841 928 2578 
Q 928 2378 1081 2264 
Q 1234 2150 1697 2047 
L 1894 2003 
Q 2506 1872 2764 1633 
Q 3022 1394 3022 966 
Q 3022 478 2636 193 
Q 2250 -91 1575 -91 
Q 1294 -91 989 -36 
Q 684 19 347 128 
L 347 722 
Q 666 556 975 473 
Q 1284 391 1588 391 
Q 1994 391 2212 530 
Q 2431 669 2431 922 
Q 2431 1156 2273 1281 
Q 2116 1406 1581 1522 
L 1381 1569 
Q 847 1681 609 1914 
Q 372 2147 372 2553 
Q 372 3047 722 3315 
Q 1072 3584 1716 3584 
Q 2034 3584 2315 3537 
Q 2597 3491 2834 3397 
z
" transform="scale(0.015625)"/>
      </defs>
      <use xlink:href="#DejaVuSans-50"/>
      <use xlink:href="#DejaVuSans-72" x="58.552734"/>
      <use xlink:href="#DejaVuSans-6f" x="97.416016"/>
      <use xlink:href="#DejaVuSans-62" x="158.597656"/>
      <use xlink:href="#DejaVuSans-61" x="222.074219"/>
      <use xlink:href="#DejaVuSans-62" x="283.353516"/>
      <use xlink:href="#DejaVuSans-69" x="346.830078"/>
      <use xlink:href="#DejaVuSans-6c" x="374.613281"/>
      <use xlink:href="#DejaVuSans-69" x="402.396484"/>
      <use xlink:href="#DejaVuSans-74" x="430.179688"/>
      <use xlink:href="#DejaVuSans-79" x="469.388672"/>
      <use xlink:href="#DejaVuSans-20" x="528.568359"/>
      <use xlink:href="#DejaVuSans-64" x="560.355469"/>
      <use xlink:href="#DejaVuSans-65" x="623.832031"/>
      <use xlink:href="#DejaVuSans-6e" x="685.355469"/>
      <use xlink:href="#DejaVuSans-73" x="748.734375"/>
      <use xlink:href="#DejaVuSans-69" x="800.833984"/>
      <use xlink:href="#DejaVuSans-74" x="828.617188"/>
      <use xlink:href="#DejaVuSans-79" x="867.826172"/>
     </g>
    </g>
   </g>
   <g id="line2d_12">
    <path d="M 58.999432 224.64 
L 363.363068 33.005063 
L 363.363068 33.005063 
" clip-path="url(#p7612879d7f)" style="fill: none; stroke: #ff7f0e; stroke-width: 1.5; stroke-linecap: square"/>
   </g>
   <g id="patch_203">
    <path d="M 43.78125 224.64 
L 43.78125 7.2 
" style="fill: none; stroke: #000000; stroke-width: 0.8; stroke-linejoin: miter; stroke-linecap: square"/>
   </g>
   <g id="patch_204">
    <path d="M 378.58125 224.64 
L 378.58125 7.2 
" style="fill: none; stroke: #000000; stroke-width: 0.8; stroke-linejoin: miter; stroke-linecap: square"/>
   </g>
   <g id="patch_205">
    <path d="M 43.78125 224.64 
L 378.58125 224.64 
" style="fill: none; stroke: #000000; stroke-width: 0.8; stroke-linejoin: miter; stroke-linecap: square"/>
   </g>
   <g id="patch_206">
    <path d="M 43.78125 7.2 
L 378.58125 7.2 
" style="fill: none; stroke: #000000; stroke-width: 0.8; stroke-linejoin: miter; stroke-linecap: square"/>
   </g>
  </g>
 </g>
 <defs>
  <clipPath id="p7612879d7f">
   <rect x="43.78125" y="7.2" width="334.8" height="217.44"/>
  </clipPath>
 </defs>
</svg>
