<?xml version="1.0" encoding="utf-8" standalone="no"?>
<!DOCTYPE svg PUBLIC "-//W3C//DTD SVG 1.1//EN"
  "http://www.w3.org/Graphics/SVG/1.1/DTD/svg11.dtd">
<svg xmlns:xlink="http://www.w3.org/1999/xlink" width="385.78125pt" height="262.19625pt" viewBox="0 0 385.78125 262.19625" xmlns="http://www.w3.org/2000/svg" version="1.1">
 <metadata>
  <rdf:RDF xmlns:dc="http://purl.org/dc/elements/1.1/" xmlns:cc="http://creativecommons.org/ns#" xmlns:rdf="http://www.w3.org/1999/02/22-rdf-syntax-ns#">
   <cc:Work>
    <dc:type rdf:resource="http://purl.org/dc/dcmitype/StillImage"/>
    <dc:date>2022-08-03T15:50:39.418244</dc:date>
    <dc:format>image/svg+xml</dc:format>
    <dc:creator>
     <cc:Agent>
      <dc:title>Matplotlib v3.5.2, https://matplotlib.org/</dc:title>
     </cc:Agent>
    </dc:creator>
   </cc:Work>
  </rdf:RDF>
 </metadata>
 <defs>
  <style type="text/css">*{stroke-linejoin: round; stroke-linecap: butt}</style>
 </defs>
 <g id="figure_1">
  <g id="patch_1">
   <path d="M 0 262.19625 
L 385.78125 262.19625 
L 385.78125 0 
L 0 0 
L 0 262.19625 
z
" style="fill: none"/>
  </g>
  <g id="axes_1">
   <g id="patch_2">
    <path d="M 43.78125 224.64 
L 378.58125 224.64 
L 378.58125 7.2 
L 43.78125 7.2 
z
" style="fill: #ffffff"/>
   </g>
   <g id="patch_3">
    <path d="M 59.834605 224.64 
L 61.343613 224.64 
L 61.343613 222.280049 
L 59.834605 222.280049 
z
" clip-path="url(#pa1f1ab3e6e)" style="fill: #1f77b4"/>
   </g>
   <g id="patch_4">
    <path d="M 61.343613 224.64 
L 62.852621 224.64 
L 62.852621 218.150134 
L 61.343613 218.150134 
z
" clip-path="url(#pa1f1ab3e6e)" style="fill: #1f77b4"/>
   </g>
   <g id="patch_5">
    <path d="M 62.852621 224.64 
L 64.361629 224.64 
L 64.361629 218.150134 
L 62.852621 218.150134 
z
" clip-path="url(#pa1f1ab3e6e)" style="fill: #1f77b4"/>
   </g>
   <g id="patch_6">
    <path d="M 64.361629 224.64 
L 65.870637 224.64 
L 65.870637 209.890305 
L 64.361629 209.890305 
z
" clip-path="url(#pa1f1ab3e6e)" style="fill: #1f77b4"/>
   </g>
   <g id="patch_7">
    <path d="M 65.870637 224.64 
L 67.379645 224.64 
L 67.379645 207.530354 
L 65.870637 207.530354 
z
" clip-path="url(#pa1f1ab3e6e)" style="fill: #1f77b4"/>
   </g>
   <g id="patch_8">
    <path d="M 67.379645 224.64 
L 68.888653 224.64 
L 68.888653 203.990427 
L 67.379645 203.990427 
z
" clip-path="url(#pa1f1ab3e6e)" style="fill: #1f77b4"/>
   </g>
   <g id="patch_9">
    <path d="M 68.888653 224.64 
L 70.397661 224.64 
L 70.397661 209.890305 
L 68.888653 209.890305 
z
" clip-path="url(#pa1f1ab3e6e)" style="fill: #1f77b4"/>
   </g>
   <g id="patch_10">
    <path d="M 70.397661 224.64 
L 71.90667 224.64 
L 71.90667 205.170403 
L 70.397661 205.170403 
z
" clip-path="url(#pa1f1ab3e6e)" style="fill: #1f77b4"/>
   </g>
   <g id="patch_11">
    <path d="M 71.90667 224.64 
L 73.415678 224.64 
L 73.415678 199.860513 
L 71.90667 199.860513 
z
" clip-path="url(#pa1f1ab3e6e)" style="fill: #1f77b4"/>
   </g>
   <g id="patch_12">
    <path d="M 73.415678 224.64 
L 74.924686 224.64 
L 74.924686 192.190672 
L 73.415678 192.190672 
z
" clip-path="url(#pa1f1ab3e6e)" style="fill: #1f77b4"/>
   </g>
   <g id="patch_13">
    <path d="M 74.924686 224.64 
L 76.433694 224.64 
L 76.433694 195.730598 
L 74.924686 195.730598 
z
" clip-path="url(#pa1f1ab3e6e)" style="fill: #1f77b4"/>
   </g>
   <g id="patch_14">
    <path d="M 76.433694 224.64 
L 77.942702 224.64 
L 77.942702 179.800928 
L 76.433694 179.800928 
z
" clip-path="url(#pa1f1ab3e6e)" style="fill: #1f77b4"/>
   </g>
   <g id="patch_15">
    <path d="M 77.942702 224.64 
L 79.45171 224.64 
L 79.45171 180.980904 
L 77.942702 180.980904 
z
" clip-path="url(#pa1f1ab3e6e)" style="fill: #1f77b4"/>
   </g>
   <g id="patch_16">
    <path d="M 79.45171 224.64 
L 80.960718 224.64 
L 80.960718 183.930842 
L 79.45171 183.930842 
z
" clip-path="url(#pa1f1ab3e6e)" style="fill: #1f77b4"/>
   </g>
   <g id="patch_17">
    <path d="M 80.960718 224.64 
L 82.469726 224.64 
L 82.469726 181.570891 
L 80.960718 181.570891 
z
" clip-path="url(#pa1f1ab3e6e)" style="fill: #1f77b4"/>
   </g>
   <g id="patch_18">
    <path d="M 82.469726 224.64 
L 83.978734 224.64 
L 83.978734 186.880781 
L 82.469726 186.880781 
z
" clip-path="url(#pa1f1ab3e6e)" style="fill: #1f77b4"/>
   </g>
   <g id="patch_19">
    <path d="M 83.978734 224.64 
L 85.487742 224.64 
L 85.487742 182.160879 
L 83.978734 182.160879 
z
" clip-path="url(#pa1f1ab3e6e)" style="fill: #1f77b4"/>
   </g>
   <g id="patch_20">
    <path d="M 85.487742 224.64 
L 86.996751 224.64 
L 86.996751 166.231209 
L 85.487742 166.231209 
z
" clip-path="url(#pa1f1ab3e6e)" style="fill: #1f77b4"/>
   </g>
   <g id="patch_21">
    <path d="M 86.996751 224.64 
L 88.505759 224.64 
L 88.505759 178.030965 
L 86.996751 178.030965 
z
" clip-path="url(#pa1f1ab3e6e)" style="fill: #1f77b4"/>
   </g>
   <g id="patch_22">
    <path d="M 88.505759 224.64 
L 90.014767 224.64 
L 90.014767 171.541099 
L 88.505759 171.541099 
z
" clip-path="url(#pa1f1ab3e6e)" style="fill: #1f77b4"/>
   </g>
   <g id="patch_23">
    <path d="M 90.014767 224.64 
L 91.523775 224.64 
L 91.523775 160.921319 
L 90.014767 160.921319 
z
" clip-path="url(#pa1f1ab3e6e)" style="fill: #1f77b4"/>
   </g>
   <g id="patch_24">
    <path d="M 91.523775 224.64 
L 93.032783 224.64 
L 93.032783 165.051233 
L 91.523775 165.051233 
z
" clip-path="url(#pa1f1ab3e6e)" style="fill: #1f77b4"/>
   </g>
   <g id="patch_25">
    <path d="M 93.032783 224.64 
L 94.541791 224.64 
L 94.541791 166.821197 
L 93.032783 166.821197 
z
" clip-path="url(#pa1f1ab3e6e)" style="fill: #1f77b4"/>
   </g>
   <g id="patch_26">
    <path d="M 94.541791 224.64 
L 96.050799 224.64 
L 96.050799 151.481514 
L 94.541791 151.481514 
z
" clip-path="url(#pa1f1ab3e6e)" style="fill: #1f77b4"/>
   </g>
   <g id="patch_27">
    <path d="M 96.050799 224.64 
L 97.559807 224.64 
L 97.559807 160.921319 
L 96.050799 160.921319 
z
" clip-path="url(#pa1f1ab3e6e)" style="fill: #1f77b4"/>
   </g>
   <g id="patch_28">
    <path d="M 97.559807 224.64 
L 99.068815 224.64 
L 99.068815 160.331331 
L 97.559807 160.331331 
z
" clip-path="url(#pa1f1ab3e6e)" style="fill: #1f77b4"/>
   </g>
   <g id="patch_29">
    <path d="M 99.068815 224.64 
L 100.577823 224.64 
L 100.577823 158.561368 
L 99.068815 158.561368 
z
" clip-path="url(#pa1f1ab3e6e)" style="fill: #1f77b4"/>
   </g>
   <g id="patch_30">
    <path d="M 100.577823 224.64 
L 102.086832 224.64 
L 102.086832 148.531575 
L 100.577823 148.531575 
z
" clip-path="url(#pa1f1ab3e6e)" style="fill: #1f77b4"/>
   </g>
   <g id="patch_31">
    <path d="M 102.086832 224.64 
L 103.59584 224.64 
L 103.59584 145.581636 
L 102.086832 145.581636 
z
" clip-path="url(#pa1f1ab3e6e)" style="fill: #1f77b4"/>
   </g>
   <g id="patch_32">
    <path d="M 103.59584 224.64 
L 105.104848 224.64 
L 105.104848 145.581636 
L 103.59584 145.581636 
z
" clip-path="url(#pa1f1ab3e6e)" style="fill: #1f77b4"/>
   </g>
   <g id="patch_33">
    <path d="M 105.104848 224.64 
L 106.613856 224.64 
L 106.613856 134.371868 
L 105.104848 134.371868 
z
" clip-path="url(#pa1f1ab3e6e)" style="fill: #1f77b4"/>
   </g>
   <g id="patch_34">
    <path d="M 106.613856 224.64 
L 108.122864 224.64 
L 108.122864 136.731819 
L 106.613856 136.731819 
z
" clip-path="url(#pa1f1ab3e6e)" style="fill: #1f77b4"/>
   </g>
   <g id="patch_35">
    <path d="M 108.122864 224.64 
L 109.631872 224.64 
L 109.631872 133.78188 
L 108.122864 133.78188 
z
" clip-path="url(#pa1f1ab3e6e)" style="fill: #1f77b4"/>
   </g>
   <g id="patch_36">
    <path d="M 109.631872 224.64 
L 111.14088 224.64 
L 111.14088 124.342076 
L 109.631872 124.342076 
z
" clip-path="url(#pa1f1ab3e6e)" style="fill: #1f77b4"/>
   </g>
   <g id="patch_37">
    <path d="M 111.14088 224.64 
L 112.649888 224.64 
L 112.649888 134.961856 
L 111.14088 134.961856 
z
" clip-path="url(#pa1f1ab3e6e)" style="fill: #1f77b4"/>
   </g>
   <g id="patch_38">
    <path d="M 112.649888 224.64 
L 114.158896 224.64 
L 114.158896 126.702027 
L 112.649888 126.702027 
z
" clip-path="url(#pa1f1ab3e6e)" style="fill: #1f77b4"/>
   </g>
   <g id="patch_39">
    <path d="M 114.158896 224.64 
L 115.667904 224.64 
L 115.667904 128.47199 
L 114.158896 128.47199 
z
" clip-path="url(#pa1f1ab3e6e)" style="fill: #1f77b4"/>
   </g>
   <g id="patch_40">
    <path d="M 115.667904 224.64 
L 117.176913 224.64 
L 117.176913 128.47199 
L 115.667904 128.47199 
z
" clip-path="url(#pa1f1ab3e6e)" style="fill: #1f77b4"/>
   </g>
   <g id="patch_41">
    <path d="M 117.176913 224.64 
L 118.685921 224.64 
L 118.685921 113.722295 
L 117.176913 113.722295 
z
" clip-path="url(#pa1f1ab3e6e)" style="fill: #1f77b4"/>
   </g>
   <g id="patch_42">
    <path d="M 118.685921 224.64 
L 120.194929 224.64 
L 120.194929 126.702027 
L 118.685921 126.702027 
z
" clip-path="url(#pa1f1ab3e6e)" style="fill: #1f77b4"/>
   </g>
   <g id="patch_43">
    <path d="M 120.194929 224.64 
L 121.703937 224.64 
L 121.703937 97.202637 
L 120.194929 97.202637 
z
" clip-path="url(#pa1f1ab3e6e)" style="fill: #1f77b4"/>
   </g>
   <g id="patch_44">
    <path d="M 121.703937 224.64 
L 123.212945 224.64 
L 123.212945 121.982125 
L 121.703937 121.982125 
z
" clip-path="url(#pa1f1ab3e6e)" style="fill: #1f77b4"/>
   </g>
   <g id="patch_45">
    <path d="M 123.212945 224.64 
L 124.721953 224.64 
L 124.721953 94.842686 
L 123.212945 94.842686 
z
" clip-path="url(#pa1f1ab3e6e)" style="fill: #1f77b4"/>
   </g>
   <g id="patch_46">
    <path d="M 124.721953 224.64 
L 126.230961 224.64 
L 126.230961 111.362344 
L 124.721953 111.362344 
z
" clip-path="url(#pa1f1ab3e6e)" style="fill: #1f77b4"/>
   </g>
   <g id="patch_47">
    <path d="M 126.230961 224.64 
L 127.739969 224.64 
L 127.739969 107.822418 
L 126.230961 107.822418 
z
" clip-path="url(#pa1f1ab3e6e)" style="fill: #1f77b4"/>
   </g>
   <g id="patch_48">
    <path d="M 127.739969 224.64 
L 129.248977 224.64 
L 129.248977 98.382613 
L 127.739969 98.382613 
z
" clip-path="url(#pa1f1ab3e6e)" style="fill: #1f77b4"/>
   </g>
   <g id="patch_49">
    <path d="M 129.248977 224.64 
L 130.757985 224.64 
L 130.757985 71.243175 
L 129.248977 71.243175 
z
" clip-path="url(#pa1f1ab3e6e)" style="fill: #1f77b4"/>
   </g>
   <g id="patch_50">
    <path d="M 130.757985 224.64 
L 132.266994 224.64 
L 132.266994 98.972601 
L 130.757985 98.972601 
z
" clip-path="url(#pa1f1ab3e6e)" style="fill: #1f77b4"/>
   </g>
   <g id="patch_51">
    <path d="M 132.266994 224.64 
L 133.776002 224.64 
L 133.776002 80.682979 
L 132.266994 80.682979 
z
" clip-path="url(#pa1f1ab3e6e)" style="fill: #1f77b4"/>
   </g>
   <g id="patch_52">
    <path d="M 133.776002 224.64 
L 135.28501 224.64 
L 135.28501 88.942808 
L 133.776002 88.942808 
z
" clip-path="url(#pa1f1ab3e6e)" style="fill: #1f77b4"/>
   </g>
   <g id="patch_53">
    <path d="M 135.28501 224.64 
L 136.794018 224.64 
L 136.794018 94.252698 
L 135.28501 94.252698 
z
" clip-path="url(#pa1f1ab3e6e)" style="fill: #1f77b4"/>
   </g>
   <g id="patch_54">
    <path d="M 136.794018 224.64 
L 138.303026 224.64 
L 138.303026 96.61265 
L 136.794018 96.61265 
z
" clip-path="url(#pa1f1ab3e6e)" style="fill: #1f77b4"/>
   </g>
   <g id="patch_55">
    <path d="M 138.303026 224.64 
L 139.812034 224.64 
L 139.812034 107.23243 
L 138.303026 107.23243 
z
" clip-path="url(#pa1f1ab3e6e)" style="fill: #1f77b4"/>
   </g>
   <g id="patch_56">
    <path d="M 139.812034 224.64 
L 141.321042 224.64 
L 141.321042 102.512527 
L 139.812034 102.512527 
z
" clip-path="url(#pa1f1ab3e6e)" style="fill: #1f77b4"/>
   </g>
   <g id="patch_57">
    <path d="M 141.321042 224.64 
L 142.83005 224.64 
L 142.83005 93.662711 
L 141.321042 93.662711 
z
" clip-path="url(#pa1f1ab3e6e)" style="fill: #1f77b4"/>
   </g>
   <g id="patch_58">
    <path d="M 142.83005 224.64 
L 144.339058 224.64 
L 144.339058 71.243175 
L 142.83005 71.243175 
z
" clip-path="url(#pa1f1ab3e6e)" style="fill: #1f77b4"/>
   </g>
   <g id="patch_59">
    <path d="M 144.339058 224.64 
L 145.848066 224.64 
L 145.848066 83.632918 
L 144.339058 83.632918 
z
" clip-path="url(#pa1f1ab3e6e)" style="fill: #1f77b4"/>
   </g>
   <g id="patch_60">
    <path d="M 145.848066 224.64 
L 147.357075 224.64 
L 147.357075 98.382613 
L 145.848066 98.382613 
z
" clip-path="url(#pa1f1ab3e6e)" style="fill: #1f77b4"/>
   </g>
   <g id="patch_61">
    <path d="M 147.357075 224.64 
L 148.866083 224.64 
L 148.866083 70.653187 
L 147.357075 70.653187 
z
" clip-path="url(#pa1f1ab3e6e)" style="fill: #1f77b4"/>
   </g>
   <g id="patch_62">
    <path d="M 148.866083 224.64 
L 150.375091 224.64 
L 150.375091 85.402882 
L 148.866083 85.402882 
z
" clip-path="url(#pa1f1ab3e6e)" style="fill: #1f77b4"/>
   </g>
   <g id="patch_63">
    <path d="M 150.375091 224.64 
L 151.884099 224.64 
L 151.884099 81.272967 
L 150.375091 81.272967 
z
" clip-path="url(#pa1f1ab3e6e)" style="fill: #1f77b4"/>
   </g>
   <g id="patch_64">
    <path d="M 151.884099 224.64 
L 153.393107 224.64 
L 153.393107 80.092991 
L 151.884099 80.092991 
z
" clip-path="url(#pa1f1ab3e6e)" style="fill: #1f77b4"/>
   </g>
   <g id="patch_65">
    <path d="M 153.393107 224.64 
L 154.902115 224.64 
L 154.902115 87.172845 
L 153.393107 87.172845 
z
" clip-path="url(#pa1f1ab3e6e)" style="fill: #1f77b4"/>
   </g>
   <g id="patch_66">
    <path d="M 154.902115 224.64 
L 156.411123 224.64 
L 156.411123 69.473211 
L 154.902115 69.473211 
z
" clip-path="url(#pa1f1ab3e6e)" style="fill: #1f77b4"/>
   </g>
   <g id="patch_67">
    <path d="M 156.411123 224.64 
L 157.920131 224.64 
L 157.920131 64.163321 
L 156.411123 64.163321 
z
" clip-path="url(#pa1f1ab3e6e)" style="fill: #1f77b4"/>
   </g>
   <g id="patch_68">
    <path d="M 157.920131 224.64 
L 159.429139 224.64 
L 159.429139 75.963077 
L 157.920131 75.963077 
z
" clip-path="url(#pa1f1ab3e6e)" style="fill: #1f77b4"/>
   </g>
   <g id="patch_69">
    <path d="M 159.429139 224.64 
L 160.938147 224.64 
L 160.938147 60.033407 
L 159.429139 60.033407 
z
" clip-path="url(#pa1f1ab3e6e)" style="fill: #1f77b4"/>
   </g>
   <g id="patch_70">
    <path d="M 160.938147 224.64 
L 162.447156 224.64 
L 162.447156 88.942808 
L 160.938147 88.942808 
z
" clip-path="url(#pa1f1ab3e6e)" style="fill: #1f77b4"/>
   </g>
   <g id="patch_71">
    <path d="M 162.447156 224.64 
L 163.956164 224.64 
L 163.956164 73.603126 
L 162.447156 73.603126 
z
" clip-path="url(#pa1f1ab3e6e)" style="fill: #1f77b4"/>
   </g>
   <g id="patch_72">
    <path d="M 163.956164 224.64 
L 165.465172 224.64 
L 165.465172 84.812894 
L 163.956164 84.812894 
z
" clip-path="url(#pa1f1ab3e6e)" style="fill: #1f77b4"/>
   </g>
   <g id="patch_73">
    <path d="M 165.465172 224.64 
L 166.97418 224.64 
L 166.97418 55.903492 
L 165.465172 55.903492 
z
" clip-path="url(#pa1f1ab3e6e)" style="fill: #1f77b4"/>
   </g>
   <g id="patch_74">
    <path d="M 166.97418 224.64 
L 168.483188 224.64 
L 168.483188 41.153797 
L 166.97418 41.153797 
z
" clip-path="url(#pa1f1ab3e6e)" style="fill: #1f77b4"/>
   </g>
   <g id="patch_75">
    <path d="M 168.483188 224.64 
L 169.992196 224.64 
L 169.992196 57.673455 
L 168.483188 57.673455 
z
" clip-path="url(#pa1f1ab3e6e)" style="fill: #1f77b4"/>
   </g>
   <g id="patch_76">
    <path d="M 169.992196 224.64 
L 171.501204 224.64 
L 171.501204 62.983346 
L 169.992196 62.983346 
z
" clip-path="url(#pa1f1ab3e6e)" style="fill: #1f77b4"/>
   </g>
   <g id="patch_77">
    <path d="M 171.501204 224.64 
L 173.010212 224.64 
L 173.010212 49.413626 
L 171.501204 49.413626 
z
" clip-path="url(#pa1f1ab3e6e)" style="fill: #1f77b4"/>
   </g>
   <g id="patch_78">
    <path d="M 173.010212 224.64 
L 174.51922 224.64 
L 174.51922 57.083468 
L 173.010212 57.083468 
z
" clip-path="url(#pa1f1ab3e6e)" style="fill: #1f77b4"/>
   </g>
   <g id="patch_79">
    <path d="M 174.51922 224.64 
L 176.028228 224.64 
L 176.028228 48.233651 
L 174.51922 48.233651 
z
" clip-path="url(#pa1f1ab3e6e)" style="fill: #1f77b4"/>
   </g>
   <g id="patch_80">
    <path d="M 176.028228 224.64 
L 177.537237 224.64 
L 177.537237 48.233651 
L 176.028228 48.233651 
z
" clip-path="url(#pa1f1ab3e6e)" style="fill: #1f77b4"/>
   </g>
   <g id="patch_81">
    <path d="M 177.537237 224.64 
L 179.046245 224.64 
L 179.046245 46.463687 
L 177.537237 46.463687 
z
" clip-path="url(#pa1f1ab3e6e)" style="fill: #1f77b4"/>
   </g>
   <g id="patch_82">
    <path d="M 179.046245 224.64 
L 180.555253 224.64 
L 180.555253 49.413626 
L 179.046245 49.413626 
z
" clip-path="url(#pa1f1ab3e6e)" style="fill: #1f77b4"/>
   </g>
   <g id="patch_83">
    <path d="M 180.555253 224.64 
L 182.064261 224.64 
L 182.064261 44.103736 
L 180.555253 44.103736 
z
" clip-path="url(#pa1f1ab3e6e)" style="fill: #1f77b4"/>
   </g>
   <g id="patch_84">
    <path d="M 182.064261 224.64 
L 183.573269 224.64 
L 183.573269 62.983346 
L 182.064261 62.983346 
z
" clip-path="url(#pa1f1ab3e6e)" style="fill: #1f77b4"/>
   </g>
   <g id="patch_85">
    <path d="M 183.573269 224.64 
L 185.082277 224.64 
L 185.082277 25.224127 
L 183.573269 25.224127 
z
" clip-path="url(#pa1f1ab3e6e)" style="fill: #1f77b4"/>
   </g>
   <g id="patch_86">
    <path d="M 185.082277 224.64 
L 186.591285 224.64 
L 186.591285 29.354042 
L 185.082277 29.354042 
z
" clip-path="url(#pa1f1ab3e6e)" style="fill: #1f77b4"/>
   </g>
   <g id="patch_87">
    <path d="M 186.591285 224.64 
L 188.100293 224.64 
L 188.100293 57.083468 
L 186.591285 57.083468 
z
" clip-path="url(#pa1f1ab3e6e)" style="fill: #1f77b4"/>
   </g>
   <g id="patch_88">
    <path d="M 188.100293 224.64 
L 189.609301 224.64 
L 189.609301 54.723516 
L 188.100293 54.723516 
z
" clip-path="url(#pa1f1ab3e6e)" style="fill: #1f77b4"/>
   </g>
   <g id="patch_89">
    <path d="M 189.609301 224.64 
L 191.118309 224.64 
L 191.118309 49.413626 
L 189.609301 49.413626 
z
" clip-path="url(#pa1f1ab3e6e)" style="fill: #1f77b4"/>
   </g>
   <g id="patch_90">
    <path d="M 191.118309 224.64 
L 192.627318 224.64 
L 192.627318 39.973822 
L 191.118309 39.973822 
z
" clip-path="url(#pa1f1ab3e6e)" style="fill: #1f77b4"/>
   </g>
   <g id="patch_91">
    <path d="M 192.627318 224.64 
L 194.136326 224.64 
L 194.136326 34.663932 
L 192.627318 34.663932 
z
" clip-path="url(#pa1f1ab3e6e)" style="fill: #1f77b4"/>
   </g>
   <g id="patch_92">
    <path d="M 194.136326 224.64 
L 195.645334 224.64 
L 195.645334 38.203858 
L 194.136326 38.203858 
z
" clip-path="url(#pa1f1ab3e6e)" style="fill: #1f77b4"/>
   </g>
   <g id="patch_93">
    <path d="M 195.645334 224.64 
L 197.154342 224.64 
L 197.154342 39.383834 
L 195.645334 39.383834 
z
" clip-path="url(#pa1f1ab3e6e)" style="fill: #1f77b4"/>
   </g>
   <g id="patch_94">
    <path d="M 197.154342 224.64 
L 198.66335 224.64 
L 198.66335 48.233651 
L 197.154342 48.233651 
z
" clip-path="url(#pa1f1ab3e6e)" style="fill: #1f77b4"/>
   </g>
   <g id="patch_95">
    <path d="M 198.66335 224.64 
L 200.172358 224.64 
L 200.172358 49.413626 
L 198.66335 49.413626 
z
" clip-path="url(#pa1f1ab3e6e)" style="fill: #1f77b4"/>
   </g>
   <g id="patch_96">
    <path d="M 200.172358 224.64 
L 201.681366 224.64 
L 201.681366 58.263443 
L 200.172358 58.263443 
z
" clip-path="url(#pa1f1ab3e6e)" style="fill: #1f77b4"/>
   </g>
   <g id="patch_97">
    <path d="M 201.681366 224.64 
L 203.190374 224.64 
L 203.190374 47.643663 
L 201.681366 47.643663 
z
" clip-path="url(#pa1f1ab3e6e)" style="fill: #1f77b4"/>
   </g>
   <g id="patch_98">
    <path d="M 203.190374 224.64 
L 204.699382 224.64 
L 204.699382 39.973822 
L 203.190374 39.973822 
z
" clip-path="url(#pa1f1ab3e6e)" style="fill: #1f77b4"/>
   </g>
   <g id="patch_99">
    <path d="M 204.699382 224.64 
L 206.20839 224.64 
L 206.20839 37.023883 
L 204.699382 37.023883 
z
" clip-path="url(#pa1f1ab3e6e)" style="fill: #1f77b4"/>
   </g>
   <g id="patch_100">
    <path d="M 206.20839 224.64 
L 207.717399 224.64 
L 207.717399 34.663932 
L 206.20839 34.663932 
z
" clip-path="url(#pa1f1ab3e6e)" style="fill: #1f77b4"/>
   </g>
   <g id="patch_101">
    <path d="M 207.717399 224.64 
L 209.226407 224.64 
L 209.226407 19.324249 
L 207.717399 19.324249 
z
" clip-path="url(#pa1f1ab3e6e)" style="fill: #1f77b4"/>
   </g>
   <g id="patch_102">
    <path d="M 209.226407 224.64 
L 210.735415 224.64 
L 210.735415 52.953553 
L 209.226407 52.953553 
z
" clip-path="url(#pa1f1ab3e6e)" style="fill: #1f77b4"/>
   </g>
   <g id="patch_103">
    <path d="M 210.735415 224.64 
L 212.244423 224.64 
L 212.244423 31.713993 
L 210.735415 31.713993 
z
" clip-path="url(#pa1f1ab3e6e)" style="fill: #1f77b4"/>
   </g>
   <g id="patch_104">
    <path d="M 212.244423 224.64 
L 213.753431 224.64 
L 213.753431 20.504225 
L 212.244423 20.504225 
z
" clip-path="url(#pa1f1ab3e6e)" style="fill: #1f77b4"/>
   </g>
   <g id="patch_105">
    <path d="M 213.753431 224.64 
L 215.262439 224.64 
L 215.262439 31.124005 
L 213.753431 31.124005 
z
" clip-path="url(#pa1f1ab3e6e)" style="fill: #1f77b4"/>
   </g>
   <g id="patch_106">
    <path d="M 215.262439 224.64 
L 216.771447 224.64 
L 216.771447 70.653187 
L 215.262439 70.653187 
z
" clip-path="url(#pa1f1ab3e6e)" style="fill: #1f77b4"/>
   </g>
   <g id="patch_107">
    <path d="M 216.771447 224.64 
L 218.280455 224.64 
L 218.280455 25.224127 
L 216.771447 25.224127 
z
" clip-path="url(#pa1f1ab3e6e)" style="fill: #1f77b4"/>
   </g>
   <g id="patch_108">
    <path d="M 218.280455 224.64 
L 219.789463 224.64 
L 219.789463 33.483956 
L 218.280455 33.483956 
z
" clip-path="url(#pa1f1ab3e6e)" style="fill: #1f77b4"/>
   </g>
   <g id="patch_109">
    <path d="M 219.789463 224.64 
L 221.298471 224.64 
L 221.298471 40.56381 
L 219.789463 40.56381 
z
" clip-path="url(#pa1f1ab3e6e)" style="fill: #1f77b4"/>
   </g>
   <g id="patch_110">
    <path d="M 221.298471 224.64 
L 222.80748 224.64 
L 222.80748 48.233651 
L 221.298471 48.233651 
z
" clip-path="url(#pa1f1ab3e6e)" style="fill: #1f77b4"/>
   </g>
   <g id="patch_111">
    <path d="M 222.80748 224.64 
L 224.316488 224.64 
L 224.316488 48.233651 
L 222.80748 48.233651 
z
" clip-path="url(#pa1f1ab3e6e)" style="fill: #1f77b4"/>
   </g>
   <g id="patch_112">
    <path d="M 224.316488 224.64 
L 225.825496 224.64 
L 225.825496 17.554286 
L 224.316488 17.554286 
z
" clip-path="url(#pa1f1ab3e6e)" style="fill: #1f77b4"/>
   </g>
   <g id="patch_113">
    <path d="M 225.825496 224.64 
L 227.334504 224.64 
L 227.334504 48.823639 
L 225.825496 48.823639 
z
" clip-path="url(#pa1f1ab3e6e)" style="fill: #1f77b4"/>
   </g>
   <g id="patch_114">
    <path d="M 227.334504 224.64 
L 228.843512 224.64 
L 228.843512 35.253919 
L 227.334504 35.253919 
z
" clip-path="url(#pa1f1ab3e6e)" style="fill: #1f77b4"/>
   </g>
   <g id="patch_115">
    <path d="M 228.843512 224.64 
L 230.35252 224.64 
L 230.35252 44.693724 
L 228.843512 44.693724 
z
" clip-path="url(#pa1f1ab3e6e)" style="fill: #1f77b4"/>
   </g>
   <g id="patch_116">
    <path d="M 230.35252 224.64 
L 231.861528 224.64 
L 231.861528 47.643663 
L 230.35252 47.643663 
z
" clip-path="url(#pa1f1ab3e6e)" style="fill: #1f77b4"/>
   </g>
   <g id="patch_117">
    <path d="M 231.861528 224.64 
L 233.370536 224.64 
L 233.370536 44.693724 
L 231.861528 44.693724 
z
" clip-path="url(#pa1f1ab3e6e)" style="fill: #1f77b4"/>
   </g>
   <g id="patch_118">
    <path d="M 233.370536 224.64 
L 234.879544 224.64 
L 234.879544 43.513748 
L 233.370536 43.513748 
z
" clip-path="url(#pa1f1ab3e6e)" style="fill: #1f77b4"/>
   </g>
   <g id="patch_119">
    <path d="M 234.879544 224.64 
L 236.388552 224.64 
L 236.388552 39.973822 
L 234.879544 39.973822 
z
" clip-path="url(#pa1f1ab3e6e)" style="fill: #1f77b4"/>
   </g>
   <g id="patch_120">
    <path d="M 236.388552 224.64 
L 237.897561 224.64 
L 237.897561 36.433895 
L 236.388552 36.433895 
z
" clip-path="url(#pa1f1ab3e6e)" style="fill: #1f77b4"/>
   </g>
   <g id="patch_121">
    <path d="M 237.897561 224.64 
L 239.406569 224.64 
L 239.406569 40.56381 
L 237.897561 40.56381 
z
" clip-path="url(#pa1f1ab3e6e)" style="fill: #1f77b4"/>
   </g>
   <g id="patch_122">
    <path d="M 239.406569 224.64 
L 240.915577 224.64 
L 240.915577 56.49348 
L 239.406569 56.49348 
z
" clip-path="url(#pa1f1ab3e6e)" style="fill: #1f77b4"/>
   </g>
   <g id="patch_123">
    <path d="M 240.915577 224.64 
L 242.424585 224.64 
L 242.424585 51.18359 
L 240.915577 51.18359 
z
" clip-path="url(#pa1f1ab3e6e)" style="fill: #1f77b4"/>
   </g>
   <g id="patch_124">
    <path d="M 242.424585 224.64 
L 243.933593 224.64 
L 243.933593 60.623394 
L 242.424585 60.623394 
z
" clip-path="url(#pa1f1ab3e6e)" style="fill: #1f77b4"/>
   </g>
   <g id="patch_125">
    <path d="M 243.933593 224.64 
L 245.442601 224.64 
L 245.442601 57.673455 
L 243.933593 57.673455 
z
" clip-path="url(#pa1f1ab3e6e)" style="fill: #1f77b4"/>
   </g>
   <g id="patch_126">
    <path d="M 245.442601 224.64 
L 246.951609 224.64 
L 246.951609 44.693724 
L 245.442601 44.693724 
z
" clip-path="url(#pa1f1ab3e6e)" style="fill: #1f77b4"/>
   </g>
   <g id="patch_127">
    <path d="M 246.951609 224.64 
L 248.460617 224.64 
L 248.460617 74.193114 
L 246.951609 74.193114 
z
" clip-path="url(#pa1f1ab3e6e)" style="fill: #1f77b4"/>
   </g>
   <g id="patch_128">
    <path d="M 248.460617 224.64 
L 249.969625 224.64 
L 249.969625 48.823639 
L 248.460617 48.823639 
z
" clip-path="url(#pa1f1ab3e6e)" style="fill: #1f77b4"/>
   </g>
   <g id="patch_129">
    <path d="M 249.969625 224.64 
L 251.478633 224.64 
L 251.478633 49.413626 
L 249.969625 49.413626 
z
" clip-path="url(#pa1f1ab3e6e)" style="fill: #1f77b4"/>
   </g>
   <g id="patch_130">
    <path d="M 251.478633 224.64 
L 252.987642 224.64 
L 252.987642 67.11326 
L 251.478633 67.11326 
z
" clip-path="url(#pa1f1ab3e6e)" style="fill: #1f77b4"/>
   </g>
   <g id="patch_131">
    <path d="M 252.987642 224.64 
L 254.49665 224.64 
L 254.49665 72.42315 
L 252.987642 72.42315 
z
" clip-path="url(#pa1f1ab3e6e)" style="fill: #1f77b4"/>
   </g>
   <g id="patch_132">
    <path d="M 254.49665 224.64 
L 256.005658 224.64 
L 256.005658 75.373089 
L 254.49665 75.373089 
z
" clip-path="url(#pa1f1ab3e6e)" style="fill: #1f77b4"/>
   </g>
   <g id="patch_133">
    <path d="M 256.005658 224.64 
L 257.514666 224.64 
L 257.514666 47.643663 
L 256.005658 47.643663 
z
" clip-path="url(#pa1f1ab3e6e)" style="fill: #1f77b4"/>
   </g>
   <g id="patch_134">
    <path d="M 257.514666 224.64 
L 259.023674 224.64 
L 259.023674 64.753309 
L 257.514666 64.753309 
z
" clip-path="url(#pa1f1ab3e6e)" style="fill: #1f77b4"/>
   </g>
   <g id="patch_135">
    <path d="M 259.023674 224.64 
L 260.532682 224.64 
L 260.532682 66.523272 
L 259.023674 66.523272 
z
" clip-path="url(#pa1f1ab3e6e)" style="fill: #1f77b4"/>
   </g>
   <g id="patch_136">
    <path d="M 260.532682 224.64 
L 262.04169 224.64 
L 262.04169 47.053675 
L 260.532682 47.053675 
z
" clip-path="url(#pa1f1ab3e6e)" style="fill: #1f77b4"/>
   </g>
   <g id="patch_137">
    <path d="M 262.04169 224.64 
L 263.550698 224.64 
L 263.550698 74.193114 
L 262.04169 74.193114 
z
" clip-path="url(#pa1f1ab3e6e)" style="fill: #1f77b4"/>
   </g>
   <g id="patch_138">
    <path d="M 263.550698 224.64 
L 265.059706 224.64 
L 265.059706 75.963077 
L 263.550698 75.963077 
z
" clip-path="url(#pa1f1ab3e6e)" style="fill: #1f77b4"/>
   </g>
   <g id="patch_139">
    <path d="M 265.059706 224.64 
L 266.568714 224.64 
L 266.568714 78.323028 
L 265.059706 78.323028 
z
" clip-path="url(#pa1f1ab3e6e)" style="fill: #1f77b4"/>
   </g>
   <g id="patch_140">
    <path d="M 266.568714 224.64 
L 268.077723 224.64 
L 268.077723 94.252698 
L 266.568714 94.252698 
z
" clip-path="url(#pa1f1ab3e6e)" style="fill: #1f77b4"/>
   </g>
   <g id="patch_141">
    <path d="M 268.077723 224.64 
L 269.586731 224.64 
L 269.586731 60.623394 
L 268.077723 60.623394 
z
" clip-path="url(#pa1f1ab3e6e)" style="fill: #1f77b4"/>
   </g>
   <g id="patch_142">
    <path d="M 269.586731 224.64 
L 271.095739 224.64 
L 271.095739 75.963077 
L 269.586731 75.963077 
z
" clip-path="url(#pa1f1ab3e6e)" style="fill: #1f77b4"/>
   </g>
   <g id="patch_143">
    <path d="M 271.095739 224.64 
L 272.604747 224.64 
L 272.604747 58.853431 
L 271.095739 58.853431 
z
" clip-path="url(#pa1f1ab3e6e)" style="fill: #1f77b4"/>
   </g>
   <g id="patch_144">
    <path d="M 272.604747 224.64 
L 274.113755 224.64 
L 274.113755 65.343297 
L 272.604747 65.343297 
z
" clip-path="url(#pa1f1ab3e6e)" style="fill: #1f77b4"/>
   </g>
   <g id="patch_145">
    <path d="M 274.113755 224.64 
L 275.622763 224.64 
L 275.622763 74.193114 
L 274.113755 74.193114 
z
" clip-path="url(#pa1f1ab3e6e)" style="fill: #1f77b4"/>
   </g>
   <g id="patch_146">
    <path d="M 275.622763 224.64 
L 277.131771 224.64 
L 277.131771 83.04293 
L 275.622763 83.04293 
z
" clip-path="url(#pa1f1ab3e6e)" style="fill: #1f77b4"/>
   </g>
   <g id="patch_147">
    <path d="M 277.131771 224.64 
L 278.640779 224.64 
L 278.640779 70.063199 
L 277.131771 70.063199 
z
" clip-path="url(#pa1f1ab3e6e)" style="fill: #1f77b4"/>
   </g>
   <g id="patch_148">
    <path d="M 278.640779 224.64 
L 280.149787 224.64 
L 280.149787 97.792625 
L 278.640779 97.792625 
z
" clip-path="url(#pa1f1ab3e6e)" style="fill: #1f77b4"/>
   </g>
   <g id="patch_149">
    <path d="M 280.149787 224.64 
L 281.658795 224.64 
L 281.658795 83.04293 
L 280.149787 83.04293 
z
" clip-path="url(#pa1f1ab3e6e)" style="fill: #1f77b4"/>
   </g>
   <g id="patch_150">
    <path d="M 281.658795 224.64 
L 283.167804 224.64 
L 283.167804 83.04293 
L 281.658795 83.04293 
z
" clip-path="url(#pa1f1ab3e6e)" style="fill: #1f77b4"/>
   </g>
   <g id="patch_151">
    <path d="M 283.167804 224.64 
L 284.676812 224.64 
L 284.676812 105.462466 
L 283.167804 105.462466 
z
" clip-path="url(#pa1f1ab3e6e)" style="fill: #1f77b4"/>
   </g>
   <g id="patch_152">
    <path d="M 284.676812 224.64 
L 286.18582 224.64 
L 286.18582 85.402882 
L 284.676812 85.402882 
z
" clip-path="url(#pa1f1ab3e6e)" style="fill: #1f77b4"/>
   </g>
   <g id="patch_153">
    <path d="M 286.18582 224.64 
L 287.694828 224.64 
L 287.694828 100.742564 
L 286.18582 100.742564 
z
" clip-path="url(#pa1f1ab3e6e)" style="fill: #1f77b4"/>
   </g>
   <g id="patch_154">
    <path d="M 287.694828 224.64 
L 289.203836 224.64 
L 289.203836 92.482735 
L 287.694828 92.482735 
z
" clip-path="url(#pa1f1ab3e6e)" style="fill: #1f77b4"/>
   </g>
   <g id="patch_155">
    <path d="M 289.203836 224.64 
L 290.712844 224.64 
L 290.712844 98.972601 
L 289.203836 98.972601 
z
" clip-path="url(#pa1f1ab3e6e)" style="fill: #1f77b4"/>
   </g>
   <g id="patch_156">
    <path d="M 290.712844 224.64 
L 292.221852 224.64 
L 292.221852 101.92254 
L 290.712844 101.92254 
z
" clip-path="url(#pa1f1ab3e6e)" style="fill: #1f77b4"/>
   </g>
   <g id="patch_157">
    <path d="M 292.221852 224.64 
L 293.73086 224.64 
L 293.73086 99.562589 
L 292.221852 99.562589 
z
" clip-path="url(#pa1f1ab3e6e)" style="fill: #1f77b4"/>
   </g>
   <g id="patch_158">
    <path d="M 293.73086 224.64 
L 295.239868 224.64 
L 295.239868 107.822418 
L 293.73086 107.822418 
z
" clip-path="url(#pa1f1ab3e6e)" style="fill: #1f77b4"/>
   </g>
   <g id="patch_159">
    <path d="M 295.239868 224.64 
L 296.748876 224.64 
L 296.748876 100.742564 
L 295.239868 100.742564 
z
" clip-path="url(#pa1f1ab3e6e)" style="fill: #1f77b4"/>
   </g>
   <g id="patch_160">
    <path d="M 296.748876 224.64 
L 298.257885 224.64 
L 298.257885 109.592381 
L 296.748876 109.592381 
z
" clip-path="url(#pa1f1ab3e6e)" style="fill: #1f77b4"/>
   </g>
   <g id="patch_161">
    <path d="M 298.257885 224.64 
L 299.766893 224.64 
L 299.766893 112.54232 
L 298.257885 112.54232 
z
" clip-path="url(#pa1f1ab3e6e)" style="fill: #1f77b4"/>
   </g>
   <g id="patch_162">
    <path d="M 299.766893 224.64 
L 301.275901 224.64 
L 301.275901 116.672234 
L 299.766893 116.672234 
z
" clip-path="url(#pa1f1ab3e6e)" style="fill: #1f77b4"/>
   </g>
   <g id="patch_163">
    <path d="M 301.275901 224.64 
L 302.784909 224.64 
L 302.784909 114.312283 
L 301.275901 114.312283 
z
" clip-path="url(#pa1f1ab3e6e)" style="fill: #1f77b4"/>
   </g>
   <g id="patch_164">
    <path d="M 302.784909 224.64 
L 304.293917 224.64 
L 304.293917 109.002393 
L 302.784909 109.002393 
z
" clip-path="url(#pa1f1ab3e6e)" style="fill: #1f77b4"/>
   </g>
   <g id="patch_165">
    <path d="M 304.293917 224.64 
L 305.802925 224.64 
L 305.802925 114.312283 
L 304.293917 114.312283 
z
" clip-path="url(#pa1f1ab3e6e)" style="fill: #1f77b4"/>
   </g>
   <g id="patch_166">
    <path d="M 305.802925 224.64 
L 307.311933 224.64 
L 307.311933 118.442198 
L 305.802925 118.442198 
z
" clip-path="url(#pa1f1ab3e6e)" style="fill: #1f77b4"/>
   </g>
   <g id="patch_167">
    <path d="M 307.311933 224.64 
L 308.820941 224.64 
L 308.820941 130.241954 
L 307.311933 130.241954 
z
" clip-path="url(#pa1f1ab3e6e)" style="fill: #1f77b4"/>
   </g>
   <g id="patch_168">
    <path d="M 308.820941 224.64 
L 310.329949 224.64 
L 310.329949 119.032186 
L 308.820941 119.032186 
z
" clip-path="url(#pa1f1ab3e6e)" style="fill: #1f77b4"/>
   </g>
   <g id="patch_169">
    <path d="M 310.329949 224.64 
L 311.838957 224.64 
L 311.838957 129.061978 
L 310.329949 129.061978 
z
" clip-path="url(#pa1f1ab3e6e)" style="fill: #1f77b4"/>
   </g>
   <g id="patch_170">
    <path d="M 311.838957 224.64 
L 313.347966 224.64 
L 313.347966 124.932063 
L 311.838957 124.932063 
z
" clip-path="url(#pa1f1ab3e6e)" style="fill: #1f77b4"/>
   </g>
   <g id="patch_171">
    <path d="M 313.347966 224.64 
L 314.856974 224.64 
L 314.856974 143.221685 
L 313.347966 143.221685 
z
" clip-path="url(#pa1f1ab3e6e)" style="fill: #1f77b4"/>
   </g>
   <g id="patch_172">
    <path d="M 314.856974 224.64 
L 316.365982 224.64 
L 316.365982 133.78188 
L 314.856974 133.78188 
z
" clip-path="url(#pa1f1ab3e6e)" style="fill: #1f77b4"/>
   </g>
   <g id="patch_173">
    <path d="M 316.365982 224.64 
L 317.87499 224.64 
L 317.87499 153.251477 
L 316.365982 153.251477 
z
" clip-path="url(#pa1f1ab3e6e)" style="fill: #1f77b4"/>
   </g>
   <g id="patch_174">
    <path d="M 317.87499 224.64 
L 319.383998 224.64 
L 319.383998 139.09177 
L 317.87499 139.09177 
z
" clip-path="url(#pa1f1ab3e6e)" style="fill: #1f77b4"/>
   </g>
   <g id="patch_175">
    <path d="M 319.383998 224.64 
L 320.893006 224.64 
L 320.893006 140.271746 
L 319.383998 140.271746 
z
" clip-path="url(#pa1f1ab3e6e)" style="fill: #1f77b4"/>
   </g>
   <g id="patch_176">
    <path d="M 320.893006 224.64 
L 322.402014 224.64 
L 322.402014 150.891526 
L 320.893006 150.891526 
z
" clip-path="url(#pa1f1ab3e6e)" style="fill: #1f77b4"/>
   </g>
   <g id="patch_177">
    <path d="M 322.402014 224.64 
L 323.911022 224.64 
L 323.911022 152.071502 
L 322.402014 152.071502 
z
" clip-path="url(#pa1f1ab3e6e)" style="fill: #1f77b4"/>
   </g>
   <g id="patch_178">
    <path d="M 323.911022 224.64 
L 325.42003 224.64 
L 325.42003 156.201416 
L 323.911022 156.201416 
z
" clip-path="url(#pa1f1ab3e6e)" style="fill: #1f77b4"/>
   </g>
   <g id="patch_179">
    <path d="M 325.42003 224.64 
L 326.929038 224.64 
L 326.929038 146.761612 
L 325.42003 146.761612 
z
" clip-path="url(#pa1f1ab3e6e)" style="fill: #1f77b4"/>
   </g>
   <g id="patch_180">
    <path d="M 326.929038 224.64 
L 328.438047 224.64 
L 328.438047 153.251477 
L 326.929038 153.251477 
z
" clip-path="url(#pa1f1ab3e6e)" style="fill: #1f77b4"/>
   </g>
   <g id="patch_181">
    <path d="M 328.438047 224.64 
L 329.947055 224.64 
L 329.947055 165.641221 
L 328.438047 165.641221 
z
" clip-path="url(#pa1f1ab3e6e)" style="fill: #1f77b4"/>
   </g>
   <g id="patch_182">
    <path d="M 329.947055 224.64 
L 331.456063 224.64 
L 331.456063 167.411184 
L 329.947055 167.411184 
z
" clip-path="url(#pa1f1ab3e6e)" style="fill: #1f77b4"/>
   </g>
   <g id="patch_183">
    <path d="M 331.456063 224.64 
L 332.965071 224.64 
L 332.965071 168.59116 
L 331.456063 168.59116 
z
" clip-path="url(#pa1f1ab3e6e)" style="fill: #1f77b4"/>
   </g>
   <g id="patch_184">
    <path d="M 332.965071 224.64 
L 334.474079 224.64 
L 334.474079 167.411184 
L 332.965071 167.411184 
z
" clip-path="url(#pa1f1ab3e6e)" style="fill: #1f77b4"/>
   </g>
   <g id="patch_185">
    <path d="M 334.474079 224.64 
L 335.983087 224.64 
L 335.983087 169.771136 
L 334.474079 169.771136 
z
" clip-path="url(#pa1f1ab3e6e)" style="fill: #1f77b4"/>
   </g>
   <g id="patch_186">
    <path d="M 335.983087 224.64 
L 337.492095 224.64 
L 337.492095 172.131087 
L 335.983087 172.131087 
z
" clip-path="url(#pa1f1ab3e6e)" style="fill: #1f77b4"/>
   </g>
   <g id="patch_187">
    <path d="M 337.492095 224.64 
L 339.001103 224.64 
L 339.001103 184.52083 
L 337.492095 184.52083 
z
" clip-path="url(#pa1f1ab3e6e)" style="fill: #1f77b4"/>
   </g>
   <g id="patch_188">
    <path d="M 339.001103 224.64 
L 340.510111 224.64 
L 340.510111 183.340855 
L 339.001103 183.340855 
z
" clip-path="url(#pa1f1ab3e6e)" style="fill: #1f77b4"/>
   </g>
   <g id="patch_189">
    <path d="M 340.510111 224.64 
L 342.019119 224.64 
L 342.019119 179.21094 
L 340.510111 179.21094 
z
" clip-path="url(#pa1f1ab3e6e)" style="fill: #1f77b4"/>
   </g>
   <g id="patch_190">
    <path d="M 342.019119 224.64 
L 343.528128 224.64 
L 343.528128 185.700806 
L 342.019119 185.700806 
z
" clip-path="url(#pa1f1ab3e6e)" style="fill: #1f77b4"/>
   </g>
   <g id="patch_191">
    <path d="M 343.528128 224.64 
L 345.037136 224.64 
L 345.037136 186.290794 
L 343.528128 186.290794 
z
" clip-path="url(#pa1f1ab3e6e)" style="fill: #1f77b4"/>
   </g>
   <g id="patch_192">
    <path d="M 345.037136 224.64 
L 346.546144 224.64 
L 346.546144 192.780659 
L 345.037136 192.780659 
z
" clip-path="url(#pa1f1ab3e6e)" style="fill: #1f77b4"/>
   </g>
   <g id="patch_193">
    <path d="M 346.546144 224.64 
L 348.055152 224.64 
L 348.055152 193.960635 
L 346.546144 193.960635 
z
" clip-path="url(#pa1f1ab3e6e)" style="fill: #1f77b4"/>
   </g>
   <g id="patch_194">
    <path d="M 348.055152 224.64 
L 349.56416 224.64 
L 349.56416 199.860513 
L 348.055152 199.860513 
z
" clip-path="url(#pa1f1ab3e6e)" style="fill: #1f77b4"/>
   </g>
   <g id="patch_195">
    <path d="M 349.56416 224.64 
L 351.073168 224.64 
L 351.073168 202.810452 
L 349.56416 202.810452 
z
" clip-path="url(#pa1f1ab3e6e)" style="fill: #1f77b4"/>
   </g>
   <g id="patch_196">
    <path d="M 351.073168 224.64 
L 352.582176 224.64 
L 352.582176 205.170403 
L 351.073168 205.170403 
z
" clip-path="url(#pa1f1ab3e6e)" style="fill: #1f77b4"/>
   </g>
   <g id="patch_197">
    <path d="M 352.582176 224.64 
L 354.091184 224.64 
L 354.091184 203.990427 
L 352.582176 203.990427 
z
" clip-path="url(#pa1f1ab3e6e)" style="fill: #1f77b4"/>
   </g>
   <g id="patch_198">
    <path d="M 354.091184 224.64 
L 355.600192 224.64 
L 355.600192 205.760391 
L 354.091184 205.760391 
z
" clip-path="url(#pa1f1ab3e6e)" style="fill: #1f77b4"/>
   </g>
   <g id="patch_199">
    <path d="M 355.600192 224.64 
L 357.1092 224.64 
L 357.1092 209.890305 
L 355.600192 209.890305 
z
" clip-path="url(#pa1f1ab3e6e)" style="fill: #1f77b4"/>
   </g>
   <g id="patch_200">
    <path d="M 357.1092 224.64 
L 358.618209 224.64 
L 358.618209 216.970159 
L 357.1092 216.970159 
z
" clip-path="url(#pa1f1ab3e6e)" style="fill: #1f77b4"/>
   </g>
   <g id="patch_201">
    <path d="M 358.618209 224.64 
L 360.127217 224.64 
L 360.127217 216.380171 
L 358.618209 216.380171 
z
" clip-path="url(#pa1f1ab3e6e)" style="fill: #1f77b4"/>
   </g>
   <g id="patch_202">
    <path d="M 360.127217 224.64 
L 361.636225 224.64 
L 361.636225 217.560147 
L 360.127217 217.560147 
z
" clip-path="url(#pa1f1ab3e6e)" style="fill: #1f77b4"/>
   </g>
   <g id="matplotlib.axis_1">
    <g id="xtick_1">
     <g id="line2d_1">
      <defs>
       <path id="m0457debac1" d="M 0 0 
L 0 3.5 
" style="stroke: #000000; stroke-width: 0.8"/>
      </defs>
      <g>
       <use xlink:href="#m0457debac1" x="58.999432" y="224.64" style="stroke: #000000; stroke-width: 0.8"/>
      </g>
     </g>
     <g id="text_1">
      <!-- 0.0 -->
      <g transform="translate(51.047869 239.238437)scale(0.1 -0.1)">
       <defs>
        <path id="DejaVuSans-30" d="M 2034 4250 
Q 1547 4250 1301 3770 
Q 1056 3291 1056 2328 
Q 1056 1369 1301 889 
Q 1547 409 2034 409 
Q 2525 409 2770 889 
Q 3016 1369 3016 2328 
Q 3016 3291 2770 3770 
Q 2525 4250 2034 4250 
z
M 2034 4750 
Q 2819 4750 3233 4129 
Q 3647 3509 3647 2328 
Q 3647 1150 3233 529 
Q 2819 -91 2034 -91 
Q 1250 -91 836 529 
Q 422 1150 422 2328 
Q 422 3509 836 4129 
Q 1250 4750 2034 4750 
z
" transform="scale(0.015625)"/>
        <path id="DejaVuSans-2e" d="M 684 794 
L 1344 794 
L 1344 0 
L 684 0 
L 684 794 
z
" transform="scale(0.015625)"/>
       </defs>
       <use xlink:href="#DejaVuSans-30"/>
       <use xlink:href="#DejaVuSans-2e" x="63.623047"/>
       <use xlink:href="#DejaVuSans-30" x="95.410156"/>
      </g>
     </g>
    </g>
    <g id="xtick_2">
     <g id="line2d_2">
      <g>
       <use xlink:href="#m0457debac1" x="97.752214" y="224.64" style="stroke: #000000; stroke-width: 0.8"/>
      </g>
     </g>
     <g id="text_2">
      <!-- 0.2 -->
      <g transform="translate(89.800651 239.238437)scale(0.1 -0.1)">
       <defs>
        <path id="DejaVuSans-32" d="M 1228 531 
L 3431 531 
L 3431 0 
L 469 0 
L 469 531 
Q 828 903 1448 1529 
Q 2069 2156 2228 2338 
Q 2531 2678 2651 2914 
Q 2772 3150 2772 3378 
Q 2772 3750 2511 3984 
Q 2250 4219 1831 4219 
Q 1534 4219 1204 4116 
Q 875 4013 500 3803 
L 500 4441 
Q 881 4594 1212 4672 
Q 1544 4750 1819 4750 
Q 2544 4750 2975 4387 
Q 3406 4025 3406 3419 
Q 3406 3131 3298 2873 
Q 3191 2616 2906 2266 
Q 2828 2175 2409 1742 
Q 1991 1309 1228 531 
z
" transform="scale(0.015625)"/>
       </defs>
       <use xlink:href="#DejaVuSans-30"/>
       <use xlink:href="#DejaVuSans-2e" x="63.623047"/>
       <use xlink:href="#DejaVuSans-32" x="95.410156"/>
      </g>
     </g>
    </g>
    <g id="xtick_3">
     <g id="line2d_3">
      <g>
       <use xlink:href="#m0457debac1" x="136.504995" y="224.64" style="stroke: #000000; stroke-width: 0.8"/>
      </g>
     </g>
     <g id="text_3">
      <!-- 0.4 -->
      <g transform="translate(128.553433 239.238437)scale(0.1 -0.1)">
       <defs>
        <path id="DejaVuSans-34" d="M 2419 4116 
L 825 1625 
L 2419 1625 
L 2419 4116 
z
M 2253 4666 
L 3047 4666 
L 3047 1625 
L 3713 1625 
L 3713 1100 
L 3047 1100 
L 3047 0 
L 2419 0 
L 2419 1100 
L 313 1100 
L 313 1709 
L 2253 4666 
z
" transform="scale(0.015625)"/>
       </defs>
       <use xlink:href="#DejaVuSans-30"/>
       <use xlink:href="#DejaVuSans-2e" x="63.623047"/>
       <use xlink:href="#DejaVuSans-34" x="95.410156"/>
      </g>
     </g>
    </g>
    <g id="xtick_4">
     <g id="line2d_4">
      <g>
       <use xlink:href="#m0457debac1" x="175.257777" y="224.64" style="stroke: #000000; stroke-width: 0.8"/>
      </g>
     </g>
     <g id="text_4">
      <!-- 0.6 -->
      <g transform="translate(167.306215 239.238437)scale(0.1 -0.1)">
       <defs>
        <path id="DejaVuSans-36" d="M 2113 2584 
Q 1688 2584 1439 2293 
Q 1191 2003 1191 1497 
Q 1191 994 1439 701 
Q 1688 409 2113 409 
Q 2538 409 2786 701 
Q 3034 994 3034 1497 
Q 3034 2003 2786 2293 
Q 2538 2584 2113 2584 
z
M 3366 4563 
L 3366 3988 
Q 3128 4100 2886 4159 
Q 2644 4219 2406 4219 
Q 1781 4219 1451 3797 
Q 1122 3375 1075 2522 
Q 1259 2794 1537 2939 
Q 1816 3084 2150 3084 
Q 2853 3084 3261 2657 
Q 3669 2231 3669 1497 
Q 3669 778 3244 343 
Q 2819 -91 2113 -91 
Q 1303 -91 875 529 
Q 447 1150 447 2328 
Q 447 3434 972 4092 
Q 1497 4750 2381 4750 
Q 2619 4750 2861 4703 
Q 3103 4656 3366 4563 
z
" transform="scale(0.015625)"/>
       </defs>
       <use xlink:href="#DejaVuSans-30"/>
       <use xlink:href="#DejaVuSans-2e" x="63.623047"/>
       <use xlink:href="#DejaVuSans-36" x="95.410156"/>
      </g>
     </g>
    </g>
    <g id="xtick_5">
     <g id="line2d_5">
      <g>
       <use xlink:href="#m0457debac1" x="214.010559" y="224.64" style="stroke: #000000; stroke-width: 0.8"/>
      </g>
     </g>
     <g id="text_5">
      <!-- 0.8 -->
      <g transform="translate(206.058996 239.238437)scale(0.1 -0.1)">
       <defs>
        <path id="DejaVuSans-38" d="M 2034 2216 
Q 1584 2216 1326 1975 
Q 1069 1734 1069 1313 
Q 1069 891 1326 650 
Q 1584 409 2034 409 
Q 2484 409 2743 651 
Q 3003 894 3003 1313 
Q 3003 1734 2745 1975 
Q 2488 2216 2034 2216 
z
M 1403 2484 
Q 997 2584 770 2862 
Q 544 3141 544 3541 
Q 544 4100 942 4425 
Q 1341 4750 2034 4750 
Q 2731 4750 3128 4425 
Q 3525 4100 3525 3541 
Q 3525 3141 3298 2862 
Q 3072 2584 2669 2484 
Q 3125 2378 3379 2068 
Q 3634 1759 3634 1313 
Q 3634 634 3220 271 
Q 2806 -91 2034 -91 
Q 1263 -91 848 271 
Q 434 634 434 1313 
Q 434 1759 690 2068 
Q 947 2378 1403 2484 
z
M 1172 3481 
Q 1172 3119 1398 2916 
Q 1625 2713 2034 2713 
Q 2441 2713 2670 2916 
Q 2900 3119 2900 3481 
Q 2900 3844 2670 4047 
Q 2441 4250 2034 4250 
Q 1625 4250 1398 4047 
Q 1172 3844 1172 3481 
z
" transform="scale(0.015625)"/>
       </defs>
       <use xlink:href="#DejaVuSans-30"/>
       <use xlink:href="#DejaVuSans-2e" x="63.623047"/>
       <use xlink:href="#DejaVuSans-38" x="95.410156"/>
      </g>
     </g>
    </g>
    <g id="xtick_6">
     <g id="line2d_6">
      <g>
       <use xlink:href="#m0457debac1" x="252.763341" y="224.64" style="stroke: #000000; stroke-width: 0.8"/>
      </g>
     </g>
     <g id="text_6">
      <!-- 1.0 -->
      <g transform="translate(244.811778 239.238437)scale(0.1 -0.1)">
       <defs>
        <path id="DejaVuSans-31" d="M 794 531 
L 1825 531 
L 1825 4091 
L 703 3866 
L 703 4441 
L 1819 4666 
L 2450 4666 
L 2450 531 
L 3481 531 
L 3481 0 
L 794 0 
L 794 531 
z
" transform="scale(0.015625)"/>
       </defs>
       <use xlink:href="#DejaVuSans-31"/>
       <use xlink:href="#DejaVuSans-2e" x="63.623047"/>
       <use xlink:href="#DejaVuSans-30" x="95.410156"/>
      </g>
     </g>
    </g>
    <g id="xtick_7">
     <g id="line2d_7">
      <g>
       <use xlink:href="#m0457debac1" x="291.516122" y="224.64" style="stroke: #000000; stroke-width: 0.8"/>
      </g>
     </g>
     <g id="text_7">
      <!-- 1.2 -->
      <g transform="translate(283.56456 239.238437)scale(0.1 -0.1)">
       <use xlink:href="#DejaVuSans-31"/>
       <use xlink:href="#DejaVuSans-2e" x="63.623047"/>
       <use xlink:href="#DejaVuSans-32" x="95.410156"/>
      </g>
     </g>
    </g>
    <g id="xtick_8">
     <g id="line2d_8">
      <g>
       <use xlink:href="#m0457debac1" x="330.268904" y="224.64" style="stroke: #000000; stroke-width: 0.8"/>
      </g>
     </g>
     <g id="text_8">
      <!-- 1.4 -->
      <g transform="translate(322.317342 239.238437)scale(0.1 -0.1)">
       <use xlink:href="#DejaVuSans-31"/>
       <use xlink:href="#DejaVuSans-2e" x="63.623047"/>
       <use xlink:href="#DejaVuSans-34" x="95.410156"/>
      </g>
     </g>
    </g>
    <g id="xtick_9">
     <g id="line2d_9">
      <g>
       <use xlink:href="#m0457debac1" x="369.021686" y="224.64" style="stroke: #000000; stroke-width: 0.8"/>
      </g>
     </g>
     <g id="text_9">
      <!-- 1.6 -->
      <g transform="translate(361.070124 239.238437)scale(0.1 -0.1)">
       <use xlink:href="#DejaVuSans-31"/>
       <use xlink:href="#DejaVuSans-2e" x="63.623047"/>
       <use xlink:href="#DejaVuSans-36" x="95.410156"/>
      </g>
     </g>
    </g>
    <g id="text_10">
     <!-- Angle with normal (rad) -->
     <g transform="translate(151.863281 252.916562)scale(0.1 -0.1)">
      <defs>
       <path id="DejaVuSans-41" d="M 2188 4044 
L 1331 1722 
L 3047 1722 
L 2188 4044 
z
M 1831 4666 
L 2547 4666 
L 4325 0 
L 3669 0 
L 3244 1197 
L 1141 1197 
L 716 0 
L 50 0 
L 1831 4666 
z
" transform="scale(0.015625)"/>
       <path id="DejaVuSans-6e" d="M 3513 2113 
L 3513 0 
L 2938 0 
L 2938 2094 
Q 2938 2591 2744 2837 
Q 2550 3084 2163 3084 
Q 1697 3084 1428 2787 
Q 1159 2491 1159 1978 
L 1159 0 
L 581 0 
L 581 3500 
L 1159 3500 
L 1159 2956 
Q 1366 3272 1645 3428 
Q 1925 3584 2291 3584 
Q 2894 3584 3203 3211 
Q 3513 2838 3513 2113 
z
" transform="scale(0.015625)"/>
       <path id="DejaVuSans-67" d="M 2906 1791 
Q 2906 2416 2648 2759 
Q 2391 3103 1925 3103 
Q 1463 3103 1205 2759 
Q 947 2416 947 1791 
Q 947 1169 1205 825 
Q 1463 481 1925 481 
Q 2391 481 2648 825 
Q 2906 1169 2906 1791 
z
M 3481 434 
Q 3481 -459 3084 -895 
Q 2688 -1331 1869 -1331 
Q 1566 -1331 1297 -1286 
Q 1028 -1241 775 -1147 
L 775 -588 
Q 1028 -725 1275 -790 
Q 1522 -856 1778 -856 
Q 2344 -856 2625 -561 
Q 2906 -266 2906 331 
L 2906 616 
Q 2728 306 2450 153 
Q 2172 0 1784 0 
Q 1141 0 747 490 
Q 353 981 353 1791 
Q 353 2603 747 3093 
Q 1141 3584 1784 3584 
Q 2172 3584 2450 3431 
Q 2728 3278 2906 2969 
L 2906 3500 
L 3481 3500 
L 3481 434 
z
" transform="scale(0.015625)"/>
       <path id="DejaVuSans-6c" d="M 603 4863 
L 1178 4863 
L 1178 0 
L 603 0 
L 603 4863 
z
" transform="scale(0.015625)"/>
       <path id="DejaVuSans-65" d="M 3597 1894 
L 3597 1613 
L 953 1613 
Q 991 1019 1311 708 
Q 1631 397 2203 397 
Q 2534 397 2845 478 
Q 3156 559 3463 722 
L 3463 178 
Q 3153 47 2828 -22 
Q 2503 -91 2169 -91 
Q 1331 -91 842 396 
Q 353 884 353 1716 
Q 353 2575 817 3079 
Q 1281 3584 2069 3584 
Q 2775 3584 3186 3129 
Q 3597 2675 3597 1894 
z
M 3022 2063 
Q 3016 2534 2758 2815 
Q 2500 3097 2075 3097 
Q 1594 3097 1305 2825 
Q 1016 2553 972 2059 
L 3022 2063 
z
" transform="scale(0.015625)"/>
       <path id="DejaVuSans-20" transform="scale(0.015625)"/>
       <path id="DejaVuSans-77" d="M 269 3500 
L 844 3500 
L 1563 769 
L 2278 3500 
L 2956 3500 
L 3675 769 
L 4391 3500 
L 4966 3500 
L 4050 0 
L 3372 0 
L 2619 2869 
L 1863 0 
L 1184 0 
L 269 3500 
z
" transform="scale(0.015625)"/>
       <path id="DejaVuSans-69" d="M 603 3500 
L 1178 3500 
L 1178 0 
L 603 0 
L 603 3500 
z
M 603 4863 
L 1178 4863 
L 1178 4134 
L 603 4134 
L 603 4863 
z
" transform="scale(0.015625)"/>
       <path id="DejaVuSans-74" d="M 1172 4494 
L 1172 3500 
L 2356 3500 
L 2356 3053 
L 1172 3053 
L 1172 1153 
Q 1172 725 1289 603 
Q 1406 481 1766 481 
L 2356 481 
L 2356 0 
L 1766 0 
Q 1100 0 847 248 
Q 594 497 594 1153 
L 594 3053 
L 172 3053 
L 172 3500 
L 594 3500 
L 594 4494 
L 1172 4494 
z
" transform="scale(0.015625)"/>
       <path id="DejaVuSans-68" d="M 3513 2113 
L 3513 0 
L 2938 0 
L 2938 2094 
Q 2938 2591 2744 2837 
Q 2550 3084 2163 3084 
Q 1697 3084 1428 2787 
Q 1159 2491 1159 1978 
L 1159 0 
L 581 0 
L 581 4863 
L 1159 4863 
L 1159 2956 
Q 1366 3272 1645 3428 
Q 1925 3584 2291 3584 
Q 2894 3584 3203 3211 
Q 3513 2838 3513 2113 
z
" transform="scale(0.015625)"/>
       <path id="DejaVuSans-6f" d="M 1959 3097 
Q 1497 3097 1228 2736 
Q 959 2375 959 1747 
Q 959 1119 1226 758 
Q 1494 397 1959 397 
Q 2419 397 2687 759 
Q 2956 1122 2956 1747 
Q 2956 2369 2687 2733 
Q 2419 3097 1959 3097 
z
M 1959 3584 
Q 2709 3584 3137 3096 
Q 3566 2609 3566 1747 
Q 3566 888 3137 398 
Q 2709 -91 1959 -91 
Q 1206 -91 779 398 
Q 353 888 353 1747 
Q 353 2609 779 3096 
Q 1206 3584 1959 3584 
z
" transform="scale(0.015625)"/>
       <path id="DejaVuSans-72" d="M 2631 2963 
Q 2534 3019 2420 3045 
Q 2306 3072 2169 3072 
Q 1681 3072 1420 2755 
Q 1159 2438 1159 1844 
L 1159 0 
L 581 0 
L 581 3500 
L 1159 3500 
L 1159 2956 
Q 1341 3275 1631 3429 
Q 1922 3584 2338 3584 
Q 2397 3584 2469 3576 
Q 2541 3569 2628 3553 
L 2631 2963 
z
" transform="scale(0.015625)"/>
       <path id="DejaVuSans-6d" d="M 3328 2828 
Q 3544 3216 3844 3400 
Q 4144 3584 4550 3584 
Q 5097 3584 5394 3201 
Q 5691 2819 5691 2113 
L 5691 0 
L 5113 0 
L 5113 2094 
Q 5113 2597 4934 2840 
Q 4756 3084 4391 3084 
Q 3944 3084 3684 2787 
Q 3425 2491 3425 1978 
L 3425 0 
L 2847 0 
L 2847 2094 
Q 2847 2600 2669 2842 
Q 2491 3084 2119 3084 
Q 1678 3084 1418 2786 
Q 1159 2488 1159 1978 
L 1159 0 
L 581 0 
L 581 3500 
L 1159 3500 
L 1159 2956 
Q 1356 3278 1631 3431 
Q 1906 3584 2284 3584 
Q 2666 3584 2933 3390 
Q 3200 3197 3328 2828 
z
" transform="scale(0.015625)"/>
       <path id="DejaVuSans-61" d="M 2194 1759 
Q 1497 1759 1228 1600 
Q 959 1441 959 1056 
Q 959 750 1161 570 
Q 1363 391 1709 391 
Q 2188 391 2477 730 
Q 2766 1069 2766 1631 
L 2766 1759 
L 2194 1759 
z
M 3341 1997 
L 3341 0 
L 2766 0 
L 2766 531 
Q 2569 213 2275 61 
Q 1981 -91 1556 -91 
Q 1019 -91 701 211 
Q 384 513 384 1019 
Q 384 1609 779 1909 
Q 1175 2209 1959 2209 
L 2766 2209 
L 2766 2266 
Q 2766 2663 2505 2880 
Q 2244 3097 1772 3097 
Q 1472 3097 1187 3025 
Q 903 2953 641 2809 
L 641 3341 
Q 956 3463 1253 3523 
Q 1550 3584 1831 3584 
Q 2591 3584 2966 3190 
Q 3341 2797 3341 1997 
z
" transform="scale(0.015625)"/>
       <path id="DejaVuSans-28" d="M 1984 4856 
Q 1566 4138 1362 3434 
Q 1159 2731 1159 2009 
Q 1159 1288 1364 580 
Q 1569 -128 1984 -844 
L 1484 -844 
Q 1016 -109 783 600 
Q 550 1309 550 2009 
Q 550 2706 781 3412 
Q 1013 4119 1484 4856 
L 1984 4856 
z
" transform="scale(0.015625)"/>
       <path id="DejaVuSans-64" d="M 2906 2969 
L 2906 4863 
L 3481 4863 
L 3481 0 
L 2906 0 
L 2906 525 
Q 2725 213 2448 61 
Q 2172 -91 1784 -91 
Q 1150 -91 751 415 
Q 353 922 353 1747 
Q 353 2572 751 3078 
Q 1150 3584 1784 3584 
Q 2172 3584 2448 3432 
Q 2725 3281 2906 2969 
z
M 947 1747 
Q 947 1113 1208 752 
Q 1469 391 1925 391 
Q 2381 391 2643 752 
Q 2906 1113 2906 1747 
Q 2906 2381 2643 2742 
Q 2381 3103 1925 3103 
Q 1469 3103 1208 2742 
Q 947 2381 947 1747 
z
" transform="scale(0.015625)"/>
       <path id="DejaVuSans-29" d="M 513 4856 
L 1013 4856 
Q 1481 4119 1714 3412 
Q 1947 2706 1947 2009 
Q 1947 1309 1714 600 
Q 1481 -109 1013 -844 
L 513 -844 
Q 928 -128 1133 580 
Q 1338 1288 1338 2009 
Q 1338 2731 1133 3434 
Q 928 4138 513 4856 
z
" transform="scale(0.015625)"/>
      </defs>
      <use xlink:href="#DejaVuSans-41"/>
      <use xlink:href="#DejaVuSans-6e" x="68.408203"/>
      <use xlink:href="#DejaVuSans-67" x="131.787109"/>
      <use xlink:href="#DejaVuSans-6c" x="195.263672"/>
      <use xlink:href="#DejaVuSans-65" x="223.046875"/>
      <use xlink:href="#DejaVuSans-20" x="284.570312"/>
      <use xlink:href="#DejaVuSans-77" x="316.357422"/>
      <use xlink:href="#DejaVuSans-69" x="398.144531"/>
      <use xlink:href="#DejaVuSans-74" x="425.927734"/>
      <use xlink:href="#DejaVuSans-68" x="465.136719"/>
      <use xlink:href="#DejaVuSans-20" x="528.515625"/>
      <use xlink:href="#DejaVuSans-6e" x="560.302734"/>
      <use xlink:href="#DejaVuSans-6f" x="623.681641"/>
      <use xlink:href="#DejaVuSans-72" x="684.863281"/>
      <use xlink:href="#DejaVuSans-6d" x="724.226562"/>
      <use xlink:href="#DejaVuSans-61" x="821.638672"/>
      <use xlink:href="#DejaVuSans-6c" x="882.917969"/>
      <use xlink:href="#DejaVuSans-20" x="910.701172"/>
      <use xlink:href="#DejaVuSans-28" x="942.488281"/>
      <use xlink:href="#DejaVuSans-72" x="981.501953"/>
      <use xlink:href="#DejaVuSans-61" x="1022.615234"/>
      <use xlink:href="#DejaVuSans-64" x="1083.894531"/>
      <use xlink:href="#DejaVuSans-29" x="1147.371094"/>
     </g>
    </g>
   </g>
   <g id="matplotlib.axis_2">
    <g id="ytick_1">
     <g id="line2d_10">
      <defs>
       <path id="mb3f2f280a0" d="M 0 0 
L -3.5 0 
" style="stroke: #000000; stroke-width: 0.8"/>
      </defs>
      <g>
       <use xlink:href="#mb3f2f280a0" x="43.78125" y="224.64" style="stroke: #000000; stroke-width: 0.8"/>
      </g>
     </g>
     <g id="text_11">
      <!-- 0.0 -->
      <g transform="translate(20.878125 228.439219)scale(0.1 -0.1)">
       <use xlink:href="#DejaVuSans-30"/>
       <use xlink:href="#DejaVuSans-2e" x="63.623047"/>
       <use xlink:href="#DejaVuSans-30" x="95.410156"/>
      </g>
     </g>
    </g>
    <g id="ytick_2">
     <g id="line2d_11">
      <g>
       <use xlink:href="#mb3f2f280a0" x="43.78125" y="187.882015" style="stroke: #000000; stroke-width: 0.8"/>
      </g>
     </g>
     <g id="text_12">
      <!-- 0.2 -->
      <g transform="translate(20.878125 191.681234)scale(0.1 -0.1)">
       <use xlink:href="#DejaVuSans-30"/>
       <use xlink:href="#DejaVuSans-2e" x="63.623047"/>
       <use xlink:href="#DejaVuSans-32" x="95.410156"/>
      </g>
     </g>
    </g>
    <g id="ytick_3">
     <g id="line2d_12">
      <g>
       <use xlink:href="#mb3f2f280a0" x="43.78125" y="151.12403" style="stroke: #000000; stroke-width: 0.8"/>
      </g>
     </g>
     <g id="text_13">
      <!-- 0.4 -->
      <g transform="translate(20.878125 154.923249)scale(0.1 -0.1)">
       <use xlink:href="#DejaVuSans-30"/>
       <use xlink:href="#DejaVuSans-2e" x="63.623047"/>
       <use xlink:href="#DejaVuSans-34" x="95.410156"/>
      </g>
     </g>
    </g>
    <g id="ytick_4">
     <g id="line2d_13">
      <g>
       <use xlink:href="#mb3f2f280a0" x="43.78125" y="114.366045" style="stroke: #000000; stroke-width: 0.8"/>
      </g>
     </g>
     <g id="text_14">
      <!-- 0.6 -->
      <g transform="translate(20.878125 118.165264)scale(0.1 -0.1)">
       <use xlink:href="#DejaVuSans-30"/>
       <use xlink:href="#DejaVuSans-2e" x="63.623047"/>
       <use xlink:href="#DejaVuSans-36" x="95.410156"/>
      </g>
     </g>
    </g>
    <g id="ytick_5">
     <g id="line2d_14">
      <g>
       <use xlink:href="#mb3f2f280a0" x="43.78125" y="77.60806" style="stroke: #000000; stroke-width: 0.8"/>
      </g>
     </g>
     <g id="text_15">
      <!-- 0.8 -->
      <g transform="translate(20.878125 81.407279)scale(0.1 -0.1)">
       <use xlink:href="#DejaVuSans-30"/>
       <use xlink:href="#DejaVuSans-2e" x="63.623047"/>
       <use xlink:href="#DejaVuSans-38" x="95.410156"/>
      </g>
     </g>
    </g>
    <g id="ytick_6">
     <g id="line2d_15">
      <g>
       <use xlink:href="#mb3f2f280a0" x="43.78125" y="40.850076" style="stroke: #000000; stroke-width: 0.8"/>
      </g>
     </g>
     <g id="text_16">
      <!-- 1.0 -->
      <g transform="translate(20.878125 44.649294)scale(0.1 -0.1)">
       <use xlink:href="#DejaVuSans-31"/>
       <use xlink:href="#DejaVuSans-2e" x="63.623047"/>
       <use xlink:href="#DejaVuSans-30" x="95.410156"/>
      </g>
     </g>
    </g>
    <g id="text_17">
     <!-- Probability density -->
     <g transform="translate(14.798438 162.270781)rotate(-90)scale(0.1 -0.1)">
      <defs>
       <path id="DejaVuSans-50" d="M 1259 4147 
L 1259 2394 
L 2053 2394 
Q 2494 2394 2734 2622 
Q 2975 2850 2975 3272 
Q 2975 3691 2734 3919 
Q 2494 4147 2053 4147 
L 1259 4147 
z
M 628 4666 
L 2053 4666 
Q 2838 4666 3239 4311 
Q 3641 3956 3641 3272 
Q 3641 2581 3239 2228 
Q 2838 1875 2053 1875 
L 1259 1875 
L 1259 0 
L 628 0 
L 628 4666 
z
" transform="scale(0.015625)"/>
       <path id="DejaVuSans-62" d="M 3116 1747 
Q 3116 2381 2855 2742 
Q 2594 3103 2138 3103 
Q 1681 3103 1420 2742 
Q 1159 2381 1159 1747 
Q 1159 1113 1420 752 
Q 1681 391 2138 391 
Q 2594 391 2855 752 
Q 3116 1113 3116 1747 
z
M 1159 2969 
Q 1341 3281 1617 3432 
Q 1894 3584 2278 3584 
Q 2916 3584 3314 3078 
Q 3713 2572 3713 1747 
Q 3713 922 3314 415 
Q 2916 -91 2278 -91 
Q 1894 -91 1617 61 
Q 1341 213 1159 525 
L 1159 0 
L 581 0 
L 581 4863 
L 1159 4863 
L 1159 2969 
z
" transform="scale(0.015625)"/>
       <path id="DejaVuSans-79" d="M 2059 -325 
Q 1816 -950 1584 -1140 
Q 1353 -1331 966 -1331 
L 506 -1331 
L 506 -850 
L 844 -850 
Q 1081 -850 1212 -737 
Q 1344 -625 1503 -206 
L 1606 56 
L 191 3500 
L 800 3500 
L 1894 763 
L 2988 3500 
L 3597 3500 
L 2059 -325 
z
" transform="scale(0.015625)"/>
       <path id="DejaVuSans-73" d="M 2834 3397 
L 2834 2853 
Q 2591 2978 2328 3040 
Q 2066 3103 1784 3103 
Q 1356 3103 1142 2972 
Q 928 2841 928 2578 
Q 928 2378 1081 2264 
Q 1234 2150 1697 2047 
L 1894 2003 
Q 2506 1872 2764 1633 
Q 3022 1394 3022 966 
Q 3022 478 2636 193 
Q 2250 -91 1575 -91 
Q 1294 -91 989 -36 
Q 684 19 347 128 
L 347 722 
Q 666 556 975 473 
Q 1284 391 1588 391 
Q 1994 391 2212 530 
Q 2431 669 2431 922 
Q 2431 1156 2273 1281 
Q 2116 1406 1581 1522 
L 1381 1569 
Q 847 1681 609 1914 
Q 372 2147 372 2553 
Q 372 3047 722 3315 
Q 1072 3584 1716 3584 
Q 2034 3584 2315 3537 
Q 2597 3491 2834 3397 
z
" transform="scale(0.015625)"/>
      </defs>
      <use xlink:href="#DejaVuSans-50"/>
      <use xlink:href="#DejaVuSans-72" x="58.552734"/>
      <use xlink:href="#DejaVuSans-6f" x="97.416016"/>
      <use xlink:href="#DejaVuSans-62" x="158.597656"/>
      <use xlink:href="#DejaVuSans-61" x="222.074219"/>
      <use xlink:href="#DejaVuSans-62" x="283.353516"/>
      <use xlink:href="#DejaVuSans-69" x="346.830078"/>
      <use xlink:href="#DejaVuSans-6c" x="374.613281"/>
      <use xlink:href="#DejaVuSans-69" x="402.396484"/>
      <use xlink:href="#DejaVuSans-74" x="430.179688"/>
      <use xlink:href="#DejaVuSans-79" x="469.388672"/>
      <use xlink:href="#DejaVuSans-20" x="528.568359"/>
      <use xlink:href="#DejaVuSans-64" x="560.355469"/>
      <use xlink:href="#DejaVuSans-65" x="623.832031"/>
      <use xlink:href="#DejaVuSans-6e" x="685.355469"/>
      <use xlink:href="#DejaVuSans-73" x="748.734375"/>
      <use xlink:href="#DejaVuSans-69" x="800.833984"/>
      <use xlink:href="#DejaVuSans-74" x="828.617188"/>
      <use xlink:href="#DejaVuSans-79" x="867.826172"/>
     </g>
    </g>
   </g>
   <g id="line2d_16">
    <path d="M 58.999432 224.64 
L 78.193535 188.465559 
L 88.247589 169.993772 
L 96.778302 154.774135 
L 104.395009 141.639148 
L 111.40238 130.005963 
L 117.800415 119.815051 
L 123.893781 110.533659 
L 129.682479 102.133739 
L 135.166508 94.578767 
L 140.345869 87.825669 
L 145.220562 81.826591 
L 150.095255 76.188994 
L 154.665279 71.244748 
L 158.930636 66.9378 
L 163.195992 62.936479 
L 167.461348 59.248541 
L 171.422036 56.110888 
L 175.382724 53.254859 
L 179.343412 50.685228 
L 182.999432 48.57118 
L 186.655451 46.707837 
L 190.311471 45.097851 
L 193.967491 43.743516 
L 197.318842 42.728277 
L 200.670193 41.930695 
L 204.021545 41.351723 
L 207.372896 40.992055 
L 210.724248 40.85212 
L 214.075599 40.932087 
L 217.42695 41.23186 
L 220.778302 41.751079 
L 224.129653 42.489124 
L 227.481004 43.445112 
L 230.832356 44.617898 
L 234.488375 46.142903 
L 238.144395 47.922071 
L 241.800415 49.952868 
L 245.456434 52.232401 
L 249.417122 54.978816 
L 253.37781 58.008747 
L 257.338498 61.31713 
L 261.603854 65.185059 
L 265.869211 69.362011 
L 270.134567 73.839894 
L 274.704592 78.961693 
L 279.274616 84.407583 
L 284.149309 90.560087 
L 289.32867 97.468608 
L 294.8127 105.179136 
L 300.296729 113.272334 
L 306.085427 122.201639 
L 312.483461 132.494883 
L 319.186164 143.708362 
L 326.498203 156.380967 
L 334.724248 171.09851 
L 344.168965 188.465559 
L 356.660365 211.934778 
L 363.363068 224.64 
L 363.363068 224.64 
" clip-path="url(#pa1f1ab3e6e)" style="fill: none; stroke: #ff7f0e; stroke-width: 1.5; stroke-linecap: square"/>
   </g>
   <g id="patch_203">
    <path d="M 43.78125 224.64 
L 43.78125 7.2 
" style="fill: none; stroke: #000000; stroke-width: 0.8; stroke-linejoin: miter; stroke-linecap: square"/>
   </g>
   <g id="patch_204">
    <path d="M 378.58125 224.64 
L 378.58125 7.2 
" style="fill: none; stroke: #000000; stroke-width: 0.8; stroke-linejoin: miter; stroke-linecap: square"/>
   </g>
   <g id="patch_205">
    <path d="M 43.78125 224.64 
L 378.58125 224.64 
" style="fill: none; stroke: #000000; stroke-width: 0.8; stroke-linejoin: miter; stroke-linecap: square"/>
   </g>
   <g id="patch_206">
    <path d="M 43.78125 7.2 
L 378.58125 7.2 
" style="fill: none; stroke: #000000; stroke-width: 0.8; stroke-linejoin: miter; stroke-linecap: square"/>
   </g>
  </g>
 </g>
 <defs>
  <clipPath id="pa1f1ab3e6e">
   <rect x="43.78125" y="7.2" width="334.8" height="217.44"/>
  </clipPath>
 </defs>
</svg>
