<?xml version="1.0" encoding="utf-8" standalone="no"?>
<!DOCTYPE svg PUBLIC "-//W3C//DTD SVG 1.1//EN"
  "http://www.w3.org/Graphics/SVG/1.1/DTD/svg11.dtd">
<svg xmlns:xlink="http://www.w3.org/1999/xlink" width="414.46375pt" height="310.86825pt" viewBox="0 0 414.46375 310.86825" xmlns="http://www.w3.org/2000/svg" version="1.1">
 <metadata>
  <rdf:RDF xmlns:dc="http://purl.org/dc/elements/1.1/" xmlns:cc="http://creativecommons.org/ns#" xmlns:rdf="http://www.w3.org/1999/02/22-rdf-syntax-ns#">
   <cc:Work>
    <dc:type rdf:resource="http://purl.org/dc/dcmitype/StillImage"/>
    <dc:date>2022-12-14T16:49:42.044324</dc:date>
    <dc:format>image/svg+xml</dc:format>
    <dc:creator>
     <cc:Agent>
      <dc:title>Matplotlib v3.5.3, https://matplotlib.org/</dc:title>
     </cc:Agent>
    </dc:creator>
   </cc:Work>
  </rdf:RDF>
 </metadata>
 <defs>
  <style type="text/css">*{stroke-linejoin: round; stroke-linecap: butt}</style>
 </defs>
 <g id="figure_1">
  <g id="patch_1">
   <path d="M 0 310.86825 
L 414.46375 310.86825 
L 414.46375 0 
L 0 0 
z
" style="fill: #ffffff"/>
  </g>
  <g id="axes_1">
   <g id="patch_2">
    <path d="M 50.14375 273.312 
L 407.26375 273.312 
L 407.26375 7.2 
L 50.14375 7.2 
z
" style="fill: #ffffff"/>
   </g>
   <g id="patch_3">
    <path d="M 68.837079 273.312 
L 70.448011 273.312 
L 70.448011 270.921057 
L 68.837079 270.921057 
z
" clip-path="url(#pa67b4ecdd3)" style="fill: #1f77b4"/>
   </g>
   <g id="patch_4">
    <path d="M 70.448011 273.312 
L 72.058943 273.312 
L 72.058943 270.323321 
L 70.448011 270.323321 
z
" clip-path="url(#pa67b4ecdd3)" style="fill: #1f77b4"/>
   </g>
   <g id="patch_5">
    <path d="M 72.058943 273.312 
L 73.669875 273.312 
L 73.669875 269.127849 
L 72.058943 269.127849 
z
" clip-path="url(#pa67b4ecdd3)" style="fill: #1f77b4"/>
   </g>
   <g id="patch_6">
    <path d="M 73.669875 273.312 
L 75.280807 273.312 
L 75.280807 267.334642 
L 73.669875 267.334642 
z
" clip-path="url(#pa67b4ecdd3)" style="fill: #1f77b4"/>
   </g>
   <g id="patch_7">
    <path d="M 75.280807 273.312 
L 76.89174 273.312 
L 76.89174 267.334642 
L 75.280807 267.334642 
z
" clip-path="url(#pa67b4ecdd3)" style="fill: #1f77b4"/>
   </g>
   <g id="patch_8">
    <path d="M 76.89174 273.312 
L 78.502672 273.312 
L 78.502672 266.736906 
L 76.89174 266.736906 
z
" clip-path="url(#pa67b4ecdd3)" style="fill: #1f77b4"/>
   </g>
   <g id="patch_9">
    <path d="M 78.502672 273.312 
L 80.113604 273.312 
L 80.113604 264.345962 
L 78.502672 264.345962 
z
" clip-path="url(#pa67b4ecdd3)" style="fill: #1f77b4"/>
   </g>
   <g id="patch_10">
    <path d="M 80.113604 273.312 
L 81.724536 273.312 
L 81.724536 260.161811 
L 80.113604 260.161811 
z
" clip-path="url(#pa67b4ecdd3)" style="fill: #1f77b4"/>
   </g>
   <g id="patch_11">
    <path d="M 81.724536 273.312 
L 83.335468 273.312 
L 83.335468 259.564075 
L 81.724536 259.564075 
z
" clip-path="url(#pa67b4ecdd3)" style="fill: #1f77b4"/>
   </g>
   <g id="patch_12">
    <path d="M 83.335468 273.312 
L 84.9464 273.312 
L 84.9464 258.368604 
L 83.335468 258.368604 
z
" clip-path="url(#pa67b4ecdd3)" style="fill: #1f77b4"/>
   </g>
   <g id="patch_13">
    <path d="M 84.9464 273.312 
L 86.557333 273.312 
L 86.557333 261.955019 
L 84.9464 261.955019 
z
" clip-path="url(#pa67b4ecdd3)" style="fill: #1f77b4"/>
   </g>
   <g id="patch_14">
    <path d="M 86.557333 273.312 
L 88.168265 273.312 
L 88.168265 260.759547 
L 86.557333 260.759547 
z
" clip-path="url(#pa67b4ecdd3)" style="fill: #1f77b4"/>
   </g>
   <g id="patch_15">
    <path d="M 88.168265 273.312 
L 89.779197 273.312 
L 89.779197 257.173132 
L 88.168265 257.173132 
z
" clip-path="url(#pa67b4ecdd3)" style="fill: #1f77b4"/>
   </g>
   <g id="patch_16">
    <path d="M 89.779197 273.312 
L 91.390129 273.312 
L 91.390129 257.770868 
L 89.779197 257.770868 
z
" clip-path="url(#pa67b4ecdd3)" style="fill: #1f77b4"/>
   </g>
   <g id="patch_17">
    <path d="M 91.390129 273.312 
L 93.001061 273.312 
L 93.001061 255.379925 
L 91.390129 255.379925 
z
" clip-path="url(#pa67b4ecdd3)" style="fill: #1f77b4"/>
   </g>
   <g id="patch_18">
    <path d="M 93.001061 273.312 
L 94.611993 273.312 
L 94.611993 251.793509 
L 93.001061 251.793509 
z
" clip-path="url(#pa67b4ecdd3)" style="fill: #1f77b4"/>
   </g>
   <g id="patch_19">
    <path d="M 94.611993 273.312 
L 96.222926 273.312 
L 96.222926 250.598038 
L 94.611993 250.598038 
z
" clip-path="url(#pa67b4ecdd3)" style="fill: #1f77b4"/>
   </g>
   <g id="patch_20">
    <path d="M 96.222926 273.312 
L 97.833858 273.312 
L 97.833858 252.988981 
L 96.222926 252.988981 
z
" clip-path="url(#pa67b4ecdd3)" style="fill: #1f77b4"/>
   </g>
   <g id="patch_21">
    <path d="M 97.833858 273.312 
L 99.44479 273.312 
L 99.44479 255.379925 
L 97.833858 255.379925 
z
" clip-path="url(#pa67b4ecdd3)" style="fill: #1f77b4"/>
   </g>
   <g id="patch_22">
    <path d="M 99.44479 273.312 
L 101.055722 273.312 
L 101.055722 253.586717 
L 99.44479 253.586717 
z
" clip-path="url(#pa67b4ecdd3)" style="fill: #1f77b4"/>
   </g>
   <g id="patch_23">
    <path d="M 101.055722 273.312 
L 102.666654 273.312 
L 102.666654 248.80483 
L 101.055722 248.80483 
z
" clip-path="url(#pa67b4ecdd3)" style="fill: #1f77b4"/>
   </g>
   <g id="patch_24">
    <path d="M 102.666654 273.312 
L 104.277586 273.312 
L 104.277586 251.793509 
L 102.666654 251.793509 
z
" clip-path="url(#pa67b4ecdd3)" style="fill: #1f77b4"/>
   </g>
   <g id="patch_25">
    <path d="M 104.277586 273.312 
L 105.888519 273.312 
L 105.888519 250.598038 
L 104.277586 250.598038 
z
" clip-path="url(#pa67b4ecdd3)" style="fill: #1f77b4"/>
   </g>
   <g id="patch_26">
    <path d="M 105.888519 273.312 
L 107.499451 273.312 
L 107.499451 247.011623 
L 105.888519 247.011623 
z
" clip-path="url(#pa67b4ecdd3)" style="fill: #1f77b4"/>
   </g>
   <g id="patch_27">
    <path d="M 107.499451 273.312 
L 109.110383 273.312 
L 109.110383 247.011623 
L 107.499451 247.011623 
z
" clip-path="url(#pa67b4ecdd3)" style="fill: #1f77b4"/>
   </g>
   <g id="patch_28">
    <path d="M 109.110383 273.312 
L 110.721315 273.312 
L 110.721315 240.436528 
L 109.110383 240.436528 
z
" clip-path="url(#pa67b4ecdd3)" style="fill: #1f77b4"/>
   </g>
   <g id="patch_29">
    <path d="M 110.721315 273.312 
L 112.332247 273.312 
L 112.332247 238.045585 
L 110.721315 238.045585 
z
" clip-path="url(#pa67b4ecdd3)" style="fill: #1f77b4"/>
   </g>
   <g id="patch_30">
    <path d="M 112.332247 273.312 
L 113.943179 273.312 
L 113.943179 240.436528 
L 112.332247 240.436528 
z
" clip-path="url(#pa67b4ecdd3)" style="fill: #1f77b4"/>
   </g>
   <g id="patch_31">
    <path d="M 113.943179 273.312 
L 115.554112 273.312 
L 115.554112 240.436528 
L 113.943179 240.436528 
z
" clip-path="url(#pa67b4ecdd3)" style="fill: #1f77b4"/>
   </g>
   <g id="patch_32">
    <path d="M 115.554112 273.312 
L 117.165044 273.312 
L 117.165044 238.643321 
L 115.554112 238.643321 
z
" clip-path="url(#pa67b4ecdd3)" style="fill: #1f77b4"/>
   </g>
   <g id="patch_33">
    <path d="M 117.165044 273.312 
L 118.775976 273.312 
L 118.775976 236.850113 
L 117.165044 236.850113 
z
" clip-path="url(#pa67b4ecdd3)" style="fill: #1f77b4"/>
   </g>
   <g id="patch_34">
    <path d="M 118.775976 273.312 
L 120.386908 273.312 
L 120.386908 231.470491 
L 118.775976 231.470491 
z
" clip-path="url(#pa67b4ecdd3)" style="fill: #1f77b4"/>
   </g>
   <g id="patch_35">
    <path d="M 120.386908 273.312 
L 121.99784 273.312 
L 121.99784 230.872755 
L 120.386908 230.872755 
z
" clip-path="url(#pa67b4ecdd3)" style="fill: #1f77b4"/>
   </g>
   <g id="patch_36">
    <path d="M 121.99784 273.312 
L 123.608773 273.312 
L 123.608773 231.470491 
L 121.99784 231.470491 
z
" clip-path="url(#pa67b4ecdd3)" style="fill: #1f77b4"/>
   </g>
   <g id="patch_37">
    <path d="M 123.608773 273.312 
L 125.219705 273.312 
L 125.219705 240.436528 
L 123.608773 240.436528 
z
" clip-path="url(#pa67b4ecdd3)" style="fill: #1f77b4"/>
   </g>
   <g id="patch_38">
    <path d="M 125.219705 273.312 
L 126.830637 273.312 
L 126.830637 228.481811 
L 125.219705 228.481811 
z
" clip-path="url(#pa67b4ecdd3)" style="fill: #1f77b4"/>
   </g>
   <g id="patch_39">
    <path d="M 126.830637 273.312 
L 128.441569 273.312 
L 128.441569 227.28634 
L 126.830637 227.28634 
z
" clip-path="url(#pa67b4ecdd3)" style="fill: #1f77b4"/>
   </g>
   <g id="patch_40">
    <path d="M 128.441569 273.312 
L 130.052501 273.312 
L 130.052501 227.28634 
L 128.441569 227.28634 
z
" clip-path="url(#pa67b4ecdd3)" style="fill: #1f77b4"/>
   </g>
   <g id="patch_41">
    <path d="M 130.052501 273.312 
L 131.663433 273.312 
L 131.663433 228.481811 
L 130.052501 228.481811 
z
" clip-path="url(#pa67b4ecdd3)" style="fill: #1f77b4"/>
   </g>
   <g id="patch_42">
    <path d="M 131.663433 273.312 
L 133.274366 273.312 
L 133.274366 218.320302 
L 131.663433 218.320302 
z
" clip-path="url(#pa67b4ecdd3)" style="fill: #1f77b4"/>
   </g>
   <g id="patch_43">
    <path d="M 133.274366 273.312 
L 134.885298 273.312 
L 134.885298 226.688604 
L 133.274366 226.688604 
z
" clip-path="url(#pa67b4ecdd3)" style="fill: #1f77b4"/>
   </g>
   <g id="patch_44">
    <path d="M 134.885298 273.312 
L 136.49623 273.312 
L 136.49623 217.12483 
L 134.885298 217.12483 
z
" clip-path="url(#pa67b4ecdd3)" style="fill: #1f77b4"/>
   </g>
   <g id="patch_45">
    <path d="M 136.49623 273.312 
L 138.107162 273.312 
L 138.107162 220.711245 
L 136.49623 220.711245 
z
" clip-path="url(#pa67b4ecdd3)" style="fill: #1f77b4"/>
   </g>
   <g id="patch_46">
    <path d="M 138.107162 273.312 
L 139.718094 273.312 
L 139.718094 212.940679 
L 138.107162 212.940679 
z
" clip-path="url(#pa67b4ecdd3)" style="fill: #1f77b4"/>
   </g>
   <g id="patch_47">
    <path d="M 139.718094 273.312 
L 141.329026 273.312 
L 141.329026 217.12483 
L 139.718094 217.12483 
z
" clip-path="url(#pa67b4ecdd3)" style="fill: #1f77b4"/>
   </g>
   <g id="patch_48">
    <path d="M 141.329026 273.312 
L 142.939959 273.312 
L 142.939959 211.745208 
L 141.329026 211.745208 
z
" clip-path="url(#pa67b4ecdd3)" style="fill: #1f77b4"/>
   </g>
   <g id="patch_49">
    <path d="M 142.939959 273.312 
L 144.550891 273.312 
L 144.550891 215.929358 
L 142.939959 215.929358 
z
" clip-path="url(#pa67b4ecdd3)" style="fill: #1f77b4"/>
   </g>
   <g id="patch_50">
    <path d="M 144.550891 273.312 
L 146.161823 273.312 
L 146.161823 221.906717 
L 144.550891 221.906717 
z
" clip-path="url(#pa67b4ecdd3)" style="fill: #1f77b4"/>
   </g>
   <g id="patch_51">
    <path d="M 146.161823 273.312 
L 147.772755 273.312 
L 147.772755 207.561057 
L 146.161823 207.561057 
z
" clip-path="url(#pa67b4ecdd3)" style="fill: #1f77b4"/>
   </g>
   <g id="patch_52">
    <path d="M 147.772755 273.312 
L 149.383687 273.312 
L 149.383687 219.515774 
L 147.772755 219.515774 
z
" clip-path="url(#pa67b4ecdd3)" style="fill: #1f77b4"/>
   </g>
   <g id="patch_53">
    <path d="M 149.383687 273.312 
L 150.994619 273.312 
L 150.994619 212.342943 
L 149.383687 212.342943 
z
" clip-path="url(#pa67b4ecdd3)" style="fill: #1f77b4"/>
   </g>
   <g id="patch_54">
    <path d="M 150.994619 273.312 
L 152.605552 273.312 
L 152.605552 206.963321 
L 150.994619 206.963321 
z
" clip-path="url(#pa67b4ecdd3)" style="fill: #1f77b4"/>
   </g>
   <g id="patch_55">
    <path d="M 152.605552 273.312 
L 154.216484 273.312 
L 154.216484 211.745208 
L 152.605552 211.745208 
z
" clip-path="url(#pa67b4ecdd3)" style="fill: #1f77b4"/>
   </g>
   <g id="patch_56">
    <path d="M 154.216484 273.312 
L 155.827416 273.312 
L 155.827416 213.538415 
L 154.216484 213.538415 
z
" clip-path="url(#pa67b4ecdd3)" style="fill: #1f77b4"/>
   </g>
   <g id="patch_57">
    <path d="M 155.827416 273.312 
L 157.438348 273.312 
L 157.438348 210.549736 
L 155.827416 210.549736 
z
" clip-path="url(#pa67b4ecdd3)" style="fill: #1f77b4"/>
   </g>
   <g id="patch_58">
    <path d="M 157.438348 273.312 
L 159.04928 273.312 
L 159.04928 213.538415 
L 157.438348 213.538415 
z
" clip-path="url(#pa67b4ecdd3)" style="fill: #1f77b4"/>
   </g>
   <g id="patch_59">
    <path d="M 159.04928 273.312 
L 160.660212 273.312 
L 160.660212 208.158792 
L 159.04928 208.158792 
z
" clip-path="url(#pa67b4ecdd3)" style="fill: #1f77b4"/>
   </g>
   <g id="patch_60">
    <path d="M 160.660212 273.312 
L 162.271145 273.312 
L 162.271145 209.354264 
L 160.660212 209.354264 
z
" clip-path="url(#pa67b4ecdd3)" style="fill: #1f77b4"/>
   </g>
   <g id="patch_61">
    <path d="M 162.271145 273.312 
L 163.882077 273.312 
L 163.882077 204.572377 
L 162.271145 204.572377 
z
" clip-path="url(#pa67b4ecdd3)" style="fill: #1f77b4"/>
   </g>
   <g id="patch_62">
    <path d="M 163.882077 273.312 
L 165.493009 273.312 
L 165.493009 205.767849 
L 163.882077 205.767849 
z
" clip-path="url(#pa67b4ecdd3)" style="fill: #1f77b4"/>
   </g>
   <g id="patch_63">
    <path d="M 165.493009 273.312 
L 167.103941 273.312 
L 167.103941 191.422189 
L 165.493009 191.422189 
z
" clip-path="url(#pa67b4ecdd3)" style="fill: #1f77b4"/>
   </g>
   <g id="patch_64">
    <path d="M 167.103941 273.312 
L 168.714873 273.312 
L 168.714873 199.192755 
L 167.103941 199.192755 
z
" clip-path="url(#pa67b4ecdd3)" style="fill: #1f77b4"/>
   </g>
   <g id="patch_65">
    <path d="M 168.714873 273.312 
L 170.325806 273.312 
L 170.325806 197.399547 
L 168.714873 197.399547 
z
" clip-path="url(#pa67b4ecdd3)" style="fill: #1f77b4"/>
   </g>
   <g id="patch_66">
    <path d="M 170.325806 273.312 
L 171.936738 273.312 
L 171.936738 191.422189 
L 170.325806 191.422189 
z
" clip-path="url(#pa67b4ecdd3)" style="fill: #1f77b4"/>
   </g>
   <g id="patch_67">
    <path d="M 171.936738 273.312 
L 173.54767 273.312 
L 173.54767 197.399547 
L 171.936738 197.399547 
z
" clip-path="url(#pa67b4ecdd3)" style="fill: #1f77b4"/>
   </g>
   <g id="patch_68">
    <path d="M 173.54767 273.312 
L 175.158602 273.312 
L 175.158602 184.249358 
L 173.54767 184.249358 
z
" clip-path="url(#pa67b4ecdd3)" style="fill: #1f77b4"/>
   </g>
   <g id="patch_69">
    <path d="M 175.158602 273.312 
L 176.769534 273.312 
L 176.769534 200.388226 
L 175.158602 200.388226 
z
" clip-path="url(#pa67b4ecdd3)" style="fill: #1f77b4"/>
   </g>
   <g id="patch_70">
    <path d="M 176.769534 273.312 
L 178.380466 273.312 
L 178.380466 195.008604 
L 176.769534 195.008604 
z
" clip-path="url(#pa67b4ecdd3)" style="fill: #1f77b4"/>
   </g>
   <g id="patch_71">
    <path d="M 178.380466 273.312 
L 179.991399 273.312 
L 179.991399 185.44483 
L 178.380466 185.44483 
z
" clip-path="url(#pa67b4ecdd3)" style="fill: #1f77b4"/>
   </g>
   <g id="patch_72">
    <path d="M 179.991399 273.312 
L 181.602331 273.312 
L 181.602331 196.204075 
L 179.991399 196.204075 
z
" clip-path="url(#pa67b4ecdd3)" style="fill: #1f77b4"/>
   </g>
   <g id="patch_73">
    <path d="M 181.602331 273.312 
L 183.213263 273.312 
L 183.213263 189.628981 
L 181.602331 189.628981 
z
" clip-path="url(#pa67b4ecdd3)" style="fill: #1f77b4"/>
   </g>
   <g id="patch_74">
    <path d="M 183.213263 273.312 
L 184.824195 273.312 
L 184.824195 190.226717 
L 183.213263 190.226717 
z
" clip-path="url(#pa67b4ecdd3)" style="fill: #1f77b4"/>
   </g>
   <g id="patch_75">
    <path d="M 184.824195 273.312 
L 186.435127 273.312 
L 186.435127 180.065208 
L 184.824195 180.065208 
z
" clip-path="url(#pa67b4ecdd3)" style="fill: #1f77b4"/>
   </g>
   <g id="patch_76">
    <path d="M 186.435127 273.312 
L 188.046059 273.312 
L 188.046059 193.813132 
L 186.435127 193.813132 
z
" clip-path="url(#pa67b4ecdd3)" style="fill: #1f77b4"/>
   </g>
   <g id="patch_77">
    <path d="M 188.046059 273.312 
L 189.656992 273.312 
L 189.656992 183.651623 
L 188.046059 183.651623 
z
" clip-path="url(#pa67b4ecdd3)" style="fill: #1f77b4"/>
   </g>
   <g id="patch_78">
    <path d="M 189.656992 273.312 
L 191.267924 273.312 
L 191.267924 178.869736 
L 189.656992 178.869736 
z
" clip-path="url(#pa67b4ecdd3)" style="fill: #1f77b4"/>
   </g>
   <g id="patch_79">
    <path d="M 191.267924 273.312 
L 192.878856 273.312 
L 192.878856 183.651623 
L 191.267924 183.651623 
z
" clip-path="url(#pa67b4ecdd3)" style="fill: #1f77b4"/>
   </g>
   <g id="patch_80">
    <path d="M 192.878856 273.312 
L 194.489788 273.312 
L 194.489788 172.294642 
L 192.878856 172.294642 
z
" clip-path="url(#pa67b4ecdd3)" style="fill: #1f77b4"/>
   </g>
   <g id="patch_81">
    <path d="M 194.489788 273.312 
L 196.10072 273.312 
L 196.10072 186.042566 
L 194.489788 186.042566 
z
" clip-path="url(#pa67b4ecdd3)" style="fill: #1f77b4"/>
   </g>
   <g id="patch_82">
    <path d="M 196.10072 273.312 
L 197.711652 273.312 
L 197.711652 178.272 
L 196.10072 178.272 
z
" clip-path="url(#pa67b4ecdd3)" style="fill: #1f77b4"/>
   </g>
   <g id="patch_83">
    <path d="M 197.711652 273.312 
L 199.322585 273.312 
L 199.322585 185.44483 
L 197.711652 185.44483 
z
" clip-path="url(#pa67b4ecdd3)" style="fill: #1f77b4"/>
   </g>
   <g id="patch_84">
    <path d="M 199.322585 273.312 
L 200.933517 273.312 
L 200.933517 172.294642 
L 199.322585 172.294642 
z
" clip-path="url(#pa67b4ecdd3)" style="fill: #1f77b4"/>
   </g>
   <g id="patch_85">
    <path d="M 200.933517 273.312 
L 202.544449 273.312 
L 202.544449 171.09917 
L 200.933517 171.09917 
z
" clip-path="url(#pa67b4ecdd3)" style="fill: #1f77b4"/>
   </g>
   <g id="patch_86">
    <path d="M 202.544449 273.312 
L 204.155381 273.312 
L 204.155381 177.674264 
L 202.544449 177.674264 
z
" clip-path="url(#pa67b4ecdd3)" style="fill: #1f77b4"/>
   </g>
   <g id="patch_87">
    <path d="M 204.155381 273.312 
L 205.766313 273.312 
L 205.766313 169.305962 
L 204.155381 169.305962 
z
" clip-path="url(#pa67b4ecdd3)" style="fill: #1f77b4"/>
   </g>
   <g id="patch_88">
    <path d="M 205.766313 273.312 
L 207.377245 273.312 
L 207.377245 192.019925 
L 205.766313 192.019925 
z
" clip-path="url(#pa67b4ecdd3)" style="fill: #1f77b4"/>
   </g>
   <g id="patch_89">
    <path d="M 207.377245 273.312 
L 208.988178 273.312 
L 208.988178 167.512755 
L 207.377245 167.512755 
z
" clip-path="url(#pa67b4ecdd3)" style="fill: #1f77b4"/>
   </g>
   <g id="patch_90">
    <path d="M 208.988178 273.312 
L 210.59911 273.312 
L 210.59911 181.260679 
L 208.988178 181.260679 
z
" clip-path="url(#pa67b4ecdd3)" style="fill: #1f77b4"/>
   </g>
   <g id="patch_91">
    <path d="M 210.59911 273.312 
L 212.210042 273.312 
L 212.210042 168.110491 
L 210.59911 168.110491 
z
" clip-path="url(#pa67b4ecdd3)" style="fill: #1f77b4"/>
   </g>
   <g id="patch_92">
    <path d="M 212.210042 273.312 
L 213.820974 273.312 
L 213.820974 165.719547 
L 212.210042 165.719547 
z
" clip-path="url(#pa67b4ecdd3)" style="fill: #1f77b4"/>
   </g>
   <g id="patch_93">
    <path d="M 213.820974 273.312 
L 215.431906 273.312 
L 215.431906 174.087849 
L 213.820974 174.087849 
z
" clip-path="url(#pa67b4ecdd3)" style="fill: #1f77b4"/>
   </g>
   <g id="patch_94">
    <path d="M 215.431906 273.312 
L 217.042838 273.312 
L 217.042838 168.708226 
L 215.431906 168.708226 
z
" clip-path="url(#pa67b4ecdd3)" style="fill: #1f77b4"/>
   </g>
   <g id="patch_95">
    <path d="M 217.042838 273.312 
L 218.653771 273.312 
L 218.653771 168.110491 
L 217.042838 168.110491 
z
" clip-path="url(#pa67b4ecdd3)" style="fill: #1f77b4"/>
   </g>
   <g id="patch_96">
    <path d="M 218.653771 273.312 
L 220.264703 273.312 
L 220.264703 141.810113 
L 218.653771 141.810113 
z
" clip-path="url(#pa67b4ecdd3)" style="fill: #1f77b4"/>
   </g>
   <g id="patch_97">
    <path d="M 220.264703 273.312 
L 221.875635 273.312 
L 221.875635 153.76483 
L 220.264703 153.76483 
z
" clip-path="url(#pa67b4ecdd3)" style="fill: #1f77b4"/>
   </g>
   <g id="patch_98">
    <path d="M 221.875635 273.312 
L 223.486567 273.312 
L 223.486567 143.603321 
L 221.875635 143.603321 
z
" clip-path="url(#pa67b4ecdd3)" style="fill: #1f77b4"/>
   </g>
   <g id="patch_99">
    <path d="M 223.486567 273.312 
L 225.097499 273.312 
L 225.097499 135.832755 
L 223.486567 135.832755 
z
" clip-path="url(#pa67b4ecdd3)" style="fill: #1f77b4"/>
   </g>
   <g id="patch_100">
    <path d="M 225.097499 273.312 
L 226.708432 273.312 
L 226.708432 157.948981 
L 225.097499 157.948981 
z
" clip-path="url(#pa67b4ecdd3)" style="fill: #1f77b4"/>
   </g>
   <g id="patch_101">
    <path d="M 226.708432 273.312 
L 228.319364 273.312 
L 228.319364 159.144453 
L 226.708432 159.144453 
z
" clip-path="url(#pa67b4ecdd3)" style="fill: #1f77b4"/>
   </g>
   <g id="patch_102">
    <path d="M 228.319364 273.312 
L 229.930296 273.312 
L 229.930296 150.776151 
L 228.319364 150.776151 
z
" clip-path="url(#pa67b4ecdd3)" style="fill: #1f77b4"/>
   </g>
   <g id="patch_103">
    <path d="M 229.930296 273.312 
L 231.541228 273.312 
L 231.541228 144.798792 
L 229.930296 144.798792 
z
" clip-path="url(#pa67b4ecdd3)" style="fill: #1f77b4"/>
   </g>
   <g id="patch_104">
    <path d="M 231.541228 273.312 
L 233.15216 273.312 
L 233.15216 139.41917 
L 231.541228 139.41917 
z
" clip-path="url(#pa67b4ecdd3)" style="fill: #1f77b4"/>
   </g>
   <g id="patch_105">
    <path d="M 233.15216 273.312 
L 234.763092 273.312 
L 234.763092 156.753509 
L 233.15216 156.753509 
z
" clip-path="url(#pa67b4ecdd3)" style="fill: #1f77b4"/>
   </g>
   <g id="patch_106">
    <path d="M 234.763092 273.312 
L 236.374025 273.312 
L 236.374025 157.351245 
L 234.763092 157.351245 
z
" clip-path="url(#pa67b4ecdd3)" style="fill: #1f77b4"/>
   </g>
   <g id="patch_107">
    <path d="M 236.374025 273.312 
L 237.984957 273.312 
L 237.984957 144.798792 
L 236.374025 144.798792 
z
" clip-path="url(#pa67b4ecdd3)" style="fill: #1f77b4"/>
   </g>
   <g id="patch_108">
    <path d="M 237.984957 273.312 
L 239.595889 273.312 
L 239.595889 151.971623 
L 237.984957 151.971623 
z
" clip-path="url(#pa67b4ecdd3)" style="fill: #1f77b4"/>
   </g>
   <g id="patch_109">
    <path d="M 239.595889 273.312 
L 241.206821 273.312 
L 241.206821 143.603321 
L 239.595889 143.603321 
z
" clip-path="url(#pa67b4ecdd3)" style="fill: #1f77b4"/>
   </g>
   <g id="patch_110">
    <path d="M 241.206821 273.312 
L 242.817753 273.312 
L 242.817753 138.821434 
L 241.206821 138.821434 
z
" clip-path="url(#pa67b4ecdd3)" style="fill: #1f77b4"/>
   </g>
   <g id="patch_111">
    <path d="M 242.817753 273.312 
L 244.428685 273.312 
L 244.428685 155.558038 
L 242.817753 155.558038 
z
" clip-path="url(#pa67b4ecdd3)" style="fill: #1f77b4"/>
   </g>
   <g id="patch_112">
    <path d="M 244.428685 273.312 
L 246.039618 273.312 
L 246.039618 136.430491 
L 244.428685 136.430491 
z
" clip-path="url(#pa67b4ecdd3)" style="fill: #1f77b4"/>
   </g>
   <g id="patch_113">
    <path d="M 246.039618 273.312 
L 247.65055 273.312 
L 247.65055 133.441811 
L 246.039618 133.441811 
z
" clip-path="url(#pa67b4ecdd3)" style="fill: #1f77b4"/>
   </g>
   <g id="patch_114">
    <path d="M 247.65055 273.312 
L 249.261482 273.312 
L 249.261482 135.235019 
L 247.65055 135.235019 
z
" clip-path="url(#pa67b4ecdd3)" style="fill: #1f77b4"/>
   </g>
   <g id="patch_115">
    <path d="M 249.261482 273.312 
L 250.872414 273.312 
L 250.872414 141.212377 
L 249.261482 141.212377 
z
" clip-path="url(#pa67b4ecdd3)" style="fill: #1f77b4"/>
   </g>
   <g id="patch_116">
    <path d="M 250.872414 273.312 
L 252.483346 273.312 
L 252.483346 133.441811 
L 250.872414 133.441811 
z
" clip-path="url(#pa67b4ecdd3)" style="fill: #1f77b4"/>
   </g>
   <g id="patch_117">
    <path d="M 252.483346 273.312 
L 254.094278 273.312 
L 254.094278 140.614642 
L 252.483346 140.614642 
z
" clip-path="url(#pa67b4ecdd3)" style="fill: #1f77b4"/>
   </g>
   <g id="patch_118">
    <path d="M 254.094278 273.312 
L 255.705211 273.312 
L 255.705211 138.223698 
L 254.094278 138.223698 
z
" clip-path="url(#pa67b4ecdd3)" style="fill: #1f77b4"/>
   </g>
   <g id="patch_119">
    <path d="M 255.705211 273.312 
L 257.316143 273.312 
L 257.316143 133.441811 
L 255.705211 133.441811 
z
" clip-path="url(#pa67b4ecdd3)" style="fill: #1f77b4"/>
   </g>
   <g id="patch_120">
    <path d="M 257.316143 273.312 
L 258.927075 273.312 
L 258.927075 134.637283 
L 257.316143 134.637283 
z
" clip-path="url(#pa67b4ecdd3)" style="fill: #1f77b4"/>
   </g>
   <g id="patch_121">
    <path d="M 258.927075 273.312 
L 260.538007 273.312 
L 260.538007 137.028226 
L 258.927075 137.028226 
z
" clip-path="url(#pa67b4ecdd3)" style="fill: #1f77b4"/>
   </g>
   <g id="patch_122">
    <path d="M 260.538007 273.312 
L 262.148939 273.312 
L 262.148939 133.441811 
L 260.538007 133.441811 
z
" clip-path="url(#pa67b4ecdd3)" style="fill: #1f77b4"/>
   </g>
   <g id="patch_123">
    <path d="M 262.148939 273.312 
L 263.759871 273.312 
L 263.759871 128.659925 
L 262.148939 128.659925 
z
" clip-path="url(#pa67b4ecdd3)" style="fill: #1f77b4"/>
   </g>
   <g id="patch_124">
    <path d="M 263.759871 273.312 
L 265.370804 273.312 
L 265.370804 125.073509 
L 263.759871 125.073509 
z
" clip-path="url(#pa67b4ecdd3)" style="fill: #1f77b4"/>
   </g>
   <g id="patch_125">
    <path d="M 265.370804 273.312 
L 266.981736 273.312 
L 266.981736 125.073509 
L 265.370804 125.073509 
z
" clip-path="url(#pa67b4ecdd3)" style="fill: #1f77b4"/>
   </g>
   <g id="patch_126">
    <path d="M 266.981736 273.312 
L 268.592668 273.312 
L 268.592668 127.464453 
L 266.981736 127.464453 
z
" clip-path="url(#pa67b4ecdd3)" style="fill: #1f77b4"/>
   </g>
   <g id="patch_127">
    <path d="M 268.592668 273.312 
L 270.2036 273.312 
L 270.2036 127.464453 
L 268.592668 127.464453 
z
" clip-path="url(#pa67b4ecdd3)" style="fill: #1f77b4"/>
   </g>
   <g id="patch_128">
    <path d="M 270.2036 273.312 
L 271.814532 273.312 
L 271.814532 118.498415 
L 270.2036 118.498415 
z
" clip-path="url(#pa67b4ecdd3)" style="fill: #1f77b4"/>
   </g>
   <g id="patch_129">
    <path d="M 271.814532 273.312 
L 273.425465 273.312 
L 273.425465 134.039547 
L 271.814532 134.039547 
z
" clip-path="url(#pa67b4ecdd3)" style="fill: #1f77b4"/>
   </g>
   <g id="patch_130">
    <path d="M 273.425465 273.312 
L 275.036397 273.312 
L 275.036397 126.866717 
L 273.425465 126.866717 
z
" clip-path="url(#pa67b4ecdd3)" style="fill: #1f77b4"/>
   </g>
   <g id="patch_131">
    <path d="M 275.036397 273.312 
L 276.647329 273.312 
L 276.647329 129.25766 
L 275.036397 129.25766 
z
" clip-path="url(#pa67b4ecdd3)" style="fill: #1f77b4"/>
   </g>
   <g id="patch_132">
    <path d="M 276.647329 273.312 
L 278.258261 273.312 
L 278.258261 126.866717 
L 276.647329 126.866717 
z
" clip-path="url(#pa67b4ecdd3)" style="fill: #1f77b4"/>
   </g>
   <g id="patch_133">
    <path d="M 278.258261 273.312 
L 279.869193 273.312 
L 279.869193 113.118792 
L 278.258261 113.118792 
z
" clip-path="url(#pa67b4ecdd3)" style="fill: #1f77b4"/>
   </g>
   <g id="patch_134">
    <path d="M 279.869193 273.312 
L 281.480125 273.312 
L 281.480125 125.671245 
L 279.869193 125.671245 
z
" clip-path="url(#pa67b4ecdd3)" style="fill: #1f77b4"/>
   </g>
   <g id="patch_135">
    <path d="M 281.480125 273.312 
L 283.091058 273.312 
L 283.091058 120.889358 
L 281.480125 120.889358 
z
" clip-path="url(#pa67b4ecdd3)" style="fill: #1f77b4"/>
   </g>
   <g id="patch_136">
    <path d="M 283.091058 273.312 
L 284.70199 273.312 
L 284.70199 98.773132 
L 283.091058 98.773132 
z
" clip-path="url(#pa67b4ecdd3)" style="fill: #1f77b4"/>
   </g>
   <g id="patch_137">
    <path d="M 284.70199 273.312 
L 286.312922 273.312 
L 286.312922 113.118792 
L 284.70199 113.118792 
z
" clip-path="url(#pa67b4ecdd3)" style="fill: #1f77b4"/>
   </g>
   <g id="patch_138">
    <path d="M 286.312922 273.312 
L 287.923854 273.312 
L 287.923854 105.348226 
L 286.312922 105.348226 
z
" clip-path="url(#pa67b4ecdd3)" style="fill: #1f77b4"/>
   </g>
   <g id="patch_139">
    <path d="M 287.923854 273.312 
L 289.534786 273.312 
L 289.534786 98.773132 
L 287.923854 98.773132 
z
" clip-path="url(#pa67b4ecdd3)" style="fill: #1f77b4"/>
   </g>
   <g id="patch_140">
    <path d="M 289.534786 273.312 
L 291.145718 273.312 
L 291.145718 105.348226 
L 289.534786 105.348226 
z
" clip-path="url(#pa67b4ecdd3)" style="fill: #1f77b4"/>
   </g>
   <g id="patch_141">
    <path d="M 291.145718 273.312 
L 292.756651 273.312 
L 292.756651 105.945962 
L 291.145718 105.945962 
z
" clip-path="url(#pa67b4ecdd3)" style="fill: #1f77b4"/>
   </g>
   <g id="patch_142">
    <path d="M 292.756651 273.312 
L 294.367583 273.312 
L 294.367583 98.773132 
L 292.756651 98.773132 
z
" clip-path="url(#pa67b4ecdd3)" style="fill: #1f77b4"/>
   </g>
   <g id="patch_143">
    <path d="M 294.367583 273.312 
L 295.978515 273.312 
L 295.978515 101.761811 
L 294.367583 101.761811 
z
" clip-path="url(#pa67b4ecdd3)" style="fill: #1f77b4"/>
   </g>
   <g id="patch_144">
    <path d="M 295.978515 273.312 
L 297.589447 273.312 
L 297.589447 119.693887 
L 295.978515 119.693887 
z
" clip-path="url(#pa67b4ecdd3)" style="fill: #1f77b4"/>
   </g>
   <g id="patch_145">
    <path d="M 297.589447 273.312 
L 299.200379 273.312 
L 299.200379 102.957283 
L 297.589447 102.957283 
z
" clip-path="url(#pa67b4ecdd3)" style="fill: #1f77b4"/>
   </g>
   <g id="patch_146">
    <path d="M 299.200379 273.312 
L 300.811311 273.312 
L 300.811311 96.382189 
L 299.200379 96.382189 
z
" clip-path="url(#pa67b4ecdd3)" style="fill: #1f77b4"/>
   </g>
   <g id="patch_147">
    <path d="M 300.811311 273.312 
L 302.422244 273.312 
L 302.422244 75.461434 
L 300.811311 75.461434 
z
" clip-path="url(#pa67b4ecdd3)" style="fill: #1f77b4"/>
   </g>
   <g id="patch_148">
    <path d="M 302.422244 273.312 
L 304.033176 273.312 
L 304.033176 88.013887 
L 302.422244 88.013887 
z
" clip-path="url(#pa67b4ecdd3)" style="fill: #1f77b4"/>
   </g>
   <g id="patch_149">
    <path d="M 304.033176 273.312 
L 305.644108 273.312 
L 305.644108 114.912 
L 304.033176 114.912 
z
" clip-path="url(#pa67b4ecdd3)" style="fill: #1f77b4"/>
   </g>
   <g id="patch_150">
    <path d="M 305.644108 273.312 
L 307.25504 273.312 
L 307.25504 85.622943 
L 305.644108 85.622943 
z
" clip-path="url(#pa67b4ecdd3)" style="fill: #1f77b4"/>
   </g>
   <g id="patch_151">
    <path d="M 307.25504 273.312 
L 308.865972 273.312 
L 308.865972 85.025208 
L 307.25504 85.025208 
z
" clip-path="url(#pa67b4ecdd3)" style="fill: #1f77b4"/>
   </g>
   <g id="patch_152">
    <path d="M 308.865972 273.312 
L 310.476904 273.312 
L 310.476904 91.002566 
L 308.865972 91.002566 
z
" clip-path="url(#pa67b4ecdd3)" style="fill: #1f77b4"/>
   </g>
   <g id="patch_153">
    <path d="M 310.476904 273.312 
L 312.087837 273.312 
L 312.087837 105.945962 
L 310.476904 105.945962 
z
" clip-path="url(#pa67b4ecdd3)" style="fill: #1f77b4"/>
   </g>
   <g id="patch_154">
    <path d="M 312.087837 273.312 
L 313.698769 273.312 
L 313.698769 102.957283 
L 312.087837 102.957283 
z
" clip-path="url(#pa67b4ecdd3)" style="fill: #1f77b4"/>
   </g>
   <g id="patch_155">
    <path d="M 313.698769 273.312 
L 315.309701 273.312 
L 315.309701 101.761811 
L 313.698769 101.761811 
z
" clip-path="url(#pa67b4ecdd3)" style="fill: #1f77b4"/>
   </g>
   <g id="patch_156">
    <path d="M 315.309701 273.312 
L 316.920633 273.312 
L 316.920633 90.40483 
L 315.309701 90.40483 
z
" clip-path="url(#pa67b4ecdd3)" style="fill: #1f77b4"/>
   </g>
   <g id="patch_157">
    <path d="M 316.920633 273.312 
L 318.531565 273.312 
L 318.531565 86.818415 
L 316.920633 86.818415 
z
" clip-path="url(#pa67b4ecdd3)" style="fill: #1f77b4"/>
   </g>
   <g id="patch_158">
    <path d="M 318.531565 273.312 
L 320.142497 273.312 
L 320.142497 93.991245 
L 318.531565 93.991245 
z
" clip-path="url(#pa67b4ecdd3)" style="fill: #1f77b4"/>
   </g>
   <g id="patch_159">
    <path d="M 320.142497 273.312 
L 321.75343 273.312 
L 321.75343 74.863698 
L 320.142497 74.863698 
z
" clip-path="url(#pa67b4ecdd3)" style="fill: #1f77b4"/>
   </g>
   <g id="patch_160">
    <path d="M 321.75343 273.312 
L 323.364362 273.312 
L 323.364362 86.818415 
L 321.75343 86.818415 
z
" clip-path="url(#pa67b4ecdd3)" style="fill: #1f77b4"/>
   </g>
   <g id="patch_161">
    <path d="M 323.364362 273.312 
L 324.975294 273.312 
L 324.975294 83.232 
L 323.364362 83.232 
z
" clip-path="url(#pa67b4ecdd3)" style="fill: #1f77b4"/>
   </g>
   <g id="patch_162">
    <path d="M 324.975294 273.312 
L 326.586226 273.312 
L 326.586226 89.807094 
L 324.975294 89.807094 
z
" clip-path="url(#pa67b4ecdd3)" style="fill: #1f77b4"/>
   </g>
   <g id="patch_163">
    <path d="M 326.586226 273.312 
L 328.197158 273.312 
L 328.197158 85.025208 
L 326.586226 85.025208 
z
" clip-path="url(#pa67b4ecdd3)" style="fill: #1f77b4"/>
   </g>
   <g id="patch_164">
    <path d="M 328.197158 273.312 
L 329.808091 273.312 
L 329.808091 82.634264 
L 328.197158 82.634264 
z
" clip-path="url(#pa67b4ecdd3)" style="fill: #1f77b4"/>
   </g>
   <g id="patch_165">
    <path d="M 329.808091 273.312 
L 331.419023 273.312 
L 331.419023 62.908981 
L 329.808091 62.908981 
z
" clip-path="url(#pa67b4ecdd3)" style="fill: #1f77b4"/>
   </g>
   <g id="patch_166">
    <path d="M 331.419023 273.312 
L 333.029955 273.312 
L 333.029955 82.036528 
L 331.419023 82.036528 
z
" clip-path="url(#pa67b4ecdd3)" style="fill: #1f77b4"/>
   </g>
   <g id="patch_167">
    <path d="M 333.029955 273.312 
L 334.640887 273.312 
L 334.640887 79.645585 
L 333.029955 79.645585 
z
" clip-path="url(#pa67b4ecdd3)" style="fill: #1f77b4"/>
   </g>
   <g id="patch_168">
    <path d="M 334.640887 273.312 
L 336.251819 273.312 
L 336.251819 62.311245 
L 334.640887 62.311245 
z
" clip-path="url(#pa67b4ecdd3)" style="fill: #1f77b4"/>
   </g>
   <g id="patch_169">
    <path d="M 336.251819 273.312 
L 337.862751 273.312 
L 337.862751 88.611623 
L 336.251819 88.611623 
z
" clip-path="url(#pa67b4ecdd3)" style="fill: #1f77b4"/>
   </g>
   <g id="patch_170">
    <path d="M 337.862751 273.312 
L 339.473684 273.312 
L 339.473684 74.863698 
L 337.862751 74.863698 
z
" clip-path="url(#pa67b4ecdd3)" style="fill: #1f77b4"/>
   </g>
   <g id="patch_171">
    <path d="M 339.473684 273.312 
L 341.084616 273.312 
L 341.084616 88.013887 
L 339.473684 88.013887 
z
" clip-path="url(#pa67b4ecdd3)" style="fill: #1f77b4"/>
   </g>
   <g id="patch_172">
    <path d="M 341.084616 273.312 
L 342.695548 273.312 
L 342.695548 73.668226 
L 341.084616 73.668226 
z
" clip-path="url(#pa67b4ecdd3)" style="fill: #1f77b4"/>
   </g>
   <g id="patch_173">
    <path d="M 342.695548 273.312 
L 344.30648 273.312 
L 344.30648 95.784453 
L 342.695548 95.784453 
z
" clip-path="url(#pa67b4ecdd3)" style="fill: #1f77b4"/>
   </g>
   <g id="patch_174">
    <path d="M 344.30648 273.312 
L 345.917412 273.312 
L 345.917412 70.081811 
L 344.30648 70.081811 
z
" clip-path="url(#pa67b4ecdd3)" style="fill: #1f77b4"/>
   </g>
   <g id="patch_175">
    <path d="M 345.917412 273.312 
L 347.528344 273.312 
L 347.528344 52.149736 
L 345.917412 52.149736 
z
" clip-path="url(#pa67b4ecdd3)" style="fill: #1f77b4"/>
   </g>
   <g id="patch_176">
    <path d="M 347.528344 273.312 
L 349.139277 273.312 
L 349.139277 83.232 
L 347.528344 83.232 
z
" clip-path="url(#pa67b4ecdd3)" style="fill: #1f77b4"/>
   </g>
   <g id="patch_177">
    <path d="M 349.139277 273.312 
L 350.750209 273.312 
L 350.750209 54.540679 
L 349.139277 54.540679 
z
" clip-path="url(#pa67b4ecdd3)" style="fill: #1f77b4"/>
   </g>
   <g id="patch_178">
    <path d="M 350.750209 273.312 
L 352.361141 273.312 
L 352.361141 50.356528 
L 350.750209 50.356528 
z
" clip-path="url(#pa67b4ecdd3)" style="fill: #1f77b4"/>
   </g>
   <g id="patch_179">
    <path d="M 352.361141 273.312 
L 353.972073 273.312 
L 353.972073 67.093132 
L 352.361141 67.093132 
z
" clip-path="url(#pa67b4ecdd3)" style="fill: #1f77b4"/>
   </g>
   <g id="patch_180">
    <path d="M 353.972073 273.312 
L 355.583005 273.312 
L 355.583005 81.438792 
L 353.972073 81.438792 
z
" clip-path="url(#pa67b4ecdd3)" style="fill: #1f77b4"/>
   </g>
   <g id="patch_181">
    <path d="M 355.583005 273.312 
L 357.193937 273.312 
L 357.193937 55.736151 
L 355.583005 55.736151 
z
" clip-path="url(#pa67b4ecdd3)" style="fill: #1f77b4"/>
   </g>
   <g id="patch_182">
    <path d="M 357.193937 273.312 
L 358.80487 273.312 
L 358.80487 54.540679 
L 357.193937 54.540679 
z
" clip-path="url(#pa67b4ecdd3)" style="fill: #1f77b4"/>
   </g>
   <g id="patch_183">
    <path d="M 358.80487 273.312 
L 360.415802 273.312 
L 360.415802 56.333887 
L 358.80487 56.333887 
z
" clip-path="url(#pa67b4ecdd3)" style="fill: #1f77b4"/>
   </g>
   <g id="patch_184">
    <path d="M 360.415802 273.312 
L 362.026734 273.312 
L 362.026734 62.311245 
L 360.415802 62.311245 
z
" clip-path="url(#pa67b4ecdd3)" style="fill: #1f77b4"/>
   </g>
   <g id="patch_185">
    <path d="M 362.026734 273.312 
L 363.637666 273.312 
L 363.637666 46.770113 
L 362.026734 46.770113 
z
" clip-path="url(#pa67b4ecdd3)" style="fill: #1f77b4"/>
   </g>
   <g id="patch_186">
    <path d="M 363.637666 273.312 
L 365.248598 273.312 
L 365.248598 47.965585 
L 363.637666 47.965585 
z
" clip-path="url(#pa67b4ecdd3)" style="fill: #1f77b4"/>
   </g>
   <g id="patch_187">
    <path d="M 365.248598 273.312 
L 366.85953 273.312 
L 366.85953 64.104453 
L 365.248598 64.104453 
z
" clip-path="url(#pa67b4ecdd3)" style="fill: #1f77b4"/>
   </g>
   <g id="patch_188">
    <path d="M 366.85953 273.312 
L 368.470463 273.312 
L 368.470463 61.115774 
L 366.85953 61.115774 
z
" clip-path="url(#pa67b4ecdd3)" style="fill: #1f77b4"/>
   </g>
   <g id="patch_189">
    <path d="M 368.470463 273.312 
L 370.081395 273.312 
L 370.081395 48.563321 
L 368.470463 48.563321 
z
" clip-path="url(#pa67b4ecdd3)" style="fill: #1f77b4"/>
   </g>
   <g id="patch_190">
    <path d="M 370.081395 273.312 
L 371.692327 273.312 
L 371.692327 77.852377 
L 370.081395 77.852377 
z
" clip-path="url(#pa67b4ecdd3)" style="fill: #1f77b4"/>
   </g>
   <g id="patch_191">
    <path d="M 371.692327 273.312 
L 373.303259 273.312 
L 373.303259 47.965585 
L 371.692327 47.965585 
z
" clip-path="url(#pa67b4ecdd3)" style="fill: #1f77b4"/>
   </g>
   <g id="patch_192">
    <path d="M 373.303259 273.312 
L 374.914191 273.312 
L 374.914191 39.597283 
L 373.303259 39.597283 
z
" clip-path="url(#pa67b4ecdd3)" style="fill: #1f77b4"/>
   </g>
   <g id="patch_193">
    <path d="M 374.914191 273.312 
L 376.525123 273.312 
L 376.525123 50.356528 
L 374.914191 50.356528 
z
" clip-path="url(#pa67b4ecdd3)" style="fill: #1f77b4"/>
   </g>
   <g id="patch_194">
    <path d="M 376.525123 273.312 
L 378.136056 273.312 
L 378.136056 53.345208 
L 376.525123 53.345208 
z
" clip-path="url(#pa67b4ecdd3)" style="fill: #1f77b4"/>
   </g>
   <g id="patch_195">
    <path d="M 378.136056 273.312 
L 379.746988 273.312 
L 379.746988 34.21766 
L 378.136056 34.21766 
z
" clip-path="url(#pa67b4ecdd3)" style="fill: #1f77b4"/>
   </g>
   <g id="patch_196">
    <path d="M 379.746988 273.312 
L 381.35792 273.312 
L 381.35792 48.563321 
L 379.746988 48.563321 
z
" clip-path="url(#pa67b4ecdd3)" style="fill: #1f77b4"/>
   </g>
   <g id="patch_197">
    <path d="M 381.35792 273.312 
L 382.968852 273.312 
L 382.968852 48.563321 
L 381.35792 48.563321 
z
" clip-path="url(#pa67b4ecdd3)" style="fill: #1f77b4"/>
   </g>
   <g id="patch_198">
    <path d="M 382.968852 273.312 
L 384.579784 273.312 
L 384.579784 36.608604 
L 382.968852 36.608604 
z
" clip-path="url(#pa67b4ecdd3)" style="fill: #1f77b4"/>
   </g>
   <g id="patch_199">
    <path d="M 384.579784 273.312 
L 386.190717 273.312 
L 386.190717 35.413132 
L 384.579784 35.413132 
z
" clip-path="url(#pa67b4ecdd3)" style="fill: #1f77b4"/>
   </g>
   <g id="patch_200">
    <path d="M 386.190717 273.312 
L 387.801649 273.312 
L 387.801649 19.872 
L 386.190717 19.872 
z
" clip-path="url(#pa67b4ecdd3)" style="fill: #1f77b4"/>
   </g>
   <g id="patch_201">
    <path d="M 387.801649 273.312 
L 389.412581 273.312 
L 389.412581 32.424453 
L 387.801649 32.424453 
z
" clip-path="url(#pa67b4ecdd3)" style="fill: #1f77b4"/>
   </g>
   <g id="patch_202">
    <path d="M 389.412581 273.312 
L 391.023513 273.312 
L 391.023513 31.228981 
L 389.412581 31.228981 
z
" clip-path="url(#pa67b4ecdd3)" style="fill: #1f77b4"/>
   </g>
   <g id="matplotlib.axis_1">
    <g id="xtick_1">
     <g id="line2d_1">
      <defs>
       <path id="m7f44c8489c" d="M 0 0 
L 0 3.5 
" style="stroke: #000000; stroke-width: 0.8"/>
      </defs>
      <g>
       <use xlink:href="#m7f44c8489c" x="66.376477" y="273.312" style="stroke: #000000; stroke-width: 0.8"/>
      </g>
     </g>
     <g id="text_1">
      <!-- 0.0 -->
      <g transform="translate(58.424915 287.910437)scale(0.1 -0.1)">
       <defs>
        <path id="DejaVuSans-30" d="M 2034 4250 
Q 1547 4250 1301 3770 
Q 1056 3291 1056 2328 
Q 1056 1369 1301 889 
Q 1547 409 2034 409 
Q 2525 409 2770 889 
Q 3016 1369 3016 2328 
Q 3016 3291 2770 3770 
Q 2525 4250 2034 4250 
z
M 2034 4750 
Q 2819 4750 3233 4129 
Q 3647 3509 3647 2328 
Q 3647 1150 3233 529 
Q 2819 -91 2034 -91 
Q 1250 -91 836 529 
Q 422 1150 422 2328 
Q 422 3509 836 4129 
Q 1250 4750 2034 4750 
z
" transform="scale(0.015625)"/>
        <path id="DejaVuSans-2e" d="M 684 794 
L 1344 794 
L 1344 0 
L 684 0 
L 684 794 
z
" transform="scale(0.015625)"/>
       </defs>
       <use xlink:href="#DejaVuSans-30"/>
       <use xlink:href="#DejaVuSans-2e" x="63.623047"/>
       <use xlink:href="#DejaVuSans-30" x="95.410156"/>
      </g>
     </g>
    </g>
    <g id="xtick_2">
     <g id="line2d_2">
      <g>
       <use xlink:href="#m7f44c8489c" x="131.307386" y="273.312" style="stroke: #000000; stroke-width: 0.8"/>
      </g>
     </g>
     <g id="text_2">
      <!-- 0.2 -->
      <g transform="translate(123.355824 287.910437)scale(0.1 -0.1)">
       <defs>
        <path id="DejaVuSans-32" d="M 1228 531 
L 3431 531 
L 3431 0 
L 469 0 
L 469 531 
Q 828 903 1448 1529 
Q 2069 2156 2228 2338 
Q 2531 2678 2651 2914 
Q 2772 3150 2772 3378 
Q 2772 3750 2511 3984 
Q 2250 4219 1831 4219 
Q 1534 4219 1204 4116 
Q 875 4013 500 3803 
L 500 4441 
Q 881 4594 1212 4672 
Q 1544 4750 1819 4750 
Q 2544 4750 2975 4387 
Q 3406 4025 3406 3419 
Q 3406 3131 3298 2873 
Q 3191 2616 2906 2266 
Q 2828 2175 2409 1742 
Q 1991 1309 1228 531 
z
" transform="scale(0.015625)"/>
       </defs>
       <use xlink:href="#DejaVuSans-30"/>
       <use xlink:href="#DejaVuSans-2e" x="63.623047"/>
       <use xlink:href="#DejaVuSans-32" x="95.410156"/>
      </g>
     </g>
    </g>
    <g id="xtick_3">
     <g id="line2d_3">
      <g>
       <use xlink:href="#m7f44c8489c" x="196.238295" y="273.312" style="stroke: #000000; stroke-width: 0.8"/>
      </g>
     </g>
     <g id="text_3">
      <!-- 0.4 -->
      <g transform="translate(188.286733 287.910437)scale(0.1 -0.1)">
       <defs>
        <path id="DejaVuSans-34" d="M 2419 4116 
L 825 1625 
L 2419 1625 
L 2419 4116 
z
M 2253 4666 
L 3047 4666 
L 3047 1625 
L 3713 1625 
L 3713 1100 
L 3047 1100 
L 3047 0 
L 2419 0 
L 2419 1100 
L 313 1100 
L 313 1709 
L 2253 4666 
z
" transform="scale(0.015625)"/>
       </defs>
       <use xlink:href="#DejaVuSans-30"/>
       <use xlink:href="#DejaVuSans-2e" x="63.623047"/>
       <use xlink:href="#DejaVuSans-34" x="95.410156"/>
      </g>
     </g>
    </g>
    <g id="xtick_4">
     <g id="line2d_4">
      <g>
       <use xlink:href="#m7f44c8489c" x="261.169205" y="273.312" style="stroke: #000000; stroke-width: 0.8"/>
      </g>
     </g>
     <g id="text_4">
      <!-- 0.6 -->
      <g transform="translate(253.217642 287.910437)scale(0.1 -0.1)">
       <defs>
        <path id="DejaVuSans-36" d="M 2113 2584 
Q 1688 2584 1439 2293 
Q 1191 2003 1191 1497 
Q 1191 994 1439 701 
Q 1688 409 2113 409 
Q 2538 409 2786 701 
Q 3034 994 3034 1497 
Q 3034 2003 2786 2293 
Q 2538 2584 2113 2584 
z
M 3366 4563 
L 3366 3988 
Q 3128 4100 2886 4159 
Q 2644 4219 2406 4219 
Q 1781 4219 1451 3797 
Q 1122 3375 1075 2522 
Q 1259 2794 1537 2939 
Q 1816 3084 2150 3084 
Q 2853 3084 3261 2657 
Q 3669 2231 3669 1497 
Q 3669 778 3244 343 
Q 2819 -91 2113 -91 
Q 1303 -91 875 529 
Q 447 1150 447 2328 
Q 447 3434 972 4092 
Q 1497 4750 2381 4750 
Q 2619 4750 2861 4703 
Q 3103 4656 3366 4563 
z
" transform="scale(0.015625)"/>
       </defs>
       <use xlink:href="#DejaVuSans-30"/>
       <use xlink:href="#DejaVuSans-2e" x="63.623047"/>
       <use xlink:href="#DejaVuSans-36" x="95.410156"/>
      </g>
     </g>
    </g>
    <g id="xtick_5">
     <g id="line2d_5">
      <g>
       <use xlink:href="#m7f44c8489c" x="326.100114" y="273.312" style="stroke: #000000; stroke-width: 0.8"/>
      </g>
     </g>
     <g id="text_5">
      <!-- 0.8 -->
      <g transform="translate(318.148551 287.910437)scale(0.1 -0.1)">
       <defs>
        <path id="DejaVuSans-38" d="M 2034 2216 
Q 1584 2216 1326 1975 
Q 1069 1734 1069 1313 
Q 1069 891 1326 650 
Q 1584 409 2034 409 
Q 2484 409 2743 651 
Q 3003 894 3003 1313 
Q 3003 1734 2745 1975 
Q 2488 2216 2034 2216 
z
M 1403 2484 
Q 997 2584 770 2862 
Q 544 3141 544 3541 
Q 544 4100 942 4425 
Q 1341 4750 2034 4750 
Q 2731 4750 3128 4425 
Q 3525 4100 3525 3541 
Q 3525 3141 3298 2862 
Q 3072 2584 2669 2484 
Q 3125 2378 3379 2068 
Q 3634 1759 3634 1313 
Q 3634 634 3220 271 
Q 2806 -91 2034 -91 
Q 1263 -91 848 271 
Q 434 634 434 1313 
Q 434 1759 690 2068 
Q 947 2378 1403 2484 
z
M 1172 3481 
Q 1172 3119 1398 2916 
Q 1625 2713 2034 2713 
Q 2441 2713 2670 2916 
Q 2900 3119 2900 3481 
Q 2900 3844 2670 4047 
Q 2441 4250 2034 4250 
Q 1625 4250 1398 4047 
Q 1172 3844 1172 3481 
z
" transform="scale(0.015625)"/>
       </defs>
       <use xlink:href="#DejaVuSans-30"/>
       <use xlink:href="#DejaVuSans-2e" x="63.623047"/>
       <use xlink:href="#DejaVuSans-38" x="95.410156"/>
      </g>
     </g>
    </g>
    <g id="xtick_6">
     <g id="line2d_6">
      <g>
       <use xlink:href="#m7f44c8489c" x="391.031023" y="273.312" style="stroke: #000000; stroke-width: 0.8"/>
      </g>
     </g>
     <g id="text_6">
      <!-- 1.0 -->
      <g transform="translate(383.07946 287.910437)scale(0.1 -0.1)">
       <defs>
        <path id="DejaVuSans-31" d="M 794 531 
L 1825 531 
L 1825 4091 
L 703 3866 
L 703 4441 
L 1819 4666 
L 2450 4666 
L 2450 531 
L 3481 531 
L 3481 0 
L 794 0 
L 794 531 
z
" transform="scale(0.015625)"/>
       </defs>
       <use xlink:href="#DejaVuSans-31"/>
       <use xlink:href="#DejaVuSans-2e" x="63.623047"/>
       <use xlink:href="#DejaVuSans-30" x="95.410156"/>
      </g>
     </g>
    </g>
    <g id="text_7">
     <!-- Propagation direction -->
     <g transform="translate(175.221719 301.588562)scale(0.1 -0.1)">
      <defs>
       <path id="DejaVuSans-50" d="M 1259 4147 
L 1259 2394 
L 2053 2394 
Q 2494 2394 2734 2622 
Q 2975 2850 2975 3272 
Q 2975 3691 2734 3919 
Q 2494 4147 2053 4147 
L 1259 4147 
z
M 628 4666 
L 2053 4666 
Q 2838 4666 3239 4311 
Q 3641 3956 3641 3272 
Q 3641 2581 3239 2228 
Q 2838 1875 2053 1875 
L 1259 1875 
L 1259 0 
L 628 0 
L 628 4666 
z
" transform="scale(0.015625)"/>
       <path id="DejaVuSans-72" d="M 2631 2963 
Q 2534 3019 2420 3045 
Q 2306 3072 2169 3072 
Q 1681 3072 1420 2755 
Q 1159 2438 1159 1844 
L 1159 0 
L 581 0 
L 581 3500 
L 1159 3500 
L 1159 2956 
Q 1341 3275 1631 3429 
Q 1922 3584 2338 3584 
Q 2397 3584 2469 3576 
Q 2541 3569 2628 3553 
L 2631 2963 
z
" transform="scale(0.015625)"/>
       <path id="DejaVuSans-6f" d="M 1959 3097 
Q 1497 3097 1228 2736 
Q 959 2375 959 1747 
Q 959 1119 1226 758 
Q 1494 397 1959 397 
Q 2419 397 2687 759 
Q 2956 1122 2956 1747 
Q 2956 2369 2687 2733 
Q 2419 3097 1959 3097 
z
M 1959 3584 
Q 2709 3584 3137 3096 
Q 3566 2609 3566 1747 
Q 3566 888 3137 398 
Q 2709 -91 1959 -91 
Q 1206 -91 779 398 
Q 353 888 353 1747 
Q 353 2609 779 3096 
Q 1206 3584 1959 3584 
z
" transform="scale(0.015625)"/>
       <path id="DejaVuSans-70" d="M 1159 525 
L 1159 -1331 
L 581 -1331 
L 581 3500 
L 1159 3500 
L 1159 2969 
Q 1341 3281 1617 3432 
Q 1894 3584 2278 3584 
Q 2916 3584 3314 3078 
Q 3713 2572 3713 1747 
Q 3713 922 3314 415 
Q 2916 -91 2278 -91 
Q 1894 -91 1617 61 
Q 1341 213 1159 525 
z
M 3116 1747 
Q 3116 2381 2855 2742 
Q 2594 3103 2138 3103 
Q 1681 3103 1420 2742 
Q 1159 2381 1159 1747 
Q 1159 1113 1420 752 
Q 1681 391 2138 391 
Q 2594 391 2855 752 
Q 3116 1113 3116 1747 
z
" transform="scale(0.015625)"/>
       <path id="DejaVuSans-61" d="M 2194 1759 
Q 1497 1759 1228 1600 
Q 959 1441 959 1056 
Q 959 750 1161 570 
Q 1363 391 1709 391 
Q 2188 391 2477 730 
Q 2766 1069 2766 1631 
L 2766 1759 
L 2194 1759 
z
M 3341 1997 
L 3341 0 
L 2766 0 
L 2766 531 
Q 2569 213 2275 61 
Q 1981 -91 1556 -91 
Q 1019 -91 701 211 
Q 384 513 384 1019 
Q 384 1609 779 1909 
Q 1175 2209 1959 2209 
L 2766 2209 
L 2766 2266 
Q 2766 2663 2505 2880 
Q 2244 3097 1772 3097 
Q 1472 3097 1187 3025 
Q 903 2953 641 2809 
L 641 3341 
Q 956 3463 1253 3523 
Q 1550 3584 1831 3584 
Q 2591 3584 2966 3190 
Q 3341 2797 3341 1997 
z
" transform="scale(0.015625)"/>
       <path id="DejaVuSans-67" d="M 2906 1791 
Q 2906 2416 2648 2759 
Q 2391 3103 1925 3103 
Q 1463 3103 1205 2759 
Q 947 2416 947 1791 
Q 947 1169 1205 825 
Q 1463 481 1925 481 
Q 2391 481 2648 825 
Q 2906 1169 2906 1791 
z
M 3481 434 
Q 3481 -459 3084 -895 
Q 2688 -1331 1869 -1331 
Q 1566 -1331 1297 -1286 
Q 1028 -1241 775 -1147 
L 775 -588 
Q 1028 -725 1275 -790 
Q 1522 -856 1778 -856 
Q 2344 -856 2625 -561 
Q 2906 -266 2906 331 
L 2906 616 
Q 2728 306 2450 153 
Q 2172 0 1784 0 
Q 1141 0 747 490 
Q 353 981 353 1791 
Q 353 2603 747 3093 
Q 1141 3584 1784 3584 
Q 2172 3584 2450 3431 
Q 2728 3278 2906 2969 
L 2906 3500 
L 3481 3500 
L 3481 434 
z
" transform="scale(0.015625)"/>
       <path id="DejaVuSans-74" d="M 1172 4494 
L 1172 3500 
L 2356 3500 
L 2356 3053 
L 1172 3053 
L 1172 1153 
Q 1172 725 1289 603 
Q 1406 481 1766 481 
L 2356 481 
L 2356 0 
L 1766 0 
Q 1100 0 847 248 
Q 594 497 594 1153 
L 594 3053 
L 172 3053 
L 172 3500 
L 594 3500 
L 594 4494 
L 1172 4494 
z
" transform="scale(0.015625)"/>
       <path id="DejaVuSans-69" d="M 603 3500 
L 1178 3500 
L 1178 0 
L 603 0 
L 603 3500 
z
M 603 4863 
L 1178 4863 
L 1178 4134 
L 603 4134 
L 603 4863 
z
" transform="scale(0.015625)"/>
       <path id="DejaVuSans-6e" d="M 3513 2113 
L 3513 0 
L 2938 0 
L 2938 2094 
Q 2938 2591 2744 2837 
Q 2550 3084 2163 3084 
Q 1697 3084 1428 2787 
Q 1159 2491 1159 1978 
L 1159 0 
L 581 0 
L 581 3500 
L 1159 3500 
L 1159 2956 
Q 1366 3272 1645 3428 
Q 1925 3584 2291 3584 
Q 2894 3584 3203 3211 
Q 3513 2838 3513 2113 
z
" transform="scale(0.015625)"/>
       <path id="DejaVuSans-20" transform="scale(0.015625)"/>
       <path id="DejaVuSans-64" d="M 2906 2969 
L 2906 4863 
L 3481 4863 
L 3481 0 
L 2906 0 
L 2906 525 
Q 2725 213 2448 61 
Q 2172 -91 1784 -91 
Q 1150 -91 751 415 
Q 353 922 353 1747 
Q 353 2572 751 3078 
Q 1150 3584 1784 3584 
Q 2172 3584 2448 3432 
Q 2725 3281 2906 2969 
z
M 947 1747 
Q 947 1113 1208 752 
Q 1469 391 1925 391 
Q 2381 391 2643 752 
Q 2906 1113 2906 1747 
Q 2906 2381 2643 2742 
Q 2381 3103 1925 3103 
Q 1469 3103 1208 2742 
Q 947 2381 947 1747 
z
" transform="scale(0.015625)"/>
       <path id="DejaVuSans-65" d="M 3597 1894 
L 3597 1613 
L 953 1613 
Q 991 1019 1311 708 
Q 1631 397 2203 397 
Q 2534 397 2845 478 
Q 3156 559 3463 722 
L 3463 178 
Q 3153 47 2828 -22 
Q 2503 -91 2169 -91 
Q 1331 -91 842 396 
Q 353 884 353 1716 
Q 353 2575 817 3079 
Q 1281 3584 2069 3584 
Q 2775 3584 3186 3129 
Q 3597 2675 3597 1894 
z
M 3022 2063 
Q 3016 2534 2758 2815 
Q 2500 3097 2075 3097 
Q 1594 3097 1305 2825 
Q 1016 2553 972 2059 
L 3022 2063 
z
" transform="scale(0.015625)"/>
       <path id="DejaVuSans-63" d="M 3122 3366 
L 3122 2828 
Q 2878 2963 2633 3030 
Q 2388 3097 2138 3097 
Q 1578 3097 1268 2742 
Q 959 2388 959 1747 
Q 959 1106 1268 751 
Q 1578 397 2138 397 
Q 2388 397 2633 464 
Q 2878 531 3122 666 
L 3122 134 
Q 2881 22 2623 -34 
Q 2366 -91 2075 -91 
Q 1284 -91 818 406 
Q 353 903 353 1747 
Q 353 2603 823 3093 
Q 1294 3584 2113 3584 
Q 2378 3584 2631 3529 
Q 2884 3475 3122 3366 
z
" transform="scale(0.015625)"/>
      </defs>
      <use xlink:href="#DejaVuSans-50"/>
      <use xlink:href="#DejaVuSans-72" x="58.552734"/>
      <use xlink:href="#DejaVuSans-6f" x="97.416016"/>
      <use xlink:href="#DejaVuSans-70" x="158.597656"/>
      <use xlink:href="#DejaVuSans-61" x="222.074219"/>
      <use xlink:href="#DejaVuSans-67" x="283.353516"/>
      <use xlink:href="#DejaVuSans-61" x="346.830078"/>
      <use xlink:href="#DejaVuSans-74" x="408.109375"/>
      <use xlink:href="#DejaVuSans-69" x="447.318359"/>
      <use xlink:href="#DejaVuSans-6f" x="475.101562"/>
      <use xlink:href="#DejaVuSans-6e" x="536.283203"/>
      <use xlink:href="#DejaVuSans-20" x="599.662109"/>
      <use xlink:href="#DejaVuSans-64" x="631.449219"/>
      <use xlink:href="#DejaVuSans-69" x="694.925781"/>
      <use xlink:href="#DejaVuSans-72" x="722.708984"/>
      <use xlink:href="#DejaVuSans-65" x="761.572266"/>
      <use xlink:href="#DejaVuSans-63" x="823.095703"/>
      <use xlink:href="#DejaVuSans-74" x="878.076172"/>
      <use xlink:href="#DejaVuSans-69" x="917.285156"/>
      <use xlink:href="#DejaVuSans-6f" x="945.068359"/>
      <use xlink:href="#DejaVuSans-6e" x="1006.25"/>
     </g>
    </g>
   </g>
   <g id="matplotlib.axis_2">
    <g id="ytick_1">
     <g id="line2d_7">
      <defs>
       <path id="m4bc1e504d1" d="M 0 0 
L -3.5 0 
" style="stroke: #000000; stroke-width: 0.8"/>
      </defs>
      <g>
       <use xlink:href="#m4bc1e504d1" x="50.14375" y="273.312" style="stroke: #000000; stroke-width: 0.8"/>
      </g>
     </g>
     <g id="text_8">
      <!-- 0.00 -->
      <g transform="translate(20.878125 277.111219)scale(0.1 -0.1)">
       <use xlink:href="#DejaVuSans-30"/>
       <use xlink:href="#DejaVuSans-2e" x="63.623047"/>
       <use xlink:href="#DejaVuSans-30" x="95.410156"/>
       <use xlink:href="#DejaVuSans-30" x="159.033203"/>
      </g>
     </g>
    </g>
    <g id="ytick_2">
     <g id="line2d_8">
      <g>
       <use xlink:href="#m4bc1e504d1" x="50.14375" y="243.652415" style="stroke: #000000; stroke-width: 0.8"/>
      </g>
     </g>
     <g id="text_9">
      <!-- 0.25 -->
      <g transform="translate(20.878125 247.451634)scale(0.1 -0.1)">
       <defs>
        <path id="DejaVuSans-35" d="M 691 4666 
L 3169 4666 
L 3169 4134 
L 1269 4134 
L 1269 2991 
Q 1406 3038 1543 3061 
Q 1681 3084 1819 3084 
Q 2600 3084 3056 2656 
Q 3513 2228 3513 1497 
Q 3513 744 3044 326 
Q 2575 -91 1722 -91 
Q 1428 -91 1123 -41 
Q 819 9 494 109 
L 494 744 
Q 775 591 1075 516 
Q 1375 441 1709 441 
Q 2250 441 2565 725 
Q 2881 1009 2881 1497 
Q 2881 1984 2565 2268 
Q 2250 2553 1709 2553 
Q 1456 2553 1204 2497 
Q 953 2441 691 2322 
L 691 4666 
z
" transform="scale(0.015625)"/>
       </defs>
       <use xlink:href="#DejaVuSans-30"/>
       <use xlink:href="#DejaVuSans-2e" x="63.623047"/>
       <use xlink:href="#DejaVuSans-32" x="95.410156"/>
       <use xlink:href="#DejaVuSans-35" x="159.033203"/>
      </g>
     </g>
    </g>
    <g id="ytick_3">
     <g id="line2d_9">
      <g>
       <use xlink:href="#m4bc1e504d1" x="50.14375" y="213.99283" style="stroke: #000000; stroke-width: 0.8"/>
      </g>
     </g>
     <g id="text_10">
      <!-- 0.50 -->
      <g transform="translate(20.878125 217.792049)scale(0.1 -0.1)">
       <use xlink:href="#DejaVuSans-30"/>
       <use xlink:href="#DejaVuSans-2e" x="63.623047"/>
       <use xlink:href="#DejaVuSans-35" x="95.410156"/>
       <use xlink:href="#DejaVuSans-30" x="159.033203"/>
      </g>
     </g>
    </g>
    <g id="ytick_4">
     <g id="line2d_10">
      <g>
       <use xlink:href="#m4bc1e504d1" x="50.14375" y="184.333245" style="stroke: #000000; stroke-width: 0.8"/>
      </g>
     </g>
     <g id="text_11">
      <!-- 0.75 -->
      <g transform="translate(20.878125 188.132464)scale(0.1 -0.1)">
       <defs>
        <path id="DejaVuSans-37" d="M 525 4666 
L 3525 4666 
L 3525 4397 
L 1831 0 
L 1172 0 
L 2766 4134 
L 525 4134 
L 525 4666 
z
" transform="scale(0.015625)"/>
       </defs>
       <use xlink:href="#DejaVuSans-30"/>
       <use xlink:href="#DejaVuSans-2e" x="63.623047"/>
       <use xlink:href="#DejaVuSans-37" x="95.410156"/>
       <use xlink:href="#DejaVuSans-35" x="159.033203"/>
      </g>
     </g>
    </g>
    <g id="ytick_5">
     <g id="line2d_11">
      <g>
       <use xlink:href="#m4bc1e504d1" x="50.14375" y="154.67366" style="stroke: #000000; stroke-width: 0.8"/>
      </g>
     </g>
     <g id="text_12">
      <!-- 1.00 -->
      <g transform="translate(20.878125 158.472879)scale(0.1 -0.1)">
       <use xlink:href="#DejaVuSans-31"/>
       <use xlink:href="#DejaVuSans-2e" x="63.623047"/>
       <use xlink:href="#DejaVuSans-30" x="95.410156"/>
       <use xlink:href="#DejaVuSans-30" x="159.033203"/>
      </g>
     </g>
    </g>
    <g id="ytick_6">
     <g id="line2d_12">
      <g>
       <use xlink:href="#m4bc1e504d1" x="50.14375" y="125.014075" style="stroke: #000000; stroke-width: 0.8"/>
      </g>
     </g>
     <g id="text_13">
      <!-- 1.25 -->
      <g transform="translate(20.878125 128.813294)scale(0.1 -0.1)">
       <use xlink:href="#DejaVuSans-31"/>
       <use xlink:href="#DejaVuSans-2e" x="63.623047"/>
       <use xlink:href="#DejaVuSans-32" x="95.410156"/>
       <use xlink:href="#DejaVuSans-35" x="159.033203"/>
      </g>
     </g>
    </g>
    <g id="ytick_7">
     <g id="line2d_13">
      <g>
       <use xlink:href="#m4bc1e504d1" x="50.14375" y="95.35449" style="stroke: #000000; stroke-width: 0.8"/>
      </g>
     </g>
     <g id="text_14">
      <!-- 1.50 -->
      <g transform="translate(20.878125 99.153709)scale(0.1 -0.1)">
       <use xlink:href="#DejaVuSans-31"/>
       <use xlink:href="#DejaVuSans-2e" x="63.623047"/>
       <use xlink:href="#DejaVuSans-35" x="95.410156"/>
       <use xlink:href="#DejaVuSans-30" x="159.033203"/>
      </g>
     </g>
    </g>
    <g id="ytick_8">
     <g id="line2d_14">
      <g>
       <use xlink:href="#m4bc1e504d1" x="50.14375" y="65.694905" style="stroke: #000000; stroke-width: 0.8"/>
      </g>
     </g>
     <g id="text_15">
      <!-- 1.75 -->
      <g transform="translate(20.878125 69.494124)scale(0.1 -0.1)">
       <use xlink:href="#DejaVuSans-31"/>
       <use xlink:href="#DejaVuSans-2e" x="63.623047"/>
       <use xlink:href="#DejaVuSans-37" x="95.410156"/>
       <use xlink:href="#DejaVuSans-35" x="159.033203"/>
      </g>
     </g>
    </g>
    <g id="ytick_9">
     <g id="line2d_15">
      <g>
       <use xlink:href="#m4bc1e504d1" x="50.14375" y="36.03532" style="stroke: #000000; stroke-width: 0.8"/>
      </g>
     </g>
     <g id="text_16">
      <!-- 2.00 -->
      <g transform="translate(20.878125 39.834539)scale(0.1 -0.1)">
       <use xlink:href="#DejaVuSans-32"/>
       <use xlink:href="#DejaVuSans-2e" x="63.623047"/>
       <use xlink:href="#DejaVuSans-30" x="95.410156"/>
       <use xlink:href="#DejaVuSans-30" x="159.033203"/>
      </g>
     </g>
    </g>
    <g id="text_17">
     <!-- Probability density -->
     <g transform="translate(14.798438 186.606781)rotate(-90)scale(0.1 -0.1)">
      <defs>
       <path id="DejaVuSans-62" d="M 3116 1747 
Q 3116 2381 2855 2742 
Q 2594 3103 2138 3103 
Q 1681 3103 1420 2742 
Q 1159 2381 1159 1747 
Q 1159 1113 1420 752 
Q 1681 391 2138 391 
Q 2594 391 2855 752 
Q 3116 1113 3116 1747 
z
M 1159 2969 
Q 1341 3281 1617 3432 
Q 1894 3584 2278 3584 
Q 2916 3584 3314 3078 
Q 3713 2572 3713 1747 
Q 3713 922 3314 415 
Q 2916 -91 2278 -91 
Q 1894 -91 1617 61 
Q 1341 213 1159 525 
L 1159 0 
L 581 0 
L 581 4863 
L 1159 4863 
L 1159 2969 
z
" transform="scale(0.015625)"/>
       <path id="DejaVuSans-6c" d="M 603 4863 
L 1178 4863 
L 1178 0 
L 603 0 
L 603 4863 
z
" transform="scale(0.015625)"/>
       <path id="DejaVuSans-79" d="M 2059 -325 
Q 1816 -950 1584 -1140 
Q 1353 -1331 966 -1331 
L 506 -1331 
L 506 -850 
L 844 -850 
Q 1081 -850 1212 -737 
Q 1344 -625 1503 -206 
L 1606 56 
L 191 3500 
L 800 3500 
L 1894 763 
L 2988 3500 
L 3597 3500 
L 2059 -325 
z
" transform="scale(0.015625)"/>
       <path id="DejaVuSans-73" d="M 2834 3397 
L 2834 2853 
Q 2591 2978 2328 3040 
Q 2066 3103 1784 3103 
Q 1356 3103 1142 2972 
Q 928 2841 928 2578 
Q 928 2378 1081 2264 
Q 1234 2150 1697 2047 
L 1894 2003 
Q 2506 1872 2764 1633 
Q 3022 1394 3022 966 
Q 3022 478 2636 193 
Q 2250 -91 1575 -91 
Q 1294 -91 989 -36 
Q 684 19 347 128 
L 347 722 
Q 666 556 975 473 
Q 1284 391 1588 391 
Q 1994 391 2212 530 
Q 2431 669 2431 922 
Q 2431 1156 2273 1281 
Q 2116 1406 1581 1522 
L 1381 1569 
Q 847 1681 609 1914 
Q 372 2147 372 2553 
Q 372 3047 722 3315 
Q 1072 3584 1716 3584 
Q 2034 3584 2315 3537 
Q 2597 3491 2834 3397 
z
" transform="scale(0.015625)"/>
      </defs>
      <use xlink:href="#DejaVuSans-50"/>
      <use xlink:href="#DejaVuSans-72" x="58.552734"/>
      <use xlink:href="#DejaVuSans-6f" x="97.416016"/>
      <use xlink:href="#DejaVuSans-62" x="158.597656"/>
      <use xlink:href="#DejaVuSans-61" x="222.074219"/>
      <use xlink:href="#DejaVuSans-62" x="283.353516"/>
      <use xlink:href="#DejaVuSans-69" x="346.830078"/>
      <use xlink:href="#DejaVuSans-6c" x="374.613281"/>
      <use xlink:href="#DejaVuSans-69" x="402.396484"/>
      <use xlink:href="#DejaVuSans-74" x="430.179688"/>
      <use xlink:href="#DejaVuSans-79" x="469.388672"/>
      <use xlink:href="#DejaVuSans-20" x="528.568359"/>
      <use xlink:href="#DejaVuSans-64" x="560.355469"/>
      <use xlink:href="#DejaVuSans-65" x="623.832031"/>
      <use xlink:href="#DejaVuSans-6e" x="685.355469"/>
      <use xlink:href="#DejaVuSans-73" x="748.734375"/>
      <use xlink:href="#DejaVuSans-69" x="800.833984"/>
      <use xlink:href="#DejaVuSans-74" x="828.617188"/>
      <use xlink:href="#DejaVuSans-79" x="867.826172"/>
     </g>
    </g>
   </g>
   <g id="line2d_16">
    <path d="M 66.376477 273.312 
L 391.031023 36.03532 
L 391.031023 36.03532 
" clip-path="url(#pa67b4ecdd3)" style="fill: none; stroke: #ff7f0e; stroke-width: 1.5; stroke-linecap: square"/>
   </g>
   <g id="patch_203">
    <path d="M 50.14375 273.312 
L 50.14375 7.2 
" style="fill: none; stroke: #000000; stroke-width: 0.8; stroke-linejoin: miter; stroke-linecap: square"/>
   </g>
   <g id="patch_204">
    <path d="M 407.26375 273.312 
L 407.26375 7.2 
" style="fill: none; stroke: #000000; stroke-width: 0.8; stroke-linejoin: miter; stroke-linecap: square"/>
   </g>
   <g id="patch_205">
    <path d="M 50.14375 273.312 
L 407.26375 273.312 
" style="fill: none; stroke: #000000; stroke-width: 0.8; stroke-linejoin: miter; stroke-linecap: square"/>
   </g>
   <g id="patch_206">
    <path d="M 50.14375 7.2 
L 407.26375 7.2 
" style="fill: none; stroke: #000000; stroke-width: 0.8; stroke-linejoin: miter; stroke-linecap: square"/>
   </g>
  </g>
 </g>
 <defs>
  <clipPath id="pa67b4ecdd3">
   <rect x="50.14375" y="7.2" width="357.12" height="266.112"/>
  </clipPath>
 </defs>
</svg>
