<?xml version="1.0" encoding="utf-8" standalone="no"?>
<!DOCTYPE svg PUBLIC "-//W3C//DTD SVG 1.1//EN"
  "http://www.w3.org/Graphics/SVG/1.1/DTD/svg11.dtd">
<svg xmlns:xlink="http://www.w3.org/1999/xlink" width="408.10125pt" height="310.86825pt" viewBox="0 0 408.10125 310.86825" xmlns="http://www.w3.org/2000/svg" version="1.1">
 <metadata>
  <rdf:RDF xmlns:dc="http://purl.org/dc/elements/1.1/" xmlns:cc="http://creativecommons.org/ns#" xmlns:rdf="http://www.w3.org/1999/02/22-rdf-syntax-ns#">
   <cc:Work>
    <dc:type rdf:resource="http://purl.org/dc/dcmitype/StillImage"/>
    <dc:date>2023-01-11T16:35:21.176530</dc:date>
    <dc:format>image/svg+xml</dc:format>
    <dc:creator>
     <cc:Agent>
      <dc:title>Matplotlib v3.5.3, https://matplotlib.org/</dc:title>
     </cc:Agent>
    </dc:creator>
   </cc:Work>
  </rdf:RDF>
 </metadata>
 <defs>
  <style type="text/css">*{stroke-linejoin: round; stroke-linecap: butt}</style>
 </defs>
 <g id="figure_1">
  <g id="patch_1">
   <path d="M 0 310.86825 
L 408.10125 310.86825 
L 408.10125 0 
L 0 0 
z
" style="fill: #ffffff"/>
  </g>
  <g id="axes_1">
   <g id="patch_2">
    <path d="M 43.78125 273.312 
L 400.90125 273.312 
L 400.90125 7.2 
L 43.78125 7.2 
z
" style="fill: #ffffff"/>
   </g>
   <g id="patch_3">
    <path d="M 60.150803 273.312 
L 61.77097 273.312 
L 61.77097 271.245913 
L 60.150803 271.245913 
z
" clip-path="url(#pba9966f77c)" style="fill: #1f77b4"/>
   </g>
   <g id="patch_4">
    <path d="M 61.77097 273.312 
L 63.391136 273.312 
L 63.391136 269.868522 
L 61.77097 269.868522 
z
" clip-path="url(#pba9966f77c)" style="fill: #1f77b4"/>
   </g>
   <g id="patch_5">
    <path d="M 63.391136 273.312 
L 65.011303 273.312 
L 65.011303 266.425043 
L 63.391136 266.425043 
z
" clip-path="url(#pba9966f77c)" style="fill: #1f77b4"/>
   </g>
   <g id="patch_6">
    <path d="M 65.011303 273.312 
L 66.631469 273.312 
L 66.631469 256.783304 
L 65.011303 256.783304 
z
" clip-path="url(#pba9966f77c)" style="fill: #1f77b4"/>
   </g>
   <g id="patch_7">
    <path d="M 66.631469 273.312 
L 68.251636 273.312 
L 68.251636 257.472 
L 66.631469 257.472 
z
" clip-path="url(#pba9966f77c)" style="fill: #1f77b4"/>
   </g>
   <g id="patch_8">
    <path d="M 68.251636 273.312 
L 69.871802 273.312 
L 69.871802 256.094609 
L 68.251636 256.094609 
z
" clip-path="url(#pba9966f77c)" style="fill: #1f77b4"/>
   </g>
   <g id="patch_9">
    <path d="M 69.871802 273.312 
L 71.491968 273.312 
L 71.491968 254.028522 
L 69.871802 254.028522 
z
" clip-path="url(#pba9966f77c)" style="fill: #1f77b4"/>
   </g>
   <g id="patch_10">
    <path d="M 71.491968 273.312 
L 73.112135 273.312 
L 73.112135 252.65113 
L 71.491968 252.65113 
z
" clip-path="url(#pba9966f77c)" style="fill: #1f77b4"/>
   </g>
   <g id="patch_11">
    <path d="M 73.112135 273.312 
L 74.732301 273.312 
L 74.732301 245.075478 
L 73.112135 245.075478 
z
" clip-path="url(#pba9966f77c)" style="fill: #1f77b4"/>
   </g>
   <g id="patch_12">
    <path d="M 74.732301 273.312 
L 76.352468 273.312 
L 76.352468 241.632 
L 74.732301 241.632 
z
" clip-path="url(#pba9966f77c)" style="fill: #1f77b4"/>
   </g>
   <g id="patch_13">
    <path d="M 76.352468 273.312 
L 77.972634 273.312 
L 77.972634 242.320696 
L 76.352468 242.320696 
z
" clip-path="url(#pba9966f77c)" style="fill: #1f77b4"/>
   </g>
   <g id="patch_14">
    <path d="M 77.972634 273.312 
L 79.592801 273.312 
L 79.592801 238.188522 
L 77.972634 238.188522 
z
" clip-path="url(#pba9966f77c)" style="fill: #1f77b4"/>
   </g>
   <g id="patch_15">
    <path d="M 79.592801 273.312 
L 81.212967 273.312 
L 81.212967 229.924174 
L 79.592801 229.924174 
z
" clip-path="url(#pba9966f77c)" style="fill: #1f77b4"/>
   </g>
   <g id="patch_16">
    <path d="M 81.212967 273.312 
L 82.833134 273.312 
L 82.833134 234.745043 
L 81.212967 234.745043 
z
" clip-path="url(#pba9966f77c)" style="fill: #1f77b4"/>
   </g>
   <g id="patch_17">
    <path d="M 82.833134 273.312 
L 84.4533 273.312 
L 84.4533 225.103304 
L 82.833134 225.103304 
z
" clip-path="url(#pba9966f77c)" style="fill: #1f77b4"/>
   </g>
   <g id="patch_18">
    <path d="M 84.4533 273.312 
L 86.073466 273.312 
L 86.073466 223.037217 
L 84.4533 223.037217 
z
" clip-path="url(#pba9966f77c)" style="fill: #1f77b4"/>
   </g>
   <g id="patch_19">
    <path d="M 86.073466 273.312 
L 87.693633 273.312 
L 87.693633 224.414609 
L 86.073466 224.414609 
z
" clip-path="url(#pba9966f77c)" style="fill: #1f77b4"/>
   </g>
   <g id="patch_20">
    <path d="M 87.693633 273.312 
L 89.313799 273.312 
L 89.313799 225.792 
L 87.693633 225.792 
z
" clip-path="url(#pba9966f77c)" style="fill: #1f77b4"/>
   </g>
   <g id="patch_21">
    <path d="M 89.313799 273.312 
L 90.933966 273.312 
L 90.933966 214.77287 
L 89.313799 214.77287 
z
" clip-path="url(#pba9966f77c)" style="fill: #1f77b4"/>
   </g>
   <g id="patch_22">
    <path d="M 90.933966 273.312 
L 92.554132 273.312 
L 92.554132 213.395478 
L 90.933966 213.395478 
z
" clip-path="url(#pba9966f77c)" style="fill: #1f77b4"/>
   </g>
   <g id="patch_23">
    <path d="M 92.554132 273.312 
L 94.174299 273.312 
L 94.174299 205.819826 
L 92.554132 205.819826 
z
" clip-path="url(#pba9966f77c)" style="fill: #1f77b4"/>
   </g>
   <g id="patch_24">
    <path d="M 94.174299 273.312 
L 95.794465 273.312 
L 95.794465 209.263304 
L 94.174299 209.263304 
z
" clip-path="url(#pba9966f77c)" style="fill: #1f77b4"/>
   </g>
   <g id="patch_25">
    <path d="M 95.794465 273.312 
L 97.414632 273.312 
L 97.414632 199.621565 
L 95.794465 199.621565 
z
" clip-path="url(#pba9966f77c)" style="fill: #1f77b4"/>
   </g>
   <g id="patch_26">
    <path d="M 97.414632 273.312 
L 99.034798 273.312 
L 99.034798 191.357217 
L 97.414632 191.357217 
z
" clip-path="url(#pba9966f77c)" style="fill: #1f77b4"/>
   </g>
   <g id="patch_27">
    <path d="M 99.034798 273.312 
L 100.654964 273.312 
L 100.654964 189.29113 
L 99.034798 189.29113 
z
" clip-path="url(#pba9966f77c)" style="fill: #1f77b4"/>
   </g>
   <g id="patch_28">
    <path d="M 100.654964 273.312 
L 102.275131 273.312 
L 102.275131 178.272 
L 100.654964 178.272 
z
" clip-path="url(#pba9966f77c)" style="fill: #1f77b4"/>
   </g>
   <g id="patch_29">
    <path d="M 102.275131 273.312 
L 103.895297 273.312 
L 103.895297 183.09287 
L 102.275131 183.09287 
z
" clip-path="url(#pba9966f77c)" style="fill: #1f77b4"/>
   </g>
   <g id="patch_30">
    <path d="M 103.895297 273.312 
L 105.515464 273.312 
L 105.515464 177.583304 
L 103.895297 177.583304 
z
" clip-path="url(#pba9966f77c)" style="fill: #1f77b4"/>
   </g>
   <g id="patch_31">
    <path d="M 105.515464 273.312 
L 107.13563 273.312 
L 107.13563 181.026783 
L 105.515464 181.026783 
z
" clip-path="url(#pba9966f77c)" style="fill: #1f77b4"/>
   </g>
   <g id="patch_32">
    <path d="M 107.13563 273.312 
L 108.755797 273.312 
L 108.755797 175.517217 
L 107.13563 175.517217 
z
" clip-path="url(#pba9966f77c)" style="fill: #1f77b4"/>
   </g>
   <g id="patch_33">
    <path d="M 108.755797 273.312 
L 110.375963 273.312 
L 110.375963 165.875478 
L 108.755797 165.875478 
z
" clip-path="url(#pba9966f77c)" style="fill: #1f77b4"/>
   </g>
   <g id="patch_34">
    <path d="M 110.375963 273.312 
L 111.99613 273.312 
L 111.99613 162.432 
L 110.375963 162.432 
z
" clip-path="url(#pba9966f77c)" style="fill: #1f77b4"/>
   </g>
   <g id="patch_35">
    <path d="M 111.99613 273.312 
L 113.616296 273.312 
L 113.616296 178.272 
L 111.99613 178.272 
z
" clip-path="url(#pba9966f77c)" style="fill: #1f77b4"/>
   </g>
   <g id="patch_36">
    <path d="M 113.616296 273.312 
L 115.236462 273.312 
L 115.236462 170.007652 
L 113.616296 170.007652 
z
" clip-path="url(#pba9966f77c)" style="fill: #1f77b4"/>
   </g>
   <g id="patch_37">
    <path d="M 115.236462 273.312 
L 116.856629 273.312 
L 116.856629 164.498087 
L 115.236462 164.498087 
z
" clip-path="url(#pba9966f77c)" style="fill: #1f77b4"/>
   </g>
   <g id="patch_38">
    <path d="M 116.856629 273.312 
L 118.476795 273.312 
L 118.476795 163.809391 
L 116.856629 163.809391 
z
" clip-path="url(#pba9966f77c)" style="fill: #1f77b4"/>
   </g>
   <g id="patch_39">
    <path d="M 118.476795 273.312 
L 120.096962 273.312 
L 120.096962 150.724174 
L 118.476795 150.724174 
z
" clip-path="url(#pba9966f77c)" style="fill: #1f77b4"/>
   </g>
   <g id="patch_40">
    <path d="M 120.096962 273.312 
L 121.717128 273.312 
L 121.717128 163.809391 
L 120.096962 163.809391 
z
" clip-path="url(#pba9966f77c)" style="fill: #1f77b4"/>
   </g>
   <g id="patch_41">
    <path d="M 121.717128 273.312 
L 123.337295 273.312 
L 123.337295 156.233739 
L 121.717128 156.233739 
z
" clip-path="url(#pba9966f77c)" style="fill: #1f77b4"/>
   </g>
   <g id="patch_42">
    <path d="M 123.337295 273.312 
L 124.957461 273.312 
L 124.957461 156.233739 
L 123.337295 156.233739 
z
" clip-path="url(#pba9966f77c)" style="fill: #1f77b4"/>
   </g>
   <g id="patch_43">
    <path d="M 124.957461 273.312 
L 126.577628 273.312 
L 126.577628 142.459826 
L 124.957461 142.459826 
z
" clip-path="url(#pba9966f77c)" style="fill: #1f77b4"/>
   </g>
   <g id="patch_44">
    <path d="M 126.577628 273.312 
L 128.197794 273.312 
L 128.197794 145.903304 
L 126.577628 145.903304 
z
" clip-path="url(#pba9966f77c)" style="fill: #1f77b4"/>
   </g>
   <g id="patch_45">
    <path d="M 128.197794 273.312 
L 129.81796 273.312 
L 129.81796 134.884174 
L 128.197794 134.884174 
z
" clip-path="url(#pba9966f77c)" style="fill: #1f77b4"/>
   </g>
   <g id="patch_46">
    <path d="M 129.81796 273.312 
L 131.438127 273.312 
L 131.438127 136.950261 
L 129.81796 136.950261 
z
" clip-path="url(#pba9966f77c)" style="fill: #1f77b4"/>
   </g>
   <g id="patch_47">
    <path d="M 131.438127 273.312 
L 133.058293 273.312 
L 133.058293 143.837217 
L 131.438127 143.837217 
z
" clip-path="url(#pba9966f77c)" style="fill: #1f77b4"/>
   </g>
   <g id="patch_48">
    <path d="M 133.058293 273.312 
L 134.67846 273.312 
L 134.67846 117.666783 
L 133.058293 117.666783 
z
" clip-path="url(#pba9966f77c)" style="fill: #1f77b4"/>
   </g>
   <g id="patch_49">
    <path d="M 134.67846 273.312 
L 136.298626 273.312 
L 136.298626 127.308522 
L 134.67846 127.308522 
z
" clip-path="url(#pba9966f77c)" style="fill: #1f77b4"/>
   </g>
   <g id="patch_50">
    <path d="M 136.298626 273.312 
L 137.918793 273.312 
L 137.918793 127.997217 
L 136.298626 127.997217 
z
" clip-path="url(#pba9966f77c)" style="fill: #1f77b4"/>
   </g>
   <g id="patch_51">
    <path d="M 137.918793 273.312 
L 139.538959 273.312 
L 139.538959 111.468522 
L 137.918793 111.468522 
z
" clip-path="url(#pba9966f77c)" style="fill: #1f77b4"/>
   </g>
   <g id="patch_52">
    <path d="M 139.538959 273.312 
L 141.159126 273.312 
L 141.159126 130.063304 
L 139.538959 130.063304 
z
" clip-path="url(#pba9966f77c)" style="fill: #1f77b4"/>
   </g>
   <g id="patch_53">
    <path d="M 141.159126 273.312 
L 142.779292 273.312 
L 142.779292 125.93113 
L 141.159126 125.93113 
z
" clip-path="url(#pba9966f77c)" style="fill: #1f77b4"/>
   </g>
   <g id="patch_54">
    <path d="M 142.779292 273.312 
L 144.399458 273.312 
L 144.399458 118.355478 
L 142.779292 118.355478 
z
" clip-path="url(#pba9966f77c)" style="fill: #1f77b4"/>
   </g>
   <g id="patch_55">
    <path d="M 144.399458 273.312 
L 146.019625 273.312 
L 146.019625 110.09113 
L 144.399458 110.09113 
z
" clip-path="url(#pba9966f77c)" style="fill: #1f77b4"/>
   </g>
   <g id="patch_56">
    <path d="M 146.019625 273.312 
L 147.639791 273.312 
L 147.639791 110.09113 
L 146.019625 110.09113 
z
" clip-path="url(#pba9966f77c)" style="fill: #1f77b4"/>
   </g>
   <g id="patch_57">
    <path d="M 147.639791 273.312 
L 149.259958 273.312 
L 149.259958 105.270261 
L 147.639791 105.270261 
z
" clip-path="url(#pba9966f77c)" style="fill: #1f77b4"/>
   </g>
   <g id="patch_58">
    <path d="M 149.259958 273.312 
L 150.880124 273.312 
L 150.880124 116.289391 
L 149.259958 116.289391 
z
" clip-path="url(#pba9966f77c)" style="fill: #1f77b4"/>
   </g>
   <g id="patch_59">
    <path d="M 150.880124 273.312 
L 152.500291 273.312 
L 152.500291 119.044174 
L 150.880124 119.044174 
z
" clip-path="url(#pba9966f77c)" style="fill: #1f77b4"/>
   </g>
   <g id="patch_60">
    <path d="M 152.500291 273.312 
L 154.120457 273.312 
L 154.120457 94.939826 
L 152.500291 94.939826 
z
" clip-path="url(#pba9966f77c)" style="fill: #1f77b4"/>
   </g>
   <g id="patch_61">
    <path d="M 154.120457 273.312 
L 155.740624 273.312 
L 155.740624 114.912 
L 154.120457 114.912 
z
" clip-path="url(#pba9966f77c)" style="fill: #1f77b4"/>
   </g>
   <g id="patch_62">
    <path d="M 155.740624 273.312 
L 157.36079 273.312 
L 157.36079 81.165913 
L 155.740624 81.165913 
z
" clip-path="url(#pba9966f77c)" style="fill: #1f77b4"/>
   </g>
   <g id="patch_63">
    <path d="M 157.36079 273.312 
L 158.980956 273.312 
L 158.980956 76.345043 
L 157.36079 76.345043 
z
" clip-path="url(#pba9966f77c)" style="fill: #1f77b4"/>
   </g>
   <g id="patch_64">
    <path d="M 158.980956 273.312 
L 160.601123 273.312 
L 160.601123 116.289391 
L 158.980956 116.289391 
z
" clip-path="url(#pba9966f77c)" style="fill: #1f77b4"/>
   </g>
   <g id="patch_65">
    <path d="M 160.601123 273.312 
L 162.221289 273.312 
L 162.221289 82.543304 
L 160.601123 82.543304 
z
" clip-path="url(#pba9966f77c)" style="fill: #1f77b4"/>
   </g>
   <g id="patch_66">
    <path d="M 162.221289 273.312 
L 163.841456 273.312 
L 163.841456 90.807652 
L 162.221289 90.807652 
z
" clip-path="url(#pba9966f77c)" style="fill: #1f77b4"/>
   </g>
   <g id="patch_67">
    <path d="M 163.841456 273.312 
L 165.461622 273.312 
L 165.461622 113.534609 
L 163.841456 113.534609 
z
" clip-path="url(#pba9966f77c)" style="fill: #1f77b4"/>
   </g>
   <g id="patch_68">
    <path d="M 165.461622 273.312 
L 167.081789 273.312 
L 167.081789 97.005913 
L 165.461622 97.005913 
z
" clip-path="url(#pba9966f77c)" style="fill: #1f77b4"/>
   </g>
   <g id="patch_69">
    <path d="M 167.081789 273.312 
L 168.701955 273.312 
L 168.701955 74.278957 
L 167.081789 74.278957 
z
" clip-path="url(#pba9966f77c)" style="fill: #1f77b4"/>
   </g>
   <g id="patch_70">
    <path d="M 168.701955 273.312 
L 170.322121 273.312 
L 170.322121 78.41113 
L 168.701955 78.41113 
z
" clip-path="url(#pba9966f77c)" style="fill: #1f77b4"/>
   </g>
   <g id="patch_71">
    <path d="M 170.322121 273.312 
L 171.942288 273.312 
L 171.942288 79.099826 
L 170.322121 79.099826 
z
" clip-path="url(#pba9966f77c)" style="fill: #1f77b4"/>
   </g>
   <g id="patch_72">
    <path d="M 171.942288 273.312 
L 173.562454 273.312 
L 173.562454 63.259826 
L 171.942288 63.259826 
z
" clip-path="url(#pba9966f77c)" style="fill: #1f77b4"/>
   </g>
   <g id="patch_73">
    <path d="M 173.562454 273.312 
L 175.182621 273.312 
L 175.182621 76.345043 
L 173.562454 76.345043 
z
" clip-path="url(#pba9966f77c)" style="fill: #1f77b4"/>
   </g>
   <g id="patch_74">
    <path d="M 175.182621 273.312 
L 176.802787 273.312 
L 176.802787 79.099826 
L 175.182621 79.099826 
z
" clip-path="url(#pba9966f77c)" style="fill: #1f77b4"/>
   </g>
   <g id="patch_75">
    <path d="M 176.802787 273.312 
L 178.422954 273.312 
L 178.422954 74.967652 
L 176.802787 74.967652 
z
" clip-path="url(#pba9966f77c)" style="fill: #1f77b4"/>
   </g>
   <g id="patch_76">
    <path d="M 178.422954 273.312 
L 180.04312 273.312 
L 180.04312 70.146783 
L 178.422954 70.146783 
z
" clip-path="url(#pba9966f77c)" style="fill: #1f77b4"/>
   </g>
   <g id="patch_77">
    <path d="M 180.04312 273.312 
L 181.663287 273.312 
L 181.663287 70.835478 
L 180.04312 70.835478 
z
" clip-path="url(#pba9966f77c)" style="fill: #1f77b4"/>
   </g>
   <g id="patch_78">
    <path d="M 181.663287 273.312 
L 183.283453 273.312 
L 183.283453 81.165913 
L 181.663287 81.165913 
z
" clip-path="url(#pba9966f77c)" style="fill: #1f77b4"/>
   </g>
   <g id="patch_79">
    <path d="M 183.283453 273.312 
L 184.903619 273.312 
L 184.903619 88.741565 
L 183.283453 88.741565 
z
" clip-path="url(#pba9966f77c)" style="fill: #1f77b4"/>
   </g>
   <g id="patch_80">
    <path d="M 184.903619 273.312 
L 186.523786 273.312 
L 186.523786 45.353739 
L 184.903619 45.353739 
z
" clip-path="url(#pba9966f77c)" style="fill: #1f77b4"/>
   </g>
   <g id="patch_81">
    <path d="M 186.523786 273.312 
L 188.143952 273.312 
L 188.143952 74.278957 
L 186.523786 74.278957 
z
" clip-path="url(#pba9966f77c)" style="fill: #1f77b4"/>
   </g>
   <g id="patch_82">
    <path d="M 188.143952 273.312 
L 189.764119 273.312 
L 189.764119 77.722435 
L 188.143952 77.722435 
z
" clip-path="url(#pba9966f77c)" style="fill: #1f77b4"/>
   </g>
   <g id="patch_83">
    <path d="M 189.764119 273.312 
L 191.384285 273.312 
L 191.384285 75.656348 
L 189.764119 75.656348 
z
" clip-path="url(#pba9966f77c)" style="fill: #1f77b4"/>
   </g>
   <g id="patch_84">
    <path d="M 191.384285 273.312 
L 193.004452 273.312 
L 193.004452 59.127652 
L 191.384285 59.127652 
z
" clip-path="url(#pba9966f77c)" style="fill: #1f77b4"/>
   </g>
   <g id="patch_85">
    <path d="M 193.004452 273.312 
L 194.624618 273.312 
L 194.624618 77.722435 
L 193.004452 77.722435 
z
" clip-path="url(#pba9966f77c)" style="fill: #1f77b4"/>
   </g>
   <g id="patch_86">
    <path d="M 194.624618 273.312 
L 196.244785 273.312 
L 196.244785 63.259826 
L 194.624618 63.259826 
z
" clip-path="url(#pba9966f77c)" style="fill: #1f77b4"/>
   </g>
   <g id="patch_87">
    <path d="M 196.244785 273.312 
L 197.864951 273.312 
L 197.864951 71.524174 
L 196.244785 71.524174 
z
" clip-path="url(#pba9966f77c)" style="fill: #1f77b4"/>
   </g>
   <g id="patch_88">
    <path d="M 197.864951 273.312 
L 199.485117 273.312 
L 199.485117 79.099826 
L 197.864951 79.099826 
z
" clip-path="url(#pba9966f77c)" style="fill: #1f77b4"/>
   </g>
   <g id="patch_89">
    <path d="M 199.485117 273.312 
L 201.105284 273.312 
L 201.105284 78.41113 
L 199.485117 78.41113 
z
" clip-path="url(#pba9966f77c)" style="fill: #1f77b4"/>
   </g>
   <g id="patch_90">
    <path d="M 201.105284 273.312 
L 202.72545 273.312 
L 202.72545 53.618087 
L 201.105284 53.618087 
z
" clip-path="url(#pba9966f77c)" style="fill: #1f77b4"/>
   </g>
   <g id="patch_91">
    <path d="M 202.72545 273.312 
L 204.345617 273.312 
L 204.345617 50.863304 
L 202.72545 50.863304 
z
" clip-path="url(#pba9966f77c)" style="fill: #1f77b4"/>
   </g>
   <g id="patch_92">
    <path d="M 204.345617 273.312 
L 205.965783 273.312 
L 205.965783 63.948522 
L 204.345617 63.948522 
z
" clip-path="url(#pba9966f77c)" style="fill: #1f77b4"/>
   </g>
   <g id="patch_93">
    <path d="M 205.965783 273.312 
L 207.58595 273.312 
L 207.58595 57.750261 
L 205.965783 57.750261 
z
" clip-path="url(#pba9966f77c)" style="fill: #1f77b4"/>
   </g>
   <g id="patch_94">
    <path d="M 207.58595 273.312 
L 209.206116 273.312 
L 209.206116 57.061565 
L 207.58595 57.061565 
z
" clip-path="url(#pba9966f77c)" style="fill: #1f77b4"/>
   </g>
   <g id="patch_95">
    <path d="M 209.206116 273.312 
L 210.826283 273.312 
L 210.826283 68.080696 
L 209.206116 68.080696 
z
" clip-path="url(#pba9966f77c)" style="fill: #1f77b4"/>
   </g>
   <g id="patch_96">
    <path d="M 210.826283 273.312 
L 212.446449 273.312 
L 212.446449 66.703304 
L 210.826283 66.703304 
z
" clip-path="url(#pba9966f77c)" style="fill: #1f77b4"/>
   </g>
   <g id="patch_97">
    <path d="M 212.446449 273.312 
L 214.066615 273.312 
L 214.066615 74.278957 
L 212.446449 74.278957 
z
" clip-path="url(#pba9966f77c)" style="fill: #1f77b4"/>
   </g>
   <g id="patch_98">
    <path d="M 214.066615 273.312 
L 215.686782 273.312 
L 215.686782 44.665043 
L 214.066615 44.665043 
z
" clip-path="url(#pba9966f77c)" style="fill: #1f77b4"/>
   </g>
   <g id="patch_99">
    <path d="M 215.686782 273.312 
L 217.306948 273.312 
L 217.306948 48.797217 
L 215.686782 48.797217 
z
" clip-path="url(#pba9966f77c)" style="fill: #1f77b4"/>
   </g>
   <g id="patch_100">
    <path d="M 217.306948 273.312 
L 218.927115 273.312 
L 218.927115 54.995478 
L 217.306948 54.995478 
z
" clip-path="url(#pba9966f77c)" style="fill: #1f77b4"/>
   </g>
   <g id="patch_101">
    <path d="M 218.927115 273.312 
L 220.547281 273.312 
L 220.547281 41.221565 
L 218.927115 41.221565 
z
" clip-path="url(#pba9966f77c)" style="fill: #1f77b4"/>
   </g>
   <g id="patch_102">
    <path d="M 220.547281 273.312 
L 222.167448 273.312 
L 222.167448 62.57113 
L 220.547281 62.57113 
z
" clip-path="url(#pba9966f77c)" style="fill: #1f77b4"/>
   </g>
   <g id="patch_103">
    <path d="M 222.167448 273.312 
L 223.787614 273.312 
L 223.787614 44.665043 
L 222.167448 44.665043 
z
" clip-path="url(#pba9966f77c)" style="fill: #1f77b4"/>
   </g>
   <g id="patch_104">
    <path d="M 223.787614 273.312 
L 225.407781 273.312 
L 225.407781 48.797217 
L 223.787614 48.797217 
z
" clip-path="url(#pba9966f77c)" style="fill: #1f77b4"/>
   </g>
   <g id="patch_105">
    <path d="M 225.407781 273.312 
L 227.027947 273.312 
L 227.027947 56.37287 
L 225.407781 56.37287 
z
" clip-path="url(#pba9966f77c)" style="fill: #1f77b4"/>
   </g>
   <g id="patch_106">
    <path d="M 227.027947 273.312 
L 228.648113 273.312 
L 228.648113 61.193739 
L 227.027947 61.193739 
z
" clip-path="url(#pba9966f77c)" style="fill: #1f77b4"/>
   </g>
   <g id="patch_107">
    <path d="M 228.648113 273.312 
L 230.26828 273.312 
L 230.26828 49.485913 
L 228.648113 49.485913 
z
" clip-path="url(#pba9966f77c)" style="fill: #1f77b4"/>
   </g>
   <g id="patch_108">
    <path d="M 230.26828 273.312 
L 231.888446 273.312 
L 231.888446 77.033739 
L 230.26828 77.033739 
z
" clip-path="url(#pba9966f77c)" style="fill: #1f77b4"/>
   </g>
   <g id="patch_109">
    <path d="M 231.888446 273.312 
L 233.508613 273.312 
L 233.508613 79.099826 
L 231.888446 79.099826 
z
" clip-path="url(#pba9966f77c)" style="fill: #1f77b4"/>
   </g>
   <g id="patch_110">
    <path d="M 233.508613 273.312 
L 235.128779 273.312 
L 235.128779 19.872 
L 233.508613 19.872 
z
" clip-path="url(#pba9966f77c)" style="fill: #1f77b4"/>
   </g>
   <g id="patch_111">
    <path d="M 235.128779 273.312 
L 236.748946 273.312 
L 236.748946 48.108522 
L 235.128779 48.108522 
z
" clip-path="url(#pba9966f77c)" style="fill: #1f77b4"/>
   </g>
   <g id="patch_112">
    <path d="M 236.748946 273.312 
L 238.369112 273.312 
L 238.369112 61.193739 
L 236.748946 61.193739 
z
" clip-path="url(#pba9966f77c)" style="fill: #1f77b4"/>
   </g>
   <g id="patch_113">
    <path d="M 238.369112 273.312 
L 239.989279 273.312 
L 239.989279 72.21287 
L 238.369112 72.21287 
z
" clip-path="url(#pba9966f77c)" style="fill: #1f77b4"/>
   </g>
   <g id="patch_114">
    <path d="M 239.989279 273.312 
L 241.609445 273.312 
L 241.609445 56.37287 
L 239.989279 56.37287 
z
" clip-path="url(#pba9966f77c)" style="fill: #1f77b4"/>
   </g>
   <g id="patch_115">
    <path d="M 241.609445 273.312 
L 243.229611 273.312 
L 243.229611 48.797217 
L 241.609445 48.797217 
z
" clip-path="url(#pba9966f77c)" style="fill: #1f77b4"/>
   </g>
   <g id="patch_116">
    <path d="M 243.229611 273.312 
L 244.849778 273.312 
L 244.849778 61.193739 
L 243.229611 61.193739 
z
" clip-path="url(#pba9966f77c)" style="fill: #1f77b4"/>
   </g>
   <g id="patch_117">
    <path d="M 244.849778 273.312 
L 246.469944 273.312 
L 246.469944 56.37287 
L 244.849778 56.37287 
z
" clip-path="url(#pba9966f77c)" style="fill: #1f77b4"/>
   </g>
   <g id="patch_118">
    <path d="M 246.469944 273.312 
L 248.090111 273.312 
L 248.090111 77.033739 
L 246.469944 77.033739 
z
" clip-path="url(#pba9966f77c)" style="fill: #1f77b4"/>
   </g>
   <g id="patch_119">
    <path d="M 248.090111 273.312 
L 249.710277 273.312 
L 249.710277 57.750261 
L 248.090111 57.750261 
z
" clip-path="url(#pba9966f77c)" style="fill: #1f77b4"/>
   </g>
   <g id="patch_120">
    <path d="M 249.710277 273.312 
L 251.330444 273.312 
L 251.330444 71.524174 
L 249.710277 71.524174 
z
" clip-path="url(#pba9966f77c)" style="fill: #1f77b4"/>
   </g>
   <g id="patch_121">
    <path d="M 251.330444 273.312 
L 252.95061 273.312 
L 252.95061 66.703304 
L 251.330444 66.703304 
z
" clip-path="url(#pba9966f77c)" style="fill: #1f77b4"/>
   </g>
   <g id="patch_122">
    <path d="M 252.95061 273.312 
L 254.570777 273.312 
L 254.570777 42.598957 
L 252.95061 42.598957 
z
" clip-path="url(#pba9966f77c)" style="fill: #1f77b4"/>
   </g>
   <g id="patch_123">
    <path d="M 254.570777 273.312 
L 256.190943 273.312 
L 256.190943 81.854609 
L 254.570777 81.854609 
z
" clip-path="url(#pba9966f77c)" style="fill: #1f77b4"/>
   </g>
   <g id="patch_124">
    <path d="M 256.190943 273.312 
L 257.811109 273.312 
L 257.811109 76.345043 
L 256.190943 76.345043 
z
" clip-path="url(#pba9966f77c)" style="fill: #1f77b4"/>
   </g>
   <g id="patch_125">
    <path d="M 257.811109 273.312 
L 259.431276 273.312 
L 259.431276 75.656348 
L 257.811109 75.656348 
z
" clip-path="url(#pba9966f77c)" style="fill: #1f77b4"/>
   </g>
   <g id="patch_126">
    <path d="M 259.431276 273.312 
L 261.051442 273.312 
L 261.051442 76.345043 
L 259.431276 76.345043 
z
" clip-path="url(#pba9966f77c)" style="fill: #1f77b4"/>
   </g>
   <g id="patch_127">
    <path d="M 261.051442 273.312 
L 262.671609 273.312 
L 262.671609 72.21287 
L 261.051442 72.21287 
z
" clip-path="url(#pba9966f77c)" style="fill: #1f77b4"/>
   </g>
   <g id="patch_128">
    <path d="M 262.671609 273.312 
L 264.291775 273.312 
L 264.291775 81.165913 
L 262.671609 81.165913 
z
" clip-path="url(#pba9966f77c)" style="fill: #1f77b4"/>
   </g>
   <g id="patch_129">
    <path d="M 264.291775 273.312 
L 265.911942 273.312 
L 265.911942 61.193739 
L 264.291775 61.193739 
z
" clip-path="url(#pba9966f77c)" style="fill: #1f77b4"/>
   </g>
   <g id="patch_130">
    <path d="M 265.911942 273.312 
L 267.532108 273.312 
L 267.532108 75.656348 
L 265.911942 75.656348 
z
" clip-path="url(#pba9966f77c)" style="fill: #1f77b4"/>
   </g>
   <g id="patch_131">
    <path d="M 267.532108 273.312 
L 269.152275 273.312 
L 269.152275 77.033739 
L 267.532108 77.033739 
z
" clip-path="url(#pba9966f77c)" style="fill: #1f77b4"/>
   </g>
   <g id="patch_132">
    <path d="M 269.152275 273.312 
L 270.772441 273.312 
L 270.772441 57.061565 
L 269.152275 57.061565 
z
" clip-path="url(#pba9966f77c)" style="fill: #1f77b4"/>
   </g>
   <g id="patch_133">
    <path d="M 270.772441 273.312 
L 272.392607 273.312 
L 272.392607 90.807652 
L 270.772441 90.807652 
z
" clip-path="url(#pba9966f77c)" style="fill: #1f77b4"/>
   </g>
   <g id="patch_134">
    <path d="M 272.392607 273.312 
L 274.012774 273.312 
L 274.012774 83.232 
L 272.392607 83.232 
z
" clip-path="url(#pba9966f77c)" style="fill: #1f77b4"/>
   </g>
   <g id="patch_135">
    <path d="M 274.012774 273.312 
L 275.63294 273.312 
L 275.63294 85.298087 
L 274.012774 85.298087 
z
" clip-path="url(#pba9966f77c)" style="fill: #1f77b4"/>
   </g>
   <g id="patch_136">
    <path d="M 275.63294 273.312 
L 277.253107 273.312 
L 277.253107 90.118957 
L 275.63294 90.118957 
z
" clip-path="url(#pba9966f77c)" style="fill: #1f77b4"/>
   </g>
   <g id="patch_137">
    <path d="M 277.253107 273.312 
L 278.873273 273.312 
L 278.873273 95.628522 
L 277.253107 95.628522 
z
" clip-path="url(#pba9966f77c)" style="fill: #1f77b4"/>
   </g>
   <g id="patch_138">
    <path d="M 278.873273 273.312 
L 280.49344 273.312 
L 280.49344 89.430261 
L 278.873273 89.430261 
z
" clip-path="url(#pba9966f77c)" style="fill: #1f77b4"/>
   </g>
   <g id="patch_139">
    <path d="M 280.49344 273.312 
L 282.113606 273.312 
L 282.113606 92.185043 
L 280.49344 92.185043 
z
" clip-path="url(#pba9966f77c)" style="fill: #1f77b4"/>
   </g>
   <g id="patch_140">
    <path d="M 282.113606 273.312 
L 283.733773 273.312 
L 283.733773 99.760696 
L 282.113606 99.760696 
z
" clip-path="url(#pba9966f77c)" style="fill: #1f77b4"/>
   </g>
   <g id="patch_141">
    <path d="M 283.733773 273.312 
L 285.353939 273.312 
L 285.353939 85.298087 
L 283.733773 85.298087 
z
" clip-path="url(#pba9966f77c)" style="fill: #1f77b4"/>
   </g>
   <g id="patch_142">
    <path d="M 285.353939 273.312 
L 286.974105 273.312 
L 286.974105 89.430261 
L 285.353939 89.430261 
z
" clip-path="url(#pba9966f77c)" style="fill: #1f77b4"/>
   </g>
   <g id="patch_143">
    <path d="M 286.974105 273.312 
L 288.594272 273.312 
L 288.594272 81.854609 
L 286.974105 81.854609 
z
" clip-path="url(#pba9966f77c)" style="fill: #1f77b4"/>
   </g>
   <g id="patch_144">
    <path d="M 288.594272 273.312 
L 290.214438 273.312 
L 290.214438 109.402435 
L 288.594272 109.402435 
z
" clip-path="url(#pba9966f77c)" style="fill: #1f77b4"/>
   </g>
   <g id="patch_145">
    <path d="M 290.214438 273.312 
L 291.834605 273.312 
L 291.834605 100.449391 
L 290.214438 100.449391 
z
" clip-path="url(#pba9966f77c)" style="fill: #1f77b4"/>
   </g>
   <g id="patch_146">
    <path d="M 291.834605 273.312 
L 293.454771 273.312 
L 293.454771 107.336348 
L 291.834605 107.336348 
z
" clip-path="url(#pba9966f77c)" style="fill: #1f77b4"/>
   </g>
   <g id="patch_147">
    <path d="M 293.454771 273.312 
L 295.074938 273.312 
L 295.074938 96.317217 
L 293.454771 96.317217 
z
" clip-path="url(#pba9966f77c)" style="fill: #1f77b4"/>
   </g>
   <g id="patch_148">
    <path d="M 295.074938 273.312 
L 296.695104 273.312 
L 296.695104 116.978087 
L 295.074938 116.978087 
z
" clip-path="url(#pba9966f77c)" style="fill: #1f77b4"/>
   </g>
   <g id="patch_149">
    <path d="M 296.695104 273.312 
L 298.315271 273.312 
L 298.315271 92.873739 
L 296.695104 92.873739 
z
" clip-path="url(#pba9966f77c)" style="fill: #1f77b4"/>
   </g>
   <g id="patch_150">
    <path d="M 298.315271 273.312 
L 299.935437 273.312 
L 299.935437 121.110261 
L 298.315271 121.110261 
z
" clip-path="url(#pba9966f77c)" style="fill: #1f77b4"/>
   </g>
   <g id="patch_151">
    <path d="M 299.935437 273.312 
L 301.555603 273.312 
L 301.555603 123.176348 
L 299.935437 123.176348 
z
" clip-path="url(#pba9966f77c)" style="fill: #1f77b4"/>
   </g>
   <g id="patch_152">
    <path d="M 301.555603 273.312 
L 303.17577 273.312 
L 303.17577 121.110261 
L 301.555603 121.110261 
z
" clip-path="url(#pba9966f77c)" style="fill: #1f77b4"/>
   </g>
   <g id="patch_153">
    <path d="M 303.17577 273.312 
L 304.795936 273.312 
L 304.795936 112.157217 
L 303.17577 112.157217 
z
" clip-path="url(#pba9966f77c)" style="fill: #1f77b4"/>
   </g>
   <g id="patch_154">
    <path d="M 304.795936 273.312 
L 306.416103 273.312 
L 306.416103 126.619826 
L 304.795936 126.619826 
z
" clip-path="url(#pba9966f77c)" style="fill: #1f77b4"/>
   </g>
   <g id="patch_155">
    <path d="M 306.416103 273.312 
L 308.036269 273.312 
L 308.036269 137.638957 
L 306.416103 137.638957 
z
" clip-path="url(#pba9966f77c)" style="fill: #1f77b4"/>
   </g>
   <g id="patch_156">
    <path d="M 308.036269 273.312 
L 309.656436 273.312 
L 309.656436 110.779826 
L 308.036269 110.779826 
z
" clip-path="url(#pba9966f77c)" style="fill: #1f77b4"/>
   </g>
   <g id="patch_157">
    <path d="M 309.656436 273.312 
L 311.276602 273.312 
L 311.276602 127.997217 
L 309.656436 127.997217 
z
" clip-path="url(#pba9966f77c)" style="fill: #1f77b4"/>
   </g>
   <g id="patch_158">
    <path d="M 311.276602 273.312 
L 312.896769 273.312 
L 312.896769 136.261565 
L 311.276602 136.261565 
z
" clip-path="url(#pba9966f77c)" style="fill: #1f77b4"/>
   </g>
   <g id="patch_159">
    <path d="M 312.896769 273.312 
L 314.516935 273.312 
L 314.516935 143.837217 
L 312.896769 143.837217 
z
" clip-path="url(#pba9966f77c)" style="fill: #1f77b4"/>
   </g>
   <g id="patch_160">
    <path d="M 314.516935 273.312 
L 316.137101 273.312 
L 316.137101 148.658087 
L 314.516935 148.658087 
z
" clip-path="url(#pba9966f77c)" style="fill: #1f77b4"/>
   </g>
   <g id="patch_161">
    <path d="M 316.137101 273.312 
L 317.757268 273.312 
L 317.757268 125.242435 
L 316.137101 125.242435 
z
" clip-path="url(#pba9966f77c)" style="fill: #1f77b4"/>
   </g>
   <g id="patch_162">
    <path d="M 317.757268 273.312 
L 319.377434 273.312 
L 319.377434 125.242435 
L 317.757268 125.242435 
z
" clip-path="url(#pba9966f77c)" style="fill: #1f77b4"/>
   </g>
   <g id="patch_163">
    <path d="M 319.377434 273.312 
L 320.997601 273.312 
L 320.997601 138.327652 
L 319.377434 138.327652 
z
" clip-path="url(#pba9966f77c)" style="fill: #1f77b4"/>
   </g>
   <g id="patch_164">
    <path d="M 320.997601 273.312 
L 322.617767 273.312 
L 322.617767 153.478957 
L 320.997601 153.478957 
z
" clip-path="url(#pba9966f77c)" style="fill: #1f77b4"/>
   </g>
   <g id="patch_165">
    <path d="M 322.617767 273.312 
L 324.237934 273.312 
L 324.237934 170.007652 
L 322.617767 170.007652 
z
" clip-path="url(#pba9966f77c)" style="fill: #1f77b4"/>
   </g>
   <g id="patch_166">
    <path d="M 324.237934 273.312 
L 325.8581 273.312 
L 325.8581 165.186783 
L 324.237934 165.186783 
z
" clip-path="url(#pba9966f77c)" style="fill: #1f77b4"/>
   </g>
   <g id="patch_167">
    <path d="M 325.8581 273.312 
L 327.478267 273.312 
L 327.478267 160.365913 
L 325.8581 160.365913 
z
" clip-path="url(#pba9966f77c)" style="fill: #1f77b4"/>
   </g>
   <g id="patch_168">
    <path d="M 327.478267 273.312 
L 329.098433 273.312 
L 329.098433 159.677217 
L 327.478267 159.677217 
z
" clip-path="url(#pba9966f77c)" style="fill: #1f77b4"/>
   </g>
   <g id="patch_169">
    <path d="M 329.098433 273.312 
L 330.718599 273.312 
L 330.718599 161.054609 
L 329.098433 161.054609 
z
" clip-path="url(#pba9966f77c)" style="fill: #1f77b4"/>
   </g>
   <g id="patch_170">
    <path d="M 330.718599 273.312 
L 332.338766 273.312 
L 332.338766 171.385043 
L 330.718599 171.385043 
z
" clip-path="url(#pba9966f77c)" style="fill: #1f77b4"/>
   </g>
   <g id="patch_171">
    <path d="M 332.338766 273.312 
L 333.958932 273.312 
L 333.958932 165.186783 
L 332.338766 165.186783 
z
" clip-path="url(#pba9966f77c)" style="fill: #1f77b4"/>
   </g>
   <g id="patch_172">
    <path d="M 333.958932 273.312 
L 335.579099 273.312 
L 335.579099 174.139826 
L 333.958932 174.139826 
z
" clip-path="url(#pba9966f77c)" style="fill: #1f77b4"/>
   </g>
   <g id="patch_173">
    <path d="M 335.579099 273.312 
L 337.199265 273.312 
L 337.199265 172.073739 
L 335.579099 172.073739 
z
" clip-path="url(#pba9966f77c)" style="fill: #1f77b4"/>
   </g>
   <g id="patch_174">
    <path d="M 337.199265 273.312 
L 338.819432 273.312 
L 338.819432 196.178087 
L 337.199265 196.178087 
z
" clip-path="url(#pba9966f77c)" style="fill: #1f77b4"/>
   </g>
   <g id="patch_175">
    <path d="M 338.819432 273.312 
L 340.439598 273.312 
L 340.439598 180.338087 
L 338.819432 180.338087 
z
" clip-path="url(#pba9966f77c)" style="fill: #1f77b4"/>
   </g>
   <g id="patch_176">
    <path d="M 340.439598 273.312 
L 342.059764 273.312 
L 342.059764 181.026783 
L 340.439598 181.026783 
z
" clip-path="url(#pba9966f77c)" style="fill: #1f77b4"/>
   </g>
   <g id="patch_177">
    <path d="M 342.059764 273.312 
L 343.679931 273.312 
L 343.679931 186.536348 
L 342.059764 186.536348 
z
" clip-path="url(#pba9966f77c)" style="fill: #1f77b4"/>
   </g>
   <g id="patch_178">
    <path d="M 343.679931 273.312 
L 345.300097 273.312 
L 345.300097 192.045913 
L 343.679931 192.045913 
z
" clip-path="url(#pba9966f77c)" style="fill: #1f77b4"/>
   </g>
   <g id="patch_179">
    <path d="M 345.300097 273.312 
L 346.920264 273.312 
L 346.920264 194.800696 
L 345.300097 194.800696 
z
" clip-path="url(#pba9966f77c)" style="fill: #1f77b4"/>
   </g>
   <g id="patch_180">
    <path d="M 346.920264 273.312 
L 348.54043 273.312 
L 348.54043 191.357217 
L 346.920264 191.357217 
z
" clip-path="url(#pba9966f77c)" style="fill: #1f77b4"/>
   </g>
   <g id="patch_181">
    <path d="M 348.54043 273.312 
L 350.160597 273.312 
L 350.160597 195.489391 
L 348.54043 195.489391 
z
" clip-path="url(#pba9966f77c)" style="fill: #1f77b4"/>
   </g>
   <g id="patch_182">
    <path d="M 350.160597 273.312 
L 351.780763 273.312 
L 351.780763 207.197217 
L 350.160597 207.197217 
z
" clip-path="url(#pba9966f77c)" style="fill: #1f77b4"/>
   </g>
   <g id="patch_183">
    <path d="M 351.780763 273.312 
L 353.40093 273.312 
L 353.40093 207.197217 
L 351.780763 207.197217 
z
" clip-path="url(#pba9966f77c)" style="fill: #1f77b4"/>
   </g>
   <g id="patch_184">
    <path d="M 353.40093 273.312 
L 355.021096 273.312 
L 355.021096 214.084174 
L 353.40093 214.084174 
z
" clip-path="url(#pba9966f77c)" style="fill: #1f77b4"/>
   </g>
   <g id="patch_185">
    <path d="M 355.021096 273.312 
L 356.641262 273.312 
L 356.641262 218.216348 
L 355.021096 218.216348 
z
" clip-path="url(#pba9966f77c)" style="fill: #1f77b4"/>
   </g>
   <g id="patch_186">
    <path d="M 356.641262 273.312 
L 358.261429 273.312 
L 358.261429 219.593739 
L 356.641262 219.593739 
z
" clip-path="url(#pba9966f77c)" style="fill: #1f77b4"/>
   </g>
   <g id="patch_187">
    <path d="M 358.261429 273.312 
L 359.881595 273.312 
L 359.881595 224.414609 
L 358.261429 224.414609 
z
" clip-path="url(#pba9966f77c)" style="fill: #1f77b4"/>
   </g>
   <g id="patch_188">
    <path d="M 359.881595 273.312 
L 361.501762 273.312 
L 361.501762 221.659826 
L 359.881595 221.659826 
z
" clip-path="url(#pba9966f77c)" style="fill: #1f77b4"/>
   </g>
   <g id="patch_189">
    <path d="M 361.501762 273.312 
L 363.121928 273.312 
L 363.121928 225.792 
L 361.501762 225.792 
z
" clip-path="url(#pba9966f77c)" style="fill: #1f77b4"/>
   </g>
   <g id="patch_190">
    <path d="M 363.121928 273.312 
L 364.742095 273.312 
L 364.742095 225.103304 
L 363.121928 225.103304 
z
" clip-path="url(#pba9966f77c)" style="fill: #1f77b4"/>
   </g>
   <g id="patch_191">
    <path d="M 364.742095 273.312 
L 366.362261 273.312 
L 366.362261 233.367652 
L 364.742095 233.367652 
z
" clip-path="url(#pba9966f77c)" style="fill: #1f77b4"/>
   </g>
   <g id="patch_192">
    <path d="M 366.362261 273.312 
L 367.982428 273.312 
L 367.982428 233.367652 
L 366.362261 233.367652 
z
" clip-path="url(#pba9966f77c)" style="fill: #1f77b4"/>
   </g>
   <g id="patch_193">
    <path d="M 367.982428 273.312 
L 369.602594 273.312 
L 369.602594 239.565913 
L 367.982428 239.565913 
z
" clip-path="url(#pba9966f77c)" style="fill: #1f77b4"/>
   </g>
   <g id="patch_194">
    <path d="M 369.602594 273.312 
L 371.22276 273.312 
L 371.22276 251.962435 
L 369.602594 251.962435 
z
" clip-path="url(#pba9966f77c)" style="fill: #1f77b4"/>
   </g>
   <g id="patch_195">
    <path d="M 371.22276 273.312 
L 372.842927 273.312 
L 372.842927 251.962435 
L 371.22276 251.962435 
z
" clip-path="url(#pba9966f77c)" style="fill: #1f77b4"/>
   </g>
   <g id="patch_196">
    <path d="M 372.842927 273.312 
L 374.463093 273.312 
L 374.463093 256.094609 
L 372.842927 256.094609 
z
" clip-path="url(#pba9966f77c)" style="fill: #1f77b4"/>
   </g>
   <g id="patch_197">
    <path d="M 374.463093 273.312 
L 376.08326 273.312 
L 376.08326 253.339826 
L 374.463093 253.339826 
z
" clip-path="url(#pba9966f77c)" style="fill: #1f77b4"/>
   </g>
   <g id="patch_198">
    <path d="M 376.08326 273.312 
L 377.703426 273.312 
L 377.703426 259.538087 
L 376.08326 259.538087 
z
" clip-path="url(#pba9966f77c)" style="fill: #1f77b4"/>
   </g>
   <g id="patch_199">
    <path d="M 377.703426 273.312 
L 379.323593 273.312 
L 379.323593 267.802435 
L 377.703426 267.802435 
z
" clip-path="url(#pba9966f77c)" style="fill: #1f77b4"/>
   </g>
   <g id="patch_200">
    <path d="M 379.323593 273.312 
L 380.943759 273.312 
L 380.943759 261.604174 
L 379.323593 261.604174 
z
" clip-path="url(#pba9966f77c)" style="fill: #1f77b4"/>
   </g>
   <g id="patch_201">
    <path d="M 380.943759 273.312 
L 382.563926 273.312 
L 382.563926 266.425043 
L 380.943759 266.425043 
z
" clip-path="url(#pba9966f77c)" style="fill: #1f77b4"/>
   </g>
   <g id="patch_202">
    <path d="M 382.563926 273.312 
L 384.184092 273.312 
L 384.184092 270.557217 
L 382.563926 270.557217 
z
" clip-path="url(#pba9966f77c)" style="fill: #1f77b4"/>
   </g>
   <g id="matplotlib.axis_1">
    <g id="xtick_1">
     <g id="line2d_1">
      <defs>
       <path id="m90e453be8d" d="M 0 0 
L 0 3.5 
" style="stroke: #000000; stroke-width: 0.8"/>
      </defs>
      <g>
       <use xlink:href="#m90e453be8d" x="60.013977" y="273.312" style="stroke: #000000; stroke-width: 0.8"/>
      </g>
     </g>
     <g id="text_1">
      <!-- 0.0 -->
      <g transform="translate(52.062415 287.910437)scale(0.1 -0.1)">
       <defs>
        <path id="DejaVuSans-30" d="M 2034 4250 
Q 1547 4250 1301 3770 
Q 1056 3291 1056 2328 
Q 1056 1369 1301 889 
Q 1547 409 2034 409 
Q 2525 409 2770 889 
Q 3016 1369 3016 2328 
Q 3016 3291 2770 3770 
Q 2525 4250 2034 4250 
z
M 2034 4750 
Q 2819 4750 3233 4129 
Q 3647 3509 3647 2328 
Q 3647 1150 3233 529 
Q 2819 -91 2034 -91 
Q 1250 -91 836 529 
Q 422 1150 422 2328 
Q 422 3509 836 4129 
Q 1250 4750 2034 4750 
z
" transform="scale(0.015625)"/>
        <path id="DejaVuSans-2e" d="M 684 794 
L 1344 794 
L 1344 0 
L 684 0 
L 684 794 
z
" transform="scale(0.015625)"/>
       </defs>
       <use xlink:href="#DejaVuSans-30"/>
       <use xlink:href="#DejaVuSans-2e" x="63.623047"/>
       <use xlink:href="#DejaVuSans-30" x="95.410156"/>
      </g>
     </g>
    </g>
    <g id="xtick_2">
     <g id="line2d_2">
      <g>
       <use xlink:href="#m90e453be8d" x="101.350278" y="273.312" style="stroke: #000000; stroke-width: 0.8"/>
      </g>
     </g>
     <g id="text_2">
      <!-- 0.2 -->
      <g transform="translate(93.398715 287.910437)scale(0.1 -0.1)">
       <defs>
        <path id="DejaVuSans-32" d="M 1228 531 
L 3431 531 
L 3431 0 
L 469 0 
L 469 531 
Q 828 903 1448 1529 
Q 2069 2156 2228 2338 
Q 2531 2678 2651 2914 
Q 2772 3150 2772 3378 
Q 2772 3750 2511 3984 
Q 2250 4219 1831 4219 
Q 1534 4219 1204 4116 
Q 875 4013 500 3803 
L 500 4441 
Q 881 4594 1212 4672 
Q 1544 4750 1819 4750 
Q 2544 4750 2975 4387 
Q 3406 4025 3406 3419 
Q 3406 3131 3298 2873 
Q 3191 2616 2906 2266 
Q 2828 2175 2409 1742 
Q 1991 1309 1228 531 
z
" transform="scale(0.015625)"/>
       </defs>
       <use xlink:href="#DejaVuSans-30"/>
       <use xlink:href="#DejaVuSans-2e" x="63.623047"/>
       <use xlink:href="#DejaVuSans-32" x="95.410156"/>
      </g>
     </g>
    </g>
    <g id="xtick_3">
     <g id="line2d_3">
      <g>
       <use xlink:href="#m90e453be8d" x="142.686578" y="273.312" style="stroke: #000000; stroke-width: 0.8"/>
      </g>
     </g>
     <g id="text_3">
      <!-- 0.4 -->
      <g transform="translate(134.735016 287.910437)scale(0.1 -0.1)">
       <defs>
        <path id="DejaVuSans-34" d="M 2419 4116 
L 825 1625 
L 2419 1625 
L 2419 4116 
z
M 2253 4666 
L 3047 4666 
L 3047 1625 
L 3713 1625 
L 3713 1100 
L 3047 1100 
L 3047 0 
L 2419 0 
L 2419 1100 
L 313 1100 
L 313 1709 
L 2253 4666 
z
" transform="scale(0.015625)"/>
       </defs>
       <use xlink:href="#DejaVuSans-30"/>
       <use xlink:href="#DejaVuSans-2e" x="63.623047"/>
       <use xlink:href="#DejaVuSans-34" x="95.410156"/>
      </g>
     </g>
    </g>
    <g id="xtick_4">
     <g id="line2d_4">
      <g>
       <use xlink:href="#m90e453be8d" x="184.022879" y="273.312" style="stroke: #000000; stroke-width: 0.8"/>
      </g>
     </g>
     <g id="text_4">
      <!-- 0.6 -->
      <g transform="translate(176.071316 287.910437)scale(0.1 -0.1)">
       <defs>
        <path id="DejaVuSans-36" d="M 2113 2584 
Q 1688 2584 1439 2293 
Q 1191 2003 1191 1497 
Q 1191 994 1439 701 
Q 1688 409 2113 409 
Q 2538 409 2786 701 
Q 3034 994 3034 1497 
Q 3034 2003 2786 2293 
Q 2538 2584 2113 2584 
z
M 3366 4563 
L 3366 3988 
Q 3128 4100 2886 4159 
Q 2644 4219 2406 4219 
Q 1781 4219 1451 3797 
Q 1122 3375 1075 2522 
Q 1259 2794 1537 2939 
Q 1816 3084 2150 3084 
Q 2853 3084 3261 2657 
Q 3669 2231 3669 1497 
Q 3669 778 3244 343 
Q 2819 -91 2113 -91 
Q 1303 -91 875 529 
Q 447 1150 447 2328 
Q 447 3434 972 4092 
Q 1497 4750 2381 4750 
Q 2619 4750 2861 4703 
Q 3103 4656 3366 4563 
z
" transform="scale(0.015625)"/>
       </defs>
       <use xlink:href="#DejaVuSans-30"/>
       <use xlink:href="#DejaVuSans-2e" x="63.623047"/>
       <use xlink:href="#DejaVuSans-36" x="95.410156"/>
      </g>
     </g>
    </g>
    <g id="xtick_5">
     <g id="line2d_5">
      <g>
       <use xlink:href="#m90e453be8d" x="225.35918" y="273.312" style="stroke: #000000; stroke-width: 0.8"/>
      </g>
     </g>
     <g id="text_5">
      <!-- 0.8 -->
      <g transform="translate(217.407617 287.910437)scale(0.1 -0.1)">
       <defs>
        <path id="DejaVuSans-38" d="M 2034 2216 
Q 1584 2216 1326 1975 
Q 1069 1734 1069 1313 
Q 1069 891 1326 650 
Q 1584 409 2034 409 
Q 2484 409 2743 651 
Q 3003 894 3003 1313 
Q 3003 1734 2745 1975 
Q 2488 2216 2034 2216 
z
M 1403 2484 
Q 997 2584 770 2862 
Q 544 3141 544 3541 
Q 544 4100 942 4425 
Q 1341 4750 2034 4750 
Q 2731 4750 3128 4425 
Q 3525 4100 3525 3541 
Q 3525 3141 3298 2862 
Q 3072 2584 2669 2484 
Q 3125 2378 3379 2068 
Q 3634 1759 3634 1313 
Q 3634 634 3220 271 
Q 2806 -91 2034 -91 
Q 1263 -91 848 271 
Q 434 634 434 1313 
Q 434 1759 690 2068 
Q 947 2378 1403 2484 
z
M 1172 3481 
Q 1172 3119 1398 2916 
Q 1625 2713 2034 2713 
Q 2441 2713 2670 2916 
Q 2900 3119 2900 3481 
Q 2900 3844 2670 4047 
Q 2441 4250 2034 4250 
Q 1625 4250 1398 4047 
Q 1172 3844 1172 3481 
z
" transform="scale(0.015625)"/>
       </defs>
       <use xlink:href="#DejaVuSans-30"/>
       <use xlink:href="#DejaVuSans-2e" x="63.623047"/>
       <use xlink:href="#DejaVuSans-38" x="95.410156"/>
      </g>
     </g>
    </g>
    <g id="xtick_6">
     <g id="line2d_6">
      <g>
       <use xlink:href="#m90e453be8d" x="266.69548" y="273.312" style="stroke: #000000; stroke-width: 0.8"/>
      </g>
     </g>
     <g id="text_6">
      <!-- 1.0 -->
      <g transform="translate(258.743918 287.910437)scale(0.1 -0.1)">
       <defs>
        <path id="DejaVuSans-31" d="M 794 531 
L 1825 531 
L 1825 4091 
L 703 3866 
L 703 4441 
L 1819 4666 
L 2450 4666 
L 2450 531 
L 3481 531 
L 3481 0 
L 794 0 
L 794 531 
z
" transform="scale(0.015625)"/>
       </defs>
       <use xlink:href="#DejaVuSans-31"/>
       <use xlink:href="#DejaVuSans-2e" x="63.623047"/>
       <use xlink:href="#DejaVuSans-30" x="95.410156"/>
      </g>
     </g>
    </g>
    <g id="xtick_7">
     <g id="line2d_7">
      <g>
       <use xlink:href="#m90e453be8d" x="308.031781" y="273.312" style="stroke: #000000; stroke-width: 0.8"/>
      </g>
     </g>
     <g id="text_7">
      <!-- 1.2 -->
      <g transform="translate(300.080218 287.910437)scale(0.1 -0.1)">
       <use xlink:href="#DejaVuSans-31"/>
       <use xlink:href="#DejaVuSans-2e" x="63.623047"/>
       <use xlink:href="#DejaVuSans-32" x="95.410156"/>
      </g>
     </g>
    </g>
    <g id="xtick_8">
     <g id="line2d_8">
      <g>
       <use xlink:href="#m90e453be8d" x="349.368081" y="273.312" style="stroke: #000000; stroke-width: 0.8"/>
      </g>
     </g>
     <g id="text_8">
      <!-- 1.4 -->
      <g transform="translate(341.416519 287.910437)scale(0.1 -0.1)">
       <use xlink:href="#DejaVuSans-31"/>
       <use xlink:href="#DejaVuSans-2e" x="63.623047"/>
       <use xlink:href="#DejaVuSans-34" x="95.410156"/>
      </g>
     </g>
    </g>
    <g id="xtick_9">
     <g id="line2d_9">
      <g>
       <use xlink:href="#m90e453be8d" x="390.704382" y="273.312" style="stroke: #000000; stroke-width: 0.8"/>
      </g>
     </g>
     <g id="text_9">
      <!-- 1.6 -->
      <g transform="translate(382.752819 287.910437)scale(0.1 -0.1)">
       <use xlink:href="#DejaVuSans-31"/>
       <use xlink:href="#DejaVuSans-2e" x="63.623047"/>
       <use xlink:href="#DejaVuSans-36" x="95.410156"/>
      </g>
     </g>
    </g>
    <g id="text_10">
     <!-- Angle with normal (rad) -->
     <g transform="translate(163.023281 301.588562)scale(0.1 -0.1)">
      <defs>
       <path id="DejaVuSans-41" d="M 2188 4044 
L 1331 1722 
L 3047 1722 
L 2188 4044 
z
M 1831 4666 
L 2547 4666 
L 4325 0 
L 3669 0 
L 3244 1197 
L 1141 1197 
L 716 0 
L 50 0 
L 1831 4666 
z
" transform="scale(0.015625)"/>
       <path id="DejaVuSans-6e" d="M 3513 2113 
L 3513 0 
L 2938 0 
L 2938 2094 
Q 2938 2591 2744 2837 
Q 2550 3084 2163 3084 
Q 1697 3084 1428 2787 
Q 1159 2491 1159 1978 
L 1159 0 
L 581 0 
L 581 3500 
L 1159 3500 
L 1159 2956 
Q 1366 3272 1645 3428 
Q 1925 3584 2291 3584 
Q 2894 3584 3203 3211 
Q 3513 2838 3513 2113 
z
" transform="scale(0.015625)"/>
       <path id="DejaVuSans-67" d="M 2906 1791 
Q 2906 2416 2648 2759 
Q 2391 3103 1925 3103 
Q 1463 3103 1205 2759 
Q 947 2416 947 1791 
Q 947 1169 1205 825 
Q 1463 481 1925 481 
Q 2391 481 2648 825 
Q 2906 1169 2906 1791 
z
M 3481 434 
Q 3481 -459 3084 -895 
Q 2688 -1331 1869 -1331 
Q 1566 -1331 1297 -1286 
Q 1028 -1241 775 -1147 
L 775 -588 
Q 1028 -725 1275 -790 
Q 1522 -856 1778 -856 
Q 2344 -856 2625 -561 
Q 2906 -266 2906 331 
L 2906 616 
Q 2728 306 2450 153 
Q 2172 0 1784 0 
Q 1141 0 747 490 
Q 353 981 353 1791 
Q 353 2603 747 3093 
Q 1141 3584 1784 3584 
Q 2172 3584 2450 3431 
Q 2728 3278 2906 2969 
L 2906 3500 
L 3481 3500 
L 3481 434 
z
" transform="scale(0.015625)"/>
       <path id="DejaVuSans-6c" d="M 603 4863 
L 1178 4863 
L 1178 0 
L 603 0 
L 603 4863 
z
" transform="scale(0.015625)"/>
       <path id="DejaVuSans-65" d="M 3597 1894 
L 3597 1613 
L 953 1613 
Q 991 1019 1311 708 
Q 1631 397 2203 397 
Q 2534 397 2845 478 
Q 3156 559 3463 722 
L 3463 178 
Q 3153 47 2828 -22 
Q 2503 -91 2169 -91 
Q 1331 -91 842 396 
Q 353 884 353 1716 
Q 353 2575 817 3079 
Q 1281 3584 2069 3584 
Q 2775 3584 3186 3129 
Q 3597 2675 3597 1894 
z
M 3022 2063 
Q 3016 2534 2758 2815 
Q 2500 3097 2075 3097 
Q 1594 3097 1305 2825 
Q 1016 2553 972 2059 
L 3022 2063 
z
" transform="scale(0.015625)"/>
       <path id="DejaVuSans-20" transform="scale(0.015625)"/>
       <path id="DejaVuSans-77" d="M 269 3500 
L 844 3500 
L 1563 769 
L 2278 3500 
L 2956 3500 
L 3675 769 
L 4391 3500 
L 4966 3500 
L 4050 0 
L 3372 0 
L 2619 2869 
L 1863 0 
L 1184 0 
L 269 3500 
z
" transform="scale(0.015625)"/>
       <path id="DejaVuSans-69" d="M 603 3500 
L 1178 3500 
L 1178 0 
L 603 0 
L 603 3500 
z
M 603 4863 
L 1178 4863 
L 1178 4134 
L 603 4134 
L 603 4863 
z
" transform="scale(0.015625)"/>
       <path id="DejaVuSans-74" d="M 1172 4494 
L 1172 3500 
L 2356 3500 
L 2356 3053 
L 1172 3053 
L 1172 1153 
Q 1172 725 1289 603 
Q 1406 481 1766 481 
L 2356 481 
L 2356 0 
L 1766 0 
Q 1100 0 847 248 
Q 594 497 594 1153 
L 594 3053 
L 172 3053 
L 172 3500 
L 594 3500 
L 594 4494 
L 1172 4494 
z
" transform="scale(0.015625)"/>
       <path id="DejaVuSans-68" d="M 3513 2113 
L 3513 0 
L 2938 0 
L 2938 2094 
Q 2938 2591 2744 2837 
Q 2550 3084 2163 3084 
Q 1697 3084 1428 2787 
Q 1159 2491 1159 1978 
L 1159 0 
L 581 0 
L 581 4863 
L 1159 4863 
L 1159 2956 
Q 1366 3272 1645 3428 
Q 1925 3584 2291 3584 
Q 2894 3584 3203 3211 
Q 3513 2838 3513 2113 
z
" transform="scale(0.015625)"/>
       <path id="DejaVuSans-6f" d="M 1959 3097 
Q 1497 3097 1228 2736 
Q 959 2375 959 1747 
Q 959 1119 1226 758 
Q 1494 397 1959 397 
Q 2419 397 2687 759 
Q 2956 1122 2956 1747 
Q 2956 2369 2687 2733 
Q 2419 3097 1959 3097 
z
M 1959 3584 
Q 2709 3584 3137 3096 
Q 3566 2609 3566 1747 
Q 3566 888 3137 398 
Q 2709 -91 1959 -91 
Q 1206 -91 779 398 
Q 353 888 353 1747 
Q 353 2609 779 3096 
Q 1206 3584 1959 3584 
z
" transform="scale(0.015625)"/>
       <path id="DejaVuSans-72" d="M 2631 2963 
Q 2534 3019 2420 3045 
Q 2306 3072 2169 3072 
Q 1681 3072 1420 2755 
Q 1159 2438 1159 1844 
L 1159 0 
L 581 0 
L 581 3500 
L 1159 3500 
L 1159 2956 
Q 1341 3275 1631 3429 
Q 1922 3584 2338 3584 
Q 2397 3584 2469 3576 
Q 2541 3569 2628 3553 
L 2631 2963 
z
" transform="scale(0.015625)"/>
       <path id="DejaVuSans-6d" d="M 3328 2828 
Q 3544 3216 3844 3400 
Q 4144 3584 4550 3584 
Q 5097 3584 5394 3201 
Q 5691 2819 5691 2113 
L 5691 0 
L 5113 0 
L 5113 2094 
Q 5113 2597 4934 2840 
Q 4756 3084 4391 3084 
Q 3944 3084 3684 2787 
Q 3425 2491 3425 1978 
L 3425 0 
L 2847 0 
L 2847 2094 
Q 2847 2600 2669 2842 
Q 2491 3084 2119 3084 
Q 1678 3084 1418 2786 
Q 1159 2488 1159 1978 
L 1159 0 
L 581 0 
L 581 3500 
L 1159 3500 
L 1159 2956 
Q 1356 3278 1631 3431 
Q 1906 3584 2284 3584 
Q 2666 3584 2933 3390 
Q 3200 3197 3328 2828 
z
" transform="scale(0.015625)"/>
       <path id="DejaVuSans-61" d="M 2194 1759 
Q 1497 1759 1228 1600 
Q 959 1441 959 1056 
Q 959 750 1161 570 
Q 1363 391 1709 391 
Q 2188 391 2477 730 
Q 2766 1069 2766 1631 
L 2766 1759 
L 2194 1759 
z
M 3341 1997 
L 3341 0 
L 2766 0 
L 2766 531 
Q 2569 213 2275 61 
Q 1981 -91 1556 -91 
Q 1019 -91 701 211 
Q 384 513 384 1019 
Q 384 1609 779 1909 
Q 1175 2209 1959 2209 
L 2766 2209 
L 2766 2266 
Q 2766 2663 2505 2880 
Q 2244 3097 1772 3097 
Q 1472 3097 1187 3025 
Q 903 2953 641 2809 
L 641 3341 
Q 956 3463 1253 3523 
Q 1550 3584 1831 3584 
Q 2591 3584 2966 3190 
Q 3341 2797 3341 1997 
z
" transform="scale(0.015625)"/>
       <path id="DejaVuSans-28" d="M 1984 4856 
Q 1566 4138 1362 3434 
Q 1159 2731 1159 2009 
Q 1159 1288 1364 580 
Q 1569 -128 1984 -844 
L 1484 -844 
Q 1016 -109 783 600 
Q 550 1309 550 2009 
Q 550 2706 781 3412 
Q 1013 4119 1484 4856 
L 1984 4856 
z
" transform="scale(0.015625)"/>
       <path id="DejaVuSans-64" d="M 2906 2969 
L 2906 4863 
L 3481 4863 
L 3481 0 
L 2906 0 
L 2906 525 
Q 2725 213 2448 61 
Q 2172 -91 1784 -91 
Q 1150 -91 751 415 
Q 353 922 353 1747 
Q 353 2572 751 3078 
Q 1150 3584 1784 3584 
Q 2172 3584 2448 3432 
Q 2725 3281 2906 2969 
z
M 947 1747 
Q 947 1113 1208 752 
Q 1469 391 1925 391 
Q 2381 391 2643 752 
Q 2906 1113 2906 1747 
Q 2906 2381 2643 2742 
Q 2381 3103 1925 3103 
Q 1469 3103 1208 2742 
Q 947 2381 947 1747 
z
" transform="scale(0.015625)"/>
       <path id="DejaVuSans-29" d="M 513 4856 
L 1013 4856 
Q 1481 4119 1714 3412 
Q 1947 2706 1947 2009 
Q 1947 1309 1714 600 
Q 1481 -109 1013 -844 
L 513 -844 
Q 928 -128 1133 580 
Q 1338 1288 1338 2009 
Q 1338 2731 1133 3434 
Q 928 4138 513 4856 
z
" transform="scale(0.015625)"/>
      </defs>
      <use xlink:href="#DejaVuSans-41"/>
      <use xlink:href="#DejaVuSans-6e" x="68.408203"/>
      <use xlink:href="#DejaVuSans-67" x="131.787109"/>
      <use xlink:href="#DejaVuSans-6c" x="195.263672"/>
      <use xlink:href="#DejaVuSans-65" x="223.046875"/>
      <use xlink:href="#DejaVuSans-20" x="284.570312"/>
      <use xlink:href="#DejaVuSans-77" x="316.357422"/>
      <use xlink:href="#DejaVuSans-69" x="398.144531"/>
      <use xlink:href="#DejaVuSans-74" x="425.927734"/>
      <use xlink:href="#DejaVuSans-68" x="465.136719"/>
      <use xlink:href="#DejaVuSans-20" x="528.515625"/>
      <use xlink:href="#DejaVuSans-6e" x="560.302734"/>
      <use xlink:href="#DejaVuSans-6f" x="623.681641"/>
      <use xlink:href="#DejaVuSans-72" x="684.863281"/>
      <use xlink:href="#DejaVuSans-6d" x="724.226562"/>
      <use xlink:href="#DejaVuSans-61" x="821.638672"/>
      <use xlink:href="#DejaVuSans-6c" x="882.917969"/>
      <use xlink:href="#DejaVuSans-20" x="910.701172"/>
      <use xlink:href="#DejaVuSans-28" x="942.488281"/>
      <use xlink:href="#DejaVuSans-72" x="981.501953"/>
      <use xlink:href="#DejaVuSans-61" x="1022.615234"/>
      <use xlink:href="#DejaVuSans-64" x="1083.894531"/>
      <use xlink:href="#DejaVuSans-29" x="1147.371094"/>
     </g>
    </g>
   </g>
   <g id="matplotlib.axis_2">
    <g id="ytick_1">
     <g id="line2d_10">
      <defs>
       <path id="me9d8652abc" d="M 0 0 
L -3.5 0 
" style="stroke: #000000; stroke-width: 0.8"/>
      </defs>
      <g>
       <use xlink:href="#me9d8652abc" x="43.78125" y="273.312" style="stroke: #000000; stroke-width: 0.8"/>
      </g>
     </g>
     <g id="text_11">
      <!-- 0.0 -->
      <g transform="translate(20.878125 277.111219)scale(0.1 -0.1)">
       <use xlink:href="#DejaVuSans-30"/>
       <use xlink:href="#DejaVuSans-2e" x="63.623047"/>
       <use xlink:href="#DejaVuSans-30" x="95.410156"/>
      </g>
     </g>
    </g>
    <g id="ytick_2">
     <g id="line2d_11">
      <g>
       <use xlink:href="#me9d8652abc" x="43.78125" y="230.122781" style="stroke: #000000; stroke-width: 0.8"/>
      </g>
     </g>
     <g id="text_12">
      <!-- 0.2 -->
      <g transform="translate(20.878125 233.922)scale(0.1 -0.1)">
       <use xlink:href="#DejaVuSans-30"/>
       <use xlink:href="#DejaVuSans-2e" x="63.623047"/>
       <use xlink:href="#DejaVuSans-32" x="95.410156"/>
      </g>
     </g>
    </g>
    <g id="ytick_3">
     <g id="line2d_12">
      <g>
       <use xlink:href="#me9d8652abc" x="43.78125" y="186.933562" style="stroke: #000000; stroke-width: 0.8"/>
      </g>
     </g>
     <g id="text_13">
      <!-- 0.4 -->
      <g transform="translate(20.878125 190.732781)scale(0.1 -0.1)">
       <use xlink:href="#DejaVuSans-30"/>
       <use xlink:href="#DejaVuSans-2e" x="63.623047"/>
       <use xlink:href="#DejaVuSans-34" x="95.410156"/>
      </g>
     </g>
    </g>
    <g id="ytick_4">
     <g id="line2d_13">
      <g>
       <use xlink:href="#me9d8652abc" x="43.78125" y="143.744343" style="stroke: #000000; stroke-width: 0.8"/>
      </g>
     </g>
     <g id="text_14">
      <!-- 0.6 -->
      <g transform="translate(20.878125 147.543562)scale(0.1 -0.1)">
       <use xlink:href="#DejaVuSans-30"/>
       <use xlink:href="#DejaVuSans-2e" x="63.623047"/>
       <use xlink:href="#DejaVuSans-36" x="95.410156"/>
      </g>
     </g>
    </g>
    <g id="ytick_5">
     <g id="line2d_14">
      <g>
       <use xlink:href="#me9d8652abc" x="43.78125" y="100.555124" style="stroke: #000000; stroke-width: 0.8"/>
      </g>
     </g>
     <g id="text_15">
      <!-- 0.8 -->
      <g transform="translate(20.878125 104.354343)scale(0.1 -0.1)">
       <use xlink:href="#DejaVuSans-30"/>
       <use xlink:href="#DejaVuSans-2e" x="63.623047"/>
       <use xlink:href="#DejaVuSans-38" x="95.410156"/>
      </g>
     </g>
    </g>
    <g id="ytick_6">
     <g id="line2d_15">
      <g>
       <use xlink:href="#me9d8652abc" x="43.78125" y="57.365905" style="stroke: #000000; stroke-width: 0.8"/>
      </g>
     </g>
     <g id="text_16">
      <!-- 1.0 -->
      <g transform="translate(20.878125 61.165124)scale(0.1 -0.1)">
       <use xlink:href="#DejaVuSans-31"/>
       <use xlink:href="#DejaVuSans-2e" x="63.623047"/>
       <use xlink:href="#DejaVuSans-30" x="95.410156"/>
      </g>
     </g>
    </g>
    <g id="ytick_7">
     <g id="line2d_16">
      <g>
       <use xlink:href="#me9d8652abc" x="43.78125" y="14.176686" style="stroke: #000000; stroke-width: 0.8"/>
      </g>
     </g>
     <g id="text_17">
      <!-- 1.2 -->
      <g transform="translate(20.878125 17.975905)scale(0.1 -0.1)">
       <use xlink:href="#DejaVuSans-31"/>
       <use xlink:href="#DejaVuSans-2e" x="63.623047"/>
       <use xlink:href="#DejaVuSans-32" x="95.410156"/>
      </g>
     </g>
    </g>
    <g id="text_18">
     <!-- Probability density -->
     <g transform="translate(14.798438 186.606781)rotate(-90)scale(0.1 -0.1)">
      <defs>
       <path id="DejaVuSans-50" d="M 1259 4147 
L 1259 2394 
L 2053 2394 
Q 2494 2394 2734 2622 
Q 2975 2850 2975 3272 
Q 2975 3691 2734 3919 
Q 2494 4147 2053 4147 
L 1259 4147 
z
M 628 4666 
L 2053 4666 
Q 2838 4666 3239 4311 
Q 3641 3956 3641 3272 
Q 3641 2581 3239 2228 
Q 2838 1875 2053 1875 
L 1259 1875 
L 1259 0 
L 628 0 
L 628 4666 
z
" transform="scale(0.015625)"/>
       <path id="DejaVuSans-62" d="M 3116 1747 
Q 3116 2381 2855 2742 
Q 2594 3103 2138 3103 
Q 1681 3103 1420 2742 
Q 1159 2381 1159 1747 
Q 1159 1113 1420 752 
Q 1681 391 2138 391 
Q 2594 391 2855 752 
Q 3116 1113 3116 1747 
z
M 1159 2969 
Q 1341 3281 1617 3432 
Q 1894 3584 2278 3584 
Q 2916 3584 3314 3078 
Q 3713 2572 3713 1747 
Q 3713 922 3314 415 
Q 2916 -91 2278 -91 
Q 1894 -91 1617 61 
Q 1341 213 1159 525 
L 1159 0 
L 581 0 
L 581 4863 
L 1159 4863 
L 1159 2969 
z
" transform="scale(0.015625)"/>
       <path id="DejaVuSans-79" d="M 2059 -325 
Q 1816 -950 1584 -1140 
Q 1353 -1331 966 -1331 
L 506 -1331 
L 506 -850 
L 844 -850 
Q 1081 -850 1212 -737 
Q 1344 -625 1503 -206 
L 1606 56 
L 191 3500 
L 800 3500 
L 1894 763 
L 2988 3500 
L 3597 3500 
L 2059 -325 
z
" transform="scale(0.015625)"/>
       <path id="DejaVuSans-73" d="M 2834 3397 
L 2834 2853 
Q 2591 2978 2328 3040 
Q 2066 3103 1784 3103 
Q 1356 3103 1142 2972 
Q 928 2841 928 2578 
Q 928 2378 1081 2264 
Q 1234 2150 1697 2047 
L 1894 2003 
Q 2506 1872 2764 1633 
Q 3022 1394 3022 966 
Q 3022 478 2636 193 
Q 2250 -91 1575 -91 
Q 1294 -91 989 -36 
Q 684 19 347 128 
L 347 722 
Q 666 556 975 473 
Q 1284 391 1588 391 
Q 1994 391 2212 530 
Q 2431 669 2431 922 
Q 2431 1156 2273 1281 
Q 2116 1406 1581 1522 
L 1381 1569 
Q 847 1681 609 1914 
Q 372 2147 372 2553 
Q 372 3047 722 3315 
Q 1072 3584 1716 3584 
Q 2034 3584 2315 3537 
Q 2597 3491 2834 3397 
z
" transform="scale(0.015625)"/>
      </defs>
      <use xlink:href="#DejaVuSans-50"/>
      <use xlink:href="#DejaVuSans-72" x="58.552734"/>
      <use xlink:href="#DejaVuSans-6f" x="97.416016"/>
      <use xlink:href="#DejaVuSans-62" x="158.597656"/>
      <use xlink:href="#DejaVuSans-61" x="222.074219"/>
      <use xlink:href="#DejaVuSans-62" x="283.353516"/>
      <use xlink:href="#DejaVuSans-69" x="346.830078"/>
      <use xlink:href="#DejaVuSans-6c" x="374.613281"/>
      <use xlink:href="#DejaVuSans-69" x="402.396484"/>
      <use xlink:href="#DejaVuSans-74" x="430.179688"/>
      <use xlink:href="#DejaVuSans-79" x="469.388672"/>
      <use xlink:href="#DejaVuSans-20" x="528.568359"/>
      <use xlink:href="#DejaVuSans-64" x="560.355469"/>
      <use xlink:href="#DejaVuSans-65" x="623.832031"/>
      <use xlink:href="#DejaVuSans-6e" x="685.355469"/>
      <use xlink:href="#DejaVuSans-73" x="748.734375"/>
      <use xlink:href="#DejaVuSans-69" x="800.833984"/>
      <use xlink:href="#DejaVuSans-74" x="828.617188"/>
      <use xlink:href="#DejaVuSans-79" x="867.826172"/>
     </g>
    </g>
   </g>
   <g id="line2d_17">
    <path d="M 60.013977 273.312 
L 79.837728 232.140874 
L 90.237073 211.052756 
L 99.01152 193.741177 
L 106.811029 178.830614 
L 113.960578 165.633142 
L 120.460169 154.080895 
L 126.63478 143.542297 
L 132.484411 133.984997 
L 138.009063 125.367959 
L 143.208736 117.643539 
L 148.408408 110.313139 
L 153.283101 103.815253 
L 158.157794 97.694446 
L 162.707507 92.333927 
L 167.257221 87.324144 
L 171.481954 82.994752 
L 175.706688 78.983394 
L 179.606442 75.568686 
L 183.506197 72.435546 
L 187.405951 69.588433 
L 191.305705 67.031402 
L 194.88048 64.945404 
L 198.455255 63.108715 
L 202.03003 61.523533 
L 205.604804 60.191755 
L 209.179579 59.114975 
L 212.429374 58.358452 
L 215.67917 57.814487 
L 218.928965 57.483618 
L 222.17876 57.366172 
L 225.428555 57.462266 
L 228.678351 57.771803 
L 231.928146 58.294479 
L 235.177941 59.029777 
L 238.427736 59.976968 
L 242.002511 61.262493 
L 245.577286 62.801733 
L 249.152061 64.592848 
L 252.726836 66.633695 
L 256.30161 68.921831 
L 260.201365 71.696787 
L 264.101119 74.758823 
L 268.000873 78.103579 
L 271.900628 81.726293 
L 276.125361 85.958574 
L 280.350095 90.503937 
L 284.899809 95.740351 
L 289.449522 101.320899 
L 294.324215 107.669642 
L 299.198908 114.386889 
L 304.39858 121.941273 
L 309.923232 130.387162 
L 315.447884 139.241436 
L 321.297515 149.033543 
L 327.472126 159.800896 
L 333.971717 171.571868 
L 341.121266 184.982782 
L 348.920775 200.092589 
L 357.695222 217.585044 
L 368.094567 238.826504 
L 383.368605 270.595697 
L 384.668523 273.312 
L 384.668523 273.312 
" clip-path="url(#pba9966f77c)" style="fill: none; stroke: #ff7f0e; stroke-width: 1.5; stroke-linecap: square"/>
   </g>
   <g id="patch_203">
    <path d="M 43.78125 273.312 
L 43.78125 7.2 
" style="fill: none; stroke: #000000; stroke-width: 0.8; stroke-linejoin: miter; stroke-linecap: square"/>
   </g>
   <g id="patch_204">
    <path d="M 400.90125 273.312 
L 400.90125 7.2 
" style="fill: none; stroke: #000000; stroke-width: 0.8; stroke-linejoin: miter; stroke-linecap: square"/>
   </g>
   <g id="patch_205">
    <path d="M 43.78125 273.312 
L 400.90125 273.312 
" style="fill: none; stroke: #000000; stroke-width: 0.8; stroke-linejoin: miter; stroke-linecap: square"/>
   </g>
   <g id="patch_206">
    <path d="M 43.78125 7.2 
L 400.90125 7.2 
" style="fill: none; stroke: #000000; stroke-width: 0.8; stroke-linejoin: miter; stroke-linecap: square"/>
   </g>
  </g>
 </g>
 <defs>
  <clipPath id="pba9966f77c">
   <rect x="43.78125" y="7.2" width="357.12" height="266.112"/>
  </clipPath>
 </defs>
</svg>
