<?xml version="1.0" encoding="utf-8" standalone="no"?>
<!DOCTYPE svg PUBLIC "-//W3C//DTD SVG 1.1//EN"
  "http://www.w3.org/Graphics/SVG/1.1/DTD/svg11.dtd">
<svg xmlns:xlink="http://www.w3.org/1999/xlink" width="392.14375pt" height="262.19625pt" viewBox="0 0 392.14375 262.19625" xmlns="http://www.w3.org/2000/svg" version="1.1">
 <metadata>
  <rdf:RDF xmlns:dc="http://purl.org/dc/elements/1.1/" xmlns:cc="http://creativecommons.org/ns#" xmlns:rdf="http://www.w3.org/1999/02/22-rdf-syntax-ns#">
   <cc:Work>
    <dc:type rdf:resource="http://purl.org/dc/dcmitype/StillImage"/>
    <dc:date>2022-06-24T14:58:12.621306</dc:date>
    <dc:format>image/svg+xml</dc:format>
    <dc:creator>
     <cc:Agent>
      <dc:title>Matplotlib v3.5.2, https://matplotlib.org/</dc:title>
     </cc:Agent>
    </dc:creator>
   </cc:Work>
  </rdf:RDF>
 </metadata>
 <defs>
  <style type="text/css">*{stroke-linejoin: round; stroke-linecap: butt}</style>
 </defs>
 <g id="figure_1">
  <g id="patch_1">
   <path d="M 0 262.19625 
L 392.14375 262.19625 
L 392.14375 0 
L 0 0 
L 0 262.19625 
z
" style="fill: none"/>
  </g>
  <g id="axes_1">
   <g id="patch_2">
    <path d="M 50.14375 224.64 
L 384.94375 224.64 
L 384.94375 7.2 
L 50.14375 7.2 
z
" style="fill: #ffffff"/>
   </g>
   <g id="patch_3">
    <path d="M 66.626491 224.64 
L 68.141954 224.64 
L 68.141954 221.681633 
L 66.626491 221.681633 
z
" clip-path="url(#p6f9c8df3c8)" style="fill: #1f77b4"/>
   </g>
   <g id="patch_4">
    <path d="M 68.141954 224.64 
L 69.657416 224.64 
L 69.657416 221.681633 
L 68.141954 221.681633 
z
" clip-path="url(#p6f9c8df3c8)" style="fill: #1f77b4"/>
   </g>
   <g id="patch_5">
    <path d="M 69.657416 224.64 
L 71.172879 224.64 
L 71.172879 220.69551 
L 69.657416 220.69551 
z
" clip-path="url(#p6f9c8df3c8)" style="fill: #1f77b4"/>
   </g>
   <g id="patch_6">
    <path d="M 71.172879 224.64 
L 72.688341 224.64 
L 72.688341 219.216327 
L 71.172879 219.216327 
z
" clip-path="url(#p6f9c8df3c8)" style="fill: #1f77b4"/>
   </g>
   <g id="patch_7">
    <path d="M 72.688341 224.64 
L 74.203804 224.64 
L 74.203804 222.667755 
L 72.688341 222.667755 
z
" clip-path="url(#p6f9c8df3c8)" style="fill: #1f77b4"/>
   </g>
   <g id="patch_8">
    <path d="M 74.203804 224.64 
L 75.719266 224.64 
L 75.719266 221.188571 
L 74.203804 221.188571 
z
" clip-path="url(#p6f9c8df3c8)" style="fill: #1f77b4"/>
   </g>
   <g id="patch_9">
    <path d="M 75.719266 224.64 
L 77.234729 224.64 
L 77.234729 218.230204 
L 75.719266 218.230204 
z
" clip-path="url(#p6f9c8df3c8)" style="fill: #1f77b4"/>
   </g>
   <g id="patch_10">
    <path d="M 77.234729 224.64 
L 78.750191 224.64 
L 78.750191 218.230204 
L 77.234729 218.230204 
z
" clip-path="url(#p6f9c8df3c8)" style="fill: #1f77b4"/>
   </g>
   <g id="patch_11">
    <path d="M 78.750191 224.64 
L 80.265654 224.64 
L 80.265654 215.764898 
L 78.750191 215.764898 
z
" clip-path="url(#p6f9c8df3c8)" style="fill: #1f77b4"/>
   </g>
   <g id="patch_12">
    <path d="M 80.265654 224.64 
L 81.781116 224.64 
L 81.781116 215.271837 
L 80.265654 215.271837 
z
" clip-path="url(#p6f9c8df3c8)" style="fill: #1f77b4"/>
   </g>
   <g id="patch_13">
    <path d="M 81.781116 224.64 
L 83.296579 224.64 
L 83.296579 215.764898 
L 81.781116 215.764898 
z
" clip-path="url(#p6f9c8df3c8)" style="fill: #1f77b4"/>
   </g>
   <g id="patch_14">
    <path d="M 83.296579 224.64 
L 84.812041 224.64 
L 84.812041 214.285714 
L 83.296579 214.285714 
z
" clip-path="url(#p6f9c8df3c8)" style="fill: #1f77b4"/>
   </g>
   <g id="patch_15">
    <path d="M 84.812041 224.64 
L 86.327504 224.64 
L 86.327504 209.848163 
L 84.812041 209.848163 
z
" clip-path="url(#p6f9c8df3c8)" style="fill: #1f77b4"/>
   </g>
   <g id="patch_16">
    <path d="M 86.327504 224.64 
L 87.842966 224.64 
L 87.842966 213.299592 
L 86.327504 213.299592 
z
" clip-path="url(#p6f9c8df3c8)" style="fill: #1f77b4"/>
   </g>
   <g id="patch_17">
    <path d="M 87.842966 224.64 
L 89.358429 224.64 
L 89.358429 212.313469 
L 87.842966 212.313469 
z
" clip-path="url(#p6f9c8df3c8)" style="fill: #1f77b4"/>
   </g>
   <g id="patch_18">
    <path d="M 89.358429 224.64 
L 90.873891 224.64 
L 90.873891 208.862041 
L 89.358429 208.862041 
z
" clip-path="url(#p6f9c8df3c8)" style="fill: #1f77b4"/>
   </g>
   <g id="patch_19">
    <path d="M 90.873891 224.64 
L 92.389354 224.64 
L 92.389354 205.903673 
L 90.873891 205.903673 
z
" clip-path="url(#p6f9c8df3c8)" style="fill: #1f77b4"/>
   </g>
   <g id="patch_20">
    <path d="M 92.389354 224.64 
L 93.904816 224.64 
L 93.904816 199.000816 
L 92.389354 199.000816 
z
" clip-path="url(#p6f9c8df3c8)" style="fill: #1f77b4"/>
   </g>
   <g id="patch_21">
    <path d="M 93.904816 224.64 
L 95.420279 224.64 
L 95.420279 208.862041 
L 93.904816 208.862041 
z
" clip-path="url(#p6f9c8df3c8)" style="fill: #1f77b4"/>
   </g>
   <g id="patch_22">
    <path d="M 95.420279 224.64 
L 96.935741 224.64 
L 96.935741 208.862041 
L 95.420279 208.862041 
z
" clip-path="url(#p6f9c8df3c8)" style="fill: #1f77b4"/>
   </g>
   <g id="patch_23">
    <path d="M 96.935741 224.64 
L 98.451204 224.64 
L 98.451204 203.438367 
L 96.935741 203.438367 
z
" clip-path="url(#p6f9c8df3c8)" style="fill: #1f77b4"/>
   </g>
   <g id="patch_24">
    <path d="M 98.451204 224.64 
L 99.966666 224.64 
L 99.966666 199.000816 
L 98.451204 199.000816 
z
" clip-path="url(#p6f9c8df3c8)" style="fill: #1f77b4"/>
   </g>
   <g id="patch_25">
    <path d="M 99.966666 224.64 
L 101.482129 224.64 
L 101.482129 200.973061 
L 99.966666 200.973061 
z
" clip-path="url(#p6f9c8df3c8)" style="fill: #1f77b4"/>
   </g>
   <g id="patch_26">
    <path d="M 101.482129 224.64 
L 102.997591 224.64 
L 102.997591 205.410612 
L 101.482129 205.410612 
z
" clip-path="url(#p6f9c8df3c8)" style="fill: #1f77b4"/>
   </g>
   <g id="patch_27">
    <path d="M 102.997591 224.64 
L 104.513054 224.64 
L 104.513054 193.577143 
L 102.997591 193.577143 
z
" clip-path="url(#p6f9c8df3c8)" style="fill: #1f77b4"/>
   </g>
   <g id="patch_28">
    <path d="M 104.513054 224.64 
L 106.028516 224.64 
L 106.028516 202.452245 
L 104.513054 202.452245 
z
" clip-path="url(#p6f9c8df3c8)" style="fill: #1f77b4"/>
   </g>
   <g id="patch_29">
    <path d="M 106.028516 224.64 
L 107.543979 224.64 
L 107.543979 193.577143 
L 106.028516 193.577143 
z
" clip-path="url(#p6f9c8df3c8)" style="fill: #1f77b4"/>
   </g>
   <g id="patch_30">
    <path d="M 107.543979 224.64 
L 109.059441 224.64 
L 109.059441 199.986939 
L 107.543979 199.986939 
z
" clip-path="url(#p6f9c8df3c8)" style="fill: #1f77b4"/>
   </g>
   <g id="patch_31">
    <path d="M 109.059441 224.64 
L 110.574904 224.64 
L 110.574904 197.028571 
L 109.059441 197.028571 
z
" clip-path="url(#p6f9c8df3c8)" style="fill: #1f77b4"/>
   </g>
   <g id="patch_32">
    <path d="M 110.574904 224.64 
L 112.090366 224.64 
L 112.090366 200.973061 
L 110.574904 200.973061 
z
" clip-path="url(#p6f9c8df3c8)" style="fill: #1f77b4"/>
   </g>
   <g id="patch_33">
    <path d="M 112.090366 224.64 
L 113.605829 224.64 
L 113.605829 187.660408 
L 112.090366 187.660408 
z
" clip-path="url(#p6f9c8df3c8)" style="fill: #1f77b4"/>
   </g>
   <g id="patch_34">
    <path d="M 113.605829 224.64 
L 115.121291 224.64 
L 115.121291 193.577143 
L 113.605829 193.577143 
z
" clip-path="url(#p6f9c8df3c8)" style="fill: #1f77b4"/>
   </g>
   <g id="patch_35">
    <path d="M 115.121291 224.64 
L 116.636754 224.64 
L 116.636754 198.014694 
L 115.121291 198.014694 
z
" clip-path="url(#p6f9c8df3c8)" style="fill: #1f77b4"/>
   </g>
   <g id="patch_36">
    <path d="M 116.636754 224.64 
L 118.152216 224.64 
L 118.152216 192.097959 
L 116.636754 192.097959 
z
" clip-path="url(#p6f9c8df3c8)" style="fill: #1f77b4"/>
   </g>
   <g id="patch_37">
    <path d="M 118.152216 224.64 
L 119.667679 224.64 
L 119.667679 191.604898 
L 118.152216 191.604898 
z
" clip-path="url(#p6f9c8df3c8)" style="fill: #1f77b4"/>
   </g>
   <g id="patch_38">
    <path d="M 119.667679 224.64 
L 121.183141 224.64 
L 121.183141 184.20898 
L 119.667679 184.20898 
z
" clip-path="url(#p6f9c8df3c8)" style="fill: #1f77b4"/>
   </g>
   <g id="patch_39">
    <path d="M 121.183141 224.64 
L 122.698604 224.64 
L 122.698604 183.715918 
L 121.183141 183.715918 
z
" clip-path="url(#p6f9c8df3c8)" style="fill: #1f77b4"/>
   </g>
   <g id="patch_40">
    <path d="M 122.698604 224.64 
L 124.214066 224.64 
L 124.214066 184.702041 
L 122.698604 184.702041 
z
" clip-path="url(#p6f9c8df3c8)" style="fill: #1f77b4"/>
   </g>
   <g id="patch_41">
    <path d="M 124.214066 224.64 
L 125.729529 224.64 
L 125.729529 187.660408 
L 124.214066 187.660408 
z
" clip-path="url(#p6f9c8df3c8)" style="fill: #1f77b4"/>
   </g>
   <g id="patch_42">
    <path d="M 125.729529 224.64 
L 127.244991 224.64 
L 127.244991 184.20898 
L 125.729529 184.20898 
z
" clip-path="url(#p6f9c8df3c8)" style="fill: #1f77b4"/>
   </g>
   <g id="patch_43">
    <path d="M 127.244991 224.64 
L 128.760454 224.64 
L 128.760454 183.715918 
L 127.244991 183.715918 
z
" clip-path="url(#p6f9c8df3c8)" style="fill: #1f77b4"/>
   </g>
   <g id="patch_44">
    <path d="M 128.760454 224.64 
L 130.275916 224.64 
L 130.275916 177.306122 
L 128.760454 177.306122 
z
" clip-path="url(#p6f9c8df3c8)" style="fill: #1f77b4"/>
   </g>
   <g id="patch_45">
    <path d="M 130.275916 224.64 
L 131.791379 224.64 
L 131.791379 181.250612 
L 130.275916 181.250612 
z
" clip-path="url(#p6f9c8df3c8)" style="fill: #1f77b4"/>
   </g>
   <g id="patch_46">
    <path d="M 131.791379 224.64 
L 133.306841 224.64 
L 133.306841 174.347755 
L 131.791379 174.347755 
z
" clip-path="url(#p6f9c8df3c8)" style="fill: #1f77b4"/>
   </g>
   <g id="patch_47">
    <path d="M 133.306841 224.64 
L 134.822304 224.64 
L 134.822304 171.389388 
L 133.306841 171.389388 
z
" clip-path="url(#p6f9c8df3c8)" style="fill: #1f77b4"/>
   </g>
   <g id="patch_48">
    <path d="M 134.822304 224.64 
L 136.337766 224.64 
L 136.337766 173.361633 
L 134.822304 173.361633 
z
" clip-path="url(#p6f9c8df3c8)" style="fill: #1f77b4"/>
   </g>
   <g id="patch_49">
    <path d="M 136.337766 224.64 
L 137.853229 224.64 
L 137.853229 177.799184 
L 136.337766 177.799184 
z
" clip-path="url(#p6f9c8df3c8)" style="fill: #1f77b4"/>
   </g>
   <g id="patch_50">
    <path d="M 137.853229 224.64 
L 139.368691 224.64 
L 139.368691 174.347755 
L 137.853229 174.347755 
z
" clip-path="url(#p6f9c8df3c8)" style="fill: #1f77b4"/>
   </g>
   <g id="patch_51">
    <path d="M 139.368691 224.64 
L 140.884154 224.64 
L 140.884154 174.840816 
L 139.368691 174.840816 
z
" clip-path="url(#p6f9c8df3c8)" style="fill: #1f77b4"/>
   </g>
   <g id="patch_52">
    <path d="M 140.884154 224.64 
L 142.399616 224.64 
L 142.399616 168.43102 
L 140.884154 168.43102 
z
" clip-path="url(#p6f9c8df3c8)" style="fill: #1f77b4"/>
   </g>
   <g id="patch_53">
    <path d="M 142.399616 224.64 
L 143.915079 224.64 
L 143.915079 175.826939 
L 142.399616 175.826939 
z
" clip-path="url(#p6f9c8df3c8)" style="fill: #1f77b4"/>
   </g>
   <g id="patch_54">
    <path d="M 143.915079 224.64 
L 145.430541 224.64 
L 145.430541 165.965714 
L 143.915079 165.965714 
z
" clip-path="url(#p6f9c8df3c8)" style="fill: #1f77b4"/>
   </g>
   <g id="patch_55">
    <path d="M 145.430541 224.64 
L 146.946004 224.64 
L 146.946004 174.840816 
L 145.430541 174.840816 
z
" clip-path="url(#p6f9c8df3c8)" style="fill: #1f77b4"/>
   </g>
   <g id="patch_56">
    <path d="M 146.946004 224.64 
L 148.461466 224.64 
L 148.461466 176.813061 
L 146.946004 176.813061 
z
" clip-path="url(#p6f9c8df3c8)" style="fill: #1f77b4"/>
   </g>
   <g id="patch_57">
    <path d="M 148.461466 224.64 
L 149.976929 224.64 
L 149.976929 161.035102 
L 148.461466 161.035102 
z
" clip-path="url(#p6f9c8df3c8)" style="fill: #1f77b4"/>
   </g>
   <g id="patch_58">
    <path d="M 149.976929 224.64 
L 151.492391 224.64 
L 151.492391 175.333878 
L 149.976929 175.333878 
z
" clip-path="url(#p6f9c8df3c8)" style="fill: #1f77b4"/>
   </g>
   <g id="patch_59">
    <path d="M 151.492391 224.64 
L 153.007854 224.64 
L 153.007854 163.007347 
L 151.492391 163.007347 
z
" clip-path="url(#p6f9c8df3c8)" style="fill: #1f77b4"/>
   </g>
   <g id="patch_60">
    <path d="M 153.007854 224.64 
L 154.523316 224.64 
L 154.523316 160.04898 
L 153.007854 160.04898 
z
" clip-path="url(#p6f9c8df3c8)" style="fill: #1f77b4"/>
   </g>
   <g id="patch_61">
    <path d="M 154.523316 224.64 
L 156.038779 224.64 
L 156.038779 168.924082 
L 154.523316 168.924082 
z
" clip-path="url(#p6f9c8df3c8)" style="fill: #1f77b4"/>
   </g>
   <g id="patch_62">
    <path d="M 156.038779 224.64 
L 157.554241 224.64 
L 157.554241 166.951837 
L 156.038779 166.951837 
z
" clip-path="url(#p6f9c8df3c8)" style="fill: #1f77b4"/>
   </g>
   <g id="patch_63">
    <path d="M 157.554241 224.64 
L 159.069704 224.64 
L 159.069704 169.417143 
L 157.554241 169.417143 
z
" clip-path="url(#p6f9c8df3c8)" style="fill: #1f77b4"/>
   </g>
   <g id="patch_64">
    <path d="M 159.069704 224.64 
L 160.585166 224.64 
L 160.585166 170.896327 
L 159.069704 170.896327 
z
" clip-path="url(#p6f9c8df3c8)" style="fill: #1f77b4"/>
   </g>
   <g id="patch_65">
    <path d="M 160.585166 224.64 
L 162.100629 224.64 
L 162.100629 165.965714 
L 160.585166 165.965714 
z
" clip-path="url(#p6f9c8df3c8)" style="fill: #1f77b4"/>
   </g>
   <g id="patch_66">
    <path d="M 162.100629 224.64 
L 163.616091 224.64 
L 163.616091 167.444898 
L 162.100629 167.444898 
z
" clip-path="url(#p6f9c8df3c8)" style="fill: #1f77b4"/>
   </g>
   <g id="patch_67">
    <path d="M 163.616091 224.64 
L 165.131554 224.64 
L 165.131554 159.555918 
L 163.616091 159.555918 
z
" clip-path="url(#p6f9c8df3c8)" style="fill: #1f77b4"/>
   </g>
   <g id="patch_68">
    <path d="M 165.131554 224.64 
L 166.647016 224.64 
L 166.647016 154.625306 
L 165.131554 154.625306 
z
" clip-path="url(#p6f9c8df3c8)" style="fill: #1f77b4"/>
   </g>
   <g id="patch_69">
    <path d="M 166.647016 224.64 
L 168.162479 224.64 
L 168.162479 155.611429 
L 166.647016 155.611429 
z
" clip-path="url(#p6f9c8df3c8)" style="fill: #1f77b4"/>
   </g>
   <g id="patch_70">
    <path d="M 168.162479 224.64 
L 169.677941 224.64 
L 169.677941 163.993469 
L 168.162479 163.993469 
z
" clip-path="url(#p6f9c8df3c8)" style="fill: #1f77b4"/>
   </g>
   <g id="patch_71">
    <path d="M 169.677941 224.64 
L 171.193404 224.64 
L 171.193404 163.007347 
L 169.677941 163.007347 
z
" clip-path="url(#p6f9c8df3c8)" style="fill: #1f77b4"/>
   </g>
   <g id="patch_72">
    <path d="M 171.193404 224.64 
L 172.708866 224.64 
L 172.708866 155.611429 
L 171.193404 155.611429 
z
" clip-path="url(#p6f9c8df3c8)" style="fill: #1f77b4"/>
   </g>
   <g id="patch_73">
    <path d="M 172.708866 224.64 
L 174.224329 224.64 
L 174.224329 155.611429 
L 172.708866 155.611429 
z
" clip-path="url(#p6f9c8df3c8)" style="fill: #1f77b4"/>
   </g>
   <g id="patch_74">
    <path d="M 174.224329 224.64 
L 175.739791 224.64 
L 175.739791 161.528163 
L 174.224329 161.528163 
z
" clip-path="url(#p6f9c8df3c8)" style="fill: #1f77b4"/>
   </g>
   <g id="patch_75">
    <path d="M 175.739791 224.64 
L 177.255254 224.64 
L 177.255254 151.666939 
L 175.739791 151.666939 
z
" clip-path="url(#p6f9c8df3c8)" style="fill: #1f77b4"/>
   </g>
   <g id="patch_76">
    <path d="M 177.255254 224.64 
L 178.770716 224.64 
L 178.770716 159.062857 
L 177.255254 159.062857 
z
" clip-path="url(#p6f9c8df3c8)" style="fill: #1f77b4"/>
   </g>
   <g id="patch_77">
    <path d="M 178.770716 224.64 
L 180.286179 224.64 
L 180.286179 151.666939 
L 178.770716 151.666939 
z
" clip-path="url(#p6f9c8df3c8)" style="fill: #1f77b4"/>
   </g>
   <g id="patch_78">
    <path d="M 180.286179 224.64 
L 181.801641 224.64 
L 181.801641 157.090612 
L 180.286179 157.090612 
z
" clip-path="url(#p6f9c8df3c8)" style="fill: #1f77b4"/>
   </g>
   <g id="patch_79">
    <path d="M 181.801641 224.64 
L 183.317104 224.64 
L 183.317104 142.791837 
L 181.801641 142.791837 
z
" clip-path="url(#p6f9c8df3c8)" style="fill: #1f77b4"/>
   </g>
   <g id="patch_80">
    <path d="M 183.317104 224.64 
L 184.832566 224.64 
L 184.832566 147.722449 
L 183.317104 147.722449 
z
" clip-path="url(#p6f9c8df3c8)" style="fill: #1f77b4"/>
   </g>
   <g id="patch_81">
    <path d="M 184.832566 224.64 
L 186.348029 224.64 
L 186.348029 162.514286 
L 184.832566 162.514286 
z
" clip-path="url(#p6f9c8df3c8)" style="fill: #1f77b4"/>
   </g>
   <g id="patch_82">
    <path d="M 186.348029 224.64 
L 187.863491 224.64 
L 187.863491 144.27102 
L 186.348029 144.27102 
z
" clip-path="url(#p6f9c8df3c8)" style="fill: #1f77b4"/>
   </g>
   <g id="patch_83">
    <path d="M 187.863491 224.64 
L 189.378954 224.64 
L 189.378954 144.27102 
L 187.863491 144.27102 
z
" clip-path="url(#p6f9c8df3c8)" style="fill: #1f77b4"/>
   </g>
   <g id="patch_84">
    <path d="M 189.378954 224.64 
L 190.894416 224.64 
L 190.894416 132.437551 
L 189.378954 132.437551 
z
" clip-path="url(#p6f9c8df3c8)" style="fill: #1f77b4"/>
   </g>
   <g id="patch_85">
    <path d="M 190.894416 224.64 
L 192.409879 224.64 
L 192.409879 149.694694 
L 190.894416 149.694694 
z
" clip-path="url(#p6f9c8df3c8)" style="fill: #1f77b4"/>
   </g>
   <g id="patch_86">
    <path d="M 192.409879 224.64 
L 193.925341 224.64 
L 193.925341 149.694694 
L 192.409879 149.694694 
z
" clip-path="url(#p6f9c8df3c8)" style="fill: #1f77b4"/>
   </g>
   <g id="patch_87">
    <path d="M 193.925341 224.64 
L 195.440804 224.64 
L 195.440804 129.479184 
L 193.925341 129.479184 
z
" clip-path="url(#p6f9c8df3c8)" style="fill: #1f77b4"/>
   </g>
   <g id="patch_88">
    <path d="M 195.440804 224.64 
L 196.956266 224.64 
L 196.956266 148.708571 
L 195.440804 148.708571 
z
" clip-path="url(#p6f9c8df3c8)" style="fill: #1f77b4"/>
   </g>
   <g id="patch_89">
    <path d="M 196.956266 224.64 
L 198.471729 224.64 
L 198.471729 131.94449 
L 196.956266 131.94449 
z
" clip-path="url(#p6f9c8df3c8)" style="fill: #1f77b4"/>
   </g>
   <g id="patch_90">
    <path d="M 198.471729 224.64 
L 199.987191 224.64 
L 199.987191 132.437551 
L 198.471729 132.437551 
z
" clip-path="url(#p6f9c8df3c8)" style="fill: #1f77b4"/>
   </g>
   <g id="patch_91">
    <path d="M 199.987191 224.64 
L 201.502654 224.64 
L 201.502654 147.722449 
L 199.987191 147.722449 
z
" clip-path="url(#p6f9c8df3c8)" style="fill: #1f77b4"/>
   </g>
   <g id="patch_92">
    <path d="M 201.502654 224.64 
L 203.018116 224.64 
L 203.018116 138.354286 
L 201.502654 138.354286 
z
" clip-path="url(#p6f9c8df3c8)" style="fill: #1f77b4"/>
   </g>
   <g id="patch_93">
    <path d="M 203.018116 224.64 
L 204.533579 224.64 
L 204.533579 143.284898 
L 203.018116 143.284898 
z
" clip-path="url(#p6f9c8df3c8)" style="fill: #1f77b4"/>
   </g>
   <g id="patch_94">
    <path d="M 204.533579 224.64 
L 206.049041 224.64 
L 206.049041 139.340408 
L 204.533579 139.340408 
z
" clip-path="url(#p6f9c8df3c8)" style="fill: #1f77b4"/>
   </g>
   <g id="patch_95">
    <path d="M 206.049041 224.64 
L 207.564504 224.64 
L 207.564504 147.229388 
L 206.049041 147.229388 
z
" clip-path="url(#p6f9c8df3c8)" style="fill: #1f77b4"/>
   </g>
   <g id="patch_96">
    <path d="M 207.564504 224.64 
L 209.079966 224.64 
L 209.079966 134.409796 
L 207.564504 134.409796 
z
" clip-path="url(#p6f9c8df3c8)" style="fill: #1f77b4"/>
   </g>
   <g id="patch_97">
    <path d="M 209.079966 224.64 
L 210.595429 224.64 
L 210.595429 126.027755 
L 209.079966 126.027755 
z
" clip-path="url(#p6f9c8df3c8)" style="fill: #1f77b4"/>
   </g>
   <g id="patch_98">
    <path d="M 210.595429 224.64 
L 212.110891 224.64 
L 212.110891 137.368163 
L 210.595429 137.368163 
z
" clip-path="url(#p6f9c8df3c8)" style="fill: #1f77b4"/>
   </g>
   <g id="patch_99">
    <path d="M 212.110891 224.64 
L 213.626354 224.64 
L 213.626354 132.930612 
L 212.110891 132.930612 
z
" clip-path="url(#p6f9c8df3c8)" style="fill: #1f77b4"/>
   </g>
   <g id="patch_100">
    <path d="M 213.626354 224.64 
L 215.141816 224.64 
L 215.141816 118.631837 
L 213.626354 118.631837 
z
" clip-path="url(#p6f9c8df3c8)" style="fill: #1f77b4"/>
   </g>
   <g id="patch_101">
    <path d="M 215.141816 224.64 
L 216.657279 224.64 
L 216.657279 122.576327 
L 215.141816 122.576327 
z
" clip-path="url(#p6f9c8df3c8)" style="fill: #1f77b4"/>
   </g>
   <g id="patch_102">
    <path d="M 216.657279 224.64 
L 218.172741 224.64 
L 218.172741 131.94449 
L 216.657279 131.94449 
z
" clip-path="url(#p6f9c8df3c8)" style="fill: #1f77b4"/>
   </g>
   <g id="patch_103">
    <path d="M 218.172741 224.64 
L 219.688204 224.64 
L 219.688204 133.916735 
L 218.172741 133.916735 
z
" clip-path="url(#p6f9c8df3c8)" style="fill: #1f77b4"/>
   </g>
   <g id="patch_104">
    <path d="M 219.688204 224.64 
L 221.203666 224.64 
L 221.203666 120.604082 
L 219.688204 120.604082 
z
" clip-path="url(#p6f9c8df3c8)" style="fill: #1f77b4"/>
   </g>
   <g id="patch_105">
    <path d="M 221.203666 224.64 
L 222.719129 224.64 
L 222.719129 128.986122 
L 221.203666 128.986122 
z
" clip-path="url(#p6f9c8df3c8)" style="fill: #1f77b4"/>
   </g>
   <g id="patch_106">
    <path d="M 222.719129 224.64 
L 224.234591 224.64 
L 224.234591 112.222041 
L 222.719129 112.222041 
z
" clip-path="url(#p6f9c8df3c8)" style="fill: #1f77b4"/>
   </g>
   <g id="patch_107">
    <path d="M 224.234591 224.64 
L 225.750054 224.64 
L 225.750054 128.493061 
L 224.234591 128.493061 
z
" clip-path="url(#p6f9c8df3c8)" style="fill: #1f77b4"/>
   </g>
   <g id="patch_108">
    <path d="M 225.750054 224.64 
L 227.265516 224.64 
L 227.265516 119.124898 
L 225.750054 119.124898 
z
" clip-path="url(#p6f9c8df3c8)" style="fill: #1f77b4"/>
   </g>
   <g id="patch_109">
    <path d="M 227.265516 224.64 
L 228.780979 224.64 
L 228.780979 124.548571 
L 227.265516 124.548571 
z
" clip-path="url(#p6f9c8df3c8)" style="fill: #1f77b4"/>
   </g>
   <g id="patch_110">
    <path d="M 228.780979 224.64 
L 230.296442 224.64 
L 230.296442 100.881633 
L 228.780979 100.881633 
z
" clip-path="url(#p6f9c8df3c8)" style="fill: #1f77b4"/>
   </g>
   <g id="patch_111">
    <path d="M 230.296442 224.64 
L 231.811904 224.64 
L 231.811904 106.798367 
L 230.296442 106.798367 
z
" clip-path="url(#p6f9c8df3c8)" style="fill: #1f77b4"/>
   </g>
   <g id="patch_112">
    <path d="M 231.811904 224.64 
L 233.327367 224.64 
L 233.327367 114.194286 
L 231.811904 114.194286 
z
" clip-path="url(#p6f9c8df3c8)" style="fill: #1f77b4"/>
   </g>
   <g id="patch_113">
    <path d="M 233.327367 224.64 
L 234.842829 224.64 
L 234.842829 116.659592 
L 233.327367 116.659592 
z
" clip-path="url(#p6f9c8df3c8)" style="fill: #1f77b4"/>
   </g>
   <g id="patch_114">
    <path d="M 234.842829 224.64 
L 236.358292 224.64 
L 236.358292 105.812245 
L 234.842829 105.812245 
z
" clip-path="url(#p6f9c8df3c8)" style="fill: #1f77b4"/>
   </g>
   <g id="patch_115">
    <path d="M 236.358292 224.64 
L 237.873754 224.64 
L 237.873754 125.534694 
L 236.358292 125.534694 
z
" clip-path="url(#p6f9c8df3c8)" style="fill: #1f77b4"/>
   </g>
   <g id="patch_116">
    <path d="M 237.873754 224.64 
L 239.389217 224.64 
L 239.389217 117.152653 
L 237.873754 117.152653 
z
" clip-path="url(#p6f9c8df3c8)" style="fill: #1f77b4"/>
   </g>
   <g id="patch_117">
    <path d="M 239.389217 224.64 
L 240.904679 224.64 
L 240.904679 130.465306 
L 239.389217 130.465306 
z
" clip-path="url(#p6f9c8df3c8)" style="fill: #1f77b4"/>
   </g>
   <g id="patch_118">
    <path d="M 240.904679 224.64 
L 242.420142 224.64 
L 242.420142 124.05551 
L 240.904679 124.05551 
z
" clip-path="url(#p6f9c8df3c8)" style="fill: #1f77b4"/>
   </g>
   <g id="patch_119">
    <path d="M 242.420142 224.64 
L 243.935604 224.64 
L 243.935604 103.346939 
L 242.420142 103.346939 
z
" clip-path="url(#p6f9c8df3c8)" style="fill: #1f77b4"/>
   </g>
   <g id="patch_120">
    <path d="M 243.935604 224.64 
L 245.451067 224.64 
L 245.451067 106.798367 
L 243.935604 106.798367 
z
" clip-path="url(#p6f9c8df3c8)" style="fill: #1f77b4"/>
   </g>
   <g id="patch_121">
    <path d="M 245.451067 224.64 
L 246.966529 224.64 
L 246.966529 113.701224 
L 245.451067 113.701224 
z
" clip-path="url(#p6f9c8df3c8)" style="fill: #1f77b4"/>
   </g>
   <g id="patch_122">
    <path d="M 246.966529 224.64 
L 248.481992 224.64 
L 248.481992 113.701224 
L 246.966529 113.701224 
z
" clip-path="url(#p6f9c8df3c8)" style="fill: #1f77b4"/>
   </g>
   <g id="patch_123">
    <path d="M 248.481992 224.64 
L 249.997454 224.64 
L 249.997454 95.95102 
L 248.481992 95.95102 
z
" clip-path="url(#p6f9c8df3c8)" style="fill: #1f77b4"/>
   </g>
   <g id="patch_124">
    <path d="M 249.997454 224.64 
L 251.512917 224.64 
L 251.512917 106.305306 
L 249.997454 106.305306 
z
" clip-path="url(#p6f9c8df3c8)" style="fill: #1f77b4"/>
   </g>
   <g id="patch_125">
    <path d="M 251.512917 224.64 
L 253.028379 224.64 
L 253.028379 97.430204 
L 251.512917 97.430204 
z
" clip-path="url(#p6f9c8df3c8)" style="fill: #1f77b4"/>
   </g>
   <g id="patch_126">
    <path d="M 253.028379 224.64 
L 254.543842 224.64 
L 254.543842 107.291429 
L 253.028379 107.291429 
z
" clip-path="url(#p6f9c8df3c8)" style="fill: #1f77b4"/>
   </g>
   <g id="patch_127">
    <path d="M 254.543842 224.64 
L 256.059304 224.64 
L 256.059304 111.72898 
L 254.543842 111.72898 
z
" clip-path="url(#p6f9c8df3c8)" style="fill: #1f77b4"/>
   </g>
   <g id="patch_128">
    <path d="M 256.059304 224.64 
L 257.574767 224.64 
L 257.574767 110.249796 
L 256.059304 110.249796 
z
" clip-path="url(#p6f9c8df3c8)" style="fill: #1f77b4"/>
   </g>
   <g id="patch_129">
    <path d="M 257.574767 224.64 
L 259.090229 224.64 
L 259.090229 99.89551 
L 257.574767 99.89551 
z
" clip-path="url(#p6f9c8df3c8)" style="fill: #1f77b4"/>
   </g>
   <g id="patch_130">
    <path d="M 259.090229 224.64 
L 260.605692 224.64 
L 260.605692 98.909388 
L 259.090229 98.909388 
z
" clip-path="url(#p6f9c8df3c8)" style="fill: #1f77b4"/>
   </g>
   <g id="patch_131">
    <path d="M 260.605692 224.64 
L 262.121154 224.64 
L 262.121154 91.513469 
L 260.605692 91.513469 
z
" clip-path="url(#p6f9c8df3c8)" style="fill: #1f77b4"/>
   </g>
   <g id="patch_132">
    <path d="M 262.121154 224.64 
L 263.636617 224.64 
L 263.636617 107.78449 
L 262.121154 107.78449 
z
" clip-path="url(#p6f9c8df3c8)" style="fill: #1f77b4"/>
   </g>
   <g id="patch_133">
    <path d="M 263.636617 224.64 
L 265.152079 224.64 
L 265.152079 91.513469 
L 263.636617 91.513469 
z
" clip-path="url(#p6f9c8df3c8)" style="fill: #1f77b4"/>
   </g>
   <g id="patch_134">
    <path d="M 265.152079 224.64 
L 266.667542 224.64 
L 266.667542 86.089796 
L 265.152079 86.089796 
z
" clip-path="url(#p6f9c8df3c8)" style="fill: #1f77b4"/>
   </g>
   <g id="patch_135">
    <path d="M 266.667542 224.64 
L 268.183004 224.64 
L 268.183004 97.430204 
L 266.667542 97.430204 
z
" clip-path="url(#p6f9c8df3c8)" style="fill: #1f77b4"/>
   </g>
   <g id="patch_136">
    <path d="M 268.183004 224.64 
L 269.698467 224.64 
L 269.698467 100.388571 
L 268.183004 100.388571 
z
" clip-path="url(#p6f9c8df3c8)" style="fill: #1f77b4"/>
   </g>
   <g id="patch_137">
    <path d="M 269.698467 224.64 
L 271.213929 224.64 
L 271.213929 91.513469 
L 269.698467 91.513469 
z
" clip-path="url(#p6f9c8df3c8)" style="fill: #1f77b4"/>
   </g>
   <g id="patch_138">
    <path d="M 271.213929 224.64 
L 272.729392 224.64 
L 272.729392 90.527347 
L 271.213929 90.527347 
z
" clip-path="url(#p6f9c8df3c8)" style="fill: #1f77b4"/>
   </g>
   <g id="patch_139">
    <path d="M 272.729392 224.64 
L 274.244854 224.64 
L 274.244854 75.242449 
L 272.729392 75.242449 
z
" clip-path="url(#p6f9c8df3c8)" style="fill: #1f77b4"/>
   </g>
   <g id="patch_140">
    <path d="M 274.244854 224.64 
L 275.760317 224.64 
L 275.760317 85.596735 
L 274.244854 85.596735 
z
" clip-path="url(#p6f9c8df3c8)" style="fill: #1f77b4"/>
   </g>
   <g id="patch_141">
    <path d="M 275.760317 224.64 
L 277.275779 224.64 
L 277.275779 96.444082 
L 275.760317 96.444082 
z
" clip-path="url(#p6f9c8df3c8)" style="fill: #1f77b4"/>
   </g>
   <g id="patch_142">
    <path d="M 277.275779 224.64 
L 278.791242 224.64 
L 278.791242 87.56898 
L 277.275779 87.56898 
z
" clip-path="url(#p6f9c8df3c8)" style="fill: #1f77b4"/>
   </g>
   <g id="patch_143">
    <path d="M 278.791242 224.64 
L 280.306704 224.64 
L 280.306704 92.006531 
L 278.791242 92.006531 
z
" clip-path="url(#p6f9c8df3c8)" style="fill: #1f77b4"/>
   </g>
   <g id="patch_144">
    <path d="M 280.306704 224.64 
L 281.822167 224.64 
L 281.822167 69.325714 
L 280.306704 69.325714 
z
" clip-path="url(#p6f9c8df3c8)" style="fill: #1f77b4"/>
   </g>
   <g id="patch_145">
    <path d="M 281.822167 224.64 
L 283.337629 224.64 
L 283.337629 83.62449 
L 281.822167 83.62449 
z
" clip-path="url(#p6f9c8df3c8)" style="fill: #1f77b4"/>
   </g>
   <g id="patch_146">
    <path d="M 283.337629 224.64 
L 284.853092 224.64 
L 284.853092 80.173061 
L 283.337629 80.173061 
z
" clip-path="url(#p6f9c8df3c8)" style="fill: #1f77b4"/>
   </g>
   <g id="patch_147">
    <path d="M 284.853092 224.64 
L 286.368554 224.64 
L 286.368554 93.978776 
L 284.853092 93.978776 
z
" clip-path="url(#p6f9c8df3c8)" style="fill: #1f77b4"/>
   </g>
   <g id="patch_148">
    <path d="M 286.368554 224.64 
L 287.884017 224.64 
L 287.884017 74.256327 
L 286.368554 74.256327 
z
" clip-path="url(#p6f9c8df3c8)" style="fill: #1f77b4"/>
   </g>
   <g id="patch_149">
    <path d="M 287.884017 224.64 
L 289.399479 224.64 
L 289.399479 97.430204 
L 287.884017 97.430204 
z
" clip-path="url(#p6f9c8df3c8)" style="fill: #1f77b4"/>
   </g>
   <g id="patch_150">
    <path d="M 289.399479 224.64 
L 290.914942 224.64 
L 290.914942 70.804898 
L 289.399479 70.804898 
z
" clip-path="url(#p6f9c8df3c8)" style="fill: #1f77b4"/>
   </g>
   <g id="patch_151">
    <path d="M 290.914942 224.64 
L 292.430404 224.64 
L 292.430404 80.666122 
L 290.914942 80.666122 
z
" clip-path="url(#p6f9c8df3c8)" style="fill: #1f77b4"/>
   </g>
   <g id="patch_152">
    <path d="M 292.430404 224.64 
L 293.945867 224.64 
L 293.945867 83.62449 
L 292.430404 83.62449 
z
" clip-path="url(#p6f9c8df3c8)" style="fill: #1f77b4"/>
   </g>
   <g id="patch_153">
    <path d="M 293.945867 224.64 
L 295.461329 224.64 
L 295.461329 90.034286 
L 293.945867 90.034286 
z
" clip-path="url(#p6f9c8df3c8)" style="fill: #1f77b4"/>
   </g>
   <g id="patch_154">
    <path d="M 295.461329 224.64 
L 296.976792 224.64 
L 296.976792 78.693878 
L 295.461329 78.693878 
z
" clip-path="url(#p6f9c8df3c8)" style="fill: #1f77b4"/>
   </g>
   <g id="patch_155">
    <path d="M 296.976792 224.64 
L 298.492254 224.64 
L 298.492254 69.325714 
L 296.976792 69.325714 
z
" clip-path="url(#p6f9c8df3c8)" style="fill: #1f77b4"/>
   </g>
   <g id="patch_156">
    <path d="M 298.492254 224.64 
L 300.007717 224.64 
L 300.007717 85.596735 
L 298.492254 85.596735 
z
" clip-path="url(#p6f9c8df3c8)" style="fill: #1f77b4"/>
   </g>
   <g id="patch_157">
    <path d="M 300.007717 224.64 
L 301.523179 224.64 
L 301.523179 86.089796 
L 300.007717 86.089796 
z
" clip-path="url(#p6f9c8df3c8)" style="fill: #1f77b4"/>
   </g>
   <g id="patch_158">
    <path d="M 301.523179 224.64 
L 303.038642 224.64 
L 303.038642 88.062041 
L 301.523179 88.062041 
z
" clip-path="url(#p6f9c8df3c8)" style="fill: #1f77b4"/>
   </g>
   <g id="patch_159">
    <path d="M 303.038642 224.64 
L 304.554104 224.64 
L 304.554104 59.957551 
L 303.038642 59.957551 
z
" clip-path="url(#p6f9c8df3c8)" style="fill: #1f77b4"/>
   </g>
   <g id="patch_160">
    <path d="M 304.554104 224.64 
L 306.069567 224.64 
L 306.069567 70.804898 
L 304.554104 70.804898 
z
" clip-path="url(#p6f9c8df3c8)" style="fill: #1f77b4"/>
   </g>
   <g id="patch_161">
    <path d="M 306.069567 224.64 
L 307.585029 224.64 
L 307.585029 77.214694 
L 306.069567 77.214694 
z
" clip-path="url(#p6f9c8df3c8)" style="fill: #1f77b4"/>
   </g>
   <g id="patch_162">
    <path d="M 307.585029 224.64 
L 309.100492 224.64 
L 309.100492 71.79102 
L 307.585029 71.79102 
z
" clip-path="url(#p6f9c8df3c8)" style="fill: #1f77b4"/>
   </g>
   <g id="patch_163">
    <path d="M 309.100492 224.64 
L 310.615954 224.64 
L 310.615954 72.284082 
L 309.100492 72.284082 
z
" clip-path="url(#p6f9c8df3c8)" style="fill: #1f77b4"/>
   </g>
   <g id="patch_164">
    <path d="M 310.615954 224.64 
L 312.131417 224.64 
L 312.131417 82.638367 
L 310.615954 82.638367 
z
" clip-path="url(#p6f9c8df3c8)" style="fill: #1f77b4"/>
   </g>
   <g id="patch_165">
    <path d="M 312.131417 224.64 
L 313.646879 224.64 
L 313.646879 63.40898 
L 312.131417 63.40898 
z
" clip-path="url(#p6f9c8df3c8)" style="fill: #1f77b4"/>
   </g>
   <g id="patch_166">
    <path d="M 313.646879 224.64 
L 315.162342 224.64 
L 315.162342 57.492245 
L 313.646879 57.492245 
z
" clip-path="url(#p6f9c8df3c8)" style="fill: #1f77b4"/>
   </g>
   <g id="patch_167">
    <path d="M 315.162342 224.64 
L 316.677804 224.64 
L 316.677804 59.957551 
L 315.162342 59.957551 
z
" clip-path="url(#p6f9c8df3c8)" style="fill: #1f77b4"/>
   </g>
   <g id="patch_168">
    <path d="M 316.677804 224.64 
L 318.193267 224.64 
L 318.193267 75.242449 
L 316.677804 75.242449 
z
" clip-path="url(#p6f9c8df3c8)" style="fill: #1f77b4"/>
   </g>
   <g id="patch_169">
    <path d="M 318.193267 224.64 
L 319.708729 224.64 
L 319.708729 47.63102 
L 318.193267 47.63102 
z
" clip-path="url(#p6f9c8df3c8)" style="fill: #1f77b4"/>
   </g>
   <g id="patch_170">
    <path d="M 319.708729 224.64 
L 321.224192 224.64 
L 321.224192 51.57551 
L 319.708729 51.57551 
z
" clip-path="url(#p6f9c8df3c8)" style="fill: #1f77b4"/>
   </g>
   <g id="patch_171">
    <path d="M 321.224192 224.64 
L 322.739654 224.64 
L 322.739654 55.52 
L 321.224192 55.52 
z
" clip-path="url(#p6f9c8df3c8)" style="fill: #1f77b4"/>
   </g>
   <g id="patch_172">
    <path d="M 322.739654 224.64 
L 324.255117 224.64 
L 324.255117 58.478367 
L 322.739654 58.478367 
z
" clip-path="url(#p6f9c8df3c8)" style="fill: #1f77b4"/>
   </g>
   <g id="patch_173">
    <path d="M 324.255117 224.64 
L 325.770579 224.64 
L 325.770579 58.971429 
L 324.255117 58.971429 
z
" clip-path="url(#p6f9c8df3c8)" style="fill: #1f77b4"/>
   </g>
   <g id="patch_174">
    <path d="M 325.770579 224.64 
L 327.286042 224.64 
L 327.286042 43.686531 
L 325.770579 43.686531 
z
" clip-path="url(#p6f9c8df3c8)" style="fill: #1f77b4"/>
   </g>
   <g id="patch_175">
    <path d="M 327.286042 224.64 
L 328.801504 224.64 
L 328.801504 39.742041 
L 327.286042 39.742041 
z
" clip-path="url(#p6f9c8df3c8)" style="fill: #1f77b4"/>
   </g>
   <g id="patch_176">
    <path d="M 328.801504 224.64 
L 330.316967 224.64 
L 330.316967 42.700408 
L 328.801504 42.700408 
z
" clip-path="url(#p6f9c8df3c8)" style="fill: #1f77b4"/>
   </g>
   <g id="patch_177">
    <path d="M 330.316967 224.64 
L 331.832429 224.64 
L 331.832429 59.957551 
L 330.316967 59.957551 
z
" clip-path="url(#p6f9c8df3c8)" style="fill: #1f77b4"/>
   </g>
   <g id="patch_178">
    <path d="M 331.832429 224.64 
L 333.347892 224.64 
L 333.347892 42.700408 
L 331.832429 42.700408 
z
" clip-path="url(#p6f9c8df3c8)" style="fill: #1f77b4"/>
   </g>
   <g id="patch_179">
    <path d="M 333.347892 224.64 
L 334.863354 224.64 
L 334.863354 41.714286 
L 333.347892 41.714286 
z
" clip-path="url(#p6f9c8df3c8)" style="fill: #1f77b4"/>
   </g>
   <g id="patch_180">
    <path d="M 334.863354 224.64 
L 336.378817 224.64 
L 336.378817 41.221224 
L 334.863354 41.221224 
z
" clip-path="url(#p6f9c8df3c8)" style="fill: #1f77b4"/>
   </g>
   <g id="patch_181">
    <path d="M 336.378817 224.64 
L 337.894279 224.64 
L 337.894279 50.589388 
L 336.378817 50.589388 
z
" clip-path="url(#p6f9c8df3c8)" style="fill: #1f77b4"/>
   </g>
   <g id="patch_182">
    <path d="M 337.894279 224.64 
L 339.409742 224.64 
L 339.409742 25.443265 
L 337.894279 25.443265 
z
" clip-path="url(#p6f9c8df3c8)" style="fill: #1f77b4"/>
   </g>
   <g id="patch_183">
    <path d="M 339.409742 224.64 
L 340.925204 224.64 
L 340.925204 67.353469 
L 339.409742 67.353469 
z
" clip-path="url(#p6f9c8df3c8)" style="fill: #1f77b4"/>
   </g>
   <g id="patch_184">
    <path d="M 340.925204 224.64 
L 342.440667 224.64 
L 342.440667 62.915918 
L 340.925204 62.915918 
z
" clip-path="url(#p6f9c8df3c8)" style="fill: #1f77b4"/>
   </g>
   <g id="patch_185">
    <path d="M 342.440667 224.64 
L 343.956129 224.64 
L 343.956129 42.207347 
L 342.440667 42.207347 
z
" clip-path="url(#p6f9c8df3c8)" style="fill: #1f77b4"/>
   </g>
   <g id="patch_186">
    <path d="M 343.956129 224.64 
L 345.471592 224.64 
L 345.471592 41.221224 
L 343.956129 41.221224 
z
" clip-path="url(#p6f9c8df3c8)" style="fill: #1f77b4"/>
   </g>
   <g id="patch_187">
    <path d="M 345.471592 224.64 
L 346.987054 224.64 
L 346.987054 29.387755 
L 345.471592 29.387755 
z
" clip-path="url(#p6f9c8df3c8)" style="fill: #1f77b4"/>
   </g>
   <g id="patch_188">
    <path d="M 346.987054 224.64 
L 348.502517 224.64 
L 348.502517 36.783673 
L 346.987054 36.783673 
z
" clip-path="url(#p6f9c8df3c8)" style="fill: #1f77b4"/>
   </g>
   <g id="patch_189">
    <path d="M 348.502517 224.64 
L 350.017979 224.64 
L 350.017979 38.262857 
L 348.502517 38.262857 
z
" clip-path="url(#p6f9c8df3c8)" style="fill: #1f77b4"/>
   </g>
   <g id="patch_190">
    <path d="M 350.017979 224.64 
L 351.533442 224.64 
L 351.533442 31.853061 
L 350.017979 31.853061 
z
" clip-path="url(#p6f9c8df3c8)" style="fill: #1f77b4"/>
   </g>
   <g id="patch_191">
    <path d="M 351.533442 224.64 
L 353.048904 224.64 
L 353.048904 38.755918 
L 351.533442 38.755918 
z
" clip-path="url(#p6f9c8df3c8)" style="fill: #1f77b4"/>
   </g>
   <g id="patch_192">
    <path d="M 353.048904 224.64 
L 354.564367 224.64 
L 354.564367 27.908571 
L 353.048904 27.908571 
z
" clip-path="url(#p6f9c8df3c8)" style="fill: #1f77b4"/>
   </g>
   <g id="patch_193">
    <path d="M 354.564367 224.64 
L 356.079829 224.64 
L 356.079829 54.533878 
L 354.564367 54.533878 
z
" clip-path="url(#p6f9c8df3c8)" style="fill: #1f77b4"/>
   </g>
   <g id="patch_194">
    <path d="M 356.079829 224.64 
L 357.595292 224.64 
L 357.595292 53.054694 
L 356.079829 53.054694 
z
" clip-path="url(#p6f9c8df3c8)" style="fill: #1f77b4"/>
   </g>
   <g id="patch_195">
    <path d="M 357.595292 224.64 
L 359.110754 224.64 
L 359.110754 31.36 
L 357.595292 31.36 
z
" clip-path="url(#p6f9c8df3c8)" style="fill: #1f77b4"/>
   </g>
   <g id="patch_196">
    <path d="M 359.110754 224.64 
L 360.626217 224.64 
L 360.626217 27.908571 
L 359.110754 27.908571 
z
" clip-path="url(#p6f9c8df3c8)" style="fill: #1f77b4"/>
   </g>
   <g id="patch_197">
    <path d="M 360.626217 224.64 
L 362.141679 224.64 
L 362.141679 21.498776 
L 360.626217 21.498776 
z
" clip-path="url(#p6f9c8df3c8)" style="fill: #1f77b4"/>
   </g>
   <g id="patch_198">
    <path d="M 362.141679 224.64 
L 363.657142 224.64 
L 363.657142 36.290612 
L 362.141679 36.290612 
z
" clip-path="url(#p6f9c8df3c8)" style="fill: #1f77b4"/>
   </g>
   <g id="patch_199">
    <path d="M 363.657142 224.64 
L 365.172604 224.64 
L 365.172604 19.033469 
L 363.657142 19.033469 
z
" clip-path="url(#p6f9c8df3c8)" style="fill: #1f77b4"/>
   </g>
   <g id="patch_200">
    <path d="M 365.172604 224.64 
L 366.688067 224.64 
L 366.688067 27.41551 
L 365.172604 27.41551 
z
" clip-path="url(#p6f9c8df3c8)" style="fill: #1f77b4"/>
   </g>
   <g id="patch_201">
    <path d="M 366.688067 224.64 
L 368.203529 224.64 
L 368.203529 29.880816 
L 366.688067 29.880816 
z
" clip-path="url(#p6f9c8df3c8)" style="fill: #1f77b4"/>
   </g>
   <g id="patch_202">
    <path d="M 368.203529 224.64 
L 369.718992 224.64 
L 369.718992 17.554286 
L 368.203529 17.554286 
z
" clip-path="url(#p6f9c8df3c8)" style="fill: #1f77b4"/>
   </g>
   <g id="matplotlib.axis_1">
    <g id="xtick_1">
     <g id="line2d_1">
      <defs>
       <path id="m9d8b305eeb" d="M 0 0 
L 0 3.5 
" style="stroke: #000000; stroke-width: 0.8"/>
      </defs>
      <g>
       <use xlink:href="#m9d8b305eeb" x="65.361932" y="224.64" style="stroke: #000000; stroke-width: 0.8"/>
      </g>
     </g>
     <g id="text_1">
      <!-- 0.0 -->
      <g transform="translate(57.410369 239.238437)scale(0.1 -0.1)">
       <defs>
        <path id="DejaVuSans-30" d="M 2034 4250 
Q 1547 4250 1301 3770 
Q 1056 3291 1056 2328 
Q 1056 1369 1301 889 
Q 1547 409 2034 409 
Q 2525 409 2770 889 
Q 3016 1369 3016 2328 
Q 3016 3291 2770 3770 
Q 2525 4250 2034 4250 
z
M 2034 4750 
Q 2819 4750 3233 4129 
Q 3647 3509 3647 2328 
Q 3647 1150 3233 529 
Q 2819 -91 2034 -91 
Q 1250 -91 836 529 
Q 422 1150 422 2328 
Q 422 3509 836 4129 
Q 1250 4750 2034 4750 
z
" transform="scale(0.015625)"/>
        <path id="DejaVuSans-2e" d="M 684 794 
L 1344 794 
L 1344 0 
L 684 0 
L 684 794 
z
" transform="scale(0.015625)"/>
       </defs>
       <use xlink:href="#DejaVuSans-30"/>
       <use xlink:href="#DejaVuSans-2e" x="63.623047"/>
       <use xlink:href="#DejaVuSans-30" x="95.410156"/>
      </g>
     </g>
    </g>
    <g id="xtick_2">
     <g id="line2d_2">
      <g>
       <use xlink:href="#m9d8b305eeb" x="126.234659" y="224.64" style="stroke: #000000; stroke-width: 0.8"/>
      </g>
     </g>
     <g id="text_2">
      <!-- 0.2 -->
      <g transform="translate(118.283097 239.238437)scale(0.1 -0.1)">
       <defs>
        <path id="DejaVuSans-32" d="M 1228 531 
L 3431 531 
L 3431 0 
L 469 0 
L 469 531 
Q 828 903 1448 1529 
Q 2069 2156 2228 2338 
Q 2531 2678 2651 2914 
Q 2772 3150 2772 3378 
Q 2772 3750 2511 3984 
Q 2250 4219 1831 4219 
Q 1534 4219 1204 4116 
Q 875 4013 500 3803 
L 500 4441 
Q 881 4594 1212 4672 
Q 1544 4750 1819 4750 
Q 2544 4750 2975 4387 
Q 3406 4025 3406 3419 
Q 3406 3131 3298 2873 
Q 3191 2616 2906 2266 
Q 2828 2175 2409 1742 
Q 1991 1309 1228 531 
z
" transform="scale(0.015625)"/>
       </defs>
       <use xlink:href="#DejaVuSans-30"/>
       <use xlink:href="#DejaVuSans-2e" x="63.623047"/>
       <use xlink:href="#DejaVuSans-32" x="95.410156"/>
      </g>
     </g>
    </g>
    <g id="xtick_3">
     <g id="line2d_3">
      <g>
       <use xlink:href="#m9d8b305eeb" x="187.107386" y="224.64" style="stroke: #000000; stroke-width: 0.8"/>
      </g>
     </g>
     <g id="text_3">
      <!-- 0.4 -->
      <g transform="translate(179.155824 239.238437)scale(0.1 -0.1)">
       <defs>
        <path id="DejaVuSans-34" d="M 2419 4116 
L 825 1625 
L 2419 1625 
L 2419 4116 
z
M 2253 4666 
L 3047 4666 
L 3047 1625 
L 3713 1625 
L 3713 1100 
L 3047 1100 
L 3047 0 
L 2419 0 
L 2419 1100 
L 313 1100 
L 313 1709 
L 2253 4666 
z
" transform="scale(0.015625)"/>
       </defs>
       <use xlink:href="#DejaVuSans-30"/>
       <use xlink:href="#DejaVuSans-2e" x="63.623047"/>
       <use xlink:href="#DejaVuSans-34" x="95.410156"/>
      </g>
     </g>
    </g>
    <g id="xtick_4">
     <g id="line2d_4">
      <g>
       <use xlink:href="#m9d8b305eeb" x="247.980114" y="224.64" style="stroke: #000000; stroke-width: 0.8"/>
      </g>
     </g>
     <g id="text_4">
      <!-- 0.6 -->
      <g transform="translate(240.028551 239.238437)scale(0.1 -0.1)">
       <defs>
        <path id="DejaVuSans-36" d="M 2113 2584 
Q 1688 2584 1439 2293 
Q 1191 2003 1191 1497 
Q 1191 994 1439 701 
Q 1688 409 2113 409 
Q 2538 409 2786 701 
Q 3034 994 3034 1497 
Q 3034 2003 2786 2293 
Q 2538 2584 2113 2584 
z
M 3366 4563 
L 3366 3988 
Q 3128 4100 2886 4159 
Q 2644 4219 2406 4219 
Q 1781 4219 1451 3797 
Q 1122 3375 1075 2522 
Q 1259 2794 1537 2939 
Q 1816 3084 2150 3084 
Q 2853 3084 3261 2657 
Q 3669 2231 3669 1497 
Q 3669 778 3244 343 
Q 2819 -91 2113 -91 
Q 1303 -91 875 529 
Q 447 1150 447 2328 
Q 447 3434 972 4092 
Q 1497 4750 2381 4750 
Q 2619 4750 2861 4703 
Q 3103 4656 3366 4563 
z
" transform="scale(0.015625)"/>
       </defs>
       <use xlink:href="#DejaVuSans-30"/>
       <use xlink:href="#DejaVuSans-2e" x="63.623047"/>
       <use xlink:href="#DejaVuSans-36" x="95.410156"/>
      </g>
     </g>
    </g>
    <g id="xtick_5">
     <g id="line2d_5">
      <g>
       <use xlink:href="#m9d8b305eeb" x="308.852841" y="224.64" style="stroke: #000000; stroke-width: 0.8"/>
      </g>
     </g>
     <g id="text_5">
      <!-- 0.8 -->
      <g transform="translate(300.901278 239.238437)scale(0.1 -0.1)">
       <defs>
        <path id="DejaVuSans-38" d="M 2034 2216 
Q 1584 2216 1326 1975 
Q 1069 1734 1069 1313 
Q 1069 891 1326 650 
Q 1584 409 2034 409 
Q 2484 409 2743 651 
Q 3003 894 3003 1313 
Q 3003 1734 2745 1975 
Q 2488 2216 2034 2216 
z
M 1403 2484 
Q 997 2584 770 2862 
Q 544 3141 544 3541 
Q 544 4100 942 4425 
Q 1341 4750 2034 4750 
Q 2731 4750 3128 4425 
Q 3525 4100 3525 3541 
Q 3525 3141 3298 2862 
Q 3072 2584 2669 2484 
Q 3125 2378 3379 2068 
Q 3634 1759 3634 1313 
Q 3634 634 3220 271 
Q 2806 -91 2034 -91 
Q 1263 -91 848 271 
Q 434 634 434 1313 
Q 434 1759 690 2068 
Q 947 2378 1403 2484 
z
M 1172 3481 
Q 1172 3119 1398 2916 
Q 1625 2713 2034 2713 
Q 2441 2713 2670 2916 
Q 2900 3119 2900 3481 
Q 2900 3844 2670 4047 
Q 2441 4250 2034 4250 
Q 1625 4250 1398 4047 
Q 1172 3844 1172 3481 
z
" transform="scale(0.015625)"/>
       </defs>
       <use xlink:href="#DejaVuSans-30"/>
       <use xlink:href="#DejaVuSans-2e" x="63.623047"/>
       <use xlink:href="#DejaVuSans-38" x="95.410156"/>
      </g>
     </g>
    </g>
    <g id="xtick_6">
     <g id="line2d_6">
      <g>
       <use xlink:href="#m9d8b305eeb" x="369.725568" y="224.64" style="stroke: #000000; stroke-width: 0.8"/>
      </g>
     </g>
     <g id="text_6">
      <!-- 1.0 -->
      <g transform="translate(361.774006 239.238437)scale(0.1 -0.1)">
       <defs>
        <path id="DejaVuSans-31" d="M 794 531 
L 1825 531 
L 1825 4091 
L 703 3866 
L 703 4441 
L 1819 4666 
L 2450 4666 
L 2450 531 
L 3481 531 
L 3481 0 
L 794 0 
L 794 531 
z
" transform="scale(0.015625)"/>
       </defs>
       <use xlink:href="#DejaVuSans-31"/>
       <use xlink:href="#DejaVuSans-2e" x="63.623047"/>
       <use xlink:href="#DejaVuSans-30" x="95.410156"/>
      </g>
     </g>
    </g>
    <g id="text_7">
     <!-- Propagation direction -->
     <g transform="translate(164.061719 252.916562)scale(0.1 -0.1)">
      <defs>
       <path id="DejaVuSans-50" d="M 1259 4147 
L 1259 2394 
L 2053 2394 
Q 2494 2394 2734 2622 
Q 2975 2850 2975 3272 
Q 2975 3691 2734 3919 
Q 2494 4147 2053 4147 
L 1259 4147 
z
M 628 4666 
L 2053 4666 
Q 2838 4666 3239 4311 
Q 3641 3956 3641 3272 
Q 3641 2581 3239 2228 
Q 2838 1875 2053 1875 
L 1259 1875 
L 1259 0 
L 628 0 
L 628 4666 
z
" transform="scale(0.015625)"/>
       <path id="DejaVuSans-72" d="M 2631 2963 
Q 2534 3019 2420 3045 
Q 2306 3072 2169 3072 
Q 1681 3072 1420 2755 
Q 1159 2438 1159 1844 
L 1159 0 
L 581 0 
L 581 3500 
L 1159 3500 
L 1159 2956 
Q 1341 3275 1631 3429 
Q 1922 3584 2338 3584 
Q 2397 3584 2469 3576 
Q 2541 3569 2628 3553 
L 2631 2963 
z
" transform="scale(0.015625)"/>
       <path id="DejaVuSans-6f" d="M 1959 3097 
Q 1497 3097 1228 2736 
Q 959 2375 959 1747 
Q 959 1119 1226 758 
Q 1494 397 1959 397 
Q 2419 397 2687 759 
Q 2956 1122 2956 1747 
Q 2956 2369 2687 2733 
Q 2419 3097 1959 3097 
z
M 1959 3584 
Q 2709 3584 3137 3096 
Q 3566 2609 3566 1747 
Q 3566 888 3137 398 
Q 2709 -91 1959 -91 
Q 1206 -91 779 398 
Q 353 888 353 1747 
Q 353 2609 779 3096 
Q 1206 3584 1959 3584 
z
" transform="scale(0.015625)"/>
       <path id="DejaVuSans-70" d="M 1159 525 
L 1159 -1331 
L 581 -1331 
L 581 3500 
L 1159 3500 
L 1159 2969 
Q 1341 3281 1617 3432 
Q 1894 3584 2278 3584 
Q 2916 3584 3314 3078 
Q 3713 2572 3713 1747 
Q 3713 922 3314 415 
Q 2916 -91 2278 -91 
Q 1894 -91 1617 61 
Q 1341 213 1159 525 
z
M 3116 1747 
Q 3116 2381 2855 2742 
Q 2594 3103 2138 3103 
Q 1681 3103 1420 2742 
Q 1159 2381 1159 1747 
Q 1159 1113 1420 752 
Q 1681 391 2138 391 
Q 2594 391 2855 752 
Q 3116 1113 3116 1747 
z
" transform="scale(0.015625)"/>
       <path id="DejaVuSans-61" d="M 2194 1759 
Q 1497 1759 1228 1600 
Q 959 1441 959 1056 
Q 959 750 1161 570 
Q 1363 391 1709 391 
Q 2188 391 2477 730 
Q 2766 1069 2766 1631 
L 2766 1759 
L 2194 1759 
z
M 3341 1997 
L 3341 0 
L 2766 0 
L 2766 531 
Q 2569 213 2275 61 
Q 1981 -91 1556 -91 
Q 1019 -91 701 211 
Q 384 513 384 1019 
Q 384 1609 779 1909 
Q 1175 2209 1959 2209 
L 2766 2209 
L 2766 2266 
Q 2766 2663 2505 2880 
Q 2244 3097 1772 3097 
Q 1472 3097 1187 3025 
Q 903 2953 641 2809 
L 641 3341 
Q 956 3463 1253 3523 
Q 1550 3584 1831 3584 
Q 2591 3584 2966 3190 
Q 3341 2797 3341 1997 
z
" transform="scale(0.015625)"/>
       <path id="DejaVuSans-67" d="M 2906 1791 
Q 2906 2416 2648 2759 
Q 2391 3103 1925 3103 
Q 1463 3103 1205 2759 
Q 947 2416 947 1791 
Q 947 1169 1205 825 
Q 1463 481 1925 481 
Q 2391 481 2648 825 
Q 2906 1169 2906 1791 
z
M 3481 434 
Q 3481 -459 3084 -895 
Q 2688 -1331 1869 -1331 
Q 1566 -1331 1297 -1286 
Q 1028 -1241 775 -1147 
L 775 -588 
Q 1028 -725 1275 -790 
Q 1522 -856 1778 -856 
Q 2344 -856 2625 -561 
Q 2906 -266 2906 331 
L 2906 616 
Q 2728 306 2450 153 
Q 2172 0 1784 0 
Q 1141 0 747 490 
Q 353 981 353 1791 
Q 353 2603 747 3093 
Q 1141 3584 1784 3584 
Q 2172 3584 2450 3431 
Q 2728 3278 2906 2969 
L 2906 3500 
L 3481 3500 
L 3481 434 
z
" transform="scale(0.015625)"/>
       <path id="DejaVuSans-74" d="M 1172 4494 
L 1172 3500 
L 2356 3500 
L 2356 3053 
L 1172 3053 
L 1172 1153 
Q 1172 725 1289 603 
Q 1406 481 1766 481 
L 2356 481 
L 2356 0 
L 1766 0 
Q 1100 0 847 248 
Q 594 497 594 1153 
L 594 3053 
L 172 3053 
L 172 3500 
L 594 3500 
L 594 4494 
L 1172 4494 
z
" transform="scale(0.015625)"/>
       <path id="DejaVuSans-69" d="M 603 3500 
L 1178 3500 
L 1178 0 
L 603 0 
L 603 3500 
z
M 603 4863 
L 1178 4863 
L 1178 4134 
L 603 4134 
L 603 4863 
z
" transform="scale(0.015625)"/>
       <path id="DejaVuSans-6e" d="M 3513 2113 
L 3513 0 
L 2938 0 
L 2938 2094 
Q 2938 2591 2744 2837 
Q 2550 3084 2163 3084 
Q 1697 3084 1428 2787 
Q 1159 2491 1159 1978 
L 1159 0 
L 581 0 
L 581 3500 
L 1159 3500 
L 1159 2956 
Q 1366 3272 1645 3428 
Q 1925 3584 2291 3584 
Q 2894 3584 3203 3211 
Q 3513 2838 3513 2113 
z
" transform="scale(0.015625)"/>
       <path id="DejaVuSans-20" transform="scale(0.015625)"/>
       <path id="DejaVuSans-64" d="M 2906 2969 
L 2906 4863 
L 3481 4863 
L 3481 0 
L 2906 0 
L 2906 525 
Q 2725 213 2448 61 
Q 2172 -91 1784 -91 
Q 1150 -91 751 415 
Q 353 922 353 1747 
Q 353 2572 751 3078 
Q 1150 3584 1784 3584 
Q 2172 3584 2448 3432 
Q 2725 3281 2906 2969 
z
M 947 1747 
Q 947 1113 1208 752 
Q 1469 391 1925 391 
Q 2381 391 2643 752 
Q 2906 1113 2906 1747 
Q 2906 2381 2643 2742 
Q 2381 3103 1925 3103 
Q 1469 3103 1208 2742 
Q 947 2381 947 1747 
z
" transform="scale(0.015625)"/>
       <path id="DejaVuSans-65" d="M 3597 1894 
L 3597 1613 
L 953 1613 
Q 991 1019 1311 708 
Q 1631 397 2203 397 
Q 2534 397 2845 478 
Q 3156 559 3463 722 
L 3463 178 
Q 3153 47 2828 -22 
Q 2503 -91 2169 -91 
Q 1331 -91 842 396 
Q 353 884 353 1716 
Q 353 2575 817 3079 
Q 1281 3584 2069 3584 
Q 2775 3584 3186 3129 
Q 3597 2675 3597 1894 
z
M 3022 2063 
Q 3016 2534 2758 2815 
Q 2500 3097 2075 3097 
Q 1594 3097 1305 2825 
Q 1016 2553 972 2059 
L 3022 2063 
z
" transform="scale(0.015625)"/>
       <path id="DejaVuSans-63" d="M 3122 3366 
L 3122 2828 
Q 2878 2963 2633 3030 
Q 2388 3097 2138 3097 
Q 1578 3097 1268 2742 
Q 959 2388 959 1747 
Q 959 1106 1268 751 
Q 1578 397 2138 397 
Q 2388 397 2633 464 
Q 2878 531 3122 666 
L 3122 134 
Q 2881 22 2623 -34 
Q 2366 -91 2075 -91 
Q 1284 -91 818 406 
Q 353 903 353 1747 
Q 353 2603 823 3093 
Q 1294 3584 2113 3584 
Q 2378 3584 2631 3529 
Q 2884 3475 3122 3366 
z
" transform="scale(0.015625)"/>
      </defs>
      <use xlink:href="#DejaVuSans-50"/>
      <use xlink:href="#DejaVuSans-72" x="58.552734"/>
      <use xlink:href="#DejaVuSans-6f" x="97.416016"/>
      <use xlink:href="#DejaVuSans-70" x="158.597656"/>
      <use xlink:href="#DejaVuSans-61" x="222.074219"/>
      <use xlink:href="#DejaVuSans-67" x="283.353516"/>
      <use xlink:href="#DejaVuSans-61" x="346.830078"/>
      <use xlink:href="#DejaVuSans-74" x="408.109375"/>
      <use xlink:href="#DejaVuSans-69" x="447.318359"/>
      <use xlink:href="#DejaVuSans-6f" x="475.101562"/>
      <use xlink:href="#DejaVuSans-6e" x="536.283203"/>
      <use xlink:href="#DejaVuSans-20" x="599.662109"/>
      <use xlink:href="#DejaVuSans-64" x="631.449219"/>
      <use xlink:href="#DejaVuSans-69" x="694.925781"/>
      <use xlink:href="#DejaVuSans-72" x="722.708984"/>
      <use xlink:href="#DejaVuSans-65" x="761.572266"/>
      <use xlink:href="#DejaVuSans-63" x="823.095703"/>
      <use xlink:href="#DejaVuSans-74" x="878.076172"/>
      <use xlink:href="#DejaVuSans-69" x="917.285156"/>
      <use xlink:href="#DejaVuSans-6f" x="945.068359"/>
      <use xlink:href="#DejaVuSans-6e" x="1006.25"/>
     </g>
    </g>
   </g>
   <g id="matplotlib.axis_2">
    <g id="ytick_1">
     <g id="line2d_7">
      <defs>
       <path id="mfaeba9cf64" d="M 0 0 
L -3.5 0 
" style="stroke: #000000; stroke-width: 0.8"/>
      </defs>
      <g>
       <use xlink:href="#mfaeba9cf64" x="50.14375" y="224.64" style="stroke: #000000; stroke-width: 0.8"/>
      </g>
     </g>
     <g id="text_8">
      <!-- 0.00 -->
      <g transform="translate(20.878125 228.439219)scale(0.1 -0.1)">
       <use xlink:href="#DejaVuSans-30"/>
       <use xlink:href="#DejaVuSans-2e" x="63.623047"/>
       <use xlink:href="#DejaVuSans-30" x="95.410156"/>
       <use xlink:href="#DejaVuSans-30" x="159.033203"/>
      </g>
     </g>
    </g>
    <g id="ytick_2">
     <g id="line2d_8">
      <g>
       <use xlink:href="#mfaeba9cf64" x="50.14375" y="200.089899" style="stroke: #000000; stroke-width: 0.8"/>
      </g>
     </g>
     <g id="text_9">
      <!-- 0.25 -->
      <g transform="translate(20.878125 203.889118)scale(0.1 -0.1)">
       <defs>
        <path id="DejaVuSans-35" d="M 691 4666 
L 3169 4666 
L 3169 4134 
L 1269 4134 
L 1269 2991 
Q 1406 3038 1543 3061 
Q 1681 3084 1819 3084 
Q 2600 3084 3056 2656 
Q 3513 2228 3513 1497 
Q 3513 744 3044 326 
Q 2575 -91 1722 -91 
Q 1428 -91 1123 -41 
Q 819 9 494 109 
L 494 744 
Q 775 591 1075 516 
Q 1375 441 1709 441 
Q 2250 441 2565 725 
Q 2881 1009 2881 1497 
Q 2881 1984 2565 2268 
Q 2250 2553 1709 2553 
Q 1456 2553 1204 2497 
Q 953 2441 691 2322 
L 691 4666 
z
" transform="scale(0.015625)"/>
       </defs>
       <use xlink:href="#DejaVuSans-30"/>
       <use xlink:href="#DejaVuSans-2e" x="63.623047"/>
       <use xlink:href="#DejaVuSans-32" x="95.410156"/>
       <use xlink:href="#DejaVuSans-35" x="159.033203"/>
      </g>
     </g>
    </g>
    <g id="ytick_3">
     <g id="line2d_9">
      <g>
       <use xlink:href="#mfaeba9cf64" x="50.14375" y="175.539798" style="stroke: #000000; stroke-width: 0.8"/>
      </g>
     </g>
     <g id="text_10">
      <!-- 0.50 -->
      <g transform="translate(20.878125 179.339017)scale(0.1 -0.1)">
       <use xlink:href="#DejaVuSans-30"/>
       <use xlink:href="#DejaVuSans-2e" x="63.623047"/>
       <use xlink:href="#DejaVuSans-35" x="95.410156"/>
       <use xlink:href="#DejaVuSans-30" x="159.033203"/>
      </g>
     </g>
    </g>
    <g id="ytick_4">
     <g id="line2d_10">
      <g>
       <use xlink:href="#mfaeba9cf64" x="50.14375" y="150.989697" style="stroke: #000000; stroke-width: 0.8"/>
      </g>
     </g>
     <g id="text_11">
      <!-- 0.75 -->
      <g transform="translate(20.878125 154.788916)scale(0.1 -0.1)">
       <defs>
        <path id="DejaVuSans-37" d="M 525 4666 
L 3525 4666 
L 3525 4397 
L 1831 0 
L 1172 0 
L 2766 4134 
L 525 4134 
L 525 4666 
z
" transform="scale(0.015625)"/>
       </defs>
       <use xlink:href="#DejaVuSans-30"/>
       <use xlink:href="#DejaVuSans-2e" x="63.623047"/>
       <use xlink:href="#DejaVuSans-37" x="95.410156"/>
       <use xlink:href="#DejaVuSans-35" x="159.033203"/>
      </g>
     </g>
    </g>
    <g id="ytick_5">
     <g id="line2d_11">
      <g>
       <use xlink:href="#mfaeba9cf64" x="50.14375" y="126.439597" style="stroke: #000000; stroke-width: 0.8"/>
      </g>
     </g>
     <g id="text_12">
      <!-- 1.00 -->
      <g transform="translate(20.878125 130.238815)scale(0.1 -0.1)">
       <use xlink:href="#DejaVuSans-31"/>
       <use xlink:href="#DejaVuSans-2e" x="63.623047"/>
       <use xlink:href="#DejaVuSans-30" x="95.410156"/>
       <use xlink:href="#DejaVuSans-30" x="159.033203"/>
      </g>
     </g>
    </g>
    <g id="ytick_6">
     <g id="line2d_12">
      <g>
       <use xlink:href="#mfaeba9cf64" x="50.14375" y="101.889496" style="stroke: #000000; stroke-width: 0.8"/>
      </g>
     </g>
     <g id="text_13">
      <!-- 1.25 -->
      <g transform="translate(20.878125 105.688714)scale(0.1 -0.1)">
       <use xlink:href="#DejaVuSans-31"/>
       <use xlink:href="#DejaVuSans-2e" x="63.623047"/>
       <use xlink:href="#DejaVuSans-32" x="95.410156"/>
       <use xlink:href="#DejaVuSans-35" x="159.033203"/>
      </g>
     </g>
    </g>
    <g id="ytick_7">
     <g id="line2d_13">
      <g>
       <use xlink:href="#mfaeba9cf64" x="50.14375" y="77.339395" style="stroke: #000000; stroke-width: 0.8"/>
      </g>
     </g>
     <g id="text_14">
      <!-- 1.50 -->
      <g transform="translate(20.878125 81.138614)scale(0.1 -0.1)">
       <use xlink:href="#DejaVuSans-31"/>
       <use xlink:href="#DejaVuSans-2e" x="63.623047"/>
       <use xlink:href="#DejaVuSans-35" x="95.410156"/>
       <use xlink:href="#DejaVuSans-30" x="159.033203"/>
      </g>
     </g>
    </g>
    <g id="ytick_8">
     <g id="line2d_14">
      <g>
       <use xlink:href="#mfaeba9cf64" x="50.14375" y="52.789294" style="stroke: #000000; stroke-width: 0.8"/>
      </g>
     </g>
     <g id="text_15">
      <!-- 1.75 -->
      <g transform="translate(20.878125 56.588513)scale(0.1 -0.1)">
       <use xlink:href="#DejaVuSans-31"/>
       <use xlink:href="#DejaVuSans-2e" x="63.623047"/>
       <use xlink:href="#DejaVuSans-37" x="95.410156"/>
       <use xlink:href="#DejaVuSans-35" x="159.033203"/>
      </g>
     </g>
    </g>
    <g id="ytick_9">
     <g id="line2d_15">
      <g>
       <use xlink:href="#mfaeba9cf64" x="50.14375" y="28.239193" style="stroke: #000000; stroke-width: 0.8"/>
      </g>
     </g>
     <g id="text_16">
      <!-- 2.00 -->
      <g transform="translate(20.878125 32.038412)scale(0.1 -0.1)">
       <use xlink:href="#DejaVuSans-32"/>
       <use xlink:href="#DejaVuSans-2e" x="63.623047"/>
       <use xlink:href="#DejaVuSans-30" x="95.410156"/>
       <use xlink:href="#DejaVuSans-30" x="159.033203"/>
      </g>
     </g>
    </g>
    <g id="text_17">
     <!-- Probability density -->
     <g transform="translate(14.798438 162.270781)rotate(-90)scale(0.1 -0.1)">
      <defs>
       <path id="DejaVuSans-62" d="M 3116 1747 
Q 3116 2381 2855 2742 
Q 2594 3103 2138 3103 
Q 1681 3103 1420 2742 
Q 1159 2381 1159 1747 
Q 1159 1113 1420 752 
Q 1681 391 2138 391 
Q 2594 391 2855 752 
Q 3116 1113 3116 1747 
z
M 1159 2969 
Q 1341 3281 1617 3432 
Q 1894 3584 2278 3584 
Q 2916 3584 3314 3078 
Q 3713 2572 3713 1747 
Q 3713 922 3314 415 
Q 2916 -91 2278 -91 
Q 1894 -91 1617 61 
Q 1341 213 1159 525 
L 1159 0 
L 581 0 
L 581 4863 
L 1159 4863 
L 1159 2969 
z
" transform="scale(0.015625)"/>
       <path id="DejaVuSans-6c" d="M 603 4863 
L 1178 4863 
L 1178 0 
L 603 0 
L 603 4863 
z
" transform="scale(0.015625)"/>
       <path id="DejaVuSans-79" d="M 2059 -325 
Q 1816 -950 1584 -1140 
Q 1353 -1331 966 -1331 
L 506 -1331 
L 506 -850 
L 844 -850 
Q 1081 -850 1212 -737 
Q 1344 -625 1503 -206 
L 1606 56 
L 191 3500 
L 800 3500 
L 1894 763 
L 2988 3500 
L 3597 3500 
L 2059 -325 
z
" transform="scale(0.015625)"/>
       <path id="DejaVuSans-73" d="M 2834 3397 
L 2834 2853 
Q 2591 2978 2328 3040 
Q 2066 3103 1784 3103 
Q 1356 3103 1142 2972 
Q 928 2841 928 2578 
Q 928 2378 1081 2264 
Q 1234 2150 1697 2047 
L 1894 2003 
Q 2506 1872 2764 1633 
Q 3022 1394 3022 966 
Q 3022 478 2636 193 
Q 2250 -91 1575 -91 
Q 1294 -91 989 -36 
Q 684 19 347 128 
L 347 722 
Q 666 556 975 473 
Q 1284 391 1588 391 
Q 1994 391 2212 530 
Q 2431 669 2431 922 
Q 2431 1156 2273 1281 
Q 2116 1406 1581 1522 
L 1381 1569 
Q 847 1681 609 1914 
Q 372 2147 372 2553 
Q 372 3047 722 3315 
Q 1072 3584 1716 3584 
Q 2034 3584 2315 3537 
Q 2597 3491 2834 3397 
z
" transform="scale(0.015625)"/>
      </defs>
      <use xlink:href="#DejaVuSans-50"/>
      <use xlink:href="#DejaVuSans-72" x="58.552734"/>
      <use xlink:href="#DejaVuSans-6f" x="97.416016"/>
      <use xlink:href="#DejaVuSans-62" x="158.597656"/>
      <use xlink:href="#DejaVuSans-61" x="222.074219"/>
      <use xlink:href="#DejaVuSans-62" x="283.353516"/>
      <use xlink:href="#DejaVuSans-69" x="346.830078"/>
      <use xlink:href="#DejaVuSans-6c" x="374.613281"/>
      <use xlink:href="#DejaVuSans-69" x="402.396484"/>
      <use xlink:href="#DejaVuSans-74" x="430.179688"/>
      <use xlink:href="#DejaVuSans-79" x="469.388672"/>
      <use xlink:href="#DejaVuSans-20" x="528.568359"/>
      <use xlink:href="#DejaVuSans-64" x="560.355469"/>
      <use xlink:href="#DejaVuSans-65" x="623.832031"/>
      <use xlink:href="#DejaVuSans-6e" x="685.355469"/>
      <use xlink:href="#DejaVuSans-73" x="748.734375"/>
      <use xlink:href="#DejaVuSans-69" x="800.833984"/>
      <use xlink:href="#DejaVuSans-74" x="828.617188"/>
      <use xlink:href="#DejaVuSans-79" x="867.826172"/>
     </g>
    </g>
   </g>
   <g id="line2d_16">
    <path d="M 65.361932 224.64 
L 369.725568 28.239193 
L 369.725568 28.239193 
" clip-path="url(#p6f9c8df3c8)" style="fill: none; stroke: #ff7f0e; stroke-width: 1.5; stroke-linecap: square"/>
   </g>
   <g id="patch_203">
    <path d="M 50.14375 224.64 
L 50.14375 7.2 
" style="fill: none; stroke: #000000; stroke-width: 0.8; stroke-linejoin: miter; stroke-linecap: square"/>
   </g>
   <g id="patch_204">
    <path d="M 384.94375 224.64 
L 384.94375 7.2 
" style="fill: none; stroke: #000000; stroke-width: 0.8; stroke-linejoin: miter; stroke-linecap: square"/>
   </g>
   <g id="patch_205">
    <path d="M 50.14375 224.64 
L 384.94375 224.64 
" style="fill: none; stroke: #000000; stroke-width: 0.8; stroke-linejoin: miter; stroke-linecap: square"/>
   </g>
   <g id="patch_206">
    <path d="M 50.14375 7.2 
L 384.94375 7.2 
" style="fill: none; stroke: #000000; stroke-width: 0.8; stroke-linejoin: miter; stroke-linecap: square"/>
   </g>
  </g>
 </g>
 <defs>
  <clipPath id="p6f9c8df3c8">
   <rect x="50.14375" y="7.2" width="334.8" height="217.44"/>
  </clipPath>
 </defs>
</svg>
