<?xml version="1.0" encoding="utf-8" standalone="no"?>
<!DOCTYPE svg PUBLIC "-//W3C//DTD SVG 1.1//EN"
  "http://www.w3.org/Graphics/SVG/1.1/DTD/svg11.dtd">
<svg xmlns:xlink="http://www.w3.org/1999/xlink" width="385.78125pt" height="262.19625pt" viewBox="0 0 385.78125 262.19625" xmlns="http://www.w3.org/2000/svg" version="1.1">
 <metadata>
  <rdf:RDF xmlns:dc="http://purl.org/dc/elements/1.1/" xmlns:cc="http://creativecommons.org/ns#" xmlns:rdf="http://www.w3.org/1999/02/22-rdf-syntax-ns#">
   <cc:Work>
    <dc:type rdf:resource="http://purl.org/dc/dcmitype/StillImage"/>
    <dc:date>2022-11-12T17:41:13.219994</dc:date>
    <dc:format>image/svg+xml</dc:format>
    <dc:creator>
     <cc:Agent>
      <dc:title>Matplotlib v3.5.2, https://matplotlib.org/</dc:title>
     </cc:Agent>
    </dc:creator>
   </cc:Work>
  </rdf:RDF>
 </metadata>
 <defs>
  <style type="text/css">*{stroke-linejoin: round; stroke-linecap: butt}</style>
 </defs>
 <g id="figure_1">
  <g id="patch_1">
   <path d="M 0 262.19625 
L 385.78125 262.19625 
L 385.78125 0 
L 0 0 
L 0 262.19625 
z
" style="fill: none"/>
  </g>
  <g id="axes_1">
   <g id="patch_2">
    <path d="M 43.78125 224.64 
L 378.58125 224.64 
L 378.58125 7.2 
L 43.78125 7.2 
z
" style="fill: #ffffff"/>
   </g>
   <g id="patch_3">
    <path d="M 59.892231 224.64 
L 61.406836 224.64 
L 61.406836 221.833961 
L 59.892231 221.833961 
z
" clip-path="url(#p373e463f39)" style="fill: #1f77b4"/>
   </g>
   <g id="patch_4">
    <path d="M 61.406836 224.64 
L 62.92144 224.64 
L 62.92144 220.150337 
L 61.406836 220.150337 
z
" clip-path="url(#p373e463f39)" style="fill: #1f77b4"/>
   </g>
   <g id="patch_5">
    <path d="M 62.92144 224.64 
L 64.436045 224.64 
L 64.436045 214.538258 
L 62.92144 214.538258 
z
" clip-path="url(#p373e463f39)" style="fill: #1f77b4"/>
   </g>
   <g id="patch_6">
    <path d="M 64.436045 224.64 
L 65.95065 224.64 
L 65.95065 206.681347 
L 64.436045 206.681347 
z
" clip-path="url(#p373e463f39)" style="fill: #1f77b4"/>
   </g>
   <g id="patch_7">
    <path d="M 65.95065 224.64 
L 67.465255 224.64 
L 67.465255 213.415842 
L 65.95065 213.415842 
z
" clip-path="url(#p373e463f39)" style="fill: #1f77b4"/>
   </g>
   <g id="patch_8">
    <path d="M 67.465255 224.64 
L 68.97986 224.64 
L 68.97986 208.364971 
L 67.465255 208.364971 
z
" clip-path="url(#p373e463f39)" style="fill: #1f77b4"/>
   </g>
   <g id="patch_9">
    <path d="M 68.97986 224.64 
L 70.494464 224.64 
L 70.494464 199.946852 
L 68.97986 199.946852 
z
" clip-path="url(#p373e463f39)" style="fill: #1f77b4"/>
   </g>
   <g id="patch_10">
    <path d="M 70.494464 224.64 
L 72.009069 224.64 
L 72.009069 204.997724 
L 70.494464 204.997724 
z
" clip-path="url(#p373e463f39)" style="fill: #1f77b4"/>
   </g>
   <g id="patch_11">
    <path d="M 72.009069 224.64 
L 73.523674 224.64 
L 73.523674 187.600279 
L 72.009069 187.600279 
z
" clip-path="url(#p373e463f39)" style="fill: #1f77b4"/>
   </g>
   <g id="patch_12">
    <path d="M 73.523674 224.64 
L 75.038279 224.64 
L 75.038279 198.824437 
L 73.523674 198.824437 
z
" clip-path="url(#p373e463f39)" style="fill: #1f77b4"/>
   </g>
   <g id="patch_13">
    <path d="M 75.038279 224.64 
L 76.552883 224.64 
L 76.552883 190.967526 
L 75.038279 190.967526 
z
" clip-path="url(#p373e463f39)" style="fill: #1f77b4"/>
   </g>
   <g id="patch_14">
    <path d="M 76.552883 224.64 
L 78.067488 224.64 
L 78.067488 182.549408 
L 76.552883 182.549408 
z
" clip-path="url(#p373e463f39)" style="fill: #1f77b4"/>
   </g>
   <g id="patch_15">
    <path d="M 78.067488 224.64 
L 79.582093 224.64 
L 79.582093 191.528734 
L 78.067488 191.528734 
z
" clip-path="url(#p373e463f39)" style="fill: #1f77b4"/>
   </g>
   <g id="patch_16">
    <path d="M 79.582093 224.64 
L 81.096698 224.64 
L 81.096698 183.671823 
L 79.582093 183.671823 
z
" clip-path="url(#p373e463f39)" style="fill: #1f77b4"/>
   </g>
   <g id="patch_17">
    <path d="M 81.096698 224.64 
L 82.611302 224.64 
L 82.611302 189.84511 
L 81.096698 189.84511 
z
" clip-path="url(#p373e463f39)" style="fill: #1f77b4"/>
   </g>
   <g id="patch_18">
    <path d="M 82.611302 224.64 
L 84.125907 224.64 
L 84.125907 180.865784 
L 82.611302 180.865784 
z
" clip-path="url(#p373e463f39)" style="fill: #1f77b4"/>
   </g>
   <g id="patch_19">
    <path d="M 84.125907 224.64 
L 85.640512 224.64 
L 85.640512 177.498537 
L 84.125907 177.498537 
z
" clip-path="url(#p373e463f39)" style="fill: #1f77b4"/>
   </g>
   <g id="patch_20">
    <path d="M 85.640512 224.64 
L 87.155117 224.64 
L 87.155117 180.865784 
L 85.640512 180.865784 
z
" clip-path="url(#p373e463f39)" style="fill: #1f77b4"/>
   </g>
   <g id="patch_21">
    <path d="M 87.155117 224.64 
L 88.669721 224.64 
L 88.669721 175.253705 
L 87.155117 175.253705 
z
" clip-path="url(#p373e463f39)" style="fill: #1f77b4"/>
   </g>
   <g id="patch_22">
    <path d="M 88.669721 224.64 
L 90.184326 224.64 
L 90.184326 179.743368 
L 88.669721 179.743368 
z
" clip-path="url(#p373e463f39)" style="fill: #1f77b4"/>
   </g>
   <g id="patch_23">
    <path d="M 90.184326 224.64 
L 91.698931 224.64 
L 91.698931 173.008873 
L 90.184326 173.008873 
z
" clip-path="url(#p373e463f39)" style="fill: #1f77b4"/>
   </g>
   <g id="patch_24">
    <path d="M 91.698931 224.64 
L 93.213536 224.64 
L 93.213536 173.570081 
L 91.698931 173.570081 
z
" clip-path="url(#p373e463f39)" style="fill: #1f77b4"/>
   </g>
   <g id="patch_25">
    <path d="M 93.213536 224.64 
L 94.72814 224.64 
L 94.72814 157.85626 
L 93.213536 157.85626 
z
" clip-path="url(#p373e463f39)" style="fill: #1f77b4"/>
   </g>
   <g id="patch_26">
    <path d="M 94.72814 224.64 
L 96.242745 224.64 
L 96.242745 159.539884 
L 94.72814 159.539884 
z
" clip-path="url(#p373e463f39)" style="fill: #1f77b4"/>
   </g>
   <g id="patch_27">
    <path d="M 96.242745 224.64 
L 97.75735 224.64 
L 97.75735 152.244181 
L 96.242745 152.244181 
z
" clip-path="url(#p373e463f39)" style="fill: #1f77b4"/>
   </g>
   <g id="patch_28">
    <path d="M 97.75735 224.64 
L 99.271955 224.64 
L 99.271955 144.948479 
L 97.75735 144.948479 
z
" clip-path="url(#p373e463f39)" style="fill: #1f77b4"/>
   </g>
   <g id="patch_29">
    <path d="M 99.271955 224.64 
L 100.786559 224.64 
L 100.786559 157.85626 
L 99.271955 157.85626 
z
" clip-path="url(#p373e463f39)" style="fill: #1f77b4"/>
   </g>
   <g id="patch_30">
    <path d="M 100.786559 224.64 
L 102.301164 224.64 
L 102.301164 142.703647 
L 100.786559 142.703647 
z
" clip-path="url(#p373e463f39)" style="fill: #1f77b4"/>
   </g>
   <g id="patch_31">
    <path d="M 102.301164 224.64 
L 103.815769 224.64 
L 103.815769 134.285528 
L 102.301164 134.285528 
z
" clip-path="url(#p373e463f39)" style="fill: #1f77b4"/>
   </g>
   <g id="patch_32">
    <path d="M 103.815769 224.64 
L 105.330374 224.64 
L 105.330374 147.19331 
L 103.815769 147.19331 
z
" clip-path="url(#p373e463f39)" style="fill: #1f77b4"/>
   </g>
   <g id="patch_33">
    <path d="M 105.330374 224.64 
L 106.844978 224.64 
L 106.844978 155.611429 
L 105.330374 155.611429 
z
" clip-path="url(#p373e463f39)" style="fill: #1f77b4"/>
   </g>
   <g id="patch_34">
    <path d="M 106.844978 224.64 
L 108.359583 224.64 
L 108.359583 145.509686 
L 106.844978 145.509686 
z
" clip-path="url(#p373e463f39)" style="fill: #1f77b4"/>
   </g>
   <g id="patch_35">
    <path d="M 108.359583 224.64 
L 109.874188 224.64 
L 109.874188 128.112242 
L 108.359583 128.112242 
z
" clip-path="url(#p373e463f39)" style="fill: #1f77b4"/>
   </g>
   <g id="patch_36">
    <path d="M 109.874188 224.64 
L 111.388793 224.64 
L 111.388793 140.458815 
L 109.874188 140.458815 
z
" clip-path="url(#p373e463f39)" style="fill: #1f77b4"/>
   </g>
   <g id="patch_37">
    <path d="M 111.388793 224.64 
L 112.903397 224.64 
L 112.903397 135.407944 
L 111.388793 135.407944 
z
" clip-path="url(#p373e463f39)" style="fill: #1f77b4"/>
   </g>
   <g id="patch_38">
    <path d="M 112.903397 224.64 
L 114.418002 224.64 
L 114.418002 128.673449 
L 112.903397 128.673449 
z
" clip-path="url(#p373e463f39)" style="fill: #1f77b4"/>
   </g>
   <g id="patch_39">
    <path d="M 114.418002 224.64 
L 115.932607 224.64 
L 115.932607 120.255331 
L 114.418002 120.255331 
z
" clip-path="url(#p373e463f39)" style="fill: #1f77b4"/>
   </g>
   <g id="patch_40">
    <path d="M 115.932607 224.64 
L 117.447212 224.64 
L 117.447212 119.132915 
L 115.932607 119.132915 
z
" clip-path="url(#p373e463f39)" style="fill: #1f77b4"/>
   </g>
   <g id="patch_41">
    <path d="M 117.447212 224.64 
L 118.961816 224.64 
L 118.961816 139.3364 
L 117.447212 139.3364 
z
" clip-path="url(#p373e463f39)" style="fill: #1f77b4"/>
   </g>
   <g id="patch_42">
    <path d="M 118.961816 224.64 
L 120.476421 224.64 
L 120.476421 118.010499 
L 118.961816 118.010499 
z
" clip-path="url(#p373e463f39)" style="fill: #1f77b4"/>
   </g>
   <g id="patch_43">
    <path d="M 120.476421 224.64 
L 121.991026 224.64 
L 121.991026 114.082044 
L 120.476421 114.082044 
z
" clip-path="url(#p373e463f39)" style="fill: #1f77b4"/>
   </g>
   <g id="patch_44">
    <path d="M 121.991026 224.64 
L 123.505631 224.64 
L 123.505631 117.449292 
L 121.991026 117.449292 
z
" clip-path="url(#p373e463f39)" style="fill: #1f77b4"/>
   </g>
   <g id="patch_45">
    <path d="M 123.505631 224.64 
L 125.020235 224.64 
L 125.020235 120.816539 
L 123.505631 120.816539 
z
" clip-path="url(#p373e463f39)" style="fill: #1f77b4"/>
   </g>
   <g id="patch_46">
    <path d="M 125.020235 224.64 
L 126.53484 224.64 
L 126.53484 109.031173 
L 125.020235 109.031173 
z
" clip-path="url(#p373e463f39)" style="fill: #1f77b4"/>
   </g>
   <g id="patch_47">
    <path d="M 126.53484 224.64 
L 128.049445 224.64 
L 128.049445 109.592381 
L 126.53484 109.592381 
z
" clip-path="url(#p373e463f39)" style="fill: #1f77b4"/>
   </g>
   <g id="patch_48">
    <path d="M 128.049445 224.64 
L 129.56405 224.64 
L 129.56405 119.694123 
L 128.049445 119.694123 
z
" clip-path="url(#p373e463f39)" style="fill: #1f77b4"/>
   </g>
   <g id="patch_49">
    <path d="M 129.56405 224.64 
L 131.078654 224.64 
L 131.078654 104.54151 
L 129.56405 104.54151 
z
" clip-path="url(#p373e463f39)" style="fill: #1f77b4"/>
   </g>
   <g id="patch_50">
    <path d="M 131.078654 224.64 
L 132.593259 224.64 
L 132.593259 128.673449 
L 131.078654 128.673449 
z
" clip-path="url(#p373e463f39)" style="fill: #1f77b4"/>
   </g>
   <g id="patch_51">
    <path d="M 132.593259 224.64 
L 134.107864 224.64 
L 134.107864 102.296678 
L 132.593259 102.296678 
z
" clip-path="url(#p373e463f39)" style="fill: #1f77b4"/>
   </g>
   <g id="patch_52">
    <path d="M 134.107864 224.64 
L 135.622469 224.64 
L 135.622469 98.929431 
L 134.107864 98.929431 
z
" clip-path="url(#p373e463f39)" style="fill: #1f77b4"/>
   </g>
   <g id="patch_53">
    <path d="M 135.622469 224.64 
L 137.137073 224.64 
L 137.137073 107.908757 
L 135.622469 107.908757 
z
" clip-path="url(#p373e463f39)" style="fill: #1f77b4"/>
   </g>
   <g id="patch_54">
    <path d="M 137.137073 224.64 
L 138.651678 224.64 
L 138.651678 102.857886 
L 137.137073 102.857886 
z
" clip-path="url(#p373e463f39)" style="fill: #1f77b4"/>
   </g>
   <g id="patch_55">
    <path d="M 138.651678 224.64 
L 140.166283 224.64 
L 140.166283 84.899233 
L 138.651678 84.899233 
z
" clip-path="url(#p373e463f39)" style="fill: #1f77b4"/>
   </g>
   <g id="patch_56">
    <path d="M 140.166283 224.64 
L 141.680888 224.64 
L 141.680888 87.144065 
L 140.166283 87.144065 
z
" clip-path="url(#p373e463f39)" style="fill: #1f77b4"/>
   </g>
   <g id="patch_57">
    <path d="M 141.680888 224.64 
L 143.195493 224.64 
L 143.195493 78.725947 
L 141.680888 78.725947 
z
" clip-path="url(#p373e463f39)" style="fill: #1f77b4"/>
   </g>
   <g id="patch_58">
    <path d="M 143.195493 224.64 
L 144.710097 224.64 
L 144.710097 79.287154 
L 143.195493 79.287154 
z
" clip-path="url(#p373e463f39)" style="fill: #1f77b4"/>
   </g>
   <g id="patch_59">
    <path d="M 144.710097 224.64 
L 146.224702 224.64 
L 146.224702 77.042323 
L 144.710097 77.042323 
z
" clip-path="url(#p373e463f39)" style="fill: #1f77b4"/>
   </g>
   <g id="patch_60">
    <path d="M 146.224702 224.64 
L 147.739307 224.64 
L 147.739307 83.21561 
L 146.224702 83.21561 
z
" clip-path="url(#p373e463f39)" style="fill: #1f77b4"/>
   </g>
   <g id="patch_61">
    <path d="M 147.739307 224.64 
L 149.253912 224.64 
L 149.253912 85.460441 
L 147.739307 85.460441 
z
" clip-path="url(#p373e463f39)" style="fill: #1f77b4"/>
   </g>
   <g id="patch_62">
    <path d="M 149.253912 224.64 
L 150.768516 224.64 
L 150.768516 75.919907 
L 149.253912 75.919907 
z
" clip-path="url(#p373e463f39)" style="fill: #1f77b4"/>
   </g>
   <g id="patch_63">
    <path d="M 150.768516 224.64 
L 152.283121 224.64 
L 152.283121 78.164739 
L 150.768516 78.164739 
z
" clip-path="url(#p373e463f39)" style="fill: #1f77b4"/>
   </g>
   <g id="patch_64">
    <path d="M 152.283121 224.64 
L 153.797726 224.64 
L 153.797726 87.144065 
L 152.283121 87.144065 
z
" clip-path="url(#p373e463f39)" style="fill: #1f77b4"/>
   </g>
   <g id="patch_65">
    <path d="M 153.797726 224.64 
L 155.312331 224.64 
L 155.312331 81.531986 
L 153.797726 81.531986 
z
" clip-path="url(#p373e463f39)" style="fill: #1f77b4"/>
   </g>
   <g id="patch_66">
    <path d="M 155.312331 224.64 
L 156.826935 224.64 
L 156.826935 77.603531 
L 155.312331 77.603531 
z
" clip-path="url(#p373e463f39)" style="fill: #1f77b4"/>
   </g>
   <g id="patch_67">
    <path d="M 156.826935 224.64 
L 158.34154 224.64 
L 158.34154 76.481115 
L 156.826935 76.481115 
z
" clip-path="url(#p373e463f39)" style="fill: #1f77b4"/>
   </g>
   <g id="patch_68">
    <path d="M 158.34154 224.64 
L 159.856145 224.64 
L 159.856145 78.725947 
L 158.34154 78.725947 
z
" clip-path="url(#p373e463f39)" style="fill: #1f77b4"/>
   </g>
   <g id="patch_69">
    <path d="M 159.856145 224.64 
L 161.37075 224.64 
L 161.37075 84.338026 
L 159.856145 84.338026 
z
" clip-path="url(#p373e463f39)" style="fill: #1f77b4"/>
   </g>
   <g id="patch_70">
    <path d="M 161.37075 224.64 
L 162.885354 224.64 
L 162.885354 71.991452 
L 161.37075 71.991452 
z
" clip-path="url(#p373e463f39)" style="fill: #1f77b4"/>
   </g>
   <g id="patch_71">
    <path d="M 162.885354 224.64 
L 164.399959 224.64 
L 164.399959 68.062997 
L 162.885354 68.062997 
z
" clip-path="url(#p373e463f39)" style="fill: #1f77b4"/>
   </g>
   <g id="patch_72">
    <path d="M 164.399959 224.64 
L 165.914564 224.64 
L 165.914564 67.501789 
L 164.399959 67.501789 
z
" clip-path="url(#p373e463f39)" style="fill: #1f77b4"/>
   </g>
   <g id="patch_73">
    <path d="M 165.914564 224.64 
L 167.429169 224.64 
L 167.429169 65.818165 
L 165.914564 65.818165 
z
" clip-path="url(#p373e463f39)" style="fill: #1f77b4"/>
   </g>
   <g id="patch_74">
    <path d="M 167.429169 224.64 
L 168.943773 224.64 
L 168.943773 57.400046 
L 167.429169 57.400046 
z
" clip-path="url(#p373e463f39)" style="fill: #1f77b4"/>
   </g>
   <g id="patch_75">
    <path d="M 168.943773 224.64 
L 170.458378 224.64 
L 170.458378 66.940581 
L 168.943773 66.940581 
z
" clip-path="url(#p373e463f39)" style="fill: #1f77b4"/>
   </g>
   <g id="patch_76">
    <path d="M 170.458378 224.64 
L 171.972983 224.64 
L 171.972983 79.287154 
L 170.458378 79.287154 
z
" clip-path="url(#p373e463f39)" style="fill: #1f77b4"/>
   </g>
   <g id="patch_77">
    <path d="M 171.972983 224.64 
L 173.487588 224.64 
L 173.487588 60.767294 
L 171.972983 60.767294 
z
" clip-path="url(#p373e463f39)" style="fill: #1f77b4"/>
   </g>
   <g id="patch_78">
    <path d="M 173.487588 224.64 
L 175.002192 224.64 
L 175.002192 56.277631 
L 173.487588 56.277631 
z
" clip-path="url(#p373e463f39)" style="fill: #1f77b4"/>
   </g>
   <g id="patch_79">
    <path d="M 175.002192 224.64 
L 176.516797 224.64 
L 176.516797 54.594007 
L 175.002192 54.594007 
z
" clip-path="url(#p373e463f39)" style="fill: #1f77b4"/>
   </g>
   <g id="patch_80">
    <path d="M 176.516797 224.64 
L 178.031402 224.64 
L 178.031402 52.349175 
L 176.516797 52.349175 
z
" clip-path="url(#p373e463f39)" style="fill: #1f77b4"/>
   </g>
   <g id="patch_81">
    <path d="M 178.031402 224.64 
L 179.546007 224.64 
L 179.546007 47.859512 
L 178.031402 47.859512 
z
" clip-path="url(#p373e463f39)" style="fill: #1f77b4"/>
   </g>
   <g id="patch_82">
    <path d="M 179.546007 224.64 
L 181.060611 224.64 
L 181.060611 61.88971 
L 179.546007 61.88971 
z
" clip-path="url(#p373e463f39)" style="fill: #1f77b4"/>
   </g>
   <g id="patch_83">
    <path d="M 181.060611 224.64 
L 182.575216 224.64 
L 182.575216 71.430244 
L 181.060611 71.430244 
z
" clip-path="url(#p373e463f39)" style="fill: #1f77b4"/>
   </g>
   <g id="patch_84">
    <path d="M 182.575216 224.64 
L 184.089821 224.64 
L 184.089821 57.400046 
L 182.575216 57.400046 
z
" clip-path="url(#p373e463f39)" style="fill: #1f77b4"/>
   </g>
   <g id="patch_85">
    <path d="M 184.089821 224.64 
L 185.604426 224.64 
L 185.604426 71.991452 
L 184.089821 71.991452 
z
" clip-path="url(#p373e463f39)" style="fill: #1f77b4"/>
   </g>
   <g id="patch_86">
    <path d="M 185.604426 224.64 
L 187.11903 224.64 
L 187.11903 51.22676 
L 185.604426 51.22676 
z
" clip-path="url(#p373e463f39)" style="fill: #1f77b4"/>
   </g>
   <g id="patch_87">
    <path d="M 187.11903 224.64 
L 188.633635 224.64 
L 188.633635 69.74662 
L 187.11903 69.74662 
z
" clip-path="url(#p373e463f39)" style="fill: #1f77b4"/>
   </g>
   <g id="patch_88">
    <path d="M 188.633635 224.64 
L 190.14824 224.64 
L 190.14824 41.686225 
L 188.633635 41.686225 
z
" clip-path="url(#p373e463f39)" style="fill: #1f77b4"/>
   </g>
   <g id="patch_89">
    <path d="M 190.14824 224.64 
L 191.662845 224.64 
L 191.662845 60.206086 
L 190.14824 60.206086 
z
" clip-path="url(#p373e463f39)" style="fill: #1f77b4"/>
   </g>
   <g id="patch_90">
    <path d="M 191.662845 224.64 
L 193.177449 224.64 
L 193.177449 59.644878 
L 191.662845 59.644878 
z
" clip-path="url(#p373e463f39)" style="fill: #1f77b4"/>
   </g>
   <g id="patch_91">
    <path d="M 193.177449 224.64 
L 194.692054 224.64 
L 194.692054 54.032799 
L 193.177449 54.032799 
z
" clip-path="url(#p373e463f39)" style="fill: #1f77b4"/>
   </g>
   <g id="patch_92">
    <path d="M 194.692054 224.64 
L 196.206659 224.64 
L 196.206659 59.08367 
L 194.692054 59.08367 
z
" clip-path="url(#p373e463f39)" style="fill: #1f77b4"/>
   </g>
   <g id="patch_93">
    <path d="M 196.206659 224.64 
L 197.721264 224.64 
L 197.721264 58.522462 
L 196.206659 58.522462 
z
" clip-path="url(#p373e463f39)" style="fill: #1f77b4"/>
   </g>
   <g id="patch_94">
    <path d="M 197.721264 224.64 
L 199.235868 224.64 
L 199.235868 39.441394 
L 197.721264 39.441394 
z
" clip-path="url(#p373e463f39)" style="fill: #1f77b4"/>
   </g>
   <g id="patch_95">
    <path d="M 199.235868 224.64 
L 200.750473 224.64 
L 200.750473 45.614681 
L 199.235868 45.614681 
z
" clip-path="url(#p373e463f39)" style="fill: #1f77b4"/>
   </g>
   <g id="patch_96">
    <path d="M 200.750473 224.64 
L 202.265078 224.64 
L 202.265078 49.543136 
L 200.750473 49.543136 
z
" clip-path="url(#p373e463f39)" style="fill: #1f77b4"/>
   </g>
   <g id="patch_97">
    <path d="M 202.265078 224.64 
L 203.779683 224.64 
L 203.779683 44.492265 
L 202.265078 44.492265 
z
" clip-path="url(#p373e463f39)" style="fill: #1f77b4"/>
   </g>
   <g id="patch_98">
    <path d="M 203.779683 224.64 
L 205.294287 224.64 
L 205.294287 41.686225 
L 203.779683 41.686225 
z
" clip-path="url(#p373e463f39)" style="fill: #1f77b4"/>
   </g>
   <g id="patch_99">
    <path d="M 205.294287 224.64 
L 206.808892 224.64 
L 206.808892 70.307828 
L 205.294287 70.307828 
z
" clip-path="url(#p373e463f39)" style="fill: #1f77b4"/>
   </g>
   <g id="patch_100">
    <path d="M 206.808892 224.64 
L 208.323497 224.64 
L 208.323497 17.554286 
L 206.808892 17.554286 
z
" clip-path="url(#p373e463f39)" style="fill: #1f77b4"/>
   </g>
   <g id="patch_101">
    <path d="M 208.323497 224.64 
L 209.838102 224.64 
L 209.838102 34.951731 
L 208.323497 34.951731 
z
" clip-path="url(#p373e463f39)" style="fill: #1f77b4"/>
   </g>
   <g id="patch_102">
    <path d="M 209.838102 224.64 
L 211.352706 224.64 
L 211.352706 64.134541 
L 209.838102 64.134541 
z
" clip-path="url(#p373e463f39)" style="fill: #1f77b4"/>
   </g>
   <g id="patch_103">
    <path d="M 211.352706 224.64 
L 212.867311 224.64 
L 212.867311 54.032799 
L 211.352706 54.032799 
z
" clip-path="url(#p373e463f39)" style="fill: #1f77b4"/>
   </g>
   <g id="patch_104">
    <path d="M 212.867311 224.64 
L 214.381916 224.64 
L 214.381916 55.155215 
L 212.867311 55.155215 
z
" clip-path="url(#p373e463f39)" style="fill: #1f77b4"/>
   </g>
   <g id="patch_105">
    <path d="M 214.381916 224.64 
L 215.896521 224.64 
L 215.896521 43.931057 
L 214.381916 43.931057 
z
" clip-path="url(#p373e463f39)" style="fill: #1f77b4"/>
   </g>
   <g id="patch_106">
    <path d="M 215.896521 224.64 
L 217.411125 224.64 
L 217.411125 36.635354 
L 215.896521 36.635354 
z
" clip-path="url(#p373e463f39)" style="fill: #1f77b4"/>
   </g>
   <g id="patch_107">
    <path d="M 217.411125 224.64 
L 218.92573 224.64 
L 218.92573 56.838839 
L 217.411125 56.838839 
z
" clip-path="url(#p373e463f39)" style="fill: #1f77b4"/>
   </g>
   <g id="patch_108">
    <path d="M 218.92573 224.64 
L 220.440335 224.64 
L 220.440335 60.206086 
L 218.92573 60.206086 
z
" clip-path="url(#p373e463f39)" style="fill: #1f77b4"/>
   </g>
   <g id="patch_109">
    <path d="M 220.440335 224.64 
L 221.95494 224.64 
L 221.95494 50.665552 
L 220.440335 50.665552 
z
" clip-path="url(#p373e463f39)" style="fill: #1f77b4"/>
   </g>
   <g id="patch_110">
    <path d="M 221.95494 224.64 
L 223.469545 224.64 
L 223.469545 47.298304 
L 221.95494 47.298304 
z
" clip-path="url(#p373e463f39)" style="fill: #1f77b4"/>
   </g>
   <g id="patch_111">
    <path d="M 223.469545 224.64 
L 224.984149 224.64 
L 224.984149 56.838839 
L 223.469545 56.838839 
z
" clip-path="url(#p373e463f39)" style="fill: #1f77b4"/>
   </g>
   <g id="patch_112">
    <path d="M 224.984149 224.64 
L 226.498754 224.64 
L 226.498754 55.716423 
L 224.984149 55.716423 
z
" clip-path="url(#p373e463f39)" style="fill: #1f77b4"/>
   </g>
   <g id="patch_113">
    <path d="M 226.498754 224.64 
L 228.013359 224.64 
L 228.013359 61.88971 
L 226.498754 61.88971 
z
" clip-path="url(#p373e463f39)" style="fill: #1f77b4"/>
   </g>
   <g id="patch_114">
    <path d="M 228.013359 224.64 
L 229.527964 224.64 
L 229.527964 69.185412 
L 228.013359 69.185412 
z
" clip-path="url(#p373e463f39)" style="fill: #1f77b4"/>
   </g>
   <g id="patch_115">
    <path d="M 229.527964 224.64 
L 231.042568 224.64 
L 231.042568 52.349175 
L 229.527964 52.349175 
z
" clip-path="url(#p373e463f39)" style="fill: #1f77b4"/>
   </g>
   <g id="patch_116">
    <path d="M 231.042568 224.64 
L 232.557173 224.64 
L 232.557173 55.155215 
L 231.042568 55.155215 
z
" clip-path="url(#p373e463f39)" style="fill: #1f77b4"/>
   </g>
   <g id="patch_117">
    <path d="M 232.557173 224.64 
L 234.071778 224.64 
L 234.071778 57.961254 
L 232.557173 57.961254 
z
" clip-path="url(#p373e463f39)" style="fill: #1f77b4"/>
   </g>
   <g id="patch_118">
    <path d="M 234.071778 224.64 
L 235.586383 224.64 
L 235.586383 63.012125 
L 234.071778 63.012125 
z
" clip-path="url(#p373e463f39)" style="fill: #1f77b4"/>
   </g>
   <g id="patch_119">
    <path d="M 235.586383 224.64 
L 237.100987 224.64 
L 237.100987 48.42072 
L 235.586383 48.42072 
z
" clip-path="url(#p373e463f39)" style="fill: #1f77b4"/>
   </g>
   <g id="patch_120">
    <path d="M 237.100987 224.64 
L 238.615592 224.64 
L 238.615592 51.22676 
L 237.100987 51.22676 
z
" clip-path="url(#p373e463f39)" style="fill: #1f77b4"/>
   </g>
   <g id="patch_121">
    <path d="M 238.615592 224.64 
L 240.130197 224.64 
L 240.130197 48.42072 
L 238.615592 48.42072 
z
" clip-path="url(#p373e463f39)" style="fill: #1f77b4"/>
   </g>
   <g id="patch_122">
    <path d="M 240.130197 224.64 
L 241.644802 224.64 
L 241.644802 50.665552 
L 240.130197 50.665552 
z
" clip-path="url(#p373e463f39)" style="fill: #1f77b4"/>
   </g>
   <g id="patch_123">
    <path d="M 241.644802 224.64 
L 243.159406 224.64 
L 243.159406 64.695749 
L 241.644802 64.695749 
z
" clip-path="url(#p373e463f39)" style="fill: #1f77b4"/>
   </g>
   <g id="patch_124">
    <path d="M 243.159406 224.64 
L 244.674011 224.64 
L 244.674011 51.787967 
L 243.159406 51.787967 
z
" clip-path="url(#p373e463f39)" style="fill: #1f77b4"/>
   </g>
   <g id="patch_125">
    <path d="M 244.674011 224.64 
L 246.188616 224.64 
L 246.188616 52.910383 
L 244.674011 52.910383 
z
" clip-path="url(#p373e463f39)" style="fill: #1f77b4"/>
   </g>
   <g id="patch_126">
    <path d="M 246.188616 224.64 
L 247.703221 224.64 
L 247.703221 69.185412 
L 246.188616 69.185412 
z
" clip-path="url(#p373e463f39)" style="fill: #1f77b4"/>
   </g>
   <g id="patch_127">
    <path d="M 247.703221 224.64 
L 249.217825 224.64 
L 249.217825 60.767294 
L 247.703221 60.767294 
z
" clip-path="url(#p373e463f39)" style="fill: #1f77b4"/>
   </g>
   <g id="patch_128">
    <path d="M 249.217825 224.64 
L 250.73243 224.64 
L 250.73243 76.481115 
L 249.217825 76.481115 
z
" clip-path="url(#p373e463f39)" style="fill: #1f77b4"/>
   </g>
   <g id="patch_129">
    <path d="M 250.73243 224.64 
L 252.247035 224.64 
L 252.247035 71.430244 
L 250.73243 71.430244 
z
" clip-path="url(#p373e463f39)" style="fill: #1f77b4"/>
   </g>
   <g id="patch_130">
    <path d="M 252.247035 224.64 
L 253.76164 224.64 
L 253.76164 49.543136 
L 252.247035 49.543136 
z
" clip-path="url(#p373e463f39)" style="fill: #1f77b4"/>
   </g>
   <g id="patch_131">
    <path d="M 253.76164 224.64 
L 255.276244 224.64 
L 255.276244 58.522462 
L 253.76164 58.522462 
z
" clip-path="url(#p373e463f39)" style="fill: #1f77b4"/>
   </g>
   <g id="patch_132">
    <path d="M 255.276244 224.64 
L 256.790849 224.64 
L 256.790849 57.400046 
L 255.276244 57.400046 
z
" clip-path="url(#p373e463f39)" style="fill: #1f77b4"/>
   </g>
   <g id="patch_133">
    <path d="M 256.790849 224.64 
L 258.305454 224.64 
L 258.305454 59.08367 
L 256.790849 59.08367 
z
" clip-path="url(#p373e463f39)" style="fill: #1f77b4"/>
   </g>
   <g id="patch_134">
    <path d="M 258.305454 224.64 
L 259.820059 224.64 
L 259.820059 83.21561 
L 258.305454 83.21561 
z
" clip-path="url(#p373e463f39)" style="fill: #1f77b4"/>
   </g>
   <g id="patch_135">
    <path d="M 259.820059 224.64 
L 261.334663 224.64 
L 261.334663 75.358699 
L 259.820059 75.358699 
z
" clip-path="url(#p373e463f39)" style="fill: #1f77b4"/>
   </g>
   <g id="patch_136">
    <path d="M 261.334663 224.64 
L 262.849268 224.64 
L 262.849268 85.460441 
L 261.334663 85.460441 
z
" clip-path="url(#p373e463f39)" style="fill: #1f77b4"/>
   </g>
   <g id="patch_137">
    <path d="M 262.849268 224.64 
L 264.363873 224.64 
L 264.363873 56.277631 
L 262.849268 56.277631 
z
" clip-path="url(#p373e463f39)" style="fill: #1f77b4"/>
   </g>
   <g id="patch_138">
    <path d="M 264.363873 224.64 
L 265.878478 224.64 
L 265.878478 86.021649 
L 264.363873 86.021649 
z
" clip-path="url(#p373e463f39)" style="fill: #1f77b4"/>
   </g>
   <g id="patch_139">
    <path d="M 265.878478 224.64 
L 267.393082 224.64 
L 267.393082 89.950105 
L 265.878478 89.950105 
z
" clip-path="url(#p373e463f39)" style="fill: #1f77b4"/>
   </g>
   <g id="patch_140">
    <path d="M 267.393082 224.64 
L 268.907687 224.64 
L 268.907687 71.430244 
L 267.393082 71.430244 
z
" clip-path="url(#p373e463f39)" style="fill: #1f77b4"/>
   </g>
   <g id="patch_141">
    <path d="M 268.907687 224.64 
L 270.422292 224.64 
L 270.422292 84.338026 
L 268.907687 84.338026 
z
" clip-path="url(#p373e463f39)" style="fill: #1f77b4"/>
   </g>
   <g id="patch_142">
    <path d="M 270.422292 224.64 
L 271.936897 224.64 
L 271.936897 74.236283 
L 270.422292 74.236283 
z
" clip-path="url(#p373e463f39)" style="fill: #1f77b4"/>
   </g>
   <g id="patch_143">
    <path d="M 271.936897 224.64 
L 273.451501 224.64 
L 273.451501 59.644878 
L 271.936897 59.644878 
z
" clip-path="url(#p373e463f39)" style="fill: #1f77b4"/>
   </g>
   <g id="patch_144">
    <path d="M 273.451501 224.64 
L 274.966106 224.64 
L 274.966106 65.818165 
L 273.451501 65.818165 
z
" clip-path="url(#p373e463f39)" style="fill: #1f77b4"/>
   </g>
   <g id="patch_145">
    <path d="M 274.966106 224.64 
L 276.480711 224.64 
L 276.480711 82.654402 
L 274.966106 82.654402 
z
" clip-path="url(#p373e463f39)" style="fill: #1f77b4"/>
   </g>
   <g id="patch_146">
    <path d="M 276.480711 224.64 
L 277.995316 224.64 
L 277.995316 96.684599 
L 276.480711 96.684599 
z
" clip-path="url(#p373e463f39)" style="fill: #1f77b4"/>
   </g>
   <g id="patch_147">
    <path d="M 277.995316 224.64 
L 279.50992 224.64 
L 279.50992 97.245807 
L 277.995316 97.245807 
z
" clip-path="url(#p373e463f39)" style="fill: #1f77b4"/>
   </g>
   <g id="patch_148">
    <path d="M 279.50992 224.64 
L 281.024525 224.64 
L 281.024525 87.144065 
L 279.50992 87.144065 
z
" clip-path="url(#p373e463f39)" style="fill: #1f77b4"/>
   </g>
   <g id="patch_149">
    <path d="M 281.024525 224.64 
L 282.53913 224.64 
L 282.53913 90.511312 
L 281.024525 90.511312 
z
" clip-path="url(#p373e463f39)" style="fill: #1f77b4"/>
   </g>
   <g id="patch_150">
    <path d="M 282.53913 224.64 
L 284.053735 224.64 
L 284.053735 100.051847 
L 282.53913 100.051847 
z
" clip-path="url(#p373e463f39)" style="fill: #1f77b4"/>
   </g>
   <g id="patch_151">
    <path d="M 284.053735 224.64 
L 285.568339 224.64 
L 285.568339 84.338026 
L 284.053735 84.338026 
z
" clip-path="url(#p373e463f39)" style="fill: #1f77b4"/>
   </g>
   <g id="patch_152">
    <path d="M 285.568339 224.64 
L 287.082944 224.64 
L 287.082944 108.469965 
L 285.568339 108.469965 
z
" clip-path="url(#p373e463f39)" style="fill: #1f77b4"/>
   </g>
   <g id="patch_153">
    <path d="M 287.082944 224.64 
L 288.597549 224.64 
L 288.597549 109.592381 
L 287.082944 109.592381 
z
" clip-path="url(#p373e463f39)" style="fill: #1f77b4"/>
   </g>
   <g id="patch_154">
    <path d="M 288.597549 224.64 
L 290.112154 224.64 
L 290.112154 102.857886 
L 288.597549 102.857886 
z
" clip-path="url(#p373e463f39)" style="fill: #1f77b4"/>
   </g>
   <g id="patch_155">
    <path d="M 290.112154 224.64 
L 291.626758 224.64 
L 291.626758 109.031173 
L 290.112154 109.031173 
z
" clip-path="url(#p373e463f39)" style="fill: #1f77b4"/>
   </g>
   <g id="patch_156">
    <path d="M 291.626758 224.64 
L 293.141363 224.64 
L 293.141363 107.347549 
L 291.626758 107.347549 
z
" clip-path="url(#p373e463f39)" style="fill: #1f77b4"/>
   </g>
   <g id="patch_157">
    <path d="M 293.141363 224.64 
L 294.655968 224.64 
L 294.655968 99.490639 
L 293.141363 99.490639 
z
" clip-path="url(#p373e463f39)" style="fill: #1f77b4"/>
   </g>
   <g id="patch_158">
    <path d="M 294.655968 224.64 
L 296.170573 224.64 
L 296.170573 91.07252 
L 294.655968 91.07252 
z
" clip-path="url(#p373e463f39)" style="fill: #1f77b4"/>
   </g>
   <g id="patch_159">
    <path d="M 296.170573 224.64 
L 297.685178 224.64 
L 297.685178 112.39842 
L 296.170573 112.39842 
z
" clip-path="url(#p373e463f39)" style="fill: #1f77b4"/>
   </g>
   <g id="patch_160">
    <path d="M 297.685178 224.64 
L 299.199782 224.64 
L 299.199782 119.132915 
L 297.685178 119.132915 
z
" clip-path="url(#p373e463f39)" style="fill: #1f77b4"/>
   </g>
   <g id="patch_161">
    <path d="M 299.199782 224.64 
L 300.714387 224.64 
L 300.714387 118.571707 
L 299.199782 118.571707 
z
" clip-path="url(#p373e463f39)" style="fill: #1f77b4"/>
   </g>
   <g id="patch_162">
    <path d="M 300.714387 224.64 
L 302.228992 224.64 
L 302.228992 123.622578 
L 300.714387 123.622578 
z
" clip-path="url(#p373e463f39)" style="fill: #1f77b4"/>
   </g>
   <g id="patch_163">
    <path d="M 302.228992 224.64 
L 303.743597 224.64 
L 303.743597 123.06137 
L 302.228992 123.06137 
z
" clip-path="url(#p373e463f39)" style="fill: #1f77b4"/>
   </g>
   <g id="patch_164">
    <path d="M 303.743597 224.64 
L 305.258201 224.64 
L 305.258201 132.601905 
L 303.743597 132.601905 
z
" clip-path="url(#p373e463f39)" style="fill: #1f77b4"/>
   </g>
   <g id="patch_165">
    <path d="M 305.258201 224.64 
L 306.772806 224.64 
L 306.772806 128.112242 
L 305.258201 128.112242 
z
" clip-path="url(#p373e463f39)" style="fill: #1f77b4"/>
   </g>
   <g id="patch_166">
    <path d="M 306.772806 224.64 
L 308.287411 224.64 
L 308.287411 132.040697 
L 306.772806 132.040697 
z
" clip-path="url(#p373e463f39)" style="fill: #1f77b4"/>
   </g>
   <g id="patch_167">
    <path d="M 308.287411 224.64 
L 309.802016 224.64 
L 309.802016 125.306202 
L 308.287411 125.306202 
z
" clip-path="url(#p373e463f39)" style="fill: #1f77b4"/>
   </g>
   <g id="patch_168">
    <path d="M 309.802016 224.64 
L 311.31662 224.64 
L 311.31662 136.53036 
L 309.802016 136.53036 
z
" clip-path="url(#p373e463f39)" style="fill: #1f77b4"/>
   </g>
   <g id="patch_169">
    <path d="M 311.31662 224.64 
L 312.831225 224.64 
L 312.831225 143.264855 
L 311.31662 143.264855 
z
" clip-path="url(#p373e463f39)" style="fill: #1f77b4"/>
   </g>
   <g id="patch_170">
    <path d="M 312.831225 224.64 
L 314.34583 224.64 
L 314.34583 149.99935 
L 312.831225 149.99935 
z
" clip-path="url(#p373e463f39)" style="fill: #1f77b4"/>
   </g>
   <g id="patch_171">
    <path d="M 314.34583 224.64 
L 315.860435 224.64 
L 315.860435 150.560557 
L 314.34583 150.560557 
z
" clip-path="url(#p373e463f39)" style="fill: #1f77b4"/>
   </g>
   <g id="patch_172">
    <path d="M 315.860435 224.64 
L 317.375039 224.64 
L 317.375039 142.142439 
L 315.860435 142.142439 
z
" clip-path="url(#p373e463f39)" style="fill: #1f77b4"/>
   </g>
   <g id="patch_173">
    <path d="M 317.375039 224.64 
L 318.889644 224.64 
L 318.889644 144.948479 
L 317.375039 144.948479 
z
" clip-path="url(#p373e463f39)" style="fill: #1f77b4"/>
   </g>
   <g id="patch_174">
    <path d="M 318.889644 224.64 
L 320.404249 224.64 
L 320.404249 134.846736 
L 318.889644 134.846736 
z
" clip-path="url(#p373e463f39)" style="fill: #1f77b4"/>
   </g>
   <g id="patch_175">
    <path d="M 320.404249 224.64 
L 321.918854 224.64 
L 321.918854 162.907131 
L 320.404249 162.907131 
z
" clip-path="url(#p373e463f39)" style="fill: #1f77b4"/>
   </g>
   <g id="patch_176">
    <path d="M 321.918854 224.64 
L 323.433458 224.64 
L 323.433458 157.295052 
L 321.918854 157.295052 
z
" clip-path="url(#p373e463f39)" style="fill: #1f77b4"/>
   </g>
   <g id="patch_177">
    <path d="M 323.433458 224.64 
L 324.948063 224.64 
L 324.948063 159.539884 
L 323.433458 159.539884 
z
" clip-path="url(#p373e463f39)" style="fill: #1f77b4"/>
   </g>
   <g id="patch_178">
    <path d="M 324.948063 224.64 
L 326.462668 224.64 
L 326.462668 162.907131 
L 324.948063 162.907131 
z
" clip-path="url(#p373e463f39)" style="fill: #1f77b4"/>
   </g>
   <g id="patch_179">
    <path d="M 326.462668 224.64 
L 327.977273 224.64 
L 327.977273 152.805389 
L 326.462668 152.805389 
z
" clip-path="url(#p373e463f39)" style="fill: #1f77b4"/>
   </g>
   <g id="patch_180">
    <path d="M 327.977273 224.64 
L 329.491877 224.64 
L 329.491877 160.101092 
L 327.977273 160.101092 
z
" clip-path="url(#p373e463f39)" style="fill: #1f77b4"/>
   </g>
   <g id="patch_181">
    <path d="M 329.491877 224.64 
L 331.006482 224.64 
L 331.006482 159.539884 
L 329.491877 159.539884 
z
" clip-path="url(#p373e463f39)" style="fill: #1f77b4"/>
   </g>
   <g id="patch_182">
    <path d="M 331.006482 224.64 
L 332.521087 224.64 
L 332.521087 168.51921 
L 331.006482 168.51921 
z
" clip-path="url(#p373e463f39)" style="fill: #1f77b4"/>
   </g>
   <g id="patch_183">
    <path d="M 332.521087 224.64 
L 334.035692 224.64 
L 334.035692 167.396794 
L 332.521087 167.396794 
z
" clip-path="url(#p373e463f39)" style="fill: #1f77b4"/>
   </g>
   <g id="patch_184">
    <path d="M 334.035692 224.64 
L 335.550296 224.64 
L 335.550296 178.620952 
L 334.035692 178.620952 
z
" clip-path="url(#p373e463f39)" style="fill: #1f77b4"/>
   </g>
   <g id="patch_185">
    <path d="M 335.550296 224.64 
L 337.064901 224.64 
L 337.064901 171.886458 
L 335.550296 171.886458 
z
" clip-path="url(#p373e463f39)" style="fill: #1f77b4"/>
   </g>
   <g id="patch_186">
    <path d="M 337.064901 224.64 
L 338.579506 224.64 
L 338.579506 181.9882 
L 337.064901 181.9882 
z
" clip-path="url(#p373e463f39)" style="fill: #1f77b4"/>
   </g>
   <g id="patch_187">
    <path d="M 338.579506 224.64 
L 340.094111 224.64 
L 340.094111 182.549408 
L 338.579506 182.549408 
z
" clip-path="url(#p373e463f39)" style="fill: #1f77b4"/>
   </g>
   <g id="patch_188">
    <path d="M 340.094111 224.64 
L 341.608715 224.64 
L 341.608715 181.9882 
L 340.094111 181.9882 
z
" clip-path="url(#p373e463f39)" style="fill: #1f77b4"/>
   </g>
   <g id="patch_189">
    <path d="M 341.608715 224.64 
L 343.12332 224.64 
L 343.12332 185.916655 
L 341.608715 185.916655 
z
" clip-path="url(#p373e463f39)" style="fill: #1f77b4"/>
   </g>
   <g id="patch_190">
    <path d="M 343.12332 224.64 
L 344.637925 224.64 
L 344.637925 193.212358 
L 343.12332 193.212358 
z
" clip-path="url(#p373e463f39)" style="fill: #1f77b4"/>
   </g>
   <g id="patch_191">
    <path d="M 344.637925 224.64 
L 346.15253 224.64 
L 346.15253 194.334774 
L 344.637925 194.334774 
z
" clip-path="url(#p373e463f39)" style="fill: #1f77b4"/>
   </g>
   <g id="patch_192">
    <path d="M 346.15253 224.64 
L 347.667134 224.64 
L 347.667134 187.600279 
L 346.15253 187.600279 
z
" clip-path="url(#p373e463f39)" style="fill: #1f77b4"/>
   </g>
   <g id="patch_193">
    <path d="M 347.667134 224.64 
L 349.181739 224.64 
L 349.181739 193.773566 
L 347.667134 193.773566 
z
" clip-path="url(#p373e463f39)" style="fill: #1f77b4"/>
   </g>
   <g id="patch_194">
    <path d="M 349.181739 224.64 
L 350.696344 224.64 
L 350.696344 207.242555 
L 349.181739 207.242555 
z
" clip-path="url(#p373e463f39)" style="fill: #1f77b4"/>
   </g>
   <g id="patch_195">
    <path d="M 350.696344 224.64 
L 352.210949 224.64 
L 352.210949 204.997724 
L 350.696344 204.997724 
z
" clip-path="url(#p373e463f39)" style="fill: #1f77b4"/>
   </g>
   <g id="patch_196">
    <path d="M 352.210949 224.64 
L 353.725553 224.64 
L 353.725553 202.191684 
L 352.210949 202.191684 
z
" clip-path="url(#p373e463f39)" style="fill: #1f77b4"/>
   </g>
   <g id="patch_197">
    <path d="M 353.725553 224.64 
L 355.240158 224.64 
L 355.240158 209.487387 
L 353.725553 209.487387 
z
" clip-path="url(#p373e463f39)" style="fill: #1f77b4"/>
   </g>
   <g id="patch_198">
    <path d="M 355.240158 224.64 
L 356.754763 224.64 
L 356.754763 207.242555 
L 355.240158 207.242555 
z
" clip-path="url(#p373e463f39)" style="fill: #1f77b4"/>
   </g>
   <g id="patch_199">
    <path d="M 356.754763 224.64 
L 358.269368 224.64 
L 358.269368 215.660674 
L 356.754763 215.660674 
z
" clip-path="url(#p373e463f39)" style="fill: #1f77b4"/>
   </g>
   <g id="patch_200">
    <path d="M 358.269368 224.64 
L 359.783972 224.64 
L 359.783972 218.466713 
L 358.269368 218.466713 
z
" clip-path="url(#p373e463f39)" style="fill: #1f77b4"/>
   </g>
   <g id="patch_201">
    <path d="M 359.783972 224.64 
L 361.298577 224.64 
L 361.298577 220.711545 
L 359.783972 220.711545 
z
" clip-path="url(#p373e463f39)" style="fill: #1f77b4"/>
   </g>
   <g id="patch_202">
    <path d="M 361.298577 224.64 
L 362.813182 224.64 
L 362.813182 220.150337 
L 361.298577 220.150337 
z
" clip-path="url(#p373e463f39)" style="fill: #1f77b4"/>
   </g>
   <g id="matplotlib.axis_1">
    <g id="xtick_1">
     <g id="line2d_1">
      <defs>
       <path id="mf6f930d7bb" d="M 0 0 
L 0 3.5 
" style="stroke: #000000; stroke-width: 0.8"/>
      </defs>
      <g>
       <use xlink:href="#mf6f930d7bb" x="58.999432" y="224.64" style="stroke: #000000; stroke-width: 0.8"/>
      </g>
     </g>
     <g id="text_1">
      <!-- 0.0 -->
      <g transform="translate(51.047869 239.238438)scale(0.1 -0.1)">
       <defs>
        <path id="DejaVuSans-30" d="M 2034 4250 
Q 1547 4250 1301 3770 
Q 1056 3291 1056 2328 
Q 1056 1369 1301 889 
Q 1547 409 2034 409 
Q 2525 409 2770 889 
Q 3016 1369 3016 2328 
Q 3016 3291 2770 3770 
Q 2525 4250 2034 4250 
z
M 2034 4750 
Q 2819 4750 3233 4129 
Q 3647 3509 3647 2328 
Q 3647 1150 3233 529 
Q 2819 -91 2034 -91 
Q 1250 -91 836 529 
Q 422 1150 422 2328 
Q 422 3509 836 4129 
Q 1250 4750 2034 4750 
z
" transform="scale(0.015625)"/>
        <path id="DejaVuSans-2e" d="M 684 794 
L 1344 794 
L 1344 0 
L 684 0 
L 684 794 
z
" transform="scale(0.015625)"/>
       </defs>
       <use xlink:href="#DejaVuSans-30"/>
       <use xlink:href="#DejaVuSans-2e" x="63.623047"/>
       <use xlink:href="#DejaVuSans-30" x="95.410156"/>
      </g>
     </g>
    </g>
    <g id="xtick_2">
     <g id="line2d_2">
      <g>
       <use xlink:href="#mf6f930d7bb" x="97.752214" y="224.64" style="stroke: #000000; stroke-width: 0.8"/>
      </g>
     </g>
     <g id="text_2">
      <!-- 0.2 -->
      <g transform="translate(89.800651 239.238438)scale(0.1 -0.1)">
       <defs>
        <path id="DejaVuSans-32" d="M 1228 531 
L 3431 531 
L 3431 0 
L 469 0 
L 469 531 
Q 828 903 1448 1529 
Q 2069 2156 2228 2338 
Q 2531 2678 2651 2914 
Q 2772 3150 2772 3378 
Q 2772 3750 2511 3984 
Q 2250 4219 1831 4219 
Q 1534 4219 1204 4116 
Q 875 4013 500 3803 
L 500 4441 
Q 881 4594 1212 4672 
Q 1544 4750 1819 4750 
Q 2544 4750 2975 4387 
Q 3406 4025 3406 3419 
Q 3406 3131 3298 2873 
Q 3191 2616 2906 2266 
Q 2828 2175 2409 1742 
Q 1991 1309 1228 531 
z
" transform="scale(0.015625)"/>
       </defs>
       <use xlink:href="#DejaVuSans-30"/>
       <use xlink:href="#DejaVuSans-2e" x="63.623047"/>
       <use xlink:href="#DejaVuSans-32" x="95.410156"/>
      </g>
     </g>
    </g>
    <g id="xtick_3">
     <g id="line2d_3">
      <g>
       <use xlink:href="#mf6f930d7bb" x="136.504995" y="224.64" style="stroke: #000000; stroke-width: 0.8"/>
      </g>
     </g>
     <g id="text_3">
      <!-- 0.4 -->
      <g transform="translate(128.553433 239.238438)scale(0.1 -0.1)">
       <defs>
        <path id="DejaVuSans-34" d="M 2419 4116 
L 825 1625 
L 2419 1625 
L 2419 4116 
z
M 2253 4666 
L 3047 4666 
L 3047 1625 
L 3713 1625 
L 3713 1100 
L 3047 1100 
L 3047 0 
L 2419 0 
L 2419 1100 
L 313 1100 
L 313 1709 
L 2253 4666 
z
" transform="scale(0.015625)"/>
       </defs>
       <use xlink:href="#DejaVuSans-30"/>
       <use xlink:href="#DejaVuSans-2e" x="63.623047"/>
       <use xlink:href="#DejaVuSans-34" x="95.410156"/>
      </g>
     </g>
    </g>
    <g id="xtick_4">
     <g id="line2d_4">
      <g>
       <use xlink:href="#mf6f930d7bb" x="175.257777" y="224.64" style="stroke: #000000; stroke-width: 0.8"/>
      </g>
     </g>
     <g id="text_4">
      <!-- 0.6 -->
      <g transform="translate(167.306215 239.238438)scale(0.1 -0.1)">
       <defs>
        <path id="DejaVuSans-36" d="M 2113 2584 
Q 1688 2584 1439 2293 
Q 1191 2003 1191 1497 
Q 1191 994 1439 701 
Q 1688 409 2113 409 
Q 2538 409 2786 701 
Q 3034 994 3034 1497 
Q 3034 2003 2786 2293 
Q 2538 2584 2113 2584 
z
M 3366 4563 
L 3366 3988 
Q 3128 4100 2886 4159 
Q 2644 4219 2406 4219 
Q 1781 4219 1451 3797 
Q 1122 3375 1075 2522 
Q 1259 2794 1537 2939 
Q 1816 3084 2150 3084 
Q 2853 3084 3261 2657 
Q 3669 2231 3669 1497 
Q 3669 778 3244 343 
Q 2819 -91 2113 -91 
Q 1303 -91 875 529 
Q 447 1150 447 2328 
Q 447 3434 972 4092 
Q 1497 4750 2381 4750 
Q 2619 4750 2861 4703 
Q 3103 4656 3366 4563 
z
" transform="scale(0.015625)"/>
       </defs>
       <use xlink:href="#DejaVuSans-30"/>
       <use xlink:href="#DejaVuSans-2e" x="63.623047"/>
       <use xlink:href="#DejaVuSans-36" x="95.410156"/>
      </g>
     </g>
    </g>
    <g id="xtick_5">
     <g id="line2d_5">
      <g>
       <use xlink:href="#mf6f930d7bb" x="214.010559" y="224.64" style="stroke: #000000; stroke-width: 0.8"/>
      </g>
     </g>
     <g id="text_5">
      <!-- 0.8 -->
      <g transform="translate(206.058996 239.238438)scale(0.1 -0.1)">
       <defs>
        <path id="DejaVuSans-38" d="M 2034 2216 
Q 1584 2216 1326 1975 
Q 1069 1734 1069 1313 
Q 1069 891 1326 650 
Q 1584 409 2034 409 
Q 2484 409 2743 651 
Q 3003 894 3003 1313 
Q 3003 1734 2745 1975 
Q 2488 2216 2034 2216 
z
M 1403 2484 
Q 997 2584 770 2862 
Q 544 3141 544 3541 
Q 544 4100 942 4425 
Q 1341 4750 2034 4750 
Q 2731 4750 3128 4425 
Q 3525 4100 3525 3541 
Q 3525 3141 3298 2862 
Q 3072 2584 2669 2484 
Q 3125 2378 3379 2068 
Q 3634 1759 3634 1313 
Q 3634 634 3220 271 
Q 2806 -91 2034 -91 
Q 1263 -91 848 271 
Q 434 634 434 1313 
Q 434 1759 690 2068 
Q 947 2378 1403 2484 
z
M 1172 3481 
Q 1172 3119 1398 2916 
Q 1625 2713 2034 2713 
Q 2441 2713 2670 2916 
Q 2900 3119 2900 3481 
Q 2900 3844 2670 4047 
Q 2441 4250 2034 4250 
Q 1625 4250 1398 4047 
Q 1172 3844 1172 3481 
z
" transform="scale(0.015625)"/>
       </defs>
       <use xlink:href="#DejaVuSans-30"/>
       <use xlink:href="#DejaVuSans-2e" x="63.623047"/>
       <use xlink:href="#DejaVuSans-38" x="95.410156"/>
      </g>
     </g>
    </g>
    <g id="xtick_6">
     <g id="line2d_6">
      <g>
       <use xlink:href="#mf6f930d7bb" x="252.763341" y="224.64" style="stroke: #000000; stroke-width: 0.8"/>
      </g>
     </g>
     <g id="text_6">
      <!-- 1.0 -->
      <g transform="translate(244.811778 239.238438)scale(0.1 -0.1)">
       <defs>
        <path id="DejaVuSans-31" d="M 794 531 
L 1825 531 
L 1825 4091 
L 703 3866 
L 703 4441 
L 1819 4666 
L 2450 4666 
L 2450 531 
L 3481 531 
L 3481 0 
L 794 0 
L 794 531 
z
" transform="scale(0.015625)"/>
       </defs>
       <use xlink:href="#DejaVuSans-31"/>
       <use xlink:href="#DejaVuSans-2e" x="63.623047"/>
       <use xlink:href="#DejaVuSans-30" x="95.410156"/>
      </g>
     </g>
    </g>
    <g id="xtick_7">
     <g id="line2d_7">
      <g>
       <use xlink:href="#mf6f930d7bb" x="291.516122" y="224.64" style="stroke: #000000; stroke-width: 0.8"/>
      </g>
     </g>
     <g id="text_7">
      <!-- 1.2 -->
      <g transform="translate(283.56456 239.238438)scale(0.1 -0.1)">
       <use xlink:href="#DejaVuSans-31"/>
       <use xlink:href="#DejaVuSans-2e" x="63.623047"/>
       <use xlink:href="#DejaVuSans-32" x="95.410156"/>
      </g>
     </g>
    </g>
    <g id="xtick_8">
     <g id="line2d_8">
      <g>
       <use xlink:href="#mf6f930d7bb" x="330.268904" y="224.64" style="stroke: #000000; stroke-width: 0.8"/>
      </g>
     </g>
     <g id="text_8">
      <!-- 1.4 -->
      <g transform="translate(322.317342 239.238438)scale(0.1 -0.1)">
       <use xlink:href="#DejaVuSans-31"/>
       <use xlink:href="#DejaVuSans-2e" x="63.623047"/>
       <use xlink:href="#DejaVuSans-34" x="95.410156"/>
      </g>
     </g>
    </g>
    <g id="xtick_9">
     <g id="line2d_9">
      <g>
       <use xlink:href="#mf6f930d7bb" x="369.021686" y="224.64" style="stroke: #000000; stroke-width: 0.8"/>
      </g>
     </g>
     <g id="text_9">
      <!-- 1.6 -->
      <g transform="translate(361.070124 239.238438)scale(0.1 -0.1)">
       <use xlink:href="#DejaVuSans-31"/>
       <use xlink:href="#DejaVuSans-2e" x="63.623047"/>
       <use xlink:href="#DejaVuSans-36" x="95.410156"/>
      </g>
     </g>
    </g>
    <g id="text_10">
     <!-- Angle with normal (rad) -->
     <g transform="translate(151.863281 252.916563)scale(0.1 -0.1)">
      <defs>
       <path id="DejaVuSans-41" d="M 2188 4044 
L 1331 1722 
L 3047 1722 
L 2188 4044 
z
M 1831 4666 
L 2547 4666 
L 4325 0 
L 3669 0 
L 3244 1197 
L 1141 1197 
L 716 0 
L 50 0 
L 1831 4666 
z
" transform="scale(0.015625)"/>
       <path id="DejaVuSans-6e" d="M 3513 2113 
L 3513 0 
L 2938 0 
L 2938 2094 
Q 2938 2591 2744 2837 
Q 2550 3084 2163 3084 
Q 1697 3084 1428 2787 
Q 1159 2491 1159 1978 
L 1159 0 
L 581 0 
L 581 3500 
L 1159 3500 
L 1159 2956 
Q 1366 3272 1645 3428 
Q 1925 3584 2291 3584 
Q 2894 3584 3203 3211 
Q 3513 2838 3513 2113 
z
" transform="scale(0.015625)"/>
       <path id="DejaVuSans-67" d="M 2906 1791 
Q 2906 2416 2648 2759 
Q 2391 3103 1925 3103 
Q 1463 3103 1205 2759 
Q 947 2416 947 1791 
Q 947 1169 1205 825 
Q 1463 481 1925 481 
Q 2391 481 2648 825 
Q 2906 1169 2906 1791 
z
M 3481 434 
Q 3481 -459 3084 -895 
Q 2688 -1331 1869 -1331 
Q 1566 -1331 1297 -1286 
Q 1028 -1241 775 -1147 
L 775 -588 
Q 1028 -725 1275 -790 
Q 1522 -856 1778 -856 
Q 2344 -856 2625 -561 
Q 2906 -266 2906 331 
L 2906 616 
Q 2728 306 2450 153 
Q 2172 0 1784 0 
Q 1141 0 747 490 
Q 353 981 353 1791 
Q 353 2603 747 3093 
Q 1141 3584 1784 3584 
Q 2172 3584 2450 3431 
Q 2728 3278 2906 2969 
L 2906 3500 
L 3481 3500 
L 3481 434 
z
" transform="scale(0.015625)"/>
       <path id="DejaVuSans-6c" d="M 603 4863 
L 1178 4863 
L 1178 0 
L 603 0 
L 603 4863 
z
" transform="scale(0.015625)"/>
       <path id="DejaVuSans-65" d="M 3597 1894 
L 3597 1613 
L 953 1613 
Q 991 1019 1311 708 
Q 1631 397 2203 397 
Q 2534 397 2845 478 
Q 3156 559 3463 722 
L 3463 178 
Q 3153 47 2828 -22 
Q 2503 -91 2169 -91 
Q 1331 -91 842 396 
Q 353 884 353 1716 
Q 353 2575 817 3079 
Q 1281 3584 2069 3584 
Q 2775 3584 3186 3129 
Q 3597 2675 3597 1894 
z
M 3022 2063 
Q 3016 2534 2758 2815 
Q 2500 3097 2075 3097 
Q 1594 3097 1305 2825 
Q 1016 2553 972 2059 
L 3022 2063 
z
" transform="scale(0.015625)"/>
       <path id="DejaVuSans-20" transform="scale(0.015625)"/>
       <path id="DejaVuSans-77" d="M 269 3500 
L 844 3500 
L 1563 769 
L 2278 3500 
L 2956 3500 
L 3675 769 
L 4391 3500 
L 4966 3500 
L 4050 0 
L 3372 0 
L 2619 2869 
L 1863 0 
L 1184 0 
L 269 3500 
z
" transform="scale(0.015625)"/>
       <path id="DejaVuSans-69" d="M 603 3500 
L 1178 3500 
L 1178 0 
L 603 0 
L 603 3500 
z
M 603 4863 
L 1178 4863 
L 1178 4134 
L 603 4134 
L 603 4863 
z
" transform="scale(0.015625)"/>
       <path id="DejaVuSans-74" d="M 1172 4494 
L 1172 3500 
L 2356 3500 
L 2356 3053 
L 1172 3053 
L 1172 1153 
Q 1172 725 1289 603 
Q 1406 481 1766 481 
L 2356 481 
L 2356 0 
L 1766 0 
Q 1100 0 847 248 
Q 594 497 594 1153 
L 594 3053 
L 172 3053 
L 172 3500 
L 594 3500 
L 594 4494 
L 1172 4494 
z
" transform="scale(0.015625)"/>
       <path id="DejaVuSans-68" d="M 3513 2113 
L 3513 0 
L 2938 0 
L 2938 2094 
Q 2938 2591 2744 2837 
Q 2550 3084 2163 3084 
Q 1697 3084 1428 2787 
Q 1159 2491 1159 1978 
L 1159 0 
L 581 0 
L 581 4863 
L 1159 4863 
L 1159 2956 
Q 1366 3272 1645 3428 
Q 1925 3584 2291 3584 
Q 2894 3584 3203 3211 
Q 3513 2838 3513 2113 
z
" transform="scale(0.015625)"/>
       <path id="DejaVuSans-6f" d="M 1959 3097 
Q 1497 3097 1228 2736 
Q 959 2375 959 1747 
Q 959 1119 1226 758 
Q 1494 397 1959 397 
Q 2419 397 2687 759 
Q 2956 1122 2956 1747 
Q 2956 2369 2687 2733 
Q 2419 3097 1959 3097 
z
M 1959 3584 
Q 2709 3584 3137 3096 
Q 3566 2609 3566 1747 
Q 3566 888 3137 398 
Q 2709 -91 1959 -91 
Q 1206 -91 779 398 
Q 353 888 353 1747 
Q 353 2609 779 3096 
Q 1206 3584 1959 3584 
z
" transform="scale(0.015625)"/>
       <path id="DejaVuSans-72" d="M 2631 2963 
Q 2534 3019 2420 3045 
Q 2306 3072 2169 3072 
Q 1681 3072 1420 2755 
Q 1159 2438 1159 1844 
L 1159 0 
L 581 0 
L 581 3500 
L 1159 3500 
L 1159 2956 
Q 1341 3275 1631 3429 
Q 1922 3584 2338 3584 
Q 2397 3584 2469 3576 
Q 2541 3569 2628 3553 
L 2631 2963 
z
" transform="scale(0.015625)"/>
       <path id="DejaVuSans-6d" d="M 3328 2828 
Q 3544 3216 3844 3400 
Q 4144 3584 4550 3584 
Q 5097 3584 5394 3201 
Q 5691 2819 5691 2113 
L 5691 0 
L 5113 0 
L 5113 2094 
Q 5113 2597 4934 2840 
Q 4756 3084 4391 3084 
Q 3944 3084 3684 2787 
Q 3425 2491 3425 1978 
L 3425 0 
L 2847 0 
L 2847 2094 
Q 2847 2600 2669 2842 
Q 2491 3084 2119 3084 
Q 1678 3084 1418 2786 
Q 1159 2488 1159 1978 
L 1159 0 
L 581 0 
L 581 3500 
L 1159 3500 
L 1159 2956 
Q 1356 3278 1631 3431 
Q 1906 3584 2284 3584 
Q 2666 3584 2933 3390 
Q 3200 3197 3328 2828 
z
" transform="scale(0.015625)"/>
       <path id="DejaVuSans-61" d="M 2194 1759 
Q 1497 1759 1228 1600 
Q 959 1441 959 1056 
Q 959 750 1161 570 
Q 1363 391 1709 391 
Q 2188 391 2477 730 
Q 2766 1069 2766 1631 
L 2766 1759 
L 2194 1759 
z
M 3341 1997 
L 3341 0 
L 2766 0 
L 2766 531 
Q 2569 213 2275 61 
Q 1981 -91 1556 -91 
Q 1019 -91 701 211 
Q 384 513 384 1019 
Q 384 1609 779 1909 
Q 1175 2209 1959 2209 
L 2766 2209 
L 2766 2266 
Q 2766 2663 2505 2880 
Q 2244 3097 1772 3097 
Q 1472 3097 1187 3025 
Q 903 2953 641 2809 
L 641 3341 
Q 956 3463 1253 3523 
Q 1550 3584 1831 3584 
Q 2591 3584 2966 3190 
Q 3341 2797 3341 1997 
z
" transform="scale(0.015625)"/>
       <path id="DejaVuSans-28" d="M 1984 4856 
Q 1566 4138 1362 3434 
Q 1159 2731 1159 2009 
Q 1159 1288 1364 580 
Q 1569 -128 1984 -844 
L 1484 -844 
Q 1016 -109 783 600 
Q 550 1309 550 2009 
Q 550 2706 781 3412 
Q 1013 4119 1484 4856 
L 1984 4856 
z
" transform="scale(0.015625)"/>
       <path id="DejaVuSans-64" d="M 2906 2969 
L 2906 4863 
L 3481 4863 
L 3481 0 
L 2906 0 
L 2906 525 
Q 2725 213 2448 61 
Q 2172 -91 1784 -91 
Q 1150 -91 751 415 
Q 353 922 353 1747 
Q 353 2572 751 3078 
Q 1150 3584 1784 3584 
Q 2172 3584 2448 3432 
Q 2725 3281 2906 2969 
z
M 947 1747 
Q 947 1113 1208 752 
Q 1469 391 1925 391 
Q 2381 391 2643 752 
Q 2906 1113 2906 1747 
Q 2906 2381 2643 2742 
Q 2381 3103 1925 3103 
Q 1469 3103 1208 2742 
Q 947 2381 947 1747 
z
" transform="scale(0.015625)"/>
       <path id="DejaVuSans-29" d="M 513 4856 
L 1013 4856 
Q 1481 4119 1714 3412 
Q 1947 2706 1947 2009 
Q 1947 1309 1714 600 
Q 1481 -109 1013 -844 
L 513 -844 
Q 928 -128 1133 580 
Q 1338 1288 1338 2009 
Q 1338 2731 1133 3434 
Q 928 4138 513 4856 
z
" transform="scale(0.015625)"/>
      </defs>
      <use xlink:href="#DejaVuSans-41"/>
      <use xlink:href="#DejaVuSans-6e" x="68.408203"/>
      <use xlink:href="#DejaVuSans-67" x="131.787109"/>
      <use xlink:href="#DejaVuSans-6c" x="195.263672"/>
      <use xlink:href="#DejaVuSans-65" x="223.046875"/>
      <use xlink:href="#DejaVuSans-20" x="284.570312"/>
      <use xlink:href="#DejaVuSans-77" x="316.357422"/>
      <use xlink:href="#DejaVuSans-69" x="398.144531"/>
      <use xlink:href="#DejaVuSans-74" x="425.927734"/>
      <use xlink:href="#DejaVuSans-68" x="465.136719"/>
      <use xlink:href="#DejaVuSans-20" x="528.515625"/>
      <use xlink:href="#DejaVuSans-6e" x="560.302734"/>
      <use xlink:href="#DejaVuSans-6f" x="623.681641"/>
      <use xlink:href="#DejaVuSans-72" x="684.863281"/>
      <use xlink:href="#DejaVuSans-6d" x="724.226562"/>
      <use xlink:href="#DejaVuSans-61" x="821.638672"/>
      <use xlink:href="#DejaVuSans-6c" x="882.917969"/>
      <use xlink:href="#DejaVuSans-20" x="910.701172"/>
      <use xlink:href="#DejaVuSans-28" x="942.488281"/>
      <use xlink:href="#DejaVuSans-72" x="981.501953"/>
      <use xlink:href="#DejaVuSans-61" x="1022.615234"/>
      <use xlink:href="#DejaVuSans-64" x="1083.894531"/>
      <use xlink:href="#DejaVuSans-29" x="1147.371094"/>
     </g>
    </g>
   </g>
   <g id="matplotlib.axis_2">
    <g id="ytick_1">
     <g id="line2d_10">
      <defs>
       <path id="ma5105284aa" d="M 0 0 
L -3.5 0 
" style="stroke: #000000; stroke-width: 0.8"/>
      </defs>
      <g>
       <use xlink:href="#ma5105284aa" x="43.78125" y="224.64" style="stroke: #000000; stroke-width: 0.8"/>
      </g>
     </g>
     <g id="text_11">
      <!-- 0.0 -->
      <g transform="translate(20.878125 228.439219)scale(0.1 -0.1)">
       <use xlink:href="#DejaVuSans-30"/>
       <use xlink:href="#DejaVuSans-2e" x="63.623047"/>
       <use xlink:href="#DejaVuSans-30" x="95.410156"/>
      </g>
     </g>
    </g>
    <g id="ytick_2">
     <g id="line2d_11">
      <g>
       <use xlink:href="#ma5105284aa" x="43.78125" y="189.545409" style="stroke: #000000; stroke-width: 0.8"/>
      </g>
     </g>
     <g id="text_12">
      <!-- 0.2 -->
      <g transform="translate(20.878125 193.344627)scale(0.1 -0.1)">
       <use xlink:href="#DejaVuSans-30"/>
       <use xlink:href="#DejaVuSans-2e" x="63.623047"/>
       <use xlink:href="#DejaVuSans-32" x="95.410156"/>
      </g>
     </g>
    </g>
    <g id="ytick_3">
     <g id="line2d_12">
      <g>
       <use xlink:href="#ma5105284aa" x="43.78125" y="154.450817" style="stroke: #000000; stroke-width: 0.8"/>
      </g>
     </g>
     <g id="text_13">
      <!-- 0.4 -->
      <g transform="translate(20.878125 158.250036)scale(0.1 -0.1)">
       <use xlink:href="#DejaVuSans-30"/>
       <use xlink:href="#DejaVuSans-2e" x="63.623047"/>
       <use xlink:href="#DejaVuSans-34" x="95.410156"/>
      </g>
     </g>
    </g>
    <g id="ytick_4">
     <g id="line2d_13">
      <g>
       <use xlink:href="#ma5105284aa" x="43.78125" y="119.356226" style="stroke: #000000; stroke-width: 0.8"/>
      </g>
     </g>
     <g id="text_14">
      <!-- 0.6 -->
      <g transform="translate(20.878125 123.155445)scale(0.1 -0.1)">
       <use xlink:href="#DejaVuSans-30"/>
       <use xlink:href="#DejaVuSans-2e" x="63.623047"/>
       <use xlink:href="#DejaVuSans-36" x="95.410156"/>
      </g>
     </g>
    </g>
    <g id="ytick_5">
     <g id="line2d_14">
      <g>
       <use xlink:href="#ma5105284aa" x="43.78125" y="84.261635" style="stroke: #000000; stroke-width: 0.8"/>
      </g>
     </g>
     <g id="text_15">
      <!-- 0.8 -->
      <g transform="translate(20.878125 88.060853)scale(0.1 -0.1)">
       <use xlink:href="#DejaVuSans-30"/>
       <use xlink:href="#DejaVuSans-2e" x="63.623047"/>
       <use xlink:href="#DejaVuSans-38" x="95.410156"/>
      </g>
     </g>
    </g>
    <g id="ytick_6">
     <g id="line2d_15">
      <g>
       <use xlink:href="#ma5105284aa" x="43.78125" y="49.167043" style="stroke: #000000; stroke-width: 0.8"/>
      </g>
     </g>
     <g id="text_16">
      <!-- 1.0 -->
      <g transform="translate(20.878125 52.966262)scale(0.1 -0.1)">
       <use xlink:href="#DejaVuSans-31"/>
       <use xlink:href="#DejaVuSans-2e" x="63.623047"/>
       <use xlink:href="#DejaVuSans-30" x="95.410156"/>
      </g>
     </g>
    </g>
    <g id="ytick_7">
     <g id="line2d_16">
      <g>
       <use xlink:href="#ma5105284aa" x="43.78125" y="14.072452" style="stroke: #000000; stroke-width: 0.8"/>
      </g>
     </g>
     <g id="text_17">
      <!-- 1.2 -->
      <g transform="translate(20.878125 17.871671)scale(0.1 -0.1)">
       <use xlink:href="#DejaVuSans-31"/>
       <use xlink:href="#DejaVuSans-2e" x="63.623047"/>
       <use xlink:href="#DejaVuSans-32" x="95.410156"/>
      </g>
     </g>
    </g>
    <g id="text_18">
     <!-- Probability density -->
     <g transform="translate(14.798438 162.270781)rotate(-90)scale(0.1 -0.1)">
      <defs>
       <path id="DejaVuSans-50" d="M 1259 4147 
L 1259 2394 
L 2053 2394 
Q 2494 2394 2734 2622 
Q 2975 2850 2975 3272 
Q 2975 3691 2734 3919 
Q 2494 4147 2053 4147 
L 1259 4147 
z
M 628 4666 
L 2053 4666 
Q 2838 4666 3239 4311 
Q 3641 3956 3641 3272 
Q 3641 2581 3239 2228 
Q 2838 1875 2053 1875 
L 1259 1875 
L 1259 0 
L 628 0 
L 628 4666 
z
" transform="scale(0.015625)"/>
       <path id="DejaVuSans-62" d="M 3116 1747 
Q 3116 2381 2855 2742 
Q 2594 3103 2138 3103 
Q 1681 3103 1420 2742 
Q 1159 2381 1159 1747 
Q 1159 1113 1420 752 
Q 1681 391 2138 391 
Q 2594 391 2855 752 
Q 3116 1113 3116 1747 
z
M 1159 2969 
Q 1341 3281 1617 3432 
Q 1894 3584 2278 3584 
Q 2916 3584 3314 3078 
Q 3713 2572 3713 1747 
Q 3713 922 3314 415 
Q 2916 -91 2278 -91 
Q 1894 -91 1617 61 
Q 1341 213 1159 525 
L 1159 0 
L 581 0 
L 581 4863 
L 1159 4863 
L 1159 2969 
z
" transform="scale(0.015625)"/>
       <path id="DejaVuSans-79" d="M 2059 -325 
Q 1816 -950 1584 -1140 
Q 1353 -1331 966 -1331 
L 506 -1331 
L 506 -850 
L 844 -850 
Q 1081 -850 1212 -737 
Q 1344 -625 1503 -206 
L 1606 56 
L 191 3500 
L 800 3500 
L 1894 763 
L 2988 3500 
L 3597 3500 
L 2059 -325 
z
" transform="scale(0.015625)"/>
       <path id="DejaVuSans-73" d="M 2834 3397 
L 2834 2853 
Q 2591 2978 2328 3040 
Q 2066 3103 1784 3103 
Q 1356 3103 1142 2972 
Q 928 2841 928 2578 
Q 928 2378 1081 2264 
Q 1234 2150 1697 2047 
L 1894 2003 
Q 2506 1872 2764 1633 
Q 3022 1394 3022 966 
Q 3022 478 2636 193 
Q 2250 -91 1575 -91 
Q 1294 -91 989 -36 
Q 684 19 347 128 
L 347 722 
Q 666 556 975 473 
Q 1284 391 1588 391 
Q 1994 391 2212 530 
Q 2431 669 2431 922 
Q 2431 1156 2273 1281 
Q 2116 1406 1581 1522 
L 1381 1569 
Q 847 1681 609 1914 
Q 372 2147 372 2553 
Q 372 3047 722 3315 
Q 1072 3584 1716 3584 
Q 2034 3584 2315 3537 
Q 2597 3491 2834 3397 
z
" transform="scale(0.015625)"/>
      </defs>
      <use xlink:href="#DejaVuSans-50"/>
      <use xlink:href="#DejaVuSans-72" x="58.552734"/>
      <use xlink:href="#DejaVuSans-6f" x="97.416016"/>
      <use xlink:href="#DejaVuSans-62" x="158.597656"/>
      <use xlink:href="#DejaVuSans-61" x="222.074219"/>
      <use xlink:href="#DejaVuSans-62" x="283.353516"/>
      <use xlink:href="#DejaVuSans-69" x="346.830078"/>
      <use xlink:href="#DejaVuSans-6c" x="374.613281"/>
      <use xlink:href="#DejaVuSans-69" x="402.396484"/>
      <use xlink:href="#DejaVuSans-74" x="430.179688"/>
      <use xlink:href="#DejaVuSans-79" x="469.388672"/>
      <use xlink:href="#DejaVuSans-20" x="528.568359"/>
      <use xlink:href="#DejaVuSans-64" x="560.355469"/>
      <use xlink:href="#DejaVuSans-65" x="623.832031"/>
      <use xlink:href="#DejaVuSans-6e" x="685.355469"/>
      <use xlink:href="#DejaVuSans-73" x="748.734375"/>
      <use xlink:href="#DejaVuSans-69" x="800.833984"/>
      <use xlink:href="#DejaVuSans-74" x="828.617188"/>
      <use xlink:href="#DejaVuSans-79" x="867.826172"/>
     </g>
    </g>
   </g>
   <g id="line2d_17">
    <path d="M 58.999432 224.64 
L 78.193535 190.102546 
L 88.247589 172.466654 
L 96.778302 157.935746 
L 104.395009 145.39515 
L 111.40238 134.288397 
L 117.800415 124.55865 
L 123.893781 115.697265 
L 129.682479 107.677463 
L 135.166508 100.464372 
L 140.345869 94.01687 
L 145.220562 88.289265 
L 150.095255 82.906784 
L 154.665279 78.186279 
L 159.235304 73.791588 
L 163.50066 69.99247 
L 167.766017 66.493059 
L 171.726705 63.517905 
L 175.687393 60.811996 
L 179.64808 58.379857 
L 183.3041 56.381316 
L 186.96012 54.62236 
L 190.616139 53.105492 
L 194.272159 51.832872 
L 197.928179 50.806312 
L 201.584198 50.027274 
L 204.93555 49.531551 
L 208.286901 49.245344 
L 211.638252 49.168995 
L 214.989604 49.302597 
L 218.340955 49.64599 
L 221.692307 50.198761 
L 225.043658 50.960251 
L 228.699678 52.027932 
L 232.355697 53.341395 
L 236.011717 54.898771 
L 239.667736 56.697841 
L 243.323756 58.736045 
L 247.284444 61.210579 
L 251.245132 63.958215 
L 255.20582 66.974362 
L 259.471176 70.517017 
L 263.736533 74.358363 
L 268.001889 78.490955 
L 272.571913 83.232816 
L 277.141938 88.289265 
L 282.016631 94.01687 
L 287.195992 100.464372 
L 292.375353 107.266688 
L 297.859383 114.834257 
L 303.64808 123.203337 
L 309.741447 132.403421 
L 316.444149 142.943348 
L 323.45152 154.379458 
L 331.372896 167.746439 
L 340.208277 183.100075 
L 351.176336 202.625508 
L 363.363068 224.64 
L 363.363068 224.64 
" clip-path="url(#p373e463f39)" style="fill: none; stroke: #ff7f0e; stroke-width: 1.5; stroke-linecap: square"/>
   </g>
   <g id="patch_203">
    <path d="M 43.78125 224.64 
L 43.78125 7.2 
" style="fill: none; stroke: #000000; stroke-width: 0.8; stroke-linejoin: miter; stroke-linecap: square"/>
   </g>
   <g id="patch_204">
    <path d="M 378.58125 224.64 
L 378.58125 7.2 
" style="fill: none; stroke: #000000; stroke-width: 0.8; stroke-linejoin: miter; stroke-linecap: square"/>
   </g>
   <g id="patch_205">
    <path d="M 43.78125 224.64 
L 378.58125 224.64 
" style="fill: none; stroke: #000000; stroke-width: 0.8; stroke-linejoin: miter; stroke-linecap: square"/>
   </g>
   <g id="patch_206">
    <path d="M 43.78125 7.2 
L 378.58125 7.2 
" style="fill: none; stroke: #000000; stroke-width: 0.8; stroke-linejoin: miter; stroke-linecap: square"/>
   </g>
  </g>
 </g>
 <defs>
  <clipPath id="p373e463f39">
   <rect x="43.78125" y="7.2" width="334.8" height="217.44"/>
  </clipPath>
 </defs>
</svg>
