<?xml version="1.0" encoding="utf-8" standalone="no"?>
<!DOCTYPE svg PUBLIC "-//W3C//DTD SVG 1.1//EN"
  "http://www.w3.org/Graphics/SVG/1.1/DTD/svg11.dtd">
<svg xmlns:xlink="http://www.w3.org/1999/xlink" width="385.78125pt" height="262.19625pt" viewBox="0 0 385.78125 262.19625" xmlns="http://www.w3.org/2000/svg" version="1.1">
 <metadata>
  <rdf:RDF xmlns:dc="http://purl.org/dc/elements/1.1/" xmlns:cc="http://creativecommons.org/ns#" xmlns:rdf="http://www.w3.org/1999/02/22-rdf-syntax-ns#">
   <cc:Work>
    <dc:type rdf:resource="http://purl.org/dc/dcmitype/StillImage"/>
    <dc:date>2022-07-08T18:03:39.019856</dc:date>
    <dc:format>image/svg+xml</dc:format>
    <dc:creator>
     <cc:Agent>
      <dc:title>Matplotlib v3.5.2, https://matplotlib.org/</dc:title>
     </cc:Agent>
    </dc:creator>
   </cc:Work>
  </rdf:RDF>
 </metadata>
 <defs>
  <style type="text/css">*{stroke-linejoin: round; stroke-linecap: butt}</style>
 </defs>
 <g id="figure_1">
  <g id="patch_1">
   <path d="M 0 262.19625 
L 385.78125 262.19625 
L 385.78125 0 
L 0 0 
L 0 262.19625 
z
" style="fill: none"/>
  </g>
  <g id="axes_1">
   <g id="patch_2">
    <path d="M 43.78125 224.64 
L 378.58125 224.64 
L 378.58125 7.2 
L 43.78125 7.2 
z
" style="fill: #ffffff"/>
   </g>
   <g id="patch_3">
    <path d="M 59.754158 224.64 
L 61.269089 224.64 
L 61.269089 222.870037 
L 59.754158 222.870037 
z
" clip-path="url(#p4caafbf363)" style="fill: #1f77b4"/>
   </g>
   <g id="patch_4">
    <path d="M 61.269089 224.64 
L 62.78402 224.64 
L 62.78402 218.740122 
L 61.269089 218.740122 
z
" clip-path="url(#p4caafbf363)" style="fill: #1f77b4"/>
   </g>
   <g id="patch_5">
    <path d="M 62.78402 224.64 
L 64.298951 224.64 
L 64.298951 220.510085 
L 62.78402 220.510085 
z
" clip-path="url(#p4caafbf363)" style="fill: #1f77b4"/>
   </g>
   <g id="patch_6">
    <path d="M 64.298951 224.64 
L 65.813883 224.64 
L 65.813883 215.790183 
L 64.298951 215.790183 
z
" clip-path="url(#p4caafbf363)" style="fill: #1f77b4"/>
   </g>
   <g id="patch_7">
    <path d="M 65.813883 224.64 
L 67.328814 224.64 
L 67.328814 212.250256 
L 65.813883 212.250256 
z
" clip-path="url(#p4caafbf363)" style="fill: #1f77b4"/>
   </g>
   <g id="patch_8">
    <path d="M 67.328814 224.64 
L 68.843745 224.64 
L 68.843745 207.530354 
L 67.328814 207.530354 
z
" clip-path="url(#p4caafbf363)" style="fill: #1f77b4"/>
   </g>
   <g id="patch_9">
    <path d="M 68.843745 224.64 
L 70.358676 224.64 
L 70.358676 204.580415 
L 68.843745 204.580415 
z
" clip-path="url(#p4caafbf363)" style="fill: #1f77b4"/>
   </g>
   <g id="patch_10">
    <path d="M 70.358676 224.64 
L 71.873607 224.64 
L 71.873607 202.810452 
L 70.358676 202.810452 
z
" clip-path="url(#p4caafbf363)" style="fill: #1f77b4"/>
   </g>
   <g id="patch_11">
    <path d="M 71.873607 224.64 
L 73.388538 224.64 
L 73.388538 194.550623 
L 71.873607 194.550623 
z
" clip-path="url(#p4caafbf363)" style="fill: #1f77b4"/>
   </g>
   <g id="patch_12">
    <path d="M 73.388538 224.64 
L 74.90347 224.64 
L 74.90347 197.500562 
L 73.388538 197.500562 
z
" clip-path="url(#p4caafbf363)" style="fill: #1f77b4"/>
   </g>
   <g id="patch_13">
    <path d="M 74.90347 224.64 
L 76.418401 224.64 
L 76.418401 193.960635 
L 74.90347 193.960635 
z
" clip-path="url(#p4caafbf363)" style="fill: #1f77b4"/>
   </g>
   <g id="patch_14">
    <path d="M 76.418401 224.64 
L 77.933332 224.64 
L 77.933332 195.140611 
L 76.418401 195.140611 
z
" clip-path="url(#p4caafbf363)" style="fill: #1f77b4"/>
   </g>
   <g id="patch_15">
    <path d="M 77.933332 224.64 
L 79.448263 224.64 
L 79.448263 190.420708 
L 77.933332 190.420708 
z
" clip-path="url(#p4caafbf363)" style="fill: #1f77b4"/>
   </g>
   <g id="patch_16">
    <path d="M 79.448263 224.64 
L 80.963194 224.64 
L 80.963194 183.340855 
L 79.448263 183.340855 
z
" clip-path="url(#p4caafbf363)" style="fill: #1f77b4"/>
   </g>
   <g id="patch_17">
    <path d="M 80.963194 224.64 
L 82.478126 224.64 
L 82.478126 185.110818 
L 80.963194 185.110818 
z
" clip-path="url(#p4caafbf363)" style="fill: #1f77b4"/>
   </g>
   <g id="patch_18">
    <path d="M 82.478126 224.64 
L 83.993057 224.64 
L 83.993057 180.980904 
L 82.478126 180.980904 
z
" clip-path="url(#p4caafbf363)" style="fill: #1f77b4"/>
   </g>
   <g id="patch_19">
    <path d="M 83.993057 224.64 
L 85.507988 224.64 
L 85.507988 174.491038 
L 83.993057 174.491038 
z
" clip-path="url(#p4caafbf363)" style="fill: #1f77b4"/>
   </g>
   <g id="patch_20">
    <path d="M 85.507988 224.64 
L 87.022919 224.64 
L 87.022919 171.541099 
L 85.507988 171.541099 
z
" clip-path="url(#p4caafbf363)" style="fill: #1f77b4"/>
   </g>
   <g id="patch_21">
    <path d="M 87.022919 224.64 
L 88.53785 224.64 
L 88.53785 170.951111 
L 87.022919 170.951111 
z
" clip-path="url(#p4caafbf363)" style="fill: #1f77b4"/>
   </g>
   <g id="patch_22">
    <path d="M 88.53785 224.64 
L 90.052781 224.64 
L 90.052781 170.951111 
L 88.53785 170.951111 
z
" clip-path="url(#p4caafbf363)" style="fill: #1f77b4"/>
   </g>
   <g id="patch_23">
    <path d="M 90.052781 224.64 
L 91.567713 224.64 
L 91.567713 159.151355 
L 90.052781 159.151355 
z
" clip-path="url(#p4caafbf363)" style="fill: #1f77b4"/>
   </g>
   <g id="patch_24">
    <path d="M 91.567713 224.64 
L 93.082644 224.64 
L 93.082644 162.101294 
L 91.567713 162.101294 
z
" clip-path="url(#p4caafbf363)" style="fill: #1f77b4"/>
   </g>
   <g id="patch_25">
    <path d="M 93.082644 224.64 
L 94.597575 224.64 
L 94.597575 165.051233 
L 93.082644 165.051233 
z
" clip-path="url(#p4caafbf363)" style="fill: #1f77b4"/>
   </g>
   <g id="patch_26">
    <path d="M 94.597575 224.64 
L 96.112506 224.64 
L 96.112506 160.921319 
L 94.597575 160.921319 
z
" clip-path="url(#p4caafbf363)" style="fill: #1f77b4"/>
   </g>
   <g id="patch_27">
    <path d="M 96.112506 224.64 
L 97.627437 224.64 
L 97.627437 152.66149 
L 96.112506 152.66149 
z
" clip-path="url(#p4caafbf363)" style="fill: #1f77b4"/>
   </g>
   <g id="patch_28">
    <path d="M 97.627437 224.64 
L 99.142369 224.64 
L 99.142369 161.511306 
L 97.627437 161.511306 
z
" clip-path="url(#p4caafbf363)" style="fill: #1f77b4"/>
   </g>
   <g id="patch_29">
    <path d="M 99.142369 224.64 
L 100.6573 224.64 
L 100.6573 146.761612 
L 99.142369 146.761612 
z
" clip-path="url(#p4caafbf363)" style="fill: #1f77b4"/>
   </g>
   <g id="patch_30">
    <path d="M 100.6573 224.64 
L 102.172231 224.64 
L 102.172231 143.221685 
L 100.6573 143.221685 
z
" clip-path="url(#p4caafbf363)" style="fill: #1f77b4"/>
   </g>
   <g id="patch_31">
    <path d="M 102.172231 224.64 
L 103.687162 224.64 
L 103.687162 132.011917 
L 102.172231 132.011917 
z
" clip-path="url(#p4caafbf363)" style="fill: #1f77b4"/>
   </g>
   <g id="patch_32">
    <path d="M 103.687162 224.64 
L 105.202093 224.64 
L 105.202093 134.371868 
L 103.687162 134.371868 
z
" clip-path="url(#p4caafbf363)" style="fill: #1f77b4"/>
   </g>
   <g id="patch_33">
    <path d="M 105.202093 224.64 
L 106.717024 224.64 
L 106.717024 149.121563 
L 105.202093 149.121563 
z
" clip-path="url(#p4caafbf363)" style="fill: #1f77b4"/>
   </g>
   <g id="patch_34">
    <path d="M 106.717024 224.64 
L 108.231956 224.64 
L 108.231956 136.731819 
L 106.717024 136.731819 
z
" clip-path="url(#p4caafbf363)" style="fill: #1f77b4"/>
   </g>
   <g id="patch_35">
    <path d="M 108.231956 224.64 
L 109.746887 224.64 
L 109.746887 129.651966 
L 108.231956 129.651966 
z
" clip-path="url(#p4caafbf363)" style="fill: #1f77b4"/>
   </g>
   <g id="patch_36">
    <path d="M 109.746887 224.64 
L 111.261818 224.64 
L 111.261818 136.141832 
L 109.746887 136.141832 
z
" clip-path="url(#p4caafbf363)" style="fill: #1f77b4"/>
   </g>
   <g id="patch_37">
    <path d="M 111.261818 224.64 
L 112.776749 224.64 
L 112.776749 132.601905 
L 111.261818 132.601905 
z
" clip-path="url(#p4caafbf363)" style="fill: #1f77b4"/>
   </g>
   <g id="patch_38">
    <path d="M 112.776749 224.64 
L 114.29168 224.64 
L 114.29168 117.85221 
L 112.776749 117.85221 
z
" clip-path="url(#p4caafbf363)" style="fill: #1f77b4"/>
   </g>
   <g id="patch_39">
    <path d="M 114.29168 224.64 
L 115.806611 224.64 
L 115.806611 128.47199 
L 114.29168 128.47199 
z
" clip-path="url(#p4caafbf363)" style="fill: #1f77b4"/>
   </g>
   <g id="patch_40">
    <path d="M 115.806611 224.64 
L 117.321543 224.64 
L 117.321543 116.672234 
L 115.806611 116.672234 
z
" clip-path="url(#p4caafbf363)" style="fill: #1f77b4"/>
   </g>
   <g id="patch_41">
    <path d="M 117.321543 224.64 
L 118.836474 224.64 
L 118.836474 129.061978 
L 117.321543 129.061978 
z
" clip-path="url(#p4caafbf363)" style="fill: #1f77b4"/>
   </g>
   <g id="patch_42">
    <path d="M 118.836474 224.64 
L 120.351405 224.64 
L 120.351405 123.752088 
L 118.836474 123.752088 
z
" clip-path="url(#p4caafbf363)" style="fill: #1f77b4"/>
   </g>
   <g id="patch_43">
    <path d="M 120.351405 224.64 
L 121.866336 224.64 
L 121.866336 95.432674 
L 120.351405 95.432674 
z
" clip-path="url(#p4caafbf363)" style="fill: #1f77b4"/>
   </g>
   <g id="patch_44">
    <path d="M 121.866336 224.64 
L 123.381267 224.64 
L 123.381267 114.312283 
L 121.866336 114.312283 
z
" clip-path="url(#p4caafbf363)" style="fill: #1f77b4"/>
   </g>
   <g id="patch_45">
    <path d="M 123.381267 224.64 
L 124.896199 224.64 
L 124.896199 117.262222 
L 123.381267 117.262222 
z
" clip-path="url(#p4caafbf363)" style="fill: #1f77b4"/>
   </g>
   <g id="patch_46">
    <path d="M 124.896199 224.64 
L 126.41113 224.64 
L 126.41113 98.382613 
L 124.896199 98.382613 
z
" clip-path="url(#p4caafbf363)" style="fill: #1f77b4"/>
   </g>
   <g id="patch_47">
    <path d="M 126.41113 224.64 
L 127.926061 224.64 
L 127.926061 97.202637 
L 126.41113 97.202637 
z
" clip-path="url(#p4caafbf363)" style="fill: #1f77b4"/>
   </g>
   <g id="patch_48">
    <path d="M 127.926061 224.64 
L 129.440992 224.64 
L 129.440992 90.712772 
L 127.926061 90.712772 
z
" clip-path="url(#p4caafbf363)" style="fill: #1f77b4"/>
   </g>
   <g id="patch_49">
    <path d="M 129.440992 224.64 
L 130.955923 224.64 
L 130.955923 113.722295 
L 129.440992 113.722295 
z
" clip-path="url(#p4caafbf363)" style="fill: #1f77b4"/>
   </g>
   <g id="patch_50">
    <path d="M 130.955923 224.64 
L 132.470854 224.64 
L 132.470854 101.92254 
L 130.955923 101.92254 
z
" clip-path="url(#p4caafbf363)" style="fill: #1f77b4"/>
   </g>
   <g id="patch_51">
    <path d="M 132.470854 224.64 
L 133.985786 224.64 
L 133.985786 111.362344 
L 132.470854 111.362344 
z
" clip-path="url(#p4caafbf363)" style="fill: #1f77b4"/>
   </g>
   <g id="patch_52">
    <path d="M 133.985786 224.64 
L 135.500717 224.64 
L 135.500717 82.452943 
L 133.985786 82.452943 
z
" clip-path="url(#p4caafbf363)" style="fill: #1f77b4"/>
   </g>
   <g id="patch_53">
    <path d="M 135.500717 224.64 
L 137.015648 224.64 
L 137.015648 77.143053 
L 135.500717 77.143053 
z
" clip-path="url(#p4caafbf363)" style="fill: #1f77b4"/>
   </g>
   <g id="patch_54">
    <path d="M 137.015648 224.64 
L 138.530579 224.64 
L 138.530579 98.972601 
L 137.015648 98.972601 
z
" clip-path="url(#p4caafbf363)" style="fill: #1f77b4"/>
   </g>
   <g id="patch_55">
    <path d="M 138.530579 224.64 
L 140.04551 224.64 
L 140.04551 100.152576 
L 138.530579 100.152576 
z
" clip-path="url(#p4caafbf363)" style="fill: #1f77b4"/>
   </g>
   <g id="patch_56">
    <path d="M 140.04551 224.64 
L 141.560441 224.64 
L 141.560441 91.892747 
L 140.04551 91.892747 
z
" clip-path="url(#p4caafbf363)" style="fill: #1f77b4"/>
   </g>
   <g id="patch_57">
    <path d="M 141.560441 224.64 
L 143.075373 224.64 
L 143.075373 85.402882 
L 141.560441 85.402882 
z
" clip-path="url(#p4caafbf363)" style="fill: #1f77b4"/>
   </g>
   <g id="patch_58">
    <path d="M 143.075373 224.64 
L 144.590304 224.64 
L 144.590304 72.42315 
L 143.075373 72.42315 
z
" clip-path="url(#p4caafbf363)" style="fill: #1f77b4"/>
   </g>
   <g id="patch_59">
    <path d="M 144.590304 224.64 
L 146.105235 224.64 
L 146.105235 80.682979 
L 144.590304 80.682979 
z
" clip-path="url(#p4caafbf363)" style="fill: #1f77b4"/>
   </g>
   <g id="patch_60">
    <path d="M 146.105235 224.64 
L 147.620166 224.64 
L 147.620166 83.04293 
L 146.105235 83.04293 
z
" clip-path="url(#p4caafbf363)" style="fill: #1f77b4"/>
   </g>
   <g id="patch_61">
    <path d="M 147.620166 224.64 
L 149.135097 224.64 
L 149.135097 83.04293 
L 147.620166 83.04293 
z
" clip-path="url(#p4caafbf363)" style="fill: #1f77b4"/>
   </g>
   <g id="patch_62">
    <path d="M 149.135097 224.64 
L 150.650029 224.64 
L 150.650029 84.812894 
L 149.135097 84.812894 
z
" clip-path="url(#p4caafbf363)" style="fill: #1f77b4"/>
   </g>
   <g id="patch_63">
    <path d="M 150.650029 224.64 
L 152.16496 224.64 
L 152.16496 80.682979 
L 150.650029 80.682979 
z
" clip-path="url(#p4caafbf363)" style="fill: #1f77b4"/>
   </g>
   <g id="patch_64">
    <path d="M 152.16496 224.64 
L 153.679891 224.64 
L 153.679891 74.783101 
L 152.16496 74.783101 
z
" clip-path="url(#p4caafbf363)" style="fill: #1f77b4"/>
   </g>
   <g id="patch_65">
    <path d="M 153.679891 224.64 
L 155.194822 224.64 
L 155.194822 87.172845 
L 153.679891 87.172845 
z
" clip-path="url(#p4caafbf363)" style="fill: #1f77b4"/>
   </g>
   <g id="patch_66">
    <path d="M 155.194822 224.64 
L 156.709753 224.64 
L 156.709753 62.393358 
L 155.194822 62.393358 
z
" clip-path="url(#p4caafbf363)" style="fill: #1f77b4"/>
   </g>
   <g id="patch_67">
    <path d="M 156.709753 224.64 
L 158.224684 224.64 
L 158.224684 88.352821 
L 156.709753 88.352821 
z
" clip-path="url(#p4caafbf363)" style="fill: #1f77b4"/>
   </g>
   <g id="patch_68">
    <path d="M 158.224684 224.64 
L 159.739616 224.64 
L 159.739616 54.133529 
L 158.224684 54.133529 
z
" clip-path="url(#p4caafbf363)" style="fill: #1f77b4"/>
   </g>
   <g id="patch_69">
    <path d="M 159.739616 224.64 
L 161.254547 224.64 
L 161.254547 82.452943 
L 159.739616 82.452943 
z
" clip-path="url(#p4caafbf363)" style="fill: #1f77b4"/>
   </g>
   <g id="patch_70">
    <path d="M 161.254547 224.64 
L 162.769478 224.64 
L 162.769478 59.443419 
L 161.254547 59.443419 
z
" clip-path="url(#p4caafbf363)" style="fill: #1f77b4"/>
   </g>
   <g id="patch_71">
    <path d="M 162.769478 224.64 
L 164.284409 224.64 
L 164.284409 47.053675 
L 162.769478 47.053675 
z
" clip-path="url(#p4caafbf363)" style="fill: #1f77b4"/>
   </g>
   <g id="patch_72">
    <path d="M 164.284409 224.64 
L 165.79934 224.64 
L 165.79934 66.523272 
L 164.284409 66.523272 
z
" clip-path="url(#p4caafbf363)" style="fill: #1f77b4"/>
   </g>
   <g id="patch_73">
    <path d="M 165.79934 224.64 
L 167.314272 224.64 
L 167.314272 50.003614 
L 165.79934 50.003614 
z
" clip-path="url(#p4caafbf363)" style="fill: #1f77b4"/>
   </g>
   <g id="patch_74">
    <path d="M 167.314272 224.64 
L 168.829203 224.64 
L 168.829203 66.523272 
L 167.314272 66.523272 
z
" clip-path="url(#p4caafbf363)" style="fill: #1f77b4"/>
   </g>
   <g id="patch_75">
    <path d="M 168.829203 224.64 
L 170.344134 224.64 
L 170.344134 58.263443 
L 168.829203 58.263443 
z
" clip-path="url(#p4caafbf363)" style="fill: #1f77b4"/>
   </g>
   <g id="patch_76">
    <path d="M 170.344134 224.64 
L 171.859065 224.64 
L 171.859065 52.953553 
L 170.344134 52.953553 
z
" clip-path="url(#p4caafbf363)" style="fill: #1f77b4"/>
   </g>
   <g id="patch_77">
    <path d="M 171.859065 224.64 
L 173.373996 224.64 
L 173.373996 50.003614 
L 171.859065 50.003614 
z
" clip-path="url(#p4caafbf363)" style="fill: #1f77b4"/>
   </g>
   <g id="patch_78">
    <path d="M 173.373996 224.64 
L 174.888927 224.64 
L 174.888927 44.693724 
L 173.373996 44.693724 
z
" clip-path="url(#p4caafbf363)" style="fill: #1f77b4"/>
   </g>
   <g id="patch_79">
    <path d="M 174.888927 224.64 
L 176.403859 224.64 
L 176.403859 61.213382 
L 174.888927 61.213382 
z
" clip-path="url(#p4caafbf363)" style="fill: #1f77b4"/>
   </g>
   <g id="patch_80">
    <path d="M 176.403859 224.64 
L 177.91879 224.64 
L 177.91879 54.133529 
L 176.403859 54.133529 
z
" clip-path="url(#p4caafbf363)" style="fill: #1f77b4"/>
   </g>
   <g id="patch_81">
    <path d="M 177.91879 224.64 
L 179.433721 224.64 
L 179.433721 59.443419 
L 177.91879 59.443419 
z
" clip-path="url(#p4caafbf363)" style="fill: #1f77b4"/>
   </g>
   <g id="patch_82">
    <path d="M 179.433721 224.64 
L 180.948652 224.64 
L 180.948652 50.003614 
L 179.433721 50.003614 
z
" clip-path="url(#p4caafbf363)" style="fill: #1f77b4"/>
   </g>
   <g id="patch_83">
    <path d="M 180.948652 224.64 
L 182.463583 224.64 
L 182.463583 38.793846 
L 180.948652 38.793846 
z
" clip-path="url(#p4caafbf363)" style="fill: #1f77b4"/>
   </g>
   <g id="patch_84">
    <path d="M 182.463583 224.64 
L 183.978514 224.64 
L 183.978514 47.643663 
L 182.463583 47.643663 
z
" clip-path="url(#p4caafbf363)" style="fill: #1f77b4"/>
   </g>
   <g id="patch_85">
    <path d="M 183.978514 224.64 
L 185.493446 224.64 
L 185.493446 31.124005 
L 183.978514 31.124005 
z
" clip-path="url(#p4caafbf363)" style="fill: #1f77b4"/>
   </g>
   <g id="patch_86">
    <path d="M 185.493446 224.64 
L 187.008377 224.64 
L 187.008377 48.823639 
L 185.493446 48.823639 
z
" clip-path="url(#p4caafbf363)" style="fill: #1f77b4"/>
   </g>
   <g id="patch_87">
    <path d="M 187.008377 224.64 
L 188.523308 224.64 
L 188.523308 50.593602 
L 187.008377 50.593602 
z
" clip-path="url(#p4caafbf363)" style="fill: #1f77b4"/>
   </g>
   <g id="patch_88">
    <path d="M 188.523308 224.64 
L 190.038239 224.64 
L 190.038239 17.554286 
L 188.523308 17.554286 
z
" clip-path="url(#p4caafbf363)" style="fill: #1f77b4"/>
   </g>
   <g id="patch_89">
    <path d="M 190.038239 224.64 
L 191.55317 224.64 
L 191.55317 55.903492 
L 190.038239 55.903492 
z
" clip-path="url(#p4caafbf363)" style="fill: #1f77b4"/>
   </g>
   <g id="patch_90">
    <path d="M 191.55317 224.64 
L 193.068102 224.64 
L 193.068102 41.153797 
L 191.55317 41.153797 
z
" clip-path="url(#p4caafbf363)" style="fill: #1f77b4"/>
   </g>
   <g id="patch_91">
    <path d="M 193.068102 224.64 
L 194.583033 224.64 
L 194.583033 30.534017 
L 193.068102 30.534017 
z
" clip-path="url(#p4caafbf363)" style="fill: #1f77b4"/>
   </g>
   <g id="patch_92">
    <path d="M 194.583033 224.64 
L 196.097964 224.64 
L 196.097964 53.543541 
L 194.583033 53.543541 
z
" clip-path="url(#p4caafbf363)" style="fill: #1f77b4"/>
   </g>
   <g id="patch_93">
    <path d="M 196.097964 224.64 
L 197.612895 224.64 
L 197.612895 44.693724 
L 196.097964 44.693724 
z
" clip-path="url(#p4caafbf363)" style="fill: #1f77b4"/>
   </g>
   <g id="patch_94">
    <path d="M 197.612895 224.64 
L 199.127826 224.64 
L 199.127826 36.433895 
L 197.612895 36.433895 
z
" clip-path="url(#p4caafbf363)" style="fill: #1f77b4"/>
   </g>
   <g id="patch_95">
    <path d="M 199.127826 224.64 
L 200.642757 224.64 
L 200.642757 57.673455 
L 199.127826 57.673455 
z
" clip-path="url(#p4caafbf363)" style="fill: #1f77b4"/>
   </g>
   <g id="patch_96">
    <path d="M 200.642757 224.64 
L 202.157689 224.64 
L 202.157689 47.053675 
L 200.642757 47.053675 
z
" clip-path="url(#p4caafbf363)" style="fill: #1f77b4"/>
   </g>
   <g id="patch_97">
    <path d="M 202.157689 224.64 
L 203.67262 224.64 
L 203.67262 43.513748 
L 202.157689 43.513748 
z
" clip-path="url(#p4caafbf363)" style="fill: #1f77b4"/>
   </g>
   <g id="patch_98">
    <path d="M 203.67262 224.64 
L 205.187551 224.64 
L 205.187551 44.103736 
L 203.67262 44.103736 
z
" clip-path="url(#p4caafbf363)" style="fill: #1f77b4"/>
   </g>
   <g id="patch_99">
    <path d="M 205.187551 224.64 
L 206.702482 224.64 
L 206.702482 44.693724 
L 205.187551 44.693724 
z
" clip-path="url(#p4caafbf363)" style="fill: #1f77b4"/>
   </g>
   <g id="patch_100">
    <path d="M 206.702482 224.64 
L 208.217413 224.64 
L 208.217413 34.073944 
L 206.702482 34.073944 
z
" clip-path="url(#p4caafbf363)" style="fill: #1f77b4"/>
   </g>
   <g id="patch_101">
    <path d="M 208.217413 224.64 
L 209.732344 224.64 
L 209.732344 43.513748 
L 208.217413 43.513748 
z
" clip-path="url(#p4caafbf363)" style="fill: #1f77b4"/>
   </g>
   <g id="patch_102">
    <path d="M 209.732344 224.64 
L 211.247276 224.64 
L 211.247276 41.153797 
L 209.732344 41.153797 
z
" clip-path="url(#p4caafbf363)" style="fill: #1f77b4"/>
   </g>
   <g id="patch_103">
    <path d="M 211.247276 224.64 
L 212.762207 224.64 
L 212.762207 48.233651 
L 211.247276 48.233651 
z
" clip-path="url(#p4caafbf363)" style="fill: #1f77b4"/>
   </g>
   <g id="patch_104">
    <path d="M 212.762207 224.64 
L 214.277138 224.64 
L 214.277138 33.483956 
L 212.762207 33.483956 
z
" clip-path="url(#p4caafbf363)" style="fill: #1f77b4"/>
   </g>
   <g id="patch_105">
    <path d="M 214.277138 224.64 
L 215.792069 224.64 
L 215.792069 68.883223 
L 214.277138 68.883223 
z
" clip-path="url(#p4caafbf363)" style="fill: #1f77b4"/>
   </g>
   <g id="patch_106">
    <path d="M 215.792069 224.64 
L 217.307 224.64 
L 217.307 44.693724 
L 215.792069 44.693724 
z
" clip-path="url(#p4caafbf363)" style="fill: #1f77b4"/>
   </g>
   <g id="patch_107">
    <path d="M 217.307 224.64 
L 218.821932 224.64 
L 218.821932 26.404103 
L 217.307 26.404103 
z
" clip-path="url(#p4caafbf363)" style="fill: #1f77b4"/>
   </g>
   <g id="patch_108">
    <path d="M 218.821932 224.64 
L 220.336863 224.64 
L 220.336863 45.8737 
L 218.821932 45.8737 
z
" clip-path="url(#p4caafbf363)" style="fill: #1f77b4"/>
   </g>
   <g id="patch_109">
    <path d="M 220.336863 224.64 
L 221.851794 224.64 
L 221.851794 40.56381 
L 220.336863 40.56381 
z
" clip-path="url(#p4caafbf363)" style="fill: #1f77b4"/>
   </g>
   <g id="patch_110">
    <path d="M 221.851794 224.64 
L 223.366725 224.64 
L 223.366725 42.333773 
L 221.851794 42.333773 
z
" clip-path="url(#p4caafbf363)" style="fill: #1f77b4"/>
   </g>
   <g id="patch_111">
    <path d="M 223.366725 224.64 
L 224.881656 224.64 
L 224.881656 47.643663 
L 223.366725 47.643663 
z
" clip-path="url(#p4caafbf363)" style="fill: #1f77b4"/>
   </g>
   <g id="patch_112">
    <path d="M 224.881656 224.64 
L 226.396587 224.64 
L 226.396587 85.402882 
L 224.881656 85.402882 
z
" clip-path="url(#p4caafbf363)" style="fill: #1f77b4"/>
   </g>
   <g id="patch_113">
    <path d="M 226.396587 224.64 
L 227.911519 224.64 
L 227.911519 28.764054 
L 226.396587 28.764054 
z
" clip-path="url(#p4caafbf363)" style="fill: #1f77b4"/>
   </g>
   <g id="patch_114">
    <path d="M 227.911519 224.64 
L 229.42645 224.64 
L 229.42645 44.693724 
L 227.911519 44.693724 
z
" clip-path="url(#p4caafbf363)" style="fill: #1f77b4"/>
   </g>
   <g id="patch_115">
    <path d="M 229.42645 224.64 
L 230.941381 224.64 
L 230.941381 41.153797 
L 229.42645 41.153797 
z
" clip-path="url(#p4caafbf363)" style="fill: #1f77b4"/>
   </g>
   <g id="patch_116">
    <path d="M 230.941381 224.64 
L 232.456312 224.64 
L 232.456312 39.973822 
L 230.941381 39.973822 
z
" clip-path="url(#p4caafbf363)" style="fill: #1f77b4"/>
   </g>
   <g id="patch_117">
    <path d="M 232.456312 224.64 
L 233.971243 224.64 
L 233.971243 45.8737 
L 232.456312 45.8737 
z
" clip-path="url(#p4caafbf363)" style="fill: #1f77b4"/>
   </g>
   <g id="patch_118">
    <path d="M 233.971243 224.64 
L 235.486175 224.64 
L 235.486175 50.003614 
L 233.971243 50.003614 
z
" clip-path="url(#p4caafbf363)" style="fill: #1f77b4"/>
   </g>
   <g id="patch_119">
    <path d="M 235.486175 224.64 
L 237.001106 224.64 
L 237.001106 22.864176 
L 235.486175 22.864176 
z
" clip-path="url(#p4caafbf363)" style="fill: #1f77b4"/>
   </g>
   <g id="patch_120">
    <path d="M 237.001106 224.64 
L 238.516037 224.64 
L 238.516037 41.743785 
L 237.001106 41.743785 
z
" clip-path="url(#p4caafbf363)" style="fill: #1f77b4"/>
   </g>
   <g id="patch_121">
    <path d="M 238.516037 224.64 
L 240.030968 224.64 
L 240.030968 67.703248 
L 238.516037 67.703248 
z
" clip-path="url(#p4caafbf363)" style="fill: #1f77b4"/>
   </g>
   <g id="patch_122">
    <path d="M 240.030968 224.64 
L 241.545899 224.64 
L 241.545899 32.893968 
L 240.030968 32.893968 
z
" clip-path="url(#p4caafbf363)" style="fill: #1f77b4"/>
   </g>
   <g id="patch_123">
    <path d="M 241.545899 224.64 
L 243.06083 224.64 
L 243.06083 37.613871 
L 241.545899 37.613871 
z
" clip-path="url(#p4caafbf363)" style="fill: #1f77b4"/>
   </g>
   <g id="patch_124">
    <path d="M 243.06083 224.64 
L 244.575762 224.64 
L 244.575762 47.053675 
L 243.06083 47.053675 
z
" clip-path="url(#p4caafbf363)" style="fill: #1f77b4"/>
   </g>
   <g id="patch_125">
    <path d="M 244.575762 224.64 
L 246.090693 224.64 
L 246.090693 46.463687 
L 244.575762 46.463687 
z
" clip-path="url(#p4caafbf363)" style="fill: #1f77b4"/>
   </g>
   <g id="patch_126">
    <path d="M 246.090693 224.64 
L 247.605624 224.64 
L 247.605624 51.18359 
L 246.090693 51.18359 
z
" clip-path="url(#p4caafbf363)" style="fill: #1f77b4"/>
   </g>
   <g id="patch_127">
    <path d="M 247.605624 224.64 
L 249.120555 224.64 
L 249.120555 37.023883 
L 247.605624 37.023883 
z
" clip-path="url(#p4caafbf363)" style="fill: #1f77b4"/>
   </g>
   <g id="patch_128">
    <path d="M 249.120555 224.64 
L 250.635486 224.64 
L 250.635486 37.023883 
L 249.120555 37.023883 
z
" clip-path="url(#p4caafbf363)" style="fill: #1f77b4"/>
   </g>
   <g id="patch_129">
    <path d="M 250.635486 224.64 
L 252.150417 224.64 
L 252.150417 60.623394 
L 250.635486 60.623394 
z
" clip-path="url(#p4caafbf363)" style="fill: #1f77b4"/>
   </g>
   <g id="patch_130">
    <path d="M 252.150417 224.64 
L 253.665349 224.64 
L 253.665349 68.883223 
L 252.150417 68.883223 
z
" clip-path="url(#p4caafbf363)" style="fill: #1f77b4"/>
   </g>
   <g id="patch_131">
    <path d="M 253.665349 224.64 
L 255.18028 224.64 
L 255.18028 50.003614 
L 253.665349 50.003614 
z
" clip-path="url(#p4caafbf363)" style="fill: #1f77b4"/>
   </g>
   <g id="patch_132">
    <path d="M 255.18028 224.64 
L 256.695211 224.64 
L 256.695211 60.033407 
L 255.18028 60.033407 
z
" clip-path="url(#p4caafbf363)" style="fill: #1f77b4"/>
   </g>
   <g id="patch_133">
    <path d="M 256.695211 224.64 
L 258.210142 224.64 
L 258.210142 36.433895 
L 256.695211 36.433895 
z
" clip-path="url(#p4caafbf363)" style="fill: #1f77b4"/>
   </g>
   <g id="patch_134">
    <path d="M 258.210142 224.64 
L 259.725073 224.64 
L 259.725073 70.653187 
L 258.210142 70.653187 
z
" clip-path="url(#p4caafbf363)" style="fill: #1f77b4"/>
   </g>
   <g id="patch_135">
    <path d="M 259.725073 224.64 
L 261.240005 224.64 
L 261.240005 56.49348 
L 259.725073 56.49348 
z
" clip-path="url(#p4caafbf363)" style="fill: #1f77b4"/>
   </g>
   <g id="patch_136">
    <path d="M 261.240005 224.64 
L 262.754936 224.64 
L 262.754936 85.402882 
L 261.240005 85.402882 
z
" clip-path="url(#p4caafbf363)" style="fill: #1f77b4"/>
   </g>
   <g id="patch_137">
    <path d="M 262.754936 224.64 
L 264.269867 224.64 
L 264.269867 75.373089 
L 262.754936 75.373089 
z
" clip-path="url(#p4caafbf363)" style="fill: #1f77b4"/>
   </g>
   <g id="patch_138">
    <path d="M 264.269867 224.64 
L 265.784798 224.64 
L 265.784798 60.623394 
L 264.269867 60.623394 
z
" clip-path="url(#p4caafbf363)" style="fill: #1f77b4"/>
   </g>
   <g id="patch_139">
    <path d="M 265.784798 224.64 
L 267.299729 224.64 
L 267.299729 78.323028 
L 265.784798 78.323028 
z
" clip-path="url(#p4caafbf363)" style="fill: #1f77b4"/>
   </g>
   <g id="patch_140">
    <path d="M 267.299729 224.64 
L 268.81466 224.64 
L 268.81466 62.393358 
L 267.299729 62.393358 
z
" clip-path="url(#p4caafbf363)" style="fill: #1f77b4"/>
   </g>
   <g id="patch_141">
    <path d="M 268.81466 224.64 
L 270.329592 224.64 
L 270.329592 71.833162 
L 268.81466 71.833162 
z
" clip-path="url(#p4caafbf363)" style="fill: #1f77b4"/>
   </g>
   <g id="patch_142">
    <path d="M 270.329592 224.64 
L 271.844523 224.64 
L 271.844523 93.072723 
L 270.329592 93.072723 
z
" clip-path="url(#p4caafbf363)" style="fill: #1f77b4"/>
   </g>
   <g id="patch_143">
    <path d="M 271.844523 224.64 
L 273.359454 224.64 
L 273.359454 72.42315 
L 271.844523 72.42315 
z
" clip-path="url(#p4caafbf363)" style="fill: #1f77b4"/>
   </g>
   <g id="patch_144">
    <path d="M 273.359454 224.64 
L 274.874385 224.64 
L 274.874385 68.883223 
L 273.359454 68.883223 
z
" clip-path="url(#p4caafbf363)" style="fill: #1f77b4"/>
   </g>
   <g id="patch_145">
    <path d="M 274.874385 224.64 
L 276.389316 224.64 
L 276.389316 87.762833 
L 274.874385 87.762833 
z
" clip-path="url(#p4caafbf363)" style="fill: #1f77b4"/>
   </g>
   <g id="patch_146">
    <path d="M 276.389316 224.64 
L 277.904248 224.64 
L 277.904248 83.632918 
L 276.389316 83.632918 
z
" clip-path="url(#p4caafbf363)" style="fill: #1f77b4"/>
   </g>
   <g id="patch_147">
    <path d="M 277.904248 224.64 
L 279.419179 224.64 
L 279.419179 79.503004 
L 277.904248 79.503004 
z
" clip-path="url(#p4caafbf363)" style="fill: #1f77b4"/>
   </g>
   <g id="patch_148">
    <path d="M 279.419179 224.64 
L 280.93411 224.64 
L 280.93411 77.73304 
L 279.419179 77.73304 
z
" clip-path="url(#p4caafbf363)" style="fill: #1f77b4"/>
   </g>
   <g id="patch_149">
    <path d="M 280.93411 224.64 
L 282.449041 224.64 
L 282.449041 88.352821 
L 280.93411 88.352821 
z
" clip-path="url(#p4caafbf363)" style="fill: #1f77b4"/>
   </g>
   <g id="patch_150">
    <path d="M 282.449041 224.64 
L 283.963972 224.64 
L 283.963972 90.122784 
L 282.449041 90.122784 
z
" clip-path="url(#p4caafbf363)" style="fill: #1f77b4"/>
   </g>
   <g id="patch_151">
    <path d="M 283.963972 224.64 
L 285.478903 224.64 
L 285.478903 73.603126 
L 283.963972 73.603126 
z
" clip-path="url(#p4caafbf363)" style="fill: #1f77b4"/>
   </g>
   <g id="patch_152">
    <path d="M 285.478903 224.64 
L 286.993835 224.64 
L 286.993835 93.072723 
L 285.478903 93.072723 
z
" clip-path="url(#p4caafbf363)" style="fill: #1f77b4"/>
   </g>
   <g id="patch_153">
    <path d="M 286.993835 224.64 
L 288.508766 224.64 
L 288.508766 99.562589 
L 286.993835 99.562589 
z
" clip-path="url(#p4caafbf363)" style="fill: #1f77b4"/>
   </g>
   <g id="patch_154">
    <path d="M 288.508766 224.64 
L 290.023697 224.64 
L 290.023697 82.452943 
L 288.508766 82.452943 
z
" clip-path="url(#p4caafbf363)" style="fill: #1f77b4"/>
   </g>
   <g id="patch_155">
    <path d="M 290.023697 224.64 
L 291.538628 224.64 
L 291.538628 88.352821 
L 290.023697 88.352821 
z
" clip-path="url(#p4caafbf363)" style="fill: #1f77b4"/>
   </g>
   <g id="patch_156">
    <path d="M 291.538628 224.64 
L 293.053559 224.64 
L 293.053559 100.742564 
L 291.538628 100.742564 
z
" clip-path="url(#p4caafbf363)" style="fill: #1f77b4"/>
   </g>
   <g id="patch_157">
    <path d="M 293.053559 224.64 
L 294.56849 224.64 
L 294.56849 96.022662 
L 293.053559 96.022662 
z
" clip-path="url(#p4caafbf363)" style="fill: #1f77b4"/>
   </g>
   <g id="patch_158">
    <path d="M 294.56849 224.64 
L 296.083422 224.64 
L 296.083422 110.182369 
L 294.56849 110.182369 
z
" clip-path="url(#p4caafbf363)" style="fill: #1f77b4"/>
   </g>
   <g id="patch_159">
    <path d="M 296.083422 224.64 
L 297.598353 224.64 
L 297.598353 101.332552 
L 296.083422 101.332552 
z
" clip-path="url(#p4caafbf363)" style="fill: #1f77b4"/>
   </g>
   <g id="patch_160">
    <path d="M 297.598353 224.64 
L 299.113284 224.64 
L 299.113284 111.362344 
L 297.598353 111.362344 
z
" clip-path="url(#p4caafbf363)" style="fill: #1f77b4"/>
   </g>
   <g id="patch_161">
    <path d="M 299.113284 224.64 
L 300.628215 224.64 
L 300.628215 101.332552 
L 299.113284 101.332552 
z
" clip-path="url(#p4caafbf363)" style="fill: #1f77b4"/>
   </g>
   <g id="patch_162">
    <path d="M 300.628215 224.64 
L 302.143146 224.64 
L 302.143146 103.692503 
L 300.628215 103.692503 
z
" clip-path="url(#p4caafbf363)" style="fill: #1f77b4"/>
   </g>
   <g id="patch_163">
    <path d="M 302.143146 224.64 
L 303.658078 224.64 
L 303.658078 120.212161 
L 302.143146 120.212161 
z
" clip-path="url(#p4caafbf363)" style="fill: #1f77b4"/>
   </g>
   <g id="patch_164">
    <path d="M 303.658078 224.64 
L 305.173009 224.64 
L 305.173009 123.1621 
L 303.658078 123.1621 
z
" clip-path="url(#p4caafbf363)" style="fill: #1f77b4"/>
   </g>
   <g id="patch_165">
    <path d="M 305.173009 224.64 
L 306.68794 224.64 
L 306.68794 125.522051 
L 305.173009 125.522051 
z
" clip-path="url(#p4caafbf363)" style="fill: #1f77b4"/>
   </g>
   <g id="patch_166">
    <path d="M 306.68794 224.64 
L 308.202871 224.64 
L 308.202871 126.112039 
L 306.68794 126.112039 
z
" clip-path="url(#p4caafbf363)" style="fill: #1f77b4"/>
   </g>
   <g id="patch_167">
    <path d="M 308.202871 224.64 
L 309.717802 224.64 
L 309.717802 131.421929 
L 308.202871 131.421929 
z
" clip-path="url(#p4caafbf363)" style="fill: #1f77b4"/>
   </g>
   <g id="patch_168">
    <path d="M 309.717802 224.64 
L 311.232733 224.64 
L 311.232733 124.342076 
L 309.717802 124.342076 
z
" clip-path="url(#p4caafbf363)" style="fill: #1f77b4"/>
   </g>
   <g id="patch_169">
    <path d="M 311.232733 224.64 
L 312.747665 224.64 
L 312.747665 152.66149 
L 311.232733 152.66149 
z
" clip-path="url(#p4caafbf363)" style="fill: #1f77b4"/>
   </g>
   <g id="patch_170">
    <path d="M 312.747665 224.64 
L 314.262596 224.64 
L 314.262596 144.401661 
L 312.747665 144.401661 
z
" clip-path="url(#p4caafbf363)" style="fill: #1f77b4"/>
   </g>
   <g id="patch_171">
    <path d="M 314.262596 224.64 
L 315.777527 224.64 
L 315.777527 133.191893 
L 314.262596 133.191893 
z
" clip-path="url(#p4caafbf363)" style="fill: #1f77b4"/>
   </g>
   <g id="patch_172">
    <path d="M 315.777527 224.64 
L 317.292458 224.64 
L 317.292458 130.831941 
L 315.777527 130.831941 
z
" clip-path="url(#p4caafbf363)" style="fill: #1f77b4"/>
   </g>
   <g id="patch_173">
    <path d="M 317.292458 224.64 
L 318.807389 224.64 
L 318.807389 135.551844 
L 317.292458 135.551844 
z
" clip-path="url(#p4caafbf363)" style="fill: #1f77b4"/>
   </g>
   <g id="patch_174">
    <path d="M 318.807389 224.64 
L 320.32232 224.64 
L 320.32232 160.921319 
L 318.807389 160.921319 
z
" clip-path="url(#p4caafbf363)" style="fill: #1f77b4"/>
   </g>
   <g id="patch_175">
    <path d="M 320.32232 224.64 
L 321.837252 224.64 
L 321.837252 162.101294 
L 320.32232 162.101294 
z
" clip-path="url(#p4caafbf363)" style="fill: #1f77b4"/>
   </g>
   <g id="patch_176">
    <path d="M 321.837252 224.64 
L 323.352183 224.64 
L 323.352183 143.221685 
L 321.837252 143.221685 
z
" clip-path="url(#p4caafbf363)" style="fill: #1f77b4"/>
   </g>
   <g id="patch_177">
    <path d="M 323.352183 224.64 
L 324.867114 224.64 
L 324.867114 145.581636 
L 323.352183 145.581636 
z
" clip-path="url(#p4caafbf363)" style="fill: #1f77b4"/>
   </g>
   <g id="patch_178">
    <path d="M 324.867114 224.64 
L 326.382045 224.64 
L 326.382045 146.171624 
L 324.867114 146.171624 
z
" clip-path="url(#p4caafbf363)" style="fill: #1f77b4"/>
   </g>
   <g id="patch_179">
    <path d="M 326.382045 224.64 
L 327.896976 224.64 
L 327.896976 143.811673 
L 326.382045 143.811673 
z
" clip-path="url(#p4caafbf363)" style="fill: #1f77b4"/>
   </g>
   <g id="patch_180">
    <path d="M 327.896976 224.64 
L 329.411908 224.64 
L 329.411908 152.66149 
L 327.896976 152.66149 
z
" clip-path="url(#p4caafbf363)" style="fill: #1f77b4"/>
   </g>
   <g id="patch_181">
    <path d="M 329.411908 224.64 
L 330.926839 224.64 
L 330.926839 160.921319 
L 329.411908 160.921319 
z
" clip-path="url(#p4caafbf363)" style="fill: #1f77b4"/>
   </g>
   <g id="patch_182">
    <path d="M 330.926839 224.64 
L 332.44177 224.64 
L 332.44177 154.431453 
L 330.926839 154.431453 
z
" clip-path="url(#p4caafbf363)" style="fill: #1f77b4"/>
   </g>
   <g id="patch_183">
    <path d="M 332.44177 224.64 
L 333.956701 224.64 
L 333.956701 171.541099 
L 332.44177 171.541099 
z
" clip-path="url(#p4caafbf363)" style="fill: #1f77b4"/>
   </g>
   <g id="patch_184">
    <path d="M 333.956701 224.64 
L 335.471632 224.64 
L 335.471632 175.081026 
L 333.956701 175.081026 
z
" clip-path="url(#p4caafbf363)" style="fill: #1f77b4"/>
   </g>
   <g id="patch_185">
    <path d="M 335.471632 224.64 
L 336.986563 224.64 
L 336.986563 177.440977 
L 335.471632 177.440977 
z
" clip-path="url(#p4caafbf363)" style="fill: #1f77b4"/>
   </g>
   <g id="patch_186">
    <path d="M 336.986563 224.64 
L 338.501495 224.64 
L 338.501495 176.261001 
L 336.986563 176.261001 
z
" clip-path="url(#p4caafbf363)" style="fill: #1f77b4"/>
   </g>
   <g id="patch_187">
    <path d="M 338.501495 224.64 
L 340.016426 224.64 
L 340.016426 181.570891 
L 338.501495 181.570891 
z
" clip-path="url(#p4caafbf363)" style="fill: #1f77b4"/>
   </g>
   <g id="patch_188">
    <path d="M 340.016426 224.64 
L 341.531357 224.64 
L 341.531357 181.570891 
L 340.016426 181.570891 
z
" clip-path="url(#p4caafbf363)" style="fill: #1f77b4"/>
   </g>
   <g id="patch_189">
    <path d="M 341.531357 224.64 
L 343.046288 224.64 
L 343.046288 185.700806 
L 341.531357 185.700806 
z
" clip-path="url(#p4caafbf363)" style="fill: #1f77b4"/>
   </g>
   <g id="patch_190">
    <path d="M 343.046288 224.64 
L 344.561219 224.64 
L 344.561219 181.570891 
L 343.046288 181.570891 
z
" clip-path="url(#p4caafbf363)" style="fill: #1f77b4"/>
   </g>
   <g id="patch_191">
    <path d="M 344.561219 224.64 
L 346.076151 224.64 
L 346.076151 187.470769 
L 344.561219 187.470769 
z
" clip-path="url(#p4caafbf363)" style="fill: #1f77b4"/>
   </g>
   <g id="patch_192">
    <path d="M 346.076151 224.64 
L 347.591082 224.64 
L 347.591082 193.370647 
L 346.076151 193.370647 
z
" clip-path="url(#p4caafbf363)" style="fill: #1f77b4"/>
   </g>
   <g id="patch_193">
    <path d="M 347.591082 224.64 
L 349.106013 224.64 
L 349.106013 195.140611 
L 347.591082 195.140611 
z
" clip-path="url(#p4caafbf363)" style="fill: #1f77b4"/>
   </g>
   <g id="patch_194">
    <path d="M 349.106013 224.64 
L 350.620944 224.64 
L 350.620944 198.090549 
L 349.106013 198.090549 
z
" clip-path="url(#p4caafbf363)" style="fill: #1f77b4"/>
   </g>
   <g id="patch_195">
    <path d="M 350.620944 224.64 
L 352.135875 224.64 
L 352.135875 202.810452 
L 350.620944 202.810452 
z
" clip-path="url(#p4caafbf363)" style="fill: #1f77b4"/>
   </g>
   <g id="patch_196">
    <path d="M 352.135875 224.64 
L 353.650806 224.64 
L 353.650806 202.810452 
L 352.135875 202.810452 
z
" clip-path="url(#p4caafbf363)" style="fill: #1f77b4"/>
   </g>
   <g id="patch_197">
    <path d="M 353.650806 224.64 
L 355.165738 224.64 
L 355.165738 212.250256 
L 353.650806 212.250256 
z
" clip-path="url(#p4caafbf363)" style="fill: #1f77b4"/>
   </g>
   <g id="patch_198">
    <path d="M 355.165738 224.64 
L 356.680669 224.64 
L 356.680669 209.300317 
L 355.165738 209.300317 
z
" clip-path="url(#p4caafbf363)" style="fill: #1f77b4"/>
   </g>
   <g id="patch_199">
    <path d="M 356.680669 224.64 
L 358.1956 224.64 
L 358.1956 216.380171 
L 356.680669 216.380171 
z
" clip-path="url(#p4caafbf363)" style="fill: #1f77b4"/>
   </g>
   <g id="patch_200">
    <path d="M 358.1956 224.64 
L 359.710531 224.64 
L 359.710531 215.200195 
L 358.1956 215.200195 
z
" clip-path="url(#p4caafbf363)" style="fill: #1f77b4"/>
   </g>
   <g id="patch_201">
    <path d="M 359.710531 224.64 
L 361.225462 224.64 
L 361.225462 216.380171 
L 359.710531 216.380171 
z
" clip-path="url(#p4caafbf363)" style="fill: #1f77b4"/>
   </g>
   <g id="patch_202">
    <path d="M 361.225462 224.64 
L 362.740393 224.64 
L 362.740393 220.510085 
L 361.225462 220.510085 
z
" clip-path="url(#p4caafbf363)" style="fill: #1f77b4"/>
   </g>
   <g id="matplotlib.axis_1">
    <g id="xtick_1">
     <g id="line2d_1">
      <defs>
       <path id="mb2c4ae7e0a" d="M 0 0 
L 0 3.5 
" style="stroke: #000000; stroke-width: 0.8"/>
      </defs>
      <g>
       <use xlink:href="#mb2c4ae7e0a" x="58.999432" y="224.64" style="stroke: #000000; stroke-width: 0.8"/>
      </g>
     </g>
     <g id="text_1">
      <!-- 0.0 -->
      <g transform="translate(51.047869 239.238438)scale(0.1 -0.1)">
       <defs>
        <path id="DejaVuSans-30" d="M 2034 4250 
Q 1547 4250 1301 3770 
Q 1056 3291 1056 2328 
Q 1056 1369 1301 889 
Q 1547 409 2034 409 
Q 2525 409 2770 889 
Q 3016 1369 3016 2328 
Q 3016 3291 2770 3770 
Q 2525 4250 2034 4250 
z
M 2034 4750 
Q 2819 4750 3233 4129 
Q 3647 3509 3647 2328 
Q 3647 1150 3233 529 
Q 2819 -91 2034 -91 
Q 1250 -91 836 529 
Q 422 1150 422 2328 
Q 422 3509 836 4129 
Q 1250 4750 2034 4750 
z
" transform="scale(0.015625)"/>
        <path id="DejaVuSans-2e" d="M 684 794 
L 1344 794 
L 1344 0 
L 684 0 
L 684 794 
z
" transform="scale(0.015625)"/>
       </defs>
       <use xlink:href="#DejaVuSans-30"/>
       <use xlink:href="#DejaVuSans-2e" x="63.623047"/>
       <use xlink:href="#DejaVuSans-30" x="95.410156"/>
      </g>
     </g>
    </g>
    <g id="xtick_2">
     <g id="line2d_2">
      <g>
       <use xlink:href="#mb2c4ae7e0a" x="97.752214" y="224.64" style="stroke: #000000; stroke-width: 0.8"/>
      </g>
     </g>
     <g id="text_2">
      <!-- 0.2 -->
      <g transform="translate(89.800651 239.238438)scale(0.1 -0.1)">
       <defs>
        <path id="DejaVuSans-32" d="M 1228 531 
L 3431 531 
L 3431 0 
L 469 0 
L 469 531 
Q 828 903 1448 1529 
Q 2069 2156 2228 2338 
Q 2531 2678 2651 2914 
Q 2772 3150 2772 3378 
Q 2772 3750 2511 3984 
Q 2250 4219 1831 4219 
Q 1534 4219 1204 4116 
Q 875 4013 500 3803 
L 500 4441 
Q 881 4594 1212 4672 
Q 1544 4750 1819 4750 
Q 2544 4750 2975 4387 
Q 3406 4025 3406 3419 
Q 3406 3131 3298 2873 
Q 3191 2616 2906 2266 
Q 2828 2175 2409 1742 
Q 1991 1309 1228 531 
z
" transform="scale(0.015625)"/>
       </defs>
       <use xlink:href="#DejaVuSans-30"/>
       <use xlink:href="#DejaVuSans-2e" x="63.623047"/>
       <use xlink:href="#DejaVuSans-32" x="95.410156"/>
      </g>
     </g>
    </g>
    <g id="xtick_3">
     <g id="line2d_3">
      <g>
       <use xlink:href="#mb2c4ae7e0a" x="136.504995" y="224.64" style="stroke: #000000; stroke-width: 0.8"/>
      </g>
     </g>
     <g id="text_3">
      <!-- 0.4 -->
      <g transform="translate(128.553433 239.238438)scale(0.1 -0.1)">
       <defs>
        <path id="DejaVuSans-34" d="M 2419 4116 
L 825 1625 
L 2419 1625 
L 2419 4116 
z
M 2253 4666 
L 3047 4666 
L 3047 1625 
L 3713 1625 
L 3713 1100 
L 3047 1100 
L 3047 0 
L 2419 0 
L 2419 1100 
L 313 1100 
L 313 1709 
L 2253 4666 
z
" transform="scale(0.015625)"/>
       </defs>
       <use xlink:href="#DejaVuSans-30"/>
       <use xlink:href="#DejaVuSans-2e" x="63.623047"/>
       <use xlink:href="#DejaVuSans-34" x="95.410156"/>
      </g>
     </g>
    </g>
    <g id="xtick_4">
     <g id="line2d_4">
      <g>
       <use xlink:href="#mb2c4ae7e0a" x="175.257777" y="224.64" style="stroke: #000000; stroke-width: 0.8"/>
      </g>
     </g>
     <g id="text_4">
      <!-- 0.6 -->
      <g transform="translate(167.306215 239.238438)scale(0.1 -0.1)">
       <defs>
        <path id="DejaVuSans-36" d="M 2113 2584 
Q 1688 2584 1439 2293 
Q 1191 2003 1191 1497 
Q 1191 994 1439 701 
Q 1688 409 2113 409 
Q 2538 409 2786 701 
Q 3034 994 3034 1497 
Q 3034 2003 2786 2293 
Q 2538 2584 2113 2584 
z
M 3366 4563 
L 3366 3988 
Q 3128 4100 2886 4159 
Q 2644 4219 2406 4219 
Q 1781 4219 1451 3797 
Q 1122 3375 1075 2522 
Q 1259 2794 1537 2939 
Q 1816 3084 2150 3084 
Q 2853 3084 3261 2657 
Q 3669 2231 3669 1497 
Q 3669 778 3244 343 
Q 2819 -91 2113 -91 
Q 1303 -91 875 529 
Q 447 1150 447 2328 
Q 447 3434 972 4092 
Q 1497 4750 2381 4750 
Q 2619 4750 2861 4703 
Q 3103 4656 3366 4563 
z
" transform="scale(0.015625)"/>
       </defs>
       <use xlink:href="#DejaVuSans-30"/>
       <use xlink:href="#DejaVuSans-2e" x="63.623047"/>
       <use xlink:href="#DejaVuSans-36" x="95.410156"/>
      </g>
     </g>
    </g>
    <g id="xtick_5">
     <g id="line2d_5">
      <g>
       <use xlink:href="#mb2c4ae7e0a" x="214.010559" y="224.64" style="stroke: #000000; stroke-width: 0.8"/>
      </g>
     </g>
     <g id="text_5">
      <!-- 0.8 -->
      <g transform="translate(206.058996 239.238438)scale(0.1 -0.1)">
       <defs>
        <path id="DejaVuSans-38" d="M 2034 2216 
Q 1584 2216 1326 1975 
Q 1069 1734 1069 1313 
Q 1069 891 1326 650 
Q 1584 409 2034 409 
Q 2484 409 2743 651 
Q 3003 894 3003 1313 
Q 3003 1734 2745 1975 
Q 2488 2216 2034 2216 
z
M 1403 2484 
Q 997 2584 770 2862 
Q 544 3141 544 3541 
Q 544 4100 942 4425 
Q 1341 4750 2034 4750 
Q 2731 4750 3128 4425 
Q 3525 4100 3525 3541 
Q 3525 3141 3298 2862 
Q 3072 2584 2669 2484 
Q 3125 2378 3379 2068 
Q 3634 1759 3634 1313 
Q 3634 634 3220 271 
Q 2806 -91 2034 -91 
Q 1263 -91 848 271 
Q 434 634 434 1313 
Q 434 1759 690 2068 
Q 947 2378 1403 2484 
z
M 1172 3481 
Q 1172 3119 1398 2916 
Q 1625 2713 2034 2713 
Q 2441 2713 2670 2916 
Q 2900 3119 2900 3481 
Q 2900 3844 2670 4047 
Q 2441 4250 2034 4250 
Q 1625 4250 1398 4047 
Q 1172 3844 1172 3481 
z
" transform="scale(0.015625)"/>
       </defs>
       <use xlink:href="#DejaVuSans-30"/>
       <use xlink:href="#DejaVuSans-2e" x="63.623047"/>
       <use xlink:href="#DejaVuSans-38" x="95.410156"/>
      </g>
     </g>
    </g>
    <g id="xtick_6">
     <g id="line2d_6">
      <g>
       <use xlink:href="#mb2c4ae7e0a" x="252.763341" y="224.64" style="stroke: #000000; stroke-width: 0.8"/>
      </g>
     </g>
     <g id="text_6">
      <!-- 1.0 -->
      <g transform="translate(244.811778 239.238438)scale(0.1 -0.1)">
       <defs>
        <path id="DejaVuSans-31" d="M 794 531 
L 1825 531 
L 1825 4091 
L 703 3866 
L 703 4441 
L 1819 4666 
L 2450 4666 
L 2450 531 
L 3481 531 
L 3481 0 
L 794 0 
L 794 531 
z
" transform="scale(0.015625)"/>
       </defs>
       <use xlink:href="#DejaVuSans-31"/>
       <use xlink:href="#DejaVuSans-2e" x="63.623047"/>
       <use xlink:href="#DejaVuSans-30" x="95.410156"/>
      </g>
     </g>
    </g>
    <g id="xtick_7">
     <g id="line2d_7">
      <g>
       <use xlink:href="#mb2c4ae7e0a" x="291.516122" y="224.64" style="stroke: #000000; stroke-width: 0.8"/>
      </g>
     </g>
     <g id="text_7">
      <!-- 1.2 -->
      <g transform="translate(283.56456 239.238438)scale(0.1 -0.1)">
       <use xlink:href="#DejaVuSans-31"/>
       <use xlink:href="#DejaVuSans-2e" x="63.623047"/>
       <use xlink:href="#DejaVuSans-32" x="95.410156"/>
      </g>
     </g>
    </g>
    <g id="xtick_8">
     <g id="line2d_8">
      <g>
       <use xlink:href="#mb2c4ae7e0a" x="330.268904" y="224.64" style="stroke: #000000; stroke-width: 0.8"/>
      </g>
     </g>
     <g id="text_8">
      <!-- 1.4 -->
      <g transform="translate(322.317342 239.238438)scale(0.1 -0.1)">
       <use xlink:href="#DejaVuSans-31"/>
       <use xlink:href="#DejaVuSans-2e" x="63.623047"/>
       <use xlink:href="#DejaVuSans-34" x="95.410156"/>
      </g>
     </g>
    </g>
    <g id="xtick_9">
     <g id="line2d_9">
      <g>
       <use xlink:href="#mb2c4ae7e0a" x="369.021686" y="224.64" style="stroke: #000000; stroke-width: 0.8"/>
      </g>
     </g>
     <g id="text_9">
      <!-- 1.6 -->
      <g transform="translate(361.070124 239.238438)scale(0.1 -0.1)">
       <use xlink:href="#DejaVuSans-31"/>
       <use xlink:href="#DejaVuSans-2e" x="63.623047"/>
       <use xlink:href="#DejaVuSans-36" x="95.410156"/>
      </g>
     </g>
    </g>
    <g id="text_10">
     <!-- Angle with normal (rad) -->
     <g transform="translate(151.863281 252.916563)scale(0.1 -0.1)">
      <defs>
       <path id="DejaVuSans-41" d="M 2188 4044 
L 1331 1722 
L 3047 1722 
L 2188 4044 
z
M 1831 4666 
L 2547 4666 
L 4325 0 
L 3669 0 
L 3244 1197 
L 1141 1197 
L 716 0 
L 50 0 
L 1831 4666 
z
" transform="scale(0.015625)"/>
       <path id="DejaVuSans-6e" d="M 3513 2113 
L 3513 0 
L 2938 0 
L 2938 2094 
Q 2938 2591 2744 2837 
Q 2550 3084 2163 3084 
Q 1697 3084 1428 2787 
Q 1159 2491 1159 1978 
L 1159 0 
L 581 0 
L 581 3500 
L 1159 3500 
L 1159 2956 
Q 1366 3272 1645 3428 
Q 1925 3584 2291 3584 
Q 2894 3584 3203 3211 
Q 3513 2838 3513 2113 
z
" transform="scale(0.015625)"/>
       <path id="DejaVuSans-67" d="M 2906 1791 
Q 2906 2416 2648 2759 
Q 2391 3103 1925 3103 
Q 1463 3103 1205 2759 
Q 947 2416 947 1791 
Q 947 1169 1205 825 
Q 1463 481 1925 481 
Q 2391 481 2648 825 
Q 2906 1169 2906 1791 
z
M 3481 434 
Q 3481 -459 3084 -895 
Q 2688 -1331 1869 -1331 
Q 1566 -1331 1297 -1286 
Q 1028 -1241 775 -1147 
L 775 -588 
Q 1028 -725 1275 -790 
Q 1522 -856 1778 -856 
Q 2344 -856 2625 -561 
Q 2906 -266 2906 331 
L 2906 616 
Q 2728 306 2450 153 
Q 2172 0 1784 0 
Q 1141 0 747 490 
Q 353 981 353 1791 
Q 353 2603 747 3093 
Q 1141 3584 1784 3584 
Q 2172 3584 2450 3431 
Q 2728 3278 2906 2969 
L 2906 3500 
L 3481 3500 
L 3481 434 
z
" transform="scale(0.015625)"/>
       <path id="DejaVuSans-6c" d="M 603 4863 
L 1178 4863 
L 1178 0 
L 603 0 
L 603 4863 
z
" transform="scale(0.015625)"/>
       <path id="DejaVuSans-65" d="M 3597 1894 
L 3597 1613 
L 953 1613 
Q 991 1019 1311 708 
Q 1631 397 2203 397 
Q 2534 397 2845 478 
Q 3156 559 3463 722 
L 3463 178 
Q 3153 47 2828 -22 
Q 2503 -91 2169 -91 
Q 1331 -91 842 396 
Q 353 884 353 1716 
Q 353 2575 817 3079 
Q 1281 3584 2069 3584 
Q 2775 3584 3186 3129 
Q 3597 2675 3597 1894 
z
M 3022 2063 
Q 3016 2534 2758 2815 
Q 2500 3097 2075 3097 
Q 1594 3097 1305 2825 
Q 1016 2553 972 2059 
L 3022 2063 
z
" transform="scale(0.015625)"/>
       <path id="DejaVuSans-20" transform="scale(0.015625)"/>
       <path id="DejaVuSans-77" d="M 269 3500 
L 844 3500 
L 1563 769 
L 2278 3500 
L 2956 3500 
L 3675 769 
L 4391 3500 
L 4966 3500 
L 4050 0 
L 3372 0 
L 2619 2869 
L 1863 0 
L 1184 0 
L 269 3500 
z
" transform="scale(0.015625)"/>
       <path id="DejaVuSans-69" d="M 603 3500 
L 1178 3500 
L 1178 0 
L 603 0 
L 603 3500 
z
M 603 4863 
L 1178 4863 
L 1178 4134 
L 603 4134 
L 603 4863 
z
" transform="scale(0.015625)"/>
       <path id="DejaVuSans-74" d="M 1172 4494 
L 1172 3500 
L 2356 3500 
L 2356 3053 
L 1172 3053 
L 1172 1153 
Q 1172 725 1289 603 
Q 1406 481 1766 481 
L 2356 481 
L 2356 0 
L 1766 0 
Q 1100 0 847 248 
Q 594 497 594 1153 
L 594 3053 
L 172 3053 
L 172 3500 
L 594 3500 
L 594 4494 
L 1172 4494 
z
" transform="scale(0.015625)"/>
       <path id="DejaVuSans-68" d="M 3513 2113 
L 3513 0 
L 2938 0 
L 2938 2094 
Q 2938 2591 2744 2837 
Q 2550 3084 2163 3084 
Q 1697 3084 1428 2787 
Q 1159 2491 1159 1978 
L 1159 0 
L 581 0 
L 581 4863 
L 1159 4863 
L 1159 2956 
Q 1366 3272 1645 3428 
Q 1925 3584 2291 3584 
Q 2894 3584 3203 3211 
Q 3513 2838 3513 2113 
z
" transform="scale(0.015625)"/>
       <path id="DejaVuSans-6f" d="M 1959 3097 
Q 1497 3097 1228 2736 
Q 959 2375 959 1747 
Q 959 1119 1226 758 
Q 1494 397 1959 397 
Q 2419 397 2687 759 
Q 2956 1122 2956 1747 
Q 2956 2369 2687 2733 
Q 2419 3097 1959 3097 
z
M 1959 3584 
Q 2709 3584 3137 3096 
Q 3566 2609 3566 1747 
Q 3566 888 3137 398 
Q 2709 -91 1959 -91 
Q 1206 -91 779 398 
Q 353 888 353 1747 
Q 353 2609 779 3096 
Q 1206 3584 1959 3584 
z
" transform="scale(0.015625)"/>
       <path id="DejaVuSans-72" d="M 2631 2963 
Q 2534 3019 2420 3045 
Q 2306 3072 2169 3072 
Q 1681 3072 1420 2755 
Q 1159 2438 1159 1844 
L 1159 0 
L 581 0 
L 581 3500 
L 1159 3500 
L 1159 2956 
Q 1341 3275 1631 3429 
Q 1922 3584 2338 3584 
Q 2397 3584 2469 3576 
Q 2541 3569 2628 3553 
L 2631 2963 
z
" transform="scale(0.015625)"/>
       <path id="DejaVuSans-6d" d="M 3328 2828 
Q 3544 3216 3844 3400 
Q 4144 3584 4550 3584 
Q 5097 3584 5394 3201 
Q 5691 2819 5691 2113 
L 5691 0 
L 5113 0 
L 5113 2094 
Q 5113 2597 4934 2840 
Q 4756 3084 4391 3084 
Q 3944 3084 3684 2787 
Q 3425 2491 3425 1978 
L 3425 0 
L 2847 0 
L 2847 2094 
Q 2847 2600 2669 2842 
Q 2491 3084 2119 3084 
Q 1678 3084 1418 2786 
Q 1159 2488 1159 1978 
L 1159 0 
L 581 0 
L 581 3500 
L 1159 3500 
L 1159 2956 
Q 1356 3278 1631 3431 
Q 1906 3584 2284 3584 
Q 2666 3584 2933 3390 
Q 3200 3197 3328 2828 
z
" transform="scale(0.015625)"/>
       <path id="DejaVuSans-61" d="M 2194 1759 
Q 1497 1759 1228 1600 
Q 959 1441 959 1056 
Q 959 750 1161 570 
Q 1363 391 1709 391 
Q 2188 391 2477 730 
Q 2766 1069 2766 1631 
L 2766 1759 
L 2194 1759 
z
M 3341 1997 
L 3341 0 
L 2766 0 
L 2766 531 
Q 2569 213 2275 61 
Q 1981 -91 1556 -91 
Q 1019 -91 701 211 
Q 384 513 384 1019 
Q 384 1609 779 1909 
Q 1175 2209 1959 2209 
L 2766 2209 
L 2766 2266 
Q 2766 2663 2505 2880 
Q 2244 3097 1772 3097 
Q 1472 3097 1187 3025 
Q 903 2953 641 2809 
L 641 3341 
Q 956 3463 1253 3523 
Q 1550 3584 1831 3584 
Q 2591 3584 2966 3190 
Q 3341 2797 3341 1997 
z
" transform="scale(0.015625)"/>
       <path id="DejaVuSans-28" d="M 1984 4856 
Q 1566 4138 1362 3434 
Q 1159 2731 1159 2009 
Q 1159 1288 1364 580 
Q 1569 -128 1984 -844 
L 1484 -844 
Q 1016 -109 783 600 
Q 550 1309 550 2009 
Q 550 2706 781 3412 
Q 1013 4119 1484 4856 
L 1984 4856 
z
" transform="scale(0.015625)"/>
       <path id="DejaVuSans-64" d="M 2906 2969 
L 2906 4863 
L 3481 4863 
L 3481 0 
L 2906 0 
L 2906 525 
Q 2725 213 2448 61 
Q 2172 -91 1784 -91 
Q 1150 -91 751 415 
Q 353 922 353 1747 
Q 353 2572 751 3078 
Q 1150 3584 1784 3584 
Q 2172 3584 2448 3432 
Q 2725 3281 2906 2969 
z
M 947 1747 
Q 947 1113 1208 752 
Q 1469 391 1925 391 
Q 2381 391 2643 752 
Q 2906 1113 2906 1747 
Q 2906 2381 2643 2742 
Q 2381 3103 1925 3103 
Q 1469 3103 1208 2742 
Q 947 2381 947 1747 
z
" transform="scale(0.015625)"/>
       <path id="DejaVuSans-29" d="M 513 4856 
L 1013 4856 
Q 1481 4119 1714 3412 
Q 1947 2706 1947 2009 
Q 1947 1309 1714 600 
Q 1481 -109 1013 -844 
L 513 -844 
Q 928 -128 1133 580 
Q 1338 1288 1338 2009 
Q 1338 2731 1133 3434 
Q 928 4138 513 4856 
z
" transform="scale(0.015625)"/>
      </defs>
      <use xlink:href="#DejaVuSans-41"/>
      <use xlink:href="#DejaVuSans-6e" x="68.408203"/>
      <use xlink:href="#DejaVuSans-67" x="131.787109"/>
      <use xlink:href="#DejaVuSans-6c" x="195.263672"/>
      <use xlink:href="#DejaVuSans-65" x="223.046875"/>
      <use xlink:href="#DejaVuSans-20" x="284.570312"/>
      <use xlink:href="#DejaVuSans-77" x="316.357422"/>
      <use xlink:href="#DejaVuSans-69" x="398.144531"/>
      <use xlink:href="#DejaVuSans-74" x="425.927734"/>
      <use xlink:href="#DejaVuSans-68" x="465.136719"/>
      <use xlink:href="#DejaVuSans-20" x="528.515625"/>
      <use xlink:href="#DejaVuSans-6e" x="560.302734"/>
      <use xlink:href="#DejaVuSans-6f" x="623.681641"/>
      <use xlink:href="#DejaVuSans-72" x="684.863281"/>
      <use xlink:href="#DejaVuSans-6d" x="724.226562"/>
      <use xlink:href="#DejaVuSans-61" x="821.638672"/>
      <use xlink:href="#DejaVuSans-6c" x="882.917969"/>
      <use xlink:href="#DejaVuSans-20" x="910.701172"/>
      <use xlink:href="#DejaVuSans-28" x="942.488281"/>
      <use xlink:href="#DejaVuSans-72" x="981.501953"/>
      <use xlink:href="#DejaVuSans-61" x="1022.615234"/>
      <use xlink:href="#DejaVuSans-64" x="1083.894531"/>
      <use xlink:href="#DejaVuSans-29" x="1147.371094"/>
     </g>
    </g>
   </g>
   <g id="matplotlib.axis_2">
    <g id="ytick_1">
     <g id="line2d_10">
      <defs>
       <path id="macc505ad1e" d="M 0 0 
L -3.5 0 
" style="stroke: #000000; stroke-width: 0.8"/>
      </defs>
      <g>
       <use xlink:href="#macc505ad1e" x="43.78125" y="224.64" style="stroke: #000000; stroke-width: 0.8"/>
      </g>
     </g>
     <g id="text_11">
      <!-- 0.0 -->
      <g transform="translate(20.878125 228.439219)scale(0.1 -0.1)">
       <use xlink:href="#DejaVuSans-30"/>
       <use xlink:href="#DejaVuSans-2e" x="63.623047"/>
       <use xlink:href="#DejaVuSans-30" x="95.410156"/>
      </g>
     </g>
    </g>
    <g id="ytick_2">
     <g id="line2d_11">
      <g>
       <use xlink:href="#macc505ad1e" x="43.78125" y="187.737735" style="stroke: #000000; stroke-width: 0.8"/>
      </g>
     </g>
     <g id="text_12">
      <!-- 0.2 -->
      <g transform="translate(20.878125 191.536953)scale(0.1 -0.1)">
       <use xlink:href="#DejaVuSans-30"/>
       <use xlink:href="#DejaVuSans-2e" x="63.623047"/>
       <use xlink:href="#DejaVuSans-32" x="95.410156"/>
      </g>
     </g>
    </g>
    <g id="ytick_3">
     <g id="line2d_12">
      <g>
       <use xlink:href="#macc505ad1e" x="43.78125" y="150.835469" style="stroke: #000000; stroke-width: 0.8"/>
      </g>
     </g>
     <g id="text_13">
      <!-- 0.4 -->
      <g transform="translate(20.878125 154.634688)scale(0.1 -0.1)">
       <use xlink:href="#DejaVuSans-30"/>
       <use xlink:href="#DejaVuSans-2e" x="63.623047"/>
       <use xlink:href="#DejaVuSans-34" x="95.410156"/>
      </g>
     </g>
    </g>
    <g id="ytick_4">
     <g id="line2d_13">
      <g>
       <use xlink:href="#macc505ad1e" x="43.78125" y="113.933204" style="stroke: #000000; stroke-width: 0.8"/>
      </g>
     </g>
     <g id="text_14">
      <!-- 0.6 -->
      <g transform="translate(20.878125 117.732423)scale(0.1 -0.1)">
       <use xlink:href="#DejaVuSans-30"/>
       <use xlink:href="#DejaVuSans-2e" x="63.623047"/>
       <use xlink:href="#DejaVuSans-36" x="95.410156"/>
      </g>
     </g>
    </g>
    <g id="ytick_5">
     <g id="line2d_14">
      <g>
       <use xlink:href="#macc505ad1e" x="43.78125" y="77.030939" style="stroke: #000000; stroke-width: 0.8"/>
      </g>
     </g>
     <g id="text_15">
      <!-- 0.8 -->
      <g transform="translate(20.878125 80.830157)scale(0.1 -0.1)">
       <use xlink:href="#DejaVuSans-30"/>
       <use xlink:href="#DejaVuSans-2e" x="63.623047"/>
       <use xlink:href="#DejaVuSans-38" x="95.410156"/>
      </g>
     </g>
    </g>
    <g id="ytick_6">
     <g id="line2d_15">
      <g>
       <use xlink:href="#macc505ad1e" x="43.78125" y="40.128673" style="stroke: #000000; stroke-width: 0.8"/>
      </g>
     </g>
     <g id="text_16">
      <!-- 1.0 -->
      <g transform="translate(20.878125 43.927892)scale(0.1 -0.1)">
       <use xlink:href="#DejaVuSans-31"/>
       <use xlink:href="#DejaVuSans-2e" x="63.623047"/>
       <use xlink:href="#DejaVuSans-30" x="95.410156"/>
      </g>
     </g>
    </g>
    <g id="text_17">
     <!-- Probability density -->
     <g transform="translate(14.798438 162.270781)rotate(-90)scale(0.1 -0.1)">
      <defs>
       <path id="DejaVuSans-50" d="M 1259 4147 
L 1259 2394 
L 2053 2394 
Q 2494 2394 2734 2622 
Q 2975 2850 2975 3272 
Q 2975 3691 2734 3919 
Q 2494 4147 2053 4147 
L 1259 4147 
z
M 628 4666 
L 2053 4666 
Q 2838 4666 3239 4311 
Q 3641 3956 3641 3272 
Q 3641 2581 3239 2228 
Q 2838 1875 2053 1875 
L 1259 1875 
L 1259 0 
L 628 0 
L 628 4666 
z
" transform="scale(0.015625)"/>
       <path id="DejaVuSans-62" d="M 3116 1747 
Q 3116 2381 2855 2742 
Q 2594 3103 2138 3103 
Q 1681 3103 1420 2742 
Q 1159 2381 1159 1747 
Q 1159 1113 1420 752 
Q 1681 391 2138 391 
Q 2594 391 2855 752 
Q 3116 1113 3116 1747 
z
M 1159 2969 
Q 1341 3281 1617 3432 
Q 1894 3584 2278 3584 
Q 2916 3584 3314 3078 
Q 3713 2572 3713 1747 
Q 3713 922 3314 415 
Q 2916 -91 2278 -91 
Q 1894 -91 1617 61 
Q 1341 213 1159 525 
L 1159 0 
L 581 0 
L 581 4863 
L 1159 4863 
L 1159 2969 
z
" transform="scale(0.015625)"/>
       <path id="DejaVuSans-79" d="M 2059 -325 
Q 1816 -950 1584 -1140 
Q 1353 -1331 966 -1331 
L 506 -1331 
L 506 -850 
L 844 -850 
Q 1081 -850 1212 -737 
Q 1344 -625 1503 -206 
L 1606 56 
L 191 3500 
L 800 3500 
L 1894 763 
L 2988 3500 
L 3597 3500 
L 2059 -325 
z
" transform="scale(0.015625)"/>
       <path id="DejaVuSans-73" d="M 2834 3397 
L 2834 2853 
Q 2591 2978 2328 3040 
Q 2066 3103 1784 3103 
Q 1356 3103 1142 2972 
Q 928 2841 928 2578 
Q 928 2378 1081 2264 
Q 1234 2150 1697 2047 
L 1894 2003 
Q 2506 1872 2764 1633 
Q 3022 1394 3022 966 
Q 3022 478 2636 193 
Q 2250 -91 1575 -91 
Q 1294 -91 989 -36 
Q 684 19 347 128 
L 347 722 
Q 666 556 975 473 
Q 1284 391 1588 391 
Q 1994 391 2212 530 
Q 2431 669 2431 922 
Q 2431 1156 2273 1281 
Q 2116 1406 1581 1522 
L 1381 1569 
Q 847 1681 609 1914 
Q 372 2147 372 2553 
Q 372 3047 722 3315 
Q 1072 3584 1716 3584 
Q 2034 3584 2315 3537 
Q 2597 3491 2834 3397 
z
" transform="scale(0.015625)"/>
      </defs>
      <use xlink:href="#DejaVuSans-50"/>
      <use xlink:href="#DejaVuSans-72" x="58.552734"/>
      <use xlink:href="#DejaVuSans-6f" x="97.416016"/>
      <use xlink:href="#DejaVuSans-62" x="158.597656"/>
      <use xlink:href="#DejaVuSans-61" x="222.074219"/>
      <use xlink:href="#DejaVuSans-62" x="283.353516"/>
      <use xlink:href="#DejaVuSans-69" x="346.830078"/>
      <use xlink:href="#DejaVuSans-6c" x="374.613281"/>
      <use xlink:href="#DejaVuSans-69" x="402.396484"/>
      <use xlink:href="#DejaVuSans-74" x="430.179688"/>
      <use xlink:href="#DejaVuSans-79" x="469.388672"/>
      <use xlink:href="#DejaVuSans-20" x="528.568359"/>
      <use xlink:href="#DejaVuSans-64" x="560.355469"/>
      <use xlink:href="#DejaVuSans-65" x="623.832031"/>
      <use xlink:href="#DejaVuSans-6e" x="685.355469"/>
      <use xlink:href="#DejaVuSans-73" x="748.734375"/>
      <use xlink:href="#DejaVuSans-69" x="800.833984"/>
      <use xlink:href="#DejaVuSans-74" x="828.617188"/>
      <use xlink:href="#DejaVuSans-79" x="867.826172"/>
     </g>
    </g>
   </g>
   <g id="line2d_16">
    <path d="M 58.999432 224.64 
L 78.193535 188.323569 
L 88.247589 169.779277 
L 96.778302 154.499901 
L 104.395009 141.313357 
L 111.40238 129.634511 
L 117.800415 119.403598 
L 123.893781 110.085775 
L 129.682479 101.652884 
L 135.166508 94.068257 
L 140.345869 87.288653 
L 145.220562 81.266027 
L 150.095255 75.606302 
L 154.665279 70.642649 
L 158.930636 66.318796 
L 163.195992 62.301769 
L 167.461348 58.599355 
L 171.422036 55.449386 
L 175.382724 52.582148 
L 179.343412 50.00243 
L 182.999432 47.880084 
L 186.655451 46.009427 
L 190.311471 44.393122 
L 193.967491 43.033471 
L 197.318842 42.014247 
L 200.670193 41.213534 
L 204.021545 40.63229 
L 207.372896 40.27121 
L 210.724248 40.130726 
L 214.075599 40.211007 
L 217.42695 40.511956 
L 220.778302 41.033213 
L 224.129653 41.774155 
L 227.481004 42.733895 
L 230.832356 43.911285 
L 234.488375 45.442276 
L 238.144395 47.228427 
L 241.800415 49.267195 
L 245.456434 51.555676 
L 249.417122 54.312871 
L 253.37781 57.354694 
L 257.338498 60.676064 
L 261.603854 64.559175 
L 265.869211 68.752523 
L 270.134567 73.247981 
L 274.704592 78.389885 
L 279.274616 83.85715 
L 284.149309 90.033804 
L 289.32867 96.969441 
L 294.508031 104.269878 
L 299.992061 112.374172 
L 305.780759 121.318309 
L 312.178793 131.631612 
L 318.881496 142.870141 
L 326.193535 155.574643 
L 334.419579 170.333546 
L 343.864297 187.75486 
L 356.355697 211.306121 
L 363.363068 224.64 
L 363.363068 224.64 
" clip-path="url(#p4caafbf363)" style="fill: none; stroke: #ff7f0e; stroke-width: 1.5; stroke-linecap: square"/>
   </g>
   <g id="patch_203">
    <path d="M 43.78125 224.64 
L 43.78125 7.2 
" style="fill: none; stroke: #000000; stroke-width: 0.8; stroke-linejoin: miter; stroke-linecap: square"/>
   </g>
   <g id="patch_204">
    <path d="M 378.58125 224.64 
L 378.58125 7.2 
" style="fill: none; stroke: #000000; stroke-width: 0.8; stroke-linejoin: miter; stroke-linecap: square"/>
   </g>
   <g id="patch_205">
    <path d="M 43.78125 224.64 
L 378.58125 224.64 
" style="fill: none; stroke: #000000; stroke-width: 0.8; stroke-linejoin: miter; stroke-linecap: square"/>
   </g>
   <g id="patch_206">
    <path d="M 43.78125 7.2 
L 378.58125 7.2 
" style="fill: none; stroke: #000000; stroke-width: 0.8; stroke-linejoin: miter; stroke-linecap: square"/>
   </g>
  </g>
 </g>
 <defs>
  <clipPath id="p4caafbf363">
   <rect x="43.78125" y="7.2" width="334.8" height="217.44"/>
  </clipPath>
 </defs>
</svg>
