<?xml version="1.0" encoding="utf-8" standalone="no"?>
<!DOCTYPE svg PUBLIC "-//W3C//DTD SVG 1.1//EN"
  "http://www.w3.org/Graphics/SVG/1.1/DTD/svg11.dtd">
<svg xmlns:xlink="http://www.w3.org/1999/xlink" width="408.10125pt" height="310.86825pt" viewBox="0 0 408.10125 310.86825" xmlns="http://www.w3.org/2000/svg" version="1.1">
 <metadata>
  <rdf:RDF xmlns:dc="http://purl.org/dc/elements/1.1/" xmlns:cc="http://creativecommons.org/ns#" xmlns:rdf="http://www.w3.org/1999/02/22-rdf-syntax-ns#">
   <cc:Work>
    <dc:type rdf:resource="http://purl.org/dc/dcmitype/StillImage"/>
    <dc:date>2023-01-31T20:52:49.013792</dc:date>
    <dc:format>image/svg+xml</dc:format>
    <dc:creator>
     <cc:Agent>
      <dc:title>Matplotlib v3.5.3, https://matplotlib.org/</dc:title>
     </cc:Agent>
    </dc:creator>
   </cc:Work>
  </rdf:RDF>
 </metadata>
 <defs>
  <style type="text/css">*{stroke-linejoin: round; stroke-linecap: butt}</style>
 </defs>
 <g id="figure_1">
  <g id="patch_1">
   <path d="M 0 310.86825 
L 408.10125 310.86825 
L 408.10125 0 
L 0 0 
z
" style="fill: #ffffff"/>
  </g>
  <g id="axes_1">
   <g id="patch_2">
    <path d="M 43.78125 273.312 
L 400.90125 273.312 
L 400.90125 7.2 
L 43.78125 7.2 
z
" style="fill: #ffffff"/>
   </g>
   <g id="patch_3">
    <path d="M 61.727316 273.312 
L 63.342018 273.312 
L 63.342018 269.767385 
L 61.727316 269.767385 
z
" clip-path="url(#p41eeb7cce1)" style="fill: #1f77b4"/>
   </g>
   <g id="patch_4">
    <path d="M 63.342018 273.312 
L 64.95672 273.312 
L 64.95672 271.539692 
L 63.342018 271.539692 
z
" clip-path="url(#p41eeb7cce1)" style="fill: #1f77b4"/>
   </g>
   <g id="patch_5">
    <path d="M 64.95672 273.312 
L 66.571422 273.312 
L 66.571422 272.130462 
L 64.95672 272.130462 
z
" clip-path="url(#p41eeb7cce1)" style="fill: #1f77b4"/>
   </g>
   <g id="patch_6">
    <path d="M 66.571422 273.312 
L 68.186124 273.312 
L 68.186124 270.358154 
L 66.571422 270.358154 
z
" clip-path="url(#p41eeb7cce1)" style="fill: #1f77b4"/>
   </g>
   <g id="patch_7">
    <path d="M 68.186124 273.312 
L 69.800826 273.312 
L 69.800826 267.404308 
L 68.186124 267.404308 
z
" clip-path="url(#p41eeb7cce1)" style="fill: #1f77b4"/>
   </g>
   <g id="patch_8">
    <path d="M 69.800826 273.312 
L 71.415529 273.312 
L 71.415529 262.678154 
L 69.800826 262.678154 
z
" clip-path="url(#p41eeb7cce1)" style="fill: #1f77b4"/>
   </g>
   <g id="patch_9">
    <path d="M 71.415529 273.312 
L 73.030231 273.312 
L 73.030231 265.632 
L 71.415529 265.632 
z
" clip-path="url(#p41eeb7cce1)" style="fill: #1f77b4"/>
   </g>
   <g id="patch_10">
    <path d="M 73.030231 273.312 
L 74.644933 273.312 
L 74.644933 266.222769 
L 73.030231 266.222769 
z
" clip-path="url(#p41eeb7cce1)" style="fill: #1f77b4"/>
   </g>
   <g id="patch_11">
    <path d="M 74.644933 273.312 
L 76.259635 273.312 
L 76.259635 260.905846 
L 74.644933 260.905846 
z
" clip-path="url(#p41eeb7cce1)" style="fill: #1f77b4"/>
   </g>
   <g id="patch_12">
    <path d="M 76.259635 273.312 
L 77.874337 273.312 
L 77.874337 257.361231 
L 76.259635 257.361231 
z
" clip-path="url(#p41eeb7cce1)" style="fill: #1f77b4"/>
   </g>
   <g id="patch_13">
    <path d="M 77.874337 273.312 
L 79.489039 273.312 
L 79.489039 260.315077 
L 77.874337 260.315077 
z
" clip-path="url(#p41eeb7cce1)" style="fill: #1f77b4"/>
   </g>
   <g id="patch_14">
    <path d="M 79.489039 273.312 
L 81.103741 273.312 
L 81.103741 256.770462 
L 79.489039 256.770462 
z
" clip-path="url(#p41eeb7cce1)" style="fill: #1f77b4"/>
   </g>
   <g id="patch_15">
    <path d="M 81.103741 273.312 
L 82.718444 273.312 
L 82.718444 252.044308 
L 81.103741 252.044308 
z
" clip-path="url(#p41eeb7cce1)" style="fill: #1f77b4"/>
   </g>
   <g id="patch_16">
    <path d="M 82.718444 273.312 
L 84.333146 273.312 
L 84.333146 257.952 
L 82.718444 257.952 
z
" clip-path="url(#p41eeb7cce1)" style="fill: #1f77b4"/>
   </g>
   <g id="patch_17">
    <path d="M 84.333146 273.312 
L 85.947848 273.312 
L 85.947848 255.588923 
L 84.333146 255.588923 
z
" clip-path="url(#p41eeb7cce1)" style="fill: #1f77b4"/>
   </g>
   <g id="patch_18">
    <path d="M 85.947848 273.312 
L 87.56255 273.312 
L 87.56255 252.044308 
L 85.947848 252.044308 
z
" clip-path="url(#p41eeb7cce1)" style="fill: #1f77b4"/>
   </g>
   <g id="patch_19">
    <path d="M 87.56255 273.312 
L 89.177252 273.312 
L 89.177252 250.862769 
L 87.56255 250.862769 
z
" clip-path="url(#p41eeb7cce1)" style="fill: #1f77b4"/>
   </g>
   <g id="patch_20">
    <path d="M 89.177252 273.312 
L 90.791954 273.312 
L 90.791954 252.635077 
L 89.177252 252.635077 
z
" clip-path="url(#p41eeb7cce1)" style="fill: #1f77b4"/>
   </g>
   <g id="patch_21">
    <path d="M 90.791954 273.312 
L 92.406656 273.312 
L 92.406656 244.955077 
L 90.791954 244.955077 
z
" clip-path="url(#p41eeb7cce1)" style="fill: #1f77b4"/>
   </g>
   <g id="patch_22">
    <path d="M 92.406656 273.312 
L 94.021359 273.312 
L 94.021359 245.545846 
L 92.406656 245.545846 
z
" clip-path="url(#p41eeb7cce1)" style="fill: #1f77b4"/>
   </g>
   <g id="patch_23">
    <path d="M 94.021359 273.312 
L 95.636061 273.312 
L 95.636061 248.499692 
L 94.021359 248.499692 
z
" clip-path="url(#p41eeb7cce1)" style="fill: #1f77b4"/>
   </g>
   <g id="patch_24">
    <path d="M 95.636061 273.312 
L 97.250763 273.312 
L 97.250763 247.908923 
L 95.636061 247.908923 
z
" clip-path="url(#p41eeb7cce1)" style="fill: #1f77b4"/>
   </g>
   <g id="patch_25">
    <path d="M 97.250763 273.312 
L 98.865465 273.312 
L 98.865465 240.228923 
L 97.250763 240.228923 
z
" clip-path="url(#p41eeb7cce1)" style="fill: #1f77b4"/>
   </g>
   <g id="patch_26">
    <path d="M 98.865465 273.312 
L 100.480167 273.312 
L 100.480167 247.318154 
L 98.865465 247.318154 
z
" clip-path="url(#p41eeb7cce1)" style="fill: #1f77b4"/>
   </g>
   <g id="patch_27">
    <path d="M 100.480167 273.312 
L 102.094869 273.312 
L 102.094869 241.410462 
L 100.480167 241.410462 
z
" clip-path="url(#p41eeb7cce1)" style="fill: #1f77b4"/>
   </g>
   <g id="patch_28">
    <path d="M 102.094869 273.312 
L 103.709572 273.312 
L 103.709572 246.136615 
L 102.094869 246.136615 
z
" clip-path="url(#p41eeb7cce1)" style="fill: #1f77b4"/>
   </g>
   <g id="patch_29">
    <path d="M 103.709572 273.312 
L 105.324274 273.312 
L 105.324274 233.730462 
L 103.709572 233.730462 
z
" clip-path="url(#p41eeb7cce1)" style="fill: #1f77b4"/>
   </g>
   <g id="patch_30">
    <path d="M 105.324274 273.312 
L 106.938976 273.312 
L 106.938976 239.047385 
L 105.324274 239.047385 
z
" clip-path="url(#p41eeb7cce1)" style="fill: #1f77b4"/>
   </g>
   <g id="patch_31">
    <path d="M 106.938976 273.312 
L 108.553678 273.312 
L 108.553678 236.684308 
L 106.938976 236.684308 
z
" clip-path="url(#p41eeb7cce1)" style="fill: #1f77b4"/>
   </g>
   <g id="patch_32">
    <path d="M 108.553678 273.312 
L 110.16838 273.312 
L 110.16838 233.730462 
L 108.553678 233.730462 
z
" clip-path="url(#p41eeb7cce1)" style="fill: #1f77b4"/>
   </g>
   <g id="patch_33">
    <path d="M 110.16838 273.312 
L 111.783082 273.312 
L 111.783082 236.684308 
L 110.16838 236.684308 
z
" clip-path="url(#p41eeb7cce1)" style="fill: #1f77b4"/>
   </g>
   <g id="patch_34">
    <path d="M 111.783082 273.312 
L 113.397784 273.312 
L 113.397784 231.367385 
L 111.783082 231.367385 
z
" clip-path="url(#p41eeb7cce1)" style="fill: #1f77b4"/>
   </g>
   <g id="patch_35">
    <path d="M 113.397784 273.312 
L 115.012487 273.312 
L 115.012487 235.502769 
L 113.397784 235.502769 
z
" clip-path="url(#p41eeb7cce1)" style="fill: #1f77b4"/>
   </g>
   <g id="patch_36">
    <path d="M 115.012487 273.312 
L 116.627189 273.312 
L 116.627189 240.819692 
L 115.012487 240.819692 
z
" clip-path="url(#p41eeb7cce1)" style="fill: #1f77b4"/>
   </g>
   <g id="patch_37">
    <path d="M 116.627189 273.312 
L 118.241891 273.312 
L 118.241891 229.004308 
L 116.627189 229.004308 
z
" clip-path="url(#p41eeb7cce1)" style="fill: #1f77b4"/>
   </g>
   <g id="patch_38">
    <path d="M 118.241891 273.312 
L 119.856593 273.312 
L 119.856593 226.641231 
L 118.241891 226.641231 
z
" clip-path="url(#p41eeb7cce1)" style="fill: #1f77b4"/>
   </g>
   <g id="patch_39">
    <path d="M 119.856593 273.312 
L 121.471295 273.312 
L 121.471295 227.232 
L 119.856593 227.232 
z
" clip-path="url(#p41eeb7cce1)" style="fill: #1f77b4"/>
   </g>
   <g id="patch_40">
    <path d="M 121.471295 273.312 
L 123.085997 273.312 
L 123.085997 231.367385 
L 121.471295 231.367385 
z
" clip-path="url(#p41eeb7cce1)" style="fill: #1f77b4"/>
   </g>
   <g id="patch_41">
    <path d="M 123.085997 273.312 
L 124.700699 273.312 
L 124.700699 221.915077 
L 123.085997 221.915077 
z
" clip-path="url(#p41eeb7cce1)" style="fill: #1f77b4"/>
   </g>
   <g id="patch_42">
    <path d="M 124.700699 273.312 
L 126.315402 273.312 
L 126.315402 224.278154 
L 124.700699 224.278154 
z
" clip-path="url(#p41eeb7cce1)" style="fill: #1f77b4"/>
   </g>
   <g id="patch_43">
    <path d="M 126.315402 273.312 
L 127.930104 273.312 
L 127.930104 229.595077 
L 126.315402 229.595077 
z
" clip-path="url(#p41eeb7cce1)" style="fill: #1f77b4"/>
   </g>
   <g id="patch_44">
    <path d="M 127.930104 273.312 
L 129.544806 273.312 
L 129.544806 222.505846 
L 127.930104 222.505846 
z
" clip-path="url(#p41eeb7cce1)" style="fill: #1f77b4"/>
   </g>
   <g id="patch_45">
    <path d="M 129.544806 273.312 
L 131.159508 273.312 
L 131.159508 224.868923 
L 129.544806 224.868923 
z
" clip-path="url(#p41eeb7cce1)" style="fill: #1f77b4"/>
   </g>
   <g id="patch_46">
    <path d="M 131.159508 273.312 
L 132.77421 273.312 
L 132.77421 231.367385 
L 131.159508 231.367385 
z
" clip-path="url(#p41eeb7cce1)" style="fill: #1f77b4"/>
   </g>
   <g id="patch_47">
    <path d="M 132.77421 273.312 
L 134.388912 273.312 
L 134.388912 237.865846 
L 132.77421 237.865846 
z
" clip-path="url(#p41eeb7cce1)" style="fill: #1f77b4"/>
   </g>
   <g id="patch_48">
    <path d="M 134.388912 273.312 
L 136.003614 273.312 
L 136.003614 224.868923 
L 134.388912 224.868923 
z
" clip-path="url(#p41eeb7cce1)" style="fill: #1f77b4"/>
   </g>
   <g id="patch_49">
    <path d="M 136.003614 273.312 
L 137.618317 273.312 
L 137.618317 226.641231 
L 136.003614 226.641231 
z
" clip-path="url(#p41eeb7cce1)" style="fill: #1f77b4"/>
   </g>
   <g id="patch_50">
    <path d="M 137.618317 273.312 
L 139.233019 273.312 
L 139.233019 213.053538 
L 137.618317 213.053538 
z
" clip-path="url(#p41eeb7cce1)" style="fill: #1f77b4"/>
   </g>
   <g id="patch_51">
    <path d="M 139.233019 273.312 
L 140.847721 273.312 
L 140.847721 219.552 
L 139.233019 219.552 
z
" clip-path="url(#p41eeb7cce1)" style="fill: #1f77b4"/>
   </g>
   <g id="patch_52">
    <path d="M 140.847721 273.312 
L 142.462423 273.312 
L 142.462423 213.644308 
L 140.847721 213.644308 
z
" clip-path="url(#p41eeb7cce1)" style="fill: #1f77b4"/>
   </g>
   <g id="patch_53">
    <path d="M 142.462423 273.312 
L 144.077125 273.312 
L 144.077125 203.010462 
L 142.462423 203.010462 
z
" clip-path="url(#p41eeb7cce1)" style="fill: #1f77b4"/>
   </g>
   <g id="patch_54">
    <path d="M 144.077125 273.312 
L 145.691827 273.312 
L 145.691827 214.235077 
L 144.077125 214.235077 
z
" clip-path="url(#p41eeb7cce1)" style="fill: #1f77b4"/>
   </g>
   <g id="patch_55">
    <path d="M 145.691827 273.312 
L 147.30653 273.312 
L 147.30653 214.235077 
L 145.691827 214.235077 
z
" clip-path="url(#p41eeb7cce1)" style="fill: #1f77b4"/>
   </g>
   <g id="patch_56">
    <path d="M 147.30653 273.312 
L 148.921232 273.312 
L 148.921232 212.462769 
L 147.30653 212.462769 
z
" clip-path="url(#p41eeb7cce1)" style="fill: #1f77b4"/>
   </g>
   <g id="patch_57">
    <path d="M 148.921232 273.312 
L 150.535934 273.312 
L 150.535934 205.373538 
L 148.921232 205.373538 
z
" clip-path="url(#p41eeb7cce1)" style="fill: #1f77b4"/>
   </g>
   <g id="patch_58">
    <path d="M 150.535934 273.312 
L 152.150636 273.312 
L 152.150636 208.918154 
L 150.535934 208.918154 
z
" clip-path="url(#p41eeb7cce1)" style="fill: #1f77b4"/>
   </g>
   <g id="patch_59">
    <path d="M 152.150636 273.312 
L 153.765338 273.312 
L 153.765338 206.555077 
L 152.150636 206.555077 
z
" clip-path="url(#p41eeb7cce1)" style="fill: #1f77b4"/>
   </g>
   <g id="patch_60">
    <path d="M 153.765338 273.312 
L 155.38004 273.312 
L 155.38004 202.419692 
L 153.765338 202.419692 
z
" clip-path="url(#p41eeb7cce1)" style="fill: #1f77b4"/>
   </g>
   <g id="patch_61">
    <path d="M 155.38004 273.312 
L 156.994742 273.312 
L 156.994742 197.693538 
L 155.38004 197.693538 
z
" clip-path="url(#p41eeb7cce1)" style="fill: #1f77b4"/>
   </g>
   <g id="patch_62">
    <path d="M 156.994742 273.312 
L 158.609445 273.312 
L 158.609445 208.327385 
L 156.994742 208.327385 
z
" clip-path="url(#p41eeb7cce1)" style="fill: #1f77b4"/>
   </g>
   <g id="patch_63">
    <path d="M 158.609445 273.312 
L 160.224147 273.312 
L 160.224147 202.419692 
L 158.609445 202.419692 
z
" clip-path="url(#p41eeb7cce1)" style="fill: #1f77b4"/>
   </g>
   <g id="patch_64">
    <path d="M 160.224147 273.312 
L 161.838849 273.312 
L 161.838849 198.284308 
L 160.224147 198.284308 
z
" clip-path="url(#p41eeb7cce1)" style="fill: #1f77b4"/>
   </g>
   <g id="patch_65">
    <path d="M 161.838849 273.312 
L 163.453551 273.312 
L 163.453551 207.145846 
L 161.838849 207.145846 
z
" clip-path="url(#p41eeb7cce1)" style="fill: #1f77b4"/>
   </g>
   <g id="patch_66">
    <path d="M 163.453551 273.312 
L 165.068253 273.312 
L 165.068253 196.512 
L 163.453551 196.512 
z
" clip-path="url(#p41eeb7cce1)" style="fill: #1f77b4"/>
   </g>
   <g id="patch_67">
    <path d="M 165.068253 273.312 
L 166.682955 273.312 
L 166.682955 201.238154 
L 165.068253 201.238154 
z
" clip-path="url(#p41eeb7cce1)" style="fill: #1f77b4"/>
   </g>
   <g id="patch_68">
    <path d="M 166.682955 273.312 
L 168.297657 273.312 
L 168.297657 183.515077 
L 166.682955 183.515077 
z
" clip-path="url(#p41eeb7cce1)" style="fill: #1f77b4"/>
   </g>
   <g id="patch_69">
    <path d="M 168.297657 273.312 
L 169.91236 273.312 
L 169.91236 203.601231 
L 168.297657 203.601231 
z
" clip-path="url(#p41eeb7cce1)" style="fill: #1f77b4"/>
   </g>
   <g id="patch_70">
    <path d="M 169.91236 273.312 
L 171.527062 273.312 
L 171.527062 189.422769 
L 169.91236 189.422769 
z
" clip-path="url(#p41eeb7cce1)" style="fill: #1f77b4"/>
   </g>
   <g id="patch_71">
    <path d="M 171.527062 273.312 
L 173.141764 273.312 
L 173.141764 203.601231 
L 171.527062 203.601231 
z
" clip-path="url(#p41eeb7cce1)" style="fill: #1f77b4"/>
   </g>
   <g id="patch_72">
    <path d="M 173.141764 273.312 
L 174.756466 273.312 
L 174.756466 188.832 
L 173.141764 188.832 
z
" clip-path="url(#p41eeb7cce1)" style="fill: #1f77b4"/>
   </g>
   <g id="patch_73">
    <path d="M 174.756466 273.312 
L 176.371168 273.312 
L 176.371168 205.373538 
L 174.756466 205.373538 
z
" clip-path="url(#p41eeb7cce1)" style="fill: #1f77b4"/>
   </g>
   <g id="patch_74">
    <path d="M 176.371168 273.312 
L 177.98587 273.312 
L 177.98587 197.102769 
L 176.371168 197.102769 
z
" clip-path="url(#p41eeb7cce1)" style="fill: #1f77b4"/>
   </g>
   <g id="patch_75">
    <path d="M 177.98587 273.312 
L 179.600573 273.312 
L 179.600573 174.062769 
L 177.98587 174.062769 
z
" clip-path="url(#p41eeb7cce1)" style="fill: #1f77b4"/>
   </g>
   <g id="patch_76">
    <path d="M 179.600573 273.312 
L 181.215275 273.312 
L 181.215275 200.647385 
L 179.600573 200.647385 
z
" clip-path="url(#p41eeb7cce1)" style="fill: #1f77b4"/>
   </g>
   <g id="patch_77">
    <path d="M 181.215275 273.312 
L 182.829977 273.312 
L 182.829977 181.152 
L 181.215275 181.152 
z
" clip-path="url(#p41eeb7cce1)" style="fill: #1f77b4"/>
   </g>
   <g id="patch_78">
    <path d="M 182.829977 273.312 
L 184.444679 273.312 
L 184.444679 197.102769 
L 182.829977 197.102769 
z
" clip-path="url(#p41eeb7cce1)" style="fill: #1f77b4"/>
   </g>
   <g id="patch_79">
    <path d="M 184.444679 273.312 
L 186.059381 273.312 
L 186.059381 176.425846 
L 184.444679 176.425846 
z
" clip-path="url(#p41eeb7cce1)" style="fill: #1f77b4"/>
   </g>
   <g id="patch_80">
    <path d="M 186.059381 273.312 
L 187.674083 273.312 
L 187.674083 188.241231 
L 186.059381 188.241231 
z
" clip-path="url(#p41eeb7cce1)" style="fill: #1f77b4"/>
   </g>
   <g id="patch_81">
    <path d="M 187.674083 273.312 
L 189.288785 273.312 
L 189.288785 184.696615 
L 187.674083 184.696615 
z
" clip-path="url(#p41eeb7cce1)" style="fill: #1f77b4"/>
   </g>
   <g id="patch_82">
    <path d="M 189.288785 273.312 
L 190.903488 273.312 
L 190.903488 175.244308 
L 189.288785 175.244308 
z
" clip-path="url(#p41eeb7cce1)" style="fill: #1f77b4"/>
   </g>
   <g id="patch_83">
    <path d="M 190.903488 273.312 
L 192.51819 273.312 
L 192.51819 175.835077 
L 190.903488 175.835077 
z
" clip-path="url(#p41eeb7cce1)" style="fill: #1f77b4"/>
   </g>
   <g id="patch_84">
    <path d="M 192.51819 273.312 
L 194.132892 273.312 
L 194.132892 195.921231 
L 192.51819 195.921231 
z
" clip-path="url(#p41eeb7cce1)" style="fill: #1f77b4"/>
   </g>
   <g id="patch_85">
    <path d="M 194.132892 273.312 
L 195.747594 273.312 
L 195.747594 169.336615 
L 194.132892 169.336615 
z
" clip-path="url(#p41eeb7cce1)" style="fill: #1f77b4"/>
   </g>
   <g id="patch_86">
    <path d="M 195.747594 273.312 
L 197.362296 273.312 
L 197.362296 188.832 
L 195.747594 188.832 
z
" clip-path="url(#p41eeb7cce1)" style="fill: #1f77b4"/>
   </g>
   <g id="patch_87">
    <path d="M 197.362296 273.312 
L 198.976998 273.312 
L 198.976998 179.379692 
L 197.362296 179.379692 
z
" clip-path="url(#p41eeb7cce1)" style="fill: #1f77b4"/>
   </g>
   <g id="patch_88">
    <path d="M 198.976998 273.312 
L 200.5917 273.312 
L 200.5917 177.607385 
L 198.976998 177.607385 
z
" clip-path="url(#p41eeb7cce1)" style="fill: #1f77b4"/>
   </g>
   <g id="patch_89">
    <path d="M 200.5917 273.312 
L 202.206403 273.312 
L 202.206403 171.108923 
L 200.5917 171.108923 
z
" clip-path="url(#p41eeb7cce1)" style="fill: #1f77b4"/>
   </g>
   <g id="patch_90">
    <path d="M 202.206403 273.312 
L 203.821105 273.312 
L 203.821105 177.016615 
L 202.206403 177.016615 
z
" clip-path="url(#p41eeb7cce1)" style="fill: #1f77b4"/>
   </g>
   <g id="patch_91">
    <path d="M 203.821105 273.312 
L 205.435807 273.312 
L 205.435807 156.930462 
L 203.821105 156.930462 
z
" clip-path="url(#p41eeb7cce1)" style="fill: #1f77b4"/>
   </g>
   <g id="patch_92">
    <path d="M 205.435807 273.312 
L 207.050509 273.312 
L 207.050509 177.607385 
L 205.435807 177.607385 
z
" clip-path="url(#p41eeb7cce1)" style="fill: #1f77b4"/>
   </g>
   <g id="patch_93">
    <path d="M 207.050509 273.312 
L 208.665211 273.312 
L 208.665211 172.290462 
L 207.050509 172.290462 
z
" clip-path="url(#p41eeb7cce1)" style="fill: #1f77b4"/>
   </g>
   <g id="patch_94">
    <path d="M 208.665211 273.312 
L 210.279913 273.312 
L 210.279913 159.293538 
L 208.665211 159.293538 
z
" clip-path="url(#p41eeb7cce1)" style="fill: #1f77b4"/>
   </g>
   <g id="patch_95">
    <path d="M 210.279913 273.312 
L 211.894615 273.312 
L 211.894615 164.610462 
L 210.279913 164.610462 
z
" clip-path="url(#p41eeb7cce1)" style="fill: #1f77b4"/>
   </g>
   <g id="patch_96">
    <path d="M 211.894615 273.312 
L 213.509318 273.312 
L 213.509318 153.976615 
L 211.894615 153.976615 
z
" clip-path="url(#p41eeb7cce1)" style="fill: #1f77b4"/>
   </g>
   <g id="patch_97">
    <path d="M 213.509318 273.312 
L 215.12402 273.312 
L 215.12402 158.702769 
L 213.509318 158.702769 
z
" clip-path="url(#p41eeb7cce1)" style="fill: #1f77b4"/>
   </g>
   <g id="patch_98">
    <path d="M 215.12402 273.312 
L 216.738722 273.312 
L 216.738722 155.748923 
L 215.12402 155.748923 
z
" clip-path="url(#p41eeb7cce1)" style="fill: #1f77b4"/>
   </g>
   <g id="patch_99">
    <path d="M 216.738722 273.312 
L 218.353424 273.312 
L 218.353424 153.976615 
L 216.738722 153.976615 
z
" clip-path="url(#p41eeb7cce1)" style="fill: #1f77b4"/>
   </g>
   <g id="patch_100">
    <path d="M 218.353424 273.312 
L 219.968126 273.312 
L 219.968126 158.112 
L 218.353424 158.112 
z
" clip-path="url(#p41eeb7cce1)" style="fill: #1f77b4"/>
   </g>
   <g id="patch_101">
    <path d="M 219.968126 273.312 
L 221.582828 273.312 
L 221.582828 150.432 
L 219.968126 150.432 
z
" clip-path="url(#p41eeb7cce1)" style="fill: #1f77b4"/>
   </g>
   <g id="patch_102">
    <path d="M 221.582828 273.312 
L 223.197531 273.312 
L 223.197531 165.201231 
L 221.582828 165.201231 
z
" clip-path="url(#p41eeb7cce1)" style="fill: #1f77b4"/>
   </g>
   <g id="patch_103">
    <path d="M 223.197531 273.312 
L 224.812233 273.312 
L 224.812233 133.299692 
L 223.197531 133.299692 
z
" clip-path="url(#p41eeb7cce1)" style="fill: #1f77b4"/>
   </g>
   <g id="patch_104">
    <path d="M 224.812233 273.312 
L 226.426935 273.312 
L 226.426935 158.112 
L 224.812233 158.112 
z
" clip-path="url(#p41eeb7cce1)" style="fill: #1f77b4"/>
   </g>
   <g id="patch_105">
    <path d="M 226.426935 273.312 
L 228.041637 273.312 
L 228.041637 141.570462 
L 226.426935 141.570462 
z
" clip-path="url(#p41eeb7cce1)" style="fill: #1f77b4"/>
   </g>
   <g id="patch_106">
    <path d="M 228.041637 273.312 
L 229.656339 273.312 
L 229.656339 166.382769 
L 228.041637 166.382769 
z
" clip-path="url(#p41eeb7cce1)" style="fill: #1f77b4"/>
   </g>
   <g id="patch_107">
    <path d="M 229.656339 273.312 
L 231.271041 273.312 
L 231.271041 143.342769 
L 229.656339 143.342769 
z
" clip-path="url(#p41eeb7cce1)" style="fill: #1f77b4"/>
   </g>
   <g id="patch_108">
    <path d="M 231.271041 273.312 
L 232.885743 273.312 
L 232.885743 152.795077 
L 231.271041 152.795077 
z
" clip-path="url(#p41eeb7cce1)" style="fill: #1f77b4"/>
   </g>
   <g id="patch_109">
    <path d="M 232.885743 273.312 
L 234.500446 273.312 
L 234.500446 148.659692 
L 232.885743 148.659692 
z
" clip-path="url(#p41eeb7cce1)" style="fill: #1f77b4"/>
   </g>
   <g id="patch_110">
    <path d="M 234.500446 273.312 
L 236.115148 273.312 
L 236.115148 145.115077 
L 234.500446 145.115077 
z
" clip-path="url(#p41eeb7cce1)" style="fill: #1f77b4"/>
   </g>
   <g id="patch_111">
    <path d="M 236.115148 273.312 
L 237.72985 273.312 
L 237.72985 127.982769 
L 236.115148 127.982769 
z
" clip-path="url(#p41eeb7cce1)" style="fill: #1f77b4"/>
   </g>
   <g id="patch_112">
    <path d="M 237.72985 273.312 
L 239.344552 273.312 
L 239.344552 137.435077 
L 237.72985 137.435077 
z
" clip-path="url(#p41eeb7cce1)" style="fill: #1f77b4"/>
   </g>
   <g id="patch_113">
    <path d="M 239.344552 273.312 
L 240.959254 273.312 
L 240.959254 129.164308 
L 239.344552 129.164308 
z
" clip-path="url(#p41eeb7cce1)" style="fill: #1f77b4"/>
   </g>
   <g id="patch_114">
    <path d="M 240.959254 273.312 
L 242.573956 273.312 
L 242.573956 135.072 
L 240.959254 135.072 
z
" clip-path="url(#p41eeb7cce1)" style="fill: #1f77b4"/>
   </g>
   <g id="patch_115">
    <path d="M 242.573956 273.312 
L 244.188658 273.312 
L 244.188658 141.570462 
L 242.573956 141.570462 
z
" clip-path="url(#p41eeb7cce1)" style="fill: #1f77b4"/>
   </g>
   <g id="patch_116">
    <path d="M 244.188658 273.312 
L 245.803361 273.312 
L 245.803361 145.115077 
L 244.188658 145.115077 
z
" clip-path="url(#p41eeb7cce1)" style="fill: #1f77b4"/>
   </g>
   <g id="patch_117">
    <path d="M 245.803361 273.312 
L 247.418063 273.312 
L 247.418063 138.616615 
L 245.803361 138.616615 
z
" clip-path="url(#p41eeb7cce1)" style="fill: #1f77b4"/>
   </g>
   <g id="patch_118">
    <path d="M 247.418063 273.312 
L 249.032765 273.312 
L 249.032765 131.527385 
L 247.418063 131.527385 
z
" clip-path="url(#p41eeb7cce1)" style="fill: #1f77b4"/>
   </g>
   <g id="patch_119">
    <path d="M 249.032765 273.312 
L 250.647467 273.312 
L 250.647467 150.432 
L 249.032765 150.432 
z
" clip-path="url(#p41eeb7cce1)" style="fill: #1f77b4"/>
   </g>
   <g id="patch_120">
    <path d="M 250.647467 273.312 
L 252.262169 273.312 
L 252.262169 130.345846 
L 250.647467 130.345846 
z
" clip-path="url(#p41eeb7cce1)" style="fill: #1f77b4"/>
   </g>
   <g id="patch_121">
    <path d="M 252.262169 273.312 
L 253.876871 273.312 
L 253.876871 126.801231 
L 252.262169 126.801231 
z
" clip-path="url(#p41eeb7cce1)" style="fill: #1f77b4"/>
   </g>
   <g id="patch_122">
    <path d="M 253.876871 273.312 
L 255.491573 273.312 
L 255.491573 126.801231 
L 253.876871 126.801231 
z
" clip-path="url(#p41eeb7cce1)" style="fill: #1f77b4"/>
   </g>
   <g id="patch_123">
    <path d="M 255.491573 273.312 
L 257.106276 273.312 
L 257.106276 133.299692 
L 255.491573 133.299692 
z
" clip-path="url(#p41eeb7cce1)" style="fill: #1f77b4"/>
   </g>
   <g id="patch_124">
    <path d="M 257.106276 273.312 
L 258.720978 273.312 
L 258.720978 129.164308 
L 257.106276 129.164308 
z
" clip-path="url(#p41eeb7cce1)" style="fill: #1f77b4"/>
   </g>
   <g id="patch_125">
    <path d="M 258.720978 273.312 
L 260.33568 273.312 
L 260.33568 132.708923 
L 258.720978 132.708923 
z
" clip-path="url(#p41eeb7cce1)" style="fill: #1f77b4"/>
   </g>
   <g id="patch_126">
    <path d="M 260.33568 273.312 
L 261.950382 273.312 
L 261.950382 137.435077 
L 260.33568 137.435077 
z
" clip-path="url(#p41eeb7cce1)" style="fill: #1f77b4"/>
   </g>
   <g id="patch_127">
    <path d="M 261.950382 273.312 
L 263.565084 273.312 
L 263.565084 137.435077 
L 261.950382 137.435077 
z
" clip-path="url(#p41eeb7cce1)" style="fill: #1f77b4"/>
   </g>
   <g id="patch_128">
    <path d="M 263.565084 273.312 
L 265.179786 273.312 
L 265.179786 138.616615 
L 263.565084 138.616615 
z
" clip-path="url(#p41eeb7cce1)" style="fill: #1f77b4"/>
   </g>
   <g id="patch_129">
    <path d="M 265.179786 273.312 
L 266.794489 273.312 
L 266.794489 122.665846 
L 265.179786 122.665846 
z
" clip-path="url(#p41eeb7cce1)" style="fill: #1f77b4"/>
   </g>
   <g id="patch_130">
    <path d="M 266.794489 273.312 
L 268.409191 273.312 
L 268.409191 140.388923 
L 266.794489 140.388923 
z
" clip-path="url(#p41eeb7cce1)" style="fill: #1f77b4"/>
   </g>
   <g id="patch_131">
    <path d="M 268.409191 273.312 
L 270.023893 273.312 
L 270.023893 133.299692 
L 268.409191 133.299692 
z
" clip-path="url(#p41eeb7cce1)" style="fill: #1f77b4"/>
   </g>
   <g id="patch_132">
    <path d="M 270.023893 273.312 
L 271.638595 273.312 
L 271.638595 109.078154 
L 270.023893 109.078154 
z
" clip-path="url(#p41eeb7cce1)" style="fill: #1f77b4"/>
   </g>
   <g id="patch_133">
    <path d="M 271.638595 273.312 
L 273.253297 273.312 
L 273.253297 106.715077 
L 271.638595 106.715077 
z
" clip-path="url(#p41eeb7cce1)" style="fill: #1f77b4"/>
   </g>
   <g id="patch_134">
    <path d="M 273.253297 273.312 
L 274.867999 273.312 
L 274.867999 117.939692 
L 273.253297 117.939692 
z
" clip-path="url(#p41eeb7cce1)" style="fill: #1f77b4"/>
   </g>
   <g id="patch_135">
    <path d="M 274.867999 273.312 
L 276.482701 273.312 
L 276.482701 120.893538 
L 274.867999 120.893538 
z
" clip-path="url(#p41eeb7cce1)" style="fill: #1f77b4"/>
   </g>
   <g id="patch_136">
    <path d="M 276.482701 273.312 
L 278.097404 273.312 
L 278.097404 112.622769 
L 276.482701 112.622769 
z
" clip-path="url(#p41eeb7cce1)" style="fill: #1f77b4"/>
   </g>
   <g id="patch_137">
    <path d="M 278.097404 273.312 
L 279.712106 273.312 
L 279.712106 123.847385 
L 278.097404 123.847385 
z
" clip-path="url(#p41eeb7cce1)" style="fill: #1f77b4"/>
   </g>
   <g id="patch_138">
    <path d="M 279.712106 273.312 
L 281.326808 273.312 
L 281.326808 117.939692 
L 279.712106 117.939692 
z
" clip-path="url(#p41eeb7cce1)" style="fill: #1f77b4"/>
   </g>
   <g id="patch_139">
    <path d="M 281.326808 273.312 
L 282.94151 273.312 
L 282.94151 119.712 
L 281.326808 119.712 
z
" clip-path="url(#p41eeb7cce1)" style="fill: #1f77b4"/>
   </g>
   <g id="patch_140">
    <path d="M 282.94151 273.312 
L 284.556212 273.312 
L 284.556212 106.715077 
L 282.94151 106.715077 
z
" clip-path="url(#p41eeb7cce1)" style="fill: #1f77b4"/>
   </g>
   <g id="patch_141">
    <path d="M 284.556212 273.312 
L 286.170914 273.312 
L 286.170914 107.896615 
L 284.556212 107.896615 
z
" clip-path="url(#p41eeb7cce1)" style="fill: #1f77b4"/>
   </g>
   <g id="patch_142">
    <path d="M 286.170914 273.312 
L 287.785616 273.312 
L 287.785616 109.668923 
L 286.170914 109.668923 
z
" clip-path="url(#p41eeb7cce1)" style="fill: #1f77b4"/>
   </g>
   <g id="patch_143">
    <path d="M 287.785616 273.312 
L 289.400319 273.312 
L 289.400319 98.444308 
L 287.785616 98.444308 
z
" clip-path="url(#p41eeb7cce1)" style="fill: #1f77b4"/>
   </g>
   <g id="patch_144">
    <path d="M 289.400319 273.312 
L 291.015021 273.312 
L 291.015021 100.216615 
L 289.400319 100.216615 
z
" clip-path="url(#p41eeb7cce1)" style="fill: #1f77b4"/>
   </g>
   <g id="patch_145">
    <path d="M 291.015021 273.312 
L 292.629723 273.312 
L 292.629723 107.305846 
L 291.015021 107.305846 
z
" clip-path="url(#p41eeb7cce1)" style="fill: #1f77b4"/>
   </g>
   <g id="patch_146">
    <path d="M 292.629723 273.312 
L 294.244425 273.312 
L 294.244425 110.259692 
L 292.629723 110.259692 
z
" clip-path="url(#p41eeb7cce1)" style="fill: #1f77b4"/>
   </g>
   <g id="patch_147">
    <path d="M 294.244425 273.312 
L 295.859127 273.312 
L 295.859127 112.032 
L 294.244425 112.032 
z
" clip-path="url(#p41eeb7cce1)" style="fill: #1f77b4"/>
   </g>
   <g id="patch_148">
    <path d="M 295.859127 273.312 
L 297.473829 273.312 
L 297.473829 107.305846 
L 295.859127 107.305846 
z
" clip-path="url(#p41eeb7cce1)" style="fill: #1f77b4"/>
   </g>
   <g id="patch_149">
    <path d="M 297.473829 273.312 
L 299.088532 273.312 
L 299.088532 100.807385 
L 297.473829 100.807385 
z
" clip-path="url(#p41eeb7cce1)" style="fill: #1f77b4"/>
   </g>
   <g id="patch_150">
    <path d="M 299.088532 273.312 
L 300.703234 273.312 
L 300.703234 100.216615 
L 299.088532 100.216615 
z
" clip-path="url(#p41eeb7cce1)" style="fill: #1f77b4"/>
   </g>
   <g id="patch_151">
    <path d="M 300.703234 273.312 
L 302.317936 273.312 
L 302.317936 102.579692 
L 300.703234 102.579692 
z
" clip-path="url(#p41eeb7cce1)" style="fill: #1f77b4"/>
   </g>
   <g id="patch_152">
    <path d="M 302.317936 273.312 
L 303.932638 273.312 
L 303.932638 90.173538 
L 302.317936 90.173538 
z
" clip-path="url(#p41eeb7cce1)" style="fill: #1f77b4"/>
   </g>
   <g id="patch_153">
    <path d="M 303.932638 273.312 
L 305.54734 273.312 
L 305.54734 98.444308 
L 303.932638 98.444308 
z
" clip-path="url(#p41eeb7cce1)" style="fill: #1f77b4"/>
   </g>
   <g id="patch_154">
    <path d="M 305.54734 273.312 
L 307.162042 273.312 
L 307.162042 104.352 
L 305.54734 104.352 
z
" clip-path="url(#p41eeb7cce1)" style="fill: #1f77b4"/>
   </g>
   <g id="patch_155">
    <path d="M 307.162042 273.312 
L 308.776744 273.312 
L 308.776744 110.259692 
L 307.162042 110.259692 
z
" clip-path="url(#p41eeb7cce1)" style="fill: #1f77b4"/>
   </g>
   <g id="patch_156">
    <path d="M 308.776744 273.312 
L 310.391447 273.312 
L 310.391447 80.130462 
L 308.776744 80.130462 
z
" clip-path="url(#p41eeb7cce1)" style="fill: #1f77b4"/>
   </g>
   <g id="patch_157">
    <path d="M 310.391447 273.312 
L 312.006149 273.312 
L 312.006149 93.127385 
L 310.391447 93.127385 
z
" clip-path="url(#p41eeb7cce1)" style="fill: #1f77b4"/>
   </g>
   <g id="patch_158">
    <path d="M 312.006149 273.312 
L 313.620851 273.312 
L 313.620851 86.628923 
L 312.006149 86.628923 
z
" clip-path="url(#p41eeb7cce1)" style="fill: #1f77b4"/>
   </g>
   <g id="patch_159">
    <path d="M 313.620851 273.312 
L 315.235553 273.312 
L 315.235553 76.585846 
L 313.620851 76.585846 
z
" clip-path="url(#p41eeb7cce1)" style="fill: #1f77b4"/>
   </g>
   <g id="patch_160">
    <path d="M 315.235553 273.312 
L 316.850255 273.312 
L 316.850255 87.219692 
L 315.235553 87.219692 
z
" clip-path="url(#p41eeb7cce1)" style="fill: #1f77b4"/>
   </g>
   <g id="patch_161">
    <path d="M 316.850255 273.312 
L 318.464957 273.312 
L 318.464957 68.905846 
L 316.850255 68.905846 
z
" clip-path="url(#p41eeb7cce1)" style="fill: #1f77b4"/>
   </g>
   <g id="patch_162">
    <path d="M 318.464957 273.312 
L 320.079659 273.312 
L 320.079659 81.312 
L 318.464957 81.312 
z
" clip-path="url(#p41eeb7cce1)" style="fill: #1f77b4"/>
   </g>
   <g id="patch_163">
    <path d="M 320.079659 273.312 
L 321.694362 273.312 
L 321.694362 83.675077 
L 320.079659 83.675077 
z
" clip-path="url(#p41eeb7cce1)" style="fill: #1f77b4"/>
   </g>
   <g id="patch_164">
    <path d="M 321.694362 273.312 
L 323.309064 273.312 
L 323.309064 81.312 
L 321.694362 81.312 
z
" clip-path="url(#p41eeb7cce1)" style="fill: #1f77b4"/>
   </g>
   <g id="patch_165">
    <path d="M 323.309064 273.312 
L 324.923766 273.312 
L 324.923766 92.536615 
L 323.309064 92.536615 
z
" clip-path="url(#p41eeb7cce1)" style="fill: #1f77b4"/>
   </g>
   <g id="patch_166">
    <path d="M 324.923766 273.312 
L 326.538468 273.312 
L 326.538468 82.493538 
L 324.923766 82.493538 
z
" clip-path="url(#p41eeb7cce1)" style="fill: #1f77b4"/>
   </g>
   <g id="patch_167">
    <path d="M 326.538468 273.312 
L 328.15317 273.312 
L 328.15317 93.127385 
L 326.538468 93.127385 
z
" clip-path="url(#p41eeb7cce1)" style="fill: #1f77b4"/>
   </g>
   <g id="patch_168">
    <path d="M 328.15317 273.312 
L 329.767872 273.312 
L 329.767872 67.724308 
L 328.15317 67.724308 
z
" clip-path="url(#p41eeb7cce1)" style="fill: #1f77b4"/>
   </g>
   <g id="patch_169">
    <path d="M 329.767872 273.312 
L 331.382574 273.312 
L 331.382574 78.358154 
L 329.767872 78.358154 
z
" clip-path="url(#p41eeb7cce1)" style="fill: #1f77b4"/>
   </g>
   <g id="patch_170">
    <path d="M 331.382574 273.312 
L 332.997277 273.312 
L 332.997277 77.767385 
L 331.382574 77.767385 
z
" clip-path="url(#p41eeb7cce1)" style="fill: #1f77b4"/>
   </g>
   <g id="patch_171">
    <path d="M 332.997277 273.312 
L 334.611979 273.312 
L 334.611979 87.810462 
L 332.997277 87.810462 
z
" clip-path="url(#p41eeb7cce1)" style="fill: #1f77b4"/>
   </g>
   <g id="patch_172">
    <path d="M 334.611979 273.312 
L 336.226681 273.312 
L 336.226681 74.222769 
L 334.611979 74.222769 
z
" clip-path="url(#p41eeb7cce1)" style="fill: #1f77b4"/>
   </g>
   <g id="patch_173">
    <path d="M 336.226681 273.312 
L 337.841383 273.312 
L 337.841383 60.635077 
L 336.226681 60.635077 
z
" clip-path="url(#p41eeb7cce1)" style="fill: #1f77b4"/>
   </g>
   <g id="patch_174">
    <path d="M 337.841383 273.312 
L 339.456085 273.312 
L 339.456085 76.585846 
L 337.841383 76.585846 
z
" clip-path="url(#p41eeb7cce1)" style="fill: #1f77b4"/>
   </g>
   <g id="patch_175">
    <path d="M 339.456085 273.312 
L 341.070787 273.312 
L 341.070787 62.407385 
L 339.456085 62.407385 
z
" clip-path="url(#p41eeb7cce1)" style="fill: #1f77b4"/>
   </g>
   <g id="patch_176">
    <path d="M 341.070787 273.312 
L 342.68549 273.312 
L 342.68549 62.998154 
L 341.070787 62.998154 
z
" clip-path="url(#p41eeb7cce1)" style="fill: #1f77b4"/>
   </g>
   <g id="patch_177">
    <path d="M 342.68549 273.312 
L 344.300192 273.312 
L 344.300192 64.770462 
L 342.68549 64.770462 
z
" clip-path="url(#p41eeb7cce1)" style="fill: #1f77b4"/>
   </g>
   <g id="patch_178">
    <path d="M 344.300192 273.312 
L 345.914894 273.312 
L 345.914894 58.272 
L 344.300192 58.272 
z
" clip-path="url(#p41eeb7cce1)" style="fill: #1f77b4"/>
   </g>
   <g id="patch_179">
    <path d="M 345.914894 273.312 
L 347.529596 273.312 
L 347.529596 50.592 
L 345.914894 50.592 
z
" clip-path="url(#p41eeb7cce1)" style="fill: #1f77b4"/>
   </g>
   <g id="patch_180">
    <path d="M 347.529596 273.312 
L 349.144298 273.312 
L 349.144298 70.087385 
L 347.529596 70.087385 
z
" clip-path="url(#p41eeb7cce1)" style="fill: #1f77b4"/>
   </g>
   <g id="patch_181">
    <path d="M 349.144298 273.312 
L 350.759 273.312 
L 350.759 77.767385 
L 349.144298 77.767385 
z
" clip-path="url(#p41eeb7cce1)" style="fill: #1f77b4"/>
   </g>
   <g id="patch_182">
    <path d="M 350.759 273.312 
L 352.373702 273.312 
L 352.373702 56.499692 
L 350.759 56.499692 
z
" clip-path="url(#p41eeb7cce1)" style="fill: #1f77b4"/>
   </g>
   <g id="patch_183">
    <path d="M 352.373702 273.312 
L 353.988405 273.312 
L 353.988405 52.364308 
L 352.373702 52.364308 
z
" clip-path="url(#p41eeb7cce1)" style="fill: #1f77b4"/>
   </g>
   <g id="patch_184">
    <path d="M 353.988405 273.312 
L 355.603107 273.312 
L 355.603107 63.588923 
L 353.988405 63.588923 
z
" clip-path="url(#p41eeb7cce1)" style="fill: #1f77b4"/>
   </g>
   <g id="patch_185">
    <path d="M 355.603107 273.312 
L 357.217809 273.312 
L 357.217809 57.681231 
L 355.603107 57.681231 
z
" clip-path="url(#p41eeb7cce1)" style="fill: #1f77b4"/>
   </g>
   <g id="patch_186">
    <path d="M 357.217809 273.312 
L 358.832511 273.312 
L 358.832511 42.912 
L 357.217809 42.912 
z
" clip-path="url(#p41eeb7cce1)" style="fill: #1f77b4"/>
   </g>
   <g id="patch_187">
    <path d="M 358.832511 273.312 
L 360.447213 273.312 
L 360.447213 68.905846 
L 358.832511 68.905846 
z
" clip-path="url(#p41eeb7cce1)" style="fill: #1f77b4"/>
   </g>
   <g id="patch_188">
    <path d="M 360.447213 273.312 
L 362.061915 273.312 
L 362.061915 60.635077 
L 360.447213 60.635077 
z
" clip-path="url(#p41eeb7cce1)" style="fill: #1f77b4"/>
   </g>
   <g id="patch_189">
    <path d="M 362.061915 273.312 
L 363.676617 273.312 
L 363.676617 46.456615 
L 362.061915 46.456615 
z
" clip-path="url(#p41eeb7cce1)" style="fill: #1f77b4"/>
   </g>
   <g id="patch_190">
    <path d="M 363.676617 273.312 
L 365.29132 273.312 
L 365.29132 55.908923 
L 363.676617 55.908923 
z
" clip-path="url(#p41eeb7cce1)" style="fill: #1f77b4"/>
   </g>
   <g id="patch_191">
    <path d="M 365.29132 273.312 
L 366.906022 273.312 
L 366.906022 55.318154 
L 365.29132 55.318154 
z
" clip-path="url(#p41eeb7cce1)" style="fill: #1f77b4"/>
   </g>
   <g id="patch_192">
    <path d="M 366.906022 273.312 
L 368.520724 273.312 
L 368.520724 34.641231 
L 366.906022 34.641231 
z
" clip-path="url(#p41eeb7cce1)" style="fill: #1f77b4"/>
   </g>
   <g id="patch_193">
    <path d="M 368.520724 273.312 
L 370.135426 273.312 
L 370.135426 41.139692 
L 368.520724 41.139692 
z
" clip-path="url(#p41eeb7cce1)" style="fill: #1f77b4"/>
   </g>
   <g id="patch_194">
    <path d="M 370.135426 273.312 
L 371.750128 273.312 
L 371.750128 42.321231 
L 370.135426 42.321231 
z
" clip-path="url(#p41eeb7cce1)" style="fill: #1f77b4"/>
   </g>
   <g id="patch_195">
    <path d="M 371.750128 273.312 
L 373.36483 273.312 
L 373.36483 29.324308 
L 371.750128 29.324308 
z
" clip-path="url(#p41eeb7cce1)" style="fill: #1f77b4"/>
   </g>
   <g id="patch_196">
    <path d="M 373.36483 273.312 
L 374.979532 273.312 
L 374.979532 32.278154 
L 373.36483 32.278154 
z
" clip-path="url(#p41eeb7cce1)" style="fill: #1f77b4"/>
   </g>
   <g id="patch_197">
    <path d="M 374.979532 273.312 
L 376.594235 273.312 
L 376.594235 55.318154 
L 374.979532 55.318154 
z
" clip-path="url(#p41eeb7cce1)" style="fill: #1f77b4"/>
   </g>
   <g id="patch_198">
    <path d="M 376.594235 273.312 
L 378.208937 273.312 
L 378.208937 50.001231 
L 376.594235 50.001231 
z
" clip-path="url(#p41eeb7cce1)" style="fill: #1f77b4"/>
   </g>
   <g id="patch_199">
    <path d="M 378.208937 273.312 
L 379.823639 273.312 
L 379.823639 31.687385 
L 378.208937 31.687385 
z
" clip-path="url(#p41eeb7cce1)" style="fill: #1f77b4"/>
   </g>
   <g id="patch_200">
    <path d="M 379.823639 273.312 
L 381.438341 273.312 
L 381.438341 60.044308 
L 379.823639 60.044308 
z
" clip-path="url(#p41eeb7cce1)" style="fill: #1f77b4"/>
   </g>
   <g id="patch_201">
    <path d="M 381.438341 273.312 
L 383.053043 273.312 
L 383.053043 41.139692 
L 381.438341 41.139692 
z
" clip-path="url(#p41eeb7cce1)" style="fill: #1f77b4"/>
   </g>
   <g id="patch_202">
    <path d="M 383.053043 273.312 
L 384.667745 273.312 
L 384.667745 19.872 
L 383.053043 19.872 
z
" clip-path="url(#p41eeb7cce1)" style="fill: #1f77b4"/>
   </g>
   <g id="matplotlib.axis_1">
    <g id="xtick_1">
     <g id="line2d_1">
      <defs>
       <path id="md7a4491167" d="M 0 0 
L 0 3.5 
" style="stroke: #000000; stroke-width: 0.8"/>
      </defs>
      <g>
       <use xlink:href="#md7a4491167" x="60.013977" y="273.312" style="stroke: #000000; stroke-width: 0.8"/>
      </g>
     </g>
     <g id="text_1">
      <!-- 0.0 -->
      <g transform="translate(52.062415 287.910437)scale(0.1 -0.1)">
       <defs>
        <path id="DejaVuSans-30" d="M 2034 4250 
Q 1547 4250 1301 3770 
Q 1056 3291 1056 2328 
Q 1056 1369 1301 889 
Q 1547 409 2034 409 
Q 2525 409 2770 889 
Q 3016 1369 3016 2328 
Q 3016 3291 2770 3770 
Q 2525 4250 2034 4250 
z
M 2034 4750 
Q 2819 4750 3233 4129 
Q 3647 3509 3647 2328 
Q 3647 1150 3233 529 
Q 2819 -91 2034 -91 
Q 1250 -91 836 529 
Q 422 1150 422 2328 
Q 422 3509 836 4129 
Q 1250 4750 2034 4750 
z
" transform="scale(0.015625)"/>
        <path id="DejaVuSans-2e" d="M 684 794 
L 1344 794 
L 1344 0 
L 684 0 
L 684 794 
z
" transform="scale(0.015625)"/>
       </defs>
       <use xlink:href="#DejaVuSans-30"/>
       <use xlink:href="#DejaVuSans-2e" x="63.623047"/>
       <use xlink:href="#DejaVuSans-30" x="95.410156"/>
      </g>
     </g>
    </g>
    <g id="xtick_2">
     <g id="line2d_2">
      <g>
       <use xlink:href="#md7a4491167" x="124.944886" y="273.312" style="stroke: #000000; stroke-width: 0.8"/>
      </g>
     </g>
     <g id="text_2">
      <!-- 0.2 -->
      <g transform="translate(116.993324 287.910437)scale(0.1 -0.1)">
       <defs>
        <path id="DejaVuSans-32" d="M 1228 531 
L 3431 531 
L 3431 0 
L 469 0 
L 469 531 
Q 828 903 1448 1529 
Q 2069 2156 2228 2338 
Q 2531 2678 2651 2914 
Q 2772 3150 2772 3378 
Q 2772 3750 2511 3984 
Q 2250 4219 1831 4219 
Q 1534 4219 1204 4116 
Q 875 4013 500 3803 
L 500 4441 
Q 881 4594 1212 4672 
Q 1544 4750 1819 4750 
Q 2544 4750 2975 4387 
Q 3406 4025 3406 3419 
Q 3406 3131 3298 2873 
Q 3191 2616 2906 2266 
Q 2828 2175 2409 1742 
Q 1991 1309 1228 531 
z
" transform="scale(0.015625)"/>
       </defs>
       <use xlink:href="#DejaVuSans-30"/>
       <use xlink:href="#DejaVuSans-2e" x="63.623047"/>
       <use xlink:href="#DejaVuSans-32" x="95.410156"/>
      </g>
     </g>
    </g>
    <g id="xtick_3">
     <g id="line2d_3">
      <g>
       <use xlink:href="#md7a4491167" x="189.875795" y="273.312" style="stroke: #000000; stroke-width: 0.8"/>
      </g>
     </g>
     <g id="text_3">
      <!-- 0.4 -->
      <g transform="translate(181.924233 287.910437)scale(0.1 -0.1)">
       <defs>
        <path id="DejaVuSans-34" d="M 2419 4116 
L 825 1625 
L 2419 1625 
L 2419 4116 
z
M 2253 4666 
L 3047 4666 
L 3047 1625 
L 3713 1625 
L 3713 1100 
L 3047 1100 
L 3047 0 
L 2419 0 
L 2419 1100 
L 313 1100 
L 313 1709 
L 2253 4666 
z
" transform="scale(0.015625)"/>
       </defs>
       <use xlink:href="#DejaVuSans-30"/>
       <use xlink:href="#DejaVuSans-2e" x="63.623047"/>
       <use xlink:href="#DejaVuSans-34" x="95.410156"/>
      </g>
     </g>
    </g>
    <g id="xtick_4">
     <g id="line2d_4">
      <g>
       <use xlink:href="#md7a4491167" x="254.806705" y="273.312" style="stroke: #000000; stroke-width: 0.8"/>
      </g>
     </g>
     <g id="text_4">
      <!-- 0.6 -->
      <g transform="translate(246.855142 287.910437)scale(0.1 -0.1)">
       <defs>
        <path id="DejaVuSans-36" d="M 2113 2584 
Q 1688 2584 1439 2293 
Q 1191 2003 1191 1497 
Q 1191 994 1439 701 
Q 1688 409 2113 409 
Q 2538 409 2786 701 
Q 3034 994 3034 1497 
Q 3034 2003 2786 2293 
Q 2538 2584 2113 2584 
z
M 3366 4563 
L 3366 3988 
Q 3128 4100 2886 4159 
Q 2644 4219 2406 4219 
Q 1781 4219 1451 3797 
Q 1122 3375 1075 2522 
Q 1259 2794 1537 2939 
Q 1816 3084 2150 3084 
Q 2853 3084 3261 2657 
Q 3669 2231 3669 1497 
Q 3669 778 3244 343 
Q 2819 -91 2113 -91 
Q 1303 -91 875 529 
Q 447 1150 447 2328 
Q 447 3434 972 4092 
Q 1497 4750 2381 4750 
Q 2619 4750 2861 4703 
Q 3103 4656 3366 4563 
z
" transform="scale(0.015625)"/>
       </defs>
       <use xlink:href="#DejaVuSans-30"/>
       <use xlink:href="#DejaVuSans-2e" x="63.623047"/>
       <use xlink:href="#DejaVuSans-36" x="95.410156"/>
      </g>
     </g>
    </g>
    <g id="xtick_5">
     <g id="line2d_5">
      <g>
       <use xlink:href="#md7a4491167" x="319.737614" y="273.312" style="stroke: #000000; stroke-width: 0.8"/>
      </g>
     </g>
     <g id="text_5">
      <!-- 0.8 -->
      <g transform="translate(311.786051 287.910437)scale(0.1 -0.1)">
       <defs>
        <path id="DejaVuSans-38" d="M 2034 2216 
Q 1584 2216 1326 1975 
Q 1069 1734 1069 1313 
Q 1069 891 1326 650 
Q 1584 409 2034 409 
Q 2484 409 2743 651 
Q 3003 894 3003 1313 
Q 3003 1734 2745 1975 
Q 2488 2216 2034 2216 
z
M 1403 2484 
Q 997 2584 770 2862 
Q 544 3141 544 3541 
Q 544 4100 942 4425 
Q 1341 4750 2034 4750 
Q 2731 4750 3128 4425 
Q 3525 4100 3525 3541 
Q 3525 3141 3298 2862 
Q 3072 2584 2669 2484 
Q 3125 2378 3379 2068 
Q 3634 1759 3634 1313 
Q 3634 634 3220 271 
Q 2806 -91 2034 -91 
Q 1263 -91 848 271 
Q 434 634 434 1313 
Q 434 1759 690 2068 
Q 947 2378 1403 2484 
z
M 1172 3481 
Q 1172 3119 1398 2916 
Q 1625 2713 2034 2713 
Q 2441 2713 2670 2916 
Q 2900 3119 2900 3481 
Q 2900 3844 2670 4047 
Q 2441 4250 2034 4250 
Q 1625 4250 1398 4047 
Q 1172 3844 1172 3481 
z
" transform="scale(0.015625)"/>
       </defs>
       <use xlink:href="#DejaVuSans-30"/>
       <use xlink:href="#DejaVuSans-2e" x="63.623047"/>
       <use xlink:href="#DejaVuSans-38" x="95.410156"/>
      </g>
     </g>
    </g>
    <g id="xtick_6">
     <g id="line2d_6">
      <g>
       <use xlink:href="#md7a4491167" x="384.668523" y="273.312" style="stroke: #000000; stroke-width: 0.8"/>
      </g>
     </g>
     <g id="text_6">
      <!-- 1.0 -->
      <g transform="translate(376.71696 287.910437)scale(0.1 -0.1)">
       <defs>
        <path id="DejaVuSans-31" d="M 794 531 
L 1825 531 
L 1825 4091 
L 703 3866 
L 703 4441 
L 1819 4666 
L 2450 4666 
L 2450 531 
L 3481 531 
L 3481 0 
L 794 0 
L 794 531 
z
" transform="scale(0.015625)"/>
       </defs>
       <use xlink:href="#DejaVuSans-31"/>
       <use xlink:href="#DejaVuSans-2e" x="63.623047"/>
       <use xlink:href="#DejaVuSans-30" x="95.410156"/>
      </g>
     </g>
    </g>
    <g id="text_7">
     <!-- Propagation direction -->
     <g transform="translate(168.859219 301.588562)scale(0.1 -0.1)">
      <defs>
       <path id="DejaVuSans-50" d="M 1259 4147 
L 1259 2394 
L 2053 2394 
Q 2494 2394 2734 2622 
Q 2975 2850 2975 3272 
Q 2975 3691 2734 3919 
Q 2494 4147 2053 4147 
L 1259 4147 
z
M 628 4666 
L 2053 4666 
Q 2838 4666 3239 4311 
Q 3641 3956 3641 3272 
Q 3641 2581 3239 2228 
Q 2838 1875 2053 1875 
L 1259 1875 
L 1259 0 
L 628 0 
L 628 4666 
z
" transform="scale(0.015625)"/>
       <path id="DejaVuSans-72" d="M 2631 2963 
Q 2534 3019 2420 3045 
Q 2306 3072 2169 3072 
Q 1681 3072 1420 2755 
Q 1159 2438 1159 1844 
L 1159 0 
L 581 0 
L 581 3500 
L 1159 3500 
L 1159 2956 
Q 1341 3275 1631 3429 
Q 1922 3584 2338 3584 
Q 2397 3584 2469 3576 
Q 2541 3569 2628 3553 
L 2631 2963 
z
" transform="scale(0.015625)"/>
       <path id="DejaVuSans-6f" d="M 1959 3097 
Q 1497 3097 1228 2736 
Q 959 2375 959 1747 
Q 959 1119 1226 758 
Q 1494 397 1959 397 
Q 2419 397 2687 759 
Q 2956 1122 2956 1747 
Q 2956 2369 2687 2733 
Q 2419 3097 1959 3097 
z
M 1959 3584 
Q 2709 3584 3137 3096 
Q 3566 2609 3566 1747 
Q 3566 888 3137 398 
Q 2709 -91 1959 -91 
Q 1206 -91 779 398 
Q 353 888 353 1747 
Q 353 2609 779 3096 
Q 1206 3584 1959 3584 
z
" transform="scale(0.015625)"/>
       <path id="DejaVuSans-70" d="M 1159 525 
L 1159 -1331 
L 581 -1331 
L 581 3500 
L 1159 3500 
L 1159 2969 
Q 1341 3281 1617 3432 
Q 1894 3584 2278 3584 
Q 2916 3584 3314 3078 
Q 3713 2572 3713 1747 
Q 3713 922 3314 415 
Q 2916 -91 2278 -91 
Q 1894 -91 1617 61 
Q 1341 213 1159 525 
z
M 3116 1747 
Q 3116 2381 2855 2742 
Q 2594 3103 2138 3103 
Q 1681 3103 1420 2742 
Q 1159 2381 1159 1747 
Q 1159 1113 1420 752 
Q 1681 391 2138 391 
Q 2594 391 2855 752 
Q 3116 1113 3116 1747 
z
" transform="scale(0.015625)"/>
       <path id="DejaVuSans-61" d="M 2194 1759 
Q 1497 1759 1228 1600 
Q 959 1441 959 1056 
Q 959 750 1161 570 
Q 1363 391 1709 391 
Q 2188 391 2477 730 
Q 2766 1069 2766 1631 
L 2766 1759 
L 2194 1759 
z
M 3341 1997 
L 3341 0 
L 2766 0 
L 2766 531 
Q 2569 213 2275 61 
Q 1981 -91 1556 -91 
Q 1019 -91 701 211 
Q 384 513 384 1019 
Q 384 1609 779 1909 
Q 1175 2209 1959 2209 
L 2766 2209 
L 2766 2266 
Q 2766 2663 2505 2880 
Q 2244 3097 1772 3097 
Q 1472 3097 1187 3025 
Q 903 2953 641 2809 
L 641 3341 
Q 956 3463 1253 3523 
Q 1550 3584 1831 3584 
Q 2591 3584 2966 3190 
Q 3341 2797 3341 1997 
z
" transform="scale(0.015625)"/>
       <path id="DejaVuSans-67" d="M 2906 1791 
Q 2906 2416 2648 2759 
Q 2391 3103 1925 3103 
Q 1463 3103 1205 2759 
Q 947 2416 947 1791 
Q 947 1169 1205 825 
Q 1463 481 1925 481 
Q 2391 481 2648 825 
Q 2906 1169 2906 1791 
z
M 3481 434 
Q 3481 -459 3084 -895 
Q 2688 -1331 1869 -1331 
Q 1566 -1331 1297 -1286 
Q 1028 -1241 775 -1147 
L 775 -588 
Q 1028 -725 1275 -790 
Q 1522 -856 1778 -856 
Q 2344 -856 2625 -561 
Q 2906 -266 2906 331 
L 2906 616 
Q 2728 306 2450 153 
Q 2172 0 1784 0 
Q 1141 0 747 490 
Q 353 981 353 1791 
Q 353 2603 747 3093 
Q 1141 3584 1784 3584 
Q 2172 3584 2450 3431 
Q 2728 3278 2906 2969 
L 2906 3500 
L 3481 3500 
L 3481 434 
z
" transform="scale(0.015625)"/>
       <path id="DejaVuSans-74" d="M 1172 4494 
L 1172 3500 
L 2356 3500 
L 2356 3053 
L 1172 3053 
L 1172 1153 
Q 1172 725 1289 603 
Q 1406 481 1766 481 
L 2356 481 
L 2356 0 
L 1766 0 
Q 1100 0 847 248 
Q 594 497 594 1153 
L 594 3053 
L 172 3053 
L 172 3500 
L 594 3500 
L 594 4494 
L 1172 4494 
z
" transform="scale(0.015625)"/>
       <path id="DejaVuSans-69" d="M 603 3500 
L 1178 3500 
L 1178 0 
L 603 0 
L 603 3500 
z
M 603 4863 
L 1178 4863 
L 1178 4134 
L 603 4134 
L 603 4863 
z
" transform="scale(0.015625)"/>
       <path id="DejaVuSans-6e" d="M 3513 2113 
L 3513 0 
L 2938 0 
L 2938 2094 
Q 2938 2591 2744 2837 
Q 2550 3084 2163 3084 
Q 1697 3084 1428 2787 
Q 1159 2491 1159 1978 
L 1159 0 
L 581 0 
L 581 3500 
L 1159 3500 
L 1159 2956 
Q 1366 3272 1645 3428 
Q 1925 3584 2291 3584 
Q 2894 3584 3203 3211 
Q 3513 2838 3513 2113 
z
" transform="scale(0.015625)"/>
       <path id="DejaVuSans-20" transform="scale(0.015625)"/>
       <path id="DejaVuSans-64" d="M 2906 2969 
L 2906 4863 
L 3481 4863 
L 3481 0 
L 2906 0 
L 2906 525 
Q 2725 213 2448 61 
Q 2172 -91 1784 -91 
Q 1150 -91 751 415 
Q 353 922 353 1747 
Q 353 2572 751 3078 
Q 1150 3584 1784 3584 
Q 2172 3584 2448 3432 
Q 2725 3281 2906 2969 
z
M 947 1747 
Q 947 1113 1208 752 
Q 1469 391 1925 391 
Q 2381 391 2643 752 
Q 2906 1113 2906 1747 
Q 2906 2381 2643 2742 
Q 2381 3103 1925 3103 
Q 1469 3103 1208 2742 
Q 947 2381 947 1747 
z
" transform="scale(0.015625)"/>
       <path id="DejaVuSans-65" d="M 3597 1894 
L 3597 1613 
L 953 1613 
Q 991 1019 1311 708 
Q 1631 397 2203 397 
Q 2534 397 2845 478 
Q 3156 559 3463 722 
L 3463 178 
Q 3153 47 2828 -22 
Q 2503 -91 2169 -91 
Q 1331 -91 842 396 
Q 353 884 353 1716 
Q 353 2575 817 3079 
Q 1281 3584 2069 3584 
Q 2775 3584 3186 3129 
Q 3597 2675 3597 1894 
z
M 3022 2063 
Q 3016 2534 2758 2815 
Q 2500 3097 2075 3097 
Q 1594 3097 1305 2825 
Q 1016 2553 972 2059 
L 3022 2063 
z
" transform="scale(0.015625)"/>
       <path id="DejaVuSans-63" d="M 3122 3366 
L 3122 2828 
Q 2878 2963 2633 3030 
Q 2388 3097 2138 3097 
Q 1578 3097 1268 2742 
Q 959 2388 959 1747 
Q 959 1106 1268 751 
Q 1578 397 2138 397 
Q 2388 397 2633 464 
Q 2878 531 3122 666 
L 3122 134 
Q 2881 22 2623 -34 
Q 2366 -91 2075 -91 
Q 1284 -91 818 406 
Q 353 903 353 1747 
Q 353 2603 823 3093 
Q 1294 3584 2113 3584 
Q 2378 3584 2631 3529 
Q 2884 3475 3122 3366 
z
" transform="scale(0.015625)"/>
      </defs>
      <use xlink:href="#DejaVuSans-50"/>
      <use xlink:href="#DejaVuSans-72" x="58.552734"/>
      <use xlink:href="#DejaVuSans-6f" x="97.416016"/>
      <use xlink:href="#DejaVuSans-70" x="158.597656"/>
      <use xlink:href="#DejaVuSans-61" x="222.074219"/>
      <use xlink:href="#DejaVuSans-67" x="283.353516"/>
      <use xlink:href="#DejaVuSans-61" x="346.830078"/>
      <use xlink:href="#DejaVuSans-74" x="408.109375"/>
      <use xlink:href="#DejaVuSans-69" x="447.318359"/>
      <use xlink:href="#DejaVuSans-6f" x="475.101562"/>
      <use xlink:href="#DejaVuSans-6e" x="536.283203"/>
      <use xlink:href="#DejaVuSans-20" x="599.662109"/>
      <use xlink:href="#DejaVuSans-64" x="631.449219"/>
      <use xlink:href="#DejaVuSans-69" x="694.925781"/>
      <use xlink:href="#DejaVuSans-72" x="722.708984"/>
      <use xlink:href="#DejaVuSans-65" x="761.572266"/>
      <use xlink:href="#DejaVuSans-63" x="823.095703"/>
      <use xlink:href="#DejaVuSans-74" x="878.076172"/>
      <use xlink:href="#DejaVuSans-69" x="917.285156"/>
      <use xlink:href="#DejaVuSans-6f" x="945.068359"/>
      <use xlink:href="#DejaVuSans-6e" x="1006.25"/>
     </g>
    </g>
   </g>
   <g id="matplotlib.axis_2">
    <g id="ytick_1">
     <g id="line2d_7">
      <defs>
       <path id="mdefd3fb73d" d="M 0 0 
L -3.5 0 
" style="stroke: #000000; stroke-width: 0.8"/>
      </defs>
      <g>
       <use xlink:href="#mdefd3fb73d" x="43.78125" y="273.312" style="stroke: #000000; stroke-width: 0.8"/>
      </g>
     </g>
     <g id="text_8">
      <!-- 0.0 -->
      <g transform="translate(20.878125 277.111219)scale(0.1 -0.1)">
       <use xlink:href="#DejaVuSans-30"/>
       <use xlink:href="#DejaVuSans-2e" x="63.623047"/>
       <use xlink:href="#DejaVuSans-30" x="95.410156"/>
      </g>
     </g>
    </g>
    <g id="ytick_2">
     <g id="line2d_8">
      <g>
       <use xlink:href="#mdefd3fb73d" x="43.78125" y="214.546992" style="stroke: #000000; stroke-width: 0.8"/>
      </g>
     </g>
     <g id="text_9">
      <!-- 0.5 -->
      <g transform="translate(20.878125 218.346211)scale(0.1 -0.1)">
       <defs>
        <path id="DejaVuSans-35" d="M 691 4666 
L 3169 4666 
L 3169 4134 
L 1269 4134 
L 1269 2991 
Q 1406 3038 1543 3061 
Q 1681 3084 1819 3084 
Q 2600 3084 3056 2656 
Q 3513 2228 3513 1497 
Q 3513 744 3044 326 
Q 2575 -91 1722 -91 
Q 1428 -91 1123 -41 
Q 819 9 494 109 
L 494 744 
Q 775 591 1075 516 
Q 1375 441 1709 441 
Q 2250 441 2565 725 
Q 2881 1009 2881 1497 
Q 2881 1984 2565 2268 
Q 2250 2553 1709 2553 
Q 1456 2553 1204 2497 
Q 953 2441 691 2322 
L 691 4666 
z
" transform="scale(0.015625)"/>
       </defs>
       <use xlink:href="#DejaVuSans-30"/>
       <use xlink:href="#DejaVuSans-2e" x="63.623047"/>
       <use xlink:href="#DejaVuSans-35" x="95.410156"/>
      </g>
     </g>
    </g>
    <g id="ytick_3">
     <g id="line2d_9">
      <g>
       <use xlink:href="#mdefd3fb73d" x="43.78125" y="155.781984" style="stroke: #000000; stroke-width: 0.8"/>
      </g>
     </g>
     <g id="text_10">
      <!-- 1.0 -->
      <g transform="translate(20.878125 159.581203)scale(0.1 -0.1)">
       <use xlink:href="#DejaVuSans-31"/>
       <use xlink:href="#DejaVuSans-2e" x="63.623047"/>
       <use xlink:href="#DejaVuSans-30" x="95.410156"/>
      </g>
     </g>
    </g>
    <g id="ytick_4">
     <g id="line2d_10">
      <g>
       <use xlink:href="#mdefd3fb73d" x="43.78125" y="97.016976" style="stroke: #000000; stroke-width: 0.8"/>
      </g>
     </g>
     <g id="text_11">
      <!-- 1.5 -->
      <g transform="translate(20.878125 100.816195)scale(0.1 -0.1)">
       <use xlink:href="#DejaVuSans-31"/>
       <use xlink:href="#DejaVuSans-2e" x="63.623047"/>
       <use xlink:href="#DejaVuSans-35" x="95.410156"/>
      </g>
     </g>
    </g>
    <g id="ytick_5">
     <g id="line2d_11">
      <g>
       <use xlink:href="#mdefd3fb73d" x="43.78125" y="38.251968" style="stroke: #000000; stroke-width: 0.8"/>
      </g>
     </g>
     <g id="text_12">
      <!-- 2.0 -->
      <g transform="translate(20.878125 42.051187)scale(0.1 -0.1)">
       <use xlink:href="#DejaVuSans-32"/>
       <use xlink:href="#DejaVuSans-2e" x="63.623047"/>
       <use xlink:href="#DejaVuSans-30" x="95.410156"/>
      </g>
     </g>
    </g>
    <g id="text_13">
     <!-- Probability density -->
     <g transform="translate(14.798438 186.606781)rotate(-90)scale(0.1 -0.1)">
      <defs>
       <path id="DejaVuSans-62" d="M 3116 1747 
Q 3116 2381 2855 2742 
Q 2594 3103 2138 3103 
Q 1681 3103 1420 2742 
Q 1159 2381 1159 1747 
Q 1159 1113 1420 752 
Q 1681 391 2138 391 
Q 2594 391 2855 752 
Q 3116 1113 3116 1747 
z
M 1159 2969 
Q 1341 3281 1617 3432 
Q 1894 3584 2278 3584 
Q 2916 3584 3314 3078 
Q 3713 2572 3713 1747 
Q 3713 922 3314 415 
Q 2916 -91 2278 -91 
Q 1894 -91 1617 61 
Q 1341 213 1159 525 
L 1159 0 
L 581 0 
L 581 4863 
L 1159 4863 
L 1159 2969 
z
" transform="scale(0.015625)"/>
       <path id="DejaVuSans-6c" d="M 603 4863 
L 1178 4863 
L 1178 0 
L 603 0 
L 603 4863 
z
" transform="scale(0.015625)"/>
       <path id="DejaVuSans-79" d="M 2059 -325 
Q 1816 -950 1584 -1140 
Q 1353 -1331 966 -1331 
L 506 -1331 
L 506 -850 
L 844 -850 
Q 1081 -850 1212 -737 
Q 1344 -625 1503 -206 
L 1606 56 
L 191 3500 
L 800 3500 
L 1894 763 
L 2988 3500 
L 3597 3500 
L 2059 -325 
z
" transform="scale(0.015625)"/>
       <path id="DejaVuSans-73" d="M 2834 3397 
L 2834 2853 
Q 2591 2978 2328 3040 
Q 2066 3103 1784 3103 
Q 1356 3103 1142 2972 
Q 928 2841 928 2578 
Q 928 2378 1081 2264 
Q 1234 2150 1697 2047 
L 1894 2003 
Q 2506 1872 2764 1633 
Q 3022 1394 3022 966 
Q 3022 478 2636 193 
Q 2250 -91 1575 -91 
Q 1294 -91 989 -36 
Q 684 19 347 128 
L 347 722 
Q 666 556 975 473 
Q 1284 391 1588 391 
Q 1994 391 2212 530 
Q 2431 669 2431 922 
Q 2431 1156 2273 1281 
Q 2116 1406 1581 1522 
L 1381 1569 
Q 847 1681 609 1914 
Q 372 2147 372 2553 
Q 372 3047 722 3315 
Q 1072 3584 1716 3584 
Q 2034 3584 2315 3537 
Q 2597 3491 2834 3397 
z
" transform="scale(0.015625)"/>
      </defs>
      <use xlink:href="#DejaVuSans-50"/>
      <use xlink:href="#DejaVuSans-72" x="58.552734"/>
      <use xlink:href="#DejaVuSans-6f" x="97.416016"/>
      <use xlink:href="#DejaVuSans-62" x="158.597656"/>
      <use xlink:href="#DejaVuSans-61" x="222.074219"/>
      <use xlink:href="#DejaVuSans-62" x="283.353516"/>
      <use xlink:href="#DejaVuSans-69" x="346.830078"/>
      <use xlink:href="#DejaVuSans-6c" x="374.613281"/>
      <use xlink:href="#DejaVuSans-69" x="402.396484"/>
      <use xlink:href="#DejaVuSans-74" x="430.179688"/>
      <use xlink:href="#DejaVuSans-79" x="469.388672"/>
      <use xlink:href="#DejaVuSans-20" x="528.568359"/>
      <use xlink:href="#DejaVuSans-64" x="560.355469"/>
      <use xlink:href="#DejaVuSans-65" x="623.832031"/>
      <use xlink:href="#DejaVuSans-6e" x="685.355469"/>
      <use xlink:href="#DejaVuSans-73" x="748.734375"/>
      <use xlink:href="#DejaVuSans-69" x="800.833984"/>
      <use xlink:href="#DejaVuSans-74" x="828.617188"/>
      <use xlink:href="#DejaVuSans-79" x="867.826172"/>
     </g>
    </g>
   </g>
   <g id="line2d_12">
    <path d="M 60.013977 273.312 
L 384.668523 38.251968 
L 384.668523 38.251968 
" clip-path="url(#p41eeb7cce1)" style="fill: none; stroke: #ff7f0e; stroke-width: 1.5; stroke-linecap: square"/>
   </g>
   <g id="patch_203">
    <path d="M 43.78125 273.312 
L 43.78125 7.2 
" style="fill: none; stroke: #000000; stroke-width: 0.8; stroke-linejoin: miter; stroke-linecap: square"/>
   </g>
   <g id="patch_204">
    <path d="M 400.90125 273.312 
L 400.90125 7.2 
" style="fill: none; stroke: #000000; stroke-width: 0.8; stroke-linejoin: miter; stroke-linecap: square"/>
   </g>
   <g id="patch_205">
    <path d="M 43.78125 273.312 
L 400.90125 273.312 
" style="fill: none; stroke: #000000; stroke-width: 0.8; stroke-linejoin: miter; stroke-linecap: square"/>
   </g>
   <g id="patch_206">
    <path d="M 43.78125 7.2 
L 400.90125 7.2 
" style="fill: none; stroke: #000000; stroke-width: 0.8; stroke-linejoin: miter; stroke-linecap: square"/>
   </g>
  </g>
 </g>
 <defs>
  <clipPath id="p41eeb7cce1">
   <rect x="43.78125" y="7.2" width="357.12" height="266.112"/>
  </clipPath>
 </defs>
</svg>
