<?xml version="1.0" encoding="utf-8" standalone="no"?>
<!DOCTYPE svg PUBLIC "-//W3C//DTD SVG 1.1//EN"
  "http://www.w3.org/Graphics/SVG/1.1/DTD/svg11.dtd">
<svg xmlns:xlink="http://www.w3.org/1999/xlink" width="414.46375pt" height="310.86825pt" viewBox="0 0 414.46375 310.86825" xmlns="http://www.w3.org/2000/svg" version="1.1">
 <metadata>
  <rdf:RDF xmlns:dc="http://purl.org/dc/elements/1.1/" xmlns:cc="http://creativecommons.org/ns#" xmlns:rdf="http://www.w3.org/1999/02/22-rdf-syntax-ns#">
   <cc:Work>
    <dc:type rdf:resource="http://purl.org/dc/dcmitype/StillImage"/>
    <dc:date>2022-06-07T20:14:22.271191</dc:date>
    <dc:format>image/svg+xml</dc:format>
    <dc:creator>
     <cc:Agent>
      <dc:title>Matplotlib v3.5.2, https://matplotlib.org/</dc:title>
     </cc:Agent>
    </dc:creator>
   </cc:Work>
  </rdf:RDF>
 </metadata>
 <defs>
  <style type="text/css">*{stroke-linejoin: round; stroke-linecap: butt}</style>
 </defs>
 <g id="figure_1">
  <g id="patch_1">
   <path d="M 0 310.86825 
L 414.46375 310.86825 
L 414.46375 0 
L 0 0 
z
" style="fill: #ffffff"/>
  </g>
  <g id="axes_1">
   <g id="patch_2">
    <path d="M 50.14375 273.312 
L 407.26375 273.312 
L 407.26375 7.2 
L 50.14375 7.2 
z
" style="fill: #ffffff"/>
   </g>
   <g id="patch_3">
    <path d="M 67.427324 273.312 
L 69.045339 273.312 
L 69.045339 272.684673 
L 67.427324 272.684673 
z
" clip-path="url(#p485c099c33)" style="fill: #1f77b4"/>
   </g>
   <g id="patch_4">
    <path d="M 69.045339 273.312 
L 70.663355 273.312 
L 70.663355 271.43002 
L 69.045339 271.43002 
z
" clip-path="url(#p485c099c33)" style="fill: #1f77b4"/>
   </g>
   <g id="patch_5">
    <path d="M 70.663355 273.312 
L 72.28137 273.312 
L 72.28137 268.293386 
L 70.663355 268.293386 
z
" clip-path="url(#p485c099c33)" style="fill: #1f77b4"/>
   </g>
   <g id="patch_6">
    <path d="M 72.28137 273.312 
L 73.899385 273.312 
L 73.899385 268.920713 
L 72.28137 268.920713 
z
" clip-path="url(#p485c099c33)" style="fill: #1f77b4"/>
   </g>
   <g id="patch_7">
    <path d="M 73.899385 273.312 
L 75.517401 273.312 
L 75.517401 267.666059 
L 73.899385 267.666059 
z
" clip-path="url(#p485c099c33)" style="fill: #1f77b4"/>
   </g>
   <g id="patch_8">
    <path d="M 75.517401 273.312 
L 77.135416 273.312 
L 77.135416 267.666059 
L 75.517401 267.666059 
z
" clip-path="url(#p485c099c33)" style="fill: #1f77b4"/>
   </g>
   <g id="patch_9">
    <path d="M 77.135416 273.312 
L 78.753431 273.312 
L 78.753431 265.156752 
L 77.135416 265.156752 
z
" clip-path="url(#p485c099c33)" style="fill: #1f77b4"/>
   </g>
   <g id="patch_10">
    <path d="M 78.753431 273.312 
L 80.371446 273.312 
L 80.371446 262.020119 
L 78.753431 262.020119 
z
" clip-path="url(#p485c099c33)" style="fill: #1f77b4"/>
   </g>
   <g id="patch_11">
    <path d="M 80.371446 273.312 
L 81.989462 273.312 
L 81.989462 260.138139 
L 80.371446 260.138139 
z
" clip-path="url(#p485c099c33)" style="fill: #1f77b4"/>
   </g>
   <g id="patch_12">
    <path d="M 81.989462 273.312 
L 83.607477 273.312 
L 83.607477 260.765465 
L 81.989462 260.765465 
z
" clip-path="url(#p485c099c33)" style="fill: #1f77b4"/>
   </g>
   <g id="patch_13">
    <path d="M 83.607477 273.312 
L 85.225492 273.312 
L 85.225492 257.628832 
L 83.607477 257.628832 
z
" clip-path="url(#p485c099c33)" style="fill: #1f77b4"/>
   </g>
   <g id="patch_14">
    <path d="M 85.225492 273.312 
L 86.843507 273.312 
L 86.843507 255.119525 
L 85.225492 255.119525 
z
" clip-path="url(#p485c099c33)" style="fill: #1f77b4"/>
   </g>
   <g id="patch_15">
    <path d="M 86.843507 273.312 
L 88.461523 273.312 
L 88.461523 256.374178 
L 86.843507 256.374178 
z
" clip-path="url(#p485c099c33)" style="fill: #1f77b4"/>
   </g>
   <g id="patch_16">
    <path d="M 88.461523 273.312 
L 90.079538 273.312 
L 90.079538 254.492198 
L 88.461523 254.492198 
z
" clip-path="url(#p485c099c33)" style="fill: #1f77b4"/>
   </g>
   <g id="patch_17">
    <path d="M 90.079538 273.312 
L 91.697553 273.312 
L 91.697553 255.746851 
L 90.079538 255.746851 
z
" clip-path="url(#p485c099c33)" style="fill: #1f77b4"/>
   </g>
   <g id="patch_18">
    <path d="M 91.697553 273.312 
L 93.315569 273.312 
L 93.315569 253.237545 
L 91.697553 253.237545 
z
" clip-path="url(#p485c099c33)" style="fill: #1f77b4"/>
   </g>
   <g id="patch_19">
    <path d="M 93.315569 273.312 
L 94.933584 273.312 
L 94.933584 253.864871 
L 93.315569 253.864871 
z
" clip-path="url(#p485c099c33)" style="fill: #1f77b4"/>
   </g>
   <g id="patch_20">
    <path d="M 94.933584 273.312 
L 96.551599 273.312 
L 96.551599 254.492198 
L 94.933584 254.492198 
z
" clip-path="url(#p485c099c33)" style="fill: #1f77b4"/>
   </g>
   <g id="patch_21">
    <path d="M 96.551599 273.312 
L 98.169614 273.312 
L 98.169614 246.33695 
L 96.551599 246.33695 
z
" clip-path="url(#p485c099c33)" style="fill: #1f77b4"/>
   </g>
   <g id="patch_22">
    <path d="M 98.169614 273.312 
L 99.78763 273.312 
L 99.78763 242.57299 
L 98.169614 242.57299 
z
" clip-path="url(#p485c099c33)" style="fill: #1f77b4"/>
   </g>
   <g id="patch_23">
    <path d="M 99.78763 273.312 
L 101.405645 273.312 
L 101.405645 249.473584 
L 99.78763 249.473584 
z
" clip-path="url(#p485c099c33)" style="fill: #1f77b4"/>
   </g>
   <g id="patch_24">
    <path d="M 101.405645 273.312 
L 103.02366 273.312 
L 103.02366 248.846257 
L 101.405645 248.846257 
z
" clip-path="url(#p485c099c33)" style="fill: #1f77b4"/>
   </g>
   <g id="patch_25">
    <path d="M 103.02366 273.312 
L 104.641675 273.312 
L 104.641675 244.45497 
L 103.02366 244.45497 
z
" clip-path="url(#p485c099c33)" style="fill: #1f77b4"/>
   </g>
   <g id="patch_26">
    <path d="M 104.641675 273.312 
L 106.259691 273.312 
L 106.259691 245.709624 
L 104.641675 245.709624 
z
" clip-path="url(#p485c099c33)" style="fill: #1f77b4"/>
   </g>
   <g id="patch_27">
    <path d="M 106.259691 273.312 
L 107.877706 273.312 
L 107.877706 240.063683 
L 106.259691 240.063683 
z
" clip-path="url(#p485c099c33)" style="fill: #1f77b4"/>
   </g>
   <g id="patch_28">
    <path d="M 107.877706 273.312 
L 109.495721 273.312 
L 109.495721 246.33695 
L 107.877706 246.33695 
z
" clip-path="url(#p485c099c33)" style="fill: #1f77b4"/>
   </g>
   <g id="patch_29">
    <path d="M 109.495721 273.312 
L 111.113737 273.312 
L 111.113737 245.082297 
L 109.495721 245.082297 
z
" clip-path="url(#p485c099c33)" style="fill: #1f77b4"/>
   </g>
   <g id="patch_30">
    <path d="M 111.113737 273.312 
L 112.731752 273.312 
L 112.731752 239.436356 
L 111.113737 239.436356 
z
" clip-path="url(#p485c099c33)" style="fill: #1f77b4"/>
   </g>
   <g id="patch_31">
    <path d="M 112.731752 273.312 
L 114.349767 273.312 
L 114.349767 239.436356 
L 112.731752 239.436356 
z
" clip-path="url(#p485c099c33)" style="fill: #1f77b4"/>
   </g>
   <g id="patch_32">
    <path d="M 114.349767 273.312 
L 115.967782 273.312 
L 115.967782 243.827644 
L 114.349767 243.827644 
z
" clip-path="url(#p485c099c33)" style="fill: #1f77b4"/>
   </g>
   <g id="patch_33">
    <path d="M 115.967782 273.312 
L 117.585798 273.312 
L 117.585798 238.80903 
L 115.967782 238.80903 
z
" clip-path="url(#p485c099c33)" style="fill: #1f77b4"/>
   </g>
   <g id="patch_34">
    <path d="M 117.585798 273.312 
L 119.203813 273.312 
L 119.203813 229.399129 
L 117.585798 229.399129 
z
" clip-path="url(#p485c099c33)" style="fill: #1f77b4"/>
   </g>
   <g id="patch_35">
    <path d="M 119.203813 273.312 
L 120.821828 273.312 
L 120.821828 228.771802 
L 119.203813 228.771802 
z
" clip-path="url(#p485c099c33)" style="fill: #1f77b4"/>
   </g>
   <g id="patch_36">
    <path d="M 120.821828 273.312 
L 122.439843 273.312 
L 122.439843 230.026455 
L 120.821828 230.026455 
z
" clip-path="url(#p485c099c33)" style="fill: #1f77b4"/>
   </g>
   <g id="patch_37">
    <path d="M 122.439843 273.312 
L 124.057859 273.312 
L 124.057859 230.026455 
L 122.439843 230.026455 
z
" clip-path="url(#p485c099c33)" style="fill: #1f77b4"/>
   </g>
   <g id="patch_38">
    <path d="M 124.057859 273.312 
L 125.675874 273.312 
L 125.675874 235.045069 
L 124.057859 235.045069 
z
" clip-path="url(#p485c099c33)" style="fill: #1f77b4"/>
   </g>
   <g id="patch_39">
    <path d="M 125.675874 273.312 
L 127.293889 273.312 
L 127.293889 223.125861 
L 125.675874 223.125861 
z
" clip-path="url(#p485c099c33)" style="fill: #1f77b4"/>
   </g>
   <g id="patch_40">
    <path d="M 127.293889 273.312 
L 128.911905 273.312 
L 128.911905 219.989228 
L 127.293889 219.989228 
z
" clip-path="url(#p485c099c33)" style="fill: #1f77b4"/>
   </g>
   <g id="patch_41">
    <path d="M 128.911905 273.312 
L 130.52992 273.312 
L 130.52992 235.672396 
L 128.911905 235.672396 
z
" clip-path="url(#p485c099c33)" style="fill: #1f77b4"/>
   </g>
   <g id="patch_42">
    <path d="M 130.52992 273.312 
L 132.147935 273.312 
L 132.147935 225.007842 
L 130.52992 225.007842 
z
" clip-path="url(#p485c099c33)" style="fill: #1f77b4"/>
   </g>
   <g id="patch_43">
    <path d="M 132.147935 273.312 
L 133.76595 273.312 
L 133.76595 221.243881 
L 132.147935 221.243881 
z
" clip-path="url(#p485c099c33)" style="fill: #1f77b4"/>
   </g>
   <g id="patch_44">
    <path d="M 133.76595 273.312 
L 135.383966 273.312 
L 135.383966 221.871208 
L 133.76595 221.871208 
z
" clip-path="url(#p485c099c33)" style="fill: #1f77b4"/>
   </g>
   <g id="patch_45">
    <path d="M 135.383966 273.312 
L 137.001981 273.312 
L 137.001981 221.871208 
L 135.383966 221.871208 
z
" clip-path="url(#p485c099c33)" style="fill: #1f77b4"/>
   </g>
   <g id="patch_46">
    <path d="M 137.001981 273.312 
L 138.619996 273.312 
L 138.619996 223.125861 
L 137.001981 223.125861 
z
" clip-path="url(#p485c099c33)" style="fill: #1f77b4"/>
   </g>
   <g id="patch_47">
    <path d="M 138.619996 273.312 
L 140.238012 273.312 
L 140.238012 220.616554 
L 138.619996 220.616554 
z
" clip-path="url(#p485c099c33)" style="fill: #1f77b4"/>
   </g>
   <g id="patch_48">
    <path d="M 140.238012 273.312 
L 141.856027 273.312 
L 141.856027 219.361901 
L 140.238012 219.361901 
z
" clip-path="url(#p485c099c33)" style="fill: #1f77b4"/>
   </g>
   <g id="patch_49">
    <path d="M 141.856027 273.312 
L 143.474042 273.312 
L 143.474042 223.753188 
L 141.856027 223.753188 
z
" clip-path="url(#p485c099c33)" style="fill: #1f77b4"/>
   </g>
   <g id="patch_50">
    <path d="M 143.474042 273.312 
L 145.092057 273.312 
L 145.092057 216.225267 
L 143.474042 216.225267 
z
" clip-path="url(#p485c099c33)" style="fill: #1f77b4"/>
   </g>
   <g id="patch_51">
    <path d="M 145.092057 273.312 
L 146.710073 273.312 
L 146.710073 209.324673 
L 145.092057 209.324673 
z
" clip-path="url(#p485c099c33)" style="fill: #1f77b4"/>
   </g>
   <g id="patch_52">
    <path d="M 146.710073 273.312 
L 148.328088 273.312 
L 148.328088 206.815366 
L 146.710073 206.815366 
z
" clip-path="url(#p485c099c33)" style="fill: #1f77b4"/>
   </g>
   <g id="patch_53">
    <path d="M 148.328088 273.312 
L 149.946103 273.312 
L 149.946103 204.933386 
L 148.328088 204.933386 
z
" clip-path="url(#p485c099c33)" style="fill: #1f77b4"/>
   </g>
   <g id="patch_54">
    <path d="M 149.946103 273.312 
L 151.564118 273.312 
L 151.564118 211.83398 
L 149.946103 211.83398 
z
" clip-path="url(#p485c099c33)" style="fill: #1f77b4"/>
   </g>
   <g id="patch_55">
    <path d="M 151.564118 273.312 
L 153.182134 273.312 
L 153.182134 206.815366 
L 151.564118 206.815366 
z
" clip-path="url(#p485c099c33)" style="fill: #1f77b4"/>
   </g>
   <g id="patch_56">
    <path d="M 153.182134 273.312 
L 154.800149 273.312 
L 154.800149 214.970614 
L 153.182134 214.970614 
z
" clip-path="url(#p485c099c33)" style="fill: #1f77b4"/>
   </g>
   <g id="patch_57">
    <path d="M 154.800149 273.312 
L 156.418164 273.312 
L 156.418164 211.206653 
L 154.800149 211.206653 
z
" clip-path="url(#p485c099c33)" style="fill: #1f77b4"/>
   </g>
   <g id="patch_58">
    <path d="M 156.418164 273.312 
L 158.03618 273.312 
L 158.03618 189.250218 
L 156.418164 189.250218 
z
" clip-path="url(#p485c099c33)" style="fill: #1f77b4"/>
   </g>
   <g id="patch_59">
    <path d="M 158.03618 273.312 
L 159.654195 273.312 
L 159.654195 201.796752 
L 158.03618 201.796752 
z
" clip-path="url(#p485c099c33)" style="fill: #1f77b4"/>
   </g>
   <g id="patch_60">
    <path d="M 159.654195 273.312 
L 161.27221 273.312 
L 161.27221 200.542099 
L 159.654195 200.542099 
z
" clip-path="url(#p485c099c33)" style="fill: #1f77b4"/>
   </g>
   <g id="patch_61">
    <path d="M 161.27221 273.312 
L 162.890225 273.312 
L 162.890225 187.995564 
L 161.27221 187.995564 
z
" clip-path="url(#p485c099c33)" style="fill: #1f77b4"/>
   </g>
   <g id="patch_62">
    <path d="M 162.890225 273.312 
L 164.508241 273.312 
L 164.508241 201.796752 
L 162.890225 201.796752 
z
" clip-path="url(#p485c099c33)" style="fill: #1f77b4"/>
   </g>
   <g id="patch_63">
    <path d="M 164.508241 273.312 
L 166.126256 273.312 
L 166.126256 193.014178 
L 164.508241 193.014178 
z
" clip-path="url(#p485c099c33)" style="fill: #1f77b4"/>
   </g>
   <g id="patch_64">
    <path d="M 166.126256 273.312 
L 167.744271 273.312 
L 167.744271 191.759525 
L 166.126256 191.759525 
z
" clip-path="url(#p485c099c33)" style="fill: #1f77b4"/>
   </g>
   <g id="patch_65">
    <path d="M 167.744271 273.312 
L 169.362286 273.312 
L 169.362286 198.032792 
L 167.744271 198.032792 
z
" clip-path="url(#p485c099c33)" style="fill: #1f77b4"/>
   </g>
   <g id="patch_66">
    <path d="M 169.362286 273.312 
L 170.980302 273.312 
L 170.980302 202.424079 
L 169.362286 202.424079 
z
" clip-path="url(#p485c099c33)" style="fill: #1f77b4"/>
   </g>
   <g id="patch_67">
    <path d="M 170.980302 273.312 
L 172.598317 273.312 
L 172.598317 196.778139 
L 170.980302 196.778139 
z
" clip-path="url(#p485c099c33)" style="fill: #1f77b4"/>
   </g>
   <g id="patch_68">
    <path d="M 172.598317 273.312 
L 174.216332 273.312 
L 174.216332 184.231604 
L 172.598317 184.231604 
z
" clip-path="url(#p485c099c33)" style="fill: #1f77b4"/>
   </g>
   <g id="patch_69">
    <path d="M 174.216332 273.312 
L 175.834348 273.312 
L 175.834348 191.132198 
L 174.216332 191.132198 
z
" clip-path="url(#p485c099c33)" style="fill: #1f77b4"/>
   </g>
   <g id="patch_70">
    <path d="M 175.834348 273.312 
L 177.452363 273.312 
L 177.452363 189.877545 
L 175.834348 189.877545 
z
" clip-path="url(#p485c099c33)" style="fill: #1f77b4"/>
   </g>
   <g id="patch_71">
    <path d="M 177.452363 273.312 
L 179.070378 273.312 
L 179.070378 184.231604 
L 177.452363 184.231604 
z
" clip-path="url(#p485c099c33)" style="fill: #1f77b4"/>
   </g>
   <g id="patch_72">
    <path d="M 179.070378 273.312 
L 180.688393 273.312 
L 180.688393 191.759525 
L 179.070378 191.759525 
z
" clip-path="url(#p485c099c33)" style="fill: #1f77b4"/>
   </g>
   <g id="patch_73">
    <path d="M 180.688393 273.312 
L 182.306409 273.312 
L 182.306409 178.585663 
L 180.688393 178.585663 
z
" clip-path="url(#p485c099c33)" style="fill: #1f77b4"/>
   </g>
   <g id="patch_74">
    <path d="M 182.306409 273.312 
L 183.924424 273.312 
L 183.924424 184.858931 
L 182.306409 184.858931 
z
" clip-path="url(#p485c099c33)" style="fill: #1f77b4"/>
   </g>
   <g id="patch_75">
    <path d="M 183.924424 273.312 
L 185.542439 273.312 
L 185.542439 169.175762 
L 183.924424 169.175762 
z
" clip-path="url(#p485c099c33)" style="fill: #1f77b4"/>
   </g>
   <g id="patch_76">
    <path d="M 185.542439 273.312 
L 187.160454 273.312 
L 187.160454 172.939723 
L 185.542439 172.939723 
z
" clip-path="url(#p485c099c33)" style="fill: #1f77b4"/>
   </g>
   <g id="patch_77">
    <path d="M 187.160454 273.312 
L 188.77847 273.312 
L 188.77847 170.430416 
L 187.160454 170.430416 
z
" clip-path="url(#p485c099c33)" style="fill: #1f77b4"/>
   </g>
   <g id="patch_78">
    <path d="M 188.77847 273.312 
L 190.396485 273.312 
L 190.396485 168.548436 
L 188.77847 168.548436 
z
" clip-path="url(#p485c099c33)" style="fill: #1f77b4"/>
   </g>
   <g id="patch_79">
    <path d="M 190.396485 273.312 
L 192.0145 273.312 
L 192.0145 167.921109 
L 190.396485 167.921109 
z
" clip-path="url(#p485c099c33)" style="fill: #1f77b4"/>
   </g>
   <g id="patch_80">
    <path d="M 192.0145 273.312 
L 193.632516 273.312 
L 193.632516 177.958337 
L 192.0145 177.958337 
z
" clip-path="url(#p485c099c33)" style="fill: #1f77b4"/>
   </g>
   <g id="patch_81">
    <path d="M 193.632516 273.312 
L 195.250531 273.312 
L 195.250531 172.312396 
L 193.632516 172.312396 
z
" clip-path="url(#p485c099c33)" style="fill: #1f77b4"/>
   </g>
   <g id="patch_82">
    <path d="M 195.250531 273.312 
L 196.868546 273.312 
L 196.868546 167.921109 
L 195.250531 167.921109 
z
" clip-path="url(#p485c099c33)" style="fill: #1f77b4"/>
   </g>
   <g id="patch_83">
    <path d="M 196.868546 273.312 
L 198.486561 273.312 
L 198.486561 175.44903 
L 196.868546 175.44903 
z
" clip-path="url(#p485c099c33)" style="fill: #1f77b4"/>
   </g>
   <g id="patch_84">
    <path d="M 198.486561 273.312 
L 200.104577 273.312 
L 200.104577 191.132198 
L 198.486561 191.132198 
z
" clip-path="url(#p485c099c33)" style="fill: #1f77b4"/>
   </g>
   <g id="patch_85">
    <path d="M 200.104577 273.312 
L 201.722592 273.312 
L 201.722592 171.685069 
L 200.104577 171.685069 
z
" clip-path="url(#p485c099c33)" style="fill: #1f77b4"/>
   </g>
   <g id="patch_86">
    <path d="M 201.722592 273.312 
L 203.340607 273.312 
L 203.340607 160.393188 
L 201.722592 160.393188 
z
" clip-path="url(#p485c099c33)" style="fill: #1f77b4"/>
   </g>
   <g id="patch_87">
    <path d="M 203.340607 273.312 
L 204.958623 273.312 
L 204.958623 186.740911 
L 203.340607 186.740911 
z
" clip-path="url(#p485c099c33)" style="fill: #1f77b4"/>
   </g>
   <g id="patch_88">
    <path d="M 204.958623 273.312 
L 206.576638 273.312 
L 206.576638 161.647842 
L 204.958623 161.647842 
z
" clip-path="url(#p485c099c33)" style="fill: #1f77b4"/>
   </g>
   <g id="patch_89">
    <path d="M 206.576638 273.312 
L 208.194653 273.312 
L 208.194653 169.175762 
L 206.576638 169.175762 
z
" clip-path="url(#p485c099c33)" style="fill: #1f77b4"/>
   </g>
   <g id="patch_90">
    <path d="M 208.194653 273.312 
L 209.812668 273.312 
L 209.812668 164.157149 
L 208.194653 164.157149 
z
" clip-path="url(#p485c099c33)" style="fill: #1f77b4"/>
   </g>
   <g id="patch_91">
    <path d="M 209.812668 273.312 
L 211.430684 273.312 
L 211.430684 144.082693 
L 209.812668 144.082693 
z
" clip-path="url(#p485c099c33)" style="fill: #1f77b4"/>
   </g>
   <g id="patch_92">
    <path d="M 211.430684 273.312 
L 213.048699 273.312 
L 213.048699 163.529822 
L 211.430684 163.529822 
z
" clip-path="url(#p485c099c33)" style="fill: #1f77b4"/>
   </g>
   <g id="patch_93">
    <path d="M 213.048699 273.312 
L 214.666714 273.312 
L 214.666714 161.647842 
L 213.048699 161.647842 
z
" clip-path="url(#p485c099c33)" style="fill: #1f77b4"/>
   </g>
   <g id="patch_94">
    <path d="M 214.666714 273.312 
L 216.284729 273.312 
L 216.284729 165.411802 
L 214.666714 165.411802 
z
" clip-path="url(#p485c099c33)" style="fill: #1f77b4"/>
   </g>
   <g id="patch_95">
    <path d="M 216.284729 273.312 
L 217.902745 273.312 
L 217.902745 162.902495 
L 216.284729 162.902495 
z
" clip-path="url(#p485c099c33)" style="fill: #1f77b4"/>
   </g>
   <g id="patch_96">
    <path d="M 217.902745 273.312 
L 219.52076 273.312 
L 219.52076 168.548436 
L 217.902745 168.548436 
z
" clip-path="url(#p485c099c33)" style="fill: #1f77b4"/>
   </g>
   <g id="patch_97">
    <path d="M 219.52076 273.312 
L 221.138775 273.312 
L 221.138775 157.883881 
L 219.52076 157.883881 
z
" clip-path="url(#p485c099c33)" style="fill: #1f77b4"/>
   </g>
   <g id="patch_98">
    <path d="M 221.138775 273.312 
L 222.756791 273.312 
L 222.756791 153.492594 
L 221.138775 153.492594 
z
" clip-path="url(#p485c099c33)" style="fill: #1f77b4"/>
   </g>
   <g id="patch_99">
    <path d="M 222.756791 273.312 
L 224.374806 273.312 
L 224.374806 146.592 
L 222.756791 146.592 
z
" clip-path="url(#p485c099c33)" style="fill: #1f77b4"/>
   </g>
   <g id="patch_100">
    <path d="M 224.374806 273.312 
L 225.992821 273.312 
L 225.992821 154.119921 
L 224.374806 154.119921 
z
" clip-path="url(#p485c099c33)" style="fill: #1f77b4"/>
   </g>
   <g id="patch_101">
    <path d="M 225.992821 273.312 
L 227.610836 273.312 
L 227.610836 143.455366 
L 225.992821 143.455366 
z
" clip-path="url(#p485c099c33)" style="fill: #1f77b4"/>
   </g>
   <g id="patch_102">
    <path d="M 227.610836 273.312 
L 229.228852 273.312 
L 229.228852 144.71002 
L 227.610836 144.71002 
z
" clip-path="url(#p485c099c33)" style="fill: #1f77b4"/>
   </g>
   <g id="patch_103">
    <path d="M 229.228852 273.312 
L 230.846867 273.312 
L 230.846867 149.728634 
L 229.228852 149.728634 
z
" clip-path="url(#p485c099c33)" style="fill: #1f77b4"/>
   </g>
   <g id="patch_104">
    <path d="M 230.846867 273.312 
L 232.464882 273.312 
L 232.464882 154.747248 
L 230.846867 154.747248 
z
" clip-path="url(#p485c099c33)" style="fill: #1f77b4"/>
   </g>
   <g id="patch_105">
    <path d="M 232.464882 273.312 
L 234.082897 273.312 
L 234.082897 151.610614 
L 232.464882 151.610614 
z
" clip-path="url(#p485c099c33)" style="fill: #1f77b4"/>
   </g>
   <g id="patch_106">
    <path d="M 234.082897 273.312 
L 235.700913 273.312 
L 235.700913 160.393188 
L 234.082897 160.393188 
z
" clip-path="url(#p485c099c33)" style="fill: #1f77b4"/>
   </g>
   <g id="patch_107">
    <path d="M 235.700913 273.312 
L 237.318928 273.312 
L 237.318928 135.300119 
L 235.700913 135.300119 
z
" clip-path="url(#p485c099c33)" style="fill: #1f77b4"/>
   </g>
   <g id="patch_108">
    <path d="M 237.318928 273.312 
L 238.936943 273.312 
L 238.936943 125.262891 
L 237.318928 125.262891 
z
" clip-path="url(#p485c099c33)" style="fill: #1f77b4"/>
   </g>
   <g id="patch_109">
    <path d="M 238.936943 273.312 
L 240.554959 273.312 
L 240.554959 124.008238 
L 238.936943 124.008238 
z
" clip-path="url(#p485c099c33)" style="fill: #1f77b4"/>
   </g>
   <g id="patch_110">
    <path d="M 240.554959 273.312 
L 242.172974 273.312 
L 242.172974 142.200713 
L 240.554959 142.200713 
z
" clip-path="url(#p485c099c33)" style="fill: #1f77b4"/>
   </g>
   <g id="patch_111">
    <path d="M 242.172974 273.312 
L 243.790989 273.312 
L 243.790989 130.281505 
L 242.172974 130.281505 
z
" clip-path="url(#p485c099c33)" style="fill: #1f77b4"/>
   </g>
   <g id="patch_112">
    <path d="M 243.790989 273.312 
L 245.409004 273.312 
L 245.409004 129.654178 
L 243.790989 129.654178 
z
" clip-path="url(#p485c099c33)" style="fill: #1f77b4"/>
   </g>
   <g id="patch_113">
    <path d="M 245.409004 273.312 
L 247.02702 273.312 
L 247.02702 144.71002 
L 245.409004 144.71002 
z
" clip-path="url(#p485c099c33)" style="fill: #1f77b4"/>
   </g>
   <g id="patch_114">
    <path d="M 247.02702 273.312 
L 248.645035 273.312 
L 248.645035 112.08903 
L 247.02702 112.08903 
z
" clip-path="url(#p485c099c33)" style="fill: #1f77b4"/>
   </g>
   <g id="patch_115">
    <path d="M 248.645035 273.312 
L 250.26305 273.312 
L 250.26305 127.144871 
L 248.645035 127.144871 
z
" clip-path="url(#p485c099c33)" style="fill: #1f77b4"/>
   </g>
   <g id="patch_116">
    <path d="M 250.26305 273.312 
L 251.881066 273.312 
L 251.881066 128.399525 
L 250.26305 128.399525 
z
" clip-path="url(#p485c099c33)" style="fill: #1f77b4"/>
   </g>
   <g id="patch_117">
    <path d="M 251.881066 273.312 
L 253.499081 273.312 
L 253.499081 135.300119 
L 251.881066 135.300119 
z
" clip-path="url(#p485c099c33)" style="fill: #1f77b4"/>
   </g>
   <g id="patch_118">
    <path d="M 253.499081 273.312 
L 255.117096 273.312 
L 255.117096 130.908832 
L 253.499081 130.908832 
z
" clip-path="url(#p485c099c33)" style="fill: #1f77b4"/>
   </g>
   <g id="patch_119">
    <path d="M 255.117096 273.312 
L 256.735111 273.312 
L 256.735111 134.045465 
L 255.117096 134.045465 
z
" clip-path="url(#p485c099c33)" style="fill: #1f77b4"/>
   </g>
   <g id="patch_120">
    <path d="M 256.735111 273.312 
L 258.353127 273.312 
L 258.353127 127.144871 
L 256.735111 127.144871 
z
" clip-path="url(#p485c099c33)" style="fill: #1f77b4"/>
   </g>
   <g id="patch_121">
    <path d="M 258.353127 273.312 
L 259.971142 273.312 
L 259.971142 122.753584 
L 258.353127 122.753584 
z
" clip-path="url(#p485c099c33)" style="fill: #1f77b4"/>
   </g>
   <g id="patch_122">
    <path d="M 259.971142 273.312 
L 261.589157 273.312 
L 261.589157 132.790812 
L 259.971142 132.790812 
z
" clip-path="url(#p485c099c33)" style="fill: #1f77b4"/>
   </g>
   <g id="patch_123">
    <path d="M 261.589157 273.312 
L 263.207172 273.312 
L 263.207172 126.517545 
L 261.589157 126.517545 
z
" clip-path="url(#p485c099c33)" style="fill: #1f77b4"/>
   </g>
   <g id="patch_124">
    <path d="M 263.207172 273.312 
L 264.825188 273.312 
L 264.825188 118.989624 
L 263.207172 118.989624 
z
" clip-path="url(#p485c099c33)" style="fill: #1f77b4"/>
   </g>
   <g id="patch_125">
    <path d="M 264.825188 273.312 
L 266.443203 273.312 
L 266.443203 124.635564 
L 264.825188 124.635564 
z
" clip-path="url(#p485c099c33)" style="fill: #1f77b4"/>
   </g>
   <g id="patch_126">
    <path d="M 266.443203 273.312 
L 268.061218 273.312 
L 268.061218 130.908832 
L 266.443203 130.908832 
z
" clip-path="url(#p485c099c33)" style="fill: #1f77b4"/>
   </g>
   <g id="patch_127">
    <path d="M 268.061218 273.312 
L 269.679234 273.312 
L 269.679234 95.151208 
L 268.061218 95.151208 
z
" clip-path="url(#p485c099c33)" style="fill: #1f77b4"/>
   </g>
   <g id="patch_128">
    <path d="M 269.679234 273.312 
L 271.297249 273.312 
L 271.297249 110.834376 
L 269.679234 110.834376 
z
" clip-path="url(#p485c099c33)" style="fill: #1f77b4"/>
   </g>
   <g id="patch_129">
    <path d="M 271.297249 273.312 
L 272.915264 273.312 
L 272.915264 130.908832 
L 271.297249 130.908832 
z
" clip-path="url(#p485c099c33)" style="fill: #1f77b4"/>
   </g>
   <g id="patch_130">
    <path d="M 272.915264 273.312 
L 274.533279 273.312 
L 274.533279 115.225663 
L 272.915264 115.225663 
z
" clip-path="url(#p485c099c33)" style="fill: #1f77b4"/>
   </g>
   <g id="patch_131">
    <path d="M 274.533279 273.312 
L 276.151295 273.312 
L 276.151295 132.163485 
L 274.533279 132.163485 
z
" clip-path="url(#p485c099c33)" style="fill: #1f77b4"/>
   </g>
   <g id="patch_132">
    <path d="M 276.151295 273.312 
L 277.76931 273.312 
L 277.76931 103.933782 
L 276.151295 103.933782 
z
" clip-path="url(#p485c099c33)" style="fill: #1f77b4"/>
   </g>
   <g id="patch_133">
    <path d="M 277.76931 273.312 
L 279.387325 273.312 
L 279.387325 108.952396 
L 277.76931 108.952396 
z
" clip-path="url(#p485c099c33)" style="fill: #1f77b4"/>
   </g>
   <g id="patch_134">
    <path d="M 279.387325 273.312 
L 281.00534 273.312 
L 281.00534 110.20705 
L 279.387325 110.20705 
z
" clip-path="url(#p485c099c33)" style="fill: #1f77b4"/>
   </g>
   <g id="patch_135">
    <path d="M 281.00534 273.312 
L 282.623356 273.312 
L 282.623356 110.20705 
L 281.00534 110.20705 
z
" clip-path="url(#p485c099c33)" style="fill: #1f77b4"/>
   </g>
   <g id="patch_136">
    <path d="M 282.623356 273.312 
L 284.241371 273.312 
L 284.241371 93.269228 
L 282.623356 93.269228 
z
" clip-path="url(#p485c099c33)" style="fill: #1f77b4"/>
   </g>
   <g id="patch_137">
    <path d="M 284.241371 273.312 
L 285.859386 273.312 
L 285.859386 105.188436 
L 284.241371 105.188436 
z
" clip-path="url(#p485c099c33)" style="fill: #1f77b4"/>
   </g>
   <g id="patch_138">
    <path d="M 285.859386 273.312 
L 287.477402 273.312 
L 287.477402 104.561109 
L 285.859386 104.561109 
z
" clip-path="url(#p485c099c33)" style="fill: #1f77b4"/>
   </g>
   <g id="patch_139">
    <path d="M 287.477402 273.312 
L 289.095417 273.312 
L 289.095417 103.933782 
L 287.477402 103.933782 
z
" clip-path="url(#p485c099c33)" style="fill: #1f77b4"/>
   </g>
   <g id="patch_140">
    <path d="M 289.095417 273.312 
L 290.713432 273.312 
L 290.713432 100.797149 
L 289.095417 100.797149 
z
" clip-path="url(#p485c099c33)" style="fill: #1f77b4"/>
   </g>
   <g id="patch_141">
    <path d="M 290.713432 273.312 
L 292.331447 273.312 
L 292.331447 94.523881 
L 290.713432 94.523881 
z
" clip-path="url(#p485c099c33)" style="fill: #1f77b4"/>
   </g>
   <g id="patch_142">
    <path d="M 292.331447 273.312 
L 293.949463 273.312 
L 293.949463 97.660515 
L 292.331447 97.660515 
z
" clip-path="url(#p485c099c33)" style="fill: #1f77b4"/>
   </g>
   <g id="patch_143">
    <path d="M 293.949463 273.312 
L 295.567478 273.312 
L 295.567478 97.660515 
L 293.949463 97.660515 
z
" clip-path="url(#p485c099c33)" style="fill: #1f77b4"/>
   </g>
   <g id="patch_144">
    <path d="M 295.567478 273.312 
L 297.185493 273.312 
L 297.185493 85.11398 
L 295.567478 85.11398 
z
" clip-path="url(#p485c099c33)" style="fill: #1f77b4"/>
   </g>
   <g id="patch_145">
    <path d="M 297.185493 273.312 
L 298.803508 273.312 
L 298.803508 103.306455 
L 297.185493 103.306455 
z
" clip-path="url(#p485c099c33)" style="fill: #1f77b4"/>
   </g>
   <g id="patch_146">
    <path d="M 298.803508 273.312 
L 300.421524 273.312 
L 300.421524 75.076752 
L 298.803508 75.076752 
z
" clip-path="url(#p485c099c33)" style="fill: #1f77b4"/>
   </g>
   <g id="patch_147">
    <path d="M 300.421524 273.312 
L 302.039539 273.312 
L 302.039539 98.287842 
L 300.421524 98.287842 
z
" clip-path="url(#p485c099c33)" style="fill: #1f77b4"/>
   </g>
   <g id="patch_148">
    <path d="M 302.039539 273.312 
L 303.657554 273.312 
L 303.657554 95.151208 
L 302.039539 95.151208 
z
" clip-path="url(#p485c099c33)" style="fill: #1f77b4"/>
   </g>
   <g id="patch_149">
    <path d="M 303.657554 273.312 
L 305.27557 273.312 
L 305.27557 73.822099 
L 303.657554 73.822099 
z
" clip-path="url(#p485c099c33)" style="fill: #1f77b4"/>
   </g>
   <g id="patch_150">
    <path d="M 305.27557 273.312 
L 306.893585 273.312 
L 306.893585 79.46804 
L 305.27557 79.46804 
z
" clip-path="url(#p485c099c33)" style="fill: #1f77b4"/>
   </g>
   <g id="patch_151">
    <path d="M 306.893585 273.312 
L 308.5116 273.312 
L 308.5116 92.641901 
L 306.893585 92.641901 
z
" clip-path="url(#p485c099c33)" style="fill: #1f77b4"/>
   </g>
   <g id="patch_152">
    <path d="M 308.5116 273.312 
L 310.129615 273.312 
L 310.129615 98.915168 
L 308.5116 98.915168 
z
" clip-path="url(#p485c099c33)" style="fill: #1f77b4"/>
   </g>
   <g id="patch_153">
    <path d="M 310.129615 273.312 
L 311.747631 273.312 
L 311.747631 64.412198 
L 310.129615 64.412198 
z
" clip-path="url(#p485c099c33)" style="fill: #1f77b4"/>
   </g>
   <g id="patch_154">
    <path d="M 311.747631 273.312 
L 313.365646 273.312 
L 313.365646 76.331406 
L 311.747631 76.331406 
z
" clip-path="url(#p485c099c33)" style="fill: #1f77b4"/>
   </g>
   <g id="patch_155">
    <path d="M 313.365646 273.312 
L 314.983661 273.312 
L 314.983661 85.11398 
L 313.365646 85.11398 
z
" clip-path="url(#p485c099c33)" style="fill: #1f77b4"/>
   </g>
   <g id="patch_156">
    <path d="M 314.983661 273.312 
L 316.601677 273.312 
L 316.601677 70.058139 
L 314.983661 70.058139 
z
" clip-path="url(#p485c099c33)" style="fill: #1f77b4"/>
   </g>
   <g id="patch_157">
    <path d="M 316.601677 273.312 
L 318.219692 273.312 
L 318.219692 60.648238 
L 316.601677 60.648238 
z
" clip-path="url(#p485c099c33)" style="fill: #1f77b4"/>
   </g>
   <g id="patch_158">
    <path d="M 318.219692 273.312 
L 319.837707 273.312 
L 319.837707 76.331406 
L 318.219692 76.331406 
z
" clip-path="url(#p485c099c33)" style="fill: #1f77b4"/>
   </g>
   <g id="patch_159">
    <path d="M 319.837707 273.312 
L 321.455722 273.312 
L 321.455722 90.759921 
L 319.837707 90.759921 
z
" clip-path="url(#p485c099c33)" style="fill: #1f77b4"/>
   </g>
   <g id="patch_160">
    <path d="M 321.455722 273.312 
L 323.073738 273.312 
L 323.073738 53.120317 
L 321.455722 53.120317 
z
" clip-path="url(#p485c099c33)" style="fill: #1f77b4"/>
   </g>
   <g id="patch_161">
    <path d="M 323.073738 273.312 
L 324.691753 273.312 
L 324.691753 68.176158 
L 323.073738 68.176158 
z
" clip-path="url(#p485c099c33)" style="fill: #1f77b4"/>
   </g>
   <g id="patch_162">
    <path d="M 324.691753 273.312 
L 326.309768 273.312 
L 326.309768 72.567446 
L 324.691753 72.567446 
z
" clip-path="url(#p485c099c33)" style="fill: #1f77b4"/>
   </g>
   <g id="patch_163">
    <path d="M 326.309768 273.312 
L 327.927783 273.312 
L 327.927783 75.076752 
L 326.309768 75.076752 
z
" clip-path="url(#p485c099c33)" style="fill: #1f77b4"/>
   </g>
   <g id="patch_164">
    <path d="M 327.927783 273.312 
L 329.545799 273.312 
L 329.545799 66.921505 
L 327.927783 66.921505 
z
" clip-path="url(#p485c099c33)" style="fill: #1f77b4"/>
   </g>
   <g id="patch_165">
    <path d="M 329.545799 273.312 
L 331.163814 273.312 
L 331.163814 74.449426 
L 329.545799 74.449426 
z
" clip-path="url(#p485c099c33)" style="fill: #1f77b4"/>
   </g>
   <g id="patch_166">
    <path d="M 331.163814 273.312 
L 332.781829 273.312 
L 332.781829 79.46804 
L 331.163814 79.46804 
z
" clip-path="url(#p485c099c33)" style="fill: #1f77b4"/>
   </g>
   <g id="patch_167">
    <path d="M 332.781829 273.312 
L 334.399845 273.312 
L 334.399845 75.076752 
L 332.781829 75.076752 
z
" clip-path="url(#p485c099c33)" style="fill: #1f77b4"/>
   </g>
   <g id="patch_168">
    <path d="M 334.399845 273.312 
L 336.01786 273.312 
L 336.01786 71.940119 
L 334.399845 71.940119 
z
" clip-path="url(#p485c099c33)" style="fill: #1f77b4"/>
   </g>
   <g id="patch_169">
    <path d="M 336.01786 273.312 
L 337.635875 273.312 
L 337.635875 68.176158 
L 336.01786 68.176158 
z
" clip-path="url(#p485c099c33)" style="fill: #1f77b4"/>
   </g>
   <g id="patch_170">
    <path d="M 337.635875 273.312 
L 339.25389 273.312 
L 339.25389 69.430812 
L 337.635875 69.430812 
z
" clip-path="url(#p485c099c33)" style="fill: #1f77b4"/>
   </g>
   <g id="patch_171">
    <path d="M 339.25389 273.312 
L 340.871906 273.312 
L 340.871906 68.176158 
L 339.25389 68.176158 
z
" clip-path="url(#p485c099c33)" style="fill: #1f77b4"/>
   </g>
   <g id="patch_172">
    <path d="M 340.871906 273.312 
L 342.489921 273.312 
L 342.489921 70.058139 
L 340.871906 70.058139 
z
" clip-path="url(#p485c099c33)" style="fill: #1f77b4"/>
   </g>
   <g id="patch_173">
    <path d="M 342.489921 273.312 
L 344.107936 273.312 
L 344.107936 70.685465 
L 342.489921 70.685465 
z
" clip-path="url(#p485c099c33)" style="fill: #1f77b4"/>
   </g>
   <g id="patch_174">
    <path d="M 344.107936 273.312 
L 345.725951 273.312 
L 345.725951 49.356356 
L 344.107936 49.356356 
z
" clip-path="url(#p485c099c33)" style="fill: #1f77b4"/>
   </g>
   <g id="patch_175">
    <path d="M 345.725951 273.312 
L 347.343967 273.312 
L 347.343967 68.176158 
L 345.725951 68.176158 
z
" clip-path="url(#p485c099c33)" style="fill: #1f77b4"/>
   </g>
   <g id="patch_176">
    <path d="M 347.343967 273.312 
L 348.961982 273.312 
L 348.961982 46.219723 
L 347.343967 46.219723 
z
" clip-path="url(#p485c099c33)" style="fill: #1f77b4"/>
   </g>
   <g id="patch_177">
    <path d="M 348.961982 273.312 
L 350.579997 273.312 
L 350.579997 38.691802 
L 348.961982 38.691802 
z
" clip-path="url(#p485c099c33)" style="fill: #1f77b4"/>
   </g>
   <g id="patch_178">
    <path d="M 350.579997 273.312 
L 352.198013 273.312 
L 352.198013 65.039525 
L 350.579997 65.039525 
z
" clip-path="url(#p485c099c33)" style="fill: #1f77b4"/>
   </g>
   <g id="patch_179">
    <path d="M 352.198013 273.312 
L 353.816028 273.312 
L 353.816028 71.312792 
L 352.198013 71.312792 
z
" clip-path="url(#p485c099c33)" style="fill: #1f77b4"/>
   </g>
   <g id="patch_180">
    <path d="M 353.816028 273.312 
L 355.434043 273.312 
L 355.434043 24.263287 
L 353.816028 24.263287 
z
" clip-path="url(#p485c099c33)" style="fill: #1f77b4"/>
   </g>
   <g id="patch_181">
    <path d="M 355.434043 273.312 
L 357.052058 273.312 
L 357.052058 53.120317 
L 355.434043 53.120317 
z
" clip-path="url(#p485c099c33)" style="fill: #1f77b4"/>
   </g>
   <g id="patch_182">
    <path d="M 357.052058 273.312 
L 358.670074 273.312 
L 358.670074 56.25695 
L 357.052058 56.25695 
z
" clip-path="url(#p485c099c33)" style="fill: #1f77b4"/>
   </g>
   <g id="patch_183">
    <path d="M 358.670074 273.312 
L 360.288089 273.312 
L 360.288089 41.828436 
L 358.670074 41.828436 
z
" clip-path="url(#p485c099c33)" style="fill: #1f77b4"/>
   </g>
   <g id="patch_184">
    <path d="M 360.288089 273.312 
L 361.906104 273.312 
L 361.906104 31.791208 
L 360.288089 31.791208 
z
" clip-path="url(#p485c099c33)" style="fill: #1f77b4"/>
   </g>
   <g id="patch_185">
    <path d="M 361.906104 273.312 
L 363.524119 273.312 
L 363.524119 36.809822 
L 361.906104 36.809822 
z
" clip-path="url(#p485c099c33)" style="fill: #1f77b4"/>
   </g>
   <g id="patch_186">
    <path d="M 363.524119 273.312 
L 365.142135 273.312 
L 365.142135 42.455762 
L 363.524119 42.455762 
z
" clip-path="url(#p485c099c33)" style="fill: #1f77b4"/>
   </g>
   <g id="patch_187">
    <path d="M 365.142135 273.312 
L 366.76015 273.312 
L 366.76015 34.927842 
L 365.142135 34.927842 
z
" clip-path="url(#p485c099c33)" style="fill: #1f77b4"/>
   </g>
   <g id="patch_188">
    <path d="M 366.76015 273.312 
L 368.378165 273.312 
L 368.378165 75.076752 
L 366.76015 75.076752 
z
" clip-path="url(#p485c099c33)" style="fill: #1f77b4"/>
   </g>
   <g id="patch_189">
    <path d="M 368.378165 273.312 
L 369.996181 273.312 
L 369.996181 48.72903 
L 368.378165 48.72903 
z
" clip-path="url(#p485c099c33)" style="fill: #1f77b4"/>
   </g>
   <g id="patch_190">
    <path d="M 369.996181 273.312 
L 371.614196 273.312 
L 371.614196 24.263287 
L 369.996181 24.263287 
z
" clip-path="url(#p485c099c33)" style="fill: #1f77b4"/>
   </g>
   <g id="patch_191">
    <path d="M 371.614196 273.312 
L 373.232211 273.312 
L 373.232211 25.517941 
L 371.614196 25.517941 
z
" clip-path="url(#p485c099c33)" style="fill: #1f77b4"/>
   </g>
   <g id="patch_192">
    <path d="M 373.232211 273.312 
L 374.850226 273.312 
L 374.850226 36.809822 
L 373.232211 36.809822 
z
" clip-path="url(#p485c099c33)" style="fill: #1f77b4"/>
   </g>
   <g id="patch_193">
    <path d="M 374.850226 273.312 
L 376.468242 273.312 
L 376.468242 34.300515 
L 374.850226 34.300515 
z
" clip-path="url(#p485c099c33)" style="fill: #1f77b4"/>
   </g>
   <g id="patch_194">
    <path d="M 376.468242 273.312 
L 378.086257 273.312 
L 378.086257 47.474376 
L 376.468242 47.474376 
z
" clip-path="url(#p485c099c33)" style="fill: #1f77b4"/>
   </g>
   <g id="patch_195">
    <path d="M 378.086257 273.312 
L 379.704272 273.312 
L 379.704272 49.356356 
L 378.086257 49.356356 
z
" clip-path="url(#p485c099c33)" style="fill: #1f77b4"/>
   </g>
   <g id="patch_196">
    <path d="M 379.704272 273.312 
L 381.322288 273.312 
L 381.322288 24.263287 
L 379.704272 24.263287 
z
" clip-path="url(#p485c099c33)" style="fill: #1f77b4"/>
   </g>
   <g id="patch_197">
    <path d="M 381.322288 273.312 
L 382.940303 273.312 
L 382.940303 19.872 
L 381.322288 19.872 
z
" clip-path="url(#p485c099c33)" style="fill: #1f77b4"/>
   </g>
   <g id="patch_198">
    <path d="M 382.940303 273.312 
L 384.558318 273.312 
L 384.558318 31.163881 
L 382.940303 31.163881 
z
" clip-path="url(#p485c099c33)" style="fill: #1f77b4"/>
   </g>
   <g id="patch_199">
    <path d="M 384.558318 273.312 
L 386.176333 273.312 
L 386.176333 29.909228 
L 384.558318 29.909228 
z
" clip-path="url(#p485c099c33)" style="fill: #1f77b4"/>
   </g>
   <g id="patch_200">
    <path d="M 386.176333 273.312 
L 387.794349 273.312 
L 387.794349 38.691802 
L 386.176333 38.691802 
z
" clip-path="url(#p485c099c33)" style="fill: #1f77b4"/>
   </g>
   <g id="patch_201">
    <path d="M 387.794349 273.312 
L 389.412364 273.312 
L 389.412364 27.399921 
L 387.794349 27.399921 
z
" clip-path="url(#p485c099c33)" style="fill: #1f77b4"/>
   </g>
   <g id="patch_202">
    <path d="M 389.412364 273.312 
L 391.030379 273.312 
L 391.030379 23.63596 
L 389.412364 23.63596 
z
" clip-path="url(#p485c099c33)" style="fill: #1f77b4"/>
   </g>
   <g id="matplotlib.axis_1">
    <g id="xtick_1">
     <g id="line2d_1">
      <defs>
       <path id="m194c315c2e" d="M 0 0 
L 0 3.5 
" style="stroke: #000000; stroke-width: 0.8"/>
      </defs>
      <g>
       <use xlink:href="#m194c315c2e" x="66.376477" y="273.312" style="stroke: #000000; stroke-width: 0.8"/>
      </g>
     </g>
     <g id="text_1">
      <!-- 0.0 -->
      <g transform="translate(58.424915 287.910437)scale(0.1 -0.1)">
       <defs>
        <path id="DejaVuSans-30" d="M 2034 4250 
Q 1547 4250 1301 3770 
Q 1056 3291 1056 2328 
Q 1056 1369 1301 889 
Q 1547 409 2034 409 
Q 2525 409 2770 889 
Q 3016 1369 3016 2328 
Q 3016 3291 2770 3770 
Q 2525 4250 2034 4250 
z
M 2034 4750 
Q 2819 4750 3233 4129 
Q 3647 3509 3647 2328 
Q 3647 1150 3233 529 
Q 2819 -91 2034 -91 
Q 1250 -91 836 529 
Q 422 1150 422 2328 
Q 422 3509 836 4129 
Q 1250 4750 2034 4750 
z
" transform="scale(0.015625)"/>
        <path id="DejaVuSans-2e" d="M 684 794 
L 1344 794 
L 1344 0 
L 684 0 
L 684 794 
z
" transform="scale(0.015625)"/>
       </defs>
       <use xlink:href="#DejaVuSans-30"/>
       <use xlink:href="#DejaVuSans-2e" x="63.623047"/>
       <use xlink:href="#DejaVuSans-30" x="95.410156"/>
      </g>
     </g>
    </g>
    <g id="xtick_2">
     <g id="line2d_2">
      <g>
       <use xlink:href="#m194c315c2e" x="131.307386" y="273.312" style="stroke: #000000; stroke-width: 0.8"/>
      </g>
     </g>
     <g id="text_2">
      <!-- 0.2 -->
      <g transform="translate(123.355824 287.910437)scale(0.1 -0.1)">
       <defs>
        <path id="DejaVuSans-32" d="M 1228 531 
L 3431 531 
L 3431 0 
L 469 0 
L 469 531 
Q 828 903 1448 1529 
Q 2069 2156 2228 2338 
Q 2531 2678 2651 2914 
Q 2772 3150 2772 3378 
Q 2772 3750 2511 3984 
Q 2250 4219 1831 4219 
Q 1534 4219 1204 4116 
Q 875 4013 500 3803 
L 500 4441 
Q 881 4594 1212 4672 
Q 1544 4750 1819 4750 
Q 2544 4750 2975 4387 
Q 3406 4025 3406 3419 
Q 3406 3131 3298 2873 
Q 3191 2616 2906 2266 
Q 2828 2175 2409 1742 
Q 1991 1309 1228 531 
z
" transform="scale(0.015625)"/>
       </defs>
       <use xlink:href="#DejaVuSans-30"/>
       <use xlink:href="#DejaVuSans-2e" x="63.623047"/>
       <use xlink:href="#DejaVuSans-32" x="95.410156"/>
      </g>
     </g>
    </g>
    <g id="xtick_3">
     <g id="line2d_3">
      <g>
       <use xlink:href="#m194c315c2e" x="196.238295" y="273.312" style="stroke: #000000; stroke-width: 0.8"/>
      </g>
     </g>
     <g id="text_3">
      <!-- 0.4 -->
      <g transform="translate(188.286733 287.910437)scale(0.1 -0.1)">
       <defs>
        <path id="DejaVuSans-34" d="M 2419 4116 
L 825 1625 
L 2419 1625 
L 2419 4116 
z
M 2253 4666 
L 3047 4666 
L 3047 1625 
L 3713 1625 
L 3713 1100 
L 3047 1100 
L 3047 0 
L 2419 0 
L 2419 1100 
L 313 1100 
L 313 1709 
L 2253 4666 
z
" transform="scale(0.015625)"/>
       </defs>
       <use xlink:href="#DejaVuSans-30"/>
       <use xlink:href="#DejaVuSans-2e" x="63.623047"/>
       <use xlink:href="#DejaVuSans-34" x="95.410156"/>
      </g>
     </g>
    </g>
    <g id="xtick_4">
     <g id="line2d_4">
      <g>
       <use xlink:href="#m194c315c2e" x="261.169205" y="273.312" style="stroke: #000000; stroke-width: 0.8"/>
      </g>
     </g>
     <g id="text_4">
      <!-- 0.6 -->
      <g transform="translate(253.217642 287.910437)scale(0.1 -0.1)">
       <defs>
        <path id="DejaVuSans-36" d="M 2113 2584 
Q 1688 2584 1439 2293 
Q 1191 2003 1191 1497 
Q 1191 994 1439 701 
Q 1688 409 2113 409 
Q 2538 409 2786 701 
Q 3034 994 3034 1497 
Q 3034 2003 2786 2293 
Q 2538 2584 2113 2584 
z
M 3366 4563 
L 3366 3988 
Q 3128 4100 2886 4159 
Q 2644 4219 2406 4219 
Q 1781 4219 1451 3797 
Q 1122 3375 1075 2522 
Q 1259 2794 1537 2939 
Q 1816 3084 2150 3084 
Q 2853 3084 3261 2657 
Q 3669 2231 3669 1497 
Q 3669 778 3244 343 
Q 2819 -91 2113 -91 
Q 1303 -91 875 529 
Q 447 1150 447 2328 
Q 447 3434 972 4092 
Q 1497 4750 2381 4750 
Q 2619 4750 2861 4703 
Q 3103 4656 3366 4563 
z
" transform="scale(0.015625)"/>
       </defs>
       <use xlink:href="#DejaVuSans-30"/>
       <use xlink:href="#DejaVuSans-2e" x="63.623047"/>
       <use xlink:href="#DejaVuSans-36" x="95.410156"/>
      </g>
     </g>
    </g>
    <g id="xtick_5">
     <g id="line2d_5">
      <g>
       <use xlink:href="#m194c315c2e" x="326.100114" y="273.312" style="stroke: #000000; stroke-width: 0.8"/>
      </g>
     </g>
     <g id="text_5">
      <!-- 0.8 -->
      <g transform="translate(318.148551 287.910437)scale(0.1 -0.1)">
       <defs>
        <path id="DejaVuSans-38" d="M 2034 2216 
Q 1584 2216 1326 1975 
Q 1069 1734 1069 1313 
Q 1069 891 1326 650 
Q 1584 409 2034 409 
Q 2484 409 2743 651 
Q 3003 894 3003 1313 
Q 3003 1734 2745 1975 
Q 2488 2216 2034 2216 
z
M 1403 2484 
Q 997 2584 770 2862 
Q 544 3141 544 3541 
Q 544 4100 942 4425 
Q 1341 4750 2034 4750 
Q 2731 4750 3128 4425 
Q 3525 4100 3525 3541 
Q 3525 3141 3298 2862 
Q 3072 2584 2669 2484 
Q 3125 2378 3379 2068 
Q 3634 1759 3634 1313 
Q 3634 634 3220 271 
Q 2806 -91 2034 -91 
Q 1263 -91 848 271 
Q 434 634 434 1313 
Q 434 1759 690 2068 
Q 947 2378 1403 2484 
z
M 1172 3481 
Q 1172 3119 1398 2916 
Q 1625 2713 2034 2713 
Q 2441 2713 2670 2916 
Q 2900 3119 2900 3481 
Q 2900 3844 2670 4047 
Q 2441 4250 2034 4250 
Q 1625 4250 1398 4047 
Q 1172 3844 1172 3481 
z
" transform="scale(0.015625)"/>
       </defs>
       <use xlink:href="#DejaVuSans-30"/>
       <use xlink:href="#DejaVuSans-2e" x="63.623047"/>
       <use xlink:href="#DejaVuSans-38" x="95.410156"/>
      </g>
     </g>
    </g>
    <g id="xtick_6">
     <g id="line2d_6">
      <g>
       <use xlink:href="#m194c315c2e" x="391.031023" y="273.312" style="stroke: #000000; stroke-width: 0.8"/>
      </g>
     </g>
     <g id="text_6">
      <!-- 1.0 -->
      <g transform="translate(383.07946 287.910437)scale(0.1 -0.1)">
       <defs>
        <path id="DejaVuSans-31" d="M 794 531 
L 1825 531 
L 1825 4091 
L 703 3866 
L 703 4441 
L 1819 4666 
L 2450 4666 
L 2450 531 
L 3481 531 
L 3481 0 
L 794 0 
L 794 531 
z
" transform="scale(0.015625)"/>
       </defs>
       <use xlink:href="#DejaVuSans-31"/>
       <use xlink:href="#DejaVuSans-2e" x="63.623047"/>
       <use xlink:href="#DejaVuSans-30" x="95.410156"/>
      </g>
     </g>
    </g>
    <g id="text_7">
     <!-- Propagation direction -->
     <g transform="translate(175.221719 301.588562)scale(0.1 -0.1)">
      <defs>
       <path id="DejaVuSans-50" d="M 1259 4147 
L 1259 2394 
L 2053 2394 
Q 2494 2394 2734 2622 
Q 2975 2850 2975 3272 
Q 2975 3691 2734 3919 
Q 2494 4147 2053 4147 
L 1259 4147 
z
M 628 4666 
L 2053 4666 
Q 2838 4666 3239 4311 
Q 3641 3956 3641 3272 
Q 3641 2581 3239 2228 
Q 2838 1875 2053 1875 
L 1259 1875 
L 1259 0 
L 628 0 
L 628 4666 
z
" transform="scale(0.015625)"/>
       <path id="DejaVuSans-72" d="M 2631 2963 
Q 2534 3019 2420 3045 
Q 2306 3072 2169 3072 
Q 1681 3072 1420 2755 
Q 1159 2438 1159 1844 
L 1159 0 
L 581 0 
L 581 3500 
L 1159 3500 
L 1159 2956 
Q 1341 3275 1631 3429 
Q 1922 3584 2338 3584 
Q 2397 3584 2469 3576 
Q 2541 3569 2628 3553 
L 2631 2963 
z
" transform="scale(0.015625)"/>
       <path id="DejaVuSans-6f" d="M 1959 3097 
Q 1497 3097 1228 2736 
Q 959 2375 959 1747 
Q 959 1119 1226 758 
Q 1494 397 1959 397 
Q 2419 397 2687 759 
Q 2956 1122 2956 1747 
Q 2956 2369 2687 2733 
Q 2419 3097 1959 3097 
z
M 1959 3584 
Q 2709 3584 3137 3096 
Q 3566 2609 3566 1747 
Q 3566 888 3137 398 
Q 2709 -91 1959 -91 
Q 1206 -91 779 398 
Q 353 888 353 1747 
Q 353 2609 779 3096 
Q 1206 3584 1959 3584 
z
" transform="scale(0.015625)"/>
       <path id="DejaVuSans-70" d="M 1159 525 
L 1159 -1331 
L 581 -1331 
L 581 3500 
L 1159 3500 
L 1159 2969 
Q 1341 3281 1617 3432 
Q 1894 3584 2278 3584 
Q 2916 3584 3314 3078 
Q 3713 2572 3713 1747 
Q 3713 922 3314 415 
Q 2916 -91 2278 -91 
Q 1894 -91 1617 61 
Q 1341 213 1159 525 
z
M 3116 1747 
Q 3116 2381 2855 2742 
Q 2594 3103 2138 3103 
Q 1681 3103 1420 2742 
Q 1159 2381 1159 1747 
Q 1159 1113 1420 752 
Q 1681 391 2138 391 
Q 2594 391 2855 752 
Q 3116 1113 3116 1747 
z
" transform="scale(0.015625)"/>
       <path id="DejaVuSans-61" d="M 2194 1759 
Q 1497 1759 1228 1600 
Q 959 1441 959 1056 
Q 959 750 1161 570 
Q 1363 391 1709 391 
Q 2188 391 2477 730 
Q 2766 1069 2766 1631 
L 2766 1759 
L 2194 1759 
z
M 3341 1997 
L 3341 0 
L 2766 0 
L 2766 531 
Q 2569 213 2275 61 
Q 1981 -91 1556 -91 
Q 1019 -91 701 211 
Q 384 513 384 1019 
Q 384 1609 779 1909 
Q 1175 2209 1959 2209 
L 2766 2209 
L 2766 2266 
Q 2766 2663 2505 2880 
Q 2244 3097 1772 3097 
Q 1472 3097 1187 3025 
Q 903 2953 641 2809 
L 641 3341 
Q 956 3463 1253 3523 
Q 1550 3584 1831 3584 
Q 2591 3584 2966 3190 
Q 3341 2797 3341 1997 
z
" transform="scale(0.015625)"/>
       <path id="DejaVuSans-67" d="M 2906 1791 
Q 2906 2416 2648 2759 
Q 2391 3103 1925 3103 
Q 1463 3103 1205 2759 
Q 947 2416 947 1791 
Q 947 1169 1205 825 
Q 1463 481 1925 481 
Q 2391 481 2648 825 
Q 2906 1169 2906 1791 
z
M 3481 434 
Q 3481 -459 3084 -895 
Q 2688 -1331 1869 -1331 
Q 1566 -1331 1297 -1286 
Q 1028 -1241 775 -1147 
L 775 -588 
Q 1028 -725 1275 -790 
Q 1522 -856 1778 -856 
Q 2344 -856 2625 -561 
Q 2906 -266 2906 331 
L 2906 616 
Q 2728 306 2450 153 
Q 2172 0 1784 0 
Q 1141 0 747 490 
Q 353 981 353 1791 
Q 353 2603 747 3093 
Q 1141 3584 1784 3584 
Q 2172 3584 2450 3431 
Q 2728 3278 2906 2969 
L 2906 3500 
L 3481 3500 
L 3481 434 
z
" transform="scale(0.015625)"/>
       <path id="DejaVuSans-74" d="M 1172 4494 
L 1172 3500 
L 2356 3500 
L 2356 3053 
L 1172 3053 
L 1172 1153 
Q 1172 725 1289 603 
Q 1406 481 1766 481 
L 2356 481 
L 2356 0 
L 1766 0 
Q 1100 0 847 248 
Q 594 497 594 1153 
L 594 3053 
L 172 3053 
L 172 3500 
L 594 3500 
L 594 4494 
L 1172 4494 
z
" transform="scale(0.015625)"/>
       <path id="DejaVuSans-69" d="M 603 3500 
L 1178 3500 
L 1178 0 
L 603 0 
L 603 3500 
z
M 603 4863 
L 1178 4863 
L 1178 4134 
L 603 4134 
L 603 4863 
z
" transform="scale(0.015625)"/>
       <path id="DejaVuSans-6e" d="M 3513 2113 
L 3513 0 
L 2938 0 
L 2938 2094 
Q 2938 2591 2744 2837 
Q 2550 3084 2163 3084 
Q 1697 3084 1428 2787 
Q 1159 2491 1159 1978 
L 1159 0 
L 581 0 
L 581 3500 
L 1159 3500 
L 1159 2956 
Q 1366 3272 1645 3428 
Q 1925 3584 2291 3584 
Q 2894 3584 3203 3211 
Q 3513 2838 3513 2113 
z
" transform="scale(0.015625)"/>
       <path id="DejaVuSans-20" transform="scale(0.015625)"/>
       <path id="DejaVuSans-64" d="M 2906 2969 
L 2906 4863 
L 3481 4863 
L 3481 0 
L 2906 0 
L 2906 525 
Q 2725 213 2448 61 
Q 2172 -91 1784 -91 
Q 1150 -91 751 415 
Q 353 922 353 1747 
Q 353 2572 751 3078 
Q 1150 3584 1784 3584 
Q 2172 3584 2448 3432 
Q 2725 3281 2906 2969 
z
M 947 1747 
Q 947 1113 1208 752 
Q 1469 391 1925 391 
Q 2381 391 2643 752 
Q 2906 1113 2906 1747 
Q 2906 2381 2643 2742 
Q 2381 3103 1925 3103 
Q 1469 3103 1208 2742 
Q 947 2381 947 1747 
z
" transform="scale(0.015625)"/>
       <path id="DejaVuSans-65" d="M 3597 1894 
L 3597 1613 
L 953 1613 
Q 991 1019 1311 708 
Q 1631 397 2203 397 
Q 2534 397 2845 478 
Q 3156 559 3463 722 
L 3463 178 
Q 3153 47 2828 -22 
Q 2503 -91 2169 -91 
Q 1331 -91 842 396 
Q 353 884 353 1716 
Q 353 2575 817 3079 
Q 1281 3584 2069 3584 
Q 2775 3584 3186 3129 
Q 3597 2675 3597 1894 
z
M 3022 2063 
Q 3016 2534 2758 2815 
Q 2500 3097 2075 3097 
Q 1594 3097 1305 2825 
Q 1016 2553 972 2059 
L 3022 2063 
z
" transform="scale(0.015625)"/>
       <path id="DejaVuSans-63" d="M 3122 3366 
L 3122 2828 
Q 2878 2963 2633 3030 
Q 2388 3097 2138 3097 
Q 1578 3097 1268 2742 
Q 959 2388 959 1747 
Q 959 1106 1268 751 
Q 1578 397 2138 397 
Q 2388 397 2633 464 
Q 2878 531 3122 666 
L 3122 134 
Q 2881 22 2623 -34 
Q 2366 -91 2075 -91 
Q 1284 -91 818 406 
Q 353 903 353 1747 
Q 353 2603 823 3093 
Q 1294 3584 2113 3584 
Q 2378 3584 2631 3529 
Q 2884 3475 3122 3366 
z
" transform="scale(0.015625)"/>
      </defs>
      <use xlink:href="#DejaVuSans-50"/>
      <use xlink:href="#DejaVuSans-72" x="58.552734"/>
      <use xlink:href="#DejaVuSans-6f" x="97.416016"/>
      <use xlink:href="#DejaVuSans-70" x="158.597656"/>
      <use xlink:href="#DejaVuSans-61" x="222.074219"/>
      <use xlink:href="#DejaVuSans-67" x="283.353516"/>
      <use xlink:href="#DejaVuSans-61" x="346.830078"/>
      <use xlink:href="#DejaVuSans-74" x="408.109375"/>
      <use xlink:href="#DejaVuSans-69" x="447.318359"/>
      <use xlink:href="#DejaVuSans-6f" x="475.101562"/>
      <use xlink:href="#DejaVuSans-6e" x="536.283203"/>
      <use xlink:href="#DejaVuSans-20" x="599.662109"/>
      <use xlink:href="#DejaVuSans-64" x="631.449219"/>
      <use xlink:href="#DejaVuSans-69" x="694.925781"/>
      <use xlink:href="#DejaVuSans-72" x="722.708984"/>
      <use xlink:href="#DejaVuSans-65" x="761.572266"/>
      <use xlink:href="#DejaVuSans-63" x="823.095703"/>
      <use xlink:href="#DejaVuSans-74" x="878.076172"/>
      <use xlink:href="#DejaVuSans-69" x="917.285156"/>
      <use xlink:href="#DejaVuSans-6f" x="945.068359"/>
      <use xlink:href="#DejaVuSans-6e" x="1006.25"/>
     </g>
    </g>
   </g>
   <g id="matplotlib.axis_2">
    <g id="ytick_1">
     <g id="line2d_7">
      <defs>
       <path id="m06cbadc0fe" d="M 0 0 
L -3.5 0 
" style="stroke: #000000; stroke-width: 0.8"/>
      </defs>
      <g>
       <use xlink:href="#m06cbadc0fe" x="50.14375" y="273.312" style="stroke: #000000; stroke-width: 0.8"/>
      </g>
     </g>
     <g id="text_8">
      <!-- 0.00 -->
      <g transform="translate(20.878125 277.111219)scale(0.1 -0.1)">
       <use xlink:href="#DejaVuSans-30"/>
       <use xlink:href="#DejaVuSans-2e" x="63.623047"/>
       <use xlink:href="#DejaVuSans-30" x="95.410156"/>
       <use xlink:href="#DejaVuSans-30" x="159.033203"/>
      </g>
     </g>
    </g>
    <g id="ytick_2">
     <g id="line2d_8">
      <g>
       <use xlink:href="#m06cbadc0fe" x="50.14375" y="242.047253" style="stroke: #000000; stroke-width: 0.8"/>
      </g>
     </g>
     <g id="text_9">
      <!-- 0.25 -->
      <g transform="translate(20.878125 245.846471)scale(0.1 -0.1)">
       <defs>
        <path id="DejaVuSans-35" d="M 691 4666 
L 3169 4666 
L 3169 4134 
L 1269 4134 
L 1269 2991 
Q 1406 3038 1543 3061 
Q 1681 3084 1819 3084 
Q 2600 3084 3056 2656 
Q 3513 2228 3513 1497 
Q 3513 744 3044 326 
Q 2575 -91 1722 -91 
Q 1428 -91 1123 -41 
Q 819 9 494 109 
L 494 744 
Q 775 591 1075 516 
Q 1375 441 1709 441 
Q 2250 441 2565 725 
Q 2881 1009 2881 1497 
Q 2881 1984 2565 2268 
Q 2250 2553 1709 2553 
Q 1456 2553 1204 2497 
Q 953 2441 691 2322 
L 691 4666 
z
" transform="scale(0.015625)"/>
       </defs>
       <use xlink:href="#DejaVuSans-30"/>
       <use xlink:href="#DejaVuSans-2e" x="63.623047"/>
       <use xlink:href="#DejaVuSans-32" x="95.410156"/>
       <use xlink:href="#DejaVuSans-35" x="159.033203"/>
      </g>
     </g>
    </g>
    <g id="ytick_3">
     <g id="line2d_9">
      <g>
       <use xlink:href="#m06cbadc0fe" x="50.14375" y="210.782505" style="stroke: #000000; stroke-width: 0.8"/>
      </g>
     </g>
     <g id="text_10">
      <!-- 0.50 -->
      <g transform="translate(20.878125 214.581724)scale(0.1 -0.1)">
       <use xlink:href="#DejaVuSans-30"/>
       <use xlink:href="#DejaVuSans-2e" x="63.623047"/>
       <use xlink:href="#DejaVuSans-35" x="95.410156"/>
       <use xlink:href="#DejaVuSans-30" x="159.033203"/>
      </g>
     </g>
    </g>
    <g id="ytick_4">
     <g id="line2d_10">
      <g>
       <use xlink:href="#m06cbadc0fe" x="50.14375" y="179.517758" style="stroke: #000000; stroke-width: 0.8"/>
      </g>
     </g>
     <g id="text_11">
      <!-- 0.75 -->
      <g transform="translate(20.878125 183.316977)scale(0.1 -0.1)">
       <defs>
        <path id="DejaVuSans-37" d="M 525 4666 
L 3525 4666 
L 3525 4397 
L 1831 0 
L 1172 0 
L 2766 4134 
L 525 4134 
L 525 4666 
z
" transform="scale(0.015625)"/>
       </defs>
       <use xlink:href="#DejaVuSans-30"/>
       <use xlink:href="#DejaVuSans-2e" x="63.623047"/>
       <use xlink:href="#DejaVuSans-37" x="95.410156"/>
       <use xlink:href="#DejaVuSans-35" x="159.033203"/>
      </g>
     </g>
    </g>
    <g id="ytick_5">
     <g id="line2d_11">
      <g>
       <use xlink:href="#m06cbadc0fe" x="50.14375" y="148.25301" style="stroke: #000000; stroke-width: 0.8"/>
      </g>
     </g>
     <g id="text_12">
      <!-- 1.00 -->
      <g transform="translate(20.878125 152.052229)scale(0.1 -0.1)">
       <use xlink:href="#DejaVuSans-31"/>
       <use xlink:href="#DejaVuSans-2e" x="63.623047"/>
       <use xlink:href="#DejaVuSans-30" x="95.410156"/>
       <use xlink:href="#DejaVuSans-30" x="159.033203"/>
      </g>
     </g>
    </g>
    <g id="ytick_6">
     <g id="line2d_12">
      <g>
       <use xlink:href="#m06cbadc0fe" x="50.14375" y="116.988263" style="stroke: #000000; stroke-width: 0.8"/>
      </g>
     </g>
     <g id="text_13">
      <!-- 1.25 -->
      <g transform="translate(20.878125 120.787482)scale(0.1 -0.1)">
       <use xlink:href="#DejaVuSans-31"/>
       <use xlink:href="#DejaVuSans-2e" x="63.623047"/>
       <use xlink:href="#DejaVuSans-32" x="95.410156"/>
       <use xlink:href="#DejaVuSans-35" x="159.033203"/>
      </g>
     </g>
    </g>
    <g id="ytick_7">
     <g id="line2d_13">
      <g>
       <use xlink:href="#m06cbadc0fe" x="50.14375" y="85.723516" style="stroke: #000000; stroke-width: 0.8"/>
      </g>
     </g>
     <g id="text_14">
      <!-- 1.50 -->
      <g transform="translate(20.878125 89.522734)scale(0.1 -0.1)">
       <use xlink:href="#DejaVuSans-31"/>
       <use xlink:href="#DejaVuSans-2e" x="63.623047"/>
       <use xlink:href="#DejaVuSans-35" x="95.410156"/>
       <use xlink:href="#DejaVuSans-30" x="159.033203"/>
      </g>
     </g>
    </g>
    <g id="ytick_8">
     <g id="line2d_14">
      <g>
       <use xlink:href="#m06cbadc0fe" x="50.14375" y="54.458768" style="stroke: #000000; stroke-width: 0.8"/>
      </g>
     </g>
     <g id="text_15">
      <!-- 1.75 -->
      <g transform="translate(20.878125 58.257987)scale(0.1 -0.1)">
       <use xlink:href="#DejaVuSans-31"/>
       <use xlink:href="#DejaVuSans-2e" x="63.623047"/>
       <use xlink:href="#DejaVuSans-37" x="95.410156"/>
       <use xlink:href="#DejaVuSans-35" x="159.033203"/>
      </g>
     </g>
    </g>
    <g id="ytick_9">
     <g id="line2d_15">
      <g>
       <use xlink:href="#m06cbadc0fe" x="50.14375" y="23.194021" style="stroke: #000000; stroke-width: 0.8"/>
      </g>
     </g>
     <g id="text_16">
      <!-- 2.00 -->
      <g transform="translate(20.878125 26.993239)scale(0.1 -0.1)">
       <use xlink:href="#DejaVuSans-32"/>
       <use xlink:href="#DejaVuSans-2e" x="63.623047"/>
       <use xlink:href="#DejaVuSans-30" x="95.410156"/>
       <use xlink:href="#DejaVuSans-30" x="159.033203"/>
      </g>
     </g>
    </g>
    <g id="text_17">
     <!-- Probability density -->
     <g transform="translate(14.798438 186.606781)rotate(-90)scale(0.1 -0.1)">
      <defs>
       <path id="DejaVuSans-62" d="M 3116 1747 
Q 3116 2381 2855 2742 
Q 2594 3103 2138 3103 
Q 1681 3103 1420 2742 
Q 1159 2381 1159 1747 
Q 1159 1113 1420 752 
Q 1681 391 2138 391 
Q 2594 391 2855 752 
Q 3116 1113 3116 1747 
z
M 1159 2969 
Q 1341 3281 1617 3432 
Q 1894 3584 2278 3584 
Q 2916 3584 3314 3078 
Q 3713 2572 3713 1747 
Q 3713 922 3314 415 
Q 2916 -91 2278 -91 
Q 1894 -91 1617 61 
Q 1341 213 1159 525 
L 1159 0 
L 581 0 
L 581 4863 
L 1159 4863 
L 1159 2969 
z
" transform="scale(0.015625)"/>
       <path id="DejaVuSans-6c" d="M 603 4863 
L 1178 4863 
L 1178 0 
L 603 0 
L 603 4863 
z
" transform="scale(0.015625)"/>
       <path id="DejaVuSans-79" d="M 2059 -325 
Q 1816 -950 1584 -1140 
Q 1353 -1331 966 -1331 
L 506 -1331 
L 506 -850 
L 844 -850 
Q 1081 -850 1212 -737 
Q 1344 -625 1503 -206 
L 1606 56 
L 191 3500 
L 800 3500 
L 1894 763 
L 2988 3500 
L 3597 3500 
L 2059 -325 
z
" transform="scale(0.015625)"/>
       <path id="DejaVuSans-73" d="M 2834 3397 
L 2834 2853 
Q 2591 2978 2328 3040 
Q 2066 3103 1784 3103 
Q 1356 3103 1142 2972 
Q 928 2841 928 2578 
Q 928 2378 1081 2264 
Q 1234 2150 1697 2047 
L 1894 2003 
Q 2506 1872 2764 1633 
Q 3022 1394 3022 966 
Q 3022 478 2636 193 
Q 2250 -91 1575 -91 
Q 1294 -91 989 -36 
Q 684 19 347 128 
L 347 722 
Q 666 556 975 473 
Q 1284 391 1588 391 
Q 1994 391 2212 530 
Q 2431 669 2431 922 
Q 2431 1156 2273 1281 
Q 2116 1406 1581 1522 
L 1381 1569 
Q 847 1681 609 1914 
Q 372 2147 372 2553 
Q 372 3047 722 3315 
Q 1072 3584 1716 3584 
Q 2034 3584 2315 3537 
Q 2597 3491 2834 3397 
z
" transform="scale(0.015625)"/>
      </defs>
      <use xlink:href="#DejaVuSans-50"/>
      <use xlink:href="#DejaVuSans-72" x="58.552734"/>
      <use xlink:href="#DejaVuSans-6f" x="97.416016"/>
      <use xlink:href="#DejaVuSans-62" x="158.597656"/>
      <use xlink:href="#DejaVuSans-61" x="222.074219"/>
      <use xlink:href="#DejaVuSans-62" x="283.353516"/>
      <use xlink:href="#DejaVuSans-69" x="346.830078"/>
      <use xlink:href="#DejaVuSans-6c" x="374.613281"/>
      <use xlink:href="#DejaVuSans-69" x="402.396484"/>
      <use xlink:href="#DejaVuSans-74" x="430.179688"/>
      <use xlink:href="#DejaVuSans-79" x="469.388672"/>
      <use xlink:href="#DejaVuSans-20" x="528.568359"/>
      <use xlink:href="#DejaVuSans-64" x="560.355469"/>
      <use xlink:href="#DejaVuSans-65" x="623.832031"/>
      <use xlink:href="#DejaVuSans-6e" x="685.355469"/>
      <use xlink:href="#DejaVuSans-73" x="748.734375"/>
      <use xlink:href="#DejaVuSans-69" x="800.833984"/>
      <use xlink:href="#DejaVuSans-74" x="828.617188"/>
      <use xlink:href="#DejaVuSans-79" x="867.826172"/>
     </g>
    </g>
   </g>
   <g id="line2d_16">
    <path d="M 66.376477 273.312 
L 391.031023 23.194021 
L 391.031023 23.194021 
" clip-path="url(#p485c099c33)" style="fill: none; stroke: #ff7f0e; stroke-width: 1.5; stroke-linecap: square"/>
   </g>
   <g id="patch_203">
    <path d="M 50.14375 273.312 
L 50.14375 7.2 
" style="fill: none; stroke: #000000; stroke-width: 0.8; stroke-linejoin: miter; stroke-linecap: square"/>
   </g>
   <g id="patch_204">
    <path d="M 407.26375 273.312 
L 407.26375 7.2 
" style="fill: none; stroke: #000000; stroke-width: 0.8; stroke-linejoin: miter; stroke-linecap: square"/>
   </g>
   <g id="patch_205">
    <path d="M 50.14375 273.312 
L 407.26375 273.312 
" style="fill: none; stroke: #000000; stroke-width: 0.8; stroke-linejoin: miter; stroke-linecap: square"/>
   </g>
   <g id="patch_206">
    <path d="M 50.14375 7.2 
L 407.26375 7.2 
" style="fill: none; stroke: #000000; stroke-width: 0.8; stroke-linejoin: miter; stroke-linecap: square"/>
   </g>
  </g>
 </g>
 <defs>
  <clipPath id="p485c099c33">
   <rect x="50.14375" y="7.2" width="357.12" height="266.112"/>
  </clipPath>
 </defs>
</svg>
