<?xml version="1.0" encoding="utf-8" standalone="no"?>
<!DOCTYPE svg PUBLIC "-//W3C//DTD SVG 1.1//EN"
  "http://www.w3.org/Graphics/SVG/1.1/DTD/svg11.dtd">
<svg xmlns:xlink="http://www.w3.org/1999/xlink" width="408.10125pt" height="310.86825pt" viewBox="0 0 408.10125 310.86825" xmlns="http://www.w3.org/2000/svg" version="1.1">
 <metadata>
  <rdf:RDF xmlns:dc="http://purl.org/dc/elements/1.1/" xmlns:cc="http://creativecommons.org/ns#" xmlns:rdf="http://www.w3.org/1999/02/22-rdf-syntax-ns#">
   <cc:Work>
    <dc:type rdf:resource="http://purl.org/dc/dcmitype/StillImage"/>
    <dc:date>2022-11-21T15:21:58.242377</dc:date>
    <dc:format>image/svg+xml</dc:format>
    <dc:creator>
     <cc:Agent>
      <dc:title>Matplotlib v3.5.3, https://matplotlib.org/</dc:title>
     </cc:Agent>
    </dc:creator>
   </cc:Work>
  </rdf:RDF>
 </metadata>
 <defs>
  <style type="text/css">*{stroke-linejoin: round; stroke-linecap: butt}</style>
 </defs>
 <g id="figure_1">
  <g id="patch_1">
   <path d="M 0 310.86825 
L 408.10125 310.86825 
L 408.10125 0 
L 0 0 
z
" style="fill: #ffffff"/>
  </g>
  <g id="axes_1">
   <g id="patch_2">
    <path d="M 43.78125 273.312 
L 400.90125 273.312 
L 400.90125 7.2 
L 43.78125 7.2 
z
" style="fill: #ffffff"/>
   </g>
   <g id="patch_3">
    <path d="M 60.303308 273.312 
L 61.919942 273.312 
L 61.919942 271.919473 
L 60.303308 271.919473 
z
" clip-path="url(#p8e0edea40f)" style="fill: #1f77b4"/>
   </g>
   <g id="patch_4">
    <path d="M 61.919942 273.312 
L 63.536576 273.312 
L 63.536576 267.74189 
L 61.919942 267.74189 
z
" clip-path="url(#p8e0edea40f)" style="fill: #1f77b4"/>
   </g>
   <g id="patch_5">
    <path d="M 63.536576 273.312 
L 65.15321 273.312 
L 65.15321 266.349363 
L 63.536576 266.349363 
z
" clip-path="url(#p8e0edea40f)" style="fill: #1f77b4"/>
   </g>
   <g id="patch_6">
    <path d="M 65.15321 273.312 
L 66.769843 273.312 
L 66.769843 260.082989 
L 65.15321 260.082989 
z
" clip-path="url(#p8e0edea40f)" style="fill: #1f77b4"/>
   </g>
   <g id="patch_7">
    <path d="M 66.769843 273.312 
L 68.386477 273.312 
L 68.386477 262.17178 
L 66.769843 262.17178 
z
" clip-path="url(#p8e0edea40f)" style="fill: #1f77b4"/>
   </g>
   <g id="patch_8">
    <path d="M 68.386477 273.312 
L 70.003111 273.312 
L 70.003111 248.246505 
L 68.386477 248.246505 
z
" clip-path="url(#p8e0edea40f)" style="fill: #1f77b4"/>
   </g>
   <g id="patch_9">
    <path d="M 70.003111 273.312 
L 71.619745 273.312 
L 71.619745 253.816615 
L 70.003111 253.816615 
z
" clip-path="url(#p8e0edea40f)" style="fill: #1f77b4"/>
   </g>
   <g id="patch_10">
    <path d="M 71.619745 273.312 
L 73.236379 273.312 
L 73.236379 244.068923 
L 71.619745 244.068923 
z
" clip-path="url(#p8e0edea40f)" style="fill: #1f77b4"/>
   </g>
   <g id="patch_11">
    <path d="M 73.236379 273.312 
L 74.853013 273.312 
L 74.853013 239.891341 
L 73.236379 239.891341 
z
" clip-path="url(#p8e0edea40f)" style="fill: #1f77b4"/>
   </g>
   <g id="patch_12">
    <path d="M 74.853013 273.312 
L 76.469647 273.312 
L 76.469647 232.928703 
L 74.853013 232.928703 
z
" clip-path="url(#p8e0edea40f)" style="fill: #1f77b4"/>
   </g>
   <g id="patch_13">
    <path d="M 76.469647 273.312 
L 78.08628 273.312 
L 78.08628 235.713758 
L 76.469647 235.713758 
z
" clip-path="url(#p8e0edea40f)" style="fill: #1f77b4"/>
   </g>
   <g id="patch_14">
    <path d="M 78.08628 273.312 
L 79.702914 273.312 
L 79.702914 235.713758 
L 78.08628 235.713758 
z
" clip-path="url(#p8e0edea40f)" style="fill: #1f77b4"/>
   </g>
   <g id="patch_15">
    <path d="M 79.702914 273.312 
L 81.319548 273.312 
L 81.319548 217.610901 
L 79.702914 217.610901 
z
" clip-path="url(#p8e0edea40f)" style="fill: #1f77b4"/>
   </g>
   <g id="patch_16">
    <path d="M 81.319548 273.312 
L 82.936182 273.312 
L 82.936182 214.129582 
L 81.319548 214.129582 
z
" clip-path="url(#p8e0edea40f)" style="fill: #1f77b4"/>
   </g>
   <g id="patch_17">
    <path d="M 82.936182 273.312 
L 84.552816 273.312 
L 84.552816 223.877275 
L 82.936182 223.877275 
z
" clip-path="url(#p8e0edea40f)" style="fill: #1f77b4"/>
   </g>
   <g id="patch_18">
    <path d="M 84.552816 273.312 
L 86.16945 273.312 
L 86.16945 224.573538 
L 84.552816 224.573538 
z
" clip-path="url(#p8e0edea40f)" style="fill: #1f77b4"/>
   </g>
   <g id="patch_19">
    <path d="M 86.16945 273.312 
L 87.786084 273.312 
L 87.786084 219.003429 
L 86.16945 219.003429 
z
" clip-path="url(#p8e0edea40f)" style="fill: #1f77b4"/>
   </g>
   <g id="patch_20">
    <path d="M 87.786084 273.312 
L 89.402717 273.312 
L 89.402717 200.900571 
L 87.786084 200.900571 
z
" clip-path="url(#p8e0edea40f)" style="fill: #1f77b4"/>
   </g>
   <g id="patch_21">
    <path d="M 89.402717 273.312 
L 91.019351 273.312 
L 91.019351 209.255736 
L 89.402717 209.255736 
z
" clip-path="url(#p8e0edea40f)" style="fill: #1f77b4"/>
   </g>
   <g id="patch_22">
    <path d="M 91.019351 273.312 
L 92.635985 273.312 
L 92.635985 211.344527 
L 91.019351 211.344527 
z
" clip-path="url(#p8e0edea40f)" style="fill: #1f77b4"/>
   </g>
   <g id="patch_23">
    <path d="M 92.635985 273.312 
L 94.252619 273.312 
L 94.252619 199.508044 
L 92.635985 199.508044 
z
" clip-path="url(#p8e0edea40f)" style="fill: #1f77b4"/>
   </g>
   <g id="patch_24">
    <path d="M 94.252619 273.312 
L 95.869253 273.312 
L 95.869253 214.129582 
L 94.252619 214.129582 
z
" clip-path="url(#p8e0edea40f)" style="fill: #1f77b4"/>
   </g>
   <g id="patch_25">
    <path d="M 95.869253 273.312 
L 97.485887 273.312 
L 97.485887 200.204308 
L 95.869253 200.204308 
z
" clip-path="url(#p8e0edea40f)" style="fill: #1f77b4"/>
   </g>
   <g id="patch_26">
    <path d="M 97.485887 273.312 
L 99.102521 273.312 
L 99.102521 186.975297 
L 97.485887 186.975297 
z
" clip-path="url(#p8e0edea40f)" style="fill: #1f77b4"/>
   </g>
   <g id="patch_27">
    <path d="M 99.102521 273.312 
L 100.719154 273.312 
L 100.719154 198.115516 
L 99.102521 198.115516 
z
" clip-path="url(#p8e0edea40f)" style="fill: #1f77b4"/>
   </g>
   <g id="patch_28">
    <path d="M 100.719154 273.312 
L 102.335788 273.312 
L 102.335788 186.279033 
L 100.719154 186.279033 
z
" clip-path="url(#p8e0edea40f)" style="fill: #1f77b4"/>
   </g>
   <g id="patch_29">
    <path d="M 102.335788 273.312 
L 103.952422 273.312 
L 103.952422 184.886505 
L 102.335788 184.886505 
z
" clip-path="url(#p8e0edea40f)" style="fill: #1f77b4"/>
   </g>
   <g id="patch_30">
    <path d="M 103.952422 273.312 
L 105.569056 273.312 
L 105.569056 189.760352 
L 103.952422 189.760352 
z
" clip-path="url(#p8e0edea40f)" style="fill: #1f77b4"/>
   </g>
   <g id="patch_31">
    <path d="M 105.569056 273.312 
L 107.18569 273.312 
L 107.18569 172.353758 
L 105.569056 172.353758 
z
" clip-path="url(#p8e0edea40f)" style="fill: #1f77b4"/>
   </g>
   <g id="patch_32">
    <path d="M 107.18569 273.312 
L 108.802324 273.312 
L 108.802324 179.316396 
L 107.18569 179.316396 
z
" clip-path="url(#p8e0edea40f)" style="fill: #1f77b4"/>
   </g>
   <g id="patch_33">
    <path d="M 108.802324 273.312 
L 110.418957 273.312 
L 110.418957 153.554637 
L 108.802324 153.554637 
z
" clip-path="url(#p8e0edea40f)" style="fill: #1f77b4"/>
   </g>
   <g id="patch_34">
    <path d="M 110.418957 273.312 
L 112.035591 273.312 
L 112.035591 168.176176 
L 110.418957 168.176176 
z
" clip-path="url(#p8e0edea40f)" style="fill: #1f77b4"/>
   </g>
   <g id="patch_35">
    <path d="M 112.035591 273.312 
L 113.652225 273.312 
L 113.652225 172.353758 
L 112.035591 172.353758 
z
" clip-path="url(#p8e0edea40f)" style="fill: #1f77b4"/>
   </g>
   <g id="patch_36">
    <path d="M 113.652225 273.312 
L 115.268859 273.312 
L 115.268859 165.391121 
L 113.652225 165.391121 
z
" clip-path="url(#p8e0edea40f)" style="fill: #1f77b4"/>
   </g>
   <g id="patch_37">
    <path d="M 115.268859 273.312 
L 116.885493 273.312 
L 116.885493 168.176176 
L 115.268859 168.176176 
z
" clip-path="url(#p8e0edea40f)" style="fill: #1f77b4"/>
   </g>
   <g id="patch_38">
    <path d="M 116.885493 273.312 
L 118.502127 273.312 
L 118.502127 134.059253 
L 116.885493 134.059253 
z
" clip-path="url(#p8e0edea40f)" style="fill: #1f77b4"/>
   </g>
   <g id="patch_39">
    <path d="M 118.502127 273.312 
L 120.118761 273.312 
L 120.118761 161.909802 
L 118.502127 161.909802 
z
" clip-path="url(#p8e0edea40f)" style="fill: #1f77b4"/>
   </g>
   <g id="patch_40">
    <path d="M 120.118761 273.312 
L 121.735394 273.312 
L 121.735394 144.503209 
L 120.118761 144.503209 
z
" clip-path="url(#p8e0edea40f)" style="fill: #1f77b4"/>
   </g>
   <g id="patch_41">
    <path d="M 121.735394 273.312 
L 123.352028 273.312 
L 123.352028 160.517275 
L 121.735394 160.517275 
z
" clip-path="url(#p8e0edea40f)" style="fill: #1f77b4"/>
   </g>
   <g id="patch_42">
    <path d="M 123.352028 273.312 
L 124.968662 273.312 
L 124.968662 143.110681 
L 123.352028 143.110681 
z
" clip-path="url(#p8e0edea40f)" style="fill: #1f77b4"/>
   </g>
   <g id="patch_43">
    <path d="M 124.968662 273.312 
L 126.585296 273.312 
L 126.585296 139.629363 
L 124.968662 139.629363 
z
" clip-path="url(#p8e0edea40f)" style="fill: #1f77b4"/>
   </g>
   <g id="patch_44">
    <path d="M 126.585296 273.312 
L 128.20193 273.312 
L 128.20193 141.718154 
L 126.585296 141.718154 
z
" clip-path="url(#p8e0edea40f)" style="fill: #1f77b4"/>
   </g>
   <g id="patch_45">
    <path d="M 128.20193 273.312 
L 129.818564 273.312 
L 129.818564 125.704088 
L 128.20193 125.704088 
z
" clip-path="url(#p8e0edea40f)" style="fill: #1f77b4"/>
   </g>
   <g id="patch_46">
    <path d="M 129.818564 273.312 
L 131.435198 273.312 
L 131.435198 122.222769 
L 129.818564 122.222769 
z
" clip-path="url(#p8e0edea40f)" style="fill: #1f77b4"/>
   </g>
   <g id="patch_47">
    <path d="M 131.435198 273.312 
L 133.051831 273.312 
L 133.051831 120.133978 
L 131.435198 120.133978 
z
" clip-path="url(#p8e0edea40f)" style="fill: #1f77b4"/>
   </g>
   <g id="patch_48">
    <path d="M 133.051831 273.312 
L 134.668465 273.312 
L 134.668465 138.236835 
L 133.051831 138.236835 
z
" clip-path="url(#p8e0edea40f)" style="fill: #1f77b4"/>
   </g>
   <g id="patch_49">
    <path d="M 134.668465 273.312 
L 136.285099 273.312 
L 136.285099 131.274198 
L 134.668465 131.274198 
z
" clip-path="url(#p8e0edea40f)" style="fill: #1f77b4"/>
   </g>
   <g id="patch_50">
    <path d="M 136.285099 273.312 
L 137.901733 273.312 
L 137.901733 130.577934 
L 136.285099 130.577934 
z
" clip-path="url(#p8e0edea40f)" style="fill: #1f77b4"/>
   </g>
   <g id="patch_51">
    <path d="M 137.901733 273.312 
L 139.518367 273.312 
L 139.518367 159.821011 
L 137.901733 159.821011 
z
" clip-path="url(#p8e0edea40f)" style="fill: #1f77b4"/>
   </g>
   <g id="patch_52">
    <path d="M 139.518367 273.312 
L 141.135001 273.312 
L 141.135001 129.185407 
L 139.518367 129.185407 
z
" clip-path="url(#p8e0edea40f)" style="fill: #1f77b4"/>
   </g>
   <g id="patch_53">
    <path d="M 141.135001 273.312 
L 142.751635 273.312 
L 142.751635 125.704088 
L 141.135001 125.704088 
z
" clip-path="url(#p8e0edea40f)" style="fill: #1f77b4"/>
   </g>
   <g id="patch_54">
    <path d="M 142.751635 273.312 
L 144.368268 273.312 
L 144.368268 127.096615 
L 142.751635 127.096615 
z
" clip-path="url(#p8e0edea40f)" style="fill: #1f77b4"/>
   </g>
   <g id="patch_55">
    <path d="M 144.368268 273.312 
L 145.984902 273.312 
L 145.984902 128.489143 
L 144.368268 128.489143 
z
" clip-path="url(#p8e0edea40f)" style="fill: #1f77b4"/>
   </g>
   <g id="patch_56">
    <path d="M 145.984902 273.312 
L 147.601536 273.312 
L 147.601536 102.727385 
L 145.984902 102.727385 
z
" clip-path="url(#p8e0edea40f)" style="fill: #1f77b4"/>
   </g>
   <g id="patch_57">
    <path d="M 147.601536 273.312 
L 149.21817 273.312 
L 149.21817 111.082549 
L 147.601536 111.082549 
z
" clip-path="url(#p8e0edea40f)" style="fill: #1f77b4"/>
   </g>
   <g id="patch_58">
    <path d="M 149.21817 273.312 
L 150.834804 273.312 
L 150.834804 105.51244 
L 149.21817 105.51244 
z
" clip-path="url(#p8e0edea40f)" style="fill: #1f77b4"/>
   </g>
   <g id="patch_59">
    <path d="M 150.834804 273.312 
L 152.451438 273.312 
L 152.451438 86.017055 
L 150.834804 86.017055 
z
" clip-path="url(#p8e0edea40f)" style="fill: #1f77b4"/>
   </g>
   <g id="patch_60">
    <path d="M 152.451438 273.312 
L 154.068072 273.312 
L 154.068072 113.867604 
L 152.451438 113.867604 
z
" clip-path="url(#p8e0edea40f)" style="fill: #1f77b4"/>
   </g>
   <g id="patch_61">
    <path d="M 154.068072 273.312 
L 155.684705 273.312 
L 155.684705 89.498374 
L 154.068072 89.498374 
z
" clip-path="url(#p8e0edea40f)" style="fill: #1f77b4"/>
   </g>
   <g id="patch_62">
    <path d="M 155.684705 273.312 
L 157.301339 273.312 
L 157.301339 88.105846 
L 155.684705 88.105846 
z
" clip-path="url(#p8e0edea40f)" style="fill: #1f77b4"/>
   </g>
   <g id="patch_63">
    <path d="M 157.301339 273.312 
L 158.917973 273.312 
L 158.917973 97.157275 
L 157.301339 97.157275 
z
" clip-path="url(#p8e0edea40f)" style="fill: #1f77b4"/>
   </g>
   <g id="patch_64">
    <path d="M 158.917973 273.312 
L 160.534607 273.312 
L 160.534607 93.675956 
L 158.917973 93.675956 
z
" clip-path="url(#p8e0edea40f)" style="fill: #1f77b4"/>
   </g>
   <g id="patch_65">
    <path d="M 160.534607 273.312 
L 162.151241 273.312 
L 162.151241 107.601231 
L 160.534607 107.601231 
z
" clip-path="url(#p8e0edea40f)" style="fill: #1f77b4"/>
   </g>
   <g id="patch_66">
    <path d="M 162.151241 273.312 
L 163.767875 273.312 
L 163.767875 78.358154 
L 162.151241 78.358154 
z
" clip-path="url(#p8e0edea40f)" style="fill: #1f77b4"/>
   </g>
   <g id="patch_67">
    <path d="M 163.767875 273.312 
L 165.384509 273.312 
L 165.384509 97.157275 
L 163.767875 97.157275 
z
" clip-path="url(#p8e0edea40f)" style="fill: #1f77b4"/>
   </g>
   <g id="patch_68">
    <path d="M 165.384509 273.312 
L 167.001142 273.312 
L 167.001142 104.816176 
L 165.384509 104.816176 
z
" clip-path="url(#p8e0edea40f)" style="fill: #1f77b4"/>
   </g>
   <g id="patch_69">
    <path d="M 167.001142 273.312 
L 168.617776 273.312 
L 168.617776 91.587165 
L 167.001142 91.587165 
z
" clip-path="url(#p8e0edea40f)" style="fill: #1f77b4"/>
   </g>
   <g id="patch_70">
    <path d="M 168.617776 273.312 
L 170.23441 273.312 
L 170.23441 78.358154 
L 168.617776 78.358154 
z
" clip-path="url(#p8e0edea40f)" style="fill: #1f77b4"/>
   </g>
   <g id="patch_71">
    <path d="M 170.23441 273.312 
L 171.851044 273.312 
L 171.851044 83.232 
L 170.23441 83.232 
z
" clip-path="url(#p8e0edea40f)" style="fill: #1f77b4"/>
   </g>
   <g id="patch_72">
    <path d="M 171.851044 273.312 
L 173.467678 273.312 
L 173.467678 65.825407 
L 171.851044 65.825407 
z
" clip-path="url(#p8e0edea40f)" style="fill: #1f77b4"/>
   </g>
   <g id="patch_73">
    <path d="M 173.467678 273.312 
L 175.084312 273.312 
L 175.084312 74.876835 
L 173.467678 74.876835 
z
" clip-path="url(#p8e0edea40f)" style="fill: #1f77b4"/>
   </g>
   <g id="patch_74">
    <path d="M 175.084312 273.312 
L 176.700946 273.312 
L 176.700946 100.638593 
L 175.084312 100.638593 
z
" clip-path="url(#p8e0edea40f)" style="fill: #1f77b4"/>
   </g>
   <g id="patch_75">
    <path d="M 176.700946 273.312 
L 178.317579 273.312 
L 178.317579 62.344088 
L 176.700946 62.344088 
z
" clip-path="url(#p8e0edea40f)" style="fill: #1f77b4"/>
   </g>
   <g id="patch_76">
    <path d="M 178.317579 273.312 
L 179.934213 273.312 
L 179.934213 76.965626 
L 178.317579 76.965626 
z
" clip-path="url(#p8e0edea40f)" style="fill: #1f77b4"/>
   </g>
   <g id="patch_77">
    <path d="M 179.934213 273.312 
L 181.550847 273.312 
L 181.550847 70.002989 
L 179.934213 70.002989 
z
" clip-path="url(#p8e0edea40f)" style="fill: #1f77b4"/>
   </g>
   <g id="patch_78">
    <path d="M 181.550847 273.312 
L 183.167481 273.312 
L 183.167481 95.764747 
L 181.550847 95.764747 
z
" clip-path="url(#p8e0edea40f)" style="fill: #1f77b4"/>
   </g>
   <g id="patch_79">
    <path d="M 183.167481 273.312 
L 184.784115 273.312 
L 184.784115 97.157275 
L 183.167481 97.157275 
z
" clip-path="url(#p8e0edea40f)" style="fill: #1f77b4"/>
   </g>
   <g id="patch_80">
    <path d="M 184.784115 273.312 
L 186.400749 273.312 
L 186.400749 51.900132 
L 184.784115 51.900132 
z
" clip-path="url(#p8e0edea40f)" style="fill: #1f77b4"/>
   </g>
   <g id="patch_81">
    <path d="M 186.400749 273.312 
L 188.017383 273.312 
L 188.017383 50.507604 
L 186.400749 50.507604 
z
" clip-path="url(#p8e0edea40f)" style="fill: #1f77b4"/>
   </g>
   <g id="patch_82">
    <path d="M 188.017383 273.312 
L 189.634016 273.312 
L 189.634016 73.484308 
L 188.017383 73.484308 
z
" clip-path="url(#p8e0edea40f)" style="fill: #1f77b4"/>
   </g>
   <g id="patch_83">
    <path d="M 189.634016 273.312 
L 191.25065 273.312 
L 191.25065 76.269363 
L 189.634016 76.269363 
z
" clip-path="url(#p8e0edea40f)" style="fill: #1f77b4"/>
   </g>
   <g id="patch_84">
    <path d="M 191.25065 273.312 
L 192.867284 273.312 
L 192.867284 59.559033 
L 191.25065 59.559033 
z
" clip-path="url(#p8e0edea40f)" style="fill: #1f77b4"/>
   </g>
   <g id="patch_85">
    <path d="M 192.867284 273.312 
L 194.483918 273.312 
L 194.483918 46.330022 
L 192.867284 46.330022 
z
" clip-path="url(#p8e0edea40f)" style="fill: #1f77b4"/>
   </g>
   <g id="patch_86">
    <path d="M 194.483918 273.312 
L 196.100552 273.312 
L 196.100552 68.610462 
L 194.483918 68.610462 
z
" clip-path="url(#p8e0edea40f)" style="fill: #1f77b4"/>
   </g>
   <g id="patch_87">
    <path d="M 196.100552 273.312 
L 197.717186 273.312 
L 197.717186 76.269363 
L 196.100552 76.269363 
z
" clip-path="url(#p8e0edea40f)" style="fill: #1f77b4"/>
   </g>
   <g id="patch_88">
    <path d="M 197.717186 273.312 
L 199.33382 273.312 
L 199.33382 62.344088 
L 197.717186 62.344088 
z
" clip-path="url(#p8e0edea40f)" style="fill: #1f77b4"/>
   </g>
   <g id="patch_89">
    <path d="M 199.33382 273.312 
L 200.950453 273.312 
L 200.950453 52.596396 
L 199.33382 52.596396 
z
" clip-path="url(#p8e0edea40f)" style="fill: #1f77b4"/>
   </g>
   <g id="patch_90">
    <path d="M 200.950453 273.312 
L 202.567087 273.312 
L 202.567087 72.788044 
L 200.950453 72.788044 
z
" clip-path="url(#p8e0edea40f)" style="fill: #1f77b4"/>
   </g>
   <g id="patch_91">
    <path d="M 202.567087 273.312 
L 204.183721 273.312 
L 204.183721 49.811341 
L 202.567087 49.811341 
z
" clip-path="url(#p8e0edea40f)" style="fill: #1f77b4"/>
   </g>
   <g id="patch_92">
    <path d="M 204.183721 273.312 
L 205.800355 273.312 
L 205.800355 51.900132 
L 204.183721 51.900132 
z
" clip-path="url(#p8e0edea40f)" style="fill: #1f77b4"/>
   </g>
   <g id="patch_93">
    <path d="M 205.800355 273.312 
L 207.416989 273.312 
L 207.416989 84.624527 
L 205.800355 84.624527 
z
" clip-path="url(#p8e0edea40f)" style="fill: #1f77b4"/>
   </g>
   <g id="patch_94">
    <path d="M 207.416989 273.312 
L 209.033623 273.312 
L 209.033623 57.470242 
L 207.416989 57.470242 
z
" clip-path="url(#p8e0edea40f)" style="fill: #1f77b4"/>
   </g>
   <g id="patch_95">
    <path d="M 209.033623 273.312 
L 210.650257 273.312 
L 210.650257 62.344088 
L 209.033623 62.344088 
z
" clip-path="url(#p8e0edea40f)" style="fill: #1f77b4"/>
   </g>
   <g id="patch_96">
    <path d="M 210.650257 273.312 
L 212.26689 273.312 
L 212.26689 49.811341 
L 210.650257 49.811341 
z
" clip-path="url(#p8e0edea40f)" style="fill: #1f77b4"/>
   </g>
   <g id="patch_97">
    <path d="M 212.26689 273.312 
L 213.883524 273.312 
L 213.883524 69.306725 
L 212.26689 69.306725 
z
" clip-path="url(#p8e0edea40f)" style="fill: #1f77b4"/>
   </g>
   <g id="patch_98">
    <path d="M 213.883524 273.312 
L 215.500158 273.312 
L 215.500158 74.876835 
L 213.883524 74.876835 
z
" clip-path="url(#p8e0edea40f)" style="fill: #1f77b4"/>
   </g>
   <g id="patch_99">
    <path d="M 215.500158 273.312 
L 217.116792 273.312 
L 217.116792 54.685187 
L 215.500158 54.685187 
z
" clip-path="url(#p8e0edea40f)" style="fill: #1f77b4"/>
   </g>
   <g id="patch_100">
    <path d="M 217.116792 273.312 
L 218.733426 273.312 
L 218.733426 65.825407 
L 217.116792 65.825407 
z
" clip-path="url(#p8e0edea40f)" style="fill: #1f77b4"/>
   </g>
   <g id="patch_101">
    <path d="M 218.733426 273.312 
L 220.35006 273.312 
L 220.35006 65.129143 
L 218.733426 65.129143 
z
" clip-path="url(#p8e0edea40f)" style="fill: #1f77b4"/>
   </g>
   <g id="patch_102">
    <path d="M 220.35006 273.312 
L 221.966694 273.312 
L 221.966694 43.544967 
L 220.35006 43.544967 
z
" clip-path="url(#p8e0edea40f)" style="fill: #1f77b4"/>
   </g>
   <g id="patch_103">
    <path d="M 221.966694 273.312 
L 223.583327 273.312 
L 223.583327 58.862769 
L 221.966694 58.862769 
z
" clip-path="url(#p8e0edea40f)" style="fill: #1f77b4"/>
   </g>
   <g id="patch_104">
    <path d="M 223.583327 273.312 
L 225.199961 273.312 
L 225.199961 63.736615 
L 223.583327 63.736615 
z
" clip-path="url(#p8e0edea40f)" style="fill: #1f77b4"/>
   </g>
   <g id="patch_105">
    <path d="M 225.199961 273.312 
L 226.816595 273.312 
L 226.816595 72.788044 
L 225.199961 72.788044 
z
" clip-path="url(#p8e0edea40f)" style="fill: #1f77b4"/>
   </g>
   <g id="patch_106">
    <path d="M 226.816595 273.312 
L 228.433229 273.312 
L 228.433229 60.255297 
L 226.816595 60.255297 
z
" clip-path="url(#p8e0edea40f)" style="fill: #1f77b4"/>
   </g>
   <g id="patch_107">
    <path d="M 228.433229 273.312 
L 230.049863 273.312 
L 230.049863 38.671121 
L 228.433229 38.671121 
z
" clip-path="url(#p8e0edea40f)" style="fill: #1f77b4"/>
   </g>
   <g id="patch_108">
    <path d="M 230.049863 273.312 
L 231.666497 273.312 
L 231.666497 65.825407 
L 230.049863 65.825407 
z
" clip-path="url(#p8e0edea40f)" style="fill: #1f77b4"/>
   </g>
   <g id="patch_109">
    <path d="M 231.666497 273.312 
L 233.283131 273.312 
L 233.283131 62.344088 
L 231.666497 62.344088 
z
" clip-path="url(#p8e0edea40f)" style="fill: #1f77b4"/>
   </g>
   <g id="patch_110">
    <path d="M 233.283131 273.312 
L 234.899764 273.312 
L 234.899764 58.862769 
L 233.283131 58.862769 
z
" clip-path="url(#p8e0edea40f)" style="fill: #1f77b4"/>
   </g>
   <g id="patch_111">
    <path d="M 234.899764 273.312 
L 236.516398 273.312 
L 236.516398 19.872 
L 234.899764 19.872 
z
" clip-path="url(#p8e0edea40f)" style="fill: #1f77b4"/>
   </g>
   <g id="patch_112">
    <path d="M 236.516398 273.312 
L 238.133032 273.312 
L 238.133032 53.292659 
L 236.516398 53.292659 
z
" clip-path="url(#p8e0edea40f)" style="fill: #1f77b4"/>
   </g>
   <g id="patch_113">
    <path d="M 238.133032 273.312 
L 239.749666 273.312 
L 239.749666 64.432879 
L 238.133032 64.432879 
z
" clip-path="url(#p8e0edea40f)" style="fill: #1f77b4"/>
   </g>
   <g id="patch_114">
    <path d="M 239.749666 273.312 
L 241.3663 273.312 
L 241.3663 58.166505 
L 239.749666 58.166505 
z
" clip-path="url(#p8e0edea40f)" style="fill: #1f77b4"/>
   </g>
   <g id="patch_115">
    <path d="M 241.3663 273.312 
L 242.982934 273.312 
L 242.982934 58.166505 
L 241.3663 58.166505 
z
" clip-path="url(#p8e0edea40f)" style="fill: #1f77b4"/>
   </g>
   <g id="patch_116">
    <path d="M 242.982934 273.312 
L 244.599568 273.312 
L 244.599568 61.647824 
L 242.982934 61.647824 
z
" clip-path="url(#p8e0edea40f)" style="fill: #1f77b4"/>
   </g>
   <g id="patch_117">
    <path d="M 244.599568 273.312 
L 246.216201 273.312 
L 246.216201 32.404747 
L 244.599568 32.404747 
z
" clip-path="url(#p8e0edea40f)" style="fill: #1f77b4"/>
   </g>
   <g id="patch_118">
    <path d="M 246.216201 273.312 
L 247.832835 273.312 
L 247.832835 52.596396 
L 246.216201 52.596396 
z
" clip-path="url(#p8e0edea40f)" style="fill: #1f77b4"/>
   </g>
   <g id="patch_119">
    <path d="M 247.832835 273.312 
L 249.449469 273.312 
L 249.449469 50.507604 
L 247.832835 50.507604 
z
" clip-path="url(#p8e0edea40f)" style="fill: #1f77b4"/>
   </g>
   <g id="patch_120">
    <path d="M 249.449469 273.312 
L 251.066103 273.312 
L 251.066103 78.358154 
L 249.449469 78.358154 
z
" clip-path="url(#p8e0edea40f)" style="fill: #1f77b4"/>
   </g>
   <g id="patch_121">
    <path d="M 251.066103 273.312 
L 252.682737 273.312 
L 252.682737 82.535736 
L 251.066103 82.535736 
z
" clip-path="url(#p8e0edea40f)" style="fill: #1f77b4"/>
   </g>
   <g id="patch_122">
    <path d="M 252.682737 273.312 
L 254.299371 273.312 
L 254.299371 54.685187 
L 252.682737 54.685187 
z
" clip-path="url(#p8e0edea40f)" style="fill: #1f77b4"/>
   </g>
   <g id="patch_123">
    <path d="M 254.299371 273.312 
L 255.916005 273.312 
L 255.916005 40.759912 
L 254.299371 40.759912 
z
" clip-path="url(#p8e0edea40f)" style="fill: #1f77b4"/>
   </g>
   <g id="patch_124">
    <path d="M 255.916005 273.312 
L 257.532638 273.312 
L 257.532638 72.788044 
L 255.916005 72.788044 
z
" clip-path="url(#p8e0edea40f)" style="fill: #1f77b4"/>
   </g>
   <g id="patch_125">
    <path d="M 257.532638 273.312 
L 259.149272 273.312 
L 259.149272 66.52167 
L 257.532638 66.52167 
z
" clip-path="url(#p8e0edea40f)" style="fill: #1f77b4"/>
   </g>
   <g id="patch_126">
    <path d="M 259.149272 273.312 
L 260.765906 273.312 
L 260.765906 67.217934 
L 259.149272 67.217934 
z
" clip-path="url(#p8e0edea40f)" style="fill: #1f77b4"/>
   </g>
   <g id="patch_127">
    <path d="M 260.765906 273.312 
L 262.38254 273.312 
L 262.38254 75.573099 
L 260.765906 75.573099 
z
" clip-path="url(#p8e0edea40f)" style="fill: #1f77b4"/>
   </g>
   <g id="patch_128">
    <path d="M 262.38254 273.312 
L 263.999174 273.312 
L 263.999174 40.063648 
L 262.38254 40.063648 
z
" clip-path="url(#p8e0edea40f)" style="fill: #1f77b4"/>
   </g>
   <g id="patch_129">
    <path d="M 263.999174 273.312 
L 265.615808 273.312 
L 265.615808 57.470242 
L 263.999174 57.470242 
z
" clip-path="url(#p8e0edea40f)" style="fill: #1f77b4"/>
   </g>
   <g id="patch_130">
    <path d="M 265.615808 273.312 
L 267.232442 273.312 
L 267.232442 80.446945 
L 265.615808 80.446945 
z
" clip-path="url(#p8e0edea40f)" style="fill: #1f77b4"/>
   </g>
   <g id="patch_131">
    <path d="M 267.232442 273.312 
L 268.849075 273.312 
L 268.849075 81.143209 
L 267.232442 81.143209 
z
" clip-path="url(#p8e0edea40f)" style="fill: #1f77b4"/>
   </g>
   <g id="patch_132">
    <path d="M 268.849075 273.312 
L 270.465709 273.312 
L 270.465709 56.077714 
L 268.849075 56.077714 
z
" clip-path="url(#p8e0edea40f)" style="fill: #1f77b4"/>
   </g>
   <g id="patch_133">
    <path d="M 270.465709 273.312 
L 272.082343 273.312 
L 272.082343 81.143209 
L 270.465709 81.143209 
z
" clip-path="url(#p8e0edea40f)" style="fill: #1f77b4"/>
   </g>
   <g id="patch_134">
    <path d="M 272.082343 273.312 
L 273.698977 273.312 
L 273.698977 89.498374 
L 272.082343 89.498374 
z
" clip-path="url(#p8e0edea40f)" style="fill: #1f77b4"/>
   </g>
   <g id="patch_135">
    <path d="M 273.698977 273.312 
L 275.315611 273.312 
L 275.315611 71.395516 
L 273.698977 71.395516 
z
" clip-path="url(#p8e0edea40f)" style="fill: #1f77b4"/>
   </g>
   <g id="patch_136">
    <path d="M 275.315611 273.312 
L 276.932245 273.312 
L 276.932245 94.37222 
L 275.315611 94.37222 
z
" clip-path="url(#p8e0edea40f)" style="fill: #1f77b4"/>
   </g>
   <g id="patch_137">
    <path d="M 276.932245 273.312 
L 278.548879 273.312 
L 278.548879 84.624527 
L 276.932245 84.624527 
z
" clip-path="url(#p8e0edea40f)" style="fill: #1f77b4"/>
   </g>
   <g id="patch_138">
    <path d="M 278.548879 273.312 
L 280.165512 273.312 
L 280.165512 87.409582 
L 278.548879 87.409582 
z
" clip-path="url(#p8e0edea40f)" style="fill: #1f77b4"/>
   </g>
   <g id="patch_139">
    <path d="M 280.165512 273.312 
L 281.782146 273.312 
L 281.782146 99.246066 
L 280.165512 99.246066 
z
" clip-path="url(#p8e0edea40f)" style="fill: #1f77b4"/>
   </g>
   <g id="patch_140">
    <path d="M 281.782146 273.312 
L 283.39878 273.312 
L 283.39878 102.727385 
L 281.782146 102.727385 
z
" clip-path="url(#p8e0edea40f)" style="fill: #1f77b4"/>
   </g>
   <g id="patch_141">
    <path d="M 283.39878 273.312 
L 285.015414 273.312 
L 285.015414 79.750681 
L 283.39878 79.750681 
z
" clip-path="url(#p8e0edea40f)" style="fill: #1f77b4"/>
   </g>
   <g id="patch_142">
    <path d="M 285.015414 273.312 
L 286.632048 273.312 
L 286.632048 94.37222 
L 285.015414 94.37222 
z
" clip-path="url(#p8e0edea40f)" style="fill: #1f77b4"/>
   </g>
   <g id="patch_143">
    <path d="M 286.632048 273.312 
L 288.248682 273.312 
L 288.248682 92.979692 
L 286.632048 92.979692 
z
" clip-path="url(#p8e0edea40f)" style="fill: #1f77b4"/>
   </g>
   <g id="patch_144">
    <path d="M 288.248682 273.312 
L 289.865315 273.312 
L 289.865315 105.51244 
L 288.248682 105.51244 
z
" clip-path="url(#p8e0edea40f)" style="fill: #1f77b4"/>
   </g>
   <g id="patch_145">
    <path d="M 289.865315 273.312 
L 291.481949 273.312 
L 291.481949 106.208703 
L 289.865315 106.208703 
z
" clip-path="url(#p8e0edea40f)" style="fill: #1f77b4"/>
   </g>
   <g id="patch_146">
    <path d="M 291.481949 273.312 
L 293.098583 273.312 
L 293.098583 104.816176 
L 291.481949 104.816176 
z
" clip-path="url(#p8e0edea40f)" style="fill: #1f77b4"/>
   </g>
   <g id="patch_147">
    <path d="M 293.098583 273.312 
L 294.715217 273.312 
L 294.715217 83.928264 
L 293.098583 83.928264 
z
" clip-path="url(#p8e0edea40f)" style="fill: #1f77b4"/>
   </g>
   <g id="patch_148">
    <path d="M 294.715217 273.312 
L 296.331851 273.312 
L 296.331851 117.348923 
L 294.715217 117.348923 
z
" clip-path="url(#p8e0edea40f)" style="fill: #1f77b4"/>
   </g>
   <g id="patch_149">
    <path d="M 296.331851 273.312 
L 297.948485 273.312 
L 297.948485 102.031121 
L 296.331851 102.031121 
z
" clip-path="url(#p8e0edea40f)" style="fill: #1f77b4"/>
   </g>
   <g id="patch_150">
    <path d="M 297.948485 273.312 
L 299.565119 273.312 
L 299.565119 90.194637 
L 297.948485 90.194637 
z
" clip-path="url(#p8e0edea40f)" style="fill: #1f77b4"/>
   </g>
   <g id="patch_151">
    <path d="M 299.565119 273.312 
L 301.181752 273.312 
L 301.181752 99.94233 
L 299.565119 99.94233 
z
" clip-path="url(#p8e0edea40f)" style="fill: #1f77b4"/>
   </g>
   <g id="patch_152">
    <path d="M 301.181752 273.312 
L 302.798386 273.312 
L 302.798386 105.51244 
L 301.181752 105.51244 
z
" clip-path="url(#p8e0edea40f)" style="fill: #1f77b4"/>
   </g>
   <g id="patch_153">
    <path d="M 302.798386 273.312 
L 304.41502 273.312 
L 304.41502 119.437714 
L 302.798386 119.437714 
z
" clip-path="url(#p8e0edea40f)" style="fill: #1f77b4"/>
   </g>
   <g id="patch_154">
    <path d="M 304.41502 273.312 
L 306.031654 273.312 
L 306.031654 132.666725 
L 304.41502 132.666725 
z
" clip-path="url(#p8e0edea40f)" style="fill: #1f77b4"/>
   </g>
   <g id="patch_155">
    <path d="M 306.031654 273.312 
L 307.648288 273.312 
L 307.648288 111.082549 
L 306.031654 111.082549 
z
" clip-path="url(#p8e0edea40f)" style="fill: #1f77b4"/>
   </g>
   <g id="patch_156">
    <path d="M 307.648288 273.312 
L 309.264922 273.312 
L 309.264922 125.704088 
L 307.648288 125.704088 
z
" clip-path="url(#p8e0edea40f)" style="fill: #1f77b4"/>
   </g>
   <g id="patch_157">
    <path d="M 309.264922 273.312 
L 310.881556 273.312 
L 310.881556 140.325626 
L 309.264922 140.325626 
z
" clip-path="url(#p8e0edea40f)" style="fill: #1f77b4"/>
   </g>
   <g id="patch_158">
    <path d="M 310.881556 273.312 
L 312.498189 273.312 
L 312.498189 147.984527 
L 310.881556 147.984527 
z
" clip-path="url(#p8e0edea40f)" style="fill: #1f77b4"/>
   </g>
   <g id="patch_159">
    <path d="M 312.498189 273.312 
L 314.114823 273.312 
L 314.114823 130.577934 
L 312.498189 130.577934 
z
" clip-path="url(#p8e0edea40f)" style="fill: #1f77b4"/>
   </g>
   <g id="patch_160">
    <path d="M 314.114823 273.312 
L 315.731457 273.312 
L 315.731457 134.059253 
L 314.114823 134.059253 
z
" clip-path="url(#p8e0edea40f)" style="fill: #1f77b4"/>
   </g>
   <g id="patch_161">
    <path d="M 315.731457 273.312 
L 317.348091 273.312 
L 317.348091 132.666725 
L 315.731457 132.666725 
z
" clip-path="url(#p8e0edea40f)" style="fill: #1f77b4"/>
   </g>
   <g id="patch_162">
    <path d="M 317.348091 273.312 
L 318.964725 273.312 
L 318.964725 130.577934 
L 317.348091 130.577934 
z
" clip-path="url(#p8e0edea40f)" style="fill: #1f77b4"/>
   </g>
   <g id="patch_163">
    <path d="M 318.964725 273.312 
L 320.581359 273.312 
L 320.581359 154.250901 
L 318.964725 154.250901 
z
" clip-path="url(#p8e0edea40f)" style="fill: #1f77b4"/>
   </g>
   <g id="patch_164">
    <path d="M 320.581359 273.312 
L 322.197993 273.312 
L 322.197993 150.769582 
L 320.581359 150.769582 
z
" clip-path="url(#p8e0edea40f)" style="fill: #1f77b4"/>
   </g>
   <g id="patch_165">
    <path d="M 322.197993 273.312 
L 323.814626 273.312 
L 323.814626 153.554637 
L 322.197993 153.554637 
z
" clip-path="url(#p8e0edea40f)" style="fill: #1f77b4"/>
   </g>
   <g id="patch_166">
    <path d="M 323.814626 273.312 
L 325.43126 273.312 
L 325.43126 152.16211 
L 323.814626 152.16211 
z
" clip-path="url(#p8e0edea40f)" style="fill: #1f77b4"/>
   </g>
   <g id="patch_167">
    <path d="M 325.43126 273.312 
L 327.047894 273.312 
L 327.047894 162.606066 
L 325.43126 162.606066 
z
" clip-path="url(#p8e0edea40f)" style="fill: #1f77b4"/>
   </g>
   <g id="patch_168">
    <path d="M 327.047894 273.312 
L 328.664528 273.312 
L 328.664528 156.339692 
L 327.047894 156.339692 
z
" clip-path="url(#p8e0edea40f)" style="fill: #1f77b4"/>
   </g>
   <g id="patch_169">
    <path d="M 328.664528 273.312 
L 330.281162 273.312 
L 330.281162 167.479912 
L 328.664528 167.479912 
z
" clip-path="url(#p8e0edea40f)" style="fill: #1f77b4"/>
   </g>
   <g id="patch_170">
    <path d="M 330.281162 273.312 
L 331.897796 273.312 
L 331.897796 168.176176 
L 330.281162 168.176176 
z
" clip-path="url(#p8e0edea40f)" style="fill: #1f77b4"/>
   </g>
   <g id="patch_171">
    <path d="M 331.897796 273.312 
L 333.51443 273.312 
L 333.51443 182.797714 
L 331.897796 182.797714 
z
" clip-path="url(#p8e0edea40f)" style="fill: #1f77b4"/>
   </g>
   <g id="patch_172">
    <path d="M 333.51443 273.312 
L 335.131063 273.312 
L 335.131063 173.746286 
L 333.51443 173.746286 
z
" clip-path="url(#p8e0edea40f)" style="fill: #1f77b4"/>
   </g>
   <g id="patch_173">
    <path d="M 335.131063 273.312 
L 336.747697 273.312 
L 336.747697 170.961231 
L 335.131063 170.961231 
z
" clip-path="url(#p8e0edea40f)" style="fill: #1f77b4"/>
   </g>
   <g id="patch_174">
    <path d="M 336.747697 273.312 
L 338.364331 273.312 
L 338.364331 175.835077 
L 336.747697 175.835077 
z
" clip-path="url(#p8e0edea40f)" style="fill: #1f77b4"/>
   </g>
   <g id="patch_175">
    <path d="M 338.364331 273.312 
L 339.980965 273.312 
L 339.980965 180.012659 
L 338.364331 180.012659 
z
" clip-path="url(#p8e0edea40f)" style="fill: #1f77b4"/>
   </g>
   <g id="patch_176">
    <path d="M 339.980965 273.312 
L 341.597599 273.312 
L 341.597599 169.568703 
L 339.980965 169.568703 
z
" clip-path="url(#p8e0edea40f)" style="fill: #1f77b4"/>
   </g>
   <g id="patch_177">
    <path d="M 341.597599 273.312 
L 343.214233 273.312 
L 343.214233 201.596835 
L 341.597599 201.596835 
z
" clip-path="url(#p8e0edea40f)" style="fill: #1f77b4"/>
   </g>
   <g id="patch_178">
    <path d="M 343.214233 273.312 
L 344.830867 273.312 
L 344.830867 193.24167 
L 343.214233 193.24167 
z
" clip-path="url(#p8e0edea40f)" style="fill: #1f77b4"/>
   </g>
   <g id="patch_179">
    <path d="M 344.830867 273.312 
L 346.4475 273.312 
L 346.4475 197.419253 
L 344.830867 197.419253 
z
" clip-path="url(#p8e0edea40f)" style="fill: #1f77b4"/>
   </g>
   <g id="patch_180">
    <path d="M 346.4475 273.312 
L 348.064134 273.312 
L 348.064134 206.470681 
L 346.4475 206.470681 
z
" clip-path="url(#p8e0edea40f)" style="fill: #1f77b4"/>
   </g>
   <g id="patch_181">
    <path d="M 348.064134 273.312 
L 349.680768 273.312 
L 349.680768 201.596835 
L 348.064134 201.596835 
z
" clip-path="url(#p8e0edea40f)" style="fill: #1f77b4"/>
   </g>
   <g id="patch_182">
    <path d="M 349.680768 273.312 
L 351.297402 273.312 
L 351.297402 207.166945 
L 349.680768 207.166945 
z
" clip-path="url(#p8e0edea40f)" style="fill: #1f77b4"/>
   </g>
   <g id="patch_183">
    <path d="M 351.297402 273.312 
L 352.914036 273.312 
L 352.914036 207.863209 
L 351.297402 207.863209 
z
" clip-path="url(#p8e0edea40f)" style="fill: #1f77b4"/>
   </g>
   <g id="patch_184">
    <path d="M 352.914036 273.312 
L 354.53067 273.312 
L 354.53067 216.914637 
L 352.914036 216.914637 
z
" clip-path="url(#p8e0edea40f)" style="fill: #1f77b4"/>
   </g>
   <g id="patch_185">
    <path d="M 354.53067 273.312 
L 356.147304 273.312 
L 356.147304 222.484747 
L 354.53067 222.484747 
z
" clip-path="url(#p8e0edea40f)" style="fill: #1f77b4"/>
   </g>
   <g id="patch_186">
    <path d="M 356.147304 273.312 
L 357.763937 273.312 
L 357.763937 215.52211 
L 356.147304 215.52211 
z
" clip-path="url(#p8e0edea40f)" style="fill: #1f77b4"/>
   </g>
   <g id="patch_187">
    <path d="M 357.763937 273.312 
L 359.380571 273.312 
L 359.380571 222.484747 
L 357.763937 222.484747 
z
" clip-path="url(#p8e0edea40f)" style="fill: #1f77b4"/>
   </g>
   <g id="patch_188">
    <path d="M 359.380571 273.312 
L 360.997205 273.312 
L 360.997205 217.610901 
L 359.380571 217.610901 
z
" clip-path="url(#p8e0edea40f)" style="fill: #1f77b4"/>
   </g>
   <g id="patch_189">
    <path d="M 360.997205 273.312 
L 362.613839 273.312 
L 362.613839 224.573538 
L 360.997205 224.573538 
z
" clip-path="url(#p8e0edea40f)" style="fill: #1f77b4"/>
   </g>
   <g id="patch_190">
    <path d="M 362.613839 273.312 
L 364.230473 273.312 
L 364.230473 226.66233 
L 362.613839 226.66233 
z
" clip-path="url(#p8e0edea40f)" style="fill: #1f77b4"/>
   </g>
   <g id="patch_191">
    <path d="M 364.230473 273.312 
L 365.847107 273.312 
L 365.847107 228.054857 
L 364.230473 228.054857 
z
" clip-path="url(#p8e0edea40f)" style="fill: #1f77b4"/>
   </g>
   <g id="patch_192">
    <path d="M 365.847107 273.312 
L 367.463741 273.312 
L 367.463741 232.928703 
L 365.847107 232.928703 
z
" clip-path="url(#p8e0edea40f)" style="fill: #1f77b4"/>
   </g>
   <g id="patch_193">
    <path d="M 367.463741 273.312 
L 369.080374 273.312 
L 369.080374 238.498813 
L 367.463741 238.498813 
z
" clip-path="url(#p8e0edea40f)" style="fill: #1f77b4"/>
   </g>
   <g id="patch_194">
    <path d="M 369.080374 273.312 
L 370.697008 273.312 
L 370.697008 246.853978 
L 369.080374 246.853978 
z
" clip-path="url(#p8e0edea40f)" style="fill: #1f77b4"/>
   </g>
   <g id="patch_195">
    <path d="M 370.697008 273.312 
L 372.313642 273.312 
L 372.313642 249.639033 
L 370.697008 249.639033 
z
" clip-path="url(#p8e0edea40f)" style="fill: #1f77b4"/>
   </g>
   <g id="patch_196">
    <path d="M 372.313642 273.312 
L 373.930276 273.312 
L 373.930276 246.853978 
L 372.313642 246.853978 
z
" clip-path="url(#p8e0edea40f)" style="fill: #1f77b4"/>
   </g>
   <g id="patch_197">
    <path d="M 373.930276 273.312 
L 375.54691 273.312 
L 375.54691 253.120352 
L 373.930276 253.120352 
z
" clip-path="url(#p8e0edea40f)" style="fill: #1f77b4"/>
   </g>
   <g id="patch_198">
    <path d="M 375.54691 273.312 
L 377.163544 273.312 
L 377.163544 257.297934 
L 375.54691 257.297934 
z
" clip-path="url(#p8e0edea40f)" style="fill: #1f77b4"/>
   </g>
   <g id="patch_199">
    <path d="M 377.163544 273.312 
L 378.780178 273.312 
L 378.780178 259.386725 
L 377.163544 259.386725 
z
" clip-path="url(#p8e0edea40f)" style="fill: #1f77b4"/>
   </g>
   <g id="patch_200">
    <path d="M 378.780178 273.312 
L 380.396811 273.312 
L 380.396811 262.868044 
L 378.780178 262.868044 
z
" clip-path="url(#p8e0edea40f)" style="fill: #1f77b4"/>
   </g>
   <g id="patch_201">
    <path d="M 380.396811 273.312 
L 382.013445 273.312 
L 382.013445 266.349363 
L 380.396811 266.349363 
z
" clip-path="url(#p8e0edea40f)" style="fill: #1f77b4"/>
   </g>
   <g id="patch_202">
    <path d="M 382.013445 273.312 
L 383.630079 273.312 
L 383.630079 271.223209 
L 382.013445 271.223209 
z
" clip-path="url(#p8e0edea40f)" style="fill: #1f77b4"/>
   </g>
   <g id="matplotlib.axis_1">
    <g id="xtick_1">
     <g id="line2d_1">
      <defs>
       <path id="m37ef175d1f" d="M 0 0 
L 0 3.5 
" style="stroke: #000000; stroke-width: 0.8"/>
      </defs>
      <g>
       <use xlink:href="#m37ef175d1f" x="60.013977" y="273.312" style="stroke: #000000; stroke-width: 0.8"/>
      </g>
     </g>
     <g id="text_1">
      <!-- 0.0 -->
      <g transform="translate(52.062415 287.910437)scale(0.1 -0.1)">
       <defs>
        <path id="DejaVuSans-30" d="M 2034 4250 
Q 1547 4250 1301 3770 
Q 1056 3291 1056 2328 
Q 1056 1369 1301 889 
Q 1547 409 2034 409 
Q 2525 409 2770 889 
Q 3016 1369 3016 2328 
Q 3016 3291 2770 3770 
Q 2525 4250 2034 4250 
z
M 2034 4750 
Q 2819 4750 3233 4129 
Q 3647 3509 3647 2328 
Q 3647 1150 3233 529 
Q 2819 -91 2034 -91 
Q 1250 -91 836 529 
Q 422 1150 422 2328 
Q 422 3509 836 4129 
Q 1250 4750 2034 4750 
z
" transform="scale(0.015625)"/>
        <path id="DejaVuSans-2e" d="M 684 794 
L 1344 794 
L 1344 0 
L 684 0 
L 684 794 
z
" transform="scale(0.015625)"/>
       </defs>
       <use xlink:href="#DejaVuSans-30"/>
       <use xlink:href="#DejaVuSans-2e" x="63.623047"/>
       <use xlink:href="#DejaVuSans-30" x="95.410156"/>
      </g>
     </g>
    </g>
    <g id="xtick_2">
     <g id="line2d_2">
      <g>
       <use xlink:href="#m37ef175d1f" x="101.350278" y="273.312" style="stroke: #000000; stroke-width: 0.8"/>
      </g>
     </g>
     <g id="text_2">
      <!-- 0.2 -->
      <g transform="translate(93.398715 287.910437)scale(0.1 -0.1)">
       <defs>
        <path id="DejaVuSans-32" d="M 1228 531 
L 3431 531 
L 3431 0 
L 469 0 
L 469 531 
Q 828 903 1448 1529 
Q 2069 2156 2228 2338 
Q 2531 2678 2651 2914 
Q 2772 3150 2772 3378 
Q 2772 3750 2511 3984 
Q 2250 4219 1831 4219 
Q 1534 4219 1204 4116 
Q 875 4013 500 3803 
L 500 4441 
Q 881 4594 1212 4672 
Q 1544 4750 1819 4750 
Q 2544 4750 2975 4387 
Q 3406 4025 3406 3419 
Q 3406 3131 3298 2873 
Q 3191 2616 2906 2266 
Q 2828 2175 2409 1742 
Q 1991 1309 1228 531 
z
" transform="scale(0.015625)"/>
       </defs>
       <use xlink:href="#DejaVuSans-30"/>
       <use xlink:href="#DejaVuSans-2e" x="63.623047"/>
       <use xlink:href="#DejaVuSans-32" x="95.410156"/>
      </g>
     </g>
    </g>
    <g id="xtick_3">
     <g id="line2d_3">
      <g>
       <use xlink:href="#m37ef175d1f" x="142.686578" y="273.312" style="stroke: #000000; stroke-width: 0.8"/>
      </g>
     </g>
     <g id="text_3">
      <!-- 0.4 -->
      <g transform="translate(134.735016 287.910437)scale(0.1 -0.1)">
       <defs>
        <path id="DejaVuSans-34" d="M 2419 4116 
L 825 1625 
L 2419 1625 
L 2419 4116 
z
M 2253 4666 
L 3047 4666 
L 3047 1625 
L 3713 1625 
L 3713 1100 
L 3047 1100 
L 3047 0 
L 2419 0 
L 2419 1100 
L 313 1100 
L 313 1709 
L 2253 4666 
z
" transform="scale(0.015625)"/>
       </defs>
       <use xlink:href="#DejaVuSans-30"/>
       <use xlink:href="#DejaVuSans-2e" x="63.623047"/>
       <use xlink:href="#DejaVuSans-34" x="95.410156"/>
      </g>
     </g>
    </g>
    <g id="xtick_4">
     <g id="line2d_4">
      <g>
       <use xlink:href="#m37ef175d1f" x="184.022879" y="273.312" style="stroke: #000000; stroke-width: 0.8"/>
      </g>
     </g>
     <g id="text_4">
      <!-- 0.6 -->
      <g transform="translate(176.071316 287.910437)scale(0.1 -0.1)">
       <defs>
        <path id="DejaVuSans-36" d="M 2113 2584 
Q 1688 2584 1439 2293 
Q 1191 2003 1191 1497 
Q 1191 994 1439 701 
Q 1688 409 2113 409 
Q 2538 409 2786 701 
Q 3034 994 3034 1497 
Q 3034 2003 2786 2293 
Q 2538 2584 2113 2584 
z
M 3366 4563 
L 3366 3988 
Q 3128 4100 2886 4159 
Q 2644 4219 2406 4219 
Q 1781 4219 1451 3797 
Q 1122 3375 1075 2522 
Q 1259 2794 1537 2939 
Q 1816 3084 2150 3084 
Q 2853 3084 3261 2657 
Q 3669 2231 3669 1497 
Q 3669 778 3244 343 
Q 2819 -91 2113 -91 
Q 1303 -91 875 529 
Q 447 1150 447 2328 
Q 447 3434 972 4092 
Q 1497 4750 2381 4750 
Q 2619 4750 2861 4703 
Q 3103 4656 3366 4563 
z
" transform="scale(0.015625)"/>
       </defs>
       <use xlink:href="#DejaVuSans-30"/>
       <use xlink:href="#DejaVuSans-2e" x="63.623047"/>
       <use xlink:href="#DejaVuSans-36" x="95.410156"/>
      </g>
     </g>
    </g>
    <g id="xtick_5">
     <g id="line2d_5">
      <g>
       <use xlink:href="#m37ef175d1f" x="225.35918" y="273.312" style="stroke: #000000; stroke-width: 0.8"/>
      </g>
     </g>
     <g id="text_5">
      <!-- 0.8 -->
      <g transform="translate(217.407617 287.910437)scale(0.1 -0.1)">
       <defs>
        <path id="DejaVuSans-38" d="M 2034 2216 
Q 1584 2216 1326 1975 
Q 1069 1734 1069 1313 
Q 1069 891 1326 650 
Q 1584 409 2034 409 
Q 2484 409 2743 651 
Q 3003 894 3003 1313 
Q 3003 1734 2745 1975 
Q 2488 2216 2034 2216 
z
M 1403 2484 
Q 997 2584 770 2862 
Q 544 3141 544 3541 
Q 544 4100 942 4425 
Q 1341 4750 2034 4750 
Q 2731 4750 3128 4425 
Q 3525 4100 3525 3541 
Q 3525 3141 3298 2862 
Q 3072 2584 2669 2484 
Q 3125 2378 3379 2068 
Q 3634 1759 3634 1313 
Q 3634 634 3220 271 
Q 2806 -91 2034 -91 
Q 1263 -91 848 271 
Q 434 634 434 1313 
Q 434 1759 690 2068 
Q 947 2378 1403 2484 
z
M 1172 3481 
Q 1172 3119 1398 2916 
Q 1625 2713 2034 2713 
Q 2441 2713 2670 2916 
Q 2900 3119 2900 3481 
Q 2900 3844 2670 4047 
Q 2441 4250 2034 4250 
Q 1625 4250 1398 4047 
Q 1172 3844 1172 3481 
z
" transform="scale(0.015625)"/>
       </defs>
       <use xlink:href="#DejaVuSans-30"/>
       <use xlink:href="#DejaVuSans-2e" x="63.623047"/>
       <use xlink:href="#DejaVuSans-38" x="95.410156"/>
      </g>
     </g>
    </g>
    <g id="xtick_6">
     <g id="line2d_6">
      <g>
       <use xlink:href="#m37ef175d1f" x="266.69548" y="273.312" style="stroke: #000000; stroke-width: 0.8"/>
      </g>
     </g>
     <g id="text_6">
      <!-- 1.0 -->
      <g transform="translate(258.743918 287.910437)scale(0.1 -0.1)">
       <defs>
        <path id="DejaVuSans-31" d="M 794 531 
L 1825 531 
L 1825 4091 
L 703 3866 
L 703 4441 
L 1819 4666 
L 2450 4666 
L 2450 531 
L 3481 531 
L 3481 0 
L 794 0 
L 794 531 
z
" transform="scale(0.015625)"/>
       </defs>
       <use xlink:href="#DejaVuSans-31"/>
       <use xlink:href="#DejaVuSans-2e" x="63.623047"/>
       <use xlink:href="#DejaVuSans-30" x="95.410156"/>
      </g>
     </g>
    </g>
    <g id="xtick_7">
     <g id="line2d_7">
      <g>
       <use xlink:href="#m37ef175d1f" x="308.031781" y="273.312" style="stroke: #000000; stroke-width: 0.8"/>
      </g>
     </g>
     <g id="text_7">
      <!-- 1.2 -->
      <g transform="translate(300.080218 287.910437)scale(0.1 -0.1)">
       <use xlink:href="#DejaVuSans-31"/>
       <use xlink:href="#DejaVuSans-2e" x="63.623047"/>
       <use xlink:href="#DejaVuSans-32" x="95.410156"/>
      </g>
     </g>
    </g>
    <g id="xtick_8">
     <g id="line2d_8">
      <g>
       <use xlink:href="#m37ef175d1f" x="349.368081" y="273.312" style="stroke: #000000; stroke-width: 0.8"/>
      </g>
     </g>
     <g id="text_8">
      <!-- 1.4 -->
      <g transform="translate(341.416519 287.910437)scale(0.1 -0.1)">
       <use xlink:href="#DejaVuSans-31"/>
       <use xlink:href="#DejaVuSans-2e" x="63.623047"/>
       <use xlink:href="#DejaVuSans-34" x="95.410156"/>
      </g>
     </g>
    </g>
    <g id="xtick_9">
     <g id="line2d_9">
      <g>
       <use xlink:href="#m37ef175d1f" x="390.704382" y="273.312" style="stroke: #000000; stroke-width: 0.8"/>
      </g>
     </g>
     <g id="text_9">
      <!-- 1.6 -->
      <g transform="translate(382.752819 287.910437)scale(0.1 -0.1)">
       <use xlink:href="#DejaVuSans-31"/>
       <use xlink:href="#DejaVuSans-2e" x="63.623047"/>
       <use xlink:href="#DejaVuSans-36" x="95.410156"/>
      </g>
     </g>
    </g>
    <g id="text_10">
     <!-- Angle with normal (rad) -->
     <g transform="translate(163.023281 301.588562)scale(0.1 -0.1)">
      <defs>
       <path id="DejaVuSans-41" d="M 2188 4044 
L 1331 1722 
L 3047 1722 
L 2188 4044 
z
M 1831 4666 
L 2547 4666 
L 4325 0 
L 3669 0 
L 3244 1197 
L 1141 1197 
L 716 0 
L 50 0 
L 1831 4666 
z
" transform="scale(0.015625)"/>
       <path id="DejaVuSans-6e" d="M 3513 2113 
L 3513 0 
L 2938 0 
L 2938 2094 
Q 2938 2591 2744 2837 
Q 2550 3084 2163 3084 
Q 1697 3084 1428 2787 
Q 1159 2491 1159 1978 
L 1159 0 
L 581 0 
L 581 3500 
L 1159 3500 
L 1159 2956 
Q 1366 3272 1645 3428 
Q 1925 3584 2291 3584 
Q 2894 3584 3203 3211 
Q 3513 2838 3513 2113 
z
" transform="scale(0.015625)"/>
       <path id="DejaVuSans-67" d="M 2906 1791 
Q 2906 2416 2648 2759 
Q 2391 3103 1925 3103 
Q 1463 3103 1205 2759 
Q 947 2416 947 1791 
Q 947 1169 1205 825 
Q 1463 481 1925 481 
Q 2391 481 2648 825 
Q 2906 1169 2906 1791 
z
M 3481 434 
Q 3481 -459 3084 -895 
Q 2688 -1331 1869 -1331 
Q 1566 -1331 1297 -1286 
Q 1028 -1241 775 -1147 
L 775 -588 
Q 1028 -725 1275 -790 
Q 1522 -856 1778 -856 
Q 2344 -856 2625 -561 
Q 2906 -266 2906 331 
L 2906 616 
Q 2728 306 2450 153 
Q 2172 0 1784 0 
Q 1141 0 747 490 
Q 353 981 353 1791 
Q 353 2603 747 3093 
Q 1141 3584 1784 3584 
Q 2172 3584 2450 3431 
Q 2728 3278 2906 2969 
L 2906 3500 
L 3481 3500 
L 3481 434 
z
" transform="scale(0.015625)"/>
       <path id="DejaVuSans-6c" d="M 603 4863 
L 1178 4863 
L 1178 0 
L 603 0 
L 603 4863 
z
" transform="scale(0.015625)"/>
       <path id="DejaVuSans-65" d="M 3597 1894 
L 3597 1613 
L 953 1613 
Q 991 1019 1311 708 
Q 1631 397 2203 397 
Q 2534 397 2845 478 
Q 3156 559 3463 722 
L 3463 178 
Q 3153 47 2828 -22 
Q 2503 -91 2169 -91 
Q 1331 -91 842 396 
Q 353 884 353 1716 
Q 353 2575 817 3079 
Q 1281 3584 2069 3584 
Q 2775 3584 3186 3129 
Q 3597 2675 3597 1894 
z
M 3022 2063 
Q 3016 2534 2758 2815 
Q 2500 3097 2075 3097 
Q 1594 3097 1305 2825 
Q 1016 2553 972 2059 
L 3022 2063 
z
" transform="scale(0.015625)"/>
       <path id="DejaVuSans-20" transform="scale(0.015625)"/>
       <path id="DejaVuSans-77" d="M 269 3500 
L 844 3500 
L 1563 769 
L 2278 3500 
L 2956 3500 
L 3675 769 
L 4391 3500 
L 4966 3500 
L 4050 0 
L 3372 0 
L 2619 2869 
L 1863 0 
L 1184 0 
L 269 3500 
z
" transform="scale(0.015625)"/>
       <path id="DejaVuSans-69" d="M 603 3500 
L 1178 3500 
L 1178 0 
L 603 0 
L 603 3500 
z
M 603 4863 
L 1178 4863 
L 1178 4134 
L 603 4134 
L 603 4863 
z
" transform="scale(0.015625)"/>
       <path id="DejaVuSans-74" d="M 1172 4494 
L 1172 3500 
L 2356 3500 
L 2356 3053 
L 1172 3053 
L 1172 1153 
Q 1172 725 1289 603 
Q 1406 481 1766 481 
L 2356 481 
L 2356 0 
L 1766 0 
Q 1100 0 847 248 
Q 594 497 594 1153 
L 594 3053 
L 172 3053 
L 172 3500 
L 594 3500 
L 594 4494 
L 1172 4494 
z
" transform="scale(0.015625)"/>
       <path id="DejaVuSans-68" d="M 3513 2113 
L 3513 0 
L 2938 0 
L 2938 2094 
Q 2938 2591 2744 2837 
Q 2550 3084 2163 3084 
Q 1697 3084 1428 2787 
Q 1159 2491 1159 1978 
L 1159 0 
L 581 0 
L 581 4863 
L 1159 4863 
L 1159 2956 
Q 1366 3272 1645 3428 
Q 1925 3584 2291 3584 
Q 2894 3584 3203 3211 
Q 3513 2838 3513 2113 
z
" transform="scale(0.015625)"/>
       <path id="DejaVuSans-6f" d="M 1959 3097 
Q 1497 3097 1228 2736 
Q 959 2375 959 1747 
Q 959 1119 1226 758 
Q 1494 397 1959 397 
Q 2419 397 2687 759 
Q 2956 1122 2956 1747 
Q 2956 2369 2687 2733 
Q 2419 3097 1959 3097 
z
M 1959 3584 
Q 2709 3584 3137 3096 
Q 3566 2609 3566 1747 
Q 3566 888 3137 398 
Q 2709 -91 1959 -91 
Q 1206 -91 779 398 
Q 353 888 353 1747 
Q 353 2609 779 3096 
Q 1206 3584 1959 3584 
z
" transform="scale(0.015625)"/>
       <path id="DejaVuSans-72" d="M 2631 2963 
Q 2534 3019 2420 3045 
Q 2306 3072 2169 3072 
Q 1681 3072 1420 2755 
Q 1159 2438 1159 1844 
L 1159 0 
L 581 0 
L 581 3500 
L 1159 3500 
L 1159 2956 
Q 1341 3275 1631 3429 
Q 1922 3584 2338 3584 
Q 2397 3584 2469 3576 
Q 2541 3569 2628 3553 
L 2631 2963 
z
" transform="scale(0.015625)"/>
       <path id="DejaVuSans-6d" d="M 3328 2828 
Q 3544 3216 3844 3400 
Q 4144 3584 4550 3584 
Q 5097 3584 5394 3201 
Q 5691 2819 5691 2113 
L 5691 0 
L 5113 0 
L 5113 2094 
Q 5113 2597 4934 2840 
Q 4756 3084 4391 3084 
Q 3944 3084 3684 2787 
Q 3425 2491 3425 1978 
L 3425 0 
L 2847 0 
L 2847 2094 
Q 2847 2600 2669 2842 
Q 2491 3084 2119 3084 
Q 1678 3084 1418 2786 
Q 1159 2488 1159 1978 
L 1159 0 
L 581 0 
L 581 3500 
L 1159 3500 
L 1159 2956 
Q 1356 3278 1631 3431 
Q 1906 3584 2284 3584 
Q 2666 3584 2933 3390 
Q 3200 3197 3328 2828 
z
" transform="scale(0.015625)"/>
       <path id="DejaVuSans-61" d="M 2194 1759 
Q 1497 1759 1228 1600 
Q 959 1441 959 1056 
Q 959 750 1161 570 
Q 1363 391 1709 391 
Q 2188 391 2477 730 
Q 2766 1069 2766 1631 
L 2766 1759 
L 2194 1759 
z
M 3341 1997 
L 3341 0 
L 2766 0 
L 2766 531 
Q 2569 213 2275 61 
Q 1981 -91 1556 -91 
Q 1019 -91 701 211 
Q 384 513 384 1019 
Q 384 1609 779 1909 
Q 1175 2209 1959 2209 
L 2766 2209 
L 2766 2266 
Q 2766 2663 2505 2880 
Q 2244 3097 1772 3097 
Q 1472 3097 1187 3025 
Q 903 2953 641 2809 
L 641 3341 
Q 956 3463 1253 3523 
Q 1550 3584 1831 3584 
Q 2591 3584 2966 3190 
Q 3341 2797 3341 1997 
z
" transform="scale(0.015625)"/>
       <path id="DejaVuSans-28" d="M 1984 4856 
Q 1566 4138 1362 3434 
Q 1159 2731 1159 2009 
Q 1159 1288 1364 580 
Q 1569 -128 1984 -844 
L 1484 -844 
Q 1016 -109 783 600 
Q 550 1309 550 2009 
Q 550 2706 781 3412 
Q 1013 4119 1484 4856 
L 1984 4856 
z
" transform="scale(0.015625)"/>
       <path id="DejaVuSans-64" d="M 2906 2969 
L 2906 4863 
L 3481 4863 
L 3481 0 
L 2906 0 
L 2906 525 
Q 2725 213 2448 61 
Q 2172 -91 1784 -91 
Q 1150 -91 751 415 
Q 353 922 353 1747 
Q 353 2572 751 3078 
Q 1150 3584 1784 3584 
Q 2172 3584 2448 3432 
Q 2725 3281 2906 2969 
z
M 947 1747 
Q 947 1113 1208 752 
Q 1469 391 1925 391 
Q 2381 391 2643 752 
Q 2906 1113 2906 1747 
Q 2906 2381 2643 2742 
Q 2381 3103 1925 3103 
Q 1469 3103 1208 2742 
Q 947 2381 947 1747 
z
" transform="scale(0.015625)"/>
       <path id="DejaVuSans-29" d="M 513 4856 
L 1013 4856 
Q 1481 4119 1714 3412 
Q 1947 2706 1947 2009 
Q 1947 1309 1714 600 
Q 1481 -109 1013 -844 
L 513 -844 
Q 928 -128 1133 580 
Q 1338 1288 1338 2009 
Q 1338 2731 1133 3434 
Q 928 4138 513 4856 
z
" transform="scale(0.015625)"/>
      </defs>
      <use xlink:href="#DejaVuSans-41"/>
      <use xlink:href="#DejaVuSans-6e" x="68.408203"/>
      <use xlink:href="#DejaVuSans-67" x="131.787109"/>
      <use xlink:href="#DejaVuSans-6c" x="195.263672"/>
      <use xlink:href="#DejaVuSans-65" x="223.046875"/>
      <use xlink:href="#DejaVuSans-20" x="284.570312"/>
      <use xlink:href="#DejaVuSans-77" x="316.357422"/>
      <use xlink:href="#DejaVuSans-69" x="398.144531"/>
      <use xlink:href="#DejaVuSans-74" x="425.927734"/>
      <use xlink:href="#DejaVuSans-68" x="465.136719"/>
      <use xlink:href="#DejaVuSans-20" x="528.515625"/>
      <use xlink:href="#DejaVuSans-6e" x="560.302734"/>
      <use xlink:href="#DejaVuSans-6f" x="623.681641"/>
      <use xlink:href="#DejaVuSans-72" x="684.863281"/>
      <use xlink:href="#DejaVuSans-6d" x="724.226562"/>
      <use xlink:href="#DejaVuSans-61" x="821.638672"/>
      <use xlink:href="#DejaVuSans-6c" x="882.917969"/>
      <use xlink:href="#DejaVuSans-20" x="910.701172"/>
      <use xlink:href="#DejaVuSans-28" x="942.488281"/>
      <use xlink:href="#DejaVuSans-72" x="981.501953"/>
      <use xlink:href="#DejaVuSans-61" x="1022.615234"/>
      <use xlink:href="#DejaVuSans-64" x="1083.894531"/>
      <use xlink:href="#DejaVuSans-29" x="1147.371094"/>
     </g>
    </g>
   </g>
   <g id="matplotlib.axis_2">
    <g id="ytick_1">
     <g id="line2d_10">
      <defs>
       <path id="m97c61f7d9f" d="M 0 0 
L -3.5 0 
" style="stroke: #000000; stroke-width: 0.8"/>
      </defs>
      <g>
       <use xlink:href="#m97c61f7d9f" x="43.78125" y="273.312" style="stroke: #000000; stroke-width: 0.8"/>
      </g>
     </g>
     <g id="text_11">
      <!-- 0.0 -->
      <g transform="translate(20.878125 277.111219)scale(0.1 -0.1)">
       <use xlink:href="#DejaVuSans-30"/>
       <use xlink:href="#DejaVuSans-2e" x="63.623047"/>
       <use xlink:href="#DejaVuSans-30" x="95.410156"/>
      </g>
     </g>
    </g>
    <g id="ytick_2">
     <g id="line2d_11">
      <g>
       <use xlink:href="#m97c61f7d9f" x="43.78125" y="229.743378" style="stroke: #000000; stroke-width: 0.8"/>
      </g>
     </g>
     <g id="text_12">
      <!-- 0.2 -->
      <g transform="translate(20.878125 233.542597)scale(0.1 -0.1)">
       <use xlink:href="#DejaVuSans-30"/>
       <use xlink:href="#DejaVuSans-2e" x="63.623047"/>
       <use xlink:href="#DejaVuSans-32" x="95.410156"/>
      </g>
     </g>
    </g>
    <g id="ytick_3">
     <g id="line2d_12">
      <g>
       <use xlink:href="#m97c61f7d9f" x="43.78125" y="186.174756" style="stroke: #000000; stroke-width: 0.8"/>
      </g>
     </g>
     <g id="text_13">
      <!-- 0.4 -->
      <g transform="translate(20.878125 189.973975)scale(0.1 -0.1)">
       <use xlink:href="#DejaVuSans-30"/>
       <use xlink:href="#DejaVuSans-2e" x="63.623047"/>
       <use xlink:href="#DejaVuSans-34" x="95.410156"/>
      </g>
     </g>
    </g>
    <g id="ytick_4">
     <g id="line2d_13">
      <g>
       <use xlink:href="#m97c61f7d9f" x="43.78125" y="142.606135" style="stroke: #000000; stroke-width: 0.8"/>
      </g>
     </g>
     <g id="text_14">
      <!-- 0.6 -->
      <g transform="translate(20.878125 146.405353)scale(0.1 -0.1)">
       <use xlink:href="#DejaVuSans-30"/>
       <use xlink:href="#DejaVuSans-2e" x="63.623047"/>
       <use xlink:href="#DejaVuSans-36" x="95.410156"/>
      </g>
     </g>
    </g>
    <g id="ytick_5">
     <g id="line2d_14">
      <g>
       <use xlink:href="#m97c61f7d9f" x="43.78125" y="99.037513" style="stroke: #000000; stroke-width: 0.8"/>
      </g>
     </g>
     <g id="text_15">
      <!-- 0.8 -->
      <g transform="translate(20.878125 102.836732)scale(0.1 -0.1)">
       <use xlink:href="#DejaVuSans-30"/>
       <use xlink:href="#DejaVuSans-2e" x="63.623047"/>
       <use xlink:href="#DejaVuSans-38" x="95.410156"/>
      </g>
     </g>
    </g>
    <g id="ytick_6">
     <g id="line2d_15">
      <g>
       <use xlink:href="#m97c61f7d9f" x="43.78125" y="55.468891" style="stroke: #000000; stroke-width: 0.8"/>
      </g>
     </g>
     <g id="text_16">
      <!-- 1.0 -->
      <g transform="translate(20.878125 59.26811)scale(0.1 -0.1)">
       <use xlink:href="#DejaVuSans-31"/>
       <use xlink:href="#DejaVuSans-2e" x="63.623047"/>
       <use xlink:href="#DejaVuSans-30" x="95.410156"/>
      </g>
     </g>
    </g>
    <g id="ytick_7">
     <g id="line2d_16">
      <g>
       <use xlink:href="#m97c61f7d9f" x="43.78125" y="11.900269" style="stroke: #000000; stroke-width: 0.8"/>
      </g>
     </g>
     <g id="text_17">
      <!-- 1.2 -->
      <g transform="translate(20.878125 15.699488)scale(0.1 -0.1)">
       <use xlink:href="#DejaVuSans-31"/>
       <use xlink:href="#DejaVuSans-2e" x="63.623047"/>
       <use xlink:href="#DejaVuSans-32" x="95.410156"/>
      </g>
     </g>
    </g>
    <g id="text_18">
     <!-- Probability density -->
     <g transform="translate(14.798438 186.606781)rotate(-90)scale(0.1 -0.1)">
      <defs>
       <path id="DejaVuSans-50" d="M 1259 4147 
L 1259 2394 
L 2053 2394 
Q 2494 2394 2734 2622 
Q 2975 2850 2975 3272 
Q 2975 3691 2734 3919 
Q 2494 4147 2053 4147 
L 1259 4147 
z
M 628 4666 
L 2053 4666 
Q 2838 4666 3239 4311 
Q 3641 3956 3641 3272 
Q 3641 2581 3239 2228 
Q 2838 1875 2053 1875 
L 1259 1875 
L 1259 0 
L 628 0 
L 628 4666 
z
" transform="scale(0.015625)"/>
       <path id="DejaVuSans-62" d="M 3116 1747 
Q 3116 2381 2855 2742 
Q 2594 3103 2138 3103 
Q 1681 3103 1420 2742 
Q 1159 2381 1159 1747 
Q 1159 1113 1420 752 
Q 1681 391 2138 391 
Q 2594 391 2855 752 
Q 3116 1113 3116 1747 
z
M 1159 2969 
Q 1341 3281 1617 3432 
Q 1894 3584 2278 3584 
Q 2916 3584 3314 3078 
Q 3713 2572 3713 1747 
Q 3713 922 3314 415 
Q 2916 -91 2278 -91 
Q 1894 -91 1617 61 
Q 1341 213 1159 525 
L 1159 0 
L 581 0 
L 581 4863 
L 1159 4863 
L 1159 2969 
z
" transform="scale(0.015625)"/>
       <path id="DejaVuSans-79" d="M 2059 -325 
Q 1816 -950 1584 -1140 
Q 1353 -1331 966 -1331 
L 506 -1331 
L 506 -850 
L 844 -850 
Q 1081 -850 1212 -737 
Q 1344 -625 1503 -206 
L 1606 56 
L 191 3500 
L 800 3500 
L 1894 763 
L 2988 3500 
L 3597 3500 
L 2059 -325 
z
" transform="scale(0.015625)"/>
       <path id="DejaVuSans-73" d="M 2834 3397 
L 2834 2853 
Q 2591 2978 2328 3040 
Q 2066 3103 1784 3103 
Q 1356 3103 1142 2972 
Q 928 2841 928 2578 
Q 928 2378 1081 2264 
Q 1234 2150 1697 2047 
L 1894 2003 
Q 2506 1872 2764 1633 
Q 3022 1394 3022 966 
Q 3022 478 2636 193 
Q 2250 -91 1575 -91 
Q 1294 -91 989 -36 
Q 684 19 347 128 
L 347 722 
Q 666 556 975 473 
Q 1284 391 1588 391 
Q 1994 391 2212 530 
Q 2431 669 2431 922 
Q 2431 1156 2273 1281 
Q 2116 1406 1581 1522 
L 1381 1569 
Q 847 1681 609 1914 
Q 372 2147 372 2553 
Q 372 3047 722 3315 
Q 1072 3584 1716 3584 
Q 2034 3584 2315 3537 
Q 2597 3491 2834 3397 
z
" transform="scale(0.015625)"/>
      </defs>
      <use xlink:href="#DejaVuSans-50"/>
      <use xlink:href="#DejaVuSans-72" x="58.552734"/>
      <use xlink:href="#DejaVuSans-6f" x="97.416016"/>
      <use xlink:href="#DejaVuSans-62" x="158.597656"/>
      <use xlink:href="#DejaVuSans-61" x="222.074219"/>
      <use xlink:href="#DejaVuSans-62" x="283.353516"/>
      <use xlink:href="#DejaVuSans-69" x="346.830078"/>
      <use xlink:href="#DejaVuSans-6c" x="374.613281"/>
      <use xlink:href="#DejaVuSans-69" x="402.396484"/>
      <use xlink:href="#DejaVuSans-74" x="430.179688"/>
      <use xlink:href="#DejaVuSans-79" x="469.388672"/>
      <use xlink:href="#DejaVuSans-20" x="528.568359"/>
      <use xlink:href="#DejaVuSans-64" x="560.355469"/>
      <use xlink:href="#DejaVuSans-65" x="623.832031"/>
      <use xlink:href="#DejaVuSans-6e" x="685.355469"/>
      <use xlink:href="#DejaVuSans-73" x="748.734375"/>
      <use xlink:href="#DejaVuSans-69" x="800.833984"/>
      <use xlink:href="#DejaVuSans-74" x="828.617188"/>
      <use xlink:href="#DejaVuSans-79" x="867.826172"/>
     </g>
    </g>
   </g>
   <g id="line2d_17">
    <path d="M 60.013977 273.312 
L 79.837728 231.779199 
L 90.237073 210.50583 
L 99.01152 193.042174 
L 106.811029 178.000627 
L 113.960578 164.687219 
L 120.460169 153.03349 
L 126.63478 142.402313 
L 132.484411 132.761056 
L 138.009063 124.06832 
L 143.208736 116.276044 
L 148.408408 108.881249 
L 153.283101 102.326281 
L 158.157794 96.151705 
L 162.707507 90.744095 
L 167.257221 85.690303 
L 171.481954 81.322879 
L 175.706688 77.276282 
L 179.606442 73.831578 
L 183.506197 70.670913 
L 187.405951 67.79879 
L 191.305705 65.219296 
L 194.88048 63.114973 
L 198.455255 61.262149 
L 202.03003 59.663042 
L 205.604804 58.319565 
L 209.179579 57.233325 
L 212.429374 56.470157 
L 215.67917 55.921413 
L 218.928965 55.587638 
L 222.17876 55.46916 
L 225.428555 55.566098 
L 228.678351 55.878355 
L 231.928146 56.405623 
L 235.177941 57.147379 
L 238.427736 58.102892 
L 242.002511 59.399709 
L 245.577286 60.952471 
L 249.152061 62.759321 
L 252.726836 64.818095 
L 256.30161 67.126332 
L 260.201365 69.925665 
L 264.101119 73.0146 
L 268.000873 76.388739 
L 271.900628 80.043277 
L 276.125361 84.312737 
L 280.350095 88.898029 
L 284.899809 94.180443 
L 289.449522 99.810015 
L 294.324215 106.214529 
L 299.198908 112.990785 
L 304.39858 120.611532 
L 309.598252 128.618786 
L 315.122904 137.527304 
L 320.972536 147.382179 
L 327.147147 158.221523 
L 333.646737 170.074359 
L 340.796287 183.582151 
L 348.595795 198.805269 
L 357.370243 216.433924 
L 367.769587 237.847466 
L 382.718646 269.201888 
L 384.668523 273.312 
L 384.668523 273.312 
" clip-path="url(#p8e0edea40f)" style="fill: none; stroke: #ff7f0e; stroke-width: 1.5; stroke-linecap: square"/>
   </g>
   <g id="patch_203">
    <path d="M 43.78125 273.312 
L 43.78125 7.2 
" style="fill: none; stroke: #000000; stroke-width: 0.8; stroke-linejoin: miter; stroke-linecap: square"/>
   </g>
   <g id="patch_204">
    <path d="M 400.90125 273.312 
L 400.90125 7.2 
" style="fill: none; stroke: #000000; stroke-width: 0.8; stroke-linejoin: miter; stroke-linecap: square"/>
   </g>
   <g id="patch_205">
    <path d="M 43.78125 273.312 
L 400.90125 273.312 
" style="fill: none; stroke: #000000; stroke-width: 0.8; stroke-linejoin: miter; stroke-linecap: square"/>
   </g>
   <g id="patch_206">
    <path d="M 43.78125 7.2 
L 400.90125 7.2 
" style="fill: none; stroke: #000000; stroke-width: 0.8; stroke-linejoin: miter; stroke-linecap: square"/>
   </g>
  </g>
 </g>
 <defs>
  <clipPath id="p8e0edea40f">
   <rect x="43.78125" y="7.2" width="357.12" height="266.112"/>
  </clipPath>
 </defs>
</svg>
