<?xml version="1.0" encoding="utf-8" standalone="no"?>
<!DOCTYPE svg PUBLIC "-//W3C//DTD SVG 1.1//EN"
  "http://www.w3.org/Graphics/SVG/1.1/DTD/svg11.dtd">
<svg xmlns:xlink="http://www.w3.org/1999/xlink" width="408.10125pt" height="310.86825pt" viewBox="0 0 408.10125 310.86825" xmlns="http://www.w3.org/2000/svg" version="1.1">
 <metadata>
  <rdf:RDF xmlns:dc="http://purl.org/dc/elements/1.1/" xmlns:cc="http://creativecommons.org/ns#" xmlns:rdf="http://www.w3.org/1999/02/22-rdf-syntax-ns#">
   <cc:Work>
    <dc:type rdf:resource="http://purl.org/dc/dcmitype/StillImage"/>
    <dc:date>2023-02-06T15:11:51.661719</dc:date>
    <dc:format>image/svg+xml</dc:format>
    <dc:creator>
     <cc:Agent>
      <dc:title>Matplotlib v3.5.3, https://matplotlib.org/</dc:title>
     </cc:Agent>
    </dc:creator>
   </cc:Work>
  </rdf:RDF>
 </metadata>
 <defs>
  <style type="text/css">*{stroke-linejoin: round; stroke-linecap: butt}</style>
 </defs>
 <g id="figure_1">
  <g id="patch_1">
   <path d="M 0 310.86825 
L 408.10125 310.86825 
L 408.10125 0 
L 0 0 
z
" style="fill: #ffffff"/>
  </g>
  <g id="axes_1">
   <g id="patch_2">
    <path d="M 43.78125 273.312 
L 400.90125 273.312 
L 400.90125 7.2 
L 43.78125 7.2 
z
" style="fill: #ffffff"/>
   </g>
   <g id="patch_3">
    <path d="M 61.725237 273.312 
L 63.339919 273.312 
L 63.339919 267.995077 
L 61.725237 267.995077 
z
" clip-path="url(#p9c1533b95e)" style="fill: #1f77b4"/>
   </g>
   <g id="patch_4">
    <path d="M 63.339919 273.312 
L 64.954601 273.312 
L 64.954601 269.176615 
L 63.339919 269.176615 
z
" clip-path="url(#p9c1533b95e)" style="fill: #1f77b4"/>
   </g>
   <g id="patch_5">
    <path d="M 64.954601 273.312 
L 66.569283 273.312 
L 66.569283 267.995077 
L 64.954601 267.995077 
z
" clip-path="url(#p9c1533b95e)" style="fill: #1f77b4"/>
   </g>
   <g id="patch_6">
    <path d="M 66.569283 273.312 
L 68.183965 273.312 
L 68.183965 266.813538 
L 66.569283 266.813538 
z
" clip-path="url(#p9c1533b95e)" style="fill: #1f77b4"/>
   </g>
   <g id="patch_7">
    <path d="M 68.183965 273.312 
L 69.798646 273.312 
L 69.798646 266.222769 
L 68.183965 266.222769 
z
" clip-path="url(#p9c1533b95e)" style="fill: #1f77b4"/>
   </g>
   <g id="patch_8">
    <path d="M 69.798646 273.312 
L 71.413328 273.312 
L 71.413328 268.585846 
L 69.798646 268.585846 
z
" clip-path="url(#p9c1533b95e)" style="fill: #1f77b4"/>
   </g>
   <g id="patch_9">
    <path d="M 71.413328 273.312 
L 73.02801 273.312 
L 73.02801 266.222769 
L 71.413328 266.222769 
z
" clip-path="url(#p9c1533b95e)" style="fill: #1f77b4"/>
   </g>
   <g id="patch_10">
    <path d="M 73.02801 273.312 
L 74.642692 273.312 
L 74.642692 267.404308 
L 73.02801 267.404308 
z
" clip-path="url(#p9c1533b95e)" style="fill: #1f77b4"/>
   </g>
   <g id="patch_11">
    <path d="M 74.642692 273.312 
L 76.257374 273.312 
L 76.257374 263.268923 
L 74.642692 263.268923 
z
" clip-path="url(#p9c1533b95e)" style="fill: #1f77b4"/>
   </g>
   <g id="patch_12">
    <path d="M 76.257374 273.312 
L 77.872056 273.312 
L 77.872056 253.816615 
L 76.257374 253.816615 
z
" clip-path="url(#p9c1533b95e)" style="fill: #1f77b4"/>
   </g>
   <g id="patch_13">
    <path d="M 77.872056 273.312 
L 79.486738 273.312 
L 79.486738 260.905846 
L 77.872056 260.905846 
z
" clip-path="url(#p9c1533b95e)" style="fill: #1f77b4"/>
   </g>
   <g id="patch_14">
    <path d="M 79.486738 273.312 
L 81.10142 273.312 
L 81.10142 263.268923 
L 79.486738 263.268923 
z
" clip-path="url(#p9c1533b95e)" style="fill: #1f77b4"/>
   </g>
   <g id="patch_15">
    <path d="M 81.10142 273.312 
L 82.716102 273.312 
L 82.716102 252.044308 
L 81.10142 252.044308 
z
" clip-path="url(#p9c1533b95e)" style="fill: #1f77b4"/>
   </g>
   <g id="patch_16">
    <path d="M 82.716102 273.312 
L 84.330784 273.312 
L 84.330784 257.952 
L 82.716102 257.952 
z
" clip-path="url(#p9c1533b95e)" style="fill: #1f77b4"/>
   </g>
   <g id="patch_17">
    <path d="M 84.330784 273.312 
L 85.945466 273.312 
L 85.945466 254.998154 
L 84.330784 254.998154 
z
" clip-path="url(#p9c1533b95e)" style="fill: #1f77b4"/>
   </g>
   <g id="patch_18">
    <path d="M 85.945466 273.312 
L 87.560148 273.312 
L 87.560148 255.588923 
L 85.945466 255.588923 
z
" clip-path="url(#p9c1533b95e)" style="fill: #1f77b4"/>
   </g>
   <g id="patch_19">
    <path d="M 87.560148 273.312 
L 89.174829 273.312 
L 89.174829 256.770462 
L 87.560148 256.770462 
z
" clip-path="url(#p9c1533b95e)" style="fill: #1f77b4"/>
   </g>
   <g id="patch_20">
    <path d="M 89.174829 273.312 
L 90.789511 273.312 
L 90.789511 252.044308 
L 89.174829 252.044308 
z
" clip-path="url(#p9c1533b95e)" style="fill: #1f77b4"/>
   </g>
   <g id="patch_21">
    <path d="M 90.789511 273.312 
L 92.404193 273.312 
L 92.404193 250.272 
L 90.789511 250.272 
z
" clip-path="url(#p9c1533b95e)" style="fill: #1f77b4"/>
   </g>
   <g id="patch_22">
    <path d="M 92.404193 273.312 
L 94.018875 273.312 
L 94.018875 254.998154 
L 92.404193 254.998154 
z
" clip-path="url(#p9c1533b95e)" style="fill: #1f77b4"/>
   </g>
   <g id="patch_23">
    <path d="M 94.018875 273.312 
L 95.633557 273.312 
L 95.633557 249.090462 
L 94.018875 249.090462 
z
" clip-path="url(#p9c1533b95e)" style="fill: #1f77b4"/>
   </g>
   <g id="patch_24">
    <path d="M 95.633557 273.312 
L 97.248239 273.312 
L 97.248239 244.955077 
L 95.633557 244.955077 
z
" clip-path="url(#p9c1533b95e)" style="fill: #1f77b4"/>
   </g>
   <g id="patch_25">
    <path d="M 97.248239 273.312 
L 98.862921 273.312 
L 98.862921 241.410462 
L 97.248239 241.410462 
z
" clip-path="url(#p9c1533b95e)" style="fill: #1f77b4"/>
   </g>
   <g id="patch_26">
    <path d="M 98.862921 273.312 
L 100.477603 273.312 
L 100.477603 245.545846 
L 98.862921 245.545846 
z
" clip-path="url(#p9c1533b95e)" style="fill: #1f77b4"/>
   </g>
   <g id="patch_27">
    <path d="M 100.477603 273.312 
L 102.092285 273.312 
L 102.092285 249.090462 
L 100.477603 249.090462 
z
" clip-path="url(#p9c1533b95e)" style="fill: #1f77b4"/>
   </g>
   <g id="patch_28">
    <path d="M 102.092285 273.312 
L 103.706967 273.312 
L 103.706967 246.727385 
L 102.092285 246.727385 
z
" clip-path="url(#p9c1533b95e)" style="fill: #1f77b4"/>
   </g>
   <g id="patch_29">
    <path d="M 103.706967 273.312 
L 105.321649 273.312 
L 105.321649 236.684308 
L 103.706967 236.684308 
z
" clip-path="url(#p9c1533b95e)" style="fill: #1f77b4"/>
   </g>
   <g id="patch_30">
    <path d="M 105.321649 273.312 
L 106.936331 273.312 
L 106.936331 237.275077 
L 105.321649 237.275077 
z
" clip-path="url(#p9c1533b95e)" style="fill: #1f77b4"/>
   </g>
   <g id="patch_31">
    <path d="M 106.936331 273.312 
L 108.551013 273.312 
L 108.551013 240.819692 
L 106.936331 240.819692 
z
" clip-path="url(#p9c1533b95e)" style="fill: #1f77b4"/>
   </g>
   <g id="patch_32">
    <path d="M 108.551013 273.312 
L 110.165694 273.312 
L 110.165694 235.502769 
L 108.551013 235.502769 
z
" clip-path="url(#p9c1533b95e)" style="fill: #1f77b4"/>
   </g>
   <g id="patch_33">
    <path d="M 110.165694 273.312 
L 111.780376 273.312 
L 111.780376 239.638154 
L 110.165694 239.638154 
z
" clip-path="url(#p9c1533b95e)" style="fill: #1f77b4"/>
   </g>
   <g id="patch_34">
    <path d="M 111.780376 273.312 
L 113.395058 273.312 
L 113.395058 242.592 
L 111.780376 242.592 
z
" clip-path="url(#p9c1533b95e)" style="fill: #1f77b4"/>
   </g>
   <g id="patch_35">
    <path d="M 113.395058 273.312 
L 115.00974 273.312 
L 115.00974 231.367385 
L 113.395058 231.367385 
z
" clip-path="url(#p9c1533b95e)" style="fill: #1f77b4"/>
   </g>
   <g id="patch_36">
    <path d="M 115.00974 273.312 
L 116.624422 273.312 
L 116.624422 234.912 
L 115.00974 234.912 
z
" clip-path="url(#p9c1533b95e)" style="fill: #1f77b4"/>
   </g>
   <g id="patch_37">
    <path d="M 116.624422 273.312 
L 118.239104 273.312 
L 118.239104 233.139692 
L 116.624422 233.139692 
z
" clip-path="url(#p9c1533b95e)" style="fill: #1f77b4"/>
   </g>
   <g id="patch_38">
    <path d="M 118.239104 273.312 
L 119.853786 273.312 
L 119.853786 236.093538 
L 118.239104 236.093538 
z
" clip-path="url(#p9c1533b95e)" style="fill: #1f77b4"/>
   </g>
   <g id="patch_39">
    <path d="M 119.853786 273.312 
L 121.468468 273.312 
L 121.468468 222.505846 
L 119.853786 222.505846 
z
" clip-path="url(#p9c1533b95e)" style="fill: #1f77b4"/>
   </g>
   <g id="patch_40">
    <path d="M 121.468468 273.312 
L 123.08315 273.312 
L 123.08315 233.139692 
L 121.468468 233.139692 
z
" clip-path="url(#p9c1533b95e)" style="fill: #1f77b4"/>
   </g>
   <g id="patch_41">
    <path d="M 123.08315 273.312 
L 124.697832 273.312 
L 124.697832 234.321231 
L 123.08315 234.321231 
z
" clip-path="url(#p9c1533b95e)" style="fill: #1f77b4"/>
   </g>
   <g id="patch_42">
    <path d="M 124.697832 273.312 
L 126.312514 273.312 
L 126.312514 224.868923 
L 124.697832 224.868923 
z
" clip-path="url(#p9c1533b95e)" style="fill: #1f77b4"/>
   </g>
   <g id="patch_43">
    <path d="M 126.312514 273.312 
L 127.927196 273.312 
L 127.927196 220.733538 
L 126.312514 220.733538 
z
" clip-path="url(#p9c1533b95e)" style="fill: #1f77b4"/>
   </g>
   <g id="patch_44">
    <path d="M 127.927196 273.312 
L 129.541877 273.312 
L 129.541877 220.733538 
L 127.927196 220.733538 
z
" clip-path="url(#p9c1533b95e)" style="fill: #1f77b4"/>
   </g>
   <g id="patch_45">
    <path d="M 129.541877 273.312 
L 131.156559 273.312 
L 131.156559 216.007385 
L 129.541877 216.007385 
z
" clip-path="url(#p9c1533b95e)" style="fill: #1f77b4"/>
   </g>
   <g id="patch_46">
    <path d="M 131.156559 273.312 
L 132.771241 273.312 
L 132.771241 221.915077 
L 131.156559 221.915077 
z
" clip-path="url(#p9c1533b95e)" style="fill: #1f77b4"/>
   </g>
   <g id="patch_47">
    <path d="M 132.771241 273.312 
L 134.385923 273.312 
L 134.385923 218.961231 
L 132.771241 218.961231 
z
" clip-path="url(#p9c1533b95e)" style="fill: #1f77b4"/>
   </g>
   <g id="patch_48">
    <path d="M 134.385923 273.312 
L 136.000605 273.312 
L 136.000605 216.598154 
L 134.385923 216.598154 
z
" clip-path="url(#p9c1533b95e)" style="fill: #1f77b4"/>
   </g>
   <g id="patch_49">
    <path d="M 136.000605 273.312 
L 137.615287 273.312 
L 137.615287 208.918154 
L 136.000605 208.918154 
z
" clip-path="url(#p9c1533b95e)" style="fill: #1f77b4"/>
   </g>
   <g id="patch_50">
    <path d="M 137.615287 273.312 
L 139.229969 273.312 
L 139.229969 229.595077 
L 137.615287 229.595077 
z
" clip-path="url(#p9c1533b95e)" style="fill: #1f77b4"/>
   </g>
   <g id="patch_51">
    <path d="M 139.229969 273.312 
L 140.844651 273.312 
L 140.844651 207.145846 
L 139.229969 207.145846 
z
" clip-path="url(#p9c1533b95e)" style="fill: #1f77b4"/>
   </g>
   <g id="patch_52">
    <path d="M 140.844651 273.312 
L 142.459333 273.312 
L 142.459333 200.056615 
L 140.844651 200.056615 
z
" clip-path="url(#p9c1533b95e)" style="fill: #1f77b4"/>
   </g>
   <g id="patch_53">
    <path d="M 142.459333 273.312 
L 144.074015 273.312 
L 144.074015 220.142769 
L 142.459333 220.142769 
z
" clip-path="url(#p9c1533b95e)" style="fill: #1f77b4"/>
   </g>
   <g id="patch_54">
    <path d="M 144.074015 273.312 
L 145.688697 273.312 
L 145.688697 210.690462 
L 144.074015 210.690462 
z
" clip-path="url(#p9c1533b95e)" style="fill: #1f77b4"/>
   </g>
   <g id="patch_55">
    <path d="M 145.688697 273.312 
L 147.303379 273.312 
L 147.303379 213.644308 
L 145.688697 213.644308 
z
" clip-path="url(#p9c1533b95e)" style="fill: #1f77b4"/>
   </g>
   <g id="patch_56">
    <path d="M 147.303379 273.312 
L 148.91806 273.312 
L 148.91806 209.508923 
L 147.303379 209.508923 
z
" clip-path="url(#p9c1533b95e)" style="fill: #1f77b4"/>
   </g>
   <g id="patch_57">
    <path d="M 148.91806 273.312 
L 150.532742 273.312 
L 150.532742 205.373538 
L 148.91806 205.373538 
z
" clip-path="url(#p9c1533b95e)" style="fill: #1f77b4"/>
   </g>
   <g id="patch_58">
    <path d="M 150.532742 273.312 
L 152.147424 273.312 
L 152.147424 204.192 
L 150.532742 204.192 
z
" clip-path="url(#p9c1533b95e)" style="fill: #1f77b4"/>
   </g>
   <g id="patch_59">
    <path d="M 152.147424 273.312 
L 153.762106 273.312 
L 153.762106 204.782769 
L 152.147424 204.782769 
z
" clip-path="url(#p9c1533b95e)" style="fill: #1f77b4"/>
   </g>
   <g id="patch_60">
    <path d="M 153.762106 273.312 
L 155.376788 273.312 
L 155.376788 203.601231 
L 153.762106 203.601231 
z
" clip-path="url(#p9c1533b95e)" style="fill: #1f77b4"/>
   </g>
   <g id="patch_61">
    <path d="M 155.376788 273.312 
L 156.99147 273.312 
L 156.99147 210.099692 
L 155.376788 210.099692 
z
" clip-path="url(#p9c1533b95e)" style="fill: #1f77b4"/>
   </g>
   <g id="patch_62">
    <path d="M 156.99147 273.312 
L 158.606152 273.312 
L 158.606152 210.099692 
L 156.99147 210.099692 
z
" clip-path="url(#p9c1533b95e)" style="fill: #1f77b4"/>
   </g>
   <g id="patch_63">
    <path d="M 158.606152 273.312 
L 160.220834 273.312 
L 160.220834 201.238154 
L 158.606152 201.238154 
z
" clip-path="url(#p9c1533b95e)" style="fill: #1f77b4"/>
   </g>
   <g id="patch_64">
    <path d="M 160.220834 273.312 
L 161.835516 273.312 
L 161.835516 199.465846 
L 160.220834 199.465846 
z
" clip-path="url(#p9c1533b95e)" style="fill: #1f77b4"/>
   </g>
   <g id="patch_65">
    <path d="M 161.835516 273.312 
L 163.450198 273.312 
L 163.450198 197.102769 
L 161.835516 197.102769 
z
" clip-path="url(#p9c1533b95e)" style="fill: #1f77b4"/>
   </g>
   <g id="patch_66">
    <path d="M 163.450198 273.312 
L 165.06488 273.312 
L 165.06488 199.465846 
L 163.450198 199.465846 
z
" clip-path="url(#p9c1533b95e)" style="fill: #1f77b4"/>
   </g>
   <g id="patch_67">
    <path d="M 165.06488 273.312 
L 166.679562 273.312 
L 166.679562 202.419692 
L 165.06488 202.419692 
z
" clip-path="url(#p9c1533b95e)" style="fill: #1f77b4"/>
   </g>
   <g id="patch_68">
    <path d="M 166.679562 273.312 
L 168.294243 273.312 
L 168.294243 201.828923 
L 166.679562 201.828923 
z
" clip-path="url(#p9c1533b95e)" style="fill: #1f77b4"/>
   </g>
   <g id="patch_69">
    <path d="M 168.294243 273.312 
L 169.908925 273.312 
L 169.908925 203.601231 
L 168.294243 203.601231 
z
" clip-path="url(#p9c1533b95e)" style="fill: #1f77b4"/>
   </g>
   <g id="patch_70">
    <path d="M 169.908925 273.312 
L 171.523607 273.312 
L 171.523607 192.376615 
L 169.908925 192.376615 
z
" clip-path="url(#p9c1533b95e)" style="fill: #1f77b4"/>
   </g>
   <g id="patch_71">
    <path d="M 171.523607 273.312 
L 173.138289 273.312 
L 173.138289 184.696615 
L 171.523607 184.696615 
z
" clip-path="url(#p9c1533b95e)" style="fill: #1f77b4"/>
   </g>
   <g id="patch_72">
    <path d="M 173.138289 273.312 
L 174.752971 273.312 
L 174.752971 194.739692 
L 173.138289 194.739692 
z
" clip-path="url(#p9c1533b95e)" style="fill: #1f77b4"/>
   </g>
   <g id="patch_73">
    <path d="M 174.752971 273.312 
L 176.367653 273.312 
L 176.367653 207.145846 
L 174.752971 207.145846 
z
" clip-path="url(#p9c1533b95e)" style="fill: #1f77b4"/>
   </g>
   <g id="patch_74">
    <path d="M 176.367653 273.312 
L 177.982335 273.312 
L 177.982335 191.195077 
L 176.367653 191.195077 
z
" clip-path="url(#p9c1533b95e)" style="fill: #1f77b4"/>
   </g>
   <g id="patch_75">
    <path d="M 177.982335 273.312 
L 179.597017 273.312 
L 179.597017 185.287385 
L 177.982335 185.287385 
z
" clip-path="url(#p9c1533b95e)" style="fill: #1f77b4"/>
   </g>
   <g id="patch_76">
    <path d="M 179.597017 273.312 
L 181.211699 273.312 
L 181.211699 187.059692 
L 179.597017 187.059692 
z
" clip-path="url(#p9c1533b95e)" style="fill: #1f77b4"/>
   </g>
   <g id="patch_77">
    <path d="M 181.211699 273.312 
L 182.826381 273.312 
L 182.826381 182.924308 
L 181.211699 182.924308 
z
" clip-path="url(#p9c1533b95e)" style="fill: #1f77b4"/>
   </g>
   <g id="patch_78">
    <path d="M 182.826381 273.312 
L 184.441063 273.312 
L 184.441063 188.241231 
L 182.826381 188.241231 
z
" clip-path="url(#p9c1533b95e)" style="fill: #1f77b4"/>
   </g>
   <g id="patch_79">
    <path d="M 184.441063 273.312 
L 186.055745 273.312 
L 186.055745 186.468923 
L 184.441063 186.468923 
z
" clip-path="url(#p9c1533b95e)" style="fill: #1f77b4"/>
   </g>
   <g id="patch_80">
    <path d="M 186.055745 273.312 
L 187.670426 273.312 
L 187.670426 185.287385 
L 186.055745 185.287385 
z
" clip-path="url(#p9c1533b95e)" style="fill: #1f77b4"/>
   </g>
   <g id="patch_81">
    <path d="M 187.670426 273.312 
L 189.285108 273.312 
L 189.285108 175.244308 
L 187.670426 175.244308 
z
" clip-path="url(#p9c1533b95e)" style="fill: #1f77b4"/>
   </g>
   <g id="patch_82">
    <path d="M 189.285108 273.312 
L 190.89979 273.312 
L 190.89979 188.241231 
L 189.285108 188.241231 
z
" clip-path="url(#p9c1533b95e)" style="fill: #1f77b4"/>
   </g>
   <g id="patch_83">
    <path d="M 190.89979 273.312 
L 192.514472 273.312 
L 192.514472 180.561231 
L 190.89979 180.561231 
z
" clip-path="url(#p9c1533b95e)" style="fill: #1f77b4"/>
   </g>
   <g id="patch_84">
    <path d="M 192.514472 273.312 
L 194.129154 273.312 
L 194.129154 186.468923 
L 192.514472 186.468923 
z
" clip-path="url(#p9c1533b95e)" style="fill: #1f77b4"/>
   </g>
   <g id="patch_85">
    <path d="M 194.129154 273.312 
L 195.743836 273.312 
L 195.743836 171.108923 
L 194.129154 171.108923 
z
" clip-path="url(#p9c1533b95e)" style="fill: #1f77b4"/>
   </g>
   <g id="patch_86">
    <path d="M 195.743836 273.312 
L 197.358518 273.312 
L 197.358518 174.653538 
L 195.743836 174.653538 
z
" clip-path="url(#p9c1533b95e)" style="fill: #1f77b4"/>
   </g>
   <g id="patch_87">
    <path d="M 197.358518 273.312 
L 198.9732 273.312 
L 198.9732 182.924308 
L 197.358518 182.924308 
z
" clip-path="url(#p9c1533b95e)" style="fill: #1f77b4"/>
   </g>
   <g id="patch_88">
    <path d="M 198.9732 273.312 
L 200.587882 273.312 
L 200.587882 172.881231 
L 198.9732 172.881231 
z
" clip-path="url(#p9c1533b95e)" style="fill: #1f77b4"/>
   </g>
   <g id="patch_89">
    <path d="M 200.587882 273.312 
L 202.202564 273.312 
L 202.202564 163.428923 
L 200.587882 163.428923 
z
" clip-path="url(#p9c1533b95e)" style="fill: #1f77b4"/>
   </g>
   <g id="patch_90">
    <path d="M 202.202564 273.312 
L 203.817246 273.312 
L 203.817246 171.108923 
L 202.202564 171.108923 
z
" clip-path="url(#p9c1533b95e)" style="fill: #1f77b4"/>
   </g>
   <g id="patch_91">
    <path d="M 203.817246 273.312 
L 205.431928 273.312 
L 205.431928 151.022769 
L 203.817246 151.022769 
z
" clip-path="url(#p9c1533b95e)" style="fill: #1f77b4"/>
   </g>
   <g id="patch_92">
    <path d="M 205.431928 273.312 
L 207.046609 273.312 
L 207.046609 165.792 
L 205.431928 165.792 
z
" clip-path="url(#p9c1533b95e)" style="fill: #1f77b4"/>
   </g>
   <g id="patch_93">
    <path d="M 207.046609 273.312 
L 208.661291 273.312 
L 208.661291 160.475077 
L 207.046609 160.475077 
z
" clip-path="url(#p9c1533b95e)" style="fill: #1f77b4"/>
   </g>
   <g id="patch_94">
    <path d="M 208.661291 273.312 
L 210.275973 273.312 
L 210.275973 163.428923 
L 208.661291 163.428923 
z
" clip-path="url(#p9c1533b95e)" style="fill: #1f77b4"/>
   </g>
   <g id="patch_95">
    <path d="M 210.275973 273.312 
L 211.890655 273.312 
L 211.890655 180.561231 
L 210.275973 180.561231 
z
" clip-path="url(#p9c1533b95e)" style="fill: #1f77b4"/>
   </g>
   <g id="patch_96">
    <path d="M 211.890655 273.312 
L 213.505337 273.312 
L 213.505337 159.884308 
L 211.890655 159.884308 
z
" clip-path="url(#p9c1533b95e)" style="fill: #1f77b4"/>
   </g>
   <g id="patch_97">
    <path d="M 213.505337 273.312 
L 215.120019 273.312 
L 215.120019 152.204308 
L 213.505337 152.204308 
z
" clip-path="url(#p9c1533b95e)" style="fill: #1f77b4"/>
   </g>
   <g id="patch_98">
    <path d="M 215.120019 273.312 
L 216.734701 273.312 
L 216.734701 161.065846 
L 215.120019 161.065846 
z
" clip-path="url(#p9c1533b95e)" style="fill: #1f77b4"/>
   </g>
   <g id="patch_99">
    <path d="M 216.734701 273.312 
L 218.349383 273.312 
L 218.349383 155.158154 
L 216.734701 155.158154 
z
" clip-path="url(#p9c1533b95e)" style="fill: #1f77b4"/>
   </g>
   <g id="patch_100">
    <path d="M 218.349383 273.312 
L 219.964065 273.312 
L 219.964065 164.610462 
L 218.349383 164.610462 
z
" clip-path="url(#p9c1533b95e)" style="fill: #1f77b4"/>
   </g>
   <g id="patch_101">
    <path d="M 219.964065 273.312 
L 221.578747 273.312 
L 221.578747 145.115077 
L 219.964065 145.115077 
z
" clip-path="url(#p9c1533b95e)" style="fill: #1f77b4"/>
   </g>
   <g id="patch_102">
    <path d="M 221.578747 273.312 
L 223.193429 273.312 
L 223.193429 149.250462 
L 221.578747 149.250462 
z
" clip-path="url(#p9c1533b95e)" style="fill: #1f77b4"/>
   </g>
   <g id="patch_103">
    <path d="M 223.193429 273.312 
L 224.808111 273.312 
L 224.808111 155.748923 
L 223.193429 155.748923 
z
" clip-path="url(#p9c1533b95e)" style="fill: #1f77b4"/>
   </g>
   <g id="patch_104">
    <path d="M 224.808111 273.312 
L 226.422793 273.312 
L 226.422793 148.068923 
L 224.808111 148.068923 
z
" clip-path="url(#p9c1533b95e)" style="fill: #1f77b4"/>
   </g>
   <g id="patch_105">
    <path d="M 226.422793 273.312 
L 228.037474 273.312 
L 228.037474 152.204308 
L 226.422793 152.204308 
z
" clip-path="url(#p9c1533b95e)" style="fill: #1f77b4"/>
   </g>
   <g id="patch_106">
    <path d="M 228.037474 273.312 
L 229.652156 273.312 
L 229.652156 146.296615 
L 228.037474 146.296615 
z
" clip-path="url(#p9c1533b95e)" style="fill: #1f77b4"/>
   </g>
   <g id="patch_107">
    <path d="M 229.652156 273.312 
L 231.266838 273.312 
L 231.266838 153.976615 
L 229.652156 153.976615 
z
" clip-path="url(#p9c1533b95e)" style="fill: #1f77b4"/>
   </g>
   <g id="patch_108">
    <path d="M 231.266838 273.312 
L 232.88152 273.312 
L 232.88152 161.065846 
L 231.266838 161.065846 
z
" clip-path="url(#p9c1533b95e)" style="fill: #1f77b4"/>
   </g>
   <g id="patch_109">
    <path d="M 232.88152 273.312 
L 234.496202 273.312 
L 234.496202 151.022769 
L 232.88152 151.022769 
z
" clip-path="url(#p9c1533b95e)" style="fill: #1f77b4"/>
   </g>
   <g id="patch_110">
    <path d="M 234.496202 273.312 
L 236.110884 273.312 
L 236.110884 161.065846 
L 234.496202 161.065846 
z
" clip-path="url(#p9c1533b95e)" style="fill: #1f77b4"/>
   </g>
   <g id="patch_111">
    <path d="M 236.110884 273.312 
L 237.725566 273.312 
L 237.725566 146.296615 
L 236.110884 146.296615 
z
" clip-path="url(#p9c1533b95e)" style="fill: #1f77b4"/>
   </g>
   <g id="patch_112">
    <path d="M 237.725566 273.312 
L 239.340248 273.312 
L 239.340248 139.798154 
L 237.725566 139.798154 
z
" clip-path="url(#p9c1533b95e)" style="fill: #1f77b4"/>
   </g>
   <g id="patch_113">
    <path d="M 239.340248 273.312 
L 240.95493 273.312 
L 240.95493 140.979692 
L 239.340248 140.979692 
z
" clip-path="url(#p9c1533b95e)" style="fill: #1f77b4"/>
   </g>
   <g id="patch_114">
    <path d="M 240.95493 273.312 
L 242.569612 273.312 
L 242.569612 129.755077 
L 240.95493 129.755077 
z
" clip-path="url(#p9c1533b95e)" style="fill: #1f77b4"/>
   </g>
   <g id="patch_115">
    <path d="M 242.569612 273.312 
L 244.184294 273.312 
L 244.184294 135.072 
L 242.569612 135.072 
z
" clip-path="url(#p9c1533b95e)" style="fill: #1f77b4"/>
   </g>
   <g id="patch_116">
    <path d="M 244.184294 273.312 
L 245.798976 273.312 
L 245.798976 146.296615 
L 244.184294 146.296615 
z
" clip-path="url(#p9c1533b95e)" style="fill: #1f77b4"/>
   </g>
   <g id="patch_117">
    <path d="M 245.798976 273.312 
L 247.413657 273.312 
L 247.413657 143.342769 
L 245.798976 143.342769 
z
" clip-path="url(#p9c1533b95e)" style="fill: #1f77b4"/>
   </g>
   <g id="patch_118">
    <path d="M 247.413657 273.312 
L 249.028339 273.312 
L 249.028339 151.022769 
L 247.413657 151.022769 
z
" clip-path="url(#p9c1533b95e)" style="fill: #1f77b4"/>
   </g>
   <g id="patch_119">
    <path d="M 249.028339 273.312 
L 250.643021 273.312 
L 250.643021 126.801231 
L 249.028339 126.801231 
z
" clip-path="url(#p9c1533b95e)" style="fill: #1f77b4"/>
   </g>
   <g id="patch_120">
    <path d="M 250.643021 273.312 
L 252.257703 273.312 
L 252.257703 123.847385 
L 250.643021 123.847385 
z
" clip-path="url(#p9c1533b95e)" style="fill: #1f77b4"/>
   </g>
   <g id="patch_121">
    <path d="M 252.257703 273.312 
L 253.872385 273.312 
L 253.872385 104.352 
L 252.257703 104.352 
z
" clip-path="url(#p9c1533b95e)" style="fill: #1f77b4"/>
   </g>
   <g id="patch_122">
    <path d="M 253.872385 273.312 
L 255.487067 273.312 
L 255.487067 138.025846 
L 253.872385 138.025846 
z
" clip-path="url(#p9c1533b95e)" style="fill: #1f77b4"/>
   </g>
   <g id="patch_123">
    <path d="M 255.487067 273.312 
L 257.101749 273.312 
L 257.101749 134.481231 
L 255.487067 134.481231 
z
" clip-path="url(#p9c1533b95e)" style="fill: #1f77b4"/>
   </g>
   <g id="patch_124">
    <path d="M 257.101749 273.312 
L 258.716431 273.312 
L 258.716431 114.985846 
L 257.101749 114.985846 
z
" clip-path="url(#p9c1533b95e)" style="fill: #1f77b4"/>
   </g>
   <g id="patch_125">
    <path d="M 258.716431 273.312 
L 260.331113 273.312 
L 260.331113 122.075077 
L 258.716431 122.075077 
z
" clip-path="url(#p9c1533b95e)" style="fill: #1f77b4"/>
   </g>
   <g id="patch_126">
    <path d="M 260.331113 273.312 
L 261.945795 273.312 
L 261.945795 125.619692 
L 260.331113 125.619692 
z
" clip-path="url(#p9c1533b95e)" style="fill: #1f77b4"/>
   </g>
   <g id="patch_127">
    <path d="M 261.945795 273.312 
L 263.560477 273.312 
L 263.560477 128.573538 
L 261.945795 128.573538 
z
" clip-path="url(#p9c1533b95e)" style="fill: #1f77b4"/>
   </g>
   <g id="patch_128">
    <path d="M 263.560477 273.312 
L 265.175159 273.312 
L 265.175159 126.801231 
L 263.560477 126.801231 
z
" clip-path="url(#p9c1533b95e)" style="fill: #1f77b4"/>
   </g>
   <g id="patch_129">
    <path d="M 265.175159 273.312 
L 266.78984 273.312 
L 266.78984 121.484308 
L 265.175159 121.484308 
z
" clip-path="url(#p9c1533b95e)" style="fill: #1f77b4"/>
   </g>
   <g id="patch_130">
    <path d="M 266.78984 273.312 
L 268.404522 273.312 
L 268.404522 123.847385 
L 266.78984 123.847385 
z
" clip-path="url(#p9c1533b95e)" style="fill: #1f77b4"/>
   </g>
   <g id="patch_131">
    <path d="M 268.404522 273.312 
L 270.019204 273.312 
L 270.019204 147.478154 
L 268.404522 147.478154 
z
" clip-path="url(#p9c1533b95e)" style="fill: #1f77b4"/>
   </g>
   <g id="patch_132">
    <path d="M 270.019204 273.312 
L 271.633886 273.312 
L 271.633886 126.210462 
L 270.019204 126.210462 
z
" clip-path="url(#p9c1533b95e)" style="fill: #1f77b4"/>
   </g>
   <g id="patch_133">
    <path d="M 271.633886 273.312 
L 273.248568 273.312 
L 273.248568 112.622769 
L 271.633886 112.622769 
z
" clip-path="url(#p9c1533b95e)" style="fill: #1f77b4"/>
   </g>
   <g id="patch_134">
    <path d="M 273.248568 273.312 
L 274.86325 273.312 
L 274.86325 130.936615 
L 273.248568 130.936615 
z
" clip-path="url(#p9c1533b95e)" style="fill: #1f77b4"/>
   </g>
   <g id="patch_135">
    <path d="M 274.86325 273.312 
L 276.477932 273.312 
L 276.477932 99.625846 
L 274.86325 99.625846 
z
" clip-path="url(#p9c1533b95e)" style="fill: #1f77b4"/>
   </g>
   <g id="patch_136">
    <path d="M 276.477932 273.312 
L 278.092614 273.312 
L 278.092614 117.939692 
L 276.477932 117.939692 
z
" clip-path="url(#p9c1533b95e)" style="fill: #1f77b4"/>
   </g>
   <g id="patch_137">
    <path d="M 278.092614 273.312 
L 279.707296 273.312 
L 279.707296 116.758154 
L 278.092614 116.758154 
z
" clip-path="url(#p9c1533b95e)" style="fill: #1f77b4"/>
   </g>
   <g id="patch_138">
    <path d="M 279.707296 273.312 
L 281.321978 273.312 
L 281.321978 106.715077 
L 279.707296 106.715077 
z
" clip-path="url(#p9c1533b95e)" style="fill: #1f77b4"/>
   </g>
   <g id="patch_139">
    <path d="M 281.321978 273.312 
L 282.93666 273.312 
L 282.93666 123.847385 
L 281.321978 123.847385 
z
" clip-path="url(#p9c1533b95e)" style="fill: #1f77b4"/>
   </g>
   <g id="patch_140">
    <path d="M 282.93666 273.312 
L 284.551342 273.312 
L 284.551342 120.302769 
L 282.93666 120.302769 
z
" clip-path="url(#p9c1533b95e)" style="fill: #1f77b4"/>
   </g>
   <g id="patch_141">
    <path d="M 284.551342 273.312 
L 286.166023 273.312 
L 286.166023 97.262769 
L 284.551342 97.262769 
z
" clip-path="url(#p9c1533b95e)" style="fill: #1f77b4"/>
   </g>
   <g id="patch_142">
    <path d="M 286.166023 273.312 
L 287.780705 273.312 
L 287.780705 107.896615 
L 286.166023 107.896615 
z
" clip-path="url(#p9c1533b95e)" style="fill: #1f77b4"/>
   </g>
   <g id="patch_143">
    <path d="M 287.780705 273.312 
L 289.395387 273.312 
L 289.395387 111.441231 
L 287.780705 111.441231 
z
" clip-path="url(#p9c1533b95e)" style="fill: #1f77b4"/>
   </g>
   <g id="patch_144">
    <path d="M 289.395387 273.312 
L 291.010069 273.312 
L 291.010069 128.573538 
L 289.395387 128.573538 
z
" clip-path="url(#p9c1533b95e)" style="fill: #1f77b4"/>
   </g>
   <g id="patch_145">
    <path d="M 291.010069 273.312 
L 292.624751 273.312 
L 292.624751 97.262769 
L 291.010069 97.262769 
z
" clip-path="url(#p9c1533b95e)" style="fill: #1f77b4"/>
   </g>
   <g id="patch_146">
    <path d="M 292.624751 273.312 
L 294.239433 273.312 
L 294.239433 107.896615 
L 292.624751 107.896615 
z
" clip-path="url(#p9c1533b95e)" style="fill: #1f77b4"/>
   </g>
   <g id="patch_147">
    <path d="M 294.239433 273.312 
L 295.854115 273.312 
L 295.854115 110.259692 
L 294.239433 110.259692 
z
" clip-path="url(#p9c1533b95e)" style="fill: #1f77b4"/>
   </g>
   <g id="patch_148">
    <path d="M 295.854115 273.312 
L 297.468797 273.312 
L 297.468797 105.533538 
L 295.854115 105.533538 
z
" clip-path="url(#p9c1533b95e)" style="fill: #1f77b4"/>
   </g>
   <g id="patch_149">
    <path d="M 297.468797 273.312 
L 299.083479 273.312 
L 299.083479 94.308923 
L 297.468797 94.308923 
z
" clip-path="url(#p9c1533b95e)" style="fill: #1f77b4"/>
   </g>
   <g id="patch_150">
    <path d="M 299.083479 273.312 
L 300.698161 273.312 
L 300.698161 100.216615 
L 299.083479 100.216615 
z
" clip-path="url(#p9c1533b95e)" style="fill: #1f77b4"/>
   </g>
   <g id="patch_151">
    <path d="M 300.698161 273.312 
L 302.312843 273.312 
L 302.312843 101.988923 
L 300.698161 101.988923 
z
" clip-path="url(#p9c1533b95e)" style="fill: #1f77b4"/>
   </g>
   <g id="patch_152">
    <path d="M 302.312843 273.312 
L 303.927525 273.312 
L 303.927525 114.985846 
L 302.312843 114.985846 
z
" clip-path="url(#p9c1533b95e)" style="fill: #1f77b4"/>
   </g>
   <g id="patch_153">
    <path d="M 303.927525 273.312 
L 305.542206 273.312 
L 305.542206 91.945846 
L 303.927525 91.945846 
z
" clip-path="url(#p9c1533b95e)" style="fill: #1f77b4"/>
   </g>
   <g id="patch_154">
    <path d="M 305.542206 273.312 
L 307.156888 273.312 
L 307.156888 83.675077 
L 305.542206 83.675077 
z
" clip-path="url(#p9c1533b95e)" style="fill: #1f77b4"/>
   </g>
   <g id="patch_155">
    <path d="M 307.156888 273.312 
L 308.77157 273.312 
L 308.77157 92.536615 
L 307.156888 92.536615 
z
" clip-path="url(#p9c1533b95e)" style="fill: #1f77b4"/>
   </g>
   <g id="patch_156">
    <path d="M 308.77157 273.312 
L 310.386252 273.312 
L 310.386252 84.265846 
L 308.77157 84.265846 
z
" clip-path="url(#p9c1533b95e)" style="fill: #1f77b4"/>
   </g>
   <g id="patch_157">
    <path d="M 310.386252 273.312 
L 312.000934 273.312 
L 312.000934 96.081231 
L 310.386252 96.081231 
z
" clip-path="url(#p9c1533b95e)" style="fill: #1f77b4"/>
   </g>
   <g id="patch_158">
    <path d="M 312.000934 273.312 
L 313.615616 273.312 
L 313.615616 93.718154 
L 312.000934 93.718154 
z
" clip-path="url(#p9c1533b95e)" style="fill: #1f77b4"/>
   </g>
   <g id="patch_159">
    <path d="M 313.615616 273.312 
L 315.230298 273.312 
L 315.230298 90.764308 
L 313.615616 90.764308 
z
" clip-path="url(#p9c1533b95e)" style="fill: #1f77b4"/>
   </g>
   <g id="patch_160">
    <path d="M 315.230298 273.312 
L 316.84498 273.312 
L 316.84498 78.358154 
L 315.230298 78.358154 
z
" clip-path="url(#p9c1533b95e)" style="fill: #1f77b4"/>
   </g>
   <g id="patch_161">
    <path d="M 316.84498 273.312 
L 318.459662 273.312 
L 318.459662 80.130462 
L 316.84498 80.130462 
z
" clip-path="url(#p9c1533b95e)" style="fill: #1f77b4"/>
   </g>
   <g id="patch_162">
    <path d="M 318.459662 273.312 
L 320.074344 273.312 
L 320.074344 93.718154 
L 318.459662 93.718154 
z
" clip-path="url(#p9c1533b95e)" style="fill: #1f77b4"/>
   </g>
   <g id="patch_163">
    <path d="M 320.074344 273.312 
L 321.689026 273.312 
L 321.689026 74.222769 
L 320.074344 74.222769 
z
" clip-path="url(#p9c1533b95e)" style="fill: #1f77b4"/>
   </g>
   <g id="patch_164">
    <path d="M 321.689026 273.312 
L 323.303708 273.312 
L 323.303708 84.856615 
L 321.689026 84.856615 
z
" clip-path="url(#p9c1533b95e)" style="fill: #1f77b4"/>
   </g>
   <g id="patch_165">
    <path d="M 323.303708 273.312 
L 324.918389 273.312 
L 324.918389 78.358154 
L 323.303708 78.358154 
z
" clip-path="url(#p9c1533b95e)" style="fill: #1f77b4"/>
   </g>
   <g id="patch_166">
    <path d="M 324.918389 273.312 
L 326.533071 273.312 
L 326.533071 93.127385 
L 324.918389 93.127385 
z
" clip-path="url(#p9c1533b95e)" style="fill: #1f77b4"/>
   </g>
   <g id="patch_167">
    <path d="M 326.533071 273.312 
L 328.147753 273.312 
L 328.147753 73.632 
L 326.533071 73.632 
z
" clip-path="url(#p9c1533b95e)" style="fill: #1f77b4"/>
   </g>
   <g id="patch_168">
    <path d="M 328.147753 273.312 
L 329.762435 273.312 
L 329.762435 75.404308 
L 328.147753 75.404308 
z
" clip-path="url(#p9c1533b95e)" style="fill: #1f77b4"/>
   </g>
   <g id="patch_169">
    <path d="M 329.762435 273.312 
L 331.377117 273.312 
L 331.377117 72.450462 
L 329.762435 72.450462 
z
" clip-path="url(#p9c1533b95e)" style="fill: #1f77b4"/>
   </g>
   <g id="patch_170">
    <path d="M 331.377117 273.312 
L 332.991799 273.312 
L 332.991799 83.084308 
L 331.377117 83.084308 
z
" clip-path="url(#p9c1533b95e)" style="fill: #1f77b4"/>
   </g>
   <g id="patch_171">
    <path d="M 332.991799 273.312 
L 334.606481 273.312 
L 334.606481 55.318154 
L 332.991799 55.318154 
z
" clip-path="url(#p9c1533b95e)" style="fill: #1f77b4"/>
   </g>
   <g id="patch_172">
    <path d="M 334.606481 273.312 
L 336.221163 273.312 
L 336.221163 93.718154 
L 334.606481 93.718154 
z
" clip-path="url(#p9c1533b95e)" style="fill: #1f77b4"/>
   </g>
   <g id="patch_173">
    <path d="M 336.221163 273.312 
L 337.835845 273.312 
L 337.835845 55.908923 
L 336.221163 55.908923 
z
" clip-path="url(#p9c1533b95e)" style="fill: #1f77b4"/>
   </g>
   <g id="patch_174">
    <path d="M 337.835845 273.312 
L 339.450527 273.312 
L 339.450527 80.721231 
L 337.835845 80.721231 
z
" clip-path="url(#p9c1533b95e)" style="fill: #1f77b4"/>
   </g>
   <g id="patch_175">
    <path d="M 339.450527 273.312 
L 341.065209 273.312 
L 341.065209 64.179692 
L 339.450527 64.179692 
z
" clip-path="url(#p9c1533b95e)" style="fill: #1f77b4"/>
   </g>
   <g id="patch_176">
    <path d="M 341.065209 273.312 
L 342.679891 273.312 
L 342.679891 75.404308 
L 341.065209 75.404308 
z
" clip-path="url(#p9c1533b95e)" style="fill: #1f77b4"/>
   </g>
   <g id="patch_177">
    <path d="M 342.679891 273.312 
L 344.294572 273.312 
L 344.294572 77.176615 
L 342.679891 77.176615 
z
" clip-path="url(#p9c1533b95e)" style="fill: #1f77b4"/>
   </g>
   <g id="patch_178">
    <path d="M 344.294572 273.312 
L 345.909254 273.312 
L 345.909254 38.776615 
L 344.294572 38.776615 
z
" clip-path="url(#p9c1533b95e)" style="fill: #1f77b4"/>
   </g>
   <g id="patch_179">
    <path d="M 345.909254 273.312 
L 347.523936 273.312 
L 347.523936 63.588923 
L 345.909254 63.588923 
z
" clip-path="url(#p9c1533b95e)" style="fill: #1f77b4"/>
   </g>
   <g id="patch_180">
    <path d="M 347.523936 273.312 
L 349.138618 273.312 
L 349.138618 67.724308 
L 347.523936 67.724308 
z
" clip-path="url(#p9c1533b95e)" style="fill: #1f77b4"/>
   </g>
   <g id="patch_181">
    <path d="M 349.138618 273.312 
L 350.7533 273.312 
L 350.7533 68.315077 
L 349.138618 68.315077 
z
" clip-path="url(#p9c1533b95e)" style="fill: #1f77b4"/>
   </g>
   <g id="patch_182">
    <path d="M 350.7533 273.312 
L 352.367982 273.312 
L 352.367982 52.955077 
L 350.7533 52.955077 
z
" clip-path="url(#p9c1533b95e)" style="fill: #1f77b4"/>
   </g>
   <g id="patch_183">
    <path d="M 352.367982 273.312 
L 353.982664 273.312 
L 353.982664 64.770462 
L 352.367982 64.770462 
z
" clip-path="url(#p9c1533b95e)" style="fill: #1f77b4"/>
   </g>
   <g id="patch_184">
    <path d="M 353.982664 273.312 
L 355.597346 273.312 
L 355.597346 60.635077 
L 353.982664 60.635077 
z
" clip-path="url(#p9c1533b95e)" style="fill: #1f77b4"/>
   </g>
   <g id="patch_185">
    <path d="M 355.597346 273.312 
L 357.212028 273.312 
L 357.212028 67.724308 
L 355.597346 67.724308 
z
" clip-path="url(#p9c1533b95e)" style="fill: #1f77b4"/>
   </g>
   <g id="patch_186">
    <path d="M 357.212028 273.312 
L 358.82671 273.312 
L 358.82671 71.859692 
L 357.212028 71.859692 
z
" clip-path="url(#p9c1533b95e)" style="fill: #1f77b4"/>
   </g>
   <g id="patch_187">
    <path d="M 358.82671 273.312 
L 360.441392 273.312 
L 360.441392 47.638154 
L 358.82671 47.638154 
z
" clip-path="url(#p9c1533b95e)" style="fill: #1f77b4"/>
   </g>
   <g id="patch_188">
    <path d="M 360.441392 273.312 
L 362.056074 273.312 
L 362.056074 63.588923 
L 360.441392 63.588923 
z
" clip-path="url(#p9c1533b95e)" style="fill: #1f77b4"/>
   </g>
   <g id="patch_189">
    <path d="M 362.056074 273.312 
L 363.670756 273.312 
L 363.670756 38.185846 
L 362.056074 38.185846 
z
" clip-path="url(#p9c1533b95e)" style="fill: #1f77b4"/>
   </g>
   <g id="patch_190">
    <path d="M 363.670756 273.312 
L 365.285437 273.312 
L 365.285437 73.632 
L 363.670756 73.632 
z
" clip-path="url(#p9c1533b95e)" style="fill: #1f77b4"/>
   </g>
   <g id="patch_191">
    <path d="M 365.285437 273.312 
L 366.900119 273.312 
L 366.900119 56.499692 
L 365.285437 56.499692 
z
" clip-path="url(#p9c1533b95e)" style="fill: #1f77b4"/>
   </g>
   <g id="patch_192">
    <path d="M 366.900119 273.312 
L 368.514801 273.312 
L 368.514801 45.865846 
L 366.900119 45.865846 
z
" clip-path="url(#p9c1533b95e)" style="fill: #1f77b4"/>
   </g>
   <g id="patch_193">
    <path d="M 368.514801 273.312 
L 370.129483 273.312 
L 370.129483 42.912 
L 368.514801 42.912 
z
" clip-path="url(#p9c1533b95e)" style="fill: #1f77b4"/>
   </g>
   <g id="patch_194">
    <path d="M 370.129483 273.312 
L 371.744165 273.312 
L 371.744165 19.872 
L 370.129483 19.872 
z
" clip-path="url(#p9c1533b95e)" style="fill: #1f77b4"/>
   </g>
   <g id="patch_195">
    <path d="M 371.744165 273.312 
L 373.358847 273.312 
L 373.358847 31.687385 
L 371.744165 31.687385 
z
" clip-path="url(#p9c1533b95e)" style="fill: #1f77b4"/>
   </g>
   <g id="patch_196">
    <path d="M 373.358847 273.312 
L 374.973529 273.312 
L 374.973529 34.641231 
L 373.358847 34.641231 
z
" clip-path="url(#p9c1533b95e)" style="fill: #1f77b4"/>
   </g>
   <g id="patch_197">
    <path d="M 374.973529 273.312 
L 376.588211 273.312 
L 376.588211 51.773538 
L 374.973529 51.773538 
z
" clip-path="url(#p9c1533b95e)" style="fill: #1f77b4"/>
   </g>
   <g id="patch_198">
    <path d="M 376.588211 273.312 
L 378.202893 273.312 
L 378.202893 39.958154 
L 376.588211 39.958154 
z
" clip-path="url(#p9c1533b95e)" style="fill: #1f77b4"/>
   </g>
   <g id="patch_199">
    <path d="M 378.202893 273.312 
L 379.817575 273.312 
L 379.817575 42.321231 
L 378.202893 42.321231 
z
" clip-path="url(#p9c1533b95e)" style="fill: #1f77b4"/>
   </g>
   <g id="patch_200">
    <path d="M 379.817575 273.312 
L 381.432257 273.312 
L 381.432257 49.410462 
L 379.817575 49.410462 
z
" clip-path="url(#p9c1533b95e)" style="fill: #1f77b4"/>
   </g>
   <g id="patch_201">
    <path d="M 381.432257 273.312 
L 383.046939 273.312 
L 383.046939 48.228923 
L 381.432257 48.228923 
z
" clip-path="url(#p9c1533b95e)" style="fill: #1f77b4"/>
   </g>
   <g id="patch_202">
    <path d="M 383.046939 273.312 
L 384.66162 273.312 
L 384.66162 38.776615 
L 383.046939 38.776615 
z
" clip-path="url(#p9c1533b95e)" style="fill: #1f77b4"/>
   </g>
   <g id="matplotlib.axis_1">
    <g id="xtick_1">
     <g id="line2d_1">
      <defs>
       <path id="mf844e6850b" d="M 0 0 
L 0 3.5 
" style="stroke: #000000; stroke-width: 0.8"/>
      </defs>
      <g>
       <use xlink:href="#mf844e6850b" x="60.013977" y="273.312" style="stroke: #000000; stroke-width: 0.8"/>
      </g>
     </g>
     <g id="text_1">
      <!-- 0.0 -->
      <g transform="translate(52.062415 287.910437)scale(0.1 -0.1)">
       <defs>
        <path id="DejaVuSans-30" d="M 2034 4250 
Q 1547 4250 1301 3770 
Q 1056 3291 1056 2328 
Q 1056 1369 1301 889 
Q 1547 409 2034 409 
Q 2525 409 2770 889 
Q 3016 1369 3016 2328 
Q 3016 3291 2770 3770 
Q 2525 4250 2034 4250 
z
M 2034 4750 
Q 2819 4750 3233 4129 
Q 3647 3509 3647 2328 
Q 3647 1150 3233 529 
Q 2819 -91 2034 -91 
Q 1250 -91 836 529 
Q 422 1150 422 2328 
Q 422 3509 836 4129 
Q 1250 4750 2034 4750 
z
" transform="scale(0.015625)"/>
        <path id="DejaVuSans-2e" d="M 684 794 
L 1344 794 
L 1344 0 
L 684 0 
L 684 794 
z
" transform="scale(0.015625)"/>
       </defs>
       <use xlink:href="#DejaVuSans-30"/>
       <use xlink:href="#DejaVuSans-2e" x="63.623047"/>
       <use xlink:href="#DejaVuSans-30" x="95.410156"/>
      </g>
     </g>
    </g>
    <g id="xtick_2">
     <g id="line2d_2">
      <g>
       <use xlink:href="#mf844e6850b" x="124.944886" y="273.312" style="stroke: #000000; stroke-width: 0.8"/>
      </g>
     </g>
     <g id="text_2">
      <!-- 0.2 -->
      <g transform="translate(116.993324 287.910437)scale(0.1 -0.1)">
       <defs>
        <path id="DejaVuSans-32" d="M 1228 531 
L 3431 531 
L 3431 0 
L 469 0 
L 469 531 
Q 828 903 1448 1529 
Q 2069 2156 2228 2338 
Q 2531 2678 2651 2914 
Q 2772 3150 2772 3378 
Q 2772 3750 2511 3984 
Q 2250 4219 1831 4219 
Q 1534 4219 1204 4116 
Q 875 4013 500 3803 
L 500 4441 
Q 881 4594 1212 4672 
Q 1544 4750 1819 4750 
Q 2544 4750 2975 4387 
Q 3406 4025 3406 3419 
Q 3406 3131 3298 2873 
Q 3191 2616 2906 2266 
Q 2828 2175 2409 1742 
Q 1991 1309 1228 531 
z
" transform="scale(0.015625)"/>
       </defs>
       <use xlink:href="#DejaVuSans-30"/>
       <use xlink:href="#DejaVuSans-2e" x="63.623047"/>
       <use xlink:href="#DejaVuSans-32" x="95.410156"/>
      </g>
     </g>
    </g>
    <g id="xtick_3">
     <g id="line2d_3">
      <g>
       <use xlink:href="#mf844e6850b" x="189.875795" y="273.312" style="stroke: #000000; stroke-width: 0.8"/>
      </g>
     </g>
     <g id="text_3">
      <!-- 0.4 -->
      <g transform="translate(181.924233 287.910437)scale(0.1 -0.1)">
       <defs>
        <path id="DejaVuSans-34" d="M 2419 4116 
L 825 1625 
L 2419 1625 
L 2419 4116 
z
M 2253 4666 
L 3047 4666 
L 3047 1625 
L 3713 1625 
L 3713 1100 
L 3047 1100 
L 3047 0 
L 2419 0 
L 2419 1100 
L 313 1100 
L 313 1709 
L 2253 4666 
z
" transform="scale(0.015625)"/>
       </defs>
       <use xlink:href="#DejaVuSans-30"/>
       <use xlink:href="#DejaVuSans-2e" x="63.623047"/>
       <use xlink:href="#DejaVuSans-34" x="95.410156"/>
      </g>
     </g>
    </g>
    <g id="xtick_4">
     <g id="line2d_4">
      <g>
       <use xlink:href="#mf844e6850b" x="254.806705" y="273.312" style="stroke: #000000; stroke-width: 0.8"/>
      </g>
     </g>
     <g id="text_4">
      <!-- 0.6 -->
      <g transform="translate(246.855142 287.910437)scale(0.1 -0.1)">
       <defs>
        <path id="DejaVuSans-36" d="M 2113 2584 
Q 1688 2584 1439 2293 
Q 1191 2003 1191 1497 
Q 1191 994 1439 701 
Q 1688 409 2113 409 
Q 2538 409 2786 701 
Q 3034 994 3034 1497 
Q 3034 2003 2786 2293 
Q 2538 2584 2113 2584 
z
M 3366 4563 
L 3366 3988 
Q 3128 4100 2886 4159 
Q 2644 4219 2406 4219 
Q 1781 4219 1451 3797 
Q 1122 3375 1075 2522 
Q 1259 2794 1537 2939 
Q 1816 3084 2150 3084 
Q 2853 3084 3261 2657 
Q 3669 2231 3669 1497 
Q 3669 778 3244 343 
Q 2819 -91 2113 -91 
Q 1303 -91 875 529 
Q 447 1150 447 2328 
Q 447 3434 972 4092 
Q 1497 4750 2381 4750 
Q 2619 4750 2861 4703 
Q 3103 4656 3366 4563 
z
" transform="scale(0.015625)"/>
       </defs>
       <use xlink:href="#DejaVuSans-30"/>
       <use xlink:href="#DejaVuSans-2e" x="63.623047"/>
       <use xlink:href="#DejaVuSans-36" x="95.410156"/>
      </g>
     </g>
    </g>
    <g id="xtick_5">
     <g id="line2d_5">
      <g>
       <use xlink:href="#mf844e6850b" x="319.737614" y="273.312" style="stroke: #000000; stroke-width: 0.8"/>
      </g>
     </g>
     <g id="text_5">
      <!-- 0.8 -->
      <g transform="translate(311.786051 287.910437)scale(0.1 -0.1)">
       <defs>
        <path id="DejaVuSans-38" d="M 2034 2216 
Q 1584 2216 1326 1975 
Q 1069 1734 1069 1313 
Q 1069 891 1326 650 
Q 1584 409 2034 409 
Q 2484 409 2743 651 
Q 3003 894 3003 1313 
Q 3003 1734 2745 1975 
Q 2488 2216 2034 2216 
z
M 1403 2484 
Q 997 2584 770 2862 
Q 544 3141 544 3541 
Q 544 4100 942 4425 
Q 1341 4750 2034 4750 
Q 2731 4750 3128 4425 
Q 3525 4100 3525 3541 
Q 3525 3141 3298 2862 
Q 3072 2584 2669 2484 
Q 3125 2378 3379 2068 
Q 3634 1759 3634 1313 
Q 3634 634 3220 271 
Q 2806 -91 2034 -91 
Q 1263 -91 848 271 
Q 434 634 434 1313 
Q 434 1759 690 2068 
Q 947 2378 1403 2484 
z
M 1172 3481 
Q 1172 3119 1398 2916 
Q 1625 2713 2034 2713 
Q 2441 2713 2670 2916 
Q 2900 3119 2900 3481 
Q 2900 3844 2670 4047 
Q 2441 4250 2034 4250 
Q 1625 4250 1398 4047 
Q 1172 3844 1172 3481 
z
" transform="scale(0.015625)"/>
       </defs>
       <use xlink:href="#DejaVuSans-30"/>
       <use xlink:href="#DejaVuSans-2e" x="63.623047"/>
       <use xlink:href="#DejaVuSans-38" x="95.410156"/>
      </g>
     </g>
    </g>
    <g id="xtick_6">
     <g id="line2d_6">
      <g>
       <use xlink:href="#mf844e6850b" x="384.668523" y="273.312" style="stroke: #000000; stroke-width: 0.8"/>
      </g>
     </g>
     <g id="text_6">
      <!-- 1.0 -->
      <g transform="translate(376.71696 287.910437)scale(0.1 -0.1)">
       <defs>
        <path id="DejaVuSans-31" d="M 794 531 
L 1825 531 
L 1825 4091 
L 703 3866 
L 703 4441 
L 1819 4666 
L 2450 4666 
L 2450 531 
L 3481 531 
L 3481 0 
L 794 0 
L 794 531 
z
" transform="scale(0.015625)"/>
       </defs>
       <use xlink:href="#DejaVuSans-31"/>
       <use xlink:href="#DejaVuSans-2e" x="63.623047"/>
       <use xlink:href="#DejaVuSans-30" x="95.410156"/>
      </g>
     </g>
    </g>
    <g id="text_7">
     <!-- Propagation direction -->
     <g transform="translate(168.859219 301.588562)scale(0.1 -0.1)">
      <defs>
       <path id="DejaVuSans-50" d="M 1259 4147 
L 1259 2394 
L 2053 2394 
Q 2494 2394 2734 2622 
Q 2975 2850 2975 3272 
Q 2975 3691 2734 3919 
Q 2494 4147 2053 4147 
L 1259 4147 
z
M 628 4666 
L 2053 4666 
Q 2838 4666 3239 4311 
Q 3641 3956 3641 3272 
Q 3641 2581 3239 2228 
Q 2838 1875 2053 1875 
L 1259 1875 
L 1259 0 
L 628 0 
L 628 4666 
z
" transform="scale(0.015625)"/>
       <path id="DejaVuSans-72" d="M 2631 2963 
Q 2534 3019 2420 3045 
Q 2306 3072 2169 3072 
Q 1681 3072 1420 2755 
Q 1159 2438 1159 1844 
L 1159 0 
L 581 0 
L 581 3500 
L 1159 3500 
L 1159 2956 
Q 1341 3275 1631 3429 
Q 1922 3584 2338 3584 
Q 2397 3584 2469 3576 
Q 2541 3569 2628 3553 
L 2631 2963 
z
" transform="scale(0.015625)"/>
       <path id="DejaVuSans-6f" d="M 1959 3097 
Q 1497 3097 1228 2736 
Q 959 2375 959 1747 
Q 959 1119 1226 758 
Q 1494 397 1959 397 
Q 2419 397 2687 759 
Q 2956 1122 2956 1747 
Q 2956 2369 2687 2733 
Q 2419 3097 1959 3097 
z
M 1959 3584 
Q 2709 3584 3137 3096 
Q 3566 2609 3566 1747 
Q 3566 888 3137 398 
Q 2709 -91 1959 -91 
Q 1206 -91 779 398 
Q 353 888 353 1747 
Q 353 2609 779 3096 
Q 1206 3584 1959 3584 
z
" transform="scale(0.015625)"/>
       <path id="DejaVuSans-70" d="M 1159 525 
L 1159 -1331 
L 581 -1331 
L 581 3500 
L 1159 3500 
L 1159 2969 
Q 1341 3281 1617 3432 
Q 1894 3584 2278 3584 
Q 2916 3584 3314 3078 
Q 3713 2572 3713 1747 
Q 3713 922 3314 415 
Q 2916 -91 2278 -91 
Q 1894 -91 1617 61 
Q 1341 213 1159 525 
z
M 3116 1747 
Q 3116 2381 2855 2742 
Q 2594 3103 2138 3103 
Q 1681 3103 1420 2742 
Q 1159 2381 1159 1747 
Q 1159 1113 1420 752 
Q 1681 391 2138 391 
Q 2594 391 2855 752 
Q 3116 1113 3116 1747 
z
" transform="scale(0.015625)"/>
       <path id="DejaVuSans-61" d="M 2194 1759 
Q 1497 1759 1228 1600 
Q 959 1441 959 1056 
Q 959 750 1161 570 
Q 1363 391 1709 391 
Q 2188 391 2477 730 
Q 2766 1069 2766 1631 
L 2766 1759 
L 2194 1759 
z
M 3341 1997 
L 3341 0 
L 2766 0 
L 2766 531 
Q 2569 213 2275 61 
Q 1981 -91 1556 -91 
Q 1019 -91 701 211 
Q 384 513 384 1019 
Q 384 1609 779 1909 
Q 1175 2209 1959 2209 
L 2766 2209 
L 2766 2266 
Q 2766 2663 2505 2880 
Q 2244 3097 1772 3097 
Q 1472 3097 1187 3025 
Q 903 2953 641 2809 
L 641 3341 
Q 956 3463 1253 3523 
Q 1550 3584 1831 3584 
Q 2591 3584 2966 3190 
Q 3341 2797 3341 1997 
z
" transform="scale(0.015625)"/>
       <path id="DejaVuSans-67" d="M 2906 1791 
Q 2906 2416 2648 2759 
Q 2391 3103 1925 3103 
Q 1463 3103 1205 2759 
Q 947 2416 947 1791 
Q 947 1169 1205 825 
Q 1463 481 1925 481 
Q 2391 481 2648 825 
Q 2906 1169 2906 1791 
z
M 3481 434 
Q 3481 -459 3084 -895 
Q 2688 -1331 1869 -1331 
Q 1566 -1331 1297 -1286 
Q 1028 -1241 775 -1147 
L 775 -588 
Q 1028 -725 1275 -790 
Q 1522 -856 1778 -856 
Q 2344 -856 2625 -561 
Q 2906 -266 2906 331 
L 2906 616 
Q 2728 306 2450 153 
Q 2172 0 1784 0 
Q 1141 0 747 490 
Q 353 981 353 1791 
Q 353 2603 747 3093 
Q 1141 3584 1784 3584 
Q 2172 3584 2450 3431 
Q 2728 3278 2906 2969 
L 2906 3500 
L 3481 3500 
L 3481 434 
z
" transform="scale(0.015625)"/>
       <path id="DejaVuSans-74" d="M 1172 4494 
L 1172 3500 
L 2356 3500 
L 2356 3053 
L 1172 3053 
L 1172 1153 
Q 1172 725 1289 603 
Q 1406 481 1766 481 
L 2356 481 
L 2356 0 
L 1766 0 
Q 1100 0 847 248 
Q 594 497 594 1153 
L 594 3053 
L 172 3053 
L 172 3500 
L 594 3500 
L 594 4494 
L 1172 4494 
z
" transform="scale(0.015625)"/>
       <path id="DejaVuSans-69" d="M 603 3500 
L 1178 3500 
L 1178 0 
L 603 0 
L 603 3500 
z
M 603 4863 
L 1178 4863 
L 1178 4134 
L 603 4134 
L 603 4863 
z
" transform="scale(0.015625)"/>
       <path id="DejaVuSans-6e" d="M 3513 2113 
L 3513 0 
L 2938 0 
L 2938 2094 
Q 2938 2591 2744 2837 
Q 2550 3084 2163 3084 
Q 1697 3084 1428 2787 
Q 1159 2491 1159 1978 
L 1159 0 
L 581 0 
L 581 3500 
L 1159 3500 
L 1159 2956 
Q 1366 3272 1645 3428 
Q 1925 3584 2291 3584 
Q 2894 3584 3203 3211 
Q 3513 2838 3513 2113 
z
" transform="scale(0.015625)"/>
       <path id="DejaVuSans-20" transform="scale(0.015625)"/>
       <path id="DejaVuSans-64" d="M 2906 2969 
L 2906 4863 
L 3481 4863 
L 3481 0 
L 2906 0 
L 2906 525 
Q 2725 213 2448 61 
Q 2172 -91 1784 -91 
Q 1150 -91 751 415 
Q 353 922 353 1747 
Q 353 2572 751 3078 
Q 1150 3584 1784 3584 
Q 2172 3584 2448 3432 
Q 2725 3281 2906 2969 
z
M 947 1747 
Q 947 1113 1208 752 
Q 1469 391 1925 391 
Q 2381 391 2643 752 
Q 2906 1113 2906 1747 
Q 2906 2381 2643 2742 
Q 2381 3103 1925 3103 
Q 1469 3103 1208 2742 
Q 947 2381 947 1747 
z
" transform="scale(0.015625)"/>
       <path id="DejaVuSans-65" d="M 3597 1894 
L 3597 1613 
L 953 1613 
Q 991 1019 1311 708 
Q 1631 397 2203 397 
Q 2534 397 2845 478 
Q 3156 559 3463 722 
L 3463 178 
Q 3153 47 2828 -22 
Q 2503 -91 2169 -91 
Q 1331 -91 842 396 
Q 353 884 353 1716 
Q 353 2575 817 3079 
Q 1281 3584 2069 3584 
Q 2775 3584 3186 3129 
Q 3597 2675 3597 1894 
z
M 3022 2063 
Q 3016 2534 2758 2815 
Q 2500 3097 2075 3097 
Q 1594 3097 1305 2825 
Q 1016 2553 972 2059 
L 3022 2063 
z
" transform="scale(0.015625)"/>
       <path id="DejaVuSans-63" d="M 3122 3366 
L 3122 2828 
Q 2878 2963 2633 3030 
Q 2388 3097 2138 3097 
Q 1578 3097 1268 2742 
Q 959 2388 959 1747 
Q 959 1106 1268 751 
Q 1578 397 2138 397 
Q 2388 397 2633 464 
Q 2878 531 3122 666 
L 3122 134 
Q 2881 22 2623 -34 
Q 2366 -91 2075 -91 
Q 1284 -91 818 406 
Q 353 903 353 1747 
Q 353 2603 823 3093 
Q 1294 3584 2113 3584 
Q 2378 3584 2631 3529 
Q 2884 3475 3122 3366 
z
" transform="scale(0.015625)"/>
      </defs>
      <use xlink:href="#DejaVuSans-50"/>
      <use xlink:href="#DejaVuSans-72" x="58.552734"/>
      <use xlink:href="#DejaVuSans-6f" x="97.416016"/>
      <use xlink:href="#DejaVuSans-70" x="158.597656"/>
      <use xlink:href="#DejaVuSans-61" x="222.074219"/>
      <use xlink:href="#DejaVuSans-67" x="283.353516"/>
      <use xlink:href="#DejaVuSans-61" x="346.830078"/>
      <use xlink:href="#DejaVuSans-74" x="408.109375"/>
      <use xlink:href="#DejaVuSans-69" x="447.318359"/>
      <use xlink:href="#DejaVuSans-6f" x="475.101562"/>
      <use xlink:href="#DejaVuSans-6e" x="536.283203"/>
      <use xlink:href="#DejaVuSans-20" x="599.662109"/>
      <use xlink:href="#DejaVuSans-64" x="631.449219"/>
      <use xlink:href="#DejaVuSans-69" x="694.925781"/>
      <use xlink:href="#DejaVuSans-72" x="722.708984"/>
      <use xlink:href="#DejaVuSans-65" x="761.572266"/>
      <use xlink:href="#DejaVuSans-63" x="823.095703"/>
      <use xlink:href="#DejaVuSans-74" x="878.076172"/>
      <use xlink:href="#DejaVuSans-69" x="917.285156"/>
      <use xlink:href="#DejaVuSans-6f" x="945.068359"/>
      <use xlink:href="#DejaVuSans-6e" x="1006.25"/>
     </g>
    </g>
   </g>
   <g id="matplotlib.axis_2">
    <g id="ytick_1">
     <g id="line2d_7">
      <defs>
       <path id="m38c0d8af84" d="M 0 0 
L -3.5 0 
" style="stroke: #000000; stroke-width: 0.8"/>
      </defs>
      <g>
       <use xlink:href="#m38c0d8af84" x="43.78125" y="273.312" style="stroke: #000000; stroke-width: 0.8"/>
      </g>
     </g>
     <g id="text_8">
      <!-- 0.0 -->
      <g transform="translate(20.878125 277.111219)scale(0.1 -0.1)">
       <use xlink:href="#DejaVuSans-30"/>
       <use xlink:href="#DejaVuSans-2e" x="63.623047"/>
       <use xlink:href="#DejaVuSans-30" x="95.410156"/>
      </g>
     </g>
    </g>
    <g id="ytick_2">
     <g id="line2d_8">
      <g>
       <use xlink:href="#m38c0d8af84" x="43.78125" y="214.547728" style="stroke: #000000; stroke-width: 0.8"/>
      </g>
     </g>
     <g id="text_9">
      <!-- 0.5 -->
      <g transform="translate(20.878125 218.346947)scale(0.1 -0.1)">
       <defs>
        <path id="DejaVuSans-35" d="M 691 4666 
L 3169 4666 
L 3169 4134 
L 1269 4134 
L 1269 2991 
Q 1406 3038 1543 3061 
Q 1681 3084 1819 3084 
Q 2600 3084 3056 2656 
Q 3513 2228 3513 1497 
Q 3513 744 3044 326 
Q 2575 -91 1722 -91 
Q 1428 -91 1123 -41 
Q 819 9 494 109 
L 494 744 
Q 775 591 1075 516 
Q 1375 441 1709 441 
Q 2250 441 2565 725 
Q 2881 1009 2881 1497 
Q 2881 1984 2565 2268 
Q 2250 2553 1709 2553 
Q 1456 2553 1204 2497 
Q 953 2441 691 2322 
L 691 4666 
z
" transform="scale(0.015625)"/>
       </defs>
       <use xlink:href="#DejaVuSans-30"/>
       <use xlink:href="#DejaVuSans-2e" x="63.623047"/>
       <use xlink:href="#DejaVuSans-35" x="95.410156"/>
      </g>
     </g>
    </g>
    <g id="ytick_3">
     <g id="line2d_9">
      <g>
       <use xlink:href="#m38c0d8af84" x="43.78125" y="155.783457" style="stroke: #000000; stroke-width: 0.8"/>
      </g>
     </g>
     <g id="text_10">
      <!-- 1.0 -->
      <g transform="translate(20.878125 159.582676)scale(0.1 -0.1)">
       <use xlink:href="#DejaVuSans-31"/>
       <use xlink:href="#DejaVuSans-2e" x="63.623047"/>
       <use xlink:href="#DejaVuSans-30" x="95.410156"/>
      </g>
     </g>
    </g>
    <g id="ytick_4">
     <g id="line2d_10">
      <g>
       <use xlink:href="#m38c0d8af84" x="43.78125" y="97.019185" style="stroke: #000000; stroke-width: 0.8"/>
      </g>
     </g>
     <g id="text_11">
      <!-- 1.5 -->
      <g transform="translate(20.878125 100.818404)scale(0.1 -0.1)">
       <use xlink:href="#DejaVuSans-31"/>
       <use xlink:href="#DejaVuSans-2e" x="63.623047"/>
       <use xlink:href="#DejaVuSans-35" x="95.410156"/>
      </g>
     </g>
    </g>
    <g id="ytick_5">
     <g id="line2d_11">
      <g>
       <use xlink:href="#m38c0d8af84" x="43.78125" y="38.254914" style="stroke: #000000; stroke-width: 0.8"/>
      </g>
     </g>
     <g id="text_12">
      <!-- 2.0 -->
      <g transform="translate(20.878125 42.054132)scale(0.1 -0.1)">
       <use xlink:href="#DejaVuSans-32"/>
       <use xlink:href="#DejaVuSans-2e" x="63.623047"/>
       <use xlink:href="#DejaVuSans-30" x="95.410156"/>
      </g>
     </g>
    </g>
    <g id="text_13">
     <!-- Probability density -->
     <g transform="translate(14.798438 186.606781)rotate(-90)scale(0.1 -0.1)">
      <defs>
       <path id="DejaVuSans-62" d="M 3116 1747 
Q 3116 2381 2855 2742 
Q 2594 3103 2138 3103 
Q 1681 3103 1420 2742 
Q 1159 2381 1159 1747 
Q 1159 1113 1420 752 
Q 1681 391 2138 391 
Q 2594 391 2855 752 
Q 3116 1113 3116 1747 
z
M 1159 2969 
Q 1341 3281 1617 3432 
Q 1894 3584 2278 3584 
Q 2916 3584 3314 3078 
Q 3713 2572 3713 1747 
Q 3713 922 3314 415 
Q 2916 -91 2278 -91 
Q 1894 -91 1617 61 
Q 1341 213 1159 525 
L 1159 0 
L 581 0 
L 581 4863 
L 1159 4863 
L 1159 2969 
z
" transform="scale(0.015625)"/>
       <path id="DejaVuSans-6c" d="M 603 4863 
L 1178 4863 
L 1178 0 
L 603 0 
L 603 4863 
z
" transform="scale(0.015625)"/>
       <path id="DejaVuSans-79" d="M 2059 -325 
Q 1816 -950 1584 -1140 
Q 1353 -1331 966 -1331 
L 506 -1331 
L 506 -850 
L 844 -850 
Q 1081 -850 1212 -737 
Q 1344 -625 1503 -206 
L 1606 56 
L 191 3500 
L 800 3500 
L 1894 763 
L 2988 3500 
L 3597 3500 
L 2059 -325 
z
" transform="scale(0.015625)"/>
       <path id="DejaVuSans-73" d="M 2834 3397 
L 2834 2853 
Q 2591 2978 2328 3040 
Q 2066 3103 1784 3103 
Q 1356 3103 1142 2972 
Q 928 2841 928 2578 
Q 928 2378 1081 2264 
Q 1234 2150 1697 2047 
L 1894 2003 
Q 2506 1872 2764 1633 
Q 3022 1394 3022 966 
Q 3022 478 2636 193 
Q 2250 -91 1575 -91 
Q 1294 -91 989 -36 
Q 684 19 347 128 
L 347 722 
Q 666 556 975 473 
Q 1284 391 1588 391 
Q 1994 391 2212 530 
Q 2431 669 2431 922 
Q 2431 1156 2273 1281 
Q 2116 1406 1581 1522 
L 1381 1569 
Q 847 1681 609 1914 
Q 372 2147 372 2553 
Q 372 3047 722 3315 
Q 1072 3584 1716 3584 
Q 2034 3584 2315 3537 
Q 2597 3491 2834 3397 
z
" transform="scale(0.015625)"/>
      </defs>
      <use xlink:href="#DejaVuSans-50"/>
      <use xlink:href="#DejaVuSans-72" x="58.552734"/>
      <use xlink:href="#DejaVuSans-6f" x="97.416016"/>
      <use xlink:href="#DejaVuSans-62" x="158.597656"/>
      <use xlink:href="#DejaVuSans-61" x="222.074219"/>
      <use xlink:href="#DejaVuSans-62" x="283.353516"/>
      <use xlink:href="#DejaVuSans-69" x="346.830078"/>
      <use xlink:href="#DejaVuSans-6c" x="374.613281"/>
      <use xlink:href="#DejaVuSans-69" x="402.396484"/>
      <use xlink:href="#DejaVuSans-74" x="430.179688"/>
      <use xlink:href="#DejaVuSans-79" x="469.388672"/>
      <use xlink:href="#DejaVuSans-20" x="528.568359"/>
      <use xlink:href="#DejaVuSans-64" x="560.355469"/>
      <use xlink:href="#DejaVuSans-65" x="623.832031"/>
      <use xlink:href="#DejaVuSans-6e" x="685.355469"/>
      <use xlink:href="#DejaVuSans-73" x="748.734375"/>
      <use xlink:href="#DejaVuSans-69" x="800.833984"/>
      <use xlink:href="#DejaVuSans-74" x="828.617188"/>
      <use xlink:href="#DejaVuSans-79" x="867.826172"/>
     </g>
    </g>
   </g>
   <g id="line2d_12">
    <path d="M 60.013977 273.312 
L 384.668523 38.254914 
L 384.668523 38.254914 
" clip-path="url(#p9c1533b95e)" style="fill: none; stroke: #ff7f0e; stroke-width: 1.5; stroke-linecap: square"/>
   </g>
   <g id="patch_203">
    <path d="M 43.78125 273.312 
L 43.78125 7.2 
" style="fill: none; stroke: #000000; stroke-width: 0.8; stroke-linejoin: miter; stroke-linecap: square"/>
   </g>
   <g id="patch_204">
    <path d="M 400.90125 273.312 
L 400.90125 7.2 
" style="fill: none; stroke: #000000; stroke-width: 0.8; stroke-linejoin: miter; stroke-linecap: square"/>
   </g>
   <g id="patch_205">
    <path d="M 43.78125 273.312 
L 400.90125 273.312 
" style="fill: none; stroke: #000000; stroke-width: 0.8; stroke-linejoin: miter; stroke-linecap: square"/>
   </g>
   <g id="patch_206">
    <path d="M 43.78125 7.2 
L 400.90125 7.2 
" style="fill: none; stroke: #000000; stroke-width: 0.8; stroke-linejoin: miter; stroke-linecap: square"/>
   </g>
  </g>
 </g>
 <defs>
  <clipPath id="p9c1533b95e">
   <rect x="43.78125" y="7.2" width="357.12" height="266.112"/>
  </clipPath>
 </defs>
</svg>
