<?xml version="1.0" encoding="utf-8" standalone="no"?>
<!DOCTYPE svg PUBLIC "-//W3C//DTD SVG 1.1//EN"
  "http://www.w3.org/Graphics/SVG/1.1/DTD/svg11.dtd">
<svg xmlns:xlink="http://www.w3.org/1999/xlink" width="414.46375pt" height="310.86825pt" viewBox="0 0 414.46375 310.86825" xmlns="http://www.w3.org/2000/svg" version="1.1">
 <metadata>
  <rdf:RDF xmlns:dc="http://purl.org/dc/elements/1.1/" xmlns:cc="http://creativecommons.org/ns#" xmlns:rdf="http://www.w3.org/1999/02/22-rdf-syntax-ns#">
   <cc:Work>
    <dc:type rdf:resource="http://purl.org/dc/dcmitype/StillImage"/>
    <dc:date>2022-12-12T15:06:44.034662</dc:date>
    <dc:format>image/svg+xml</dc:format>
    <dc:creator>
     <cc:Agent>
      <dc:title>Matplotlib v3.5.3, https://matplotlib.org/</dc:title>
     </cc:Agent>
    </dc:creator>
   </cc:Work>
  </rdf:RDF>
 </metadata>
 <defs>
  <style type="text/css">*{stroke-linejoin: round; stroke-linecap: butt}</style>
 </defs>
 <g id="figure_1">
  <g id="patch_1">
   <path d="M 0 310.86825 
L 414.46375 310.86825 
L 414.46375 0 
L 0 0 
z
" style="fill: #ffffff"/>
  </g>
  <g id="axes_1">
   <g id="patch_2">
    <path d="M 50.14375 273.312 
L 407.26375 273.312 
L 407.26375 7.2 
L 50.14375 7.2 
z
" style="fill: #ffffff"/>
   </g>
   <g id="patch_3">
    <path d="M 67.829084 273.312 
L 69.445089 273.312 
L 69.445089 272.711431 
L 67.829084 272.711431 
z
" clip-path="url(#p0982de75d8)" style="fill: #1f77b4"/>
   </g>
   <g id="patch_4">
    <path d="M 69.445089 273.312 
L 71.061093 273.312 
L 71.061093 270.309156 
L 69.445089 270.309156 
z
" clip-path="url(#p0982de75d8)" style="fill: #1f77b4"/>
   </g>
   <g id="patch_5">
    <path d="M 71.061093 273.312 
L 72.677097 273.312 
L 72.677097 268.50745 
L 71.061093 268.50745 
z
" clip-path="url(#p0982de75d8)" style="fill: #1f77b4"/>
   </g>
   <g id="patch_6">
    <path d="M 72.677097 273.312 
L 74.293101 273.312 
L 74.293101 266.105175 
L 72.677097 266.105175 
z
" clip-path="url(#p0982de75d8)" style="fill: #1f77b4"/>
   </g>
   <g id="patch_7">
    <path d="M 74.293101 273.312 
L 75.909106 273.312 
L 75.909106 264.904038 
L 74.293101 264.904038 
z
" clip-path="url(#p0982de75d8)" style="fill: #1f77b4"/>
   </g>
   <g id="patch_8">
    <path d="M 75.909106 273.312 
L 77.52511 273.312 
L 77.52511 265.504607 
L 75.909106 265.504607 
z
" clip-path="url(#p0982de75d8)" style="fill: #1f77b4"/>
   </g>
   <g id="patch_9">
    <path d="M 77.52511 273.312 
L 79.141114 273.312 
L 79.141114 263.102332 
L 77.52511 263.102332 
z
" clip-path="url(#p0982de75d8)" style="fill: #1f77b4"/>
   </g>
   <g id="patch_10">
    <path d="M 79.141114 273.312 
L 80.757119 273.312 
L 80.757119 261.901194 
L 79.141114 261.901194 
z
" clip-path="url(#p0982de75d8)" style="fill: #1f77b4"/>
   </g>
   <g id="patch_11">
    <path d="M 80.757119 273.312 
L 82.373123 273.312 
L 82.373123 265.504607 
L 80.757119 265.504607 
z
" clip-path="url(#p0982de75d8)" style="fill: #1f77b4"/>
   </g>
   <g id="patch_12">
    <path d="M 82.373123 273.312 
L 83.989127 273.312 
L 83.989127 264.303469 
L 82.373123 264.303469 
z
" clip-path="url(#p0982de75d8)" style="fill: #1f77b4"/>
   </g>
   <g id="patch_13">
    <path d="M 83.989127 273.312 
L 85.605131 273.312 
L 85.605131 254.093801 
L 83.989127 254.093801 
z
" clip-path="url(#p0982de75d8)" style="fill: #1f77b4"/>
   </g>
   <g id="patch_14">
    <path d="M 85.605131 273.312 
L 87.221136 273.312 
L 87.221136 257.697213 
L 85.605131 257.697213 
z
" clip-path="url(#p0982de75d8)" style="fill: #1f77b4"/>
   </g>
   <g id="patch_15">
    <path d="M 87.221136 273.312 
L 88.83714 273.312 
L 88.83714 255.895507 
L 87.221136 255.895507 
z
" clip-path="url(#p0982de75d8)" style="fill: #1f77b4"/>
   </g>
   <g id="patch_16">
    <path d="M 88.83714 273.312 
L 90.453144 273.312 
L 90.453144 254.093801 
L 88.83714 254.093801 
z
" clip-path="url(#p0982de75d8)" style="fill: #1f77b4"/>
   </g>
   <g id="patch_17">
    <path d="M 90.453144 273.312 
L 92.069148 273.312 
L 92.069148 255.294938 
L 90.453144 255.294938 
z
" clip-path="url(#p0982de75d8)" style="fill: #1f77b4"/>
   </g>
   <g id="patch_18">
    <path d="M 92.069148 273.312 
L 93.685153 273.312 
L 93.685153 243.884133 
L 92.069148 243.884133 
z
" clip-path="url(#p0982de75d8)" style="fill: #1f77b4"/>
   </g>
   <g id="patch_19">
    <path d="M 93.685153 273.312 
L 95.301157 273.312 
L 95.301157 248.088114 
L 93.685153 248.088114 
z
" clip-path="url(#p0982de75d8)" style="fill: #1f77b4"/>
   </g>
   <g id="patch_20">
    <path d="M 95.301157 273.312 
L 96.917161 273.312 
L 96.917161 250.490389 
L 95.301157 250.490389 
z
" clip-path="url(#p0982de75d8)" style="fill: #1f77b4"/>
   </g>
   <g id="patch_21">
    <path d="M 96.917161 273.312 
L 98.533166 273.312 
L 98.533166 249.289251 
L 96.917161 249.289251 
z
" clip-path="url(#p0982de75d8)" style="fill: #1f77b4"/>
   </g>
   <g id="patch_22">
    <path d="M 98.533166 273.312 
L 100.14917 273.312 
L 100.14917 245.685839 
L 98.533166 245.685839 
z
" clip-path="url(#p0982de75d8)" style="fill: #1f77b4"/>
   </g>
   <g id="patch_23">
    <path d="M 100.14917 273.312 
L 101.765174 273.312 
L 101.765174 250.490389 
L 100.14917 250.490389 
z
" clip-path="url(#p0982de75d8)" style="fill: #1f77b4"/>
   </g>
   <g id="patch_24">
    <path d="M 101.765174 273.312 
L 103.381178 273.312 
L 103.381178 249.289251 
L 101.765174 249.289251 
z
" clip-path="url(#p0982de75d8)" style="fill: #1f77b4"/>
   </g>
   <g id="patch_25">
    <path d="M 103.381178 273.312 
L 104.997183 273.312 
L 104.997183 249.88982 
L 103.381178 249.88982 
z
" clip-path="url(#p0982de75d8)" style="fill: #1f77b4"/>
   </g>
   <g id="patch_26">
    <path d="M 104.997183 273.312 
L 106.613187 273.312 
L 106.613187 243.884133 
L 104.997183 243.884133 
z
" clip-path="url(#p0982de75d8)" style="fill: #1f77b4"/>
   </g>
   <g id="patch_27">
    <path d="M 106.613187 273.312 
L 108.229191 273.312 
L 108.229191 245.685839 
L 106.613187 245.685839 
z
" clip-path="url(#p0982de75d8)" style="fill: #1f77b4"/>
   </g>
   <g id="patch_28">
    <path d="M 108.229191 273.312 
L 109.845195 273.312 
L 109.845195 239.680152 
L 108.229191 239.680152 
z
" clip-path="url(#p0982de75d8)" style="fill: #1f77b4"/>
   </g>
   <g id="patch_29">
    <path d="M 109.845195 273.312 
L 111.4612 273.312 
L 111.4612 243.884133 
L 109.845195 243.884133 
z
" clip-path="url(#p0982de75d8)" style="fill: #1f77b4"/>
   </g>
   <g id="patch_30">
    <path d="M 111.4612 273.312 
L 113.077204 273.312 
L 113.077204 240.28072 
L 111.4612 240.28072 
z
" clip-path="url(#p0982de75d8)" style="fill: #1f77b4"/>
   </g>
   <g id="patch_31">
    <path d="M 113.077204 273.312 
L 114.693208 273.312 
L 114.693208 233.674464 
L 113.077204 233.674464 
z
" clip-path="url(#p0982de75d8)" style="fill: #1f77b4"/>
   </g>
   <g id="patch_32">
    <path d="M 114.693208 273.312 
L 116.309213 273.312 
L 116.309213 243.283564 
L 114.693208 243.283564 
z
" clip-path="url(#p0982de75d8)" style="fill: #1f77b4"/>
   </g>
   <g id="patch_33">
    <path d="M 116.309213 273.312 
L 117.925217 273.312 
L 117.925217 230.071052 
L 116.309213 230.071052 
z
" clip-path="url(#p0982de75d8)" style="fill: #1f77b4"/>
   </g>
   <g id="patch_34">
    <path d="M 117.925217 273.312 
L 119.541221 273.312 
L 119.541221 224.665934 
L 117.925217 224.665934 
z
" clip-path="url(#p0982de75d8)" style="fill: #1f77b4"/>
   </g>
   <g id="patch_35">
    <path d="M 119.541221 273.312 
L 121.157225 273.312 
L 121.157225 235.476171 
L 119.541221 235.476171 
z
" clip-path="url(#p0982de75d8)" style="fill: #1f77b4"/>
   </g>
   <g id="patch_36">
    <path d="M 121.157225 273.312 
L 122.77323 273.312 
L 122.77323 231.872758 
L 121.157225 231.872758 
z
" clip-path="url(#p0982de75d8)" style="fill: #1f77b4"/>
   </g>
   <g id="patch_37">
    <path d="M 122.77323 273.312 
L 124.389234 273.312 
L 124.389234 227.068209 
L 122.77323 227.068209 
z
" clip-path="url(#p0982de75d8)" style="fill: #1f77b4"/>
   </g>
   <g id="patch_38">
    <path d="M 124.389234 273.312 
L 126.005238 273.312 
L 126.005238 228.869915 
L 124.389234 228.869915 
z
" clip-path="url(#p0982de75d8)" style="fill: #1f77b4"/>
   </g>
   <g id="patch_39">
    <path d="M 126.005238 273.312 
L 127.621242 273.312 
L 127.621242 230.671621 
L 126.005238 230.671621 
z
" clip-path="url(#p0982de75d8)" style="fill: #1f77b4"/>
   </g>
   <g id="patch_40">
    <path d="M 127.621242 273.312 
L 129.237247 273.312 
L 129.237247 227.068209 
L 127.621242 227.068209 
z
" clip-path="url(#p0982de75d8)" style="fill: #1f77b4"/>
   </g>
   <g id="patch_41">
    <path d="M 129.237247 273.312 
L 130.853251 273.312 
L 130.853251 222.263659 
L 129.237247 222.263659 
z
" clip-path="url(#p0982de75d8)" style="fill: #1f77b4"/>
   </g>
   <g id="patch_42">
    <path d="M 130.853251 273.312 
L 132.469255 273.312 
L 132.469255 221.66309 
L 130.853251 221.66309 
z
" clip-path="url(#p0982de75d8)" style="fill: #1f77b4"/>
   </g>
   <g id="patch_43">
    <path d="M 132.469255 273.312 
L 134.08526 273.312 
L 134.08526 216.85854 
L 132.469255 216.85854 
z
" clip-path="url(#p0982de75d8)" style="fill: #1f77b4"/>
   </g>
   <g id="patch_44">
    <path d="M 134.08526 273.312 
L 135.701264 273.312 
L 135.701264 217.459109 
L 134.08526 217.459109 
z
" clip-path="url(#p0982de75d8)" style="fill: #1f77b4"/>
   </g>
   <g id="patch_45">
    <path d="M 135.701264 273.312 
L 137.317268 273.312 
L 137.317268 216.85854 
L 135.701264 216.85854 
z
" clip-path="url(#p0982de75d8)" style="fill: #1f77b4"/>
   </g>
   <g id="patch_46">
    <path d="M 137.317268 273.312 
L 138.933272 273.312 
L 138.933272 222.864227 
L 137.317268 222.864227 
z
" clip-path="url(#p0982de75d8)" style="fill: #1f77b4"/>
   </g>
   <g id="patch_47">
    <path d="M 138.933272 273.312 
L 140.549277 273.312 
L 140.549277 219.260815 
L 138.933272 219.260815 
z
" clip-path="url(#p0982de75d8)" style="fill: #1f77b4"/>
   </g>
   <g id="patch_48">
    <path d="M 140.549277 273.312 
L 142.165281 273.312 
L 142.165281 218.059678 
L 140.549277 218.059678 
z
" clip-path="url(#p0982de75d8)" style="fill: #1f77b4"/>
   </g>
   <g id="patch_49">
    <path d="M 142.165281 273.312 
L 143.781285 273.312 
L 143.781285 215.056834 
L 142.165281 215.056834 
z
" clip-path="url(#p0982de75d8)" style="fill: #1f77b4"/>
   </g>
   <g id="patch_50">
    <path d="M 143.781285 273.312 
L 145.397289 273.312 
L 145.397289 219.861384 
L 143.781285 219.861384 
z
" clip-path="url(#p0982de75d8)" style="fill: #1f77b4"/>
   </g>
   <g id="patch_51">
    <path d="M 145.397289 273.312 
L 147.013294 273.312 
L 147.013294 215.056834 
L 145.397289 215.056834 
z
" clip-path="url(#p0982de75d8)" style="fill: #1f77b4"/>
   </g>
   <g id="patch_52">
    <path d="M 147.013294 273.312 
L 148.629298 273.312 
L 148.629298 213.255128 
L 147.013294 213.255128 
z
" clip-path="url(#p0982de75d8)" style="fill: #1f77b4"/>
   </g>
   <g id="patch_53">
    <path d="M 148.629298 273.312 
L 150.245302 273.312 
L 150.245302 203.646028 
L 148.629298 203.646028 
z
" clip-path="url(#p0982de75d8)" style="fill: #1f77b4"/>
   </g>
   <g id="patch_54">
    <path d="M 150.245302 273.312 
L 151.861307 273.312 
L 151.861307 217.459109 
L 150.245302 217.459109 
z
" clip-path="url(#p0982de75d8)" style="fill: #1f77b4"/>
   </g>
   <g id="patch_55">
    <path d="M 151.861307 273.312 
L 153.477311 273.312 
L 153.477311 202.444891 
L 151.861307 202.444891 
z
" clip-path="url(#p0982de75d8)" style="fill: #1f77b4"/>
   </g>
   <g id="patch_56">
    <path d="M 153.477311 273.312 
L 155.093315 273.312 
L 155.093315 203.646028 
L 153.477311 203.646028 
z
" clip-path="url(#p0982de75d8)" style="fill: #1f77b4"/>
   </g>
   <g id="patch_57">
    <path d="M 155.093315 273.312 
L 156.709319 273.312 
L 156.709319 203.646028 
L 155.093315 203.646028 
z
" clip-path="url(#p0982de75d8)" style="fill: #1f77b4"/>
   </g>
   <g id="patch_58">
    <path d="M 156.709319 273.312 
L 158.325324 273.312 
L 158.325324 207.249441 
L 156.709319 207.249441 
z
" clip-path="url(#p0982de75d8)" style="fill: #1f77b4"/>
   </g>
   <g id="patch_59">
    <path d="M 158.325324 273.312 
L 159.941328 273.312 
L 159.941328 207.249441 
L 158.325324 207.249441 
z
" clip-path="url(#p0982de75d8)" style="fill: #1f77b4"/>
   </g>
   <g id="patch_60">
    <path d="M 159.941328 273.312 
L 161.557332 273.312 
L 161.557332 200.042616 
L 159.941328 200.042616 
z
" clip-path="url(#p0982de75d8)" style="fill: #1f77b4"/>
   </g>
   <g id="patch_61">
    <path d="M 161.557332 273.312 
L 163.173336 273.312 
L 163.173336 203.04546 
L 161.557332 203.04546 
z
" clip-path="url(#p0982de75d8)" style="fill: #1f77b4"/>
   </g>
   <g id="patch_62">
    <path d="M 163.173336 273.312 
L 164.789341 273.312 
L 164.789341 204.246597 
L 163.173336 204.246597 
z
" clip-path="url(#p0982de75d8)" style="fill: #1f77b4"/>
   </g>
   <g id="patch_63">
    <path d="M 164.789341 273.312 
L 166.405345 273.312 
L 166.405345 216.257972 
L 164.789341 216.257972 
z
" clip-path="url(#p0982de75d8)" style="fill: #1f77b4"/>
   </g>
   <g id="patch_64">
    <path d="M 166.405345 273.312 
L 168.021349 273.312 
L 168.021349 182.626123 
L 166.405345 182.626123 
z
" clip-path="url(#p0982de75d8)" style="fill: #1f77b4"/>
   </g>
   <g id="patch_65">
    <path d="M 168.021349 273.312 
L 169.637354 273.312 
L 169.637354 194.036929 
L 168.021349 194.036929 
z
" clip-path="url(#p0982de75d8)" style="fill: #1f77b4"/>
   </g>
   <g id="patch_66">
    <path d="M 169.637354 273.312 
L 171.253358 273.312 
L 171.253358 201.243754 
L 169.637354 201.243754 
z
" clip-path="url(#p0982de75d8)" style="fill: #1f77b4"/>
   </g>
   <g id="patch_67">
    <path d="M 171.253358 273.312 
L 172.869362 273.312 
L 172.869362 186.830104 
L 171.253358 186.830104 
z
" clip-path="url(#p0982de75d8)" style="fill: #1f77b4"/>
   </g>
   <g id="patch_68">
    <path d="M 172.869362 273.312 
L 174.485366 273.312 
L 174.485366 212.654559 
L 172.869362 212.654559 
z
" clip-path="url(#p0982de75d8)" style="fill: #1f77b4"/>
   </g>
   <g id="patch_69">
    <path d="M 174.485366 273.312 
L 176.101371 273.312 
L 176.101371 198.24091 
L 174.485366 198.24091 
z
" clip-path="url(#p0982de75d8)" style="fill: #1f77b4"/>
   </g>
   <g id="patch_70">
    <path d="M 176.101371 273.312 
L 177.717375 273.312 
L 177.717375 190.433517 
L 176.101371 190.433517 
z
" clip-path="url(#p0982de75d8)" style="fill: #1f77b4"/>
   </g>
   <g id="patch_71">
    <path d="M 177.717375 273.312 
L 179.333379 273.312 
L 179.333379 201.243754 
L 177.717375 201.243754 
z
" clip-path="url(#p0982de75d8)" style="fill: #1f77b4"/>
   </g>
   <g id="patch_72">
    <path d="M 179.333379 273.312 
L 180.949383 273.312 
L 180.949383 181.424986 
L 179.333379 181.424986 
z
" clip-path="url(#p0982de75d8)" style="fill: #1f77b4"/>
   </g>
   <g id="patch_73">
    <path d="M 180.949383 273.312 
L 182.565388 273.312 
L 182.565388 190.433517 
L 180.949383 190.433517 
z
" clip-path="url(#p0982de75d8)" style="fill: #1f77b4"/>
   </g>
   <g id="patch_74">
    <path d="M 182.565388 273.312 
L 184.181392 273.312 
L 184.181392 186.830104 
L 182.565388 186.830104 
z
" clip-path="url(#p0982de75d8)" style="fill: #1f77b4"/>
   </g>
   <g id="patch_75">
    <path d="M 184.181392 273.312 
L 185.797396 273.312 
L 185.797396 193.43636 
L 184.181392 193.43636 
z
" clip-path="url(#p0982de75d8)" style="fill: #1f77b4"/>
   </g>
   <g id="patch_76">
    <path d="M 185.797396 273.312 
L 187.413401 273.312 
L 187.413401 186.830104 
L 185.797396 186.830104 
z
" clip-path="url(#p0982de75d8)" style="fill: #1f77b4"/>
   </g>
   <g id="patch_77">
    <path d="M 187.413401 273.312 
L 189.029405 273.312 
L 189.029405 185.028398 
L 187.413401 185.028398 
z
" clip-path="url(#p0982de75d8)" style="fill: #1f77b4"/>
   </g>
   <g id="patch_78">
    <path d="M 189.029405 273.312 
L 190.645409 273.312 
L 190.645409 185.028398 
L 189.029405 185.028398 
z
" clip-path="url(#p0982de75d8)" style="fill: #1f77b4"/>
   </g>
   <g id="patch_79">
    <path d="M 190.645409 273.312 
L 192.261413 273.312 
L 192.261413 193.43636 
L 190.645409 193.43636 
z
" clip-path="url(#p0982de75d8)" style="fill: #1f77b4"/>
   </g>
   <g id="patch_80">
    <path d="M 192.261413 273.312 
L 193.877418 273.312 
L 193.877418 175.419299 
L 192.261413 175.419299 
z
" clip-path="url(#p0982de75d8)" style="fill: #1f77b4"/>
   </g>
   <g id="patch_81">
    <path d="M 193.877418 273.312 
L 195.493422 273.312 
L 195.493422 185.628967 
L 193.877418 185.628967 
z
" clip-path="url(#p0982de75d8)" style="fill: #1f77b4"/>
   </g>
   <g id="patch_82">
    <path d="M 195.493422 273.312 
L 197.109426 273.312 
L 197.109426 165.810199 
L 195.493422 165.810199 
z
" clip-path="url(#p0982de75d8)" style="fill: #1f77b4"/>
   </g>
   <g id="patch_83">
    <path d="M 197.109426 273.312 
L 198.72543 273.312 
L 198.72543 170.614749 
L 197.109426 170.614749 
z
" clip-path="url(#p0982de75d8)" style="fill: #1f77b4"/>
   </g>
   <g id="patch_84">
    <path d="M 198.72543 273.312 
L 200.341435 273.312 
L 200.341435 174.81873 
L 198.72543 174.81873 
z
" clip-path="url(#p0982de75d8)" style="fill: #1f77b4"/>
   </g>
   <g id="patch_85">
    <path d="M 200.341435 273.312 
L 201.957439 273.312 
L 201.957439 179.022711 
L 200.341435 179.022711 
z
" clip-path="url(#p0982de75d8)" style="fill: #1f77b4"/>
   </g>
   <g id="patch_86">
    <path d="M 201.957439 273.312 
L 203.573443 273.312 
L 203.573443 175.419299 
L 201.957439 175.419299 
z
" clip-path="url(#p0982de75d8)" style="fill: #1f77b4"/>
   </g>
   <g id="patch_87">
    <path d="M 203.573443 273.312 
L 205.189448 273.312 
L 205.189448 183.226692 
L 203.573443 183.226692 
z
" clip-path="url(#p0982de75d8)" style="fill: #1f77b4"/>
   </g>
   <g id="patch_88">
    <path d="M 205.189448 273.312 
L 206.805452 273.312 
L 206.805452 192.235223 
L 205.189448 192.235223 
z
" clip-path="url(#p0982de75d8)" style="fill: #1f77b4"/>
   </g>
   <g id="patch_89">
    <path d="M 206.805452 273.312 
L 208.421456 273.312 
L 208.421456 170.01418 
L 206.805452 170.01418 
z
" clip-path="url(#p0982de75d8)" style="fill: #1f77b4"/>
   </g>
   <g id="patch_90">
    <path d="M 208.421456 273.312 
L 210.03746 273.312 
L 210.03746 177.221005 
L 208.421456 177.221005 
z
" clip-path="url(#p0982de75d8)" style="fill: #1f77b4"/>
   </g>
   <g id="patch_91">
    <path d="M 210.03746 273.312 
L 211.653465 273.312 
L 211.653465 171.815886 
L 210.03746 171.815886 
z
" clip-path="url(#p0982de75d8)" style="fill: #1f77b4"/>
   </g>
   <g id="patch_92">
    <path d="M 211.653465 273.312 
L 213.269469 273.312 
L 213.269469 183.226692 
L 211.653465 183.226692 
z
" clip-path="url(#p0982de75d8)" style="fill: #1f77b4"/>
   </g>
   <g id="patch_93">
    <path d="M 213.269469 273.312 
L 214.885473 273.312 
L 214.885473 171.815886 
L 213.269469 171.815886 
z
" clip-path="url(#p0982de75d8)" style="fill: #1f77b4"/>
   </g>
   <g id="patch_94">
    <path d="M 214.885473 273.312 
L 216.501477 273.312 
L 216.501477 151.997118 
L 214.885473 151.997118 
z
" clip-path="url(#p0982de75d8)" style="fill: #1f77b4"/>
   </g>
   <g id="patch_95">
    <path d="M 216.501477 273.312 
L 218.117482 273.312 
L 218.117482 171.215318 
L 216.501477 171.215318 
z
" clip-path="url(#p0982de75d8)" style="fill: #1f77b4"/>
   </g>
   <g id="patch_96">
    <path d="M 218.117482 273.312 
L 219.733486 273.312 
L 219.733486 158.002806 
L 218.117482 158.002806 
z
" clip-path="url(#p0982de75d8)" style="fill: #1f77b4"/>
   </g>
   <g id="patch_97">
    <path d="M 219.733486 273.312 
L 221.34949 273.312 
L 221.34949 159.203943 
L 219.733486 159.203943 
z
" clip-path="url(#p0982de75d8)" style="fill: #1f77b4"/>
   </g>
   <g id="patch_98">
    <path d="M 221.34949 273.312 
L 222.965495 273.312 
L 222.965495 145.390863 
L 221.34949 145.390863 
z
" clip-path="url(#p0982de75d8)" style="fill: #1f77b4"/>
   </g>
   <g id="patch_99">
    <path d="M 222.965495 273.312 
L 224.581499 273.312 
L 224.581499 152.597687 
L 222.965495 152.597687 
z
" clip-path="url(#p0982de75d8)" style="fill: #1f77b4"/>
   </g>
   <g id="patch_100">
    <path d="M 224.581499 273.312 
L 226.197503 273.312 
L 226.197503 167.611905 
L 224.581499 167.611905 
z
" clip-path="url(#p0982de75d8)" style="fill: #1f77b4"/>
   </g>
   <g id="patch_101">
    <path d="M 226.197503 273.312 
L 227.813507 273.312 
L 227.813507 161.606218 
L 226.197503 161.606218 
z
" clip-path="url(#p0982de75d8)" style="fill: #1f77b4"/>
   </g>
   <g id="patch_102">
    <path d="M 227.813507 273.312 
L 229.429512 273.312 
L 229.429512 148.994275 
L 227.813507 148.994275 
z
" clip-path="url(#p0982de75d8)" style="fill: #1f77b4"/>
   </g>
   <g id="patch_103">
    <path d="M 229.429512 273.312 
L 231.045516 273.312 
L 231.045516 161.005649 
L 229.429512 161.005649 
z
" clip-path="url(#p0982de75d8)" style="fill: #1f77b4"/>
   </g>
   <g id="patch_104">
    <path d="M 231.045516 273.312 
L 232.66152 273.312 
L 232.66152 141.186882 
L 231.045516 141.186882 
z
" clip-path="url(#p0982de75d8)" style="fill: #1f77b4"/>
   </g>
   <g id="patch_105">
    <path d="M 232.66152 273.312 
L 234.277524 273.312 
L 234.277524 159.804512 
L 232.66152 159.804512 
z
" clip-path="url(#p0982de75d8)" style="fill: #1f77b4"/>
   </g>
   <g id="patch_106">
    <path d="M 234.277524 273.312 
L 235.893529 273.312 
L 235.893529 165.20963 
L 234.277524 165.20963 
z
" clip-path="url(#p0982de75d8)" style="fill: #1f77b4"/>
   </g>
   <g id="patch_107">
    <path d="M 235.893529 273.312 
L 237.509533 273.312 
L 237.509533 139.985744 
L 235.893529 139.985744 
z
" clip-path="url(#p0982de75d8)" style="fill: #1f77b4"/>
   </g>
   <g id="patch_108">
    <path d="M 237.509533 273.312 
L 239.125537 273.312 
L 239.125537 132.178351 
L 237.509533 132.178351 
z
" clip-path="url(#p0982de75d8)" style="fill: #1f77b4"/>
   </g>
   <g id="patch_109">
    <path d="M 239.125537 273.312 
L 240.741542 273.312 
L 240.741542 147.192569 
L 239.125537 147.192569 
z
" clip-path="url(#p0982de75d8)" style="fill: #1f77b4"/>
   </g>
   <g id="patch_110">
    <path d="M 240.741542 273.312 
L 242.357546 273.312 
L 242.357546 148.393706 
L 240.741542 148.393706 
z
" clip-path="url(#p0982de75d8)" style="fill: #1f77b4"/>
   </g>
   <g id="patch_111">
    <path d="M 242.357546 273.312 
L 243.97355 273.312 
L 243.97355 135.181194 
L 242.357546 135.181194 
z
" clip-path="url(#p0982de75d8)" style="fill: #1f77b4"/>
   </g>
   <g id="patch_112">
    <path d="M 243.97355 273.312 
L 245.589554 273.312 
L 245.589554 145.390863 
L 243.97355 145.390863 
z
" clip-path="url(#p0982de75d8)" style="fill: #1f77b4"/>
   </g>
   <g id="patch_113">
    <path d="M 245.589554 273.312 
L 247.205559 273.312 
L 247.205559 141.78745 
L 245.589554 141.78745 
z
" clip-path="url(#p0982de75d8)" style="fill: #1f77b4"/>
   </g>
   <g id="patch_114">
    <path d="M 247.205559 273.312 
L 248.821563 273.312 
L 248.821563 143.589156 
L 247.205559 143.589156 
z
" clip-path="url(#p0982de75d8)" style="fill: #1f77b4"/>
   </g>
   <g id="patch_115">
    <path d="M 248.821563 273.312 
L 250.437567 273.312 
L 250.437567 139.385175 
L 248.821563 139.385175 
z
" clip-path="url(#p0982de75d8)" style="fill: #1f77b4"/>
   </g>
   <g id="patch_116">
    <path d="M 250.437567 273.312 
L 252.053571 273.312 
L 252.053571 141.78745 
L 250.437567 141.78745 
z
" clip-path="url(#p0982de75d8)" style="fill: #1f77b4"/>
   </g>
   <g id="patch_117">
    <path d="M 252.053571 273.312 
L 253.669576 273.312 
L 253.669576 135.781763 
L 252.053571 135.781763 
z
" clip-path="url(#p0982de75d8)" style="fill: #1f77b4"/>
   </g>
   <g id="patch_118">
    <path d="M 253.669576 273.312 
L 255.28558 273.312 
L 255.28558 143.589156 
L 253.669576 143.589156 
z
" clip-path="url(#p0982de75d8)" style="fill: #1f77b4"/>
   </g>
   <g id="patch_119">
    <path d="M 255.28558 273.312 
L 256.901584 273.312 
L 256.901584 140.586313 
L 255.28558 140.586313 
z
" clip-path="url(#p0982de75d8)" style="fill: #1f77b4"/>
   </g>
   <g id="patch_120">
    <path d="M 256.901584 273.312 
L 258.517589 273.312 
L 258.517589 130.376645 
L 256.901584 130.376645 
z
" clip-path="url(#p0982de75d8)" style="fill: #1f77b4"/>
   </g>
   <g id="patch_121">
    <path d="M 258.517589 273.312 
L 260.133593 273.312 
L 260.133593 136.382332 
L 258.517589 136.382332 
z
" clip-path="url(#p0982de75d8)" style="fill: #1f77b4"/>
   </g>
   <g id="patch_122">
    <path d="M 260.133593 273.312 
L 261.749597 273.312 
L 261.749597 131.577782 
L 260.133593 131.577782 
z
" clip-path="url(#p0982de75d8)" style="fill: #1f77b4"/>
   </g>
   <g id="patch_123">
    <path d="M 261.749597 273.312 
L 263.365601 273.312 
L 263.365601 120.166976 
L 261.749597 120.166976 
z
" clip-path="url(#p0982de75d8)" style="fill: #1f77b4"/>
   </g>
   <g id="patch_124">
    <path d="M 263.365601 273.312 
L 264.981606 273.312 
L 264.981606 126.773232 
L 263.365601 126.773232 
z
" clip-path="url(#p0982de75d8)" style="fill: #1f77b4"/>
   </g>
   <g id="patch_125">
    <path d="M 264.981606 273.312 
L 266.59761 273.312 
L 266.59761 120.166976 
L 264.981606 120.166976 
z
" clip-path="url(#p0982de75d8)" style="fill: #1f77b4"/>
   </g>
   <g id="patch_126">
    <path d="M 266.59761 273.312 
L 268.213614 273.312 
L 268.213614 114.761858 
L 266.59761 114.761858 
z
" clip-path="url(#p0982de75d8)" style="fill: #1f77b4"/>
   </g>
   <g id="patch_127">
    <path d="M 268.213614 273.312 
L 269.829618 273.312 
L 269.829618 113.56072 
L 268.213614 113.56072 
z
" clip-path="url(#p0982de75d8)" style="fill: #1f77b4"/>
   </g>
   <g id="patch_128">
    <path d="M 269.829618 273.312 
L 271.445623 273.312 
L 271.445623 120.767545 
L 269.829618 120.767545 
z
" clip-path="url(#p0982de75d8)" style="fill: #1f77b4"/>
   </g>
   <g id="patch_129">
    <path d="M 271.445623 273.312 
L 273.061627 273.312 
L 273.061627 128.574938 
L 271.445623 128.574938 
z
" clip-path="url(#p0982de75d8)" style="fill: #1f77b4"/>
   </g>
   <g id="patch_130">
    <path d="M 273.061627 273.312 
L 274.677631 273.312 
L 274.677631 112.960152 
L 273.061627 112.960152 
z
" clip-path="url(#p0982de75d8)" style="fill: #1f77b4"/>
   </g>
   <g id="patch_131">
    <path d="M 274.677631 273.312 
L 276.293636 273.312 
L 276.293636 136.9829 
L 274.677631 136.9829 
z
" clip-path="url(#p0982de75d8)" style="fill: #1f77b4"/>
   </g>
   <g id="patch_132">
    <path d="M 276.293636 273.312 
L 277.90964 273.312 
L 277.90964 117.164133 
L 276.293636 117.164133 
z
" clip-path="url(#p0982de75d8)" style="fill: #1f77b4"/>
   </g>
   <g id="patch_133">
    <path d="M 277.90964 273.312 
L 279.525644 273.312 
L 279.525644 122.569251 
L 277.90964 122.569251 
z
" clip-path="url(#p0982de75d8)" style="fill: #1f77b4"/>
   </g>
   <g id="patch_134">
    <path d="M 279.525644 273.312 
L 281.141648 273.312 
L 281.141648 125.572095 
L 279.525644 125.572095 
z
" clip-path="url(#p0982de75d8)" style="fill: #1f77b4"/>
   </g>
   <g id="patch_135">
    <path d="M 281.141648 273.312 
L 282.757653 273.312 
L 282.757653 124.370957 
L 281.141648 124.370957 
z
" clip-path="url(#p0982de75d8)" style="fill: #1f77b4"/>
   </g>
   <g id="patch_136">
    <path d="M 282.757653 273.312 
L 284.373657 273.312 
L 284.373657 108.155602 
L 282.757653 108.155602 
z
" clip-path="url(#p0982de75d8)" style="fill: #1f77b4"/>
   </g>
   <g id="patch_137">
    <path d="M 284.373657 273.312 
L 285.989661 273.312 
L 285.989661 112.359583 
L 284.373657 112.359583 
z
" clip-path="url(#p0982de75d8)" style="fill: #1f77b4"/>
   </g>
   <g id="patch_138">
    <path d="M 285.989661 273.312 
L 287.605665 273.312 
L 287.605665 117.164133 
L 285.989661 117.164133 
z
" clip-path="url(#p0982de75d8)" style="fill: #1f77b4"/>
   </g>
   <g id="patch_139">
    <path d="M 287.605665 273.312 
L 289.22167 273.312 
L 289.22167 102.149915 
L 287.605665 102.149915 
z
" clip-path="url(#p0982de75d8)" style="fill: #1f77b4"/>
   </g>
   <g id="patch_140">
    <path d="M 289.22167 273.312 
L 290.837674 273.312 
L 290.837674 97.345365 
L 289.22167 97.345365 
z
" clip-path="url(#p0982de75d8)" style="fill: #1f77b4"/>
   </g>
   <g id="patch_141">
    <path d="M 290.837674 273.312 
L 292.453678 273.312 
L 292.453678 92.540815 
L 290.837674 92.540815 
z
" clip-path="url(#p0982de75d8)" style="fill: #1f77b4"/>
   </g>
   <g id="patch_142">
    <path d="M 292.453678 273.312 
L 294.069683 273.312 
L 294.069683 94.342521 
L 292.453678 94.342521 
z
" clip-path="url(#p0982de75d8)" style="fill: #1f77b4"/>
   </g>
   <g id="patch_143">
    <path d="M 294.069683 273.312 
L 295.685687 273.312 
L 295.685687 120.166976 
L 294.069683 120.166976 
z
" clip-path="url(#p0982de75d8)" style="fill: #1f77b4"/>
   </g>
   <g id="patch_144">
    <path d="M 295.685687 273.312 
L 297.301691 273.312 
L 297.301691 129.776076 
L 295.685687 129.776076 
z
" clip-path="url(#p0982de75d8)" style="fill: #1f77b4"/>
   </g>
   <g id="patch_145">
    <path d="M 297.301691 273.312 
L 298.917695 273.312 
L 298.917695 79.928872 
L 297.301691 79.928872 
z
" clip-path="url(#p0982de75d8)" style="fill: #1f77b4"/>
   </g>
   <g id="patch_146">
    <path d="M 298.917695 273.312 
L 300.5337 273.312 
L 300.5337 102.149915 
L 298.917695 102.149915 
z
" clip-path="url(#p0982de75d8)" style="fill: #1f77b4"/>
   </g>
   <g id="patch_147">
    <path d="M 300.5337 273.312 
L 302.149704 273.312 
L 302.149704 96.744796 
L 300.5337 96.744796 
z
" clip-path="url(#p0982de75d8)" style="fill: #1f77b4"/>
   </g>
   <g id="patch_148">
    <path d="M 302.149704 273.312 
L 303.765708 273.312 
L 303.765708 96.144227 
L 302.149704 96.144227 
z
" clip-path="url(#p0982de75d8)" style="fill: #1f77b4"/>
   </g>
   <g id="patch_149">
    <path d="M 303.765708 273.312 
L 305.381712 273.312 
L 305.381712 80.529441 
L 303.765708 80.529441 
z
" clip-path="url(#p0982de75d8)" style="fill: #1f77b4"/>
   </g>
   <g id="patch_150">
    <path d="M 305.381712 273.312 
L 306.997717 273.312 
L 306.997717 77.526597 
L 305.381712 77.526597 
z
" clip-path="url(#p0982de75d8)" style="fill: #1f77b4"/>
   </g>
   <g id="patch_151">
    <path d="M 306.997717 273.312 
L 308.613721 273.312 
L 308.613721 96.744796 
L 306.997717 96.744796 
z
" clip-path="url(#p0982de75d8)" style="fill: #1f77b4"/>
   </g>
   <g id="patch_152">
    <path d="M 308.613721 273.312 
L 310.229725 273.312 
L 310.229725 90.739109 
L 308.613721 90.739109 
z
" clip-path="url(#p0982de75d8)" style="fill: #1f77b4"/>
   </g>
   <g id="patch_153">
    <path d="M 310.229725 273.312 
L 311.84573 273.312 
L 311.84573 99.74764 
L 310.229725 99.74764 
z
" clip-path="url(#p0982de75d8)" style="fill: #1f77b4"/>
   </g>
   <g id="patch_154">
    <path d="M 311.84573 273.312 
L 313.461734 273.312 
L 313.461734 100.948777 
L 311.84573 100.948777 
z
" clip-path="url(#p0982de75d8)" style="fill: #1f77b4"/>
   </g>
   <g id="patch_155">
    <path d="M 313.461734 273.312 
L 315.077738 273.312 
L 315.077738 100.948777 
L 313.461734 100.948777 
z
" clip-path="url(#p0982de75d8)" style="fill: #1f77b4"/>
   </g>
   <g id="patch_156">
    <path d="M 315.077738 273.312 
L 316.693742 273.312 
L 316.693742 87.736265 
L 315.077738 87.736265 
z
" clip-path="url(#p0982de75d8)" style="fill: #1f77b4"/>
   </g>
   <g id="patch_157">
    <path d="M 316.693742 273.312 
L 318.309747 273.312 
L 318.309747 84.132853 
L 316.693742 84.132853 
z
" clip-path="url(#p0982de75d8)" style="fill: #1f77b4"/>
   </g>
   <g id="patch_158">
    <path d="M 318.309747 273.312 
L 319.925751 273.312 
L 319.925751 91.940246 
L 318.309747 91.940246 
z
" clip-path="url(#p0982de75d8)" style="fill: #1f77b4"/>
   </g>
   <g id="patch_159">
    <path d="M 319.925751 273.312 
L 321.541755 273.312 
L 321.541755 95.543659 
L 319.925751 95.543659 
z
" clip-path="url(#p0982de75d8)" style="fill: #1f77b4"/>
   </g>
   <g id="patch_160">
    <path d="M 321.541755 273.312 
L 323.157759 273.312 
L 323.157759 91.940246 
L 321.541755 91.940246 
z
" clip-path="url(#p0982de75d8)" style="fill: #1f77b4"/>
   </g>
   <g id="patch_161">
    <path d="M 323.157759 273.312 
L 324.773764 273.312 
L 324.773764 81.730578 
L 323.157759 81.730578 
z
" clip-path="url(#p0982de75d8)" style="fill: #1f77b4"/>
   </g>
   <g id="patch_162">
    <path d="M 324.773764 273.312 
L 326.389768 273.312 
L 326.389768 63.112948 
L 324.773764 63.112948 
z
" clip-path="url(#p0982de75d8)" style="fill: #1f77b4"/>
   </g>
   <g id="patch_163">
    <path d="M 326.389768 273.312 
L 328.005772 273.312 
L 328.005772 67.316929 
L 326.389768 67.316929 
z
" clip-path="url(#p0982de75d8)" style="fill: #1f77b4"/>
   </g>
   <g id="patch_164">
    <path d="M 328.005772 273.312 
L 329.621777 273.312 
L 329.621777 93.141384 
L 328.005772 93.141384 
z
" clip-path="url(#p0982de75d8)" style="fill: #1f77b4"/>
   </g>
   <g id="patch_165">
    <path d="M 329.621777 273.312 
L 331.237781 273.312 
L 331.237781 83.532284 
L 329.621777 83.532284 
z
" clip-path="url(#p0982de75d8)" style="fill: #1f77b4"/>
   </g>
   <g id="patch_166">
    <path d="M 331.237781 273.312 
L 332.853785 273.312 
L 332.853785 71.52091 
L 331.237781 71.52091 
z
" clip-path="url(#p0982de75d8)" style="fill: #1f77b4"/>
   </g>
   <g id="patch_167">
    <path d="M 332.853785 273.312 
L 334.469789 273.312 
L 334.469789 73.322616 
L 332.853785 73.322616 
z
" clip-path="url(#p0982de75d8)" style="fill: #1f77b4"/>
   </g>
   <g id="patch_168">
    <path d="M 334.469789 273.312 
L 336.085794 273.312 
L 336.085794 62.512379 
L 334.469789 62.512379 
z
" clip-path="url(#p0982de75d8)" style="fill: #1f77b4"/>
   </g>
   <g id="patch_169">
    <path d="M 336.085794 273.312 
L 337.701798 273.312 
L 337.701798 61.311242 
L 336.085794 61.311242 
z
" clip-path="url(#p0982de75d8)" style="fill: #1f77b4"/>
   </g>
   <g id="patch_170">
    <path d="M 337.701798 273.312 
L 339.317802 273.312 
L 339.317802 76.32546 
L 337.701798 76.32546 
z
" clip-path="url(#p0982de75d8)" style="fill: #1f77b4"/>
   </g>
   <g id="patch_171">
    <path d="M 339.317802 273.312 
L 340.933806 273.312 
L 340.933806 82.931716 
L 339.317802 82.931716 
z
" clip-path="url(#p0982de75d8)" style="fill: #1f77b4"/>
   </g>
   <g id="patch_172">
    <path d="M 340.933806 273.312 
L 342.549811 273.312 
L 342.549811 79.328303 
L 340.933806 79.328303 
z
" clip-path="url(#p0982de75d8)" style="fill: #1f77b4"/>
   </g>
   <g id="patch_173">
    <path d="M 342.549811 273.312 
L 344.165815 273.312 
L 344.165815 68.518066 
L 342.549811 68.518066 
z
" clip-path="url(#p0982de75d8)" style="fill: #1f77b4"/>
   </g>
   <g id="patch_174">
    <path d="M 344.165815 273.312 
L 345.781819 273.312 
L 345.781819 78.727735 
L 344.165815 78.727735 
z
" clip-path="url(#p0982de75d8)" style="fill: #1f77b4"/>
   </g>
   <g id="patch_175">
    <path d="M 345.781819 273.312 
L 347.397824 273.312 
L 347.397824 66.71636 
L 345.781819 66.71636 
z
" clip-path="url(#p0982de75d8)" style="fill: #1f77b4"/>
   </g>
   <g id="patch_176">
    <path d="M 347.397824 273.312 
L 349.013828 273.312 
L 349.013828 52.302711 
L 347.397824 52.302711 
z
" clip-path="url(#p0982de75d8)" style="fill: #1f77b4"/>
   </g>
   <g id="patch_177">
    <path d="M 349.013828 273.312 
L 350.629832 273.312 
L 350.629832 88.937403 
L 349.013828 88.937403 
z
" clip-path="url(#p0982de75d8)" style="fill: #1f77b4"/>
   </g>
   <g id="patch_178">
    <path d="M 350.629832 273.312 
L 352.245836 273.312 
L 352.245836 73.322616 
L 350.629832 73.322616 
z
" clip-path="url(#p0982de75d8)" style="fill: #1f77b4"/>
   </g>
   <g id="patch_179">
    <path d="M 352.245836 273.312 
L 353.861841 273.312 
L 353.861841 52.90328 
L 352.245836 52.90328 
z
" clip-path="url(#p0982de75d8)" style="fill: #1f77b4"/>
   </g>
   <g id="patch_180">
    <path d="M 353.861841 273.312 
L 355.477845 273.312 
L 355.477845 65.515223 
L 353.861841 65.515223 
z
" clip-path="url(#p0982de75d8)" style="fill: #1f77b4"/>
   </g>
   <g id="patch_181">
    <path d="M 355.477845 273.312 
L 357.093849 273.312 
L 357.093849 46.297024 
L 355.477845 46.297024 
z
" clip-path="url(#p0982de75d8)" style="fill: #1f77b4"/>
   </g>
   <g id="patch_182">
    <path d="M 357.093849 273.312 
L 358.709853 273.312 
L 358.709853 49.900436 
L 357.093849 49.900436 
z
" clip-path="url(#p0982de75d8)" style="fill: #1f77b4"/>
   </g>
   <g id="patch_183">
    <path d="M 358.709853 273.312 
L 360.325858 273.312 
L 360.325858 49.299867 
L 358.709853 49.299867 
z
" clip-path="url(#p0982de75d8)" style="fill: #1f77b4"/>
   </g>
   <g id="patch_184">
    <path d="M 360.325858 273.312 
L 361.941862 273.312 
L 361.941862 61.311242 
L 360.325858 61.311242 
z
" clip-path="url(#p0982de75d8)" style="fill: #1f77b4"/>
   </g>
   <g id="patch_185">
    <path d="M 361.941862 273.312 
L 363.557866 273.312 
L 363.557866 47.498161 
L 361.941862 47.498161 
z
" clip-path="url(#p0982de75d8)" style="fill: #1f77b4"/>
   </g>
   <g id="patch_186">
    <path d="M 363.557866 273.312 
L 365.173871 273.312 
L 365.173871 37.889062 
L 363.557866 37.889062 
z
" clip-path="url(#p0982de75d8)" style="fill: #1f77b4"/>
   </g>
   <g id="patch_187">
    <path d="M 365.173871 273.312 
L 366.789875 273.312 
L 366.789875 61.311242 
L 365.173871 61.311242 
z
" clip-path="url(#p0982de75d8)" style="fill: #1f77b4"/>
   </g>
   <g id="patch_188">
    <path d="M 366.789875 273.312 
L 368.405879 273.312 
L 368.405879 45.095886 
L 366.789875 45.095886 
z
" clip-path="url(#p0982de75d8)" style="fill: #1f77b4"/>
   </g>
   <g id="patch_189">
    <path d="M 368.405879 273.312 
L 370.021883 273.312 
L 370.021883 55.305555 
L 368.405879 55.305555 
z
" clip-path="url(#p0982de75d8)" style="fill: #1f77b4"/>
   </g>
   <g id="patch_190">
    <path d="M 370.021883 273.312 
L 371.637888 273.312 
L 371.637888 56.506692 
L 370.021883 56.506692 
z
" clip-path="url(#p0982de75d8)" style="fill: #1f77b4"/>
   </g>
   <g id="patch_191">
    <path d="M 371.637888 273.312 
L 373.253892 273.312 
L 373.253892 58.308398 
L 371.637888 58.308398 
z
" clip-path="url(#p0982de75d8)" style="fill: #1f77b4"/>
   </g>
   <g id="patch_192">
    <path d="M 373.253892 273.312 
L 374.869896 273.312 
L 374.869896 67.917498 
L 373.253892 67.917498 
z
" clip-path="url(#p0982de75d8)" style="fill: #1f77b4"/>
   </g>
   <g id="patch_193">
    <path d="M 374.869896 273.312 
L 376.4859 273.312 
L 376.4859 19.872 
L 374.869896 19.872 
z
" clip-path="url(#p0982de75d8)" style="fill: #1f77b4"/>
   </g>
   <g id="patch_194">
    <path d="M 376.4859 273.312 
L 378.101905 273.312 
L 378.101905 60.110104 
L 376.4859 60.110104 
z
" clip-path="url(#p0982de75d8)" style="fill: #1f77b4"/>
   </g>
   <g id="patch_195">
    <path d="M 378.101905 273.312 
L 379.717909 273.312 
L 379.717909 31.883374 
L 378.101905 31.883374 
z
" clip-path="url(#p0982de75d8)" style="fill: #1f77b4"/>
   </g>
   <g id="patch_196">
    <path d="M 379.717909 273.312 
L 381.333913 273.312 
L 381.333913 40.291336 
L 379.717909 40.291336 
z
" clip-path="url(#p0982de75d8)" style="fill: #1f77b4"/>
   </g>
   <g id="patch_197">
    <path d="M 381.333913 273.312 
L 382.949918 273.312 
L 382.949918 45.696455 
L 381.333913 45.696455 
z
" clip-path="url(#p0982de75d8)" style="fill: #1f77b4"/>
   </g>
   <g id="patch_198">
    <path d="M 382.949918 273.312 
L 384.565922 273.312 
L 384.565922 25.277118 
L 382.949918 25.277118 
z
" clip-path="url(#p0982de75d8)" style="fill: #1f77b4"/>
   </g>
   <g id="patch_199">
    <path d="M 384.565922 273.312 
L 386.181926 273.312 
L 386.181926 24.075981 
L 384.565922 24.075981 
z
" clip-path="url(#p0982de75d8)" style="fill: #1f77b4"/>
   </g>
   <g id="patch_200">
    <path d="M 386.181926 273.312 
L 387.79793 273.312 
L 387.79793 46.897592 
L 386.181926 46.897592 
z
" clip-path="url(#p0982de75d8)" style="fill: #1f77b4"/>
   </g>
   <g id="patch_201">
    <path d="M 387.79793 273.312 
L 389.413935 273.312 
L 389.413935 40.891905 
L 387.79793 40.891905 
z
" clip-path="url(#p0982de75d8)" style="fill: #1f77b4"/>
   </g>
   <g id="patch_202">
    <path d="M 389.413935 273.312 
L 391.029939 273.312 
L 391.029939 29.4811 
L 389.413935 29.4811 
z
" clip-path="url(#p0982de75d8)" style="fill: #1f77b4"/>
   </g>
   <g id="matplotlib.axis_1">
    <g id="xtick_1">
     <g id="line2d_1">
      <defs>
       <path id="m66623b8459" d="M 0 0 
L 0 3.5 
" style="stroke: #000000; stroke-width: 0.8"/>
      </defs>
      <g>
       <use xlink:href="#m66623b8459" x="66.376477" y="273.312" style="stroke: #000000; stroke-width: 0.8"/>
      </g>
     </g>
     <g id="text_1">
      <!-- 0.0 -->
      <g transform="translate(58.424915 287.910437)scale(0.1 -0.1)">
       <defs>
        <path id="DejaVuSans-30" d="M 2034 4250 
Q 1547 4250 1301 3770 
Q 1056 3291 1056 2328 
Q 1056 1369 1301 889 
Q 1547 409 2034 409 
Q 2525 409 2770 889 
Q 3016 1369 3016 2328 
Q 3016 3291 2770 3770 
Q 2525 4250 2034 4250 
z
M 2034 4750 
Q 2819 4750 3233 4129 
Q 3647 3509 3647 2328 
Q 3647 1150 3233 529 
Q 2819 -91 2034 -91 
Q 1250 -91 836 529 
Q 422 1150 422 2328 
Q 422 3509 836 4129 
Q 1250 4750 2034 4750 
z
" transform="scale(0.015625)"/>
        <path id="DejaVuSans-2e" d="M 684 794 
L 1344 794 
L 1344 0 
L 684 0 
L 684 794 
z
" transform="scale(0.015625)"/>
       </defs>
       <use xlink:href="#DejaVuSans-30"/>
       <use xlink:href="#DejaVuSans-2e" x="63.623047"/>
       <use xlink:href="#DejaVuSans-30" x="95.410156"/>
      </g>
     </g>
    </g>
    <g id="xtick_2">
     <g id="line2d_2">
      <g>
       <use xlink:href="#m66623b8459" x="131.307386" y="273.312" style="stroke: #000000; stroke-width: 0.8"/>
      </g>
     </g>
     <g id="text_2">
      <!-- 0.2 -->
      <g transform="translate(123.355824 287.910437)scale(0.1 -0.1)">
       <defs>
        <path id="DejaVuSans-32" d="M 1228 531 
L 3431 531 
L 3431 0 
L 469 0 
L 469 531 
Q 828 903 1448 1529 
Q 2069 2156 2228 2338 
Q 2531 2678 2651 2914 
Q 2772 3150 2772 3378 
Q 2772 3750 2511 3984 
Q 2250 4219 1831 4219 
Q 1534 4219 1204 4116 
Q 875 4013 500 3803 
L 500 4441 
Q 881 4594 1212 4672 
Q 1544 4750 1819 4750 
Q 2544 4750 2975 4387 
Q 3406 4025 3406 3419 
Q 3406 3131 3298 2873 
Q 3191 2616 2906 2266 
Q 2828 2175 2409 1742 
Q 1991 1309 1228 531 
z
" transform="scale(0.015625)"/>
       </defs>
       <use xlink:href="#DejaVuSans-30"/>
       <use xlink:href="#DejaVuSans-2e" x="63.623047"/>
       <use xlink:href="#DejaVuSans-32" x="95.410156"/>
      </g>
     </g>
    </g>
    <g id="xtick_3">
     <g id="line2d_3">
      <g>
       <use xlink:href="#m66623b8459" x="196.238295" y="273.312" style="stroke: #000000; stroke-width: 0.8"/>
      </g>
     </g>
     <g id="text_3">
      <!-- 0.4 -->
      <g transform="translate(188.286733 287.910437)scale(0.1 -0.1)">
       <defs>
        <path id="DejaVuSans-34" d="M 2419 4116 
L 825 1625 
L 2419 1625 
L 2419 4116 
z
M 2253 4666 
L 3047 4666 
L 3047 1625 
L 3713 1625 
L 3713 1100 
L 3047 1100 
L 3047 0 
L 2419 0 
L 2419 1100 
L 313 1100 
L 313 1709 
L 2253 4666 
z
" transform="scale(0.015625)"/>
       </defs>
       <use xlink:href="#DejaVuSans-30"/>
       <use xlink:href="#DejaVuSans-2e" x="63.623047"/>
       <use xlink:href="#DejaVuSans-34" x="95.410156"/>
      </g>
     </g>
    </g>
    <g id="xtick_4">
     <g id="line2d_4">
      <g>
       <use xlink:href="#m66623b8459" x="261.169205" y="273.312" style="stroke: #000000; stroke-width: 0.8"/>
      </g>
     </g>
     <g id="text_4">
      <!-- 0.6 -->
      <g transform="translate(253.217642 287.910437)scale(0.1 -0.1)">
       <defs>
        <path id="DejaVuSans-36" d="M 2113 2584 
Q 1688 2584 1439 2293 
Q 1191 2003 1191 1497 
Q 1191 994 1439 701 
Q 1688 409 2113 409 
Q 2538 409 2786 701 
Q 3034 994 3034 1497 
Q 3034 2003 2786 2293 
Q 2538 2584 2113 2584 
z
M 3366 4563 
L 3366 3988 
Q 3128 4100 2886 4159 
Q 2644 4219 2406 4219 
Q 1781 4219 1451 3797 
Q 1122 3375 1075 2522 
Q 1259 2794 1537 2939 
Q 1816 3084 2150 3084 
Q 2853 3084 3261 2657 
Q 3669 2231 3669 1497 
Q 3669 778 3244 343 
Q 2819 -91 2113 -91 
Q 1303 -91 875 529 
Q 447 1150 447 2328 
Q 447 3434 972 4092 
Q 1497 4750 2381 4750 
Q 2619 4750 2861 4703 
Q 3103 4656 3366 4563 
z
" transform="scale(0.015625)"/>
       </defs>
       <use xlink:href="#DejaVuSans-30"/>
       <use xlink:href="#DejaVuSans-2e" x="63.623047"/>
       <use xlink:href="#DejaVuSans-36" x="95.410156"/>
      </g>
     </g>
    </g>
    <g id="xtick_5">
     <g id="line2d_5">
      <g>
       <use xlink:href="#m66623b8459" x="326.100114" y="273.312" style="stroke: #000000; stroke-width: 0.8"/>
      </g>
     </g>
     <g id="text_5">
      <!-- 0.8 -->
      <g transform="translate(318.148551 287.910437)scale(0.1 -0.1)">
       <defs>
        <path id="DejaVuSans-38" d="M 2034 2216 
Q 1584 2216 1326 1975 
Q 1069 1734 1069 1313 
Q 1069 891 1326 650 
Q 1584 409 2034 409 
Q 2484 409 2743 651 
Q 3003 894 3003 1313 
Q 3003 1734 2745 1975 
Q 2488 2216 2034 2216 
z
M 1403 2484 
Q 997 2584 770 2862 
Q 544 3141 544 3541 
Q 544 4100 942 4425 
Q 1341 4750 2034 4750 
Q 2731 4750 3128 4425 
Q 3525 4100 3525 3541 
Q 3525 3141 3298 2862 
Q 3072 2584 2669 2484 
Q 3125 2378 3379 2068 
Q 3634 1759 3634 1313 
Q 3634 634 3220 271 
Q 2806 -91 2034 -91 
Q 1263 -91 848 271 
Q 434 634 434 1313 
Q 434 1759 690 2068 
Q 947 2378 1403 2484 
z
M 1172 3481 
Q 1172 3119 1398 2916 
Q 1625 2713 2034 2713 
Q 2441 2713 2670 2916 
Q 2900 3119 2900 3481 
Q 2900 3844 2670 4047 
Q 2441 4250 2034 4250 
Q 1625 4250 1398 4047 
Q 1172 3844 1172 3481 
z
" transform="scale(0.015625)"/>
       </defs>
       <use xlink:href="#DejaVuSans-30"/>
       <use xlink:href="#DejaVuSans-2e" x="63.623047"/>
       <use xlink:href="#DejaVuSans-38" x="95.410156"/>
      </g>
     </g>
    </g>
    <g id="xtick_6">
     <g id="line2d_6">
      <g>
       <use xlink:href="#m66623b8459" x="391.031023" y="273.312" style="stroke: #000000; stroke-width: 0.8"/>
      </g>
     </g>
     <g id="text_6">
      <!-- 1.0 -->
      <g transform="translate(383.07946 287.910437)scale(0.1 -0.1)">
       <defs>
        <path id="DejaVuSans-31" d="M 794 531 
L 1825 531 
L 1825 4091 
L 703 3866 
L 703 4441 
L 1819 4666 
L 2450 4666 
L 2450 531 
L 3481 531 
L 3481 0 
L 794 0 
L 794 531 
z
" transform="scale(0.015625)"/>
       </defs>
       <use xlink:href="#DejaVuSans-31"/>
       <use xlink:href="#DejaVuSans-2e" x="63.623047"/>
       <use xlink:href="#DejaVuSans-30" x="95.410156"/>
      </g>
     </g>
    </g>
    <g id="text_7">
     <!-- Propagation direction -->
     <g transform="translate(175.221719 301.588562)scale(0.1 -0.1)">
      <defs>
       <path id="DejaVuSans-50" d="M 1259 4147 
L 1259 2394 
L 2053 2394 
Q 2494 2394 2734 2622 
Q 2975 2850 2975 3272 
Q 2975 3691 2734 3919 
Q 2494 4147 2053 4147 
L 1259 4147 
z
M 628 4666 
L 2053 4666 
Q 2838 4666 3239 4311 
Q 3641 3956 3641 3272 
Q 3641 2581 3239 2228 
Q 2838 1875 2053 1875 
L 1259 1875 
L 1259 0 
L 628 0 
L 628 4666 
z
" transform="scale(0.015625)"/>
       <path id="DejaVuSans-72" d="M 2631 2963 
Q 2534 3019 2420 3045 
Q 2306 3072 2169 3072 
Q 1681 3072 1420 2755 
Q 1159 2438 1159 1844 
L 1159 0 
L 581 0 
L 581 3500 
L 1159 3500 
L 1159 2956 
Q 1341 3275 1631 3429 
Q 1922 3584 2338 3584 
Q 2397 3584 2469 3576 
Q 2541 3569 2628 3553 
L 2631 2963 
z
" transform="scale(0.015625)"/>
       <path id="DejaVuSans-6f" d="M 1959 3097 
Q 1497 3097 1228 2736 
Q 959 2375 959 1747 
Q 959 1119 1226 758 
Q 1494 397 1959 397 
Q 2419 397 2687 759 
Q 2956 1122 2956 1747 
Q 2956 2369 2687 2733 
Q 2419 3097 1959 3097 
z
M 1959 3584 
Q 2709 3584 3137 3096 
Q 3566 2609 3566 1747 
Q 3566 888 3137 398 
Q 2709 -91 1959 -91 
Q 1206 -91 779 398 
Q 353 888 353 1747 
Q 353 2609 779 3096 
Q 1206 3584 1959 3584 
z
" transform="scale(0.015625)"/>
       <path id="DejaVuSans-70" d="M 1159 525 
L 1159 -1331 
L 581 -1331 
L 581 3500 
L 1159 3500 
L 1159 2969 
Q 1341 3281 1617 3432 
Q 1894 3584 2278 3584 
Q 2916 3584 3314 3078 
Q 3713 2572 3713 1747 
Q 3713 922 3314 415 
Q 2916 -91 2278 -91 
Q 1894 -91 1617 61 
Q 1341 213 1159 525 
z
M 3116 1747 
Q 3116 2381 2855 2742 
Q 2594 3103 2138 3103 
Q 1681 3103 1420 2742 
Q 1159 2381 1159 1747 
Q 1159 1113 1420 752 
Q 1681 391 2138 391 
Q 2594 391 2855 752 
Q 3116 1113 3116 1747 
z
" transform="scale(0.015625)"/>
       <path id="DejaVuSans-61" d="M 2194 1759 
Q 1497 1759 1228 1600 
Q 959 1441 959 1056 
Q 959 750 1161 570 
Q 1363 391 1709 391 
Q 2188 391 2477 730 
Q 2766 1069 2766 1631 
L 2766 1759 
L 2194 1759 
z
M 3341 1997 
L 3341 0 
L 2766 0 
L 2766 531 
Q 2569 213 2275 61 
Q 1981 -91 1556 -91 
Q 1019 -91 701 211 
Q 384 513 384 1019 
Q 384 1609 779 1909 
Q 1175 2209 1959 2209 
L 2766 2209 
L 2766 2266 
Q 2766 2663 2505 2880 
Q 2244 3097 1772 3097 
Q 1472 3097 1187 3025 
Q 903 2953 641 2809 
L 641 3341 
Q 956 3463 1253 3523 
Q 1550 3584 1831 3584 
Q 2591 3584 2966 3190 
Q 3341 2797 3341 1997 
z
" transform="scale(0.015625)"/>
       <path id="DejaVuSans-67" d="M 2906 1791 
Q 2906 2416 2648 2759 
Q 2391 3103 1925 3103 
Q 1463 3103 1205 2759 
Q 947 2416 947 1791 
Q 947 1169 1205 825 
Q 1463 481 1925 481 
Q 2391 481 2648 825 
Q 2906 1169 2906 1791 
z
M 3481 434 
Q 3481 -459 3084 -895 
Q 2688 -1331 1869 -1331 
Q 1566 -1331 1297 -1286 
Q 1028 -1241 775 -1147 
L 775 -588 
Q 1028 -725 1275 -790 
Q 1522 -856 1778 -856 
Q 2344 -856 2625 -561 
Q 2906 -266 2906 331 
L 2906 616 
Q 2728 306 2450 153 
Q 2172 0 1784 0 
Q 1141 0 747 490 
Q 353 981 353 1791 
Q 353 2603 747 3093 
Q 1141 3584 1784 3584 
Q 2172 3584 2450 3431 
Q 2728 3278 2906 2969 
L 2906 3500 
L 3481 3500 
L 3481 434 
z
" transform="scale(0.015625)"/>
       <path id="DejaVuSans-74" d="M 1172 4494 
L 1172 3500 
L 2356 3500 
L 2356 3053 
L 1172 3053 
L 1172 1153 
Q 1172 725 1289 603 
Q 1406 481 1766 481 
L 2356 481 
L 2356 0 
L 1766 0 
Q 1100 0 847 248 
Q 594 497 594 1153 
L 594 3053 
L 172 3053 
L 172 3500 
L 594 3500 
L 594 4494 
L 1172 4494 
z
" transform="scale(0.015625)"/>
       <path id="DejaVuSans-69" d="M 603 3500 
L 1178 3500 
L 1178 0 
L 603 0 
L 603 3500 
z
M 603 4863 
L 1178 4863 
L 1178 4134 
L 603 4134 
L 603 4863 
z
" transform="scale(0.015625)"/>
       <path id="DejaVuSans-6e" d="M 3513 2113 
L 3513 0 
L 2938 0 
L 2938 2094 
Q 2938 2591 2744 2837 
Q 2550 3084 2163 3084 
Q 1697 3084 1428 2787 
Q 1159 2491 1159 1978 
L 1159 0 
L 581 0 
L 581 3500 
L 1159 3500 
L 1159 2956 
Q 1366 3272 1645 3428 
Q 1925 3584 2291 3584 
Q 2894 3584 3203 3211 
Q 3513 2838 3513 2113 
z
" transform="scale(0.015625)"/>
       <path id="DejaVuSans-20" transform="scale(0.015625)"/>
       <path id="DejaVuSans-64" d="M 2906 2969 
L 2906 4863 
L 3481 4863 
L 3481 0 
L 2906 0 
L 2906 525 
Q 2725 213 2448 61 
Q 2172 -91 1784 -91 
Q 1150 -91 751 415 
Q 353 922 353 1747 
Q 353 2572 751 3078 
Q 1150 3584 1784 3584 
Q 2172 3584 2448 3432 
Q 2725 3281 2906 2969 
z
M 947 1747 
Q 947 1113 1208 752 
Q 1469 391 1925 391 
Q 2381 391 2643 752 
Q 2906 1113 2906 1747 
Q 2906 2381 2643 2742 
Q 2381 3103 1925 3103 
Q 1469 3103 1208 2742 
Q 947 2381 947 1747 
z
" transform="scale(0.015625)"/>
       <path id="DejaVuSans-65" d="M 3597 1894 
L 3597 1613 
L 953 1613 
Q 991 1019 1311 708 
Q 1631 397 2203 397 
Q 2534 397 2845 478 
Q 3156 559 3463 722 
L 3463 178 
Q 3153 47 2828 -22 
Q 2503 -91 2169 -91 
Q 1331 -91 842 396 
Q 353 884 353 1716 
Q 353 2575 817 3079 
Q 1281 3584 2069 3584 
Q 2775 3584 3186 3129 
Q 3597 2675 3597 1894 
z
M 3022 2063 
Q 3016 2534 2758 2815 
Q 2500 3097 2075 3097 
Q 1594 3097 1305 2825 
Q 1016 2553 972 2059 
L 3022 2063 
z
" transform="scale(0.015625)"/>
       <path id="DejaVuSans-63" d="M 3122 3366 
L 3122 2828 
Q 2878 2963 2633 3030 
Q 2388 3097 2138 3097 
Q 1578 3097 1268 2742 
Q 959 2388 959 1747 
Q 959 1106 1268 751 
Q 1578 397 2138 397 
Q 2388 397 2633 464 
Q 2878 531 3122 666 
L 3122 134 
Q 2881 22 2623 -34 
Q 2366 -91 2075 -91 
Q 1284 -91 818 406 
Q 353 903 353 1747 
Q 353 2603 823 3093 
Q 1294 3584 2113 3584 
Q 2378 3584 2631 3529 
Q 2884 3475 3122 3366 
z
" transform="scale(0.015625)"/>
      </defs>
      <use xlink:href="#DejaVuSans-50"/>
      <use xlink:href="#DejaVuSans-72" x="58.552734"/>
      <use xlink:href="#DejaVuSans-6f" x="97.416016"/>
      <use xlink:href="#DejaVuSans-70" x="158.597656"/>
      <use xlink:href="#DejaVuSans-61" x="222.074219"/>
      <use xlink:href="#DejaVuSans-67" x="283.353516"/>
      <use xlink:href="#DejaVuSans-61" x="346.830078"/>
      <use xlink:href="#DejaVuSans-74" x="408.109375"/>
      <use xlink:href="#DejaVuSans-69" x="447.318359"/>
      <use xlink:href="#DejaVuSans-6f" x="475.101562"/>
      <use xlink:href="#DejaVuSans-6e" x="536.283203"/>
      <use xlink:href="#DejaVuSans-20" x="599.662109"/>
      <use xlink:href="#DejaVuSans-64" x="631.449219"/>
      <use xlink:href="#DejaVuSans-69" x="694.925781"/>
      <use xlink:href="#DejaVuSans-72" x="722.708984"/>
      <use xlink:href="#DejaVuSans-65" x="761.572266"/>
      <use xlink:href="#DejaVuSans-63" x="823.095703"/>
      <use xlink:href="#DejaVuSans-74" x="878.076172"/>
      <use xlink:href="#DejaVuSans-69" x="917.285156"/>
      <use xlink:href="#DejaVuSans-6f" x="945.068359"/>
      <use xlink:href="#DejaVuSans-6e" x="1006.25"/>
     </g>
    </g>
   </g>
   <g id="matplotlib.axis_2">
    <g id="ytick_1">
     <g id="line2d_7">
      <defs>
       <path id="mf30c609492" d="M 0 0 
L -3.5 0 
" style="stroke: #000000; stroke-width: 0.8"/>
      </defs>
      <g>
       <use xlink:href="#mf30c609492" x="50.14375" y="273.312" style="stroke: #000000; stroke-width: 0.8"/>
      </g>
     </g>
     <g id="text_8">
      <!-- 0.00 -->
      <g transform="translate(20.878125 277.111219)scale(0.1 -0.1)">
       <use xlink:href="#DejaVuSans-30"/>
       <use xlink:href="#DejaVuSans-2e" x="63.623047"/>
       <use xlink:href="#DejaVuSans-30" x="95.410156"/>
       <use xlink:href="#DejaVuSans-30" x="159.033203"/>
      </g>
     </g>
    </g>
    <g id="ytick_2">
     <g id="line2d_8">
      <g>
       <use xlink:href="#mf30c609492" x="50.14375" y="243.418021" style="stroke: #000000; stroke-width: 0.8"/>
      </g>
     </g>
     <g id="text_9">
      <!-- 0.25 -->
      <g transform="translate(20.878125 247.21724)scale(0.1 -0.1)">
       <defs>
        <path id="DejaVuSans-35" d="M 691 4666 
L 3169 4666 
L 3169 4134 
L 1269 4134 
L 1269 2991 
Q 1406 3038 1543 3061 
Q 1681 3084 1819 3084 
Q 2600 3084 3056 2656 
Q 3513 2228 3513 1497 
Q 3513 744 3044 326 
Q 2575 -91 1722 -91 
Q 1428 -91 1123 -41 
Q 819 9 494 109 
L 494 744 
Q 775 591 1075 516 
Q 1375 441 1709 441 
Q 2250 441 2565 725 
Q 2881 1009 2881 1497 
Q 2881 1984 2565 2268 
Q 2250 2553 1709 2553 
Q 1456 2553 1204 2497 
Q 953 2441 691 2322 
L 691 4666 
z
" transform="scale(0.015625)"/>
       </defs>
       <use xlink:href="#DejaVuSans-30"/>
       <use xlink:href="#DejaVuSans-2e" x="63.623047"/>
       <use xlink:href="#DejaVuSans-32" x="95.410156"/>
       <use xlink:href="#DejaVuSans-35" x="159.033203"/>
      </g>
     </g>
    </g>
    <g id="ytick_3">
     <g id="line2d_9">
      <g>
       <use xlink:href="#mf30c609492" x="50.14375" y="213.524042" style="stroke: #000000; stroke-width: 0.8"/>
      </g>
     </g>
     <g id="text_10">
      <!-- 0.50 -->
      <g transform="translate(20.878125 217.323261)scale(0.1 -0.1)">
       <use xlink:href="#DejaVuSans-30"/>
       <use xlink:href="#DejaVuSans-2e" x="63.623047"/>
       <use xlink:href="#DejaVuSans-35" x="95.410156"/>
       <use xlink:href="#DejaVuSans-30" x="159.033203"/>
      </g>
     </g>
    </g>
    <g id="ytick_4">
     <g id="line2d_10">
      <g>
       <use xlink:href="#mf30c609492" x="50.14375" y="183.630063" style="stroke: #000000; stroke-width: 0.8"/>
      </g>
     </g>
     <g id="text_11">
      <!-- 0.75 -->
      <g transform="translate(20.878125 187.429282)scale(0.1 -0.1)">
       <defs>
        <path id="DejaVuSans-37" d="M 525 4666 
L 3525 4666 
L 3525 4397 
L 1831 0 
L 1172 0 
L 2766 4134 
L 525 4134 
L 525 4666 
z
" transform="scale(0.015625)"/>
       </defs>
       <use xlink:href="#DejaVuSans-30"/>
       <use xlink:href="#DejaVuSans-2e" x="63.623047"/>
       <use xlink:href="#DejaVuSans-37" x="95.410156"/>
       <use xlink:href="#DejaVuSans-35" x="159.033203"/>
      </g>
     </g>
    </g>
    <g id="ytick_5">
     <g id="line2d_11">
      <g>
       <use xlink:href="#mf30c609492" x="50.14375" y="153.736084" style="stroke: #000000; stroke-width: 0.8"/>
      </g>
     </g>
     <g id="text_12">
      <!-- 1.00 -->
      <g transform="translate(20.878125 157.535303)scale(0.1 -0.1)">
       <use xlink:href="#DejaVuSans-31"/>
       <use xlink:href="#DejaVuSans-2e" x="63.623047"/>
       <use xlink:href="#DejaVuSans-30" x="95.410156"/>
       <use xlink:href="#DejaVuSans-30" x="159.033203"/>
      </g>
     </g>
    </g>
    <g id="ytick_6">
     <g id="line2d_12">
      <g>
       <use xlink:href="#mf30c609492" x="50.14375" y="123.842105" style="stroke: #000000; stroke-width: 0.8"/>
      </g>
     </g>
     <g id="text_13">
      <!-- 1.25 -->
      <g transform="translate(20.878125 127.641323)scale(0.1 -0.1)">
       <use xlink:href="#DejaVuSans-31"/>
       <use xlink:href="#DejaVuSans-2e" x="63.623047"/>
       <use xlink:href="#DejaVuSans-32" x="95.410156"/>
       <use xlink:href="#DejaVuSans-35" x="159.033203"/>
      </g>
     </g>
    </g>
    <g id="ytick_7">
     <g id="line2d_13">
      <g>
       <use xlink:href="#mf30c609492" x="50.14375" y="93.948126" style="stroke: #000000; stroke-width: 0.8"/>
      </g>
     </g>
     <g id="text_14">
      <!-- 1.50 -->
      <g transform="translate(20.878125 97.747344)scale(0.1 -0.1)">
       <use xlink:href="#DejaVuSans-31"/>
       <use xlink:href="#DejaVuSans-2e" x="63.623047"/>
       <use xlink:href="#DejaVuSans-35" x="95.410156"/>
       <use xlink:href="#DejaVuSans-30" x="159.033203"/>
      </g>
     </g>
    </g>
    <g id="ytick_8">
     <g id="line2d_14">
      <g>
       <use xlink:href="#mf30c609492" x="50.14375" y="64.054147" style="stroke: #000000; stroke-width: 0.8"/>
      </g>
     </g>
     <g id="text_15">
      <!-- 1.75 -->
      <g transform="translate(20.878125 67.853365)scale(0.1 -0.1)">
       <use xlink:href="#DejaVuSans-31"/>
       <use xlink:href="#DejaVuSans-2e" x="63.623047"/>
       <use xlink:href="#DejaVuSans-37" x="95.410156"/>
       <use xlink:href="#DejaVuSans-35" x="159.033203"/>
      </g>
     </g>
    </g>
    <g id="ytick_9">
     <g id="line2d_15">
      <g>
       <use xlink:href="#mf30c609492" x="50.14375" y="34.160168" style="stroke: #000000; stroke-width: 0.8"/>
      </g>
     </g>
     <g id="text_16">
      <!-- 2.00 -->
      <g transform="translate(20.878125 37.959386)scale(0.1 -0.1)">
       <use xlink:href="#DejaVuSans-32"/>
       <use xlink:href="#DejaVuSans-2e" x="63.623047"/>
       <use xlink:href="#DejaVuSans-30" x="95.410156"/>
       <use xlink:href="#DejaVuSans-30" x="159.033203"/>
      </g>
     </g>
    </g>
    <g id="text_17">
     <!-- Probability density -->
     <g transform="translate(14.798438 186.606781)rotate(-90)scale(0.1 -0.1)">
      <defs>
       <path id="DejaVuSans-62" d="M 3116 1747 
Q 3116 2381 2855 2742 
Q 2594 3103 2138 3103 
Q 1681 3103 1420 2742 
Q 1159 2381 1159 1747 
Q 1159 1113 1420 752 
Q 1681 391 2138 391 
Q 2594 391 2855 752 
Q 3116 1113 3116 1747 
z
M 1159 2969 
Q 1341 3281 1617 3432 
Q 1894 3584 2278 3584 
Q 2916 3584 3314 3078 
Q 3713 2572 3713 1747 
Q 3713 922 3314 415 
Q 2916 -91 2278 -91 
Q 1894 -91 1617 61 
Q 1341 213 1159 525 
L 1159 0 
L 581 0 
L 581 4863 
L 1159 4863 
L 1159 2969 
z
" transform="scale(0.015625)"/>
       <path id="DejaVuSans-6c" d="M 603 4863 
L 1178 4863 
L 1178 0 
L 603 0 
L 603 4863 
z
" transform="scale(0.015625)"/>
       <path id="DejaVuSans-79" d="M 2059 -325 
Q 1816 -950 1584 -1140 
Q 1353 -1331 966 -1331 
L 506 -1331 
L 506 -850 
L 844 -850 
Q 1081 -850 1212 -737 
Q 1344 -625 1503 -206 
L 1606 56 
L 191 3500 
L 800 3500 
L 1894 763 
L 2988 3500 
L 3597 3500 
L 2059 -325 
z
" transform="scale(0.015625)"/>
       <path id="DejaVuSans-73" d="M 2834 3397 
L 2834 2853 
Q 2591 2978 2328 3040 
Q 2066 3103 1784 3103 
Q 1356 3103 1142 2972 
Q 928 2841 928 2578 
Q 928 2378 1081 2264 
Q 1234 2150 1697 2047 
L 1894 2003 
Q 2506 1872 2764 1633 
Q 3022 1394 3022 966 
Q 3022 478 2636 193 
Q 2250 -91 1575 -91 
Q 1294 -91 989 -36 
Q 684 19 347 128 
L 347 722 
Q 666 556 975 473 
Q 1284 391 1588 391 
Q 1994 391 2212 530 
Q 2431 669 2431 922 
Q 2431 1156 2273 1281 
Q 2116 1406 1581 1522 
L 1381 1569 
Q 847 1681 609 1914 
Q 372 2147 372 2553 
Q 372 3047 722 3315 
Q 1072 3584 1716 3584 
Q 2034 3584 2315 3537 
Q 2597 3491 2834 3397 
z
" transform="scale(0.015625)"/>
      </defs>
      <use xlink:href="#DejaVuSans-50"/>
      <use xlink:href="#DejaVuSans-72" x="58.552734"/>
      <use xlink:href="#DejaVuSans-6f" x="97.416016"/>
      <use xlink:href="#DejaVuSans-62" x="158.597656"/>
      <use xlink:href="#DejaVuSans-61" x="222.074219"/>
      <use xlink:href="#DejaVuSans-62" x="283.353516"/>
      <use xlink:href="#DejaVuSans-69" x="346.830078"/>
      <use xlink:href="#DejaVuSans-6c" x="374.613281"/>
      <use xlink:href="#DejaVuSans-69" x="402.396484"/>
      <use xlink:href="#DejaVuSans-74" x="430.179688"/>
      <use xlink:href="#DejaVuSans-79" x="469.388672"/>
      <use xlink:href="#DejaVuSans-20" x="528.568359"/>
      <use xlink:href="#DejaVuSans-64" x="560.355469"/>
      <use xlink:href="#DejaVuSans-65" x="623.832031"/>
      <use xlink:href="#DejaVuSans-6e" x="685.355469"/>
      <use xlink:href="#DejaVuSans-73" x="748.734375"/>
      <use xlink:href="#DejaVuSans-69" x="800.833984"/>
      <use xlink:href="#DejaVuSans-74" x="828.617188"/>
      <use xlink:href="#DejaVuSans-79" x="867.826172"/>
     </g>
    </g>
   </g>
   <g id="line2d_16">
    <path d="M 66.376477 273.312 
L 391.031023 34.160168 
L 391.031023 34.160168 
" clip-path="url(#p0982de75d8)" style="fill: none; stroke: #ff7f0e; stroke-width: 1.5; stroke-linecap: square"/>
   </g>
   <g id="patch_203">
    <path d="M 50.14375 273.312 
L 50.14375 7.2 
" style="fill: none; stroke: #000000; stroke-width: 0.8; stroke-linejoin: miter; stroke-linecap: square"/>
   </g>
   <g id="patch_204">
    <path d="M 407.26375 273.312 
L 407.26375 7.2 
" style="fill: none; stroke: #000000; stroke-width: 0.8; stroke-linejoin: miter; stroke-linecap: square"/>
   </g>
   <g id="patch_205">
    <path d="M 50.14375 273.312 
L 407.26375 273.312 
" style="fill: none; stroke: #000000; stroke-width: 0.8; stroke-linejoin: miter; stroke-linecap: square"/>
   </g>
   <g id="patch_206">
    <path d="M 50.14375 7.2 
L 407.26375 7.2 
" style="fill: none; stroke: #000000; stroke-width: 0.8; stroke-linejoin: miter; stroke-linecap: square"/>
   </g>
  </g>
 </g>
 <defs>
  <clipPath id="p0982de75d8">
   <rect x="50.14375" y="7.2" width="357.12" height="266.112"/>
  </clipPath>
 </defs>
</svg>
