<?xml version="1.0" encoding="utf-8" standalone="no"?>
<!DOCTYPE svg PUBLIC "-//W3C//DTD SVG 1.1//EN"
  "http://www.w3.org/Graphics/SVG/1.1/DTD/svg11.dtd">
<svg xmlns:xlink="http://www.w3.org/1999/xlink" width="414.46375pt" height="310.86825pt" viewBox="0 0 414.46375 310.86825" xmlns="http://www.w3.org/2000/svg" version="1.1">
 <metadata>
  <rdf:RDF xmlns:dc="http://purl.org/dc/elements/1.1/" xmlns:cc="http://creativecommons.org/ns#" xmlns:rdf="http://www.w3.org/1999/02/22-rdf-syntax-ns#">
   <cc:Work>
    <dc:type rdf:resource="http://purl.org/dc/dcmitype/StillImage"/>
    <dc:date>2023-02-21T22:08:49.005976</dc:date>
    <dc:format>image/svg+xml</dc:format>
    <dc:creator>
     <cc:Agent>
      <dc:title>Matplotlib v3.5.3, https://matplotlib.org/</dc:title>
     </cc:Agent>
    </dc:creator>
   </cc:Work>
  </rdf:RDF>
 </metadata>
 <defs>
  <style type="text/css">*{stroke-linejoin: round; stroke-linecap: butt}</style>
 </defs>
 <g id="figure_1">
  <g id="patch_1">
   <path d="M 0 310.86825 
L 414.46375 310.86825 
L 414.46375 0 
L 0 0 
z
" style="fill: #ffffff"/>
  </g>
  <g id="axes_1">
   <g id="patch_2">
    <path d="M 50.14375 273.312 
L 407.26375 273.312 
L 407.26375 7.2 
L 50.14375 7.2 
z
" style="fill: #ffffff"/>
   </g>
   <g id="patch_3">
    <path d="M 66.808722 273.312 
L 68.429825 273.312 
L 68.429825 272.712851 
L 66.808722 272.712851 
z
" clip-path="url(#p6fb6df10ba)" style="fill: #1f77b4"/>
   </g>
   <g id="patch_4">
    <path d="M 68.429825 273.312 
L 70.050928 273.312 
L 70.050928 271.514553 
L 68.429825 271.514553 
z
" clip-path="url(#p6fb6df10ba)" style="fill: #1f77b4"/>
   </g>
   <g id="patch_5">
    <path d="M 70.050928 273.312 
L 71.672032 273.312 
L 71.672032 270.316255 
L 70.050928 270.316255 
z
" clip-path="url(#p6fb6df10ba)" style="fill: #1f77b4"/>
   </g>
   <g id="patch_6">
    <path d="M 71.672032 273.312 
L 73.293135 273.312 
L 73.293135 271.514553 
L 71.672032 271.514553 
z
" clip-path="url(#p6fb6df10ba)" style="fill: #1f77b4"/>
   </g>
   <g id="patch_7">
    <path d="M 73.293135 273.312 
L 74.914238 273.312 
L 74.914238 264.923915 
L 73.293135 264.923915 
z
" clip-path="url(#p6fb6df10ba)" style="fill: #1f77b4"/>
   </g>
   <g id="patch_8">
    <path d="M 74.914238 273.312 
L 76.535341 273.312 
L 76.535341 267.320511 
L 74.914238 267.320511 
z
" clip-path="url(#p6fb6df10ba)" style="fill: #1f77b4"/>
   </g>
   <g id="patch_9">
    <path d="M 76.535341 273.312 
L 78.156444 273.312 
L 78.156444 268.518809 
L 76.535341 268.518809 
z
" clip-path="url(#p6fb6df10ba)" style="fill: #1f77b4"/>
   </g>
   <g id="patch_10">
    <path d="M 78.156444 273.312 
L 79.777547 273.312 
L 79.777547 263.725617 
L 78.156444 263.725617 
z
" clip-path="url(#p6fb6df10ba)" style="fill: #1f77b4"/>
   </g>
   <g id="patch_11">
    <path d="M 79.777547 273.312 
L 81.39865 273.312 
L 81.39865 260.729872 
L 79.777547 260.729872 
z
" clip-path="url(#p6fb6df10ba)" style="fill: #1f77b4"/>
   </g>
   <g id="patch_12">
    <path d="M 81.39865 273.312 
L 83.019753 273.312 
L 83.019753 260.130723 
L 81.39865 260.130723 
z
" clip-path="url(#p6fb6df10ba)" style="fill: #1f77b4"/>
   </g>
   <g id="patch_13">
    <path d="M 83.019753 273.312 
L 84.640856 273.312 
L 84.640856 260.130723 
L 83.019753 260.130723 
z
" clip-path="url(#p6fb6df10ba)" style="fill: #1f77b4"/>
   </g>
   <g id="patch_14">
    <path d="M 84.640856 273.312 
L 86.261959 273.312 
L 86.261959 260.729872 
L 84.640856 260.729872 
z
" clip-path="url(#p6fb6df10ba)" style="fill: #1f77b4"/>
   </g>
   <g id="patch_15">
    <path d="M 86.261959 273.312 
L 87.883062 273.312 
L 87.883062 262.527319 
L 86.261959 262.527319 
z
" clip-path="url(#p6fb6df10ba)" style="fill: #1f77b4"/>
   </g>
   <g id="patch_16">
    <path d="M 87.883062 273.312 
L 89.504165 273.312 
L 89.504165 256.53583 
L 87.883062 256.53583 
z
" clip-path="url(#p6fb6df10ba)" style="fill: #1f77b4"/>
   </g>
   <g id="patch_17">
    <path d="M 89.504165 273.312 
L 91.125268 273.312 
L 91.125268 257.734128 
L 89.504165 257.734128 
z
" clip-path="url(#p6fb6df10ba)" style="fill: #1f77b4"/>
   </g>
   <g id="patch_18">
    <path d="M 91.125268 273.312 
L 92.746371 273.312 
L 92.746371 256.53583 
L 91.125268 256.53583 
z
" clip-path="url(#p6fb6df10ba)" style="fill: #1f77b4"/>
   </g>
   <g id="patch_19">
    <path d="M 92.746371 273.312 
L 94.367475 273.312 
L 94.367475 256.53583 
L 92.746371 256.53583 
z
" clip-path="url(#p6fb6df10ba)" style="fill: #1f77b4"/>
   </g>
   <g id="patch_20">
    <path d="M 94.367475 273.312 
L 95.988578 273.312 
L 95.988578 255.337532 
L 94.367475 255.337532 
z
" clip-path="url(#p6fb6df10ba)" style="fill: #1f77b4"/>
   </g>
   <g id="patch_21">
    <path d="M 95.988578 273.312 
L 97.609681 273.312 
L 97.609681 249.346043 
L 95.988578 249.346043 
z
" clip-path="url(#p6fb6df10ba)" style="fill: #1f77b4"/>
   </g>
   <g id="patch_22">
    <path d="M 97.609681 273.312 
L 99.230784 273.312 
L 99.230784 240.957957 
L 97.609681 240.957957 
z
" clip-path="url(#p6fb6df10ba)" style="fill: #1f77b4"/>
   </g>
   <g id="patch_23">
    <path d="M 99.230784 273.312 
L 100.851887 273.312 
L 100.851887 241.557106 
L 99.230784 241.557106 
z
" clip-path="url(#p6fb6df10ba)" style="fill: #1f77b4"/>
   </g>
   <g id="patch_24">
    <path d="M 100.851887 273.312 
L 102.47299 273.312 
L 102.47299 249.945191 
L 100.851887 249.945191 
z
" clip-path="url(#p6fb6df10ba)" style="fill: #1f77b4"/>
   </g>
   <g id="patch_25">
    <path d="M 102.47299 273.312 
L 104.094093 273.312 
L 104.094093 237.962213 
L 102.47299 237.962213 
z
" clip-path="url(#p6fb6df10ba)" style="fill: #1f77b4"/>
   </g>
   <g id="patch_26">
    <path d="M 104.094093 273.312 
L 105.715196 273.312 
L 105.715196 245.152 
L 104.094093 245.152 
z
" clip-path="url(#p6fb6df10ba)" style="fill: #1f77b4"/>
   </g>
   <g id="patch_27">
    <path d="M 105.715196 273.312 
L 107.336299 273.312 
L 107.336299 244.552851 
L 105.715196 244.552851 
z
" clip-path="url(#p6fb6df10ba)" style="fill: #1f77b4"/>
   </g>
   <g id="patch_28">
    <path d="M 107.336299 273.312 
L 108.957402 273.312 
L 108.957402 242.156255 
L 107.336299 242.156255 
z
" clip-path="url(#p6fb6df10ba)" style="fill: #1f77b4"/>
   </g>
   <g id="patch_29">
    <path d="M 108.957402 273.312 
L 110.578505 273.312 
L 110.578505 243.953702 
L 108.957402 243.953702 
z
" clip-path="url(#p6fb6df10ba)" style="fill: #1f77b4"/>
   </g>
   <g id="patch_30">
    <path d="M 110.578505 273.312 
L 112.199608 273.312 
L 112.199608 240.358809 
L 110.578505 240.358809 
z
" clip-path="url(#p6fb6df10ba)" style="fill: #1f77b4"/>
   </g>
   <g id="patch_31">
    <path d="M 112.199608 273.312 
L 113.820711 273.312 
L 113.820711 234.966468 
L 112.199608 234.966468 
z
" clip-path="url(#p6fb6df10ba)" style="fill: #1f77b4"/>
   </g>
   <g id="patch_32">
    <path d="M 113.820711 273.312 
L 115.441815 273.312 
L 115.441815 240.957957 
L 113.820711 240.957957 
z
" clip-path="url(#p6fb6df10ba)" style="fill: #1f77b4"/>
   </g>
   <g id="patch_33">
    <path d="M 115.441815 273.312 
L 117.062918 273.312 
L 117.062918 242.755404 
L 115.441815 242.755404 
z
" clip-path="url(#p6fb6df10ba)" style="fill: #1f77b4"/>
   </g>
   <g id="patch_34">
    <path d="M 117.062918 273.312 
L 118.684021 273.312 
L 118.684021 233.169021 
L 117.062918 233.169021 
z
" clip-path="url(#p6fb6df10ba)" style="fill: #1f77b4"/>
   </g>
   <g id="patch_35">
    <path d="M 118.684021 273.312 
L 120.305124 273.312 
L 120.305124 239.160511 
L 118.684021 239.160511 
z
" clip-path="url(#p6fb6df10ba)" style="fill: #1f77b4"/>
   </g>
   <g id="patch_36">
    <path d="M 120.305124 273.312 
L 121.926227 273.312 
L 121.926227 232.569872 
L 120.305124 232.569872 
z
" clip-path="url(#p6fb6df10ba)" style="fill: #1f77b4"/>
   </g>
   <g id="patch_37">
    <path d="M 121.926227 273.312 
L 123.54733 273.312 
L 123.54733 225.380085 
L 121.926227 225.380085 
z
" clip-path="url(#p6fb6df10ba)" style="fill: #1f77b4"/>
   </g>
   <g id="patch_38">
    <path d="M 123.54733 273.312 
L 125.168433 273.312 
L 125.168433 240.957957 
L 123.54733 240.957957 
z
" clip-path="url(#p6fb6df10ba)" style="fill: #1f77b4"/>
   </g>
   <g id="patch_39">
    <path d="M 125.168433 273.312 
L 126.789536 273.312 
L 126.789536 236.164766 
L 125.168433 236.164766 
z
" clip-path="url(#p6fb6df10ba)" style="fill: #1f77b4"/>
   </g>
   <g id="patch_40">
    <path d="M 126.789536 273.312 
L 128.410639 273.312 
L 128.410639 229.574128 
L 126.789536 229.574128 
z
" clip-path="url(#p6fb6df10ba)" style="fill: #1f77b4"/>
   </g>
   <g id="patch_41">
    <path d="M 128.410639 273.312 
L 130.031742 273.312 
L 130.031742 224.780936 
L 128.410639 224.780936 
z
" clip-path="url(#p6fb6df10ba)" style="fill: #1f77b4"/>
   </g>
   <g id="patch_42">
    <path d="M 130.031742 273.312 
L 131.652845 273.312 
L 131.652845 224.181787 
L 130.031742 224.181787 
z
" clip-path="url(#p6fb6df10ba)" style="fill: #1f77b4"/>
   </g>
   <g id="patch_43">
    <path d="M 131.652845 273.312 
L 133.273948 273.312 
L 133.273948 215.793702 
L 131.652845 215.793702 
z
" clip-path="url(#p6fb6df10ba)" style="fill: #1f77b4"/>
   </g>
   <g id="patch_44">
    <path d="M 133.273948 273.312 
L 134.895051 273.312 
L 134.895051 216.992 
L 133.273948 216.992 
z
" clip-path="url(#p6fb6df10ba)" style="fill: #1f77b4"/>
   </g>
   <g id="patch_45">
    <path d="M 134.895051 273.312 
L 136.516154 273.312 
L 136.516154 221.186043 
L 134.895051 221.186043 
z
" clip-path="url(#p6fb6df10ba)" style="fill: #1f77b4"/>
   </g>
   <g id="patch_46">
    <path d="M 136.516154 273.312 
L 138.137258 273.312 
L 138.137258 213.996255 
L 136.516154 213.996255 
z
" clip-path="url(#p6fb6df10ba)" style="fill: #1f77b4"/>
   </g>
   <g id="patch_47">
    <path d="M 138.137258 273.312 
L 139.758361 273.312 
L 139.758361 213.397106 
L 138.137258 213.397106 
z
" clip-path="url(#p6fb6df10ba)" style="fill: #1f77b4"/>
   </g>
   <g id="patch_48">
    <path d="M 139.758361 273.312 
L 141.379464 273.312 
L 141.379464 221.785191 
L 139.758361 221.785191 
z
" clip-path="url(#p6fb6df10ba)" style="fill: #1f77b4"/>
   </g>
   <g id="patch_49">
    <path d="M 141.379464 273.312 
L 143.000567 273.312 
L 143.000567 214.595404 
L 141.379464 214.595404 
z
" clip-path="url(#p6fb6df10ba)" style="fill: #1f77b4"/>
   </g>
   <g id="patch_50">
    <path d="M 143.000567 273.312 
L 144.62167 273.312 
L 144.62167 226.578383 
L 143.000567 226.578383 
z
" clip-path="url(#p6fb6df10ba)" style="fill: #1f77b4"/>
   </g>
   <g id="patch_51">
    <path d="M 144.62167 273.312 
L 146.242773 273.312 
L 146.242773 213.996255 
L 144.62167 213.996255 
z
" clip-path="url(#p6fb6df10ba)" style="fill: #1f77b4"/>
   </g>
   <g id="patch_52">
    <path d="M 146.242773 273.312 
L 147.863876 273.312 
L 147.863876 213.397106 
L 146.242773 213.397106 
z
" clip-path="url(#p6fb6df10ba)" style="fill: #1f77b4"/>
   </g>
   <g id="patch_53">
    <path d="M 147.863876 273.312 
L 149.484979 273.312 
L 149.484979 208.603915 
L 147.863876 208.603915 
z
" clip-path="url(#p6fb6df10ba)" style="fill: #1f77b4"/>
   </g>
   <g id="patch_54">
    <path d="M 149.484979 273.312 
L 151.106082 273.312 
L 151.106082 211.000511 
L 149.484979 211.000511 
z
" clip-path="url(#p6fb6df10ba)" style="fill: #1f77b4"/>
   </g>
   <g id="patch_55">
    <path d="M 151.106082 273.312 
L 152.727185 273.312 
L 152.727185 205.60817 
L 151.106082 205.60817 
z
" clip-path="url(#p6fb6df10ba)" style="fill: #1f77b4"/>
   </g>
   <g id="patch_56">
    <path d="M 152.727185 273.312 
L 154.348288 273.312 
L 154.348288 216.992 
L 152.727185 216.992 
z
" clip-path="url(#p6fb6df10ba)" style="fill: #1f77b4"/>
   </g>
   <g id="patch_57">
    <path d="M 154.348288 273.312 
L 155.969391 273.312 
L 155.969391 215.194553 
L 154.348288 215.194553 
z
" clip-path="url(#p6fb6df10ba)" style="fill: #1f77b4"/>
   </g>
   <g id="patch_58">
    <path d="M 155.969391 273.312 
L 157.590494 273.312 
L 157.590494 208.004766 
L 155.969391 208.004766 
z
" clip-path="url(#p6fb6df10ba)" style="fill: #1f77b4"/>
   </g>
   <g id="patch_59">
    <path d="M 157.590494 273.312 
L 159.211598 273.312 
L 159.211598 203.810723 
L 157.590494 203.810723 
z
" clip-path="url(#p6fb6df10ba)" style="fill: #1f77b4"/>
   </g>
   <g id="patch_60">
    <path d="M 159.211598 273.312 
L 160.832701 273.312 
L 160.832701 203.211574 
L 159.211598 203.211574 
z
" clip-path="url(#p6fb6df10ba)" style="fill: #1f77b4"/>
   </g>
   <g id="patch_61">
    <path d="M 160.832701 273.312 
L 162.453804 273.312 
L 162.453804 199.017532 
L 160.832701 199.017532 
z
" clip-path="url(#p6fb6df10ba)" style="fill: #1f77b4"/>
   </g>
   <g id="patch_62">
    <path d="M 162.453804 273.312 
L 164.074907 273.312 
L 164.074907 205.009021 
L 162.453804 205.009021 
z
" clip-path="url(#p6fb6df10ba)" style="fill: #1f77b4"/>
   </g>
   <g id="patch_63">
    <path d="M 164.074907 273.312 
L 165.69601 273.312 
L 165.69601 196.620936 
L 164.074907 196.620936 
z
" clip-path="url(#p6fb6df10ba)" style="fill: #1f77b4"/>
   </g>
   <g id="patch_64">
    <path d="M 165.69601 273.312 
L 167.317113 273.312 
L 167.317113 196.620936 
L 165.69601 196.620936 
z
" clip-path="url(#p6fb6df10ba)" style="fill: #1f77b4"/>
   </g>
   <g id="patch_65">
    <path d="M 167.317113 273.312 
L 168.938216 273.312 
L 168.938216 200.814979 
L 167.317113 200.814979 
z
" clip-path="url(#p6fb6df10ba)" style="fill: #1f77b4"/>
   </g>
   <g id="patch_66">
    <path d="M 168.938216 273.312 
L 170.559319 273.312 
L 170.559319 194.22434 
L 168.938216 194.22434 
z
" clip-path="url(#p6fb6df10ba)" style="fill: #1f77b4"/>
   </g>
   <g id="patch_67">
    <path d="M 170.559319 273.312 
L 172.180422 273.312 
L 172.180422 190.629447 
L 170.559319 190.629447 
z
" clip-path="url(#p6fb6df10ba)" style="fill: #1f77b4"/>
   </g>
   <g id="patch_68">
    <path d="M 172.180422 273.312 
L 173.801525 273.312 
L 173.801525 182.241362 
L 172.180422 182.241362 
z
" clip-path="url(#p6fb6df10ba)" style="fill: #1f77b4"/>
   </g>
   <g id="patch_69">
    <path d="M 173.801525 273.312 
L 175.422628 273.312 
L 175.422628 194.22434 
L 173.801525 194.22434 
z
" clip-path="url(#p6fb6df10ba)" style="fill: #1f77b4"/>
   </g>
   <g id="patch_70">
    <path d="M 175.422628 273.312 
L 177.043731 273.312 
L 177.043731 190.629447 
L 175.422628 190.629447 
z
" clip-path="url(#p6fb6df10ba)" style="fill: #1f77b4"/>
   </g>
   <g id="patch_71">
    <path d="M 177.043731 273.312 
L 178.664834 273.312 
L 178.664834 194.22434 
L 177.043731 194.22434 
z
" clip-path="url(#p6fb6df10ba)" style="fill: #1f77b4"/>
   </g>
   <g id="patch_72">
    <path d="M 178.664834 273.312 
L 180.285937 273.312 
L 180.285937 194.22434 
L 178.664834 194.22434 
z
" clip-path="url(#p6fb6df10ba)" style="fill: #1f77b4"/>
   </g>
   <g id="patch_73">
    <path d="M 180.285937 273.312 
L 181.907041 273.312 
L 181.907041 197.819234 
L 180.285937 197.819234 
z
" clip-path="url(#p6fb6df10ba)" style="fill: #1f77b4"/>
   </g>
   <g id="patch_74">
    <path d="M 181.907041 273.312 
L 183.528144 273.312 
L 183.528144 188.232851 
L 181.907041 188.232851 
z
" clip-path="url(#p6fb6df10ba)" style="fill: #1f77b4"/>
   </g>
   <g id="patch_75">
    <path d="M 183.528144 273.312 
L 185.149247 273.312 
L 185.149247 194.823489 
L 183.528144 194.823489 
z
" clip-path="url(#p6fb6df10ba)" style="fill: #1f77b4"/>
   </g>
   <g id="patch_76">
    <path d="M 185.149247 273.312 
L 186.77035 273.312 
L 186.77035 178.646468 
L 185.149247 178.646468 
z
" clip-path="url(#p6fb6df10ba)" style="fill: #1f77b4"/>
   </g>
   <g id="patch_77">
    <path d="M 186.77035 273.312 
L 188.391453 273.312 
L 188.391453 179.844766 
L 186.77035 179.844766 
z
" clip-path="url(#p6fb6df10ba)" style="fill: #1f77b4"/>
   </g>
   <g id="patch_78">
    <path d="M 188.391453 273.312 
L 190.012556 273.312 
L 190.012556 178.646468 
L 188.391453 178.646468 
z
" clip-path="url(#p6fb6df10ba)" style="fill: #1f77b4"/>
   </g>
   <g id="patch_79">
    <path d="M 190.012556 273.312 
L 191.633659 273.312 
L 191.633659 184.637957 
L 190.012556 184.637957 
z
" clip-path="url(#p6fb6df10ba)" style="fill: #1f77b4"/>
   </g>
   <g id="patch_80">
    <path d="M 191.633659 273.312 
L 193.254762 273.312 
L 193.254762 187.633702 
L 191.633659 187.633702 
z
" clip-path="url(#p6fb6df10ba)" style="fill: #1f77b4"/>
   </g>
   <g id="patch_81">
    <path d="M 193.254762 273.312 
L 194.875865 273.312 
L 194.875865 179.245617 
L 193.254762 179.245617 
z
" clip-path="url(#p6fb6df10ba)" style="fill: #1f77b4"/>
   </g>
   <g id="patch_82">
    <path d="M 194.875865 273.312 
L 196.496968 273.312 
L 196.496968 171.456681 
L 194.875865 171.456681 
z
" clip-path="url(#p6fb6df10ba)" style="fill: #1f77b4"/>
   </g>
   <g id="patch_83">
    <path d="M 196.496968 273.312 
L 198.118071 273.312 
L 198.118071 156.477957 
L 196.496968 156.477957 
z
" clip-path="url(#p6fb6df10ba)" style="fill: #1f77b4"/>
   </g>
   <g id="patch_84">
    <path d="M 198.118071 273.312 
L 199.739174 273.312 
L 199.739174 172.654979 
L 198.118071 172.654979 
z
" clip-path="url(#p6fb6df10ba)" style="fill: #1f77b4"/>
   </g>
   <g id="patch_85">
    <path d="M 199.739174 273.312 
L 201.360277 273.312 
L 201.360277 181.043064 
L 199.739174 181.043064 
z
" clip-path="url(#p6fb6df10ba)" style="fill: #1f77b4"/>
   </g>
   <g id="patch_86">
    <path d="M 201.360277 273.312 
L 202.981381 273.312 
L 202.981381 179.844766 
L 201.360277 179.844766 
z
" clip-path="url(#p6fb6df10ba)" style="fill: #1f77b4"/>
   </g>
   <g id="patch_87">
    <path d="M 202.981381 273.312 
L 204.602484 273.312 
L 204.602484 174.452426 
L 202.981381 174.452426 
z
" clip-path="url(#p6fb6df10ba)" style="fill: #1f77b4"/>
   </g>
   <g id="patch_88">
    <path d="M 204.602484 273.312 
L 206.223587 273.312 
L 206.223587 167.861787 
L 204.602484 167.861787 
z
" clip-path="url(#p6fb6df10ba)" style="fill: #1f77b4"/>
   </g>
   <g id="patch_89">
    <path d="M 206.223587 273.312 
L 207.84469 273.312 
L 207.84469 165.465191 
L 206.223587 165.465191 
z
" clip-path="url(#p6fb6df10ba)" style="fill: #1f77b4"/>
   </g>
   <g id="patch_90">
    <path d="M 207.84469 273.312 
L 209.465793 273.312 
L 209.465793 175.650723 
L 207.84469 175.650723 
z
" clip-path="url(#p6fb6df10ba)" style="fill: #1f77b4"/>
   </g>
   <g id="patch_91">
    <path d="M 209.465793 273.312 
L 211.086896 273.312 
L 211.086896 181.642213 
L 209.465793 181.642213 
z
" clip-path="url(#p6fb6df10ba)" style="fill: #1f77b4"/>
   </g>
   <g id="patch_92">
    <path d="M 211.086896 273.312 
L 212.707999 273.312 
L 212.707999 167.861787 
L 211.086896 167.861787 
z
" clip-path="url(#p6fb6df10ba)" style="fill: #1f77b4"/>
   </g>
   <g id="patch_93">
    <path d="M 212.707999 273.312 
L 214.329102 273.312 
L 214.329102 168.460936 
L 212.707999 168.460936 
z
" clip-path="url(#p6fb6df10ba)" style="fill: #1f77b4"/>
   </g>
   <g id="patch_94">
    <path d="M 214.329102 273.312 
L 215.950205 273.312 
L 215.950205 181.043064 
L 214.329102 181.043064 
z
" clip-path="url(#p6fb6df10ba)" style="fill: #1f77b4"/>
   </g>
   <g id="patch_95">
    <path d="M 215.950205 273.312 
L 217.571308 273.312 
L 217.571308 170.258383 
L 215.950205 170.258383 
z
" clip-path="url(#p6fb6df10ba)" style="fill: #1f77b4"/>
   </g>
   <g id="patch_96">
    <path d="M 217.571308 273.312 
L 219.192411 273.312 
L 219.192411 161.271149 
L 217.571308 161.271149 
z
" clip-path="url(#p6fb6df10ba)" style="fill: #1f77b4"/>
   </g>
   <g id="patch_97">
    <path d="M 219.192411 273.312 
L 220.813514 273.312 
L 220.813514 155.27966 
L 219.192411 155.27966 
z
" clip-path="url(#p6fb6df10ba)" style="fill: #1f77b4"/>
   </g>
   <g id="patch_98">
    <path d="M 220.813514 273.312 
L 222.434617 273.312 
L 222.434617 157.676255 
L 220.813514 157.676255 
z
" clip-path="url(#p6fb6df10ba)" style="fill: #1f77b4"/>
   </g>
   <g id="patch_99">
    <path d="M 222.434617 273.312 
L 224.05572 273.312 
L 224.05572 157.077106 
L 222.434617 157.077106 
z
" clip-path="url(#p6fb6df10ba)" style="fill: #1f77b4"/>
   </g>
   <g id="patch_100">
    <path d="M 224.05572 273.312 
L 225.676824 273.312 
L 225.676824 146.891574 
L 224.05572 146.891574 
z
" clip-path="url(#p6fb6df10ba)" style="fill: #1f77b4"/>
   </g>
   <g id="patch_101">
    <path d="M 225.676824 273.312 
L 227.297927 273.312 
L 227.297927 145.094128 
L 225.676824 145.094128 
z
" clip-path="url(#p6fb6df10ba)" style="fill: #1f77b4"/>
   </g>
   <g id="patch_102">
    <path d="M 227.297927 273.312 
L 228.91903 273.312 
L 228.91903 148.089872 
L 227.297927 148.089872 
z
" clip-path="url(#p6fb6df10ba)" style="fill: #1f77b4"/>
   </g>
   <g id="patch_103">
    <path d="M 228.91903 273.312 
L 230.540133 273.312 
L 230.540133 137.305191 
L 228.91903 137.305191 
z
" clip-path="url(#p6fb6df10ba)" style="fill: #1f77b4"/>
   </g>
   <g id="patch_104">
    <path d="M 230.540133 273.312 
L 232.161236 273.312 
L 232.161236 148.089872 
L 230.540133 148.089872 
z
" clip-path="url(#p6fb6df10ba)" style="fill: #1f77b4"/>
   </g>
   <g id="patch_105">
    <path d="M 232.161236 273.312 
L 233.782339 273.312 
L 233.782339 139.102638 
L 232.161236 139.102638 
z
" clip-path="url(#p6fb6df10ba)" style="fill: #1f77b4"/>
   </g>
   <g id="patch_106">
    <path d="M 233.782339 273.312 
L 235.403442 273.312 
L 235.403442 146.891574 
L 233.782339 146.891574 
z
" clip-path="url(#p6fb6df10ba)" style="fill: #1f77b4"/>
   </g>
   <g id="patch_107">
    <path d="M 235.403442 273.312 
L 237.024545 273.312 
L 237.024545 143.296681 
L 235.403442 143.296681 
z
" clip-path="url(#p6fb6df10ba)" style="fill: #1f77b4"/>
   </g>
   <g id="patch_108">
    <path d="M 237.024545 273.312 
L 238.645648 273.312 
L 238.645648 144.494979 
L 237.024545 144.494979 
z
" clip-path="url(#p6fb6df10ba)" style="fill: #1f77b4"/>
   </g>
   <g id="patch_109">
    <path d="M 238.645648 273.312 
L 240.266751 273.312 
L 240.266751 139.701787 
L 238.645648 139.701787 
z
" clip-path="url(#p6fb6df10ba)" style="fill: #1f77b4"/>
   </g>
   <g id="patch_110">
    <path d="M 240.266751 273.312 
L 241.887854 273.312 
L 241.887854 140.300936 
L 240.266751 140.300936 
z
" clip-path="url(#p6fb6df10ba)" style="fill: #1f77b4"/>
   </g>
   <g id="patch_111">
    <path d="M 241.887854 273.312 
L 243.508957 273.312 
L 243.508957 138.503489 
L 241.887854 138.503489 
z
" clip-path="url(#p6fb6df10ba)" style="fill: #1f77b4"/>
   </g>
   <g id="patch_112">
    <path d="M 243.508957 273.312 
L 245.13006 273.312 
L 245.13006 143.89583 
L 243.508957 143.89583 
z
" clip-path="url(#p6fb6df10ba)" style="fill: #1f77b4"/>
   </g>
   <g id="patch_113">
    <path d="M 245.13006 273.312 
L 246.751163 273.312 
L 246.751163 151.085617 
L 245.13006 151.085617 
z
" clip-path="url(#p6fb6df10ba)" style="fill: #1f77b4"/>
   </g>
   <g id="patch_114">
    <path d="M 246.751163 273.312 
L 248.372267 273.312 
L 248.372267 142.697532 
L 246.751163 142.697532 
z
" clip-path="url(#p6fb6df10ba)" style="fill: #1f77b4"/>
   </g>
   <g id="patch_115">
    <path d="M 248.372267 273.312 
L 249.99337 273.312 
L 249.99337 131.912851 
L 248.372267 131.912851 
z
" clip-path="url(#p6fb6df10ba)" style="fill: #1f77b4"/>
   </g>
   <g id="patch_116">
    <path d="M 249.99337 273.312 
L 251.614473 273.312 
L 251.614473 127.11966 
L 249.99337 127.11966 
z
" clip-path="url(#p6fb6df10ba)" style="fill: #1f77b4"/>
   </g>
   <g id="patch_117">
    <path d="M 251.614473 273.312 
L 253.235576 273.312 
L 253.235576 140.300936 
L 251.614473 140.300936 
z
" clip-path="url(#p6fb6df10ba)" style="fill: #1f77b4"/>
   </g>
   <g id="patch_118">
    <path d="M 253.235576 273.312 
L 254.856679 273.312 
L 254.856679 149.28817 
L 253.235576 149.28817 
z
" clip-path="url(#p6fb6df10ba)" style="fill: #1f77b4"/>
   </g>
   <g id="patch_119">
    <path d="M 254.856679 273.312 
L 256.477782 273.312 
L 256.477782 124.123915 
L 254.856679 124.123915 
z
" clip-path="url(#p6fb6df10ba)" style="fill: #1f77b4"/>
   </g>
   <g id="patch_120">
    <path d="M 256.477782 273.312 
L 258.098885 273.312 
L 258.098885 129.516255 
L 256.477782 129.516255 
z
" clip-path="url(#p6fb6df10ba)" style="fill: #1f77b4"/>
   </g>
   <g id="patch_121">
    <path d="M 258.098885 273.312 
L 259.719988 273.312 
L 259.719988 116.334979 
L 258.098885 116.334979 
z
" clip-path="url(#p6fb6df10ba)" style="fill: #1f77b4"/>
   </g>
   <g id="patch_122">
    <path d="M 259.719988 273.312 
L 261.341091 273.312 
L 261.341091 138.503489 
L 259.719988 138.503489 
z
" clip-path="url(#p6fb6df10ba)" style="fill: #1f77b4"/>
   </g>
   <g id="patch_123">
    <path d="M 261.341091 273.312 
L 262.962194 273.312 
L 262.962194 119.330723 
L 261.341091 119.330723 
z
" clip-path="url(#p6fb6df10ba)" style="fill: #1f77b4"/>
   </g>
   <g id="patch_124">
    <path d="M 262.962194 273.312 
L 264.583297 273.312 
L 264.583297 130.115404 
L 262.962194 130.115404 
z
" clip-path="url(#p6fb6df10ba)" style="fill: #1f77b4"/>
   </g>
   <g id="patch_125">
    <path d="M 264.583297 273.312 
L 266.2044 273.312 
L 266.2044 127.11966 
L 264.583297 127.11966 
z
" clip-path="url(#p6fb6df10ba)" style="fill: #1f77b4"/>
   </g>
   <g id="patch_126">
    <path d="M 266.2044 273.312 
L 267.825503 273.312 
L 267.825503 142.697532 
L 266.2044 142.697532 
z
" clip-path="url(#p6fb6df10ba)" style="fill: #1f77b4"/>
   </g>
   <g id="patch_127">
    <path d="M 267.825503 273.312 
L 269.446607 273.312 
L 269.446607 120.529021 
L 267.825503 120.529021 
z
" clip-path="url(#p6fb6df10ba)" style="fill: #1f77b4"/>
   </g>
   <g id="patch_128">
    <path d="M 269.446607 273.312 
L 271.06771 273.312 
L 271.06771 124.723064 
L 269.446607 124.723064 
z
" clip-path="url(#p6fb6df10ba)" style="fill: #1f77b4"/>
   </g>
   <g id="patch_129">
    <path d="M 271.06771 273.312 
L 272.688813 273.312 
L 272.688813 112.140936 
L 271.06771 112.140936 
z
" clip-path="url(#p6fb6df10ba)" style="fill: #1f77b4"/>
   </g>
   <g id="patch_130">
    <path d="M 272.688813 273.312 
L 274.309916 273.312 
L 274.309916 121.727319 
L 272.688813 121.727319 
z
" clip-path="url(#p6fb6df10ba)" style="fill: #1f77b4"/>
   </g>
   <g id="patch_131">
    <path d="M 274.309916 273.312 
L 275.931019 273.312 
L 275.931019 119.330723 
L 274.309916 119.330723 
z
" clip-path="url(#p6fb6df10ba)" style="fill: #1f77b4"/>
   </g>
   <g id="patch_132">
    <path d="M 275.931019 273.312 
L 277.552122 273.312 
L 277.552122 122.326468 
L 275.931019 122.326468 
z
" clip-path="url(#p6fb6df10ba)" style="fill: #1f77b4"/>
   </g>
   <g id="patch_133">
    <path d="M 277.552122 273.312 
L 279.173225 273.312 
L 279.173225 108.546043 
L 277.552122 108.546043 
z
" clip-path="url(#p6fb6df10ba)" style="fill: #1f77b4"/>
   </g>
   <g id="patch_134">
    <path d="M 279.173225 273.312 
L 280.794328 273.312 
L 280.794328 131.313702 
L 279.173225 131.313702 
z
" clip-path="url(#p6fb6df10ba)" style="fill: #1f77b4"/>
   </g>
   <g id="patch_135">
    <path d="M 280.794328 273.312 
L 282.415431 273.312 
L 282.415431 106.149447 
L 280.794328 106.149447 
z
" clip-path="url(#p6fb6df10ba)" style="fill: #1f77b4"/>
   </g>
   <g id="patch_136">
    <path d="M 282.415431 273.312 
L 284.036534 273.312 
L 284.036534 101.356255 
L 282.415431 101.356255 
z
" clip-path="url(#p6fb6df10ba)" style="fill: #1f77b4"/>
   </g>
   <g id="patch_137">
    <path d="M 284.036534 273.312 
L 285.657637 273.312 
L 285.657637 131.313702 
L 284.036534 131.313702 
z
" clip-path="url(#p6fb6df10ba)" style="fill: #1f77b4"/>
   </g>
   <g id="patch_138">
    <path d="M 285.657637 273.312 
L 287.27874 273.312 
L 287.27874 92.96817 
L 285.657637 92.96817 
z
" clip-path="url(#p6fb6df10ba)" style="fill: #1f77b4"/>
   </g>
   <g id="patch_139">
    <path d="M 287.27874 273.312 
L 288.899843 273.312 
L 288.899843 94.765617 
L 287.27874 94.765617 
z
" clip-path="url(#p6fb6df10ba)" style="fill: #1f77b4"/>
   </g>
   <g id="patch_140">
    <path d="M 288.899843 273.312 
L 290.520946 273.312 
L 290.520946 101.356255 
L 288.899843 101.356255 
z
" clip-path="url(#p6fb6df10ba)" style="fill: #1f77b4"/>
   </g>
   <g id="patch_141">
    <path d="M 290.520946 273.312 
L 292.14205 273.312 
L 292.14205 99.558809 
L 290.520946 99.558809 
z
" clip-path="url(#p6fb6df10ba)" style="fill: #1f77b4"/>
   </g>
   <g id="patch_142">
    <path d="M 292.14205 273.312 
L 293.763153 273.312 
L 293.763153 114.537532 
L 292.14205 114.537532 
z
" clip-path="url(#p6fb6df10ba)" style="fill: #1f77b4"/>
   </g>
   <g id="patch_143">
    <path d="M 293.763153 273.312 
L 295.384256 273.312 
L 295.384256 113.938383 
L 293.763153 113.938383 
z
" clip-path="url(#p6fb6df10ba)" style="fill: #1f77b4"/>
   </g>
   <g id="patch_144">
    <path d="M 295.384256 273.312 
L 297.005359 273.312 
L 297.005359 107.946894 
L 295.384256 107.946894 
z
" clip-path="url(#p6fb6df10ba)" style="fill: #1f77b4"/>
   </g>
   <g id="patch_145">
    <path d="M 297.005359 273.312 
L 298.626462 273.312 
L 298.626462 95.364766 
L 297.005359 95.364766 
z
" clip-path="url(#p6fb6df10ba)" style="fill: #1f77b4"/>
   </g>
   <g id="patch_146">
    <path d="M 298.626462 273.312 
L 300.247565 273.312 
L 300.247565 110.343489 
L 298.626462 110.343489 
z
" clip-path="url(#p6fb6df10ba)" style="fill: #1f77b4"/>
   </g>
   <g id="patch_147">
    <path d="M 300.247565 273.312 
L 301.868668 273.312 
L 301.868668 100.757106 
L 300.247565 100.757106 
z
" clip-path="url(#p6fb6df10ba)" style="fill: #1f77b4"/>
   </g>
   <g id="patch_148">
    <path d="M 301.868668 273.312 
L 303.489771 273.312 
L 303.489771 91.170723 
L 301.868668 91.170723 
z
" clip-path="url(#p6fb6df10ba)" style="fill: #1f77b4"/>
   </g>
   <g id="patch_149">
    <path d="M 303.489771 273.312 
L 305.110874 273.312 
L 305.110874 100.757106 
L 303.489771 100.757106 
z
" clip-path="url(#p6fb6df10ba)" style="fill: #1f77b4"/>
   </g>
   <g id="patch_150">
    <path d="M 305.110874 273.312 
L 306.731977 273.312 
L 306.731977 119.929872 
L 305.110874 119.929872 
z
" clip-path="url(#p6fb6df10ba)" style="fill: #1f77b4"/>
   </g>
   <g id="patch_151">
    <path d="M 306.731977 273.312 
L 308.35308 273.312 
L 308.35308 85.778383 
L 306.731977 85.778383 
z
" clip-path="url(#p6fb6df10ba)" style="fill: #1f77b4"/>
   </g>
   <g id="patch_152">
    <path d="M 308.35308 273.312 
L 309.974183 273.312 
L 309.974183 65.407319 
L 308.35308 65.407319 
z
" clip-path="url(#p6fb6df10ba)" style="fill: #1f77b4"/>
   </g>
   <g id="patch_153">
    <path d="M 309.974183 273.312 
L 311.595286 273.312 
L 311.595286 76.192 
L 309.974183 76.192 
z
" clip-path="url(#p6fb6df10ba)" style="fill: #1f77b4"/>
   </g>
   <g id="patch_154">
    <path d="M 311.595286 273.312 
L 313.21639 273.312 
L 313.21639 103.752851 
L 311.595286 103.752851 
z
" clip-path="url(#p6fb6df10ba)" style="fill: #1f77b4"/>
   </g>
   <g id="patch_155">
    <path d="M 313.21639 273.312 
L 314.837493 273.312 
L 314.837493 80.985191 
L 313.21639 80.985191 
z
" clip-path="url(#p6fb6df10ba)" style="fill: #1f77b4"/>
   </g>
   <g id="patch_156">
    <path d="M 314.837493 273.312 
L 316.458596 273.312 
L 316.458596 104.951149 
L 314.837493 104.951149 
z
" clip-path="url(#p6fb6df10ba)" style="fill: #1f77b4"/>
   </g>
   <g id="patch_157">
    <path d="M 316.458596 273.312 
L 318.079699 273.312 
L 318.079699 89.972426 
L 316.458596 89.972426 
z
" clip-path="url(#p6fb6df10ba)" style="fill: #1f77b4"/>
   </g>
   <g id="patch_158">
    <path d="M 318.079699 273.312 
L 319.700802 273.312 
L 319.700802 70.79966 
L 318.079699 70.79966 
z
" clip-path="url(#p6fb6df10ba)" style="fill: #1f77b4"/>
   </g>
   <g id="patch_159">
    <path d="M 319.700802 273.312 
L 321.321905 273.312 
L 321.321905 100.157957 
L 319.700802 100.157957 
z
" clip-path="url(#p6fb6df10ba)" style="fill: #1f77b4"/>
   </g>
   <g id="patch_160">
    <path d="M 321.321905 273.312 
L 322.943008 273.312 
L 322.943008 88.174979 
L 321.321905 88.174979 
z
" clip-path="url(#p6fb6df10ba)" style="fill: #1f77b4"/>
   </g>
   <g id="patch_161">
    <path d="M 322.943008 273.312 
L 324.564111 273.312 
L 324.564111 75.592851 
L 322.943008 75.592851 
z
" clip-path="url(#p6fb6df10ba)" style="fill: #1f77b4"/>
   </g>
   <g id="patch_162">
    <path d="M 324.564111 273.312 
L 326.185214 273.312 
L 326.185214 67.803915 
L 324.564111 67.803915 
z
" clip-path="url(#p6fb6df10ba)" style="fill: #1f77b4"/>
   </g>
   <g id="patch_163">
    <path d="M 326.185214 273.312 
L 327.806317 273.312 
L 327.806317 103.153702 
L 326.185214 103.153702 
z
" clip-path="url(#p6fb6df10ba)" style="fill: #1f77b4"/>
   </g>
   <g id="patch_164">
    <path d="M 327.806317 273.312 
L 329.42742 273.312 
L 329.42742 94.166468 
L 327.806317 94.166468 
z
" clip-path="url(#p6fb6df10ba)" style="fill: #1f77b4"/>
   </g>
   <g id="patch_165">
    <path d="M 329.42742 273.312 
L 331.048523 273.312 
L 331.048523 69.601362 
L 329.42742 69.601362 
z
" clip-path="url(#p6fb6df10ba)" style="fill: #1f77b4"/>
   </g>
   <g id="patch_166">
    <path d="M 331.048523 273.312 
L 332.669626 273.312 
L 332.669626 82.183489 
L 331.048523 82.183489 
z
" clip-path="url(#p6fb6df10ba)" style="fill: #1f77b4"/>
   </g>
   <g id="patch_167">
    <path d="M 332.669626 273.312 
L 334.290729 273.312 
L 334.290729 98.95966 
L 332.669626 98.95966 
z
" clip-path="url(#p6fb6df10ba)" style="fill: #1f77b4"/>
   </g>
   <g id="patch_168">
    <path d="M 334.290729 273.312 
L 335.911833 273.312 
L 335.911833 78.588596 
L 334.290729 78.588596 
z
" clip-path="url(#p6fb6df10ba)" style="fill: #1f77b4"/>
   </g>
   <g id="patch_169">
    <path d="M 335.911833 273.312 
L 337.532936 273.312 
L 337.532936 89.373277 
L 335.911833 89.373277 
z
" clip-path="url(#p6fb6df10ba)" style="fill: #1f77b4"/>
   </g>
   <g id="patch_170">
    <path d="M 337.532936 273.312 
L 339.154039 273.312 
L 339.154039 70.200511 
L 337.532936 70.200511 
z
" clip-path="url(#p6fb6df10ba)" style="fill: #1f77b4"/>
   </g>
   <g id="patch_171">
    <path d="M 339.154039 273.312 
L 340.775142 273.312 
L 340.775142 66.605617 
L 339.154039 66.605617 
z
" clip-path="url(#p6fb6df10ba)" style="fill: #1f77b4"/>
   </g>
   <g id="patch_172">
    <path d="M 340.775142 273.312 
L 342.396245 273.312 
L 342.396245 66.006468 
L 340.775142 66.006468 
z
" clip-path="url(#p6fb6df10ba)" style="fill: #1f77b4"/>
   </g>
   <g id="patch_173">
    <path d="M 342.396245 273.312 
L 344.017348 273.312 
L 344.017348 76.791149 
L 342.396245 76.791149 
z
" clip-path="url(#p6fb6df10ba)" style="fill: #1f77b4"/>
   </g>
   <g id="patch_174">
    <path d="M 344.017348 273.312 
L 345.638451 273.312 
L 345.638451 55.221787 
L 344.017348 55.221787 
z
" clip-path="url(#p6fb6df10ba)" style="fill: #1f77b4"/>
   </g>
   <g id="patch_175">
    <path d="M 345.638451 273.312 
L 347.259554 273.312 
L 347.259554 83.980936 
L 345.638451 83.980936 
z
" clip-path="url(#p6fb6df10ba)" style="fill: #1f77b4"/>
   </g>
   <g id="patch_176">
    <path d="M 347.259554 273.312 
L 348.880657 273.312 
L 348.880657 82.782638 
L 347.259554 82.782638 
z
" clip-path="url(#p6fb6df10ba)" style="fill: #1f77b4"/>
   </g>
   <g id="patch_177">
    <path d="M 348.880657 273.312 
L 350.50176 273.312 
L 350.50176 64.80817 
L 348.880657 64.80817 
z
" clip-path="url(#p6fb6df10ba)" style="fill: #1f77b4"/>
   </g>
   <g id="patch_178">
    <path d="M 350.50176 273.312 
L 352.122863 273.312 
L 352.122863 76.192 
L 350.50176 76.192 
z
" clip-path="url(#p6fb6df10ba)" style="fill: #1f77b4"/>
   </g>
   <g id="patch_179">
    <path d="M 352.122863 273.312 
L 353.743966 273.312 
L 353.743966 74.993702 
L 352.122863 74.993702 
z
" clip-path="url(#p6fb6df10ba)" style="fill: #1f77b4"/>
   </g>
   <g id="patch_180">
    <path d="M 353.743966 273.312 
L 355.365069 273.312 
L 355.365069 63.609872 
L 353.743966 63.609872 
z
" clip-path="url(#p6fb6df10ba)" style="fill: #1f77b4"/>
   </g>
   <g id="patch_181">
    <path d="M 355.365069 273.312 
L 356.986173 273.312 
L 356.986173 82.782638 
L 355.365069 82.782638 
z
" clip-path="url(#p6fb6df10ba)" style="fill: #1f77b4"/>
   </g>
   <g id="patch_182">
    <path d="M 356.986173 273.312 
L 358.607276 273.312 
L 358.607276 66.605617 
L 356.986173 66.605617 
z
" clip-path="url(#p6fb6df10ba)" style="fill: #1f77b4"/>
   </g>
   <g id="patch_183">
    <path d="M 358.607276 273.312 
L 360.228379 273.312 
L 360.228379 46.234553 
L 358.607276 46.234553 
z
" clip-path="url(#p6fb6df10ba)" style="fill: #1f77b4"/>
   </g>
   <g id="patch_184">
    <path d="M 360.228379 273.312 
L 361.849482 273.312 
L 361.849482 52.825191 
L 360.228379 52.825191 
z
" clip-path="url(#p6fb6df10ba)" style="fill: #1f77b4"/>
   </g>
   <g id="patch_185">
    <path d="M 361.849482 273.312 
L 363.470585 273.312 
L 363.470585 43.837957 
L 361.849482 43.837957 
z
" clip-path="url(#p6fb6df10ba)" style="fill: #1f77b4"/>
   </g>
   <g id="patch_186">
    <path d="M 363.470585 273.312 
L 365.091688 273.312 
L 365.091688 63.010723 
L 363.470585 63.010723 
z
" clip-path="url(#p6fb6df10ba)" style="fill: #1f77b4"/>
   </g>
   <g id="patch_187">
    <path d="M 365.091688 273.312 
L 366.712791 273.312 
L 366.712791 42.63966 
L 365.091688 42.63966 
z
" clip-path="url(#p6fb6df10ba)" style="fill: #1f77b4"/>
   </g>
   <g id="patch_188">
    <path d="M 366.712791 273.312 
L 368.333894 273.312 
L 368.333894 29.458383 
L 366.712791 29.458383 
z
" clip-path="url(#p6fb6df10ba)" style="fill: #1f77b4"/>
   </g>
   <g id="patch_189">
    <path d="M 368.333894 273.312 
L 369.954997 273.312 
L 369.954997 51.626894 
L 368.333894 51.626894 
z
" clip-path="url(#p6fb6df10ba)" style="fill: #1f77b4"/>
   </g>
   <g id="patch_190">
    <path d="M 369.954997 273.312 
L 371.5761 273.312 
L 371.5761 54.023489 
L 369.954997 54.023489 
z
" clip-path="url(#p6fb6df10ba)" style="fill: #1f77b4"/>
   </g>
   <g id="patch_191">
    <path d="M 371.5761 273.312 
L 373.197203 273.312 
L 373.197203 51.027745 
L 371.5761 51.027745 
z
" clip-path="url(#p6fb6df10ba)" style="fill: #1f77b4"/>
   </g>
   <g id="patch_192">
    <path d="M 373.197203 273.312 
L 374.818306 273.312 
L 374.818306 56.420085 
L 373.197203 56.420085 
z
" clip-path="url(#p6fb6df10ba)" style="fill: #1f77b4"/>
   </g>
   <g id="patch_193">
    <path d="M 374.818306 273.312 
L 376.439409 273.312 
L 376.439409 34.850723 
L 374.818306 34.850723 
z
" clip-path="url(#p6fb6df10ba)" style="fill: #1f77b4"/>
   </g>
   <g id="patch_194">
    <path d="M 376.439409 273.312 
L 378.060512 273.312 
L 378.060512 48.631149 
L 376.439409 48.631149 
z
" clip-path="url(#p6fb6df10ba)" style="fill: #1f77b4"/>
   </g>
   <g id="patch_195">
    <path d="M 378.060512 273.312 
L 379.681616 273.312 
L 379.681616 53.42434 
L 378.060512 53.42434 
z
" clip-path="url(#p6fb6df10ba)" style="fill: #1f77b4"/>
   </g>
   <g id="patch_196">
    <path d="M 379.681616 273.312 
L 381.302719 273.312 
L 381.302719 33.053277 
L 379.681616 33.053277 
z
" clip-path="url(#p6fb6df10ba)" style="fill: #1f77b4"/>
   </g>
   <g id="patch_197">
    <path d="M 381.302719 273.312 
L 382.923822 273.312 
L 382.923822 39.643915 
L 381.302719 39.643915 
z
" clip-path="url(#p6fb6df10ba)" style="fill: #1f77b4"/>
   </g>
   <g id="patch_198">
    <path d="M 382.923822 273.312 
L 384.544925 273.312 
L 384.544925 61.213277 
L 382.923822 61.213277 
z
" clip-path="url(#p6fb6df10ba)" style="fill: #1f77b4"/>
   </g>
   <g id="patch_199">
    <path d="M 384.544925 273.312 
L 386.166028 273.312 
L 386.166028 37.846468 
L 384.544925 37.846468 
z
" clip-path="url(#p6fb6df10ba)" style="fill: #1f77b4"/>
   </g>
   <g id="patch_200">
    <path d="M 386.166028 273.312 
L 387.787131 273.312 
L 387.787131 44.437106 
L 386.166028 44.437106 
z
" clip-path="url(#p6fb6df10ba)" style="fill: #1f77b4"/>
   </g>
   <g id="patch_201">
    <path d="M 387.787131 273.312 
L 389.408234 273.312 
L 389.408234 25.863489 
L 387.787131 25.863489 
z
" clip-path="url(#p6fb6df10ba)" style="fill: #1f77b4"/>
   </g>
   <g id="patch_202">
    <path d="M 389.408234 273.312 
L 391.029337 273.312 
L 391.029337 19.872 
L 389.408234 19.872 
z
" clip-path="url(#p6fb6df10ba)" style="fill: #1f77b4"/>
   </g>
   <g id="matplotlib.axis_1">
    <g id="xtick_1">
     <g id="line2d_1">
      <defs>
       <path id="m9d4c6b1654" d="M 0 0 
L 0 3.5 
" style="stroke: #000000; stroke-width: 0.8"/>
      </defs>
      <g>
       <use xlink:href="#m9d4c6b1654" x="66.376477" y="273.312" style="stroke: #000000; stroke-width: 0.8"/>
      </g>
     </g>
     <g id="text_1">
      <!-- 0.0 -->
      <g transform="translate(58.424915 287.910437)scale(0.1 -0.1)">
       <defs>
        <path id="DejaVuSans-30" d="M 2034 4250 
Q 1547 4250 1301 3770 
Q 1056 3291 1056 2328 
Q 1056 1369 1301 889 
Q 1547 409 2034 409 
Q 2525 409 2770 889 
Q 3016 1369 3016 2328 
Q 3016 3291 2770 3770 
Q 2525 4250 2034 4250 
z
M 2034 4750 
Q 2819 4750 3233 4129 
Q 3647 3509 3647 2328 
Q 3647 1150 3233 529 
Q 2819 -91 2034 -91 
Q 1250 -91 836 529 
Q 422 1150 422 2328 
Q 422 3509 836 4129 
Q 1250 4750 2034 4750 
z
" transform="scale(0.015625)"/>
        <path id="DejaVuSans-2e" d="M 684 794 
L 1344 794 
L 1344 0 
L 684 0 
L 684 794 
z
" transform="scale(0.015625)"/>
       </defs>
       <use xlink:href="#DejaVuSans-30"/>
       <use xlink:href="#DejaVuSans-2e" x="63.623047"/>
       <use xlink:href="#DejaVuSans-30" x="95.410156"/>
      </g>
     </g>
    </g>
    <g id="xtick_2">
     <g id="line2d_2">
      <g>
       <use xlink:href="#m9d4c6b1654" x="131.307386" y="273.312" style="stroke: #000000; stroke-width: 0.8"/>
      </g>
     </g>
     <g id="text_2">
      <!-- 0.2 -->
      <g transform="translate(123.355824 287.910437)scale(0.1 -0.1)">
       <defs>
        <path id="DejaVuSans-32" d="M 1228 531 
L 3431 531 
L 3431 0 
L 469 0 
L 469 531 
Q 828 903 1448 1529 
Q 2069 2156 2228 2338 
Q 2531 2678 2651 2914 
Q 2772 3150 2772 3378 
Q 2772 3750 2511 3984 
Q 2250 4219 1831 4219 
Q 1534 4219 1204 4116 
Q 875 4013 500 3803 
L 500 4441 
Q 881 4594 1212 4672 
Q 1544 4750 1819 4750 
Q 2544 4750 2975 4387 
Q 3406 4025 3406 3419 
Q 3406 3131 3298 2873 
Q 3191 2616 2906 2266 
Q 2828 2175 2409 1742 
Q 1991 1309 1228 531 
z
" transform="scale(0.015625)"/>
       </defs>
       <use xlink:href="#DejaVuSans-30"/>
       <use xlink:href="#DejaVuSans-2e" x="63.623047"/>
       <use xlink:href="#DejaVuSans-32" x="95.410156"/>
      </g>
     </g>
    </g>
    <g id="xtick_3">
     <g id="line2d_3">
      <g>
       <use xlink:href="#m9d4c6b1654" x="196.238295" y="273.312" style="stroke: #000000; stroke-width: 0.8"/>
      </g>
     </g>
     <g id="text_3">
      <!-- 0.4 -->
      <g transform="translate(188.286733 287.910437)scale(0.1 -0.1)">
       <defs>
        <path id="DejaVuSans-34" d="M 2419 4116 
L 825 1625 
L 2419 1625 
L 2419 4116 
z
M 2253 4666 
L 3047 4666 
L 3047 1625 
L 3713 1625 
L 3713 1100 
L 3047 1100 
L 3047 0 
L 2419 0 
L 2419 1100 
L 313 1100 
L 313 1709 
L 2253 4666 
z
" transform="scale(0.015625)"/>
       </defs>
       <use xlink:href="#DejaVuSans-30"/>
       <use xlink:href="#DejaVuSans-2e" x="63.623047"/>
       <use xlink:href="#DejaVuSans-34" x="95.410156"/>
      </g>
     </g>
    </g>
    <g id="xtick_4">
     <g id="line2d_4">
      <g>
       <use xlink:href="#m9d4c6b1654" x="261.169205" y="273.312" style="stroke: #000000; stroke-width: 0.8"/>
      </g>
     </g>
     <g id="text_4">
      <!-- 0.6 -->
      <g transform="translate(253.217642 287.910437)scale(0.1 -0.1)">
       <defs>
        <path id="DejaVuSans-36" d="M 2113 2584 
Q 1688 2584 1439 2293 
Q 1191 2003 1191 1497 
Q 1191 994 1439 701 
Q 1688 409 2113 409 
Q 2538 409 2786 701 
Q 3034 994 3034 1497 
Q 3034 2003 2786 2293 
Q 2538 2584 2113 2584 
z
M 3366 4563 
L 3366 3988 
Q 3128 4100 2886 4159 
Q 2644 4219 2406 4219 
Q 1781 4219 1451 3797 
Q 1122 3375 1075 2522 
Q 1259 2794 1537 2939 
Q 1816 3084 2150 3084 
Q 2853 3084 3261 2657 
Q 3669 2231 3669 1497 
Q 3669 778 3244 343 
Q 2819 -91 2113 -91 
Q 1303 -91 875 529 
Q 447 1150 447 2328 
Q 447 3434 972 4092 
Q 1497 4750 2381 4750 
Q 2619 4750 2861 4703 
Q 3103 4656 3366 4563 
z
" transform="scale(0.015625)"/>
       </defs>
       <use xlink:href="#DejaVuSans-30"/>
       <use xlink:href="#DejaVuSans-2e" x="63.623047"/>
       <use xlink:href="#DejaVuSans-36" x="95.410156"/>
      </g>
     </g>
    </g>
    <g id="xtick_5">
     <g id="line2d_5">
      <g>
       <use xlink:href="#m9d4c6b1654" x="326.100114" y="273.312" style="stroke: #000000; stroke-width: 0.8"/>
      </g>
     </g>
     <g id="text_5">
      <!-- 0.8 -->
      <g transform="translate(318.148551 287.910437)scale(0.1 -0.1)">
       <defs>
        <path id="DejaVuSans-38" d="M 2034 2216 
Q 1584 2216 1326 1975 
Q 1069 1734 1069 1313 
Q 1069 891 1326 650 
Q 1584 409 2034 409 
Q 2484 409 2743 651 
Q 3003 894 3003 1313 
Q 3003 1734 2745 1975 
Q 2488 2216 2034 2216 
z
M 1403 2484 
Q 997 2584 770 2862 
Q 544 3141 544 3541 
Q 544 4100 942 4425 
Q 1341 4750 2034 4750 
Q 2731 4750 3128 4425 
Q 3525 4100 3525 3541 
Q 3525 3141 3298 2862 
Q 3072 2584 2669 2484 
Q 3125 2378 3379 2068 
Q 3634 1759 3634 1313 
Q 3634 634 3220 271 
Q 2806 -91 2034 -91 
Q 1263 -91 848 271 
Q 434 634 434 1313 
Q 434 1759 690 2068 
Q 947 2378 1403 2484 
z
M 1172 3481 
Q 1172 3119 1398 2916 
Q 1625 2713 2034 2713 
Q 2441 2713 2670 2916 
Q 2900 3119 2900 3481 
Q 2900 3844 2670 4047 
Q 2441 4250 2034 4250 
Q 1625 4250 1398 4047 
Q 1172 3844 1172 3481 
z
" transform="scale(0.015625)"/>
       </defs>
       <use xlink:href="#DejaVuSans-30"/>
       <use xlink:href="#DejaVuSans-2e" x="63.623047"/>
       <use xlink:href="#DejaVuSans-38" x="95.410156"/>
      </g>
     </g>
    </g>
    <g id="xtick_6">
     <g id="line2d_6">
      <g>
       <use xlink:href="#m9d4c6b1654" x="391.031023" y="273.312" style="stroke: #000000; stroke-width: 0.8"/>
      </g>
     </g>
     <g id="text_6">
      <!-- 1.0 -->
      <g transform="translate(383.07946 287.910437)scale(0.1 -0.1)">
       <defs>
        <path id="DejaVuSans-31" d="M 794 531 
L 1825 531 
L 1825 4091 
L 703 3866 
L 703 4441 
L 1819 4666 
L 2450 4666 
L 2450 531 
L 3481 531 
L 3481 0 
L 794 0 
L 794 531 
z
" transform="scale(0.015625)"/>
       </defs>
       <use xlink:href="#DejaVuSans-31"/>
       <use xlink:href="#DejaVuSans-2e" x="63.623047"/>
       <use xlink:href="#DejaVuSans-30" x="95.410156"/>
      </g>
     </g>
    </g>
    <g id="text_7">
     <!-- Propagation direction -->
     <g transform="translate(175.221719 301.588562)scale(0.1 -0.1)">
      <defs>
       <path id="DejaVuSans-50" d="M 1259 4147 
L 1259 2394 
L 2053 2394 
Q 2494 2394 2734 2622 
Q 2975 2850 2975 3272 
Q 2975 3691 2734 3919 
Q 2494 4147 2053 4147 
L 1259 4147 
z
M 628 4666 
L 2053 4666 
Q 2838 4666 3239 4311 
Q 3641 3956 3641 3272 
Q 3641 2581 3239 2228 
Q 2838 1875 2053 1875 
L 1259 1875 
L 1259 0 
L 628 0 
L 628 4666 
z
" transform="scale(0.015625)"/>
       <path id="DejaVuSans-72" d="M 2631 2963 
Q 2534 3019 2420 3045 
Q 2306 3072 2169 3072 
Q 1681 3072 1420 2755 
Q 1159 2438 1159 1844 
L 1159 0 
L 581 0 
L 581 3500 
L 1159 3500 
L 1159 2956 
Q 1341 3275 1631 3429 
Q 1922 3584 2338 3584 
Q 2397 3584 2469 3576 
Q 2541 3569 2628 3553 
L 2631 2963 
z
" transform="scale(0.015625)"/>
       <path id="DejaVuSans-6f" d="M 1959 3097 
Q 1497 3097 1228 2736 
Q 959 2375 959 1747 
Q 959 1119 1226 758 
Q 1494 397 1959 397 
Q 2419 397 2687 759 
Q 2956 1122 2956 1747 
Q 2956 2369 2687 2733 
Q 2419 3097 1959 3097 
z
M 1959 3584 
Q 2709 3584 3137 3096 
Q 3566 2609 3566 1747 
Q 3566 888 3137 398 
Q 2709 -91 1959 -91 
Q 1206 -91 779 398 
Q 353 888 353 1747 
Q 353 2609 779 3096 
Q 1206 3584 1959 3584 
z
" transform="scale(0.015625)"/>
       <path id="DejaVuSans-70" d="M 1159 525 
L 1159 -1331 
L 581 -1331 
L 581 3500 
L 1159 3500 
L 1159 2969 
Q 1341 3281 1617 3432 
Q 1894 3584 2278 3584 
Q 2916 3584 3314 3078 
Q 3713 2572 3713 1747 
Q 3713 922 3314 415 
Q 2916 -91 2278 -91 
Q 1894 -91 1617 61 
Q 1341 213 1159 525 
z
M 3116 1747 
Q 3116 2381 2855 2742 
Q 2594 3103 2138 3103 
Q 1681 3103 1420 2742 
Q 1159 2381 1159 1747 
Q 1159 1113 1420 752 
Q 1681 391 2138 391 
Q 2594 391 2855 752 
Q 3116 1113 3116 1747 
z
" transform="scale(0.015625)"/>
       <path id="DejaVuSans-61" d="M 2194 1759 
Q 1497 1759 1228 1600 
Q 959 1441 959 1056 
Q 959 750 1161 570 
Q 1363 391 1709 391 
Q 2188 391 2477 730 
Q 2766 1069 2766 1631 
L 2766 1759 
L 2194 1759 
z
M 3341 1997 
L 3341 0 
L 2766 0 
L 2766 531 
Q 2569 213 2275 61 
Q 1981 -91 1556 -91 
Q 1019 -91 701 211 
Q 384 513 384 1019 
Q 384 1609 779 1909 
Q 1175 2209 1959 2209 
L 2766 2209 
L 2766 2266 
Q 2766 2663 2505 2880 
Q 2244 3097 1772 3097 
Q 1472 3097 1187 3025 
Q 903 2953 641 2809 
L 641 3341 
Q 956 3463 1253 3523 
Q 1550 3584 1831 3584 
Q 2591 3584 2966 3190 
Q 3341 2797 3341 1997 
z
" transform="scale(0.015625)"/>
       <path id="DejaVuSans-67" d="M 2906 1791 
Q 2906 2416 2648 2759 
Q 2391 3103 1925 3103 
Q 1463 3103 1205 2759 
Q 947 2416 947 1791 
Q 947 1169 1205 825 
Q 1463 481 1925 481 
Q 2391 481 2648 825 
Q 2906 1169 2906 1791 
z
M 3481 434 
Q 3481 -459 3084 -895 
Q 2688 -1331 1869 -1331 
Q 1566 -1331 1297 -1286 
Q 1028 -1241 775 -1147 
L 775 -588 
Q 1028 -725 1275 -790 
Q 1522 -856 1778 -856 
Q 2344 -856 2625 -561 
Q 2906 -266 2906 331 
L 2906 616 
Q 2728 306 2450 153 
Q 2172 0 1784 0 
Q 1141 0 747 490 
Q 353 981 353 1791 
Q 353 2603 747 3093 
Q 1141 3584 1784 3584 
Q 2172 3584 2450 3431 
Q 2728 3278 2906 2969 
L 2906 3500 
L 3481 3500 
L 3481 434 
z
" transform="scale(0.015625)"/>
       <path id="DejaVuSans-74" d="M 1172 4494 
L 1172 3500 
L 2356 3500 
L 2356 3053 
L 1172 3053 
L 1172 1153 
Q 1172 725 1289 603 
Q 1406 481 1766 481 
L 2356 481 
L 2356 0 
L 1766 0 
Q 1100 0 847 248 
Q 594 497 594 1153 
L 594 3053 
L 172 3053 
L 172 3500 
L 594 3500 
L 594 4494 
L 1172 4494 
z
" transform="scale(0.015625)"/>
       <path id="DejaVuSans-69" d="M 603 3500 
L 1178 3500 
L 1178 0 
L 603 0 
L 603 3500 
z
M 603 4863 
L 1178 4863 
L 1178 4134 
L 603 4134 
L 603 4863 
z
" transform="scale(0.015625)"/>
       <path id="DejaVuSans-6e" d="M 3513 2113 
L 3513 0 
L 2938 0 
L 2938 2094 
Q 2938 2591 2744 2837 
Q 2550 3084 2163 3084 
Q 1697 3084 1428 2787 
Q 1159 2491 1159 1978 
L 1159 0 
L 581 0 
L 581 3500 
L 1159 3500 
L 1159 2956 
Q 1366 3272 1645 3428 
Q 1925 3584 2291 3584 
Q 2894 3584 3203 3211 
Q 3513 2838 3513 2113 
z
" transform="scale(0.015625)"/>
       <path id="DejaVuSans-20" transform="scale(0.015625)"/>
       <path id="DejaVuSans-64" d="M 2906 2969 
L 2906 4863 
L 3481 4863 
L 3481 0 
L 2906 0 
L 2906 525 
Q 2725 213 2448 61 
Q 2172 -91 1784 -91 
Q 1150 -91 751 415 
Q 353 922 353 1747 
Q 353 2572 751 3078 
Q 1150 3584 1784 3584 
Q 2172 3584 2448 3432 
Q 2725 3281 2906 2969 
z
M 947 1747 
Q 947 1113 1208 752 
Q 1469 391 1925 391 
Q 2381 391 2643 752 
Q 2906 1113 2906 1747 
Q 2906 2381 2643 2742 
Q 2381 3103 1925 3103 
Q 1469 3103 1208 2742 
Q 947 2381 947 1747 
z
" transform="scale(0.015625)"/>
       <path id="DejaVuSans-65" d="M 3597 1894 
L 3597 1613 
L 953 1613 
Q 991 1019 1311 708 
Q 1631 397 2203 397 
Q 2534 397 2845 478 
Q 3156 559 3463 722 
L 3463 178 
Q 3153 47 2828 -22 
Q 2503 -91 2169 -91 
Q 1331 -91 842 396 
Q 353 884 353 1716 
Q 353 2575 817 3079 
Q 1281 3584 2069 3584 
Q 2775 3584 3186 3129 
Q 3597 2675 3597 1894 
z
M 3022 2063 
Q 3016 2534 2758 2815 
Q 2500 3097 2075 3097 
Q 1594 3097 1305 2825 
Q 1016 2553 972 2059 
L 3022 2063 
z
" transform="scale(0.015625)"/>
       <path id="DejaVuSans-63" d="M 3122 3366 
L 3122 2828 
Q 2878 2963 2633 3030 
Q 2388 3097 2138 3097 
Q 1578 3097 1268 2742 
Q 959 2388 959 1747 
Q 959 1106 1268 751 
Q 1578 397 2138 397 
Q 2388 397 2633 464 
Q 2878 531 3122 666 
L 3122 134 
Q 2881 22 2623 -34 
Q 2366 -91 2075 -91 
Q 1284 -91 818 406 
Q 353 903 353 1747 
Q 353 2603 823 3093 
Q 1294 3584 2113 3584 
Q 2378 3584 2631 3529 
Q 2884 3475 3122 3366 
z
" transform="scale(0.015625)"/>
      </defs>
      <use xlink:href="#DejaVuSans-50"/>
      <use xlink:href="#DejaVuSans-72" x="58.552734"/>
      <use xlink:href="#DejaVuSans-6f" x="97.416016"/>
      <use xlink:href="#DejaVuSans-70" x="158.597656"/>
      <use xlink:href="#DejaVuSans-61" x="222.074219"/>
      <use xlink:href="#DejaVuSans-67" x="283.353516"/>
      <use xlink:href="#DejaVuSans-61" x="346.830078"/>
      <use xlink:href="#DejaVuSans-74" x="408.109375"/>
      <use xlink:href="#DejaVuSans-69" x="447.318359"/>
      <use xlink:href="#DejaVuSans-6f" x="475.101562"/>
      <use xlink:href="#DejaVuSans-6e" x="536.283203"/>
      <use xlink:href="#DejaVuSans-20" x="599.662109"/>
      <use xlink:href="#DejaVuSans-64" x="631.449219"/>
      <use xlink:href="#DejaVuSans-69" x="694.925781"/>
      <use xlink:href="#DejaVuSans-72" x="722.708984"/>
      <use xlink:href="#DejaVuSans-65" x="761.572266"/>
      <use xlink:href="#DejaVuSans-63" x="823.095703"/>
      <use xlink:href="#DejaVuSans-74" x="878.076172"/>
      <use xlink:href="#DejaVuSans-69" x="917.285156"/>
      <use xlink:href="#DejaVuSans-6f" x="945.068359"/>
      <use xlink:href="#DejaVuSans-6e" x="1006.25"/>
     </g>
    </g>
   </g>
   <g id="matplotlib.axis_2">
    <g id="ytick_1">
     <g id="line2d_7">
      <defs>
       <path id="m00585242ee" d="M 0 0 
L -3.5 0 
" style="stroke: #000000; stroke-width: 0.8"/>
      </defs>
      <g>
       <use xlink:href="#m00585242ee" x="50.14375" y="273.312" style="stroke: #000000; stroke-width: 0.8"/>
      </g>
     </g>
     <g id="text_8">
      <!-- 0.00 -->
      <g transform="translate(20.878125 277.111219)scale(0.1 -0.1)">
       <use xlink:href="#DejaVuSans-30"/>
       <use xlink:href="#DejaVuSans-2e" x="63.623047"/>
       <use xlink:href="#DejaVuSans-30" x="95.410156"/>
       <use xlink:href="#DejaVuSans-30" x="159.033203"/>
      </g>
     </g>
    </g>
    <g id="ytick_2">
     <g id="line2d_8">
      <g>
       <use xlink:href="#m00585242ee" x="50.14375" y="243.394594" style="stroke: #000000; stroke-width: 0.8"/>
      </g>
     </g>
     <g id="text_9">
      <!-- 0.25 -->
      <g transform="translate(20.878125 247.193813)scale(0.1 -0.1)">
       <defs>
        <path id="DejaVuSans-35" d="M 691 4666 
L 3169 4666 
L 3169 4134 
L 1269 4134 
L 1269 2991 
Q 1406 3038 1543 3061 
Q 1681 3084 1819 3084 
Q 2600 3084 3056 2656 
Q 3513 2228 3513 1497 
Q 3513 744 3044 326 
Q 2575 -91 1722 -91 
Q 1428 -91 1123 -41 
Q 819 9 494 109 
L 494 744 
Q 775 591 1075 516 
Q 1375 441 1709 441 
Q 2250 441 2565 725 
Q 2881 1009 2881 1497 
Q 2881 1984 2565 2268 
Q 2250 2553 1709 2553 
Q 1456 2553 1204 2497 
Q 953 2441 691 2322 
L 691 4666 
z
" transform="scale(0.015625)"/>
       </defs>
       <use xlink:href="#DejaVuSans-30"/>
       <use xlink:href="#DejaVuSans-2e" x="63.623047"/>
       <use xlink:href="#DejaVuSans-32" x="95.410156"/>
       <use xlink:href="#DejaVuSans-35" x="159.033203"/>
      </g>
     </g>
    </g>
    <g id="ytick_3">
     <g id="line2d_9">
      <g>
       <use xlink:href="#m00585242ee" x="50.14375" y="213.477188" style="stroke: #000000; stroke-width: 0.8"/>
      </g>
     </g>
     <g id="text_10">
      <!-- 0.50 -->
      <g transform="translate(20.878125 217.276407)scale(0.1 -0.1)">
       <use xlink:href="#DejaVuSans-30"/>
       <use xlink:href="#DejaVuSans-2e" x="63.623047"/>
       <use xlink:href="#DejaVuSans-35" x="95.410156"/>
       <use xlink:href="#DejaVuSans-30" x="159.033203"/>
      </g>
     </g>
    </g>
    <g id="ytick_4">
     <g id="line2d_10">
      <g>
       <use xlink:href="#m00585242ee" x="50.14375" y="183.559782" style="stroke: #000000; stroke-width: 0.8"/>
      </g>
     </g>
     <g id="text_11">
      <!-- 0.75 -->
      <g transform="translate(20.878125 187.359001)scale(0.1 -0.1)">
       <defs>
        <path id="DejaVuSans-37" d="M 525 4666 
L 3525 4666 
L 3525 4397 
L 1831 0 
L 1172 0 
L 2766 4134 
L 525 4134 
L 525 4666 
z
" transform="scale(0.015625)"/>
       </defs>
       <use xlink:href="#DejaVuSans-30"/>
       <use xlink:href="#DejaVuSans-2e" x="63.623047"/>
       <use xlink:href="#DejaVuSans-37" x="95.410156"/>
       <use xlink:href="#DejaVuSans-35" x="159.033203"/>
      </g>
     </g>
    </g>
    <g id="ytick_5">
     <g id="line2d_11">
      <g>
       <use xlink:href="#m00585242ee" x="50.14375" y="153.642376" style="stroke: #000000; stroke-width: 0.8"/>
      </g>
     </g>
     <g id="text_12">
      <!-- 1.00 -->
      <g transform="translate(20.878125 157.441595)scale(0.1 -0.1)">
       <use xlink:href="#DejaVuSans-31"/>
       <use xlink:href="#DejaVuSans-2e" x="63.623047"/>
       <use xlink:href="#DejaVuSans-30" x="95.410156"/>
       <use xlink:href="#DejaVuSans-30" x="159.033203"/>
      </g>
     </g>
    </g>
    <g id="ytick_6">
     <g id="line2d_12">
      <g>
       <use xlink:href="#m00585242ee" x="50.14375" y="123.72497" style="stroke: #000000; stroke-width: 0.8"/>
      </g>
     </g>
     <g id="text_13">
      <!-- 1.25 -->
      <g transform="translate(20.878125 127.524189)scale(0.1 -0.1)">
       <use xlink:href="#DejaVuSans-31"/>
       <use xlink:href="#DejaVuSans-2e" x="63.623047"/>
       <use xlink:href="#DejaVuSans-32" x="95.410156"/>
       <use xlink:href="#DejaVuSans-35" x="159.033203"/>
      </g>
     </g>
    </g>
    <g id="ytick_7">
     <g id="line2d_13">
      <g>
       <use xlink:href="#m00585242ee" x="50.14375" y="93.807564" style="stroke: #000000; stroke-width: 0.8"/>
      </g>
     </g>
     <g id="text_14">
      <!-- 1.50 -->
      <g transform="translate(20.878125 97.606783)scale(0.1 -0.1)">
       <use xlink:href="#DejaVuSans-31"/>
       <use xlink:href="#DejaVuSans-2e" x="63.623047"/>
       <use xlink:href="#DejaVuSans-35" x="95.410156"/>
       <use xlink:href="#DejaVuSans-30" x="159.033203"/>
      </g>
     </g>
    </g>
    <g id="ytick_8">
     <g id="line2d_14">
      <g>
       <use xlink:href="#m00585242ee" x="50.14375" y="63.890159" style="stroke: #000000; stroke-width: 0.8"/>
      </g>
     </g>
     <g id="text_15">
      <!-- 1.75 -->
      <g transform="translate(20.878125 67.689377)scale(0.1 -0.1)">
       <use xlink:href="#DejaVuSans-31"/>
       <use xlink:href="#DejaVuSans-2e" x="63.623047"/>
       <use xlink:href="#DejaVuSans-37" x="95.410156"/>
       <use xlink:href="#DejaVuSans-35" x="159.033203"/>
      </g>
     </g>
    </g>
    <g id="ytick_9">
     <g id="line2d_15">
      <g>
       <use xlink:href="#m00585242ee" x="50.14375" y="33.972753" style="stroke: #000000; stroke-width: 0.8"/>
      </g>
     </g>
     <g id="text_16">
      <!-- 2.00 -->
      <g transform="translate(20.878125 37.771971)scale(0.1 -0.1)">
       <use xlink:href="#DejaVuSans-32"/>
       <use xlink:href="#DejaVuSans-2e" x="63.623047"/>
       <use xlink:href="#DejaVuSans-30" x="95.410156"/>
       <use xlink:href="#DejaVuSans-30" x="159.033203"/>
      </g>
     </g>
    </g>
    <g id="text_17">
     <!-- Probability density -->
     <g transform="translate(14.798438 186.606781)rotate(-90)scale(0.1 -0.1)">
      <defs>
       <path id="DejaVuSans-62" d="M 3116 1747 
Q 3116 2381 2855 2742 
Q 2594 3103 2138 3103 
Q 1681 3103 1420 2742 
Q 1159 2381 1159 1747 
Q 1159 1113 1420 752 
Q 1681 391 2138 391 
Q 2594 391 2855 752 
Q 3116 1113 3116 1747 
z
M 1159 2969 
Q 1341 3281 1617 3432 
Q 1894 3584 2278 3584 
Q 2916 3584 3314 3078 
Q 3713 2572 3713 1747 
Q 3713 922 3314 415 
Q 2916 -91 2278 -91 
Q 1894 -91 1617 61 
Q 1341 213 1159 525 
L 1159 0 
L 581 0 
L 581 4863 
L 1159 4863 
L 1159 2969 
z
" transform="scale(0.015625)"/>
       <path id="DejaVuSans-6c" d="M 603 4863 
L 1178 4863 
L 1178 0 
L 603 0 
L 603 4863 
z
" transform="scale(0.015625)"/>
       <path id="DejaVuSans-79" d="M 2059 -325 
Q 1816 -950 1584 -1140 
Q 1353 -1331 966 -1331 
L 506 -1331 
L 506 -850 
L 844 -850 
Q 1081 -850 1212 -737 
Q 1344 -625 1503 -206 
L 1606 56 
L 191 3500 
L 800 3500 
L 1894 763 
L 2988 3500 
L 3597 3500 
L 2059 -325 
z
" transform="scale(0.015625)"/>
       <path id="DejaVuSans-73" d="M 2834 3397 
L 2834 2853 
Q 2591 2978 2328 3040 
Q 2066 3103 1784 3103 
Q 1356 3103 1142 2972 
Q 928 2841 928 2578 
Q 928 2378 1081 2264 
Q 1234 2150 1697 2047 
L 1894 2003 
Q 2506 1872 2764 1633 
Q 3022 1394 3022 966 
Q 3022 478 2636 193 
Q 2250 -91 1575 -91 
Q 1294 -91 989 -36 
Q 684 19 347 128 
L 347 722 
Q 666 556 975 473 
Q 1284 391 1588 391 
Q 1994 391 2212 530 
Q 2431 669 2431 922 
Q 2431 1156 2273 1281 
Q 2116 1406 1581 1522 
L 1381 1569 
Q 847 1681 609 1914 
Q 372 2147 372 2553 
Q 372 3047 722 3315 
Q 1072 3584 1716 3584 
Q 2034 3584 2315 3537 
Q 2597 3491 2834 3397 
z
" transform="scale(0.015625)"/>
      </defs>
      <use xlink:href="#DejaVuSans-50"/>
      <use xlink:href="#DejaVuSans-72" x="58.552734"/>
      <use xlink:href="#DejaVuSans-6f" x="97.416016"/>
      <use xlink:href="#DejaVuSans-62" x="158.597656"/>
      <use xlink:href="#DejaVuSans-61" x="222.074219"/>
      <use xlink:href="#DejaVuSans-62" x="283.353516"/>
      <use xlink:href="#DejaVuSans-69" x="346.830078"/>
      <use xlink:href="#DejaVuSans-6c" x="374.613281"/>
      <use xlink:href="#DejaVuSans-69" x="402.396484"/>
      <use xlink:href="#DejaVuSans-74" x="430.179688"/>
      <use xlink:href="#DejaVuSans-79" x="469.388672"/>
      <use xlink:href="#DejaVuSans-20" x="528.568359"/>
      <use xlink:href="#DejaVuSans-64" x="560.355469"/>
      <use xlink:href="#DejaVuSans-65" x="623.832031"/>
      <use xlink:href="#DejaVuSans-6e" x="685.355469"/>
      <use xlink:href="#DejaVuSans-73" x="748.734375"/>
      <use xlink:href="#DejaVuSans-69" x="800.833984"/>
      <use xlink:href="#DejaVuSans-74" x="828.617188"/>
      <use xlink:href="#DejaVuSans-79" x="867.826172"/>
     </g>
    </g>
   </g>
   <g id="line2d_16">
    <path d="M 66.376477 273.312 
L 391.031023 33.972753 
L 391.031023 33.972753 
" clip-path="url(#p6fb6df10ba)" style="fill: none; stroke: #ff7f0e; stroke-width: 1.5; stroke-linecap: square"/>
   </g>
   <g id="patch_203">
    <path d="M 50.14375 273.312 
L 50.14375 7.2 
" style="fill: none; stroke: #000000; stroke-width: 0.8; stroke-linejoin: miter; stroke-linecap: square"/>
   </g>
   <g id="patch_204">
    <path d="M 407.26375 273.312 
L 407.26375 7.2 
" style="fill: none; stroke: #000000; stroke-width: 0.8; stroke-linejoin: miter; stroke-linecap: square"/>
   </g>
   <g id="patch_205">
    <path d="M 50.14375 273.312 
L 407.26375 273.312 
" style="fill: none; stroke: #000000; stroke-width: 0.8; stroke-linejoin: miter; stroke-linecap: square"/>
   </g>
   <g id="patch_206">
    <path d="M 50.14375 7.2 
L 407.26375 7.2 
" style="fill: none; stroke: #000000; stroke-width: 0.8; stroke-linejoin: miter; stroke-linecap: square"/>
   </g>
  </g>
 </g>
 <defs>
  <clipPath id="p6fb6df10ba">
   <rect x="50.14375" y="7.2" width="357.12" height="266.112"/>
  </clipPath>
 </defs>
</svg>
