<?xml version="1.0" encoding="utf-8" standalone="no"?>
<!DOCTYPE svg PUBLIC "-//W3C//DTD SVG 1.1//EN"
  "http://www.w3.org/Graphics/SVG/1.1/DTD/svg11.dtd">
<svg xmlns:xlink="http://www.w3.org/1999/xlink" width="385.78125pt" height="262.19625pt" viewBox="0 0 385.78125 262.19625" xmlns="http://www.w3.org/2000/svg" version="1.1">
 <metadata>
  <rdf:RDF xmlns:dc="http://purl.org/dc/elements/1.1/" xmlns:cc="http://creativecommons.org/ns#" xmlns:rdf="http://www.w3.org/1999/02/22-rdf-syntax-ns#">
   <cc:Work>
    <dc:type rdf:resource="http://purl.org/dc/dcmitype/StillImage"/>
    <dc:date>2022-07-11T20:42:06.593621</dc:date>
    <dc:format>image/svg+xml</dc:format>
    <dc:creator>
     <cc:Agent>
      <dc:title>Matplotlib v3.5.2, https://matplotlib.org/</dc:title>
     </cc:Agent>
    </dc:creator>
   </cc:Work>
  </rdf:RDF>
 </metadata>
 <defs>
  <style type="text/css">*{stroke-linejoin: round; stroke-linecap: butt}</style>
 </defs>
 <g id="figure_1">
  <g id="patch_1">
   <path d="M 0 262.19625 
L 385.78125 262.19625 
L 385.78125 0 
L 0 0 
L 0 262.19625 
z
" style="fill: none"/>
  </g>
  <g id="axes_1">
   <g id="patch_2">
    <path d="M 43.78125 224.64 
L 378.58125 224.64 
L 378.58125 7.2 
L 43.78125 7.2 
z
" style="fill: #ffffff"/>
   </g>
   <g id="patch_3">
    <path d="M 59.780431 224.64 
L 61.29576 224.64 
L 61.29576 221.647432 
L 59.780431 221.647432 
z
" clip-path="url(#pf598aab9ae)" style="fill: #1f77b4"/>
   </g>
   <g id="patch_4">
    <path d="M 61.29576 224.64 
L 62.811089 224.64 
L 62.811089 216.859323 
L 61.29576 216.859323 
z
" clip-path="url(#pf598aab9ae)" style="fill: #1f77b4"/>
   </g>
   <g id="patch_5">
    <path d="M 62.811089 224.64 
L 64.326418 224.64 
L 64.326418 218.05635 
L 62.811089 218.05635 
z
" clip-path="url(#pf598aab9ae)" style="fill: #1f77b4"/>
   </g>
   <g id="patch_6">
    <path d="M 64.326418 224.64 
L 65.841747 224.64 
L 65.841747 211.4727 
L 64.326418 211.4727 
z
" clip-path="url(#pf598aab9ae)" style="fill: #1f77b4"/>
   </g>
   <g id="patch_7">
    <path d="M 65.841747 224.64 
L 67.357076 224.64 
L 67.357076 212.071214 
L 65.841747 212.071214 
z
" clip-path="url(#pf598aab9ae)" style="fill: #1f77b4"/>
   </g>
   <g id="patch_8">
    <path d="M 67.357076 224.64 
L 68.872405 224.64 
L 68.872405 204.290537 
L 67.357076 204.290537 
z
" clip-path="url(#pf598aab9ae)" style="fill: #1f77b4"/>
   </g>
   <g id="patch_9">
    <path d="M 68.872405 224.64 
L 70.387734 224.64 
L 70.387734 207.881618 
L 68.872405 207.881618 
z
" clip-path="url(#pf598aab9ae)" style="fill: #1f77b4"/>
   </g>
   <g id="patch_10">
    <path d="M 70.387734 224.64 
L 71.903063 224.64 
L 71.903063 196.50986 
L 70.387734 196.50986 
z
" clip-path="url(#pf598aab9ae)" style="fill: #1f77b4"/>
   </g>
   <g id="patch_11">
    <path d="M 71.903063 224.64 
L 73.418392 224.64 
L 73.418392 197.108373 
L 71.903063 197.108373 
z
" clip-path="url(#pf598aab9ae)" style="fill: #1f77b4"/>
   </g>
   <g id="patch_12">
    <path d="M 73.418392 224.64 
L 74.933721 224.64 
L 74.933721 200.699455 
L 73.418392 200.699455 
z
" clip-path="url(#pf598aab9ae)" style="fill: #1f77b4"/>
   </g>
   <g id="patch_13">
    <path d="M 74.933721 224.64 
L 76.44905 224.64 
L 76.44905 201.297969 
L 74.933721 201.297969 
z
" clip-path="url(#pf598aab9ae)" style="fill: #1f77b4"/>
   </g>
   <g id="patch_14">
    <path d="M 76.44905 224.64 
L 77.964379 224.64 
L 77.964379 188.729182 
L 76.44905 188.729182 
z
" clip-path="url(#pf598aab9ae)" style="fill: #1f77b4"/>
   </g>
   <g id="patch_15">
    <path d="M 77.964379 224.64 
L 79.479708 224.64 
L 79.479708 189.327696 
L 77.964379 189.327696 
z
" clip-path="url(#pf598aab9ae)" style="fill: #1f77b4"/>
   </g>
   <g id="patch_16">
    <path d="M 79.479708 224.64 
L 80.995037 224.64 
L 80.995037 181.547019 
L 79.479708 181.547019 
z
" clip-path="url(#pf598aab9ae)" style="fill: #1f77b4"/>
   </g>
   <g id="patch_17">
    <path d="M 80.995037 224.64 
L 82.510366 224.64 
L 82.510366 175.561883 
L 80.995037 175.561883 
z
" clip-path="url(#pf598aab9ae)" style="fill: #1f77b4"/>
   </g>
   <g id="patch_18">
    <path d="M 82.510366 224.64 
L 84.025695 224.64 
L 84.025695 176.75891 
L 82.510366 176.75891 
z
" clip-path="url(#pf598aab9ae)" style="fill: #1f77b4"/>
   </g>
   <g id="patch_19">
    <path d="M 84.025695 224.64 
L 85.541024 224.64 
L 85.541024 170.17526 
L 84.025695 170.17526 
z
" clip-path="url(#pf598aab9ae)" style="fill: #1f77b4"/>
   </g>
   <g id="patch_20">
    <path d="M 85.541024 224.64 
L 87.056352 224.64 
L 87.056352 158.803501 
L 85.541024 158.803501 
z
" clip-path="url(#pf598aab9ae)" style="fill: #1f77b4"/>
   </g>
   <g id="patch_21">
    <path d="M 87.056352 224.64 
L 88.571681 224.64 
L 88.571681 168.379719 
L 87.056352 168.379719 
z
" clip-path="url(#pf598aab9ae)" style="fill: #1f77b4"/>
   </g>
   <g id="patch_22">
    <path d="M 88.571681 224.64 
L 90.08701 224.64 
L 90.08701 164.788637 
L 88.571681 164.788637 
z
" clip-path="url(#pf598aab9ae)" style="fill: #1f77b4"/>
   </g>
   <g id="patch_23">
    <path d="M 90.08701 224.64 
L 91.602339 224.64 
L 91.602339 156.409447 
L 90.08701 156.409447 
z
" clip-path="url(#pf598aab9ae)" style="fill: #1f77b4"/>
   </g>
   <g id="patch_24">
    <path d="M 91.602339 224.64 
L 93.117668 224.64 
L 93.117668 170.17526 
L 91.602339 170.17526 
z
" clip-path="url(#pf598aab9ae)" style="fill: #1f77b4"/>
   </g>
   <g id="patch_25">
    <path d="M 93.117668 224.64 
L 94.632997 224.64 
L 94.632997 159.402015 
L 93.117668 159.402015 
z
" clip-path="url(#pf598aab9ae)" style="fill: #1f77b4"/>
   </g>
   <g id="patch_26">
    <path d="M 94.632997 224.64 
L 96.148326 224.64 
L 96.148326 163.59161 
L 94.632997 163.59161 
z
" clip-path="url(#pf598aab9ae)" style="fill: #1f77b4"/>
   </g>
   <g id="patch_27">
    <path d="M 96.148326 224.64 
L 97.663655 224.64 
L 97.663655 153.416879 
L 96.148326 153.416879 
z
" clip-path="url(#pf598aab9ae)" style="fill: #1f77b4"/>
   </g>
   <g id="patch_28">
    <path d="M 97.663655 224.64 
L 99.178984 224.64 
L 99.178984 159.402015 
L 97.663655 159.402015 
z
" clip-path="url(#pf598aab9ae)" style="fill: #1f77b4"/>
   </g>
   <g id="patch_29">
    <path d="M 99.178984 224.64 
L 100.694313 224.64 
L 100.694313 148.62877 
L 99.178984 148.62877 
z
" clip-path="url(#pf598aab9ae)" style="fill: #1f77b4"/>
   </g>
   <g id="patch_30">
    <path d="M 100.694313 224.64 
L 102.209642 224.64 
L 102.209642 143.242147 
L 100.694313 143.242147 
z
" clip-path="url(#pf598aab9ae)" style="fill: #1f77b4"/>
   </g>
   <g id="patch_31">
    <path d="M 102.209642 224.64 
L 103.724971 224.64 
L 103.724971 143.242147 
L 102.209642 143.242147 
z
" clip-path="url(#pf598aab9ae)" style="fill: #1f77b4"/>
   </g>
   <g id="patch_32">
    <path d="M 103.724971 224.64 
L 105.2403 224.64 
L 105.2403 134.264443 
L 103.724971 134.264443 
z
" clip-path="url(#pf598aab9ae)" style="fill: #1f77b4"/>
   </g>
   <g id="patch_33">
    <path d="M 105.2403 224.64 
L 106.755629 224.64 
L 106.755629 145.636201 
L 105.2403 145.636201 
z
" clip-path="url(#pf598aab9ae)" style="fill: #1f77b4"/>
   </g>
   <g id="patch_34">
    <path d="M 106.755629 224.64 
L 108.270958 224.64 
L 108.270958 134.862956 
L 106.755629 134.862956 
z
" clip-path="url(#pf598aab9ae)" style="fill: #1f77b4"/>
   </g>
   <g id="patch_35">
    <path d="M 108.270958 224.64 
L 109.786287 224.64 
L 109.786287 133.665929 
L 108.270958 133.665929 
z
" clip-path="url(#pf598aab9ae)" style="fill: #1f77b4"/>
   </g>
   <g id="patch_36">
    <path d="M 109.786287 224.64 
L 111.301616 224.64 
L 111.301616 107.929843 
L 109.786287 107.929843 
z
" clip-path="url(#pf598aab9ae)" style="fill: #1f77b4"/>
   </g>
   <g id="patch_37">
    <path d="M 111.301616 224.64 
L 112.816945 224.64 
L 112.816945 124.688225 
L 111.301616 124.688225 
z
" clip-path="url(#pf598aab9ae)" style="fill: #1f77b4"/>
   </g>
   <g id="patch_38">
    <path d="M 112.816945 224.64 
L 114.332274 224.64 
L 114.332274 130.673361 
L 112.816945 130.673361 
z
" clip-path="url(#pf598aab9ae)" style="fill: #1f77b4"/>
   </g>
   <g id="patch_39">
    <path d="M 114.332274 224.64 
L 115.847603 224.64 
L 115.847603 130.074847 
L 114.332274 130.074847 
z
" clip-path="url(#pf598aab9ae)" style="fill: #1f77b4"/>
   </g>
   <g id="patch_40">
    <path d="M 115.847603 224.64 
L 117.362932 224.64 
L 117.362932 107.929843 
L 115.847603 107.929843 
z
" clip-path="url(#pf598aab9ae)" style="fill: #1f77b4"/>
   </g>
   <g id="patch_41">
    <path d="M 117.362932 224.64 
L 118.878261 224.64 
L 118.878261 112.717952 
L 117.362932 112.717952 
z
" clip-path="url(#pf598aab9ae)" style="fill: #1f77b4"/>
   </g>
   <g id="patch_42">
    <path d="M 118.878261 224.64 
L 120.39359 224.64 
L 120.39359 122.29417 
L 118.878261 122.29417 
z
" clip-path="url(#pf598aab9ae)" style="fill: #1f77b4"/>
   </g>
   <g id="patch_43">
    <path d="M 120.39359 224.64 
L 121.908919 224.64 
L 121.908919 119.301602 
L 120.39359 119.301602 
z
" clip-path="url(#pf598aab9ae)" style="fill: #1f77b4"/>
   </g>
   <g id="patch_44">
    <path d="M 121.908919 224.64 
L 123.424247 224.64 
L 123.424247 116.907547 
L 121.908919 116.907547 
z
" clip-path="url(#pf598aab9ae)" style="fill: #1f77b4"/>
   </g>
   <g id="patch_45">
    <path d="M 123.424247 224.64 
L 124.939576 224.64 
L 124.939576 119.301602 
L 123.424247 119.301602 
z
" clip-path="url(#pf598aab9ae)" style="fill: #1f77b4"/>
   </g>
   <g id="patch_46">
    <path d="M 124.939576 224.64 
L 126.454905 224.64 
L 126.454905 122.29417 
L 124.939576 122.29417 
z
" clip-path="url(#pf598aab9ae)" style="fill: #1f77b4"/>
   </g>
   <g id="patch_47">
    <path d="M 126.454905 224.64 
L 127.970234 224.64 
L 127.970234 103.740248 
L 126.454905 103.740248 
z
" clip-path="url(#pf598aab9ae)" style="fill: #1f77b4"/>
   </g>
   <g id="patch_48">
    <path d="M 127.970234 224.64 
L 129.485563 224.64 
L 129.485563 110.922411 
L 127.970234 110.922411 
z
" clip-path="url(#pf598aab9ae)" style="fill: #1f77b4"/>
   </g>
   <g id="patch_49">
    <path d="M 129.485563 224.64 
L 131.000892 224.64 
L 131.000892 85.186325 
L 129.485563 85.186325 
z
" clip-path="url(#pf598aab9ae)" style="fill: #1f77b4"/>
   </g>
   <g id="patch_50">
    <path d="M 131.000892 224.64 
L 132.516221 224.64 
L 132.516221 89.974434 
L 131.000892 89.974434 
z
" clip-path="url(#pf598aab9ae)" style="fill: #1f77b4"/>
   </g>
   <g id="patch_51">
    <path d="M 132.516221 224.64 
L 134.03155 224.64 
L 134.03155 94.762543 
L 132.516221 94.762543 
z
" clip-path="url(#pf598aab9ae)" style="fill: #1f77b4"/>
   </g>
   <g id="patch_52">
    <path d="M 134.03155 224.64 
L 135.546879 224.64 
L 135.546879 86.981866 
L 134.03155 86.981866 
z
" clip-path="url(#pf598aab9ae)" style="fill: #1f77b4"/>
   </g>
   <g id="patch_53">
    <path d="M 135.546879 224.64 
L 137.062208 224.64 
L 137.062208 76.208621 
L 135.546879 76.208621 
z
" clip-path="url(#pf598aab9ae)" style="fill: #1f77b4"/>
   </g>
   <g id="patch_54">
    <path d="M 137.062208 224.64 
L 138.577537 224.64 
L 138.577537 87.58038 
L 137.062208 87.58038 
z
" clip-path="url(#pf598aab9ae)" style="fill: #1f77b4"/>
   </g>
   <g id="patch_55">
    <path d="M 138.577537 224.64 
L 140.092866 224.64 
L 140.092866 89.375921 
L 138.577537 89.375921 
z
" clip-path="url(#pf598aab9ae)" style="fill: #1f77b4"/>
   </g>
   <g id="patch_56">
    <path d="M 140.092866 224.64 
L 141.608195 224.64 
L 141.608195 88.178893 
L 140.092866 88.178893 
z
" clip-path="url(#pf598aab9ae)" style="fill: #1f77b4"/>
   </g>
   <g id="patch_57">
    <path d="M 141.608195 224.64 
L 143.123524 224.64 
L 143.123524 86.981866 
L 141.608195 86.981866 
z
" clip-path="url(#pf598aab9ae)" style="fill: #1f77b4"/>
   </g>
   <g id="patch_58">
    <path d="M 143.123524 224.64 
L 144.638853 224.64 
L 144.638853 80.398216 
L 143.123524 80.398216 
z
" clip-path="url(#pf598aab9ae)" style="fill: #1f77b4"/>
   </g>
   <g id="patch_59">
    <path d="M 144.638853 224.64 
L 146.154182 224.64 
L 146.154182 80.99673 
L 144.638853 80.99673 
z
" clip-path="url(#pf598aab9ae)" style="fill: #1f77b4"/>
   </g>
   <g id="patch_60">
    <path d="M 146.154182 224.64 
L 147.669511 224.64 
L 147.669511 75.610107 
L 146.154182 75.610107 
z
" clip-path="url(#pf598aab9ae)" style="fill: #1f77b4"/>
   </g>
   <g id="patch_61">
    <path d="M 147.669511 224.64 
L 149.18484 224.64 
L 149.18484 58.851726 
L 147.669511 58.851726 
z
" clip-path="url(#pf598aab9ae)" style="fill: #1f77b4"/>
   </g>
   <g id="patch_62">
    <path d="M 149.18484 224.64 
L 150.700169 224.64 
L 150.700169 61.24578 
L 149.18484 61.24578 
z
" clip-path="url(#pf598aab9ae)" style="fill: #1f77b4"/>
   </g>
   <g id="patch_63">
    <path d="M 150.700169 224.64 
L 152.215498 224.64 
L 152.215498 82.792271 
L 150.700169 82.792271 
z
" clip-path="url(#pf598aab9ae)" style="fill: #1f77b4"/>
   </g>
   <g id="patch_64">
    <path d="M 152.215498 224.64 
L 153.730827 224.64 
L 153.730827 64.836862 
L 152.215498 64.836862 
z
" clip-path="url(#pf598aab9ae)" style="fill: #1f77b4"/>
   </g>
   <g id="patch_65">
    <path d="M 153.730827 224.64 
L 155.246156 224.64 
L 155.246156 70.223485 
L 153.730827 70.223485 
z
" clip-path="url(#pf598aab9ae)" style="fill: #1f77b4"/>
   </g>
   <g id="patch_66">
    <path d="M 155.246156 224.64 
L 156.761485 224.64 
L 156.761485 68.427944 
L 155.246156 68.427944 
z
" clip-path="url(#pf598aab9ae)" style="fill: #1f77b4"/>
   </g>
   <g id="patch_67">
    <path d="M 156.761485 224.64 
L 158.276814 224.64 
L 158.276814 66.033889 
L 156.761485 66.033889 
z
" clip-path="url(#pf598aab9ae)" style="fill: #1f77b4"/>
   </g>
   <g id="patch_68">
    <path d="M 158.276814 224.64 
L 159.792142 224.64 
L 159.792142 49.874021 
L 158.276814 49.874021 
z
" clip-path="url(#pf598aab9ae)" style="fill: #1f77b4"/>
   </g>
   <g id="patch_69">
    <path d="M 159.792142 224.64 
L 161.307471 224.64 
L 161.307471 70.821998 
L 159.792142 70.821998 
z
" clip-path="url(#pf598aab9ae)" style="fill: #1f77b4"/>
   </g>
   <g id="patch_70">
    <path d="M 161.307471 224.64 
L 162.8228 224.64 
L 162.8228 60.647267 
L 161.307471 60.647267 
z
" clip-path="url(#pf598aab9ae)" style="fill: #1f77b4"/>
   </g>
   <g id="patch_71">
    <path d="M 162.8228 224.64 
L 164.338129 224.64 
L 164.338129 39.69929 
L 162.8228 39.69929 
z
" clip-path="url(#pf598aab9ae)" style="fill: #1f77b4"/>
   </g>
   <g id="patch_72">
    <path d="M 164.338129 224.64 
L 165.853458 224.64 
L 165.853458 55.859158 
L 164.338129 55.859158 
z
" clip-path="url(#pf598aab9ae)" style="fill: #1f77b4"/>
   </g>
   <g id="patch_73">
    <path d="M 165.853458 224.64 
L 167.368787 224.64 
L 167.368787 45.085912 
L 165.853458 45.085912 
z
" clip-path="url(#pf598aab9ae)" style="fill: #1f77b4"/>
   </g>
   <g id="patch_74">
    <path d="M 167.368787 224.64 
L 168.884116 224.64 
L 168.884116 57.654699 
L 167.368787 57.654699 
z
" clip-path="url(#pf598aab9ae)" style="fill: #1f77b4"/>
   </g>
   <g id="patch_75">
    <path d="M 168.884116 224.64 
L 170.399445 224.64 
L 170.399445 53.465103 
L 168.884116 53.465103 
z
" clip-path="url(#pf598aab9ae)" style="fill: #1f77b4"/>
   </g>
   <g id="patch_76">
    <path d="M 170.399445 224.64 
L 171.914774 224.64 
L 171.914774 42.691858 
L 170.399445 42.691858 
z
" clip-path="url(#pf598aab9ae)" style="fill: #1f77b4"/>
   </g>
   <g id="patch_77">
    <path d="M 171.914774 224.64 
L 173.430103 224.64 
L 173.430103 45.085912 
L 171.914774 45.085912 
z
" clip-path="url(#pf598aab9ae)" style="fill: #1f77b4"/>
   </g>
   <g id="patch_78">
    <path d="M 173.430103 224.64 
L 174.945432 224.64 
L 174.945432 76.807135 
L 173.430103 76.807135 
z
" clip-path="url(#pf598aab9ae)" style="fill: #1f77b4"/>
   </g>
   <g id="patch_79">
    <path d="M 174.945432 224.64 
L 176.460761 224.64 
L 176.460761 58.851726 
L 174.945432 58.851726 
z
" clip-path="url(#pf598aab9ae)" style="fill: #1f77b4"/>
   </g>
   <g id="patch_80">
    <path d="M 176.460761 224.64 
L 177.97609 224.64 
L 177.97609 48.676994 
L 176.460761 48.676994 
z
" clip-path="url(#pf598aab9ae)" style="fill: #1f77b4"/>
   </g>
   <g id="patch_81">
    <path d="M 177.97609 224.64 
L 179.491419 224.64 
L 179.491419 33.714154 
L 177.97609 33.714154 
z
" clip-path="url(#pf598aab9ae)" style="fill: #1f77b4"/>
   </g>
   <g id="patch_82">
    <path d="M 179.491419 224.64 
L 181.006748 224.64 
L 181.006748 59.450239 
L 179.491419 59.450239 
z
" clip-path="url(#pf598aab9ae)" style="fill: #1f77b4"/>
   </g>
   <g id="patch_83">
    <path d="M 181.006748 224.64 
L 182.522077 224.64 
L 182.522077 30.721585 
L 181.006748 30.721585 
z
" clip-path="url(#pf598aab9ae)" style="fill: #1f77b4"/>
   </g>
   <g id="patch_84">
    <path d="M 182.522077 224.64 
L 184.037406 224.64 
L 184.037406 28.327531 
L 182.522077 28.327531 
z
" clip-path="url(#pf598aab9ae)" style="fill: #1f77b4"/>
   </g>
   <g id="patch_85">
    <path d="M 184.037406 224.64 
L 185.552735 224.64 
L 185.552735 29.524558 
L 184.037406 29.524558 
z
" clip-path="url(#pf598aab9ae)" style="fill: #1f77b4"/>
   </g>
   <g id="patch_86">
    <path d="M 185.552735 224.64 
L 187.068064 224.64 
L 187.068064 19.349827 
L 185.552735 19.349827 
z
" clip-path="url(#pf598aab9ae)" style="fill: #1f77b4"/>
   </g>
   <g id="patch_87">
    <path d="M 187.068064 224.64 
L 188.583393 224.64 
L 188.583393 53.465103 
L 187.068064 53.465103 
z
" clip-path="url(#pf598aab9ae)" style="fill: #1f77b4"/>
   </g>
   <g id="patch_88">
    <path d="M 188.583393 224.64 
L 190.098722 224.64 
L 190.098722 43.290372 
L 188.583393 43.290372 
z
" clip-path="url(#pf598aab9ae)" style="fill: #1f77b4"/>
   </g>
   <g id="patch_89">
    <path d="M 190.098722 224.64 
L 191.614051 224.64 
L 191.614051 57.654699 
L 190.098722 57.654699 
z
" clip-path="url(#pf598aab9ae)" style="fill: #1f77b4"/>
   </g>
   <g id="patch_90">
    <path d="M 191.614051 224.64 
L 193.12938 224.64 
L 193.12938 39.69929 
L 191.614051 39.69929 
z
" clip-path="url(#pf598aab9ae)" style="fill: #1f77b4"/>
   </g>
   <g id="patch_91">
    <path d="M 193.12938 224.64 
L 194.644709 224.64 
L 194.644709 25.933476 
L 193.12938 25.933476 
z
" clip-path="url(#pf598aab9ae)" style="fill: #1f77b4"/>
   </g>
   <g id="patch_92">
    <path d="M 194.644709 224.64 
L 196.160037 224.64 
L 196.160037 40.297803 
L 194.644709 40.297803 
z
" clip-path="url(#pf598aab9ae)" style="fill: #1f77b4"/>
   </g>
   <g id="patch_93">
    <path d="M 196.160037 224.64 
L 197.675366 224.64 
L 197.675366 39.69929 
L 196.160037 39.69929 
z
" clip-path="url(#pf598aab9ae)" style="fill: #1f77b4"/>
   </g>
   <g id="patch_94">
    <path d="M 197.675366 224.64 
L 199.190695 224.64 
L 199.190695 33.714154 
L 197.675366 33.714154 
z
" clip-path="url(#pf598aab9ae)" style="fill: #1f77b4"/>
   </g>
   <g id="patch_95">
    <path d="M 199.190695 224.64 
L 200.706024 224.64 
L 200.706024 40.297803 
L 199.190695 40.297803 
z
" clip-path="url(#pf598aab9ae)" style="fill: #1f77b4"/>
   </g>
   <g id="patch_96">
    <path d="M 200.706024 224.64 
L 202.221353 224.64 
L 202.221353 53.465103 
L 200.706024 53.465103 
z
" clip-path="url(#pf598aab9ae)" style="fill: #1f77b4"/>
   </g>
   <g id="patch_97">
    <path d="M 202.221353 224.64 
L 203.736682 224.64 
L 203.736682 18.152799 
L 202.221353 18.152799 
z
" clip-path="url(#pf598aab9ae)" style="fill: #1f77b4"/>
   </g>
   <g id="patch_98">
    <path d="M 203.736682 224.64 
L 205.252011 224.64 
L 205.252011 33.714154 
L 203.736682 33.714154 
z
" clip-path="url(#pf598aab9ae)" style="fill: #1f77b4"/>
   </g>
   <g id="patch_99">
    <path d="M 205.252011 224.64 
L 206.76734 224.64 
L 206.76734 40.896317 
L 205.252011 40.896317 
z
" clip-path="url(#pf598aab9ae)" style="fill: #1f77b4"/>
   </g>
   <g id="patch_100">
    <path d="M 206.76734 224.64 
L 208.282669 224.64 
L 208.282669 28.327531 
L 206.76734 28.327531 
z
" clip-path="url(#pf598aab9ae)" style="fill: #1f77b4"/>
   </g>
   <g id="patch_101">
    <path d="M 208.282669 224.64 
L 209.797998 224.64 
L 209.797998 51.669562 
L 208.282669 51.669562 
z
" clip-path="url(#pf598aab9ae)" style="fill: #1f77b4"/>
   </g>
   <g id="patch_102">
    <path d="M 209.797998 224.64 
L 211.313327 224.64 
L 211.313327 25.334963 
L 209.797998 25.334963 
z
" clip-path="url(#pf598aab9ae)" style="fill: #1f77b4"/>
   </g>
   <g id="patch_103">
    <path d="M 211.313327 224.64 
L 212.828656 224.64 
L 212.828656 24.736449 
L 211.313327 24.736449 
z
" clip-path="url(#pf598aab9ae)" style="fill: #1f77b4"/>
   </g>
   <g id="patch_104">
    <path d="M 212.828656 224.64 
L 214.343985 224.64 
L 214.343985 26.53199 
L 212.828656 26.53199 
z
" clip-path="url(#pf598aab9ae)" style="fill: #1f77b4"/>
   </g>
   <g id="patch_105">
    <path d="M 214.343985 224.64 
L 215.859314 224.64 
L 215.859314 46.881453 
L 214.343985 46.881453 
z
" clip-path="url(#pf598aab9ae)" style="fill: #1f77b4"/>
   </g>
   <g id="patch_106">
    <path d="M 215.859314 224.64 
L 217.374643 224.64 
L 217.374643 64.836862 
L 215.859314 64.836862 
z
" clip-path="url(#pf598aab9ae)" style="fill: #1f77b4"/>
   </g>
   <g id="patch_107">
    <path d="M 217.374643 224.64 
L 218.889972 224.64 
L 218.889972 59.450239 
L 217.374643 59.450239 
z
" clip-path="url(#pf598aab9ae)" style="fill: #1f77b4"/>
   </g>
   <g id="patch_108">
    <path d="M 218.889972 224.64 
L 220.405301 224.64 
L 220.405301 39.69929 
L 218.889972 39.69929 
z
" clip-path="url(#pf598aab9ae)" style="fill: #1f77b4"/>
   </g>
   <g id="patch_109">
    <path d="M 220.405301 224.64 
L 221.92063 224.64 
L 221.92063 49.874021 
L 220.405301 49.874021 
z
" clip-path="url(#pf598aab9ae)" style="fill: #1f77b4"/>
   </g>
   <g id="patch_110">
    <path d="M 221.92063 224.64 
L 223.435959 224.64 
L 223.435959 17.554286 
L 221.92063 17.554286 
z
" clip-path="url(#pf598aab9ae)" style="fill: #1f77b4"/>
   </g>
   <g id="patch_111">
    <path d="M 223.435959 224.64 
L 224.951288 224.64 
L 224.951288 31.320099 
L 223.435959 31.320099 
z
" clip-path="url(#pf598aab9ae)" style="fill: #1f77b4"/>
   </g>
   <g id="patch_112">
    <path d="M 224.951288 224.64 
L 226.466617 224.64 
L 226.466617 41.494831 
L 224.951288 41.494831 
z
" clip-path="url(#pf598aab9ae)" style="fill: #1f77b4"/>
   </g>
   <g id="patch_113">
    <path d="M 226.466617 224.64 
L 227.981946 224.64 
L 227.981946 37.305235 
L 226.466617 37.305235 
z
" clip-path="url(#pf598aab9ae)" style="fill: #1f77b4"/>
   </g>
   <g id="patch_114">
    <path d="M 227.981946 224.64 
L 229.497275 224.64 
L 229.497275 37.903749 
L 227.981946 37.903749 
z
" clip-path="url(#pf598aab9ae)" style="fill: #1f77b4"/>
   </g>
   <g id="patch_115">
    <path d="M 229.497275 224.64 
L 231.012604 224.64 
L 231.012604 18.152799 
L 229.497275 18.152799 
z
" clip-path="url(#pf598aab9ae)" style="fill: #1f77b4"/>
   </g>
   <g id="patch_116">
    <path d="M 231.012604 224.64 
L 232.527932 224.64 
L 232.527932 57.056185 
L 231.012604 57.056185 
z
" clip-path="url(#pf598aab9ae)" style="fill: #1f77b4"/>
   </g>
   <g id="patch_117">
    <path d="M 232.527932 224.64 
L 234.043261 224.64 
L 234.043261 52.268076 
L 232.527932 52.268076 
z
" clip-path="url(#pf598aab9ae)" style="fill: #1f77b4"/>
   </g>
   <g id="patch_118">
    <path d="M 234.043261 224.64 
L 235.55859 224.64 
L 235.55859 45.684426 
L 234.043261 45.684426 
z
" clip-path="url(#pf598aab9ae)" style="fill: #1f77b4"/>
   </g>
   <g id="patch_119">
    <path d="M 235.55859 224.64 
L 237.073919 224.64 
L 237.073919 45.085912 
L 235.55859 45.085912 
z
" clip-path="url(#pf598aab9ae)" style="fill: #1f77b4"/>
   </g>
   <g id="patch_120">
    <path d="M 237.073919 224.64 
L 238.589248 224.64 
L 238.589248 46.28294 
L 237.073919 46.28294 
z
" clip-path="url(#pf598aab9ae)" style="fill: #1f77b4"/>
   </g>
   <g id="patch_121">
    <path d="M 238.589248 224.64 
L 240.104577 224.64 
L 240.104577 46.881453 
L 238.589248 46.881453 
z
" clip-path="url(#pf598aab9ae)" style="fill: #1f77b4"/>
   </g>
   <g id="patch_122">
    <path d="M 240.104577 224.64 
L 241.619906 224.64 
L 241.619906 30.721585 
L 240.104577 30.721585 
z
" clip-path="url(#pf598aab9ae)" style="fill: #1f77b4"/>
   </g>
   <g id="patch_123">
    <path d="M 241.619906 224.64 
L 243.135235 224.64 
L 243.135235 42.093344 
L 241.619906 42.093344 
z
" clip-path="url(#pf598aab9ae)" style="fill: #1f77b4"/>
   </g>
   <g id="patch_124">
    <path d="M 243.135235 224.64 
L 244.650564 224.64 
L 244.650564 50.472535 
L 243.135235 50.472535 
z
" clip-path="url(#pf598aab9ae)" style="fill: #1f77b4"/>
   </g>
   <g id="patch_125">
    <path d="M 244.650564 224.64 
L 246.165893 224.64 
L 246.165893 37.903749 
L 244.650564 37.903749 
z
" clip-path="url(#pf598aab9ae)" style="fill: #1f77b4"/>
   </g>
   <g id="patch_126">
    <path d="M 246.165893 224.64 
L 247.681222 224.64 
L 247.681222 51.669562 
L 246.165893 51.669562 
z
" clip-path="url(#pf598aab9ae)" style="fill: #1f77b4"/>
   </g>
   <g id="patch_127">
    <path d="M 247.681222 224.64 
L 249.196551 224.64 
L 249.196551 63.639835 
L 247.681222 63.639835 
z
" clip-path="url(#pf598aab9ae)" style="fill: #1f77b4"/>
   </g>
   <g id="patch_128">
    <path d="M 249.196551 224.64 
L 250.71188 224.64 
L 250.71188 61.844294 
L 249.196551 61.844294 
z
" clip-path="url(#pf598aab9ae)" style="fill: #1f77b4"/>
   </g>
   <g id="patch_129">
    <path d="M 250.71188 224.64 
L 252.227209 224.64 
L 252.227209 79.201189 
L 250.71188 79.201189 
z
" clip-path="url(#pf598aab9ae)" style="fill: #1f77b4"/>
   </g>
   <g id="patch_130">
    <path d="M 252.227209 224.64 
L 253.742538 224.64 
L 253.742538 60.647267 
L 252.227209 60.647267 
z
" clip-path="url(#pf598aab9ae)" style="fill: #1f77b4"/>
   </g>
   <g id="patch_131">
    <path d="M 253.742538 224.64 
L 255.257867 224.64 
L 255.257867 45.085912 
L 253.742538 45.085912 
z
" clip-path="url(#pf598aab9ae)" style="fill: #1f77b4"/>
   </g>
   <g id="patch_132">
    <path d="M 255.257867 224.64 
L 256.773196 224.64 
L 256.773196 69.026457 
L 255.257867 69.026457 
z
" clip-path="url(#pf598aab9ae)" style="fill: #1f77b4"/>
   </g>
   <g id="patch_133">
    <path d="M 256.773196 224.64 
L 258.288525 224.64 
L 258.288525 58.253212 
L 256.773196 58.253212 
z
" clip-path="url(#pf598aab9ae)" style="fill: #1f77b4"/>
   </g>
   <g id="patch_134">
    <path d="M 258.288525 224.64 
L 259.803854 224.64 
L 259.803854 62.442808 
L 258.288525 62.442808 
z
" clip-path="url(#pf598aab9ae)" style="fill: #1f77b4"/>
   </g>
   <g id="patch_135">
    <path d="M 259.803854 224.64 
L 261.319183 224.64 
L 261.319183 49.874021 
L 259.803854 49.874021 
z
" clip-path="url(#pf598aab9ae)" style="fill: #1f77b4"/>
   </g>
   <g id="patch_136">
    <path d="M 261.319183 224.64 
L 262.834512 224.64 
L 262.834512 74.41308 
L 261.319183 74.41308 
z
" clip-path="url(#pf598aab9ae)" style="fill: #1f77b4"/>
   </g>
   <g id="patch_137">
    <path d="M 262.834512 224.64 
L 264.349841 224.64 
L 264.349841 76.208621 
L 262.834512 76.208621 
z
" clip-path="url(#pf598aab9ae)" style="fill: #1f77b4"/>
   </g>
   <g id="patch_138">
    <path d="M 264.349841 224.64 
L 265.86517 224.64 
L 265.86517 66.033889 
L 264.349841 66.033889 
z
" clip-path="url(#pf598aab9ae)" style="fill: #1f77b4"/>
   </g>
   <g id="patch_139">
    <path d="M 265.86517 224.64 
L 267.380499 224.64 
L 267.380499 65.435376 
L 265.86517 65.435376 
z
" clip-path="url(#pf598aab9ae)" style="fill: #1f77b4"/>
   </g>
   <g id="patch_140">
    <path d="M 267.380499 224.64 
L 268.895828 224.64 
L 268.895828 67.82943 
L 267.380499 67.82943 
z
" clip-path="url(#pf598aab9ae)" style="fill: #1f77b4"/>
   </g>
   <g id="patch_141">
    <path d="M 268.895828 224.64 
L 270.411156 224.64 
L 270.411156 74.41308 
L 268.895828 74.41308 
z
" clip-path="url(#pf598aab9ae)" style="fill: #1f77b4"/>
   </g>
   <g id="patch_142">
    <path d="M 270.411156 224.64 
L 271.926485 224.64 
L 271.926485 80.398216 
L 270.411156 80.398216 
z
" clip-path="url(#pf598aab9ae)" style="fill: #1f77b4"/>
   </g>
   <g id="patch_143">
    <path d="M 271.926485 224.64 
L 273.441814 224.64 
L 273.441814 85.186325 
L 271.926485 85.186325 
z
" clip-path="url(#pf598aab9ae)" style="fill: #1f77b4"/>
   </g>
   <g id="patch_144">
    <path d="M 273.441814 224.64 
L 274.957143 224.64 
L 274.957143 91.769975 
L 273.441814 91.769975 
z
" clip-path="url(#pf598aab9ae)" style="fill: #1f77b4"/>
   </g>
   <g id="patch_145">
    <path d="M 274.957143 224.64 
L 276.472472 224.64 
L 276.472472 91.171462 
L 274.957143 91.171462 
z
" clip-path="url(#pf598aab9ae)" style="fill: #1f77b4"/>
   </g>
   <g id="patch_146">
    <path d="M 276.472472 224.64 
L 277.987801 224.64 
L 277.987801 83.989298 
L 276.472472 83.989298 
z
" clip-path="url(#pf598aab9ae)" style="fill: #1f77b4"/>
   </g>
   <g id="patch_147">
    <path d="M 277.987801 224.64 
L 279.50313 224.64 
L 279.50313 87.58038 
L 277.987801 87.58038 
z
" clip-path="url(#pf598aab9ae)" style="fill: #1f77b4"/>
   </g>
   <g id="patch_148">
    <path d="M 279.50313 224.64 
L 281.018459 224.64 
L 281.018459 82.792271 
L 279.50313 82.792271 
z
" clip-path="url(#pf598aab9ae)" style="fill: #1f77b4"/>
   </g>
   <g id="patch_149">
    <path d="M 281.018459 224.64 
L 282.533788 224.64 
L 282.533788 78.004162 
L 281.018459 78.004162 
z
" clip-path="url(#pf598aab9ae)" style="fill: #1f77b4"/>
   </g>
   <g id="patch_150">
    <path d="M 282.533788 224.64 
L 284.049117 224.64 
L 284.049117 82.193757 
L 282.533788 82.193757 
z
" clip-path="url(#pf598aab9ae)" style="fill: #1f77b4"/>
   </g>
   <g id="patch_151">
    <path d="M 284.049117 224.64 
L 285.564446 224.64 
L 285.564446 94.16403 
L 284.049117 94.16403 
z
" clip-path="url(#pf598aab9ae)" style="fill: #1f77b4"/>
   </g>
   <g id="patch_152">
    <path d="M 285.564446 224.64 
L 287.079775 224.64 
L 287.079775 93.565516 
L 285.564446 93.565516 
z
" clip-path="url(#pf598aab9ae)" style="fill: #1f77b4"/>
   </g>
   <g id="patch_153">
    <path d="M 287.079775 224.64 
L 288.595104 224.64 
L 288.595104 91.171462 
L 287.079775 91.171462 
z
" clip-path="url(#pf598aab9ae)" style="fill: #1f77b4"/>
   </g>
   <g id="patch_154">
    <path d="M 288.595104 224.64 
L 290.110433 224.64 
L 290.110433 89.375921 
L 288.595104 89.375921 
z
" clip-path="url(#pf598aab9ae)" style="fill: #1f77b4"/>
   </g>
   <g id="patch_155">
    <path d="M 290.110433 224.64 
L 291.625762 224.64 
L 291.625762 107.331329 
L 290.110433 107.331329 
z
" clip-path="url(#pf598aab9ae)" style="fill: #1f77b4"/>
   </g>
   <g id="patch_156">
    <path d="M 291.625762 224.64 
L 293.141091 224.64 
L 293.141091 96.558084 
L 291.625762 96.558084 
z
" clip-path="url(#pf598aab9ae)" style="fill: #1f77b4"/>
   </g>
   <g id="patch_157">
    <path d="M 293.141091 224.64 
L 294.65642 224.64 
L 294.65642 101.346193 
L 293.141091 101.346193 
z
" clip-path="url(#pf598aab9ae)" style="fill: #1f77b4"/>
   </g>
   <g id="patch_158">
    <path d="M 294.65642 224.64 
L 296.171749 224.64 
L 296.171749 91.171462 
L 294.65642 91.171462 
z
" clip-path="url(#pf598aab9ae)" style="fill: #1f77b4"/>
   </g>
   <g id="patch_159">
    <path d="M 296.171749 224.64 
L 297.687078 224.64 
L 297.687078 104.937275 
L 296.171749 104.937275 
z
" clip-path="url(#pf598aab9ae)" style="fill: #1f77b4"/>
   </g>
   <g id="patch_160">
    <path d="M 297.687078 224.64 
L 299.202407 224.64 
L 299.202407 95.361057 
L 297.687078 95.361057 
z
" clip-path="url(#pf598aab9ae)" style="fill: #1f77b4"/>
   </g>
   <g id="patch_161">
    <path d="M 299.202407 224.64 
L 300.717736 224.64 
L 300.717736 97.156598 
L 299.202407 97.156598 
z
" clip-path="url(#pf598aab9ae)" style="fill: #1f77b4"/>
   </g>
   <g id="patch_162">
    <path d="M 300.717736 224.64 
L 302.233065 224.64 
L 302.233065 110.922411 
L 300.717736 110.922411 
z
" clip-path="url(#pf598aab9ae)" style="fill: #1f77b4"/>
   </g>
   <g id="patch_163">
    <path d="M 302.233065 224.64 
L 303.748394 224.64 
L 303.748394 123.491197 
L 302.233065 123.491197 
z
" clip-path="url(#pf598aab9ae)" style="fill: #1f77b4"/>
   </g>
   <g id="patch_164">
    <path d="M 303.748394 224.64 
L 305.263723 224.64 
L 305.263723 124.089711 
L 303.748394 124.089711 
z
" clip-path="url(#pf598aab9ae)" style="fill: #1f77b4"/>
   </g>
   <g id="patch_165">
    <path d="M 305.263723 224.64 
L 306.779051 224.64 
L 306.779051 128.279306 
L 305.263723 128.279306 
z
" clip-path="url(#pf598aab9ae)" style="fill: #1f77b4"/>
   </g>
   <g id="patch_166">
    <path d="M 306.779051 224.64 
L 308.29438 224.64 
L 308.29438 118.104575 
L 306.779051 118.104575 
z
" clip-path="url(#pf598aab9ae)" style="fill: #1f77b4"/>
   </g>
   <g id="patch_167">
    <path d="M 308.29438 224.64 
L 309.809709 224.64 
L 309.809709 127.680793 
L 308.29438 127.680793 
z
" clip-path="url(#pf598aab9ae)" style="fill: #1f77b4"/>
   </g>
   <g id="patch_168">
    <path d="M 309.809709 224.64 
L 311.325038 224.64 
L 311.325038 121.097143 
L 309.809709 121.097143 
z
" clip-path="url(#pf598aab9ae)" style="fill: #1f77b4"/>
   </g>
   <g id="patch_169">
    <path d="M 311.325038 224.64 
L 312.840367 224.64 
L 312.840367 134.264443 
L 311.325038 134.264443 
z
" clip-path="url(#pf598aab9ae)" style="fill: #1f77b4"/>
   </g>
   <g id="patch_170">
    <path d="M 312.840367 224.64 
L 314.355696 224.64 
L 314.355696 127.082279 
L 312.840367 127.082279 
z
" clip-path="url(#pf598aab9ae)" style="fill: #1f77b4"/>
   </g>
   <g id="patch_171">
    <path d="M 314.355696 224.64 
L 315.871025 224.64 
L 315.871025 131.271874 
L 314.355696 131.271874 
z
" clip-path="url(#pf598aab9ae)" style="fill: #1f77b4"/>
   </g>
   <g id="patch_172">
    <path d="M 315.871025 224.64 
L 317.386354 224.64 
L 317.386354 141.446606 
L 315.871025 141.446606 
z
" clip-path="url(#pf598aab9ae)" style="fill: #1f77b4"/>
   </g>
   <g id="patch_173">
    <path d="M 317.386354 224.64 
L 318.901683 224.64 
L 318.901683 142.643633 
L 317.386354 142.643633 
z
" clip-path="url(#pf598aab9ae)" style="fill: #1f77b4"/>
   </g>
   <g id="patch_174">
    <path d="M 318.901683 224.64 
L 320.417012 224.64 
L 320.417012 129.476334 
L 318.901683 129.476334 
z
" clip-path="url(#pf598aab9ae)" style="fill: #1f77b4"/>
   </g>
   <g id="patch_175">
    <path d="M 320.417012 224.64 
L 321.932341 224.64 
L 321.932341 153.416879 
L 320.417012 153.416879 
z
" clip-path="url(#pf598aab9ae)" style="fill: #1f77b4"/>
   </g>
   <g id="patch_176">
    <path d="M 321.932341 224.64 
L 323.44767 224.64 
L 323.44767 152.818365 
L 321.932341 152.818365 
z
" clip-path="url(#pf598aab9ae)" style="fill: #1f77b4"/>
   </g>
   <g id="patch_177">
    <path d="M 323.44767 224.64 
L 324.962999 224.64 
L 324.962999 152.219851 
L 323.44767 152.219851 
z
" clip-path="url(#pf598aab9ae)" style="fill: #1f77b4"/>
   </g>
   <g id="patch_178">
    <path d="M 324.962999 224.64 
L 326.478328 224.64 
L 326.478328 148.030256 
L 324.962999 148.030256 
z
" clip-path="url(#pf598aab9ae)" style="fill: #1f77b4"/>
   </g>
   <g id="patch_179">
    <path d="M 326.478328 224.64 
L 327.993657 224.64 
L 327.993657 162.993097 
L 326.478328 162.993097 
z
" clip-path="url(#pf598aab9ae)" style="fill: #1f77b4"/>
   </g>
   <g id="patch_180">
    <path d="M 327.993657 224.64 
L 329.508986 224.64 
L 329.508986 157.00796 
L 327.993657 157.00796 
z
" clip-path="url(#pf598aab9ae)" style="fill: #1f77b4"/>
   </g>
   <g id="patch_181">
    <path d="M 329.508986 224.64 
L 331.024315 224.64 
L 331.024315 162.993097 
L 329.508986 162.993097 
z
" clip-path="url(#pf598aab9ae)" style="fill: #1f77b4"/>
   </g>
   <g id="patch_182">
    <path d="M 331.024315 224.64 
L 332.539644 224.64 
L 332.539644 167.781206 
L 331.024315 167.781206 
z
" clip-path="url(#pf598aab9ae)" style="fill: #1f77b4"/>
   </g>
   <g id="patch_183">
    <path d="M 332.539644 224.64 
L 334.054973 224.64 
L 334.054973 175.561883 
L 332.539644 175.561883 
z
" clip-path="url(#pf598aab9ae)" style="fill: #1f77b4"/>
   </g>
   <g id="patch_184">
    <path d="M 334.054973 224.64 
L 335.570302 224.64 
L 335.570302 168.379719 
L 334.054973 168.379719 
z
" clip-path="url(#pf598aab9ae)" style="fill: #1f77b4"/>
   </g>
   <g id="patch_185">
    <path d="M 335.570302 224.64 
L 337.085631 224.64 
L 337.085631 174.364855 
L 335.570302 174.364855 
z
" clip-path="url(#pf598aab9ae)" style="fill: #1f77b4"/>
   </g>
   <g id="patch_186">
    <path d="M 337.085631 224.64 
L 338.60096 224.64 
L 338.60096 169.576746 
L 337.085631 169.576746 
z
" clip-path="url(#pf598aab9ae)" style="fill: #1f77b4"/>
   </g>
   <g id="patch_187">
    <path d="M 338.60096 224.64 
L 340.116289 224.64 
L 340.116289 179.751478 
L 338.60096 179.751478 
z
" clip-path="url(#pf598aab9ae)" style="fill: #1f77b4"/>
   </g>
   <g id="patch_188">
    <path d="M 340.116289 224.64 
L 341.631618 224.64 
L 341.631618 182.145533 
L 340.116289 182.145533 
z
" clip-path="url(#pf598aab9ae)" style="fill: #1f77b4"/>
   </g>
   <g id="patch_189">
    <path d="M 341.631618 224.64 
L 343.146946 224.64 
L 343.146946 179.751478 
L 341.631618 179.751478 
z
" clip-path="url(#pf598aab9ae)" style="fill: #1f77b4"/>
   </g>
   <g id="patch_190">
    <path d="M 343.146946 224.64 
L 344.662275 224.64 
L 344.662275 192.320264 
L 343.146946 192.320264 
z
" clip-path="url(#pf598aab9ae)" style="fill: #1f77b4"/>
   </g>
   <g id="patch_191">
    <path d="M 344.662275 224.64 
L 346.177604 224.64 
L 346.177604 189.327696 
L 344.662275 189.327696 
z
" clip-path="url(#pf598aab9ae)" style="fill: #1f77b4"/>
   </g>
   <g id="patch_192">
    <path d="M 346.177604 224.64 
L 347.692933 224.64 
L 347.692933 196.50986 
L 346.177604 196.50986 
z
" clip-path="url(#pf598aab9ae)" style="fill: #1f77b4"/>
   </g>
   <g id="patch_193">
    <path d="M 347.692933 224.64 
L 349.208262 224.64 
L 349.208262 203.093509 
L 347.692933 203.093509 
z
" clip-path="url(#pf598aab9ae)" style="fill: #1f77b4"/>
   </g>
   <g id="patch_194">
    <path d="M 349.208262 224.64 
L 350.723591 224.64 
L 350.723591 192.918778 
L 349.208262 192.918778 
z
" clip-path="url(#pf598aab9ae)" style="fill: #1f77b4"/>
   </g>
   <g id="patch_195">
    <path d="M 350.723591 224.64 
L 352.23892 224.64 
L 352.23892 206.684591 
L 350.723591 206.684591 
z
" clip-path="url(#pf598aab9ae)" style="fill: #1f77b4"/>
   </g>
   <g id="patch_196">
    <path d="M 352.23892 224.64 
L 353.754249 224.64 
L 353.754249 206.086078 
L 352.23892 206.086078 
z
" clip-path="url(#pf598aab9ae)" style="fill: #1f77b4"/>
   </g>
   <g id="patch_197">
    <path d="M 353.754249 224.64 
L 355.269578 224.64 
L 355.269578 211.4727 
L 353.754249 211.4727 
z
" clip-path="url(#pf598aab9ae)" style="fill: #1f77b4"/>
   </g>
   <g id="patch_198">
    <path d="M 355.269578 224.64 
L 356.784907 224.64 
L 356.784907 212.071214 
L 355.269578 212.071214 
z
" clip-path="url(#pf598aab9ae)" style="fill: #1f77b4"/>
   </g>
   <g id="patch_199">
    <path d="M 356.784907 224.64 
L 358.300236 224.64 
L 358.300236 209.078646 
L 356.784907 209.078646 
z
" clip-path="url(#pf598aab9ae)" style="fill: #1f77b4"/>
   </g>
   <g id="patch_200">
    <path d="M 358.300236 224.64 
L 359.815565 224.64 
L 359.815565 215.662296 
L 358.300236 215.662296 
z
" clip-path="url(#pf598aab9ae)" style="fill: #1f77b4"/>
   </g>
   <g id="patch_201">
    <path d="M 359.815565 224.64 
L 361.330894 224.64 
L 361.330894 219.253377 
L 359.815565 219.253377 
z
" clip-path="url(#pf598aab9ae)" style="fill: #1f77b4"/>
   </g>
   <g id="patch_202">
    <path d="M 361.330894 224.64 
L 362.846223 224.64 
L 362.846223 221.647432 
L 361.330894 221.647432 
z
" clip-path="url(#pf598aab9ae)" style="fill: #1f77b4"/>
   </g>
   <g id="matplotlib.axis_1">
    <g id="xtick_1">
     <g id="line2d_1">
      <defs>
       <path id="m048d6f82d9" d="M 0 0 
L 0 3.5 
" style="stroke: #000000; stroke-width: 0.8"/>
      </defs>
      <g>
       <use xlink:href="#m048d6f82d9" x="58.999432" y="224.64" style="stroke: #000000; stroke-width: 0.8"/>
      </g>
     </g>
     <g id="text_1">
      <!-- 0.0 -->
      <g transform="translate(51.047869 239.238437)scale(0.1 -0.1)">
       <defs>
        <path id="DejaVuSans-30" d="M 2034 4250 
Q 1547 4250 1301 3770 
Q 1056 3291 1056 2328 
Q 1056 1369 1301 889 
Q 1547 409 2034 409 
Q 2525 409 2770 889 
Q 3016 1369 3016 2328 
Q 3016 3291 2770 3770 
Q 2525 4250 2034 4250 
z
M 2034 4750 
Q 2819 4750 3233 4129 
Q 3647 3509 3647 2328 
Q 3647 1150 3233 529 
Q 2819 -91 2034 -91 
Q 1250 -91 836 529 
Q 422 1150 422 2328 
Q 422 3509 836 4129 
Q 1250 4750 2034 4750 
z
" transform="scale(0.015625)"/>
        <path id="DejaVuSans-2e" d="M 684 794 
L 1344 794 
L 1344 0 
L 684 0 
L 684 794 
z
" transform="scale(0.015625)"/>
       </defs>
       <use xlink:href="#DejaVuSans-30"/>
       <use xlink:href="#DejaVuSans-2e" x="63.623047"/>
       <use xlink:href="#DejaVuSans-30" x="95.410156"/>
      </g>
     </g>
    </g>
    <g id="xtick_2">
     <g id="line2d_2">
      <g>
       <use xlink:href="#m048d6f82d9" x="97.752214" y="224.64" style="stroke: #000000; stroke-width: 0.8"/>
      </g>
     </g>
     <g id="text_2">
      <!-- 0.2 -->
      <g transform="translate(89.800651 239.238437)scale(0.1 -0.1)">
       <defs>
        <path id="DejaVuSans-32" d="M 1228 531 
L 3431 531 
L 3431 0 
L 469 0 
L 469 531 
Q 828 903 1448 1529 
Q 2069 2156 2228 2338 
Q 2531 2678 2651 2914 
Q 2772 3150 2772 3378 
Q 2772 3750 2511 3984 
Q 2250 4219 1831 4219 
Q 1534 4219 1204 4116 
Q 875 4013 500 3803 
L 500 4441 
Q 881 4594 1212 4672 
Q 1544 4750 1819 4750 
Q 2544 4750 2975 4387 
Q 3406 4025 3406 3419 
Q 3406 3131 3298 2873 
Q 3191 2616 2906 2266 
Q 2828 2175 2409 1742 
Q 1991 1309 1228 531 
z
" transform="scale(0.015625)"/>
       </defs>
       <use xlink:href="#DejaVuSans-30"/>
       <use xlink:href="#DejaVuSans-2e" x="63.623047"/>
       <use xlink:href="#DejaVuSans-32" x="95.410156"/>
      </g>
     </g>
    </g>
    <g id="xtick_3">
     <g id="line2d_3">
      <g>
       <use xlink:href="#m048d6f82d9" x="136.504995" y="224.64" style="stroke: #000000; stroke-width: 0.8"/>
      </g>
     </g>
     <g id="text_3">
      <!-- 0.4 -->
      <g transform="translate(128.553433 239.238437)scale(0.1 -0.1)">
       <defs>
        <path id="DejaVuSans-34" d="M 2419 4116 
L 825 1625 
L 2419 1625 
L 2419 4116 
z
M 2253 4666 
L 3047 4666 
L 3047 1625 
L 3713 1625 
L 3713 1100 
L 3047 1100 
L 3047 0 
L 2419 0 
L 2419 1100 
L 313 1100 
L 313 1709 
L 2253 4666 
z
" transform="scale(0.015625)"/>
       </defs>
       <use xlink:href="#DejaVuSans-30"/>
       <use xlink:href="#DejaVuSans-2e" x="63.623047"/>
       <use xlink:href="#DejaVuSans-34" x="95.410156"/>
      </g>
     </g>
    </g>
    <g id="xtick_4">
     <g id="line2d_4">
      <g>
       <use xlink:href="#m048d6f82d9" x="175.257777" y="224.64" style="stroke: #000000; stroke-width: 0.8"/>
      </g>
     </g>
     <g id="text_4">
      <!-- 0.6 -->
      <g transform="translate(167.306215 239.238437)scale(0.1 -0.1)">
       <defs>
        <path id="DejaVuSans-36" d="M 2113 2584 
Q 1688 2584 1439 2293 
Q 1191 2003 1191 1497 
Q 1191 994 1439 701 
Q 1688 409 2113 409 
Q 2538 409 2786 701 
Q 3034 994 3034 1497 
Q 3034 2003 2786 2293 
Q 2538 2584 2113 2584 
z
M 3366 4563 
L 3366 3988 
Q 3128 4100 2886 4159 
Q 2644 4219 2406 4219 
Q 1781 4219 1451 3797 
Q 1122 3375 1075 2522 
Q 1259 2794 1537 2939 
Q 1816 3084 2150 3084 
Q 2853 3084 3261 2657 
Q 3669 2231 3669 1497 
Q 3669 778 3244 343 
Q 2819 -91 2113 -91 
Q 1303 -91 875 529 
Q 447 1150 447 2328 
Q 447 3434 972 4092 
Q 1497 4750 2381 4750 
Q 2619 4750 2861 4703 
Q 3103 4656 3366 4563 
z
" transform="scale(0.015625)"/>
       </defs>
       <use xlink:href="#DejaVuSans-30"/>
       <use xlink:href="#DejaVuSans-2e" x="63.623047"/>
       <use xlink:href="#DejaVuSans-36" x="95.410156"/>
      </g>
     </g>
    </g>
    <g id="xtick_5">
     <g id="line2d_5">
      <g>
       <use xlink:href="#m048d6f82d9" x="214.010559" y="224.64" style="stroke: #000000; stroke-width: 0.8"/>
      </g>
     </g>
     <g id="text_5">
      <!-- 0.8 -->
      <g transform="translate(206.058996 239.238437)scale(0.1 -0.1)">
       <defs>
        <path id="DejaVuSans-38" d="M 2034 2216 
Q 1584 2216 1326 1975 
Q 1069 1734 1069 1313 
Q 1069 891 1326 650 
Q 1584 409 2034 409 
Q 2484 409 2743 651 
Q 3003 894 3003 1313 
Q 3003 1734 2745 1975 
Q 2488 2216 2034 2216 
z
M 1403 2484 
Q 997 2584 770 2862 
Q 544 3141 544 3541 
Q 544 4100 942 4425 
Q 1341 4750 2034 4750 
Q 2731 4750 3128 4425 
Q 3525 4100 3525 3541 
Q 3525 3141 3298 2862 
Q 3072 2584 2669 2484 
Q 3125 2378 3379 2068 
Q 3634 1759 3634 1313 
Q 3634 634 3220 271 
Q 2806 -91 2034 -91 
Q 1263 -91 848 271 
Q 434 634 434 1313 
Q 434 1759 690 2068 
Q 947 2378 1403 2484 
z
M 1172 3481 
Q 1172 3119 1398 2916 
Q 1625 2713 2034 2713 
Q 2441 2713 2670 2916 
Q 2900 3119 2900 3481 
Q 2900 3844 2670 4047 
Q 2441 4250 2034 4250 
Q 1625 4250 1398 4047 
Q 1172 3844 1172 3481 
z
" transform="scale(0.015625)"/>
       </defs>
       <use xlink:href="#DejaVuSans-30"/>
       <use xlink:href="#DejaVuSans-2e" x="63.623047"/>
       <use xlink:href="#DejaVuSans-38" x="95.410156"/>
      </g>
     </g>
    </g>
    <g id="xtick_6">
     <g id="line2d_6">
      <g>
       <use xlink:href="#m048d6f82d9" x="252.763341" y="224.64" style="stroke: #000000; stroke-width: 0.8"/>
      </g>
     </g>
     <g id="text_6">
      <!-- 1.0 -->
      <g transform="translate(244.811778 239.238437)scale(0.1 -0.1)">
       <defs>
        <path id="DejaVuSans-31" d="M 794 531 
L 1825 531 
L 1825 4091 
L 703 3866 
L 703 4441 
L 1819 4666 
L 2450 4666 
L 2450 531 
L 3481 531 
L 3481 0 
L 794 0 
L 794 531 
z
" transform="scale(0.015625)"/>
       </defs>
       <use xlink:href="#DejaVuSans-31"/>
       <use xlink:href="#DejaVuSans-2e" x="63.623047"/>
       <use xlink:href="#DejaVuSans-30" x="95.410156"/>
      </g>
     </g>
    </g>
    <g id="xtick_7">
     <g id="line2d_7">
      <g>
       <use xlink:href="#m048d6f82d9" x="291.516122" y="224.64" style="stroke: #000000; stroke-width: 0.8"/>
      </g>
     </g>
     <g id="text_7">
      <!-- 1.2 -->
      <g transform="translate(283.56456 239.238437)scale(0.1 -0.1)">
       <use xlink:href="#DejaVuSans-31"/>
       <use xlink:href="#DejaVuSans-2e" x="63.623047"/>
       <use xlink:href="#DejaVuSans-32" x="95.410156"/>
      </g>
     </g>
    </g>
    <g id="xtick_8">
     <g id="line2d_8">
      <g>
       <use xlink:href="#m048d6f82d9" x="330.268904" y="224.64" style="stroke: #000000; stroke-width: 0.8"/>
      </g>
     </g>
     <g id="text_8">
      <!-- 1.4 -->
      <g transform="translate(322.317342 239.238437)scale(0.1 -0.1)">
       <use xlink:href="#DejaVuSans-31"/>
       <use xlink:href="#DejaVuSans-2e" x="63.623047"/>
       <use xlink:href="#DejaVuSans-34" x="95.410156"/>
      </g>
     </g>
    </g>
    <g id="xtick_9">
     <g id="line2d_9">
      <g>
       <use xlink:href="#m048d6f82d9" x="369.021686" y="224.64" style="stroke: #000000; stroke-width: 0.8"/>
      </g>
     </g>
     <g id="text_9">
      <!-- 1.6 -->
      <g transform="translate(361.070124 239.238437)scale(0.1 -0.1)">
       <use xlink:href="#DejaVuSans-31"/>
       <use xlink:href="#DejaVuSans-2e" x="63.623047"/>
       <use xlink:href="#DejaVuSans-36" x="95.410156"/>
      </g>
     </g>
    </g>
    <g id="text_10">
     <!-- Angle with normal (rad) -->
     <g transform="translate(151.863281 252.916562)scale(0.1 -0.1)">
      <defs>
       <path id="DejaVuSans-41" d="M 2188 4044 
L 1331 1722 
L 3047 1722 
L 2188 4044 
z
M 1831 4666 
L 2547 4666 
L 4325 0 
L 3669 0 
L 3244 1197 
L 1141 1197 
L 716 0 
L 50 0 
L 1831 4666 
z
" transform="scale(0.015625)"/>
       <path id="DejaVuSans-6e" d="M 3513 2113 
L 3513 0 
L 2938 0 
L 2938 2094 
Q 2938 2591 2744 2837 
Q 2550 3084 2163 3084 
Q 1697 3084 1428 2787 
Q 1159 2491 1159 1978 
L 1159 0 
L 581 0 
L 581 3500 
L 1159 3500 
L 1159 2956 
Q 1366 3272 1645 3428 
Q 1925 3584 2291 3584 
Q 2894 3584 3203 3211 
Q 3513 2838 3513 2113 
z
" transform="scale(0.015625)"/>
       <path id="DejaVuSans-67" d="M 2906 1791 
Q 2906 2416 2648 2759 
Q 2391 3103 1925 3103 
Q 1463 3103 1205 2759 
Q 947 2416 947 1791 
Q 947 1169 1205 825 
Q 1463 481 1925 481 
Q 2391 481 2648 825 
Q 2906 1169 2906 1791 
z
M 3481 434 
Q 3481 -459 3084 -895 
Q 2688 -1331 1869 -1331 
Q 1566 -1331 1297 -1286 
Q 1028 -1241 775 -1147 
L 775 -588 
Q 1028 -725 1275 -790 
Q 1522 -856 1778 -856 
Q 2344 -856 2625 -561 
Q 2906 -266 2906 331 
L 2906 616 
Q 2728 306 2450 153 
Q 2172 0 1784 0 
Q 1141 0 747 490 
Q 353 981 353 1791 
Q 353 2603 747 3093 
Q 1141 3584 1784 3584 
Q 2172 3584 2450 3431 
Q 2728 3278 2906 2969 
L 2906 3500 
L 3481 3500 
L 3481 434 
z
" transform="scale(0.015625)"/>
       <path id="DejaVuSans-6c" d="M 603 4863 
L 1178 4863 
L 1178 0 
L 603 0 
L 603 4863 
z
" transform="scale(0.015625)"/>
       <path id="DejaVuSans-65" d="M 3597 1894 
L 3597 1613 
L 953 1613 
Q 991 1019 1311 708 
Q 1631 397 2203 397 
Q 2534 397 2845 478 
Q 3156 559 3463 722 
L 3463 178 
Q 3153 47 2828 -22 
Q 2503 -91 2169 -91 
Q 1331 -91 842 396 
Q 353 884 353 1716 
Q 353 2575 817 3079 
Q 1281 3584 2069 3584 
Q 2775 3584 3186 3129 
Q 3597 2675 3597 1894 
z
M 3022 2063 
Q 3016 2534 2758 2815 
Q 2500 3097 2075 3097 
Q 1594 3097 1305 2825 
Q 1016 2553 972 2059 
L 3022 2063 
z
" transform="scale(0.015625)"/>
       <path id="DejaVuSans-20" transform="scale(0.015625)"/>
       <path id="DejaVuSans-77" d="M 269 3500 
L 844 3500 
L 1563 769 
L 2278 3500 
L 2956 3500 
L 3675 769 
L 4391 3500 
L 4966 3500 
L 4050 0 
L 3372 0 
L 2619 2869 
L 1863 0 
L 1184 0 
L 269 3500 
z
" transform="scale(0.015625)"/>
       <path id="DejaVuSans-69" d="M 603 3500 
L 1178 3500 
L 1178 0 
L 603 0 
L 603 3500 
z
M 603 4863 
L 1178 4863 
L 1178 4134 
L 603 4134 
L 603 4863 
z
" transform="scale(0.015625)"/>
       <path id="DejaVuSans-74" d="M 1172 4494 
L 1172 3500 
L 2356 3500 
L 2356 3053 
L 1172 3053 
L 1172 1153 
Q 1172 725 1289 603 
Q 1406 481 1766 481 
L 2356 481 
L 2356 0 
L 1766 0 
Q 1100 0 847 248 
Q 594 497 594 1153 
L 594 3053 
L 172 3053 
L 172 3500 
L 594 3500 
L 594 4494 
L 1172 4494 
z
" transform="scale(0.015625)"/>
       <path id="DejaVuSans-68" d="M 3513 2113 
L 3513 0 
L 2938 0 
L 2938 2094 
Q 2938 2591 2744 2837 
Q 2550 3084 2163 3084 
Q 1697 3084 1428 2787 
Q 1159 2491 1159 1978 
L 1159 0 
L 581 0 
L 581 4863 
L 1159 4863 
L 1159 2956 
Q 1366 3272 1645 3428 
Q 1925 3584 2291 3584 
Q 2894 3584 3203 3211 
Q 3513 2838 3513 2113 
z
" transform="scale(0.015625)"/>
       <path id="DejaVuSans-6f" d="M 1959 3097 
Q 1497 3097 1228 2736 
Q 959 2375 959 1747 
Q 959 1119 1226 758 
Q 1494 397 1959 397 
Q 2419 397 2687 759 
Q 2956 1122 2956 1747 
Q 2956 2369 2687 2733 
Q 2419 3097 1959 3097 
z
M 1959 3584 
Q 2709 3584 3137 3096 
Q 3566 2609 3566 1747 
Q 3566 888 3137 398 
Q 2709 -91 1959 -91 
Q 1206 -91 779 398 
Q 353 888 353 1747 
Q 353 2609 779 3096 
Q 1206 3584 1959 3584 
z
" transform="scale(0.015625)"/>
       <path id="DejaVuSans-72" d="M 2631 2963 
Q 2534 3019 2420 3045 
Q 2306 3072 2169 3072 
Q 1681 3072 1420 2755 
Q 1159 2438 1159 1844 
L 1159 0 
L 581 0 
L 581 3500 
L 1159 3500 
L 1159 2956 
Q 1341 3275 1631 3429 
Q 1922 3584 2338 3584 
Q 2397 3584 2469 3576 
Q 2541 3569 2628 3553 
L 2631 2963 
z
" transform="scale(0.015625)"/>
       <path id="DejaVuSans-6d" d="M 3328 2828 
Q 3544 3216 3844 3400 
Q 4144 3584 4550 3584 
Q 5097 3584 5394 3201 
Q 5691 2819 5691 2113 
L 5691 0 
L 5113 0 
L 5113 2094 
Q 5113 2597 4934 2840 
Q 4756 3084 4391 3084 
Q 3944 3084 3684 2787 
Q 3425 2491 3425 1978 
L 3425 0 
L 2847 0 
L 2847 2094 
Q 2847 2600 2669 2842 
Q 2491 3084 2119 3084 
Q 1678 3084 1418 2786 
Q 1159 2488 1159 1978 
L 1159 0 
L 581 0 
L 581 3500 
L 1159 3500 
L 1159 2956 
Q 1356 3278 1631 3431 
Q 1906 3584 2284 3584 
Q 2666 3584 2933 3390 
Q 3200 3197 3328 2828 
z
" transform="scale(0.015625)"/>
       <path id="DejaVuSans-61" d="M 2194 1759 
Q 1497 1759 1228 1600 
Q 959 1441 959 1056 
Q 959 750 1161 570 
Q 1363 391 1709 391 
Q 2188 391 2477 730 
Q 2766 1069 2766 1631 
L 2766 1759 
L 2194 1759 
z
M 3341 1997 
L 3341 0 
L 2766 0 
L 2766 531 
Q 2569 213 2275 61 
Q 1981 -91 1556 -91 
Q 1019 -91 701 211 
Q 384 513 384 1019 
Q 384 1609 779 1909 
Q 1175 2209 1959 2209 
L 2766 2209 
L 2766 2266 
Q 2766 2663 2505 2880 
Q 2244 3097 1772 3097 
Q 1472 3097 1187 3025 
Q 903 2953 641 2809 
L 641 3341 
Q 956 3463 1253 3523 
Q 1550 3584 1831 3584 
Q 2591 3584 2966 3190 
Q 3341 2797 3341 1997 
z
" transform="scale(0.015625)"/>
       <path id="DejaVuSans-28" d="M 1984 4856 
Q 1566 4138 1362 3434 
Q 1159 2731 1159 2009 
Q 1159 1288 1364 580 
Q 1569 -128 1984 -844 
L 1484 -844 
Q 1016 -109 783 600 
Q 550 1309 550 2009 
Q 550 2706 781 3412 
Q 1013 4119 1484 4856 
L 1984 4856 
z
" transform="scale(0.015625)"/>
       <path id="DejaVuSans-64" d="M 2906 2969 
L 2906 4863 
L 3481 4863 
L 3481 0 
L 2906 0 
L 2906 525 
Q 2725 213 2448 61 
Q 2172 -91 1784 -91 
Q 1150 -91 751 415 
Q 353 922 353 1747 
Q 353 2572 751 3078 
Q 1150 3584 1784 3584 
Q 2172 3584 2448 3432 
Q 2725 3281 2906 2969 
z
M 947 1747 
Q 947 1113 1208 752 
Q 1469 391 1925 391 
Q 2381 391 2643 752 
Q 2906 1113 2906 1747 
Q 2906 2381 2643 2742 
Q 2381 3103 1925 3103 
Q 1469 3103 1208 2742 
Q 947 2381 947 1747 
z
" transform="scale(0.015625)"/>
       <path id="DejaVuSans-29" d="M 513 4856 
L 1013 4856 
Q 1481 4119 1714 3412 
Q 1947 2706 1947 2009 
Q 1947 1309 1714 600 
Q 1481 -109 1013 -844 
L 513 -844 
Q 928 -128 1133 580 
Q 1338 1288 1338 2009 
Q 1338 2731 1133 3434 
Q 928 4138 513 4856 
z
" transform="scale(0.015625)"/>
      </defs>
      <use xlink:href="#DejaVuSans-41"/>
      <use xlink:href="#DejaVuSans-6e" x="68.408203"/>
      <use xlink:href="#DejaVuSans-67" x="131.787109"/>
      <use xlink:href="#DejaVuSans-6c" x="195.263672"/>
      <use xlink:href="#DejaVuSans-65" x="223.046875"/>
      <use xlink:href="#DejaVuSans-20" x="284.570312"/>
      <use xlink:href="#DejaVuSans-77" x="316.357422"/>
      <use xlink:href="#DejaVuSans-69" x="398.144531"/>
      <use xlink:href="#DejaVuSans-74" x="425.927734"/>
      <use xlink:href="#DejaVuSans-68" x="465.136719"/>
      <use xlink:href="#DejaVuSans-20" x="528.515625"/>
      <use xlink:href="#DejaVuSans-6e" x="560.302734"/>
      <use xlink:href="#DejaVuSans-6f" x="623.681641"/>
      <use xlink:href="#DejaVuSans-72" x="684.863281"/>
      <use xlink:href="#DejaVuSans-6d" x="724.226562"/>
      <use xlink:href="#DejaVuSans-61" x="821.638672"/>
      <use xlink:href="#DejaVuSans-6c" x="882.917969"/>
      <use xlink:href="#DejaVuSans-20" x="910.701172"/>
      <use xlink:href="#DejaVuSans-28" x="942.488281"/>
      <use xlink:href="#DejaVuSans-72" x="981.501953"/>
      <use xlink:href="#DejaVuSans-61" x="1022.615234"/>
      <use xlink:href="#DejaVuSans-64" x="1083.894531"/>
      <use xlink:href="#DejaVuSans-29" x="1147.371094"/>
     </g>
    </g>
   </g>
   <g id="matplotlib.axis_2">
    <g id="ytick_1">
     <g id="line2d_10">
      <defs>
       <path id="m0098fbbc5f" d="M 0 0 
L -3.5 0 
" style="stroke: #000000; stroke-width: 0.8"/>
      </defs>
      <g>
       <use xlink:href="#m0098fbbc5f" x="43.78125" y="224.64" style="stroke: #000000; stroke-width: 0.8"/>
      </g>
     </g>
     <g id="text_11">
      <!-- 0.0 -->
      <g transform="translate(20.878125 228.439219)scale(0.1 -0.1)">
       <use xlink:href="#DejaVuSans-30"/>
       <use xlink:href="#DejaVuSans-2e" x="63.623047"/>
       <use xlink:href="#DejaVuSans-30" x="95.410156"/>
      </g>
     </g>
    </g>
    <g id="ytick_2">
     <g id="line2d_11">
      <g>
       <use xlink:href="#m0098fbbc5f" x="43.78125" y="187.194635" style="stroke: #000000; stroke-width: 0.8"/>
      </g>
     </g>
     <g id="text_12">
      <!-- 0.2 -->
      <g transform="translate(20.878125 190.993854)scale(0.1 -0.1)">
       <use xlink:href="#DejaVuSans-30"/>
       <use xlink:href="#DejaVuSans-2e" x="63.623047"/>
       <use xlink:href="#DejaVuSans-32" x="95.410156"/>
      </g>
     </g>
    </g>
    <g id="ytick_3">
     <g id="line2d_12">
      <g>
       <use xlink:href="#m0098fbbc5f" x="43.78125" y="149.749271" style="stroke: #000000; stroke-width: 0.8"/>
      </g>
     </g>
     <g id="text_13">
      <!-- 0.4 -->
      <g transform="translate(20.878125 153.548489)scale(0.1 -0.1)">
       <use xlink:href="#DejaVuSans-30"/>
       <use xlink:href="#DejaVuSans-2e" x="63.623047"/>
       <use xlink:href="#DejaVuSans-34" x="95.410156"/>
      </g>
     </g>
    </g>
    <g id="ytick_4">
     <g id="line2d_13">
      <g>
       <use xlink:href="#m0098fbbc5f" x="43.78125" y="112.303906" style="stroke: #000000; stroke-width: 0.8"/>
      </g>
     </g>
     <g id="text_14">
      <!-- 0.6 -->
      <g transform="translate(20.878125 116.103125)scale(0.1 -0.1)">
       <use xlink:href="#DejaVuSans-30"/>
       <use xlink:href="#DejaVuSans-2e" x="63.623047"/>
       <use xlink:href="#DejaVuSans-36" x="95.410156"/>
      </g>
     </g>
    </g>
    <g id="ytick_5">
     <g id="line2d_14">
      <g>
       <use xlink:href="#m0098fbbc5f" x="43.78125" y="74.858541" style="stroke: #000000; stroke-width: 0.8"/>
      </g>
     </g>
     <g id="text_15">
      <!-- 0.8 -->
      <g transform="translate(20.878125 78.65776)scale(0.1 -0.1)">
       <use xlink:href="#DejaVuSans-30"/>
       <use xlink:href="#DejaVuSans-2e" x="63.623047"/>
       <use xlink:href="#DejaVuSans-38" x="95.410156"/>
      </g>
     </g>
    </g>
    <g id="ytick_6">
     <g id="line2d_15">
      <g>
       <use xlink:href="#m0098fbbc5f" x="43.78125" y="37.413177" style="stroke: #000000; stroke-width: 0.8"/>
      </g>
     </g>
     <g id="text_16">
      <!-- 1.0 -->
      <g transform="translate(20.878125 41.212395)scale(0.1 -0.1)">
       <use xlink:href="#DejaVuSans-31"/>
       <use xlink:href="#DejaVuSans-2e" x="63.623047"/>
       <use xlink:href="#DejaVuSans-30" x="95.410156"/>
      </g>
     </g>
    </g>
    <g id="text_17">
     <!-- Probability density -->
     <g transform="translate(14.798438 162.270781)rotate(-90)scale(0.1 -0.1)">
      <defs>
       <path id="DejaVuSans-50" d="M 1259 4147 
L 1259 2394 
L 2053 2394 
Q 2494 2394 2734 2622 
Q 2975 2850 2975 3272 
Q 2975 3691 2734 3919 
Q 2494 4147 2053 4147 
L 1259 4147 
z
M 628 4666 
L 2053 4666 
Q 2838 4666 3239 4311 
Q 3641 3956 3641 3272 
Q 3641 2581 3239 2228 
Q 2838 1875 2053 1875 
L 1259 1875 
L 1259 0 
L 628 0 
L 628 4666 
z
" transform="scale(0.015625)"/>
       <path id="DejaVuSans-62" d="M 3116 1747 
Q 3116 2381 2855 2742 
Q 2594 3103 2138 3103 
Q 1681 3103 1420 2742 
Q 1159 2381 1159 1747 
Q 1159 1113 1420 752 
Q 1681 391 2138 391 
Q 2594 391 2855 752 
Q 3116 1113 3116 1747 
z
M 1159 2969 
Q 1341 3281 1617 3432 
Q 1894 3584 2278 3584 
Q 2916 3584 3314 3078 
Q 3713 2572 3713 1747 
Q 3713 922 3314 415 
Q 2916 -91 2278 -91 
Q 1894 -91 1617 61 
Q 1341 213 1159 525 
L 1159 0 
L 581 0 
L 581 4863 
L 1159 4863 
L 1159 2969 
z
" transform="scale(0.015625)"/>
       <path id="DejaVuSans-79" d="M 2059 -325 
Q 1816 -950 1584 -1140 
Q 1353 -1331 966 -1331 
L 506 -1331 
L 506 -850 
L 844 -850 
Q 1081 -850 1212 -737 
Q 1344 -625 1503 -206 
L 1606 56 
L 191 3500 
L 800 3500 
L 1894 763 
L 2988 3500 
L 3597 3500 
L 2059 -325 
z
" transform="scale(0.015625)"/>
       <path id="DejaVuSans-73" d="M 2834 3397 
L 2834 2853 
Q 2591 2978 2328 3040 
Q 2066 3103 1784 3103 
Q 1356 3103 1142 2972 
Q 928 2841 928 2578 
Q 928 2378 1081 2264 
Q 1234 2150 1697 2047 
L 1894 2003 
Q 2506 1872 2764 1633 
Q 3022 1394 3022 966 
Q 3022 478 2636 193 
Q 2250 -91 1575 -91 
Q 1294 -91 989 -36 
Q 684 19 347 128 
L 347 722 
Q 666 556 975 473 
Q 1284 391 1588 391 
Q 1994 391 2212 530 
Q 2431 669 2431 922 
Q 2431 1156 2273 1281 
Q 2116 1406 1581 1522 
L 1381 1569 
Q 847 1681 609 1914 
Q 372 2147 372 2553 
Q 372 3047 722 3315 
Q 1072 3584 1716 3584 
Q 2034 3584 2315 3537 
Q 2597 3491 2834 3397 
z
" transform="scale(0.015625)"/>
      </defs>
      <use xlink:href="#DejaVuSans-50"/>
      <use xlink:href="#DejaVuSans-72" x="58.552734"/>
      <use xlink:href="#DejaVuSans-6f" x="97.416016"/>
      <use xlink:href="#DejaVuSans-62" x="158.597656"/>
      <use xlink:href="#DejaVuSans-61" x="222.074219"/>
      <use xlink:href="#DejaVuSans-62" x="283.353516"/>
      <use xlink:href="#DejaVuSans-69" x="346.830078"/>
      <use xlink:href="#DejaVuSans-6c" x="374.613281"/>
      <use xlink:href="#DejaVuSans-69" x="402.396484"/>
      <use xlink:href="#DejaVuSans-74" x="430.179688"/>
      <use xlink:href="#DejaVuSans-79" x="469.388672"/>
      <use xlink:href="#DejaVuSans-20" x="528.568359"/>
      <use xlink:href="#DejaVuSans-64" x="560.355469"/>
      <use xlink:href="#DejaVuSans-65" x="623.832031"/>
      <use xlink:href="#DejaVuSans-6e" x="685.355469"/>
      <use xlink:href="#DejaVuSans-73" x="748.734375"/>
      <use xlink:href="#DejaVuSans-69" x="800.833984"/>
      <use xlink:href="#DejaVuSans-74" x="828.617188"/>
      <use xlink:href="#DejaVuSans-79" x="867.826172"/>
     </g>
    </g>
   </g>
   <g id="line2d_16">
    <path d="M 58.999432 224.64 
L 77.888867 188.366535 
L 87.942921 169.534305 
L 96.473633 154.012563 
L 104.090341 140.612755 
L 111.097712 128.741498 
L 117.495746 118.338959 
L 123.589112 108.861988 
L 129.37781 100.282379 
L 134.86184 92.563259 
L 140.041201 85.661053 
L 144.915894 79.52728 
L 149.790587 73.760809 
L 154.360611 68.701319 
L 158.625967 64.29191 
L 162.891324 60.193256 
L 167.15668 56.4133 
L 171.117368 53.195119 
L 175.078056 50.263436 
L 179.038744 47.623147 
L 182.694764 45.448417 
L 186.350783 43.528838 
L 190.006803 41.867144 
L 193.662822 40.465699 
L 197.014174 39.411376 
L 200.365525 38.578677 
L 203.716877 37.9686 
L 207.068228 37.581874 
L 210.419579 37.418963 
L 213.770931 37.48006 
L 217.122282 37.765093 
L 220.473633 38.273722 
L 223.824985 39.005336 
L 227.176336 39.959061 
L 230.527687 41.133757 
L 233.879039 42.528016 
L 237.535058 44.297471 
L 241.191078 46.323716 
L 244.847098 48.603866 
L 248.503117 51.134674 
L 252.463805 54.155055 
L 256.424493 57.460328 
L 260.385181 61.044971 
L 264.650537 65.210905 
L 268.915894 69.685813 
L 273.485918 74.813359 
L 278.055943 80.274225 
L 282.930636 86.452837 
L 288.109997 93.400487 
L 293.289358 100.723133 
L 298.773388 108.861988 
L 304.562085 117.854809 
L 310.655451 127.73204 
L 317.358154 139.038061 
L 324.365525 151.295005 
L 332.286901 165.609079 
L 341.42695 182.609187 
L 352.699678 204.074311 
L 363.363068 224.64 
L 363.363068 224.64 
" clip-path="url(#pf598aab9ae)" style="fill: none; stroke: #ff7f0e; stroke-width: 1.5; stroke-linecap: square"/>
   </g>
   <g id="patch_203">
    <path d="M 43.78125 224.64 
L 43.78125 7.2 
" style="fill: none; stroke: #000000; stroke-width: 0.8; stroke-linejoin: miter; stroke-linecap: square"/>
   </g>
   <g id="patch_204">
    <path d="M 378.58125 224.64 
L 378.58125 7.2 
" style="fill: none; stroke: #000000; stroke-width: 0.8; stroke-linejoin: miter; stroke-linecap: square"/>
   </g>
   <g id="patch_205">
    <path d="M 43.78125 224.64 
L 378.58125 224.64 
" style="fill: none; stroke: #000000; stroke-width: 0.8; stroke-linejoin: miter; stroke-linecap: square"/>
   </g>
   <g id="patch_206">
    <path d="M 43.78125 7.2 
L 378.58125 7.2 
" style="fill: none; stroke: #000000; stroke-width: 0.8; stroke-linejoin: miter; stroke-linecap: square"/>
   </g>
  </g>
 </g>
 <defs>
  <clipPath id="pf598aab9ae">
   <rect x="43.78125" y="7.2" width="334.8" height="217.44"/>
  </clipPath>
 </defs>
</svg>
