<?xml version="1.0" encoding="utf-8" standalone="no"?>
<!DOCTYPE svg PUBLIC "-//W3C//DTD SVG 1.1//EN"
  "http://www.w3.org/Graphics/SVG/1.1/DTD/svg11.dtd">
<svg xmlns:xlink="http://www.w3.org/1999/xlink" width="392.14375pt" height="262.19625pt" viewBox="0 0 392.14375 262.19625" xmlns="http://www.w3.org/2000/svg" version="1.1">
 <metadata>
  <rdf:RDF xmlns:dc="http://purl.org/dc/elements/1.1/" xmlns:cc="http://creativecommons.org/ns#" xmlns:rdf="http://www.w3.org/1999/02/22-rdf-syntax-ns#">
   <cc:Work>
    <dc:type rdf:resource="http://purl.org/dc/dcmitype/StillImage"/>
    <dc:date>2022-09-12T15:16:12.292333</dc:date>
    <dc:format>image/svg+xml</dc:format>
    <dc:creator>
     <cc:Agent>
      <dc:title>Matplotlib v3.5.2, https://matplotlib.org/</dc:title>
     </cc:Agent>
    </dc:creator>
   </cc:Work>
  </rdf:RDF>
 </metadata>
 <defs>
  <style type="text/css">*{stroke-linejoin: round; stroke-linecap: butt}</style>
 </defs>
 <g id="figure_1">
  <g id="patch_1">
   <path d="M 0 262.19625 
L 392.14375 262.19625 
L 392.14375 0 
L 0 0 
L 0 262.19625 
z
" style="fill: none"/>
  </g>
  <g id="axes_1">
   <g id="patch_2">
    <path d="M 50.14375 224.64 
L 384.94375 224.64 
L 384.94375 7.2 
L 50.14375 7.2 
z
" style="fill: #ffffff"/>
   </g>
   <g id="patch_3">
    <path d="M 66.336902 224.64 
L 67.853845 224.64 
L 67.853845 222.695533 
L 66.336902 222.695533 
z
" clip-path="url(#p04355a6c99)" style="fill: #1f77b4"/>
   </g>
   <g id="patch_4">
    <path d="M 67.853845 224.64 
L 69.370788 224.64 
L 69.370788 220.26495 
L 67.853845 220.26495 
z
" clip-path="url(#p04355a6c99)" style="fill: #1f77b4"/>
   </g>
   <g id="patch_5">
    <path d="M 69.370788 224.64 
L 70.887731 224.64 
L 70.887731 222.209416 
L 69.370788 222.209416 
z
" clip-path="url(#p04355a6c99)" style="fill: #1f77b4"/>
   </g>
   <g id="patch_6">
    <path d="M 70.887731 224.64 
L 72.404674 224.64 
L 72.404674 220.751066 
L 70.887731 220.751066 
z
" clip-path="url(#p04355a6c99)" style="fill: #1f77b4"/>
   </g>
   <g id="patch_7">
    <path d="M 72.404674 224.64 
L 73.921617 224.64 
L 73.921617 218.320483 
L 72.404674 218.320483 
z
" clip-path="url(#p04355a6c99)" style="fill: #1f77b4"/>
   </g>
   <g id="patch_8">
    <path d="M 73.921617 224.64 
L 75.438559 224.64 
L 75.438559 218.8066 
L 73.921617 218.8066 
z
" clip-path="url(#p04355a6c99)" style="fill: #1f77b4"/>
   </g>
   <g id="patch_9">
    <path d="M 75.438559 224.64 
L 76.955502 224.64 
L 76.955502 216.376016 
L 75.438559 216.376016 
z
" clip-path="url(#p04355a6c99)" style="fill: #1f77b4"/>
   </g>
   <g id="patch_10">
    <path d="M 76.955502 224.64 
L 78.472445 224.64 
L 78.472445 216.862133 
L 76.955502 216.862133 
z
" clip-path="url(#p04355a6c99)" style="fill: #1f77b4"/>
   </g>
   <g id="patch_11">
    <path d="M 78.472445 224.64 
L 79.989388 224.64 
L 79.989388 213.459316 
L 78.472445 213.459316 
z
" clip-path="url(#p04355a6c99)" style="fill: #1f77b4"/>
   </g>
   <g id="patch_12">
    <path d="M 79.989388 224.64 
L 81.506331 224.64 
L 81.506331 214.431549 
L 79.989388 214.431549 
z
" clip-path="url(#p04355a6c99)" style="fill: #1f77b4"/>
   </g>
   <g id="patch_13">
    <path d="M 81.506331 224.64 
L 83.023274 224.64 
L 83.023274 213.945433 
L 81.506331 213.945433 
z
" clip-path="url(#p04355a6c99)" style="fill: #1f77b4"/>
   </g>
   <g id="patch_14">
    <path d="M 83.023274 224.64 
L 84.540217 224.64 
L 84.540217 209.084266 
L 83.023274 209.084266 
z
" clip-path="url(#p04355a6c99)" style="fill: #1f77b4"/>
   </g>
   <g id="patch_15">
    <path d="M 84.540217 224.64 
L 86.05716 224.64 
L 86.05716 214.917666 
L 84.540217 214.917666 
z
" clip-path="url(#p04355a6c99)" style="fill: #1f77b4"/>
   </g>
   <g id="patch_16">
    <path d="M 86.05716 224.64 
L 87.574103 224.64 
L 87.574103 206.653682 
L 86.05716 206.653682 
z
" clip-path="url(#p04355a6c99)" style="fill: #1f77b4"/>
   </g>
   <g id="patch_17">
    <path d="M 87.574103 224.64 
L 89.091046 224.64 
L 89.091046 208.112032 
L 87.574103 208.112032 
z
" clip-path="url(#p04355a6c99)" style="fill: #1f77b4"/>
   </g>
   <g id="patch_18">
    <path d="M 89.091046 224.64 
L 90.607989 224.64 
L 90.607989 211.514849 
L 89.091046 211.514849 
z
" clip-path="url(#p04355a6c99)" style="fill: #1f77b4"/>
   </g>
   <g id="patch_19">
    <path d="M 90.607989 224.64 
L 92.124932 224.64 
L 92.124932 203.736982 
L 90.607989 203.736982 
z
" clip-path="url(#p04355a6c99)" style="fill: #1f77b4"/>
   </g>
   <g id="patch_20">
    <path d="M 92.124932 224.64 
L 93.641875 224.64 
L 93.641875 203.250865 
L 92.124932 203.250865 
z
" clip-path="url(#p04355a6c99)" style="fill: #1f77b4"/>
   </g>
   <g id="patch_21">
    <path d="M 93.641875 224.64 
L 95.158818 224.64 
L 95.158818 212.000966 
L 93.641875 212.000966 
z
" clip-path="url(#p04355a6c99)" style="fill: #1f77b4"/>
   </g>
   <g id="patch_22">
    <path d="M 95.158818 224.64 
L 96.675761 224.64 
L 96.675761 206.167565 
L 95.158818 206.167565 
z
" clip-path="url(#p04355a6c99)" style="fill: #1f77b4"/>
   </g>
   <g id="patch_23">
    <path d="M 96.675761 224.64 
L 98.192704 224.64 
L 98.192704 203.250865 
L 96.675761 203.250865 
z
" clip-path="url(#p04355a6c99)" style="fill: #1f77b4"/>
   </g>
   <g id="patch_24">
    <path d="M 98.192704 224.64 
L 99.709646 224.64 
L 99.709646 201.306398 
L 98.192704 201.306398 
z
" clip-path="url(#p04355a6c99)" style="fill: #1f77b4"/>
   </g>
   <g id="patch_25">
    <path d="M 99.709646 224.64 
L 101.226589 224.64 
L 101.226589 201.792515 
L 99.709646 201.792515 
z
" clip-path="url(#p04355a6c99)" style="fill: #1f77b4"/>
   </g>
   <g id="patch_26">
    <path d="M 101.226589 224.64 
L 102.743532 224.64 
L 102.743532 198.389698 
L 101.226589 198.389698 
z
" clip-path="url(#p04355a6c99)" style="fill: #1f77b4"/>
   </g>
   <g id="patch_27">
    <path d="M 102.743532 224.64 
L 104.260475 224.64 
L 104.260475 201.306398 
L 102.743532 201.306398 
z
" clip-path="url(#p04355a6c99)" style="fill: #1f77b4"/>
   </g>
   <g id="patch_28">
    <path d="M 104.260475 224.64 
L 105.777418 224.64 
L 105.777418 190.611831 
L 104.260475 190.611831 
z
" clip-path="url(#p04355a6c99)" style="fill: #1f77b4"/>
   </g>
   <g id="patch_29">
    <path d="M 105.777418 224.64 
L 107.294361 224.64 
L 107.294361 197.417465 
L 105.777418 197.417465 
z
" clip-path="url(#p04355a6c99)" style="fill: #1f77b4"/>
   </g>
   <g id="patch_30">
    <path d="M 107.294361 224.64 
L 108.811304 224.64 
L 108.811304 201.306398 
L 107.294361 201.306398 
z
" clip-path="url(#p04355a6c99)" style="fill: #1f77b4"/>
   </g>
   <g id="patch_31">
    <path d="M 108.811304 224.64 
L 110.328247 224.64 
L 110.328247 196.445231 
L 108.811304 196.445231 
z
" clip-path="url(#p04355a6c99)" style="fill: #1f77b4"/>
   </g>
   <g id="patch_32">
    <path d="M 110.328247 224.64 
L 111.84519 224.64 
L 111.84519 199.361932 
L 110.328247 199.361932 
z
" clip-path="url(#p04355a6c99)" style="fill: #1f77b4"/>
   </g>
   <g id="patch_33">
    <path d="M 111.84519 224.64 
L 113.362133 224.64 
L 113.362133 187.209014 
L 111.84519 187.209014 
z
" clip-path="url(#p04355a6c99)" style="fill: #1f77b4"/>
   </g>
   <g id="patch_34">
    <path d="M 113.362133 224.64 
L 114.879076 224.64 
L 114.879076 192.556298 
L 113.362133 192.556298 
z
" clip-path="url(#p04355a6c99)" style="fill: #1f77b4"/>
   </g>
   <g id="patch_35">
    <path d="M 114.879076 224.64 
L 116.396019 224.64 
L 116.396019 194.014648 
L 114.879076 194.014648 
z
" clip-path="url(#p04355a6c99)" style="fill: #1f77b4"/>
   </g>
   <g id="patch_36">
    <path d="M 116.396019 224.64 
L 117.912962 224.64 
L 117.912962 189.153481 
L 116.396019 189.153481 
z
" clip-path="url(#p04355a6c99)" style="fill: #1f77b4"/>
   </g>
   <g id="patch_37">
    <path d="M 117.912962 224.64 
L 119.429905 224.64 
L 119.429905 192.556298 
L 117.912962 192.556298 
z
" clip-path="url(#p04355a6c99)" style="fill: #1f77b4"/>
   </g>
   <g id="patch_38">
    <path d="M 119.429905 224.64 
L 120.946848 224.64 
L 120.946848 188.667364 
L 119.429905 188.667364 
z
" clip-path="url(#p04355a6c99)" style="fill: #1f77b4"/>
   </g>
   <g id="patch_39">
    <path d="M 120.946848 224.64 
L 122.463791 224.64 
L 122.463791 197.903581 
L 120.946848 197.903581 
z
" clip-path="url(#p04355a6c99)" style="fill: #1f77b4"/>
   </g>
   <g id="patch_40">
    <path d="M 122.463791 224.64 
L 123.980733 224.64 
L 123.980733 186.722897 
L 122.463791 186.722897 
z
" clip-path="url(#p04355a6c99)" style="fill: #1f77b4"/>
   </g>
   <g id="patch_41">
    <path d="M 123.980733 224.64 
L 125.497676 224.64 
L 125.497676 183.806197 
L 123.980733 183.806197 
z
" clip-path="url(#p04355a6c99)" style="fill: #1f77b4"/>
   </g>
   <g id="patch_42">
    <path d="M 125.497676 224.64 
L 127.014619 224.64 
L 127.014619 190.125714 
L 125.497676 190.125714 
z
" clip-path="url(#p04355a6c99)" style="fill: #1f77b4"/>
   </g>
   <g id="patch_43">
    <path d="M 127.014619 224.64 
L 128.531562 224.64 
L 128.531562 181.86173 
L 127.014619 181.86173 
z
" clip-path="url(#p04355a6c99)" style="fill: #1f77b4"/>
   </g>
   <g id="patch_44">
    <path d="M 128.531562 224.64 
L 130.048505 224.64 
L 130.048505 182.833964 
L 128.531562 182.833964 
z
" clip-path="url(#p04355a6c99)" style="fill: #1f77b4"/>
   </g>
   <g id="patch_45">
    <path d="M 130.048505 224.64 
L 131.565448 224.64 
L 131.565448 192.070181 
L 130.048505 192.070181 
z
" clip-path="url(#p04355a6c99)" style="fill: #1f77b4"/>
   </g>
   <g id="patch_46">
    <path d="M 131.565448 224.64 
L 133.082391 224.64 
L 133.082391 181.375614 
L 131.565448 181.375614 
z
" clip-path="url(#p04355a6c99)" style="fill: #1f77b4"/>
   </g>
   <g id="patch_47">
    <path d="M 133.082391 224.64 
L 134.599334 224.64 
L 134.599334 181.86173 
L 133.082391 181.86173 
z
" clip-path="url(#p04355a6c99)" style="fill: #1f77b4"/>
   </g>
   <g id="patch_48">
    <path d="M 134.599334 224.64 
L 136.116277 224.64 
L 136.116277 182.833964 
L 134.599334 182.833964 
z
" clip-path="url(#p04355a6c99)" style="fill: #1f77b4"/>
   </g>
   <g id="patch_49">
    <path d="M 136.116277 224.64 
L 137.63322 224.64 
L 137.63322 179.431147 
L 136.116277 179.431147 
z
" clip-path="url(#p04355a6c99)" style="fill: #1f77b4"/>
   </g>
   <g id="patch_50">
    <path d="M 137.63322 224.64 
L 139.150163 224.64 
L 139.150163 174.083863 
L 137.63322 174.083863 
z
" clip-path="url(#p04355a6c99)" style="fill: #1f77b4"/>
   </g>
   <g id="patch_51">
    <path d="M 139.150163 224.64 
L 140.667106 224.64 
L 140.667106 178.94503 
L 139.150163 178.94503 
z
" clip-path="url(#p04355a6c99)" style="fill: #1f77b4"/>
   </g>
   <g id="patch_52">
    <path d="M 140.667106 224.64 
L 142.184049 224.64 
L 142.184049 173.11163 
L 140.667106 173.11163 
z
" clip-path="url(#p04355a6c99)" style="fill: #1f77b4"/>
   </g>
   <g id="patch_53">
    <path d="M 142.184049 224.64 
L 143.700992 224.64 
L 143.700992 176.514447 
L 142.184049 176.514447 
z
" clip-path="url(#p04355a6c99)" style="fill: #1f77b4"/>
   </g>
   <g id="patch_54">
    <path d="M 143.700992 224.64 
L 145.217935 224.64 
L 145.217935 167.278229 
L 143.700992 167.278229 
z
" clip-path="url(#p04355a6c99)" style="fill: #1f77b4"/>
   </g>
   <g id="patch_55">
    <path d="M 145.217935 224.64 
L 146.734878 224.64 
L 146.734878 171.65328 
L 145.217935 171.65328 
z
" clip-path="url(#p04355a6c99)" style="fill: #1f77b4"/>
   </g>
   <g id="patch_56">
    <path d="M 146.734878 224.64 
L 148.25182 224.64 
L 148.25182 167.764346 
L 146.734878 167.764346 
z
" clip-path="url(#p04355a6c99)" style="fill: #1f77b4"/>
   </g>
   <g id="patch_57">
    <path d="M 148.25182 224.64 
L 149.768763 224.64 
L 149.768763 174.083863 
L 148.25182 174.083863 
z
" clip-path="url(#p04355a6c99)" style="fill: #1f77b4"/>
   </g>
   <g id="patch_58">
    <path d="M 149.768763 224.64 
L 151.285706 224.64 
L 151.285706 158.528129 
L 149.768763 158.528129 
z
" clip-path="url(#p04355a6c99)" style="fill: #1f77b4"/>
   </g>
   <g id="patch_59">
    <path d="M 151.285706 224.64 
L 152.802649 224.64 
L 152.802649 178.458913 
L 151.285706 178.458913 
z
" clip-path="url(#p04355a6c99)" style="fill: #1f77b4"/>
   </g>
   <g id="patch_60">
    <path d="M 152.802649 224.64 
L 154.319592 224.64 
L 154.319592 171.167163 
L 152.802649 171.167163 
z
" clip-path="url(#p04355a6c99)" style="fill: #1f77b4"/>
   </g>
   <g id="patch_61">
    <path d="M 154.319592 224.64 
L 155.836535 224.64 
L 155.836535 164.361529 
L 154.319592 164.361529 
z
" clip-path="url(#p04355a6c99)" style="fill: #1f77b4"/>
   </g>
   <g id="patch_62">
    <path d="M 155.836535 224.64 
L 157.353478 224.64 
L 157.353478 168.250463 
L 155.836535 168.250463 
z
" clip-path="url(#p04355a6c99)" style="fill: #1f77b4"/>
   </g>
   <g id="patch_63">
    <path d="M 157.353478 224.64 
L 158.870421 224.64 
L 158.870421 171.167163 
L 157.353478 171.167163 
z
" clip-path="url(#p04355a6c99)" style="fill: #1f77b4"/>
   </g>
   <g id="patch_64">
    <path d="M 158.870421 224.64 
L 160.387364 224.64 
L 160.387364 161.930946 
L 158.870421 161.930946 
z
" clip-path="url(#p04355a6c99)" style="fill: #1f77b4"/>
   </g>
   <g id="patch_65">
    <path d="M 160.387364 224.64 
L 161.904307 224.64 
L 161.904307 171.167163 
L 160.387364 171.167163 
z
" clip-path="url(#p04355a6c99)" style="fill: #1f77b4"/>
   </g>
   <g id="patch_66">
    <path d="M 161.904307 224.64 
L 163.42125 224.64 
L 163.42125 154.639195 
L 161.904307 154.639195 
z
" clip-path="url(#p04355a6c99)" style="fill: #1f77b4"/>
   </g>
   <g id="patch_67">
    <path d="M 163.42125 224.64 
L 164.938193 224.64 
L 164.938193 162.417062 
L 163.42125 162.417062 
z
" clip-path="url(#p04355a6c99)" style="fill: #1f77b4"/>
   </g>
   <g id="patch_68">
    <path d="M 164.938193 224.64 
L 166.455136 224.64 
L 166.455136 158.042012 
L 164.938193 158.042012 
z
" clip-path="url(#p04355a6c99)" style="fill: #1f77b4"/>
   </g>
   <g id="patch_69">
    <path d="M 166.455136 224.64 
L 167.972079 224.64 
L 167.972079 161.930946 
L 166.455136 161.930946 
z
" clip-path="url(#p04355a6c99)" style="fill: #1f77b4"/>
   </g>
   <g id="patch_70">
    <path d="M 167.972079 224.64 
L 169.489022 224.64 
L 169.489022 152.208612 
L 167.972079 152.208612 
z
" clip-path="url(#p04355a6c99)" style="fill: #1f77b4"/>
   </g>
   <g id="patch_71">
    <path d="M 169.489022 224.64 
L 171.005965 224.64 
L 171.005965 167.278229 
L 169.489022 167.278229 
z
" clip-path="url(#p04355a6c99)" style="fill: #1f77b4"/>
   </g>
   <g id="patch_72">
    <path d="M 171.005965 224.64 
L 172.522907 224.64 
L 172.522907 160.472596 
L 171.005965 160.472596 
z
" clip-path="url(#p04355a6c99)" style="fill: #1f77b4"/>
   </g>
   <g id="patch_73">
    <path d="M 172.522907 224.64 
L 174.03985 224.64 
L 174.03985 144.916861 
L 172.522907 144.916861 
z
" clip-path="url(#p04355a6c99)" style="fill: #1f77b4"/>
   </g>
   <g id="patch_74">
    <path d="M 174.03985 224.64 
L 175.556793 224.64 
L 175.556793 159.500362 
L 174.03985 159.500362 
z
" clip-path="url(#p04355a6c99)" style="fill: #1f77b4"/>
   </g>
   <g id="patch_75">
    <path d="M 175.556793 224.64 
L 177.073736 224.64 
L 177.073736 157.555895 
L 175.556793 157.555895 
z
" clip-path="url(#p04355a6c99)" style="fill: #1f77b4"/>
   </g>
   <g id="patch_76">
    <path d="M 177.073736 224.64 
L 178.590679 224.64 
L 178.590679 152.694728 
L 177.073736 152.694728 
z
" clip-path="url(#p04355a6c99)" style="fill: #1f77b4"/>
   </g>
   <g id="patch_77">
    <path d="M 178.590679 224.64 
L 180.107622 224.64 
L 180.107622 140.541811 
L 178.590679 140.541811 
z
" clip-path="url(#p04355a6c99)" style="fill: #1f77b4"/>
   </g>
   <g id="patch_78">
    <path d="M 180.107622 224.64 
L 181.624565 224.64 
L 181.624565 147.347445 
L 180.107622 147.347445 
z
" clip-path="url(#p04355a6c99)" style="fill: #1f77b4"/>
   </g>
   <g id="patch_79">
    <path d="M 181.624565 224.64 
L 183.141508 224.64 
L 183.141508 147.347445 
L 181.624565 147.347445 
z
" clip-path="url(#p04355a6c99)" style="fill: #1f77b4"/>
   </g>
   <g id="patch_80">
    <path d="M 183.141508 224.64 
L 184.658451 224.64 
L 184.658451 159.986479 
L 183.141508 159.986479 
z
" clip-path="url(#p04355a6c99)" style="fill: #1f77b4"/>
   </g>
   <g id="patch_81">
    <path d="M 184.658451 224.64 
L 186.175394 224.64 
L 186.175394 151.722495 
L 184.658451 151.722495 
z
" clip-path="url(#p04355a6c99)" style="fill: #1f77b4"/>
   </g>
   <g id="patch_82">
    <path d="M 186.175394 224.64 
L 187.692337 224.64 
L 187.692337 136.166761 
L 186.175394 136.166761 
z
" clip-path="url(#p04355a6c99)" style="fill: #1f77b4"/>
   </g>
   <g id="patch_83">
    <path d="M 187.692337 224.64 
L 189.20928 224.64 
L 189.20928 148.805795 
L 187.692337 148.805795 
z
" clip-path="url(#p04355a6c99)" style="fill: #1f77b4"/>
   </g>
   <g id="patch_84">
    <path d="M 189.20928 224.64 
L 190.726223 224.64 
L 190.726223 151.722495 
L 189.20928 151.722495 
z
" clip-path="url(#p04355a6c99)" style="fill: #1f77b4"/>
   </g>
   <g id="patch_85">
    <path d="M 190.726223 224.64 
L 192.243166 224.64 
L 192.243166 149.778028 
L 190.726223 149.778028 
z
" clip-path="url(#p04355a6c99)" style="fill: #1f77b4"/>
   </g>
   <g id="patch_86">
    <path d="M 192.243166 224.64 
L 193.760109 224.64 
L 193.760109 139.569577 
L 192.243166 139.569577 
z
" clip-path="url(#p04355a6c99)" style="fill: #1f77b4"/>
   </g>
   <g id="patch_87">
    <path d="M 193.760109 224.64 
L 195.277052 224.64 
L 195.277052 137.625111 
L 193.760109 137.625111 
z
" clip-path="url(#p04355a6c99)" style="fill: #1f77b4"/>
   </g>
   <g id="patch_88">
    <path d="M 195.277052 224.64 
L 196.793994 224.64 
L 196.793994 135.194527 
L 195.277052 135.194527 
z
" clip-path="url(#p04355a6c99)" style="fill: #1f77b4"/>
   </g>
   <g id="patch_89">
    <path d="M 196.793994 224.64 
L 198.310937 224.64 
L 198.310937 144.430744 
L 196.793994 144.430744 
z
" clip-path="url(#p04355a6c99)" style="fill: #1f77b4"/>
   </g>
   <g id="patch_90">
    <path d="M 198.310937 224.64 
L 199.82788 224.64 
L 199.82788 135.194527 
L 198.310937 135.194527 
z
" clip-path="url(#p04355a6c99)" style="fill: #1f77b4"/>
   </g>
   <g id="patch_91">
    <path d="M 199.82788 224.64 
L 201.344823 224.64 
L 201.344823 142.000161 
L 199.82788 142.000161 
z
" clip-path="url(#p04355a6c99)" style="fill: #1f77b4"/>
   </g>
   <g id="patch_92">
    <path d="M 201.344823 224.64 
L 202.861766 224.64 
L 202.861766 138.111227 
L 201.344823 138.111227 
z
" clip-path="url(#p04355a6c99)" style="fill: #1f77b4"/>
   </g>
   <g id="patch_93">
    <path d="M 202.861766 224.64 
L 204.378709 224.64 
L 204.378709 136.166761 
L 202.861766 136.166761 
z
" clip-path="url(#p04355a6c99)" style="fill: #1f77b4"/>
   </g>
   <g id="patch_94">
    <path d="M 204.378709 224.64 
L 205.895652 224.64 
L 205.895652 137.625111 
L 204.378709 137.625111 
z
" clip-path="url(#p04355a6c99)" style="fill: #1f77b4"/>
   </g>
   <g id="patch_95">
    <path d="M 205.895652 224.64 
L 207.412595 224.64 
L 207.412595 137.625111 
L 205.895652 137.625111 
z
" clip-path="url(#p04355a6c99)" style="fill: #1f77b4"/>
   </g>
   <g id="patch_96">
    <path d="M 207.412595 224.64 
L 208.929538 224.64 
L 208.929538 138.111227 
L 207.412595 138.111227 
z
" clip-path="url(#p04355a6c99)" style="fill: #1f77b4"/>
   </g>
   <g id="patch_97">
    <path d="M 208.929538 224.64 
L 210.446481 224.64 
L 210.446481 133.736177 
L 208.929538 133.736177 
z
" clip-path="url(#p04355a6c99)" style="fill: #1f77b4"/>
   </g>
   <g id="patch_98">
    <path d="M 210.446481 224.64 
L 211.963424 224.64 
L 211.963424 134.70841 
L 210.446481 134.70841 
z
" clip-path="url(#p04355a6c99)" style="fill: #1f77b4"/>
   </g>
   <g id="patch_99">
    <path d="M 211.963424 224.64 
L 213.480367 224.64 
L 213.480367 144.430744 
L 211.963424 144.430744 
z
" clip-path="url(#p04355a6c99)" style="fill: #1f77b4"/>
   </g>
   <g id="patch_100">
    <path d="M 213.480367 224.64 
L 214.99731 224.64 
L 214.99731 127.902777 
L 213.480367 127.902777 
z
" clip-path="url(#p04355a6c99)" style="fill: #1f77b4"/>
   </g>
   <g id="patch_101">
    <path d="M 214.99731 224.64 
L 216.514253 224.64 
L 216.514253 125.472193 
L 214.99731 125.472193 
z
" clip-path="url(#p04355a6c99)" style="fill: #1f77b4"/>
   </g>
   <g id="patch_102">
    <path d="M 216.514253 224.64 
L 218.031196 224.64 
L 218.031196 120.124909 
L 216.514253 120.124909 
z
" clip-path="url(#p04355a6c99)" style="fill: #1f77b4"/>
   </g>
   <g id="patch_103">
    <path d="M 218.031196 224.64 
L 219.548139 224.64 
L 219.548139 133.25006 
L 218.031196 133.25006 
z
" clip-path="url(#p04355a6c99)" style="fill: #1f77b4"/>
   </g>
   <g id="patch_104">
    <path d="M 219.548139 224.64 
L 221.065081 224.64 
L 221.065081 118.180443 
L 219.548139 118.180443 
z
" clip-path="url(#p04355a6c99)" style="fill: #1f77b4"/>
   </g>
   <g id="patch_105">
    <path d="M 221.065081 224.64 
L 222.582024 224.64 
L 222.582024 113.319276 
L 221.065081 113.319276 
z
" clip-path="url(#p04355a6c99)" style="fill: #1f77b4"/>
   </g>
   <g id="patch_106">
    <path d="M 222.582024 224.64 
L 224.098967 224.64 
L 224.098967 125.472193 
L 222.582024 125.472193 
z
" clip-path="url(#p04355a6c99)" style="fill: #1f77b4"/>
   </g>
   <g id="patch_107">
    <path d="M 224.098967 224.64 
L 225.61591 224.64 
L 225.61591 124.986076 
L 224.098967 124.986076 
z
" clip-path="url(#p04355a6c99)" style="fill: #1f77b4"/>
   </g>
   <g id="patch_108">
    <path d="M 225.61591 224.64 
L 227.132853 224.64 
L 227.132853 129.361127 
L 225.61591 129.361127 
z
" clip-path="url(#p04355a6c99)" style="fill: #1f77b4"/>
   </g>
   <g id="patch_109">
    <path d="M 227.132853 224.64 
L 228.649796 224.64 
L 228.649796 123.04161 
L 227.132853 123.04161 
z
" clip-path="url(#p04355a6c99)" style="fill: #1f77b4"/>
   </g>
   <g id="patch_110">
    <path d="M 228.649796 224.64 
L 230.166739 224.64 
L 230.166739 116.235976 
L 228.649796 116.235976 
z
" clip-path="url(#p04355a6c99)" style="fill: #1f77b4"/>
   </g>
   <g id="patch_111">
    <path d="M 230.166739 224.64 
L 231.683682 224.64 
L 231.683682 123.04161 
L 230.166739 123.04161 
z
" clip-path="url(#p04355a6c99)" style="fill: #1f77b4"/>
   </g>
   <g id="patch_112">
    <path d="M 231.683682 224.64 
L 233.200625 224.64 
L 233.200625 121.58326 
L 231.683682 121.58326 
z
" clip-path="url(#p04355a6c99)" style="fill: #1f77b4"/>
   </g>
   <g id="patch_113">
    <path d="M 233.200625 224.64 
L 234.717568 224.64 
L 234.717568 112.833159 
L 233.200625 112.833159 
z
" clip-path="url(#p04355a6c99)" style="fill: #1f77b4"/>
   </g>
   <g id="patch_114">
    <path d="M 234.717568 224.64 
L 236.234511 224.64 
L 236.234511 124.49996 
L 234.717568 124.49996 
z
" clip-path="url(#p04355a6c99)" style="fill: #1f77b4"/>
   </g>
   <g id="patch_115">
    <path d="M 236.234511 224.64 
L 237.751454 224.64 
L 237.751454 112.833159 
L 236.234511 112.833159 
z
" clip-path="url(#p04355a6c99)" style="fill: #1f77b4"/>
   </g>
   <g id="patch_116">
    <path d="M 237.751454 224.64 
L 239.268397 224.64 
L 239.268397 107.971992 
L 237.751454 107.971992 
z
" clip-path="url(#p04355a6c99)" style="fill: #1f77b4"/>
   </g>
   <g id="patch_117">
    <path d="M 239.268397 224.64 
L 240.78534 224.64 
L 240.78534 111.374809 
L 239.268397 111.374809 
z
" clip-path="url(#p04355a6c99)" style="fill: #1f77b4"/>
   </g>
   <g id="patch_118">
    <path d="M 240.78534 224.64 
L 242.302283 224.64 
L 242.302283 110.402575 
L 240.78534 110.402575 
z
" clip-path="url(#p04355a6c99)" style="fill: #1f77b4"/>
   </g>
   <g id="patch_119">
    <path d="M 242.302283 224.64 
L 243.819226 224.64 
L 243.819226 91.930141 
L 242.302283 91.930141 
z
" clip-path="url(#p04355a6c99)" style="fill: #1f77b4"/>
   </g>
   <g id="patch_120">
    <path d="M 243.819226 224.64 
L 245.336168 224.64 
L 245.336168 108.944225 
L 243.819226 108.944225 
z
" clip-path="url(#p04355a6c99)" style="fill: #1f77b4"/>
   </g>
   <g id="patch_121">
    <path d="M 245.336168 224.64 
L 246.853111 224.64 
L 246.853111 108.944225 
L 245.336168 108.944225 
z
" clip-path="url(#p04355a6c99)" style="fill: #1f77b4"/>
   </g>
   <g id="patch_122">
    <path d="M 246.853111 224.64 
L 248.370054 224.64 
L 248.370054 118.180443 
L 246.853111 118.180443 
z
" clip-path="url(#p04355a6c99)" style="fill: #1f77b4"/>
   </g>
   <g id="patch_123">
    <path d="M 248.370054 224.64 
L 249.886997 224.64 
L 249.886997 105.541408 
L 248.370054 105.541408 
z
" clip-path="url(#p04355a6c99)" style="fill: #1f77b4"/>
   </g>
   <g id="patch_124">
    <path d="M 249.886997 224.64 
L 251.40394 224.64 
L 251.40394 108.458109 
L 249.886997 108.458109 
z
" clip-path="url(#p04355a6c99)" style="fill: #1f77b4"/>
   </g>
   <g id="patch_125">
    <path d="M 251.40394 224.64 
L 252.920883 224.64 
L 252.920883 101.166358 
L 251.40394 101.166358 
z
" clip-path="url(#p04355a6c99)" style="fill: #1f77b4"/>
   </g>
   <g id="patch_126">
    <path d="M 252.920883 224.64 
L 254.437826 224.64 
L 254.437826 99.221891 
L 252.920883 99.221891 
z
" clip-path="url(#p04355a6c99)" style="fill: #1f77b4"/>
   </g>
   <g id="patch_127">
    <path d="M 254.437826 224.64 
L 255.954769 224.64 
L 255.954769 113.805392 
L 254.437826 113.805392 
z
" clip-path="url(#p04355a6c99)" style="fill: #1f77b4"/>
   </g>
   <g id="patch_128">
    <path d="M 255.954769 224.64 
L 257.471712 224.64 
L 257.471712 99.708008 
L 255.954769 99.708008 
z
" clip-path="url(#p04355a6c99)" style="fill: #1f77b4"/>
   </g>
   <g id="patch_129">
    <path d="M 257.471712 224.64 
L 258.988655 224.64 
L 258.988655 96.791308 
L 257.471712 96.791308 
z
" clip-path="url(#p04355a6c99)" style="fill: #1f77b4"/>
   </g>
   <g id="patch_130">
    <path d="M 258.988655 224.64 
L 260.505598 224.64 
L 260.505598 97.763541 
L 258.988655 97.763541 
z
" clip-path="url(#p04355a6c99)" style="fill: #1f77b4"/>
   </g>
   <g id="patch_131">
    <path d="M 260.505598 224.64 
L 262.022541 224.64 
L 262.022541 96.791308 
L 260.505598 96.791308 
z
" clip-path="url(#p04355a6c99)" style="fill: #1f77b4"/>
   </g>
   <g id="patch_132">
    <path d="M 262.022541 224.64 
L 263.539484 224.64 
L 263.539484 92.902374 
L 262.022541 92.902374 
z
" clip-path="url(#p04355a6c99)" style="fill: #1f77b4"/>
   </g>
   <g id="patch_133">
    <path d="M 263.539484 224.64 
L 265.056427 224.64 
L 265.056427 108.458109 
L 263.539484 108.458109 
z
" clip-path="url(#p04355a6c99)" style="fill: #1f77b4"/>
   </g>
   <g id="patch_134">
    <path d="M 265.056427 224.64 
L 266.57337 224.64 
L 266.57337 115.749859 
L 265.056427 115.749859 
z
" clip-path="url(#p04355a6c99)" style="fill: #1f77b4"/>
   </g>
   <g id="patch_135">
    <path d="M 266.57337 224.64 
L 268.090313 224.64 
L 268.090313 88.527324 
L 266.57337 88.527324 
z
" clip-path="url(#p04355a6c99)" style="fill: #1f77b4"/>
   </g>
   <g id="patch_136">
    <path d="M 268.090313 224.64 
L 269.607255 224.64 
L 269.607255 89.985674 
L 268.090313 89.985674 
z
" clip-path="url(#p04355a6c99)" style="fill: #1f77b4"/>
   </g>
   <g id="patch_137">
    <path d="M 269.607255 224.64 
L 271.124198 224.64 
L 271.124198 91.444024 
L 269.607255 91.444024 
z
" clip-path="url(#p04355a6c99)" style="fill: #1f77b4"/>
   </g>
   <g id="patch_138">
    <path d="M 271.124198 224.64 
L 272.641141 224.64 
L 272.641141 90.957907 
L 271.124198 90.957907 
z
" clip-path="url(#p04355a6c99)" style="fill: #1f77b4"/>
   </g>
   <g id="patch_139">
    <path d="M 272.641141 224.64 
L 274.158084 224.64 
L 274.158084 89.013441 
L 272.641141 89.013441 
z
" clip-path="url(#p04355a6c99)" style="fill: #1f77b4"/>
   </g>
   <g id="patch_140">
    <path d="M 274.158084 224.64 
L 275.675027 224.64 
L 275.675027 94.846841 
L 274.158084 94.846841 
z
" clip-path="url(#p04355a6c99)" style="fill: #1f77b4"/>
   </g>
   <g id="patch_141">
    <path d="M 275.675027 224.64 
L 277.19197 224.64 
L 277.19197 90.957907 
L 275.675027 90.957907 
z
" clip-path="url(#p04355a6c99)" style="fill: #1f77b4"/>
   </g>
   <g id="patch_142">
    <path d="M 277.19197 224.64 
L 278.708913 224.64 
L 278.708913 96.305191 
L 277.19197 96.305191 
z
" clip-path="url(#p04355a6c99)" style="fill: #1f77b4"/>
   </g>
   <g id="patch_143">
    <path d="M 278.708913 224.64 
L 280.225856 224.64 
L 280.225856 84.152274 
L 278.708913 84.152274 
z
" clip-path="url(#p04355a6c99)" style="fill: #1f77b4"/>
   </g>
   <g id="patch_144">
    <path d="M 280.225856 224.64 
L 281.742799 224.64 
L 281.742799 72.485473 
L 280.225856 72.485473 
z
" clip-path="url(#p04355a6c99)" style="fill: #1f77b4"/>
   </g>
   <g id="patch_145">
    <path d="M 281.742799 224.64 
L 283.259742 224.64 
L 283.259742 80.749457 
L 281.742799 80.749457 
z
" clip-path="url(#p04355a6c99)" style="fill: #1f77b4"/>
   </g>
   <g id="patch_146">
    <path d="M 283.259742 224.64 
L 284.776685 224.64 
L 284.776685 84.152274 
L 283.259742 84.152274 
z
" clip-path="url(#p04355a6c99)" style="fill: #1f77b4"/>
   </g>
   <g id="patch_147">
    <path d="M 284.776685 224.64 
L 286.293628 224.64 
L 286.293628 85.124507 
L 284.776685 85.124507 
z
" clip-path="url(#p04355a6c99)" style="fill: #1f77b4"/>
   </g>
   <g id="patch_148">
    <path d="M 286.293628 224.64 
L 287.810571 224.64 
L 287.810571 101.166358 
L 286.293628 101.166358 
z
" clip-path="url(#p04355a6c99)" style="fill: #1f77b4"/>
   </g>
   <g id="patch_149">
    <path d="M 287.810571 224.64 
L 289.327514 224.64 
L 289.327514 83.666157 
L 287.810571 83.666157 
z
" clip-path="url(#p04355a6c99)" style="fill: #1f77b4"/>
   </g>
   <g id="patch_150">
    <path d="M 289.327514 224.64 
L 290.844457 224.64 
L 290.844457 82.693924 
L 289.327514 82.693924 
z
" clip-path="url(#p04355a6c99)" style="fill: #1f77b4"/>
   </g>
   <g id="patch_151">
    <path d="M 290.844457 224.64 
L 292.3614 224.64 
L 292.3614 91.930141 
L 290.844457 91.930141 
z
" clip-path="url(#p04355a6c99)" style="fill: #1f77b4"/>
   </g>
   <g id="patch_152">
    <path d="M 292.3614 224.64 
L 293.878342 224.64 
L 293.878342 92.902374 
L 292.3614 92.902374 
z
" clip-path="url(#p04355a6c99)" style="fill: #1f77b4"/>
   </g>
   <g id="patch_153">
    <path d="M 293.878342 224.64 
L 295.395285 224.64 
L 295.395285 75.88829 
L 293.878342 75.88829 
z
" clip-path="url(#p04355a6c99)" style="fill: #1f77b4"/>
   </g>
   <g id="patch_154">
    <path d="M 295.395285 224.64 
L 296.912228 224.64 
L 296.912228 77.832757 
L 295.395285 77.832757 
z
" clip-path="url(#p04355a6c99)" style="fill: #1f77b4"/>
   </g>
   <g id="patch_155">
    <path d="M 296.912228 224.64 
L 298.429171 224.64 
L 298.429171 91.930141 
L 296.912228 91.930141 
z
" clip-path="url(#p04355a6c99)" style="fill: #1f77b4"/>
   </g>
   <g id="patch_156">
    <path d="M 298.429171 224.64 
L 299.946114 224.64 
L 299.946114 88.041207 
L 298.429171 88.041207 
z
" clip-path="url(#p04355a6c99)" style="fill: #1f77b4"/>
   </g>
   <g id="patch_157">
    <path d="M 299.946114 224.64 
L 301.463057 224.64 
L 301.463057 81.235573 
L 299.946114 81.235573 
z
" clip-path="url(#p04355a6c99)" style="fill: #1f77b4"/>
   </g>
   <g id="patch_158">
    <path d="M 301.463057 224.64 
L 302.98 224.64 
L 302.98 68.110423 
L 301.463057 68.110423 
z
" clip-path="url(#p04355a6c99)" style="fill: #1f77b4"/>
   </g>
   <g id="patch_159">
    <path d="M 302.98 224.64 
L 304.496943 224.64 
L 304.496943 80.26334 
L 302.98 80.26334 
z
" clip-path="url(#p04355a6c99)" style="fill: #1f77b4"/>
   </g>
   <g id="patch_160">
    <path d="M 304.496943 224.64 
L 306.013886 224.64 
L 306.013886 62.763139 
L 304.496943 62.763139 
z
" clip-path="url(#p04355a6c99)" style="fill: #1f77b4"/>
   </g>
   <g id="patch_161">
    <path d="M 306.013886 224.64 
L 307.530829 224.64 
L 307.530829 76.860523 
L 306.013886 76.860523 
z
" clip-path="url(#p04355a6c99)" style="fill: #1f77b4"/>
   </g>
   <g id="patch_162">
    <path d="M 307.530829 224.64 
L 309.047772 224.64 
L 309.047772 73.943823 
L 307.530829 73.943823 
z
" clip-path="url(#p04355a6c99)" style="fill: #1f77b4"/>
   </g>
   <g id="patch_163">
    <path d="M 309.047772 224.64 
L 310.564715 224.64 
L 310.564715 84.152274 
L 309.047772 84.152274 
z
" clip-path="url(#p04355a6c99)" style="fill: #1f77b4"/>
   </g>
   <g id="patch_164">
    <path d="M 310.564715 224.64 
L 312.081658 224.64 
L 312.081658 59.846439 
L 310.564715 59.846439 
z
" clip-path="url(#p04355a6c99)" style="fill: #1f77b4"/>
   </g>
   <g id="patch_165">
    <path d="M 312.081658 224.64 
L 313.598601 224.64 
L 313.598601 71.999356 
L 312.081658 71.999356 
z
" clip-path="url(#p04355a6c99)" style="fill: #1f77b4"/>
   </g>
   <g id="patch_166">
    <path d="M 313.598601 224.64 
L 315.115544 224.64 
L 315.115544 71.513239 
L 313.598601 71.513239 
z
" clip-path="url(#p04355a6c99)" style="fill: #1f77b4"/>
   </g>
   <g id="patch_167">
    <path d="M 315.115544 224.64 
L 316.632487 224.64 
L 316.632487 78.318873 
L 315.115544 78.318873 
z
" clip-path="url(#p04355a6c99)" style="fill: #1f77b4"/>
   </g>
   <g id="patch_168">
    <path d="M 316.632487 224.64 
L 318.149429 224.64 
L 318.149429 47.207404 
L 316.632487 47.207404 
z
" clip-path="url(#p04355a6c99)" style="fill: #1f77b4"/>
   </g>
   <g id="patch_169">
    <path d="M 318.149429 224.64 
L 319.666372 224.64 
L 319.666372 80.26334 
L 318.149429 80.26334 
z
" clip-path="url(#p04355a6c99)" style="fill: #1f77b4"/>
   </g>
   <g id="patch_170">
    <path d="M 319.666372 224.64 
L 321.183315 224.64 
L 321.183315 48.665755 
L 319.666372 48.665755 
z
" clip-path="url(#p04355a6c99)" style="fill: #1f77b4"/>
   </g>
   <g id="patch_171">
    <path d="M 321.183315 224.64 
L 322.700258 224.64 
L 322.700258 59.846439 
L 321.183315 59.846439 
z
" clip-path="url(#p04355a6c99)" style="fill: #1f77b4"/>
   </g>
   <g id="patch_172">
    <path d="M 322.700258 224.64 
L 324.217201 224.64 
L 324.217201 54.013038 
L 322.700258 54.013038 
z
" clip-path="url(#p04355a6c99)" style="fill: #1f77b4"/>
   </g>
   <g id="patch_173">
    <path d="M 324.217201 224.64 
L 325.734144 224.64 
L 325.734144 72.485473 
L 324.217201 72.485473 
z
" clip-path="url(#p04355a6c99)" style="fill: #1f77b4"/>
   </g>
   <g id="patch_174">
    <path d="M 325.734144 224.64 
L 327.251087 224.64 
L 327.251087 58.388089 
L 325.734144 58.388089 
z
" clip-path="url(#p04355a6c99)" style="fill: #1f77b4"/>
   </g>
   <g id="patch_175">
    <path d="M 327.251087 224.64 
L 328.76803 224.64 
L 328.76803 58.388089 
L 327.251087 58.388089 
z
" clip-path="url(#p04355a6c99)" style="fill: #1f77b4"/>
   </g>
   <g id="patch_176">
    <path d="M 328.76803 224.64 
L 330.284973 224.64 
L 330.284973 45.262938 
L 328.76803 45.262938 
z
" clip-path="url(#p04355a6c99)" style="fill: #1f77b4"/>
   </g>
   <g id="patch_177">
    <path d="M 330.284973 224.64 
L 331.801916 224.64 
L 331.801916 51.096338 
L 330.284973 51.096338 
z
" clip-path="url(#p04355a6c99)" style="fill: #1f77b4"/>
   </g>
   <g id="patch_178">
    <path d="M 331.801916 224.64 
L 333.318859 224.64 
L 333.318859 51.582455 
L 331.801916 51.582455 
z
" clip-path="url(#p04355a6c99)" style="fill: #1f77b4"/>
   </g>
   <g id="patch_179">
    <path d="M 333.318859 224.64 
L 334.835802 224.64 
L 334.835802 54.013038 
L 333.318859 54.013038 
z
" clip-path="url(#p04355a6c99)" style="fill: #1f77b4"/>
   </g>
   <g id="patch_180">
    <path d="M 334.835802 224.64 
L 336.352745 224.64 
L 336.352745 70.054889 
L 334.835802 70.054889 
z
" clip-path="url(#p04355a6c99)" style="fill: #1f77b4"/>
   </g>
   <g id="patch_181">
    <path d="M 336.352745 224.64 
L 337.869688 224.64 
L 337.869688 55.471388 
L 336.352745 55.471388 
z
" clip-path="url(#p04355a6c99)" style="fill: #1f77b4"/>
   </g>
   <g id="patch_182">
    <path d="M 337.869688 224.64 
L 339.386631 224.64 
L 339.386631 49.637988 
L 337.869688 49.637988 
z
" clip-path="url(#p04355a6c99)" style="fill: #1f77b4"/>
   </g>
   <g id="patch_183">
    <path d="M 339.386631 224.64 
L 340.903574 224.64 
L 340.903574 53.526922 
L 339.386631 53.526922 
z
" clip-path="url(#p04355a6c99)" style="fill: #1f77b4"/>
   </g>
   <g id="patch_184">
    <path d="M 340.903574 224.64 
L 342.420516 224.64 
L 342.420516 62.277022 
L 340.903574 62.277022 
z
" clip-path="url(#p04355a6c99)" style="fill: #1f77b4"/>
   </g>
   <g id="patch_185">
    <path d="M 342.420516 224.64 
L 343.937459 224.64 
L 343.937459 31.165553 
L 342.420516 31.165553 
z
" clip-path="url(#p04355a6c99)" style="fill: #1f77b4"/>
   </g>
   <g id="patch_186">
    <path d="M 343.937459 224.64 
L 345.454402 224.64 
L 345.454402 50.124105 
L 343.937459 50.124105 
z
" clip-path="url(#p04355a6c99)" style="fill: #1f77b4"/>
   </g>
   <g id="patch_187">
    <path d="M 345.454402 224.64 
L 346.971345 224.64 
L 346.971345 41.374004 
L 345.454402 41.374004 
z
" clip-path="url(#p04355a6c99)" style="fill: #1f77b4"/>
   </g>
   <g id="patch_188">
    <path d="M 346.971345 224.64 
L 348.488288 224.64 
L 348.488288 51.582455 
L 346.971345 51.582455 
z
" clip-path="url(#p04355a6c99)" style="fill: #1f77b4"/>
   </g>
   <g id="patch_189">
    <path d="M 348.488288 224.64 
L 350.005231 224.64 
L 350.005231 48.665755 
L 348.488288 48.665755 
z
" clip-path="url(#p04355a6c99)" style="fill: #1f77b4"/>
   </g>
   <g id="patch_190">
    <path d="M 350.005231 224.64 
L 351.522174 224.64 
L 351.522174 17.554286 
L 350.005231 17.554286 
z
" clip-path="url(#p04355a6c99)" style="fill: #1f77b4"/>
   </g>
   <g id="patch_191">
    <path d="M 351.522174 224.64 
L 353.039117 224.64 
L 353.039117 34.56837 
L 351.522174 34.56837 
z
" clip-path="url(#p04355a6c99)" style="fill: #1f77b4"/>
   </g>
   <g id="patch_192">
    <path d="M 353.039117 224.64 
L 354.55606 224.64 
L 354.55606 35.054487 
L 353.039117 35.054487 
z
" clip-path="url(#p04355a6c99)" style="fill: #1f77b4"/>
   </g>
   <g id="patch_193">
    <path d="M 354.55606 224.64 
L 356.073003 224.64 
L 356.073003 31.165553 
L 354.55606 31.165553 
z
" clip-path="url(#p04355a6c99)" style="fill: #1f77b4"/>
   </g>
   <g id="patch_194">
    <path d="M 356.073003 224.64 
L 357.589946 224.64 
L 357.589946 58.874205 
L 356.073003 58.874205 
z
" clip-path="url(#p04355a6c99)" style="fill: #1f77b4"/>
   </g>
   <g id="patch_195">
    <path d="M 357.589946 224.64 
L 359.106889 224.64 
L 359.106889 23.873803 
L 357.589946 23.873803 
z
" clip-path="url(#p04355a6c99)" style="fill: #1f77b4"/>
   </g>
   <g id="patch_196">
    <path d="M 359.106889 224.64 
L 360.623832 224.64 
L 360.623832 19.012636 
L 359.106889 19.012636 
z
" clip-path="url(#p04355a6c99)" style="fill: #1f77b4"/>
   </g>
   <g id="patch_197">
    <path d="M 360.623832 224.64 
L 362.140775 224.64 
L 362.140775 56.443622 
L 360.623832 56.443622 
z
" clip-path="url(#p04355a6c99)" style="fill: #1f77b4"/>
   </g>
   <g id="patch_198">
    <path d="M 362.140775 224.64 
L 363.657718 224.64 
L 363.657718 33.596137 
L 362.140775 33.596137 
z
" clip-path="url(#p04355a6c99)" style="fill: #1f77b4"/>
   </g>
   <g id="patch_199">
    <path d="M 363.657718 224.64 
L 365.174661 224.64 
L 365.174661 33.596137 
L 363.657718 33.596137 
z
" clip-path="url(#p04355a6c99)" style="fill: #1f77b4"/>
   </g>
   <g id="patch_200">
    <path d="M 365.174661 224.64 
L 366.691603 224.64 
L 366.691603 28.73497 
L 365.174661 28.73497 
z
" clip-path="url(#p04355a6c99)" style="fill: #1f77b4"/>
   </g>
   <g id="patch_201">
    <path d="M 366.691603 224.64 
L 368.208546 224.64 
L 368.208546 22.415453 
L 366.691603 22.415453 
z
" clip-path="url(#p04355a6c99)" style="fill: #1f77b4"/>
   </g>
   <g id="patch_202">
    <path d="M 368.208546 224.64 
L 369.725489 224.64 
L 369.725489 35.540604 
L 368.208546 35.540604 
z
" clip-path="url(#p04355a6c99)" style="fill: #1f77b4"/>
   </g>
   <g id="matplotlib.axis_1">
    <g id="xtick_1">
     <g id="line2d_1">
      <defs>
       <path id="m6f6f7e3717" d="M 0 0 
L 0 3.5 
" style="stroke: #000000; stroke-width: 0.8"/>
      </defs>
      <g>
       <use xlink:href="#m6f6f7e3717" x="65.361932" y="224.64" style="stroke: #000000; stroke-width: 0.8"/>
      </g>
     </g>
     <g id="text_1">
      <!-- 0.0 -->
      <g transform="translate(57.410369 239.238437)scale(0.1 -0.1)">
       <defs>
        <path id="DejaVuSans-30" d="M 2034 4250 
Q 1547 4250 1301 3770 
Q 1056 3291 1056 2328 
Q 1056 1369 1301 889 
Q 1547 409 2034 409 
Q 2525 409 2770 889 
Q 3016 1369 3016 2328 
Q 3016 3291 2770 3770 
Q 2525 4250 2034 4250 
z
M 2034 4750 
Q 2819 4750 3233 4129 
Q 3647 3509 3647 2328 
Q 3647 1150 3233 529 
Q 2819 -91 2034 -91 
Q 1250 -91 836 529 
Q 422 1150 422 2328 
Q 422 3509 836 4129 
Q 1250 4750 2034 4750 
z
" transform="scale(0.015625)"/>
        <path id="DejaVuSans-2e" d="M 684 794 
L 1344 794 
L 1344 0 
L 684 0 
L 684 794 
z
" transform="scale(0.015625)"/>
       </defs>
       <use xlink:href="#DejaVuSans-30"/>
       <use xlink:href="#DejaVuSans-2e" x="63.623047"/>
       <use xlink:href="#DejaVuSans-30" x="95.410156"/>
      </g>
     </g>
    </g>
    <g id="xtick_2">
     <g id="line2d_2">
      <g>
       <use xlink:href="#m6f6f7e3717" x="126.234659" y="224.64" style="stroke: #000000; stroke-width: 0.8"/>
      </g>
     </g>
     <g id="text_2">
      <!-- 0.2 -->
      <g transform="translate(118.283097 239.238437)scale(0.1 -0.1)">
       <defs>
        <path id="DejaVuSans-32" d="M 1228 531 
L 3431 531 
L 3431 0 
L 469 0 
L 469 531 
Q 828 903 1448 1529 
Q 2069 2156 2228 2338 
Q 2531 2678 2651 2914 
Q 2772 3150 2772 3378 
Q 2772 3750 2511 3984 
Q 2250 4219 1831 4219 
Q 1534 4219 1204 4116 
Q 875 4013 500 3803 
L 500 4441 
Q 881 4594 1212 4672 
Q 1544 4750 1819 4750 
Q 2544 4750 2975 4387 
Q 3406 4025 3406 3419 
Q 3406 3131 3298 2873 
Q 3191 2616 2906 2266 
Q 2828 2175 2409 1742 
Q 1991 1309 1228 531 
z
" transform="scale(0.015625)"/>
       </defs>
       <use xlink:href="#DejaVuSans-30"/>
       <use xlink:href="#DejaVuSans-2e" x="63.623047"/>
       <use xlink:href="#DejaVuSans-32" x="95.410156"/>
      </g>
     </g>
    </g>
    <g id="xtick_3">
     <g id="line2d_3">
      <g>
       <use xlink:href="#m6f6f7e3717" x="187.107386" y="224.64" style="stroke: #000000; stroke-width: 0.8"/>
      </g>
     </g>
     <g id="text_3">
      <!-- 0.4 -->
      <g transform="translate(179.155824 239.238437)scale(0.1 -0.1)">
       <defs>
        <path id="DejaVuSans-34" d="M 2419 4116 
L 825 1625 
L 2419 1625 
L 2419 4116 
z
M 2253 4666 
L 3047 4666 
L 3047 1625 
L 3713 1625 
L 3713 1100 
L 3047 1100 
L 3047 0 
L 2419 0 
L 2419 1100 
L 313 1100 
L 313 1709 
L 2253 4666 
z
" transform="scale(0.015625)"/>
       </defs>
       <use xlink:href="#DejaVuSans-30"/>
       <use xlink:href="#DejaVuSans-2e" x="63.623047"/>
       <use xlink:href="#DejaVuSans-34" x="95.410156"/>
      </g>
     </g>
    </g>
    <g id="xtick_4">
     <g id="line2d_4">
      <g>
       <use xlink:href="#m6f6f7e3717" x="247.980114" y="224.64" style="stroke: #000000; stroke-width: 0.8"/>
      </g>
     </g>
     <g id="text_4">
      <!-- 0.6 -->
      <g transform="translate(240.028551 239.238437)scale(0.1 -0.1)">
       <defs>
        <path id="DejaVuSans-36" d="M 2113 2584 
Q 1688 2584 1439 2293 
Q 1191 2003 1191 1497 
Q 1191 994 1439 701 
Q 1688 409 2113 409 
Q 2538 409 2786 701 
Q 3034 994 3034 1497 
Q 3034 2003 2786 2293 
Q 2538 2584 2113 2584 
z
M 3366 4563 
L 3366 3988 
Q 3128 4100 2886 4159 
Q 2644 4219 2406 4219 
Q 1781 4219 1451 3797 
Q 1122 3375 1075 2522 
Q 1259 2794 1537 2939 
Q 1816 3084 2150 3084 
Q 2853 3084 3261 2657 
Q 3669 2231 3669 1497 
Q 3669 778 3244 343 
Q 2819 -91 2113 -91 
Q 1303 -91 875 529 
Q 447 1150 447 2328 
Q 447 3434 972 4092 
Q 1497 4750 2381 4750 
Q 2619 4750 2861 4703 
Q 3103 4656 3366 4563 
z
" transform="scale(0.015625)"/>
       </defs>
       <use xlink:href="#DejaVuSans-30"/>
       <use xlink:href="#DejaVuSans-2e" x="63.623047"/>
       <use xlink:href="#DejaVuSans-36" x="95.410156"/>
      </g>
     </g>
    </g>
    <g id="xtick_5">
     <g id="line2d_5">
      <g>
       <use xlink:href="#m6f6f7e3717" x="308.852841" y="224.64" style="stroke: #000000; stroke-width: 0.8"/>
      </g>
     </g>
     <g id="text_5">
      <!-- 0.8 -->
      <g transform="translate(300.901278 239.238437)scale(0.1 -0.1)">
       <defs>
        <path id="DejaVuSans-38" d="M 2034 2216 
Q 1584 2216 1326 1975 
Q 1069 1734 1069 1313 
Q 1069 891 1326 650 
Q 1584 409 2034 409 
Q 2484 409 2743 651 
Q 3003 894 3003 1313 
Q 3003 1734 2745 1975 
Q 2488 2216 2034 2216 
z
M 1403 2484 
Q 997 2584 770 2862 
Q 544 3141 544 3541 
Q 544 4100 942 4425 
Q 1341 4750 2034 4750 
Q 2731 4750 3128 4425 
Q 3525 4100 3525 3541 
Q 3525 3141 3298 2862 
Q 3072 2584 2669 2484 
Q 3125 2378 3379 2068 
Q 3634 1759 3634 1313 
Q 3634 634 3220 271 
Q 2806 -91 2034 -91 
Q 1263 -91 848 271 
Q 434 634 434 1313 
Q 434 1759 690 2068 
Q 947 2378 1403 2484 
z
M 1172 3481 
Q 1172 3119 1398 2916 
Q 1625 2713 2034 2713 
Q 2441 2713 2670 2916 
Q 2900 3119 2900 3481 
Q 2900 3844 2670 4047 
Q 2441 4250 2034 4250 
Q 1625 4250 1398 4047 
Q 1172 3844 1172 3481 
z
" transform="scale(0.015625)"/>
       </defs>
       <use xlink:href="#DejaVuSans-30"/>
       <use xlink:href="#DejaVuSans-2e" x="63.623047"/>
       <use xlink:href="#DejaVuSans-38" x="95.410156"/>
      </g>
     </g>
    </g>
    <g id="xtick_6">
     <g id="line2d_6">
      <g>
       <use xlink:href="#m6f6f7e3717" x="369.725568" y="224.64" style="stroke: #000000; stroke-width: 0.8"/>
      </g>
     </g>
     <g id="text_6">
      <!-- 1.0 -->
      <g transform="translate(361.774006 239.238437)scale(0.1 -0.1)">
       <defs>
        <path id="DejaVuSans-31" d="M 794 531 
L 1825 531 
L 1825 4091 
L 703 3866 
L 703 4441 
L 1819 4666 
L 2450 4666 
L 2450 531 
L 3481 531 
L 3481 0 
L 794 0 
L 794 531 
z
" transform="scale(0.015625)"/>
       </defs>
       <use xlink:href="#DejaVuSans-31"/>
       <use xlink:href="#DejaVuSans-2e" x="63.623047"/>
       <use xlink:href="#DejaVuSans-30" x="95.410156"/>
      </g>
     </g>
    </g>
    <g id="text_7">
     <!-- Propagation direction -->
     <g transform="translate(164.061719 252.916562)scale(0.1 -0.1)">
      <defs>
       <path id="DejaVuSans-50" d="M 1259 4147 
L 1259 2394 
L 2053 2394 
Q 2494 2394 2734 2622 
Q 2975 2850 2975 3272 
Q 2975 3691 2734 3919 
Q 2494 4147 2053 4147 
L 1259 4147 
z
M 628 4666 
L 2053 4666 
Q 2838 4666 3239 4311 
Q 3641 3956 3641 3272 
Q 3641 2581 3239 2228 
Q 2838 1875 2053 1875 
L 1259 1875 
L 1259 0 
L 628 0 
L 628 4666 
z
" transform="scale(0.015625)"/>
       <path id="DejaVuSans-72" d="M 2631 2963 
Q 2534 3019 2420 3045 
Q 2306 3072 2169 3072 
Q 1681 3072 1420 2755 
Q 1159 2438 1159 1844 
L 1159 0 
L 581 0 
L 581 3500 
L 1159 3500 
L 1159 2956 
Q 1341 3275 1631 3429 
Q 1922 3584 2338 3584 
Q 2397 3584 2469 3576 
Q 2541 3569 2628 3553 
L 2631 2963 
z
" transform="scale(0.015625)"/>
       <path id="DejaVuSans-6f" d="M 1959 3097 
Q 1497 3097 1228 2736 
Q 959 2375 959 1747 
Q 959 1119 1226 758 
Q 1494 397 1959 397 
Q 2419 397 2687 759 
Q 2956 1122 2956 1747 
Q 2956 2369 2687 2733 
Q 2419 3097 1959 3097 
z
M 1959 3584 
Q 2709 3584 3137 3096 
Q 3566 2609 3566 1747 
Q 3566 888 3137 398 
Q 2709 -91 1959 -91 
Q 1206 -91 779 398 
Q 353 888 353 1747 
Q 353 2609 779 3096 
Q 1206 3584 1959 3584 
z
" transform="scale(0.015625)"/>
       <path id="DejaVuSans-70" d="M 1159 525 
L 1159 -1331 
L 581 -1331 
L 581 3500 
L 1159 3500 
L 1159 2969 
Q 1341 3281 1617 3432 
Q 1894 3584 2278 3584 
Q 2916 3584 3314 3078 
Q 3713 2572 3713 1747 
Q 3713 922 3314 415 
Q 2916 -91 2278 -91 
Q 1894 -91 1617 61 
Q 1341 213 1159 525 
z
M 3116 1747 
Q 3116 2381 2855 2742 
Q 2594 3103 2138 3103 
Q 1681 3103 1420 2742 
Q 1159 2381 1159 1747 
Q 1159 1113 1420 752 
Q 1681 391 2138 391 
Q 2594 391 2855 752 
Q 3116 1113 3116 1747 
z
" transform="scale(0.015625)"/>
       <path id="DejaVuSans-61" d="M 2194 1759 
Q 1497 1759 1228 1600 
Q 959 1441 959 1056 
Q 959 750 1161 570 
Q 1363 391 1709 391 
Q 2188 391 2477 730 
Q 2766 1069 2766 1631 
L 2766 1759 
L 2194 1759 
z
M 3341 1997 
L 3341 0 
L 2766 0 
L 2766 531 
Q 2569 213 2275 61 
Q 1981 -91 1556 -91 
Q 1019 -91 701 211 
Q 384 513 384 1019 
Q 384 1609 779 1909 
Q 1175 2209 1959 2209 
L 2766 2209 
L 2766 2266 
Q 2766 2663 2505 2880 
Q 2244 3097 1772 3097 
Q 1472 3097 1187 3025 
Q 903 2953 641 2809 
L 641 3341 
Q 956 3463 1253 3523 
Q 1550 3584 1831 3584 
Q 2591 3584 2966 3190 
Q 3341 2797 3341 1997 
z
" transform="scale(0.015625)"/>
       <path id="DejaVuSans-67" d="M 2906 1791 
Q 2906 2416 2648 2759 
Q 2391 3103 1925 3103 
Q 1463 3103 1205 2759 
Q 947 2416 947 1791 
Q 947 1169 1205 825 
Q 1463 481 1925 481 
Q 2391 481 2648 825 
Q 2906 1169 2906 1791 
z
M 3481 434 
Q 3481 -459 3084 -895 
Q 2688 -1331 1869 -1331 
Q 1566 -1331 1297 -1286 
Q 1028 -1241 775 -1147 
L 775 -588 
Q 1028 -725 1275 -790 
Q 1522 -856 1778 -856 
Q 2344 -856 2625 -561 
Q 2906 -266 2906 331 
L 2906 616 
Q 2728 306 2450 153 
Q 2172 0 1784 0 
Q 1141 0 747 490 
Q 353 981 353 1791 
Q 353 2603 747 3093 
Q 1141 3584 1784 3584 
Q 2172 3584 2450 3431 
Q 2728 3278 2906 2969 
L 2906 3500 
L 3481 3500 
L 3481 434 
z
" transform="scale(0.015625)"/>
       <path id="DejaVuSans-74" d="M 1172 4494 
L 1172 3500 
L 2356 3500 
L 2356 3053 
L 1172 3053 
L 1172 1153 
Q 1172 725 1289 603 
Q 1406 481 1766 481 
L 2356 481 
L 2356 0 
L 1766 0 
Q 1100 0 847 248 
Q 594 497 594 1153 
L 594 3053 
L 172 3053 
L 172 3500 
L 594 3500 
L 594 4494 
L 1172 4494 
z
" transform="scale(0.015625)"/>
       <path id="DejaVuSans-69" d="M 603 3500 
L 1178 3500 
L 1178 0 
L 603 0 
L 603 3500 
z
M 603 4863 
L 1178 4863 
L 1178 4134 
L 603 4134 
L 603 4863 
z
" transform="scale(0.015625)"/>
       <path id="DejaVuSans-6e" d="M 3513 2113 
L 3513 0 
L 2938 0 
L 2938 2094 
Q 2938 2591 2744 2837 
Q 2550 3084 2163 3084 
Q 1697 3084 1428 2787 
Q 1159 2491 1159 1978 
L 1159 0 
L 581 0 
L 581 3500 
L 1159 3500 
L 1159 2956 
Q 1366 3272 1645 3428 
Q 1925 3584 2291 3584 
Q 2894 3584 3203 3211 
Q 3513 2838 3513 2113 
z
" transform="scale(0.015625)"/>
       <path id="DejaVuSans-20" transform="scale(0.015625)"/>
       <path id="DejaVuSans-64" d="M 2906 2969 
L 2906 4863 
L 3481 4863 
L 3481 0 
L 2906 0 
L 2906 525 
Q 2725 213 2448 61 
Q 2172 -91 1784 -91 
Q 1150 -91 751 415 
Q 353 922 353 1747 
Q 353 2572 751 3078 
Q 1150 3584 1784 3584 
Q 2172 3584 2448 3432 
Q 2725 3281 2906 2969 
z
M 947 1747 
Q 947 1113 1208 752 
Q 1469 391 1925 391 
Q 2381 391 2643 752 
Q 2906 1113 2906 1747 
Q 2906 2381 2643 2742 
Q 2381 3103 1925 3103 
Q 1469 3103 1208 2742 
Q 947 2381 947 1747 
z
" transform="scale(0.015625)"/>
       <path id="DejaVuSans-65" d="M 3597 1894 
L 3597 1613 
L 953 1613 
Q 991 1019 1311 708 
Q 1631 397 2203 397 
Q 2534 397 2845 478 
Q 3156 559 3463 722 
L 3463 178 
Q 3153 47 2828 -22 
Q 2503 -91 2169 -91 
Q 1331 -91 842 396 
Q 353 884 353 1716 
Q 353 2575 817 3079 
Q 1281 3584 2069 3584 
Q 2775 3584 3186 3129 
Q 3597 2675 3597 1894 
z
M 3022 2063 
Q 3016 2534 2758 2815 
Q 2500 3097 2075 3097 
Q 1594 3097 1305 2825 
Q 1016 2553 972 2059 
L 3022 2063 
z
" transform="scale(0.015625)"/>
       <path id="DejaVuSans-63" d="M 3122 3366 
L 3122 2828 
Q 2878 2963 2633 3030 
Q 2388 3097 2138 3097 
Q 1578 3097 1268 2742 
Q 959 2388 959 1747 
Q 959 1106 1268 751 
Q 1578 397 2138 397 
Q 2388 397 2633 464 
Q 2878 531 3122 666 
L 3122 134 
Q 2881 22 2623 -34 
Q 2366 -91 2075 -91 
Q 1284 -91 818 406 
Q 353 903 353 1747 
Q 353 2603 823 3093 
Q 1294 3584 2113 3584 
Q 2378 3584 2631 3529 
Q 2884 3475 3122 3366 
z
" transform="scale(0.015625)"/>
      </defs>
      <use xlink:href="#DejaVuSans-50"/>
      <use xlink:href="#DejaVuSans-72" x="58.552734"/>
      <use xlink:href="#DejaVuSans-6f" x="97.416016"/>
      <use xlink:href="#DejaVuSans-70" x="158.597656"/>
      <use xlink:href="#DejaVuSans-61" x="222.074219"/>
      <use xlink:href="#DejaVuSans-67" x="283.353516"/>
      <use xlink:href="#DejaVuSans-61" x="346.830078"/>
      <use xlink:href="#DejaVuSans-74" x="408.109375"/>
      <use xlink:href="#DejaVuSans-69" x="447.318359"/>
      <use xlink:href="#DejaVuSans-6f" x="475.101562"/>
      <use xlink:href="#DejaVuSans-6e" x="536.283203"/>
      <use xlink:href="#DejaVuSans-20" x="599.662109"/>
      <use xlink:href="#DejaVuSans-64" x="631.449219"/>
      <use xlink:href="#DejaVuSans-69" x="694.925781"/>
      <use xlink:href="#DejaVuSans-72" x="722.708984"/>
      <use xlink:href="#DejaVuSans-65" x="761.572266"/>
      <use xlink:href="#DejaVuSans-63" x="823.095703"/>
      <use xlink:href="#DejaVuSans-74" x="878.076172"/>
      <use xlink:href="#DejaVuSans-69" x="917.285156"/>
      <use xlink:href="#DejaVuSans-6f" x="945.068359"/>
      <use xlink:href="#DejaVuSans-6e" x="1006.25"/>
     </g>
    </g>
   </g>
   <g id="matplotlib.axis_2">
    <g id="ytick_1">
     <g id="line2d_7">
      <defs>
       <path id="m83da7b47c6" d="M 0 0 
L -3.5 0 
" style="stroke: #000000; stroke-width: 0.8"/>
      </defs>
      <g>
       <use xlink:href="#m83da7b47c6" x="50.14375" y="224.64" style="stroke: #000000; stroke-width: 0.8"/>
      </g>
     </g>
     <g id="text_8">
      <!-- 0.00 -->
      <g transform="translate(20.878125 228.439219)scale(0.1 -0.1)">
       <use xlink:href="#DejaVuSans-30"/>
       <use xlink:href="#DejaVuSans-2e" x="63.623047"/>
       <use xlink:href="#DejaVuSans-30" x="95.410156"/>
       <use xlink:href="#DejaVuSans-30" x="159.033203"/>
      </g>
     </g>
    </g>
    <g id="ytick_2">
     <g id="line2d_8">
      <g>
       <use xlink:href="#m83da7b47c6" x="50.14375" y="200.41203" style="stroke: #000000; stroke-width: 0.8"/>
      </g>
     </g>
     <g id="text_9">
      <!-- 0.25 -->
      <g transform="translate(20.878125 204.211249)scale(0.1 -0.1)">
       <defs>
        <path id="DejaVuSans-35" d="M 691 4666 
L 3169 4666 
L 3169 4134 
L 1269 4134 
L 1269 2991 
Q 1406 3038 1543 3061 
Q 1681 3084 1819 3084 
Q 2600 3084 3056 2656 
Q 3513 2228 3513 1497 
Q 3513 744 3044 326 
Q 2575 -91 1722 -91 
Q 1428 -91 1123 -41 
Q 819 9 494 109 
L 494 744 
Q 775 591 1075 516 
Q 1375 441 1709 441 
Q 2250 441 2565 725 
Q 2881 1009 2881 1497 
Q 2881 1984 2565 2268 
Q 2250 2553 1709 2553 
Q 1456 2553 1204 2497 
Q 953 2441 691 2322 
L 691 4666 
z
" transform="scale(0.015625)"/>
       </defs>
       <use xlink:href="#DejaVuSans-30"/>
       <use xlink:href="#DejaVuSans-2e" x="63.623047"/>
       <use xlink:href="#DejaVuSans-32" x="95.410156"/>
       <use xlink:href="#DejaVuSans-35" x="159.033203"/>
      </g>
     </g>
    </g>
    <g id="ytick_3">
     <g id="line2d_9">
      <g>
       <use xlink:href="#m83da7b47c6" x="50.14375" y="176.184061" style="stroke: #000000; stroke-width: 0.8"/>
      </g>
     </g>
     <g id="text_10">
      <!-- 0.50 -->
      <g transform="translate(20.878125 179.983279)scale(0.1 -0.1)">
       <use xlink:href="#DejaVuSans-30"/>
       <use xlink:href="#DejaVuSans-2e" x="63.623047"/>
       <use xlink:href="#DejaVuSans-35" x="95.410156"/>
       <use xlink:href="#DejaVuSans-30" x="159.033203"/>
      </g>
     </g>
    </g>
    <g id="ytick_4">
     <g id="line2d_10">
      <g>
       <use xlink:href="#m83da7b47c6" x="50.14375" y="151.956091" style="stroke: #000000; stroke-width: 0.8"/>
      </g>
     </g>
     <g id="text_11">
      <!-- 0.75 -->
      <g transform="translate(20.878125 155.75531)scale(0.1 -0.1)">
       <defs>
        <path id="DejaVuSans-37" d="M 525 4666 
L 3525 4666 
L 3525 4397 
L 1831 0 
L 1172 0 
L 2766 4134 
L 525 4134 
L 525 4666 
z
" transform="scale(0.015625)"/>
       </defs>
       <use xlink:href="#DejaVuSans-30"/>
       <use xlink:href="#DejaVuSans-2e" x="63.623047"/>
       <use xlink:href="#DejaVuSans-37" x="95.410156"/>
       <use xlink:href="#DejaVuSans-35" x="159.033203"/>
      </g>
     </g>
    </g>
    <g id="ytick_5">
     <g id="line2d_11">
      <g>
       <use xlink:href="#m83da7b47c6" x="50.14375" y="127.728121" style="stroke: #000000; stroke-width: 0.8"/>
      </g>
     </g>
     <g id="text_12">
      <!-- 1.00 -->
      <g transform="translate(20.878125 131.52734)scale(0.1 -0.1)">
       <use xlink:href="#DejaVuSans-31"/>
       <use xlink:href="#DejaVuSans-2e" x="63.623047"/>
       <use xlink:href="#DejaVuSans-30" x="95.410156"/>
       <use xlink:href="#DejaVuSans-30" x="159.033203"/>
      </g>
     </g>
    </g>
    <g id="ytick_6">
     <g id="line2d_12">
      <g>
       <use xlink:href="#m83da7b47c6" x="50.14375" y="103.500152" style="stroke: #000000; stroke-width: 0.8"/>
      </g>
     </g>
     <g id="text_13">
      <!-- 1.25 -->
      <g transform="translate(20.878125 107.29937)scale(0.1 -0.1)">
       <use xlink:href="#DejaVuSans-31"/>
       <use xlink:href="#DejaVuSans-2e" x="63.623047"/>
       <use xlink:href="#DejaVuSans-32" x="95.410156"/>
       <use xlink:href="#DejaVuSans-35" x="159.033203"/>
      </g>
     </g>
    </g>
    <g id="ytick_7">
     <g id="line2d_13">
      <g>
       <use xlink:href="#m83da7b47c6" x="50.14375" y="79.272182" style="stroke: #000000; stroke-width: 0.8"/>
      </g>
     </g>
     <g id="text_14">
      <!-- 1.50 -->
      <g transform="translate(20.878125 83.071401)scale(0.1 -0.1)">
       <use xlink:href="#DejaVuSans-31"/>
       <use xlink:href="#DejaVuSans-2e" x="63.623047"/>
       <use xlink:href="#DejaVuSans-35" x="95.410156"/>
       <use xlink:href="#DejaVuSans-30" x="159.033203"/>
      </g>
     </g>
    </g>
    <g id="ytick_8">
     <g id="line2d_14">
      <g>
       <use xlink:href="#m83da7b47c6" x="50.14375" y="55.044212" style="stroke: #000000; stroke-width: 0.8"/>
      </g>
     </g>
     <g id="text_15">
      <!-- 1.75 -->
      <g transform="translate(20.878125 58.843431)scale(0.1 -0.1)">
       <use xlink:href="#DejaVuSans-31"/>
       <use xlink:href="#DejaVuSans-2e" x="63.623047"/>
       <use xlink:href="#DejaVuSans-37" x="95.410156"/>
       <use xlink:href="#DejaVuSans-35" x="159.033203"/>
      </g>
     </g>
    </g>
    <g id="ytick_9">
     <g id="line2d_15">
      <g>
       <use xlink:href="#m83da7b47c6" x="50.14375" y="30.816243" style="stroke: #000000; stroke-width: 0.8"/>
      </g>
     </g>
     <g id="text_16">
      <!-- 2.00 -->
      <g transform="translate(20.878125 34.615461)scale(0.1 -0.1)">
       <use xlink:href="#DejaVuSans-32"/>
       <use xlink:href="#DejaVuSans-2e" x="63.623047"/>
       <use xlink:href="#DejaVuSans-30" x="95.410156"/>
       <use xlink:href="#DejaVuSans-30" x="159.033203"/>
      </g>
     </g>
    </g>
    <g id="text_17">
     <!-- Probability density -->
     <g transform="translate(14.798438 162.270781)rotate(-90)scale(0.1 -0.1)">
      <defs>
       <path id="DejaVuSans-62" d="M 3116 1747 
Q 3116 2381 2855 2742 
Q 2594 3103 2138 3103 
Q 1681 3103 1420 2742 
Q 1159 2381 1159 1747 
Q 1159 1113 1420 752 
Q 1681 391 2138 391 
Q 2594 391 2855 752 
Q 3116 1113 3116 1747 
z
M 1159 2969 
Q 1341 3281 1617 3432 
Q 1894 3584 2278 3584 
Q 2916 3584 3314 3078 
Q 3713 2572 3713 1747 
Q 3713 922 3314 415 
Q 2916 -91 2278 -91 
Q 1894 -91 1617 61 
Q 1341 213 1159 525 
L 1159 0 
L 581 0 
L 581 4863 
L 1159 4863 
L 1159 2969 
z
" transform="scale(0.015625)"/>
       <path id="DejaVuSans-6c" d="M 603 4863 
L 1178 4863 
L 1178 0 
L 603 0 
L 603 4863 
z
" transform="scale(0.015625)"/>
       <path id="DejaVuSans-79" d="M 2059 -325 
Q 1816 -950 1584 -1140 
Q 1353 -1331 966 -1331 
L 506 -1331 
L 506 -850 
L 844 -850 
Q 1081 -850 1212 -737 
Q 1344 -625 1503 -206 
L 1606 56 
L 191 3500 
L 800 3500 
L 1894 763 
L 2988 3500 
L 3597 3500 
L 2059 -325 
z
" transform="scale(0.015625)"/>
       <path id="DejaVuSans-73" d="M 2834 3397 
L 2834 2853 
Q 2591 2978 2328 3040 
Q 2066 3103 1784 3103 
Q 1356 3103 1142 2972 
Q 928 2841 928 2578 
Q 928 2378 1081 2264 
Q 1234 2150 1697 2047 
L 1894 2003 
Q 2506 1872 2764 1633 
Q 3022 1394 3022 966 
Q 3022 478 2636 193 
Q 2250 -91 1575 -91 
Q 1294 -91 989 -36 
Q 684 19 347 128 
L 347 722 
Q 666 556 975 473 
Q 1284 391 1588 391 
Q 1994 391 2212 530 
Q 2431 669 2431 922 
Q 2431 1156 2273 1281 
Q 2116 1406 1581 1522 
L 1381 1569 
Q 847 1681 609 1914 
Q 372 2147 372 2553 
Q 372 3047 722 3315 
Q 1072 3584 1716 3584 
Q 2034 3584 2315 3537 
Q 2597 3491 2834 3397 
z
" transform="scale(0.015625)"/>
      </defs>
      <use xlink:href="#DejaVuSans-50"/>
      <use xlink:href="#DejaVuSans-72" x="58.552734"/>
      <use xlink:href="#DejaVuSans-6f" x="97.416016"/>
      <use xlink:href="#DejaVuSans-62" x="158.597656"/>
      <use xlink:href="#DejaVuSans-61" x="222.074219"/>
      <use xlink:href="#DejaVuSans-62" x="283.353516"/>
      <use xlink:href="#DejaVuSans-69" x="346.830078"/>
      <use xlink:href="#DejaVuSans-6c" x="374.613281"/>
      <use xlink:href="#DejaVuSans-69" x="402.396484"/>
      <use xlink:href="#DejaVuSans-74" x="430.179688"/>
      <use xlink:href="#DejaVuSans-79" x="469.388672"/>
      <use xlink:href="#DejaVuSans-20" x="528.568359"/>
      <use xlink:href="#DejaVuSans-64" x="560.355469"/>
      <use xlink:href="#DejaVuSans-65" x="623.832031"/>
      <use xlink:href="#DejaVuSans-6e" x="685.355469"/>
      <use xlink:href="#DejaVuSans-73" x="748.734375"/>
      <use xlink:href="#DejaVuSans-69" x="800.833984"/>
      <use xlink:href="#DejaVuSans-74" x="828.617188"/>
      <use xlink:href="#DejaVuSans-79" x="867.826172"/>
     </g>
    </g>
   </g>
   <g id="line2d_16">
    <path d="M 65.361932 224.64 
L 369.725568 30.816243 
L 369.725568 30.816243 
" clip-path="url(#p04355a6c99)" style="fill: none; stroke: #ff7f0e; stroke-width: 1.5; stroke-linecap: square"/>
   </g>
   <g id="patch_203">
    <path d="M 50.14375 224.64 
L 50.14375 7.2 
" style="fill: none; stroke: #000000; stroke-width: 0.8; stroke-linejoin: miter; stroke-linecap: square"/>
   </g>
   <g id="patch_204">
    <path d="M 384.94375 224.64 
L 384.94375 7.2 
" style="fill: none; stroke: #000000; stroke-width: 0.8; stroke-linejoin: miter; stroke-linecap: square"/>
   </g>
   <g id="patch_205">
    <path d="M 50.14375 224.64 
L 384.94375 224.64 
" style="fill: none; stroke: #000000; stroke-width: 0.8; stroke-linejoin: miter; stroke-linecap: square"/>
   </g>
   <g id="patch_206">
    <path d="M 50.14375 7.2 
L 384.94375 7.2 
" style="fill: none; stroke: #000000; stroke-width: 0.8; stroke-linejoin: miter; stroke-linecap: square"/>
   </g>
  </g>
 </g>
 <defs>
  <clipPath id="p04355a6c99">
   <rect x="50.14375" y="7.2" width="334.8" height="217.44"/>
  </clipPath>
 </defs>
</svg>
