<?xml version="1.0" encoding="utf-8" standalone="no"?>
<!DOCTYPE svg PUBLIC "-//W3C//DTD SVG 1.1//EN"
  "http://www.w3.org/Graphics/SVG/1.1/DTD/svg11.dtd">
<svg xmlns:xlink="http://www.w3.org/1999/xlink" width="385.78125pt" height="262.19625pt" viewBox="0 0 385.78125 262.19625" xmlns="http://www.w3.org/2000/svg" version="1.1">
 <metadata>
  <rdf:RDF xmlns:dc="http://purl.org/dc/elements/1.1/" xmlns:cc="http://creativecommons.org/ns#" xmlns:rdf="http://www.w3.org/1999/02/22-rdf-syntax-ns#">
   <cc:Work>
    <dc:type rdf:resource="http://purl.org/dc/dcmitype/StillImage"/>
    <dc:date>2022-07-18T19:41:02.955659</dc:date>
    <dc:format>image/svg+xml</dc:format>
    <dc:creator>
     <cc:Agent>
      <dc:title>Matplotlib v3.5.2, https://matplotlib.org/</dc:title>
     </cc:Agent>
    </dc:creator>
   </cc:Work>
  </rdf:RDF>
 </metadata>
 <defs>
  <style type="text/css">*{stroke-linejoin: round; stroke-linecap: butt}</style>
 </defs>
 <g id="figure_1">
  <g id="patch_1">
   <path d="M 0 262.19625 
L 385.78125 262.19625 
L 385.78125 0 
L 0 0 
L 0 262.19625 
z
" style="fill: none"/>
  </g>
  <g id="axes_1">
   <g id="patch_2">
    <path d="M 43.78125 224.64 
L 378.58125 224.64 
L 378.58125 7.2 
L 43.78125 7.2 
z
" style="fill: #ffffff"/>
   </g>
   <g id="patch_3">
    <path d="M 60.297954 224.64 
L 61.81178 224.64 
L 61.81178 219.781684 
L 60.297954 219.781684 
z
" clip-path="url(#p4749079b42)" style="fill: #1f77b4"/>
   </g>
   <g id="patch_4">
    <path d="M 61.81178 224.64 
L 63.325607 224.64 
L 63.325607 219.781684 
L 61.81178 219.781684 
z
" clip-path="url(#p4749079b42)" style="fill: #1f77b4"/>
   </g>
   <g id="patch_5">
    <path d="M 63.325607 224.64 
L 64.839433 224.64 
L 64.839433 215.530658 
L 63.325607 215.530658 
z
" clip-path="url(#p4749079b42)" style="fill: #1f77b4"/>
   </g>
   <g id="patch_6">
    <path d="M 64.839433 224.64 
L 66.35326 224.64 
L 66.35326 207.028605 
L 64.839433 207.028605 
z
" clip-path="url(#p4749079b42)" style="fill: #1f77b4"/>
   </g>
   <g id="patch_7">
    <path d="M 66.35326 224.64 
L 67.867086 224.64 
L 67.867086 212.49421 
L 66.35326 212.49421 
z
" clip-path="url(#p4749079b42)" style="fill: #1f77b4"/>
   </g>
   <g id="patch_8">
    <path d="M 67.867086 224.64 
L 69.380912 224.64 
L 69.380912 209.457763 
L 67.867086 209.457763 
z
" clip-path="url(#p4749079b42)" style="fill: #1f77b4"/>
   </g>
   <g id="patch_9">
    <path d="M 69.380912 224.64 
L 70.894739 224.64 
L 70.894739 200.348421 
L 69.380912 200.348421 
z
" clip-path="url(#p4749079b42)" style="fill: #1f77b4"/>
   </g>
   <g id="patch_10">
    <path d="M 70.894739 224.64 
L 72.408565 224.64 
L 72.408565 191.239078 
L 70.894739 191.239078 
z
" clip-path="url(#p4749079b42)" style="fill: #1f77b4"/>
   </g>
   <g id="patch_11">
    <path d="M 72.408565 224.64 
L 73.922391 224.64 
L 73.922391 194.882815 
L 72.408565 194.882815 
z
" clip-path="url(#p4749079b42)" style="fill: #1f77b4"/>
   </g>
   <g id="patch_12">
    <path d="M 73.922391 224.64 
L 75.436218 224.64 
L 75.436218 193.668236 
L 73.922391 193.668236 
z
" clip-path="url(#p4749079b42)" style="fill: #1f77b4"/>
   </g>
   <g id="patch_13">
    <path d="M 75.436218 224.64 
L 76.950044 224.64 
L 76.950044 195.490105 
L 75.436218 195.490105 
z
" clip-path="url(#p4749079b42)" style="fill: #1f77b4"/>
   </g>
   <g id="patch_14">
    <path d="M 76.950044 224.64 
L 78.46387 224.64 
L 78.46387 184.558894 
L 76.950044 184.558894 
z
" clip-path="url(#p4749079b42)" style="fill: #1f77b4"/>
   </g>
   <g id="patch_15">
    <path d="M 78.46387 224.64 
L 79.977697 224.64 
L 79.977697 182.737026 
L 78.46387 182.737026 
z
" clip-path="url(#p4749079b42)" style="fill: #1f77b4"/>
   </g>
   <g id="patch_16">
    <path d="M 79.977697 224.64 
L 81.491523 224.64 
L 81.491523 177.87871 
L 79.977697 177.87871 
z
" clip-path="url(#p4749079b42)" style="fill: #1f77b4"/>
   </g>
   <g id="patch_17">
    <path d="M 81.491523 224.64 
L 83.00535 224.64 
L 83.00535 186.988052 
L 81.491523 186.988052 
z
" clip-path="url(#p4749079b42)" style="fill: #1f77b4"/>
   </g>
   <g id="patch_18">
    <path d="M 83.00535 224.64 
L 84.519176 224.64 
L 84.519176 179.093289 
L 83.00535 179.093289 
z
" clip-path="url(#p4749079b42)" style="fill: #1f77b4"/>
   </g>
   <g id="patch_19">
    <path d="M 84.519176 224.64 
L 86.033002 224.64 
L 86.033002 172.413104 
L 84.519176 172.413104 
z
" clip-path="url(#p4749079b42)" style="fill: #1f77b4"/>
   </g>
   <g id="patch_20">
    <path d="M 86.033002 224.64 
L 87.546829 224.64 
L 87.546829 185.166183 
L 86.033002 185.166183 
z
" clip-path="url(#p4749079b42)" style="fill: #1f77b4"/>
   </g>
   <g id="patch_21">
    <path d="M 87.546829 224.64 
L 89.060655 224.64 
L 89.060655 174.842262 
L 87.546829 174.842262 
z
" clip-path="url(#p4749079b42)" style="fill: #1f77b4"/>
   </g>
   <g id="patch_22">
    <path d="M 89.060655 224.64 
L 90.574481 224.64 
L 90.574481 166.947499 
L 89.060655 166.947499 
z
" clip-path="url(#p4749079b42)" style="fill: #1f77b4"/>
   </g>
   <g id="patch_23">
    <path d="M 90.574481 224.64 
L 92.088308 224.64 
L 92.088308 180.915157 
L 90.574481 180.915157 
z
" clip-path="url(#p4749079b42)" style="fill: #1f77b4"/>
   </g>
   <g id="patch_24">
    <path d="M 92.088308 224.64 
L 93.602134 224.64 
L 93.602134 167.554788 
L 92.088308 167.554788 
z
" clip-path="url(#p4749079b42)" style="fill: #1f77b4"/>
   </g>
   <g id="patch_25">
    <path d="M 93.602134 224.64 
L 95.11596 224.64 
L 95.11596 146.299656 
L 93.602134 146.299656 
z
" clip-path="url(#p4749079b42)" style="fill: #1f77b4"/>
   </g>
   <g id="patch_26">
    <path d="M 95.11596 224.64 
L 96.629787 224.64 
L 96.629787 142.65592 
L 95.11596 142.65592 
z
" clip-path="url(#p4749079b42)" style="fill: #1f77b4"/>
   </g>
   <g id="patch_27">
    <path d="M 96.629787 224.64 
L 98.143613 224.64 
L 98.143613 150.550683 
L 96.629787 150.550683 
z
" clip-path="url(#p4749079b42)" style="fill: #1f77b4"/>
   </g>
   <g id="patch_28">
    <path d="M 98.143613 224.64 
L 99.65744 224.64 
L 99.65744 140.834051 
L 98.143613 140.834051 
z
" clip-path="url(#p4749079b42)" style="fill: #1f77b4"/>
   </g>
   <g id="patch_29">
    <path d="M 99.65744 224.64 
L 101.171266 224.64 
L 101.171266 152.979841 
L 99.65744 152.979841 
z
" clip-path="url(#p4749079b42)" style="fill: #1f77b4"/>
   </g>
   <g id="patch_30">
    <path d="M 101.171266 224.64 
L 102.685092 224.64 
L 102.685092 136.583025 
L 101.171266 136.583025 
z
" clip-path="url(#p4749079b42)" style="fill: #1f77b4"/>
   </g>
   <g id="patch_31">
    <path d="M 102.685092 224.64 
L 104.198919 224.64 
L 104.198919 142.65592 
L 102.685092 142.65592 
z
" clip-path="url(#p4749079b42)" style="fill: #1f77b4"/>
   </g>
   <g id="patch_32">
    <path d="M 104.198919 224.64 
L 105.712745 224.64 
L 105.712745 133.546577 
L 104.198919 133.546577 
z
" clip-path="url(#p4749079b42)" style="fill: #1f77b4"/>
   </g>
   <g id="patch_33">
    <path d="M 105.712745 224.64 
L 107.226571 224.64 
L 107.226571 131.724709 
L 105.712745 131.724709 
z
" clip-path="url(#p4749079b42)" style="fill: #1f77b4"/>
   </g>
   <g id="patch_34">
    <path d="M 107.226571 224.64 
L 108.740398 224.64 
L 108.740398 125.044525 
L 107.226571 125.044525 
z
" clip-path="url(#p4749079b42)" style="fill: #1f77b4"/>
   </g>
   <g id="patch_35">
    <path d="M 108.740398 224.64 
L 110.254224 224.64 
L 110.254224 132.331998 
L 108.740398 132.331998 
z
" clip-path="url(#p4749079b42)" style="fill: #1f77b4"/>
   </g>
   <g id="patch_36">
    <path d="M 110.254224 224.64 
L 111.76805 224.64 
L 111.76805 123.222656 
L 110.254224 123.222656 
z
" clip-path="url(#p4749079b42)" style="fill: #1f77b4"/>
   </g>
   <g id="patch_37">
    <path d="M 111.76805 224.64 
L 113.281877 224.64 
L 113.281877 115.935182 
L 111.76805 115.935182 
z
" clip-path="url(#p4749079b42)" style="fill: #1f77b4"/>
   </g>
   <g id="patch_38">
    <path d="M 113.281877 224.64 
L 114.795703 224.64 
L 114.795703 128.080972 
L 113.281877 128.080972 
z
" clip-path="url(#p4749079b42)" style="fill: #1f77b4"/>
   </g>
   <g id="patch_39">
    <path d="M 114.795703 224.64 
L 116.309529 224.64 
L 116.309529 121.400788 
L 114.795703 121.400788 
z
" clip-path="url(#p4749079b42)" style="fill: #1f77b4"/>
   </g>
   <g id="patch_40">
    <path d="M 116.309529 224.64 
L 117.823356 224.64 
L 117.823356 119.578919 
L 116.309529 119.578919 
z
" clip-path="url(#p4749079b42)" style="fill: #1f77b4"/>
   </g>
   <g id="patch_41">
    <path d="M 117.823356 224.64 
L 119.337182 224.64 
L 119.337182 117.757051 
L 117.823356 117.757051 
z
" clip-path="url(#p4749079b42)" style="fill: #1f77b4"/>
   </g>
   <g id="patch_42">
    <path d="M 119.337182 224.64 
L 120.851009 224.64 
L 120.851009 113.506024 
L 119.337182 113.506024 
z
" clip-path="url(#p4749079b42)" style="fill: #1f77b4"/>
   </g>
   <g id="patch_43">
    <path d="M 120.851009 224.64 
L 122.364835 224.64 
L 122.364835 114.720603 
L 120.851009 114.720603 
z
" clip-path="url(#p4749079b42)" style="fill: #1f77b4"/>
   </g>
   <g id="patch_44">
    <path d="M 122.364835 224.64 
L 123.878661 224.64 
L 123.878661 116.542472 
L 122.364835 116.542472 
z
" clip-path="url(#p4749079b42)" style="fill: #1f77b4"/>
   </g>
   <g id="patch_45">
    <path d="M 123.878661 224.64 
L 125.392488 224.64 
L 125.392488 95.28734 
L 123.878661 95.28734 
z
" clip-path="url(#p4749079b42)" style="fill: #1f77b4"/>
   </g>
   <g id="patch_46">
    <path d="M 125.392488 224.64 
L 126.906314 224.64 
L 126.906314 102.574814 
L 125.392488 102.574814 
z
" clip-path="url(#p4749079b42)" style="fill: #1f77b4"/>
   </g>
   <g id="patch_47">
    <path d="M 126.906314 224.64 
L 128.42014 224.64 
L 128.42014 86.177997 
L 126.906314 86.177997 
z
" clip-path="url(#p4749079b42)" style="fill: #1f77b4"/>
   </g>
   <g id="patch_48">
    <path d="M 128.42014 224.64 
L 129.933967 224.64 
L 129.933967 95.894629 
L 128.42014 95.894629 
z
" clip-path="url(#p4749079b42)" style="fill: #1f77b4"/>
   </g>
   <g id="patch_49">
    <path d="M 129.933967 224.64 
L 131.447793 224.64 
L 131.447793 101.967524 
L 129.933967 101.967524 
z
" clip-path="url(#p4749079b42)" style="fill: #1f77b4"/>
   </g>
   <g id="patch_50">
    <path d="M 131.447793 224.64 
L 132.961619 224.64 
L 132.961619 94.072761 
L 131.447793 94.072761 
z
" clip-path="url(#p4749079b42)" style="fill: #1f77b4"/>
   </g>
   <g id="patch_51">
    <path d="M 132.961619 224.64 
L 134.475446 224.64 
L 134.475446 69.173892 
L 132.961619 69.173892 
z
" clip-path="url(#p4749079b42)" style="fill: #1f77b4"/>
   </g>
   <g id="patch_52">
    <path d="M 134.475446 224.64 
L 135.989272 224.64 
L 135.989272 82.534261 
L 134.475446 82.534261 
z
" clip-path="url(#p4749079b42)" style="fill: #1f77b4"/>
   </g>
   <g id="patch_53">
    <path d="M 135.989272 224.64 
L 137.503099 224.64 
L 137.503099 89.214445 
L 135.989272 89.214445 
z
" clip-path="url(#p4749079b42)" style="fill: #1f77b4"/>
   </g>
   <g id="patch_54">
    <path d="M 137.503099 224.64 
L 139.016925 224.64 
L 139.016925 79.497813 
L 137.503099 79.497813 
z
" clip-path="url(#p4749079b42)" style="fill: #1f77b4"/>
   </g>
   <g id="patch_55">
    <path d="M 139.016925 224.64 
L 140.530751 224.64 
L 140.530751 72.210339 
L 139.016925 72.210339 
z
" clip-path="url(#p4749079b42)" style="fill: #1f77b4"/>
   </g>
   <g id="patch_56">
    <path d="M 140.530751 224.64 
L 142.044578 224.64 
L 142.044578 75.246787 
L 140.530751 75.246787 
z
" clip-path="url(#p4749079b42)" style="fill: #1f77b4"/>
   </g>
   <g id="patch_57">
    <path d="M 142.044578 224.64 
L 143.558404 224.64 
L 143.558404 56.420813 
L 142.044578 56.420813 
z
" clip-path="url(#p4749079b42)" style="fill: #1f77b4"/>
   </g>
   <g id="patch_58">
    <path d="M 143.558404 224.64 
L 145.07223 224.64 
L 145.07223 72.817629 
L 143.558404 72.817629 
z
" clip-path="url(#p4749079b42)" style="fill: #1f77b4"/>
   </g>
   <g id="patch_59">
    <path d="M 145.07223 224.64 
L 146.586057 224.64 
L 146.586057 101.967524 
L 145.07223 101.967524 
z
" clip-path="url(#p4749079b42)" style="fill: #1f77b4"/>
   </g>
   <g id="patch_60">
    <path d="M 146.586057 224.64 
L 148.099883 224.64 
L 148.099883 67.959313 
L 146.586057 67.959313 
z
" clip-path="url(#p4749079b42)" style="fill: #1f77b4"/>
   </g>
   <g id="patch_61">
    <path d="M 148.099883 224.64 
L 149.613709 224.64 
L 149.613709 70.388471 
L 148.099883 70.388471 
z
" clip-path="url(#p4749079b42)" style="fill: #1f77b4"/>
   </g>
   <g id="patch_62">
    <path d="M 149.613709 224.64 
L 151.127536 224.64 
L 151.127536 74.032208 
L 149.613709 74.032208 
z
" clip-path="url(#p4749079b42)" style="fill: #1f77b4"/>
   </g>
   <g id="patch_63">
    <path d="M 151.127536 224.64 
L 152.641362 224.64 
L 152.641362 70.99576 
L 151.127536 70.99576 
z
" clip-path="url(#p4749079b42)" style="fill: #1f77b4"/>
   </g>
   <g id="patch_64">
    <path d="M 152.641362 224.64 
L 154.155189 224.64 
L 154.155189 81.926971 
L 152.641362 81.926971 
z
" clip-path="url(#p4749079b42)" style="fill: #1f77b4"/>
   </g>
   <g id="patch_65">
    <path d="M 154.155189 224.64 
L 155.669015 224.64 
L 155.669015 53.991655 
L 154.155189 53.991655 
z
" clip-path="url(#p4749079b42)" style="fill: #1f77b4"/>
   </g>
   <g id="patch_66">
    <path d="M 155.669015 224.64 
L 157.182841 224.64 
L 157.182841 70.99576 
L 155.669015 70.99576 
z
" clip-path="url(#p4749079b42)" style="fill: #1f77b4"/>
   </g>
   <g id="patch_67">
    <path d="M 157.182841 224.64 
L 158.696668 224.64 
L 158.696668 63.100997 
L 157.182841 63.100997 
z
" clip-path="url(#p4749079b42)" style="fill: #1f77b4"/>
   </g>
   <g id="patch_68">
    <path d="M 158.696668 224.64 
L 160.210494 224.64 
L 160.210494 67.959313 
L 158.696668 67.959313 
z
" clip-path="url(#p4749079b42)" style="fill: #1f77b4"/>
   </g>
   <g id="patch_69">
    <path d="M 160.210494 224.64 
L 161.72432 224.64 
L 161.72432 51.562497 
L 160.210494 51.562497 
z
" clip-path="url(#p4749079b42)" style="fill: #1f77b4"/>
   </g>
   <g id="patch_70">
    <path d="M 161.72432 224.64 
L 163.238147 224.64 
L 163.238147 58.242681 
L 161.72432 58.242681 
z
" clip-path="url(#p4749079b42)" style="fill: #1f77b4"/>
   </g>
   <g id="patch_71">
    <path d="M 163.238147 224.64 
L 164.751973 224.64 
L 164.751973 52.777076 
L 163.238147 52.777076 
z
" clip-path="url(#p4749079b42)" style="fill: #1f77b4"/>
   </g>
   <g id="patch_72">
    <path d="M 164.751973 224.64 
L 166.265799 224.64 
L 166.265799 47.31147 
L 164.751973 47.31147 
z
" clip-path="url(#p4749079b42)" style="fill: #1f77b4"/>
   </g>
   <g id="patch_73">
    <path d="M 166.265799 224.64 
L 167.779626 224.64 
L 167.779626 55.206234 
L 166.265799 55.206234 
z
" clip-path="url(#p4749079b42)" style="fill: #1f77b4"/>
   </g>
   <g id="patch_74">
    <path d="M 167.779626 224.64 
L 169.293452 224.64 
L 169.293452 50.347918 
L 167.779626 50.347918 
z
" clip-path="url(#p4749079b42)" style="fill: #1f77b4"/>
   </g>
   <g id="patch_75">
    <path d="M 169.293452 224.64 
L 170.807279 224.64 
L 170.807279 44.882313 
L 169.293452 44.882313 
z
" clip-path="url(#p4749079b42)" style="fill: #1f77b4"/>
   </g>
   <g id="patch_76">
    <path d="M 170.807279 224.64 
L 172.321105 224.64 
L 172.321105 58.242681 
L 170.807279 58.242681 
z
" clip-path="url(#p4749079b42)" style="fill: #1f77b4"/>
   </g>
   <g id="patch_77">
    <path d="M 172.321105 224.64 
L 173.834931 224.64 
L 173.834931 38.202128 
L 172.321105 38.202128 
z
" clip-path="url(#p4749079b42)" style="fill: #1f77b4"/>
   </g>
   <g id="patch_78">
    <path d="M 173.834931 224.64 
L 175.348758 224.64 
L 175.348758 44.882313 
L 173.834931 44.882313 
z
" clip-path="url(#p4749079b42)" style="fill: #1f77b4"/>
   </g>
   <g id="patch_79">
    <path d="M 175.348758 224.64 
L 176.862584 224.64 
L 176.862584 40.631286 
L 175.348758 40.631286 
z
" clip-path="url(#p4749079b42)" style="fill: #1f77b4"/>
   </g>
   <g id="patch_80">
    <path d="M 176.862584 224.64 
L 178.37641 224.64 
L 178.37641 32.736523 
L 176.862584 32.736523 
z
" clip-path="url(#p4749079b42)" style="fill: #1f77b4"/>
   </g>
   <g id="patch_81">
    <path d="M 178.37641 224.64 
L 179.890237 224.64 
L 179.890237 46.096891 
L 178.37641 46.096891 
z
" clip-path="url(#p4749079b42)" style="fill: #1f77b4"/>
   </g>
   <g id="patch_82">
    <path d="M 179.890237 224.64 
L 181.404063 224.64 
L 181.404063 40.631286 
L 179.890237 40.631286 
z
" clip-path="url(#p4749079b42)" style="fill: #1f77b4"/>
   </g>
   <g id="patch_83">
    <path d="M 181.404063 224.64 
L 182.917889 224.64 
L 182.917889 35.165681 
L 181.404063 35.165681 
z
" clip-path="url(#p4749079b42)" style="fill: #1f77b4"/>
   </g>
   <g id="patch_84">
    <path d="M 182.917889 224.64 
L 184.431716 224.64 
L 184.431716 55.206234 
L 182.917889 55.206234 
z
" clip-path="url(#p4749079b42)" style="fill: #1f77b4"/>
   </g>
   <g id="patch_85">
    <path d="M 184.431716 224.64 
L 185.945542 224.64 
L 185.945542 47.91876 
L 184.431716 47.91876 
z
" clip-path="url(#p4749079b42)" style="fill: #1f77b4"/>
   </g>
   <g id="patch_86">
    <path d="M 185.945542 224.64 
L 187.459368 224.64 
L 187.459368 22.412602 
L 185.945542 22.412602 
z
" clip-path="url(#p4749079b42)" style="fill: #1f77b4"/>
   </g>
   <g id="patch_87">
    <path d="M 187.459368 224.64 
L 188.973195 224.64 
L 188.973195 41.238576 
L 187.459368 41.238576 
z
" clip-path="url(#p4749079b42)" style="fill: #1f77b4"/>
   </g>
   <g id="patch_88">
    <path d="M 188.973195 224.64 
L 190.487021 224.64 
L 190.487021 27.270917 
L 188.973195 27.270917 
z
" clip-path="url(#p4749079b42)" style="fill: #1f77b4"/>
   </g>
   <g id="patch_89">
    <path d="M 190.487021 224.64 
L 192.000848 224.64 
L 192.000848 25.449049 
L 190.487021 25.449049 
z
" clip-path="url(#p4749079b42)" style="fill: #1f77b4"/>
   </g>
   <g id="patch_90">
    <path d="M 192.000848 224.64 
L 193.514674 224.64 
L 193.514674 30.307365 
L 192.000848 30.307365 
z
" clip-path="url(#p4749079b42)" style="fill: #1f77b4"/>
   </g>
   <g id="patch_91">
    <path d="M 193.514674 224.64 
L 195.0285 224.64 
L 195.0285 18.161575 
L 193.514674 18.161575 
z
" clip-path="url(#p4749079b42)" style="fill: #1f77b4"/>
   </g>
   <g id="patch_92">
    <path d="M 195.0285 224.64 
L 196.542327 224.64 
L 196.542327 30.914654 
L 195.0285 30.914654 
z
" clip-path="url(#p4749079b42)" style="fill: #1f77b4"/>
   </g>
   <g id="patch_93">
    <path d="M 196.542327 224.64 
L 198.056153 224.64 
L 198.056153 40.631286 
L 196.542327 40.631286 
z
" clip-path="url(#p4749079b42)" style="fill: #1f77b4"/>
   </g>
   <g id="patch_94">
    <path d="M 198.056153 224.64 
L 199.569979 224.64 
L 199.569979 45.489602 
L 198.056153 45.489602 
z
" clip-path="url(#p4749079b42)" style="fill: #1f77b4"/>
   </g>
   <g id="patch_95">
    <path d="M 199.569979 224.64 
L 201.083806 224.64 
L 201.083806 31.521944 
L 199.569979 31.521944 
z
" clip-path="url(#p4749079b42)" style="fill: #1f77b4"/>
   </g>
   <g id="patch_96">
    <path d="M 201.083806 224.64 
L 202.597632 224.64 
L 202.597632 22.412602 
L 201.083806 22.412602 
z
" clip-path="url(#p4749079b42)" style="fill: #1f77b4"/>
   </g>
   <g id="patch_97">
    <path d="M 202.597632 224.64 
L 204.111458 224.64 
L 204.111458 17.554286 
L 202.597632 17.554286 
z
" clip-path="url(#p4749079b42)" style="fill: #1f77b4"/>
   </g>
   <g id="patch_98">
    <path d="M 204.111458 224.64 
L 205.625285 224.64 
L 205.625285 41.845865 
L 204.111458 41.845865 
z
" clip-path="url(#p4749079b42)" style="fill: #1f77b4"/>
   </g>
   <g id="patch_99">
    <path d="M 205.625285 224.64 
L 207.139111 224.64 
L 207.139111 36.987549 
L 205.625285 36.987549 
z
" clip-path="url(#p4749079b42)" style="fill: #1f77b4"/>
   </g>
   <g id="patch_100">
    <path d="M 207.139111 224.64 
L 208.652938 224.64 
L 208.652938 52.169786 
L 207.139111 52.169786 
z
" clip-path="url(#p4749079b42)" style="fill: #1f77b4"/>
   </g>
   <g id="patch_101">
    <path d="M 208.652938 224.64 
L 210.166764 224.64 
L 210.166764 43.667734 
L 208.652938 43.667734 
z
" clip-path="url(#p4749079b42)" style="fill: #1f77b4"/>
   </g>
   <g id="patch_102">
    <path d="M 210.166764 224.64 
L 211.68059 224.64 
L 211.68059 42.453155 
L 210.166764 42.453155 
z
" clip-path="url(#p4749079b42)" style="fill: #1f77b4"/>
   </g>
   <g id="patch_103">
    <path d="M 211.68059 224.64 
L 213.194417 224.64 
L 213.194417 33.951102 
L 211.68059 33.951102 
z
" clip-path="url(#p4749079b42)" style="fill: #1f77b4"/>
   </g>
   <g id="patch_104">
    <path d="M 213.194417 224.64 
L 214.708243 224.64 
L 214.708243 36.38026 
L 213.194417 36.38026 
z
" clip-path="url(#p4749079b42)" style="fill: #1f77b4"/>
   </g>
   <g id="patch_105">
    <path d="M 214.708243 224.64 
L 216.222069 224.64 
L 216.222069 39.416707 
L 214.708243 39.416707 
z
" clip-path="url(#p4749079b42)" style="fill: #1f77b4"/>
   </g>
   <g id="patch_106">
    <path d="M 216.222069 224.64 
L 217.735896 224.64 
L 217.735896 33.343812 
L 216.222069 33.343812 
z
" clip-path="url(#p4749079b42)" style="fill: #1f77b4"/>
   </g>
   <g id="patch_107">
    <path d="M 217.735896 224.64 
L 219.249722 224.64 
L 219.249722 19.376154 
L 217.735896 19.376154 
z
" clip-path="url(#p4749079b42)" style="fill: #1f77b4"/>
   </g>
   <g id="patch_108">
    <path d="M 219.249722 224.64 
L 220.763548 224.64 
L 220.763548 19.983444 
L 219.249722 19.983444 
z
" clip-path="url(#p4749079b42)" style="fill: #1f77b4"/>
   </g>
   <g id="patch_109">
    <path d="M 220.763548 224.64 
L 222.277375 224.64 
L 222.277375 19.376154 
L 220.763548 19.376154 
z
" clip-path="url(#p4749079b42)" style="fill: #1f77b4"/>
   </g>
   <g id="patch_110">
    <path d="M 222.277375 224.64 
L 223.791201 224.64 
L 223.791201 44.882313 
L 222.277375 44.882313 
z
" clip-path="url(#p4749079b42)" style="fill: #1f77b4"/>
   </g>
   <g id="patch_111">
    <path d="M 223.791201 224.64 
L 225.305028 224.64 
L 225.305028 34.558391 
L 223.791201 34.558391 
z
" clip-path="url(#p4749079b42)" style="fill: #1f77b4"/>
   </g>
   <g id="patch_112">
    <path d="M 225.305028 224.64 
L 226.818854 224.64 
L 226.818854 31.521944 
L 225.305028 31.521944 
z
" clip-path="url(#p4749079b42)" style="fill: #1f77b4"/>
   </g>
   <g id="patch_113">
    <path d="M 226.818854 224.64 
L 228.33268 224.64 
L 228.33268 23.627181 
L 226.818854 23.627181 
z
" clip-path="url(#p4749079b42)" style="fill: #1f77b4"/>
   </g>
   <g id="patch_114">
    <path d="M 228.33268 224.64 
L 229.846507 224.64 
L 229.846507 52.777076 
L 228.33268 52.777076 
z
" clip-path="url(#p4749079b42)" style="fill: #1f77b4"/>
   </g>
   <g id="patch_115">
    <path d="M 229.846507 224.64 
L 231.360333 224.64 
L 231.360333 40.023997 
L 229.846507 40.023997 
z
" clip-path="url(#p4749079b42)" style="fill: #1f77b4"/>
   </g>
   <g id="patch_116">
    <path d="M 231.360333 224.64 
L 232.874159 224.64 
L 232.874159 50.347918 
L 231.360333 50.347918 
z
" clip-path="url(#p4749079b42)" style="fill: #1f77b4"/>
   </g>
   <g id="patch_117">
    <path d="M 232.874159 224.64 
L 234.387986 224.64 
L 234.387986 53.384365 
L 232.874159 53.384365 
z
" clip-path="url(#p4749079b42)" style="fill: #1f77b4"/>
   </g>
   <g id="patch_118">
    <path d="M 234.387986 224.64 
L 235.901812 224.64 
L 235.901812 48.526049 
L 234.387986 48.526049 
z
" clip-path="url(#p4749079b42)" style="fill: #1f77b4"/>
   </g>
   <g id="patch_119">
    <path d="M 235.901812 224.64 
L 237.415638 224.64 
L 237.415638 27.270917 
L 235.901812 27.270917 
z
" clip-path="url(#p4749079b42)" style="fill: #1f77b4"/>
   </g>
   <g id="patch_120">
    <path d="M 237.415638 224.64 
L 238.929465 224.64 
L 238.929465 46.096891 
L 237.415638 46.096891 
z
" clip-path="url(#p4749079b42)" style="fill: #1f77b4"/>
   </g>
   <g id="patch_121">
    <path d="M 238.929465 224.64 
L 240.443291 224.64 
L 240.443291 49.133339 
L 238.929465 49.133339 
z
" clip-path="url(#p4749079b42)" style="fill: #1f77b4"/>
   </g>
   <g id="patch_122">
    <path d="M 240.443291 224.64 
L 241.957118 224.64 
L 241.957118 42.453155 
L 240.443291 42.453155 
z
" clip-path="url(#p4749079b42)" style="fill: #1f77b4"/>
   </g>
   <g id="patch_123">
    <path d="M 241.957118 224.64 
L 243.470944 224.64 
L 243.470944 57.028102 
L 241.957118 57.028102 
z
" clip-path="url(#p4749079b42)" style="fill: #1f77b4"/>
   </g>
   <g id="patch_124">
    <path d="M 243.470944 224.64 
L 244.98477 224.64 
L 244.98477 35.77297 
L 243.470944 35.77297 
z
" clip-path="url(#p4749079b42)" style="fill: #1f77b4"/>
   </g>
   <g id="patch_125">
    <path d="M 244.98477 224.64 
L 246.498597 224.64 
L 246.498597 48.526049 
L 244.98477 48.526049 
z
" clip-path="url(#p4749079b42)" style="fill: #1f77b4"/>
   </g>
   <g id="patch_126">
    <path d="M 246.498597 224.64 
L 248.012423 224.64 
L 248.012423 40.631286 
L 246.498597 40.631286 
z
" clip-path="url(#p4749079b42)" style="fill: #1f77b4"/>
   </g>
   <g id="patch_127">
    <path d="M 248.012423 224.64 
L 249.526249 224.64 
L 249.526249 64.315576 
L 248.012423 64.315576 
z
" clip-path="url(#p4749079b42)" style="fill: #1f77b4"/>
   </g>
   <g id="patch_128">
    <path d="M 249.526249 224.64 
L 251.040076 224.64 
L 251.040076 59.45726 
L 249.526249 59.45726 
z
" clip-path="url(#p4749079b42)" style="fill: #1f77b4"/>
   </g>
   <g id="patch_129">
    <path d="M 251.040076 224.64 
L 252.553902 224.64 
L 252.553902 62.493708 
L 251.040076 62.493708 
z
" clip-path="url(#p4749079b42)" style="fill: #1f77b4"/>
   </g>
   <g id="patch_130">
    <path d="M 252.553902 224.64 
L 254.067728 224.64 
L 254.067728 56.420813 
L 252.553902 56.420813 
z
" clip-path="url(#p4749079b42)" style="fill: #1f77b4"/>
   </g>
   <g id="patch_131">
    <path d="M 254.067728 224.64 
L 255.581555 224.64 
L 255.581555 76.461366 
L 254.067728 76.461366 
z
" clip-path="url(#p4749079b42)" style="fill: #1f77b4"/>
   </g>
   <g id="patch_132">
    <path d="M 255.581555 224.64 
L 257.095381 224.64 
L 257.095381 55.813523 
L 255.581555 55.813523 
z
" clip-path="url(#p4749079b42)" style="fill: #1f77b4"/>
   </g>
   <g id="patch_133">
    <path d="M 257.095381 224.64 
L 258.609207 224.64 
L 258.609207 70.388471 
L 257.095381 70.388471 
z
" clip-path="url(#p4749079b42)" style="fill: #1f77b4"/>
   </g>
   <g id="patch_134">
    <path d="M 258.609207 224.64 
L 260.123034 224.64 
L 260.123034 71.60305 
L 258.609207 71.60305 
z
" clip-path="url(#p4749079b42)" style="fill: #1f77b4"/>
   </g>
   <g id="patch_135">
    <path d="M 260.123034 224.64 
L 261.63686 224.64 
L 261.63686 68.566602 
L 260.123034 68.566602 
z
" clip-path="url(#p4749079b42)" style="fill: #1f77b4"/>
   </g>
   <g id="patch_136">
    <path d="M 261.63686 224.64 
L 263.150687 224.64 
L 263.150687 69.173892 
L 261.63686 69.173892 
z
" clip-path="url(#p4749079b42)" style="fill: #1f77b4"/>
   </g>
   <g id="patch_137">
    <path d="M 263.150687 224.64 
L 264.664513 224.64 
L 264.664513 77.068655 
L 263.150687 77.068655 
z
" clip-path="url(#p4749079b42)" style="fill: #1f77b4"/>
   </g>
   <g id="patch_138">
    <path d="M 264.664513 224.64 
L 266.178339 224.64 
L 266.178339 63.708287 
L 264.664513 63.708287 
z
" clip-path="url(#p4749079b42)" style="fill: #1f77b4"/>
   </g>
   <g id="patch_139">
    <path d="M 266.178339 224.64 
L 267.692166 224.64 
L 267.692166 72.817629 
L 266.178339 72.817629 
z
" clip-path="url(#p4749079b42)" style="fill: #1f77b4"/>
   </g>
   <g id="patch_140">
    <path d="M 267.692166 224.64 
L 269.205992 224.64 
L 269.205992 69.781181 
L 267.692166 69.781181 
z
" clip-path="url(#p4749079b42)" style="fill: #1f77b4"/>
   </g>
   <g id="patch_141">
    <path d="M 269.205992 224.64 
L 270.719818 224.64 
L 270.719818 69.781181 
L 269.205992 69.781181 
z
" clip-path="url(#p4749079b42)" style="fill: #1f77b4"/>
   </g>
   <g id="patch_142">
    <path d="M 270.719818 224.64 
L 272.233645 224.64 
L 272.233645 54.598944 
L 270.719818 54.598944 
z
" clip-path="url(#p4749079b42)" style="fill: #1f77b4"/>
   </g>
   <g id="patch_143">
    <path d="M 272.233645 224.64 
L 273.747471 224.64 
L 273.747471 63.708287 
L 272.233645 63.708287 
z
" clip-path="url(#p4749079b42)" style="fill: #1f77b4"/>
   </g>
   <g id="patch_144">
    <path d="M 273.747471 224.64 
L 275.261297 224.64 
L 275.261297 85.570708 
L 273.747471 85.570708 
z
" clip-path="url(#p4749079b42)" style="fill: #1f77b4"/>
   </g>
   <g id="patch_145">
    <path d="M 275.261297 224.64 
L 276.775124 224.64 
L 276.775124 78.283234 
L 275.261297 78.283234 
z
" clip-path="url(#p4749079b42)" style="fill: #1f77b4"/>
   </g>
   <g id="patch_146">
    <path d="M 276.775124 224.64 
L 278.28895 224.64 
L 278.28895 78.283234 
L 276.775124 78.283234 
z
" clip-path="url(#p4749079b42)" style="fill: #1f77b4"/>
   </g>
   <g id="patch_147">
    <path d="M 278.28895 224.64 
L 279.802777 224.64 
L 279.802777 71.60305 
L 278.28895 71.60305 
z
" clip-path="url(#p4749079b42)" style="fill: #1f77b4"/>
   </g>
   <g id="patch_148">
    <path d="M 279.802777 224.64 
L 281.316603 224.64 
L 281.316603 93.465471 
L 279.802777 93.465471 
z
" clip-path="url(#p4749079b42)" style="fill: #1f77b4"/>
   </g>
   <g id="patch_149">
    <path d="M 281.316603 224.64 
L 282.830429 224.64 
L 282.830429 80.712392 
L 281.316603 80.712392 
z
" clip-path="url(#p4749079b42)" style="fill: #1f77b4"/>
   </g>
   <g id="patch_150">
    <path d="M 282.830429 224.64 
L 284.344256 224.64 
L 284.344256 104.396682 
L 282.830429 104.396682 
z
" clip-path="url(#p4749079b42)" style="fill: #1f77b4"/>
   </g>
   <g id="patch_151">
    <path d="M 284.344256 224.64 
L 285.858082 224.64 
L 285.858082 89.214445 
L 284.344256 89.214445 
z
" clip-path="url(#p4749079b42)" style="fill: #1f77b4"/>
   </g>
   <g id="patch_152">
    <path d="M 285.858082 224.64 
L 287.371908 224.64 
L 287.371908 79.497813 
L 285.858082 79.497813 
z
" clip-path="url(#p4749079b42)" style="fill: #1f77b4"/>
   </g>
   <g id="patch_153">
    <path d="M 287.371908 224.64 
L 288.885735 224.64 
L 288.885735 98.323787 
L 287.371908 98.323787 
z
" clip-path="url(#p4749079b42)" style="fill: #1f77b4"/>
   </g>
   <g id="patch_154">
    <path d="M 288.885735 224.64 
L 290.399561 224.64 
L 290.399561 83.74884 
L 288.885735 83.74884 
z
" clip-path="url(#p4749079b42)" style="fill: #1f77b4"/>
   </g>
   <g id="patch_155">
    <path d="M 290.399561 224.64 
L 291.913387 224.64 
L 291.913387 104.396682 
L 290.399561 104.396682 
z
" clip-path="url(#p4749079b42)" style="fill: #1f77b4"/>
   </g>
   <g id="patch_156">
    <path d="M 291.913387 224.64 
L 293.427214 224.64 
L 293.427214 103.182103 
L 291.913387 103.182103 
z
" clip-path="url(#p4749079b42)" style="fill: #1f77b4"/>
   </g>
   <g id="patch_157">
    <path d="M 293.427214 224.64 
L 294.94104 224.64 
L 294.94104 105.003972 
L 293.427214 105.003972 
z
" clip-path="url(#p4749079b42)" style="fill: #1f77b4"/>
   </g>
   <g id="patch_158">
    <path d="M 294.94104 224.64 
L 296.454867 224.64 
L 296.454867 108.647708 
L 294.94104 108.647708 
z
" clip-path="url(#p4749079b42)" style="fill: #1f77b4"/>
   </g>
   <g id="patch_159">
    <path d="M 296.454867 224.64 
L 297.968693 224.64 
L 297.968693 94.072761 
L 296.454867 94.072761 
z
" clip-path="url(#p4749079b42)" style="fill: #1f77b4"/>
   </g>
   <g id="patch_160">
    <path d="M 297.968693 224.64 
L 299.482519 224.64 
L 299.482519 121.400788 
L 297.968693 121.400788 
z
" clip-path="url(#p4749079b42)" style="fill: #1f77b4"/>
   </g>
   <g id="patch_161">
    <path d="M 299.482519 224.64 
L 300.996346 224.64 
L 300.996346 93.465471 
L 299.482519 93.465471 
z
" clip-path="url(#p4749079b42)" style="fill: #1f77b4"/>
   </g>
   <g id="patch_162">
    <path d="M 300.996346 224.64 
L 302.510172 224.64 
L 302.510172 112.898735 
L 300.996346 112.898735 
z
" clip-path="url(#p4749079b42)" style="fill: #1f77b4"/>
   </g>
   <g id="patch_163">
    <path d="M 302.510172 224.64 
L 304.023998 224.64 
L 304.023998 117.149761 
L 302.510172 117.149761 
z
" clip-path="url(#p4749079b42)" style="fill: #1f77b4"/>
   </g>
   <g id="patch_164">
    <path d="M 304.023998 224.64 
L 305.537825 224.64 
L 305.537825 132.939288 
L 304.023998 132.939288 
z
" clip-path="url(#p4749079b42)" style="fill: #1f77b4"/>
   </g>
   <g id="patch_165">
    <path d="M 305.537825 224.64 
L 307.051651 224.64 
L 307.051651 124.437235 
L 305.537825 124.437235 
z
" clip-path="url(#p4749079b42)" style="fill: #1f77b4"/>
   </g>
   <g id="patch_166">
    <path d="M 307.051651 224.64 
L 308.565477 224.64 
L 308.565477 112.291445 
L 307.051651 112.291445 
z
" clip-path="url(#p4749079b42)" style="fill: #1f77b4"/>
   </g>
   <g id="patch_167">
    <path d="M 308.565477 224.64 
L 310.079304 224.64 
L 310.079304 122.615367 
L 308.565477 122.615367 
z
" clip-path="url(#p4749079b42)" style="fill: #1f77b4"/>
   </g>
   <g id="patch_168">
    <path d="M 310.079304 224.64 
L 311.59313 224.64 
L 311.59313 131.117419 
L 310.079304 131.117419 
z
" clip-path="url(#p4749079b42)" style="fill: #1f77b4"/>
   </g>
   <g id="patch_169">
    <path d="M 311.59313 224.64 
L 313.106957 224.64 
L 313.106957 152.979841 
L 311.59313 152.979841 
z
" clip-path="url(#p4749079b42)" style="fill: #1f77b4"/>
   </g>
   <g id="patch_170">
    <path d="M 313.106957 224.64 
L 314.620783 224.64 
L 314.620783 142.65592 
L 313.106957 142.65592 
z
" clip-path="url(#p4749079b42)" style="fill: #1f77b4"/>
   </g>
   <g id="patch_171">
    <path d="M 314.620783 224.64 
L 316.134609 224.64 
L 316.134609 136.583025 
L 314.620783 136.583025 
z
" clip-path="url(#p4749079b42)" style="fill: #1f77b4"/>
   </g>
   <g id="patch_172">
    <path d="M 316.134609 224.64 
L 317.648436 224.64 
L 317.648436 134.761156 
L 316.134609 134.761156 
z
" clip-path="url(#p4749079b42)" style="fill: #1f77b4"/>
   </g>
   <g id="patch_173">
    <path d="M 317.648436 224.64 
L 319.162262 224.64 
L 319.162262 140.834051 
L 317.648436 140.834051 
z
" clip-path="url(#p4749079b42)" style="fill: #1f77b4"/>
   </g>
   <g id="patch_174">
    <path d="M 319.162262 224.64 
L 320.676088 224.64 
L 320.676088 151.765262 
L 319.162262 151.765262 
z
" clip-path="url(#p4749079b42)" style="fill: #1f77b4"/>
   </g>
   <g id="patch_175">
    <path d="M 320.676088 224.64 
L 322.189915 224.64 
L 322.189915 144.477788 
L 320.676088 144.477788 
z
" clip-path="url(#p4749079b42)" style="fill: #1f77b4"/>
   </g>
   <g id="patch_176">
    <path d="M 322.189915 224.64 
L 323.703741 224.64 
L 323.703741 146.906946 
L 322.189915 146.906946 
z
" clip-path="url(#p4749079b42)" style="fill: #1f77b4"/>
   </g>
   <g id="patch_177">
    <path d="M 323.703741 224.64 
L 325.217567 224.64 
L 325.217567 146.299656 
L 323.703741 146.299656 
z
" clip-path="url(#p4749079b42)" style="fill: #1f77b4"/>
   </g>
   <g id="patch_178">
    <path d="M 325.217567 224.64 
L 326.731394 224.64 
L 326.731394 151.765262 
L 325.217567 151.765262 
z
" clip-path="url(#p4749079b42)" style="fill: #1f77b4"/>
   </g>
   <g id="patch_179">
    <path d="M 326.731394 224.64 
L 328.24522 224.64 
L 328.24522 154.19442 
L 326.731394 154.19442 
z
" clip-path="url(#p4749079b42)" style="fill: #1f77b4"/>
   </g>
   <g id="patch_180">
    <path d="M 328.24522 224.64 
L 329.759046 224.64 
L 329.759046 169.983946 
L 328.24522 169.983946 
z
" clip-path="url(#p4749079b42)" style="fill: #1f77b4"/>
   </g>
   <g id="patch_181">
    <path d="M 329.759046 224.64 
L 331.272873 224.64 
L 331.272873 161.481894 
L 329.759046 161.481894 
z
" clip-path="url(#p4749079b42)" style="fill: #1f77b4"/>
   </g>
   <g id="patch_182">
    <path d="M 331.272873 224.64 
L 332.786699 224.64 
L 332.786699 160.267315 
L 331.272873 160.267315 
z
" clip-path="url(#p4749079b42)" style="fill: #1f77b4"/>
   </g>
   <g id="patch_183">
    <path d="M 332.786699 224.64 
L 334.300526 224.64 
L 334.300526 173.020394 
L 332.786699 173.020394 
z
" clip-path="url(#p4749079b42)" style="fill: #1f77b4"/>
   </g>
   <g id="patch_184">
    <path d="M 334.300526 224.64 
L 335.814352 224.64 
L 335.814352 169.983946 
L 334.300526 169.983946 
z
" clip-path="url(#p4749079b42)" style="fill: #1f77b4"/>
   </g>
   <g id="patch_185">
    <path d="M 335.814352 224.64 
L 337.328178 224.64 
L 337.328178 173.020394 
L 335.814352 173.020394 
z
" clip-path="url(#p4749079b42)" style="fill: #1f77b4"/>
   </g>
   <g id="patch_186">
    <path d="M 337.328178 224.64 
L 338.842005 224.64 
L 338.842005 169.376657 
L 337.328178 169.376657 
z
" clip-path="url(#p4749079b42)" style="fill: #1f77b4"/>
   </g>
   <g id="patch_187">
    <path d="M 338.842005 224.64 
L 340.355831 224.64 
L 340.355831 176.056841 
L 338.842005 176.056841 
z
" clip-path="url(#p4749079b42)" style="fill: #1f77b4"/>
   </g>
   <g id="patch_188">
    <path d="M 340.355831 224.64 
L 341.869657 224.64 
L 341.869657 174.842262 
L 340.355831 174.842262 
z
" clip-path="url(#p4749079b42)" style="fill: #1f77b4"/>
   </g>
   <g id="patch_189">
    <path d="M 341.869657 224.64 
L 343.383484 224.64 
L 343.383484 185.166183 
L 341.869657 185.166183 
z
" clip-path="url(#p4749079b42)" style="fill: #1f77b4"/>
   </g>
   <g id="patch_190">
    <path d="M 343.383484 224.64 
L 344.89731 224.64 
L 344.89731 185.773473 
L 343.383484 185.773473 
z
" clip-path="url(#p4749079b42)" style="fill: #1f77b4"/>
   </g>
   <g id="patch_191">
    <path d="M 344.89731 224.64 
L 346.411136 224.64 
L 346.411136 184.558894 
L 344.89731 184.558894 
z
" clip-path="url(#p4749079b42)" style="fill: #1f77b4"/>
   </g>
   <g id="patch_192">
    <path d="M 346.411136 224.64 
L 347.924963 224.64 
L 347.924963 183.951605 
L 346.411136 183.951605 
z
" clip-path="url(#p4749079b42)" style="fill: #1f77b4"/>
   </g>
   <g id="patch_193">
    <path d="M 347.924963 224.64 
L 349.438789 224.64 
L 349.438789 197.919263 
L 347.924963 197.919263 
z
" clip-path="url(#p4749079b42)" style="fill: #1f77b4"/>
   </g>
   <g id="patch_194">
    <path d="M 349.438789 224.64 
L 350.952616 224.64 
L 350.952616 201.563 
L 349.438789 201.563 
z
" clip-path="url(#p4749079b42)" style="fill: #1f77b4"/>
   </g>
   <g id="patch_195">
    <path d="M 350.952616 224.64 
L 352.466442 224.64 
L 352.466442 202.170289 
L 350.952616 202.170289 
z
" clip-path="url(#p4749079b42)" style="fill: #1f77b4"/>
   </g>
   <g id="patch_196">
    <path d="M 352.466442 224.64 
L 353.980268 224.64 
L 353.980268 208.243184 
L 352.466442 208.243184 
z
" clip-path="url(#p4749079b42)" style="fill: #1f77b4"/>
   </g>
   <g id="patch_197">
    <path d="M 353.980268 224.64 
L 355.494095 224.64 
L 355.494095 210.065052 
L 353.980268 210.065052 
z
" clip-path="url(#p4749079b42)" style="fill: #1f77b4"/>
   </g>
   <g id="patch_198">
    <path d="M 355.494095 224.64 
L 357.007921 224.64 
L 357.007921 210.672342 
L 355.494095 210.672342 
z
" clip-path="url(#p4749079b42)" style="fill: #1f77b4"/>
   </g>
   <g id="patch_199">
    <path d="M 357.007921 224.64 
L 358.521747 224.64 
L 358.521747 205.206736 
L 357.007921 205.206736 
z
" clip-path="url(#p4749079b42)" style="fill: #1f77b4"/>
   </g>
   <g id="patch_200">
    <path d="M 358.521747 224.64 
L 360.035574 224.64 
L 360.035574 215.530658 
L 358.521747 215.530658 
z
" clip-path="url(#p4749079b42)" style="fill: #1f77b4"/>
   </g>
   <g id="patch_201">
    <path d="M 360.035574 224.64 
L 361.5494 224.64 
L 361.5494 220.388974 
L 360.035574 220.388974 
z
" clip-path="url(#p4749079b42)" style="fill: #1f77b4"/>
   </g>
   <g id="patch_202">
    <path d="M 361.5494 224.64 
L 363.063226 224.64 
L 363.063226 220.996263 
L 361.5494 220.996263 
z
" clip-path="url(#p4749079b42)" style="fill: #1f77b4"/>
   </g>
   <g id="matplotlib.axis_1">
    <g id="xtick_1">
     <g id="line2d_1">
      <defs>
       <path id="m79b1036796" d="M 0 0 
L 0 3.5 
" style="stroke: #000000; stroke-width: 0.8"/>
      </defs>
      <g>
       <use xlink:href="#m79b1036796" x="58.999432" y="224.64" style="stroke: #000000; stroke-width: 0.8"/>
      </g>
     </g>
     <g id="text_1">
      <!-- 0.0 -->
      <g transform="translate(51.047869 239.238437)scale(0.1 -0.1)">
       <defs>
        <path id="DejaVuSans-30" d="M 2034 4250 
Q 1547 4250 1301 3770 
Q 1056 3291 1056 2328 
Q 1056 1369 1301 889 
Q 1547 409 2034 409 
Q 2525 409 2770 889 
Q 3016 1369 3016 2328 
Q 3016 3291 2770 3770 
Q 2525 4250 2034 4250 
z
M 2034 4750 
Q 2819 4750 3233 4129 
Q 3647 3509 3647 2328 
Q 3647 1150 3233 529 
Q 2819 -91 2034 -91 
Q 1250 -91 836 529 
Q 422 1150 422 2328 
Q 422 3509 836 4129 
Q 1250 4750 2034 4750 
z
" transform="scale(0.015625)"/>
        <path id="DejaVuSans-2e" d="M 684 794 
L 1344 794 
L 1344 0 
L 684 0 
L 684 794 
z
" transform="scale(0.015625)"/>
       </defs>
       <use xlink:href="#DejaVuSans-30"/>
       <use xlink:href="#DejaVuSans-2e" x="63.623047"/>
       <use xlink:href="#DejaVuSans-30" x="95.410156"/>
      </g>
     </g>
    </g>
    <g id="xtick_2">
     <g id="line2d_2">
      <g>
       <use xlink:href="#m79b1036796" x="97.752214" y="224.64" style="stroke: #000000; stroke-width: 0.8"/>
      </g>
     </g>
     <g id="text_2">
      <!-- 0.2 -->
      <g transform="translate(89.800651 239.238437)scale(0.1 -0.1)">
       <defs>
        <path id="DejaVuSans-32" d="M 1228 531 
L 3431 531 
L 3431 0 
L 469 0 
L 469 531 
Q 828 903 1448 1529 
Q 2069 2156 2228 2338 
Q 2531 2678 2651 2914 
Q 2772 3150 2772 3378 
Q 2772 3750 2511 3984 
Q 2250 4219 1831 4219 
Q 1534 4219 1204 4116 
Q 875 4013 500 3803 
L 500 4441 
Q 881 4594 1212 4672 
Q 1544 4750 1819 4750 
Q 2544 4750 2975 4387 
Q 3406 4025 3406 3419 
Q 3406 3131 3298 2873 
Q 3191 2616 2906 2266 
Q 2828 2175 2409 1742 
Q 1991 1309 1228 531 
z
" transform="scale(0.015625)"/>
       </defs>
       <use xlink:href="#DejaVuSans-30"/>
       <use xlink:href="#DejaVuSans-2e" x="63.623047"/>
       <use xlink:href="#DejaVuSans-32" x="95.410156"/>
      </g>
     </g>
    </g>
    <g id="xtick_3">
     <g id="line2d_3">
      <g>
       <use xlink:href="#m79b1036796" x="136.504995" y="224.64" style="stroke: #000000; stroke-width: 0.8"/>
      </g>
     </g>
     <g id="text_3">
      <!-- 0.4 -->
      <g transform="translate(128.553433 239.238437)scale(0.1 -0.1)">
       <defs>
        <path id="DejaVuSans-34" d="M 2419 4116 
L 825 1625 
L 2419 1625 
L 2419 4116 
z
M 2253 4666 
L 3047 4666 
L 3047 1625 
L 3713 1625 
L 3713 1100 
L 3047 1100 
L 3047 0 
L 2419 0 
L 2419 1100 
L 313 1100 
L 313 1709 
L 2253 4666 
z
" transform="scale(0.015625)"/>
       </defs>
       <use xlink:href="#DejaVuSans-30"/>
       <use xlink:href="#DejaVuSans-2e" x="63.623047"/>
       <use xlink:href="#DejaVuSans-34" x="95.410156"/>
      </g>
     </g>
    </g>
    <g id="xtick_4">
     <g id="line2d_4">
      <g>
       <use xlink:href="#m79b1036796" x="175.257777" y="224.64" style="stroke: #000000; stroke-width: 0.8"/>
      </g>
     </g>
     <g id="text_4">
      <!-- 0.6 -->
      <g transform="translate(167.306215 239.238437)scale(0.1 -0.1)">
       <defs>
        <path id="DejaVuSans-36" d="M 2113 2584 
Q 1688 2584 1439 2293 
Q 1191 2003 1191 1497 
Q 1191 994 1439 701 
Q 1688 409 2113 409 
Q 2538 409 2786 701 
Q 3034 994 3034 1497 
Q 3034 2003 2786 2293 
Q 2538 2584 2113 2584 
z
M 3366 4563 
L 3366 3988 
Q 3128 4100 2886 4159 
Q 2644 4219 2406 4219 
Q 1781 4219 1451 3797 
Q 1122 3375 1075 2522 
Q 1259 2794 1537 2939 
Q 1816 3084 2150 3084 
Q 2853 3084 3261 2657 
Q 3669 2231 3669 1497 
Q 3669 778 3244 343 
Q 2819 -91 2113 -91 
Q 1303 -91 875 529 
Q 447 1150 447 2328 
Q 447 3434 972 4092 
Q 1497 4750 2381 4750 
Q 2619 4750 2861 4703 
Q 3103 4656 3366 4563 
z
" transform="scale(0.015625)"/>
       </defs>
       <use xlink:href="#DejaVuSans-30"/>
       <use xlink:href="#DejaVuSans-2e" x="63.623047"/>
       <use xlink:href="#DejaVuSans-36" x="95.410156"/>
      </g>
     </g>
    </g>
    <g id="xtick_5">
     <g id="line2d_5">
      <g>
       <use xlink:href="#m79b1036796" x="214.010559" y="224.64" style="stroke: #000000; stroke-width: 0.8"/>
      </g>
     </g>
     <g id="text_5">
      <!-- 0.8 -->
      <g transform="translate(206.058996 239.238437)scale(0.1 -0.1)">
       <defs>
        <path id="DejaVuSans-38" d="M 2034 2216 
Q 1584 2216 1326 1975 
Q 1069 1734 1069 1313 
Q 1069 891 1326 650 
Q 1584 409 2034 409 
Q 2484 409 2743 651 
Q 3003 894 3003 1313 
Q 3003 1734 2745 1975 
Q 2488 2216 2034 2216 
z
M 1403 2484 
Q 997 2584 770 2862 
Q 544 3141 544 3541 
Q 544 4100 942 4425 
Q 1341 4750 2034 4750 
Q 2731 4750 3128 4425 
Q 3525 4100 3525 3541 
Q 3525 3141 3298 2862 
Q 3072 2584 2669 2484 
Q 3125 2378 3379 2068 
Q 3634 1759 3634 1313 
Q 3634 634 3220 271 
Q 2806 -91 2034 -91 
Q 1263 -91 848 271 
Q 434 634 434 1313 
Q 434 1759 690 2068 
Q 947 2378 1403 2484 
z
M 1172 3481 
Q 1172 3119 1398 2916 
Q 1625 2713 2034 2713 
Q 2441 2713 2670 2916 
Q 2900 3119 2900 3481 
Q 2900 3844 2670 4047 
Q 2441 4250 2034 4250 
Q 1625 4250 1398 4047 
Q 1172 3844 1172 3481 
z
" transform="scale(0.015625)"/>
       </defs>
       <use xlink:href="#DejaVuSans-30"/>
       <use xlink:href="#DejaVuSans-2e" x="63.623047"/>
       <use xlink:href="#DejaVuSans-38" x="95.410156"/>
      </g>
     </g>
    </g>
    <g id="xtick_6">
     <g id="line2d_6">
      <g>
       <use xlink:href="#m79b1036796" x="252.763341" y="224.64" style="stroke: #000000; stroke-width: 0.8"/>
      </g>
     </g>
     <g id="text_6">
      <!-- 1.0 -->
      <g transform="translate(244.811778 239.238437)scale(0.1 -0.1)">
       <defs>
        <path id="DejaVuSans-31" d="M 794 531 
L 1825 531 
L 1825 4091 
L 703 3866 
L 703 4441 
L 1819 4666 
L 2450 4666 
L 2450 531 
L 3481 531 
L 3481 0 
L 794 0 
L 794 531 
z
" transform="scale(0.015625)"/>
       </defs>
       <use xlink:href="#DejaVuSans-31"/>
       <use xlink:href="#DejaVuSans-2e" x="63.623047"/>
       <use xlink:href="#DejaVuSans-30" x="95.410156"/>
      </g>
     </g>
    </g>
    <g id="xtick_7">
     <g id="line2d_7">
      <g>
       <use xlink:href="#m79b1036796" x="291.516122" y="224.64" style="stroke: #000000; stroke-width: 0.8"/>
      </g>
     </g>
     <g id="text_7">
      <!-- 1.2 -->
      <g transform="translate(283.56456 239.238437)scale(0.1 -0.1)">
       <use xlink:href="#DejaVuSans-31"/>
       <use xlink:href="#DejaVuSans-2e" x="63.623047"/>
       <use xlink:href="#DejaVuSans-32" x="95.410156"/>
      </g>
     </g>
    </g>
    <g id="xtick_8">
     <g id="line2d_8">
      <g>
       <use xlink:href="#m79b1036796" x="330.268904" y="224.64" style="stroke: #000000; stroke-width: 0.8"/>
      </g>
     </g>
     <g id="text_8">
      <!-- 1.4 -->
      <g transform="translate(322.317342 239.238437)scale(0.1 -0.1)">
       <use xlink:href="#DejaVuSans-31"/>
       <use xlink:href="#DejaVuSans-2e" x="63.623047"/>
       <use xlink:href="#DejaVuSans-34" x="95.410156"/>
      </g>
     </g>
    </g>
    <g id="xtick_9">
     <g id="line2d_9">
      <g>
       <use xlink:href="#m79b1036796" x="369.021686" y="224.64" style="stroke: #000000; stroke-width: 0.8"/>
      </g>
     </g>
     <g id="text_9">
      <!-- 1.6 -->
      <g transform="translate(361.070124 239.238437)scale(0.1 -0.1)">
       <use xlink:href="#DejaVuSans-31"/>
       <use xlink:href="#DejaVuSans-2e" x="63.623047"/>
       <use xlink:href="#DejaVuSans-36" x="95.410156"/>
      </g>
     </g>
    </g>
    <g id="text_10">
     <!-- Angle with normal (rad) -->
     <g transform="translate(151.863281 252.916562)scale(0.1 -0.1)">
      <defs>
       <path id="DejaVuSans-41" d="M 2188 4044 
L 1331 1722 
L 3047 1722 
L 2188 4044 
z
M 1831 4666 
L 2547 4666 
L 4325 0 
L 3669 0 
L 3244 1197 
L 1141 1197 
L 716 0 
L 50 0 
L 1831 4666 
z
" transform="scale(0.015625)"/>
       <path id="DejaVuSans-6e" d="M 3513 2113 
L 3513 0 
L 2938 0 
L 2938 2094 
Q 2938 2591 2744 2837 
Q 2550 3084 2163 3084 
Q 1697 3084 1428 2787 
Q 1159 2491 1159 1978 
L 1159 0 
L 581 0 
L 581 3500 
L 1159 3500 
L 1159 2956 
Q 1366 3272 1645 3428 
Q 1925 3584 2291 3584 
Q 2894 3584 3203 3211 
Q 3513 2838 3513 2113 
z
" transform="scale(0.015625)"/>
       <path id="DejaVuSans-67" d="M 2906 1791 
Q 2906 2416 2648 2759 
Q 2391 3103 1925 3103 
Q 1463 3103 1205 2759 
Q 947 2416 947 1791 
Q 947 1169 1205 825 
Q 1463 481 1925 481 
Q 2391 481 2648 825 
Q 2906 1169 2906 1791 
z
M 3481 434 
Q 3481 -459 3084 -895 
Q 2688 -1331 1869 -1331 
Q 1566 -1331 1297 -1286 
Q 1028 -1241 775 -1147 
L 775 -588 
Q 1028 -725 1275 -790 
Q 1522 -856 1778 -856 
Q 2344 -856 2625 -561 
Q 2906 -266 2906 331 
L 2906 616 
Q 2728 306 2450 153 
Q 2172 0 1784 0 
Q 1141 0 747 490 
Q 353 981 353 1791 
Q 353 2603 747 3093 
Q 1141 3584 1784 3584 
Q 2172 3584 2450 3431 
Q 2728 3278 2906 2969 
L 2906 3500 
L 3481 3500 
L 3481 434 
z
" transform="scale(0.015625)"/>
       <path id="DejaVuSans-6c" d="M 603 4863 
L 1178 4863 
L 1178 0 
L 603 0 
L 603 4863 
z
" transform="scale(0.015625)"/>
       <path id="DejaVuSans-65" d="M 3597 1894 
L 3597 1613 
L 953 1613 
Q 991 1019 1311 708 
Q 1631 397 2203 397 
Q 2534 397 2845 478 
Q 3156 559 3463 722 
L 3463 178 
Q 3153 47 2828 -22 
Q 2503 -91 2169 -91 
Q 1331 -91 842 396 
Q 353 884 353 1716 
Q 353 2575 817 3079 
Q 1281 3584 2069 3584 
Q 2775 3584 3186 3129 
Q 3597 2675 3597 1894 
z
M 3022 2063 
Q 3016 2534 2758 2815 
Q 2500 3097 2075 3097 
Q 1594 3097 1305 2825 
Q 1016 2553 972 2059 
L 3022 2063 
z
" transform="scale(0.015625)"/>
       <path id="DejaVuSans-20" transform="scale(0.015625)"/>
       <path id="DejaVuSans-77" d="M 269 3500 
L 844 3500 
L 1563 769 
L 2278 3500 
L 2956 3500 
L 3675 769 
L 4391 3500 
L 4966 3500 
L 4050 0 
L 3372 0 
L 2619 2869 
L 1863 0 
L 1184 0 
L 269 3500 
z
" transform="scale(0.015625)"/>
       <path id="DejaVuSans-69" d="M 603 3500 
L 1178 3500 
L 1178 0 
L 603 0 
L 603 3500 
z
M 603 4863 
L 1178 4863 
L 1178 4134 
L 603 4134 
L 603 4863 
z
" transform="scale(0.015625)"/>
       <path id="DejaVuSans-74" d="M 1172 4494 
L 1172 3500 
L 2356 3500 
L 2356 3053 
L 1172 3053 
L 1172 1153 
Q 1172 725 1289 603 
Q 1406 481 1766 481 
L 2356 481 
L 2356 0 
L 1766 0 
Q 1100 0 847 248 
Q 594 497 594 1153 
L 594 3053 
L 172 3053 
L 172 3500 
L 594 3500 
L 594 4494 
L 1172 4494 
z
" transform="scale(0.015625)"/>
       <path id="DejaVuSans-68" d="M 3513 2113 
L 3513 0 
L 2938 0 
L 2938 2094 
Q 2938 2591 2744 2837 
Q 2550 3084 2163 3084 
Q 1697 3084 1428 2787 
Q 1159 2491 1159 1978 
L 1159 0 
L 581 0 
L 581 4863 
L 1159 4863 
L 1159 2956 
Q 1366 3272 1645 3428 
Q 1925 3584 2291 3584 
Q 2894 3584 3203 3211 
Q 3513 2838 3513 2113 
z
" transform="scale(0.015625)"/>
       <path id="DejaVuSans-6f" d="M 1959 3097 
Q 1497 3097 1228 2736 
Q 959 2375 959 1747 
Q 959 1119 1226 758 
Q 1494 397 1959 397 
Q 2419 397 2687 759 
Q 2956 1122 2956 1747 
Q 2956 2369 2687 2733 
Q 2419 3097 1959 3097 
z
M 1959 3584 
Q 2709 3584 3137 3096 
Q 3566 2609 3566 1747 
Q 3566 888 3137 398 
Q 2709 -91 1959 -91 
Q 1206 -91 779 398 
Q 353 888 353 1747 
Q 353 2609 779 3096 
Q 1206 3584 1959 3584 
z
" transform="scale(0.015625)"/>
       <path id="DejaVuSans-72" d="M 2631 2963 
Q 2534 3019 2420 3045 
Q 2306 3072 2169 3072 
Q 1681 3072 1420 2755 
Q 1159 2438 1159 1844 
L 1159 0 
L 581 0 
L 581 3500 
L 1159 3500 
L 1159 2956 
Q 1341 3275 1631 3429 
Q 1922 3584 2338 3584 
Q 2397 3584 2469 3576 
Q 2541 3569 2628 3553 
L 2631 2963 
z
" transform="scale(0.015625)"/>
       <path id="DejaVuSans-6d" d="M 3328 2828 
Q 3544 3216 3844 3400 
Q 4144 3584 4550 3584 
Q 5097 3584 5394 3201 
Q 5691 2819 5691 2113 
L 5691 0 
L 5113 0 
L 5113 2094 
Q 5113 2597 4934 2840 
Q 4756 3084 4391 3084 
Q 3944 3084 3684 2787 
Q 3425 2491 3425 1978 
L 3425 0 
L 2847 0 
L 2847 2094 
Q 2847 2600 2669 2842 
Q 2491 3084 2119 3084 
Q 1678 3084 1418 2786 
Q 1159 2488 1159 1978 
L 1159 0 
L 581 0 
L 581 3500 
L 1159 3500 
L 1159 2956 
Q 1356 3278 1631 3431 
Q 1906 3584 2284 3584 
Q 2666 3584 2933 3390 
Q 3200 3197 3328 2828 
z
" transform="scale(0.015625)"/>
       <path id="DejaVuSans-61" d="M 2194 1759 
Q 1497 1759 1228 1600 
Q 959 1441 959 1056 
Q 959 750 1161 570 
Q 1363 391 1709 391 
Q 2188 391 2477 730 
Q 2766 1069 2766 1631 
L 2766 1759 
L 2194 1759 
z
M 3341 1997 
L 3341 0 
L 2766 0 
L 2766 531 
Q 2569 213 2275 61 
Q 1981 -91 1556 -91 
Q 1019 -91 701 211 
Q 384 513 384 1019 
Q 384 1609 779 1909 
Q 1175 2209 1959 2209 
L 2766 2209 
L 2766 2266 
Q 2766 2663 2505 2880 
Q 2244 3097 1772 3097 
Q 1472 3097 1187 3025 
Q 903 2953 641 2809 
L 641 3341 
Q 956 3463 1253 3523 
Q 1550 3584 1831 3584 
Q 2591 3584 2966 3190 
Q 3341 2797 3341 1997 
z
" transform="scale(0.015625)"/>
       <path id="DejaVuSans-28" d="M 1984 4856 
Q 1566 4138 1362 3434 
Q 1159 2731 1159 2009 
Q 1159 1288 1364 580 
Q 1569 -128 1984 -844 
L 1484 -844 
Q 1016 -109 783 600 
Q 550 1309 550 2009 
Q 550 2706 781 3412 
Q 1013 4119 1484 4856 
L 1984 4856 
z
" transform="scale(0.015625)"/>
       <path id="DejaVuSans-64" d="M 2906 2969 
L 2906 4863 
L 3481 4863 
L 3481 0 
L 2906 0 
L 2906 525 
Q 2725 213 2448 61 
Q 2172 -91 1784 -91 
Q 1150 -91 751 415 
Q 353 922 353 1747 
Q 353 2572 751 3078 
Q 1150 3584 1784 3584 
Q 2172 3584 2448 3432 
Q 2725 3281 2906 2969 
z
M 947 1747 
Q 947 1113 1208 752 
Q 1469 391 1925 391 
Q 2381 391 2643 752 
Q 2906 1113 2906 1747 
Q 2906 2381 2643 2742 
Q 2381 3103 1925 3103 
Q 1469 3103 1208 2742 
Q 947 2381 947 1747 
z
" transform="scale(0.015625)"/>
       <path id="DejaVuSans-29" d="M 513 4856 
L 1013 4856 
Q 1481 4119 1714 3412 
Q 1947 2706 1947 2009 
Q 1947 1309 1714 600 
Q 1481 -109 1013 -844 
L 513 -844 
Q 928 -128 1133 580 
Q 1338 1288 1338 2009 
Q 1338 2731 1133 3434 
Q 928 4138 513 4856 
z
" transform="scale(0.015625)"/>
      </defs>
      <use xlink:href="#DejaVuSans-41"/>
      <use xlink:href="#DejaVuSans-6e" x="68.408203"/>
      <use xlink:href="#DejaVuSans-67" x="131.787109"/>
      <use xlink:href="#DejaVuSans-6c" x="195.263672"/>
      <use xlink:href="#DejaVuSans-65" x="223.046875"/>
      <use xlink:href="#DejaVuSans-20" x="284.570312"/>
      <use xlink:href="#DejaVuSans-77" x="316.357422"/>
      <use xlink:href="#DejaVuSans-69" x="398.144531"/>
      <use xlink:href="#DejaVuSans-74" x="425.927734"/>
      <use xlink:href="#DejaVuSans-68" x="465.136719"/>
      <use xlink:href="#DejaVuSans-20" x="528.515625"/>
      <use xlink:href="#DejaVuSans-6e" x="560.302734"/>
      <use xlink:href="#DejaVuSans-6f" x="623.681641"/>
      <use xlink:href="#DejaVuSans-72" x="684.863281"/>
      <use xlink:href="#DejaVuSans-6d" x="724.226562"/>
      <use xlink:href="#DejaVuSans-61" x="821.638672"/>
      <use xlink:href="#DejaVuSans-6c" x="882.917969"/>
      <use xlink:href="#DejaVuSans-20" x="910.701172"/>
      <use xlink:href="#DejaVuSans-28" x="942.488281"/>
      <use xlink:href="#DejaVuSans-72" x="981.501953"/>
      <use xlink:href="#DejaVuSans-61" x="1022.615234"/>
      <use xlink:href="#DejaVuSans-64" x="1083.894531"/>
      <use xlink:href="#DejaVuSans-29" x="1147.371094"/>
     </g>
    </g>
   </g>
   <g id="matplotlib.axis_2">
    <g id="ytick_1">
     <g id="line2d_10">
      <defs>
       <path id="m38be3e0d80" d="M 0 0 
L -3.5 0 
" style="stroke: #000000; stroke-width: 0.8"/>
      </defs>
      <g>
       <use xlink:href="#m38be3e0d80" x="43.78125" y="224.64" style="stroke: #000000; stroke-width: 0.8"/>
      </g>
     </g>
     <g id="text_11">
      <!-- 0.0 -->
      <g transform="translate(20.878125 228.439219)scale(0.1 -0.1)">
       <use xlink:href="#DejaVuSans-30"/>
       <use xlink:href="#DejaVuSans-2e" x="63.623047"/>
       <use xlink:href="#DejaVuSans-30" x="95.410156"/>
      </g>
     </g>
    </g>
    <g id="ytick_2">
     <g id="line2d_11">
      <g>
       <use xlink:href="#m38be3e0d80" x="43.78125" y="186.683258" style="stroke: #000000; stroke-width: 0.8"/>
      </g>
     </g>
     <g id="text_12">
      <!-- 0.2 -->
      <g transform="translate(20.878125 190.482477)scale(0.1 -0.1)">
       <use xlink:href="#DejaVuSans-30"/>
       <use xlink:href="#DejaVuSans-2e" x="63.623047"/>
       <use xlink:href="#DejaVuSans-32" x="95.410156"/>
      </g>
     </g>
    </g>
    <g id="ytick_3">
     <g id="line2d_12">
      <g>
       <use xlink:href="#m38be3e0d80" x="43.78125" y="148.726517" style="stroke: #000000; stroke-width: 0.8"/>
      </g>
     </g>
     <g id="text_13">
      <!-- 0.4 -->
      <g transform="translate(20.878125 152.525735)scale(0.1 -0.1)">
       <use xlink:href="#DejaVuSans-30"/>
       <use xlink:href="#DejaVuSans-2e" x="63.623047"/>
       <use xlink:href="#DejaVuSans-34" x="95.410156"/>
      </g>
     </g>
    </g>
    <g id="ytick_4">
     <g id="line2d_13">
      <g>
       <use xlink:href="#m38be3e0d80" x="43.78125" y="110.769775" style="stroke: #000000; stroke-width: 0.8"/>
      </g>
     </g>
     <g id="text_14">
      <!-- 0.6 -->
      <g transform="translate(20.878125 114.568994)scale(0.1 -0.1)">
       <use xlink:href="#DejaVuSans-30"/>
       <use xlink:href="#DejaVuSans-2e" x="63.623047"/>
       <use xlink:href="#DejaVuSans-36" x="95.410156"/>
      </g>
     </g>
    </g>
    <g id="ytick_5">
     <g id="line2d_14">
      <g>
       <use xlink:href="#m38be3e0d80" x="43.78125" y="72.813033" style="stroke: #000000; stroke-width: 0.8"/>
      </g>
     </g>
     <g id="text_15">
      <!-- 0.8 -->
      <g transform="translate(20.878125 76.612252)scale(0.1 -0.1)">
       <use xlink:href="#DejaVuSans-30"/>
       <use xlink:href="#DejaVuSans-2e" x="63.623047"/>
       <use xlink:href="#DejaVuSans-38" x="95.410156"/>
      </g>
     </g>
    </g>
    <g id="ytick_6">
     <g id="line2d_15">
      <g>
       <use xlink:href="#m38be3e0d80" x="43.78125" y="34.856291" style="stroke: #000000; stroke-width: 0.8"/>
      </g>
     </g>
     <g id="text_16">
      <!-- 1.0 -->
      <g transform="translate(20.878125 38.65551)scale(0.1 -0.1)">
       <use xlink:href="#DejaVuSans-31"/>
       <use xlink:href="#DejaVuSans-2e" x="63.623047"/>
       <use xlink:href="#DejaVuSans-30" x="95.410156"/>
      </g>
     </g>
    </g>
    <g id="text_17">
     <!-- Probability density -->
     <g transform="translate(14.798438 162.270781)rotate(-90)scale(0.1 -0.1)">
      <defs>
       <path id="DejaVuSans-50" d="M 1259 4147 
L 1259 2394 
L 2053 2394 
Q 2494 2394 2734 2622 
Q 2975 2850 2975 3272 
Q 2975 3691 2734 3919 
Q 2494 4147 2053 4147 
L 1259 4147 
z
M 628 4666 
L 2053 4666 
Q 2838 4666 3239 4311 
Q 3641 3956 3641 3272 
Q 3641 2581 3239 2228 
Q 2838 1875 2053 1875 
L 1259 1875 
L 1259 0 
L 628 0 
L 628 4666 
z
" transform="scale(0.015625)"/>
       <path id="DejaVuSans-62" d="M 3116 1747 
Q 3116 2381 2855 2742 
Q 2594 3103 2138 3103 
Q 1681 3103 1420 2742 
Q 1159 2381 1159 1747 
Q 1159 1113 1420 752 
Q 1681 391 2138 391 
Q 2594 391 2855 752 
Q 3116 1113 3116 1747 
z
M 1159 2969 
Q 1341 3281 1617 3432 
Q 1894 3584 2278 3584 
Q 2916 3584 3314 3078 
Q 3713 2572 3713 1747 
Q 3713 922 3314 415 
Q 2916 -91 2278 -91 
Q 1894 -91 1617 61 
Q 1341 213 1159 525 
L 1159 0 
L 581 0 
L 581 4863 
L 1159 4863 
L 1159 2969 
z
" transform="scale(0.015625)"/>
       <path id="DejaVuSans-79" d="M 2059 -325 
Q 1816 -950 1584 -1140 
Q 1353 -1331 966 -1331 
L 506 -1331 
L 506 -850 
L 844 -850 
Q 1081 -850 1212 -737 
Q 1344 -625 1503 -206 
L 1606 56 
L 191 3500 
L 800 3500 
L 1894 763 
L 2988 3500 
L 3597 3500 
L 2059 -325 
z
" transform="scale(0.015625)"/>
       <path id="DejaVuSans-73" d="M 2834 3397 
L 2834 2853 
Q 2591 2978 2328 3040 
Q 2066 3103 1784 3103 
Q 1356 3103 1142 2972 
Q 928 2841 928 2578 
Q 928 2378 1081 2264 
Q 1234 2150 1697 2047 
L 1894 2003 
Q 2506 1872 2764 1633 
Q 3022 1394 3022 966 
Q 3022 478 2636 193 
Q 2250 -91 1575 -91 
Q 1294 -91 989 -36 
Q 684 19 347 128 
L 347 722 
Q 666 556 975 473 
Q 1284 391 1588 391 
Q 1994 391 2212 530 
Q 2431 669 2431 922 
Q 2431 1156 2273 1281 
Q 2116 1406 1581 1522 
L 1381 1569 
Q 847 1681 609 1914 
Q 372 2147 372 2553 
Q 372 3047 722 3315 
Q 1072 3584 1716 3584 
Q 2034 3584 2315 3537 
Q 2597 3491 2834 3397 
z
" transform="scale(0.015625)"/>
      </defs>
      <use xlink:href="#DejaVuSans-50"/>
      <use xlink:href="#DejaVuSans-72" x="58.552734"/>
      <use xlink:href="#DejaVuSans-6f" x="97.416016"/>
      <use xlink:href="#DejaVuSans-62" x="158.597656"/>
      <use xlink:href="#DejaVuSans-61" x="222.074219"/>
      <use xlink:href="#DejaVuSans-62" x="283.353516"/>
      <use xlink:href="#DejaVuSans-69" x="346.830078"/>
      <use xlink:href="#DejaVuSans-6c" x="374.613281"/>
      <use xlink:href="#DejaVuSans-69" x="402.396484"/>
      <use xlink:href="#DejaVuSans-74" x="430.179688"/>
      <use xlink:href="#DejaVuSans-79" x="469.388672"/>
      <use xlink:href="#DejaVuSans-20" x="528.568359"/>
      <use xlink:href="#DejaVuSans-64" x="560.355469"/>
      <use xlink:href="#DejaVuSans-65" x="623.832031"/>
      <use xlink:href="#DejaVuSans-6e" x="685.355469"/>
      <use xlink:href="#DejaVuSans-73" x="748.734375"/>
      <use xlink:href="#DejaVuSans-69" x="800.833984"/>
      <use xlink:href="#DejaVuSans-74" x="828.617188"/>
      <use xlink:href="#DejaVuSans-79" x="867.826172"/>
     </g>
    </g>
   </g>
   <g id="line2d_16">
    <path d="M 58.999432 224.64 
L 77.888867 187.871162 
L 87.942921 168.781748 
L 96.473633 153.048031 
L 104.090341 139.465227 
L 111.097712 127.431849 
L 117.495746 116.887247 
L 123.589112 107.280851 
L 129.37781 98.584074 
L 134.86184 90.759537 
L 140.041201 83.763071 
L 144.915894 77.545531 
L 149.485918 72.054443 
L 154.055943 66.902811 
L 158.321299 62.411009 
L 162.586655 58.233607 
L 166.852012 54.378701 
L 170.8127 51.094451 
L 174.773388 48.100209 
L 178.429407 45.598031 
L 182.085427 43.35079 
L 185.741447 41.361688 
L 189.397466 39.633556 
L 192.748818 38.280798 
L 196.100169 37.151018 
L 199.45152 36.245567 
L 202.802872 35.56553 
L 206.154223 35.111719 
L 209.505574 34.884678 
L 212.856926 34.884678 
L 216.208277 35.111719 
L 219.559628 35.56553 
L 222.91098 36.245567 
L 226.262331 37.151018 
L 229.613682 38.280798 
L 232.965034 39.633556 
L 236.621053 41.361688 
L 240.277073 43.35079 
L 243.933093 45.598031 
L 247.589112 48.100209 
L 251.5498 51.094451 
L 255.510488 54.378701 
L 259.471176 57.947469 
L 263.736533 62.102097 
L 268.001889 66.571724 
L 272.571913 71.700309 
L 277.141938 77.169139 
L 282.016631 83.36386 
L 286.891324 89.916172 
L 292.070685 97.25125 
L 297.554714 105.414079 
L 303.343412 114.444187 
L 309.436778 124.373815 
L 315.834813 135.225928 
L 322.842184 147.557071 
L 330.458891 161.415494 
L 339.294272 177.974732 
L 349.957663 198.463638 
L 363.363068 224.64 
L 363.363068 224.64 
" clip-path="url(#p4749079b42)" style="fill: none; stroke: #ff7f0e; stroke-width: 1.5; stroke-linecap: square"/>
   </g>
   <g id="patch_203">
    <path d="M 43.78125 224.64 
L 43.78125 7.2 
" style="fill: none; stroke: #000000; stroke-width: 0.8; stroke-linejoin: miter; stroke-linecap: square"/>
   </g>
   <g id="patch_204">
    <path d="M 378.58125 224.64 
L 378.58125 7.2 
" style="fill: none; stroke: #000000; stroke-width: 0.8; stroke-linejoin: miter; stroke-linecap: square"/>
   </g>
   <g id="patch_205">
    <path d="M 43.78125 224.64 
L 378.58125 224.64 
" style="fill: none; stroke: #000000; stroke-width: 0.8; stroke-linejoin: miter; stroke-linecap: square"/>
   </g>
   <g id="patch_206">
    <path d="M 43.78125 7.2 
L 378.58125 7.2 
" style="fill: none; stroke: #000000; stroke-width: 0.8; stroke-linejoin: miter; stroke-linecap: square"/>
   </g>
  </g>
 </g>
 <defs>
  <clipPath id="p4749079b42">
   <rect x="43.78125" y="7.2" width="334.8" height="217.44"/>
  </clipPath>
 </defs>
</svg>
