<?xml version="1.0" encoding="utf-8" standalone="no"?>
<!DOCTYPE svg PUBLIC "-//W3C//DTD SVG 1.1//EN"
  "http://www.w3.org/Graphics/SVG/1.1/DTD/svg11.dtd">
<svg xmlns:xlink="http://www.w3.org/1999/xlink" width="414.46375pt" height="310.86825pt" viewBox="0 0 414.46375 310.86825" xmlns="http://www.w3.org/2000/svg" version="1.1">
 <metadata>
  <rdf:RDF xmlns:dc="http://purl.org/dc/elements/1.1/" xmlns:cc="http://creativecommons.org/ns#" xmlns:rdf="http://www.w3.org/1999/02/22-rdf-syntax-ns#">
   <cc:Work>
    <dc:type rdf:resource="http://purl.org/dc/dcmitype/StillImage"/>
    <dc:date>2023-02-06T15:46:24.880351</dc:date>
    <dc:format>image/svg+xml</dc:format>
    <dc:creator>
     <cc:Agent>
      <dc:title>Matplotlib v3.5.3, https://matplotlib.org/</dc:title>
     </cc:Agent>
    </dc:creator>
   </cc:Work>
  </rdf:RDF>
 </metadata>
 <defs>
  <style type="text/css">*{stroke-linejoin: round; stroke-linecap: butt}</style>
 </defs>
 <g id="figure_1">
  <g id="patch_1">
   <path d="M 0 310.86825 
L 414.46375 310.86825 
L 414.46375 0 
L 0 0 
z
" style="fill: #ffffff"/>
  </g>
  <g id="axes_1">
   <g id="patch_2">
    <path d="M 50.14375 273.312 
L 407.26375 273.312 
L 407.26375 7.2 
L 50.14375 7.2 
z
" style="fill: #ffffff"/>
   </g>
   <g id="patch_3">
    <path d="M 69.151059 273.312 
L 70.760451 273.312 
L 70.760451 270.265846 
L 69.151059 270.265846 
z
" clip-path="url(#p1fc903515f)" style="fill: #1f77b4"/>
   </g>
   <g id="patch_4">
    <path d="M 70.760451 273.312 
L 72.369842 273.312 
L 72.369842 269.047385 
L 70.760451 269.047385 
z
" clip-path="url(#p1fc903515f)" style="fill: #1f77b4"/>
   </g>
   <g id="patch_5">
    <path d="M 72.369842 273.312 
L 73.979234 273.312 
L 73.979234 270.875077 
L 72.369842 270.875077 
z
" clip-path="url(#p1fc903515f)" style="fill: #1f77b4"/>
   </g>
   <g id="patch_6">
    <path d="M 73.979234 273.312 
L 75.588626 273.312 
L 75.588626 266.610462 
L 73.979234 266.610462 
z
" clip-path="url(#p1fc903515f)" style="fill: #1f77b4"/>
   </g>
   <g id="patch_7">
    <path d="M 75.588626 273.312 
L 77.198017 273.312 
L 77.198017 264.782769 
L 75.588626 264.782769 
z
" clip-path="url(#p1fc903515f)" style="fill: #1f77b4"/>
   </g>
   <g id="patch_8">
    <path d="M 77.198017 273.312 
L 78.807409 273.312 
L 78.807409 267.828923 
L 77.198017 267.828923 
z
" clip-path="url(#p1fc903515f)" style="fill: #1f77b4"/>
   </g>
   <g id="patch_9">
    <path d="M 78.807409 273.312 
L 80.4168 273.312 
L 80.4168 263.564308 
L 78.807409 263.564308 
z
" clip-path="url(#p1fc903515f)" style="fill: #1f77b4"/>
   </g>
   <g id="patch_10">
    <path d="M 80.4168 273.312 
L 82.026192 273.312 
L 82.026192 264.173538 
L 80.4168 264.173538 
z
" clip-path="url(#p1fc903515f)" style="fill: #1f77b4"/>
   </g>
   <g id="patch_11">
    <path d="M 82.026192 273.312 
L 83.635583 273.312 
L 83.635583 267.828923 
L 82.026192 267.828923 
z
" clip-path="url(#p1fc903515f)" style="fill: #1f77b4"/>
   </g>
   <g id="patch_12">
    <path d="M 83.635583 273.312 
L 85.244975 273.312 
L 85.244975 255.035077 
L 83.635583 255.035077 
z
" clip-path="url(#p1fc903515f)" style="fill: #1f77b4"/>
   </g>
   <g id="patch_13">
    <path d="M 85.244975 273.312 
L 86.854367 273.312 
L 86.854367 259.299692 
L 85.244975 259.299692 
z
" clip-path="url(#p1fc903515f)" style="fill: #1f77b4"/>
   </g>
   <g id="patch_14">
    <path d="M 86.854367 273.312 
L 88.463758 273.312 
L 88.463758 252.598154 
L 86.854367 252.598154 
z
" clip-path="url(#p1fc903515f)" style="fill: #1f77b4"/>
   </g>
   <g id="patch_15">
    <path d="M 88.463758 273.312 
L 90.07315 273.312 
L 90.07315 258.690462 
L 88.463758 258.690462 
z
" clip-path="url(#p1fc903515f)" style="fill: #1f77b4"/>
   </g>
   <g id="patch_16">
    <path d="M 90.07315 273.312 
L 91.682541 273.312 
L 91.682541 251.379692 
L 90.07315 251.379692 
z
" clip-path="url(#p1fc903515f)" style="fill: #1f77b4"/>
   </g>
   <g id="patch_17">
    <path d="M 91.682541 273.312 
L 93.291933 273.312 
L 93.291933 249.552 
L 91.682541 249.552 
z
" clip-path="url(#p1fc903515f)" style="fill: #1f77b4"/>
   </g>
   <g id="patch_18">
    <path d="M 93.291933 273.312 
L 94.901324 273.312 
L 94.901324 255.644308 
L 93.291933 255.644308 
z
" clip-path="url(#p1fc903515f)" style="fill: #1f77b4"/>
   </g>
   <g id="patch_19">
    <path d="M 94.901324 273.312 
L 96.510716 273.312 
L 96.510716 258.081231 
L 94.901324 258.081231 
z
" clip-path="url(#p1fc903515f)" style="fill: #1f77b4"/>
   </g>
   <g id="patch_20">
    <path d="M 96.510716 273.312 
L 98.120108 273.312 
L 98.120108 250.161231 
L 96.510716 250.161231 
z
" clip-path="url(#p1fc903515f)" style="fill: #1f77b4"/>
   </g>
   <g id="patch_21">
    <path d="M 98.120108 273.312 
L 99.729499 273.312 
L 99.729499 244.068923 
L 98.120108 244.068923 
z
" clip-path="url(#p1fc903515f)" style="fill: #1f77b4"/>
   </g>
   <g id="patch_22">
    <path d="M 99.729499 273.312 
L 101.338891 273.312 
L 101.338891 247.724308 
L 99.729499 247.724308 
z
" clip-path="url(#p1fc903515f)" style="fill: #1f77b4"/>
   </g>
   <g id="patch_23">
    <path d="M 101.338891 273.312 
L 102.948282 273.312 
L 102.948282 242.241231 
L 101.338891 242.241231 
z
" clip-path="url(#p1fc903515f)" style="fill: #1f77b4"/>
   </g>
   <g id="patch_24">
    <path d="M 102.948282 273.312 
L 104.557674 273.312 
L 104.557674 248.942769 
L 102.948282 248.942769 
z
" clip-path="url(#p1fc903515f)" style="fill: #1f77b4"/>
   </g>
   <g id="patch_25">
    <path d="M 104.557674 273.312 
L 106.167065 273.312 
L 106.167065 244.678154 
L 104.557674 244.678154 
z
" clip-path="url(#p1fc903515f)" style="fill: #1f77b4"/>
   </g>
   <g id="patch_26">
    <path d="M 106.167065 273.312 
L 107.776457 273.312 
L 107.776457 241.632 
L 106.167065 241.632 
z
" clip-path="url(#p1fc903515f)" style="fill: #1f77b4"/>
   </g>
   <g id="patch_27">
    <path d="M 107.776457 273.312 
L 109.385849 273.312 
L 109.385849 237.367385 
L 107.776457 237.367385 
z
" clip-path="url(#p1fc903515f)" style="fill: #1f77b4"/>
   </g>
   <g id="patch_28">
    <path d="M 109.385849 273.312 
L 110.99524 273.312 
L 110.99524 237.367385 
L 109.385849 237.367385 
z
" clip-path="url(#p1fc903515f)" style="fill: #1f77b4"/>
   </g>
   <g id="patch_29">
    <path d="M 110.99524 273.312 
L 112.604632 273.312 
L 112.604632 245.896615 
L 110.99524 245.896615 
z
" clip-path="url(#p1fc903515f)" style="fill: #1f77b4"/>
   </g>
   <g id="patch_30">
    <path d="M 112.604632 273.312 
L 114.214023 273.312 
L 114.214023 234.321231 
L 112.604632 234.321231 
z
" clip-path="url(#p1fc903515f)" style="fill: #1f77b4"/>
   </g>
   <g id="patch_31">
    <path d="M 114.214023 273.312 
L 115.823415 273.312 
L 115.823415 238.585846 
L 114.214023 238.585846 
z
" clip-path="url(#p1fc903515f)" style="fill: #1f77b4"/>
   </g>
   <g id="patch_32">
    <path d="M 115.823415 273.312 
L 117.432807 273.312 
L 117.432807 242.850462 
L 115.823415 242.850462 
z
" clip-path="url(#p1fc903515f)" style="fill: #1f77b4"/>
   </g>
   <g id="patch_33">
    <path d="M 117.432807 273.312 
L 119.042198 273.312 
L 119.042198 230.665846 
L 117.432807 230.665846 
z
" clip-path="url(#p1fc903515f)" style="fill: #1f77b4"/>
   </g>
   <g id="patch_34">
    <path d="M 119.042198 273.312 
L 120.65159 273.312 
L 120.65159 241.022769 
L 119.042198 241.022769 
z
" clip-path="url(#p1fc903515f)" style="fill: #1f77b4"/>
   </g>
   <g id="patch_35">
    <path d="M 120.65159 273.312 
L 122.260981 273.312 
L 122.260981 233.102769 
L 120.65159 233.102769 
z
" clip-path="url(#p1fc903515f)" style="fill: #1f77b4"/>
   </g>
   <g id="patch_36">
    <path d="M 122.260981 273.312 
L 123.870373 273.312 
L 123.870373 236.758154 
L 122.260981 236.758154 
z
" clip-path="url(#p1fc903515f)" style="fill: #1f77b4"/>
   </g>
   <g id="patch_37">
    <path d="M 123.870373 273.312 
L 125.479764 273.312 
L 125.479764 225.792 
L 123.870373 225.792 
z
" clip-path="url(#p1fc903515f)" style="fill: #1f77b4"/>
   </g>
   <g id="patch_38">
    <path d="M 125.479764 273.312 
L 127.089156 273.312 
L 127.089156 231.884308 
L 125.479764 231.884308 
z
" clip-path="url(#p1fc903515f)" style="fill: #1f77b4"/>
   </g>
   <g id="patch_39">
    <path d="M 127.089156 273.312 
L 128.698548 273.312 
L 128.698548 226.401231 
L 127.089156 226.401231 
z
" clip-path="url(#p1fc903515f)" style="fill: #1f77b4"/>
   </g>
   <g id="patch_40">
    <path d="M 128.698548 273.312 
L 130.307939 273.312 
L 130.307939 230.056615 
L 128.698548 230.056615 
z
" clip-path="url(#p1fc903515f)" style="fill: #1f77b4"/>
   </g>
   <g id="patch_41">
    <path d="M 130.307939 273.312 
L 131.917331 273.312 
L 131.917331 229.447385 
L 130.307939 229.447385 
z
" clip-path="url(#p1fc903515f)" style="fill: #1f77b4"/>
   </g>
   <g id="patch_42">
    <path d="M 131.917331 273.312 
L 133.526722 273.312 
L 133.526722 215.435077 
L 131.917331 215.435077 
z
" clip-path="url(#p1fc903515f)" style="fill: #1f77b4"/>
   </g>
   <g id="patch_43">
    <path d="M 133.526722 273.312 
L 135.136114 273.312 
L 135.136114 208.124308 
L 133.526722 208.124308 
z
" clip-path="url(#p1fc903515f)" style="fill: #1f77b4"/>
   </g>
   <g id="patch_44">
    <path d="M 135.136114 273.312 
L 136.745505 273.312 
L 136.745505 220.308923 
L 135.136114 220.308923 
z
" clip-path="url(#p1fc903515f)" style="fill: #1f77b4"/>
   </g>
   <g id="patch_45">
    <path d="M 136.745505 273.312 
L 138.354897 273.312 
L 138.354897 217.262769 
L 136.745505 217.262769 
z
" clip-path="url(#p1fc903515f)" style="fill: #1f77b4"/>
   </g>
   <g id="patch_46">
    <path d="M 138.354897 273.312 
L 139.964289 273.312 
L 139.964289 202.032 
L 138.354897 202.032 
z
" clip-path="url(#p1fc903515f)" style="fill: #1f77b4"/>
   </g>
   <g id="patch_47">
    <path d="M 139.964289 273.312 
L 141.57368 273.312 
L 141.57368 208.124308 
L 139.964289 208.124308 
z
" clip-path="url(#p1fc903515f)" style="fill: #1f77b4"/>
   </g>
   <g id="patch_48">
    <path d="M 141.57368 273.312 
L 143.183072 273.312 
L 143.183072 217.262769 
L 141.57368 217.262769 
z
" clip-path="url(#p1fc903515f)" style="fill: #1f77b4"/>
   </g>
   <g id="patch_49">
    <path d="M 143.183072 273.312 
L 144.792463 273.312 
L 144.792463 221.527385 
L 143.183072 221.527385 
z
" clip-path="url(#p1fc903515f)" style="fill: #1f77b4"/>
   </g>
   <g id="patch_50">
    <path d="M 144.792463 273.312 
L 146.401855 273.312 
L 146.401855 208.124308 
L 144.792463 208.124308 
z
" clip-path="url(#p1fc903515f)" style="fill: #1f77b4"/>
   </g>
   <g id="patch_51">
    <path d="M 146.401855 273.312 
L 148.011246 273.312 
L 148.011246 211.779692 
L 146.401855 211.779692 
z
" clip-path="url(#p1fc903515f)" style="fill: #1f77b4"/>
   </g>
   <g id="patch_52">
    <path d="M 148.011246 273.312 
L 149.620638 273.312 
L 149.620638 209.952 
L 148.011246 209.952 
z
" clip-path="url(#p1fc903515f)" style="fill: #1f77b4"/>
   </g>
   <g id="patch_53">
    <path d="M 149.620638 273.312 
L 151.23003 273.312 
L 151.23003 203.859692 
L 149.620638 203.859692 
z
" clip-path="url(#p1fc903515f)" style="fill: #1f77b4"/>
   </g>
   <g id="patch_54">
    <path d="M 151.23003 273.312 
L 152.839421 273.312 
L 152.839421 220.918154 
L 151.23003 220.918154 
z
" clip-path="url(#p1fc903515f)" style="fill: #1f77b4"/>
   </g>
   <g id="patch_55">
    <path d="M 152.839421 273.312 
L 154.448813 273.312 
L 154.448813 205.687385 
L 152.839421 205.687385 
z
" clip-path="url(#p1fc903515f)" style="fill: #1f77b4"/>
   </g>
   <g id="patch_56">
    <path d="M 154.448813 273.312 
L 156.058204 273.312 
L 156.058204 198.985846 
L 154.448813 198.985846 
z
" clip-path="url(#p1fc903515f)" style="fill: #1f77b4"/>
   </g>
   <g id="patch_57">
    <path d="M 156.058204 273.312 
L 157.667596 273.312 
L 157.667596 204.468923 
L 156.058204 204.468923 
z
" clip-path="url(#p1fc903515f)" style="fill: #1f77b4"/>
   </g>
   <g id="patch_58">
    <path d="M 157.667596 273.312 
L 159.276987 273.312 
L 159.276987 198.985846 
L 157.667596 198.985846 
z
" clip-path="url(#p1fc903515f)" style="fill: #1f77b4"/>
   </g>
   <g id="patch_59">
    <path d="M 159.276987 273.312 
L 160.886379 273.312 
L 160.886379 203.250462 
L 159.276987 203.250462 
z
" clip-path="url(#p1fc903515f)" style="fill: #1f77b4"/>
   </g>
   <g id="patch_60">
    <path d="M 160.886379 273.312 
L 162.495771 273.312 
L 162.495771 202.032 
L 160.886379 202.032 
z
" clip-path="url(#p1fc903515f)" style="fill: #1f77b4"/>
   </g>
   <g id="patch_61">
    <path d="M 162.495771 273.312 
L 164.105162 273.312 
L 164.105162 200.813538 
L 162.495771 200.813538 
z
" clip-path="url(#p1fc903515f)" style="fill: #1f77b4"/>
   </g>
   <g id="patch_62">
    <path d="M 164.105162 273.312 
L 165.714554 273.312 
L 165.714554 196.548923 
L 164.105162 196.548923 
z
" clip-path="url(#p1fc903515f)" style="fill: #1f77b4"/>
   </g>
   <g id="patch_63">
    <path d="M 165.714554 273.312 
L 167.323945 273.312 
L 167.323945 194.721231 
L 165.714554 194.721231 
z
" clip-path="url(#p1fc903515f)" style="fill: #1f77b4"/>
   </g>
   <g id="patch_64">
    <path d="M 167.323945 273.312 
L 168.933337 273.312 
L 168.933337 196.548923 
L 167.323945 196.548923 
z
" clip-path="url(#p1fc903515f)" style="fill: #1f77b4"/>
   </g>
   <g id="patch_65">
    <path d="M 168.933337 273.312 
L 170.542728 273.312 
L 170.542728 195.939692 
L 168.933337 195.939692 
z
" clip-path="url(#p1fc903515f)" style="fill: #1f77b4"/>
   </g>
   <g id="patch_66">
    <path d="M 170.542728 273.312 
L 172.15212 273.312 
L 172.15212 205.078154 
L 170.542728 205.078154 
z
" clip-path="url(#p1fc903515f)" style="fill: #1f77b4"/>
   </g>
   <g id="patch_67">
    <path d="M 172.15212 273.312 
L 173.761512 273.312 
L 173.761512 195.330462 
L 172.15212 195.330462 
z
" clip-path="url(#p1fc903515f)" style="fill: #1f77b4"/>
   </g>
   <g id="patch_68">
    <path d="M 173.761512 273.312 
L 175.370903 273.312 
L 175.370903 192.893538 
L 173.761512 192.893538 
z
" clip-path="url(#p1fc903515f)" style="fill: #1f77b4"/>
   </g>
   <g id="patch_69">
    <path d="M 175.370903 273.312 
L 176.980295 273.312 
L 176.980295 192.284308 
L 175.370903 192.284308 
z
" clip-path="url(#p1fc903515f)" style="fill: #1f77b4"/>
   </g>
   <g id="patch_70">
    <path d="M 176.980295 273.312 
L 178.589686 273.312 
L 178.589686 192.284308 
L 176.980295 192.284308 
z
" clip-path="url(#p1fc903515f)" style="fill: #1f77b4"/>
   </g>
   <g id="patch_71">
    <path d="M 178.589686 273.312 
L 180.199078 273.312 
L 180.199078 194.112 
L 178.589686 194.112 
z
" clip-path="url(#p1fc903515f)" style="fill: #1f77b4"/>
   </g>
   <g id="patch_72">
    <path d="M 180.199078 273.312 
L 181.80847 273.312 
L 181.80847 166.696615 
L 180.199078 166.696615 
z
" clip-path="url(#p1fc903515f)" style="fill: #1f77b4"/>
   </g>
   <g id="patch_73">
    <path d="M 181.80847 273.312 
L 183.417861 273.312 
L 183.417861 190.456615 
L 181.80847 190.456615 
z
" clip-path="url(#p1fc903515f)" style="fill: #1f77b4"/>
   </g>
   <g id="patch_74">
    <path d="M 183.417861 273.312 
L 185.027253 273.312 
L 185.027253 176.444308 
L 183.417861 176.444308 
z
" clip-path="url(#p1fc903515f)" style="fill: #1f77b4"/>
   </g>
   <g id="patch_75">
    <path d="M 185.027253 273.312 
L 186.636644 273.312 
L 186.636644 184.973538 
L 185.027253 184.973538 
z
" clip-path="url(#p1fc903515f)" style="fill: #1f77b4"/>
   </g>
   <g id="patch_76">
    <path d="M 186.636644 273.312 
L 188.246036 273.312 
L 188.246036 185.582769 
L 186.636644 185.582769 
z
" clip-path="url(#p1fc903515f)" style="fill: #1f77b4"/>
   </g>
   <g id="patch_77">
    <path d="M 188.246036 273.312 
L 189.855427 273.312 
L 189.855427 190.456615 
L 188.246036 190.456615 
z
" clip-path="url(#p1fc903515f)" style="fill: #1f77b4"/>
   </g>
   <g id="patch_78">
    <path d="M 189.855427 273.312 
L 191.464819 273.312 
L 191.464819 178.272 
L 189.855427 178.272 
z
" clip-path="url(#p1fc903515f)" style="fill: #1f77b4"/>
   </g>
   <g id="patch_79">
    <path d="M 191.464819 273.312 
L 193.074211 273.312 
L 193.074211 183.755077 
L 191.464819 183.755077 
z
" clip-path="url(#p1fc903515f)" style="fill: #1f77b4"/>
   </g>
   <g id="patch_80">
    <path d="M 193.074211 273.312 
L 194.683602 273.312 
L 194.683602 166.087385 
L 193.074211 166.087385 
z
" clip-path="url(#p1fc903515f)" style="fill: #1f77b4"/>
   </g>
   <g id="patch_81">
    <path d="M 194.683602 273.312 
L 196.292994 273.312 
L 196.292994 175.225846 
L 194.683602 175.225846 
z
" clip-path="url(#p1fc903515f)" style="fill: #1f77b4"/>
   </g>
   <g id="patch_82">
    <path d="M 196.292994 273.312 
L 197.902385 273.312 
L 197.902385 175.225846 
L 196.292994 175.225846 
z
" clip-path="url(#p1fc903515f)" style="fill: #1f77b4"/>
   </g>
   <g id="patch_83">
    <path d="M 197.902385 273.312 
L 199.511777 273.312 
L 199.511777 170.961231 
L 197.902385 170.961231 
z
" clip-path="url(#p1fc903515f)" style="fill: #1f77b4"/>
   </g>
   <g id="patch_84">
    <path d="M 199.511777 273.312 
L 201.121168 273.312 
L 201.121168 178.881231 
L 199.511777 178.881231 
z
" clip-path="url(#p1fc903515f)" style="fill: #1f77b4"/>
   </g>
   <g id="patch_85">
    <path d="M 201.121168 273.312 
L 202.73056 273.312 
L 202.73056 163.041231 
L 201.121168 163.041231 
z
" clip-path="url(#p1fc903515f)" style="fill: #1f77b4"/>
   </g>
   <g id="patch_86">
    <path d="M 202.73056 273.312 
L 204.339952 273.312 
L 204.339952 173.398154 
L 202.73056 173.398154 
z
" clip-path="url(#p1fc903515f)" style="fill: #1f77b4"/>
   </g>
   <g id="patch_87">
    <path d="M 204.339952 273.312 
L 205.949343 273.312 
L 205.949343 176.444308 
L 204.339952 176.444308 
z
" clip-path="url(#p1fc903515f)" style="fill: #1f77b4"/>
   </g>
   <g id="patch_88">
    <path d="M 205.949343 273.312 
L 207.558735 273.312 
L 207.558735 159.995077 
L 205.949343 159.995077 
z
" clip-path="url(#p1fc903515f)" style="fill: #1f77b4"/>
   </g>
   <g id="patch_89">
    <path d="M 207.558735 273.312 
L 209.168126 273.312 
L 209.168126 175.835077 
L 207.558735 175.835077 
z
" clip-path="url(#p1fc903515f)" style="fill: #1f77b4"/>
   </g>
   <g id="patch_90">
    <path d="M 209.168126 273.312 
L 210.777518 273.312 
L 210.777518 159.385846 
L 209.168126 159.385846 
z
" clip-path="url(#p1fc903515f)" style="fill: #1f77b4"/>
   </g>
   <g id="patch_91">
    <path d="M 210.777518 273.312 
L 212.386909 273.312 
L 212.386909 158.167385 
L 210.777518 158.167385 
z
" clip-path="url(#p1fc903515f)" style="fill: #1f77b4"/>
   </g>
   <g id="patch_92">
    <path d="M 212.386909 273.312 
L 213.996301 273.312 
L 213.996301 172.788923 
L 212.386909 172.788923 
z
" clip-path="url(#p1fc903515f)" style="fill: #1f77b4"/>
   </g>
   <g id="patch_93">
    <path d="M 213.996301 273.312 
L 215.605693 273.312 
L 215.605693 147.810462 
L 213.996301 147.810462 
z
" clip-path="url(#p1fc903515f)" style="fill: #1f77b4"/>
   </g>
   <g id="patch_94">
    <path d="M 215.605693 273.312 
L 217.215084 273.312 
L 217.215084 166.696615 
L 215.605693 166.696615 
z
" clip-path="url(#p1fc903515f)" style="fill: #1f77b4"/>
   </g>
   <g id="patch_95">
    <path d="M 217.215084 273.312 
L 218.824476 273.312 
L 218.824476 156.339692 
L 217.215084 156.339692 
z
" clip-path="url(#p1fc903515f)" style="fill: #1f77b4"/>
   </g>
   <g id="patch_96">
    <path d="M 218.824476 273.312 
L 220.433867 273.312 
L 220.433867 155.121231 
L 218.824476 155.121231 
z
" clip-path="url(#p1fc903515f)" style="fill: #1f77b4"/>
   </g>
   <g id="patch_97">
    <path d="M 220.433867 273.312 
L 222.043259 273.312 
L 222.043259 167.305846 
L 220.433867 167.305846 
z
" clip-path="url(#p1fc903515f)" style="fill: #1f77b4"/>
   </g>
   <g id="patch_98">
    <path d="M 222.043259 273.312 
L 223.65265 273.312 
L 223.65265 154.512 
L 222.043259 154.512 
z
" clip-path="url(#p1fc903515f)" style="fill: #1f77b4"/>
   </g>
   <g id="patch_99">
    <path d="M 223.65265 273.312 
L 225.262042 273.312 
L 225.262042 147.810462 
L 223.65265 147.810462 
z
" clip-path="url(#p1fc903515f)" style="fill: #1f77b4"/>
   </g>
   <g id="patch_100">
    <path d="M 225.262042 273.312 
L 226.871434 273.312 
L 226.871434 149.028923 
L 225.262042 149.028923 
z
" clip-path="url(#p1fc903515f)" style="fill: #1f77b4"/>
   </g>
   <g id="patch_101">
    <path d="M 226.871434 273.312 
L 228.480825 273.312 
L 228.480825 166.087385 
L 226.871434 166.087385 
z
" clip-path="url(#p1fc903515f)" style="fill: #1f77b4"/>
   </g>
   <g id="patch_102">
    <path d="M 228.480825 273.312 
L 230.090217 273.312 
L 230.090217 157.558154 
L 228.480825 157.558154 
z
" clip-path="url(#p1fc903515f)" style="fill: #1f77b4"/>
   </g>
   <g id="patch_103">
    <path d="M 230.090217 273.312 
L 231.699608 273.312 
L 231.699608 147.810462 
L 230.090217 147.810462 
z
" clip-path="url(#p1fc903515f)" style="fill: #1f77b4"/>
   </g>
   <g id="patch_104">
    <path d="M 231.699608 273.312 
L 233.309 273.312 
L 233.309 148.419692 
L 231.699608 148.419692 
z
" clip-path="url(#p1fc903515f)" style="fill: #1f77b4"/>
   </g>
   <g id="patch_105">
    <path d="M 233.309 273.312 
L 234.918391 273.312 
L 234.918391 156.948923 
L 233.309 156.948923 
z
" clip-path="url(#p1fc903515f)" style="fill: #1f77b4"/>
   </g>
   <g id="patch_106">
    <path d="M 234.918391 273.312 
L 236.527783 273.312 
L 236.527783 159.385846 
L 234.918391 159.385846 
z
" clip-path="url(#p1fc903515f)" style="fill: #1f77b4"/>
   </g>
   <g id="patch_107">
    <path d="M 236.527783 273.312 
L 238.137175 273.312 
L 238.137175 147.201231 
L 236.527783 147.201231 
z
" clip-path="url(#p1fc903515f)" style="fill: #1f77b4"/>
   </g>
   <g id="patch_108">
    <path d="M 238.137175 273.312 
L 239.746566 273.312 
L 239.746566 138.062769 
L 238.137175 138.062769 
z
" clip-path="url(#p1fc903515f)" style="fill: #1f77b4"/>
   </g>
   <g id="patch_109">
    <path d="M 239.746566 273.312 
L 241.355958 273.312 
L 241.355958 162.432 
L 239.746566 162.432 
z
" clip-path="url(#p1fc903515f)" style="fill: #1f77b4"/>
   </g>
   <g id="patch_110">
    <path d="M 241.355958 273.312 
L 242.965349 273.312 
L 242.965349 141.718154 
L 241.355958 141.718154 
z
" clip-path="url(#p1fc903515f)" style="fill: #1f77b4"/>
   </g>
   <g id="patch_111">
    <path d="M 242.965349 273.312 
L 244.574741 273.312 
L 244.574741 147.201231 
L 242.965349 147.201231 
z
" clip-path="url(#p1fc903515f)" style="fill: #1f77b4"/>
   </g>
   <g id="patch_112">
    <path d="M 244.574741 273.312 
L 246.184133 273.312 
L 246.184133 137.453538 
L 244.574741 137.453538 
z
" clip-path="url(#p1fc903515f)" style="fill: #1f77b4"/>
   </g>
   <g id="patch_113">
    <path d="M 246.184133 273.312 
L 247.793524 273.312 
L 247.793524 136.235077 
L 246.184133 136.235077 
z
" clip-path="url(#p1fc903515f)" style="fill: #1f77b4"/>
   </g>
   <g id="patch_114">
    <path d="M 247.793524 273.312 
L 249.402916 273.312 
L 249.402916 122.832 
L 247.793524 122.832 
z
" clip-path="url(#p1fc903515f)" style="fill: #1f77b4"/>
   </g>
   <g id="patch_115">
    <path d="M 249.402916 273.312 
L 251.012307 273.312 
L 251.012307 149.028923 
L 249.402916 149.028923 
z
" clip-path="url(#p1fc903515f)" style="fill: #1f77b4"/>
   </g>
   <g id="patch_116">
    <path d="M 251.012307 273.312 
L 252.621699 273.312 
L 252.621699 144.155077 
L 251.012307 144.155077 
z
" clip-path="url(#p1fc903515f)" style="fill: #1f77b4"/>
   </g>
   <g id="patch_117">
    <path d="M 252.621699 273.312 
L 254.23109 273.312 
L 254.23109 145.982769 
L 252.621699 145.982769 
z
" clip-path="url(#p1fc903515f)" style="fill: #1f77b4"/>
   </g>
   <g id="patch_118">
    <path d="M 254.23109 273.312 
L 255.840482 273.312 
L 255.840482 120.395077 
L 254.23109 120.395077 
z
" clip-path="url(#p1fc903515f)" style="fill: #1f77b4"/>
   </g>
   <g id="patch_119">
    <path d="M 255.840482 273.312 
L 257.449874 273.312 
L 257.449874 128.924308 
L 255.840482 128.924308 
z
" clip-path="url(#p1fc903515f)" style="fill: #1f77b4"/>
   </g>
   <g id="patch_120">
    <path d="M 257.449874 273.312 
L 259.059265 273.312 
L 259.059265 124.050462 
L 257.449874 124.050462 
z
" clip-path="url(#p1fc903515f)" style="fill: #1f77b4"/>
   </g>
   <g id="patch_121">
    <path d="M 259.059265 273.312 
L 260.668657 273.312 
L 260.668657 138.062769 
L 259.059265 138.062769 
z
" clip-path="url(#p1fc903515f)" style="fill: #1f77b4"/>
   </g>
   <g id="patch_122">
    <path d="M 260.668657 273.312 
L 262.278048 273.312 
L 262.278048 127.096615 
L 260.668657 127.096615 
z
" clip-path="url(#p1fc903515f)" style="fill: #1f77b4"/>
   </g>
   <g id="patch_123">
    <path d="M 262.278048 273.312 
L 263.88744 273.312 
L 263.88744 117.958154 
L 262.278048 117.958154 
z
" clip-path="url(#p1fc903515f)" style="fill: #1f77b4"/>
   </g>
   <g id="patch_124">
    <path d="M 263.88744 273.312 
L 265.496831 273.312 
L 265.496831 124.659692 
L 263.88744 124.659692 
z
" clip-path="url(#p1fc903515f)" style="fill: #1f77b4"/>
   </g>
   <g id="patch_125">
    <path d="M 265.496831 273.312 
L 267.106223 273.312 
L 267.106223 130.752 
L 265.496831 130.752 
z
" clip-path="url(#p1fc903515f)" style="fill: #1f77b4"/>
   </g>
   <g id="patch_126">
    <path d="M 267.106223 273.312 
L 268.715615 273.312 
L 268.715615 137.453538 
L 267.106223 137.453538 
z
" clip-path="url(#p1fc903515f)" style="fill: #1f77b4"/>
   </g>
   <g id="patch_127">
    <path d="M 268.715615 273.312 
L 270.325006 273.312 
L 270.325006 142.327385 
L 268.715615 142.327385 
z
" clip-path="url(#p1fc903515f)" style="fill: #1f77b4"/>
   </g>
   <g id="patch_128">
    <path d="M 270.325006 273.312 
L 271.934398 273.312 
L 271.934398 122.832 
L 270.325006 122.832 
z
" clip-path="url(#p1fc903515f)" style="fill: #1f77b4"/>
   </g>
   <g id="patch_129">
    <path d="M 271.934398 273.312 
L 273.543789 273.312 
L 273.543789 125.268923 
L 271.934398 125.268923 
z
" clip-path="url(#p1fc903515f)" style="fill: #1f77b4"/>
   </g>
   <g id="patch_130">
    <path d="M 273.543789 273.312 
L 275.153181 273.312 
L 275.153181 127.705846 
L 273.543789 127.705846 
z
" clip-path="url(#p1fc903515f)" style="fill: #1f77b4"/>
   </g>
   <g id="patch_131">
    <path d="M 275.153181 273.312 
L 276.762572 273.312 
L 276.762572 109.428923 
L 275.153181 109.428923 
z
" clip-path="url(#p1fc903515f)" style="fill: #1f77b4"/>
   </g>
   <g id="patch_132">
    <path d="M 276.762572 273.312 
L 278.371964 273.312 
L 278.371964 129.533538 
L 276.762572 129.533538 
z
" clip-path="url(#p1fc903515f)" style="fill: #1f77b4"/>
   </g>
   <g id="patch_133">
    <path d="M 278.371964 273.312 
L 279.981356 273.312 
L 279.981356 105.164308 
L 278.371964 105.164308 
z
" clip-path="url(#p1fc903515f)" style="fill: #1f77b4"/>
   </g>
   <g id="patch_134">
    <path d="M 279.981356 273.312 
L 281.590747 273.312 
L 281.590747 106.382769 
L 279.981356 106.382769 
z
" clip-path="url(#p1fc903515f)" style="fill: #1f77b4"/>
   </g>
   <g id="patch_135">
    <path d="M 281.590747 273.312 
L 283.200139 273.312 
L 283.200139 107.601231 
L 281.590747 107.601231 
z
" clip-path="url(#p1fc903515f)" style="fill: #1f77b4"/>
   </g>
   <g id="patch_136">
    <path d="M 283.200139 273.312 
L 284.80953 273.312 
L 284.80953 104.555077 
L 283.200139 104.555077 
z
" clip-path="url(#p1fc903515f)" style="fill: #1f77b4"/>
   </g>
   <g id="patch_137">
    <path d="M 284.80953 273.312 
L 286.418922 273.312 
L 286.418922 125.268923 
L 284.80953 125.268923 
z
" clip-path="url(#p1fc903515f)" style="fill: #1f77b4"/>
   </g>
   <g id="patch_138">
    <path d="M 286.418922 273.312 
L 288.028313 273.312 
L 288.028313 104.555077 
L 286.418922 104.555077 
z
" clip-path="url(#p1fc903515f)" style="fill: #1f77b4"/>
   </g>
   <g id="patch_139">
    <path d="M 288.028313 273.312 
L 289.637705 273.312 
L 289.637705 100.290462 
L 288.028313 100.290462 
z
" clip-path="url(#p1fc903515f)" style="fill: #1f77b4"/>
   </g>
   <g id="patch_140">
    <path d="M 289.637705 273.312 
L 291.247097 273.312 
L 291.247097 114.912 
L 289.637705 114.912 
z
" clip-path="url(#p1fc903515f)" style="fill: #1f77b4"/>
   </g>
   <g id="patch_141">
    <path d="M 291.247097 273.312 
L 292.856488 273.312 
L 292.856488 99.681231 
L 291.247097 99.681231 
z
" clip-path="url(#p1fc903515f)" style="fill: #1f77b4"/>
   </g>
   <g id="patch_142">
    <path d="M 292.856488 273.312 
L 294.46588 273.312 
L 294.46588 106.992 
L 292.856488 106.992 
z
" clip-path="url(#p1fc903515f)" style="fill: #1f77b4"/>
   </g>
   <g id="patch_143">
    <path d="M 294.46588 273.312 
L 296.075271 273.312 
L 296.075271 117.348923 
L 294.46588 117.348923 
z
" clip-path="url(#p1fc903515f)" style="fill: #1f77b4"/>
   </g>
   <g id="patch_144">
    <path d="M 296.075271 273.312 
L 297.684663 273.312 
L 297.684663 111.865846 
L 296.075271 111.865846 
z
" clip-path="url(#p1fc903515f)" style="fill: #1f77b4"/>
   </g>
   <g id="patch_145">
    <path d="M 297.684663 273.312 
L 299.294055 273.312 
L 299.294055 82.622769 
L 297.684663 82.622769 
z
" clip-path="url(#p1fc903515f)" style="fill: #1f77b4"/>
   </g>
   <g id="patch_146">
    <path d="M 299.294055 273.312 
L 300.903446 273.312 
L 300.903446 100.899692 
L 299.294055 100.899692 
z
" clip-path="url(#p1fc903515f)" style="fill: #1f77b4"/>
   </g>
   <g id="patch_147">
    <path d="M 300.903446 273.312 
L 302.512838 273.312 
L 302.512838 100.899692 
L 300.903446 100.899692 
z
" clip-path="url(#p1fc903515f)" style="fill: #1f77b4"/>
   </g>
   <g id="patch_148">
    <path d="M 302.512838 273.312 
L 304.122229 273.312 
L 304.122229 79.576615 
L 302.512838 79.576615 
z
" clip-path="url(#p1fc903515f)" style="fill: #1f77b4"/>
   </g>
   <g id="patch_149">
    <path d="M 304.122229 273.312 
L 305.731621 273.312 
L 305.731621 90.542769 
L 304.122229 90.542769 
z
" clip-path="url(#p1fc903515f)" style="fill: #1f77b4"/>
   </g>
   <g id="patch_150">
    <path d="M 305.731621 273.312 
L 307.341012 273.312 
L 307.341012 110.038154 
L 305.731621 110.038154 
z
" clip-path="url(#p1fc903515f)" style="fill: #1f77b4"/>
   </g>
   <g id="patch_151">
    <path d="M 307.341012 273.312 
L 308.950404 273.312 
L 308.950404 84.450462 
L 307.341012 84.450462 
z
" clip-path="url(#p1fc903515f)" style="fill: #1f77b4"/>
   </g>
   <g id="patch_152">
    <path d="M 308.950404 273.312 
L 310.559796 273.312 
L 310.559796 82.622769 
L 308.950404 82.622769 
z
" clip-path="url(#p1fc903515f)" style="fill: #1f77b4"/>
   </g>
   <g id="patch_153">
    <path d="M 310.559796 273.312 
L 312.169187 273.312 
L 312.169187 86.278154 
L 310.559796 86.278154 
z
" clip-path="url(#p1fc903515f)" style="fill: #1f77b4"/>
   </g>
   <g id="patch_154">
    <path d="M 312.169187 273.312 
L 313.778579 273.312 
L 313.778579 87.496615 
L 312.169187 87.496615 
z
" clip-path="url(#p1fc903515f)" style="fill: #1f77b4"/>
   </g>
   <g id="patch_155">
    <path d="M 313.778579 273.312 
L 315.38797 273.312 
L 315.38797 78.358154 
L 313.778579 78.358154 
z
" clip-path="url(#p1fc903515f)" style="fill: #1f77b4"/>
   </g>
   <g id="patch_156">
    <path d="M 315.38797 273.312 
L 316.997362 273.312 
L 316.997362 83.841231 
L 315.38797 83.841231 
z
" clip-path="url(#p1fc903515f)" style="fill: #1f77b4"/>
   </g>
   <g id="patch_157">
    <path d="M 316.997362 273.312 
L 318.606753 273.312 
L 318.606753 75.921231 
L 316.997362 75.921231 
z
" clip-path="url(#p1fc903515f)" style="fill: #1f77b4"/>
   </g>
   <g id="patch_158">
    <path d="M 318.606753 273.312 
L 320.216145 273.312 
L 320.216145 94.807385 
L 318.606753 94.807385 
z
" clip-path="url(#p1fc903515f)" style="fill: #1f77b4"/>
   </g>
   <g id="patch_159">
    <path d="M 320.216145 273.312 
L 321.825537 273.312 
L 321.825537 94.198154 
L 320.216145 94.198154 
z
" clip-path="url(#p1fc903515f)" style="fill: #1f77b4"/>
   </g>
   <g id="patch_160">
    <path d="M 321.825537 273.312 
L 323.434928 273.312 
L 323.434928 96.025846 
L 321.825537 96.025846 
z
" clip-path="url(#p1fc903515f)" style="fill: #1f77b4"/>
   </g>
   <g id="patch_161">
    <path d="M 323.434928 273.312 
L 325.04432 273.312 
L 325.04432 78.967385 
L 323.434928 78.967385 
z
" clip-path="url(#p1fc903515f)" style="fill: #1f77b4"/>
   </g>
   <g id="patch_162">
    <path d="M 325.04432 273.312 
L 326.653711 273.312 
L 326.653711 74.702769 
L 325.04432 74.702769 
z
" clip-path="url(#p1fc903515f)" style="fill: #1f77b4"/>
   </g>
   <g id="patch_163">
    <path d="M 326.653711 273.312 
L 328.263103 273.312 
L 328.263103 84.450462 
L 326.653711 84.450462 
z
" clip-path="url(#p1fc903515f)" style="fill: #1f77b4"/>
   </g>
   <g id="patch_164">
    <path d="M 328.263103 273.312 
L 329.872494 273.312 
L 329.872494 80.795077 
L 328.263103 80.795077 
z
" clip-path="url(#p1fc903515f)" style="fill: #1f77b4"/>
   </g>
   <g id="patch_165">
    <path d="M 329.872494 273.312 
L 331.481886 273.312 
L 331.481886 70.438154 
L 329.872494 70.438154 
z
" clip-path="url(#p1fc903515f)" style="fill: #1f77b4"/>
   </g>
   <g id="patch_166">
    <path d="M 331.481886 273.312 
L 333.091278 273.312 
L 333.091278 93.588923 
L 331.481886 93.588923 
z
" clip-path="url(#p1fc903515f)" style="fill: #1f77b4"/>
   </g>
   <g id="patch_167">
    <path d="M 333.091278 273.312 
L 334.700669 273.312 
L 334.700669 88.715077 
L 333.091278 88.715077 
z
" clip-path="url(#p1fc903515f)" style="fill: #1f77b4"/>
   </g>
   <g id="patch_168">
    <path d="M 334.700669 273.312 
L 336.310061 273.312 
L 336.310061 64.955077 
L 334.700669 64.955077 
z
" clip-path="url(#p1fc903515f)" style="fill: #1f77b4"/>
   </g>
   <g id="patch_169">
    <path d="M 336.310061 273.312 
L 337.919452 273.312 
L 337.919452 72.875077 
L 336.310061 72.875077 
z
" clip-path="url(#p1fc903515f)" style="fill: #1f77b4"/>
   </g>
   <g id="patch_170">
    <path d="M 337.919452 273.312 
L 339.528844 273.312 
L 339.528844 78.967385 
L 337.919452 78.967385 
z
" clip-path="url(#p1fc903515f)" style="fill: #1f77b4"/>
   </g>
   <g id="patch_171">
    <path d="M 339.528844 273.312 
L 341.138235 273.312 
L 341.138235 66.173538 
L 339.528844 66.173538 
z
" clip-path="url(#p1fc903515f)" style="fill: #1f77b4"/>
   </g>
   <g id="patch_172">
    <path d="M 341.138235 273.312 
L 342.747627 273.312 
L 342.747627 47.896615 
L 341.138235 47.896615 
z
" clip-path="url(#p1fc903515f)" style="fill: #1f77b4"/>
   </g>
   <g id="patch_173">
    <path d="M 342.747627 273.312 
L 344.357019 273.312 
L 344.357019 87.496615 
L 342.747627 87.496615 
z
" clip-path="url(#p1fc903515f)" style="fill: #1f77b4"/>
   </g>
   <g id="patch_174">
    <path d="M 344.357019 273.312 
L 345.96641 273.312 
L 345.96641 53.988923 
L 344.357019 53.988923 
z
" clip-path="url(#p1fc903515f)" style="fill: #1f77b4"/>
   </g>
   <g id="patch_175">
    <path d="M 345.96641 273.312 
L 347.575802 273.312 
L 347.575802 81.404308 
L 345.96641 81.404308 
z
" clip-path="url(#p1fc903515f)" style="fill: #1f77b4"/>
   </g>
   <g id="patch_176">
    <path d="M 347.575802 273.312 
L 349.185193 273.312 
L 349.185193 66.173538 
L 347.575802 66.173538 
z
" clip-path="url(#p1fc903515f)" style="fill: #1f77b4"/>
   </g>
   <g id="patch_177">
    <path d="M 349.185193 273.312 
L 350.794585 273.312 
L 350.794585 53.988923 
L 349.185193 53.988923 
z
" clip-path="url(#p1fc903515f)" style="fill: #1f77b4"/>
   </g>
   <g id="patch_178">
    <path d="M 350.794585 273.312 
L 352.403976 273.312 
L 352.403976 66.782769 
L 350.794585 66.782769 
z
" clip-path="url(#p1fc903515f)" style="fill: #1f77b4"/>
   </g>
   <g id="patch_179">
    <path d="M 352.403976 273.312 
L 354.013368 273.312 
L 354.013368 68.001231 
L 352.403976 68.001231 
z
" clip-path="url(#p1fc903515f)" style="fill: #1f77b4"/>
   </g>
   <g id="patch_180">
    <path d="M 354.013368 273.312 
L 355.62276 273.312 
L 355.62276 38.758154 
L 354.013368 38.758154 
z
" clip-path="url(#p1fc903515f)" style="fill: #1f77b4"/>
   </g>
   <g id="patch_181">
    <path d="M 355.62276 273.312 
L 357.232151 273.312 
L 357.232151 59.472 
L 355.62276 59.472 
z
" clip-path="url(#p1fc903515f)" style="fill: #1f77b4"/>
   </g>
   <g id="patch_182">
    <path d="M 357.232151 273.312 
L 358.841543 273.312 
L 358.841543 56.425846 
L 357.232151 56.425846 
z
" clip-path="url(#p1fc903515f)" style="fill: #1f77b4"/>
   </g>
   <g id="patch_183">
    <path d="M 358.841543 273.312 
L 360.450934 273.312 
L 360.450934 57.644308 
L 358.841543 57.644308 
z
" clip-path="url(#p1fc903515f)" style="fill: #1f77b4"/>
   </g>
   <g id="patch_184">
    <path d="M 360.450934 273.312 
L 362.060326 273.312 
L 362.060326 60.690462 
L 360.450934 60.690462 
z
" clip-path="url(#p1fc903515f)" style="fill: #1f77b4"/>
   </g>
   <g id="patch_185">
    <path d="M 362.060326 273.312 
L 363.669718 273.312 
L 363.669718 49.115077 
L 362.060326 49.115077 
z
" clip-path="url(#p1fc903515f)" style="fill: #1f77b4"/>
   </g>
   <g id="patch_186">
    <path d="M 363.669718 273.312 
L 365.279109 273.312 
L 365.279109 32.665846 
L 363.669718 32.665846 
z
" clip-path="url(#p1fc903515f)" style="fill: #1f77b4"/>
   </g>
   <g id="patch_187">
    <path d="M 365.279109 273.312 
L 366.888501 273.312 
L 366.888501 80.795077 
L 365.279109 80.795077 
z
" clip-path="url(#p1fc903515f)" style="fill: #1f77b4"/>
   </g>
   <g id="patch_188">
    <path d="M 366.888501 273.312 
L 368.497892 273.312 
L 368.497892 51.552 
L 366.888501 51.552 
z
" clip-path="url(#p1fc903515f)" style="fill: #1f77b4"/>
   </g>
   <g id="patch_189">
    <path d="M 368.497892 273.312 
L 370.107284 273.312 
L 370.107284 41.804308 
L 368.497892 41.804308 
z
" clip-path="url(#p1fc903515f)" style="fill: #1f77b4"/>
   </g>
   <g id="patch_190">
    <path d="M 370.107284 273.312 
L 371.716675 273.312 
L 371.716675 63.736615 
L 370.107284 63.736615 
z
" clip-path="url(#p1fc903515f)" style="fill: #1f77b4"/>
   </g>
   <g id="patch_191">
    <path d="M 371.716675 273.312 
L 373.326067 273.312 
L 373.326067 37.539692 
L 371.716675 37.539692 
z
" clip-path="url(#p1fc903515f)" style="fill: #1f77b4"/>
   </g>
   <g id="patch_192">
    <path d="M 373.326067 273.312 
L 374.935459 273.312 
L 374.935459 57.035077 
L 373.326067 57.035077 
z
" clip-path="url(#p1fc903515f)" style="fill: #1f77b4"/>
   </g>
   <g id="patch_193">
    <path d="M 374.935459 273.312 
L 376.54485 273.312 
L 376.54485 33.884308 
L 374.935459 33.884308 
z
" clip-path="url(#p1fc903515f)" style="fill: #1f77b4"/>
   </g>
   <g id="patch_194">
    <path d="M 376.54485 273.312 
L 378.154242 273.312 
L 378.154242 35.102769 
L 376.54485 35.102769 
z
" clip-path="url(#p1fc903515f)" style="fill: #1f77b4"/>
   </g>
   <g id="patch_195">
    <path d="M 378.154242 273.312 
L 379.763633 273.312 
L 379.763633 29.619692 
L 378.154242 29.619692 
z
" clip-path="url(#p1fc903515f)" style="fill: #1f77b4"/>
   </g>
   <g id="patch_196">
    <path d="M 379.763633 273.312 
L 381.373025 273.312 
L 381.373025 48.505846 
L 379.763633 48.505846 
z
" clip-path="url(#p1fc903515f)" style="fill: #1f77b4"/>
   </g>
   <g id="patch_197">
    <path d="M 381.373025 273.312 
L 382.982416 273.312 
L 382.982416 35.102769 
L 381.373025 35.102769 
z
" clip-path="url(#p1fc903515f)" style="fill: #1f77b4"/>
   </g>
   <g id="patch_198">
    <path d="M 382.982416 273.312 
L 384.591808 273.312 
L 384.591808 19.872 
L 382.982416 19.872 
z
" clip-path="url(#p1fc903515f)" style="fill: #1f77b4"/>
   </g>
   <g id="patch_199">
    <path d="M 384.591808 273.312 
L 386.2012 273.312 
L 386.2012 27.182769 
L 384.591808 27.182769 
z
" clip-path="url(#p1fc903515f)" style="fill: #1f77b4"/>
   </g>
   <g id="patch_200">
    <path d="M 386.2012 273.312 
L 387.810591 273.312 
L 387.810591 37.539692 
L 386.2012 37.539692 
z
" clip-path="url(#p1fc903515f)" style="fill: #1f77b4"/>
   </g>
   <g id="patch_201">
    <path d="M 387.810591 273.312 
L 389.419983 273.312 
L 389.419983 45.459692 
L 387.810591 45.459692 
z
" clip-path="url(#p1fc903515f)" style="fill: #1f77b4"/>
   </g>
   <g id="patch_202">
    <path d="M 389.419983 273.312 
L 391.029374 273.312 
L 391.029374 37.539692 
L 389.419983 37.539692 
z
" clip-path="url(#p1fc903515f)" style="fill: #1f77b4"/>
   </g>
   <g id="matplotlib.axis_1">
    <g id="xtick_1">
     <g id="line2d_1">
      <defs>
       <path id="m250fa662e2" d="M 0 0 
L 0 3.5 
" style="stroke: #000000; stroke-width: 0.8"/>
      </defs>
      <g>
       <use xlink:href="#m250fa662e2" x="66.376477" y="273.312" style="stroke: #000000; stroke-width: 0.8"/>
      </g>
     </g>
     <g id="text_1">
      <!-- 0.0 -->
      <g transform="translate(58.424915 287.910437)scale(0.1 -0.1)">
       <defs>
        <path id="DejaVuSans-30" d="M 2034 4250 
Q 1547 4250 1301 3770 
Q 1056 3291 1056 2328 
Q 1056 1369 1301 889 
Q 1547 409 2034 409 
Q 2525 409 2770 889 
Q 3016 1369 3016 2328 
Q 3016 3291 2770 3770 
Q 2525 4250 2034 4250 
z
M 2034 4750 
Q 2819 4750 3233 4129 
Q 3647 3509 3647 2328 
Q 3647 1150 3233 529 
Q 2819 -91 2034 -91 
Q 1250 -91 836 529 
Q 422 1150 422 2328 
Q 422 3509 836 4129 
Q 1250 4750 2034 4750 
z
" transform="scale(0.015625)"/>
        <path id="DejaVuSans-2e" d="M 684 794 
L 1344 794 
L 1344 0 
L 684 0 
L 684 794 
z
" transform="scale(0.015625)"/>
       </defs>
       <use xlink:href="#DejaVuSans-30"/>
       <use xlink:href="#DejaVuSans-2e" x="63.623047"/>
       <use xlink:href="#DejaVuSans-30" x="95.410156"/>
      </g>
     </g>
    </g>
    <g id="xtick_2">
     <g id="line2d_2">
      <g>
       <use xlink:href="#m250fa662e2" x="131.307386" y="273.312" style="stroke: #000000; stroke-width: 0.8"/>
      </g>
     </g>
     <g id="text_2">
      <!-- 0.2 -->
      <g transform="translate(123.355824 287.910437)scale(0.1 -0.1)">
       <defs>
        <path id="DejaVuSans-32" d="M 1228 531 
L 3431 531 
L 3431 0 
L 469 0 
L 469 531 
Q 828 903 1448 1529 
Q 2069 2156 2228 2338 
Q 2531 2678 2651 2914 
Q 2772 3150 2772 3378 
Q 2772 3750 2511 3984 
Q 2250 4219 1831 4219 
Q 1534 4219 1204 4116 
Q 875 4013 500 3803 
L 500 4441 
Q 881 4594 1212 4672 
Q 1544 4750 1819 4750 
Q 2544 4750 2975 4387 
Q 3406 4025 3406 3419 
Q 3406 3131 3298 2873 
Q 3191 2616 2906 2266 
Q 2828 2175 2409 1742 
Q 1991 1309 1228 531 
z
" transform="scale(0.015625)"/>
       </defs>
       <use xlink:href="#DejaVuSans-30"/>
       <use xlink:href="#DejaVuSans-2e" x="63.623047"/>
       <use xlink:href="#DejaVuSans-32" x="95.410156"/>
      </g>
     </g>
    </g>
    <g id="xtick_3">
     <g id="line2d_3">
      <g>
       <use xlink:href="#m250fa662e2" x="196.238295" y="273.312" style="stroke: #000000; stroke-width: 0.8"/>
      </g>
     </g>
     <g id="text_3">
      <!-- 0.4 -->
      <g transform="translate(188.286733 287.910437)scale(0.1 -0.1)">
       <defs>
        <path id="DejaVuSans-34" d="M 2419 4116 
L 825 1625 
L 2419 1625 
L 2419 4116 
z
M 2253 4666 
L 3047 4666 
L 3047 1625 
L 3713 1625 
L 3713 1100 
L 3047 1100 
L 3047 0 
L 2419 0 
L 2419 1100 
L 313 1100 
L 313 1709 
L 2253 4666 
z
" transform="scale(0.015625)"/>
       </defs>
       <use xlink:href="#DejaVuSans-30"/>
       <use xlink:href="#DejaVuSans-2e" x="63.623047"/>
       <use xlink:href="#DejaVuSans-34" x="95.410156"/>
      </g>
     </g>
    </g>
    <g id="xtick_4">
     <g id="line2d_4">
      <g>
       <use xlink:href="#m250fa662e2" x="261.169205" y="273.312" style="stroke: #000000; stroke-width: 0.8"/>
      </g>
     </g>
     <g id="text_4">
      <!-- 0.6 -->
      <g transform="translate(253.217642 287.910437)scale(0.1 -0.1)">
       <defs>
        <path id="DejaVuSans-36" d="M 2113 2584 
Q 1688 2584 1439 2293 
Q 1191 2003 1191 1497 
Q 1191 994 1439 701 
Q 1688 409 2113 409 
Q 2538 409 2786 701 
Q 3034 994 3034 1497 
Q 3034 2003 2786 2293 
Q 2538 2584 2113 2584 
z
M 3366 4563 
L 3366 3988 
Q 3128 4100 2886 4159 
Q 2644 4219 2406 4219 
Q 1781 4219 1451 3797 
Q 1122 3375 1075 2522 
Q 1259 2794 1537 2939 
Q 1816 3084 2150 3084 
Q 2853 3084 3261 2657 
Q 3669 2231 3669 1497 
Q 3669 778 3244 343 
Q 2819 -91 2113 -91 
Q 1303 -91 875 529 
Q 447 1150 447 2328 
Q 447 3434 972 4092 
Q 1497 4750 2381 4750 
Q 2619 4750 2861 4703 
Q 3103 4656 3366 4563 
z
" transform="scale(0.015625)"/>
       </defs>
       <use xlink:href="#DejaVuSans-30"/>
       <use xlink:href="#DejaVuSans-2e" x="63.623047"/>
       <use xlink:href="#DejaVuSans-36" x="95.410156"/>
      </g>
     </g>
    </g>
    <g id="xtick_5">
     <g id="line2d_5">
      <g>
       <use xlink:href="#m250fa662e2" x="326.100114" y="273.312" style="stroke: #000000; stroke-width: 0.8"/>
      </g>
     </g>
     <g id="text_5">
      <!-- 0.8 -->
      <g transform="translate(318.148551 287.910437)scale(0.1 -0.1)">
       <defs>
        <path id="DejaVuSans-38" d="M 2034 2216 
Q 1584 2216 1326 1975 
Q 1069 1734 1069 1313 
Q 1069 891 1326 650 
Q 1584 409 2034 409 
Q 2484 409 2743 651 
Q 3003 894 3003 1313 
Q 3003 1734 2745 1975 
Q 2488 2216 2034 2216 
z
M 1403 2484 
Q 997 2584 770 2862 
Q 544 3141 544 3541 
Q 544 4100 942 4425 
Q 1341 4750 2034 4750 
Q 2731 4750 3128 4425 
Q 3525 4100 3525 3541 
Q 3525 3141 3298 2862 
Q 3072 2584 2669 2484 
Q 3125 2378 3379 2068 
Q 3634 1759 3634 1313 
Q 3634 634 3220 271 
Q 2806 -91 2034 -91 
Q 1263 -91 848 271 
Q 434 634 434 1313 
Q 434 1759 690 2068 
Q 947 2378 1403 2484 
z
M 1172 3481 
Q 1172 3119 1398 2916 
Q 1625 2713 2034 2713 
Q 2441 2713 2670 2916 
Q 2900 3119 2900 3481 
Q 2900 3844 2670 4047 
Q 2441 4250 2034 4250 
Q 1625 4250 1398 4047 
Q 1172 3844 1172 3481 
z
" transform="scale(0.015625)"/>
       </defs>
       <use xlink:href="#DejaVuSans-30"/>
       <use xlink:href="#DejaVuSans-2e" x="63.623047"/>
       <use xlink:href="#DejaVuSans-38" x="95.410156"/>
      </g>
     </g>
    </g>
    <g id="xtick_6">
     <g id="line2d_6">
      <g>
       <use xlink:href="#m250fa662e2" x="391.031023" y="273.312" style="stroke: #000000; stroke-width: 0.8"/>
      </g>
     </g>
     <g id="text_6">
      <!-- 1.0 -->
      <g transform="translate(383.07946 287.910437)scale(0.1 -0.1)">
       <defs>
        <path id="DejaVuSans-31" d="M 794 531 
L 1825 531 
L 1825 4091 
L 703 3866 
L 703 4441 
L 1819 4666 
L 2450 4666 
L 2450 531 
L 3481 531 
L 3481 0 
L 794 0 
L 794 531 
z
" transform="scale(0.015625)"/>
       </defs>
       <use xlink:href="#DejaVuSans-31"/>
       <use xlink:href="#DejaVuSans-2e" x="63.623047"/>
       <use xlink:href="#DejaVuSans-30" x="95.410156"/>
      </g>
     </g>
    </g>
    <g id="text_7">
     <!-- Propagation direction -->
     <g transform="translate(175.221719 301.588562)scale(0.1 -0.1)">
      <defs>
       <path id="DejaVuSans-50" d="M 1259 4147 
L 1259 2394 
L 2053 2394 
Q 2494 2394 2734 2622 
Q 2975 2850 2975 3272 
Q 2975 3691 2734 3919 
Q 2494 4147 2053 4147 
L 1259 4147 
z
M 628 4666 
L 2053 4666 
Q 2838 4666 3239 4311 
Q 3641 3956 3641 3272 
Q 3641 2581 3239 2228 
Q 2838 1875 2053 1875 
L 1259 1875 
L 1259 0 
L 628 0 
L 628 4666 
z
" transform="scale(0.015625)"/>
       <path id="DejaVuSans-72" d="M 2631 2963 
Q 2534 3019 2420 3045 
Q 2306 3072 2169 3072 
Q 1681 3072 1420 2755 
Q 1159 2438 1159 1844 
L 1159 0 
L 581 0 
L 581 3500 
L 1159 3500 
L 1159 2956 
Q 1341 3275 1631 3429 
Q 1922 3584 2338 3584 
Q 2397 3584 2469 3576 
Q 2541 3569 2628 3553 
L 2631 2963 
z
" transform="scale(0.015625)"/>
       <path id="DejaVuSans-6f" d="M 1959 3097 
Q 1497 3097 1228 2736 
Q 959 2375 959 1747 
Q 959 1119 1226 758 
Q 1494 397 1959 397 
Q 2419 397 2687 759 
Q 2956 1122 2956 1747 
Q 2956 2369 2687 2733 
Q 2419 3097 1959 3097 
z
M 1959 3584 
Q 2709 3584 3137 3096 
Q 3566 2609 3566 1747 
Q 3566 888 3137 398 
Q 2709 -91 1959 -91 
Q 1206 -91 779 398 
Q 353 888 353 1747 
Q 353 2609 779 3096 
Q 1206 3584 1959 3584 
z
" transform="scale(0.015625)"/>
       <path id="DejaVuSans-70" d="M 1159 525 
L 1159 -1331 
L 581 -1331 
L 581 3500 
L 1159 3500 
L 1159 2969 
Q 1341 3281 1617 3432 
Q 1894 3584 2278 3584 
Q 2916 3584 3314 3078 
Q 3713 2572 3713 1747 
Q 3713 922 3314 415 
Q 2916 -91 2278 -91 
Q 1894 -91 1617 61 
Q 1341 213 1159 525 
z
M 3116 1747 
Q 3116 2381 2855 2742 
Q 2594 3103 2138 3103 
Q 1681 3103 1420 2742 
Q 1159 2381 1159 1747 
Q 1159 1113 1420 752 
Q 1681 391 2138 391 
Q 2594 391 2855 752 
Q 3116 1113 3116 1747 
z
" transform="scale(0.015625)"/>
       <path id="DejaVuSans-61" d="M 2194 1759 
Q 1497 1759 1228 1600 
Q 959 1441 959 1056 
Q 959 750 1161 570 
Q 1363 391 1709 391 
Q 2188 391 2477 730 
Q 2766 1069 2766 1631 
L 2766 1759 
L 2194 1759 
z
M 3341 1997 
L 3341 0 
L 2766 0 
L 2766 531 
Q 2569 213 2275 61 
Q 1981 -91 1556 -91 
Q 1019 -91 701 211 
Q 384 513 384 1019 
Q 384 1609 779 1909 
Q 1175 2209 1959 2209 
L 2766 2209 
L 2766 2266 
Q 2766 2663 2505 2880 
Q 2244 3097 1772 3097 
Q 1472 3097 1187 3025 
Q 903 2953 641 2809 
L 641 3341 
Q 956 3463 1253 3523 
Q 1550 3584 1831 3584 
Q 2591 3584 2966 3190 
Q 3341 2797 3341 1997 
z
" transform="scale(0.015625)"/>
       <path id="DejaVuSans-67" d="M 2906 1791 
Q 2906 2416 2648 2759 
Q 2391 3103 1925 3103 
Q 1463 3103 1205 2759 
Q 947 2416 947 1791 
Q 947 1169 1205 825 
Q 1463 481 1925 481 
Q 2391 481 2648 825 
Q 2906 1169 2906 1791 
z
M 3481 434 
Q 3481 -459 3084 -895 
Q 2688 -1331 1869 -1331 
Q 1566 -1331 1297 -1286 
Q 1028 -1241 775 -1147 
L 775 -588 
Q 1028 -725 1275 -790 
Q 1522 -856 1778 -856 
Q 2344 -856 2625 -561 
Q 2906 -266 2906 331 
L 2906 616 
Q 2728 306 2450 153 
Q 2172 0 1784 0 
Q 1141 0 747 490 
Q 353 981 353 1791 
Q 353 2603 747 3093 
Q 1141 3584 1784 3584 
Q 2172 3584 2450 3431 
Q 2728 3278 2906 2969 
L 2906 3500 
L 3481 3500 
L 3481 434 
z
" transform="scale(0.015625)"/>
       <path id="DejaVuSans-74" d="M 1172 4494 
L 1172 3500 
L 2356 3500 
L 2356 3053 
L 1172 3053 
L 1172 1153 
Q 1172 725 1289 603 
Q 1406 481 1766 481 
L 2356 481 
L 2356 0 
L 1766 0 
Q 1100 0 847 248 
Q 594 497 594 1153 
L 594 3053 
L 172 3053 
L 172 3500 
L 594 3500 
L 594 4494 
L 1172 4494 
z
" transform="scale(0.015625)"/>
       <path id="DejaVuSans-69" d="M 603 3500 
L 1178 3500 
L 1178 0 
L 603 0 
L 603 3500 
z
M 603 4863 
L 1178 4863 
L 1178 4134 
L 603 4134 
L 603 4863 
z
" transform="scale(0.015625)"/>
       <path id="DejaVuSans-6e" d="M 3513 2113 
L 3513 0 
L 2938 0 
L 2938 2094 
Q 2938 2591 2744 2837 
Q 2550 3084 2163 3084 
Q 1697 3084 1428 2787 
Q 1159 2491 1159 1978 
L 1159 0 
L 581 0 
L 581 3500 
L 1159 3500 
L 1159 2956 
Q 1366 3272 1645 3428 
Q 1925 3584 2291 3584 
Q 2894 3584 3203 3211 
Q 3513 2838 3513 2113 
z
" transform="scale(0.015625)"/>
       <path id="DejaVuSans-20" transform="scale(0.015625)"/>
       <path id="DejaVuSans-64" d="M 2906 2969 
L 2906 4863 
L 3481 4863 
L 3481 0 
L 2906 0 
L 2906 525 
Q 2725 213 2448 61 
Q 2172 -91 1784 -91 
Q 1150 -91 751 415 
Q 353 922 353 1747 
Q 353 2572 751 3078 
Q 1150 3584 1784 3584 
Q 2172 3584 2448 3432 
Q 2725 3281 2906 2969 
z
M 947 1747 
Q 947 1113 1208 752 
Q 1469 391 1925 391 
Q 2381 391 2643 752 
Q 2906 1113 2906 1747 
Q 2906 2381 2643 2742 
Q 2381 3103 1925 3103 
Q 1469 3103 1208 2742 
Q 947 2381 947 1747 
z
" transform="scale(0.015625)"/>
       <path id="DejaVuSans-65" d="M 3597 1894 
L 3597 1613 
L 953 1613 
Q 991 1019 1311 708 
Q 1631 397 2203 397 
Q 2534 397 2845 478 
Q 3156 559 3463 722 
L 3463 178 
Q 3153 47 2828 -22 
Q 2503 -91 2169 -91 
Q 1331 -91 842 396 
Q 353 884 353 1716 
Q 353 2575 817 3079 
Q 1281 3584 2069 3584 
Q 2775 3584 3186 3129 
Q 3597 2675 3597 1894 
z
M 3022 2063 
Q 3016 2534 2758 2815 
Q 2500 3097 2075 3097 
Q 1594 3097 1305 2825 
Q 1016 2553 972 2059 
L 3022 2063 
z
" transform="scale(0.015625)"/>
       <path id="DejaVuSans-63" d="M 3122 3366 
L 3122 2828 
Q 2878 2963 2633 3030 
Q 2388 3097 2138 3097 
Q 1578 3097 1268 2742 
Q 959 2388 959 1747 
Q 959 1106 1268 751 
Q 1578 397 2138 397 
Q 2388 397 2633 464 
Q 2878 531 3122 666 
L 3122 134 
Q 2881 22 2623 -34 
Q 2366 -91 2075 -91 
Q 1284 -91 818 406 
Q 353 903 353 1747 
Q 353 2603 823 3093 
Q 1294 3584 2113 3584 
Q 2378 3584 2631 3529 
Q 2884 3475 3122 3366 
z
" transform="scale(0.015625)"/>
      </defs>
      <use xlink:href="#DejaVuSans-50"/>
      <use xlink:href="#DejaVuSans-72" x="58.552734"/>
      <use xlink:href="#DejaVuSans-6f" x="97.416016"/>
      <use xlink:href="#DejaVuSans-70" x="158.597656"/>
      <use xlink:href="#DejaVuSans-61" x="222.074219"/>
      <use xlink:href="#DejaVuSans-67" x="283.353516"/>
      <use xlink:href="#DejaVuSans-61" x="346.830078"/>
      <use xlink:href="#DejaVuSans-74" x="408.109375"/>
      <use xlink:href="#DejaVuSans-69" x="447.318359"/>
      <use xlink:href="#DejaVuSans-6f" x="475.101562"/>
      <use xlink:href="#DejaVuSans-6e" x="536.283203"/>
      <use xlink:href="#DejaVuSans-20" x="599.662109"/>
      <use xlink:href="#DejaVuSans-64" x="631.449219"/>
      <use xlink:href="#DejaVuSans-69" x="694.925781"/>
      <use xlink:href="#DejaVuSans-72" x="722.708984"/>
      <use xlink:href="#DejaVuSans-65" x="761.572266"/>
      <use xlink:href="#DejaVuSans-63" x="823.095703"/>
      <use xlink:href="#DejaVuSans-74" x="878.076172"/>
      <use xlink:href="#DejaVuSans-69" x="917.285156"/>
      <use xlink:href="#DejaVuSans-6f" x="945.068359"/>
      <use xlink:href="#DejaVuSans-6e" x="1006.25"/>
     </g>
    </g>
   </g>
   <g id="matplotlib.axis_2">
    <g id="ytick_1">
     <g id="line2d_7">
      <defs>
       <path id="m259ec5f7f7" d="M 0 0 
L -3.5 0 
" style="stroke: #000000; stroke-width: 0.8"/>
      </defs>
      <g>
       <use xlink:href="#m259ec5f7f7" x="50.14375" y="273.312" style="stroke: #000000; stroke-width: 0.8"/>
      </g>
     </g>
     <g id="text_8">
      <!-- 0.00 -->
      <g transform="translate(20.878125 277.111219)scale(0.1 -0.1)">
       <use xlink:href="#DejaVuSans-30"/>
       <use xlink:href="#DejaVuSans-2e" x="63.623047"/>
       <use xlink:href="#DejaVuSans-30" x="95.410156"/>
       <use xlink:href="#DejaVuSans-30" x="159.033203"/>
      </g>
     </g>
    </g>
    <g id="ytick_2">
     <g id="line2d_8">
      <g>
       <use xlink:href="#m259ec5f7f7" x="50.14375" y="243.110948" style="stroke: #000000; stroke-width: 0.8"/>
      </g>
     </g>
     <g id="text_9">
      <!-- 0.25 -->
      <g transform="translate(20.878125 246.910167)scale(0.1 -0.1)">
       <defs>
        <path id="DejaVuSans-35" d="M 691 4666 
L 3169 4666 
L 3169 4134 
L 1269 4134 
L 1269 2991 
Q 1406 3038 1543 3061 
Q 1681 3084 1819 3084 
Q 2600 3084 3056 2656 
Q 3513 2228 3513 1497 
Q 3513 744 3044 326 
Q 2575 -91 1722 -91 
Q 1428 -91 1123 -41 
Q 819 9 494 109 
L 494 744 
Q 775 591 1075 516 
Q 1375 441 1709 441 
Q 2250 441 2565 725 
Q 2881 1009 2881 1497 
Q 2881 1984 2565 2268 
Q 2250 2553 1709 2553 
Q 1456 2553 1204 2497 
Q 953 2441 691 2322 
L 691 4666 
z
" transform="scale(0.015625)"/>
       </defs>
       <use xlink:href="#DejaVuSans-30"/>
       <use xlink:href="#DejaVuSans-2e" x="63.623047"/>
       <use xlink:href="#DejaVuSans-32" x="95.410156"/>
       <use xlink:href="#DejaVuSans-35" x="159.033203"/>
      </g>
     </g>
    </g>
    <g id="ytick_3">
     <g id="line2d_9">
      <g>
       <use xlink:href="#m259ec5f7f7" x="50.14375" y="212.909897" style="stroke: #000000; stroke-width: 0.8"/>
      </g>
     </g>
     <g id="text_10">
      <!-- 0.50 -->
      <g transform="translate(20.878125 216.709116)scale(0.1 -0.1)">
       <use xlink:href="#DejaVuSans-30"/>
       <use xlink:href="#DejaVuSans-2e" x="63.623047"/>
       <use xlink:href="#DejaVuSans-35" x="95.410156"/>
       <use xlink:href="#DejaVuSans-30" x="159.033203"/>
      </g>
     </g>
    </g>
    <g id="ytick_4">
     <g id="line2d_10">
      <g>
       <use xlink:href="#m259ec5f7f7" x="50.14375" y="182.708845" style="stroke: #000000; stroke-width: 0.8"/>
      </g>
     </g>
     <g id="text_11">
      <!-- 0.75 -->
      <g transform="translate(20.878125 186.508064)scale(0.1 -0.1)">
       <defs>
        <path id="DejaVuSans-37" d="M 525 4666 
L 3525 4666 
L 3525 4397 
L 1831 0 
L 1172 0 
L 2766 4134 
L 525 4134 
L 525 4666 
z
" transform="scale(0.015625)"/>
       </defs>
       <use xlink:href="#DejaVuSans-30"/>
       <use xlink:href="#DejaVuSans-2e" x="63.623047"/>
       <use xlink:href="#DejaVuSans-37" x="95.410156"/>
       <use xlink:href="#DejaVuSans-35" x="159.033203"/>
      </g>
     </g>
    </g>
    <g id="ytick_5">
     <g id="line2d_11">
      <g>
       <use xlink:href="#m259ec5f7f7" x="50.14375" y="152.507794" style="stroke: #000000; stroke-width: 0.8"/>
      </g>
     </g>
     <g id="text_12">
      <!-- 1.00 -->
      <g transform="translate(20.878125 156.307012)scale(0.1 -0.1)">
       <use xlink:href="#DejaVuSans-31"/>
       <use xlink:href="#DejaVuSans-2e" x="63.623047"/>
       <use xlink:href="#DejaVuSans-30" x="95.410156"/>
       <use xlink:href="#DejaVuSans-30" x="159.033203"/>
      </g>
     </g>
    </g>
    <g id="ytick_6">
     <g id="line2d_12">
      <g>
       <use xlink:href="#m259ec5f7f7" x="50.14375" y="122.306742" style="stroke: #000000; stroke-width: 0.8"/>
      </g>
     </g>
     <g id="text_13">
      <!-- 1.25 -->
      <g transform="translate(20.878125 126.105961)scale(0.1 -0.1)">
       <use xlink:href="#DejaVuSans-31"/>
       <use xlink:href="#DejaVuSans-2e" x="63.623047"/>
       <use xlink:href="#DejaVuSans-32" x="95.410156"/>
       <use xlink:href="#DejaVuSans-35" x="159.033203"/>
      </g>
     </g>
    </g>
    <g id="ytick_7">
     <g id="line2d_13">
      <g>
       <use xlink:href="#m259ec5f7f7" x="50.14375" y="92.105691" style="stroke: #000000; stroke-width: 0.8"/>
      </g>
     </g>
     <g id="text_14">
      <!-- 1.50 -->
      <g transform="translate(20.878125 95.904909)scale(0.1 -0.1)">
       <use xlink:href="#DejaVuSans-31"/>
       <use xlink:href="#DejaVuSans-2e" x="63.623047"/>
       <use xlink:href="#DejaVuSans-35" x="95.410156"/>
       <use xlink:href="#DejaVuSans-30" x="159.033203"/>
      </g>
     </g>
    </g>
    <g id="ytick_8">
     <g id="line2d_14">
      <g>
       <use xlink:href="#m259ec5f7f7" x="50.14375" y="61.904639" style="stroke: #000000; stroke-width: 0.8"/>
      </g>
     </g>
     <g id="text_15">
      <!-- 1.75 -->
      <g transform="translate(20.878125 65.703858)scale(0.1 -0.1)">
       <use xlink:href="#DejaVuSans-31"/>
       <use xlink:href="#DejaVuSans-2e" x="63.623047"/>
       <use xlink:href="#DejaVuSans-37" x="95.410156"/>
       <use xlink:href="#DejaVuSans-35" x="159.033203"/>
      </g>
     </g>
    </g>
    <g id="ytick_9">
     <g id="line2d_15">
      <g>
       <use xlink:href="#m259ec5f7f7" x="50.14375" y="31.703587" style="stroke: #000000; stroke-width: 0.8"/>
      </g>
     </g>
     <g id="text_16">
      <!-- 2.00 -->
      <g transform="translate(20.878125 35.502806)scale(0.1 -0.1)">
       <use xlink:href="#DejaVuSans-32"/>
       <use xlink:href="#DejaVuSans-2e" x="63.623047"/>
       <use xlink:href="#DejaVuSans-30" x="95.410156"/>
       <use xlink:href="#DejaVuSans-30" x="159.033203"/>
      </g>
     </g>
    </g>
    <g id="text_17">
     <!-- Probability density -->
     <g transform="translate(14.798438 186.606781)rotate(-90)scale(0.1 -0.1)">
      <defs>
       <path id="DejaVuSans-62" d="M 3116 1747 
Q 3116 2381 2855 2742 
Q 2594 3103 2138 3103 
Q 1681 3103 1420 2742 
Q 1159 2381 1159 1747 
Q 1159 1113 1420 752 
Q 1681 391 2138 391 
Q 2594 391 2855 752 
Q 3116 1113 3116 1747 
z
M 1159 2969 
Q 1341 3281 1617 3432 
Q 1894 3584 2278 3584 
Q 2916 3584 3314 3078 
Q 3713 2572 3713 1747 
Q 3713 922 3314 415 
Q 2916 -91 2278 -91 
Q 1894 -91 1617 61 
Q 1341 213 1159 525 
L 1159 0 
L 581 0 
L 581 4863 
L 1159 4863 
L 1159 2969 
z
" transform="scale(0.015625)"/>
       <path id="DejaVuSans-6c" d="M 603 4863 
L 1178 4863 
L 1178 0 
L 603 0 
L 603 4863 
z
" transform="scale(0.015625)"/>
       <path id="DejaVuSans-79" d="M 2059 -325 
Q 1816 -950 1584 -1140 
Q 1353 -1331 966 -1331 
L 506 -1331 
L 506 -850 
L 844 -850 
Q 1081 -850 1212 -737 
Q 1344 -625 1503 -206 
L 1606 56 
L 191 3500 
L 800 3500 
L 1894 763 
L 2988 3500 
L 3597 3500 
L 2059 -325 
z
" transform="scale(0.015625)"/>
       <path id="DejaVuSans-73" d="M 2834 3397 
L 2834 2853 
Q 2591 2978 2328 3040 
Q 2066 3103 1784 3103 
Q 1356 3103 1142 2972 
Q 928 2841 928 2578 
Q 928 2378 1081 2264 
Q 1234 2150 1697 2047 
L 1894 2003 
Q 2506 1872 2764 1633 
Q 3022 1394 3022 966 
Q 3022 478 2636 193 
Q 2250 -91 1575 -91 
Q 1294 -91 989 -36 
Q 684 19 347 128 
L 347 722 
Q 666 556 975 473 
Q 1284 391 1588 391 
Q 1994 391 2212 530 
Q 2431 669 2431 922 
Q 2431 1156 2273 1281 
Q 2116 1406 1581 1522 
L 1381 1569 
Q 847 1681 609 1914 
Q 372 2147 372 2553 
Q 372 3047 722 3315 
Q 1072 3584 1716 3584 
Q 2034 3584 2315 3537 
Q 2597 3491 2834 3397 
z
" transform="scale(0.015625)"/>
      </defs>
      <use xlink:href="#DejaVuSans-50"/>
      <use xlink:href="#DejaVuSans-72" x="58.552734"/>
      <use xlink:href="#DejaVuSans-6f" x="97.416016"/>
      <use xlink:href="#DejaVuSans-62" x="158.597656"/>
      <use xlink:href="#DejaVuSans-61" x="222.074219"/>
      <use xlink:href="#DejaVuSans-62" x="283.353516"/>
      <use xlink:href="#DejaVuSans-69" x="346.830078"/>
      <use xlink:href="#DejaVuSans-6c" x="374.613281"/>
      <use xlink:href="#DejaVuSans-69" x="402.396484"/>
      <use xlink:href="#DejaVuSans-74" x="430.179688"/>
      <use xlink:href="#DejaVuSans-79" x="469.388672"/>
      <use xlink:href="#DejaVuSans-20" x="528.568359"/>
      <use xlink:href="#DejaVuSans-64" x="560.355469"/>
      <use xlink:href="#DejaVuSans-65" x="623.832031"/>
      <use xlink:href="#DejaVuSans-6e" x="685.355469"/>
      <use xlink:href="#DejaVuSans-73" x="748.734375"/>
      <use xlink:href="#DejaVuSans-69" x="800.833984"/>
      <use xlink:href="#DejaVuSans-74" x="828.617188"/>
      <use xlink:href="#DejaVuSans-79" x="867.826172"/>
     </g>
    </g>
   </g>
   <g id="line2d_16">
    <path d="M 66.376477 273.312 
L 391.031023 31.703587 
L 391.031023 31.703587 
" clip-path="url(#p1fc903515f)" style="fill: none; stroke: #ff7f0e; stroke-width: 1.5; stroke-linecap: square"/>
   </g>
   <g id="patch_203">
    <path d="M 50.14375 273.312 
L 50.14375 7.2 
" style="fill: none; stroke: #000000; stroke-width: 0.8; stroke-linejoin: miter; stroke-linecap: square"/>
   </g>
   <g id="patch_204">
    <path d="M 407.26375 273.312 
L 407.26375 7.2 
" style="fill: none; stroke: #000000; stroke-width: 0.8; stroke-linejoin: miter; stroke-linecap: square"/>
   </g>
   <g id="patch_205">
    <path d="M 50.14375 273.312 
L 407.26375 273.312 
" style="fill: none; stroke: #000000; stroke-width: 0.8; stroke-linejoin: miter; stroke-linecap: square"/>
   </g>
   <g id="patch_206">
    <path d="M 50.14375 7.2 
L 407.26375 7.2 
" style="fill: none; stroke: #000000; stroke-width: 0.8; stroke-linejoin: miter; stroke-linecap: square"/>
   </g>
  </g>
 </g>
 <defs>
  <clipPath id="p1fc903515f">
   <rect x="50.14375" y="7.2" width="357.12" height="266.112"/>
  </clipPath>
 </defs>
</svg>
