<?xml version="1.0" encoding="utf-8" standalone="no"?>
<!DOCTYPE svg PUBLIC "-//W3C//DTD SVG 1.1//EN"
  "http://www.w3.org/Graphics/SVG/1.1/DTD/svg11.dtd">
<svg xmlns:xlink="http://www.w3.org/1999/xlink" width="385.78125pt" height="262.19625pt" viewBox="0 0 385.78125 262.19625" xmlns="http://www.w3.org/2000/svg" version="1.1">
 <metadata>
  <rdf:RDF xmlns:dc="http://purl.org/dc/elements/1.1/" xmlns:cc="http://creativecommons.org/ns#" xmlns:rdf="http://www.w3.org/1999/02/22-rdf-syntax-ns#">
   <cc:Work>
    <dc:type rdf:resource="http://purl.org/dc/dcmitype/StillImage"/>
    <dc:date>2022-08-10T16:01:02.845149</dc:date>
    <dc:format>image/svg+xml</dc:format>
    <dc:creator>
     <cc:Agent>
      <dc:title>Matplotlib v3.5.2, https://matplotlib.org/</dc:title>
     </cc:Agent>
    </dc:creator>
   </cc:Work>
  </rdf:RDF>
 </metadata>
 <defs>
  <style type="text/css">*{stroke-linejoin: round; stroke-linecap: butt}</style>
 </defs>
 <g id="figure_1">
  <g id="patch_1">
   <path d="M 0 262.19625 
L 385.78125 262.19625 
L 385.78125 0 
L 0 0 
L 0 262.19625 
z
" style="fill: none"/>
  </g>
  <g id="axes_1">
   <g id="patch_2">
    <path d="M 43.78125 224.64 
L 378.58125 224.64 
L 378.58125 7.2 
L 43.78125 7.2 
z
" style="fill: #ffffff"/>
   </g>
   <g id="patch_3">
    <path d="M 60.55049 224.64 
L 62.06455 224.64 
L 62.06455 221.322838 
L 60.55049 221.322838 
z
" clip-path="url(#pb41f830b36)" style="fill: #1f77b4"/>
   </g>
   <g id="patch_4">
    <path d="M 62.06455 224.64 
L 63.57861 224.64 
L 63.57861 221.796718 
L 62.06455 221.796718 
z
" clip-path="url(#pb41f830b36)" style="fill: #1f77b4"/>
   </g>
   <g id="patch_5">
    <path d="M 63.57861 224.64 
L 65.09267 224.64 
L 65.09267 223.218359 
L 63.57861 223.218359 
z
" clip-path="url(#pb41f830b36)" style="fill: #1f77b4"/>
   </g>
   <g id="patch_6">
    <path d="M 65.09267 224.64 
L 66.60673 224.64 
L 66.60673 218.479555 
L 65.09267 218.479555 
z
" clip-path="url(#pb41f830b36)" style="fill: #1f77b4"/>
   </g>
   <g id="patch_7">
    <path d="M 66.60673 224.64 
L 68.12079 224.64 
L 68.12079 221.322838 
L 66.60673 221.322838 
z
" clip-path="url(#pb41f830b36)" style="fill: #1f77b4"/>
   </g>
   <g id="patch_8">
    <path d="M 68.12079 224.64 
L 69.63485 224.64 
L 69.63485 216.584034 
L 68.12079 216.584034 
z
" clip-path="url(#pb41f830b36)" style="fill: #1f77b4"/>
   </g>
   <g id="patch_9">
    <path d="M 69.63485 224.64 
L 71.14891 224.64 
L 71.14891 217.531795 
L 69.63485 217.531795 
z
" clip-path="url(#pb41f830b36)" style="fill: #1f77b4"/>
   </g>
   <g id="patch_10">
    <path d="M 71.14891 224.64 
L 72.66297 224.64 
L 72.66297 218.479555 
L 71.14891 218.479555 
z
" clip-path="url(#pb41f830b36)" style="fill: #1f77b4"/>
   </g>
   <g id="patch_11">
    <path d="M 72.66297 224.64 
L 74.17703 224.64 
L 74.17703 214.214632 
L 72.66297 214.214632 
z
" clip-path="url(#pb41f830b36)" style="fill: #1f77b4"/>
   </g>
   <g id="patch_12">
    <path d="M 74.17703 224.64 
L 75.69109 224.64 
L 75.69109 213.266872 
L 74.17703 213.266872 
z
" clip-path="url(#pb41f830b36)" style="fill: #1f77b4"/>
   </g>
   <g id="patch_13">
    <path d="M 75.69109 224.64 
L 77.20515 224.64 
L 77.20515 215.636273 
L 75.69109 215.636273 
z
" clip-path="url(#pb41f830b36)" style="fill: #1f77b4"/>
   </g>
   <g id="patch_14">
    <path d="M 77.20515 224.64 
L 78.71921 224.64 
L 78.71921 212.319111 
L 77.20515 212.319111 
z
" clip-path="url(#pb41f830b36)" style="fill: #1f77b4"/>
   </g>
   <g id="patch_15">
    <path d="M 78.71921 224.64 
L 80.23327 224.64 
L 80.23327 209.949709 
L 78.71921 209.949709 
z
" clip-path="url(#pb41f830b36)" style="fill: #1f77b4"/>
   </g>
   <g id="patch_16">
    <path d="M 80.23327 224.64 
L 81.74733 224.64 
L 81.74733 212.792991 
L 80.23327 212.792991 
z
" clip-path="url(#pb41f830b36)" style="fill: #1f77b4"/>
   </g>
   <g id="patch_17">
    <path d="M 81.74733 224.64 
L 83.26139 224.64 
L 83.26139 210.89747 
L 81.74733 210.89747 
z
" clip-path="url(#pb41f830b36)" style="fill: #1f77b4"/>
   </g>
   <g id="patch_18">
    <path d="M 83.26139 224.64 
L 84.77545 224.64 
L 84.77545 207.580307 
L 83.26139 207.580307 
z
" clip-path="url(#pb41f830b36)" style="fill: #1f77b4"/>
   </g>
   <g id="patch_19">
    <path d="M 84.77545 224.64 
L 86.28951 224.64 
L 86.28951 208.528068 
L 84.77545 208.528068 
z
" clip-path="url(#pb41f830b36)" style="fill: #1f77b4"/>
   </g>
   <g id="patch_20">
    <path d="M 86.28951 224.64 
L 87.80357 224.64 
L 87.80357 207.580307 
L 86.28951 207.580307 
z
" clip-path="url(#pb41f830b36)" style="fill: #1f77b4"/>
   </g>
   <g id="patch_21">
    <path d="M 87.80357 224.64 
L 89.31763 224.64 
L 89.31763 207.580307 
L 87.80357 207.580307 
z
" clip-path="url(#pb41f830b36)" style="fill: #1f77b4"/>
   </g>
   <g id="patch_22">
    <path d="M 89.31763 224.64 
L 90.83169 224.64 
L 90.83169 203.315384 
L 89.31763 203.315384 
z
" clip-path="url(#pb41f830b36)" style="fill: #1f77b4"/>
   </g>
   <g id="patch_23">
    <path d="M 90.83169 224.64 
L 92.34575 224.64 
L 92.34575 199.524341 
L 90.83169 199.524341 
z
" clip-path="url(#pb41f830b36)" style="fill: #1f77b4"/>
   </g>
   <g id="patch_24">
    <path d="M 92.34575 224.64 
L 93.85981 224.64 
L 93.85981 199.050461 
L 92.34575 199.050461 
z
" clip-path="url(#pb41f830b36)" style="fill: #1f77b4"/>
   </g>
   <g id="patch_25">
    <path d="M 93.85981 224.64 
L 95.37387 224.64 
L 95.37387 204.263145 
L 93.85981 204.263145 
z
" clip-path="url(#pb41f830b36)" style="fill: #1f77b4"/>
   </g>
   <g id="patch_26">
    <path d="M 95.37387 224.64 
L 96.88793 224.64 
L 96.88793 194.311657 
L 95.37387 194.311657 
z
" clip-path="url(#pb41f830b36)" style="fill: #1f77b4"/>
   </g>
   <g id="patch_27">
    <path d="M 96.88793 224.64 
L 98.40199 224.64 
L 98.40199 206.632547 
L 96.88793 206.632547 
z
" clip-path="url(#pb41f830b36)" style="fill: #1f77b4"/>
   </g>
   <g id="patch_28">
    <path d="M 98.40199 224.64 
L 99.91605 224.64 
L 99.91605 201.893743 
L 98.40199 201.893743 
z
" clip-path="url(#pb41f830b36)" style="fill: #1f77b4"/>
   </g>
   <g id="patch_29">
    <path d="M 99.91605 224.64 
L 101.43011 224.64 
L 101.43011 197.15494 
L 99.91605 197.15494 
z
" clip-path="url(#pb41f830b36)" style="fill: #1f77b4"/>
   </g>
   <g id="patch_30">
    <path d="M 101.43011 224.64 
L 102.94417 224.64 
L 102.94417 198.1027 
L 101.43011 198.1027 
z
" clip-path="url(#pb41f830b36)" style="fill: #1f77b4"/>
   </g>
   <g id="patch_31">
    <path d="M 102.94417 224.64 
L 104.45823 224.64 
L 104.45823 199.998222 
L 102.94417 199.998222 
z
" clip-path="url(#pb41f830b36)" style="fill: #1f77b4"/>
   </g>
   <g id="patch_32">
    <path d="M 104.45823 224.64 
L 105.97229 224.64 
L 105.97229 202.367623 
L 104.45823 202.367623 
z
" clip-path="url(#pb41f830b36)" style="fill: #1f77b4"/>
   </g>
   <g id="patch_33">
    <path d="M 105.97229 224.64 
L 107.48635 224.64 
L 107.48635 192.416136 
L 105.97229 192.416136 
z
" clip-path="url(#pb41f830b36)" style="fill: #1f77b4"/>
   </g>
   <g id="patch_34">
    <path d="M 107.48635 224.64 
L 109.00041 224.64 
L 109.00041 196.207179 
L 107.48635 196.207179 
z
" clip-path="url(#pb41f830b36)" style="fill: #1f77b4"/>
   </g>
   <g id="patch_35">
    <path d="M 109.00041 224.64 
L 110.51447 224.64 
L 110.51447 185.307931 
L 109.00041 185.307931 
z
" clip-path="url(#pb41f830b36)" style="fill: #1f77b4"/>
   </g>
   <g id="patch_36">
    <path d="M 110.51447 224.64 
L 112.02853 224.64 
L 112.02853 194.785538 
L 110.51447 194.785538 
z
" clip-path="url(#pb41f830b36)" style="fill: #1f77b4"/>
   </g>
   <g id="patch_37">
    <path d="M 112.02853 224.64 
L 113.54259 224.64 
L 113.54259 199.524341 
L 112.02853 199.524341 
z
" clip-path="url(#pb41f830b36)" style="fill: #1f77b4"/>
   </g>
   <g id="patch_38">
    <path d="M 113.54259 224.64 
L 115.05665 224.64 
L 115.05665 192.890016 
L 113.54259 192.890016 
z
" clip-path="url(#pb41f830b36)" style="fill: #1f77b4"/>
   </g>
   <g id="patch_39">
    <path d="M 115.05665 224.64 
L 116.57071 224.64 
L 116.57071 185.781811 
L 115.05665 185.781811 
z
" clip-path="url(#pb41f830b36)" style="fill: #1f77b4"/>
   </g>
   <g id="patch_40">
    <path d="M 116.57071 224.64 
L 118.08477 224.64 
L 118.08477 190.994495 
L 116.57071 190.994495 
z
" clip-path="url(#pb41f830b36)" style="fill: #1f77b4"/>
   </g>
   <g id="patch_41">
    <path d="M 118.08477 224.64 
L 119.59883 224.64 
L 119.59883 188.151213 
L 118.08477 188.151213 
z
" clip-path="url(#pb41f830b36)" style="fill: #1f77b4"/>
   </g>
   <g id="patch_42">
    <path d="M 119.59883 224.64 
L 121.11289 224.64 
L 121.11289 190.994495 
L 119.59883 190.994495 
z
" clip-path="url(#pb41f830b36)" style="fill: #1f77b4"/>
   </g>
   <g id="patch_43">
    <path d="M 121.11289 224.64 
L 122.62695 224.64 
L 122.62695 191.942256 
L 121.11289 191.942256 
z
" clip-path="url(#pb41f830b36)" style="fill: #1f77b4"/>
   </g>
   <g id="patch_44">
    <path d="M 122.62695 224.64 
L 124.14101 224.64 
L 124.14101 191.468375 
L 122.62695 191.468375 
z
" clip-path="url(#pb41f830b36)" style="fill: #1f77b4"/>
   </g>
   <g id="patch_45">
    <path d="M 124.14101 224.64 
L 125.65507 224.64 
L 125.65507 190.994495 
L 124.14101 190.994495 
z
" clip-path="url(#pb41f830b36)" style="fill: #1f77b4"/>
   </g>
   <g id="patch_46">
    <path d="M 125.65507 224.64 
L 127.16913 224.64 
L 127.16913 177.725845 
L 125.65507 177.725845 
z
" clip-path="url(#pb41f830b36)" style="fill: #1f77b4"/>
   </g>
   <g id="patch_47">
    <path d="M 127.16913 224.64 
L 128.68319 224.64 
L 128.68319 181.990768 
L 127.16913 181.990768 
z
" clip-path="url(#pb41f830b36)" style="fill: #1f77b4"/>
   </g>
   <g id="patch_48">
    <path d="M 128.68319 224.64 
L 130.19725 224.64 
L 130.19725 180.095247 
L 128.68319 180.095247 
z
" clip-path="url(#pb41f830b36)" style="fill: #1f77b4"/>
   </g>
   <g id="patch_49">
    <path d="M 130.19725 224.64 
L 131.71131 224.64 
L 131.71131 181.990768 
L 130.19725 181.990768 
z
" clip-path="url(#pb41f830b36)" style="fill: #1f77b4"/>
   </g>
   <g id="patch_50">
    <path d="M 131.71131 224.64 
L 133.22537 224.64 
L 133.22537 178.199725 
L 131.71131 178.199725 
z
" clip-path="url(#pb41f830b36)" style="fill: #1f77b4"/>
   </g>
   <g id="patch_51">
    <path d="M 133.22537 224.64 
L 134.73943 224.64 
L 134.73943 178.673606 
L 133.22537 178.673606 
z
" clip-path="url(#pb41f830b36)" style="fill: #1f77b4"/>
   </g>
   <g id="patch_52">
    <path d="M 134.73943 224.64 
L 136.25349 224.64 
L 136.25349 171.09152 
L 134.73943 171.09152 
z
" clip-path="url(#pb41f830b36)" style="fill: #1f77b4"/>
   </g>
   <g id="patch_53">
    <path d="M 136.25349 224.64 
L 137.76755 224.64 
L 137.76755 169.195999 
L 136.25349 169.195999 
z
" clip-path="url(#pb41f830b36)" style="fill: #1f77b4"/>
   </g>
   <g id="patch_54">
    <path d="M 137.76755 224.64 
L 139.28161 224.64 
L 139.28161 177.251965 
L 137.76755 177.251965 
z
" clip-path="url(#pb41f830b36)" style="fill: #1f77b4"/>
   </g>
   <g id="patch_55">
    <path d="M 139.28161 224.64 
L 140.79567 224.64 
L 140.79567 174.408683 
L 139.28161 174.408683 
z
" clip-path="url(#pb41f830b36)" style="fill: #1f77b4"/>
   </g>
   <g id="patch_56">
    <path d="M 140.79567 224.64 
L 142.30973 224.64 
L 142.30973 173.460922 
L 140.79567 173.460922 
z
" clip-path="url(#pb41f830b36)" style="fill: #1f77b4"/>
   </g>
   <g id="patch_57">
    <path d="M 142.30973 224.64 
L 143.82379 224.64 
L 143.82379 175.356443 
L 142.30973 175.356443 
z
" clip-path="url(#pb41f830b36)" style="fill: #1f77b4"/>
   </g>
   <g id="patch_58">
    <path d="M 143.82379 224.64 
L 145.33785 224.64 
L 145.33785 176.304204 
L 143.82379 176.304204 
z
" clip-path="url(#pb41f830b36)" style="fill: #1f77b4"/>
   </g>
   <g id="patch_59">
    <path d="M 145.33785 224.64 
L 146.85191 224.64 
L 146.85191 172.513161 
L 145.33785 172.513161 
z
" clip-path="url(#pb41f830b36)" style="fill: #1f77b4"/>
   </g>
   <g id="patch_60">
    <path d="M 146.85191 224.64 
L 148.36597 224.64 
L 148.36597 170.61764 
L 146.85191 170.61764 
z
" clip-path="url(#pb41f830b36)" style="fill: #1f77b4"/>
   </g>
   <g id="patch_61">
    <path d="M 148.36597 224.64 
L 149.88003 224.64 
L 149.88003 167.774358 
L 148.36597 167.774358 
z
" clip-path="url(#pb41f830b36)" style="fill: #1f77b4"/>
   </g>
   <g id="patch_62">
    <path d="M 149.88003 224.64 
L 151.39409 224.64 
L 151.39409 170.143759 
L 149.88003 170.143759 
z
" clip-path="url(#pb41f830b36)" style="fill: #1f77b4"/>
   </g>
   <g id="patch_63">
    <path d="M 151.39409 224.64 
L 152.90815 224.64 
L 152.90815 164.931076 
L 151.39409 164.931076 
z
" clip-path="url(#pb41f830b36)" style="fill: #1f77b4"/>
   </g>
   <g id="patch_64">
    <path d="M 152.90815 224.64 
L 154.42221 224.64 
L 154.42221 163.509434 
L 152.90815 163.509434 
z
" clip-path="url(#pb41f830b36)" style="fill: #1f77b4"/>
   </g>
   <g id="patch_65">
    <path d="M 154.42221 224.64 
L 155.93627 224.64 
L 155.93627 156.87511 
L 154.42221 156.87511 
z
" clip-path="url(#pb41f830b36)" style="fill: #1f77b4"/>
   </g>
   <g id="patch_66">
    <path d="M 155.93627 224.64 
L 157.45033 224.64 
L 157.45033 160.192272 
L 155.93627 160.192272 
z
" clip-path="url(#pb41f830b36)" style="fill: #1f77b4"/>
   </g>
   <g id="patch_67">
    <path d="M 157.45033 224.64 
L 158.96439 224.64 
L 158.96439 165.404956 
L 157.45033 165.404956 
z
" clip-path="url(#pb41f830b36)" style="fill: #1f77b4"/>
   </g>
   <g id="patch_68">
    <path d="M 158.96439 224.64 
L 160.47845 224.64 
L 160.47845 163.509434 
L 158.96439 163.509434 
z
" clip-path="url(#pb41f830b36)" style="fill: #1f77b4"/>
   </g>
   <g id="patch_69">
    <path d="M 160.47845 224.64 
L 161.99251 224.64 
L 161.99251 154.505708 
L 160.47845 154.505708 
z
" clip-path="url(#pb41f830b36)" style="fill: #1f77b4"/>
   </g>
   <g id="patch_70">
    <path d="M 161.99251 224.64 
L 163.50657 224.64 
L 163.50657 150.714665 
L 161.99251 150.714665 
z
" clip-path="url(#pb41f830b36)" style="fill: #1f77b4"/>
   </g>
   <g id="patch_71">
    <path d="M 163.50657 224.64 
L 165.02063 224.64 
L 165.02063 161.140033 
L 163.50657 161.140033 
z
" clip-path="url(#pb41f830b36)" style="fill: #1f77b4"/>
   </g>
   <g id="patch_72">
    <path d="M 165.02063 224.64 
L 166.53469 224.64 
L 166.53469 148.345263 
L 165.02063 148.345263 
z
" clip-path="url(#pb41f830b36)" style="fill: #1f77b4"/>
   </g>
   <g id="patch_73">
    <path d="M 166.53469 224.64 
L 168.04875 224.64 
L 168.04875 159.244511 
L 166.53469 159.244511 
z
" clip-path="url(#pb41f830b36)" style="fill: #1f77b4"/>
   </g>
   <g id="patch_74">
    <path d="M 168.04875 224.64 
L 169.56281 224.64 
L 169.56281 154.505708 
L 168.04875 154.505708 
z
" clip-path="url(#pb41f830b36)" style="fill: #1f77b4"/>
   </g>
   <g id="patch_75">
    <path d="M 169.56281 224.64 
L 171.07687 224.64 
L 171.07687 157.34899 
L 169.56281 157.34899 
z
" clip-path="url(#pb41f830b36)" style="fill: #1f77b4"/>
   </g>
   <g id="patch_76">
    <path d="M 171.07687 224.64 
L 172.59093 224.64 
L 172.59093 167.774358 
L 171.07687 167.774358 
z
" clip-path="url(#pb41f830b36)" style="fill: #1f77b4"/>
   </g>
   <g id="patch_77">
    <path d="M 172.59093 224.64 
L 174.10499 224.64 
L 174.10499 153.557947 
L 172.59093 153.557947 
z
" clip-path="url(#pb41f830b36)" style="fill: #1f77b4"/>
   </g>
   <g id="patch_78">
    <path d="M 174.10499 224.64 
L 175.61905 224.64 
L 175.61905 151.188545 
L 174.10499 151.188545 
z
" clip-path="url(#pb41f830b36)" style="fill: #1f77b4"/>
   </g>
   <g id="patch_79">
    <path d="M 175.61905 224.64 
L 177.13311 224.64 
L 177.13311 145.975861 
L 175.61905 145.975861 
z
" clip-path="url(#pb41f830b36)" style="fill: #1f77b4"/>
   </g>
   <g id="patch_80">
    <path d="M 177.13311 224.64 
L 178.64717 224.64 
L 178.64717 159.244511 
L 177.13311 159.244511 
z
" clip-path="url(#pb41f830b36)" style="fill: #1f77b4"/>
   </g>
   <g id="patch_81">
    <path d="M 178.64717 224.64 
L 180.16123 224.64 
L 180.16123 140.763178 
L 178.64717 140.763178 
z
" clip-path="url(#pb41f830b36)" style="fill: #1f77b4"/>
   </g>
   <g id="patch_82">
    <path d="M 180.16123 224.64 
L 181.67529 224.64 
L 181.67529 150.714665 
L 180.16123 150.714665 
z
" clip-path="url(#pb41f830b36)" style="fill: #1f77b4"/>
   </g>
   <g id="patch_83">
    <path d="M 181.67529 224.64 
L 183.18935 224.64 
L 183.18935 138.867656 
L 181.67529 138.867656 
z
" clip-path="url(#pb41f830b36)" style="fill: #1f77b4"/>
   </g>
   <g id="patch_84">
    <path d="M 183.18935 224.64 
L 184.70341 224.64 
L 184.70341 147.871383 
L 183.18935 147.871383 
z
" clip-path="url(#pb41f830b36)" style="fill: #1f77b4"/>
   </g>
   <g id="patch_85">
    <path d="M 184.70341 224.64 
L 186.21747 224.64 
L 186.21747 150.714665 
L 184.70341 150.714665 
z
" clip-path="url(#pb41f830b36)" style="fill: #1f77b4"/>
   </g>
   <g id="patch_86">
    <path d="M 186.21747 224.64 
L 187.73153 224.64 
L 187.73153 145.028101 
L 186.21747 145.028101 
z
" clip-path="url(#pb41f830b36)" style="fill: #1f77b4"/>
   </g>
   <g id="patch_87">
    <path d="M 187.73153 224.64 
L 189.24559 224.64 
L 189.24559 151.662426 
L 187.73153 151.662426 
z
" clip-path="url(#pb41f830b36)" style="fill: #1f77b4"/>
   </g>
   <g id="patch_88">
    <path d="M 189.24559 224.64 
L 190.75965 224.64 
L 190.75965 143.60646 
L 189.24559 143.60646 
z
" clip-path="url(#pb41f830b36)" style="fill: #1f77b4"/>
   </g>
   <g id="patch_89">
    <path d="M 190.75965 224.64 
L 192.27371 224.64 
L 192.27371 144.08034 
L 190.75965 144.08034 
z
" clip-path="url(#pb41f830b36)" style="fill: #1f77b4"/>
   </g>
   <g id="patch_90">
    <path d="M 192.27371 224.64 
L 193.78777 224.64 
L 193.78777 140.289297 
L 192.27371 140.289297 
z
" clip-path="url(#pb41f830b36)" style="fill: #1f77b4"/>
   </g>
   <g id="patch_91">
    <path d="M 193.78777 224.64 
L 195.30183 224.64 
L 195.30183 148.819144 
L 193.78777 148.819144 
z
" clip-path="url(#pb41f830b36)" style="fill: #1f77b4"/>
   </g>
   <g id="patch_92">
    <path d="M 195.30183 224.64 
L 196.81589 224.64 
L 196.81589 136.972135 
L 195.30183 136.972135 
z
" clip-path="url(#pb41f830b36)" style="fill: #1f77b4"/>
   </g>
   <g id="patch_93">
    <path d="M 196.81589 224.64 
L 198.32995 224.64 
L 198.32995 134.602733 
L 196.81589 134.602733 
z
" clip-path="url(#pb41f830b36)" style="fill: #1f77b4"/>
   </g>
   <g id="patch_94">
    <path d="M 198.32995 224.64 
L 199.84401 224.64 
L 199.84401 136.024374 
L 198.32995 136.024374 
z
" clip-path="url(#pb41f830b36)" style="fill: #1f77b4"/>
   </g>
   <g id="patch_95">
    <path d="M 199.84401 224.64 
L 201.35807 224.64 
L 201.35807 132.707212 
L 199.84401 132.707212 
z
" clip-path="url(#pb41f830b36)" style="fill: #1f77b4"/>
   </g>
   <g id="patch_96">
    <path d="M 201.35807 224.64 
L 202.87213 224.64 
L 202.87213 142.658699 
L 201.35807 142.658699 
z
" clip-path="url(#pb41f830b36)" style="fill: #1f77b4"/>
   </g>
   <g id="patch_97">
    <path d="M 202.87213 224.64 
L 204.38619 224.64 
L 204.38619 128.916169 
L 202.87213 128.916169 
z
" clip-path="url(#pb41f830b36)" style="fill: #1f77b4"/>
   </g>
   <g id="patch_98">
    <path d="M 204.38619 224.64 
L 205.90025 224.64 
L 205.90025 134.602733 
L 204.38619 134.602733 
z
" clip-path="url(#pb41f830b36)" style="fill: #1f77b4"/>
   </g>
   <g id="patch_99">
    <path d="M 205.90025 224.64 
L 207.41431 224.64 
L 207.41431 127.968408 
L 205.90025 127.968408 
z
" clip-path="url(#pb41f830b36)" style="fill: #1f77b4"/>
   </g>
   <g id="patch_100">
    <path d="M 207.41431 224.64 
L 208.92837 224.64 
L 208.92837 130.33781 
L 207.41431 130.33781 
z
" clip-path="url(#pb41f830b36)" style="fill: #1f77b4"/>
   </g>
   <g id="patch_101">
    <path d="M 208.92837 224.64 
L 210.44243 224.64 
L 210.44243 137.446015 
L 208.92837 137.446015 
z
" clip-path="url(#pb41f830b36)" style="fill: #1f77b4"/>
   </g>
   <g id="patch_102">
    <path d="M 210.44243 224.64 
L 211.95649 224.64 
L 211.95649 124.651246 
L 210.44243 124.651246 
z
" clip-path="url(#pb41f830b36)" style="fill: #1f77b4"/>
   </g>
   <g id="patch_103">
    <path d="M 211.95649 224.64 
L 213.47055 224.64 
L 213.47055 141.710938 
L 211.95649 141.710938 
z
" clip-path="url(#pb41f830b36)" style="fill: #1f77b4"/>
   </g>
   <g id="patch_104">
    <path d="M 213.47055 224.64 
L 214.98461 224.64 
L 214.98461 128.916169 
L 213.47055 128.916169 
z
" clip-path="url(#pb41f830b36)" style="fill: #1f77b4"/>
   </g>
   <g id="patch_105">
    <path d="M 214.98461 224.64 
L 216.49867 224.64 
L 216.49867 128.442288 
L 214.98461 128.442288 
z
" clip-path="url(#pb41f830b36)" style="fill: #1f77b4"/>
   </g>
   <g id="patch_106">
    <path d="M 216.49867 224.64 
L 218.01273 224.64 
L 218.01273 137.446015 
L 216.49867 137.446015 
z
" clip-path="url(#pb41f830b36)" style="fill: #1f77b4"/>
   </g>
   <g id="patch_107">
    <path d="M 218.01273 224.64 
L 219.52679 224.64 
L 219.52679 127.968408 
L 218.01273 127.968408 
z
" clip-path="url(#pb41f830b36)" style="fill: #1f77b4"/>
   </g>
   <g id="patch_108">
    <path d="M 219.52679 224.64 
L 221.04085 224.64 
L 221.04085 124.177365 
L 219.52679 124.177365 
z
" clip-path="url(#pb41f830b36)" style="fill: #1f77b4"/>
   </g>
   <g id="patch_109">
    <path d="M 221.04085 224.64 
L 222.55491 224.64 
L 222.55491 118.490801 
L 221.04085 118.490801 
z
" clip-path="url(#pb41f830b36)" style="fill: #1f77b4"/>
   </g>
   <g id="patch_110">
    <path d="M 222.55491 224.64 
L 224.06897 224.64 
L 224.06897 117.06916 
L 222.55491 117.06916 
z
" clip-path="url(#pb41f830b36)" style="fill: #1f77b4"/>
   </g>
   <g id="patch_111">
    <path d="M 224.06897 224.64 
L 225.58303 224.64 
L 225.58303 127.968408 
L 224.06897 127.968408 
z
" clip-path="url(#pb41f830b36)" style="fill: #1f77b4"/>
   </g>
   <g id="patch_112">
    <path d="M 225.58303 224.64 
L 227.09709 224.64 
L 227.09709 132.233331 
L 225.58303 132.233331 
z
" clip-path="url(#pb41f830b36)" style="fill: #1f77b4"/>
   </g>
   <g id="patch_113">
    <path d="M 227.09709 224.64 
L 228.61115 224.64 
L 228.61115 132.233331 
L 227.09709 132.233331 
z
" clip-path="url(#pb41f830b36)" style="fill: #1f77b4"/>
   </g>
   <g id="patch_114">
    <path d="M 228.61115 224.64 
L 230.12521 224.64 
L 230.12521 127.020647 
L 228.61115 127.020647 
z
" clip-path="url(#pb41f830b36)" style="fill: #1f77b4"/>
   </g>
   <g id="patch_115">
    <path d="M 230.12521 224.64 
L 231.63927 224.64 
L 231.63927 130.81169 
L 230.12521 130.81169 
z
" clip-path="url(#pb41f830b36)" style="fill: #1f77b4"/>
   </g>
   <g id="patch_116">
    <path d="M 231.63927 224.64 
L 233.15333 224.64 
L 233.15333 123.229604 
L 231.63927 123.229604 
z
" clip-path="url(#pb41f830b36)" style="fill: #1f77b4"/>
   </g>
   <g id="patch_117">
    <path d="M 233.15333 224.64 
L 234.66739 224.64 
L 234.66739 116.121399 
L 233.15333 116.121399 
z
" clip-path="url(#pb41f830b36)" style="fill: #1f77b4"/>
   </g>
   <g id="patch_118">
    <path d="M 234.66739 224.64 
L 236.18145 224.64 
L 236.18145 116.59528 
L 234.66739 116.59528 
z
" clip-path="url(#pb41f830b36)" style="fill: #1f77b4"/>
   </g>
   <g id="patch_119">
    <path d="M 236.18145 224.64 
L 237.69551 224.64 
L 237.69551 116.121399 
L 236.18145 116.121399 
z
" clip-path="url(#pb41f830b36)" style="fill: #1f77b4"/>
   </g>
   <g id="patch_120">
    <path d="M 237.69551 224.64 
L 239.20957 224.64 
L 239.20957 115.647519 
L 237.69551 115.647519 
z
" clip-path="url(#pb41f830b36)" style="fill: #1f77b4"/>
   </g>
   <g id="patch_121">
    <path d="M 239.20957 224.64 
L 240.72363 224.64 
L 240.72363 115.173638 
L 239.20957 115.173638 
z
" clip-path="url(#pb41f830b36)" style="fill: #1f77b4"/>
   </g>
   <g id="patch_122">
    <path d="M 240.72363 224.64 
L 242.23769 224.64 
L 242.23769 111.382596 
L 240.72363 111.382596 
z
" clip-path="url(#pb41f830b36)" style="fill: #1f77b4"/>
   </g>
   <g id="patch_123">
    <path d="M 242.23769 224.64 
L 243.75175 224.64 
L 243.75175 101.904989 
L 242.23769 101.904989 
z
" clip-path="url(#pb41f830b36)" style="fill: #1f77b4"/>
   </g>
   <g id="patch_124">
    <path d="M 243.75175 224.64 
L 245.26581 224.64 
L 245.26581 100.009467 
L 243.75175 100.009467 
z
" clip-path="url(#pb41f830b36)" style="fill: #1f77b4"/>
   </g>
   <g id="patch_125">
    <path d="M 245.26581 224.64 
L 246.77987 224.64 
L 246.77987 101.431108 
L 245.26581 101.431108 
z
" clip-path="url(#pb41f830b36)" style="fill: #1f77b4"/>
   </g>
   <g id="patch_126">
    <path d="M 246.77987 224.64 
L 248.29393 224.64 
L 248.29393 109.487074 
L 246.77987 109.487074 
z
" clip-path="url(#pb41f830b36)" style="fill: #1f77b4"/>
   </g>
   <g id="patch_127">
    <path d="M 248.29393 224.64 
L 249.80799 224.64 
L 249.80799 119.438562 
L 248.29393 119.438562 
z
" clip-path="url(#pb41f830b36)" style="fill: #1f77b4"/>
   </g>
   <g id="patch_128">
    <path d="M 249.80799 224.64 
L 251.32205 224.64 
L 251.32205 107.591553 
L 249.80799 107.591553 
z
" clip-path="url(#pb41f830b36)" style="fill: #1f77b4"/>
   </g>
   <g id="patch_129">
    <path d="M 251.32205 224.64 
L 252.83611 224.64 
L 252.83611 119.438562 
L 251.32205 119.438562 
z
" clip-path="url(#pb41f830b36)" style="fill: #1f77b4"/>
   </g>
   <g id="patch_130">
    <path d="M 252.83611 224.64 
L 254.35017 224.64 
L 254.35017 113.278117 
L 252.83611 113.278117 
z
" clip-path="url(#pb41f830b36)" style="fill: #1f77b4"/>
   </g>
   <g id="patch_131">
    <path d="M 254.35017 224.64 
L 255.86423 224.64 
L 255.86423 115.173638 
L 254.35017 115.173638 
z
" clip-path="url(#pb41f830b36)" style="fill: #1f77b4"/>
   </g>
   <g id="patch_132">
    <path d="M 255.86423 224.64 
L 257.37829 224.64 
L 257.37829 106.169912 
L 255.86423 106.169912 
z
" clip-path="url(#pb41f830b36)" style="fill: #1f77b4"/>
   </g>
   <g id="patch_133">
    <path d="M 257.37829 224.64 
L 258.89235 224.64 
L 258.89235 83.423655 
L 257.37829 83.423655 
z
" clip-path="url(#pb41f830b36)" style="fill: #1f77b4"/>
   </g>
   <g id="patch_134">
    <path d="M 258.89235 224.64 
L 260.40641 224.64 
L 260.40641 109.013194 
L 258.89235 109.013194 
z
" clip-path="url(#pb41f830b36)" style="fill: #1f77b4"/>
   </g>
   <g id="patch_135">
    <path d="M 260.40641 224.64 
L 261.92047 224.64 
L 261.92047 112.804237 
L 260.40641 112.804237 
z
" clip-path="url(#pb41f830b36)" style="fill: #1f77b4"/>
   </g>
   <g id="patch_136">
    <path d="M 261.92047 224.64 
L 263.43453 224.64 
L 263.43453 82.002014 
L 261.92047 82.002014 
z
" clip-path="url(#pb41f830b36)" style="fill: #1f77b4"/>
   </g>
   <g id="patch_137">
    <path d="M 263.43453 224.64 
L 264.94859 224.64 
L 264.94859 81.054253 
L 263.43453 81.054253 
z
" clip-path="url(#pb41f830b36)" style="fill: #1f77b4"/>
   </g>
   <g id="patch_138">
    <path d="M 264.94859 224.64 
L 266.46265 224.64 
L 266.46265 80.106492 
L 264.94859 80.106492 
z
" clip-path="url(#pb41f830b36)" style="fill: #1f77b4"/>
   </g>
   <g id="patch_139">
    <path d="M 266.46265 224.64 
L 267.97671 224.64 
L 267.97671 98.113946 
L 266.46265 98.113946 
z
" clip-path="url(#pb41f830b36)" style="fill: #1f77b4"/>
   </g>
   <g id="patch_140">
    <path d="M 267.97671 224.64 
L 269.49077 224.64 
L 269.49077 83.423655 
L 267.97671 83.423655 
z
" clip-path="url(#pb41f830b36)" style="fill: #1f77b4"/>
   </g>
   <g id="patch_141">
    <path d="M 269.49077 224.64 
L 271.00483 224.64 
L 271.00483 93.849023 
L 269.49077 93.849023 
z
" clip-path="url(#pb41f830b36)" style="fill: #1f77b4"/>
   </g>
   <g id="patch_142">
    <path d="M 271.00483 224.64 
L 272.51889 224.64 
L 272.51889 100.483347 
L 271.00483 100.483347 
z
" clip-path="url(#pb41f830b36)" style="fill: #1f77b4"/>
   </g>
   <g id="patch_143">
    <path d="M 272.51889 224.64 
L 274.03295 224.64 
L 274.03295 92.901262 
L 272.51889 92.901262 
z
" clip-path="url(#pb41f830b36)" style="fill: #1f77b4"/>
   </g>
   <g id="patch_144">
    <path d="M 274.03295 224.64 
L 275.54701 224.64 
L 275.54701 74.419928 
L 274.03295 74.419928 
z
" clip-path="url(#pb41f830b36)" style="fill: #1f77b4"/>
   </g>
   <g id="patch_145">
    <path d="M 275.54701 224.64 
L 277.06107 224.64 
L 277.06107 87.214698 
L 275.54701 87.214698 
z
" clip-path="url(#pb41f830b36)" style="fill: #1f77b4"/>
   </g>
   <g id="patch_146">
    <path d="M 277.06107 224.64 
L 278.57513 224.64 
L 278.57513 84.845296 
L 277.06107 84.845296 
z
" clip-path="url(#pb41f830b36)" style="fill: #1f77b4"/>
   </g>
   <g id="patch_147">
    <path d="M 278.57513 224.64 
L 280.08919 224.64 
L 280.08919 83.423655 
L 278.57513 83.423655 
z
" clip-path="url(#pb41f830b36)" style="fill: #1f77b4"/>
   </g>
   <g id="patch_148">
    <path d="M 280.08919 224.64 
L 281.60325 224.64 
L 281.60325 86.266937 
L 280.08919 86.266937 
z
" clip-path="url(#pb41f830b36)" style="fill: #1f77b4"/>
   </g>
   <g id="patch_149">
    <path d="M 281.60325 224.64 
L 283.11731 224.64 
L 283.11731 79.158732 
L 281.60325 79.158732 
z
" clip-path="url(#pb41f830b36)" style="fill: #1f77b4"/>
   </g>
   <g id="patch_150">
    <path d="M 283.11731 224.64 
L 284.63137 224.64 
L 284.63137 90.05798 
L 283.11731 90.05798 
z
" clip-path="url(#pb41f830b36)" style="fill: #1f77b4"/>
   </g>
   <g id="patch_151">
    <path d="M 284.63137 224.64 
L 286.14543 224.64 
L 286.14543 75.367689 
L 284.63137 75.367689 
z
" clip-path="url(#pb41f830b36)" style="fill: #1f77b4"/>
   </g>
   <g id="patch_152">
    <path d="M 286.14543 224.64 
L 287.65949 224.64 
L 287.65949 86.740817 
L 286.14543 86.740817 
z
" clip-path="url(#pb41f830b36)" style="fill: #1f77b4"/>
   </g>
   <g id="patch_153">
    <path d="M 287.65949 224.64 
L 289.17355 224.64 
L 289.17355 89.110219 
L 287.65949 89.110219 
z
" clip-path="url(#pb41f830b36)" style="fill: #1f77b4"/>
   </g>
   <g id="patch_154">
    <path d="M 289.17355 224.64 
L 290.68761 224.64 
L 290.68761 79.632612 
L 289.17355 79.632612 
z
" clip-path="url(#pb41f830b36)" style="fill: #1f77b4"/>
   </g>
   <g id="patch_155">
    <path d="M 290.68761 224.64 
L 292.20167 224.64 
L 292.20167 80.580373 
L 290.68761 80.580373 
z
" clip-path="url(#pb41f830b36)" style="fill: #1f77b4"/>
   </g>
   <g id="patch_156">
    <path d="M 292.20167 224.64 
L 293.71573 224.64 
L 293.71573 61.625159 
L 292.20167 61.625159 
z
" clip-path="url(#pb41f830b36)" style="fill: #1f77b4"/>
   </g>
   <g id="patch_157">
    <path d="M 293.71573 224.64 
L 295.22979 224.64 
L 295.22979 82.949774 
L 293.71573 82.949774 
z
" clip-path="url(#pb41f830b36)" style="fill: #1f77b4"/>
   </g>
   <g id="patch_158">
    <path d="M 295.22979 224.64 
L 296.74385 224.64 
L 296.74385 84.371415 
L 295.22979 84.371415 
z
" clip-path="url(#pb41f830b36)" style="fill: #1f77b4"/>
   </g>
   <g id="patch_159">
    <path d="M 296.74385 224.64 
L 298.25791 224.64 
L 298.25791 71.576646 
L 296.74385 71.576646 
z
" clip-path="url(#pb41f830b36)" style="fill: #1f77b4"/>
   </g>
   <g id="patch_160">
    <path d="M 298.25791 224.64 
L 299.77197 224.64 
L 299.77197 76.78933 
L 298.25791 76.78933 
z
" clip-path="url(#pb41f830b36)" style="fill: #1f77b4"/>
   </g>
   <g id="patch_161">
    <path d="M 299.77197 224.64 
L 301.28603 224.64 
L 301.28603 64.468441 
L 299.77197 64.468441 
z
" clip-path="url(#pb41f830b36)" style="fill: #1f77b4"/>
   </g>
   <g id="patch_162">
    <path d="M 301.28603 224.64 
L 302.80009 224.64 
L 302.80009 63.99456 
L 301.28603 63.99456 
z
" clip-path="url(#pb41f830b36)" style="fill: #1f77b4"/>
   </g>
   <g id="patch_163">
    <path d="M 302.80009 224.64 
L 304.31415 224.64 
L 304.31415 64.468441 
L 302.80009 64.468441 
z
" clip-path="url(#pb41f830b36)" style="fill: #1f77b4"/>
   </g>
   <g id="patch_164">
    <path d="M 304.31415 224.64 
L 305.82821 224.64 
L 305.82821 73.946048 
L 304.31415 73.946048 
z
" clip-path="url(#pb41f830b36)" style="fill: #1f77b4"/>
   </g>
   <g id="patch_165">
    <path d="M 305.82821 224.64 
L 307.34227 224.64 
L 307.34227 70.155005 
L 305.82821 70.155005 
z
" clip-path="url(#pb41f830b36)" style="fill: #1f77b4"/>
   </g>
   <g id="patch_166">
    <path d="M 307.34227 224.64 
L 308.85633 224.64 
L 308.85633 80.106492 
L 307.34227 80.106492 
z
" clip-path="url(#pb41f830b36)" style="fill: #1f77b4"/>
   </g>
   <g id="patch_167">
    <path d="M 308.85633 224.64 
L 310.37039 224.64 
L 310.37039 66.837842 
L 308.85633 66.837842 
z
" clip-path="url(#pb41f830b36)" style="fill: #1f77b4"/>
   </g>
   <g id="patch_168">
    <path d="M 310.37039 224.64 
L 311.88445 224.64 
L 311.88445 69.207244 
L 310.37039 69.207244 
z
" clip-path="url(#pb41f830b36)" style="fill: #1f77b4"/>
   </g>
   <g id="patch_169">
    <path d="M 311.88445 224.64 
L 313.39851 224.64 
L 313.39851 63.52068 
L 311.88445 63.52068 
z
" clip-path="url(#pb41f830b36)" style="fill: #1f77b4"/>
   </g>
   <g id="patch_170">
    <path d="M 313.39851 224.64 
L 314.91257 224.64 
L 314.91257 76.78933 
L 313.39851 76.78933 
z
" clip-path="url(#pb41f830b36)" style="fill: #1f77b4"/>
   </g>
   <g id="patch_171">
    <path d="M 314.91257 224.64 
L 316.42663 224.64 
L 316.42663 77.737091 
L 314.91257 77.737091 
z
" clip-path="url(#pb41f830b36)" style="fill: #1f77b4"/>
   </g>
   <g id="patch_172">
    <path d="M 316.42663 224.64 
L 317.94069 224.64 
L 317.94069 78.684851 
L 316.42663 78.684851 
z
" clip-path="url(#pb41f830b36)" style="fill: #1f77b4"/>
   </g>
   <g id="patch_173">
    <path d="M 317.94069 224.64 
L 319.45475 224.64 
L 319.45475 56.412475 
L 317.94069 56.412475 
z
" clip-path="url(#pb41f830b36)" style="fill: #1f77b4"/>
   </g>
   <g id="patch_174">
    <path d="M 319.45475 224.64 
L 320.96881 224.64 
L 320.96881 62.099039 
L 319.45475 62.099039 
z
" clip-path="url(#pb41f830b36)" style="fill: #1f77b4"/>
   </g>
   <g id="patch_175">
    <path d="M 320.96881 224.64 
L 322.48287 224.64 
L 322.48287 52.621432 
L 320.96881 52.621432 
z
" clip-path="url(#pb41f830b36)" style="fill: #1f77b4"/>
   </g>
   <g id="patch_176">
    <path d="M 322.48287 224.64 
L 323.99693 224.64 
L 323.99693 72.998287 
L 322.48287 72.998287 
z
" clip-path="url(#pb41f830b36)" style="fill: #1f77b4"/>
   </g>
   <g id="patch_177">
    <path d="M 323.99693 224.64 
L 325.51099 224.64 
L 325.51099 67.311723 
L 323.99693 67.311723 
z
" clip-path="url(#pb41f830b36)" style="fill: #1f77b4"/>
   </g>
   <g id="patch_178">
    <path d="M 325.51099 224.64 
L 327.02505 224.64 
L 327.02505 71.102766 
L 325.51099 71.102766 
z
" clip-path="url(#pb41f830b36)" style="fill: #1f77b4"/>
   </g>
   <g id="patch_179">
    <path d="M 327.02505 224.64 
L 328.53911 224.64 
L 328.53911 59.255757 
L 327.02505 59.255757 
z
" clip-path="url(#pb41f830b36)" style="fill: #1f77b4"/>
   </g>
   <g id="patch_180">
    <path d="M 328.53911 224.64 
L 330.05317 224.64 
L 330.05317 57.360235 
L 328.53911 57.360235 
z
" clip-path="url(#pb41f830b36)" style="fill: #1f77b4"/>
   </g>
   <g id="patch_181">
    <path d="M 330.05317 224.64 
L 331.56723 224.64 
L 331.56723 57.360235 
L 330.05317 57.360235 
z
" clip-path="url(#pb41f830b36)" style="fill: #1f77b4"/>
   </g>
   <g id="patch_182">
    <path d="M 331.56723 224.64 
L 333.08129 224.64 
L 333.08129 73.472167 
L 331.56723 73.472167 
z
" clip-path="url(#pb41f830b36)" style="fill: #1f77b4"/>
   </g>
   <g id="patch_183">
    <path d="M 333.08129 224.64 
L 334.59535 224.64 
L 334.59535 56.412475 
L 333.08129 56.412475 
z
" clip-path="url(#pb41f830b36)" style="fill: #1f77b4"/>
   </g>
   <g id="patch_184">
    <path d="M 334.59535 224.64 
L 336.10941 224.64 
L 336.10941 47.408748 
L 334.59535 47.408748 
z
" clip-path="url(#pb41f830b36)" style="fill: #1f77b4"/>
   </g>
   <g id="patch_185">
    <path d="M 336.10941 224.64 
L 337.62347 224.64 
L 337.62347 17.554286 
L 336.10941 17.554286 
z
" clip-path="url(#pb41f830b36)" style="fill: #1f77b4"/>
   </g>
   <g id="patch_186">
    <path d="M 337.62347 224.64 
L 339.13753 224.64 
L 339.13753 61.151278 
L 337.62347 61.151278 
z
" clip-path="url(#pb41f830b36)" style="fill: #1f77b4"/>
   </g>
   <g id="patch_187">
    <path d="M 339.13753 224.64 
L 340.65159 224.64 
L 340.65159 41.248303 
L 339.13753 41.248303 
z
" clip-path="url(#pb41f830b36)" style="fill: #1f77b4"/>
   </g>
   <g id="patch_188">
    <path d="M 340.65159 224.64 
L 342.16565 224.64 
L 342.16565 43.617705 
L 340.65159 43.617705 
z
" clip-path="url(#pb41f830b36)" style="fill: #1f77b4"/>
   </g>
   <g id="patch_189">
    <path d="M 342.16565 224.64 
L 343.67971 224.64 
L 343.67971 50.72591 
L 342.16565 50.72591 
z
" clip-path="url(#pb41f830b36)" style="fill: #1f77b4"/>
   </g>
   <g id="patch_190">
    <path d="M 343.67971 224.64 
L 345.19377 224.64 
L 345.19377 58.307996 
L 343.67971 58.307996 
z
" clip-path="url(#pb41f830b36)" style="fill: #1f77b4"/>
   </g>
   <g id="patch_191">
    <path d="M 345.19377 224.64 
L 346.70783 224.64 
L 346.70783 46.460987 
L 345.19377 46.460987 
z
" clip-path="url(#pb41f830b36)" style="fill: #1f77b4"/>
   </g>
   <g id="patch_192">
    <path d="M 346.70783 224.64 
L 348.22189 224.64 
L 348.22189 53.095312 
L 346.70783 53.095312 
z
" clip-path="url(#pb41f830b36)" style="fill: #1f77b4"/>
   </g>
   <g id="patch_193">
    <path d="M 348.22189 224.64 
L 349.73595 224.64 
L 349.73595 45.513227 
L 348.22189 45.513227 
z
" clip-path="url(#pb41f830b36)" style="fill: #1f77b4"/>
   </g>
   <g id="patch_194">
    <path d="M 349.73595 224.64 
L 351.25001 224.64 
L 351.25001 47.882628 
L 349.73595 47.882628 
z
" clip-path="url(#pb41f830b36)" style="fill: #1f77b4"/>
   </g>
   <g id="patch_195">
    <path d="M 351.25001 224.64 
L 352.76407 224.64 
L 352.76407 34.613978 
L 351.25001 34.613978 
z
" clip-path="url(#pb41f830b36)" style="fill: #1f77b4"/>
   </g>
   <g id="patch_196">
    <path d="M 352.76407 224.64 
L 354.27813 224.64 
L 354.27813 31.770696 
L 352.76407 31.770696 
z
" clip-path="url(#pb41f830b36)" style="fill: #1f77b4"/>
   </g>
   <g id="patch_197">
    <path d="M 354.27813 224.64 
L 355.79219 224.64 
L 355.79219 30.349055 
L 354.27813 30.349055 
z
" clip-path="url(#pb41f830b36)" style="fill: #1f77b4"/>
   </g>
   <g id="patch_198">
    <path d="M 355.79219 224.64 
L 357.30625 224.64 
L 357.30625 37.457261 
L 355.79219 37.457261 
z
" clip-path="url(#pb41f830b36)" style="fill: #1f77b4"/>
   </g>
   <g id="patch_199">
    <path d="M 357.30625 224.64 
L 358.82031 224.64 
L 358.82031 43.617705 
L 357.30625 43.617705 
z
" clip-path="url(#pb41f830b36)" style="fill: #1f77b4"/>
   </g>
   <g id="patch_200">
    <path d="M 358.82031 224.64 
L 360.33437 224.64 
L 360.33437 34.140098 
L 358.82031 34.140098 
z
" clip-path="url(#pb41f830b36)" style="fill: #1f77b4"/>
   </g>
   <g id="patch_201">
    <path d="M 360.33437 224.64 
L 361.84843 224.64 
L 361.84843 44.565466 
L 360.33437 44.565466 
z
" clip-path="url(#pb41f830b36)" style="fill: #1f77b4"/>
   </g>
   <g id="patch_202">
    <path d="M 361.84843 224.64 
L 363.36249 224.64 
L 363.36249 31.770696 
L 361.84843 31.770696 
z
" clip-path="url(#pb41f830b36)" style="fill: #1f77b4"/>
   </g>
   <g id="matplotlib.axis_1">
    <g id="xtick_1">
     <g id="line2d_1">
      <defs>
       <path id="m82a4bcc79c" d="M 0 0 
L 0 3.5 
" style="stroke: #000000; stroke-width: 0.8"/>
      </defs>
      <g>
       <use xlink:href="#m82a4bcc79c" x="58.999432" y="224.64" style="stroke: #000000; stroke-width: 0.8"/>
      </g>
     </g>
     <g id="text_1">
      <!-- 0.0 -->
      <g transform="translate(51.047869 239.238437)scale(0.1 -0.1)">
       <defs>
        <path id="DejaVuSans-30" d="M 2034 4250 
Q 1547 4250 1301 3770 
Q 1056 3291 1056 2328 
Q 1056 1369 1301 889 
Q 1547 409 2034 409 
Q 2525 409 2770 889 
Q 3016 1369 3016 2328 
Q 3016 3291 2770 3770 
Q 2525 4250 2034 4250 
z
M 2034 4750 
Q 2819 4750 3233 4129 
Q 3647 3509 3647 2328 
Q 3647 1150 3233 529 
Q 2819 -91 2034 -91 
Q 1250 -91 836 529 
Q 422 1150 422 2328 
Q 422 3509 836 4129 
Q 1250 4750 2034 4750 
z
" transform="scale(0.015625)"/>
        <path id="DejaVuSans-2e" d="M 684 794 
L 1344 794 
L 1344 0 
L 684 0 
L 684 794 
z
" transform="scale(0.015625)"/>
       </defs>
       <use xlink:href="#DejaVuSans-30"/>
       <use xlink:href="#DejaVuSans-2e" x="63.623047"/>
       <use xlink:href="#DejaVuSans-30" x="95.410156"/>
      </g>
     </g>
    </g>
    <g id="xtick_2">
     <g id="line2d_2">
      <g>
       <use xlink:href="#m82a4bcc79c" x="119.872159" y="224.64" style="stroke: #000000; stroke-width: 0.8"/>
      </g>
     </g>
     <g id="text_2">
      <!-- 0.2 -->
      <g transform="translate(111.920597 239.238437)scale(0.1 -0.1)">
       <defs>
        <path id="DejaVuSans-32" d="M 1228 531 
L 3431 531 
L 3431 0 
L 469 0 
L 469 531 
Q 828 903 1448 1529 
Q 2069 2156 2228 2338 
Q 2531 2678 2651 2914 
Q 2772 3150 2772 3378 
Q 2772 3750 2511 3984 
Q 2250 4219 1831 4219 
Q 1534 4219 1204 4116 
Q 875 4013 500 3803 
L 500 4441 
Q 881 4594 1212 4672 
Q 1544 4750 1819 4750 
Q 2544 4750 2975 4387 
Q 3406 4025 3406 3419 
Q 3406 3131 3298 2873 
Q 3191 2616 2906 2266 
Q 2828 2175 2409 1742 
Q 1991 1309 1228 531 
z
" transform="scale(0.015625)"/>
       </defs>
       <use xlink:href="#DejaVuSans-30"/>
       <use xlink:href="#DejaVuSans-2e" x="63.623047"/>
       <use xlink:href="#DejaVuSans-32" x="95.410156"/>
      </g>
     </g>
    </g>
    <g id="xtick_3">
     <g id="line2d_3">
      <g>
       <use xlink:href="#m82a4bcc79c" x="180.744886" y="224.64" style="stroke: #000000; stroke-width: 0.8"/>
      </g>
     </g>
     <g id="text_3">
      <!-- 0.4 -->
      <g transform="translate(172.793324 239.238437)scale(0.1 -0.1)">
       <defs>
        <path id="DejaVuSans-34" d="M 2419 4116 
L 825 1625 
L 2419 1625 
L 2419 4116 
z
M 2253 4666 
L 3047 4666 
L 3047 1625 
L 3713 1625 
L 3713 1100 
L 3047 1100 
L 3047 0 
L 2419 0 
L 2419 1100 
L 313 1100 
L 313 1709 
L 2253 4666 
z
" transform="scale(0.015625)"/>
       </defs>
       <use xlink:href="#DejaVuSans-30"/>
       <use xlink:href="#DejaVuSans-2e" x="63.623047"/>
       <use xlink:href="#DejaVuSans-34" x="95.410156"/>
      </g>
     </g>
    </g>
    <g id="xtick_4">
     <g id="line2d_4">
      <g>
       <use xlink:href="#m82a4bcc79c" x="241.617614" y="224.64" style="stroke: #000000; stroke-width: 0.8"/>
      </g>
     </g>
     <g id="text_4">
      <!-- 0.6 -->
      <g transform="translate(233.666051 239.238437)scale(0.1 -0.1)">
       <defs>
        <path id="DejaVuSans-36" d="M 2113 2584 
Q 1688 2584 1439 2293 
Q 1191 2003 1191 1497 
Q 1191 994 1439 701 
Q 1688 409 2113 409 
Q 2538 409 2786 701 
Q 3034 994 3034 1497 
Q 3034 2003 2786 2293 
Q 2538 2584 2113 2584 
z
M 3366 4563 
L 3366 3988 
Q 3128 4100 2886 4159 
Q 2644 4219 2406 4219 
Q 1781 4219 1451 3797 
Q 1122 3375 1075 2522 
Q 1259 2794 1537 2939 
Q 1816 3084 2150 3084 
Q 2853 3084 3261 2657 
Q 3669 2231 3669 1497 
Q 3669 778 3244 343 
Q 2819 -91 2113 -91 
Q 1303 -91 875 529 
Q 447 1150 447 2328 
Q 447 3434 972 4092 
Q 1497 4750 2381 4750 
Q 2619 4750 2861 4703 
Q 3103 4656 3366 4563 
z
" transform="scale(0.015625)"/>
       </defs>
       <use xlink:href="#DejaVuSans-30"/>
       <use xlink:href="#DejaVuSans-2e" x="63.623047"/>
       <use xlink:href="#DejaVuSans-36" x="95.410156"/>
      </g>
     </g>
    </g>
    <g id="xtick_5">
     <g id="line2d_5">
      <g>
       <use xlink:href="#m82a4bcc79c" x="302.490341" y="224.64" style="stroke: #000000; stroke-width: 0.8"/>
      </g>
     </g>
     <g id="text_5">
      <!-- 0.8 -->
      <g transform="translate(294.538778 239.238437)scale(0.1 -0.1)">
       <defs>
        <path id="DejaVuSans-38" d="M 2034 2216 
Q 1584 2216 1326 1975 
Q 1069 1734 1069 1313 
Q 1069 891 1326 650 
Q 1584 409 2034 409 
Q 2484 409 2743 651 
Q 3003 894 3003 1313 
Q 3003 1734 2745 1975 
Q 2488 2216 2034 2216 
z
M 1403 2484 
Q 997 2584 770 2862 
Q 544 3141 544 3541 
Q 544 4100 942 4425 
Q 1341 4750 2034 4750 
Q 2731 4750 3128 4425 
Q 3525 4100 3525 3541 
Q 3525 3141 3298 2862 
Q 3072 2584 2669 2484 
Q 3125 2378 3379 2068 
Q 3634 1759 3634 1313 
Q 3634 634 3220 271 
Q 2806 -91 2034 -91 
Q 1263 -91 848 271 
Q 434 634 434 1313 
Q 434 1759 690 2068 
Q 947 2378 1403 2484 
z
M 1172 3481 
Q 1172 3119 1398 2916 
Q 1625 2713 2034 2713 
Q 2441 2713 2670 2916 
Q 2900 3119 2900 3481 
Q 2900 3844 2670 4047 
Q 2441 4250 2034 4250 
Q 1625 4250 1398 4047 
Q 1172 3844 1172 3481 
z
" transform="scale(0.015625)"/>
       </defs>
       <use xlink:href="#DejaVuSans-30"/>
       <use xlink:href="#DejaVuSans-2e" x="63.623047"/>
       <use xlink:href="#DejaVuSans-38" x="95.410156"/>
      </g>
     </g>
    </g>
    <g id="xtick_6">
     <g id="line2d_6">
      <g>
       <use xlink:href="#m82a4bcc79c" x="363.363068" y="224.64" style="stroke: #000000; stroke-width: 0.8"/>
      </g>
     </g>
     <g id="text_6">
      <!-- 1.0 -->
      <g transform="translate(355.411506 239.238437)scale(0.1 -0.1)">
       <defs>
        <path id="DejaVuSans-31" d="M 794 531 
L 1825 531 
L 1825 4091 
L 703 3866 
L 703 4441 
L 1819 4666 
L 2450 4666 
L 2450 531 
L 3481 531 
L 3481 0 
L 794 0 
L 794 531 
z
" transform="scale(0.015625)"/>
       </defs>
       <use xlink:href="#DejaVuSans-31"/>
       <use xlink:href="#DejaVuSans-2e" x="63.623047"/>
       <use xlink:href="#DejaVuSans-30" x="95.410156"/>
      </g>
     </g>
    </g>
    <g id="text_7">
     <!-- Propagation direction -->
     <g transform="translate(157.699219 252.916562)scale(0.1 -0.1)">
      <defs>
       <path id="DejaVuSans-50" d="M 1259 4147 
L 1259 2394 
L 2053 2394 
Q 2494 2394 2734 2622 
Q 2975 2850 2975 3272 
Q 2975 3691 2734 3919 
Q 2494 4147 2053 4147 
L 1259 4147 
z
M 628 4666 
L 2053 4666 
Q 2838 4666 3239 4311 
Q 3641 3956 3641 3272 
Q 3641 2581 3239 2228 
Q 2838 1875 2053 1875 
L 1259 1875 
L 1259 0 
L 628 0 
L 628 4666 
z
" transform="scale(0.015625)"/>
       <path id="DejaVuSans-72" d="M 2631 2963 
Q 2534 3019 2420 3045 
Q 2306 3072 2169 3072 
Q 1681 3072 1420 2755 
Q 1159 2438 1159 1844 
L 1159 0 
L 581 0 
L 581 3500 
L 1159 3500 
L 1159 2956 
Q 1341 3275 1631 3429 
Q 1922 3584 2338 3584 
Q 2397 3584 2469 3576 
Q 2541 3569 2628 3553 
L 2631 2963 
z
" transform="scale(0.015625)"/>
       <path id="DejaVuSans-6f" d="M 1959 3097 
Q 1497 3097 1228 2736 
Q 959 2375 959 1747 
Q 959 1119 1226 758 
Q 1494 397 1959 397 
Q 2419 397 2687 759 
Q 2956 1122 2956 1747 
Q 2956 2369 2687 2733 
Q 2419 3097 1959 3097 
z
M 1959 3584 
Q 2709 3584 3137 3096 
Q 3566 2609 3566 1747 
Q 3566 888 3137 398 
Q 2709 -91 1959 -91 
Q 1206 -91 779 398 
Q 353 888 353 1747 
Q 353 2609 779 3096 
Q 1206 3584 1959 3584 
z
" transform="scale(0.015625)"/>
       <path id="DejaVuSans-70" d="M 1159 525 
L 1159 -1331 
L 581 -1331 
L 581 3500 
L 1159 3500 
L 1159 2969 
Q 1341 3281 1617 3432 
Q 1894 3584 2278 3584 
Q 2916 3584 3314 3078 
Q 3713 2572 3713 1747 
Q 3713 922 3314 415 
Q 2916 -91 2278 -91 
Q 1894 -91 1617 61 
Q 1341 213 1159 525 
z
M 3116 1747 
Q 3116 2381 2855 2742 
Q 2594 3103 2138 3103 
Q 1681 3103 1420 2742 
Q 1159 2381 1159 1747 
Q 1159 1113 1420 752 
Q 1681 391 2138 391 
Q 2594 391 2855 752 
Q 3116 1113 3116 1747 
z
" transform="scale(0.015625)"/>
       <path id="DejaVuSans-61" d="M 2194 1759 
Q 1497 1759 1228 1600 
Q 959 1441 959 1056 
Q 959 750 1161 570 
Q 1363 391 1709 391 
Q 2188 391 2477 730 
Q 2766 1069 2766 1631 
L 2766 1759 
L 2194 1759 
z
M 3341 1997 
L 3341 0 
L 2766 0 
L 2766 531 
Q 2569 213 2275 61 
Q 1981 -91 1556 -91 
Q 1019 -91 701 211 
Q 384 513 384 1019 
Q 384 1609 779 1909 
Q 1175 2209 1959 2209 
L 2766 2209 
L 2766 2266 
Q 2766 2663 2505 2880 
Q 2244 3097 1772 3097 
Q 1472 3097 1187 3025 
Q 903 2953 641 2809 
L 641 3341 
Q 956 3463 1253 3523 
Q 1550 3584 1831 3584 
Q 2591 3584 2966 3190 
Q 3341 2797 3341 1997 
z
" transform="scale(0.015625)"/>
       <path id="DejaVuSans-67" d="M 2906 1791 
Q 2906 2416 2648 2759 
Q 2391 3103 1925 3103 
Q 1463 3103 1205 2759 
Q 947 2416 947 1791 
Q 947 1169 1205 825 
Q 1463 481 1925 481 
Q 2391 481 2648 825 
Q 2906 1169 2906 1791 
z
M 3481 434 
Q 3481 -459 3084 -895 
Q 2688 -1331 1869 -1331 
Q 1566 -1331 1297 -1286 
Q 1028 -1241 775 -1147 
L 775 -588 
Q 1028 -725 1275 -790 
Q 1522 -856 1778 -856 
Q 2344 -856 2625 -561 
Q 2906 -266 2906 331 
L 2906 616 
Q 2728 306 2450 153 
Q 2172 0 1784 0 
Q 1141 0 747 490 
Q 353 981 353 1791 
Q 353 2603 747 3093 
Q 1141 3584 1784 3584 
Q 2172 3584 2450 3431 
Q 2728 3278 2906 2969 
L 2906 3500 
L 3481 3500 
L 3481 434 
z
" transform="scale(0.015625)"/>
       <path id="DejaVuSans-74" d="M 1172 4494 
L 1172 3500 
L 2356 3500 
L 2356 3053 
L 1172 3053 
L 1172 1153 
Q 1172 725 1289 603 
Q 1406 481 1766 481 
L 2356 481 
L 2356 0 
L 1766 0 
Q 1100 0 847 248 
Q 594 497 594 1153 
L 594 3053 
L 172 3053 
L 172 3500 
L 594 3500 
L 594 4494 
L 1172 4494 
z
" transform="scale(0.015625)"/>
       <path id="DejaVuSans-69" d="M 603 3500 
L 1178 3500 
L 1178 0 
L 603 0 
L 603 3500 
z
M 603 4863 
L 1178 4863 
L 1178 4134 
L 603 4134 
L 603 4863 
z
" transform="scale(0.015625)"/>
       <path id="DejaVuSans-6e" d="M 3513 2113 
L 3513 0 
L 2938 0 
L 2938 2094 
Q 2938 2591 2744 2837 
Q 2550 3084 2163 3084 
Q 1697 3084 1428 2787 
Q 1159 2491 1159 1978 
L 1159 0 
L 581 0 
L 581 3500 
L 1159 3500 
L 1159 2956 
Q 1366 3272 1645 3428 
Q 1925 3584 2291 3584 
Q 2894 3584 3203 3211 
Q 3513 2838 3513 2113 
z
" transform="scale(0.015625)"/>
       <path id="DejaVuSans-20" transform="scale(0.015625)"/>
       <path id="DejaVuSans-64" d="M 2906 2969 
L 2906 4863 
L 3481 4863 
L 3481 0 
L 2906 0 
L 2906 525 
Q 2725 213 2448 61 
Q 2172 -91 1784 -91 
Q 1150 -91 751 415 
Q 353 922 353 1747 
Q 353 2572 751 3078 
Q 1150 3584 1784 3584 
Q 2172 3584 2448 3432 
Q 2725 3281 2906 2969 
z
M 947 1747 
Q 947 1113 1208 752 
Q 1469 391 1925 391 
Q 2381 391 2643 752 
Q 2906 1113 2906 1747 
Q 2906 2381 2643 2742 
Q 2381 3103 1925 3103 
Q 1469 3103 1208 2742 
Q 947 2381 947 1747 
z
" transform="scale(0.015625)"/>
       <path id="DejaVuSans-65" d="M 3597 1894 
L 3597 1613 
L 953 1613 
Q 991 1019 1311 708 
Q 1631 397 2203 397 
Q 2534 397 2845 478 
Q 3156 559 3463 722 
L 3463 178 
Q 3153 47 2828 -22 
Q 2503 -91 2169 -91 
Q 1331 -91 842 396 
Q 353 884 353 1716 
Q 353 2575 817 3079 
Q 1281 3584 2069 3584 
Q 2775 3584 3186 3129 
Q 3597 2675 3597 1894 
z
M 3022 2063 
Q 3016 2534 2758 2815 
Q 2500 3097 2075 3097 
Q 1594 3097 1305 2825 
Q 1016 2553 972 2059 
L 3022 2063 
z
" transform="scale(0.015625)"/>
       <path id="DejaVuSans-63" d="M 3122 3366 
L 3122 2828 
Q 2878 2963 2633 3030 
Q 2388 3097 2138 3097 
Q 1578 3097 1268 2742 
Q 959 2388 959 1747 
Q 959 1106 1268 751 
Q 1578 397 2138 397 
Q 2388 397 2633 464 
Q 2878 531 3122 666 
L 3122 134 
Q 2881 22 2623 -34 
Q 2366 -91 2075 -91 
Q 1284 -91 818 406 
Q 353 903 353 1747 
Q 353 2603 823 3093 
Q 1294 3584 2113 3584 
Q 2378 3584 2631 3529 
Q 2884 3475 3122 3366 
z
" transform="scale(0.015625)"/>
      </defs>
      <use xlink:href="#DejaVuSans-50"/>
      <use xlink:href="#DejaVuSans-72" x="58.552734"/>
      <use xlink:href="#DejaVuSans-6f" x="97.416016"/>
      <use xlink:href="#DejaVuSans-70" x="158.597656"/>
      <use xlink:href="#DejaVuSans-61" x="222.074219"/>
      <use xlink:href="#DejaVuSans-67" x="283.353516"/>
      <use xlink:href="#DejaVuSans-61" x="346.830078"/>
      <use xlink:href="#DejaVuSans-74" x="408.109375"/>
      <use xlink:href="#DejaVuSans-69" x="447.318359"/>
      <use xlink:href="#DejaVuSans-6f" x="475.101562"/>
      <use xlink:href="#DejaVuSans-6e" x="536.283203"/>
      <use xlink:href="#DejaVuSans-20" x="599.662109"/>
      <use xlink:href="#DejaVuSans-64" x="631.449219"/>
      <use xlink:href="#DejaVuSans-69" x="694.925781"/>
      <use xlink:href="#DejaVuSans-72" x="722.708984"/>
      <use xlink:href="#DejaVuSans-65" x="761.572266"/>
      <use xlink:href="#DejaVuSans-63" x="823.095703"/>
      <use xlink:href="#DejaVuSans-74" x="878.076172"/>
      <use xlink:href="#DejaVuSans-69" x="917.285156"/>
      <use xlink:href="#DejaVuSans-6f" x="945.068359"/>
      <use xlink:href="#DejaVuSans-6e" x="1006.25"/>
     </g>
    </g>
   </g>
   <g id="matplotlib.axis_2">
    <g id="ytick_1">
     <g id="line2d_7">
      <defs>
       <path id="m20ab3d387d" d="M 0 0 
L -3.5 0 
" style="stroke: #000000; stroke-width: 0.8"/>
      </defs>
      <g>
       <use xlink:href="#m20ab3d387d" x="43.78125" y="224.64" style="stroke: #000000; stroke-width: 0.8"/>
      </g>
     </g>
     <g id="text_8">
      <!-- 0.0 -->
      <g transform="translate(20.878125 228.439219)scale(0.1 -0.1)">
       <use xlink:href="#DejaVuSans-30"/>
       <use xlink:href="#DejaVuSans-2e" x="63.623047"/>
       <use xlink:href="#DejaVuSans-30" x="95.410156"/>
      </g>
     </g>
    </g>
    <g id="ytick_2">
     <g id="line2d_8">
      <g>
       <use xlink:href="#m20ab3d387d" x="43.78125" y="177.493547" style="stroke: #000000; stroke-width: 0.8"/>
      </g>
     </g>
     <g id="text_9">
      <!-- 0.5 -->
      <g transform="translate(20.878125 181.292766)scale(0.1 -0.1)">
       <defs>
        <path id="DejaVuSans-35" d="M 691 4666 
L 3169 4666 
L 3169 4134 
L 1269 4134 
L 1269 2991 
Q 1406 3038 1543 3061 
Q 1681 3084 1819 3084 
Q 2600 3084 3056 2656 
Q 3513 2228 3513 1497 
Q 3513 744 3044 326 
Q 2575 -91 1722 -91 
Q 1428 -91 1123 -41 
Q 819 9 494 109 
L 494 744 
Q 775 591 1075 516 
Q 1375 441 1709 441 
Q 2250 441 2565 725 
Q 2881 1009 2881 1497 
Q 2881 1984 2565 2268 
Q 2250 2553 1709 2553 
Q 1456 2553 1204 2497 
Q 953 2441 691 2322 
L 691 4666 
z
" transform="scale(0.015625)"/>
       </defs>
       <use xlink:href="#DejaVuSans-30"/>
       <use xlink:href="#DejaVuSans-2e" x="63.623047"/>
       <use xlink:href="#DejaVuSans-35" x="95.410156"/>
      </g>
     </g>
    </g>
    <g id="ytick_3">
     <g id="line2d_9">
      <g>
       <use xlink:href="#m20ab3d387d" x="43.78125" y="130.347095" style="stroke: #000000; stroke-width: 0.8"/>
      </g>
     </g>
     <g id="text_10">
      <!-- 1.0 -->
      <g transform="translate(20.878125 134.146313)scale(0.1 -0.1)">
       <use xlink:href="#DejaVuSans-31"/>
       <use xlink:href="#DejaVuSans-2e" x="63.623047"/>
       <use xlink:href="#DejaVuSans-30" x="95.410156"/>
      </g>
     </g>
    </g>
    <g id="ytick_4">
     <g id="line2d_10">
      <g>
       <use xlink:href="#m20ab3d387d" x="43.78125" y="83.200642" style="stroke: #000000; stroke-width: 0.8"/>
      </g>
     </g>
     <g id="text_11">
      <!-- 1.5 -->
      <g transform="translate(20.878125 86.999861)scale(0.1 -0.1)">
       <use xlink:href="#DejaVuSans-31"/>
       <use xlink:href="#DejaVuSans-2e" x="63.623047"/>
       <use xlink:href="#DejaVuSans-35" x="95.410156"/>
      </g>
     </g>
    </g>
    <g id="ytick_5">
     <g id="line2d_11">
      <g>
       <use xlink:href="#m20ab3d387d" x="43.78125" y="36.054189" style="stroke: #000000; stroke-width: 0.8"/>
      </g>
     </g>
     <g id="text_12">
      <!-- 2.0 -->
      <g transform="translate(20.878125 39.853408)scale(0.1 -0.1)">
       <use xlink:href="#DejaVuSans-32"/>
       <use xlink:href="#DejaVuSans-2e" x="63.623047"/>
       <use xlink:href="#DejaVuSans-30" x="95.410156"/>
      </g>
     </g>
    </g>
    <g id="text_13">
     <!-- Probability density -->
     <g transform="translate(14.798438 162.270781)rotate(-90)scale(0.1 -0.1)">
      <defs>
       <path id="DejaVuSans-62" d="M 3116 1747 
Q 3116 2381 2855 2742 
Q 2594 3103 2138 3103 
Q 1681 3103 1420 2742 
Q 1159 2381 1159 1747 
Q 1159 1113 1420 752 
Q 1681 391 2138 391 
Q 2594 391 2855 752 
Q 3116 1113 3116 1747 
z
M 1159 2969 
Q 1341 3281 1617 3432 
Q 1894 3584 2278 3584 
Q 2916 3584 3314 3078 
Q 3713 2572 3713 1747 
Q 3713 922 3314 415 
Q 2916 -91 2278 -91 
Q 1894 -91 1617 61 
Q 1341 213 1159 525 
L 1159 0 
L 581 0 
L 581 4863 
L 1159 4863 
L 1159 2969 
z
" transform="scale(0.015625)"/>
       <path id="DejaVuSans-6c" d="M 603 4863 
L 1178 4863 
L 1178 0 
L 603 0 
L 603 4863 
z
" transform="scale(0.015625)"/>
       <path id="DejaVuSans-79" d="M 2059 -325 
Q 1816 -950 1584 -1140 
Q 1353 -1331 966 -1331 
L 506 -1331 
L 506 -850 
L 844 -850 
Q 1081 -850 1212 -737 
Q 1344 -625 1503 -206 
L 1606 56 
L 191 3500 
L 800 3500 
L 1894 763 
L 2988 3500 
L 3597 3500 
L 2059 -325 
z
" transform="scale(0.015625)"/>
       <path id="DejaVuSans-73" d="M 2834 3397 
L 2834 2853 
Q 2591 2978 2328 3040 
Q 2066 3103 1784 3103 
Q 1356 3103 1142 2972 
Q 928 2841 928 2578 
Q 928 2378 1081 2264 
Q 1234 2150 1697 2047 
L 1894 2003 
Q 2506 1872 2764 1633 
Q 3022 1394 3022 966 
Q 3022 478 2636 193 
Q 2250 -91 1575 -91 
Q 1294 -91 989 -36 
Q 684 19 347 128 
L 347 722 
Q 666 556 975 473 
Q 1284 391 1588 391 
Q 1994 391 2212 530 
Q 2431 669 2431 922 
Q 2431 1156 2273 1281 
Q 2116 1406 1581 1522 
L 1381 1569 
Q 847 1681 609 1914 
Q 372 2147 372 2553 
Q 372 3047 722 3315 
Q 1072 3584 1716 3584 
Q 2034 3584 2315 3537 
Q 2597 3491 2834 3397 
z
" transform="scale(0.015625)"/>
      </defs>
      <use xlink:href="#DejaVuSans-50"/>
      <use xlink:href="#DejaVuSans-72" x="58.552734"/>
      <use xlink:href="#DejaVuSans-6f" x="97.416016"/>
      <use xlink:href="#DejaVuSans-62" x="158.597656"/>
      <use xlink:href="#DejaVuSans-61" x="222.074219"/>
      <use xlink:href="#DejaVuSans-62" x="283.353516"/>
      <use xlink:href="#DejaVuSans-69" x="346.830078"/>
      <use xlink:href="#DejaVuSans-6c" x="374.613281"/>
      <use xlink:href="#DejaVuSans-69" x="402.396484"/>
      <use xlink:href="#DejaVuSans-74" x="430.179688"/>
      <use xlink:href="#DejaVuSans-79" x="469.388672"/>
      <use xlink:href="#DejaVuSans-20" x="528.568359"/>
      <use xlink:href="#DejaVuSans-64" x="560.355469"/>
      <use xlink:href="#DejaVuSans-65" x="623.832031"/>
      <use xlink:href="#DejaVuSans-6e" x="685.355469"/>
      <use xlink:href="#DejaVuSans-73" x="748.734375"/>
      <use xlink:href="#DejaVuSans-69" x="800.833984"/>
      <use xlink:href="#DejaVuSans-74" x="828.617188"/>
      <use xlink:href="#DejaVuSans-79" x="867.826172"/>
     </g>
    </g>
   </g>
   <g id="line2d_12">
    <path d="M 58.999432 224.64 
L 363.363068 36.054189 
L 363.363068 36.054189 
" clip-path="url(#pb41f830b36)" style="fill: none; stroke: #ff7f0e; stroke-width: 1.5; stroke-linecap: square"/>
   </g>
   <g id="patch_203">
    <path d="M 43.78125 224.64 
L 43.78125 7.2 
" style="fill: none; stroke: #000000; stroke-width: 0.8; stroke-linejoin: miter; stroke-linecap: square"/>
   </g>
   <g id="patch_204">
    <path d="M 378.58125 224.64 
L 378.58125 7.2 
" style="fill: none; stroke: #000000; stroke-width: 0.8; stroke-linejoin: miter; stroke-linecap: square"/>
   </g>
   <g id="patch_205">
    <path d="M 43.78125 224.64 
L 378.58125 224.64 
" style="fill: none; stroke: #000000; stroke-width: 0.8; stroke-linejoin: miter; stroke-linecap: square"/>
   </g>
   <g id="patch_206">
    <path d="M 43.78125 7.2 
L 378.58125 7.2 
" style="fill: none; stroke: #000000; stroke-width: 0.8; stroke-linejoin: miter; stroke-linecap: square"/>
   </g>
  </g>
 </g>
 <defs>
  <clipPath id="pb41f830b36">
   <rect x="43.78125" y="7.2" width="334.8" height="217.44"/>
  </clipPath>
 </defs>
</svg>
