<?xml version="1.0" encoding="utf-8" standalone="no"?>
<!DOCTYPE svg PUBLIC "-//W3C//DTD SVG 1.1//EN"
  "http://www.w3.org/Graphics/SVG/1.1/DTD/svg11.dtd">
<svg xmlns:xlink="http://www.w3.org/1999/xlink" width="385.78125pt" height="262.19625pt" viewBox="0 0 385.78125 262.19625" xmlns="http://www.w3.org/2000/svg" version="1.1">
 <metadata>
  <rdf:RDF xmlns:dc="http://purl.org/dc/elements/1.1/" xmlns:cc="http://creativecommons.org/ns#" xmlns:rdf="http://www.w3.org/1999/02/22-rdf-syntax-ns#">
   <cc:Work>
    <dc:type rdf:resource="http://purl.org/dc/dcmitype/StillImage"/>
    <dc:date>2022-06-27T15:26:21.309710</dc:date>
    <dc:format>image/svg+xml</dc:format>
    <dc:creator>
     <cc:Agent>
      <dc:title>Matplotlib v3.5.2, https://matplotlib.org/</dc:title>
     </cc:Agent>
    </dc:creator>
   </cc:Work>
  </rdf:RDF>
 </metadata>
 <defs>
  <style type="text/css">*{stroke-linejoin: round; stroke-linecap: butt}</style>
 </defs>
 <g id="figure_1">
  <g id="patch_1">
   <path d="M 0 262.19625 
L 385.78125 262.19625 
L 385.78125 0 
L 0 0 
L 0 262.19625 
z
" style="fill: none"/>
  </g>
  <g id="axes_1">
   <g id="patch_2">
    <path d="M 43.78125 224.64 
L 378.58125 224.64 
L 378.58125 7.2 
L 43.78125 7.2 
z
" style="fill: #ffffff"/>
   </g>
   <g id="patch_3">
    <path d="M 59.312846 224.64 
L 60.833091 224.64 
L 60.833091 223.26249 
L 59.312846 223.26249 
z
" clip-path="url(#p767eee32c1)" style="fill: #1f77b4"/>
   </g>
   <g id="patch_4">
    <path d="M 60.833091 224.64 
L 62.353336 224.64 
L 62.353336 222.80332 
L 60.833091 222.80332 
z
" clip-path="url(#p767eee32c1)" style="fill: #1f77b4"/>
   </g>
   <g id="patch_5">
    <path d="M 62.353336 224.64 
L 63.873582 224.64 
L 63.873582 222.34415 
L 62.353336 222.34415 
z
" clip-path="url(#p767eee32c1)" style="fill: #1f77b4"/>
   </g>
   <g id="patch_6">
    <path d="M 63.873582 224.64 
L 65.393827 224.64 
L 65.393827 219.589129 
L 63.873582 219.589129 
z
" clip-path="url(#p767eee32c1)" style="fill: #1f77b4"/>
   </g>
   <g id="patch_7">
    <path d="M 65.393827 224.64 
L 66.914072 224.64 
L 66.914072 220.048299 
L 65.393827 220.048299 
z
" clip-path="url(#p767eee32c1)" style="fill: #1f77b4"/>
   </g>
   <g id="patch_8">
    <path d="M 66.914072 224.64 
L 68.434317 224.64 
L 68.434317 219.589129 
L 66.914072 219.589129 
z
" clip-path="url(#p767eee32c1)" style="fill: #1f77b4"/>
   </g>
   <g id="patch_9">
    <path d="M 68.434317 224.64 
L 69.954562 224.64 
L 69.954562 219.589129 
L 68.434317 219.589129 
z
" clip-path="url(#p767eee32c1)" style="fill: #1f77b4"/>
   </g>
   <g id="patch_10">
    <path d="M 69.954562 224.64 
L 71.474807 224.64 
L 71.474807 218.670789 
L 69.954562 218.670789 
z
" clip-path="url(#p767eee32c1)" style="fill: #1f77b4"/>
   </g>
   <g id="patch_11">
    <path d="M 71.474807 224.64 
L 72.995053 224.64 
L 72.995053 217.752449 
L 71.474807 217.752449 
z
" clip-path="url(#p767eee32c1)" style="fill: #1f77b4"/>
   </g>
   <g id="patch_12">
    <path d="M 72.995053 224.64 
L 74.515298 224.64 
L 74.515298 213.619918 
L 72.995053 213.619918 
z
" clip-path="url(#p767eee32c1)" style="fill: #1f77b4"/>
   </g>
   <g id="patch_13">
    <path d="M 74.515298 224.64 
L 76.035543 224.64 
L 76.035543 215.915768 
L 74.515298 215.915768 
z
" clip-path="url(#p767eee32c1)" style="fill: #1f77b4"/>
   </g>
   <g id="patch_14">
    <path d="M 76.035543 224.64 
L 77.555788 224.64 
L 77.555788 213.619918 
L 76.035543 213.619918 
z
" clip-path="url(#p767eee32c1)" style="fill: #1f77b4"/>
   </g>
   <g id="patch_15">
    <path d="M 77.555788 224.64 
L 79.076033 224.64 
L 79.076033 212.701577 
L 77.555788 212.701577 
z
" clip-path="url(#p767eee32c1)" style="fill: #1f77b4"/>
   </g>
   <g id="patch_16">
    <path d="M 79.076033 224.64 
L 80.596278 224.64 
L 80.596278 213.160748 
L 79.076033 213.160748 
z
" clip-path="url(#p767eee32c1)" style="fill: #1f77b4"/>
   </g>
   <g id="patch_17">
    <path d="M 80.596278 224.64 
L 82.116524 224.64 
L 82.116524 210.405727 
L 80.596278 210.405727 
z
" clip-path="url(#p767eee32c1)" style="fill: #1f77b4"/>
   </g>
   <g id="patch_18">
    <path d="M 82.116524 224.64 
L 83.636769 224.64 
L 83.636769 211.324067 
L 82.116524 211.324067 
z
" clip-path="url(#p767eee32c1)" style="fill: #1f77b4"/>
   </g>
   <g id="patch_19">
    <path d="M 83.636769 224.64 
L 85.157014 224.64 
L 85.157014 211.324067 
L 83.636769 211.324067 
z
" clip-path="url(#p767eee32c1)" style="fill: #1f77b4"/>
   </g>
   <g id="patch_20">
    <path d="M 85.157014 224.64 
L 86.677259 224.64 
L 86.677259 208.569047 
L 85.157014 208.569047 
z
" clip-path="url(#p767eee32c1)" style="fill: #1f77b4"/>
   </g>
   <g id="patch_21">
    <path d="M 86.677259 224.64 
L 88.197504 224.64 
L 88.197504 210.864897 
L 86.677259 210.864897 
z
" clip-path="url(#p767eee32c1)" style="fill: #1f77b4"/>
   </g>
   <g id="patch_22">
    <path d="M 88.197504 224.64 
L 89.717749 224.64 
L 89.717749 207.650706 
L 88.197504 207.650706 
z
" clip-path="url(#p767eee32c1)" style="fill: #1f77b4"/>
   </g>
   <g id="patch_23">
    <path d="M 89.717749 224.64 
L 91.237995 224.64 
L 91.237995 205.354856 
L 89.717749 205.354856 
z
" clip-path="url(#p767eee32c1)" style="fill: #1f77b4"/>
   </g>
   <g id="patch_24">
    <path d="M 91.237995 224.64 
L 92.75824 224.64 
L 92.75824 202.140665 
L 91.237995 202.140665 
z
" clip-path="url(#p767eee32c1)" style="fill: #1f77b4"/>
   </g>
   <g id="patch_25">
    <path d="M 92.75824 224.64 
L 94.278485 224.64 
L 94.278485 206.273196 
L 92.75824 206.273196 
z
" clip-path="url(#p767eee32c1)" style="fill: #1f77b4"/>
   </g>
   <g id="patch_26">
    <path d="M 94.278485 224.64 
L 95.79873 224.64 
L 95.79873 208.569047 
L 94.278485 208.569047 
z
" clip-path="url(#p767eee32c1)" style="fill: #1f77b4"/>
   </g>
   <g id="patch_27">
    <path d="M 95.79873 224.64 
L 97.318975 224.64 
L 97.318975 200.303985 
L 95.79873 200.303985 
z
" clip-path="url(#p767eee32c1)" style="fill: #1f77b4"/>
   </g>
   <g id="patch_28">
    <path d="M 97.318975 224.64 
L 98.83922 224.64 
L 98.83922 198.926475 
L 97.318975 198.926475 
z
" clip-path="url(#p767eee32c1)" style="fill: #1f77b4"/>
   </g>
   <g id="patch_29">
    <path d="M 98.83922 224.64 
L 100.359466 224.64 
L 100.359466 205.814026 
L 98.83922 205.814026 
z
" clip-path="url(#p767eee32c1)" style="fill: #1f77b4"/>
   </g>
   <g id="patch_30">
    <path d="M 100.359466 224.64 
L 101.879711 224.64 
L 101.879711 199.385645 
L 100.359466 199.385645 
z
" clip-path="url(#p767eee32c1)" style="fill: #1f77b4"/>
   </g>
   <g id="patch_31">
    <path d="M 101.879711 224.64 
L 103.399956 224.64 
L 103.399956 199.385645 
L 101.879711 199.385645 
z
" clip-path="url(#p767eee32c1)" style="fill: #1f77b4"/>
   </g>
   <g id="patch_32">
    <path d="M 103.399956 224.64 
L 104.920201 224.64 
L 104.920201 198.467304 
L 103.399956 198.467304 
z
" clip-path="url(#p767eee32c1)" style="fill: #1f77b4"/>
   </g>
   <g id="patch_33">
    <path d="M 104.920201 224.64 
L 106.440446 224.64 
L 106.440446 192.038923 
L 104.920201 192.038923 
z
" clip-path="url(#p767eee32c1)" style="fill: #1f77b4"/>
   </g>
   <g id="patch_34">
    <path d="M 106.440446 224.64 
L 107.960691 224.64 
L 107.960691 192.038923 
L 106.440446 192.038923 
z
" clip-path="url(#p767eee32c1)" style="fill: #1f77b4"/>
   </g>
   <g id="patch_35">
    <path d="M 107.960691 224.64 
L 109.480937 224.64 
L 109.480937 196.630624 
L 107.960691 196.630624 
z
" clip-path="url(#p767eee32c1)" style="fill: #1f77b4"/>
   </g>
   <g id="patch_36">
    <path d="M 109.480937 224.64 
L 111.001182 224.64 
L 111.001182 194.334774 
L 109.480937 194.334774 
z
" clip-path="url(#p767eee32c1)" style="fill: #1f77b4"/>
   </g>
   <g id="patch_37">
    <path d="M 111.001182 224.64 
L 112.521427 224.64 
L 112.521427 191.120583 
L 111.001182 191.120583 
z
" clip-path="url(#p767eee32c1)" style="fill: #1f77b4"/>
   </g>
   <g id="patch_38">
    <path d="M 112.521427 224.64 
L 114.041672 224.64 
L 114.041672 193.416433 
L 112.521427 193.416433 
z
" clip-path="url(#p767eee32c1)" style="fill: #1f77b4"/>
   </g>
   <g id="patch_39">
    <path d="M 114.041672 224.64 
L 115.561917 224.64 
L 115.561917 190.202243 
L 114.041672 190.202243 
z
" clip-path="url(#p767eee32c1)" style="fill: #1f77b4"/>
   </g>
   <g id="patch_40">
    <path d="M 115.561917 224.64 
L 117.082162 224.64 
L 117.082162 192.957263 
L 115.561917 192.957263 
z
" clip-path="url(#p767eee32c1)" style="fill: #1f77b4"/>
   </g>
   <g id="patch_41">
    <path d="M 117.082162 224.64 
L 118.602408 224.64 
L 118.602408 196.171454 
L 117.082162 196.171454 
z
" clip-path="url(#p767eee32c1)" style="fill: #1f77b4"/>
   </g>
   <g id="patch_42">
    <path d="M 118.602408 224.64 
L 120.122653 224.64 
L 120.122653 184.692201 
L 118.602408 184.692201 
z
" clip-path="url(#p767eee32c1)" style="fill: #1f77b4"/>
   </g>
   <g id="patch_43">
    <path d="M 120.122653 224.64 
L 121.642898 224.64 
L 121.642898 189.743073 
L 120.122653 189.743073 
z
" clip-path="url(#p767eee32c1)" style="fill: #1f77b4"/>
   </g>
   <g id="patch_44">
    <path d="M 121.642898 224.64 
L 123.163143 224.64 
L 123.163143 181.937181 
L 121.642898 181.937181 
z
" clip-path="url(#p767eee32c1)" style="fill: #1f77b4"/>
   </g>
   <g id="patch_45">
    <path d="M 123.163143 224.64 
L 124.683388 224.64 
L 124.683388 173.672119 
L 123.163143 173.672119 
z
" clip-path="url(#p767eee32c1)" style="fill: #1f77b4"/>
   </g>
   <g id="patch_46">
    <path d="M 124.683388 224.64 
L 126.203633 224.64 
L 126.203633 188.365562 
L 124.683388 188.365562 
z
" clip-path="url(#p767eee32c1)" style="fill: #1f77b4"/>
   </g>
   <g id="patch_47">
    <path d="M 126.203633 224.64 
L 127.723879 224.64 
L 127.723879 185.151372 
L 126.203633 185.151372 
z
" clip-path="url(#p767eee32c1)" style="fill: #1f77b4"/>
   </g>
   <g id="patch_48">
    <path d="M 127.723879 224.64 
L 129.244124 224.64 
L 129.244124 181.937181 
L 127.723879 181.937181 
z
" clip-path="url(#p767eee32c1)" style="fill: #1f77b4"/>
   </g>
   <g id="patch_49">
    <path d="M 129.244124 224.64 
L 130.764369 224.64 
L 130.764369 185.610542 
L 129.244124 185.610542 
z
" clip-path="url(#p767eee32c1)" style="fill: #1f77b4"/>
   </g>
   <g id="patch_50">
    <path d="M 130.764369 224.64 
L 132.284614 224.64 
L 132.284614 184.692201 
L 130.764369 184.692201 
z
" clip-path="url(#p767eee32c1)" style="fill: #1f77b4"/>
   </g>
   <g id="patch_51">
    <path d="M 132.284614 224.64 
L 133.804859 224.64 
L 133.804859 178.72299 
L 132.284614 178.72299 
z
" clip-path="url(#p767eee32c1)" style="fill: #1f77b4"/>
   </g>
   <g id="patch_52">
    <path d="M 133.804859 224.64 
L 135.325104 224.64 
L 135.325104 173.672119 
L 133.804859 173.672119 
z
" clip-path="url(#p767eee32c1)" style="fill: #1f77b4"/>
   </g>
   <g id="patch_53">
    <path d="M 135.325104 224.64 
L 136.84535 224.64 
L 136.84535 171.835439 
L 135.325104 171.835439 
z
" clip-path="url(#p767eee32c1)" style="fill: #1f77b4"/>
   </g>
   <g id="patch_54">
    <path d="M 136.84535 224.64 
L 138.365595 224.64 
L 138.365595 175.508799 
L 136.84535 175.508799 
z
" clip-path="url(#p767eee32c1)" style="fill: #1f77b4"/>
   </g>
   <g id="patch_55">
    <path d="M 138.365595 224.64 
L 139.88584 224.64 
L 139.88584 175.96797 
L 138.365595 175.96797 
z
" clip-path="url(#p767eee32c1)" style="fill: #1f77b4"/>
   </g>
   <g id="patch_56">
    <path d="M 139.88584 224.64 
L 141.406085 224.64 
L 141.406085 175.96797 
L 139.88584 175.96797 
z
" clip-path="url(#p767eee32c1)" style="fill: #1f77b4"/>
   </g>
   <g id="patch_57">
    <path d="M 141.406085 224.64 
L 142.92633 224.64 
L 142.92633 181.018841 
L 141.406085 181.018841 
z
" clip-path="url(#p767eee32c1)" style="fill: #1f77b4"/>
   </g>
   <g id="patch_58">
    <path d="M 142.92633 224.64 
L 144.446576 224.64 
L 144.446576 174.131289 
L 142.92633 174.131289 
z
" clip-path="url(#p767eee32c1)" style="fill: #1f77b4"/>
   </g>
   <g id="patch_59">
    <path d="M 144.446576 224.64 
L 145.966821 224.64 
L 145.966821 178.72299 
L 144.446576 178.72299 
z
" clip-path="url(#p767eee32c1)" style="fill: #1f77b4"/>
   </g>
   <g id="patch_60">
    <path d="M 145.966821 224.64 
L 147.487066 224.64 
L 147.487066 170.457928 
L 145.966821 170.457928 
z
" clip-path="url(#p767eee32c1)" style="fill: #1f77b4"/>
   </g>
   <g id="patch_61">
    <path d="M 147.487066 224.64 
L 149.007311 224.64 
L 149.007311 170.457928 
L 147.487066 170.457928 
z
" clip-path="url(#p767eee32c1)" style="fill: #1f77b4"/>
   </g>
   <g id="patch_62">
    <path d="M 149.007311 224.64 
L 150.527556 224.64 
L 150.527556 167.702908 
L 149.007311 167.702908 
z
" clip-path="url(#p767eee32c1)" style="fill: #1f77b4"/>
   </g>
   <g id="patch_63">
    <path d="M 150.527556 224.64 
L 152.047801 224.64 
L 152.047801 164.029547 
L 150.527556 164.029547 
z
" clip-path="url(#p767eee32c1)" style="fill: #1f77b4"/>
   </g>
   <g id="patch_64">
    <path d="M 152.047801 224.64 
L 153.568047 224.64 
L 153.568047 169.539588 
L 152.047801 169.539588 
z
" clip-path="url(#p767eee32c1)" style="fill: #1f77b4"/>
   </g>
   <g id="patch_65">
    <path d="M 153.568047 224.64 
L 155.088292 224.64 
L 155.088292 165.866227 
L 153.568047 165.866227 
z
" clip-path="url(#p767eee32c1)" style="fill: #1f77b4"/>
   </g>
   <g id="patch_66">
    <path d="M 155.088292 224.64 
L 156.608537 224.64 
L 156.608537 168.162078 
L 155.088292 168.162078 
z
" clip-path="url(#p767eee32c1)" style="fill: #1f77b4"/>
   </g>
   <g id="patch_67">
    <path d="M 156.608537 224.64 
L 158.128782 224.64 
L 158.128782 154.846145 
L 156.608537 154.846145 
z
" clip-path="url(#p767eee32c1)" style="fill: #1f77b4"/>
   </g>
   <g id="patch_68">
    <path d="M 158.128782 224.64 
L 159.649027 224.64 
L 159.649027 171.835439 
L 158.128782 171.835439 
z
" clip-path="url(#p767eee32c1)" style="fill: #1f77b4"/>
   </g>
   <g id="patch_69">
    <path d="M 159.649027 224.64 
L 161.169272 224.64 
L 161.169272 163.570377 
L 159.649027 163.570377 
z
" clip-path="url(#p767eee32c1)" style="fill: #1f77b4"/>
   </g>
   <g id="patch_70">
    <path d="M 161.169272 224.64 
L 162.689518 224.64 
L 162.689518 157.141996 
L 161.169272 157.141996 
z
" clip-path="url(#p767eee32c1)" style="fill: #1f77b4"/>
   </g>
   <g id="patch_71">
    <path d="M 162.689518 224.64 
L 164.209763 224.64 
L 164.209763 163.111207 
L 162.689518 163.111207 
z
" clip-path="url(#p767eee32c1)" style="fill: #1f77b4"/>
   </g>
   <g id="patch_72">
    <path d="M 164.209763 224.64 
L 165.730008 224.64 
L 165.730008 160.815356 
L 164.209763 160.815356 
z
" clip-path="url(#p767eee32c1)" style="fill: #1f77b4"/>
   </g>
   <g id="patch_73">
    <path d="M 165.730008 224.64 
L 167.250253 224.64 
L 167.250253 162.652037 
L 165.730008 162.652037 
z
" clip-path="url(#p767eee32c1)" style="fill: #1f77b4"/>
   </g>
   <g id="patch_74">
    <path d="M 167.250253 224.64 
L 168.770498 224.64 
L 168.770498 153.927805 
L 167.250253 153.927805 
z
" clip-path="url(#p767eee32c1)" style="fill: #1f77b4"/>
   </g>
   <g id="patch_75">
    <path d="M 168.770498 224.64 
L 170.290743 224.64 
L 170.290743 154.386975 
L 168.770498 154.386975 
z
" clip-path="url(#p767eee32c1)" style="fill: #1f77b4"/>
   </g>
   <g id="patch_76">
    <path d="M 170.290743 224.64 
L 171.810989 224.64 
L 171.810989 164.029547 
L 170.290743 164.029547 
z
" clip-path="url(#p767eee32c1)" style="fill: #1f77b4"/>
   </g>
   <g id="patch_77">
    <path d="M 171.810989 224.64 
L 173.331234 224.64 
L 173.331234 155.764485 
L 171.810989 155.764485 
z
" clip-path="url(#p767eee32c1)" style="fill: #1f77b4"/>
   </g>
   <g id="patch_78">
    <path d="M 173.331234 224.64 
L 174.851479 224.64 
L 174.851479 148.417764 
L 173.331234 148.417764 
z
" clip-path="url(#p767eee32c1)" style="fill: #1f77b4"/>
   </g>
   <g id="patch_79">
    <path d="M 174.851479 224.64 
L 176.371724 224.64 
L 176.371724 159.897016 
L 174.851479 159.897016 
z
" clip-path="url(#p767eee32c1)" style="fill: #1f77b4"/>
   </g>
   <g id="patch_80">
    <path d="M 176.371724 224.64 
L 177.891969 224.64 
L 177.891969 151.172784 
L 176.371724 151.172784 
z
" clip-path="url(#p767eee32c1)" style="fill: #1f77b4"/>
   </g>
   <g id="patch_81">
    <path d="M 177.891969 224.64 
L 179.412214 224.64 
L 179.412214 153.468635 
L 177.891969 153.468635 
z
" clip-path="url(#p767eee32c1)" style="fill: #1f77b4"/>
   </g>
   <g id="patch_82">
    <path d="M 179.412214 224.64 
L 180.93246 224.64 
L 180.93246 146.581083 
L 179.412214 146.581083 
z
" clip-path="url(#p767eee32c1)" style="fill: #1f77b4"/>
   </g>
   <g id="patch_83">
    <path d="M 180.93246 224.64 
L 182.452705 224.64 
L 182.452705 148.876934 
L 180.93246 148.876934 
z
" clip-path="url(#p767eee32c1)" style="fill: #1f77b4"/>
   </g>
   <g id="patch_84">
    <path d="M 182.452705 224.64 
L 183.97295 224.64 
L 183.97295 148.417764 
L 182.452705 148.417764 
z
" clip-path="url(#p767eee32c1)" style="fill: #1f77b4"/>
   </g>
   <g id="patch_85">
    <path d="M 183.97295 224.64 
L 185.493195 224.64 
L 185.493195 147.958594 
L 183.97295 147.958594 
z
" clip-path="url(#p767eee32c1)" style="fill: #1f77b4"/>
   </g>
   <g id="patch_86">
    <path d="M 185.493195 224.64 
L 187.01344 224.64 
L 187.01344 149.336104 
L 185.493195 149.336104 
z
" clip-path="url(#p767eee32c1)" style="fill: #1f77b4"/>
   </g>
   <g id="patch_87">
    <path d="M 187.01344 224.64 
L 188.533685 224.64 
L 188.533685 158.060336 
L 187.01344 158.060336 
z
" clip-path="url(#p767eee32c1)" style="fill: #1f77b4"/>
   </g>
   <g id="patch_88">
    <path d="M 188.533685 224.64 
L 190.053931 224.64 
L 190.053931 147.958594 
L 188.533685 147.958594 
z
" clip-path="url(#p767eee32c1)" style="fill: #1f77b4"/>
   </g>
   <g id="patch_89">
    <path d="M 190.053931 224.64 
L 191.574176 224.64 
L 191.574176 151.631954 
L 190.053931 151.631954 
z
" clip-path="url(#p767eee32c1)" style="fill: #1f77b4"/>
   </g>
   <g id="patch_90">
    <path d="M 191.574176 224.64 
L 193.094421 224.64 
L 193.094421 150.254444 
L 191.574176 150.254444 
z
" clip-path="url(#p767eee32c1)" style="fill: #1f77b4"/>
   </g>
   <g id="patch_91">
    <path d="M 193.094421 224.64 
L 194.614666 224.64 
L 194.614666 134.183491 
L 193.094421 134.183491 
z
" clip-path="url(#p767eee32c1)" style="fill: #1f77b4"/>
   </g>
   <g id="patch_92">
    <path d="M 194.614666 224.64 
L 196.134911 224.64 
L 196.134911 145.203573 
L 194.614666 145.203573 
z
" clip-path="url(#p767eee32c1)" style="fill: #1f77b4"/>
   </g>
   <g id="patch_93">
    <path d="M 196.134911 224.64 
L 197.655156 224.64 
L 197.655156 138.775192 
L 196.134911 138.775192 
z
" clip-path="url(#p767eee32c1)" style="fill: #1f77b4"/>
   </g>
   <g id="patch_94">
    <path d="M 197.655156 224.64 
L 199.175402 224.64 
L 199.175402 139.693532 
L 197.655156 139.693532 
z
" clip-path="url(#p767eee32c1)" style="fill: #1f77b4"/>
   </g>
   <g id="patch_95">
    <path d="M 199.175402 224.64 
L 200.695647 224.64 
L 200.695647 132.80598 
L 199.175402 132.80598 
z
" clip-path="url(#p767eee32c1)" style="fill: #1f77b4"/>
   </g>
   <g id="patch_96">
    <path d="M 200.695647 224.64 
L 202.215892 224.64 
L 202.215892 145.203573 
L 200.695647 145.203573 
z
" clip-path="url(#p767eee32c1)" style="fill: #1f77b4"/>
   </g>
   <g id="patch_97">
    <path d="M 202.215892 224.64 
L 203.736137 224.64 
L 203.736137 145.203573 
L 202.215892 145.203573 
z
" clip-path="url(#p767eee32c1)" style="fill: #1f77b4"/>
   </g>
   <g id="patch_98">
    <path d="M 203.736137 224.64 
L 205.256382 224.64 
L 205.256382 139.234362 
L 203.736137 139.234362 
z
" clip-path="url(#p767eee32c1)" style="fill: #1f77b4"/>
   </g>
   <g id="patch_99">
    <path d="M 205.256382 224.64 
L 206.776627 224.64 
L 206.776627 149.795274 
L 205.256382 149.795274 
z
" clip-path="url(#p767eee32c1)" style="fill: #1f77b4"/>
   </g>
   <g id="patch_100">
    <path d="M 206.776627 224.64 
L 208.296873 224.64 
L 208.296873 136.479341 
L 206.776627 136.479341 
z
" clip-path="url(#p767eee32c1)" style="fill: #1f77b4"/>
   </g>
   <g id="patch_101">
    <path d="M 208.296873 224.64 
L 209.817118 224.64 
L 209.817118 130.51013 
L 208.296873 130.51013 
z
" clip-path="url(#p767eee32c1)" style="fill: #1f77b4"/>
   </g>
   <g id="patch_102">
    <path d="M 209.817118 224.64 
L 211.337363 224.64 
L 211.337363 132.34681 
L 209.817118 132.34681 
z
" clip-path="url(#p767eee32c1)" style="fill: #1f77b4"/>
   </g>
   <g id="patch_103">
    <path d="M 211.337363 224.64 
L 212.857608 224.64 
L 212.857608 123.622578 
L 211.337363 123.622578 
z
" clip-path="url(#p767eee32c1)" style="fill: #1f77b4"/>
   </g>
   <g id="patch_104">
    <path d="M 212.857608 224.64 
L 214.377853 224.64 
L 214.377853 136.020171 
L 212.857608 136.020171 
z
" clip-path="url(#p767eee32c1)" style="fill: #1f77b4"/>
   </g>
   <g id="patch_105">
    <path d="M 214.377853 224.64 
L 215.898098 224.64 
L 215.898098 119.949218 
L 214.377853 119.949218 
z
" clip-path="url(#p767eee32c1)" style="fill: #1f77b4"/>
   </g>
   <g id="patch_106">
    <path d="M 215.898098 224.64 
L 217.418344 224.64 
L 217.418344 130.51013 
L 215.898098 130.51013 
z
" clip-path="url(#p767eee32c1)" style="fill: #1f77b4"/>
   </g>
   <g id="patch_107">
    <path d="M 217.418344 224.64 
L 218.938589 224.64 
L 218.938589 134.183491 
L 217.418344 134.183491 
z
" clip-path="url(#p767eee32c1)" style="fill: #1f77b4"/>
   </g>
   <g id="patch_108">
    <path d="M 218.938589 224.64 
L 220.458834 224.64 
L 220.458834 122.245068 
L 218.938589 122.245068 
z
" clip-path="url(#p767eee32c1)" style="fill: #1f77b4"/>
   </g>
   <g id="patch_109">
    <path d="M 220.458834 224.64 
L 221.979079 224.64 
L 221.979079 129.13262 
L 220.458834 129.13262 
z
" clip-path="url(#p767eee32c1)" style="fill: #1f77b4"/>
   </g>
   <g id="patch_110">
    <path d="M 221.979079 224.64 
L 223.499324 224.64 
L 223.499324 129.13262 
L 221.979079 129.13262 
z
" clip-path="url(#p767eee32c1)" style="fill: #1f77b4"/>
   </g>
   <g id="patch_111">
    <path d="M 223.499324 224.64 
L 225.019569 224.64 
L 225.019569 133.724321 
L 223.499324 133.724321 
z
" clip-path="url(#p767eee32c1)" style="fill: #1f77b4"/>
   </g>
   <g id="patch_112">
    <path d="M 225.019569 224.64 
L 226.539815 224.64 
L 226.539815 125.459259 
L 225.019569 125.459259 
z
" clip-path="url(#p767eee32c1)" style="fill: #1f77b4"/>
   </g>
   <g id="patch_113">
    <path d="M 226.539815 224.64 
L 228.06006 224.64 
L 228.06006 121.785898 
L 226.539815 121.785898 
z
" clip-path="url(#p767eee32c1)" style="fill: #1f77b4"/>
   </g>
   <g id="patch_114">
    <path d="M 228.06006 224.64 
L 229.580305 224.64 
L 229.580305 121.785898 
L 228.06006 121.785898 
z
" clip-path="url(#p767eee32c1)" style="fill: #1f77b4"/>
   </g>
   <g id="patch_115">
    <path d="M 229.580305 224.64 
L 231.10055 224.64 
L 231.10055 120.408388 
L 229.580305 120.408388 
z
" clip-path="url(#p767eee32c1)" style="fill: #1f77b4"/>
   </g>
   <g id="patch_116">
    <path d="M 231.10055 224.64 
L 232.620795 224.64 
L 232.620795 122.245068 
L 231.10055 122.245068 
z
" clip-path="url(#p767eee32c1)" style="fill: #1f77b4"/>
   </g>
   <g id="patch_117">
    <path d="M 232.620795 224.64 
L 234.14104 224.64 
L 234.14104 127.295939 
L 232.620795 127.295939 
z
" clip-path="url(#p767eee32c1)" style="fill: #1f77b4"/>
   </g>
   <g id="patch_118">
    <path d="M 234.14104 224.64 
L 235.661286 224.64 
L 235.661286 127.755109 
L 234.14104 127.755109 
z
" clip-path="url(#p767eee32c1)" style="fill: #1f77b4"/>
   </g>
   <g id="patch_119">
    <path d="M 235.661286 224.64 
L 237.181531 224.64 
L 237.181531 118.112537 
L 235.661286 118.112537 
z
" clip-path="url(#p767eee32c1)" style="fill: #1f77b4"/>
   </g>
   <g id="patch_120">
    <path d="M 237.181531 224.64 
L 238.701776 224.64 
L 238.701776 111.224986 
L 237.181531 111.224986 
z
" clip-path="url(#p767eee32c1)" style="fill: #1f77b4"/>
   </g>
   <g id="patch_121">
    <path d="M 238.701776 224.64 
L 240.222021 224.64 
L 240.222021 121.785898 
L 238.701776 121.785898 
z
" clip-path="url(#p767eee32c1)" style="fill: #1f77b4"/>
   </g>
   <g id="patch_122">
    <path d="M 240.222021 224.64 
L 241.742266 224.64 
L 241.742266 118.112537 
L 240.222021 118.112537 
z
" clip-path="url(#p767eee32c1)" style="fill: #1f77b4"/>
   </g>
   <g id="patch_123">
    <path d="M 241.742266 224.64 
L 243.262511 224.64 
L 243.262511 117.653367 
L 241.742266 117.653367 
z
" clip-path="url(#p767eee32c1)" style="fill: #1f77b4"/>
   </g>
   <g id="patch_124">
    <path d="M 243.262511 224.64 
L 244.782757 224.64 
L 244.782757 113.520836 
L 243.262511 113.520836 
z
" clip-path="url(#p767eee32c1)" style="fill: #1f77b4"/>
   </g>
   <g id="patch_125">
    <path d="M 244.782757 224.64 
L 246.303002 224.64 
L 246.303002 105.255774 
L 244.782757 105.255774 
z
" clip-path="url(#p767eee32c1)" style="fill: #1f77b4"/>
   </g>
   <g id="patch_126">
    <path d="M 246.303002 224.64 
L 247.823247 224.64 
L 247.823247 123.622578 
L 246.303002 123.622578 
z
" clip-path="url(#p767eee32c1)" style="fill: #1f77b4"/>
   </g>
   <g id="patch_127">
    <path d="M 247.823247 224.64 
L 249.343492 224.64 
L 249.343492 116.275857 
L 247.823247 116.275857 
z
" clip-path="url(#p767eee32c1)" style="fill: #1f77b4"/>
   </g>
   <g id="patch_128">
    <path d="M 249.343492 224.64 
L 250.863737 224.64 
L 250.863737 117.194197 
L 249.343492 117.194197 
z
" clip-path="url(#p767eee32c1)" style="fill: #1f77b4"/>
   </g>
   <g id="patch_129">
    <path d="M 250.863737 224.64 
L 252.383982 224.64 
L 252.383982 108.010795 
L 250.863737 108.010795 
z
" clip-path="url(#p767eee32c1)" style="fill: #1f77b4"/>
   </g>
   <g id="patch_130">
    <path d="M 252.383982 224.64 
L 253.904228 224.64 
L 253.904228 110.306646 
L 252.383982 110.306646 
z
" clip-path="url(#p767eee32c1)" style="fill: #1f77b4"/>
   </g>
   <g id="patch_131">
    <path d="M 253.904228 224.64 
L 255.424473 224.64 
L 255.424473 103.419094 
L 253.904228 103.419094 
z
" clip-path="url(#p767eee32c1)" style="fill: #1f77b4"/>
   </g>
   <g id="patch_132">
    <path d="M 255.424473 224.64 
L 256.944718 224.64 
L 256.944718 114.439176 
L 255.424473 114.439176 
z
" clip-path="url(#p767eee32c1)" style="fill: #1f77b4"/>
   </g>
   <g id="patch_133">
    <path d="M 256.944718 224.64 
L 258.464963 224.64 
L 258.464963 105.255774 
L 256.944718 105.255774 
z
" clip-path="url(#p767eee32c1)" style="fill: #1f77b4"/>
   </g>
   <g id="patch_134">
    <path d="M 258.464963 224.64 
L 259.985208 224.64 
L 259.985208 105.714945 
L 258.464963 105.714945 
z
" clip-path="url(#p767eee32c1)" style="fill: #1f77b4"/>
   </g>
   <g id="patch_135">
    <path d="M 259.985208 224.64 
L 261.505453 224.64 
L 261.505453 106.174115 
L 259.985208 106.174115 
z
" clip-path="url(#p767eee32c1)" style="fill: #1f77b4"/>
   </g>
   <g id="patch_136">
    <path d="M 261.505453 224.64 
L 263.025699 224.64 
L 263.025699 99.286563 
L 261.505453 99.286563 
z
" clip-path="url(#p767eee32c1)" style="fill: #1f77b4"/>
   </g>
   <g id="patch_137">
    <path d="M 263.025699 224.64 
L 264.545944 224.64 
L 264.545944 93.317352 
L 263.025699 93.317352 
z
" clip-path="url(#p767eee32c1)" style="fill: #1f77b4"/>
   </g>
   <g id="patch_138">
    <path d="M 264.545944 224.64 
L 266.066189 224.64 
L 266.066189 91.021501 
L 264.545944 91.021501 
z
" clip-path="url(#p767eee32c1)" style="fill: #1f77b4"/>
   </g>
   <g id="patch_139">
    <path d="M 266.066189 224.64 
L 267.586434 224.64 
L 267.586434 100.204903 
L 266.066189 100.204903 
z
" clip-path="url(#p767eee32c1)" style="fill: #1f77b4"/>
   </g>
   <g id="patch_140">
    <path d="M 267.586434 224.64 
L 269.106679 224.64 
L 269.106679 91.939842 
L 267.586434 91.939842 
z
" clip-path="url(#p767eee32c1)" style="fill: #1f77b4"/>
   </g>
   <g id="patch_141">
    <path d="M 269.106679 224.64 
L 270.626924 224.64 
L 270.626924 93.317352 
L 269.106679 93.317352 
z
" clip-path="url(#p767eee32c1)" style="fill: #1f77b4"/>
   </g>
   <g id="patch_142">
    <path d="M 270.626924 224.64 
L 272.14717 224.64 
L 272.14717 95.613202 
L 270.626924 95.613202 
z
" clip-path="url(#p767eee32c1)" style="fill: #1f77b4"/>
   </g>
   <g id="patch_143">
    <path d="M 272.14717 224.64 
L 273.667415 224.64 
L 273.667415 101.123244 
L 272.14717 101.123244 
z
" clip-path="url(#p767eee32c1)" style="fill: #1f77b4"/>
   </g>
   <g id="patch_144">
    <path d="M 273.667415 224.64 
L 275.18766 224.64 
L 275.18766 90.562331 
L 273.667415 90.562331 
z
" clip-path="url(#p767eee32c1)" style="fill: #1f77b4"/>
   </g>
   <g id="patch_145">
    <path d="M 275.18766 224.64 
L 276.707905 224.64 
L 276.707905 87.348141 
L 275.18766 87.348141 
z
" clip-path="url(#p767eee32c1)" style="fill: #1f77b4"/>
   </g>
   <g id="patch_146">
    <path d="M 276.707905 224.64 
L 278.22815 224.64 
L 278.22815 85.97063 
L 276.707905 85.97063 
z
" clip-path="url(#p767eee32c1)" style="fill: #1f77b4"/>
   </g>
   <g id="patch_147">
    <path d="M 278.22815 224.64 
L 279.748395 224.64 
L 279.748395 91.939842 
L 278.22815 91.939842 
z
" clip-path="url(#p767eee32c1)" style="fill: #1f77b4"/>
   </g>
   <g id="patch_148">
    <path d="M 279.748395 224.64 
L 281.268641 224.64 
L 281.268641 91.480672 
L 279.748395 91.480672 
z
" clip-path="url(#p767eee32c1)" style="fill: #1f77b4"/>
   </g>
   <g id="patch_149">
    <path d="M 281.268641 224.64 
L 282.788886 224.64 
L 282.788886 101.123244 
L 281.268641 101.123244 
z
" clip-path="url(#p767eee32c1)" style="fill: #1f77b4"/>
   </g>
   <g id="patch_150">
    <path d="M 282.788886 224.64 
L 284.309131 224.64 
L 284.309131 77.246398 
L 282.788886 77.246398 
z
" clip-path="url(#p767eee32c1)" style="fill: #1f77b4"/>
   </g>
   <g id="patch_151">
    <path d="M 284.309131 224.64 
L 285.829376 224.64 
L 285.829376 94.235692 
L 284.309131 94.235692 
z
" clip-path="url(#p767eee32c1)" style="fill: #1f77b4"/>
   </g>
   <g id="patch_152">
    <path d="M 285.829376 224.64 
L 287.349621 224.64 
L 287.349621 99.745733 
L 285.829376 99.745733 
z
" clip-path="url(#p767eee32c1)" style="fill: #1f77b4"/>
   </g>
   <g id="patch_153">
    <path d="M 287.349621 224.64 
L 288.869866 224.64 
L 288.869866 78.164739 
L 287.349621 78.164739 
z
" clip-path="url(#p767eee32c1)" style="fill: #1f77b4"/>
   </g>
   <g id="patch_154">
    <path d="M 288.869866 224.64 
L 290.390112 224.64 
L 290.390112 93.317352 
L 288.869866 93.317352 
z
" clip-path="url(#p767eee32c1)" style="fill: #1f77b4"/>
   </g>
   <g id="patch_155">
    <path d="M 290.390112 224.64 
L 291.910357 224.64 
L 291.910357 85.97063 
L 290.390112 85.97063 
z
" clip-path="url(#p767eee32c1)" style="fill: #1f77b4"/>
   </g>
   <g id="patch_156">
    <path d="M 291.910357 224.64 
L 293.430602 224.64 
L 293.430602 75.868888 
L 291.910357 75.868888 
z
" clip-path="url(#p767eee32c1)" style="fill: #1f77b4"/>
   </g>
   <g id="patch_157">
    <path d="M 293.430602 224.64 
L 294.950847 224.64 
L 294.950847 83.21561 
L 293.430602 83.21561 
z
" clip-path="url(#p767eee32c1)" style="fill: #1f77b4"/>
   </g>
   <g id="patch_158">
    <path d="M 294.950847 224.64 
L 296.471092 224.64 
L 296.471092 68.981337 
L 294.950847 68.981337 
z
" clip-path="url(#p767eee32c1)" style="fill: #1f77b4"/>
   </g>
   <g id="patch_159">
    <path d="M 296.471092 224.64 
L 297.991337 224.64 
L 297.991337 79.083079 
L 296.471092 79.083079 
z
" clip-path="url(#p767eee32c1)" style="fill: #1f77b4"/>
   </g>
   <g id="patch_160">
    <path d="M 297.991337 224.64 
L 299.511583 224.64 
L 299.511583 94.235692 
L 297.991337 94.235692 
z
" clip-path="url(#p767eee32c1)" style="fill: #1f77b4"/>
   </g>
   <g id="patch_161">
    <path d="M 299.511583 224.64 
L 301.031828 224.64 
L 301.031828 73.573038 
L 299.511583 73.573038 
z
" clip-path="url(#p767eee32c1)" style="fill: #1f77b4"/>
   </g>
   <g id="patch_162">
    <path d="M 301.031828 224.64 
L 302.552073 224.64 
L 302.552073 81.378929 
L 301.031828 81.378929 
z
" clip-path="url(#p767eee32c1)" style="fill: #1f77b4"/>
   </g>
   <g id="patch_163">
    <path d="M 302.552073 224.64 
L 304.072318 224.64 
L 304.072318 69.440507 
L 302.552073 69.440507 
z
" clip-path="url(#p767eee32c1)" style="fill: #1f77b4"/>
   </g>
   <g id="patch_164">
    <path d="M 304.072318 224.64 
L 305.592563 224.64 
L 305.592563 86.4298 
L 304.072318 86.4298 
z
" clip-path="url(#p767eee32c1)" style="fill: #1f77b4"/>
   </g>
   <g id="patch_165">
    <path d="M 305.592563 224.64 
L 307.112808 224.64 
L 307.112808 76.328058 
L 305.592563 76.328058 
z
" clip-path="url(#p767eee32c1)" style="fill: #1f77b4"/>
   </g>
   <g id="patch_166">
    <path d="M 307.112808 224.64 
L 308.633054 224.64 
L 308.633054 69.899677 
L 307.112808 69.899677 
z
" clip-path="url(#p767eee32c1)" style="fill: #1f77b4"/>
   </g>
   <g id="patch_167">
    <path d="M 308.633054 224.64 
L 310.153299 224.64 
L 310.153299 80.460589 
L 308.633054 80.460589 
z
" clip-path="url(#p767eee32c1)" style="fill: #1f77b4"/>
   </g>
   <g id="patch_168">
    <path d="M 310.153299 224.64 
L 311.673544 224.64 
L 311.673544 77.246398 
L 310.153299 77.246398 
z
" clip-path="url(#p767eee32c1)" style="fill: #1f77b4"/>
   </g>
   <g id="patch_169">
    <path d="M 311.673544 224.64 
L 313.193789 224.64 
L 313.193789 68.981337 
L 311.673544 68.981337 
z
" clip-path="url(#p767eee32c1)" style="fill: #1f77b4"/>
   </g>
   <g id="patch_170">
    <path d="M 313.193789 224.64 
L 314.714034 224.64 
L 314.714034 68.522167 
L 313.193789 68.522167 
z
" clip-path="url(#p767eee32c1)" style="fill: #1f77b4"/>
   </g>
   <g id="patch_171">
    <path d="M 314.714034 224.64 
L 316.234279 224.64 
L 316.234279 76.328058 
L 314.714034 76.328058 
z
" clip-path="url(#p767eee32c1)" style="fill: #1f77b4"/>
   </g>
   <g id="patch_172">
    <path d="M 316.234279 224.64 
L 317.754525 224.64 
L 317.754525 71.736357 
L 316.234279 71.736357 
z
" clip-path="url(#p767eee32c1)" style="fill: #1f77b4"/>
   </g>
   <g id="patch_173">
    <path d="M 317.754525 224.64 
L 319.27477 224.64 
L 319.27477 81.378929 
L 317.754525 81.378929 
z
" clip-path="url(#p767eee32c1)" style="fill: #1f77b4"/>
   </g>
   <g id="patch_174">
    <path d="M 319.27477 224.64 
L 320.795015 224.64 
L 320.795015 57.502084 
L 319.27477 57.502084 
z
" clip-path="url(#p767eee32c1)" style="fill: #1f77b4"/>
   </g>
   <g id="patch_175">
    <path d="M 320.795015 224.64 
L 322.31526 224.64 
L 322.31526 63.471296 
L 320.795015 63.471296 
z
" clip-path="url(#p767eee32c1)" style="fill: #1f77b4"/>
   </g>
   <g id="patch_176">
    <path d="M 322.31526 224.64 
L 323.835505 224.64 
L 323.835505 63.012125 
L 322.31526 63.012125 
z
" clip-path="url(#p767eee32c1)" style="fill: #1f77b4"/>
   </g>
   <g id="patch_177">
    <path d="M 323.835505 224.64 
L 325.35575 224.64 
L 325.35575 58.879595 
L 323.835505 58.879595 
z
" clip-path="url(#p767eee32c1)" style="fill: #1f77b4"/>
   </g>
   <g id="patch_178">
    <path d="M 325.35575 224.64 
L 326.875996 224.64 
L 326.875996 57.961254 
L 325.35575 57.961254 
z
" clip-path="url(#p767eee32c1)" style="fill: #1f77b4"/>
   </g>
   <g id="patch_179">
    <path d="M 326.875996 224.64 
L 328.396241 224.64 
L 328.396241 70.818017 
L 326.875996 70.818017 
z
" clip-path="url(#p767eee32c1)" style="fill: #1f77b4"/>
   </g>
   <g id="patch_180">
    <path d="M 328.396241 224.64 
L 329.916486 224.64 
L 329.916486 57.502084 
L 328.396241 57.502084 
z
" clip-path="url(#p767eee32c1)" style="fill: #1f77b4"/>
   </g>
   <g id="patch_181">
    <path d="M 329.916486 224.64 
L 331.436731 224.64 
L 331.436731 63.471296 
L 329.916486 63.471296 
z
" clip-path="url(#p767eee32c1)" style="fill: #1f77b4"/>
   </g>
   <g id="patch_182">
    <path d="M 331.436731 224.64 
L 332.956976 224.64 
L 332.956976 43.267811 
L 331.436731 43.267811 
z
" clip-path="url(#p767eee32c1)" style="fill: #1f77b4"/>
   </g>
   <g id="patch_183">
    <path d="M 332.956976 224.64 
L 334.477221 224.64 
L 334.477221 66.685486 
L 332.956976 66.685486 
z
" clip-path="url(#p767eee32c1)" style="fill: #1f77b4"/>
   </g>
   <g id="patch_184">
    <path d="M 334.477221 224.64 
L 335.997467 224.64 
L 335.997467 54.287894 
L 334.477221 54.287894 
z
" clip-path="url(#p767eee32c1)" style="fill: #1f77b4"/>
   </g>
   <g id="patch_185">
    <path d="M 335.997467 224.64 
L 337.517712 224.64 
L 337.517712 59.338765 
L 335.997467 59.338765 
z
" clip-path="url(#p767eee32c1)" style="fill: #1f77b4"/>
   </g>
   <g id="patch_186">
    <path d="M 337.517712 224.64 
L 339.037957 224.64 
L 339.037957 57.502084 
L 337.517712 57.502084 
z
" clip-path="url(#p767eee32c1)" style="fill: #1f77b4"/>
   </g>
   <g id="patch_187">
    <path d="M 339.037957 224.64 
L 340.558202 224.64 
L 340.558202 48.318682 
L 339.037957 48.318682 
z
" clip-path="url(#p767eee32c1)" style="fill: #1f77b4"/>
   </g>
   <g id="patch_188">
    <path d="M 340.558202 224.64 
L 342.078447 224.64 
L 342.078447 38.67611 
L 340.558202 38.67611 
z
" clip-path="url(#p767eee32c1)" style="fill: #1f77b4"/>
   </g>
   <g id="patch_189">
    <path d="M 342.078447 224.64 
L 343.598692 224.64 
L 343.598692 49.237022 
L 342.078447 49.237022 
z
" clip-path="url(#p767eee32c1)" style="fill: #1f77b4"/>
   </g>
   <g id="patch_190">
    <path d="M 343.598692 224.64 
L 345.118938 224.64 
L 345.118938 53.369553 
L 343.598692 53.369553 
z
" clip-path="url(#p767eee32c1)" style="fill: #1f77b4"/>
   </g>
   <g id="patch_191">
    <path d="M 345.118938 224.64 
L 346.639183 224.64 
L 346.639183 65.307976 
L 345.118938 65.307976 
z
" clip-path="url(#p767eee32c1)" style="fill: #1f77b4"/>
   </g>
   <g id="patch_192">
    <path d="M 346.639183 224.64 
L 348.159428 224.64 
L 348.159428 67.144656 
L 346.639183 67.144656 
z
" clip-path="url(#p767eee32c1)" style="fill: #1f77b4"/>
   </g>
   <g id="patch_193">
    <path d="M 348.159428 224.64 
L 349.679673 224.64 
L 349.679673 43.267811 
L 348.159428 43.267811 
z
" clip-path="url(#p767eee32c1)" style="fill: #1f77b4"/>
   </g>
   <g id="patch_194">
    <path d="M 349.679673 224.64 
L 351.199918 224.64 
L 351.199918 39.13528 
L 349.679673 39.13528 
z
" clip-path="url(#p767eee32c1)" style="fill: #1f77b4"/>
   </g>
   <g id="patch_195">
    <path d="M 351.199918 224.64 
L 352.720163 224.64 
L 352.720163 41.431131 
L 351.199918 41.431131 
z
" clip-path="url(#p767eee32c1)" style="fill: #1f77b4"/>
   </g>
   <g id="patch_196">
    <path d="M 352.720163 224.64 
L 354.240409 224.64 
L 354.240409 33.166069 
L 352.720163 33.166069 
z
" clip-path="url(#p767eee32c1)" style="fill: #1f77b4"/>
   </g>
   <g id="patch_197">
    <path d="M 354.240409 224.64 
L 355.760654 224.64 
L 355.760654 55.665404 
L 354.240409 55.665404 
z
" clip-path="url(#p767eee32c1)" style="fill: #1f77b4"/>
   </g>
   <g id="patch_198">
    <path d="M 355.760654 224.64 
L 357.280899 224.64 
L 357.280899 49.696193 
L 355.760654 49.696193 
z
" clip-path="url(#p767eee32c1)" style="fill: #1f77b4"/>
   </g>
   <g id="patch_199">
    <path d="M 357.280899 224.64 
L 358.801144 224.64 
L 358.801144 43.267811 
L 357.280899 43.267811 
z
" clip-path="url(#p767eee32c1)" style="fill: #1f77b4"/>
   </g>
   <g id="patch_200">
    <path d="M 358.801144 224.64 
L 360.321389 224.64 
L 360.321389 44.645322 
L 358.801144 44.645322 
z
" clip-path="url(#p767eee32c1)" style="fill: #1f77b4"/>
   </g>
   <g id="patch_201">
    <path d="M 360.321389 224.64 
L 361.841634 224.64 
L 361.841634 42.808641 
L 360.321389 42.808641 
z
" clip-path="url(#p767eee32c1)" style="fill: #1f77b4"/>
   </g>
   <g id="patch_202">
    <path d="M 361.841634 224.64 
L 363.36188 224.64 
L 363.36188 17.554286 
L 361.841634 17.554286 
z
" clip-path="url(#p767eee32c1)" style="fill: #1f77b4"/>
   </g>
   <g id="matplotlib.axis_1">
    <g id="xtick_1">
     <g id="line2d_1">
      <defs>
       <path id="mfd6893c12a" d="M 0 0 
L 0 3.5 
" style="stroke: #000000; stroke-width: 0.8"/>
      </defs>
      <g>
       <use xlink:href="#mfd6893c12a" x="58.999432" y="224.64" style="stroke: #000000; stroke-width: 0.8"/>
      </g>
     </g>
     <g id="text_1">
      <!-- 0.0 -->
      <g transform="translate(51.047869 239.238437)scale(0.1 -0.1)">
       <defs>
        <path id="DejaVuSans-30" d="M 2034 4250 
Q 1547 4250 1301 3770 
Q 1056 3291 1056 2328 
Q 1056 1369 1301 889 
Q 1547 409 2034 409 
Q 2525 409 2770 889 
Q 3016 1369 3016 2328 
Q 3016 3291 2770 3770 
Q 2525 4250 2034 4250 
z
M 2034 4750 
Q 2819 4750 3233 4129 
Q 3647 3509 3647 2328 
Q 3647 1150 3233 529 
Q 2819 -91 2034 -91 
Q 1250 -91 836 529 
Q 422 1150 422 2328 
Q 422 3509 836 4129 
Q 1250 4750 2034 4750 
z
" transform="scale(0.015625)"/>
        <path id="DejaVuSans-2e" d="M 684 794 
L 1344 794 
L 1344 0 
L 684 0 
L 684 794 
z
" transform="scale(0.015625)"/>
       </defs>
       <use xlink:href="#DejaVuSans-30"/>
       <use xlink:href="#DejaVuSans-2e" x="63.623047"/>
       <use xlink:href="#DejaVuSans-30" x="95.410156"/>
      </g>
     </g>
    </g>
    <g id="xtick_2">
     <g id="line2d_2">
      <g>
       <use xlink:href="#mfd6893c12a" x="119.872159" y="224.64" style="stroke: #000000; stroke-width: 0.8"/>
      </g>
     </g>
     <g id="text_2">
      <!-- 0.2 -->
      <g transform="translate(111.920597 239.238437)scale(0.1 -0.1)">
       <defs>
        <path id="DejaVuSans-32" d="M 1228 531 
L 3431 531 
L 3431 0 
L 469 0 
L 469 531 
Q 828 903 1448 1529 
Q 2069 2156 2228 2338 
Q 2531 2678 2651 2914 
Q 2772 3150 2772 3378 
Q 2772 3750 2511 3984 
Q 2250 4219 1831 4219 
Q 1534 4219 1204 4116 
Q 875 4013 500 3803 
L 500 4441 
Q 881 4594 1212 4672 
Q 1544 4750 1819 4750 
Q 2544 4750 2975 4387 
Q 3406 4025 3406 3419 
Q 3406 3131 3298 2873 
Q 3191 2616 2906 2266 
Q 2828 2175 2409 1742 
Q 1991 1309 1228 531 
z
" transform="scale(0.015625)"/>
       </defs>
       <use xlink:href="#DejaVuSans-30"/>
       <use xlink:href="#DejaVuSans-2e" x="63.623047"/>
       <use xlink:href="#DejaVuSans-32" x="95.410156"/>
      </g>
     </g>
    </g>
    <g id="xtick_3">
     <g id="line2d_3">
      <g>
       <use xlink:href="#mfd6893c12a" x="180.744886" y="224.64" style="stroke: #000000; stroke-width: 0.8"/>
      </g>
     </g>
     <g id="text_3">
      <!-- 0.4 -->
      <g transform="translate(172.793324 239.238437)scale(0.1 -0.1)">
       <defs>
        <path id="DejaVuSans-34" d="M 2419 4116 
L 825 1625 
L 2419 1625 
L 2419 4116 
z
M 2253 4666 
L 3047 4666 
L 3047 1625 
L 3713 1625 
L 3713 1100 
L 3047 1100 
L 3047 0 
L 2419 0 
L 2419 1100 
L 313 1100 
L 313 1709 
L 2253 4666 
z
" transform="scale(0.015625)"/>
       </defs>
       <use xlink:href="#DejaVuSans-30"/>
       <use xlink:href="#DejaVuSans-2e" x="63.623047"/>
       <use xlink:href="#DejaVuSans-34" x="95.410156"/>
      </g>
     </g>
    </g>
    <g id="xtick_4">
     <g id="line2d_4">
      <g>
       <use xlink:href="#mfd6893c12a" x="241.617614" y="224.64" style="stroke: #000000; stroke-width: 0.8"/>
      </g>
     </g>
     <g id="text_4">
      <!-- 0.6 -->
      <g transform="translate(233.666051 239.238437)scale(0.1 -0.1)">
       <defs>
        <path id="DejaVuSans-36" d="M 2113 2584 
Q 1688 2584 1439 2293 
Q 1191 2003 1191 1497 
Q 1191 994 1439 701 
Q 1688 409 2113 409 
Q 2538 409 2786 701 
Q 3034 994 3034 1497 
Q 3034 2003 2786 2293 
Q 2538 2584 2113 2584 
z
M 3366 4563 
L 3366 3988 
Q 3128 4100 2886 4159 
Q 2644 4219 2406 4219 
Q 1781 4219 1451 3797 
Q 1122 3375 1075 2522 
Q 1259 2794 1537 2939 
Q 1816 3084 2150 3084 
Q 2853 3084 3261 2657 
Q 3669 2231 3669 1497 
Q 3669 778 3244 343 
Q 2819 -91 2113 -91 
Q 1303 -91 875 529 
Q 447 1150 447 2328 
Q 447 3434 972 4092 
Q 1497 4750 2381 4750 
Q 2619 4750 2861 4703 
Q 3103 4656 3366 4563 
z
" transform="scale(0.015625)"/>
       </defs>
       <use xlink:href="#DejaVuSans-30"/>
       <use xlink:href="#DejaVuSans-2e" x="63.623047"/>
       <use xlink:href="#DejaVuSans-36" x="95.410156"/>
      </g>
     </g>
    </g>
    <g id="xtick_5">
     <g id="line2d_5">
      <g>
       <use xlink:href="#mfd6893c12a" x="302.490341" y="224.64" style="stroke: #000000; stroke-width: 0.8"/>
      </g>
     </g>
     <g id="text_5">
      <!-- 0.8 -->
      <g transform="translate(294.538778 239.238437)scale(0.1 -0.1)">
       <defs>
        <path id="DejaVuSans-38" d="M 2034 2216 
Q 1584 2216 1326 1975 
Q 1069 1734 1069 1313 
Q 1069 891 1326 650 
Q 1584 409 2034 409 
Q 2484 409 2743 651 
Q 3003 894 3003 1313 
Q 3003 1734 2745 1975 
Q 2488 2216 2034 2216 
z
M 1403 2484 
Q 997 2584 770 2862 
Q 544 3141 544 3541 
Q 544 4100 942 4425 
Q 1341 4750 2034 4750 
Q 2731 4750 3128 4425 
Q 3525 4100 3525 3541 
Q 3525 3141 3298 2862 
Q 3072 2584 2669 2484 
Q 3125 2378 3379 2068 
Q 3634 1759 3634 1313 
Q 3634 634 3220 271 
Q 2806 -91 2034 -91 
Q 1263 -91 848 271 
Q 434 634 434 1313 
Q 434 1759 690 2068 
Q 947 2378 1403 2484 
z
M 1172 3481 
Q 1172 3119 1398 2916 
Q 1625 2713 2034 2713 
Q 2441 2713 2670 2916 
Q 2900 3119 2900 3481 
Q 2900 3844 2670 4047 
Q 2441 4250 2034 4250 
Q 1625 4250 1398 4047 
Q 1172 3844 1172 3481 
z
" transform="scale(0.015625)"/>
       </defs>
       <use xlink:href="#DejaVuSans-30"/>
       <use xlink:href="#DejaVuSans-2e" x="63.623047"/>
       <use xlink:href="#DejaVuSans-38" x="95.410156"/>
      </g>
     </g>
    </g>
    <g id="xtick_6">
     <g id="line2d_6">
      <g>
       <use xlink:href="#mfd6893c12a" x="363.363068" y="224.64" style="stroke: #000000; stroke-width: 0.8"/>
      </g>
     </g>
     <g id="text_6">
      <!-- 1.0 -->
      <g transform="translate(355.411506 239.238437)scale(0.1 -0.1)">
       <defs>
        <path id="DejaVuSans-31" d="M 794 531 
L 1825 531 
L 1825 4091 
L 703 3866 
L 703 4441 
L 1819 4666 
L 2450 4666 
L 2450 531 
L 3481 531 
L 3481 0 
L 794 0 
L 794 531 
z
" transform="scale(0.015625)"/>
       </defs>
       <use xlink:href="#DejaVuSans-31"/>
       <use xlink:href="#DejaVuSans-2e" x="63.623047"/>
       <use xlink:href="#DejaVuSans-30" x="95.410156"/>
      </g>
     </g>
    </g>
    <g id="text_7">
     <!-- Propagation direction -->
     <g transform="translate(157.699219 252.916562)scale(0.1 -0.1)">
      <defs>
       <path id="DejaVuSans-50" d="M 1259 4147 
L 1259 2394 
L 2053 2394 
Q 2494 2394 2734 2622 
Q 2975 2850 2975 3272 
Q 2975 3691 2734 3919 
Q 2494 4147 2053 4147 
L 1259 4147 
z
M 628 4666 
L 2053 4666 
Q 2838 4666 3239 4311 
Q 3641 3956 3641 3272 
Q 3641 2581 3239 2228 
Q 2838 1875 2053 1875 
L 1259 1875 
L 1259 0 
L 628 0 
L 628 4666 
z
" transform="scale(0.015625)"/>
       <path id="DejaVuSans-72" d="M 2631 2963 
Q 2534 3019 2420 3045 
Q 2306 3072 2169 3072 
Q 1681 3072 1420 2755 
Q 1159 2438 1159 1844 
L 1159 0 
L 581 0 
L 581 3500 
L 1159 3500 
L 1159 2956 
Q 1341 3275 1631 3429 
Q 1922 3584 2338 3584 
Q 2397 3584 2469 3576 
Q 2541 3569 2628 3553 
L 2631 2963 
z
" transform="scale(0.015625)"/>
       <path id="DejaVuSans-6f" d="M 1959 3097 
Q 1497 3097 1228 2736 
Q 959 2375 959 1747 
Q 959 1119 1226 758 
Q 1494 397 1959 397 
Q 2419 397 2687 759 
Q 2956 1122 2956 1747 
Q 2956 2369 2687 2733 
Q 2419 3097 1959 3097 
z
M 1959 3584 
Q 2709 3584 3137 3096 
Q 3566 2609 3566 1747 
Q 3566 888 3137 398 
Q 2709 -91 1959 -91 
Q 1206 -91 779 398 
Q 353 888 353 1747 
Q 353 2609 779 3096 
Q 1206 3584 1959 3584 
z
" transform="scale(0.015625)"/>
       <path id="DejaVuSans-70" d="M 1159 525 
L 1159 -1331 
L 581 -1331 
L 581 3500 
L 1159 3500 
L 1159 2969 
Q 1341 3281 1617 3432 
Q 1894 3584 2278 3584 
Q 2916 3584 3314 3078 
Q 3713 2572 3713 1747 
Q 3713 922 3314 415 
Q 2916 -91 2278 -91 
Q 1894 -91 1617 61 
Q 1341 213 1159 525 
z
M 3116 1747 
Q 3116 2381 2855 2742 
Q 2594 3103 2138 3103 
Q 1681 3103 1420 2742 
Q 1159 2381 1159 1747 
Q 1159 1113 1420 752 
Q 1681 391 2138 391 
Q 2594 391 2855 752 
Q 3116 1113 3116 1747 
z
" transform="scale(0.015625)"/>
       <path id="DejaVuSans-61" d="M 2194 1759 
Q 1497 1759 1228 1600 
Q 959 1441 959 1056 
Q 959 750 1161 570 
Q 1363 391 1709 391 
Q 2188 391 2477 730 
Q 2766 1069 2766 1631 
L 2766 1759 
L 2194 1759 
z
M 3341 1997 
L 3341 0 
L 2766 0 
L 2766 531 
Q 2569 213 2275 61 
Q 1981 -91 1556 -91 
Q 1019 -91 701 211 
Q 384 513 384 1019 
Q 384 1609 779 1909 
Q 1175 2209 1959 2209 
L 2766 2209 
L 2766 2266 
Q 2766 2663 2505 2880 
Q 2244 3097 1772 3097 
Q 1472 3097 1187 3025 
Q 903 2953 641 2809 
L 641 3341 
Q 956 3463 1253 3523 
Q 1550 3584 1831 3584 
Q 2591 3584 2966 3190 
Q 3341 2797 3341 1997 
z
" transform="scale(0.015625)"/>
       <path id="DejaVuSans-67" d="M 2906 1791 
Q 2906 2416 2648 2759 
Q 2391 3103 1925 3103 
Q 1463 3103 1205 2759 
Q 947 2416 947 1791 
Q 947 1169 1205 825 
Q 1463 481 1925 481 
Q 2391 481 2648 825 
Q 2906 1169 2906 1791 
z
M 3481 434 
Q 3481 -459 3084 -895 
Q 2688 -1331 1869 -1331 
Q 1566 -1331 1297 -1286 
Q 1028 -1241 775 -1147 
L 775 -588 
Q 1028 -725 1275 -790 
Q 1522 -856 1778 -856 
Q 2344 -856 2625 -561 
Q 2906 -266 2906 331 
L 2906 616 
Q 2728 306 2450 153 
Q 2172 0 1784 0 
Q 1141 0 747 490 
Q 353 981 353 1791 
Q 353 2603 747 3093 
Q 1141 3584 1784 3584 
Q 2172 3584 2450 3431 
Q 2728 3278 2906 2969 
L 2906 3500 
L 3481 3500 
L 3481 434 
z
" transform="scale(0.015625)"/>
       <path id="DejaVuSans-74" d="M 1172 4494 
L 1172 3500 
L 2356 3500 
L 2356 3053 
L 1172 3053 
L 1172 1153 
Q 1172 725 1289 603 
Q 1406 481 1766 481 
L 2356 481 
L 2356 0 
L 1766 0 
Q 1100 0 847 248 
Q 594 497 594 1153 
L 594 3053 
L 172 3053 
L 172 3500 
L 594 3500 
L 594 4494 
L 1172 4494 
z
" transform="scale(0.015625)"/>
       <path id="DejaVuSans-69" d="M 603 3500 
L 1178 3500 
L 1178 0 
L 603 0 
L 603 3500 
z
M 603 4863 
L 1178 4863 
L 1178 4134 
L 603 4134 
L 603 4863 
z
" transform="scale(0.015625)"/>
       <path id="DejaVuSans-6e" d="M 3513 2113 
L 3513 0 
L 2938 0 
L 2938 2094 
Q 2938 2591 2744 2837 
Q 2550 3084 2163 3084 
Q 1697 3084 1428 2787 
Q 1159 2491 1159 1978 
L 1159 0 
L 581 0 
L 581 3500 
L 1159 3500 
L 1159 2956 
Q 1366 3272 1645 3428 
Q 1925 3584 2291 3584 
Q 2894 3584 3203 3211 
Q 3513 2838 3513 2113 
z
" transform="scale(0.015625)"/>
       <path id="DejaVuSans-20" transform="scale(0.015625)"/>
       <path id="DejaVuSans-64" d="M 2906 2969 
L 2906 4863 
L 3481 4863 
L 3481 0 
L 2906 0 
L 2906 525 
Q 2725 213 2448 61 
Q 2172 -91 1784 -91 
Q 1150 -91 751 415 
Q 353 922 353 1747 
Q 353 2572 751 3078 
Q 1150 3584 1784 3584 
Q 2172 3584 2448 3432 
Q 2725 3281 2906 2969 
z
M 947 1747 
Q 947 1113 1208 752 
Q 1469 391 1925 391 
Q 2381 391 2643 752 
Q 2906 1113 2906 1747 
Q 2906 2381 2643 2742 
Q 2381 3103 1925 3103 
Q 1469 3103 1208 2742 
Q 947 2381 947 1747 
z
" transform="scale(0.015625)"/>
       <path id="DejaVuSans-65" d="M 3597 1894 
L 3597 1613 
L 953 1613 
Q 991 1019 1311 708 
Q 1631 397 2203 397 
Q 2534 397 2845 478 
Q 3156 559 3463 722 
L 3463 178 
Q 3153 47 2828 -22 
Q 2503 -91 2169 -91 
Q 1331 -91 842 396 
Q 353 884 353 1716 
Q 353 2575 817 3079 
Q 1281 3584 2069 3584 
Q 2775 3584 3186 3129 
Q 3597 2675 3597 1894 
z
M 3022 2063 
Q 3016 2534 2758 2815 
Q 2500 3097 2075 3097 
Q 1594 3097 1305 2825 
Q 1016 2553 972 2059 
L 3022 2063 
z
" transform="scale(0.015625)"/>
       <path id="DejaVuSans-63" d="M 3122 3366 
L 3122 2828 
Q 2878 2963 2633 3030 
Q 2388 3097 2138 3097 
Q 1578 3097 1268 2742 
Q 959 2388 959 1747 
Q 959 1106 1268 751 
Q 1578 397 2138 397 
Q 2388 397 2633 464 
Q 2878 531 3122 666 
L 3122 134 
Q 2881 22 2623 -34 
Q 2366 -91 2075 -91 
Q 1284 -91 818 406 
Q 353 903 353 1747 
Q 353 2603 823 3093 
Q 1294 3584 2113 3584 
Q 2378 3584 2631 3529 
Q 2884 3475 3122 3366 
z
" transform="scale(0.015625)"/>
      </defs>
      <use xlink:href="#DejaVuSans-50"/>
      <use xlink:href="#DejaVuSans-72" x="58.552734"/>
      <use xlink:href="#DejaVuSans-6f" x="97.416016"/>
      <use xlink:href="#DejaVuSans-70" x="158.597656"/>
      <use xlink:href="#DejaVuSans-61" x="222.074219"/>
      <use xlink:href="#DejaVuSans-67" x="283.353516"/>
      <use xlink:href="#DejaVuSans-61" x="346.830078"/>
      <use xlink:href="#DejaVuSans-74" x="408.109375"/>
      <use xlink:href="#DejaVuSans-69" x="447.318359"/>
      <use xlink:href="#DejaVuSans-6f" x="475.101562"/>
      <use xlink:href="#DejaVuSans-6e" x="536.283203"/>
      <use xlink:href="#DejaVuSans-20" x="599.662109"/>
      <use xlink:href="#DejaVuSans-64" x="631.449219"/>
      <use xlink:href="#DejaVuSans-69" x="694.925781"/>
      <use xlink:href="#DejaVuSans-72" x="722.708984"/>
      <use xlink:href="#DejaVuSans-65" x="761.572266"/>
      <use xlink:href="#DejaVuSans-63" x="823.095703"/>
      <use xlink:href="#DejaVuSans-74" x="878.076172"/>
      <use xlink:href="#DejaVuSans-69" x="917.285156"/>
      <use xlink:href="#DejaVuSans-6f" x="945.068359"/>
      <use xlink:href="#DejaVuSans-6e" x="1006.25"/>
     </g>
    </g>
   </g>
   <g id="matplotlib.axis_2">
    <g id="ytick_1">
     <g id="line2d_7">
      <defs>
       <path id="md8057611c3" d="M 0 0 
L -3.5 0 
" style="stroke: #000000; stroke-width: 0.8"/>
      </defs>
      <g>
       <use xlink:href="#md8057611c3" x="43.78125" y="224.64" style="stroke: #000000; stroke-width: 0.8"/>
      </g>
     </g>
     <g id="text_8">
      <!-- 0.0 -->
      <g transform="translate(20.878125 228.439219)scale(0.1 -0.1)">
       <use xlink:href="#DejaVuSans-30"/>
       <use xlink:href="#DejaVuSans-2e" x="63.623047"/>
       <use xlink:href="#DejaVuSans-30" x="95.410156"/>
      </g>
     </g>
    </g>
    <g id="ytick_2">
     <g id="line2d_8">
      <g>
       <use xlink:href="#md8057611c3" x="43.78125" y="178.770452" style="stroke: #000000; stroke-width: 0.8"/>
      </g>
     </g>
     <g id="text_9">
      <!-- 0.5 -->
      <g transform="translate(20.878125 182.569671)scale(0.1 -0.1)">
       <defs>
        <path id="DejaVuSans-35" d="M 691 4666 
L 3169 4666 
L 3169 4134 
L 1269 4134 
L 1269 2991 
Q 1406 3038 1543 3061 
Q 1681 3084 1819 3084 
Q 2600 3084 3056 2656 
Q 3513 2228 3513 1497 
Q 3513 744 3044 326 
Q 2575 -91 1722 -91 
Q 1428 -91 1123 -41 
Q 819 9 494 109 
L 494 744 
Q 775 591 1075 516 
Q 1375 441 1709 441 
Q 2250 441 2565 725 
Q 2881 1009 2881 1497 
Q 2881 1984 2565 2268 
Q 2250 2553 1709 2553 
Q 1456 2553 1204 2497 
Q 953 2441 691 2322 
L 691 4666 
z
" transform="scale(0.015625)"/>
       </defs>
       <use xlink:href="#DejaVuSans-30"/>
       <use xlink:href="#DejaVuSans-2e" x="63.623047"/>
       <use xlink:href="#DejaVuSans-35" x="95.410156"/>
      </g>
     </g>
    </g>
    <g id="ytick_3">
     <g id="line2d_9">
      <g>
       <use xlink:href="#md8057611c3" x="43.78125" y="132.900904" style="stroke: #000000; stroke-width: 0.8"/>
      </g>
     </g>
     <g id="text_10">
      <!-- 1.0 -->
      <g transform="translate(20.878125 136.700123)scale(0.1 -0.1)">
       <use xlink:href="#DejaVuSans-31"/>
       <use xlink:href="#DejaVuSans-2e" x="63.623047"/>
       <use xlink:href="#DejaVuSans-30" x="95.410156"/>
      </g>
     </g>
    </g>
    <g id="ytick_4">
     <g id="line2d_10">
      <g>
       <use xlink:href="#md8057611c3" x="43.78125" y="87.031356" style="stroke: #000000; stroke-width: 0.8"/>
      </g>
     </g>
     <g id="text_11">
      <!-- 1.5 -->
      <g transform="translate(20.878125 90.830574)scale(0.1 -0.1)">
       <use xlink:href="#DejaVuSans-31"/>
       <use xlink:href="#DejaVuSans-2e" x="63.623047"/>
       <use xlink:href="#DejaVuSans-35" x="95.410156"/>
      </g>
     </g>
    </g>
    <g id="ytick_5">
     <g id="line2d_11">
      <g>
       <use xlink:href="#md8057611c3" x="43.78125" y="41.161808" style="stroke: #000000; stroke-width: 0.8"/>
      </g>
     </g>
     <g id="text_12">
      <!-- 2.0 -->
      <g transform="translate(20.878125 44.961026)scale(0.1 -0.1)">
       <use xlink:href="#DejaVuSans-32"/>
       <use xlink:href="#DejaVuSans-2e" x="63.623047"/>
       <use xlink:href="#DejaVuSans-30" x="95.410156"/>
      </g>
     </g>
    </g>
    <g id="text_13">
     <!-- Probability density -->
     <g transform="translate(14.798438 162.270781)rotate(-90)scale(0.1 -0.1)">
      <defs>
       <path id="DejaVuSans-62" d="M 3116 1747 
Q 3116 2381 2855 2742 
Q 2594 3103 2138 3103 
Q 1681 3103 1420 2742 
Q 1159 2381 1159 1747 
Q 1159 1113 1420 752 
Q 1681 391 2138 391 
Q 2594 391 2855 752 
Q 3116 1113 3116 1747 
z
M 1159 2969 
Q 1341 3281 1617 3432 
Q 1894 3584 2278 3584 
Q 2916 3584 3314 3078 
Q 3713 2572 3713 1747 
Q 3713 922 3314 415 
Q 2916 -91 2278 -91 
Q 1894 -91 1617 61 
Q 1341 213 1159 525 
L 1159 0 
L 581 0 
L 581 4863 
L 1159 4863 
L 1159 2969 
z
" transform="scale(0.015625)"/>
       <path id="DejaVuSans-6c" d="M 603 4863 
L 1178 4863 
L 1178 0 
L 603 0 
L 603 4863 
z
" transform="scale(0.015625)"/>
       <path id="DejaVuSans-79" d="M 2059 -325 
Q 1816 -950 1584 -1140 
Q 1353 -1331 966 -1331 
L 506 -1331 
L 506 -850 
L 844 -850 
Q 1081 -850 1212 -737 
Q 1344 -625 1503 -206 
L 1606 56 
L 191 3500 
L 800 3500 
L 1894 763 
L 2988 3500 
L 3597 3500 
L 2059 -325 
z
" transform="scale(0.015625)"/>
       <path id="DejaVuSans-73" d="M 2834 3397 
L 2834 2853 
Q 2591 2978 2328 3040 
Q 2066 3103 1784 3103 
Q 1356 3103 1142 2972 
Q 928 2841 928 2578 
Q 928 2378 1081 2264 
Q 1234 2150 1697 2047 
L 1894 2003 
Q 2506 1872 2764 1633 
Q 3022 1394 3022 966 
Q 3022 478 2636 193 
Q 2250 -91 1575 -91 
Q 1294 -91 989 -36 
Q 684 19 347 128 
L 347 722 
Q 666 556 975 473 
Q 1284 391 1588 391 
Q 1994 391 2212 530 
Q 2431 669 2431 922 
Q 2431 1156 2273 1281 
Q 2116 1406 1581 1522 
L 1381 1569 
Q 847 1681 609 1914 
Q 372 2147 372 2553 
Q 372 3047 722 3315 
Q 1072 3584 1716 3584 
Q 2034 3584 2315 3537 
Q 2597 3491 2834 3397 
z
" transform="scale(0.015625)"/>
      </defs>
      <use xlink:href="#DejaVuSans-50"/>
      <use xlink:href="#DejaVuSans-72" x="58.552734"/>
      <use xlink:href="#DejaVuSans-6f" x="97.416016"/>
      <use xlink:href="#DejaVuSans-62" x="158.597656"/>
      <use xlink:href="#DejaVuSans-61" x="222.074219"/>
      <use xlink:href="#DejaVuSans-62" x="283.353516"/>
      <use xlink:href="#DejaVuSans-69" x="346.830078"/>
      <use xlink:href="#DejaVuSans-6c" x="374.613281"/>
      <use xlink:href="#DejaVuSans-69" x="402.396484"/>
      <use xlink:href="#DejaVuSans-74" x="430.179688"/>
      <use xlink:href="#DejaVuSans-79" x="469.388672"/>
      <use xlink:href="#DejaVuSans-20" x="528.568359"/>
      <use xlink:href="#DejaVuSans-64" x="560.355469"/>
      <use xlink:href="#DejaVuSans-65" x="623.832031"/>
      <use xlink:href="#DejaVuSans-6e" x="685.355469"/>
      <use xlink:href="#DejaVuSans-73" x="748.734375"/>
      <use xlink:href="#DejaVuSans-69" x="800.833984"/>
      <use xlink:href="#DejaVuSans-74" x="828.617188"/>
      <use xlink:href="#DejaVuSans-79" x="867.826172"/>
     </g>
    </g>
   </g>
   <g id="line2d_12">
    <path d="M 58.999432 224.64 
L 363.363068 41.161808 
L 363.363068 41.161808 
" clip-path="url(#p767eee32c1)" style="fill: none; stroke: #ff7f0e; stroke-width: 1.5; stroke-linecap: square"/>
   </g>
   <g id="patch_203">
    <path d="M 43.78125 224.64 
L 43.78125 7.2 
" style="fill: none; stroke: #000000; stroke-width: 0.8; stroke-linejoin: miter; stroke-linecap: square"/>
   </g>
   <g id="patch_204">
    <path d="M 378.58125 224.64 
L 378.58125 7.2 
" style="fill: none; stroke: #000000; stroke-width: 0.8; stroke-linejoin: miter; stroke-linecap: square"/>
   </g>
   <g id="patch_205">
    <path d="M 43.78125 224.64 
L 378.58125 224.64 
" style="fill: none; stroke: #000000; stroke-width: 0.8; stroke-linejoin: miter; stroke-linecap: square"/>
   </g>
   <g id="patch_206">
    <path d="M 43.78125 7.2 
L 378.58125 7.2 
" style="fill: none; stroke: #000000; stroke-width: 0.8; stroke-linejoin: miter; stroke-linecap: square"/>
   </g>
  </g>
 </g>
 <defs>
  <clipPath id="p767eee32c1">
   <rect x="43.78125" y="7.2" width="334.8" height="217.44"/>
  </clipPath>
 </defs>
</svg>
