<?xml version="1.0" encoding="utf-8" standalone="no"?>
<!DOCTYPE svg PUBLIC "-//W3C//DTD SVG 1.1//EN"
  "http://www.w3.org/Graphics/SVG/1.1/DTD/svg11.dtd">
<svg xmlns:xlink="http://www.w3.org/1999/xlink" width="408.10125pt" height="310.86825pt" viewBox="0 0 408.10125 310.86825" xmlns="http://www.w3.org/2000/svg" version="1.1">
 <metadata>
  <rdf:RDF xmlns:dc="http://purl.org/dc/elements/1.1/" xmlns:cc="http://creativecommons.org/ns#" xmlns:rdf="http://www.w3.org/1999/02/22-rdf-syntax-ns#">
   <cc:Work>
    <dc:type rdf:resource="http://purl.org/dc/dcmitype/StillImage"/>
    <dc:date>2023-01-11T23:28:16.475636</dc:date>
    <dc:format>image/svg+xml</dc:format>
    <dc:creator>
     <cc:Agent>
      <dc:title>Matplotlib v3.5.3, https://matplotlib.org/</dc:title>
     </cc:Agent>
    </dc:creator>
   </cc:Work>
  </rdf:RDF>
 </metadata>
 <defs>
  <style type="text/css">*{stroke-linejoin: round; stroke-linecap: butt}</style>
 </defs>
 <g id="figure_1">
  <g id="patch_1">
   <path d="M 0 310.86825 
L 408.10125 310.86825 
L 408.10125 0 
L 0 0 
z
" style="fill: #ffffff"/>
  </g>
  <g id="axes_1">
   <g id="patch_2">
    <path d="M 43.78125 273.312 
L 400.90125 273.312 
L 400.90125 7.2 
L 43.78125 7.2 
z
" style="fill: #ffffff"/>
   </g>
   <g id="patch_3">
    <path d="M 60.566906 273.312 
L 62.179656 273.312 
L 62.179656 268.286278 
L 60.566906 268.286278 
z
" clip-path="url(#p4b8b9b41a4)" style="fill: #1f77b4"/>
   </g>
   <g id="patch_4">
    <path d="M 62.179656 273.312 
L 63.792405 273.312 
L 63.792405 266.850357 
L 62.179656 266.850357 
z
" clip-path="url(#p4b8b9b41a4)" style="fill: #1f77b4"/>
   </g>
   <g id="patch_5">
    <path d="M 63.792405 273.312 
L 65.405155 273.312 
L 65.405155 265.414436 
L 63.792405 265.414436 
z
" clip-path="url(#p4b8b9b41a4)" style="fill: #1f77b4"/>
   </g>
   <g id="patch_6">
    <path d="M 65.405155 273.312 
L 67.017904 273.312 
L 67.017904 266.850357 
L 65.405155 266.850357 
z
" clip-path="url(#p4b8b9b41a4)" style="fill: #1f77b4"/>
   </g>
   <g id="patch_7">
    <path d="M 67.017904 273.312 
L 68.630653 273.312 
L 68.630653 256.080952 
L 67.017904 256.080952 
z
" clip-path="url(#p4b8b9b41a4)" style="fill: #1f77b4"/>
   </g>
   <g id="patch_8">
    <path d="M 68.630653 273.312 
L 70.243403 273.312 
L 70.243403 253.20911 
L 68.630653 253.20911 
z
" clip-path="url(#p4b8b9b41a4)" style="fill: #1f77b4"/>
   </g>
   <g id="patch_9">
    <path d="M 70.243403 273.312 
L 71.856152 273.312 
L 71.856152 246.747467 
L 70.243403 246.747467 
z
" clip-path="url(#p4b8b9b41a4)" style="fill: #1f77b4"/>
   </g>
   <g id="patch_10">
    <path d="M 71.856152 273.312 
L 73.468902 273.312 
L 73.468902 251.055229 
L 71.856152 251.055229 
z
" clip-path="url(#p4b8b9b41a4)" style="fill: #1f77b4"/>
   </g>
   <g id="patch_11">
    <path d="M 73.468902 273.312 
L 75.081651 273.312 
L 75.081651 246.747467 
L 73.468902 246.747467 
z
" clip-path="url(#p4b8b9b41a4)" style="fill: #1f77b4"/>
   </g>
   <g id="patch_12">
    <path d="M 75.081651 273.312 
L 76.6944 273.312 
L 76.6944 246.029507 
L 75.081651 246.029507 
z
" clip-path="url(#p4b8b9b41a4)" style="fill: #1f77b4"/>
   </g>
   <g id="patch_13">
    <path d="M 76.6944 273.312 
L 78.30715 273.312 
L 78.30715 235.978062 
L 76.6944 235.978062 
z
" clip-path="url(#p4b8b9b41a4)" style="fill: #1f77b4"/>
   </g>
   <g id="patch_14">
    <path d="M 78.30715 273.312 
L 79.919899 273.312 
L 79.919899 225.208657 
L 78.30715 225.208657 
z
" clip-path="url(#p4b8b9b41a4)" style="fill: #1f77b4"/>
   </g>
   <g id="patch_15">
    <path d="M 79.919899 273.312 
L 81.532649 273.312 
L 81.532649 223.054776 
L 79.919899 223.054776 
z
" clip-path="url(#p4b8b9b41a4)" style="fill: #1f77b4"/>
   </g>
   <g id="patch_16">
    <path d="M 81.532649 273.312 
L 83.145398 273.312 
L 83.145398 227.362538 
L 81.532649 227.362538 
z
" clip-path="url(#p4b8b9b41a4)" style="fill: #1f77b4"/>
   </g>
   <g id="patch_17">
    <path d="M 83.145398 273.312 
L 84.758147 273.312 
L 84.758147 234.542142 
L 83.145398 234.542142 
z
" clip-path="url(#p4b8b9b41a4)" style="fill: #1f77b4"/>
   </g>
   <g id="patch_18">
    <path d="M 84.758147 273.312 
L 86.370897 273.312 
L 86.370897 226.644578 
L 84.758147 226.644578 
z
" clip-path="url(#p4b8b9b41a4)" style="fill: #1f77b4"/>
   </g>
   <g id="patch_19">
    <path d="M 86.370897 273.312 
L 87.983646 273.312 
L 87.983646 211.567411 
L 86.370897 211.567411 
z
" clip-path="url(#p4b8b9b41a4)" style="fill: #1f77b4"/>
   </g>
   <g id="patch_20">
    <path d="M 87.983646 273.312 
L 89.596396 273.312 
L 89.596396 220.900895 
L 87.983646 220.900895 
z
" clip-path="url(#p4b8b9b41a4)" style="fill: #1f77b4"/>
   </g>
   <g id="patch_21">
    <path d="M 89.596396 273.312 
L 91.209145 273.312 
L 91.209145 206.541688 
L 89.596396 206.541688 
z
" clip-path="url(#p4b8b9b41a4)" style="fill: #1f77b4"/>
   </g>
   <g id="patch_22">
    <path d="M 91.209145 273.312 
L 92.821894 273.312 
L 92.821894 215.875173 
L 91.209145 215.875173 
z
" clip-path="url(#p4b8b9b41a4)" style="fill: #1f77b4"/>
   </g>
   <g id="patch_23">
    <path d="M 92.821894 273.312 
L 94.434644 273.312 
L 94.434644 210.13149 
L 92.821894 210.13149 
z
" clip-path="url(#p4b8b9b41a4)" style="fill: #1f77b4"/>
   </g>
   <g id="patch_24">
    <path d="M 94.434644 273.312 
L 96.047393 273.312 
L 96.047393 202.233926 
L 94.434644 202.233926 
z
" clip-path="url(#p4b8b9b41a4)" style="fill: #1f77b4"/>
   </g>
   <g id="patch_25">
    <path d="M 96.047393 273.312 
L 97.660143 273.312 
L 97.660143 204.387807 
L 96.047393 204.387807 
z
" clip-path="url(#p4b8b9b41a4)" style="fill: #1f77b4"/>
   </g>
   <g id="patch_26">
    <path d="M 97.660143 273.312 
L 99.272892 273.312 
L 99.272892 197.208204 
L 97.660143 197.208204 
z
" clip-path="url(#p4b8b9b41a4)" style="fill: #1f77b4"/>
   </g>
   <g id="patch_27">
    <path d="M 99.272892 273.312 
L 100.885641 273.312 
L 100.885641 194.336363 
L 99.272892 194.336363 
z
" clip-path="url(#p4b8b9b41a4)" style="fill: #1f77b4"/>
   </g>
   <g id="patch_28">
    <path d="M 100.885641 273.312 
L 102.498391 273.312 
L 102.498391 193.618402 
L 100.885641 193.618402 
z
" clip-path="url(#p4b8b9b41a4)" style="fill: #1f77b4"/>
   </g>
   <g id="patch_29">
    <path d="M 102.498391 273.312 
L 104.11114 273.312 
L 104.11114 183.566958 
L 102.498391 183.566958 
z
" clip-path="url(#p4b8b9b41a4)" style="fill: #1f77b4"/>
   </g>
   <g id="patch_30">
    <path d="M 104.11114 273.312 
L 105.72389 273.312 
L 105.72389 200.798006 
L 104.11114 200.798006 
z
" clip-path="url(#p4b8b9b41a4)" style="fill: #1f77b4"/>
   </g>
   <g id="patch_31">
    <path d="M 105.72389 273.312 
L 107.336639 273.312 
L 107.336639 186.438799 
L 105.72389 186.438799 
z
" clip-path="url(#p4b8b9b41a4)" style="fill: #1f77b4"/>
   </g>
   <g id="patch_32">
    <path d="M 107.336639 273.312 
L 108.949388 273.312 
L 108.949388 175.669394 
L 107.336639 175.669394 
z
" clip-path="url(#p4b8b9b41a4)" style="fill: #1f77b4"/>
   </g>
   <g id="patch_33">
    <path d="M 108.949388 273.312 
L 110.562138 273.312 
L 110.562138 175.669394 
L 108.949388 175.669394 
z
" clip-path="url(#p4b8b9b41a4)" style="fill: #1f77b4"/>
   </g>
   <g id="patch_34">
    <path d="M 110.562138 273.312 
L 112.174887 273.312 
L 112.174887 182.131037 
L 110.562138 182.131037 
z
" clip-path="url(#p4b8b9b41a4)" style="fill: #1f77b4"/>
   </g>
   <g id="patch_35">
    <path d="M 112.174887 273.312 
L 113.787637 273.312 
L 113.787637 177.105314 
L 112.174887 177.105314 
z
" clip-path="url(#p4b8b9b41a4)" style="fill: #1f77b4"/>
   </g>
   <g id="patch_36">
    <path d="M 113.787637 273.312 
L 115.400386 273.312 
L 115.400386 182.131037 
L 113.787637 182.131037 
z
" clip-path="url(#p4b8b9b41a4)" style="fill: #1f77b4"/>
   </g>
   <g id="patch_37">
    <path d="M 115.400386 273.312 
L 117.013135 273.312 
L 117.013135 146.95098 
L 115.400386 146.95098 
z
" clip-path="url(#p4b8b9b41a4)" style="fill: #1f77b4"/>
   </g>
   <g id="patch_38">
    <path d="M 117.013135 273.312 
L 118.625885 273.312 
L 118.625885 162.746108 
L 117.013135 162.746108 
z
" clip-path="url(#p4b8b9b41a4)" style="fill: #1f77b4"/>
   </g>
   <g id="patch_39">
    <path d="M 118.625885 273.312 
L 120.238634 273.312 
L 120.238634 151.976703 
L 118.625885 151.976703 
z
" clip-path="url(#p4b8b9b41a4)" style="fill: #1f77b4"/>
   </g>
   <g id="patch_40">
    <path d="M 120.238634 273.312 
L 121.851384 273.312 
L 121.851384 141.925258 
L 120.238634 141.925258 
z
" clip-path="url(#p4b8b9b41a4)" style="fill: #1f77b4"/>
   </g>
   <g id="patch_41">
    <path d="M 121.851384 273.312 
L 123.464133 273.312 
L 123.464133 133.309734 
L 121.851384 133.309734 
z
" clip-path="url(#p4b8b9b41a4)" style="fill: #1f77b4"/>
   </g>
   <g id="patch_42">
    <path d="M 123.464133 273.312 
L 125.076882 273.312 
L 125.076882 136.899535 
L 123.464133 136.899535 
z
" clip-path="url(#p4b8b9b41a4)" style="fill: #1f77b4"/>
   </g>
   <g id="patch_43">
    <path d="M 125.076882 273.312 
L 126.689632 273.312 
L 126.689632 149.822822 
L 125.076882 149.822822 
z
" clip-path="url(#p4b8b9b41a4)" style="fill: #1f77b4"/>
   </g>
   <g id="patch_44">
    <path d="M 126.689632 273.312 
L 128.302381 273.312 
L 128.302381 125.41217 
L 126.689632 125.41217 
z
" clip-path="url(#p4b8b9b41a4)" style="fill: #1f77b4"/>
   </g>
   <g id="patch_45">
    <path d="M 128.302381 273.312 
L 129.915131 273.312 
L 129.915131 120.386448 
L 128.302381 120.386448 
z
" clip-path="url(#p4b8b9b41a4)" style="fill: #1f77b4"/>
   </g>
   <g id="patch_46">
    <path d="M 129.915131 273.312 
L 131.52788 273.312 
L 131.52788 139.771377 
L 129.915131 139.771377 
z
" clip-path="url(#p4b8b9b41a4)" style="fill: #1f77b4"/>
   </g>
   <g id="patch_47">
    <path d="M 131.52788 273.312 
L 133.140629 273.312 
L 133.140629 116.796646 
L 131.52788 116.796646 
z
" clip-path="url(#p4b8b9b41a4)" style="fill: #1f77b4"/>
   </g>
   <g id="patch_48">
    <path d="M 133.140629 273.312 
L 134.753379 273.312 
L 134.753379 129.001972 
L 133.140629 129.001972 
z
" clip-path="url(#p4b8b9b41a4)" style="fill: #1f77b4"/>
   </g>
   <g id="patch_49">
    <path d="M 134.753379 273.312 
L 136.366128 273.312 
L 136.366128 134.027694 
L 134.753379 134.027694 
z
" clip-path="url(#p4b8b9b41a4)" style="fill: #1f77b4"/>
   </g>
   <g id="patch_50">
    <path d="M 136.366128 273.312 
L 137.978878 273.312 
L 137.978878 113.206844 
L 136.366128 113.206844 
z
" clip-path="url(#p4b8b9b41a4)" style="fill: #1f77b4"/>
   </g>
   <g id="patch_51">
    <path d="M 137.978878 273.312 
L 139.591627 273.312 
L 139.591627 111.052963 
L 137.978878 111.052963 
z
" clip-path="url(#p4b8b9b41a4)" style="fill: #1f77b4"/>
   </g>
   <g id="patch_52">
    <path d="M 139.591627 273.312 
L 141.204376 273.312 
L 141.204376 111.770924 
L 139.591627 111.770924 
z
" clip-path="url(#p4b8b9b41a4)" style="fill: #1f77b4"/>
   </g>
   <g id="patch_53">
    <path d="M 141.204376 273.312 
L 142.817126 273.312 
L 142.817126 97.411717 
L 141.204376 97.411717 
z
" clip-path="url(#p4b8b9b41a4)" style="fill: #1f77b4"/>
   </g>
   <g id="patch_54">
    <path d="M 142.817126 273.312 
L 144.429875 273.312 
L 144.429875 95.975796 
L 142.817126 95.975796 
z
" clip-path="url(#p4b8b9b41a4)" style="fill: #1f77b4"/>
   </g>
   <g id="patch_55">
    <path d="M 144.429875 273.312 
L 146.042625 273.312 
L 146.042625 109.617042 
L 144.429875 109.617042 
z
" clip-path="url(#p4b8b9b41a4)" style="fill: #1f77b4"/>
   </g>
   <g id="patch_56">
    <path d="M 146.042625 273.312 
L 147.655374 273.312 
L 147.655374 131.873813 
L 146.042625 131.873813 
z
" clip-path="url(#p4b8b9b41a4)" style="fill: #1f77b4"/>
   </g>
   <g id="patch_57">
    <path d="M 147.655374 273.312 
L 149.268123 273.312 
L 149.268123 106.027241 
L 147.655374 106.027241 
z
" clip-path="url(#p4b8b9b41a4)" style="fill: #1f77b4"/>
   </g>
   <g id="patch_58">
    <path d="M 149.268123 273.312 
L 150.880873 273.312 
L 150.880873 111.052963 
L 149.268123 111.052963 
z
" clip-path="url(#p4b8b9b41a4)" style="fill: #1f77b4"/>
   </g>
   <g id="patch_59">
    <path d="M 150.880873 273.312 
L 152.493622 273.312 
L 152.493622 101.001518 
L 150.880873 101.001518 
z
" clip-path="url(#p4b8b9b41a4)" style="fill: #1f77b4"/>
   </g>
   <g id="patch_60">
    <path d="M 152.493622 273.312 
L 154.106372 273.312 
L 154.106372 93.821915 
L 152.493622 93.821915 
z
" clip-path="url(#p4b8b9b41a4)" style="fill: #1f77b4"/>
   </g>
   <g id="patch_61">
    <path d="M 154.106372 273.312 
L 155.719121 273.312 
L 155.719121 100.283558 
L 154.106372 100.283558 
z
" clip-path="url(#p4b8b9b41a4)" style="fill: #1f77b4"/>
   </g>
   <g id="patch_62">
    <path d="M 155.719121 273.312 
L 157.33187 273.312 
L 157.33187 98.129677 
L 155.719121 98.129677 
z
" clip-path="url(#p4b8b9b41a4)" style="fill: #1f77b4"/>
   </g>
   <g id="patch_63">
    <path d="M 157.33187 273.312 
L 158.94462 273.312 
L 158.94462 98.847637 
L 157.33187 98.847637 
z
" clip-path="url(#p4b8b9b41a4)" style="fill: #1f77b4"/>
   </g>
   <g id="patch_64">
    <path d="M 158.94462 273.312 
L 160.557369 273.312 
L 160.557369 83.05251 
L 158.94462 83.05251 
z
" clip-path="url(#p4b8b9b41a4)" style="fill: #1f77b4"/>
   </g>
   <g id="patch_65">
    <path d="M 160.557369 273.312 
L 162.170119 273.312 
L 162.170119 98.129677 
L 160.557369 98.129677 
z
" clip-path="url(#p4b8b9b41a4)" style="fill: #1f77b4"/>
   </g>
   <g id="patch_66">
    <path d="M 162.170119 273.312 
L 163.782868 273.312 
L 163.782868 73.719025 
L 162.170119 73.719025 
z
" clip-path="url(#p4b8b9b41a4)" style="fill: #1f77b4"/>
   </g>
   <g id="patch_67">
    <path d="M 163.782868 273.312 
L 165.395617 273.312 
L 165.395617 75.154946 
L 163.782868 75.154946 
z
" clip-path="url(#p4b8b9b41a4)" style="fill: #1f77b4"/>
   </g>
   <g id="patch_68">
    <path d="M 165.395617 273.312 
L 167.008367 273.312 
L 167.008367 93.103955 
L 165.395617 93.103955 
z
" clip-path="url(#p4b8b9b41a4)" style="fill: #1f77b4"/>
   </g>
   <g id="patch_69">
    <path d="M 167.008367 273.312 
L 168.621116 273.312 
L 168.621116 74.436986 
L 167.008367 74.436986 
z
" clip-path="url(#p4b8b9b41a4)" style="fill: #1f77b4"/>
   </g>
   <g id="patch_70">
    <path d="M 168.621116 273.312 
L 170.233866 273.312 
L 170.233866 78.744748 
L 168.621116 78.744748 
z
" clip-path="url(#p4b8b9b41a4)" style="fill: #1f77b4"/>
   </g>
   <g id="patch_71">
    <path d="M 170.233866 273.312 
L 171.846615 273.312 
L 171.846615 57.205938 
L 170.233866 57.205938 
z
" clip-path="url(#p4b8b9b41a4)" style="fill: #1f77b4"/>
   </g>
   <g id="patch_72">
    <path d="M 171.846615 273.312 
L 173.459364 273.312 
L 173.459364 94.539875 
L 171.846615 94.539875 
z
" clip-path="url(#p4b8b9b41a4)" style="fill: #1f77b4"/>
   </g>
   <g id="patch_73">
    <path d="M 173.459364 273.312 
L 175.072114 273.312 
L 175.072114 78.744748 
L 173.459364 78.744748 
z
" clip-path="url(#p4b8b9b41a4)" style="fill: #1f77b4"/>
   </g>
   <g id="patch_74">
    <path d="M 175.072114 273.312 
L 176.684863 273.312 
L 176.684863 59.359819 
L 175.072114 59.359819 
z
" clip-path="url(#p4b8b9b41a4)" style="fill: #1f77b4"/>
   </g>
   <g id="patch_75">
    <path d="M 176.684863 273.312 
L 178.297613 273.312 
L 178.297613 75.872907 
L 176.684863 75.872907 
z
" clip-path="url(#p4b8b9b41a4)" style="fill: #1f77b4"/>
   </g>
   <g id="patch_76">
    <path d="M 178.297613 273.312 
L 179.910362 273.312 
L 179.910362 52.898176 
L 178.297613 52.898176 
z
" clip-path="url(#p4b8b9b41a4)" style="fill: #1f77b4"/>
   </g>
   <g id="patch_77">
    <path d="M 179.910362 273.312 
L 181.523111 273.312 
L 181.523111 55.052057 
L 179.910362 55.052057 
z
" clip-path="url(#p4b8b9b41a4)" style="fill: #1f77b4"/>
   </g>
   <g id="patch_78">
    <path d="M 181.523111 273.312 
L 183.135861 273.312 
L 183.135861 60.795739 
L 181.523111 60.795739 
z
" clip-path="url(#p4b8b9b41a4)" style="fill: #1f77b4"/>
   </g>
   <g id="patch_79">
    <path d="M 183.135861 273.312 
L 184.74861 273.312 
L 184.74861 51.462255 
L 183.135861 51.462255 
z
" clip-path="url(#p4b8b9b41a4)" style="fill: #1f77b4"/>
   </g>
   <g id="patch_80">
    <path d="M 184.74861 273.312 
L 186.36136 273.312 
L 186.36136 62.23166 
L 184.74861 62.23166 
z
" clip-path="url(#p4b8b9b41a4)" style="fill: #1f77b4"/>
   </g>
   <g id="patch_81">
    <path d="M 186.36136 273.312 
L 187.974109 273.312 
L 187.974109 56.487977 
L 186.36136 56.487977 
z
" clip-path="url(#p4b8b9b41a4)" style="fill: #1f77b4"/>
   </g>
   <g id="patch_82">
    <path d="M 187.974109 273.312 
L 189.586858 273.312 
L 189.586858 72.283105 
L 187.974109 72.283105 
z
" clip-path="url(#p4b8b9b41a4)" style="fill: #1f77b4"/>
   </g>
   <g id="patch_83">
    <path d="M 189.586858 273.312 
L 191.199608 273.312 
L 191.199608 60.077779 
L 189.586858 60.077779 
z
" clip-path="url(#p4b8b9b41a4)" style="fill: #1f77b4"/>
   </g>
   <g id="patch_84">
    <path d="M 191.199608 273.312 
L 192.812357 273.312 
L 192.812357 68.693303 
L 191.199608 68.693303 
z
" clip-path="url(#p4b8b9b41a4)" style="fill: #1f77b4"/>
   </g>
   <g id="patch_85">
    <path d="M 192.812357 273.312 
L 194.425107 273.312 
L 194.425107 76.590867 
L 192.812357 76.590867 
z
" clip-path="url(#p4b8b9b41a4)" style="fill: #1f77b4"/>
   </g>
   <g id="patch_86">
    <path d="M 194.425107 273.312 
L 196.037856 273.312 
L 196.037856 62.94962 
L 194.425107 62.94962 
z
" clip-path="url(#p4b8b9b41a4)" style="fill: #1f77b4"/>
   </g>
   <g id="patch_87">
    <path d="M 196.037856 273.312 
L 197.650605 273.312 
L 197.650605 68.693303 
L 196.037856 68.693303 
z
" clip-path="url(#p4b8b9b41a4)" style="fill: #1f77b4"/>
   </g>
   <g id="patch_88">
    <path d="M 197.650605 273.312 
L 199.263355 273.312 
L 199.263355 67.975343 
L 197.650605 67.975343 
z
" clip-path="url(#p4b8b9b41a4)" style="fill: #1f77b4"/>
   </g>
   <g id="patch_89">
    <path d="M 199.263355 273.312 
L 200.876104 273.312 
L 200.876104 38.538969 
L 199.263355 38.538969 
z
" clip-path="url(#p4b8b9b41a4)" style="fill: #1f77b4"/>
   </g>
   <g id="patch_90">
    <path d="M 200.876104 273.312 
L 202.488854 273.312 
L 202.488854 55.052057 
L 200.876104 55.052057 
z
" clip-path="url(#p4b8b9b41a4)" style="fill: #1f77b4"/>
   </g>
   <g id="patch_91">
    <path d="M 202.488854 273.312 
L 204.101603 273.312 
L 204.101603 61.5137 
L 202.488854 61.5137 
z
" clip-path="url(#p4b8b9b41a4)" style="fill: #1f77b4"/>
   </g>
   <g id="patch_92">
    <path d="M 204.101603 273.312 
L 205.714352 273.312 
L 205.714352 71.565144 
L 204.101603 71.565144 
z
" clip-path="url(#p4b8b9b41a4)" style="fill: #1f77b4"/>
   </g>
   <g id="patch_93">
    <path d="M 205.714352 273.312 
L 207.327102 273.312 
L 207.327102 37.821008 
L 205.714352 37.821008 
z
" clip-path="url(#p4b8b9b41a4)" style="fill: #1f77b4"/>
   </g>
   <g id="patch_94">
    <path d="M 207.327102 273.312 
L 208.939851 273.312 
L 208.939851 65.821462 
L 207.327102 65.821462 
z
" clip-path="url(#p4b8b9b41a4)" style="fill: #1f77b4"/>
   </g>
   <g id="patch_95">
    <path d="M 208.939851 273.312 
L 210.552601 273.312 
L 210.552601 44.282652 
L 208.939851 44.282652 
z
" clip-path="url(#p4b8b9b41a4)" style="fill: #1f77b4"/>
   </g>
   <g id="patch_96">
    <path d="M 210.552601 273.312 
L 212.16535 273.312 
L 212.16535 59.359819 
L 210.552601 59.359819 
z
" clip-path="url(#p4b8b9b41a4)" style="fill: #1f77b4"/>
   </g>
   <g id="patch_97">
    <path d="M 212.16535 273.312 
L 213.778099 273.312 
L 213.778099 45.000612 
L 212.16535 45.000612 
z
" clip-path="url(#p4b8b9b41a4)" style="fill: #1f77b4"/>
   </g>
   <g id="patch_98">
    <path d="M 213.778099 273.312 
L 215.390849 273.312 
L 215.390849 52.180215 
L 213.778099 52.180215 
z
" clip-path="url(#p4b8b9b41a4)" style="fill: #1f77b4"/>
   </g>
   <g id="patch_99">
    <path d="M 215.390849 273.312 
L 217.003598 273.312 
L 217.003598 73.719025 
L 215.390849 73.719025 
z
" clip-path="url(#p4b8b9b41a4)" style="fill: #1f77b4"/>
   </g>
   <g id="patch_100">
    <path d="M 217.003598 273.312 
L 218.616348 273.312 
L 218.616348 57.923898 
L 217.003598 57.923898 
z
" clip-path="url(#p4b8b9b41a4)" style="fill: #1f77b4"/>
   </g>
   <g id="patch_101">
    <path d="M 218.616348 273.312 
L 220.229097 273.312 
L 220.229097 43.564691 
L 218.616348 43.564691 
z
" clip-path="url(#p4b8b9b41a4)" style="fill: #1f77b4"/>
   </g>
   <g id="patch_102">
    <path d="M 220.229097 273.312 
L 221.841846 273.312 
L 221.841846 61.5137 
L 220.229097 61.5137 
z
" clip-path="url(#p4b8b9b41a4)" style="fill: #1f77b4"/>
   </g>
   <g id="patch_103">
    <path d="M 221.841846 273.312 
L 223.454596 273.312 
L 223.454596 76.590867 
L 221.841846 76.590867 
z
" clip-path="url(#p4b8b9b41a4)" style="fill: #1f77b4"/>
   </g>
   <g id="patch_104">
    <path d="M 223.454596 273.312 
L 225.067345 273.312 
L 225.067345 39.97489 
L 223.454596 39.97489 
z
" clip-path="url(#p4b8b9b41a4)" style="fill: #1f77b4"/>
   </g>
   <g id="patch_105">
    <path d="M 225.067345 273.312 
L 226.680095 273.312 
L 226.680095 19.872 
L 225.067345 19.872 
z
" clip-path="url(#p4b8b9b41a4)" style="fill: #1f77b4"/>
   </g>
   <g id="patch_106">
    <path d="M 226.680095 273.312 
L 228.292844 273.312 
L 228.292844 55.052057 
L 226.680095 55.052057 
z
" clip-path="url(#p4b8b9b41a4)" style="fill: #1f77b4"/>
   </g>
   <g id="patch_107">
    <path d="M 228.292844 273.312 
L 229.905593 273.312 
L 229.905593 31.359365 
L 228.292844 31.359365 
z
" clip-path="url(#p4b8b9b41a4)" style="fill: #1f77b4"/>
   </g>
   <g id="patch_108">
    <path d="M 229.905593 273.312 
L 231.518343 273.312 
L 231.518343 42.128771 
L 229.905593 42.128771 
z
" clip-path="url(#p4b8b9b41a4)" style="fill: #1f77b4"/>
   </g>
   <g id="patch_109">
    <path d="M 231.518343 273.312 
L 233.131092 273.312 
L 233.131092 37.821008 
L 231.518343 37.821008 
z
" clip-path="url(#p4b8b9b41a4)" style="fill: #1f77b4"/>
   </g>
   <g id="patch_110">
    <path d="M 233.131092 273.312 
L 234.743842 273.312 
L 234.743842 51.462255 
L 233.131092 51.462255 
z
" clip-path="url(#p4b8b9b41a4)" style="fill: #1f77b4"/>
   </g>
   <g id="patch_111">
    <path d="M 234.743842 273.312 
L 236.356591 273.312 
L 236.356591 33.513246 
L 234.743842 33.513246 
z
" clip-path="url(#p4b8b9b41a4)" style="fill: #1f77b4"/>
   </g>
   <g id="patch_112">
    <path d="M 236.356591 273.312 
L 237.96934 273.312 
L 237.96934 60.077779 
L 236.356591 60.077779 
z
" clip-path="url(#p4b8b9b41a4)" style="fill: #1f77b4"/>
   </g>
   <g id="patch_113">
    <path d="M 237.96934 273.312 
L 239.58209 273.312 
L 239.58209 41.41081 
L 237.96934 41.41081 
z
" clip-path="url(#p4b8b9b41a4)" style="fill: #1f77b4"/>
   </g>
   <g id="patch_114">
    <path d="M 239.58209 273.312 
L 241.194839 273.312 
L 241.194839 56.487977 
L 239.58209 56.487977 
z
" clip-path="url(#p4b8b9b41a4)" style="fill: #1f77b4"/>
   </g>
   <g id="patch_115">
    <path d="M 241.194839 273.312 
L 242.807589 273.312 
L 242.807589 52.898176 
L 241.194839 52.898176 
z
" clip-path="url(#p4b8b9b41a4)" style="fill: #1f77b4"/>
   </g>
   <g id="patch_116">
    <path d="M 242.807589 273.312 
L 244.420338 273.312 
L 244.420338 39.97489 
L 242.807589 39.97489 
z
" clip-path="url(#p4b8b9b41a4)" style="fill: #1f77b4"/>
   </g>
   <g id="patch_117">
    <path d="M 244.420338 273.312 
L 246.033087 273.312 
L 246.033087 47.872453 
L 244.420338 47.872453 
z
" clip-path="url(#p4b8b9b41a4)" style="fill: #1f77b4"/>
   </g>
   <g id="patch_118">
    <path d="M 246.033087 273.312 
L 247.645837 273.312 
L 247.645837 75.154946 
L 246.033087 75.154946 
z
" clip-path="url(#p4b8b9b41a4)" style="fill: #1f77b4"/>
   </g>
   <g id="patch_119">
    <path d="M 247.645837 273.312 
L 249.258586 273.312 
L 249.258586 63.667581 
L 247.645837 63.667581 
z
" clip-path="url(#p4b8b9b41a4)" style="fill: #1f77b4"/>
   </g>
   <g id="patch_120">
    <path d="M 249.258586 273.312 
L 250.871336 273.312 
L 250.871336 43.564691 
L 249.258586 43.564691 
z
" clip-path="url(#p4b8b9b41a4)" style="fill: #1f77b4"/>
   </g>
   <g id="patch_121">
    <path d="M 250.871336 273.312 
L 252.484085 273.312 
L 252.484085 57.205938 
L 250.871336 57.205938 
z
" clip-path="url(#p4b8b9b41a4)" style="fill: #1f77b4"/>
   </g>
   <g id="patch_122">
    <path d="M 252.484085 273.312 
L 254.096834 273.312 
L 254.096834 61.5137 
L 252.484085 61.5137 
z
" clip-path="url(#p4b8b9b41a4)" style="fill: #1f77b4"/>
   </g>
   <g id="patch_123">
    <path d="M 254.096834 273.312 
L 255.709584 273.312 
L 255.709584 56.487977 
L 254.096834 56.487977 
z
" clip-path="url(#p4b8b9b41a4)" style="fill: #1f77b4"/>
   </g>
   <g id="patch_124">
    <path d="M 255.709584 273.312 
L 257.322333 273.312 
L 257.322333 47.154493 
L 255.709584 47.154493 
z
" clip-path="url(#p4b8b9b41a4)" style="fill: #1f77b4"/>
   </g>
   <g id="patch_125">
    <path d="M 257.322333 273.312 
L 258.935083 273.312 
L 258.935083 67.975343 
L 257.322333 67.975343 
z
" clip-path="url(#p4b8b9b41a4)" style="fill: #1f77b4"/>
   </g>
   <g id="patch_126">
    <path d="M 258.935083 273.312 
L 260.547832 273.312 
L 260.547832 50.026334 
L 258.935083 50.026334 
z
" clip-path="url(#p4b8b9b41a4)" style="fill: #1f77b4"/>
   </g>
   <g id="patch_127">
    <path d="M 260.547832 273.312 
L 262.160581 273.312 
L 262.160581 57.205938 
L 260.547832 57.205938 
z
" clip-path="url(#p4b8b9b41a4)" style="fill: #1f77b4"/>
   </g>
   <g id="patch_128">
    <path d="M 262.160581 273.312 
L 263.773331 273.312 
L 263.773331 53.616136 
L 262.160581 53.616136 
z
" clip-path="url(#p4b8b9b41a4)" style="fill: #1f77b4"/>
   </g>
   <g id="patch_129">
    <path d="M 263.773331 273.312 
L 265.38608 273.312 
L 265.38608 61.5137 
L 263.773331 61.5137 
z
" clip-path="url(#p4b8b9b41a4)" style="fill: #1f77b4"/>
   </g>
   <g id="patch_130">
    <path d="M 265.38608 273.312 
L 266.99883 273.312 
L 266.99883 70.847184 
L 265.38608 70.847184 
z
" clip-path="url(#p4b8b9b41a4)" style="fill: #1f77b4"/>
   </g>
   <g id="patch_131">
    <path d="M 266.99883 273.312 
L 268.611579 273.312 
L 268.611579 70.847184 
L 266.99883 70.847184 
z
" clip-path="url(#p4b8b9b41a4)" style="fill: #1f77b4"/>
   </g>
   <g id="patch_132">
    <path d="M 268.611579 273.312 
L 270.224328 273.312 
L 270.224328 44.282652 
L 268.611579 44.282652 
z
" clip-path="url(#p4b8b9b41a4)" style="fill: #1f77b4"/>
   </g>
   <g id="patch_133">
    <path d="M 270.224328 273.312 
L 271.837078 273.312 
L 271.837078 78.026788 
L 270.224328 78.026788 
z
" clip-path="url(#p4b8b9b41a4)" style="fill: #1f77b4"/>
   </g>
   <g id="patch_134">
    <path d="M 271.837078 273.312 
L 273.449827 273.312 
L 273.449827 68.693303 
L 271.837078 68.693303 
z
" clip-path="url(#p4b8b9b41a4)" style="fill: #1f77b4"/>
   </g>
   <g id="patch_135">
    <path d="M 273.449827 273.312 
L 275.062577 273.312 
L 275.062577 68.693303 
L 273.449827 68.693303 
z
" clip-path="url(#p4b8b9b41a4)" style="fill: #1f77b4"/>
   </g>
   <g id="patch_136">
    <path d="M 275.062577 273.312 
L 276.675326 273.312 
L 276.675326 68.693303 
L 275.062577 68.693303 
z
" clip-path="url(#p4b8b9b41a4)" style="fill: #1f77b4"/>
   </g>
   <g id="patch_137">
    <path d="M 276.675326 273.312 
L 278.288075 273.312 
L 278.288075 59.359819 
L 276.675326 59.359819 
z
" clip-path="url(#p4b8b9b41a4)" style="fill: #1f77b4"/>
   </g>
   <g id="patch_138">
    <path d="M 278.288075 273.312 
L 279.900825 273.312 
L 279.900825 67.975343 
L 278.288075 67.975343 
z
" clip-path="url(#p4b8b9b41a4)" style="fill: #1f77b4"/>
   </g>
   <g id="patch_139">
    <path d="M 279.900825 273.312 
L 281.513574 273.312 
L 281.513574 83.05251 
L 279.900825 83.05251 
z
" clip-path="url(#p4b8b9b41a4)" style="fill: #1f77b4"/>
   </g>
   <g id="patch_140">
    <path d="M 281.513574 273.312 
L 283.126324 273.312 
L 283.126324 95.975796 
L 281.513574 95.975796 
z
" clip-path="url(#p4b8b9b41a4)" style="fill: #1f77b4"/>
   </g>
   <g id="patch_141">
    <path d="M 283.126324 273.312 
L 284.739073 273.312 
L 284.739073 96.693756 
L 283.126324 96.693756 
z
" clip-path="url(#p4b8b9b41a4)" style="fill: #1f77b4"/>
   </g>
   <g id="patch_142">
    <path d="M 284.739073 273.312 
L 286.351822 273.312 
L 286.351822 88.078232 
L 284.739073 88.078232 
z
" clip-path="url(#p4b8b9b41a4)" style="fill: #1f77b4"/>
   </g>
   <g id="patch_143">
    <path d="M 286.351822 273.312 
L 287.964572 273.312 
L 287.964572 111.770924 
L 286.351822 111.770924 
z
" clip-path="url(#p4b8b9b41a4)" style="fill: #1f77b4"/>
   </g>
   <g id="patch_144">
    <path d="M 287.964572 273.312 
L 289.577321 273.312 
L 289.577321 86.642312 
L 287.964572 86.642312 
z
" clip-path="url(#p4b8b9b41a4)" style="fill: #1f77b4"/>
   </g>
   <g id="patch_145">
    <path d="M 289.577321 273.312 
L 291.190071 273.312 
L 291.190071 111.052963 
L 289.577321 111.052963 
z
" clip-path="url(#p4b8b9b41a4)" style="fill: #1f77b4"/>
   </g>
   <g id="patch_146">
    <path d="M 291.190071 273.312 
L 292.80282 273.312 
L 292.80282 104.59132 
L 291.190071 104.59132 
z
" clip-path="url(#p4b8b9b41a4)" style="fill: #1f77b4"/>
   </g>
   <g id="patch_147">
    <path d="M 292.80282 273.312 
L 294.415569 273.312 
L 294.415569 98.129677 
L 292.80282 98.129677 
z
" clip-path="url(#p4b8b9b41a4)" style="fill: #1f77b4"/>
   </g>
   <g id="patch_148">
    <path d="M 294.415569 273.312 
L 296.028319 273.312 
L 296.028319 113.206844 
L 294.415569 113.206844 
z
" clip-path="url(#p4b8b9b41a4)" style="fill: #1f77b4"/>
   </g>
   <g id="patch_149">
    <path d="M 296.028319 273.312 
L 297.641068 273.312 
L 297.641068 94.539875 
L 296.028319 94.539875 
z
" clip-path="url(#p4b8b9b41a4)" style="fill: #1f77b4"/>
   </g>
   <g id="patch_150">
    <path d="M 297.641068 273.312 
L 299.253818 273.312 
L 299.253818 107.463161 
L 297.641068 107.463161 
z
" clip-path="url(#p4b8b9b41a4)" style="fill: #1f77b4"/>
   </g>
   <g id="patch_151">
    <path d="M 299.253818 273.312 
L 300.866567 273.312 
L 300.866567 103.155399 
L 299.253818 103.155399 
z
" clip-path="url(#p4b8b9b41a4)" style="fill: #1f77b4"/>
   </g>
   <g id="patch_152">
    <path d="M 300.866567 273.312 
L 302.479316 273.312 
L 302.479316 106.745201 
L 300.866567 106.745201 
z
" clip-path="url(#p4b8b9b41a4)" style="fill: #1f77b4"/>
   </g>
   <g id="patch_153">
    <path d="M 302.479316 273.312 
L 304.092066 273.312 
L 304.092066 103.87336 
L 302.479316 103.87336 
z
" clip-path="url(#p4b8b9b41a4)" style="fill: #1f77b4"/>
   </g>
   <g id="patch_154">
    <path d="M 304.092066 273.312 
L 305.704815 273.312 
L 305.704815 123.976249 
L 304.092066 123.976249 
z
" clip-path="url(#p4b8b9b41a4)" style="fill: #1f77b4"/>
   </g>
   <g id="patch_155">
    <path d="M 305.704815 273.312 
L 307.317565 273.312 
L 307.317565 136.181575 
L 305.704815 136.181575 
z
" clip-path="url(#p4b8b9b41a4)" style="fill: #1f77b4"/>
   </g>
   <g id="patch_156">
    <path d="M 307.317565 273.312 
L 308.930314 273.312 
L 308.930314 104.59132 
L 307.317565 104.59132 
z
" clip-path="url(#p4b8b9b41a4)" style="fill: #1f77b4"/>
   </g>
   <g id="patch_157">
    <path d="M 308.930314 273.312 
L 310.543063 273.312 
L 310.543063 129.001972 
L 308.930314 129.001972 
z
" clip-path="url(#p4b8b9b41a4)" style="fill: #1f77b4"/>
   </g>
   <g id="patch_158">
    <path d="M 310.543063 273.312 
L 312.155813 273.312 
L 312.155813 122.540329 
L 310.543063 122.540329 
z
" clip-path="url(#p4b8b9b41a4)" style="fill: #1f77b4"/>
   </g>
   <g id="patch_159">
    <path d="M 312.155813 273.312 
L 313.768562 273.312 
L 313.768562 129.719932 
L 312.155813 129.719932 
z
" clip-path="url(#p4b8b9b41a4)" style="fill: #1f77b4"/>
   </g>
   <g id="patch_160">
    <path d="M 313.768562 273.312 
L 315.381312 273.312 
L 315.381312 131.155853 
L 313.768562 131.155853 
z
" clip-path="url(#p4b8b9b41a4)" style="fill: #1f77b4"/>
   </g>
   <g id="patch_161">
    <path d="M 315.381312 273.312 
L 316.994061 273.312 
L 316.994061 139.771377 
L 315.381312 139.771377 
z
" clip-path="url(#p4b8b9b41a4)" style="fill: #1f77b4"/>
   </g>
   <g id="patch_162">
    <path d="M 316.994061 273.312 
L 318.60681 273.312 
L 318.60681 148.386901 
L 316.994061 148.386901 
z
" clip-path="url(#p4b8b9b41a4)" style="fill: #1f77b4"/>
   </g>
   <g id="patch_163">
    <path d="M 318.60681 273.312 
L 320.21956 273.312 
L 320.21956 122.540329 
L 318.60681 122.540329 
z
" clip-path="url(#p4b8b9b41a4)" style="fill: #1f77b4"/>
   </g>
   <g id="patch_164">
    <path d="M 320.21956 273.312 
L 321.832309 273.312 
L 321.832309 137.617496 
L 320.21956 137.617496 
z
" clip-path="url(#p4b8b9b41a4)" style="fill: #1f77b4"/>
   </g>
   <g id="patch_165">
    <path d="M 321.832309 273.312 
L 323.445059 273.312 
L 323.445059 139.771377 
L 321.832309 139.771377 
z
" clip-path="url(#p4b8b9b41a4)" style="fill: #1f77b4"/>
   </g>
   <g id="patch_166">
    <path d="M 323.445059 273.312 
L 325.057808 273.312 
L 325.057808 160.592227 
L 323.445059 160.592227 
z
" clip-path="url(#p4b8b9b41a4)" style="fill: #1f77b4"/>
   </g>
   <g id="patch_167">
    <path d="M 325.057808 273.312 
L 326.670557 273.312 
L 326.670557 140.489337 
L 325.057808 140.489337 
z
" clip-path="url(#p4b8b9b41a4)" style="fill: #1f77b4"/>
   </g>
   <g id="patch_168">
    <path d="M 326.670557 273.312 
L 328.283307 273.312 
L 328.283307 167.05387 
L 326.670557 167.05387 
z
" clip-path="url(#p4b8b9b41a4)" style="fill: #1f77b4"/>
   </g>
   <g id="patch_169">
    <path d="M 328.283307 273.312 
L 329.896056 273.312 
L 329.896056 167.77183 
L 328.283307 167.77183 
z
" clip-path="url(#p4b8b9b41a4)" style="fill: #1f77b4"/>
   </g>
   <g id="patch_170">
    <path d="M 329.896056 273.312 
L 331.508806 273.312 
L 331.508806 169.925711 
L 329.896056 169.925711 
z
" clip-path="url(#p4b8b9b41a4)" style="fill: #1f77b4"/>
   </g>
   <g id="patch_171">
    <path d="M 331.508806 273.312 
L 333.121555 273.312 
L 333.121555 161.310187 
L 331.508806 161.310187 
z
" clip-path="url(#p4b8b9b41a4)" style="fill: #1f77b4"/>
   </g>
   <g id="patch_172">
    <path d="M 333.121555 273.312 
L 334.734304 273.312 
L 334.734304 162.746108 
L 333.121555 162.746108 
z
" clip-path="url(#p4b8b9b41a4)" style="fill: #1f77b4"/>
   </g>
   <g id="patch_173">
    <path d="M 334.734304 273.312 
L 336.347054 273.312 
L 336.347054 179.259195 
L 334.734304 179.259195 
z
" clip-path="url(#p4b8b9b41a4)" style="fill: #1f77b4"/>
   </g>
   <g id="patch_174">
    <path d="M 336.347054 273.312 
L 337.959803 273.312 
L 337.959803 169.925711 
L 336.347054 169.925711 
z
" clip-path="url(#p4b8b9b41a4)" style="fill: #1f77b4"/>
   </g>
   <g id="patch_175">
    <path d="M 337.959803 273.312 
L 339.572553 273.312 
L 339.572553 176.387354 
L 337.959803 176.387354 
z
" clip-path="url(#p4b8b9b41a4)" style="fill: #1f77b4"/>
   </g>
   <g id="patch_176">
    <path d="M 339.572553 273.312 
L 341.185302 273.312 
L 341.185302 171.361632 
L 339.572553 171.361632 
z
" clip-path="url(#p4b8b9b41a4)" style="fill: #1f77b4"/>
   </g>
   <g id="patch_177">
    <path d="M 341.185302 273.312 
L 342.798051 273.312 
L 342.798051 172.797552 
L 341.185302 172.797552 
z
" clip-path="url(#p4b8b9b41a4)" style="fill: #1f77b4"/>
   </g>
   <g id="patch_178">
    <path d="M 342.798051 273.312 
L 344.410801 273.312 
L 344.410801 174.951433 
L 342.798051 174.951433 
z
" clip-path="url(#p4b8b9b41a4)" style="fill: #1f77b4"/>
   </g>
   <g id="patch_179">
    <path d="M 344.410801 273.312 
L 346.02355 273.312 
L 346.02355 193.618402 
L 344.410801 193.618402 
z
" clip-path="url(#p4b8b9b41a4)" style="fill: #1f77b4"/>
   </g>
   <g id="patch_180">
    <path d="M 346.02355 273.312 
L 347.6363 273.312 
L 347.6363 196.490244 
L 346.02355 196.490244 
z
" clip-path="url(#p4b8b9b41a4)" style="fill: #1f77b4"/>
   </g>
   <g id="patch_181">
    <path d="M 347.6363 273.312 
L 349.249049 273.312 
L 349.249049 197.208204 
L 347.6363 197.208204 
z
" clip-path="url(#p4b8b9b41a4)" style="fill: #1f77b4"/>
   </g>
   <g id="patch_182">
    <path d="M 349.249049 273.312 
L 350.861798 273.312 
L 350.861798 211.567411 
L 349.249049 211.567411 
z
" clip-path="url(#p4b8b9b41a4)" style="fill: #1f77b4"/>
   </g>
   <g id="patch_183">
    <path d="M 350.861798 273.312 
L 352.474548 273.312 
L 352.474548 189.31064 
L 350.861798 189.31064 
z
" clip-path="url(#p4b8b9b41a4)" style="fill: #1f77b4"/>
   </g>
   <g id="patch_184">
    <path d="M 352.474548 273.312 
L 354.087297 273.312 
L 354.087297 194.336363 
L 352.474548 194.336363 
z
" clip-path="url(#p4b8b9b41a4)" style="fill: #1f77b4"/>
   </g>
   <g id="patch_185">
    <path d="M 354.087297 273.312 
L 355.700047 273.312 
L 355.700047 217.311093 
L 354.087297 217.311093 
z
" clip-path="url(#p4b8b9b41a4)" style="fill: #1f77b4"/>
   </g>
   <g id="patch_186">
    <path d="M 355.700047 273.312 
L 357.312796 273.312 
L 357.312796 215.875173 
L 355.700047 215.875173 
z
" clip-path="url(#p4b8b9b41a4)" style="fill: #1f77b4"/>
   </g>
   <g id="patch_187">
    <path d="M 357.312796 273.312 
L 358.925545 273.312 
L 358.925545 211.567411 
L 357.312796 211.567411 
z
" clip-path="url(#p4b8b9b41a4)" style="fill: #1f77b4"/>
   </g>
   <g id="patch_188">
    <path d="M 358.925545 273.312 
L 360.538295 273.312 
L 360.538295 224.490697 
L 358.925545 224.490697 
z
" clip-path="url(#p4b8b9b41a4)" style="fill: #1f77b4"/>
   </g>
   <g id="patch_189">
    <path d="M 360.538295 273.312 
L 362.151044 273.312 
L 362.151044 223.772737 
L 360.538295 223.772737 
z
" clip-path="url(#p4b8b9b41a4)" style="fill: #1f77b4"/>
   </g>
   <g id="patch_190">
    <path d="M 362.151044 273.312 
L 363.763794 273.312 
L 363.763794 223.772737 
L 362.151044 223.772737 
z
" clip-path="url(#p4b8b9b41a4)" style="fill: #1f77b4"/>
   </g>
   <g id="patch_191">
    <path d="M 363.763794 273.312 
L 365.376543 273.312 
L 365.376543 224.490697 
L 363.763794 224.490697 
z
" clip-path="url(#p4b8b9b41a4)" style="fill: #1f77b4"/>
   </g>
   <g id="patch_192">
    <path d="M 365.376543 273.312 
L 366.989292 273.312 
L 366.989292 231.6703 
L 365.376543 231.6703 
z
" clip-path="url(#p4b8b9b41a4)" style="fill: #1f77b4"/>
   </g>
   <g id="patch_193">
    <path d="M 366.989292 273.312 
L 368.602042 273.312 
L 368.602042 236.696023 
L 366.989292 236.696023 
z
" clip-path="url(#p4b8b9b41a4)" style="fill: #1f77b4"/>
   </g>
   <g id="patch_194">
    <path d="M 368.602042 273.312 
L 370.214791 273.312 
L 370.214791 236.696023 
L 368.602042 236.696023 
z
" clip-path="url(#p4b8b9b41a4)" style="fill: #1f77b4"/>
   </g>
   <g id="patch_195">
    <path d="M 370.214791 273.312 
L 371.827541 273.312 
L 371.827541 241.721745 
L 370.214791 241.721745 
z
" clip-path="url(#p4b8b9b41a4)" style="fill: #1f77b4"/>
   </g>
   <g id="patch_196">
    <path d="M 371.827541 273.312 
L 373.44029 273.312 
L 373.44029 247.465428 
L 371.827541 247.465428 
z
" clip-path="url(#p4b8b9b41a4)" style="fill: #1f77b4"/>
   </g>
   <g id="patch_197">
    <path d="M 373.44029 273.312 
L 375.053039 273.312 
L 375.053039 247.465428 
L 373.44029 247.465428 
z
" clip-path="url(#p4b8b9b41a4)" style="fill: #1f77b4"/>
   </g>
   <g id="patch_198">
    <path d="M 375.053039 273.312 
L 376.665789 273.312 
L 376.665789 251.055229 
L 375.053039 251.055229 
z
" clip-path="url(#p4b8b9b41a4)" style="fill: #1f77b4"/>
   </g>
   <g id="patch_199">
    <path d="M 376.665789 273.312 
L 378.278538 273.312 
L 378.278538 256.080952 
L 376.665789 256.080952 
z
" clip-path="url(#p4b8b9b41a4)" style="fill: #1f77b4"/>
   </g>
   <g id="patch_200">
    <path d="M 378.278538 273.312 
L 379.891288 273.312 
L 379.891288 258.952793 
L 378.278538 258.952793 
z
" clip-path="url(#p4b8b9b41a4)" style="fill: #1f77b4"/>
   </g>
   <g id="patch_201">
    <path d="M 379.891288 273.312 
L 381.504037 273.312 
L 381.504037 268.286278 
L 379.891288 268.286278 
z
" clip-path="url(#p4b8b9b41a4)" style="fill: #1f77b4"/>
   </g>
   <g id="patch_202">
    <path d="M 381.504037 273.312 
L 383.116787 273.312 
L 383.116787 264.696476 
L 381.504037 264.696476 
z
" clip-path="url(#p4b8b9b41a4)" style="fill: #1f77b4"/>
   </g>
   <g id="matplotlib.axis_1">
    <g id="xtick_1">
     <g id="line2d_1">
      <defs>
       <path id="m32c0d00127" d="M 0 0 
L 0 3.5 
" style="stroke: #000000; stroke-width: 0.8"/>
      </defs>
      <g>
       <use xlink:href="#m32c0d00127" x="60.013977" y="273.312" style="stroke: #000000; stroke-width: 0.8"/>
      </g>
     </g>
     <g id="text_1">
      <!-- 0.0 -->
      <g transform="translate(52.062415 287.910437)scale(0.1 -0.1)">
       <defs>
        <path id="DejaVuSans-30" d="M 2034 4250 
Q 1547 4250 1301 3770 
Q 1056 3291 1056 2328 
Q 1056 1369 1301 889 
Q 1547 409 2034 409 
Q 2525 409 2770 889 
Q 3016 1369 3016 2328 
Q 3016 3291 2770 3770 
Q 2525 4250 2034 4250 
z
M 2034 4750 
Q 2819 4750 3233 4129 
Q 3647 3509 3647 2328 
Q 3647 1150 3233 529 
Q 2819 -91 2034 -91 
Q 1250 -91 836 529 
Q 422 1150 422 2328 
Q 422 3509 836 4129 
Q 1250 4750 2034 4750 
z
" transform="scale(0.015625)"/>
        <path id="DejaVuSans-2e" d="M 684 794 
L 1344 794 
L 1344 0 
L 684 0 
L 684 794 
z
" transform="scale(0.015625)"/>
       </defs>
       <use xlink:href="#DejaVuSans-30"/>
       <use xlink:href="#DejaVuSans-2e" x="63.623047"/>
       <use xlink:href="#DejaVuSans-30" x="95.410156"/>
      </g>
     </g>
    </g>
    <g id="xtick_2">
     <g id="line2d_2">
      <g>
       <use xlink:href="#m32c0d00127" x="101.350278" y="273.312" style="stroke: #000000; stroke-width: 0.8"/>
      </g>
     </g>
     <g id="text_2">
      <!-- 0.2 -->
      <g transform="translate(93.398715 287.910437)scale(0.1 -0.1)">
       <defs>
        <path id="DejaVuSans-32" d="M 1228 531 
L 3431 531 
L 3431 0 
L 469 0 
L 469 531 
Q 828 903 1448 1529 
Q 2069 2156 2228 2338 
Q 2531 2678 2651 2914 
Q 2772 3150 2772 3378 
Q 2772 3750 2511 3984 
Q 2250 4219 1831 4219 
Q 1534 4219 1204 4116 
Q 875 4013 500 3803 
L 500 4441 
Q 881 4594 1212 4672 
Q 1544 4750 1819 4750 
Q 2544 4750 2975 4387 
Q 3406 4025 3406 3419 
Q 3406 3131 3298 2873 
Q 3191 2616 2906 2266 
Q 2828 2175 2409 1742 
Q 1991 1309 1228 531 
z
" transform="scale(0.015625)"/>
       </defs>
       <use xlink:href="#DejaVuSans-30"/>
       <use xlink:href="#DejaVuSans-2e" x="63.623047"/>
       <use xlink:href="#DejaVuSans-32" x="95.410156"/>
      </g>
     </g>
    </g>
    <g id="xtick_3">
     <g id="line2d_3">
      <g>
       <use xlink:href="#m32c0d00127" x="142.686578" y="273.312" style="stroke: #000000; stroke-width: 0.8"/>
      </g>
     </g>
     <g id="text_3">
      <!-- 0.4 -->
      <g transform="translate(134.735016 287.910437)scale(0.1 -0.1)">
       <defs>
        <path id="DejaVuSans-34" d="M 2419 4116 
L 825 1625 
L 2419 1625 
L 2419 4116 
z
M 2253 4666 
L 3047 4666 
L 3047 1625 
L 3713 1625 
L 3713 1100 
L 3047 1100 
L 3047 0 
L 2419 0 
L 2419 1100 
L 313 1100 
L 313 1709 
L 2253 4666 
z
" transform="scale(0.015625)"/>
       </defs>
       <use xlink:href="#DejaVuSans-30"/>
       <use xlink:href="#DejaVuSans-2e" x="63.623047"/>
       <use xlink:href="#DejaVuSans-34" x="95.410156"/>
      </g>
     </g>
    </g>
    <g id="xtick_4">
     <g id="line2d_4">
      <g>
       <use xlink:href="#m32c0d00127" x="184.022879" y="273.312" style="stroke: #000000; stroke-width: 0.8"/>
      </g>
     </g>
     <g id="text_4">
      <!-- 0.6 -->
      <g transform="translate(176.071316 287.910437)scale(0.1 -0.1)">
       <defs>
        <path id="DejaVuSans-36" d="M 2113 2584 
Q 1688 2584 1439 2293 
Q 1191 2003 1191 1497 
Q 1191 994 1439 701 
Q 1688 409 2113 409 
Q 2538 409 2786 701 
Q 3034 994 3034 1497 
Q 3034 2003 2786 2293 
Q 2538 2584 2113 2584 
z
M 3366 4563 
L 3366 3988 
Q 3128 4100 2886 4159 
Q 2644 4219 2406 4219 
Q 1781 4219 1451 3797 
Q 1122 3375 1075 2522 
Q 1259 2794 1537 2939 
Q 1816 3084 2150 3084 
Q 2853 3084 3261 2657 
Q 3669 2231 3669 1497 
Q 3669 778 3244 343 
Q 2819 -91 2113 -91 
Q 1303 -91 875 529 
Q 447 1150 447 2328 
Q 447 3434 972 4092 
Q 1497 4750 2381 4750 
Q 2619 4750 2861 4703 
Q 3103 4656 3366 4563 
z
" transform="scale(0.015625)"/>
       </defs>
       <use xlink:href="#DejaVuSans-30"/>
       <use xlink:href="#DejaVuSans-2e" x="63.623047"/>
       <use xlink:href="#DejaVuSans-36" x="95.410156"/>
      </g>
     </g>
    </g>
    <g id="xtick_5">
     <g id="line2d_5">
      <g>
       <use xlink:href="#m32c0d00127" x="225.35918" y="273.312" style="stroke: #000000; stroke-width: 0.8"/>
      </g>
     </g>
     <g id="text_5">
      <!-- 0.8 -->
      <g transform="translate(217.407617 287.910437)scale(0.1 -0.1)">
       <defs>
        <path id="DejaVuSans-38" d="M 2034 2216 
Q 1584 2216 1326 1975 
Q 1069 1734 1069 1313 
Q 1069 891 1326 650 
Q 1584 409 2034 409 
Q 2484 409 2743 651 
Q 3003 894 3003 1313 
Q 3003 1734 2745 1975 
Q 2488 2216 2034 2216 
z
M 1403 2484 
Q 997 2584 770 2862 
Q 544 3141 544 3541 
Q 544 4100 942 4425 
Q 1341 4750 2034 4750 
Q 2731 4750 3128 4425 
Q 3525 4100 3525 3541 
Q 3525 3141 3298 2862 
Q 3072 2584 2669 2484 
Q 3125 2378 3379 2068 
Q 3634 1759 3634 1313 
Q 3634 634 3220 271 
Q 2806 -91 2034 -91 
Q 1263 -91 848 271 
Q 434 634 434 1313 
Q 434 1759 690 2068 
Q 947 2378 1403 2484 
z
M 1172 3481 
Q 1172 3119 1398 2916 
Q 1625 2713 2034 2713 
Q 2441 2713 2670 2916 
Q 2900 3119 2900 3481 
Q 2900 3844 2670 4047 
Q 2441 4250 2034 4250 
Q 1625 4250 1398 4047 
Q 1172 3844 1172 3481 
z
" transform="scale(0.015625)"/>
       </defs>
       <use xlink:href="#DejaVuSans-30"/>
       <use xlink:href="#DejaVuSans-2e" x="63.623047"/>
       <use xlink:href="#DejaVuSans-38" x="95.410156"/>
      </g>
     </g>
    </g>
    <g id="xtick_6">
     <g id="line2d_6">
      <g>
       <use xlink:href="#m32c0d00127" x="266.69548" y="273.312" style="stroke: #000000; stroke-width: 0.8"/>
      </g>
     </g>
     <g id="text_6">
      <!-- 1.0 -->
      <g transform="translate(258.743918 287.910437)scale(0.1 -0.1)">
       <defs>
        <path id="DejaVuSans-31" d="M 794 531 
L 1825 531 
L 1825 4091 
L 703 3866 
L 703 4441 
L 1819 4666 
L 2450 4666 
L 2450 531 
L 3481 531 
L 3481 0 
L 794 0 
L 794 531 
z
" transform="scale(0.015625)"/>
       </defs>
       <use xlink:href="#DejaVuSans-31"/>
       <use xlink:href="#DejaVuSans-2e" x="63.623047"/>
       <use xlink:href="#DejaVuSans-30" x="95.410156"/>
      </g>
     </g>
    </g>
    <g id="xtick_7">
     <g id="line2d_7">
      <g>
       <use xlink:href="#m32c0d00127" x="308.031781" y="273.312" style="stroke: #000000; stroke-width: 0.8"/>
      </g>
     </g>
     <g id="text_7">
      <!-- 1.2 -->
      <g transform="translate(300.080218 287.910437)scale(0.1 -0.1)">
       <use xlink:href="#DejaVuSans-31"/>
       <use xlink:href="#DejaVuSans-2e" x="63.623047"/>
       <use xlink:href="#DejaVuSans-32" x="95.410156"/>
      </g>
     </g>
    </g>
    <g id="xtick_8">
     <g id="line2d_8">
      <g>
       <use xlink:href="#m32c0d00127" x="349.368081" y="273.312" style="stroke: #000000; stroke-width: 0.8"/>
      </g>
     </g>
     <g id="text_8">
      <!-- 1.4 -->
      <g transform="translate(341.416519 287.910437)scale(0.1 -0.1)">
       <use xlink:href="#DejaVuSans-31"/>
       <use xlink:href="#DejaVuSans-2e" x="63.623047"/>
       <use xlink:href="#DejaVuSans-34" x="95.410156"/>
      </g>
     </g>
    </g>
    <g id="xtick_9">
     <g id="line2d_9">
      <g>
       <use xlink:href="#m32c0d00127" x="390.704382" y="273.312" style="stroke: #000000; stroke-width: 0.8"/>
      </g>
     </g>
     <g id="text_9">
      <!-- 1.6 -->
      <g transform="translate(382.752819 287.910437)scale(0.1 -0.1)">
       <use xlink:href="#DejaVuSans-31"/>
       <use xlink:href="#DejaVuSans-2e" x="63.623047"/>
       <use xlink:href="#DejaVuSans-36" x="95.410156"/>
      </g>
     </g>
    </g>
    <g id="text_10">
     <!-- Angle with normal (rad) -->
     <g transform="translate(163.023281 301.588562)scale(0.1 -0.1)">
      <defs>
       <path id="DejaVuSans-41" d="M 2188 4044 
L 1331 1722 
L 3047 1722 
L 2188 4044 
z
M 1831 4666 
L 2547 4666 
L 4325 0 
L 3669 0 
L 3244 1197 
L 1141 1197 
L 716 0 
L 50 0 
L 1831 4666 
z
" transform="scale(0.015625)"/>
       <path id="DejaVuSans-6e" d="M 3513 2113 
L 3513 0 
L 2938 0 
L 2938 2094 
Q 2938 2591 2744 2837 
Q 2550 3084 2163 3084 
Q 1697 3084 1428 2787 
Q 1159 2491 1159 1978 
L 1159 0 
L 581 0 
L 581 3500 
L 1159 3500 
L 1159 2956 
Q 1366 3272 1645 3428 
Q 1925 3584 2291 3584 
Q 2894 3584 3203 3211 
Q 3513 2838 3513 2113 
z
" transform="scale(0.015625)"/>
       <path id="DejaVuSans-67" d="M 2906 1791 
Q 2906 2416 2648 2759 
Q 2391 3103 1925 3103 
Q 1463 3103 1205 2759 
Q 947 2416 947 1791 
Q 947 1169 1205 825 
Q 1463 481 1925 481 
Q 2391 481 2648 825 
Q 2906 1169 2906 1791 
z
M 3481 434 
Q 3481 -459 3084 -895 
Q 2688 -1331 1869 -1331 
Q 1566 -1331 1297 -1286 
Q 1028 -1241 775 -1147 
L 775 -588 
Q 1028 -725 1275 -790 
Q 1522 -856 1778 -856 
Q 2344 -856 2625 -561 
Q 2906 -266 2906 331 
L 2906 616 
Q 2728 306 2450 153 
Q 2172 0 1784 0 
Q 1141 0 747 490 
Q 353 981 353 1791 
Q 353 2603 747 3093 
Q 1141 3584 1784 3584 
Q 2172 3584 2450 3431 
Q 2728 3278 2906 2969 
L 2906 3500 
L 3481 3500 
L 3481 434 
z
" transform="scale(0.015625)"/>
       <path id="DejaVuSans-6c" d="M 603 4863 
L 1178 4863 
L 1178 0 
L 603 0 
L 603 4863 
z
" transform="scale(0.015625)"/>
       <path id="DejaVuSans-65" d="M 3597 1894 
L 3597 1613 
L 953 1613 
Q 991 1019 1311 708 
Q 1631 397 2203 397 
Q 2534 397 2845 478 
Q 3156 559 3463 722 
L 3463 178 
Q 3153 47 2828 -22 
Q 2503 -91 2169 -91 
Q 1331 -91 842 396 
Q 353 884 353 1716 
Q 353 2575 817 3079 
Q 1281 3584 2069 3584 
Q 2775 3584 3186 3129 
Q 3597 2675 3597 1894 
z
M 3022 2063 
Q 3016 2534 2758 2815 
Q 2500 3097 2075 3097 
Q 1594 3097 1305 2825 
Q 1016 2553 972 2059 
L 3022 2063 
z
" transform="scale(0.015625)"/>
       <path id="DejaVuSans-20" transform="scale(0.015625)"/>
       <path id="DejaVuSans-77" d="M 269 3500 
L 844 3500 
L 1563 769 
L 2278 3500 
L 2956 3500 
L 3675 769 
L 4391 3500 
L 4966 3500 
L 4050 0 
L 3372 0 
L 2619 2869 
L 1863 0 
L 1184 0 
L 269 3500 
z
" transform="scale(0.015625)"/>
       <path id="DejaVuSans-69" d="M 603 3500 
L 1178 3500 
L 1178 0 
L 603 0 
L 603 3500 
z
M 603 4863 
L 1178 4863 
L 1178 4134 
L 603 4134 
L 603 4863 
z
" transform="scale(0.015625)"/>
       <path id="DejaVuSans-74" d="M 1172 4494 
L 1172 3500 
L 2356 3500 
L 2356 3053 
L 1172 3053 
L 1172 1153 
Q 1172 725 1289 603 
Q 1406 481 1766 481 
L 2356 481 
L 2356 0 
L 1766 0 
Q 1100 0 847 248 
Q 594 497 594 1153 
L 594 3053 
L 172 3053 
L 172 3500 
L 594 3500 
L 594 4494 
L 1172 4494 
z
" transform="scale(0.015625)"/>
       <path id="DejaVuSans-68" d="M 3513 2113 
L 3513 0 
L 2938 0 
L 2938 2094 
Q 2938 2591 2744 2837 
Q 2550 3084 2163 3084 
Q 1697 3084 1428 2787 
Q 1159 2491 1159 1978 
L 1159 0 
L 581 0 
L 581 4863 
L 1159 4863 
L 1159 2956 
Q 1366 3272 1645 3428 
Q 1925 3584 2291 3584 
Q 2894 3584 3203 3211 
Q 3513 2838 3513 2113 
z
" transform="scale(0.015625)"/>
       <path id="DejaVuSans-6f" d="M 1959 3097 
Q 1497 3097 1228 2736 
Q 959 2375 959 1747 
Q 959 1119 1226 758 
Q 1494 397 1959 397 
Q 2419 397 2687 759 
Q 2956 1122 2956 1747 
Q 2956 2369 2687 2733 
Q 2419 3097 1959 3097 
z
M 1959 3584 
Q 2709 3584 3137 3096 
Q 3566 2609 3566 1747 
Q 3566 888 3137 398 
Q 2709 -91 1959 -91 
Q 1206 -91 779 398 
Q 353 888 353 1747 
Q 353 2609 779 3096 
Q 1206 3584 1959 3584 
z
" transform="scale(0.015625)"/>
       <path id="DejaVuSans-72" d="M 2631 2963 
Q 2534 3019 2420 3045 
Q 2306 3072 2169 3072 
Q 1681 3072 1420 2755 
Q 1159 2438 1159 1844 
L 1159 0 
L 581 0 
L 581 3500 
L 1159 3500 
L 1159 2956 
Q 1341 3275 1631 3429 
Q 1922 3584 2338 3584 
Q 2397 3584 2469 3576 
Q 2541 3569 2628 3553 
L 2631 2963 
z
" transform="scale(0.015625)"/>
       <path id="DejaVuSans-6d" d="M 3328 2828 
Q 3544 3216 3844 3400 
Q 4144 3584 4550 3584 
Q 5097 3584 5394 3201 
Q 5691 2819 5691 2113 
L 5691 0 
L 5113 0 
L 5113 2094 
Q 5113 2597 4934 2840 
Q 4756 3084 4391 3084 
Q 3944 3084 3684 2787 
Q 3425 2491 3425 1978 
L 3425 0 
L 2847 0 
L 2847 2094 
Q 2847 2600 2669 2842 
Q 2491 3084 2119 3084 
Q 1678 3084 1418 2786 
Q 1159 2488 1159 1978 
L 1159 0 
L 581 0 
L 581 3500 
L 1159 3500 
L 1159 2956 
Q 1356 3278 1631 3431 
Q 1906 3584 2284 3584 
Q 2666 3584 2933 3390 
Q 3200 3197 3328 2828 
z
" transform="scale(0.015625)"/>
       <path id="DejaVuSans-61" d="M 2194 1759 
Q 1497 1759 1228 1600 
Q 959 1441 959 1056 
Q 959 750 1161 570 
Q 1363 391 1709 391 
Q 2188 391 2477 730 
Q 2766 1069 2766 1631 
L 2766 1759 
L 2194 1759 
z
M 3341 1997 
L 3341 0 
L 2766 0 
L 2766 531 
Q 2569 213 2275 61 
Q 1981 -91 1556 -91 
Q 1019 -91 701 211 
Q 384 513 384 1019 
Q 384 1609 779 1909 
Q 1175 2209 1959 2209 
L 2766 2209 
L 2766 2266 
Q 2766 2663 2505 2880 
Q 2244 3097 1772 3097 
Q 1472 3097 1187 3025 
Q 903 2953 641 2809 
L 641 3341 
Q 956 3463 1253 3523 
Q 1550 3584 1831 3584 
Q 2591 3584 2966 3190 
Q 3341 2797 3341 1997 
z
" transform="scale(0.015625)"/>
       <path id="DejaVuSans-28" d="M 1984 4856 
Q 1566 4138 1362 3434 
Q 1159 2731 1159 2009 
Q 1159 1288 1364 580 
Q 1569 -128 1984 -844 
L 1484 -844 
Q 1016 -109 783 600 
Q 550 1309 550 2009 
Q 550 2706 781 3412 
Q 1013 4119 1484 4856 
L 1984 4856 
z
" transform="scale(0.015625)"/>
       <path id="DejaVuSans-64" d="M 2906 2969 
L 2906 4863 
L 3481 4863 
L 3481 0 
L 2906 0 
L 2906 525 
Q 2725 213 2448 61 
Q 2172 -91 1784 -91 
Q 1150 -91 751 415 
Q 353 922 353 1747 
Q 353 2572 751 3078 
Q 1150 3584 1784 3584 
Q 2172 3584 2448 3432 
Q 2725 3281 2906 2969 
z
M 947 1747 
Q 947 1113 1208 752 
Q 1469 391 1925 391 
Q 2381 391 2643 752 
Q 2906 1113 2906 1747 
Q 2906 2381 2643 2742 
Q 2381 3103 1925 3103 
Q 1469 3103 1208 2742 
Q 947 2381 947 1747 
z
" transform="scale(0.015625)"/>
       <path id="DejaVuSans-29" d="M 513 4856 
L 1013 4856 
Q 1481 4119 1714 3412 
Q 1947 2706 1947 2009 
Q 1947 1309 1714 600 
Q 1481 -109 1013 -844 
L 513 -844 
Q 928 -128 1133 580 
Q 1338 1288 1338 2009 
Q 1338 2731 1133 3434 
Q 928 4138 513 4856 
z
" transform="scale(0.015625)"/>
      </defs>
      <use xlink:href="#DejaVuSans-41"/>
      <use xlink:href="#DejaVuSans-6e" x="68.408203"/>
      <use xlink:href="#DejaVuSans-67" x="131.787109"/>
      <use xlink:href="#DejaVuSans-6c" x="195.263672"/>
      <use xlink:href="#DejaVuSans-65" x="223.046875"/>
      <use xlink:href="#DejaVuSans-20" x="284.570312"/>
      <use xlink:href="#DejaVuSans-77" x="316.357422"/>
      <use xlink:href="#DejaVuSans-69" x="398.144531"/>
      <use xlink:href="#DejaVuSans-74" x="425.927734"/>
      <use xlink:href="#DejaVuSans-68" x="465.136719"/>
      <use xlink:href="#DejaVuSans-20" x="528.515625"/>
      <use xlink:href="#DejaVuSans-6e" x="560.302734"/>
      <use xlink:href="#DejaVuSans-6f" x="623.681641"/>
      <use xlink:href="#DejaVuSans-72" x="684.863281"/>
      <use xlink:href="#DejaVuSans-6d" x="724.226562"/>
      <use xlink:href="#DejaVuSans-61" x="821.638672"/>
      <use xlink:href="#DejaVuSans-6c" x="882.917969"/>
      <use xlink:href="#DejaVuSans-20" x="910.701172"/>
      <use xlink:href="#DejaVuSans-28" x="942.488281"/>
      <use xlink:href="#DejaVuSans-72" x="981.501953"/>
      <use xlink:href="#DejaVuSans-61" x="1022.615234"/>
      <use xlink:href="#DejaVuSans-64" x="1083.894531"/>
      <use xlink:href="#DejaVuSans-29" x="1147.371094"/>
     </g>
    </g>
   </g>
   <g id="matplotlib.axis_2">
    <g id="ytick_1">
     <g id="line2d_10">
      <defs>
       <path id="m709a7bb2a6" d="M 0 0 
L -3.5 0 
" style="stroke: #000000; stroke-width: 0.8"/>
      </defs>
      <g>
       <use xlink:href="#m709a7bb2a6" x="43.78125" y="273.312" style="stroke: #000000; stroke-width: 0.8"/>
      </g>
     </g>
     <g id="text_11">
      <!-- 0.0 -->
      <g transform="translate(20.878125 277.111219)scale(0.1 -0.1)">
       <use xlink:href="#DejaVuSans-30"/>
       <use xlink:href="#DejaVuSans-2e" x="63.623047"/>
       <use xlink:href="#DejaVuSans-30" x="95.410156"/>
      </g>
     </g>
    </g>
    <g id="ytick_2">
     <g id="line2d_11">
      <g>
       <use xlink:href="#m709a7bb2a6" x="43.78125" y="228.493665" style="stroke: #000000; stroke-width: 0.8"/>
      </g>
     </g>
     <g id="text_12">
      <!-- 0.2 -->
      <g transform="translate(20.878125 232.292884)scale(0.1 -0.1)">
       <use xlink:href="#DejaVuSans-30"/>
       <use xlink:href="#DejaVuSans-2e" x="63.623047"/>
       <use xlink:href="#DejaVuSans-32" x="95.410156"/>
      </g>
     </g>
    </g>
    <g id="ytick_3">
     <g id="line2d_12">
      <g>
       <use xlink:href="#m709a7bb2a6" x="43.78125" y="183.67533" style="stroke: #000000; stroke-width: 0.8"/>
      </g>
     </g>
     <g id="text_13">
      <!-- 0.4 -->
      <g transform="translate(20.878125 187.474548)scale(0.1 -0.1)">
       <use xlink:href="#DejaVuSans-30"/>
       <use xlink:href="#DejaVuSans-2e" x="63.623047"/>
       <use xlink:href="#DejaVuSans-34" x="95.410156"/>
      </g>
     </g>
    </g>
    <g id="ytick_4">
     <g id="line2d_13">
      <g>
       <use xlink:href="#m709a7bb2a6" x="43.78125" y="138.856995" style="stroke: #000000; stroke-width: 0.8"/>
      </g>
     </g>
     <g id="text_14">
      <!-- 0.6 -->
      <g transform="translate(20.878125 142.656213)scale(0.1 -0.1)">
       <use xlink:href="#DejaVuSans-30"/>
       <use xlink:href="#DejaVuSans-2e" x="63.623047"/>
       <use xlink:href="#DejaVuSans-36" x="95.410156"/>
      </g>
     </g>
    </g>
    <g id="ytick_5">
     <g id="line2d_14">
      <g>
       <use xlink:href="#m709a7bb2a6" x="43.78125" y="94.038659" style="stroke: #000000; stroke-width: 0.8"/>
      </g>
     </g>
     <g id="text_15">
      <!-- 0.8 -->
      <g transform="translate(20.878125 97.837878)scale(0.1 -0.1)">
       <use xlink:href="#DejaVuSans-30"/>
       <use xlink:href="#DejaVuSans-2e" x="63.623047"/>
       <use xlink:href="#DejaVuSans-38" x="95.410156"/>
      </g>
     </g>
    </g>
    <g id="ytick_6">
     <g id="line2d_15">
      <g>
       <use xlink:href="#m709a7bb2a6" x="43.78125" y="49.220324" style="stroke: #000000; stroke-width: 0.8"/>
      </g>
     </g>
     <g id="text_16">
      <!-- 1.0 -->
      <g transform="translate(20.878125 53.019543)scale(0.1 -0.1)">
       <use xlink:href="#DejaVuSans-31"/>
       <use xlink:href="#DejaVuSans-2e" x="63.623047"/>
       <use xlink:href="#DejaVuSans-30" x="95.410156"/>
      </g>
     </g>
    </g>
    <g id="text_17">
     <!-- Probability density -->
     <g transform="translate(14.798438 186.606781)rotate(-90)scale(0.1 -0.1)">
      <defs>
       <path id="DejaVuSans-50" d="M 1259 4147 
L 1259 2394 
L 2053 2394 
Q 2494 2394 2734 2622 
Q 2975 2850 2975 3272 
Q 2975 3691 2734 3919 
Q 2494 4147 2053 4147 
L 1259 4147 
z
M 628 4666 
L 2053 4666 
Q 2838 4666 3239 4311 
Q 3641 3956 3641 3272 
Q 3641 2581 3239 2228 
Q 2838 1875 2053 1875 
L 1259 1875 
L 1259 0 
L 628 0 
L 628 4666 
z
" transform="scale(0.015625)"/>
       <path id="DejaVuSans-62" d="M 3116 1747 
Q 3116 2381 2855 2742 
Q 2594 3103 2138 3103 
Q 1681 3103 1420 2742 
Q 1159 2381 1159 1747 
Q 1159 1113 1420 752 
Q 1681 391 2138 391 
Q 2594 391 2855 752 
Q 3116 1113 3116 1747 
z
M 1159 2969 
Q 1341 3281 1617 3432 
Q 1894 3584 2278 3584 
Q 2916 3584 3314 3078 
Q 3713 2572 3713 1747 
Q 3713 922 3314 415 
Q 2916 -91 2278 -91 
Q 1894 -91 1617 61 
Q 1341 213 1159 525 
L 1159 0 
L 581 0 
L 581 4863 
L 1159 4863 
L 1159 2969 
z
" transform="scale(0.015625)"/>
       <path id="DejaVuSans-79" d="M 2059 -325 
Q 1816 -950 1584 -1140 
Q 1353 -1331 966 -1331 
L 506 -1331 
L 506 -850 
L 844 -850 
Q 1081 -850 1212 -737 
Q 1344 -625 1503 -206 
L 1606 56 
L 191 3500 
L 800 3500 
L 1894 763 
L 2988 3500 
L 3597 3500 
L 2059 -325 
z
" transform="scale(0.015625)"/>
       <path id="DejaVuSans-73" d="M 2834 3397 
L 2834 2853 
Q 2591 2978 2328 3040 
Q 2066 3103 1784 3103 
Q 1356 3103 1142 2972 
Q 928 2841 928 2578 
Q 928 2378 1081 2264 
Q 1234 2150 1697 2047 
L 1894 2003 
Q 2506 1872 2764 1633 
Q 3022 1394 3022 966 
Q 3022 478 2636 193 
Q 2250 -91 1575 -91 
Q 1294 -91 989 -36 
Q 684 19 347 128 
L 347 722 
Q 666 556 975 473 
Q 1284 391 1588 391 
Q 1994 391 2212 530 
Q 2431 669 2431 922 
Q 2431 1156 2273 1281 
Q 2116 1406 1581 1522 
L 1381 1569 
Q 847 1681 609 1914 
Q 372 2147 372 2553 
Q 372 3047 722 3315 
Q 1072 3584 1716 3584 
Q 2034 3584 2315 3537 
Q 2597 3491 2834 3397 
z
" transform="scale(0.015625)"/>
      </defs>
      <use xlink:href="#DejaVuSans-50"/>
      <use xlink:href="#DejaVuSans-72" x="58.552734"/>
      <use xlink:href="#DejaVuSans-6f" x="97.416016"/>
      <use xlink:href="#DejaVuSans-62" x="158.597656"/>
      <use xlink:href="#DejaVuSans-61" x="222.074219"/>
      <use xlink:href="#DejaVuSans-62" x="283.353516"/>
      <use xlink:href="#DejaVuSans-69" x="346.830078"/>
      <use xlink:href="#DejaVuSans-6c" x="374.613281"/>
      <use xlink:href="#DejaVuSans-69" x="402.396484"/>
      <use xlink:href="#DejaVuSans-74" x="430.179688"/>
      <use xlink:href="#DejaVuSans-79" x="469.388672"/>
      <use xlink:href="#DejaVuSans-20" x="528.568359"/>
      <use xlink:href="#DejaVuSans-64" x="560.355469"/>
      <use xlink:href="#DejaVuSans-65" x="623.832031"/>
      <use xlink:href="#DejaVuSans-6e" x="685.355469"/>
      <use xlink:href="#DejaVuSans-73" x="748.734375"/>
      <use xlink:href="#DejaVuSans-69" x="800.833984"/>
      <use xlink:href="#DejaVuSans-74" x="828.617188"/>
      <use xlink:href="#DejaVuSans-79" x="867.826172"/>
     </g>
    </g>
   </g>
   <g id="line2d_16">
    <path d="M 60.013977 273.312 
L 79.837728 230.587881 
L 90.237073 208.70431 
L 99.01152 190.739731 
L 106.811029 175.266735 
L 113.960578 161.571449 
L 120.460169 149.583446 
L 126.63478 138.647327 
L 132.484411 128.729522 
L 138.009063 119.787445 
L 143.208736 111.771657 
L 148.408408 104.164751 
L 153.283101 97.421762 
L 158.157794 91.070075 
L 162.707507 85.507355 
L 167.257221 80.308601 
L 171.481954 75.815903 
L 175.706688 71.653234 
L 179.606442 68.109722 
L 183.506197 64.858398 
L 187.405951 61.903891 
L 190.980726 59.459939 
L 194.555501 57.27186 
L 198.130275 55.342273 
L 201.70505 53.673484 
L 205.279825 52.267492 
L 208.52962 51.218786 
L 211.779415 50.389698 
L 215.029211 49.781047 
L 218.279006 49.393437 
L 221.528801 49.22725 
L 224.778596 49.28265 
L 228.028392 49.559583 
L 231.278187 50.057775 
L 234.527982 50.776733 
L 237.777777 51.715747 
L 241.027573 52.873887 
L 244.277368 54.250008 
L 247.852143 56.01388 
L 251.426917 58.037749 
L 255.001692 60.319191 
L 258.576467 62.855479 
L 262.476221 65.909413 
L 266.375976 69.258668 
L 270.27573 72.898475 
L 274.500464 77.163458 
L 278.725198 81.756219 
L 282.949931 86.669083 
L 287.499645 92.308418 
L 292.049358 98.298537 
L 296.924051 105.092585 
L 301.798744 112.26087 
L 306.998416 120.30155 
L 312.523068 129.268647 
L 318.3727 139.211264 
L 324.547311 150.171612 
L 331.046901 162.18285 
L 337.871471 175.266735 
L 345.346 190.085016 
L 353.795468 207.356026 
L 363.544854 227.824202 
L 375.894076 254.307698 
L 384.668523 273.312 
L 384.668523 273.312 
" clip-path="url(#p4b8b9b41a4)" style="fill: none; stroke: #ff7f0e; stroke-width: 1.5; stroke-linecap: square"/>
   </g>
   <g id="patch_203">
    <path d="M 43.78125 273.312 
L 43.78125 7.2 
" style="fill: none; stroke: #000000; stroke-width: 0.8; stroke-linejoin: miter; stroke-linecap: square"/>
   </g>
   <g id="patch_204">
    <path d="M 400.90125 273.312 
L 400.90125 7.2 
" style="fill: none; stroke: #000000; stroke-width: 0.8; stroke-linejoin: miter; stroke-linecap: square"/>
   </g>
   <g id="patch_205">
    <path d="M 43.78125 273.312 
L 400.90125 273.312 
" style="fill: none; stroke: #000000; stroke-width: 0.8; stroke-linejoin: miter; stroke-linecap: square"/>
   </g>
   <g id="patch_206">
    <path d="M 43.78125 7.2 
L 400.90125 7.2 
" style="fill: none; stroke: #000000; stroke-width: 0.8; stroke-linejoin: miter; stroke-linecap: square"/>
   </g>
  </g>
 </g>
 <defs>
  <clipPath id="p4b8b9b41a4">
   <rect x="43.78125" y="7.2" width="357.12" height="266.112"/>
  </clipPath>
 </defs>
</svg>
