<?xml version="1.0" encoding="utf-8" standalone="no"?>
<!DOCTYPE svg PUBLIC "-//W3C//DTD SVG 1.1//EN"
  "http://www.w3.org/Graphics/SVG/1.1/DTD/svg11.dtd">
<svg xmlns:xlink="http://www.w3.org/1999/xlink" width="385.78125pt" height="262.19625pt" viewBox="0 0 385.78125 262.19625" xmlns="http://www.w3.org/2000/svg" version="1.1">
 <metadata>
  <rdf:RDF xmlns:dc="http://purl.org/dc/elements/1.1/" xmlns:cc="http://creativecommons.org/ns#" xmlns:rdf="http://www.w3.org/1999/02/22-rdf-syntax-ns#">
   <cc:Work>
    <dc:type rdf:resource="http://purl.org/dc/dcmitype/StillImage"/>
    <dc:date>2022-07-18T19:41:02.285438</dc:date>
    <dc:format>image/svg+xml</dc:format>
    <dc:creator>
     <cc:Agent>
      <dc:title>Matplotlib v3.5.2, https://matplotlib.org/</dc:title>
     </cc:Agent>
    </dc:creator>
   </cc:Work>
  </rdf:RDF>
 </metadata>
 <defs>
  <style type="text/css">*{stroke-linejoin: round; stroke-linecap: butt}</style>
 </defs>
 <g id="figure_1">
  <g id="patch_1">
   <path d="M 0 262.19625 
L 385.78125 262.19625 
L 385.78125 0 
L 0 0 
L 0 262.19625 
z
" style="fill: none"/>
  </g>
  <g id="axes_1">
   <g id="patch_2">
    <path d="M 43.78125 224.64 
L 378.58125 224.64 
L 378.58125 7.2 
L 43.78125 7.2 
z
" style="fill: #ffffff"/>
   </g>
   <g id="patch_3">
    <path d="M 59.470422 224.64 
L 60.989851 224.64 
L 60.989851 223.198568 
L 59.470422 223.198568 
z
" clip-path="url(#p64904a018e)" style="fill: #1f77b4"/>
   </g>
   <g id="patch_4">
    <path d="M 60.989851 224.64 
L 62.50928 224.64 
L 62.50928 222.718091 
L 60.989851 222.718091 
z
" clip-path="url(#p64904a018e)" style="fill: #1f77b4"/>
   </g>
   <g id="patch_5">
    <path d="M 62.50928 224.64 
L 64.028709 224.64 
L 64.028709 222.237614 
L 62.50928 222.237614 
z
" clip-path="url(#p64904a018e)" style="fill: #1f77b4"/>
   </g>
   <g id="patch_6">
    <path d="M 64.028709 224.64 
L 65.548138 224.64 
L 65.548138 221.757136 
L 64.028709 221.757136 
z
" clip-path="url(#p64904a018e)" style="fill: #1f77b4"/>
   </g>
   <g id="patch_7">
    <path d="M 65.548138 224.64 
L 67.067567 224.64 
L 67.067567 215.030454 
L 65.548138 215.030454 
z
" clip-path="url(#p64904a018e)" style="fill: #1f77b4"/>
   </g>
   <g id="patch_8">
    <path d="M 67.067567 224.64 
L 68.586996 224.64 
L 68.586996 215.510931 
L 67.067567 215.510931 
z
" clip-path="url(#p64904a018e)" style="fill: #1f77b4"/>
   </g>
   <g id="patch_9">
    <path d="M 68.586996 224.64 
L 70.106425 224.64 
L 70.106425 218.393795 
L 68.586996 218.393795 
z
" clip-path="url(#p64904a018e)" style="fill: #1f77b4"/>
   </g>
   <g id="patch_10">
    <path d="M 70.106425 224.64 
L 71.625854 224.64 
L 71.625854 216.952363 
L 70.106425 216.952363 
z
" clip-path="url(#p64904a018e)" style="fill: #1f77b4"/>
   </g>
   <g id="patch_11">
    <path d="M 71.625854 224.64 
L 73.145283 224.64 
L 73.145283 215.991409 
L 71.625854 215.991409 
z
" clip-path="url(#p64904a018e)" style="fill: #1f77b4"/>
   </g>
   <g id="patch_12">
    <path d="M 73.145283 224.64 
L 74.664713 224.64 
L 74.664713 218.874272 
L 73.145283 218.874272 
z
" clip-path="url(#p64904a018e)" style="fill: #1f77b4"/>
   </g>
   <g id="patch_13">
    <path d="M 74.664713 224.64 
L 76.184142 224.64 
L 76.184142 214.549977 
L 74.664713 214.549977 
z
" clip-path="url(#p64904a018e)" style="fill: #1f77b4"/>
   </g>
   <g id="patch_14">
    <path d="M 76.184142 224.64 
L 77.703571 224.64 
L 77.703571 211.667113 
L 76.184142 211.667113 
z
" clip-path="url(#p64904a018e)" style="fill: #1f77b4"/>
   </g>
   <g id="patch_15">
    <path d="M 77.703571 224.64 
L 79.223 224.64 
L 79.223 215.991409 
L 77.703571 215.991409 
z
" clip-path="url(#p64904a018e)" style="fill: #1f77b4"/>
   </g>
   <g id="patch_16">
    <path d="M 79.223 224.64 
L 80.742429 224.64 
L 80.742429 213.108545 
L 79.223 213.108545 
z
" clip-path="url(#p64904a018e)" style="fill: #1f77b4"/>
   </g>
   <g id="patch_17">
    <path d="M 80.742429 224.64 
L 82.261858 224.64 
L 82.261858 209.264727 
L 80.742429 209.264727 
z
" clip-path="url(#p64904a018e)" style="fill: #1f77b4"/>
   </g>
   <g id="patch_18">
    <path d="M 82.261858 224.64 
L 83.781287 224.64 
L 83.781287 210.225681 
L 82.261858 210.225681 
z
" clip-path="url(#p64904a018e)" style="fill: #1f77b4"/>
   </g>
   <g id="patch_19">
    <path d="M 83.781287 224.64 
L 85.300716 224.64 
L 85.300716 204.459954 
L 83.781287 204.459954 
z
" clip-path="url(#p64904a018e)" style="fill: #1f77b4"/>
   </g>
   <g id="patch_20">
    <path d="M 85.300716 224.64 
L 86.820145 224.64 
L 86.820145 202.538044 
L 85.300716 202.538044 
z
" clip-path="url(#p64904a018e)" style="fill: #1f77b4"/>
   </g>
   <g id="patch_21">
    <path d="M 86.820145 224.64 
L 88.339574 224.64 
L 88.339574 204.459954 
L 86.820145 204.459954 
z
" clip-path="url(#p64904a018e)" style="fill: #1f77b4"/>
   </g>
   <g id="patch_22">
    <path d="M 88.339574 224.64 
L 89.859003 224.64 
L 89.859003 207.342817 
L 88.339574 207.342817 
z
" clip-path="url(#p64904a018e)" style="fill: #1f77b4"/>
   </g>
   <g id="patch_23">
    <path d="M 89.859003 224.64 
L 91.378432 224.64 
L 91.378432 201.096613 
L 89.859003 201.096613 
z
" clip-path="url(#p64904a018e)" style="fill: #1f77b4"/>
   </g>
   <g id="patch_24">
    <path d="M 91.378432 224.64 
L 92.897861 224.64 
L 92.897861 205.420908 
L 91.378432 205.420908 
z
" clip-path="url(#p64904a018e)" style="fill: #1f77b4"/>
   </g>
   <g id="patch_25">
    <path d="M 92.897861 224.64 
L 94.41729 224.64 
L 94.41729 199.174703 
L 92.897861 199.174703 
z
" clip-path="url(#p64904a018e)" style="fill: #1f77b4"/>
   </g>
   <g id="patch_26">
    <path d="M 94.41729 224.64 
L 95.936719 224.64 
L 95.936719 202.057567 
L 94.41729 202.057567 
z
" clip-path="url(#p64904a018e)" style="fill: #1f77b4"/>
   </g>
   <g id="patch_27">
    <path d="M 95.936719 224.64 
L 97.456148 224.64 
L 97.456148 198.213749 
L 95.936719 198.213749 
z
" clip-path="url(#p64904a018e)" style="fill: #1f77b4"/>
   </g>
   <g id="patch_28">
    <path d="M 97.456148 224.64 
L 98.975577 224.64 
L 98.975577 194.850408 
L 97.456148 194.850408 
z
" clip-path="url(#p64904a018e)" style="fill: #1f77b4"/>
   </g>
   <g id="patch_29">
    <path d="M 98.975577 224.64 
L 100.495007 224.64 
L 100.495007 199.174703 
L 98.975577 199.174703 
z
" clip-path="url(#p64904a018e)" style="fill: #1f77b4"/>
   </g>
   <g id="patch_30">
    <path d="M 100.495007 224.64 
L 102.014436 224.64 
L 102.014436 197.252794 
L 100.495007 197.252794 
z
" clip-path="url(#p64904a018e)" style="fill: #1f77b4"/>
   </g>
   <g id="patch_31">
    <path d="M 102.014436 224.64 
L 103.533865 224.64 
L 103.533865 197.252794 
L 102.014436 197.252794 
z
" clip-path="url(#p64904a018e)" style="fill: #1f77b4"/>
   </g>
   <g id="patch_32">
    <path d="M 103.533865 224.64 
L 105.053294 224.64 
L 105.053294 196.772317 
L 103.533865 196.772317 
z
" clip-path="url(#p64904a018e)" style="fill: #1f77b4"/>
   </g>
   <g id="patch_33">
    <path d="M 105.053294 224.64 
L 106.572723 224.64 
L 106.572723 200.616135 
L 105.053294 200.616135 
z
" clip-path="url(#p64904a018e)" style="fill: #1f77b4"/>
   </g>
   <g id="patch_34">
    <path d="M 106.572723 224.64 
L 108.092152 224.64 
L 108.092152 190.045635 
L 106.572723 190.045635 
z
" clip-path="url(#p64904a018e)" style="fill: #1f77b4"/>
   </g>
   <g id="patch_35">
    <path d="M 108.092152 224.64 
L 109.611581 224.64 
L 109.611581 194.850408 
L 108.092152 194.850408 
z
" clip-path="url(#p64904a018e)" style="fill: #1f77b4"/>
   </g>
   <g id="patch_36">
    <path d="M 109.611581 224.64 
L 111.13101 224.64 
L 111.13101 190.526112 
L 109.611581 190.526112 
z
" clip-path="url(#p64904a018e)" style="fill: #1f77b4"/>
   </g>
   <g id="patch_37">
    <path d="M 111.13101 224.64 
L 112.650439 224.64 
L 112.650439 193.408976 
L 111.13101 193.408976 
z
" clip-path="url(#p64904a018e)" style="fill: #1f77b4"/>
   </g>
   <g id="patch_38">
    <path d="M 112.650439 224.64 
L 114.169868 224.64 
L 114.169868 196.772317 
L 112.650439 196.772317 
z
" clip-path="url(#p64904a018e)" style="fill: #1f77b4"/>
   </g>
   <g id="patch_39">
    <path d="M 114.169868 224.64 
L 115.689297 224.64 
L 115.689297 191.006589 
L 114.169868 191.006589 
z
" clip-path="url(#p64904a018e)" style="fill: #1f77b4"/>
   </g>
   <g id="patch_40">
    <path d="M 115.689297 224.64 
L 117.208726 224.64 
L 117.208726 187.643248 
L 115.689297 187.643248 
z
" clip-path="url(#p64904a018e)" style="fill: #1f77b4"/>
   </g>
   <g id="patch_41">
    <path d="M 117.208726 224.64 
L 118.728155 224.64 
L 118.728155 181.877521 
L 117.208726 181.877521 
z
" clip-path="url(#p64904a018e)" style="fill: #1f77b4"/>
   </g>
   <g id="patch_42">
    <path d="M 118.728155 224.64 
L 120.247584 224.64 
L 120.247584 182.838475 
L 118.728155 182.838475 
z
" clip-path="url(#p64904a018e)" style="fill: #1f77b4"/>
   </g>
   <g id="patch_43">
    <path d="M 120.247584 224.64 
L 121.767013 224.64 
L 121.767013 186.201816 
L 120.247584 186.201816 
z
" clip-path="url(#p64904a018e)" style="fill: #1f77b4"/>
   </g>
   <g id="patch_44">
    <path d="M 121.767013 224.64 
L 123.286442 224.64 
L 123.286442 185.721339 
L 121.767013 185.721339 
z
" clip-path="url(#p64904a018e)" style="fill: #1f77b4"/>
   </g>
   <g id="patch_45">
    <path d="M 123.286442 224.64 
L 124.805871 224.64 
L 124.805871 184.760384 
L 123.286442 184.760384 
z
" clip-path="url(#p64904a018e)" style="fill: #1f77b4"/>
   </g>
   <g id="patch_46">
    <path d="M 124.805871 224.64 
L 126.3253 224.64 
L 126.3253 182.838475 
L 124.805871 182.838475 
z
" clip-path="url(#p64904a018e)" style="fill: #1f77b4"/>
   </g>
   <g id="patch_47">
    <path d="M 126.3253 224.64 
L 127.84473 224.64 
L 127.84473 188.123726 
L 126.3253 188.123726 
z
" clip-path="url(#p64904a018e)" style="fill: #1f77b4"/>
   </g>
   <g id="patch_48">
    <path d="M 127.84473 224.64 
L 129.364159 224.64 
L 129.364159 180.436089 
L 127.84473 180.436089 
z
" clip-path="url(#p64904a018e)" style="fill: #1f77b4"/>
   </g>
   <g id="patch_49">
    <path d="M 129.364159 224.64 
L 130.883588 224.64 
L 130.883588 175.631316 
L 129.364159 175.631316 
z
" clip-path="url(#p64904a018e)" style="fill: #1f77b4"/>
   </g>
   <g id="patch_50">
    <path d="M 130.883588 224.64 
L 132.403017 224.64 
L 132.403017 181.877521 
L 130.883588 181.877521 
z
" clip-path="url(#p64904a018e)" style="fill: #1f77b4"/>
   </g>
   <g id="patch_51">
    <path d="M 132.403017 224.64 
L 133.922446 224.64 
L 133.922446 178.994657 
L 132.403017 178.994657 
z
" clip-path="url(#p64904a018e)" style="fill: #1f77b4"/>
   </g>
   <g id="patch_52">
    <path d="M 133.922446 224.64 
L 135.441875 224.64 
L 135.441875 177.553225 
L 133.922446 177.553225 
z
" clip-path="url(#p64904a018e)" style="fill: #1f77b4"/>
   </g>
   <g id="patch_53">
    <path d="M 135.441875 224.64 
L 136.961304 224.64 
L 136.961304 183.79943 
L 135.441875 183.79943 
z
" clip-path="url(#p64904a018e)" style="fill: #1f77b4"/>
   </g>
   <g id="patch_54">
    <path d="M 136.961304 224.64 
L 138.480733 224.64 
L 138.480733 186.682294 
L 136.961304 186.682294 
z
" clip-path="url(#p64904a018e)" style="fill: #1f77b4"/>
   </g>
   <g id="patch_55">
    <path d="M 138.480733 224.64 
L 140.000162 224.64 
L 140.000162 181.877521 
L 138.480733 181.877521 
z
" clip-path="url(#p64904a018e)" style="fill: #1f77b4"/>
   </g>
   <g id="patch_56">
    <path d="M 140.000162 224.64 
L 141.519591 224.64 
L 141.519591 175.631316 
L 140.000162 175.631316 
z
" clip-path="url(#p64904a018e)" style="fill: #1f77b4"/>
   </g>
   <g id="patch_57">
    <path d="M 141.519591 224.64 
L 143.03902 224.64 
L 143.03902 172.267975 
L 141.519591 172.267975 
z
" clip-path="url(#p64904a018e)" style="fill: #1f77b4"/>
   </g>
   <g id="patch_58">
    <path d="M 143.03902 224.64 
L 144.558449 224.64 
L 144.558449 167.463202 
L 143.03902 167.463202 
z
" clip-path="url(#p64904a018e)" style="fill: #1f77b4"/>
   </g>
   <g id="patch_59">
    <path d="M 144.558449 224.64 
L 146.077878 224.64 
L 146.077878 167.463202 
L 144.558449 167.463202 
z
" clip-path="url(#p64904a018e)" style="fill: #1f77b4"/>
   </g>
   <g id="patch_60">
    <path d="M 146.077878 224.64 
L 147.597307 224.64 
L 147.597307 167.943679 
L 146.077878 167.943679 
z
" clip-path="url(#p64904a018e)" style="fill: #1f77b4"/>
   </g>
   <g id="patch_61">
    <path d="M 147.597307 224.64 
L 149.116736 224.64 
L 149.116736 171.30702 
L 147.597307 171.30702 
z
" clip-path="url(#p64904a018e)" style="fill: #1f77b4"/>
   </g>
   <g id="patch_62">
    <path d="M 149.116736 224.64 
L 150.636165 224.64 
L 150.636165 178.033702 
L 149.116736 178.033702 
z
" clip-path="url(#p64904a018e)" style="fill: #1f77b4"/>
   </g>
   <g id="patch_63">
    <path d="M 150.636165 224.64 
L 152.155594 224.64 
L 152.155594 169.865588 
L 150.636165 169.865588 
z
" clip-path="url(#p64904a018e)" style="fill: #1f77b4"/>
   </g>
   <g id="patch_64">
    <path d="M 152.155594 224.64 
L 153.675024 224.64 
L 153.675024 169.385111 
L 152.155594 169.385111 
z
" clip-path="url(#p64904a018e)" style="fill: #1f77b4"/>
   </g>
   <g id="patch_65">
    <path d="M 153.675024 224.64 
L 155.194453 224.64 
L 155.194453 164.099861 
L 153.675024 164.099861 
z
" clip-path="url(#p64904a018e)" style="fill: #1f77b4"/>
   </g>
   <g id="patch_66">
    <path d="M 155.194453 224.64 
L 156.713882 224.64 
L 156.713882 153.048883 
L 155.194453 153.048883 
z
" clip-path="url(#p64904a018e)" style="fill: #1f77b4"/>
   </g>
   <g id="patch_67">
    <path d="M 156.713882 224.64 
L 158.233311 224.64 
L 158.233311 168.904634 
L 156.713882 168.904634 
z
" clip-path="url(#p64904a018e)" style="fill: #1f77b4"/>
   </g>
   <g id="patch_68">
    <path d="M 158.233311 224.64 
L 159.75274 224.64 
L 159.75274 164.099861 
L 158.233311 164.099861 
z
" clip-path="url(#p64904a018e)" style="fill: #1f77b4"/>
   </g>
   <g id="patch_69">
    <path d="M 159.75274 224.64 
L 161.272169 224.64 
L 161.272169 159.775565 
L 159.75274 159.775565 
z
" clip-path="url(#p64904a018e)" style="fill: #1f77b4"/>
   </g>
   <g id="patch_70">
    <path d="M 161.272169 224.64 
L 162.791598 224.64 
L 162.791598 152.087928 
L 161.272169 152.087928 
z
" clip-path="url(#p64904a018e)" style="fill: #1f77b4"/>
   </g>
   <g id="patch_71">
    <path d="M 162.791598 224.64 
L 164.311027 224.64 
L 164.311027 163.138906 
L 162.791598 163.138906 
z
" clip-path="url(#p64904a018e)" style="fill: #1f77b4"/>
   </g>
   <g id="patch_72">
    <path d="M 164.311027 224.64 
L 165.830456 224.64 
L 165.830456 159.295088 
L 164.311027 159.295088 
z
" clip-path="url(#p64904a018e)" style="fill: #1f77b4"/>
   </g>
   <g id="patch_73">
    <path d="M 165.830456 224.64 
L 167.349885 224.64 
L 167.349885 162.658429 
L 165.830456 162.658429 
z
" clip-path="url(#p64904a018e)" style="fill: #1f77b4"/>
   </g>
   <g id="patch_74">
    <path d="M 167.349885 224.64 
L 168.869314 224.64 
L 168.869314 154.970792 
L 167.349885 154.970792 
z
" clip-path="url(#p64904a018e)" style="fill: #1f77b4"/>
   </g>
   <g id="patch_75">
    <path d="M 168.869314 224.64 
L 170.388743 224.64 
L 170.388743 157.373179 
L 168.869314 157.373179 
z
" clip-path="url(#p64904a018e)" style="fill: #1f77b4"/>
   </g>
   <g id="patch_76">
    <path d="M 170.388743 224.64 
L 171.908172 224.64 
L 171.908172 152.568406 
L 170.388743 152.568406 
z
" clip-path="url(#p64904a018e)" style="fill: #1f77b4"/>
   </g>
   <g id="patch_77">
    <path d="M 171.908172 224.64 
L 173.427601 224.64 
L 173.427601 145.841724 
L 171.908172 145.841724 
z
" clip-path="url(#p64904a018e)" style="fill: #1f77b4"/>
   </g>
   <g id="patch_78">
    <path d="M 173.427601 224.64 
L 174.94703 224.64 
L 174.94703 162.177952 
L 173.427601 162.177952 
z
" clip-path="url(#p64904a018e)" style="fill: #1f77b4"/>
   </g>
   <g id="patch_79">
    <path d="M 174.94703 224.64 
L 176.466459 224.64 
L 176.466459 143.919814 
L 174.94703 143.919814 
z
" clip-path="url(#p64904a018e)" style="fill: #1f77b4"/>
   </g>
   <g id="patch_80">
    <path d="M 176.466459 224.64 
L 177.985888 224.64 
L 177.985888 148.724587 
L 176.466459 148.724587 
z
" clip-path="url(#p64904a018e)" style="fill: #1f77b4"/>
   </g>
   <g id="patch_81">
    <path d="M 177.985888 224.64 
L 179.505318 224.64 
L 179.505318 151.607451 
L 177.985888 151.607451 
z
" clip-path="url(#p64904a018e)" style="fill: #1f77b4"/>
   </g>
   <g id="patch_82">
    <path d="M 179.505318 224.64 
L 181.024747 224.64 
L 181.024747 154.970792 
L 179.505318 154.970792 
z
" clip-path="url(#p64904a018e)" style="fill: #1f77b4"/>
   </g>
   <g id="patch_83">
    <path d="M 181.024747 224.64 
L 182.544176 224.64 
L 182.544176 150.646497 
L 181.024747 150.646497 
z
" clip-path="url(#p64904a018e)" style="fill: #1f77b4"/>
   </g>
   <g id="patch_84">
    <path d="M 182.544176 224.64 
L 184.063605 224.64 
L 184.063605 148.724587 
L 182.544176 148.724587 
z
" clip-path="url(#p64904a018e)" style="fill: #1f77b4"/>
   </g>
   <g id="patch_85">
    <path d="M 184.063605 224.64 
L 185.583034 224.64 
L 185.583034 152.568406 
L 184.063605 152.568406 
z
" clip-path="url(#p64904a018e)" style="fill: #1f77b4"/>
   </g>
   <g id="patch_86">
    <path d="M 185.583034 224.64 
L 187.102463 224.64 
L 187.102463 144.880769 
L 185.583034 144.880769 
z
" clip-path="url(#p64904a018e)" style="fill: #1f77b4"/>
   </g>
   <g id="patch_87">
    <path d="M 187.102463 224.64 
L 188.621892 224.64 
L 188.621892 138.154087 
L 187.102463 138.154087 
z
" clip-path="url(#p64904a018e)" style="fill: #1f77b4"/>
   </g>
   <g id="patch_88">
    <path d="M 188.621892 224.64 
L 190.141321 224.64 
L 190.141321 143.919814 
L 188.621892 143.919814 
z
" clip-path="url(#p64904a018e)" style="fill: #1f77b4"/>
   </g>
   <g id="patch_89">
    <path d="M 190.141321 224.64 
L 191.66075 224.64 
L 191.66075 144.880769 
L 190.141321 144.880769 
z
" clip-path="url(#p64904a018e)" style="fill: #1f77b4"/>
   </g>
   <g id="patch_90">
    <path d="M 191.66075 224.64 
L 193.180179 224.64 
L 193.180179 141.517428 
L 191.66075 141.517428 
z
" clip-path="url(#p64904a018e)" style="fill: #1f77b4"/>
   </g>
   <g id="patch_91">
    <path d="M 193.180179 224.64 
L 194.699608 224.64 
L 194.699608 145.361246 
L 193.180179 145.361246 
z
" clip-path="url(#p64904a018e)" style="fill: #1f77b4"/>
   </g>
   <g id="patch_92">
    <path d="M 194.699608 224.64 
L 196.219037 224.64 
L 196.219037 131.907882 
L 194.699608 131.907882 
z
" clip-path="url(#p64904a018e)" style="fill: #1f77b4"/>
   </g>
   <g id="patch_93">
    <path d="M 196.219037 224.64 
L 197.738466 224.64 
L 197.738466 135.271223 
L 196.219037 135.271223 
z
" clip-path="url(#p64904a018e)" style="fill: #1f77b4"/>
   </g>
   <g id="patch_94">
    <path d="M 197.738466 224.64 
L 199.257895 224.64 
L 199.257895 126.622632 
L 197.738466 126.622632 
z
" clip-path="url(#p64904a018e)" style="fill: #1f77b4"/>
   </g>
   <g id="patch_95">
    <path d="M 199.257895 224.64 
L 200.777324 224.64 
L 200.777324 139.595519 
L 199.257895 139.595519 
z
" clip-path="url(#p64904a018e)" style="fill: #1f77b4"/>
   </g>
   <g id="patch_96">
    <path d="M 200.777324 224.64 
L 202.296753 224.64 
L 202.296753 134.310268 
L 200.777324 134.310268 
z
" clip-path="url(#p64904a018e)" style="fill: #1f77b4"/>
   </g>
   <g id="patch_97">
    <path d="M 202.296753 224.64 
L 203.816182 224.64 
L 203.816182 130.46645 
L 202.296753 130.46645 
z
" clip-path="url(#p64904a018e)" style="fill: #1f77b4"/>
   </g>
   <g id="patch_98">
    <path d="M 203.816182 224.64 
L 205.335612 224.64 
L 205.335612 142.478382 
L 203.816182 142.478382 
z
" clip-path="url(#p64904a018e)" style="fill: #1f77b4"/>
   </g>
   <g id="patch_99">
    <path d="M 205.335612 224.64 
L 206.855041 224.64 
L 206.855041 129.985973 
L 205.335612 129.985973 
z
" clip-path="url(#p64904a018e)" style="fill: #1f77b4"/>
   </g>
   <g id="patch_100">
    <path d="M 206.855041 224.64 
L 208.37447 224.64 
L 208.37447 135.271223 
L 206.855041 135.271223 
z
" clip-path="url(#p64904a018e)" style="fill: #1f77b4"/>
   </g>
   <g id="patch_101">
    <path d="M 208.37447 224.64 
L 209.893899 224.64 
L 209.893899 141.517428 
L 208.37447 141.517428 
z
" clip-path="url(#p64904a018e)" style="fill: #1f77b4"/>
   </g>
   <g id="patch_102">
    <path d="M 209.893899 224.64 
L 211.413328 224.64 
L 211.413328 129.505496 
L 209.893899 129.505496 
z
" clip-path="url(#p64904a018e)" style="fill: #1f77b4"/>
   </g>
   <g id="patch_103">
    <path d="M 211.413328 224.64 
L 212.932757 224.64 
L 212.932757 136.712655 
L 211.413328 136.712655 
z
" clip-path="url(#p64904a018e)" style="fill: #1f77b4"/>
   </g>
   <g id="patch_104">
    <path d="M 212.932757 224.64 
L 214.452186 224.64 
L 214.452186 136.712655 
L 212.932757 136.712655 
z
" clip-path="url(#p64904a018e)" style="fill: #1f77b4"/>
   </g>
   <g id="patch_105">
    <path d="M 214.452186 224.64 
L 215.971615 224.64 
L 215.971615 134.790746 
L 214.452186 134.790746 
z
" clip-path="url(#p64904a018e)" style="fill: #1f77b4"/>
   </g>
   <g id="patch_106">
    <path d="M 215.971615 224.64 
L 217.491044 224.64 
L 217.491044 129.985973 
L 215.971615 129.985973 
z
" clip-path="url(#p64904a018e)" style="fill: #1f77b4"/>
   </g>
   <g id="patch_107">
    <path d="M 217.491044 224.64 
L 219.010473 224.64 
L 219.010473 127.103109 
L 217.491044 127.103109 
z
" clip-path="url(#p64904a018e)" style="fill: #1f77b4"/>
   </g>
   <g id="patch_108">
    <path d="M 219.010473 224.64 
L 220.529902 224.64 
L 220.529902 129.025018 
L 219.010473 129.025018 
z
" clip-path="url(#p64904a018e)" style="fill: #1f77b4"/>
   </g>
   <g id="patch_109">
    <path d="M 220.529902 224.64 
L 222.049331 224.64 
L 222.049331 132.868837 
L 220.529902 132.868837 
z
" clip-path="url(#p64904a018e)" style="fill: #1f77b4"/>
   </g>
   <g id="patch_110">
    <path d="M 222.049331 224.64 
L 223.56876 224.64 
L 223.56876 124.700723 
L 222.049331 124.700723 
z
" clip-path="url(#p64904a018e)" style="fill: #1f77b4"/>
   </g>
   <g id="patch_111">
    <path d="M 223.56876 224.64 
L 225.088189 224.64 
L 225.088189 118.934995 
L 223.56876 118.934995 
z
" clip-path="url(#p64904a018e)" style="fill: #1f77b4"/>
   </g>
   <g id="patch_112">
    <path d="M 225.088189 224.64 
L 226.607618 224.64 
L 226.607618 140.556473 
L 225.088189 140.556473 
z
" clip-path="url(#p64904a018e)" style="fill: #1f77b4"/>
   </g>
   <g id="patch_113">
    <path d="M 226.607618 224.64 
L 228.127047 224.64 
L 228.127047 117.493563 
L 226.607618 117.493563 
z
" clip-path="url(#p64904a018e)" style="fill: #1f77b4"/>
   </g>
   <g id="patch_114">
    <path d="M 228.127047 224.64 
L 229.646476 224.64 
L 229.646476 126.622632 
L 228.127047 126.622632 
z
" clip-path="url(#p64904a018e)" style="fill: #1f77b4"/>
   </g>
   <g id="patch_115">
    <path d="M 229.646476 224.64 
L 231.165906 224.64 
L 231.165906 110.766881 
L 229.646476 110.766881 
z
" clip-path="url(#p64904a018e)" style="fill: #1f77b4"/>
   </g>
   <g id="patch_116">
    <path d="M 231.165906 224.64 
L 232.685335 224.64 
L 232.685335 122.298336 
L 231.165906 122.298336 
z
" clip-path="url(#p64904a018e)" style="fill: #1f77b4"/>
   </g>
   <g id="patch_117">
    <path d="M 232.685335 224.64 
L 234.204764 224.64 
L 234.204764 105.481631 
L 232.685335 105.481631 
z
" clip-path="url(#p64904a018e)" style="fill: #1f77b4"/>
   </g>
   <g id="patch_118">
    <path d="M 234.204764 224.64 
L 235.724193 224.64 
L 235.724193 105.962108 
L 234.204764 105.962108 
z
" clip-path="url(#p64904a018e)" style="fill: #1f77b4"/>
   </g>
   <g id="patch_119">
    <path d="M 235.724193 224.64 
L 237.243622 224.64 
L 237.243622 128.064064 
L 235.724193 128.064064 
z
" clip-path="url(#p64904a018e)" style="fill: #1f77b4"/>
   </g>
   <g id="patch_120">
    <path d="M 237.243622 224.64 
L 238.763051 224.64 
L 238.763051 108.844972 
L 237.243622 108.844972 
z
" clip-path="url(#p64904a018e)" style="fill: #1f77b4"/>
   </g>
   <g id="patch_121">
    <path d="M 238.763051 224.64 
L 240.28248 224.64 
L 240.28248 114.130222 
L 238.763051 114.130222 
z
" clip-path="url(#p64904a018e)" style="fill: #1f77b4"/>
   </g>
   <g id="patch_122">
    <path d="M 240.28248 224.64 
L 241.801909 224.64 
L 241.801909 111.247358 
L 240.28248 111.247358 
z
" clip-path="url(#p64904a018e)" style="fill: #1f77b4"/>
   </g>
   <g id="patch_123">
    <path d="M 241.801909 224.64 
L 243.321338 224.64 
L 243.321338 112.68879 
L 241.801909 112.68879 
z
" clip-path="url(#p64904a018e)" style="fill: #1f77b4"/>
   </g>
   <g id="patch_124">
    <path d="M 243.321338 224.64 
L 244.840767 224.64 
L 244.840767 95.391608 
L 243.321338 95.391608 
z
" clip-path="url(#p64904a018e)" style="fill: #1f77b4"/>
   </g>
   <g id="patch_125">
    <path d="M 244.840767 224.64 
L 246.360196 224.64 
L 246.360196 115.091177 
L 244.840767 115.091177 
z
" clip-path="url(#p64904a018e)" style="fill: #1f77b4"/>
   </g>
   <g id="patch_126">
    <path d="M 246.360196 224.64 
L 247.879625 224.64 
L 247.879625 114.130222 
L 246.360196 114.130222 
z
" clip-path="url(#p64904a018e)" style="fill: #1f77b4"/>
   </g>
   <g id="patch_127">
    <path d="M 247.879625 224.64 
L 249.399054 224.64 
L 249.399054 106.442585 
L 247.879625 106.442585 
z
" clip-path="url(#p64904a018e)" style="fill: #1f77b4"/>
   </g>
   <g id="patch_128">
    <path d="M 249.399054 224.64 
L 250.918483 224.64 
L 250.918483 117.013086 
L 249.399054 117.013086 
z
" clip-path="url(#p64904a018e)" style="fill: #1f77b4"/>
   </g>
   <g id="patch_129">
    <path d="M 250.918483 224.64 
L 252.437912 224.64 
L 252.437912 102.598767 
L 250.918483 102.598767 
z
" clip-path="url(#p64904a018e)" style="fill: #1f77b4"/>
   </g>
   <g id="patch_130">
    <path d="M 252.437912 224.64 
L 253.957341 224.64 
L 253.957341 111.247358 
L 252.437912 111.247358 
z
" clip-path="url(#p64904a018e)" style="fill: #1f77b4"/>
   </g>
   <g id="patch_131">
    <path d="M 253.957341 224.64 
L 255.47677 224.64 
L 255.47677 90.586835 
L 253.957341 90.586835 
z
" clip-path="url(#p64904a018e)" style="fill: #1f77b4"/>
   </g>
   <g id="patch_132">
    <path d="M 255.47677 224.64 
L 256.996199 224.64 
L 256.996199 95.872085 
L 255.47677 95.872085 
z
" clip-path="url(#p64904a018e)" style="fill: #1f77b4"/>
   </g>
   <g id="patch_133">
    <path d="M 256.996199 224.64 
L 258.515629 224.64 
L 258.515629 101.157335 
L 256.996199 101.157335 
z
" clip-path="url(#p64904a018e)" style="fill: #1f77b4"/>
   </g>
   <g id="patch_134">
    <path d="M 258.515629 224.64 
L 260.035058 224.64 
L 260.035058 95.391608 
L 258.515629 95.391608 
z
" clip-path="url(#p64904a018e)" style="fill: #1f77b4"/>
   </g>
   <g id="patch_135">
    <path d="M 260.035058 224.64 
L 261.554487 224.64 
L 261.554487 105.001153 
L 260.035058 105.001153 
z
" clip-path="url(#p64904a018e)" style="fill: #1f77b4"/>
   </g>
   <g id="patch_136">
    <path d="M 261.554487 224.64 
L 263.073916 224.64 
L 263.073916 85.301584 
L 261.554487 85.301584 
z
" clip-path="url(#p64904a018e)" style="fill: #1f77b4"/>
   </g>
   <g id="patch_137">
    <path d="M 263.073916 224.64 
L 264.593345 224.64 
L 264.593345 90.106357 
L 263.073916 90.106357 
z
" clip-path="url(#p64904a018e)" style="fill: #1f77b4"/>
   </g>
   <g id="patch_138">
    <path d="M 264.593345 224.64 
L 266.112774 224.64 
L 266.112774 78.574902 
L 264.593345 78.574902 
z
" clip-path="url(#p64904a018e)" style="fill: #1f77b4"/>
   </g>
   <g id="patch_139">
    <path d="M 266.112774 224.64 
L 267.632203 224.64 
L 267.632203 92.989221 
L 266.112774 92.989221 
z
" clip-path="url(#p64904a018e)" style="fill: #1f77b4"/>
   </g>
   <g id="patch_140">
    <path d="M 267.632203 224.64 
L 269.151632 224.64 
L 269.151632 92.028266 
L 267.632203 92.028266 
z
" clip-path="url(#p64904a018e)" style="fill: #1f77b4"/>
   </g>
   <g id="patch_141">
    <path d="M 269.151632 224.64 
L 270.671061 224.64 
L 270.671061 90.106357 
L 269.151632 90.106357 
z
" clip-path="url(#p64904a018e)" style="fill: #1f77b4"/>
   </g>
   <g id="patch_142">
    <path d="M 270.671061 224.64 
L 272.19049 224.64 
L 272.19049 88.184448 
L 270.671061 88.184448 
z
" clip-path="url(#p64904a018e)" style="fill: #1f77b4"/>
   </g>
   <g id="patch_143">
    <path d="M 272.19049 224.64 
L 273.709919 224.64 
L 273.709919 91.067312 
L 272.19049 91.067312 
z
" clip-path="url(#p64904a018e)" style="fill: #1f77b4"/>
   </g>
   <g id="patch_144">
    <path d="M 273.709919 224.64 
L 275.229348 224.64 
L 275.229348 93.950176 
L 273.709919 93.950176 
z
" clip-path="url(#p64904a018e)" style="fill: #1f77b4"/>
   </g>
   <g id="patch_145">
    <path d="M 275.229348 224.64 
L 276.748777 224.64 
L 276.748777 96.352562 
L 275.229348 96.352562 
z
" clip-path="url(#p64904a018e)" style="fill: #1f77b4"/>
   </g>
   <g id="patch_146">
    <path d="M 276.748777 224.64 
L 278.268206 224.64 
L 278.268206 103.079244 
L 276.748777 103.079244 
z
" clip-path="url(#p64904a018e)" style="fill: #1f77b4"/>
   </g>
   <g id="patch_147">
    <path d="M 278.268206 224.64 
L 279.787635 224.64 
L 279.787635 88.184448 
L 278.268206 88.184448 
z
" clip-path="url(#p64904a018e)" style="fill: #1f77b4"/>
   </g>
   <g id="patch_148">
    <path d="M 279.787635 224.64 
L 281.307064 224.64 
L 281.307064 79.535857 
L 279.787635 79.535857 
z
" clip-path="url(#p64904a018e)" style="fill: #1f77b4"/>
   </g>
   <g id="patch_149">
    <path d="M 281.307064 224.64 
L 282.826493 224.64 
L 282.826493 87.703971 
L 281.307064 87.703971 
z
" clip-path="url(#p64904a018e)" style="fill: #1f77b4"/>
   </g>
   <g id="patch_150">
    <path d="M 282.826493 224.64 
L 284.345923 224.64 
L 284.345923 63.199629 
L 282.826493 63.199629 
z
" clip-path="url(#p64904a018e)" style="fill: #1f77b4"/>
   </g>
   <g id="patch_151">
    <path d="M 284.345923 224.64 
L 285.865352 224.64 
L 285.865352 75.692038 
L 284.345923 75.692038 
z
" clip-path="url(#p64904a018e)" style="fill: #1f77b4"/>
   </g>
   <g id="patch_152">
    <path d="M 285.865352 224.64 
L 287.384781 224.64 
L 287.384781 93.950176 
L 285.865352 93.950176 
z
" clip-path="url(#p64904a018e)" style="fill: #1f77b4"/>
   </g>
   <g id="patch_153">
    <path d="M 287.384781 224.64 
L 288.90421 224.64 
L 288.90421 84.34063 
L 287.384781 84.34063 
z
" clip-path="url(#p64904a018e)" style="fill: #1f77b4"/>
   </g>
   <g id="patch_154">
    <path d="M 288.90421 224.64 
L 290.423639 224.64 
L 290.423639 70.406788 
L 288.90421 70.406788 
z
" clip-path="url(#p64904a018e)" style="fill: #1f77b4"/>
   </g>
   <g id="patch_155">
    <path d="M 290.423639 224.64 
L 291.943068 224.64 
L 291.943068 69.445834 
L 290.423639 69.445834 
z
" clip-path="url(#p64904a018e)" style="fill: #1f77b4"/>
   </g>
   <g id="patch_156">
    <path d="M 291.943068 224.64 
L 293.462497 224.64 
L 293.462497 72.328697 
L 291.943068 72.328697 
z
" clip-path="url(#p64904a018e)" style="fill: #1f77b4"/>
   </g>
   <g id="patch_157">
    <path d="M 293.462497 224.64 
L 294.981926 224.64 
L 294.981926 65.121538 
L 293.462497 65.121538 
z
" clip-path="url(#p64904a018e)" style="fill: #1f77b4"/>
   </g>
   <g id="patch_158">
    <path d="M 294.981926 224.64 
L 296.501355 224.64 
L 296.501355 67.043447 
L 294.981926 67.043447 
z
" clip-path="url(#p64904a018e)" style="fill: #1f77b4"/>
   </g>
   <g id="patch_159">
    <path d="M 296.501355 224.64 
L 298.020784 224.64 
L 298.020784 64.641061 
L 296.501355 64.641061 
z
" clip-path="url(#p64904a018e)" style="fill: #1f77b4"/>
   </g>
   <g id="patch_160">
    <path d="M 298.020784 224.64 
L 299.540213 224.64 
L 299.540213 59.836288 
L 298.020784 59.836288 
z
" clip-path="url(#p64904a018e)" style="fill: #1f77b4"/>
   </g>
   <g id="patch_161">
    <path d="M 299.540213 224.64 
L 301.059642 224.64 
L 301.059642 71.84822 
L 299.540213 71.84822 
z
" clip-path="url(#p64904a018e)" style="fill: #1f77b4"/>
   </g>
   <g id="patch_162">
    <path d="M 301.059642 224.64 
L 302.579071 224.64 
L 302.579071 86.743016 
L 301.059642 86.743016 
z
" clip-path="url(#p64904a018e)" style="fill: #1f77b4"/>
   </g>
   <g id="patch_163">
    <path d="M 302.579071 224.64 
L 304.0985 224.64 
L 304.0985 72.328697 
L 302.579071 72.328697 
z
" clip-path="url(#p64904a018e)" style="fill: #1f77b4"/>
   </g>
   <g id="patch_164">
    <path d="M 304.0985 224.64 
L 305.617929 224.64 
L 305.617929 64.160583 
L 304.0985 64.160583 
z
" clip-path="url(#p64904a018e)" style="fill: #1f77b4"/>
   </g>
   <g id="patch_165">
    <path d="M 305.617929 224.64 
L 307.137358 224.64 
L 307.137358 64.160583 
L 305.617929 64.160583 
z
" clip-path="url(#p64904a018e)" style="fill: #1f77b4"/>
   </g>
   <g id="patch_166">
    <path d="M 307.137358 224.64 
L 308.656787 224.64 
L 308.656787 55.031515 
L 307.137358 55.031515 
z
" clip-path="url(#p64904a018e)" style="fill: #1f77b4"/>
   </g>
   <g id="patch_167">
    <path d="M 308.656787 224.64 
L 310.176217 224.64 
L 310.176217 64.641061 
L 308.656787 64.641061 
z
" clip-path="url(#p64904a018e)" style="fill: #1f77b4"/>
   </g>
   <g id="patch_168">
    <path d="M 310.176217 224.64 
L 311.695646 224.64 
L 311.695646 59.35581 
L 310.176217 59.35581 
z
" clip-path="url(#p64904a018e)" style="fill: #1f77b4"/>
   </g>
   <g id="patch_169">
    <path d="M 311.695646 224.64 
L 313.215075 224.64 
L 313.215075 62.719151 
L 311.695646 62.719151 
z
" clip-path="url(#p64904a018e)" style="fill: #1f77b4"/>
   </g>
   <g id="patch_170">
    <path d="M 313.215075 224.64 
L 314.734504 224.64 
L 314.734504 58.394856 
L 313.215075 58.394856 
z
" clip-path="url(#p64904a018e)" style="fill: #1f77b4"/>
   </g>
   <g id="patch_171">
    <path d="M 314.734504 224.64 
L 316.253933 224.64 
L 316.253933 66.082493 
L 314.734504 66.082493 
z
" clip-path="url(#p64904a018e)" style="fill: #1f77b4"/>
   </g>
   <g id="patch_172">
    <path d="M 316.253933 224.64 
L 317.773362 224.64 
L 317.773362 58.394856 
L 316.253933 58.394856 
z
" clip-path="url(#p64904a018e)" style="fill: #1f77b4"/>
   </g>
   <g id="patch_173">
    <path d="M 317.773362 224.64 
L 319.292791 224.64 
L 319.292791 53.109606 
L 317.773362 53.109606 
z
" clip-path="url(#p64904a018e)" style="fill: #1f77b4"/>
   </g>
   <g id="patch_174">
    <path d="M 319.292791 224.64 
L 320.81222 224.64 
L 320.81222 51.187696 
L 319.292791 51.187696 
z
" clip-path="url(#p64904a018e)" style="fill: #1f77b4"/>
   </g>
   <g id="patch_175">
    <path d="M 320.81222 224.64 
L 322.331649 224.64 
L 322.331649 60.797242 
L 320.81222 60.797242 
z
" clip-path="url(#p64904a018e)" style="fill: #1f77b4"/>
   </g>
   <g id="patch_176">
    <path d="M 322.331649 224.64 
L 323.851078 224.64 
L 323.851078 60.797242 
L 322.331649 60.797242 
z
" clip-path="url(#p64904a018e)" style="fill: #1f77b4"/>
   </g>
   <g id="patch_177">
    <path d="M 323.851078 224.64 
L 325.370507 224.64 
L 325.370507 61.758197 
L 323.851078 61.758197 
z
" clip-path="url(#p64904a018e)" style="fill: #1f77b4"/>
   </g>
   <g id="patch_178">
    <path d="M 325.370507 224.64 
L 326.889936 224.64 
L 326.889936 55.031515 
L 325.370507 55.031515 
z
" clip-path="url(#p64904a018e)" style="fill: #1f77b4"/>
   </g>
   <g id="patch_179">
    <path d="M 326.889936 224.64 
L 328.409365 224.64 
L 328.409365 59.836288 
L 326.889936 59.836288 
z
" clip-path="url(#p64904a018e)" style="fill: #1f77b4"/>
   </g>
   <g id="patch_180">
    <path d="M 328.409365 224.64 
L 329.928794 224.64 
L 329.928794 51.187696 
L 328.409365 51.187696 
z
" clip-path="url(#p64904a018e)" style="fill: #1f77b4"/>
   </g>
   <g id="patch_181">
    <path d="M 329.928794 224.64 
L 331.448223 224.64 
L 331.448223 62.238674 
L 329.928794 62.238674 
z
" clip-path="url(#p64904a018e)" style="fill: #1f77b4"/>
   </g>
   <g id="patch_182">
    <path d="M 331.448223 224.64 
L 332.967652 224.64 
L 332.967652 49.746265 
L 331.448223 49.746265 
z
" clip-path="url(#p64904a018e)" style="fill: #1f77b4"/>
   </g>
   <g id="patch_183">
    <path d="M 332.967652 224.64 
L 334.487081 224.64 
L 334.487081 64.641061 
L 332.967652 64.641061 
z
" clip-path="url(#p64904a018e)" style="fill: #1f77b4"/>
   </g>
   <g id="patch_184">
    <path d="M 334.487081 224.64 
L 336.006511 224.64 
L 336.006511 28.605264 
L 334.487081 28.605264 
z
" clip-path="url(#p64904a018e)" style="fill: #1f77b4"/>
   </g>
   <g id="patch_185">
    <path d="M 336.006511 224.64 
L 337.52594 224.64 
L 337.52594 38.214809 
L 336.006511 38.214809 
z
" clip-path="url(#p64904a018e)" style="fill: #1f77b4"/>
   </g>
   <g id="patch_186">
    <path d="M 337.52594 224.64 
L 339.045369 224.64 
L 339.045369 39.175764 
L 337.52594 39.175764 
z
" clip-path="url(#p64904a018e)" style="fill: #1f77b4"/>
   </g>
   <g id="patch_187">
    <path d="M 339.045369 224.64 
L 340.564798 224.64 
L 340.564798 43.980537 
L 339.045369 43.980537 
z
" clip-path="url(#p64904a018e)" style="fill: #1f77b4"/>
   </g>
   <g id="patch_188">
    <path d="M 340.564798 224.64 
L 342.084227 224.64 
L 342.084227 25.241922 
L 340.564798 25.241922 
z
" clip-path="url(#p64904a018e)" style="fill: #1f77b4"/>
   </g>
   <g id="patch_189">
    <path d="M 342.084227 224.64 
L 343.603656 224.64 
L 343.603656 56.953424 
L 342.084227 56.953424 
z
" clip-path="url(#p64904a018e)" style="fill: #1f77b4"/>
   </g>
   <g id="patch_190">
    <path d="M 343.603656 224.64 
L 345.123085 224.64 
L 345.123085 24.761445 
L 343.603656 24.761445 
z
" clip-path="url(#p64904a018e)" style="fill: #1f77b4"/>
   </g>
   <g id="patch_191">
    <path d="M 345.123085 224.64 
L 346.642514 224.64 
L 346.642514 39.656241 
L 345.123085 39.656241 
z
" clip-path="url(#p64904a018e)" style="fill: #1f77b4"/>
   </g>
   <g id="patch_192">
    <path d="M 346.642514 224.64 
L 348.161943 224.64 
L 348.161943 45.421969 
L 346.642514 45.421969 
z
" clip-path="url(#p64904a018e)" style="fill: #1f77b4"/>
   </g>
   <g id="patch_193">
    <path d="M 348.161943 224.64 
L 349.681372 224.64 
L 349.681372 46.382923 
L 348.161943 46.382923 
z
" clip-path="url(#p64904a018e)" style="fill: #1f77b4"/>
   </g>
   <g id="patch_194">
    <path d="M 349.681372 224.64 
L 351.200801 224.64 
L 351.200801 50.226742 
L 349.681372 50.226742 
z
" clip-path="url(#p64904a018e)" style="fill: #1f77b4"/>
   </g>
   <g id="patch_195">
    <path d="M 351.200801 224.64 
L 352.72023 224.64 
L 352.72023 29.085741 
L 351.200801 29.085741 
z
" clip-path="url(#p64904a018e)" style="fill: #1f77b4"/>
   </g>
   <g id="patch_196">
    <path d="M 352.72023 224.64 
L 354.239659 224.64 
L 354.239659 33.890514 
L 352.72023 33.890514 
z
" clip-path="url(#p64904a018e)" style="fill: #1f77b4"/>
   </g>
   <g id="patch_197">
    <path d="M 354.239659 224.64 
L 355.759088 224.64 
L 355.759088 32.449082 
L 354.239659 32.449082 
z
" clip-path="url(#p64904a018e)" style="fill: #1f77b4"/>
   </g>
   <g id="patch_198">
    <path d="M 355.759088 224.64 
L 357.278517 224.64 
L 357.278517 33.410036 
L 355.759088 33.410036 
z
" clip-path="url(#p64904a018e)" style="fill: #1f77b4"/>
   </g>
   <g id="patch_199">
    <path d="M 357.278517 224.64 
L 358.797946 224.64 
L 358.797946 17.554286 
L 357.278517 17.554286 
z
" clip-path="url(#p64904a018e)" style="fill: #1f77b4"/>
   </g>
   <g id="patch_200">
    <path d="M 358.797946 224.64 
L 360.317375 224.64 
L 360.317375 68.965356 
L 358.797946 68.965356 
z
" clip-path="url(#p64904a018e)" style="fill: #1f77b4"/>
   </g>
   <g id="patch_201">
    <path d="M 360.317375 224.64 
L 361.836805 224.64 
L 361.836805 40.136719 
L 360.317375 40.136719 
z
" clip-path="url(#p64904a018e)" style="fill: #1f77b4"/>
   </g>
   <g id="patch_202">
    <path d="M 361.836805 224.64 
L 363.356234 224.64 
L 363.356234 26.683354 
L 361.836805 26.683354 
z
" clip-path="url(#p64904a018e)" style="fill: #1f77b4"/>
   </g>
   <g id="matplotlib.axis_1">
    <g id="xtick_1">
     <g id="line2d_1">
      <defs>
       <path id="m666c9a3c33" d="M 0 0 
L 0 3.5 
" style="stroke: #000000; stroke-width: 0.8"/>
      </defs>
      <g>
       <use xlink:href="#m666c9a3c33" x="58.999432" y="224.64" style="stroke: #000000; stroke-width: 0.8"/>
      </g>
     </g>
     <g id="text_1">
      <!-- 0.0 -->
      <g transform="translate(51.047869 239.238437)scale(0.1 -0.1)">
       <defs>
        <path id="DejaVuSans-30" d="M 2034 4250 
Q 1547 4250 1301 3770 
Q 1056 3291 1056 2328 
Q 1056 1369 1301 889 
Q 1547 409 2034 409 
Q 2525 409 2770 889 
Q 3016 1369 3016 2328 
Q 3016 3291 2770 3770 
Q 2525 4250 2034 4250 
z
M 2034 4750 
Q 2819 4750 3233 4129 
Q 3647 3509 3647 2328 
Q 3647 1150 3233 529 
Q 2819 -91 2034 -91 
Q 1250 -91 836 529 
Q 422 1150 422 2328 
Q 422 3509 836 4129 
Q 1250 4750 2034 4750 
z
" transform="scale(0.015625)"/>
        <path id="DejaVuSans-2e" d="M 684 794 
L 1344 794 
L 1344 0 
L 684 0 
L 684 794 
z
" transform="scale(0.015625)"/>
       </defs>
       <use xlink:href="#DejaVuSans-30"/>
       <use xlink:href="#DejaVuSans-2e" x="63.623047"/>
       <use xlink:href="#DejaVuSans-30" x="95.410156"/>
      </g>
     </g>
    </g>
    <g id="xtick_2">
     <g id="line2d_2">
      <g>
       <use xlink:href="#m666c9a3c33" x="119.872159" y="224.64" style="stroke: #000000; stroke-width: 0.8"/>
      </g>
     </g>
     <g id="text_2">
      <!-- 0.2 -->
      <g transform="translate(111.920597 239.238437)scale(0.1 -0.1)">
       <defs>
        <path id="DejaVuSans-32" d="M 1228 531 
L 3431 531 
L 3431 0 
L 469 0 
L 469 531 
Q 828 903 1448 1529 
Q 2069 2156 2228 2338 
Q 2531 2678 2651 2914 
Q 2772 3150 2772 3378 
Q 2772 3750 2511 3984 
Q 2250 4219 1831 4219 
Q 1534 4219 1204 4116 
Q 875 4013 500 3803 
L 500 4441 
Q 881 4594 1212 4672 
Q 1544 4750 1819 4750 
Q 2544 4750 2975 4387 
Q 3406 4025 3406 3419 
Q 3406 3131 3298 2873 
Q 3191 2616 2906 2266 
Q 2828 2175 2409 1742 
Q 1991 1309 1228 531 
z
" transform="scale(0.015625)"/>
       </defs>
       <use xlink:href="#DejaVuSans-30"/>
       <use xlink:href="#DejaVuSans-2e" x="63.623047"/>
       <use xlink:href="#DejaVuSans-32" x="95.410156"/>
      </g>
     </g>
    </g>
    <g id="xtick_3">
     <g id="line2d_3">
      <g>
       <use xlink:href="#m666c9a3c33" x="180.744886" y="224.64" style="stroke: #000000; stroke-width: 0.8"/>
      </g>
     </g>
     <g id="text_3">
      <!-- 0.4 -->
      <g transform="translate(172.793324 239.238437)scale(0.1 -0.1)">
       <defs>
        <path id="DejaVuSans-34" d="M 2419 4116 
L 825 1625 
L 2419 1625 
L 2419 4116 
z
M 2253 4666 
L 3047 4666 
L 3047 1625 
L 3713 1625 
L 3713 1100 
L 3047 1100 
L 3047 0 
L 2419 0 
L 2419 1100 
L 313 1100 
L 313 1709 
L 2253 4666 
z
" transform="scale(0.015625)"/>
       </defs>
       <use xlink:href="#DejaVuSans-30"/>
       <use xlink:href="#DejaVuSans-2e" x="63.623047"/>
       <use xlink:href="#DejaVuSans-34" x="95.410156"/>
      </g>
     </g>
    </g>
    <g id="xtick_4">
     <g id="line2d_4">
      <g>
       <use xlink:href="#m666c9a3c33" x="241.617614" y="224.64" style="stroke: #000000; stroke-width: 0.8"/>
      </g>
     </g>
     <g id="text_4">
      <!-- 0.6 -->
      <g transform="translate(233.666051 239.238437)scale(0.1 -0.1)">
       <defs>
        <path id="DejaVuSans-36" d="M 2113 2584 
Q 1688 2584 1439 2293 
Q 1191 2003 1191 1497 
Q 1191 994 1439 701 
Q 1688 409 2113 409 
Q 2538 409 2786 701 
Q 3034 994 3034 1497 
Q 3034 2003 2786 2293 
Q 2538 2584 2113 2584 
z
M 3366 4563 
L 3366 3988 
Q 3128 4100 2886 4159 
Q 2644 4219 2406 4219 
Q 1781 4219 1451 3797 
Q 1122 3375 1075 2522 
Q 1259 2794 1537 2939 
Q 1816 3084 2150 3084 
Q 2853 3084 3261 2657 
Q 3669 2231 3669 1497 
Q 3669 778 3244 343 
Q 2819 -91 2113 -91 
Q 1303 -91 875 529 
Q 447 1150 447 2328 
Q 447 3434 972 4092 
Q 1497 4750 2381 4750 
Q 2619 4750 2861 4703 
Q 3103 4656 3366 4563 
z
" transform="scale(0.015625)"/>
       </defs>
       <use xlink:href="#DejaVuSans-30"/>
       <use xlink:href="#DejaVuSans-2e" x="63.623047"/>
       <use xlink:href="#DejaVuSans-36" x="95.410156"/>
      </g>
     </g>
    </g>
    <g id="xtick_5">
     <g id="line2d_5">
      <g>
       <use xlink:href="#m666c9a3c33" x="302.490341" y="224.64" style="stroke: #000000; stroke-width: 0.8"/>
      </g>
     </g>
     <g id="text_5">
      <!-- 0.8 -->
      <g transform="translate(294.538778 239.238437)scale(0.1 -0.1)">
       <defs>
        <path id="DejaVuSans-38" d="M 2034 2216 
Q 1584 2216 1326 1975 
Q 1069 1734 1069 1313 
Q 1069 891 1326 650 
Q 1584 409 2034 409 
Q 2484 409 2743 651 
Q 3003 894 3003 1313 
Q 3003 1734 2745 1975 
Q 2488 2216 2034 2216 
z
M 1403 2484 
Q 997 2584 770 2862 
Q 544 3141 544 3541 
Q 544 4100 942 4425 
Q 1341 4750 2034 4750 
Q 2731 4750 3128 4425 
Q 3525 4100 3525 3541 
Q 3525 3141 3298 2862 
Q 3072 2584 2669 2484 
Q 3125 2378 3379 2068 
Q 3634 1759 3634 1313 
Q 3634 634 3220 271 
Q 2806 -91 2034 -91 
Q 1263 -91 848 271 
Q 434 634 434 1313 
Q 434 1759 690 2068 
Q 947 2378 1403 2484 
z
M 1172 3481 
Q 1172 3119 1398 2916 
Q 1625 2713 2034 2713 
Q 2441 2713 2670 2916 
Q 2900 3119 2900 3481 
Q 2900 3844 2670 4047 
Q 2441 4250 2034 4250 
Q 1625 4250 1398 4047 
Q 1172 3844 1172 3481 
z
" transform="scale(0.015625)"/>
       </defs>
       <use xlink:href="#DejaVuSans-30"/>
       <use xlink:href="#DejaVuSans-2e" x="63.623047"/>
       <use xlink:href="#DejaVuSans-38" x="95.410156"/>
      </g>
     </g>
    </g>
    <g id="xtick_6">
     <g id="line2d_6">
      <g>
       <use xlink:href="#m666c9a3c33" x="363.363068" y="224.64" style="stroke: #000000; stroke-width: 0.8"/>
      </g>
     </g>
     <g id="text_6">
      <!-- 1.0 -->
      <g transform="translate(355.411506 239.238437)scale(0.1 -0.1)">
       <defs>
        <path id="DejaVuSans-31" d="M 794 531 
L 1825 531 
L 1825 4091 
L 703 3866 
L 703 4441 
L 1819 4666 
L 2450 4666 
L 2450 531 
L 3481 531 
L 3481 0 
L 794 0 
L 794 531 
z
" transform="scale(0.015625)"/>
       </defs>
       <use xlink:href="#DejaVuSans-31"/>
       <use xlink:href="#DejaVuSans-2e" x="63.623047"/>
       <use xlink:href="#DejaVuSans-30" x="95.410156"/>
      </g>
     </g>
    </g>
    <g id="text_7">
     <!-- Propagation direction -->
     <g transform="translate(157.699219 252.916562)scale(0.1 -0.1)">
      <defs>
       <path id="DejaVuSans-50" d="M 1259 4147 
L 1259 2394 
L 2053 2394 
Q 2494 2394 2734 2622 
Q 2975 2850 2975 3272 
Q 2975 3691 2734 3919 
Q 2494 4147 2053 4147 
L 1259 4147 
z
M 628 4666 
L 2053 4666 
Q 2838 4666 3239 4311 
Q 3641 3956 3641 3272 
Q 3641 2581 3239 2228 
Q 2838 1875 2053 1875 
L 1259 1875 
L 1259 0 
L 628 0 
L 628 4666 
z
" transform="scale(0.015625)"/>
       <path id="DejaVuSans-72" d="M 2631 2963 
Q 2534 3019 2420 3045 
Q 2306 3072 2169 3072 
Q 1681 3072 1420 2755 
Q 1159 2438 1159 1844 
L 1159 0 
L 581 0 
L 581 3500 
L 1159 3500 
L 1159 2956 
Q 1341 3275 1631 3429 
Q 1922 3584 2338 3584 
Q 2397 3584 2469 3576 
Q 2541 3569 2628 3553 
L 2631 2963 
z
" transform="scale(0.015625)"/>
       <path id="DejaVuSans-6f" d="M 1959 3097 
Q 1497 3097 1228 2736 
Q 959 2375 959 1747 
Q 959 1119 1226 758 
Q 1494 397 1959 397 
Q 2419 397 2687 759 
Q 2956 1122 2956 1747 
Q 2956 2369 2687 2733 
Q 2419 3097 1959 3097 
z
M 1959 3584 
Q 2709 3584 3137 3096 
Q 3566 2609 3566 1747 
Q 3566 888 3137 398 
Q 2709 -91 1959 -91 
Q 1206 -91 779 398 
Q 353 888 353 1747 
Q 353 2609 779 3096 
Q 1206 3584 1959 3584 
z
" transform="scale(0.015625)"/>
       <path id="DejaVuSans-70" d="M 1159 525 
L 1159 -1331 
L 581 -1331 
L 581 3500 
L 1159 3500 
L 1159 2969 
Q 1341 3281 1617 3432 
Q 1894 3584 2278 3584 
Q 2916 3584 3314 3078 
Q 3713 2572 3713 1747 
Q 3713 922 3314 415 
Q 2916 -91 2278 -91 
Q 1894 -91 1617 61 
Q 1341 213 1159 525 
z
M 3116 1747 
Q 3116 2381 2855 2742 
Q 2594 3103 2138 3103 
Q 1681 3103 1420 2742 
Q 1159 2381 1159 1747 
Q 1159 1113 1420 752 
Q 1681 391 2138 391 
Q 2594 391 2855 752 
Q 3116 1113 3116 1747 
z
" transform="scale(0.015625)"/>
       <path id="DejaVuSans-61" d="M 2194 1759 
Q 1497 1759 1228 1600 
Q 959 1441 959 1056 
Q 959 750 1161 570 
Q 1363 391 1709 391 
Q 2188 391 2477 730 
Q 2766 1069 2766 1631 
L 2766 1759 
L 2194 1759 
z
M 3341 1997 
L 3341 0 
L 2766 0 
L 2766 531 
Q 2569 213 2275 61 
Q 1981 -91 1556 -91 
Q 1019 -91 701 211 
Q 384 513 384 1019 
Q 384 1609 779 1909 
Q 1175 2209 1959 2209 
L 2766 2209 
L 2766 2266 
Q 2766 2663 2505 2880 
Q 2244 3097 1772 3097 
Q 1472 3097 1187 3025 
Q 903 2953 641 2809 
L 641 3341 
Q 956 3463 1253 3523 
Q 1550 3584 1831 3584 
Q 2591 3584 2966 3190 
Q 3341 2797 3341 1997 
z
" transform="scale(0.015625)"/>
       <path id="DejaVuSans-67" d="M 2906 1791 
Q 2906 2416 2648 2759 
Q 2391 3103 1925 3103 
Q 1463 3103 1205 2759 
Q 947 2416 947 1791 
Q 947 1169 1205 825 
Q 1463 481 1925 481 
Q 2391 481 2648 825 
Q 2906 1169 2906 1791 
z
M 3481 434 
Q 3481 -459 3084 -895 
Q 2688 -1331 1869 -1331 
Q 1566 -1331 1297 -1286 
Q 1028 -1241 775 -1147 
L 775 -588 
Q 1028 -725 1275 -790 
Q 1522 -856 1778 -856 
Q 2344 -856 2625 -561 
Q 2906 -266 2906 331 
L 2906 616 
Q 2728 306 2450 153 
Q 2172 0 1784 0 
Q 1141 0 747 490 
Q 353 981 353 1791 
Q 353 2603 747 3093 
Q 1141 3584 1784 3584 
Q 2172 3584 2450 3431 
Q 2728 3278 2906 2969 
L 2906 3500 
L 3481 3500 
L 3481 434 
z
" transform="scale(0.015625)"/>
       <path id="DejaVuSans-74" d="M 1172 4494 
L 1172 3500 
L 2356 3500 
L 2356 3053 
L 1172 3053 
L 1172 1153 
Q 1172 725 1289 603 
Q 1406 481 1766 481 
L 2356 481 
L 2356 0 
L 1766 0 
Q 1100 0 847 248 
Q 594 497 594 1153 
L 594 3053 
L 172 3053 
L 172 3500 
L 594 3500 
L 594 4494 
L 1172 4494 
z
" transform="scale(0.015625)"/>
       <path id="DejaVuSans-69" d="M 603 3500 
L 1178 3500 
L 1178 0 
L 603 0 
L 603 3500 
z
M 603 4863 
L 1178 4863 
L 1178 4134 
L 603 4134 
L 603 4863 
z
" transform="scale(0.015625)"/>
       <path id="DejaVuSans-6e" d="M 3513 2113 
L 3513 0 
L 2938 0 
L 2938 2094 
Q 2938 2591 2744 2837 
Q 2550 3084 2163 3084 
Q 1697 3084 1428 2787 
Q 1159 2491 1159 1978 
L 1159 0 
L 581 0 
L 581 3500 
L 1159 3500 
L 1159 2956 
Q 1366 3272 1645 3428 
Q 1925 3584 2291 3584 
Q 2894 3584 3203 3211 
Q 3513 2838 3513 2113 
z
" transform="scale(0.015625)"/>
       <path id="DejaVuSans-20" transform="scale(0.015625)"/>
       <path id="DejaVuSans-64" d="M 2906 2969 
L 2906 4863 
L 3481 4863 
L 3481 0 
L 2906 0 
L 2906 525 
Q 2725 213 2448 61 
Q 2172 -91 1784 -91 
Q 1150 -91 751 415 
Q 353 922 353 1747 
Q 353 2572 751 3078 
Q 1150 3584 1784 3584 
Q 2172 3584 2448 3432 
Q 2725 3281 2906 2969 
z
M 947 1747 
Q 947 1113 1208 752 
Q 1469 391 1925 391 
Q 2381 391 2643 752 
Q 2906 1113 2906 1747 
Q 2906 2381 2643 2742 
Q 2381 3103 1925 3103 
Q 1469 3103 1208 2742 
Q 947 2381 947 1747 
z
" transform="scale(0.015625)"/>
       <path id="DejaVuSans-65" d="M 3597 1894 
L 3597 1613 
L 953 1613 
Q 991 1019 1311 708 
Q 1631 397 2203 397 
Q 2534 397 2845 478 
Q 3156 559 3463 722 
L 3463 178 
Q 3153 47 2828 -22 
Q 2503 -91 2169 -91 
Q 1331 -91 842 396 
Q 353 884 353 1716 
Q 353 2575 817 3079 
Q 1281 3584 2069 3584 
Q 2775 3584 3186 3129 
Q 3597 2675 3597 1894 
z
M 3022 2063 
Q 3016 2534 2758 2815 
Q 2500 3097 2075 3097 
Q 1594 3097 1305 2825 
Q 1016 2553 972 2059 
L 3022 2063 
z
" transform="scale(0.015625)"/>
       <path id="DejaVuSans-63" d="M 3122 3366 
L 3122 2828 
Q 2878 2963 2633 3030 
Q 2388 3097 2138 3097 
Q 1578 3097 1268 2742 
Q 959 2388 959 1747 
Q 959 1106 1268 751 
Q 1578 397 2138 397 
Q 2388 397 2633 464 
Q 2878 531 3122 666 
L 3122 134 
Q 2881 22 2623 -34 
Q 2366 -91 2075 -91 
Q 1284 -91 818 406 
Q 353 903 353 1747 
Q 353 2603 823 3093 
Q 1294 3584 2113 3584 
Q 2378 3584 2631 3529 
Q 2884 3475 3122 3366 
z
" transform="scale(0.015625)"/>
      </defs>
      <use xlink:href="#DejaVuSans-50"/>
      <use xlink:href="#DejaVuSans-72" x="58.552734"/>
      <use xlink:href="#DejaVuSans-6f" x="97.416016"/>
      <use xlink:href="#DejaVuSans-70" x="158.597656"/>
      <use xlink:href="#DejaVuSans-61" x="222.074219"/>
      <use xlink:href="#DejaVuSans-67" x="283.353516"/>
      <use xlink:href="#DejaVuSans-61" x="346.830078"/>
      <use xlink:href="#DejaVuSans-74" x="408.109375"/>
      <use xlink:href="#DejaVuSans-69" x="447.318359"/>
      <use xlink:href="#DejaVuSans-6f" x="475.101562"/>
      <use xlink:href="#DejaVuSans-6e" x="536.283203"/>
      <use xlink:href="#DejaVuSans-20" x="599.662109"/>
      <use xlink:href="#DejaVuSans-64" x="631.449219"/>
      <use xlink:href="#DejaVuSans-69" x="694.925781"/>
      <use xlink:href="#DejaVuSans-72" x="722.708984"/>
      <use xlink:href="#DejaVuSans-65" x="761.572266"/>
      <use xlink:href="#DejaVuSans-63" x="823.095703"/>
      <use xlink:href="#DejaVuSans-74" x="878.076172"/>
      <use xlink:href="#DejaVuSans-69" x="917.285156"/>
      <use xlink:href="#DejaVuSans-6f" x="945.068359"/>
      <use xlink:href="#DejaVuSans-6e" x="1006.25"/>
     </g>
    </g>
   </g>
   <g id="matplotlib.axis_2">
    <g id="ytick_1">
     <g id="line2d_7">
      <defs>
       <path id="m48a86b3c26" d="M 0 0 
L -3.5 0 
" style="stroke: #000000; stroke-width: 0.8"/>
      </defs>
      <g>
       <use xlink:href="#m48a86b3c26" x="43.78125" y="224.64" style="stroke: #000000; stroke-width: 0.8"/>
      </g>
     </g>
     <g id="text_8">
      <!-- 0.0 -->
      <g transform="translate(20.878125 228.439219)scale(0.1 -0.1)">
       <use xlink:href="#DejaVuSans-30"/>
       <use xlink:href="#DejaVuSans-2e" x="63.623047"/>
       <use xlink:href="#DejaVuSans-30" x="95.410156"/>
      </g>
     </g>
    </g>
    <g id="ytick_2">
     <g id="line2d_8">
      <g>
       <use xlink:href="#m48a86b3c26" x="43.78125" y="176.667701" style="stroke: #000000; stroke-width: 0.8"/>
      </g>
     </g>
     <g id="text_9">
      <!-- 0.5 -->
      <g transform="translate(20.878125 180.46692)scale(0.1 -0.1)">
       <defs>
        <path id="DejaVuSans-35" d="M 691 4666 
L 3169 4666 
L 3169 4134 
L 1269 4134 
L 1269 2991 
Q 1406 3038 1543 3061 
Q 1681 3084 1819 3084 
Q 2600 3084 3056 2656 
Q 3513 2228 3513 1497 
Q 3513 744 3044 326 
Q 2575 -91 1722 -91 
Q 1428 -91 1123 -41 
Q 819 9 494 109 
L 494 744 
Q 775 591 1075 516 
Q 1375 441 1709 441 
Q 2250 441 2565 725 
Q 2881 1009 2881 1497 
Q 2881 1984 2565 2268 
Q 2250 2553 1709 2553 
Q 1456 2553 1204 2497 
Q 953 2441 691 2322 
L 691 4666 
z
" transform="scale(0.015625)"/>
       </defs>
       <use xlink:href="#DejaVuSans-30"/>
       <use xlink:href="#DejaVuSans-2e" x="63.623047"/>
       <use xlink:href="#DejaVuSans-35" x="95.410156"/>
      </g>
     </g>
    </g>
    <g id="ytick_3">
     <g id="line2d_9">
      <g>
       <use xlink:href="#m48a86b3c26" x="43.78125" y="128.695403" style="stroke: #000000; stroke-width: 0.8"/>
      </g>
     </g>
     <g id="text_10">
      <!-- 1.0 -->
      <g transform="translate(20.878125 132.494621)scale(0.1 -0.1)">
       <use xlink:href="#DejaVuSans-31"/>
       <use xlink:href="#DejaVuSans-2e" x="63.623047"/>
       <use xlink:href="#DejaVuSans-30" x="95.410156"/>
      </g>
     </g>
    </g>
    <g id="ytick_4">
     <g id="line2d_10">
      <g>
       <use xlink:href="#m48a86b3c26" x="43.78125" y="80.723104" style="stroke: #000000; stroke-width: 0.8"/>
      </g>
     </g>
     <g id="text_11">
      <!-- 1.5 -->
      <g transform="translate(20.878125 84.522323)scale(0.1 -0.1)">
       <use xlink:href="#DejaVuSans-31"/>
       <use xlink:href="#DejaVuSans-2e" x="63.623047"/>
       <use xlink:href="#DejaVuSans-35" x="95.410156"/>
      </g>
     </g>
    </g>
    <g id="ytick_5">
     <g id="line2d_11">
      <g>
       <use xlink:href="#m48a86b3c26" x="43.78125" y="32.750805" style="stroke: #000000; stroke-width: 0.8"/>
      </g>
     </g>
     <g id="text_12">
      <!-- 2.0 -->
      <g transform="translate(20.878125 36.550024)scale(0.1 -0.1)">
       <use xlink:href="#DejaVuSans-32"/>
       <use xlink:href="#DejaVuSans-2e" x="63.623047"/>
       <use xlink:href="#DejaVuSans-30" x="95.410156"/>
      </g>
     </g>
    </g>
    <g id="text_13">
     <!-- Probability density -->
     <g transform="translate(14.798438 162.270781)rotate(-90)scale(0.1 -0.1)">
      <defs>
       <path id="DejaVuSans-62" d="M 3116 1747 
Q 3116 2381 2855 2742 
Q 2594 3103 2138 3103 
Q 1681 3103 1420 2742 
Q 1159 2381 1159 1747 
Q 1159 1113 1420 752 
Q 1681 391 2138 391 
Q 2594 391 2855 752 
Q 3116 1113 3116 1747 
z
M 1159 2969 
Q 1341 3281 1617 3432 
Q 1894 3584 2278 3584 
Q 2916 3584 3314 3078 
Q 3713 2572 3713 1747 
Q 3713 922 3314 415 
Q 2916 -91 2278 -91 
Q 1894 -91 1617 61 
Q 1341 213 1159 525 
L 1159 0 
L 581 0 
L 581 4863 
L 1159 4863 
L 1159 2969 
z
" transform="scale(0.015625)"/>
       <path id="DejaVuSans-6c" d="M 603 4863 
L 1178 4863 
L 1178 0 
L 603 0 
L 603 4863 
z
" transform="scale(0.015625)"/>
       <path id="DejaVuSans-79" d="M 2059 -325 
Q 1816 -950 1584 -1140 
Q 1353 -1331 966 -1331 
L 506 -1331 
L 506 -850 
L 844 -850 
Q 1081 -850 1212 -737 
Q 1344 -625 1503 -206 
L 1606 56 
L 191 3500 
L 800 3500 
L 1894 763 
L 2988 3500 
L 3597 3500 
L 2059 -325 
z
" transform="scale(0.015625)"/>
       <path id="DejaVuSans-73" d="M 2834 3397 
L 2834 2853 
Q 2591 2978 2328 3040 
Q 2066 3103 1784 3103 
Q 1356 3103 1142 2972 
Q 928 2841 928 2578 
Q 928 2378 1081 2264 
Q 1234 2150 1697 2047 
L 1894 2003 
Q 2506 1872 2764 1633 
Q 3022 1394 3022 966 
Q 3022 478 2636 193 
Q 2250 -91 1575 -91 
Q 1294 -91 989 -36 
Q 684 19 347 128 
L 347 722 
Q 666 556 975 473 
Q 1284 391 1588 391 
Q 1994 391 2212 530 
Q 2431 669 2431 922 
Q 2431 1156 2273 1281 
Q 2116 1406 1581 1522 
L 1381 1569 
Q 847 1681 609 1914 
Q 372 2147 372 2553 
Q 372 3047 722 3315 
Q 1072 3584 1716 3584 
Q 2034 3584 2315 3537 
Q 2597 3491 2834 3397 
z
" transform="scale(0.015625)"/>
      </defs>
      <use xlink:href="#DejaVuSans-50"/>
      <use xlink:href="#DejaVuSans-72" x="58.552734"/>
      <use xlink:href="#DejaVuSans-6f" x="97.416016"/>
      <use xlink:href="#DejaVuSans-62" x="158.597656"/>
      <use xlink:href="#DejaVuSans-61" x="222.074219"/>
      <use xlink:href="#DejaVuSans-62" x="283.353516"/>
      <use xlink:href="#DejaVuSans-69" x="346.830078"/>
      <use xlink:href="#DejaVuSans-6c" x="374.613281"/>
      <use xlink:href="#DejaVuSans-69" x="402.396484"/>
      <use xlink:href="#DejaVuSans-74" x="430.179688"/>
      <use xlink:href="#DejaVuSans-79" x="469.388672"/>
      <use xlink:href="#DejaVuSans-20" x="528.568359"/>
      <use xlink:href="#DejaVuSans-64" x="560.355469"/>
      <use xlink:href="#DejaVuSans-65" x="623.832031"/>
      <use xlink:href="#DejaVuSans-6e" x="685.355469"/>
      <use xlink:href="#DejaVuSans-73" x="748.734375"/>
      <use xlink:href="#DejaVuSans-69" x="800.833984"/>
      <use xlink:href="#DejaVuSans-74" x="828.617188"/>
      <use xlink:href="#DejaVuSans-79" x="867.826172"/>
     </g>
    </g>
   </g>
   <g id="line2d_12">
    <path d="M 58.999432 224.64 
L 363.363068 32.750805 
L 363.363068 32.750805 
" clip-path="url(#p64904a018e)" style="fill: none; stroke: #ff7f0e; stroke-width: 1.5; stroke-linecap: square"/>
   </g>
   <g id="patch_203">
    <path d="M 43.78125 224.64 
L 43.78125 7.2 
" style="fill: none; stroke: #000000; stroke-width: 0.8; stroke-linejoin: miter; stroke-linecap: square"/>
   </g>
   <g id="patch_204">
    <path d="M 378.58125 224.64 
L 378.58125 7.2 
" style="fill: none; stroke: #000000; stroke-width: 0.8; stroke-linejoin: miter; stroke-linecap: square"/>
   </g>
   <g id="patch_205">
    <path d="M 43.78125 224.64 
L 378.58125 224.64 
" style="fill: none; stroke: #000000; stroke-width: 0.8; stroke-linejoin: miter; stroke-linecap: square"/>
   </g>
   <g id="patch_206">
    <path d="M 43.78125 7.2 
L 378.58125 7.2 
" style="fill: none; stroke: #000000; stroke-width: 0.8; stroke-linejoin: miter; stroke-linecap: square"/>
   </g>
  </g>
 </g>
 <defs>
  <clipPath id="p64904a018e">
   <rect x="43.78125" y="7.2" width="334.8" height="217.44"/>
  </clipPath>
 </defs>
</svg>
