<?xml version="1.0" encoding="utf-8" standalone="no"?>
<!DOCTYPE svg PUBLIC "-//W3C//DTD SVG 1.1//EN"
  "http://www.w3.org/Graphics/SVG/1.1/DTD/svg11.dtd">
<svg xmlns:xlink="http://www.w3.org/1999/xlink" width="408.10125pt" height="310.86825pt" viewBox="0 0 408.10125 310.86825" xmlns="http://www.w3.org/2000/svg" version="1.1">
 <metadata>
  <rdf:RDF xmlns:dc="http://purl.org/dc/elements/1.1/" xmlns:cc="http://creativecommons.org/ns#" xmlns:rdf="http://www.w3.org/1999/02/22-rdf-syntax-ns#">
   <cc:Work>
    <dc:type rdf:resource="http://purl.org/dc/dcmitype/StillImage"/>
    <dc:date>2023-02-21T22:08:50.553337</dc:date>
    <dc:format>image/svg+xml</dc:format>
    <dc:creator>
     <cc:Agent>
      <dc:title>Matplotlib v3.5.3, https://matplotlib.org/</dc:title>
     </cc:Agent>
    </dc:creator>
   </cc:Work>
  </rdf:RDF>
 </metadata>
 <defs>
  <style type="text/css">*{stroke-linejoin: round; stroke-linecap: butt}</style>
 </defs>
 <g id="figure_1">
  <g id="patch_1">
   <path d="M 0 310.86825 
L 408.10125 310.86825 
L 408.10125 0 
L 0 0 
z
" style="fill: #ffffff"/>
  </g>
  <g id="axes_1">
   <g id="patch_2">
    <path d="M 43.78125 273.312 
L 400.90125 273.312 
L 400.90125 7.2 
L 43.78125 7.2 
z
" style="fill: #ffffff"/>
   </g>
   <g id="patch_3">
    <path d="M 60.680004 273.312 
L 62.298571 273.312 
L 62.298571 268.942345 
L 60.680004 268.942345 
z
" clip-path="url(#p0194c3b95e)" style="fill: #1f77b4"/>
   </g>
   <g id="patch_4">
    <path d="M 62.298571 273.312 
L 63.917137 273.312 
L 63.917137 258.018207 
L 62.298571 258.018207 
z
" clip-path="url(#p0194c3b95e)" style="fill: #1f77b4"/>
   </g>
   <g id="patch_5">
    <path d="M 63.917137 273.312 
L 65.535704 273.312 
L 65.535704 263.844414 
L 63.917137 263.844414 
z
" clip-path="url(#p0194c3b95e)" style="fill: #1f77b4"/>
   </g>
   <g id="patch_6">
    <path d="M 65.535704 273.312 
L 67.154271 273.312 
L 67.154271 258.018207 
L 65.535704 258.018207 
z
" clip-path="url(#p0194c3b95e)" style="fill: #1f77b4"/>
   </g>
   <g id="patch_7">
    <path d="M 67.154271 273.312 
L 68.772838 273.312 
L 68.772838 248.550621 
L 67.154271 248.550621 
z
" clip-path="url(#p0194c3b95e)" style="fill: #1f77b4"/>
   </g>
   <g id="patch_8">
    <path d="M 68.772838 273.312 
L 70.391404 273.312 
L 70.391404 250.007172 
L 68.772838 250.007172 
z
" clip-path="url(#p0194c3b95e)" style="fill: #1f77b4"/>
   </g>
   <g id="patch_9">
    <path d="M 70.391404 273.312 
L 72.009971 273.312 
L 72.009971 250.735448 
L 70.391404 250.735448 
z
" clip-path="url(#p0194c3b95e)" style="fill: #1f77b4"/>
   </g>
   <g id="patch_10">
    <path d="M 72.009971 273.312 
L 73.628538 273.312 
L 73.628538 244.180966 
L 72.009971 244.180966 
z
" clip-path="url(#p0194c3b95e)" style="fill: #1f77b4"/>
   </g>
   <g id="patch_11">
    <path d="M 73.628538 273.312 
L 75.247104 273.312 
L 75.247104 241.267862 
L 73.628538 241.267862 
z
" clip-path="url(#p0194c3b95e)" style="fill: #1f77b4"/>
   </g>
   <g id="patch_12">
    <path d="M 75.247104 273.312 
L 76.865671 273.312 
L 76.865671 236.169931 
L 75.247104 236.169931 
z
" clip-path="url(#p0194c3b95e)" style="fill: #1f77b4"/>
   </g>
   <g id="patch_13">
    <path d="M 76.865671 273.312 
L 78.484238 273.312 
L 78.484238 230.343724 
L 76.865671 230.343724 
z
" clip-path="url(#p0194c3b95e)" style="fill: #1f77b4"/>
   </g>
   <g id="patch_14">
    <path d="M 78.484238 273.312 
L 80.102805 273.312 
L 80.102805 232.528552 
L 78.484238 232.528552 
z
" clip-path="url(#p0194c3b95e)" style="fill: #1f77b4"/>
   </g>
   <g id="patch_15">
    <path d="M 80.102805 273.312 
L 81.721371 273.312 
L 81.721371 227.430621 
L 80.102805 227.430621 
z
" clip-path="url(#p0194c3b95e)" style="fill: #1f77b4"/>
   </g>
   <g id="patch_16">
    <path d="M 81.721371 273.312 
L 83.339938 273.312 
L 83.339938 217.963034 
L 81.721371 217.963034 
z
" clip-path="url(#p0194c3b95e)" style="fill: #1f77b4"/>
   </g>
   <g id="patch_17">
    <path d="M 83.339938 273.312 
L 84.958505 273.312 
L 84.958505 223.060966 
L 83.339938 223.060966 
z
" clip-path="url(#p0194c3b95e)" style="fill: #1f77b4"/>
   </g>
   <g id="patch_18">
    <path d="M 84.958505 273.312 
L 86.577071 273.312 
L 86.577071 215.049931 
L 84.958505 215.049931 
z
" clip-path="url(#p0194c3b95e)" style="fill: #1f77b4"/>
   </g>
   <g id="patch_19">
    <path d="M 86.577071 273.312 
L 88.195638 273.312 
L 88.195638 215.778207 
L 86.577071 215.778207 
z
" clip-path="url(#p0194c3b95e)" style="fill: #1f77b4"/>
   </g>
   <g id="patch_20">
    <path d="M 88.195638 273.312 
L 89.814205 273.312 
L 89.814205 205.582345 
L 88.195638 205.582345 
z
" clip-path="url(#p0194c3b95e)" style="fill: #1f77b4"/>
   </g>
   <g id="patch_21">
    <path d="M 89.814205 273.312 
L 91.432772 273.312 
L 91.432772 208.495448 
L 89.814205 208.495448 
z
" clip-path="url(#p0194c3b95e)" style="fill: #1f77b4"/>
   </g>
   <g id="patch_22">
    <path d="M 91.432772 273.312 
L 93.051338 273.312 
L 93.051338 202.669241 
L 91.432772 202.669241 
z
" clip-path="url(#p0194c3b95e)" style="fill: #1f77b4"/>
   </g>
   <g id="patch_23">
    <path d="M 93.051338 273.312 
L 94.669905 273.312 
L 94.669905 201.940966 
L 93.051338 201.940966 
z
" clip-path="url(#p0194c3b95e)" style="fill: #1f77b4"/>
   </g>
   <g id="patch_24">
    <path d="M 94.669905 273.312 
L 96.288472 273.312 
L 96.288472 205.582345 
L 94.669905 205.582345 
z
" clip-path="url(#p0194c3b95e)" style="fill: #1f77b4"/>
   </g>
   <g id="patch_25">
    <path d="M 96.288472 273.312 
L 97.907038 273.312 
L 97.907038 195.386483 
L 96.288472 195.386483 
z
" clip-path="url(#p0194c3b95e)" style="fill: #1f77b4"/>
   </g>
   <g id="patch_26">
    <path d="M 97.907038 273.312 
L 99.525605 273.312 
L 99.525605 183.005793 
L 97.907038 183.005793 
z
" clip-path="url(#p0194c3b95e)" style="fill: #1f77b4"/>
   </g>
   <g id="patch_27">
    <path d="M 99.525605 273.312 
L 101.144172 273.312 
L 101.144172 188.832 
L 99.525605 188.832 
z
" clip-path="url(#p0194c3b95e)" style="fill: #1f77b4"/>
   </g>
   <g id="patch_28">
    <path d="M 101.144172 273.312 
L 102.762739 273.312 
L 102.762739 190.288552 
L 101.144172 190.288552 
z
" clip-path="url(#p0194c3b95e)" style="fill: #1f77b4"/>
   </g>
   <g id="patch_29">
    <path d="M 102.762739 273.312 
L 104.381305 273.312 
L 104.381305 191.016828 
L 102.762739 191.016828 
z
" clip-path="url(#p0194c3b95e)" style="fill: #1f77b4"/>
   </g>
   <g id="patch_30">
    <path d="M 104.381305 273.312 
L 105.999872 273.312 
L 105.999872 187.375448 
L 104.381305 187.375448 
z
" clip-path="url(#p0194c3b95e)" style="fill: #1f77b4"/>
   </g>
   <g id="patch_31">
    <path d="M 105.999872 273.312 
L 107.618439 273.312 
L 107.618439 175.723034 
L 105.999872 175.723034 
z
" clip-path="url(#p0194c3b95e)" style="fill: #1f77b4"/>
   </g>
   <g id="patch_32">
    <path d="M 107.618439 273.312 
L 109.237005 273.312 
L 109.237005 168.440276 
L 107.618439 168.440276 
z
" clip-path="url(#p0194c3b95e)" style="fill: #1f77b4"/>
   </g>
   <g id="patch_33">
    <path d="M 109.237005 273.312 
L 110.855572 273.312 
L 110.855572 161.885793 
L 109.237005 161.885793 
z
" clip-path="url(#p0194c3b95e)" style="fill: #1f77b4"/>
   </g>
   <g id="patch_34">
    <path d="M 110.855572 273.312 
L 112.474139 273.312 
L 112.474139 156.787862 
L 110.855572 156.787862 
z
" clip-path="url(#p0194c3b95e)" style="fill: #1f77b4"/>
   </g>
   <g id="patch_35">
    <path d="M 112.474139 273.312 
L 114.092706 273.312 
L 114.092706 159.700966 
L 112.474139 159.700966 
z
" clip-path="url(#p0194c3b95e)" style="fill: #1f77b4"/>
   </g>
   <g id="patch_36">
    <path d="M 114.092706 273.312 
L 115.711272 273.312 
L 115.711272 155.33131 
L 114.092706 155.33131 
z
" clip-path="url(#p0194c3b95e)" style="fill: #1f77b4"/>
   </g>
   <g id="patch_37">
    <path d="M 115.711272 273.312 
L 117.329839 273.312 
L 117.329839 164.070621 
L 115.711272 164.070621 
z
" clip-path="url(#p0194c3b95e)" style="fill: #1f77b4"/>
   </g>
   <g id="patch_38">
    <path d="M 117.329839 273.312 
L 118.948406 273.312 
L 118.948406 164.070621 
L 117.329839 164.070621 
z
" clip-path="url(#p0194c3b95e)" style="fill: #1f77b4"/>
   </g>
   <g id="patch_39">
    <path d="M 118.948406 273.312 
L 120.566972 273.312 
L 120.566972 142.222345 
L 118.948406 142.222345 
z
" clip-path="url(#p0194c3b95e)" style="fill: #1f77b4"/>
   </g>
   <g id="patch_40">
    <path d="M 120.566972 273.312 
L 122.185539 273.312 
L 122.185539 150.961655 
L 120.566972 150.961655 
z
" clip-path="url(#p0194c3b95e)" style="fill: #1f77b4"/>
   </g>
   <g id="patch_41">
    <path d="M 122.185539 273.312 
L 123.804106 273.312 
L 123.804106 141.494069 
L 122.185539 141.494069 
z
" clip-path="url(#p0194c3b95e)" style="fill: #1f77b4"/>
   </g>
   <g id="patch_42">
    <path d="M 123.804106 273.312 
L 125.422673 273.312 
L 125.422673 134.21131 
L 123.804106 134.21131 
z
" clip-path="url(#p0194c3b95e)" style="fill: #1f77b4"/>
   </g>
   <g id="patch_43">
    <path d="M 125.422673 273.312 
L 127.041239 273.312 
L 127.041239 145.135448 
L 125.422673 145.135448 
z
" clip-path="url(#p0194c3b95e)" style="fill: #1f77b4"/>
   </g>
   <g id="patch_44">
    <path d="M 127.041239 273.312 
L 128.659806 273.312 
L 128.659806 132.026483 
L 127.041239 132.026483 
z
" clip-path="url(#p0194c3b95e)" style="fill: #1f77b4"/>
   </g>
   <g id="patch_45">
    <path d="M 128.659806 273.312 
L 130.278373 273.312 
L 130.278373 134.21131 
L 128.659806 134.21131 
z
" clip-path="url(#p0194c3b95e)" style="fill: #1f77b4"/>
   </g>
   <g id="patch_46">
    <path d="M 130.278373 273.312 
L 131.896939 273.312 
L 131.896939 129.841655 
L 130.278373 129.841655 
z
" clip-path="url(#p0194c3b95e)" style="fill: #1f77b4"/>
   </g>
   <g id="patch_47">
    <path d="M 131.896939 273.312 
L 133.515506 273.312 
L 133.515506 120.374069 
L 131.896939 120.374069 
z
" clip-path="url(#p0194c3b95e)" style="fill: #1f77b4"/>
   </g>
   <g id="patch_48">
    <path d="M 133.515506 273.312 
L 135.134073 273.312 
L 135.134073 130.569931 
L 133.515506 130.569931 
z
" clip-path="url(#p0194c3b95e)" style="fill: #1f77b4"/>
   </g>
   <g id="patch_49">
    <path d="M 135.134073 273.312 
L 136.75264 273.312 
L 136.75264 127.656828 
L 135.134073 127.656828 
z
" clip-path="url(#p0194c3b95e)" style="fill: #1f77b4"/>
   </g>
   <g id="patch_50">
    <path d="M 136.75264 273.312 
L 138.371206 273.312 
L 138.371206 105.808552 
L 136.75264 105.808552 
z
" clip-path="url(#p0194c3b95e)" style="fill: #1f77b4"/>
   </g>
   <g id="patch_51">
    <path d="M 138.371206 273.312 
L 139.989773 273.312 
L 139.989773 97.797517 
L 138.371206 97.797517 
z
" clip-path="url(#p0194c3b95e)" style="fill: #1f77b4"/>
   </g>
   <g id="patch_52">
    <path d="M 139.989773 273.312 
L 141.60834 273.312 
L 141.60834 105.080276 
L 139.989773 105.080276 
z
" clip-path="url(#p0194c3b95e)" style="fill: #1f77b4"/>
   </g>
   <g id="patch_53">
    <path d="M 141.60834 273.312 
L 143.226906 273.312 
L 143.226906 107.265103 
L 141.60834 107.265103 
z
" clip-path="url(#p0194c3b95e)" style="fill: #1f77b4"/>
   </g>
   <g id="patch_54">
    <path d="M 143.226906 273.312 
L 144.845473 273.312 
L 144.845473 116.73269 
L 143.226906 116.73269 
z
" clip-path="url(#p0194c3b95e)" style="fill: #1f77b4"/>
   </g>
   <g id="patch_55">
    <path d="M 144.845473 273.312 
L 146.46404 273.312 
L 146.46404 113.819586 
L 144.845473 113.819586 
z
" clip-path="url(#p0194c3b95e)" style="fill: #1f77b4"/>
   </g>
   <g id="patch_56">
    <path d="M 146.46404 273.312 
L 148.082607 273.312 
L 148.082607 85.416828 
L 146.46404 85.416828 
z
" clip-path="url(#p0194c3b95e)" style="fill: #1f77b4"/>
   </g>
   <g id="patch_57">
    <path d="M 148.082607 273.312 
L 149.701173 273.312 
L 149.701173 92.699586 
L 148.082607 92.699586 
z
" clip-path="url(#p0194c3b95e)" style="fill: #1f77b4"/>
   </g>
   <g id="patch_58">
    <path d="M 149.701173 273.312 
L 151.31974 273.312 
L 151.31974 99.254069 
L 149.701173 99.254069 
z
" clip-path="url(#p0194c3b95e)" style="fill: #1f77b4"/>
   </g>
   <g id="patch_59">
    <path d="M 151.31974 273.312 
L 152.938307 273.312 
L 152.938307 83.960276 
L 151.31974 83.960276 
z
" clip-path="url(#p0194c3b95e)" style="fill: #1f77b4"/>
   </g>
   <g id="patch_60">
    <path d="M 152.938307 273.312 
L 154.556873 273.312 
L 154.556873 97.069241 
L 152.938307 97.069241 
z
" clip-path="url(#p0194c3b95e)" style="fill: #1f77b4"/>
   </g>
   <g id="patch_61">
    <path d="M 154.556873 273.312 
L 156.17544 273.312 
L 156.17544 99.254069 
L 154.556873 99.254069 
z
" clip-path="url(#p0194c3b95e)" style="fill: #1f77b4"/>
   </g>
   <g id="patch_62">
    <path d="M 156.17544 273.312 
L 157.794007 273.312 
L 157.794007 114.547862 
L 156.17544 114.547862 
z
" clip-path="url(#p0194c3b95e)" style="fill: #1f77b4"/>
   </g>
   <g id="patch_63">
    <path d="M 157.794007 273.312 
L 159.412574 273.312 
L 159.412574 89.058207 
L 157.794007 89.058207 
z
" clip-path="url(#p0194c3b95e)" style="fill: #1f77b4"/>
   </g>
   <g id="patch_64">
    <path d="M 159.412574 273.312 
L 161.03114 273.312 
L 161.03114 96.340966 
L 159.412574 96.340966 
z
" clip-path="url(#p0194c3b95e)" style="fill: #1f77b4"/>
   </g>
   <g id="patch_65">
    <path d="M 161.03114 273.312 
L 162.649707 273.312 
L 162.649707 87.601655 
L 161.03114 87.601655 
z
" clip-path="url(#p0194c3b95e)" style="fill: #1f77b4"/>
   </g>
   <g id="patch_66">
    <path d="M 162.649707 273.312 
L 164.268274 273.312 
L 164.268274 99.254069 
L 162.649707 99.254069 
z
" clip-path="url(#p0194c3b95e)" style="fill: #1f77b4"/>
   </g>
   <g id="patch_67">
    <path d="M 164.268274 273.312 
L 165.88684 273.312 
L 165.88684 86.873379 
L 164.268274 86.873379 
z
" clip-path="url(#p0194c3b95e)" style="fill: #1f77b4"/>
   </g>
   <g id="patch_68">
    <path d="M 165.88684 273.312 
L 167.505407 273.312 
L 167.505407 87.601655 
L 165.88684 87.601655 
z
" clip-path="url(#p0194c3b95e)" style="fill: #1f77b4"/>
   </g>
   <g id="patch_69">
    <path d="M 167.505407 273.312 
L 169.123974 273.312 
L 169.123974 83.960276 
L 167.505407 83.960276 
z
" clip-path="url(#p0194c3b95e)" style="fill: #1f77b4"/>
   </g>
   <g id="patch_70">
    <path d="M 169.123974 273.312 
L 170.742541 273.312 
L 170.742541 85.416828 
L 169.123974 85.416828 
z
" clip-path="url(#p0194c3b95e)" style="fill: #1f77b4"/>
   </g>
   <g id="patch_71">
    <path d="M 170.742541 273.312 
L 172.361107 273.312 
L 172.361107 59.927172 
L 170.742541 59.927172 
z
" clip-path="url(#p0194c3b95e)" style="fill: #1f77b4"/>
   </g>
   <g id="patch_72">
    <path d="M 172.361107 273.312 
L 173.979674 273.312 
L 173.979674 62.840276 
L 172.361107 62.840276 
z
" clip-path="url(#p0194c3b95e)" style="fill: #1f77b4"/>
   </g>
   <g id="patch_73">
    <path d="M 173.979674 273.312 
L 175.598241 273.312 
L 175.598241 89.058207 
L 173.979674 89.058207 
z
" clip-path="url(#p0194c3b95e)" style="fill: #1f77b4"/>
   </g>
   <g id="patch_74">
    <path d="M 175.598241 273.312 
L 177.216807 273.312 
L 177.216807 57.014069 
L 175.598241 57.014069 
z
" clip-path="url(#p0194c3b95e)" style="fill: #1f77b4"/>
   </g>
   <g id="patch_75">
    <path d="M 177.216807 273.312 
L 178.835374 273.312 
L 178.835374 64.296828 
L 177.216807 64.296828 
z
" clip-path="url(#p0194c3b95e)" style="fill: #1f77b4"/>
   </g>
   <g id="patch_76">
    <path d="M 178.835374 273.312 
L 180.453941 273.312 
L 180.453941 59.927172 
L 178.835374 59.927172 
z
" clip-path="url(#p0194c3b95e)" style="fill: #1f77b4"/>
   </g>
   <g id="patch_77">
    <path d="M 180.453941 273.312 
L 182.072508 273.312 
L 182.072508 79.590621 
L 180.453941 79.590621 
z
" clip-path="url(#p0194c3b95e)" style="fill: #1f77b4"/>
   </g>
   <g id="patch_78">
    <path d="M 182.072508 273.312 
L 183.691074 273.312 
L 183.691074 69.394759 
L 182.072508 69.394759 
z
" clip-path="url(#p0194c3b95e)" style="fill: #1f77b4"/>
   </g>
   <g id="patch_79">
    <path d="M 183.691074 273.312 
L 185.309641 273.312 
L 185.309641 74.49269 
L 183.691074 74.49269 
z
" clip-path="url(#p0194c3b95e)" style="fill: #1f77b4"/>
   </g>
   <g id="patch_80">
    <path d="M 185.309641 273.312 
L 186.928208 273.312 
L 186.928208 75.949241 
L 185.309641 75.949241 
z
" clip-path="url(#p0194c3b95e)" style="fill: #1f77b4"/>
   </g>
   <g id="patch_81">
    <path d="M 186.928208 273.312 
L 188.546774 273.312 
L 188.546774 43.905103 
L 186.928208 43.905103 
z
" clip-path="url(#p0194c3b95e)" style="fill: #1f77b4"/>
   </g>
   <g id="patch_82">
    <path d="M 188.546774 273.312 
L 190.165341 273.312 
L 190.165341 63.568552 
L 188.546774 63.568552 
z
" clip-path="url(#p0194c3b95e)" style="fill: #1f77b4"/>
   </g>
   <g id="patch_83">
    <path d="M 190.165341 273.312 
L 191.783908 273.312 
L 191.783908 72.307862 
L 190.165341 72.307862 
z
" clip-path="url(#p0194c3b95e)" style="fill: #1f77b4"/>
   </g>
   <g id="patch_84">
    <path d="M 191.783908 273.312 
L 193.402475 273.312 
L 193.402475 73.764414 
L 191.783908 73.764414 
z
" clip-path="url(#p0194c3b95e)" style="fill: #1f77b4"/>
   </g>
   <g id="patch_85">
    <path d="M 193.402475 273.312 
L 195.021041 273.312 
L 195.021041 32.25269 
L 193.402475 32.25269 
z
" clip-path="url(#p0194c3b95e)" style="fill: #1f77b4"/>
   </g>
   <g id="patch_86">
    <path d="M 195.021041 273.312 
L 196.639608 273.312 
L 196.639608 54.100966 
L 195.021041 54.100966 
z
" clip-path="url(#p0194c3b95e)" style="fill: #1f77b4"/>
   </g>
   <g id="patch_87">
    <path d="M 196.639608 273.312 
L 198.258175 273.312 
L 198.258175 58.470621 
L 196.639608 58.470621 
z
" clip-path="url(#p0194c3b95e)" style="fill: #1f77b4"/>
   </g>
   <g id="patch_88">
    <path d="M 198.258175 273.312 
L 199.876741 273.312 
L 199.876741 59.198897 
L 198.258175 59.198897 
z
" clip-path="url(#p0194c3b95e)" style="fill: #1f77b4"/>
   </g>
   <g id="patch_89">
    <path d="M 199.876741 273.312 
L 201.495308 273.312 
L 201.495308 25.698207 
L 199.876741 25.698207 
z
" clip-path="url(#p0194c3b95e)" style="fill: #1f77b4"/>
   </g>
   <g id="patch_90">
    <path d="M 201.495308 273.312 
L 203.113875 273.312 
L 203.113875 59.198897 
L 201.495308 59.198897 
z
" clip-path="url(#p0194c3b95e)" style="fill: #1f77b4"/>
   </g>
   <g id="patch_91">
    <path d="M 203.113875 273.312 
L 204.732442 273.312 
L 204.732442 64.296828 
L 203.113875 64.296828 
z
" clip-path="url(#p0194c3b95e)" style="fill: #1f77b4"/>
   </g>
   <g id="patch_92">
    <path d="M 204.732442 273.312 
L 206.351008 273.312 
L 206.351008 38.078897 
L 204.732442 38.078897 
z
" clip-path="url(#p0194c3b95e)" style="fill: #1f77b4"/>
   </g>
   <g id="patch_93">
    <path d="M 206.351008 273.312 
L 207.969575 273.312 
L 207.969575 56.285793 
L 206.351008 56.285793 
z
" clip-path="url(#p0194c3b95e)" style="fill: #1f77b4"/>
   </g>
   <g id="patch_94">
    <path d="M 207.969575 273.312 
L 209.588142 273.312 
L 209.588142 24.241655 
L 207.969575 24.241655 
z
" clip-path="url(#p0194c3b95e)" style="fill: #1f77b4"/>
   </g>
   <g id="patch_95">
    <path d="M 209.588142 273.312 
L 211.206708 273.312 
L 211.206708 19.872 
L 209.588142 19.872 
z
" clip-path="url(#p0194c3b95e)" style="fill: #1f77b4"/>
   </g>
   <g id="patch_96">
    <path d="M 211.206708 273.312 
L 212.825275 273.312 
L 212.825275 39.535448 
L 211.206708 39.535448 
z
" clip-path="url(#p0194c3b95e)" style="fill: #1f77b4"/>
   </g>
   <g id="patch_97">
    <path d="M 212.825275 273.312 
L 214.443842 273.312 
L 214.443842 81.047172 
L 212.825275 81.047172 
z
" clip-path="url(#p0194c3b95e)" style="fill: #1f77b4"/>
   </g>
   <g id="patch_98">
    <path d="M 214.443842 273.312 
L 216.062409 273.312 
L 216.062409 20.600276 
L 214.443842 20.600276 
z
" clip-path="url(#p0194c3b95e)" style="fill: #1f77b4"/>
   </g>
   <g id="patch_99">
    <path d="M 216.062409 273.312 
L 217.680975 273.312 
L 217.680975 45.361655 
L 216.062409 45.361655 
z
" clip-path="url(#p0194c3b95e)" style="fill: #1f77b4"/>
   </g>
   <g id="patch_100">
    <path d="M 217.680975 273.312 
L 219.299542 273.312 
L 219.299542 69.394759 
L 217.680975 69.394759 
z
" clip-path="url(#p0194c3b95e)" style="fill: #1f77b4"/>
   </g>
   <g id="patch_101">
    <path d="M 219.299542 273.312 
L 220.918109 273.312 
L 220.918109 32.25269 
L 219.299542 32.25269 
z
" clip-path="url(#p0194c3b95e)" style="fill: #1f77b4"/>
   </g>
   <g id="patch_102">
    <path d="M 220.918109 273.312 
L 222.536675 273.312 
L 222.536675 48.274759 
L 220.918109 48.274759 
z
" clip-path="url(#p0194c3b95e)" style="fill: #1f77b4"/>
   </g>
   <g id="patch_103">
    <path d="M 222.536675 273.312 
L 224.155242 273.312 
L 224.155242 57.742345 
L 222.536675 57.742345 
z
" clip-path="url(#p0194c3b95e)" style="fill: #1f77b4"/>
   </g>
   <g id="patch_104">
    <path d="M 224.155242 273.312 
L 225.773809 273.312 
L 225.773809 52.644414 
L 224.155242 52.644414 
z
" clip-path="url(#p0194c3b95e)" style="fill: #1f77b4"/>
   </g>
   <g id="patch_105">
    <path d="M 225.773809 273.312 
L 227.392376 273.312 
L 227.392376 32.25269 
L 225.773809 32.25269 
z
" clip-path="url(#p0194c3b95e)" style="fill: #1f77b4"/>
   </g>
   <g id="patch_106">
    <path d="M 227.392376 273.312 
L 229.010942 273.312 
L 229.010942 27.154759 
L 227.392376 27.154759 
z
" clip-path="url(#p0194c3b95e)" style="fill: #1f77b4"/>
   </g>
   <g id="patch_107">
    <path d="M 229.010942 273.312 
L 230.629509 273.312 
L 230.629509 39.535448 
L 229.010942 39.535448 
z
" clip-path="url(#p0194c3b95e)" style="fill: #1f77b4"/>
   </g>
   <g id="patch_108">
    <path d="M 230.629509 273.312 
L 232.248076 273.312 
L 232.248076 46.089931 
L 230.629509 46.089931 
z
" clip-path="url(#p0194c3b95e)" style="fill: #1f77b4"/>
   </g>
   <g id="patch_109">
    <path d="M 232.248076 273.312 
L 233.866642 273.312 
L 233.866642 32.980966 
L 232.248076 32.980966 
z
" clip-path="url(#p0194c3b95e)" style="fill: #1f77b4"/>
   </g>
   <g id="patch_110">
    <path d="M 233.866642 273.312 
L 235.485209 273.312 
L 235.485209 35.165793 
L 233.866642 35.165793 
z
" clip-path="url(#p0194c3b95e)" style="fill: #1f77b4"/>
   </g>
   <g id="patch_111">
    <path d="M 235.485209 273.312 
L 237.103776 273.312 
L 237.103776 69.394759 
L 235.485209 69.394759 
z
" clip-path="url(#p0194c3b95e)" style="fill: #1f77b4"/>
   </g>
   <g id="patch_112">
    <path d="M 237.103776 273.312 
L 238.722343 273.312 
L 238.722343 38.078897 
L 237.103776 38.078897 
z
" clip-path="url(#p0194c3b95e)" style="fill: #1f77b4"/>
   </g>
   <g id="patch_113">
    <path d="M 238.722343 273.312 
L 240.340909 273.312 
L 240.340909 48.274759 
L 238.722343 48.274759 
z
" clip-path="url(#p0194c3b95e)" style="fill: #1f77b4"/>
   </g>
   <g id="patch_114">
    <path d="M 240.340909 273.312 
L 241.959476 273.312 
L 241.959476 44.633379 
L 240.340909 44.633379 
z
" clip-path="url(#p0194c3b95e)" style="fill: #1f77b4"/>
   </g>
   <g id="patch_115">
    <path d="M 241.959476 273.312 
L 243.578043 273.312 
L 243.578043 44.633379 
L 241.959476 44.633379 
z
" clip-path="url(#p0194c3b95e)" style="fill: #1f77b4"/>
   </g>
   <g id="patch_116">
    <path d="M 243.578043 273.312 
L 245.196609 273.312 
L 245.196609 54.829241 
L 243.578043 54.829241 
z
" clip-path="url(#p0194c3b95e)" style="fill: #1f77b4"/>
   </g>
   <g id="patch_117">
    <path d="M 245.196609 273.312 
L 246.815176 273.312 
L 246.815176 57.014069 
L 245.196609 57.014069 
z
" clip-path="url(#p0194c3b95e)" style="fill: #1f77b4"/>
   </g>
   <g id="patch_118">
    <path d="M 246.815176 273.312 
L 248.433743 273.312 
L 248.433743 59.198897 
L 246.815176 59.198897 
z
" clip-path="url(#p0194c3b95e)" style="fill: #1f77b4"/>
   </g>
   <g id="patch_119">
    <path d="M 248.433743 273.312 
L 250.05231 273.312 
L 250.05231 56.285793 
L 248.433743 56.285793 
z
" clip-path="url(#p0194c3b95e)" style="fill: #1f77b4"/>
   </g>
   <g id="patch_120">
    <path d="M 250.05231 273.312 
L 251.670876 273.312 
L 251.670876 51.187862 
L 250.05231 51.187862 
z
" clip-path="url(#p0194c3b95e)" style="fill: #1f77b4"/>
   </g>
   <g id="patch_121">
    <path d="M 251.670876 273.312 
L 253.289443 273.312 
L 253.289443 49.003034 
L 251.670876 49.003034 
z
" clip-path="url(#p0194c3b95e)" style="fill: #1f77b4"/>
   </g>
   <g id="patch_122">
    <path d="M 253.289443 273.312 
L 254.90801 273.312 
L 254.90801 49.73131 
L 253.289443 49.73131 
z
" clip-path="url(#p0194c3b95e)" style="fill: #1f77b4"/>
   </g>
   <g id="patch_123">
    <path d="M 254.90801 273.312 
L 256.526576 273.312 
L 256.526576 38.807172 
L 254.90801 38.807172 
z
" clip-path="url(#p0194c3b95e)" style="fill: #1f77b4"/>
   </g>
   <g id="patch_124">
    <path d="M 256.526576 273.312 
L 258.145143 273.312 
L 258.145143 79.590621 
L 256.526576 79.590621 
z
" clip-path="url(#p0194c3b95e)" style="fill: #1f77b4"/>
   </g>
   <g id="patch_125">
    <path d="M 258.145143 273.312 
L 259.76371 273.312 
L 259.76371 58.470621 
L 258.145143 58.470621 
z
" clip-path="url(#p0194c3b95e)" style="fill: #1f77b4"/>
   </g>
   <g id="patch_126">
    <path d="M 259.76371 273.312 
L 261.382277 273.312 
L 261.382277 38.078897 
L 259.76371 38.078897 
z
" clip-path="url(#p0194c3b95e)" style="fill: #1f77b4"/>
   </g>
   <g id="patch_127">
    <path d="M 261.382277 273.312 
L 263.000843 273.312 
L 263.000843 69.394759 
L 261.382277 69.394759 
z
" clip-path="url(#p0194c3b95e)" style="fill: #1f77b4"/>
   </g>
   <g id="patch_128">
    <path d="M 263.000843 273.312 
L 264.61941 273.312 
L 264.61941 78.134069 
L 263.000843 78.134069 
z
" clip-path="url(#p0194c3b95e)" style="fill: #1f77b4"/>
   </g>
   <g id="patch_129">
    <path d="M 264.61941 273.312 
L 266.237977 273.312 
L 266.237977 67.938207 
L 264.61941 67.938207 
z
" clip-path="url(#p0194c3b95e)" style="fill: #1f77b4"/>
   </g>
   <g id="patch_130">
    <path d="M 266.237977 273.312 
L 267.856543 273.312 
L 267.856543 50.459586 
L 266.237977 50.459586 
z
" clip-path="url(#p0194c3b95e)" style="fill: #1f77b4"/>
   </g>
   <g id="patch_131">
    <path d="M 267.856543 273.312 
L 269.47511 273.312 
L 269.47511 57.742345 
L 267.856543 57.742345 
z
" clip-path="url(#p0194c3b95e)" style="fill: #1f77b4"/>
   </g>
   <g id="patch_132">
    <path d="M 269.47511 273.312 
L 271.093677 273.312 
L 271.093677 64.296828 
L 269.47511 64.296828 
z
" clip-path="url(#p0194c3b95e)" style="fill: #1f77b4"/>
   </g>
   <g id="patch_133">
    <path d="M 271.093677 273.312 
L 272.712244 273.312 
L 272.712244 67.938207 
L 271.093677 67.938207 
z
" clip-path="url(#p0194c3b95e)" style="fill: #1f77b4"/>
   </g>
   <g id="patch_134">
    <path d="M 272.712244 273.312 
L 274.33081 273.312 
L 274.33081 59.198897 
L 272.712244 59.198897 
z
" clip-path="url(#p0194c3b95e)" style="fill: #1f77b4"/>
   </g>
   <g id="patch_135">
    <path d="M 274.33081 273.312 
L 275.949377 273.312 
L 275.949377 63.568552 
L 274.33081 63.568552 
z
" clip-path="url(#p0194c3b95e)" style="fill: #1f77b4"/>
   </g>
   <g id="patch_136">
    <path d="M 275.949377 273.312 
L 277.567944 273.312 
L 277.567944 57.742345 
L 275.949377 57.742345 
z
" clip-path="url(#p0194c3b95e)" style="fill: #1f77b4"/>
   </g>
   <g id="patch_137">
    <path d="M 277.567944 273.312 
L 279.18651 273.312 
L 279.18651 60.655448 
L 277.567944 60.655448 
z
" clip-path="url(#p0194c3b95e)" style="fill: #1f77b4"/>
   </g>
   <g id="patch_138">
    <path d="M 279.18651 273.312 
L 280.805077 273.312 
L 280.805077 70.123034 
L 279.18651 70.123034 
z
" clip-path="url(#p0194c3b95e)" style="fill: #1f77b4"/>
   </g>
   <g id="patch_139">
    <path d="M 280.805077 273.312 
L 282.423644 273.312 
L 282.423644 80.318897 
L 280.805077 80.318897 
z
" clip-path="url(#p0194c3b95e)" style="fill: #1f77b4"/>
   </g>
   <g id="patch_140">
    <path d="M 282.423644 273.312 
L 284.042211 273.312 
L 284.042211 79.590621 
L 282.423644 79.590621 
z
" clip-path="url(#p0194c3b95e)" style="fill: #1f77b4"/>
   </g>
   <g id="patch_141">
    <path d="M 284.042211 273.312 
L 285.660777 273.312 
L 285.660777 92.699586 
L 284.042211 92.699586 
z
" clip-path="url(#p0194c3b95e)" style="fill: #1f77b4"/>
   </g>
   <g id="patch_142">
    <path d="M 285.660777 273.312 
L 287.279344 273.312 
L 287.279344 113.819586 
L 285.660777 113.819586 
z
" clip-path="url(#p0194c3b95e)" style="fill: #1f77b4"/>
   </g>
   <g id="patch_143">
    <path d="M 287.279344 273.312 
L 288.897911 273.312 
L 288.897911 94.884414 
L 287.279344 94.884414 
z
" clip-path="url(#p0194c3b95e)" style="fill: #1f77b4"/>
   </g>
   <g id="patch_144">
    <path d="M 288.897911 273.312 
L 290.516477 273.312 
L 290.516477 104.352 
L 288.897911 104.352 
z
" clip-path="url(#p0194c3b95e)" style="fill: #1f77b4"/>
   </g>
   <g id="patch_145">
    <path d="M 290.516477 273.312 
L 292.135044 273.312 
L 292.135044 102.167172 
L 290.516477 102.167172 
z
" clip-path="url(#p0194c3b95e)" style="fill: #1f77b4"/>
   </g>
   <g id="patch_146">
    <path d="M 292.135044 273.312 
L 293.753611 273.312 
L 293.753611 92.699586 
L 292.135044 92.699586 
z
" clip-path="url(#p0194c3b95e)" style="fill: #1f77b4"/>
   </g>
   <g id="patch_147">
    <path d="M 293.753611 273.312 
L 295.372178 273.312 
L 295.372178 114.547862 
L 293.753611 114.547862 
z
" clip-path="url(#p0194c3b95e)" style="fill: #1f77b4"/>
   </g>
   <g id="patch_148">
    <path d="M 295.372178 273.312 
L 296.990744 273.312 
L 296.990744 105.080276 
L 295.372178 105.080276 
z
" clip-path="url(#p0194c3b95e)" style="fill: #1f77b4"/>
   </g>
   <g id="patch_149">
    <path d="M 296.990744 273.312 
L 298.609311 273.312 
L 298.609311 98.525793 
L 296.990744 98.525793 
z
" clip-path="url(#p0194c3b95e)" style="fill: #1f77b4"/>
   </g>
   <g id="patch_150">
    <path d="M 298.609311 273.312 
L 300.227878 273.312 
L 300.227878 83.232 
L 298.609311 83.232 
z
" clip-path="url(#p0194c3b95e)" style="fill: #1f77b4"/>
   </g>
   <g id="patch_151">
    <path d="M 300.227878 273.312 
L 301.846444 273.312 
L 301.846444 100.710621 
L 300.227878 100.710621 
z
" clip-path="url(#p0194c3b95e)" style="fill: #1f77b4"/>
   </g>
   <g id="patch_152">
    <path d="M 301.846444 273.312 
L 303.465011 273.312 
L 303.465011 118.917517 
L 301.846444 118.917517 
z
" clip-path="url(#p0194c3b95e)" style="fill: #1f77b4"/>
   </g>
   <g id="patch_153">
    <path d="M 303.465011 273.312 
L 305.083578 273.312 
L 305.083578 109.449931 
L 303.465011 109.449931 
z
" clip-path="url(#p0194c3b95e)" style="fill: #1f77b4"/>
   </g>
   <g id="patch_154">
    <path d="M 305.083578 273.312 
L 306.702145 273.312 
L 306.702145 107.993379 
L 305.083578 107.993379 
z
" clip-path="url(#p0194c3b95e)" style="fill: #1f77b4"/>
   </g>
   <g id="patch_155">
    <path d="M 306.702145 273.312 
L 308.320711 273.312 
L 308.320711 123.287172 
L 306.702145 123.287172 
z
" clip-path="url(#p0194c3b95e)" style="fill: #1f77b4"/>
   </g>
   <g id="patch_156">
    <path d="M 308.320711 273.312 
L 309.939278 273.312 
L 309.939278 129.113379 
L 308.320711 129.113379 
z
" clip-path="url(#p0194c3b95e)" style="fill: #1f77b4"/>
   </g>
   <g id="patch_157">
    <path d="M 309.939278 273.312 
L 311.557845 273.312 
L 311.557845 135.667862 
L 309.939278 135.667862 
z
" clip-path="url(#p0194c3b95e)" style="fill: #1f77b4"/>
   </g>
   <g id="patch_158">
    <path d="M 311.557845 273.312 
L 313.176411 273.312 
L 313.176411 125.472 
L 311.557845 125.472 
z
" clip-path="url(#p0194c3b95e)" style="fill: #1f77b4"/>
   </g>
   <g id="patch_159">
    <path d="M 313.176411 273.312 
L 314.794978 273.312 
L 314.794978 134.21131 
L 313.176411 134.21131 
z
" clip-path="url(#p0194c3b95e)" style="fill: #1f77b4"/>
   </g>
   <g id="patch_160">
    <path d="M 314.794978 273.312 
L 316.413545 273.312 
L 316.413545 109.449931 
L 314.794978 109.449931 
z
" clip-path="url(#p0194c3b95e)" style="fill: #1f77b4"/>
   </g>
   <g id="patch_161">
    <path d="M 316.413545 273.312 
L 318.032112 273.312 
L 318.032112 132.026483 
L 316.413545 132.026483 
z
" clip-path="url(#p0194c3b95e)" style="fill: #1f77b4"/>
   </g>
   <g id="patch_162">
    <path d="M 318.032112 273.312 
L 319.650678 273.312 
L 319.650678 131.298207 
L 318.032112 131.298207 
z
" clip-path="url(#p0194c3b95e)" style="fill: #1f77b4"/>
   </g>
   <g id="patch_163">
    <path d="M 319.650678 273.312 
L 321.269245 273.312 
L 321.269245 140.037517 
L 319.650678 140.037517 
z
" clip-path="url(#p0194c3b95e)" style="fill: #1f77b4"/>
   </g>
   <g id="patch_164">
    <path d="M 321.269245 273.312 
L 322.887812 273.312 
L 322.887812 146.592 
L 321.269245 146.592 
z
" clip-path="url(#p0194c3b95e)" style="fill: #1f77b4"/>
   </g>
   <g id="patch_165">
    <path d="M 322.887812 273.312 
L 324.506378 273.312 
L 324.506378 142.950621 
L 322.887812 142.950621 
z
" clip-path="url(#p0194c3b95e)" style="fill: #1f77b4"/>
   </g>
   <g id="patch_166">
    <path d="M 324.506378 273.312 
L 326.124945 273.312 
L 326.124945 142.950621 
L 324.506378 142.950621 
z
" clip-path="url(#p0194c3b95e)" style="fill: #1f77b4"/>
   </g>
   <g id="patch_167">
    <path d="M 326.124945 273.312 
L 327.743512 273.312 
L 327.743512 158.97269 
L 326.124945 158.97269 
z
" clip-path="url(#p0194c3b95e)" style="fill: #1f77b4"/>
   </g>
   <g id="patch_168">
    <path d="M 327.743512 273.312 
L 329.362079 273.312 
L 329.362079 171.353379 
L 327.743512 171.353379 
z
" clip-path="url(#p0194c3b95e)" style="fill: #1f77b4"/>
   </g>
   <g id="patch_169">
    <path d="M 329.362079 273.312 
L 330.980645 273.312 
L 330.980645 147.320276 
L 329.362079 147.320276 
z
" clip-path="url(#p0194c3b95e)" style="fill: #1f77b4"/>
   </g>
   <g id="patch_170">
    <path d="M 330.980645 273.312 
L 332.599212 273.312 
L 332.599212 157.516138 
L 330.980645 157.516138 
z
" clip-path="url(#p0194c3b95e)" style="fill: #1f77b4"/>
   </g>
   <g id="patch_171">
    <path d="M 332.599212 273.312 
L 334.217779 273.312 
L 334.217779 161.885793 
L 332.599212 161.885793 
z
" clip-path="url(#p0194c3b95e)" style="fill: #1f77b4"/>
   </g>
   <g id="patch_172">
    <path d="M 334.217779 273.312 
L 335.836345 273.312 
L 335.836345 185.918897 
L 334.217779 185.918897 
z
" clip-path="url(#p0194c3b95e)" style="fill: #1f77b4"/>
   </g>
   <g id="patch_173">
    <path d="M 335.836345 273.312 
L 337.454912 273.312 
L 337.454912 165.527172 
L 335.836345 165.527172 
z
" clip-path="url(#p0194c3b95e)" style="fill: #1f77b4"/>
   </g>
   <g id="patch_174">
    <path d="M 337.454912 273.312 
L 339.073479 273.312 
L 339.073479 165.527172 
L 337.454912 165.527172 
z
" clip-path="url(#p0194c3b95e)" style="fill: #1f77b4"/>
   </g>
   <g id="patch_175">
    <path d="M 339.073479 273.312 
L 340.692046 273.312 
L 340.692046 174.266483 
L 339.073479 174.266483 
z
" clip-path="url(#p0194c3b95e)" style="fill: #1f77b4"/>
   </g>
   <g id="patch_176">
    <path d="M 340.692046 273.312 
L 342.310612 273.312 
L 342.310612 169.896828 
L 340.692046 169.896828 
z
" clip-path="url(#p0194c3b95e)" style="fill: #1f77b4"/>
   </g>
   <g id="patch_177">
    <path d="M 342.310612 273.312 
L 343.929179 273.312 
L 343.929179 172.809931 
L 342.310612 172.809931 
z
" clip-path="url(#p0194c3b95e)" style="fill: #1f77b4"/>
   </g>
   <g id="patch_178">
    <path d="M 343.929179 273.312 
L 345.547746 273.312 
L 345.547746 185.190621 
L 343.929179 185.190621 
z
" clip-path="url(#p0194c3b95e)" style="fill: #1f77b4"/>
   </g>
   <g id="patch_179">
    <path d="M 345.547746 273.312 
L 347.166312 273.312 
L 347.166312 201.940966 
L 345.547746 201.940966 
z
" clip-path="url(#p0194c3b95e)" style="fill: #1f77b4"/>
   </g>
   <g id="patch_180">
    <path d="M 347.166312 273.312 
L 348.784879 273.312 
L 348.784879 200.484414 
L 347.166312 200.484414 
z
" clip-path="url(#p0194c3b95e)" style="fill: #1f77b4"/>
   </g>
   <g id="patch_181">
    <path d="M 348.784879 273.312 
L 350.403446 273.312 
L 350.403446 190.288552 
L 348.784879 190.288552 
z
" clip-path="url(#p0194c3b95e)" style="fill: #1f77b4"/>
   </g>
   <g id="patch_182">
    <path d="M 350.403446 273.312 
L 352.022013 273.312 
L 352.022013 211.408552 
L 350.403446 211.408552 
z
" clip-path="url(#p0194c3b95e)" style="fill: #1f77b4"/>
   </g>
   <g id="patch_183">
    <path d="M 352.022013 273.312 
L 353.640579 273.312 
L 353.640579 212.136828 
L 352.022013 212.136828 
z
" clip-path="url(#p0194c3b95e)" style="fill: #1f77b4"/>
   </g>
   <g id="patch_184">
    <path d="M 353.640579 273.312 
L 355.259146 273.312 
L 355.259146 206.310621 
L 353.640579 206.310621 
z
" clip-path="url(#p0194c3b95e)" style="fill: #1f77b4"/>
   </g>
   <g id="patch_185">
    <path d="M 355.259146 273.312 
L 356.877713 273.312 
L 356.877713 210.680276 
L 355.259146 210.680276 
z
" clip-path="url(#p0194c3b95e)" style="fill: #1f77b4"/>
   </g>
   <g id="patch_186">
    <path d="M 356.877713 273.312 
L 358.496279 273.312 
L 358.496279 212.865103 
L 356.877713 212.865103 
z
" clip-path="url(#p0194c3b95e)" style="fill: #1f77b4"/>
   </g>
   <g id="patch_187">
    <path d="M 358.496279 273.312 
L 360.114846 273.312 
L 360.114846 217.234759 
L 358.496279 217.234759 
z
" clip-path="url(#p0194c3b95e)" style="fill: #1f77b4"/>
   </g>
   <g id="patch_188">
    <path d="M 360.114846 273.312 
L 361.733413 273.312 
L 361.733413 214.321655 
L 360.114846 214.321655 
z
" clip-path="url(#p0194c3b95e)" style="fill: #1f77b4"/>
   </g>
   <g id="patch_189">
    <path d="M 361.733413 273.312 
L 363.35198 273.312 
L 363.35198 220.147862 
L 361.733413 220.147862 
z
" clip-path="url(#p0194c3b95e)" style="fill: #1f77b4"/>
   </g>
   <g id="patch_190">
    <path d="M 363.35198 273.312 
L 364.970546 273.312 
L 364.970546 214.321655 
L 363.35198 214.321655 
z
" clip-path="url(#p0194c3b95e)" style="fill: #1f77b4"/>
   </g>
   <g id="patch_191">
    <path d="M 364.970546 273.312 
L 366.589113 273.312 
L 366.589113 233.985103 
L 364.970546 233.985103 
z
" clip-path="url(#p0194c3b95e)" style="fill: #1f77b4"/>
   </g>
   <g id="patch_192">
    <path d="M 366.589113 273.312 
L 368.20768 273.312 
L 368.20768 244.180966 
L 366.589113 244.180966 
z
" clip-path="url(#p0194c3b95e)" style="fill: #1f77b4"/>
   </g>
   <g id="patch_193">
    <path d="M 368.20768 273.312 
L 369.826246 273.312 
L 369.826246 242.724414 
L 368.20768 242.724414 
z
" clip-path="url(#p0194c3b95e)" style="fill: #1f77b4"/>
   </g>
   <g id="patch_194">
    <path d="M 369.826246 273.312 
L 371.444813 273.312 
L 371.444813 243.45269 
L 369.826246 243.45269 
z
" clip-path="url(#p0194c3b95e)" style="fill: #1f77b4"/>
   </g>
   <g id="patch_195">
    <path d="M 371.444813 273.312 
L 373.06338 273.312 
L 373.06338 250.735448 
L 371.444813 250.735448 
z
" clip-path="url(#p0194c3b95e)" style="fill: #1f77b4"/>
   </g>
   <g id="patch_196">
    <path d="M 373.06338 273.312 
L 374.681947 273.312 
L 374.681947 247.094069 
L 373.06338 247.094069 
z
" clip-path="url(#p0194c3b95e)" style="fill: #1f77b4"/>
   </g>
   <g id="patch_197">
    <path d="M 374.681947 273.312 
L 376.300513 273.312 
L 376.300513 252.192 
L 374.681947 252.192 
z
" clip-path="url(#p0194c3b95e)" style="fill: #1f77b4"/>
   </g>
   <g id="patch_198">
    <path d="M 376.300513 273.312 
L 377.91908 273.312 
L 377.91908 258.018207 
L 376.300513 258.018207 
z
" clip-path="url(#p0194c3b95e)" style="fill: #1f77b4"/>
   </g>
   <g id="patch_199">
    <path d="M 377.91908 273.312 
L 379.537647 273.312 
L 379.537647 261.659586 
L 377.91908 261.659586 
z
" clip-path="url(#p0194c3b95e)" style="fill: #1f77b4"/>
   </g>
   <g id="patch_200">
    <path d="M 379.537647 273.312 
L 381.156213 273.312 
L 381.156213 263.844414 
L 379.537647 263.844414 
z
" clip-path="url(#p0194c3b95e)" style="fill: #1f77b4"/>
   </g>
   <g id="patch_201">
    <path d="M 381.156213 273.312 
L 382.77478 273.312 
L 382.77478 268.214069 
L 381.156213 268.214069 
z
" clip-path="url(#p0194c3b95e)" style="fill: #1f77b4"/>
   </g>
   <g id="patch_202">
    <path d="M 382.77478 273.312 
L 384.393347 273.312 
L 384.393347 271.127172 
L 382.77478 271.127172 
z
" clip-path="url(#p0194c3b95e)" style="fill: #1f77b4"/>
   </g>
   <g id="matplotlib.axis_1">
    <g id="xtick_1">
     <g id="line2d_1">
      <defs>
       <path id="m2f9cfe7ff9" d="M 0 0 
L 0 3.5 
" style="stroke: #000000; stroke-width: 0.8"/>
      </defs>
      <g>
       <use xlink:href="#m2f9cfe7ff9" x="60.013977" y="273.312" style="stroke: #000000; stroke-width: 0.8"/>
      </g>
     </g>
     <g id="text_1">
      <!-- 0.0 -->
      <g transform="translate(52.062415 287.910437)scale(0.1 -0.1)">
       <defs>
        <path id="DejaVuSans-30" d="M 2034 4250 
Q 1547 4250 1301 3770 
Q 1056 3291 1056 2328 
Q 1056 1369 1301 889 
Q 1547 409 2034 409 
Q 2525 409 2770 889 
Q 3016 1369 3016 2328 
Q 3016 3291 2770 3770 
Q 2525 4250 2034 4250 
z
M 2034 4750 
Q 2819 4750 3233 4129 
Q 3647 3509 3647 2328 
Q 3647 1150 3233 529 
Q 2819 -91 2034 -91 
Q 1250 -91 836 529 
Q 422 1150 422 2328 
Q 422 3509 836 4129 
Q 1250 4750 2034 4750 
z
" transform="scale(0.015625)"/>
        <path id="DejaVuSans-2e" d="M 684 794 
L 1344 794 
L 1344 0 
L 684 0 
L 684 794 
z
" transform="scale(0.015625)"/>
       </defs>
       <use xlink:href="#DejaVuSans-30"/>
       <use xlink:href="#DejaVuSans-2e" x="63.623047"/>
       <use xlink:href="#DejaVuSans-30" x="95.410156"/>
      </g>
     </g>
    </g>
    <g id="xtick_2">
     <g id="line2d_2">
      <g>
       <use xlink:href="#m2f9cfe7ff9" x="101.350278" y="273.312" style="stroke: #000000; stroke-width: 0.8"/>
      </g>
     </g>
     <g id="text_2">
      <!-- 0.2 -->
      <g transform="translate(93.398715 287.910437)scale(0.1 -0.1)">
       <defs>
        <path id="DejaVuSans-32" d="M 1228 531 
L 3431 531 
L 3431 0 
L 469 0 
L 469 531 
Q 828 903 1448 1529 
Q 2069 2156 2228 2338 
Q 2531 2678 2651 2914 
Q 2772 3150 2772 3378 
Q 2772 3750 2511 3984 
Q 2250 4219 1831 4219 
Q 1534 4219 1204 4116 
Q 875 4013 500 3803 
L 500 4441 
Q 881 4594 1212 4672 
Q 1544 4750 1819 4750 
Q 2544 4750 2975 4387 
Q 3406 4025 3406 3419 
Q 3406 3131 3298 2873 
Q 3191 2616 2906 2266 
Q 2828 2175 2409 1742 
Q 1991 1309 1228 531 
z
" transform="scale(0.015625)"/>
       </defs>
       <use xlink:href="#DejaVuSans-30"/>
       <use xlink:href="#DejaVuSans-2e" x="63.623047"/>
       <use xlink:href="#DejaVuSans-32" x="95.410156"/>
      </g>
     </g>
    </g>
    <g id="xtick_3">
     <g id="line2d_3">
      <g>
       <use xlink:href="#m2f9cfe7ff9" x="142.686578" y="273.312" style="stroke: #000000; stroke-width: 0.8"/>
      </g>
     </g>
     <g id="text_3">
      <!-- 0.4 -->
      <g transform="translate(134.735016 287.910437)scale(0.1 -0.1)">
       <defs>
        <path id="DejaVuSans-34" d="M 2419 4116 
L 825 1625 
L 2419 1625 
L 2419 4116 
z
M 2253 4666 
L 3047 4666 
L 3047 1625 
L 3713 1625 
L 3713 1100 
L 3047 1100 
L 3047 0 
L 2419 0 
L 2419 1100 
L 313 1100 
L 313 1709 
L 2253 4666 
z
" transform="scale(0.015625)"/>
       </defs>
       <use xlink:href="#DejaVuSans-30"/>
       <use xlink:href="#DejaVuSans-2e" x="63.623047"/>
       <use xlink:href="#DejaVuSans-34" x="95.410156"/>
      </g>
     </g>
    </g>
    <g id="xtick_4">
     <g id="line2d_4">
      <g>
       <use xlink:href="#m2f9cfe7ff9" x="184.022879" y="273.312" style="stroke: #000000; stroke-width: 0.8"/>
      </g>
     </g>
     <g id="text_4">
      <!-- 0.6 -->
      <g transform="translate(176.071316 287.910437)scale(0.1 -0.1)">
       <defs>
        <path id="DejaVuSans-36" d="M 2113 2584 
Q 1688 2584 1439 2293 
Q 1191 2003 1191 1497 
Q 1191 994 1439 701 
Q 1688 409 2113 409 
Q 2538 409 2786 701 
Q 3034 994 3034 1497 
Q 3034 2003 2786 2293 
Q 2538 2584 2113 2584 
z
M 3366 4563 
L 3366 3988 
Q 3128 4100 2886 4159 
Q 2644 4219 2406 4219 
Q 1781 4219 1451 3797 
Q 1122 3375 1075 2522 
Q 1259 2794 1537 2939 
Q 1816 3084 2150 3084 
Q 2853 3084 3261 2657 
Q 3669 2231 3669 1497 
Q 3669 778 3244 343 
Q 2819 -91 2113 -91 
Q 1303 -91 875 529 
Q 447 1150 447 2328 
Q 447 3434 972 4092 
Q 1497 4750 2381 4750 
Q 2619 4750 2861 4703 
Q 3103 4656 3366 4563 
z
" transform="scale(0.015625)"/>
       </defs>
       <use xlink:href="#DejaVuSans-30"/>
       <use xlink:href="#DejaVuSans-2e" x="63.623047"/>
       <use xlink:href="#DejaVuSans-36" x="95.410156"/>
      </g>
     </g>
    </g>
    <g id="xtick_5">
     <g id="line2d_5">
      <g>
       <use xlink:href="#m2f9cfe7ff9" x="225.35918" y="273.312" style="stroke: #000000; stroke-width: 0.8"/>
      </g>
     </g>
     <g id="text_5">
      <!-- 0.8 -->
      <g transform="translate(217.407617 287.910437)scale(0.1 -0.1)">
       <defs>
        <path id="DejaVuSans-38" d="M 2034 2216 
Q 1584 2216 1326 1975 
Q 1069 1734 1069 1313 
Q 1069 891 1326 650 
Q 1584 409 2034 409 
Q 2484 409 2743 651 
Q 3003 894 3003 1313 
Q 3003 1734 2745 1975 
Q 2488 2216 2034 2216 
z
M 1403 2484 
Q 997 2584 770 2862 
Q 544 3141 544 3541 
Q 544 4100 942 4425 
Q 1341 4750 2034 4750 
Q 2731 4750 3128 4425 
Q 3525 4100 3525 3541 
Q 3525 3141 3298 2862 
Q 3072 2584 2669 2484 
Q 3125 2378 3379 2068 
Q 3634 1759 3634 1313 
Q 3634 634 3220 271 
Q 2806 -91 2034 -91 
Q 1263 -91 848 271 
Q 434 634 434 1313 
Q 434 1759 690 2068 
Q 947 2378 1403 2484 
z
M 1172 3481 
Q 1172 3119 1398 2916 
Q 1625 2713 2034 2713 
Q 2441 2713 2670 2916 
Q 2900 3119 2900 3481 
Q 2900 3844 2670 4047 
Q 2441 4250 2034 4250 
Q 1625 4250 1398 4047 
Q 1172 3844 1172 3481 
z
" transform="scale(0.015625)"/>
       </defs>
       <use xlink:href="#DejaVuSans-30"/>
       <use xlink:href="#DejaVuSans-2e" x="63.623047"/>
       <use xlink:href="#DejaVuSans-38" x="95.410156"/>
      </g>
     </g>
    </g>
    <g id="xtick_6">
     <g id="line2d_6">
      <g>
       <use xlink:href="#m2f9cfe7ff9" x="266.69548" y="273.312" style="stroke: #000000; stroke-width: 0.8"/>
      </g>
     </g>
     <g id="text_6">
      <!-- 1.0 -->
      <g transform="translate(258.743918 287.910437)scale(0.1 -0.1)">
       <defs>
        <path id="DejaVuSans-31" d="M 794 531 
L 1825 531 
L 1825 4091 
L 703 3866 
L 703 4441 
L 1819 4666 
L 2450 4666 
L 2450 531 
L 3481 531 
L 3481 0 
L 794 0 
L 794 531 
z
" transform="scale(0.015625)"/>
       </defs>
       <use xlink:href="#DejaVuSans-31"/>
       <use xlink:href="#DejaVuSans-2e" x="63.623047"/>
       <use xlink:href="#DejaVuSans-30" x="95.410156"/>
      </g>
     </g>
    </g>
    <g id="xtick_7">
     <g id="line2d_7">
      <g>
       <use xlink:href="#m2f9cfe7ff9" x="308.031781" y="273.312" style="stroke: #000000; stroke-width: 0.8"/>
      </g>
     </g>
     <g id="text_7">
      <!-- 1.2 -->
      <g transform="translate(300.080218 287.910437)scale(0.1 -0.1)">
       <use xlink:href="#DejaVuSans-31"/>
       <use xlink:href="#DejaVuSans-2e" x="63.623047"/>
       <use xlink:href="#DejaVuSans-32" x="95.410156"/>
      </g>
     </g>
    </g>
    <g id="xtick_8">
     <g id="line2d_8">
      <g>
       <use xlink:href="#m2f9cfe7ff9" x="349.368081" y="273.312" style="stroke: #000000; stroke-width: 0.8"/>
      </g>
     </g>
     <g id="text_8">
      <!-- 1.4 -->
      <g transform="translate(341.416519 287.910437)scale(0.1 -0.1)">
       <use xlink:href="#DejaVuSans-31"/>
       <use xlink:href="#DejaVuSans-2e" x="63.623047"/>
       <use xlink:href="#DejaVuSans-34" x="95.410156"/>
      </g>
     </g>
    </g>
    <g id="xtick_9">
     <g id="line2d_9">
      <g>
       <use xlink:href="#m2f9cfe7ff9" x="390.704382" y="273.312" style="stroke: #000000; stroke-width: 0.8"/>
      </g>
     </g>
     <g id="text_9">
      <!-- 1.6 -->
      <g transform="translate(382.752819 287.910437)scale(0.1 -0.1)">
       <use xlink:href="#DejaVuSans-31"/>
       <use xlink:href="#DejaVuSans-2e" x="63.623047"/>
       <use xlink:href="#DejaVuSans-36" x="95.410156"/>
      </g>
     </g>
    </g>
    <g id="text_10">
     <!-- Angle with normal (rad) -->
     <g transform="translate(163.023281 301.588562)scale(0.1 -0.1)">
      <defs>
       <path id="DejaVuSans-41" d="M 2188 4044 
L 1331 1722 
L 3047 1722 
L 2188 4044 
z
M 1831 4666 
L 2547 4666 
L 4325 0 
L 3669 0 
L 3244 1197 
L 1141 1197 
L 716 0 
L 50 0 
L 1831 4666 
z
" transform="scale(0.015625)"/>
       <path id="DejaVuSans-6e" d="M 3513 2113 
L 3513 0 
L 2938 0 
L 2938 2094 
Q 2938 2591 2744 2837 
Q 2550 3084 2163 3084 
Q 1697 3084 1428 2787 
Q 1159 2491 1159 1978 
L 1159 0 
L 581 0 
L 581 3500 
L 1159 3500 
L 1159 2956 
Q 1366 3272 1645 3428 
Q 1925 3584 2291 3584 
Q 2894 3584 3203 3211 
Q 3513 2838 3513 2113 
z
" transform="scale(0.015625)"/>
       <path id="DejaVuSans-67" d="M 2906 1791 
Q 2906 2416 2648 2759 
Q 2391 3103 1925 3103 
Q 1463 3103 1205 2759 
Q 947 2416 947 1791 
Q 947 1169 1205 825 
Q 1463 481 1925 481 
Q 2391 481 2648 825 
Q 2906 1169 2906 1791 
z
M 3481 434 
Q 3481 -459 3084 -895 
Q 2688 -1331 1869 -1331 
Q 1566 -1331 1297 -1286 
Q 1028 -1241 775 -1147 
L 775 -588 
Q 1028 -725 1275 -790 
Q 1522 -856 1778 -856 
Q 2344 -856 2625 -561 
Q 2906 -266 2906 331 
L 2906 616 
Q 2728 306 2450 153 
Q 2172 0 1784 0 
Q 1141 0 747 490 
Q 353 981 353 1791 
Q 353 2603 747 3093 
Q 1141 3584 1784 3584 
Q 2172 3584 2450 3431 
Q 2728 3278 2906 2969 
L 2906 3500 
L 3481 3500 
L 3481 434 
z
" transform="scale(0.015625)"/>
       <path id="DejaVuSans-6c" d="M 603 4863 
L 1178 4863 
L 1178 0 
L 603 0 
L 603 4863 
z
" transform="scale(0.015625)"/>
       <path id="DejaVuSans-65" d="M 3597 1894 
L 3597 1613 
L 953 1613 
Q 991 1019 1311 708 
Q 1631 397 2203 397 
Q 2534 397 2845 478 
Q 3156 559 3463 722 
L 3463 178 
Q 3153 47 2828 -22 
Q 2503 -91 2169 -91 
Q 1331 -91 842 396 
Q 353 884 353 1716 
Q 353 2575 817 3079 
Q 1281 3584 2069 3584 
Q 2775 3584 3186 3129 
Q 3597 2675 3597 1894 
z
M 3022 2063 
Q 3016 2534 2758 2815 
Q 2500 3097 2075 3097 
Q 1594 3097 1305 2825 
Q 1016 2553 972 2059 
L 3022 2063 
z
" transform="scale(0.015625)"/>
       <path id="DejaVuSans-20" transform="scale(0.015625)"/>
       <path id="DejaVuSans-77" d="M 269 3500 
L 844 3500 
L 1563 769 
L 2278 3500 
L 2956 3500 
L 3675 769 
L 4391 3500 
L 4966 3500 
L 4050 0 
L 3372 0 
L 2619 2869 
L 1863 0 
L 1184 0 
L 269 3500 
z
" transform="scale(0.015625)"/>
       <path id="DejaVuSans-69" d="M 603 3500 
L 1178 3500 
L 1178 0 
L 603 0 
L 603 3500 
z
M 603 4863 
L 1178 4863 
L 1178 4134 
L 603 4134 
L 603 4863 
z
" transform="scale(0.015625)"/>
       <path id="DejaVuSans-74" d="M 1172 4494 
L 1172 3500 
L 2356 3500 
L 2356 3053 
L 1172 3053 
L 1172 1153 
Q 1172 725 1289 603 
Q 1406 481 1766 481 
L 2356 481 
L 2356 0 
L 1766 0 
Q 1100 0 847 248 
Q 594 497 594 1153 
L 594 3053 
L 172 3053 
L 172 3500 
L 594 3500 
L 594 4494 
L 1172 4494 
z
" transform="scale(0.015625)"/>
       <path id="DejaVuSans-68" d="M 3513 2113 
L 3513 0 
L 2938 0 
L 2938 2094 
Q 2938 2591 2744 2837 
Q 2550 3084 2163 3084 
Q 1697 3084 1428 2787 
Q 1159 2491 1159 1978 
L 1159 0 
L 581 0 
L 581 4863 
L 1159 4863 
L 1159 2956 
Q 1366 3272 1645 3428 
Q 1925 3584 2291 3584 
Q 2894 3584 3203 3211 
Q 3513 2838 3513 2113 
z
" transform="scale(0.015625)"/>
       <path id="DejaVuSans-6f" d="M 1959 3097 
Q 1497 3097 1228 2736 
Q 959 2375 959 1747 
Q 959 1119 1226 758 
Q 1494 397 1959 397 
Q 2419 397 2687 759 
Q 2956 1122 2956 1747 
Q 2956 2369 2687 2733 
Q 2419 3097 1959 3097 
z
M 1959 3584 
Q 2709 3584 3137 3096 
Q 3566 2609 3566 1747 
Q 3566 888 3137 398 
Q 2709 -91 1959 -91 
Q 1206 -91 779 398 
Q 353 888 353 1747 
Q 353 2609 779 3096 
Q 1206 3584 1959 3584 
z
" transform="scale(0.015625)"/>
       <path id="DejaVuSans-72" d="M 2631 2963 
Q 2534 3019 2420 3045 
Q 2306 3072 2169 3072 
Q 1681 3072 1420 2755 
Q 1159 2438 1159 1844 
L 1159 0 
L 581 0 
L 581 3500 
L 1159 3500 
L 1159 2956 
Q 1341 3275 1631 3429 
Q 1922 3584 2338 3584 
Q 2397 3584 2469 3576 
Q 2541 3569 2628 3553 
L 2631 2963 
z
" transform="scale(0.015625)"/>
       <path id="DejaVuSans-6d" d="M 3328 2828 
Q 3544 3216 3844 3400 
Q 4144 3584 4550 3584 
Q 5097 3584 5394 3201 
Q 5691 2819 5691 2113 
L 5691 0 
L 5113 0 
L 5113 2094 
Q 5113 2597 4934 2840 
Q 4756 3084 4391 3084 
Q 3944 3084 3684 2787 
Q 3425 2491 3425 1978 
L 3425 0 
L 2847 0 
L 2847 2094 
Q 2847 2600 2669 2842 
Q 2491 3084 2119 3084 
Q 1678 3084 1418 2786 
Q 1159 2488 1159 1978 
L 1159 0 
L 581 0 
L 581 3500 
L 1159 3500 
L 1159 2956 
Q 1356 3278 1631 3431 
Q 1906 3584 2284 3584 
Q 2666 3584 2933 3390 
Q 3200 3197 3328 2828 
z
" transform="scale(0.015625)"/>
       <path id="DejaVuSans-61" d="M 2194 1759 
Q 1497 1759 1228 1600 
Q 959 1441 959 1056 
Q 959 750 1161 570 
Q 1363 391 1709 391 
Q 2188 391 2477 730 
Q 2766 1069 2766 1631 
L 2766 1759 
L 2194 1759 
z
M 3341 1997 
L 3341 0 
L 2766 0 
L 2766 531 
Q 2569 213 2275 61 
Q 1981 -91 1556 -91 
Q 1019 -91 701 211 
Q 384 513 384 1019 
Q 384 1609 779 1909 
Q 1175 2209 1959 2209 
L 2766 2209 
L 2766 2266 
Q 2766 2663 2505 2880 
Q 2244 3097 1772 3097 
Q 1472 3097 1187 3025 
Q 903 2953 641 2809 
L 641 3341 
Q 956 3463 1253 3523 
Q 1550 3584 1831 3584 
Q 2591 3584 2966 3190 
Q 3341 2797 3341 1997 
z
" transform="scale(0.015625)"/>
       <path id="DejaVuSans-28" d="M 1984 4856 
Q 1566 4138 1362 3434 
Q 1159 2731 1159 2009 
Q 1159 1288 1364 580 
Q 1569 -128 1984 -844 
L 1484 -844 
Q 1016 -109 783 600 
Q 550 1309 550 2009 
Q 550 2706 781 3412 
Q 1013 4119 1484 4856 
L 1984 4856 
z
" transform="scale(0.015625)"/>
       <path id="DejaVuSans-64" d="M 2906 2969 
L 2906 4863 
L 3481 4863 
L 3481 0 
L 2906 0 
L 2906 525 
Q 2725 213 2448 61 
Q 2172 -91 1784 -91 
Q 1150 -91 751 415 
Q 353 922 353 1747 
Q 353 2572 751 3078 
Q 1150 3584 1784 3584 
Q 2172 3584 2448 3432 
Q 2725 3281 2906 2969 
z
M 947 1747 
Q 947 1113 1208 752 
Q 1469 391 1925 391 
Q 2381 391 2643 752 
Q 2906 1113 2906 1747 
Q 2906 2381 2643 2742 
Q 2381 3103 1925 3103 
Q 1469 3103 1208 2742 
Q 947 2381 947 1747 
z
" transform="scale(0.015625)"/>
       <path id="DejaVuSans-29" d="M 513 4856 
L 1013 4856 
Q 1481 4119 1714 3412 
Q 1947 2706 1947 2009 
Q 1947 1309 1714 600 
Q 1481 -109 1013 -844 
L 513 -844 
Q 928 -128 1133 580 
Q 1338 1288 1338 2009 
Q 1338 2731 1133 3434 
Q 928 4138 513 4856 
z
" transform="scale(0.015625)"/>
      </defs>
      <use xlink:href="#DejaVuSans-41"/>
      <use xlink:href="#DejaVuSans-6e" x="68.408203"/>
      <use xlink:href="#DejaVuSans-67" x="131.787109"/>
      <use xlink:href="#DejaVuSans-6c" x="195.263672"/>
      <use xlink:href="#DejaVuSans-65" x="223.046875"/>
      <use xlink:href="#DejaVuSans-20" x="284.570312"/>
      <use xlink:href="#DejaVuSans-77" x="316.357422"/>
      <use xlink:href="#DejaVuSans-69" x="398.144531"/>
      <use xlink:href="#DejaVuSans-74" x="425.927734"/>
      <use xlink:href="#DejaVuSans-68" x="465.136719"/>
      <use xlink:href="#DejaVuSans-20" x="528.515625"/>
      <use xlink:href="#DejaVuSans-6e" x="560.302734"/>
      <use xlink:href="#DejaVuSans-6f" x="623.681641"/>
      <use xlink:href="#DejaVuSans-72" x="684.863281"/>
      <use xlink:href="#DejaVuSans-6d" x="724.226562"/>
      <use xlink:href="#DejaVuSans-61" x="821.638672"/>
      <use xlink:href="#DejaVuSans-6c" x="882.917969"/>
      <use xlink:href="#DejaVuSans-20" x="910.701172"/>
      <use xlink:href="#DejaVuSans-28" x="942.488281"/>
      <use xlink:href="#DejaVuSans-72" x="981.501953"/>
      <use xlink:href="#DejaVuSans-61" x="1022.615234"/>
      <use xlink:href="#DejaVuSans-64" x="1083.894531"/>
      <use xlink:href="#DejaVuSans-29" x="1147.371094"/>
     </g>
    </g>
   </g>
   <g id="matplotlib.axis_2">
    <g id="ytick_1">
     <g id="line2d_10">
      <defs>
       <path id="mbd39e8d171" d="M 0 0 
L -3.5 0 
" style="stroke: #000000; stroke-width: 0.8"/>
      </defs>
      <g>
       <use xlink:href="#mbd39e8d171" x="43.78125" y="273.312" style="stroke: #000000; stroke-width: 0.8"/>
      </g>
     </g>
     <g id="text_11">
      <!-- 0.0 -->
      <g transform="translate(20.878125 277.111219)scale(0.1 -0.1)">
       <use xlink:href="#DejaVuSans-30"/>
       <use xlink:href="#DejaVuSans-2e" x="63.623047"/>
       <use xlink:href="#DejaVuSans-30" x="95.410156"/>
      </g>
     </g>
    </g>
    <g id="ytick_2">
     <g id="line2d_11">
      <g>
       <use xlink:href="#mbd39e8d171" x="43.78125" y="227.685737" style="stroke: #000000; stroke-width: 0.8"/>
      </g>
     </g>
     <g id="text_12">
      <!-- 0.2 -->
      <g transform="translate(20.878125 231.484956)scale(0.1 -0.1)">
       <use xlink:href="#DejaVuSans-30"/>
       <use xlink:href="#DejaVuSans-2e" x="63.623047"/>
       <use xlink:href="#DejaVuSans-32" x="95.410156"/>
      </g>
     </g>
    </g>
    <g id="ytick_3">
     <g id="line2d_12">
      <g>
       <use xlink:href="#mbd39e8d171" x="43.78125" y="182.059474" style="stroke: #000000; stroke-width: 0.8"/>
      </g>
     </g>
     <g id="text_13">
      <!-- 0.4 -->
      <g transform="translate(20.878125 185.858693)scale(0.1 -0.1)">
       <use xlink:href="#DejaVuSans-30"/>
       <use xlink:href="#DejaVuSans-2e" x="63.623047"/>
       <use xlink:href="#DejaVuSans-34" x="95.410156"/>
      </g>
     </g>
    </g>
    <g id="ytick_4">
     <g id="line2d_13">
      <g>
       <use xlink:href="#mbd39e8d171" x="43.78125" y="136.433212" style="stroke: #000000; stroke-width: 0.8"/>
      </g>
     </g>
     <g id="text_14">
      <!-- 0.6 -->
      <g transform="translate(20.878125 140.23243)scale(0.1 -0.1)">
       <use xlink:href="#DejaVuSans-30"/>
       <use xlink:href="#DejaVuSans-2e" x="63.623047"/>
       <use xlink:href="#DejaVuSans-36" x="95.410156"/>
      </g>
     </g>
    </g>
    <g id="ytick_5">
     <g id="line2d_14">
      <g>
       <use xlink:href="#mbd39e8d171" x="43.78125" y="90.806949" style="stroke: #000000; stroke-width: 0.8"/>
      </g>
     </g>
     <g id="text_15">
      <!-- 0.8 -->
      <g transform="translate(20.878125 94.606168)scale(0.1 -0.1)">
       <use xlink:href="#DejaVuSans-30"/>
       <use xlink:href="#DejaVuSans-2e" x="63.623047"/>
       <use xlink:href="#DejaVuSans-38" x="95.410156"/>
      </g>
     </g>
    </g>
    <g id="ytick_6">
     <g id="line2d_15">
      <g>
       <use xlink:href="#mbd39e8d171" x="43.78125" y="45.180686" style="stroke: #000000; stroke-width: 0.8"/>
      </g>
     </g>
     <g id="text_16">
      <!-- 1.0 -->
      <g transform="translate(20.878125 48.979905)scale(0.1 -0.1)">
       <use xlink:href="#DejaVuSans-31"/>
       <use xlink:href="#DejaVuSans-2e" x="63.623047"/>
       <use xlink:href="#DejaVuSans-30" x="95.410156"/>
      </g>
     </g>
    </g>
    <g id="text_17">
     <!-- Probability density -->
     <g transform="translate(14.798438 186.606781)rotate(-90)scale(0.1 -0.1)">
      <defs>
       <path id="DejaVuSans-50" d="M 1259 4147 
L 1259 2394 
L 2053 2394 
Q 2494 2394 2734 2622 
Q 2975 2850 2975 3272 
Q 2975 3691 2734 3919 
Q 2494 4147 2053 4147 
L 1259 4147 
z
M 628 4666 
L 2053 4666 
Q 2838 4666 3239 4311 
Q 3641 3956 3641 3272 
Q 3641 2581 3239 2228 
Q 2838 1875 2053 1875 
L 1259 1875 
L 1259 0 
L 628 0 
L 628 4666 
z
" transform="scale(0.015625)"/>
       <path id="DejaVuSans-62" d="M 3116 1747 
Q 3116 2381 2855 2742 
Q 2594 3103 2138 3103 
Q 1681 3103 1420 2742 
Q 1159 2381 1159 1747 
Q 1159 1113 1420 752 
Q 1681 391 2138 391 
Q 2594 391 2855 752 
Q 3116 1113 3116 1747 
z
M 1159 2969 
Q 1341 3281 1617 3432 
Q 1894 3584 2278 3584 
Q 2916 3584 3314 3078 
Q 3713 2572 3713 1747 
Q 3713 922 3314 415 
Q 2916 -91 2278 -91 
Q 1894 -91 1617 61 
Q 1341 213 1159 525 
L 1159 0 
L 581 0 
L 581 4863 
L 1159 4863 
L 1159 2969 
z
" transform="scale(0.015625)"/>
       <path id="DejaVuSans-79" d="M 2059 -325 
Q 1816 -950 1584 -1140 
Q 1353 -1331 966 -1331 
L 506 -1331 
L 506 -850 
L 844 -850 
Q 1081 -850 1212 -737 
Q 1344 -625 1503 -206 
L 1606 56 
L 191 3500 
L 800 3500 
L 1894 763 
L 2988 3500 
L 3597 3500 
L 2059 -325 
z
" transform="scale(0.015625)"/>
       <path id="DejaVuSans-73" d="M 2834 3397 
L 2834 2853 
Q 2591 2978 2328 3040 
Q 2066 3103 1784 3103 
Q 1356 3103 1142 2972 
Q 928 2841 928 2578 
Q 928 2378 1081 2264 
Q 1234 2150 1697 2047 
L 1894 2003 
Q 2506 1872 2764 1633 
Q 3022 1394 3022 966 
Q 3022 478 2636 193 
Q 2250 -91 1575 -91 
Q 1294 -91 989 -36 
Q 684 19 347 128 
L 347 722 
Q 666 556 975 473 
Q 1284 391 1588 391 
Q 1994 391 2212 530 
Q 2431 669 2431 922 
Q 2431 1156 2273 1281 
Q 2116 1406 1581 1522 
L 1381 1569 
Q 847 1681 609 1914 
Q 372 2147 372 2553 
Q 372 3047 722 3315 
Q 1072 3584 1716 3584 
Q 2034 3584 2315 3537 
Q 2597 3491 2834 3397 
z
" transform="scale(0.015625)"/>
      </defs>
      <use xlink:href="#DejaVuSans-50"/>
      <use xlink:href="#DejaVuSans-72" x="58.552734"/>
      <use xlink:href="#DejaVuSans-6f" x="97.416016"/>
      <use xlink:href="#DejaVuSans-62" x="158.597656"/>
      <use xlink:href="#DejaVuSans-61" x="222.074219"/>
      <use xlink:href="#DejaVuSans-62" x="283.353516"/>
      <use xlink:href="#DejaVuSans-69" x="346.830078"/>
      <use xlink:href="#DejaVuSans-6c" x="374.613281"/>
      <use xlink:href="#DejaVuSans-69" x="402.396484"/>
      <use xlink:href="#DejaVuSans-74" x="430.179688"/>
      <use xlink:href="#DejaVuSans-79" x="469.388672"/>
      <use xlink:href="#DejaVuSans-20" x="528.568359"/>
      <use xlink:href="#DejaVuSans-64" x="560.355469"/>
      <use xlink:href="#DejaVuSans-65" x="623.832031"/>
      <use xlink:href="#DejaVuSans-6e" x="685.355469"/>
      <use xlink:href="#DejaVuSans-73" x="748.734375"/>
      <use xlink:href="#DejaVuSans-69" x="800.833984"/>
      <use xlink:href="#DejaVuSans-74" x="828.617188"/>
      <use xlink:href="#DejaVuSans-79" x="867.826172"/>
     </g>
    </g>
   </g>
   <g id="line2d_16">
    <path d="M 60.013977 273.312 
L 79.837728 229.817705 
L 90.237073 207.539646 
L 99.01152 189.251224 
L 106.811029 173.499301 
L 113.960578 159.557133 
L 120.460169 147.353026 
L 126.63478 136.219764 
L 132.484411 126.123174 
L 138.009063 117.019901 
L 143.208736 108.859614 
L 148.408408 101.115581 
L 153.283101 94.251038 
L 157.832814 88.203244 
L 162.382528 82.514191 
L 166.932241 77.194905 
L 171.156975 72.595683 
L 175.381709 68.331873 
L 179.281463 64.699921 
L 183.181217 61.365012 
L 187.080972 58.331895 
L 190.655746 55.820349 
L 194.230521 53.569031 
L 197.805296 51.580634 
L 201.380071 49.857538 
L 204.629866 48.523047 
L 207.879661 47.41084 
L 211.129456 46.522017 
L 214.379252 45.857456 
L 217.629047 45.417815 
L 220.878842 45.203529 
L 224.128637 45.214808 
L 227.378433 45.451644 
L 230.628228 45.9138 
L 233.878023 46.60082 
L 237.127818 47.512025 
L 240.377614 48.646513 
L 243.627409 50.003164 
L 247.202184 51.750468 
L 250.776958 53.76287 
L 254.351733 56.037961 
L 257.926508 58.57302 
L 261.501283 61.365012 
L 265.401037 64.699921 
L 269.300791 68.331873 
L 273.200546 72.255696 
L 277.425279 76.829383 
L 281.650013 81.731406 
L 286.199727 87.368293 
L 290.74944 93.36554 
L 295.624133 100.177832 
L 300.498826 107.375296 
L 305.698498 115.459077 
L 311.22315 124.485396 
L 316.747802 133.936965 
L 322.597433 144.377984 
L 328.772044 155.846436 
L 335.596614 169.008127 
L 342.746164 183.283284 
L 350.870652 200.024053 
L 359.970079 219.306198 
L 371.019383 243.268181 
L 384.668523 273.312 
L 384.668523 273.312 
" clip-path="url(#p0194c3b95e)" style="fill: none; stroke: #ff7f0e; stroke-width: 1.5; stroke-linecap: square"/>
   </g>
   <g id="patch_203">
    <path d="M 43.78125 273.312 
L 43.78125 7.2 
" style="fill: none; stroke: #000000; stroke-width: 0.8; stroke-linejoin: miter; stroke-linecap: square"/>
   </g>
   <g id="patch_204">
    <path d="M 400.90125 273.312 
L 400.90125 7.2 
" style="fill: none; stroke: #000000; stroke-width: 0.8; stroke-linejoin: miter; stroke-linecap: square"/>
   </g>
   <g id="patch_205">
    <path d="M 43.78125 273.312 
L 400.90125 273.312 
" style="fill: none; stroke: #000000; stroke-width: 0.8; stroke-linejoin: miter; stroke-linecap: square"/>
   </g>
   <g id="patch_206">
    <path d="M 43.78125 7.2 
L 400.90125 7.2 
" style="fill: none; stroke: #000000; stroke-width: 0.8; stroke-linejoin: miter; stroke-linecap: square"/>
   </g>
  </g>
 </g>
 <defs>
  <clipPath id="p0194c3b95e">
   <rect x="43.78125" y="7.2" width="357.12" height="266.112"/>
  </clipPath>
 </defs>
</svg>
