<?xml version="1.0" encoding="utf-8" standalone="no"?>
<!DOCTYPE svg PUBLIC "-//W3C//DTD SVG 1.1//EN"
  "http://www.w3.org/Graphics/SVG/1.1/DTD/svg11.dtd">
<svg xmlns:xlink="http://www.w3.org/1999/xlink" width="408.10125pt" height="310.86825pt" viewBox="0 0 408.10125 310.86825" xmlns="http://www.w3.org/2000/svg" version="1.1">
 <metadata>
  <rdf:RDF xmlns:dc="http://purl.org/dc/elements/1.1/" xmlns:cc="http://creativecommons.org/ns#" xmlns:rdf="http://www.w3.org/1999/02/22-rdf-syntax-ns#">
   <cc:Work>
    <dc:type rdf:resource="http://purl.org/dc/dcmitype/StillImage"/>
    <dc:date>2022-12-26T15:01:31.286855</dc:date>
    <dc:format>image/svg+xml</dc:format>
    <dc:creator>
     <cc:Agent>
      <dc:title>Matplotlib v3.5.3, https://matplotlib.org/</dc:title>
     </cc:Agent>
    </dc:creator>
   </cc:Work>
  </rdf:RDF>
 </metadata>
 <defs>
  <style type="text/css">*{stroke-linejoin: round; stroke-linecap: butt}</style>
 </defs>
 <g id="figure_1">
  <g id="patch_1">
   <path d="M 0 310.86825 
L 408.10125 310.86825 
L 408.10125 0 
L 0 0 
z
" style="fill: #ffffff"/>
  </g>
  <g id="axes_1">
   <g id="patch_2">
    <path d="M 43.78125 273.312 
L 400.90125 273.312 
L 400.90125 7.2 
L 43.78125 7.2 
z
" style="fill: #ffffff"/>
   </g>
   <g id="patch_3">
    <path d="M 61.067113 273.312 
L 62.678224 273.312 
L 62.678224 270.373565 
L 61.067113 270.373565 
z
" clip-path="url(#p7c475f284e)" style="fill: #1f77b4"/>
   </g>
   <g id="patch_4">
    <path d="M 62.678224 273.312 
L 64.289335 273.312 
L 64.289335 262.29287 
L 62.678224 262.29287 
z
" clip-path="url(#p7c475f284e)" style="fill: #1f77b4"/>
   </g>
   <g id="patch_5">
    <path d="M 64.289335 273.312 
L 65.900446 273.312 
L 65.900446 257.885217 
L 64.289335 257.885217 
z
" clip-path="url(#p7c475f284e)" style="fill: #1f77b4"/>
   </g>
   <g id="patch_6">
    <path d="M 65.900446 273.312 
L 67.511557 273.312 
L 67.511557 257.150609 
L 65.900446 257.150609 
z
" clip-path="url(#p7c475f284e)" style="fill: #1f77b4"/>
   </g>
   <g id="patch_7">
    <path d="M 67.511557 273.312 
L 69.122667 273.312 
L 69.122667 254.212174 
L 67.511557 254.212174 
z
" clip-path="url(#p7c475f284e)" style="fill: #1f77b4"/>
   </g>
   <g id="patch_8">
    <path d="M 69.122667 273.312 
L 70.733778 273.312 
L 70.733778 248.335304 
L 69.122667 248.335304 
z
" clip-path="url(#p7c475f284e)" style="fill: #1f77b4"/>
   </g>
   <g id="patch_9">
    <path d="M 70.733778 273.312 
L 72.344889 273.312 
L 72.344889 257.885217 
L 70.733778 257.885217 
z
" clip-path="url(#p7c475f284e)" style="fill: #1f77b4"/>
   </g>
   <g id="patch_10">
    <path d="M 72.344889 273.312 
L 73.956 273.312 
L 73.956 240.254609 
L 72.344889 240.254609 
z
" clip-path="url(#p7c475f284e)" style="fill: #1f77b4"/>
   </g>
   <g id="patch_11">
    <path d="M 73.956 273.312 
L 75.567111 273.312 
L 75.567111 240.254609 
L 73.956 240.254609 
z
" clip-path="url(#p7c475f284e)" style="fill: #1f77b4"/>
   </g>
   <g id="patch_12">
    <path d="M 75.567111 273.312 
L 77.178222 273.312 
L 77.178222 234.377739 
L 75.567111 234.377739 
z
" clip-path="url(#p7c475f284e)" style="fill: #1f77b4"/>
   </g>
   <g id="patch_13">
    <path d="M 77.178222 273.312 
L 78.789333 273.312 
L 78.789333 240.989217 
L 77.178222 240.989217 
z
" clip-path="url(#p7c475f284e)" style="fill: #1f77b4"/>
   </g>
   <g id="patch_14">
    <path d="M 78.789333 273.312 
L 80.400444 273.312 
L 80.400444 227.031652 
L 78.789333 227.031652 
z
" clip-path="url(#p7c475f284e)" style="fill: #1f77b4"/>
   </g>
   <g id="patch_15">
    <path d="M 80.400444 273.312 
L 82.011555 273.312 
L 82.011555 238.050783 
L 80.400444 238.050783 
z
" clip-path="url(#p7c475f284e)" style="fill: #1f77b4"/>
   </g>
   <g id="patch_16">
    <path d="M 82.011555 273.312 
L 83.622665 273.312 
L 83.622665 227.766261 
L 82.011555 227.766261 
z
" clip-path="url(#p7c475f284e)" style="fill: #1f77b4"/>
   </g>
   <g id="patch_17">
    <path d="M 83.622665 273.312 
L 85.233776 273.312 
L 85.233776 214.543304 
L 83.622665 214.543304 
z
" clip-path="url(#p7c475f284e)" style="fill: #1f77b4"/>
   </g>
   <g id="patch_18">
    <path d="M 85.233776 273.312 
L 86.844887 273.312 
L 86.844887 227.031652 
L 85.233776 227.031652 
z
" clip-path="url(#p7c475f284e)" style="fill: #1f77b4"/>
   </g>
   <g id="patch_19">
    <path d="M 86.844887 273.312 
L 88.455998 273.312 
L 88.455998 220.420174 
L 86.844887 220.420174 
z
" clip-path="url(#p7c475f284e)" style="fill: #1f77b4"/>
   </g>
   <g id="patch_20">
    <path d="M 88.455998 273.312 
L 90.067109 273.312 
L 90.067109 211.60487 
L 88.455998 211.60487 
z
" clip-path="url(#p7c475f284e)" style="fill: #1f77b4"/>
   </g>
   <g id="patch_21">
    <path d="M 90.067109 273.312 
L 91.67822 273.312 
L 91.67822 212.339478 
L 90.067109 212.339478 
z
" clip-path="url(#p7c475f284e)" style="fill: #1f77b4"/>
   </g>
   <g id="patch_22">
    <path d="M 91.67822 273.312 
L 93.289331 273.312 
L 93.289331 203.524174 
L 91.67822 203.524174 
z
" clip-path="url(#p7c475f284e)" style="fill: #1f77b4"/>
   </g>
   <g id="patch_23">
    <path d="M 93.289331 273.312 
L 94.900442 273.312 
L 94.900442 205.728 
L 93.289331 205.728 
z
" clip-path="url(#p7c475f284e)" style="fill: #1f77b4"/>
   </g>
   <g id="patch_24">
    <path d="M 94.900442 273.312 
L 96.511552 273.312 
L 96.511552 191.035826 
L 94.900442 191.035826 
z
" clip-path="url(#p7c475f284e)" style="fill: #1f77b4"/>
   </g>
   <g id="patch_25">
    <path d="M 96.511552 273.312 
L 98.122663 273.312 
L 98.122663 195.443478 
L 96.511552 195.443478 
z
" clip-path="url(#p7c475f284e)" style="fill: #1f77b4"/>
   </g>
   <g id="patch_26">
    <path d="M 98.122663 273.312 
L 99.733774 273.312 
L 99.733774 184.424348 
L 98.122663 184.424348 
z
" clip-path="url(#p7c475f284e)" style="fill: #1f77b4"/>
   </g>
   <g id="patch_27">
    <path d="M 99.733774 273.312 
L 101.344885 273.312 
L 101.344885 190.301217 
L 99.733774 190.301217 
z
" clip-path="url(#p7c475f284e)" style="fill: #1f77b4"/>
   </g>
   <g id="patch_28">
    <path d="M 101.344885 273.312 
L 102.955996 273.312 
L 102.955996 182.95513 
L 101.344885 182.95513 
z
" clip-path="url(#p7c475f284e)" style="fill: #1f77b4"/>
   </g>
   <g id="patch_29">
    <path d="M 102.955996 273.312 
L 104.567107 273.312 
L 104.567107 175.609043 
L 102.955996 175.609043 
z
" clip-path="url(#p7c475f284e)" style="fill: #1f77b4"/>
   </g>
   <g id="patch_30">
    <path d="M 104.567107 273.312 
L 106.178218 273.312 
L 106.178218 174.139826 
L 104.567107 174.139826 
z
" clip-path="url(#p7c475f284e)" style="fill: #1f77b4"/>
   </g>
   <g id="patch_31">
    <path d="M 106.178218 273.312 
L 107.789329 273.312 
L 107.789329 165.324522 
L 106.178218 165.324522 
z
" clip-path="url(#p7c475f284e)" style="fill: #1f77b4"/>
   </g>
   <g id="patch_32">
    <path d="M 107.789329 273.312 
L 109.40044 273.312 
L 109.40044 159.447652 
L 107.789329 159.447652 
z
" clip-path="url(#p7c475f284e)" style="fill: #1f77b4"/>
   </g>
   <g id="patch_33">
    <path d="M 109.40044 273.312 
L 111.01155 273.312 
L 111.01155 157.243826 
L 109.40044 157.243826 
z
" clip-path="url(#p7c475f284e)" style="fill: #1f77b4"/>
   </g>
   <g id="patch_34">
    <path d="M 111.01155 273.312 
L 112.622661 273.312 
L 112.622661 165.324522 
L 111.01155 165.324522 
z
" clip-path="url(#p7c475f284e)" style="fill: #1f77b4"/>
   </g>
   <g id="patch_35">
    <path d="M 112.622661 273.312 
L 114.233772 273.312 
L 114.233772 166.793739 
L 112.622661 166.793739 
z
" clip-path="url(#p7c475f284e)" style="fill: #1f77b4"/>
   </g>
   <g id="patch_36">
    <path d="M 114.233772 273.312 
L 115.844883 273.312 
L 115.844883 155.774609 
L 114.233772 155.774609 
z
" clip-path="url(#p7c475f284e)" style="fill: #1f77b4"/>
   </g>
   <g id="patch_37">
    <path d="M 115.844883 273.312 
L 117.455994 273.312 
L 117.455994 155.04 
L 115.844883 155.04 
z
" clip-path="url(#p7c475f284e)" style="fill: #1f77b4"/>
   </g>
   <g id="patch_38">
    <path d="M 117.455994 273.312 
L 119.067105 273.312 
L 119.067105 144.02087 
L 117.455994 144.02087 
z
" clip-path="url(#p7c475f284e)" style="fill: #1f77b4"/>
   </g>
   <g id="patch_39">
    <path d="M 119.067105 273.312 
L 120.678216 273.312 
L 120.678216 155.774609 
L 119.067105 155.774609 
z
" clip-path="url(#p7c475f284e)" style="fill: #1f77b4"/>
   </g>
   <g id="patch_40">
    <path d="M 120.678216 273.312 
L 122.289327 273.312 
L 122.289327 135.205565 
L 120.678216 135.205565 
z
" clip-path="url(#p7c475f284e)" style="fill: #1f77b4"/>
   </g>
   <g id="patch_41">
    <path d="M 122.289327 273.312 
L 123.900438 273.312 
L 123.900438 140.347826 
L 122.289327 140.347826 
z
" clip-path="url(#p7c475f284e)" style="fill: #1f77b4"/>
   </g>
   <g id="patch_42">
    <path d="M 123.900438 273.312 
L 125.511548 273.312 
L 125.511548 131.532522 
L 123.900438 131.532522 
z
" clip-path="url(#p7c475f284e)" style="fill: #1f77b4"/>
   </g>
   <g id="patch_43">
    <path d="M 125.511548 273.312 
L 127.122659 273.312 
L 127.122659 127.12487 
L 125.511548 127.12487 
z
" clip-path="url(#p7c475f284e)" style="fill: #1f77b4"/>
   </g>
   <g id="patch_44">
    <path d="M 127.122659 273.312 
L 128.73377 273.312 
L 128.73377 129.328696 
L 127.122659 129.328696 
z
" clip-path="url(#p7c475f284e)" style="fill: #1f77b4"/>
   </g>
   <g id="patch_45">
    <path d="M 128.73377 273.312 
L 130.344881 273.312 
L 130.344881 140.347826 
L 128.73377 140.347826 
z
" clip-path="url(#p7c475f284e)" style="fill: #1f77b4"/>
   </g>
   <g id="patch_46">
    <path d="M 130.344881 273.312 
L 131.955992 273.312 
L 131.955992 127.12487 
L 130.344881 127.12487 
z
" clip-path="url(#p7c475f284e)" style="fill: #1f77b4"/>
   </g>
   <g id="patch_47">
    <path d="M 131.955992 273.312 
L 133.567103 273.312 
L 133.567103 123.451826 
L 131.955992 123.451826 
z
" clip-path="url(#p7c475f284e)" style="fill: #1f77b4"/>
   </g>
   <g id="patch_48">
    <path d="M 133.567103 273.312 
L 135.178214 273.312 
L 135.178214 115.37113 
L 133.567103 115.37113 
z
" clip-path="url(#p7c475f284e)" style="fill: #1f77b4"/>
   </g>
   <g id="patch_49">
    <path d="M 135.178214 273.312 
L 136.789325 273.312 
L 136.789325 110.22887 
L 135.178214 110.22887 
z
" clip-path="url(#p7c475f284e)" style="fill: #1f77b4"/>
   </g>
   <g id="patch_50">
    <path d="M 136.789325 273.312 
L 138.400436 273.312 
L 138.400436 121.248 
L 136.789325 121.248 
z
" clip-path="url(#p7c475f284e)" style="fill: #1f77b4"/>
   </g>
   <g id="patch_51">
    <path d="M 138.400436 273.312 
L 140.011546 273.312 
L 140.011546 99.944348 
L 138.400436 99.944348 
z
" clip-path="url(#p7c475f284e)" style="fill: #1f77b4"/>
   </g>
   <g id="patch_52">
    <path d="M 140.011546 273.312 
L 141.622657 273.312 
L 141.622657 112.432696 
L 140.011546 112.432696 
z
" clip-path="url(#p7c475f284e)" style="fill: #1f77b4"/>
   </g>
   <g id="patch_53">
    <path d="M 141.622657 273.312 
L 143.233768 273.312 
L 143.233768 105.821217 
L 141.622657 105.821217 
z
" clip-path="url(#p7c475f284e)" style="fill: #1f77b4"/>
   </g>
   <g id="patch_54">
    <path d="M 143.233768 273.312 
L 144.844879 273.312 
L 144.844879 101.413565 
L 143.233768 101.413565 
z
" clip-path="url(#p7c475f284e)" style="fill: #1f77b4"/>
   </g>
   <g id="patch_55">
    <path d="M 144.844879 273.312 
L 146.45599 273.312 
L 146.45599 80.844522 
L 144.844879 80.844522 
z
" clip-path="url(#p7c475f284e)" style="fill: #1f77b4"/>
   </g>
   <g id="patch_56">
    <path d="M 146.45599 273.312 
L 148.067101 273.312 
L 148.067101 104.352 
L 146.45599 104.352 
z
" clip-path="url(#p7c475f284e)" style="fill: #1f77b4"/>
   </g>
   <g id="patch_57">
    <path d="M 148.067101 273.312 
L 149.678212 273.312 
L 149.678212 70.56 
L 148.067101 70.56 
z
" clip-path="url(#p7c475f284e)" style="fill: #1f77b4"/>
   </g>
   <g id="patch_58">
    <path d="M 149.678212 273.312 
L 151.289323 273.312 
L 151.289323 119.044174 
L 149.678212 119.044174 
z
" clip-path="url(#p7c475f284e)" style="fill: #1f77b4"/>
   </g>
   <g id="patch_59">
    <path d="M 151.289323 273.312 
L 152.900433 273.312 
L 152.900433 77.171478 
L 151.289323 77.171478 
z
" clip-path="url(#p7c475f284e)" style="fill: #1f77b4"/>
   </g>
   <g id="patch_60">
    <path d="M 152.900433 273.312 
L 154.511544 273.312 
L 154.511544 98.47513 
L 152.900433 98.47513 
z
" clip-path="url(#p7c475f284e)" style="fill: #1f77b4"/>
   </g>
   <g id="patch_61">
    <path d="M 154.511544 273.312 
L 156.122655 273.312 
L 156.122655 85.986783 
L 154.511544 85.986783 
z
" clip-path="url(#p7c475f284e)" style="fill: #1f77b4"/>
   </g>
   <g id="patch_62">
    <path d="M 156.122655 273.312 
L 157.733766 273.312 
L 157.733766 92.598261 
L 156.122655 92.598261 
z
" clip-path="url(#p7c475f284e)" style="fill: #1f77b4"/>
   </g>
   <g id="patch_63">
    <path d="M 157.733766 273.312 
L 159.344877 273.312 
L 159.344877 83.048348 
L 157.733766 83.048348 
z
" clip-path="url(#p7c475f284e)" style="fill: #1f77b4"/>
   </g>
   <g id="patch_64">
    <path d="M 159.344877 273.312 
L 160.955988 273.312 
L 160.955988 72.763826 
L 159.344877 72.763826 
z
" clip-path="url(#p7c475f284e)" style="fill: #1f77b4"/>
   </g>
   <g id="patch_65">
    <path d="M 160.955988 273.312 
L 162.567099 273.312 
L 162.567099 60.275478 
L 160.955988 60.275478 
z
" clip-path="url(#p7c475f284e)" style="fill: #1f77b4"/>
   </g>
   <g id="patch_66">
    <path d="M 162.567099 273.312 
L 164.17821 273.312 
L 164.17821 99.209739 
L 162.567099 99.209739 
z
" clip-path="url(#p7c475f284e)" style="fill: #1f77b4"/>
   </g>
   <g id="patch_67">
    <path d="M 164.17821 273.312 
L 165.789321 273.312 
L 165.789321 72.763826 
L 164.17821 72.763826 
z
" clip-path="url(#p7c475f284e)" style="fill: #1f77b4"/>
   </g>
   <g id="patch_68">
    <path d="M 165.789321 273.312 
L 167.400431 273.312 
L 167.400431 77.906087 
L 165.789321 77.906087 
z
" clip-path="url(#p7c475f284e)" style="fill: #1f77b4"/>
   </g>
   <g id="patch_69">
    <path d="M 167.400431 273.312 
L 169.011542 273.312 
L 169.011542 61.010087 
L 167.400431 61.010087 
z
" clip-path="url(#p7c475f284e)" style="fill: #1f77b4"/>
   </g>
   <g id="patch_70">
    <path d="M 169.011542 273.312 
L 170.622653 273.312 
L 170.622653 64.68313 
L 169.011542 64.68313 
z
" clip-path="url(#p7c475f284e)" style="fill: #1f77b4"/>
   </g>
   <g id="patch_71">
    <path d="M 170.622653 273.312 
L 172.233764 273.312 
L 172.233764 76.43687 
L 170.622653 76.43687 
z
" clip-path="url(#p7c475f284e)" style="fill: #1f77b4"/>
   </g>
   <g id="patch_72">
    <path d="M 172.233764 273.312 
L 173.844875 273.312 
L 173.844875 74.233043 
L 172.233764 74.233043 
z
" clip-path="url(#p7c475f284e)" style="fill: #1f77b4"/>
   </g>
   <g id="patch_73">
    <path d="M 173.844875 273.312 
L 175.455986 273.312 
L 175.455986 70.56 
L 173.844875 70.56 
z
" clip-path="url(#p7c475f284e)" style="fill: #1f77b4"/>
   </g>
   <g id="patch_74">
    <path d="M 175.455986 273.312 
L 177.067097 273.312 
L 177.067097 80.844522 
L 175.455986 80.844522 
z
" clip-path="url(#p7c475f284e)" style="fill: #1f77b4"/>
   </g>
   <g id="patch_75">
    <path d="M 177.067097 273.312 
L 178.678208 273.312 
L 178.678208 82.313739 
L 177.067097 82.313739 
z
" clip-path="url(#p7c475f284e)" style="fill: #1f77b4"/>
   </g>
   <g id="patch_76">
    <path d="M 178.678208 273.312 
L 180.289319 273.312 
L 180.289319 66.152348 
L 178.678208 66.152348 
z
" clip-path="url(#p7c475f284e)" style="fill: #1f77b4"/>
   </g>
   <g id="patch_77">
    <path d="M 180.289319 273.312 
L 181.900429 273.312 
L 181.900429 58.071652 
L 180.289319 58.071652 
z
" clip-path="url(#p7c475f284e)" style="fill: #1f77b4"/>
   </g>
   <g id="patch_78">
    <path d="M 181.900429 273.312 
L 183.51154 273.312 
L 183.51154 62.479304 
L 181.900429 62.479304 
z
" clip-path="url(#p7c475f284e)" style="fill: #1f77b4"/>
   </g>
   <g id="patch_79">
    <path d="M 183.51154 273.312 
L 185.122651 273.312 
L 185.122651 69.825391 
L 183.51154 69.825391 
z
" clip-path="url(#p7c475f284e)" style="fill: #1f77b4"/>
   </g>
   <g id="patch_80">
    <path d="M 185.122651 273.312 
L 186.733762 273.312 
L 186.733762 65.417739 
L 185.122651 65.417739 
z
" clip-path="url(#p7c475f284e)" style="fill: #1f77b4"/>
   </g>
   <g id="patch_81">
    <path d="M 186.733762 273.312 
L 188.344873 273.312 
L 188.344873 70.56 
L 186.733762 70.56 
z
" clip-path="url(#p7c475f284e)" style="fill: #1f77b4"/>
   </g>
   <g id="patch_82">
    <path d="M 188.344873 273.312 
L 189.955984 273.312 
L 189.955984 68.356174 
L 188.344873 68.356174 
z
" clip-path="url(#p7c475f284e)" style="fill: #1f77b4"/>
   </g>
   <g id="patch_83">
    <path d="M 189.955984 273.312 
L 191.567095 273.312 
L 191.567095 51.460174 
L 189.955984 51.460174 
z
" clip-path="url(#p7c475f284e)" style="fill: #1f77b4"/>
   </g>
   <g id="patch_84">
    <path d="M 191.567095 273.312 
L 193.178206 273.312 
L 193.178206 58.806261 
L 191.567095 58.806261 
z
" clip-path="url(#p7c475f284e)" style="fill: #1f77b4"/>
   </g>
   <g id="patch_85">
    <path d="M 193.178206 273.312 
L 194.789317 273.312 
L 194.789317 47.78713 
L 193.178206 47.78713 
z
" clip-path="url(#p7c475f284e)" style="fill: #1f77b4"/>
   </g>
   <g id="patch_86">
    <path d="M 194.789317 273.312 
L 196.400427 273.312 
L 196.400427 41.910261 
L 194.789317 41.910261 
z
" clip-path="url(#p7c475f284e)" style="fill: #1f77b4"/>
   </g>
   <g id="patch_87">
    <path d="M 196.400427 273.312 
L 198.011538 273.312 
L 198.011538 46.317913 
L 196.400427 46.317913 
z
" clip-path="url(#p7c475f284e)" style="fill: #1f77b4"/>
   </g>
   <g id="patch_88">
    <path d="M 198.011538 273.312 
L 199.622649 273.312 
L 199.622649 48.521739 
L 198.011538 48.521739 
z
" clip-path="url(#p7c475f284e)" style="fill: #1f77b4"/>
   </g>
   <g id="patch_89">
    <path d="M 199.622649 273.312 
L 201.23376 273.312 
L 201.23376 52.929391 
L 199.622649 52.929391 
z
" clip-path="url(#p7c475f284e)" style="fill: #1f77b4"/>
   </g>
   <g id="patch_90">
    <path d="M 201.23376 273.312 
L 202.844871 273.312 
L 202.844871 63.213913 
L 201.23376 63.213913 
z
" clip-path="url(#p7c475f284e)" style="fill: #1f77b4"/>
   </g>
   <g id="patch_91">
    <path d="M 202.844871 273.312 
L 204.455982 273.312 
L 204.455982 49.256348 
L 202.844871 49.256348 
z
" clip-path="url(#p7c475f284e)" style="fill: #1f77b4"/>
   </g>
   <g id="patch_92">
    <path d="M 204.455982 273.312 
L 206.067093 273.312 
L 206.067093 54.398609 
L 204.455982 54.398609 
z
" clip-path="url(#p7c475f284e)" style="fill: #1f77b4"/>
   </g>
   <g id="patch_93">
    <path d="M 206.067093 273.312 
L 207.678204 273.312 
L 207.678204 55.133217 
L 206.067093 55.133217 
z
" clip-path="url(#p7c475f284e)" style="fill: #1f77b4"/>
   </g>
   <g id="patch_94">
    <path d="M 207.678204 273.312 
L 209.289315 273.312 
L 209.289315 44.848696 
L 207.678204 44.848696 
z
" clip-path="url(#p7c475f284e)" style="fill: #1f77b4"/>
   </g>
   <g id="patch_95">
    <path d="M 209.289315 273.312 
L 210.900425 273.312 
L 210.900425 43.379478 
L 209.289315 43.379478 
z
" clip-path="url(#p7c475f284e)" style="fill: #1f77b4"/>
   </g>
   <g id="patch_96">
    <path d="M 210.900425 273.312 
L 212.511536 273.312 
L 212.511536 49.256348 
L 210.900425 49.256348 
z
" clip-path="url(#p7c475f284e)" style="fill: #1f77b4"/>
   </g>
   <g id="patch_97">
    <path d="M 212.511536 273.312 
L 214.122647 273.312 
L 214.122647 36.033391 
L 212.511536 36.033391 
z
" clip-path="url(#p7c475f284e)" style="fill: #1f77b4"/>
   </g>
   <g id="patch_98">
    <path d="M 214.122647 273.312 
L 215.733758 273.312 
L 215.733758 30.156522 
L 214.122647 30.156522 
z
" clip-path="url(#p7c475f284e)" style="fill: #1f77b4"/>
   </g>
   <g id="patch_99">
    <path d="M 215.733758 273.312 
L 217.344869 273.312 
L 217.344869 61.744696 
L 215.733758 61.744696 
z
" clip-path="url(#p7c475f284e)" style="fill: #1f77b4"/>
   </g>
   <g id="patch_100">
    <path d="M 217.344869 273.312 
L 218.95598 273.312 
L 218.95598 58.071652 
L 217.344869 58.071652 
z
" clip-path="url(#p7c475f284e)" style="fill: #1f77b4"/>
   </g>
   <g id="patch_101">
    <path d="M 218.95598 273.312 
L 220.567091 273.312 
L 220.567091 44.848696 
L 218.95598 44.848696 
z
" clip-path="url(#p7c475f284e)" style="fill: #1f77b4"/>
   </g>
   <g id="patch_102">
    <path d="M 220.567091 273.312 
L 222.178202 273.312 
L 222.178202 37.502609 
L 220.567091 37.502609 
z
" clip-path="url(#p7c475f284e)" style="fill: #1f77b4"/>
   </g>
   <g id="patch_103">
    <path d="M 222.178202 273.312 
L 223.789312 273.312 
L 223.789312 36.768 
L 222.178202 36.768 
z
" clip-path="url(#p7c475f284e)" style="fill: #1f77b4"/>
   </g>
   <g id="patch_104">
    <path d="M 223.789312 273.312 
L 225.400423 273.312 
L 225.400423 44.848696 
L 223.789312 44.848696 
z
" clip-path="url(#p7c475f284e)" style="fill: #1f77b4"/>
   </g>
   <g id="patch_105">
    <path d="M 225.400423 273.312 
L 227.011534 273.312 
L 227.011534 36.768 
L 225.400423 36.768 
z
" clip-path="url(#p7c475f284e)" style="fill: #1f77b4"/>
   </g>
   <g id="patch_106">
    <path d="M 227.011534 273.312 
L 228.622645 273.312 
L 228.622645 38.237217 
L 227.011534 38.237217 
z
" clip-path="url(#p7c475f284e)" style="fill: #1f77b4"/>
   </g>
   <g id="patch_107">
    <path d="M 228.622645 273.312 
L 230.233756 273.312 
L 230.233756 44.114087 
L 228.622645 44.114087 
z
" clip-path="url(#p7c475f284e)" style="fill: #1f77b4"/>
   </g>
   <g id="patch_108">
    <path d="M 230.233756 273.312 
L 231.844867 273.312 
L 231.844867 54.398609 
L 230.233756 54.398609 
z
" clip-path="url(#p7c475f284e)" style="fill: #1f77b4"/>
   </g>
   <g id="patch_109">
    <path d="M 231.844867 273.312 
L 233.455978 273.312 
L 233.455978 52.929391 
L 231.844867 52.929391 
z
" clip-path="url(#p7c475f284e)" style="fill: #1f77b4"/>
   </g>
   <g id="patch_110">
    <path d="M 233.455978 273.312 
L 235.067089 273.312 
L 235.067089 30.89113 
L 233.455978 30.89113 
z
" clip-path="url(#p7c475f284e)" style="fill: #1f77b4"/>
   </g>
   <g id="patch_111">
    <path d="M 235.067089 273.312 
L 236.6782 273.312 
L 236.6782 27.218087 
L 235.067089 27.218087 
z
" clip-path="url(#p7c475f284e)" style="fill: #1f77b4"/>
   </g>
   <g id="patch_112">
    <path d="M 236.6782 273.312 
L 238.28931 273.312 
L 238.28931 30.89113 
L 236.6782 30.89113 
z
" clip-path="url(#p7c475f284e)" style="fill: #1f77b4"/>
   </g>
   <g id="patch_113">
    <path d="M 238.28931 273.312 
L 239.900421 273.312 
L 239.900421 30.89113 
L 238.28931 30.89113 
z
" clip-path="url(#p7c475f284e)" style="fill: #1f77b4"/>
   </g>
   <g id="patch_114">
    <path d="M 239.900421 273.312 
L 241.511532 273.312 
L 241.511532 45.583304 
L 239.900421 45.583304 
z
" clip-path="url(#p7c475f284e)" style="fill: #1f77b4"/>
   </g>
   <g id="patch_115">
    <path d="M 241.511532 273.312 
L 243.122643 273.312 
L 243.122643 46.317913 
L 241.511532 46.317913 
z
" clip-path="url(#p7c475f284e)" style="fill: #1f77b4"/>
   </g>
   <g id="patch_116">
    <path d="M 243.122643 273.312 
L 244.733754 273.312 
L 244.733754 47.78713 
L 243.122643 47.78713 
z
" clip-path="url(#p7c475f284e)" style="fill: #1f77b4"/>
   </g>
   <g id="patch_117">
    <path d="M 244.733754 273.312 
L 246.344865 273.312 
L 246.344865 35.298783 
L 244.733754 35.298783 
z
" clip-path="url(#p7c475f284e)" style="fill: #1f77b4"/>
   </g>
   <g id="patch_118">
    <path d="M 246.344865 273.312 
L 247.955976 273.312 
L 247.955976 61.744696 
L 246.344865 61.744696 
z
" clip-path="url(#p7c475f284e)" style="fill: #1f77b4"/>
   </g>
   <g id="patch_119">
    <path d="M 247.955976 273.312 
L 249.567087 273.312 
L 249.567087 51.460174 
L 247.955976 51.460174 
z
" clip-path="url(#p7c475f284e)" style="fill: #1f77b4"/>
   </g>
   <g id="patch_120">
    <path d="M 249.567087 273.312 
L 251.178198 273.312 
L 251.178198 19.872 
L 249.567087 19.872 
z
" clip-path="url(#p7c475f284e)" style="fill: #1f77b4"/>
   </g>
   <g id="patch_121">
    <path d="M 251.178198 273.312 
L 252.789308 273.312 
L 252.789308 48.521739 
L 251.178198 48.521739 
z
" clip-path="url(#p7c475f284e)" style="fill: #1f77b4"/>
   </g>
   <g id="patch_122">
    <path d="M 252.789308 273.312 
L 254.400419 273.312 
L 254.400419 36.768 
L 252.789308 36.768 
z
" clip-path="url(#p7c475f284e)" style="fill: #1f77b4"/>
   </g>
   <g id="patch_123">
    <path d="M 254.400419 273.312 
L 256.01153 273.312 
L 256.01153 57.337043 
L 254.400419 57.337043 
z
" clip-path="url(#p7c475f284e)" style="fill: #1f77b4"/>
   </g>
   <g id="patch_124">
    <path d="M 256.01153 273.312 
L 257.622641 273.312 
L 257.622641 74.233043 
L 256.01153 74.233043 
z
" clip-path="url(#p7c475f284e)" style="fill: #1f77b4"/>
   </g>
   <g id="patch_125">
    <path d="M 257.622641 273.312 
L 259.233752 273.312 
L 259.233752 56.602435 
L 257.622641 56.602435 
z
" clip-path="url(#p7c475f284e)" style="fill: #1f77b4"/>
   </g>
   <g id="patch_126">
    <path d="M 259.233752 273.312 
L 260.844863 273.312 
L 260.844863 62.479304 
L 259.233752 62.479304 
z
" clip-path="url(#p7c475f284e)" style="fill: #1f77b4"/>
   </g>
   <g id="patch_127">
    <path d="M 260.844863 273.312 
L 262.455974 273.312 
L 262.455974 37.502609 
L 260.844863 37.502609 
z
" clip-path="url(#p7c475f284e)" style="fill: #1f77b4"/>
   </g>
   <g id="patch_128">
    <path d="M 262.455974 273.312 
L 264.067085 273.312 
L 264.067085 71.294609 
L 262.455974 71.294609 
z
" clip-path="url(#p7c475f284e)" style="fill: #1f77b4"/>
   </g>
   <g id="patch_129">
    <path d="M 264.067085 273.312 
L 265.678196 273.312 
L 265.678196 69.090783 
L 264.067085 69.090783 
z
" clip-path="url(#p7c475f284e)" style="fill: #1f77b4"/>
   </g>
   <g id="patch_130">
    <path d="M 265.678196 273.312 
L 267.289306 273.312 
L 267.289306 71.294609 
L 265.678196 71.294609 
z
" clip-path="url(#p7c475f284e)" style="fill: #1f77b4"/>
   </g>
   <g id="patch_131">
    <path d="M 267.289306 273.312 
L 268.900417 273.312 
L 268.900417 51.460174 
L 267.289306 51.460174 
z
" clip-path="url(#p7c475f284e)" style="fill: #1f77b4"/>
   </g>
   <g id="patch_132">
    <path d="M 268.900417 273.312 
L 270.511528 273.312 
L 270.511528 55.133217 
L 268.900417 55.133217 
z
" clip-path="url(#p7c475f284e)" style="fill: #1f77b4"/>
   </g>
   <g id="patch_133">
    <path d="M 270.511528 273.312 
L 272.122639 273.312 
L 272.122639 81.57913 
L 270.511528 81.57913 
z
" clip-path="url(#p7c475f284e)" style="fill: #1f77b4"/>
   </g>
   <g id="patch_134">
    <path d="M 272.122639 273.312 
L 273.73375 273.312 
L 273.73375 56.602435 
L 272.122639 56.602435 
z
" clip-path="url(#p7c475f284e)" style="fill: #1f77b4"/>
   </g>
   <g id="patch_135">
    <path d="M 273.73375 273.312 
L 275.344861 273.312 
L 275.344861 80.844522 
L 273.73375 80.844522 
z
" clip-path="url(#p7c475f284e)" style="fill: #1f77b4"/>
   </g>
   <g id="patch_136">
    <path d="M 275.344861 273.312 
L 276.955972 273.312 
L 276.955972 92.598261 
L 275.344861 92.598261 
z
" clip-path="url(#p7c475f284e)" style="fill: #1f77b4"/>
   </g>
   <g id="patch_137">
    <path d="M 276.955972 273.312 
L 278.567083 273.312 
L 278.567083 98.47513 
L 276.955972 98.47513 
z
" clip-path="url(#p7c475f284e)" style="fill: #1f77b4"/>
   </g>
   <g id="patch_138">
    <path d="M 278.567083 273.312 
L 280.178193 273.312 
L 280.178193 74.967652 
L 278.567083 74.967652 
z
" clip-path="url(#p7c475f284e)" style="fill: #1f77b4"/>
   </g>
   <g id="patch_139">
    <path d="M 280.178193 273.312 
L 281.789304 273.312 
L 281.789304 83.048348 
L 280.178193 83.048348 
z
" clip-path="url(#p7c475f284e)" style="fill: #1f77b4"/>
   </g>
   <g id="patch_140">
    <path d="M 281.789304 273.312 
L 283.400415 273.312 
L 283.400415 72.029217 
L 281.789304 72.029217 
z
" clip-path="url(#p7c475f284e)" style="fill: #1f77b4"/>
   </g>
   <g id="patch_141">
    <path d="M 283.400415 273.312 
L 285.011526 273.312 
L 285.011526 77.171478 
L 283.400415 77.171478 
z
" clip-path="url(#p7c475f284e)" style="fill: #1f77b4"/>
   </g>
   <g id="patch_142">
    <path d="M 285.011526 273.312 
L 286.622637 273.312 
L 286.622637 96.271304 
L 285.011526 96.271304 
z
" clip-path="url(#p7c475f284e)" style="fill: #1f77b4"/>
   </g>
   <g id="patch_143">
    <path d="M 286.622637 273.312 
L 288.233748 273.312 
L 288.233748 82.313739 
L 286.622637 82.313739 
z
" clip-path="url(#p7c475f284e)" style="fill: #1f77b4"/>
   </g>
   <g id="patch_144">
    <path d="M 288.233748 273.312 
L 289.844859 273.312 
L 289.844859 102.148174 
L 288.233748 102.148174 
z
" clip-path="url(#p7c475f284e)" style="fill: #1f77b4"/>
   </g>
   <g id="patch_145">
    <path d="M 289.844859 273.312 
L 291.45597 273.312 
L 291.45597 85.252174 
L 289.844859 85.252174 
z
" clip-path="url(#p7c475f284e)" style="fill: #1f77b4"/>
   </g>
   <g id="patch_146">
    <path d="M 291.45597 273.312 
L 293.067081 273.312 
L 293.067081 94.067478 
L 291.45597 94.067478 
z
" clip-path="url(#p7c475f284e)" style="fill: #1f77b4"/>
   </g>
   <g id="patch_147">
    <path d="M 293.067081 273.312 
L 294.678191 273.312 
L 294.678191 82.313739 
L 293.067081 82.313739 
z
" clip-path="url(#p7c475f284e)" style="fill: #1f77b4"/>
   </g>
   <g id="patch_148">
    <path d="M 294.678191 273.312 
L 296.289302 273.312 
L 296.289302 116.105739 
L 294.678191 116.105739 
z
" clip-path="url(#p7c475f284e)" style="fill: #1f77b4"/>
   </g>
   <g id="patch_149">
    <path d="M 296.289302 273.312 
L 297.900413 273.312 
L 297.900413 95.536696 
L 296.289302 95.536696 
z
" clip-path="url(#p7c475f284e)" style="fill: #1f77b4"/>
   </g>
   <g id="patch_150">
    <path d="M 297.900413 273.312 
L 299.511524 273.312 
L 299.511524 118.309565 
L 297.900413 118.309565 
z
" clip-path="url(#p7c475f284e)" style="fill: #1f77b4"/>
   </g>
   <g id="patch_151">
    <path d="M 299.511524 273.312 
L 301.122635 273.312 
L 301.122635 99.209739 
L 299.511524 99.209739 
z
" clip-path="url(#p7c475f284e)" style="fill: #1f77b4"/>
   </g>
   <g id="patch_152">
    <path d="M 301.122635 273.312 
L 302.733746 273.312 
L 302.733746 127.859478 
L 301.122635 127.859478 
z
" clip-path="url(#p7c475f284e)" style="fill: #1f77b4"/>
   </g>
   <g id="patch_153">
    <path d="M 302.733746 273.312 
L 304.344857 273.312 
L 304.344857 113.167304 
L 302.733746 113.167304 
z
" clip-path="url(#p7c475f284e)" style="fill: #1f77b4"/>
   </g>
   <g id="patch_154">
    <path d="M 304.344857 273.312 
L 305.955968 273.312 
L 305.955968 122.717217 
L 304.344857 122.717217 
z
" clip-path="url(#p7c475f284e)" style="fill: #1f77b4"/>
   </g>
   <g id="patch_155">
    <path d="M 305.955968 273.312 
L 307.567079 273.312 
L 307.567079 112.432696 
L 305.955968 112.432696 
z
" clip-path="url(#p7c475f284e)" style="fill: #1f77b4"/>
   </g>
   <g id="patch_156">
    <path d="M 307.567079 273.312 
L 309.178189 273.312 
L 309.178189 129.328696 
L 307.567079 129.328696 
z
" clip-path="url(#p7c475f284e)" style="fill: #1f77b4"/>
   </g>
   <g id="patch_157">
    <path d="M 309.178189 273.312 
L 310.7893 273.312 
L 310.7893 142.551652 
L 309.178189 142.551652 
z
" clip-path="url(#p7c475f284e)" style="fill: #1f77b4"/>
   </g>
   <g id="patch_158">
    <path d="M 310.7893 273.312 
L 312.400411 273.312 
L 312.400411 124.921043 
L 310.7893 124.921043 
z
" clip-path="url(#p7c475f284e)" style="fill: #1f77b4"/>
   </g>
   <g id="patch_159">
    <path d="M 312.400411 273.312 
L 314.011522 273.312 
L 314.011522 132.26713 
L 312.400411 132.26713 
z
" clip-path="url(#p7c475f284e)" style="fill: #1f77b4"/>
   </g>
   <g id="patch_160">
    <path d="M 314.011522 273.312 
L 315.622633 273.312 
L 315.622633 136.674783 
L 314.011522 136.674783 
z
" clip-path="url(#p7c475f284e)" style="fill: #1f77b4"/>
   </g>
   <g id="patch_161">
    <path d="M 315.622633 273.312 
L 317.233744 273.312 
L 317.233744 123.451826 
L 315.622633 123.451826 
z
" clip-path="url(#p7c475f284e)" style="fill: #1f77b4"/>
   </g>
   <g id="patch_162">
    <path d="M 317.233744 273.312 
L 318.844855 273.312 
L 318.844855 133.001739 
L 317.233744 133.001739 
z
" clip-path="url(#p7c475f284e)" style="fill: #1f77b4"/>
   </g>
   <g id="patch_163">
    <path d="M 318.844855 273.312 
L 320.455966 273.312 
L 320.455966 138.878609 
L 318.844855 138.878609 
z
" clip-path="url(#p7c475f284e)" style="fill: #1f77b4"/>
   </g>
   <g id="patch_164">
    <path d="M 320.455966 273.312 
L 322.067077 273.312 
L 322.067077 131.532522 
L 320.455966 131.532522 
z
" clip-path="url(#p7c475f284e)" style="fill: #1f77b4"/>
   </g>
   <g id="patch_165">
    <path d="M 322.067077 273.312 
L 323.678187 273.312 
L 323.678187 146.224696 
L 322.067077 146.224696 
z
" clip-path="url(#p7c475f284e)" style="fill: #1f77b4"/>
   </g>
   <g id="patch_166">
    <path d="M 323.678187 273.312 
L 325.289298 273.312 
L 325.289298 153.570783 
L 323.678187 153.570783 
z
" clip-path="url(#p7c475f284e)" style="fill: #1f77b4"/>
   </g>
   <g id="patch_167">
    <path d="M 325.289298 273.312 
L 326.900409 273.312 
L 326.900409 163.855304 
L 325.289298 163.855304 
z
" clip-path="url(#p7c475f284e)" style="fill: #1f77b4"/>
   </g>
   <g id="patch_168">
    <path d="M 326.900409 273.312 
L 328.51152 273.312 
L 328.51152 136.674783 
L 326.900409 136.674783 
z
" clip-path="url(#p7c475f284e)" style="fill: #1f77b4"/>
   </g>
   <g id="patch_169">
    <path d="M 328.51152 273.312 
L 330.122631 273.312 
L 330.122631 166.05913 
L 328.51152 166.05913 
z
" clip-path="url(#p7c475f284e)" style="fill: #1f77b4"/>
   </g>
   <g id="patch_170">
    <path d="M 330.122631 273.312 
L 331.733742 273.312 
L 331.733742 168.262957 
L 330.122631 168.262957 
z
" clip-path="url(#p7c475f284e)" style="fill: #1f77b4"/>
   </g>
   <g id="patch_171">
    <path d="M 331.733742 273.312 
L 333.344853 273.312 
L 333.344853 155.774609 
L 331.733742 155.774609 
z
" clip-path="url(#p7c475f284e)" style="fill: #1f77b4"/>
   </g>
   <g id="patch_172">
    <path d="M 333.344853 273.312 
L 334.955964 273.312 
L 334.955964 182.220522 
L 333.344853 182.220522 
z
" clip-path="url(#p7c475f284e)" style="fill: #1f77b4"/>
   </g>
   <g id="patch_173">
    <path d="M 334.955964 273.312 
L 336.567075 273.312 
L 336.567075 177.81287 
L 334.955964 177.81287 
z
" clip-path="url(#p7c475f284e)" style="fill: #1f77b4"/>
   </g>
   <g id="patch_174">
    <path d="M 336.567075 273.312 
L 338.178185 273.312 
L 338.178185 188.832 
L 336.567075 188.832 
z
" clip-path="url(#p7c475f284e)" style="fill: #1f77b4"/>
   </g>
   <g id="patch_175">
    <path d="M 338.178185 273.312 
L 339.789296 273.312 
L 339.789296 182.220522 
L 338.178185 182.220522 
z
" clip-path="url(#p7c475f284e)" style="fill: #1f77b4"/>
   </g>
   <g id="patch_176">
    <path d="M 339.789296 273.312 
L 341.400407 273.312 
L 341.400407 195.443478 
L 339.789296 195.443478 
z
" clip-path="url(#p7c475f284e)" style="fill: #1f77b4"/>
   </g>
   <g id="patch_177">
    <path d="M 341.400407 273.312 
L 343.011518 273.312 
L 343.011518 186.628174 
L 341.400407 186.628174 
z
" clip-path="url(#p7c475f284e)" style="fill: #1f77b4"/>
   </g>
   <g id="patch_178">
    <path d="M 343.011518 273.312 
L 344.622629 273.312 
L 344.622629 194.70887 
L 343.011518 194.70887 
z
" clip-path="url(#p7c475f284e)" style="fill: #1f77b4"/>
   </g>
   <g id="patch_179">
    <path d="M 344.622629 273.312 
L 346.23374 273.312 
L 346.23374 186.628174 
L 344.622629 186.628174 
z
" clip-path="url(#p7c475f284e)" style="fill: #1f77b4"/>
   </g>
   <g id="patch_180">
    <path d="M 346.23374 273.312 
L 347.844851 273.312 
L 347.844851 199.85113 
L 346.23374 199.85113 
z
" clip-path="url(#p7c475f284e)" style="fill: #1f77b4"/>
   </g>
   <g id="patch_181">
    <path d="M 347.844851 273.312 
L 349.455962 273.312 
L 349.455962 180.751304 
L 347.844851 180.751304 
z
" clip-path="url(#p7c475f284e)" style="fill: #1f77b4"/>
   </g>
   <g id="patch_182">
    <path d="M 349.455962 273.312 
L 351.067072 273.312 
L 351.067072 195.443478 
L 349.455962 195.443478 
z
" clip-path="url(#p7c475f284e)" style="fill: #1f77b4"/>
   </g>
   <g id="patch_183">
    <path d="M 351.067072 273.312 
L 352.678183 273.312 
L 352.678183 200.585739 
L 351.067072 200.585739 
z
" clip-path="url(#p7c475f284e)" style="fill: #1f77b4"/>
   </g>
   <g id="patch_184">
    <path d="M 352.678183 273.312 
L 354.289294 273.312 
L 354.289294 203.524174 
L 352.678183 203.524174 
z
" clip-path="url(#p7c475f284e)" style="fill: #1f77b4"/>
   </g>
   <g id="patch_185">
    <path d="M 354.289294 273.312 
L 355.900405 273.312 
L 355.900405 204.993391 
L 354.289294 204.993391 
z
" clip-path="url(#p7c475f284e)" style="fill: #1f77b4"/>
   </g>
   <g id="patch_186">
    <path d="M 355.900405 273.312 
L 357.511516 273.312 
L 357.511516 202.789565 
L 355.900405 202.789565 
z
" clip-path="url(#p7c475f284e)" style="fill: #1f77b4"/>
   </g>
   <g id="patch_187">
    <path d="M 357.511516 273.312 
L 359.122627 273.312 
L 359.122627 213.808696 
L 357.511516 213.808696 
z
" clip-path="url(#p7c475f284e)" style="fill: #1f77b4"/>
   </g>
   <g id="patch_188">
    <path d="M 359.122627 273.312 
L 360.733738 273.312 
L 360.733738 224.827826 
L 359.122627 224.827826 
z
" clip-path="url(#p7c475f284e)" style="fill: #1f77b4"/>
   </g>
   <g id="patch_189">
    <path d="M 360.733738 273.312 
L 362.344849 273.312 
L 362.344849 218.950957 
L 360.733738 218.950957 
z
" clip-path="url(#p7c475f284e)" style="fill: #1f77b4"/>
   </g>
   <g id="patch_190">
    <path d="M 362.344849 273.312 
L 363.95596 273.312 
L 363.95596 227.766261 
L 362.344849 227.766261 
z
" clip-path="url(#p7c475f284e)" style="fill: #1f77b4"/>
   </g>
   <g id="patch_191">
    <path d="M 363.95596 273.312 
L 365.56707 273.312 
L 365.56707 232.173913 
L 363.95596 232.173913 
z
" clip-path="url(#p7c475f284e)" style="fill: #1f77b4"/>
   </g>
   <g id="patch_192">
    <path d="M 365.56707 273.312 
L 367.178181 273.312 
L 367.178181 233.64313 
L 365.56707 233.64313 
z
" clip-path="url(#p7c475f284e)" style="fill: #1f77b4"/>
   </g>
   <g id="patch_193">
    <path d="M 367.178181 273.312 
L 368.789292 273.312 
L 368.789292 242.458435 
L 367.178181 242.458435 
z
" clip-path="url(#p7c475f284e)" style="fill: #1f77b4"/>
   </g>
   <g id="patch_194">
    <path d="M 368.789292 273.312 
L 370.400403 273.312 
L 370.400403 240.254609 
L 368.789292 240.254609 
z
" clip-path="url(#p7c475f284e)" style="fill: #1f77b4"/>
   </g>
   <g id="patch_195">
    <path d="M 370.400403 273.312 
L 372.011514 273.312 
L 372.011514 254.946783 
L 370.400403 254.946783 
z
" clip-path="url(#p7c475f284e)" style="fill: #1f77b4"/>
   </g>
   <g id="patch_196">
    <path d="M 372.011514 273.312 
L 373.622625 273.312 
L 373.622625 252.742957 
L 372.011514 252.742957 
z
" clip-path="url(#p7c475f284e)" style="fill: #1f77b4"/>
   </g>
   <g id="patch_197">
    <path d="M 373.622625 273.312 
L 375.233736 273.312 
L 375.233736 237.316174 
L 373.622625 237.316174 
z
" clip-path="url(#p7c475f284e)" style="fill: #1f77b4"/>
   </g>
   <g id="patch_198">
    <path d="M 375.233736 273.312 
L 376.844847 273.312 
L 376.844847 249.804522 
L 375.233736 249.804522 
z
" clip-path="url(#p7c475f284e)" style="fill: #1f77b4"/>
   </g>
   <g id="patch_199">
    <path d="M 376.844847 273.312 
L 378.455958 273.312 
L 378.455958 262.29287 
L 376.844847 262.29287 
z
" clip-path="url(#p7c475f284e)" style="fill: #1f77b4"/>
   </g>
   <g id="patch_200">
    <path d="M 378.455958 273.312 
L 380.067068 273.312 
L 380.067068 263.762087 
L 378.455958 263.762087 
z
" clip-path="url(#p7c475f284e)" style="fill: #1f77b4"/>
   </g>
   <g id="patch_201">
    <path d="M 380.067068 273.312 
L 381.678179 273.312 
L 381.678179 265.231304 
L 380.067068 265.231304 
z
" clip-path="url(#p7c475f284e)" style="fill: #1f77b4"/>
   </g>
   <g id="patch_202">
    <path d="M 381.678179 273.312 
L 383.28929 273.312 
L 383.28929 266.700522 
L 381.678179 266.700522 
z
" clip-path="url(#p7c475f284e)" style="fill: #1f77b4"/>
   </g>
   <g id="matplotlib.axis_1">
    <g id="xtick_1">
     <g id="line2d_1">
      <defs>
       <path id="m369262a89a" d="M 0 0 
L 0 3.5 
" style="stroke: #000000; stroke-width: 0.8"/>
      </defs>
      <g>
       <use xlink:href="#m369262a89a" x="60.013977" y="273.312" style="stroke: #000000; stroke-width: 0.8"/>
      </g>
     </g>
     <g id="text_1">
      <!-- 0.0 -->
      <g transform="translate(52.062415 287.910437)scale(0.1 -0.1)">
       <defs>
        <path id="DejaVuSans-30" d="M 2034 4250 
Q 1547 4250 1301 3770 
Q 1056 3291 1056 2328 
Q 1056 1369 1301 889 
Q 1547 409 2034 409 
Q 2525 409 2770 889 
Q 3016 1369 3016 2328 
Q 3016 3291 2770 3770 
Q 2525 4250 2034 4250 
z
M 2034 4750 
Q 2819 4750 3233 4129 
Q 3647 3509 3647 2328 
Q 3647 1150 3233 529 
Q 2819 -91 2034 -91 
Q 1250 -91 836 529 
Q 422 1150 422 2328 
Q 422 3509 836 4129 
Q 1250 4750 2034 4750 
z
" transform="scale(0.015625)"/>
        <path id="DejaVuSans-2e" d="M 684 794 
L 1344 794 
L 1344 0 
L 684 0 
L 684 794 
z
" transform="scale(0.015625)"/>
       </defs>
       <use xlink:href="#DejaVuSans-30"/>
       <use xlink:href="#DejaVuSans-2e" x="63.623047"/>
       <use xlink:href="#DejaVuSans-30" x="95.410156"/>
      </g>
     </g>
    </g>
    <g id="xtick_2">
     <g id="line2d_2">
      <g>
       <use xlink:href="#m369262a89a" x="101.350278" y="273.312" style="stroke: #000000; stroke-width: 0.8"/>
      </g>
     </g>
     <g id="text_2">
      <!-- 0.2 -->
      <g transform="translate(93.398715 287.910437)scale(0.1 -0.1)">
       <defs>
        <path id="DejaVuSans-32" d="M 1228 531 
L 3431 531 
L 3431 0 
L 469 0 
L 469 531 
Q 828 903 1448 1529 
Q 2069 2156 2228 2338 
Q 2531 2678 2651 2914 
Q 2772 3150 2772 3378 
Q 2772 3750 2511 3984 
Q 2250 4219 1831 4219 
Q 1534 4219 1204 4116 
Q 875 4013 500 3803 
L 500 4441 
Q 881 4594 1212 4672 
Q 1544 4750 1819 4750 
Q 2544 4750 2975 4387 
Q 3406 4025 3406 3419 
Q 3406 3131 3298 2873 
Q 3191 2616 2906 2266 
Q 2828 2175 2409 1742 
Q 1991 1309 1228 531 
z
" transform="scale(0.015625)"/>
       </defs>
       <use xlink:href="#DejaVuSans-30"/>
       <use xlink:href="#DejaVuSans-2e" x="63.623047"/>
       <use xlink:href="#DejaVuSans-32" x="95.410156"/>
      </g>
     </g>
    </g>
    <g id="xtick_3">
     <g id="line2d_3">
      <g>
       <use xlink:href="#m369262a89a" x="142.686578" y="273.312" style="stroke: #000000; stroke-width: 0.8"/>
      </g>
     </g>
     <g id="text_3">
      <!-- 0.4 -->
      <g transform="translate(134.735016 287.910437)scale(0.1 -0.1)">
       <defs>
        <path id="DejaVuSans-34" d="M 2419 4116 
L 825 1625 
L 2419 1625 
L 2419 4116 
z
M 2253 4666 
L 3047 4666 
L 3047 1625 
L 3713 1625 
L 3713 1100 
L 3047 1100 
L 3047 0 
L 2419 0 
L 2419 1100 
L 313 1100 
L 313 1709 
L 2253 4666 
z
" transform="scale(0.015625)"/>
       </defs>
       <use xlink:href="#DejaVuSans-30"/>
       <use xlink:href="#DejaVuSans-2e" x="63.623047"/>
       <use xlink:href="#DejaVuSans-34" x="95.410156"/>
      </g>
     </g>
    </g>
    <g id="xtick_4">
     <g id="line2d_4">
      <g>
       <use xlink:href="#m369262a89a" x="184.022879" y="273.312" style="stroke: #000000; stroke-width: 0.8"/>
      </g>
     </g>
     <g id="text_4">
      <!-- 0.6 -->
      <g transform="translate(176.071316 287.910437)scale(0.1 -0.1)">
       <defs>
        <path id="DejaVuSans-36" d="M 2113 2584 
Q 1688 2584 1439 2293 
Q 1191 2003 1191 1497 
Q 1191 994 1439 701 
Q 1688 409 2113 409 
Q 2538 409 2786 701 
Q 3034 994 3034 1497 
Q 3034 2003 2786 2293 
Q 2538 2584 2113 2584 
z
M 3366 4563 
L 3366 3988 
Q 3128 4100 2886 4159 
Q 2644 4219 2406 4219 
Q 1781 4219 1451 3797 
Q 1122 3375 1075 2522 
Q 1259 2794 1537 2939 
Q 1816 3084 2150 3084 
Q 2853 3084 3261 2657 
Q 3669 2231 3669 1497 
Q 3669 778 3244 343 
Q 2819 -91 2113 -91 
Q 1303 -91 875 529 
Q 447 1150 447 2328 
Q 447 3434 972 4092 
Q 1497 4750 2381 4750 
Q 2619 4750 2861 4703 
Q 3103 4656 3366 4563 
z
" transform="scale(0.015625)"/>
       </defs>
       <use xlink:href="#DejaVuSans-30"/>
       <use xlink:href="#DejaVuSans-2e" x="63.623047"/>
       <use xlink:href="#DejaVuSans-36" x="95.410156"/>
      </g>
     </g>
    </g>
    <g id="xtick_5">
     <g id="line2d_5">
      <g>
       <use xlink:href="#m369262a89a" x="225.35918" y="273.312" style="stroke: #000000; stroke-width: 0.8"/>
      </g>
     </g>
     <g id="text_5">
      <!-- 0.8 -->
      <g transform="translate(217.407617 287.910437)scale(0.1 -0.1)">
       <defs>
        <path id="DejaVuSans-38" d="M 2034 2216 
Q 1584 2216 1326 1975 
Q 1069 1734 1069 1313 
Q 1069 891 1326 650 
Q 1584 409 2034 409 
Q 2484 409 2743 651 
Q 3003 894 3003 1313 
Q 3003 1734 2745 1975 
Q 2488 2216 2034 2216 
z
M 1403 2484 
Q 997 2584 770 2862 
Q 544 3141 544 3541 
Q 544 4100 942 4425 
Q 1341 4750 2034 4750 
Q 2731 4750 3128 4425 
Q 3525 4100 3525 3541 
Q 3525 3141 3298 2862 
Q 3072 2584 2669 2484 
Q 3125 2378 3379 2068 
Q 3634 1759 3634 1313 
Q 3634 634 3220 271 
Q 2806 -91 2034 -91 
Q 1263 -91 848 271 
Q 434 634 434 1313 
Q 434 1759 690 2068 
Q 947 2378 1403 2484 
z
M 1172 3481 
Q 1172 3119 1398 2916 
Q 1625 2713 2034 2713 
Q 2441 2713 2670 2916 
Q 2900 3119 2900 3481 
Q 2900 3844 2670 4047 
Q 2441 4250 2034 4250 
Q 1625 4250 1398 4047 
Q 1172 3844 1172 3481 
z
" transform="scale(0.015625)"/>
       </defs>
       <use xlink:href="#DejaVuSans-30"/>
       <use xlink:href="#DejaVuSans-2e" x="63.623047"/>
       <use xlink:href="#DejaVuSans-38" x="95.410156"/>
      </g>
     </g>
    </g>
    <g id="xtick_6">
     <g id="line2d_6">
      <g>
       <use xlink:href="#m369262a89a" x="266.69548" y="273.312" style="stroke: #000000; stroke-width: 0.8"/>
      </g>
     </g>
     <g id="text_6">
      <!-- 1.0 -->
      <g transform="translate(258.743918 287.910437)scale(0.1 -0.1)">
       <defs>
        <path id="DejaVuSans-31" d="M 794 531 
L 1825 531 
L 1825 4091 
L 703 3866 
L 703 4441 
L 1819 4666 
L 2450 4666 
L 2450 531 
L 3481 531 
L 3481 0 
L 794 0 
L 794 531 
z
" transform="scale(0.015625)"/>
       </defs>
       <use xlink:href="#DejaVuSans-31"/>
       <use xlink:href="#DejaVuSans-2e" x="63.623047"/>
       <use xlink:href="#DejaVuSans-30" x="95.410156"/>
      </g>
     </g>
    </g>
    <g id="xtick_7">
     <g id="line2d_7">
      <g>
       <use xlink:href="#m369262a89a" x="308.031781" y="273.312" style="stroke: #000000; stroke-width: 0.8"/>
      </g>
     </g>
     <g id="text_7">
      <!-- 1.2 -->
      <g transform="translate(300.080218 287.910437)scale(0.1 -0.1)">
       <use xlink:href="#DejaVuSans-31"/>
       <use xlink:href="#DejaVuSans-2e" x="63.623047"/>
       <use xlink:href="#DejaVuSans-32" x="95.410156"/>
      </g>
     </g>
    </g>
    <g id="xtick_8">
     <g id="line2d_8">
      <g>
       <use xlink:href="#m369262a89a" x="349.368081" y="273.312" style="stroke: #000000; stroke-width: 0.8"/>
      </g>
     </g>
     <g id="text_8">
      <!-- 1.4 -->
      <g transform="translate(341.416519 287.910437)scale(0.1 -0.1)">
       <use xlink:href="#DejaVuSans-31"/>
       <use xlink:href="#DejaVuSans-2e" x="63.623047"/>
       <use xlink:href="#DejaVuSans-34" x="95.410156"/>
      </g>
     </g>
    </g>
    <g id="xtick_9">
     <g id="line2d_9">
      <g>
       <use xlink:href="#m369262a89a" x="390.704382" y="273.312" style="stroke: #000000; stroke-width: 0.8"/>
      </g>
     </g>
     <g id="text_9">
      <!-- 1.6 -->
      <g transform="translate(382.752819 287.910437)scale(0.1 -0.1)">
       <use xlink:href="#DejaVuSans-31"/>
       <use xlink:href="#DejaVuSans-2e" x="63.623047"/>
       <use xlink:href="#DejaVuSans-36" x="95.410156"/>
      </g>
     </g>
    </g>
    <g id="text_10">
     <!-- Angle with normal (rad) -->
     <g transform="translate(163.023281 301.588562)scale(0.1 -0.1)">
      <defs>
       <path id="DejaVuSans-41" d="M 2188 4044 
L 1331 1722 
L 3047 1722 
L 2188 4044 
z
M 1831 4666 
L 2547 4666 
L 4325 0 
L 3669 0 
L 3244 1197 
L 1141 1197 
L 716 0 
L 50 0 
L 1831 4666 
z
" transform="scale(0.015625)"/>
       <path id="DejaVuSans-6e" d="M 3513 2113 
L 3513 0 
L 2938 0 
L 2938 2094 
Q 2938 2591 2744 2837 
Q 2550 3084 2163 3084 
Q 1697 3084 1428 2787 
Q 1159 2491 1159 1978 
L 1159 0 
L 581 0 
L 581 3500 
L 1159 3500 
L 1159 2956 
Q 1366 3272 1645 3428 
Q 1925 3584 2291 3584 
Q 2894 3584 3203 3211 
Q 3513 2838 3513 2113 
z
" transform="scale(0.015625)"/>
       <path id="DejaVuSans-67" d="M 2906 1791 
Q 2906 2416 2648 2759 
Q 2391 3103 1925 3103 
Q 1463 3103 1205 2759 
Q 947 2416 947 1791 
Q 947 1169 1205 825 
Q 1463 481 1925 481 
Q 2391 481 2648 825 
Q 2906 1169 2906 1791 
z
M 3481 434 
Q 3481 -459 3084 -895 
Q 2688 -1331 1869 -1331 
Q 1566 -1331 1297 -1286 
Q 1028 -1241 775 -1147 
L 775 -588 
Q 1028 -725 1275 -790 
Q 1522 -856 1778 -856 
Q 2344 -856 2625 -561 
Q 2906 -266 2906 331 
L 2906 616 
Q 2728 306 2450 153 
Q 2172 0 1784 0 
Q 1141 0 747 490 
Q 353 981 353 1791 
Q 353 2603 747 3093 
Q 1141 3584 1784 3584 
Q 2172 3584 2450 3431 
Q 2728 3278 2906 2969 
L 2906 3500 
L 3481 3500 
L 3481 434 
z
" transform="scale(0.015625)"/>
       <path id="DejaVuSans-6c" d="M 603 4863 
L 1178 4863 
L 1178 0 
L 603 0 
L 603 4863 
z
" transform="scale(0.015625)"/>
       <path id="DejaVuSans-65" d="M 3597 1894 
L 3597 1613 
L 953 1613 
Q 991 1019 1311 708 
Q 1631 397 2203 397 
Q 2534 397 2845 478 
Q 3156 559 3463 722 
L 3463 178 
Q 3153 47 2828 -22 
Q 2503 -91 2169 -91 
Q 1331 -91 842 396 
Q 353 884 353 1716 
Q 353 2575 817 3079 
Q 1281 3584 2069 3584 
Q 2775 3584 3186 3129 
Q 3597 2675 3597 1894 
z
M 3022 2063 
Q 3016 2534 2758 2815 
Q 2500 3097 2075 3097 
Q 1594 3097 1305 2825 
Q 1016 2553 972 2059 
L 3022 2063 
z
" transform="scale(0.015625)"/>
       <path id="DejaVuSans-20" transform="scale(0.015625)"/>
       <path id="DejaVuSans-77" d="M 269 3500 
L 844 3500 
L 1563 769 
L 2278 3500 
L 2956 3500 
L 3675 769 
L 4391 3500 
L 4966 3500 
L 4050 0 
L 3372 0 
L 2619 2869 
L 1863 0 
L 1184 0 
L 269 3500 
z
" transform="scale(0.015625)"/>
       <path id="DejaVuSans-69" d="M 603 3500 
L 1178 3500 
L 1178 0 
L 603 0 
L 603 3500 
z
M 603 4863 
L 1178 4863 
L 1178 4134 
L 603 4134 
L 603 4863 
z
" transform="scale(0.015625)"/>
       <path id="DejaVuSans-74" d="M 1172 4494 
L 1172 3500 
L 2356 3500 
L 2356 3053 
L 1172 3053 
L 1172 1153 
Q 1172 725 1289 603 
Q 1406 481 1766 481 
L 2356 481 
L 2356 0 
L 1766 0 
Q 1100 0 847 248 
Q 594 497 594 1153 
L 594 3053 
L 172 3053 
L 172 3500 
L 594 3500 
L 594 4494 
L 1172 4494 
z
" transform="scale(0.015625)"/>
       <path id="DejaVuSans-68" d="M 3513 2113 
L 3513 0 
L 2938 0 
L 2938 2094 
Q 2938 2591 2744 2837 
Q 2550 3084 2163 3084 
Q 1697 3084 1428 2787 
Q 1159 2491 1159 1978 
L 1159 0 
L 581 0 
L 581 4863 
L 1159 4863 
L 1159 2956 
Q 1366 3272 1645 3428 
Q 1925 3584 2291 3584 
Q 2894 3584 3203 3211 
Q 3513 2838 3513 2113 
z
" transform="scale(0.015625)"/>
       <path id="DejaVuSans-6f" d="M 1959 3097 
Q 1497 3097 1228 2736 
Q 959 2375 959 1747 
Q 959 1119 1226 758 
Q 1494 397 1959 397 
Q 2419 397 2687 759 
Q 2956 1122 2956 1747 
Q 2956 2369 2687 2733 
Q 2419 3097 1959 3097 
z
M 1959 3584 
Q 2709 3584 3137 3096 
Q 3566 2609 3566 1747 
Q 3566 888 3137 398 
Q 2709 -91 1959 -91 
Q 1206 -91 779 398 
Q 353 888 353 1747 
Q 353 2609 779 3096 
Q 1206 3584 1959 3584 
z
" transform="scale(0.015625)"/>
       <path id="DejaVuSans-72" d="M 2631 2963 
Q 2534 3019 2420 3045 
Q 2306 3072 2169 3072 
Q 1681 3072 1420 2755 
Q 1159 2438 1159 1844 
L 1159 0 
L 581 0 
L 581 3500 
L 1159 3500 
L 1159 2956 
Q 1341 3275 1631 3429 
Q 1922 3584 2338 3584 
Q 2397 3584 2469 3576 
Q 2541 3569 2628 3553 
L 2631 2963 
z
" transform="scale(0.015625)"/>
       <path id="DejaVuSans-6d" d="M 3328 2828 
Q 3544 3216 3844 3400 
Q 4144 3584 4550 3584 
Q 5097 3584 5394 3201 
Q 5691 2819 5691 2113 
L 5691 0 
L 5113 0 
L 5113 2094 
Q 5113 2597 4934 2840 
Q 4756 3084 4391 3084 
Q 3944 3084 3684 2787 
Q 3425 2491 3425 1978 
L 3425 0 
L 2847 0 
L 2847 2094 
Q 2847 2600 2669 2842 
Q 2491 3084 2119 3084 
Q 1678 3084 1418 2786 
Q 1159 2488 1159 1978 
L 1159 0 
L 581 0 
L 581 3500 
L 1159 3500 
L 1159 2956 
Q 1356 3278 1631 3431 
Q 1906 3584 2284 3584 
Q 2666 3584 2933 3390 
Q 3200 3197 3328 2828 
z
" transform="scale(0.015625)"/>
       <path id="DejaVuSans-61" d="M 2194 1759 
Q 1497 1759 1228 1600 
Q 959 1441 959 1056 
Q 959 750 1161 570 
Q 1363 391 1709 391 
Q 2188 391 2477 730 
Q 2766 1069 2766 1631 
L 2766 1759 
L 2194 1759 
z
M 3341 1997 
L 3341 0 
L 2766 0 
L 2766 531 
Q 2569 213 2275 61 
Q 1981 -91 1556 -91 
Q 1019 -91 701 211 
Q 384 513 384 1019 
Q 384 1609 779 1909 
Q 1175 2209 1959 2209 
L 2766 2209 
L 2766 2266 
Q 2766 2663 2505 2880 
Q 2244 3097 1772 3097 
Q 1472 3097 1187 3025 
Q 903 2953 641 2809 
L 641 3341 
Q 956 3463 1253 3523 
Q 1550 3584 1831 3584 
Q 2591 3584 2966 3190 
Q 3341 2797 3341 1997 
z
" transform="scale(0.015625)"/>
       <path id="DejaVuSans-28" d="M 1984 4856 
Q 1566 4138 1362 3434 
Q 1159 2731 1159 2009 
Q 1159 1288 1364 580 
Q 1569 -128 1984 -844 
L 1484 -844 
Q 1016 -109 783 600 
Q 550 1309 550 2009 
Q 550 2706 781 3412 
Q 1013 4119 1484 4856 
L 1984 4856 
z
" transform="scale(0.015625)"/>
       <path id="DejaVuSans-64" d="M 2906 2969 
L 2906 4863 
L 3481 4863 
L 3481 0 
L 2906 0 
L 2906 525 
Q 2725 213 2448 61 
Q 2172 -91 1784 -91 
Q 1150 -91 751 415 
Q 353 922 353 1747 
Q 353 2572 751 3078 
Q 1150 3584 1784 3584 
Q 2172 3584 2448 3432 
Q 2725 3281 2906 2969 
z
M 947 1747 
Q 947 1113 1208 752 
Q 1469 391 1925 391 
Q 2381 391 2643 752 
Q 2906 1113 2906 1747 
Q 2906 2381 2643 2742 
Q 2381 3103 1925 3103 
Q 1469 3103 1208 2742 
Q 947 2381 947 1747 
z
" transform="scale(0.015625)"/>
       <path id="DejaVuSans-29" d="M 513 4856 
L 1013 4856 
Q 1481 4119 1714 3412 
Q 1947 2706 1947 2009 
Q 1947 1309 1714 600 
Q 1481 -109 1013 -844 
L 513 -844 
Q 928 -128 1133 580 
Q 1338 1288 1338 2009 
Q 1338 2731 1133 3434 
Q 928 4138 513 4856 
z
" transform="scale(0.015625)"/>
      </defs>
      <use xlink:href="#DejaVuSans-41"/>
      <use xlink:href="#DejaVuSans-6e" x="68.408203"/>
      <use xlink:href="#DejaVuSans-67" x="131.787109"/>
      <use xlink:href="#DejaVuSans-6c" x="195.263672"/>
      <use xlink:href="#DejaVuSans-65" x="223.046875"/>
      <use xlink:href="#DejaVuSans-20" x="284.570312"/>
      <use xlink:href="#DejaVuSans-77" x="316.357422"/>
      <use xlink:href="#DejaVuSans-69" x="398.144531"/>
      <use xlink:href="#DejaVuSans-74" x="425.927734"/>
      <use xlink:href="#DejaVuSans-68" x="465.136719"/>
      <use xlink:href="#DejaVuSans-20" x="528.515625"/>
      <use xlink:href="#DejaVuSans-6e" x="560.302734"/>
      <use xlink:href="#DejaVuSans-6f" x="623.681641"/>
      <use xlink:href="#DejaVuSans-72" x="684.863281"/>
      <use xlink:href="#DejaVuSans-6d" x="724.226562"/>
      <use xlink:href="#DejaVuSans-61" x="821.638672"/>
      <use xlink:href="#DejaVuSans-6c" x="882.917969"/>
      <use xlink:href="#DejaVuSans-20" x="910.701172"/>
      <use xlink:href="#DejaVuSans-28" x="942.488281"/>
      <use xlink:href="#DejaVuSans-72" x="981.501953"/>
      <use xlink:href="#DejaVuSans-61" x="1022.615234"/>
      <use xlink:href="#DejaVuSans-64" x="1083.894531"/>
      <use xlink:href="#DejaVuSans-29" x="1147.371094"/>
     </g>
    </g>
   </g>
   <g id="matplotlib.axis_2">
    <g id="ytick_1">
     <g id="line2d_10">
      <defs>
       <path id="me2ceddaa1e" d="M 0 0 
L -3.5 0 
" style="stroke: #000000; stroke-width: 0.8"/>
      </defs>
      <g>
       <use xlink:href="#me2ceddaa1e" x="43.78125" y="273.312" style="stroke: #000000; stroke-width: 0.8"/>
      </g>
     </g>
     <g id="text_11">
      <!-- 0.0 -->
      <g transform="translate(20.878125 277.111219)scale(0.1 -0.1)">
       <use xlink:href="#DejaVuSans-30"/>
       <use xlink:href="#DejaVuSans-2e" x="63.623047"/>
       <use xlink:href="#DejaVuSans-30" x="95.410156"/>
      </g>
     </g>
    </g>
    <g id="ytick_2">
     <g id="line2d_11">
      <g>
       <use xlink:href="#me2ceddaa1e" x="43.78125" y="227.500989" style="stroke: #000000; stroke-width: 0.8"/>
      </g>
     </g>
     <g id="text_12">
      <!-- 0.2 -->
      <g transform="translate(20.878125 231.300208)scale(0.1 -0.1)">
       <use xlink:href="#DejaVuSans-30"/>
       <use xlink:href="#DejaVuSans-2e" x="63.623047"/>
       <use xlink:href="#DejaVuSans-32" x="95.410156"/>
      </g>
     </g>
    </g>
    <g id="ytick_3">
     <g id="line2d_12">
      <g>
       <use xlink:href="#me2ceddaa1e" x="43.78125" y="181.689979" style="stroke: #000000; stroke-width: 0.8"/>
      </g>
     </g>
     <g id="text_13">
      <!-- 0.4 -->
      <g transform="translate(20.878125 185.489197)scale(0.1 -0.1)">
       <use xlink:href="#DejaVuSans-30"/>
       <use xlink:href="#DejaVuSans-2e" x="63.623047"/>
       <use xlink:href="#DejaVuSans-34" x="95.410156"/>
      </g>
     </g>
    </g>
    <g id="ytick_4">
     <g id="line2d_13">
      <g>
       <use xlink:href="#me2ceddaa1e" x="43.78125" y="135.878968" style="stroke: #000000; stroke-width: 0.8"/>
      </g>
     </g>
     <g id="text_14">
      <!-- 0.6 -->
      <g transform="translate(20.878125 139.678187)scale(0.1 -0.1)">
       <use xlink:href="#DejaVuSans-30"/>
       <use xlink:href="#DejaVuSans-2e" x="63.623047"/>
       <use xlink:href="#DejaVuSans-36" x="95.410156"/>
      </g>
     </g>
    </g>
    <g id="ytick_5">
     <g id="line2d_14">
      <g>
       <use xlink:href="#me2ceddaa1e" x="43.78125" y="90.067957" style="stroke: #000000; stroke-width: 0.8"/>
      </g>
     </g>
     <g id="text_15">
      <!-- 0.8 -->
      <g transform="translate(20.878125 93.867176)scale(0.1 -0.1)">
       <use xlink:href="#DejaVuSans-30"/>
       <use xlink:href="#DejaVuSans-2e" x="63.623047"/>
       <use xlink:href="#DejaVuSans-38" x="95.410156"/>
      </g>
     </g>
    </g>
    <g id="ytick_6">
     <g id="line2d_15">
      <g>
       <use xlink:href="#me2ceddaa1e" x="43.78125" y="44.256947" style="stroke: #000000; stroke-width: 0.8"/>
      </g>
     </g>
     <g id="text_16">
      <!-- 1.0 -->
      <g transform="translate(20.878125 48.056165)scale(0.1 -0.1)">
       <use xlink:href="#DejaVuSans-31"/>
       <use xlink:href="#DejaVuSans-2e" x="63.623047"/>
       <use xlink:href="#DejaVuSans-30" x="95.410156"/>
      </g>
     </g>
    </g>
    <g id="text_17">
     <!-- Probability density -->
     <g transform="translate(14.798438 186.606781)rotate(-90)scale(0.1 -0.1)">
      <defs>
       <path id="DejaVuSans-50" d="M 1259 4147 
L 1259 2394 
L 2053 2394 
Q 2494 2394 2734 2622 
Q 2975 2850 2975 3272 
Q 2975 3691 2734 3919 
Q 2494 4147 2053 4147 
L 1259 4147 
z
M 628 4666 
L 2053 4666 
Q 2838 4666 3239 4311 
Q 3641 3956 3641 3272 
Q 3641 2581 3239 2228 
Q 2838 1875 2053 1875 
L 1259 1875 
L 1259 0 
L 628 0 
L 628 4666 
z
" transform="scale(0.015625)"/>
       <path id="DejaVuSans-62" d="M 3116 1747 
Q 3116 2381 2855 2742 
Q 2594 3103 2138 3103 
Q 1681 3103 1420 2742 
Q 1159 2381 1159 1747 
Q 1159 1113 1420 752 
Q 1681 391 2138 391 
Q 2594 391 2855 752 
Q 3116 1113 3116 1747 
z
M 1159 2969 
Q 1341 3281 1617 3432 
Q 1894 3584 2278 3584 
Q 2916 3584 3314 3078 
Q 3713 2572 3713 1747 
Q 3713 922 3314 415 
Q 2916 -91 2278 -91 
Q 1894 -91 1617 61 
Q 1341 213 1159 525 
L 1159 0 
L 581 0 
L 581 4863 
L 1159 4863 
L 1159 2969 
z
" transform="scale(0.015625)"/>
       <path id="DejaVuSans-79" d="M 2059 -325 
Q 1816 -950 1584 -1140 
Q 1353 -1331 966 -1331 
L 506 -1331 
L 506 -850 
L 844 -850 
Q 1081 -850 1212 -737 
Q 1344 -625 1503 -206 
L 1606 56 
L 191 3500 
L 800 3500 
L 1894 763 
L 2988 3500 
L 3597 3500 
L 2059 -325 
z
" transform="scale(0.015625)"/>
       <path id="DejaVuSans-73" d="M 2834 3397 
L 2834 2853 
Q 2591 2978 2328 3040 
Q 2066 3103 1784 3103 
Q 1356 3103 1142 2972 
Q 928 2841 928 2578 
Q 928 2378 1081 2264 
Q 1234 2150 1697 2047 
L 1894 2003 
Q 2506 1872 2764 1633 
Q 3022 1394 3022 966 
Q 3022 478 2636 193 
Q 2250 -91 1575 -91 
Q 1294 -91 989 -36 
Q 684 19 347 128 
L 347 722 
Q 666 556 975 473 
Q 1284 391 1588 391 
Q 1994 391 2212 530 
Q 2431 669 2431 922 
Q 2431 1156 2273 1281 
Q 2116 1406 1581 1522 
L 1381 1569 
Q 847 1681 609 1914 
Q 372 2147 372 2553 
Q 372 3047 722 3315 
Q 1072 3584 1716 3584 
Q 2034 3584 2315 3537 
Q 2597 3491 2834 3397 
z
" transform="scale(0.015625)"/>
      </defs>
      <use xlink:href="#DejaVuSans-50"/>
      <use xlink:href="#DejaVuSans-72" x="58.552734"/>
      <use xlink:href="#DejaVuSans-6f" x="97.416016"/>
      <use xlink:href="#DejaVuSans-62" x="158.597656"/>
      <use xlink:href="#DejaVuSans-61" x="222.074219"/>
      <use xlink:href="#DejaVuSans-62" x="283.353516"/>
      <use xlink:href="#DejaVuSans-69" x="346.830078"/>
      <use xlink:href="#DejaVuSans-6c" x="374.613281"/>
      <use xlink:href="#DejaVuSans-69" x="402.396484"/>
      <use xlink:href="#DejaVuSans-74" x="430.179688"/>
      <use xlink:href="#DejaVuSans-79" x="469.388672"/>
      <use xlink:href="#DejaVuSans-20" x="528.568359"/>
      <use xlink:href="#DejaVuSans-64" x="560.355469"/>
      <use xlink:href="#DejaVuSans-65" x="623.832031"/>
      <use xlink:href="#DejaVuSans-6e" x="685.355469"/>
      <use xlink:href="#DejaVuSans-73" x="748.734375"/>
      <use xlink:href="#DejaVuSans-69" x="800.833984"/>
      <use xlink:href="#DejaVuSans-74" x="828.617188"/>
      <use xlink:href="#DejaVuSans-79" x="867.826172"/>
     </g>
    </g>
   </g>
   <g id="line2d_16">
    <path d="M 60.013977 273.312 
L 79.837728 229.64159 
L 90.237073 207.273323 
L 99.01152 188.910849 
L 106.811029 173.095143 
L 113.960578 159.096522 
L 120.460169 146.842998 
L 126.63478 135.664656 
L 132.484411 125.527183 
L 138.009063 116.387049 
L 143.208736 108.193721 
L 148.408408 100.41833 
L 153.283101 93.525992 
L 157.832814 87.453709 
L 162.382528 81.741621 
L 166.932241 76.400797 
L 171.156975 71.782951 
L 175.381709 67.501876 
L 179.281463 63.855218 
L 183.181217 60.506805 
L 187.080972 57.461407 
L 190.655746 54.939691 
L 194.230521 52.679257 
L 197.805296 50.682809 
L 201.380071 48.952736 
L 204.629866 47.612841 
L 207.879661 46.496131 
L 211.129456 45.603708 
L 214.379252 44.936457 
L 217.629047 44.495036 
L 220.878842 44.279881 
L 224.128637 44.291207 
L 227.378433 44.529001 
L 230.628228 44.993029 
L 233.878023 45.682831 
L 237.127818 46.597725 
L 240.377614 47.736808 
L 243.627409 49.098951 
L 247.202184 50.853331 
L 250.776958 52.873881 
L 254.351733 55.158184 
L 257.926508 57.703508 
L 261.501283 60.506805 
L 265.401037 63.855218 
L 269.300791 67.501876 
L 273.200546 71.441587 
L 277.425279 76.033794 
L 281.650013 80.955666 
L 286.199727 86.615378 
L 290.74944 92.636909 
L 295.624133 99.476785 
L 300.498826 106.703392 
L 305.698498 114.819905 
L 311.22315 123.882774 
L 316.747802 133.372614 
L 322.597433 143.855909 
L 328.772044 155.370799 
L 335.596614 168.585784 
L 342.746164 182.918744 
L 350.870652 199.727298 
L 359.970079 219.08752 
L 371.019383 243.146529 
L 384.668523 273.312 
L 384.668523 273.312 
" clip-path="url(#p7c475f284e)" style="fill: none; stroke: #ff7f0e; stroke-width: 1.5; stroke-linecap: square"/>
   </g>
   <g id="patch_203">
    <path d="M 43.78125 273.312 
L 43.78125 7.2 
" style="fill: none; stroke: #000000; stroke-width: 0.8; stroke-linejoin: miter; stroke-linecap: square"/>
   </g>
   <g id="patch_204">
    <path d="M 400.90125 273.312 
L 400.90125 7.2 
" style="fill: none; stroke: #000000; stroke-width: 0.8; stroke-linejoin: miter; stroke-linecap: square"/>
   </g>
   <g id="patch_205">
    <path d="M 43.78125 273.312 
L 400.90125 273.312 
" style="fill: none; stroke: #000000; stroke-width: 0.8; stroke-linejoin: miter; stroke-linecap: square"/>
   </g>
   <g id="patch_206">
    <path d="M 43.78125 7.2 
L 400.90125 7.2 
" style="fill: none; stroke: #000000; stroke-width: 0.8; stroke-linejoin: miter; stroke-linecap: square"/>
   </g>
  </g>
 </g>
 <defs>
  <clipPath id="p7c475f284e">
   <rect x="43.78125" y="7.2" width="357.12" height="266.112"/>
  </clipPath>
 </defs>
</svg>
