<?xml version="1.0" encoding="utf-8" standalone="no"?>
<!DOCTYPE svg PUBLIC "-//W3C//DTD SVG 1.1//EN"
  "http://www.w3.org/Graphics/SVG/1.1/DTD/svg11.dtd">
<svg xmlns:xlink="http://www.w3.org/1999/xlink" width="385.78125pt" height="262.19625pt" viewBox="0 0 385.78125 262.19625" xmlns="http://www.w3.org/2000/svg" version="1.1">
 <metadata>
  <rdf:RDF xmlns:dc="http://purl.org/dc/elements/1.1/" xmlns:cc="http://creativecommons.org/ns#" xmlns:rdf="http://www.w3.org/1999/02/22-rdf-syntax-ns#">
   <cc:Work>
    <dc:type rdf:resource="http://purl.org/dc/dcmitype/StillImage"/>
    <dc:date>2022-06-24T14:58:13.222847</dc:date>
    <dc:format>image/svg+xml</dc:format>
    <dc:creator>
     <cc:Agent>
      <dc:title>Matplotlib v3.5.2, https://matplotlib.org/</dc:title>
     </cc:Agent>
    </dc:creator>
   </cc:Work>
  </rdf:RDF>
 </metadata>
 <defs>
  <style type="text/css">*{stroke-linejoin: round; stroke-linecap: butt}</style>
 </defs>
 <g id="figure_1">
  <g id="patch_1">
   <path d="M 0 262.19625 
L 385.78125 262.19625 
L 385.78125 0 
L 0 0 
L 0 262.19625 
z
" style="fill: none"/>
  </g>
  <g id="axes_1">
   <g id="patch_2">
    <path d="M 43.78125 224.64 
L 378.58125 224.64 
L 378.58125 7.2 
L 43.78125 7.2 
z
" style="fill: #ffffff"/>
   </g>
   <g id="patch_3">
    <path d="M 60.273194 224.64 
L 61.784618 224.64 
L 61.784618 216.83677 
L 60.273194 216.83677 
z
" clip-path="url(#pe8c61a6b2a)" style="fill: #1f77b4"/>
   </g>
   <g id="patch_4">
    <path d="M 61.784618 224.64 
L 63.296042 224.64 
L 63.296042 219.237764 
L 61.784618 219.237764 
z
" clip-path="url(#pe8c61a6b2a)" style="fill: #1f77b4"/>
   </g>
   <g id="patch_5">
    <path d="M 63.296042 224.64 
L 64.807466 224.64 
L 64.807466 209.633789 
L 63.296042 209.633789 
z
" clip-path="url(#pe8c61a6b2a)" style="fill: #1f77b4"/>
   </g>
   <g id="patch_6">
    <path d="M 64.807466 224.64 
L 66.318891 224.64 
L 66.318891 210.234037 
L 64.807466 210.234037 
z
" clip-path="url(#pe8c61a6b2a)" style="fill: #1f77b4"/>
   </g>
   <g id="patch_7">
    <path d="M 66.318891 224.64 
L 67.830315 224.64 
L 67.830315 203.631304 
L 66.318891 203.631304 
z
" clip-path="url(#pe8c61a6b2a)" style="fill: #1f77b4"/>
   </g>
   <g id="patch_8">
    <path d="M 67.830315 224.64 
L 69.341739 224.64 
L 69.341739 203.631304 
L 67.830315 203.631304 
z
" clip-path="url(#pe8c61a6b2a)" style="fill: #1f77b4"/>
   </g>
   <g id="patch_9">
    <path d="M 69.341739 224.64 
L 70.853163 224.64 
L 70.853163 205.43205 
L 69.341739 205.43205 
z
" clip-path="url(#pe8c61a6b2a)" style="fill: #1f77b4"/>
   </g>
   <g id="patch_10">
    <path d="M 70.853163 224.64 
L 72.364587 224.64 
L 72.364587 198.229068 
L 70.853163 198.229068 
z
" clip-path="url(#pe8c61a6b2a)" style="fill: #1f77b4"/>
   </g>
   <g id="patch_11">
    <path d="M 72.364587 224.64 
L 73.876011 224.64 
L 73.876011 195.227826 
L 72.364587 195.227826 
z
" clip-path="url(#pe8c61a6b2a)" style="fill: #1f77b4"/>
   </g>
   <g id="patch_12">
    <path d="M 73.876011 224.64 
L 75.387435 224.64 
L 75.387435 197.028571 
L 73.876011 197.028571 
z
" clip-path="url(#pe8c61a6b2a)" style="fill: #1f77b4"/>
   </g>
   <g id="patch_13">
    <path d="M 75.387435 224.64 
L 76.89886 224.64 
L 76.89886 197.028571 
L 75.387435 197.028571 
z
" clip-path="url(#pe8c61a6b2a)" style="fill: #1f77b4"/>
   </g>
   <g id="patch_14">
    <path d="M 76.89886 224.64 
L 78.410284 224.64 
L 78.410284 187.424596 
L 76.89886 187.424596 
z
" clip-path="url(#pe8c61a6b2a)" style="fill: #1f77b4"/>
   </g>
   <g id="patch_15">
    <path d="M 78.410284 224.64 
L 79.921708 224.64 
L 79.921708 188.625093 
L 78.410284 188.625093 
z
" clip-path="url(#pe8c61a6b2a)" style="fill: #1f77b4"/>
   </g>
   <g id="patch_16">
    <path d="M 79.921708 224.64 
L 81.433132 224.64 
L 81.433132 177.220373 
L 79.921708 177.220373 
z
" clip-path="url(#pe8c61a6b2a)" style="fill: #1f77b4"/>
   </g>
   <g id="patch_17">
    <path d="M 81.433132 224.64 
L 82.944556 224.64 
L 82.944556 180.221615 
L 81.433132 180.221615 
z
" clip-path="url(#pe8c61a6b2a)" style="fill: #1f77b4"/>
   </g>
   <g id="patch_18">
    <path d="M 82.944556 224.64 
L 84.45598 224.64 
L 84.45598 172.418385 
L 82.944556 172.418385 
z
" clip-path="url(#pe8c61a6b2a)" style="fill: #1f77b4"/>
   </g>
   <g id="patch_19">
    <path d="M 84.45598 224.64 
L 85.967404 224.64 
L 85.967404 178.42087 
L 84.45598 178.42087 
z
" clip-path="url(#pe8c61a6b2a)" style="fill: #1f77b4"/>
   </g>
   <g id="patch_20">
    <path d="M 85.967404 224.64 
L 87.478829 224.64 
L 87.478829 171.217888 
L 85.967404 171.217888 
z
" clip-path="url(#pe8c61a6b2a)" style="fill: #1f77b4"/>
   </g>
   <g id="patch_21">
    <path d="M 87.478829 224.64 
L 88.990253 224.64 
L 88.990253 167.616398 
L 87.478829 167.616398 
z
" clip-path="url(#pe8c61a6b2a)" style="fill: #1f77b4"/>
   </g>
   <g id="patch_22">
    <path d="M 88.990253 224.64 
L 90.501677 224.64 
L 90.501677 166.415901 
L 88.990253 166.415901 
z
" clip-path="url(#pe8c61a6b2a)" style="fill: #1f77b4"/>
   </g>
   <g id="patch_23">
    <path d="M 90.501677 224.64 
L 92.013101 224.64 
L 92.013101 165.215404 
L 90.501677 165.215404 
z
" clip-path="url(#pe8c61a6b2a)" style="fill: #1f77b4"/>
   </g>
   <g id="patch_24">
    <path d="M 92.013101 224.64 
L 93.524525 224.64 
L 93.524525 164.615155 
L 92.013101 164.615155 
z
" clip-path="url(#pe8c61a6b2a)" style="fill: #1f77b4"/>
   </g>
   <g id="patch_25">
    <path d="M 93.524525 224.64 
L 95.035949 224.64 
L 95.035949 143.006211 
L 93.524525 143.006211 
z
" clip-path="url(#pe8c61a6b2a)" style="fill: #1f77b4"/>
   </g>
   <g id="patch_26">
    <path d="M 95.035949 224.64 
L 96.547373 224.64 
L 96.547373 155.611429 
L 95.035949 155.611429 
z
" clip-path="url(#pe8c61a6b2a)" style="fill: #1f77b4"/>
   </g>
   <g id="patch_27">
    <path d="M 96.547373 224.64 
L 98.058798 224.64 
L 98.058798 149.008696 
L 96.547373 149.008696 
z
" clip-path="url(#pe8c61a6b2a)" style="fill: #1f77b4"/>
   </g>
   <g id="patch_28">
    <path d="M 98.058798 224.64 
L 99.570222 224.64 
L 99.570222 149.608944 
L 98.058798 149.608944 
z
" clip-path="url(#pe8c61a6b2a)" style="fill: #1f77b4"/>
   </g>
   <g id="patch_29">
    <path d="M 99.570222 224.64 
L 101.081646 224.64 
L 101.081646 149.008696 
L 99.570222 149.008696 
z
" clip-path="url(#pe8c61a6b2a)" style="fill: #1f77b4"/>
   </g>
   <g id="patch_30">
    <path d="M 101.081646 224.64 
L 102.59307 224.64 
L 102.59307 144.806957 
L 101.081646 144.806957 
z
" clip-path="url(#pe8c61a6b2a)" style="fill: #1f77b4"/>
   </g>
   <g id="patch_31">
    <path d="M 102.59307 224.64 
L 104.104494 224.64 
L 104.104494 133.402236 
L 102.59307 133.402236 
z
" clip-path="url(#pe8c61a6b2a)" style="fill: #1f77b4"/>
   </g>
   <g id="patch_32">
    <path d="M 104.104494 224.64 
L 105.615918 224.64 
L 105.615918 131.601491 
L 104.104494 131.601491 
z
" clip-path="url(#pe8c61a6b2a)" style="fill: #1f77b4"/>
   </g>
   <g id="patch_33">
    <path d="M 105.615918 224.64 
L 107.127342 224.64 
L 107.127342 141.805714 
L 105.615918 141.805714 
z
" clip-path="url(#pe8c61a6b2a)" style="fill: #1f77b4"/>
   </g>
   <g id="patch_34">
    <path d="M 107.127342 224.64 
L 108.638767 224.64 
L 108.638767 130.400994 
L 107.127342 130.400994 
z
" clip-path="url(#pe8c61a6b2a)" style="fill: #1f77b4"/>
   </g>
   <g id="patch_35">
    <path d="M 108.638767 224.64 
L 110.150191 224.64 
L 110.150191 126.799503 
L 108.638767 126.799503 
z
" clip-path="url(#pe8c61a6b2a)" style="fill: #1f77b4"/>
   </g>
   <g id="patch_36">
    <path d="M 110.150191 224.64 
L 111.661615 224.64 
L 111.661615 131.601491 
L 110.150191 131.601491 
z
" clip-path="url(#pe8c61a6b2a)" style="fill: #1f77b4"/>
   </g>
   <g id="patch_37">
    <path d="M 111.661615 224.64 
L 113.173039 224.64 
L 113.173039 120.19677 
L 111.661615 120.19677 
z
" clip-path="url(#pe8c61a6b2a)" style="fill: #1f77b4"/>
   </g>
   <g id="patch_38">
    <path d="M 113.173039 224.64 
L 114.684463 224.64 
L 114.684463 123.198012 
L 113.173039 123.198012 
z
" clip-path="url(#pe8c61a6b2a)" style="fill: #1f77b4"/>
   </g>
   <g id="patch_39">
    <path d="M 114.684463 224.64 
L 116.195887 224.64 
L 116.195887 126.799503 
L 114.684463 126.799503 
z
" clip-path="url(#pe8c61a6b2a)" style="fill: #1f77b4"/>
   </g>
   <g id="patch_40">
    <path d="M 116.195887 224.64 
L 117.707311 224.64 
L 117.707311 135.202981 
L 116.195887 135.202981 
z
" clip-path="url(#pe8c61a6b2a)" style="fill: #1f77b4"/>
   </g>
   <g id="patch_41">
    <path d="M 117.707311 224.64 
L 119.218736 224.64 
L 119.218736 123.798261 
L 117.707311 123.798261 
z
" clip-path="url(#pe8c61a6b2a)" style="fill: #1f77b4"/>
   </g>
   <g id="patch_42">
    <path d="M 119.218736 224.64 
L 120.73016 224.64 
L 120.73016 121.997516 
L 119.218736 121.997516 
z
" clip-path="url(#pe8c61a6b2a)" style="fill: #1f77b4"/>
   </g>
   <g id="patch_43">
    <path d="M 120.73016 224.64 
L 122.241584 224.64 
L 122.241584 108.79205 
L 120.73016 108.79205 
z
" clip-path="url(#pe8c61a6b2a)" style="fill: #1f77b4"/>
   </g>
   <g id="patch_44">
    <path d="M 122.241584 224.64 
L 123.753008 224.64 
L 123.753008 100.98882 
L 122.241584 100.98882 
z
" clip-path="url(#pe8c61a6b2a)" style="fill: #1f77b4"/>
   </g>
   <g id="patch_45">
    <path d="M 123.753008 224.64 
L 125.264432 224.64 
L 125.264432 106.391056 
L 123.753008 106.391056 
z
" clip-path="url(#pe8c61a6b2a)" style="fill: #1f77b4"/>
   </g>
   <g id="patch_46">
    <path d="M 125.264432 224.64 
L 126.775856 224.64 
L 126.775856 107.591553 
L 125.264432 107.591553 
z
" clip-path="url(#pe8c61a6b2a)" style="fill: #1f77b4"/>
   </g>
   <g id="patch_47">
    <path d="M 126.775856 224.64 
L 128.28728 224.64 
L 128.28728 91.985093 
L 126.775856 91.985093 
z
" clip-path="url(#pe8c61a6b2a)" style="fill: #1f77b4"/>
   </g>
   <g id="patch_48">
    <path d="M 128.28728 224.64 
L 129.798705 224.64 
L 129.798705 101.589068 
L 128.28728 101.589068 
z
" clip-path="url(#pe8c61a6b2a)" style="fill: #1f77b4"/>
   </g>
   <g id="patch_49">
    <path d="M 129.798705 224.64 
L 131.310129 224.64 
L 131.310129 98.587826 
L 129.798705 98.587826 
z
" clip-path="url(#pe8c61a6b2a)" style="fill: #1f77b4"/>
   </g>
   <g id="patch_50">
    <path d="M 131.310129 224.64 
L 132.821553 224.64 
L 132.821553 85.38236 
L 131.310129 85.38236 
z
" clip-path="url(#pe8c61a6b2a)" style="fill: #1f77b4"/>
   </g>
   <g id="patch_51">
    <path d="M 132.821553 224.64 
L 134.332977 224.64 
L 134.332977 93.18559 
L 132.821553 93.18559 
z
" clip-path="url(#pe8c61a6b2a)" style="fill: #1f77b4"/>
   </g>
   <g id="patch_52">
    <path d="M 134.332977 224.64 
L 135.844401 224.64 
L 135.844401 73.97764 
L 134.332977 73.97764 
z
" clip-path="url(#pe8c61a6b2a)" style="fill: #1f77b4"/>
   </g>
   <g id="patch_53">
    <path d="M 135.844401 224.64 
L 137.355825 224.64 
L 137.355825 87.183106 
L 135.844401 87.183106 
z
" clip-path="url(#pe8c61a6b2a)" style="fill: #1f77b4"/>
   </g>
   <g id="patch_54">
    <path d="M 137.355825 224.64 
L 138.867249 224.64 
L 138.867249 79.980124 
L 137.355825 79.980124 
z
" clip-path="url(#pe8c61a6b2a)" style="fill: #1f77b4"/>
   </g>
   <g id="patch_55">
    <path d="M 138.867249 224.64 
L 140.378674 224.64 
L 140.378674 90.184348 
L 138.867249 90.184348 
z
" clip-path="url(#pe8c61a6b2a)" style="fill: #1f77b4"/>
   </g>
   <g id="patch_56">
    <path d="M 140.378674 224.64 
L 141.890098 224.64 
L 141.890098 86.582857 
L 140.378674 86.582857 
z
" clip-path="url(#pe8c61a6b2a)" style="fill: #1f77b4"/>
   </g>
   <g id="patch_57">
    <path d="M 141.890098 224.64 
L 143.401522 224.64 
L 143.401522 103.990062 
L 141.890098 103.990062 
z
" clip-path="url(#pe8c61a6b2a)" style="fill: #1f77b4"/>
   </g>
   <g id="patch_58">
    <path d="M 143.401522 224.64 
L 144.912946 224.64 
L 144.912946 81.78087 
L 143.401522 81.78087 
z
" clip-path="url(#pe8c61a6b2a)" style="fill: #1f77b4"/>
   </g>
   <g id="patch_59">
    <path d="M 144.912946 224.64 
L 146.42437 224.64 
L 146.42437 93.18559 
L 144.912946 93.18559 
z
" clip-path="url(#pe8c61a6b2a)" style="fill: #1f77b4"/>
   </g>
   <g id="patch_60">
    <path d="M 146.42437 224.64 
L 147.935794 224.64 
L 147.935794 53.569193 
L 146.42437 53.569193 
z
" clip-path="url(#pe8c61a6b2a)" style="fill: #1f77b4"/>
   </g>
   <g id="patch_61">
    <path d="M 147.935794 224.64 
L 149.447218 224.64 
L 149.447218 74.577888 
L 147.935794 74.577888 
z
" clip-path="url(#pe8c61a6b2a)" style="fill: #1f77b4"/>
   </g>
   <g id="patch_62">
    <path d="M 149.447218 224.64 
L 150.958643 224.64 
L 150.958643 70.976398 
L 149.447218 70.976398 
z
" clip-path="url(#pe8c61a6b2a)" style="fill: #1f77b4"/>
   </g>
   <g id="patch_63">
    <path d="M 150.958643 224.64 
L 152.470067 224.64 
L 152.470067 63.173168 
L 150.958643 63.173168 
z
" clip-path="url(#pe8c61a6b2a)" style="fill: #1f77b4"/>
   </g>
   <g id="patch_64">
    <path d="M 152.470067 224.64 
L 153.981491 224.64 
L 153.981491 60.171925 
L 152.470067 60.171925 
z
" clip-path="url(#pe8c61a6b2a)" style="fill: #1f77b4"/>
   </g>
   <g id="patch_65">
    <path d="M 153.981491 224.64 
L 155.492915 224.64 
L 155.492915 59.571677 
L 153.981491 59.571677 
z
" clip-path="url(#pe8c61a6b2a)" style="fill: #1f77b4"/>
   </g>
   <g id="patch_66">
    <path d="M 155.492915 224.64 
L 157.004339 224.64 
L 157.004339 61.372422 
L 155.492915 61.372422 
z
" clip-path="url(#pe8c61a6b2a)" style="fill: #1f77b4"/>
   </g>
   <g id="patch_67">
    <path d="M 157.004339 224.64 
L 158.515763 224.64 
L 158.515763 73.97764 
L 157.004339 73.97764 
z
" clip-path="url(#pe8c61a6b2a)" style="fill: #1f77b4"/>
   </g>
   <g id="patch_68">
    <path d="M 158.515763 224.64 
L 160.027187 224.64 
L 160.027187 52.968944 
L 158.515763 52.968944 
z
" clip-path="url(#pe8c61a6b2a)" style="fill: #1f77b4"/>
   </g>
   <g id="patch_69">
    <path d="M 160.027187 224.64 
L 161.538612 224.64 
L 161.538612 48.767205 
L 160.027187 48.767205 
z
" clip-path="url(#pe8c61a6b2a)" style="fill: #1f77b4"/>
   </g>
   <g id="patch_70">
    <path d="M 161.538612 224.64 
L 163.050036 224.64 
L 163.050036 46.96646 
L 161.538612 46.96646 
z
" clip-path="url(#pe8c61a6b2a)" style="fill: #1f77b4"/>
   </g>
   <g id="patch_71">
    <path d="M 163.050036 224.64 
L 164.56146 224.64 
L 164.56146 52.968944 
L 163.050036 52.968944 
z
" clip-path="url(#pe8c61a6b2a)" style="fill: #1f77b4"/>
   </g>
   <g id="patch_72">
    <path d="M 164.56146 224.64 
L 166.072884 224.64 
L 166.072884 61.972671 
L 164.56146 61.972671 
z
" clip-path="url(#pe8c61a6b2a)" style="fill: #1f77b4"/>
   </g>
   <g id="patch_73">
    <path d="M 166.072884 224.64 
L 167.584308 224.64 
L 167.584308 58.37118 
L 166.072884 58.37118 
z
" clip-path="url(#pe8c61a6b2a)" style="fill: #1f77b4"/>
   </g>
   <g id="patch_74">
    <path d="M 167.584308 224.64 
L 169.095732 224.64 
L 169.095732 48.767205 
L 167.584308 48.767205 
z
" clip-path="url(#pe8c61a6b2a)" style="fill: #1f77b4"/>
   </g>
   <g id="patch_75">
    <path d="M 169.095732 224.64 
L 170.607156 224.64 
L 170.607156 48.767205 
L 169.095732 48.767205 
z
" clip-path="url(#pe8c61a6b2a)" style="fill: #1f77b4"/>
   </g>
   <g id="patch_76">
    <path d="M 170.607156 224.64 
L 172.11858 224.64 
L 172.11858 43.364969 
L 170.607156 43.364969 
z
" clip-path="url(#pe8c61a6b2a)" style="fill: #1f77b4"/>
   </g>
   <g id="patch_77">
    <path d="M 172.11858 224.64 
L 173.630005 224.64 
L 173.630005 44.565466 
L 172.11858 44.565466 
z
" clip-path="url(#pe8c61a6b2a)" style="fill: #1f77b4"/>
   </g>
   <g id="patch_78">
    <path d="M 173.630005 224.64 
L 175.141429 224.64 
L 175.141429 60.171925 
L 173.630005 60.171925 
z
" clip-path="url(#pe8c61a6b2a)" style="fill: #1f77b4"/>
   </g>
   <g id="patch_79">
    <path d="M 175.141429 224.64 
L 176.652853 224.64 
L 176.652853 49.967702 
L 175.141429 49.967702 
z
" clip-path="url(#pe8c61a6b2a)" style="fill: #1f77b4"/>
   </g>
   <g id="patch_80">
    <path d="M 176.652853 224.64 
L 178.164277 224.64 
L 178.164277 43.364969 
L 176.652853 43.364969 
z
" clip-path="url(#pe8c61a6b2a)" style="fill: #1f77b4"/>
   </g>
   <g id="patch_81">
    <path d="M 178.164277 224.64 
L 179.675701 224.64 
L 179.675701 42.164472 
L 178.164277 42.164472 
z
" clip-path="url(#pe8c61a6b2a)" style="fill: #1f77b4"/>
   </g>
   <g id="patch_82">
    <path d="M 179.675701 224.64 
L 181.187125 224.64 
L 181.187125 60.171925 
L 179.675701 60.171925 
z
" clip-path="url(#pe8c61a6b2a)" style="fill: #1f77b4"/>
   </g>
   <g id="patch_83">
    <path d="M 181.187125 224.64 
L 182.698549 224.64 
L 182.698549 59.571677 
L 181.187125 59.571677 
z
" clip-path="url(#pe8c61a6b2a)" style="fill: #1f77b4"/>
   </g>
   <g id="patch_84">
    <path d="M 182.698549 224.64 
L 184.209974 224.64 
L 184.209974 39.763478 
L 182.698549 39.763478 
z
" clip-path="url(#pe8c61a6b2a)" style="fill: #1f77b4"/>
   </g>
   <g id="patch_85">
    <path d="M 184.209974 224.64 
L 185.721398 224.64 
L 185.721398 59.571677 
L 184.209974 59.571677 
z
" clip-path="url(#pe8c61a6b2a)" style="fill: #1f77b4"/>
   </g>
   <g id="patch_86">
    <path d="M 185.721398 224.64 
L 187.232822 224.64 
L 187.232822 37.962733 
L 185.721398 37.962733 
z
" clip-path="url(#pe8c61a6b2a)" style="fill: #1f77b4"/>
   </g>
   <g id="patch_87">
    <path d="M 187.232822 224.64 
L 188.744246 224.64 
L 188.744246 48.166957 
L 187.232822 48.166957 
z
" clip-path="url(#pe8c61a6b2a)" style="fill: #1f77b4"/>
   </g>
   <g id="patch_88">
    <path d="M 188.744246 224.64 
L 190.25567 224.64 
L 190.25567 36.762236 
L 188.744246 36.762236 
z
" clip-path="url(#pe8c61a6b2a)" style="fill: #1f77b4"/>
   </g>
   <g id="patch_89">
    <path d="M 190.25567 224.64 
L 191.767094 224.64 
L 191.767094 60.772174 
L 190.25567 60.772174 
z
" clip-path="url(#pe8c61a6b2a)" style="fill: #1f77b4"/>
   </g>
   <g id="patch_90">
    <path d="M 191.767094 224.64 
L 193.278518 224.64 
L 193.278518 54.769689 
L 191.767094 54.769689 
z
" clip-path="url(#pe8c61a6b2a)" style="fill: #1f77b4"/>
   </g>
   <g id="patch_91">
    <path d="M 193.278518 224.64 
L 194.789943 224.64 
L 194.789943 46.96646 
L 193.278518 46.96646 
z
" clip-path="url(#pe8c61a6b2a)" style="fill: #1f77b4"/>
   </g>
   <g id="patch_92">
    <path d="M 194.789943 224.64 
L 196.301367 224.64 
L 196.301367 38.562981 
L 194.789943 38.562981 
z
" clip-path="url(#pe8c61a6b2a)" style="fill: #1f77b4"/>
   </g>
   <g id="patch_93">
    <path d="M 196.301367 224.64 
L 197.812791 224.64 
L 197.812791 47.566708 
L 196.301367 47.566708 
z
" clip-path="url(#pe8c61a6b2a)" style="fill: #1f77b4"/>
   </g>
   <g id="patch_94">
    <path d="M 197.812791 224.64 
L 199.324215 224.64 
L 199.324215 52.368696 
L 197.812791 52.368696 
z
" clip-path="url(#pe8c61a6b2a)" style="fill: #1f77b4"/>
   </g>
   <g id="patch_95">
    <path d="M 199.324215 224.64 
L 200.835639 224.64 
L 200.835639 52.968944 
L 199.324215 52.968944 
z
" clip-path="url(#pe8c61a6b2a)" style="fill: #1f77b4"/>
   </g>
   <g id="patch_96">
    <path d="M 200.835639 224.64 
L 202.347063 224.64 
L 202.347063 29.559255 
L 200.835639 29.559255 
z
" clip-path="url(#pe8c61a6b2a)" style="fill: #1f77b4"/>
   </g>
   <g id="patch_97">
    <path d="M 202.347063 224.64 
L 203.858487 224.64 
L 203.858487 40.963975 
L 202.347063 40.963975 
z
" clip-path="url(#pe8c61a6b2a)" style="fill: #1f77b4"/>
   </g>
   <g id="patch_98">
    <path d="M 203.858487 224.64 
L 205.369912 224.64 
L 205.369912 39.16323 
L 203.858487 39.16323 
z
" clip-path="url(#pe8c61a6b2a)" style="fill: #1f77b4"/>
   </g>
   <g id="patch_99">
    <path d="M 205.369912 224.64 
L 206.881336 224.64 
L 206.881336 55.369938 
L 205.369912 55.369938 
z
" clip-path="url(#pe8c61a6b2a)" style="fill: #1f77b4"/>
   </g>
   <g id="patch_100">
    <path d="M 206.881336 224.64 
L 208.39276 224.64 
L 208.39276 25.957764 
L 206.881336 25.957764 
z
" clip-path="url(#pe8c61a6b2a)" style="fill: #1f77b4"/>
   </g>
   <g id="patch_101">
    <path d="M 208.39276 224.64 
L 209.904184 224.64 
L 209.904184 39.763478 
L 208.39276 39.763478 
z
" clip-path="url(#pe8c61a6b2a)" style="fill: #1f77b4"/>
   </g>
   <g id="patch_102">
    <path d="M 209.904184 224.64 
L 211.415608 224.64 
L 211.415608 17.554286 
L 209.904184 17.554286 
z
" clip-path="url(#pe8c61a6b2a)" style="fill: #1f77b4"/>
   </g>
   <g id="patch_103">
    <path d="M 211.415608 224.64 
L 212.927032 224.64 
L 212.927032 38.562981 
L 211.415608 38.562981 
z
" clip-path="url(#pe8c61a6b2a)" style="fill: #1f77b4"/>
   </g>
   <g id="patch_104">
    <path d="M 212.927032 224.64 
L 214.438456 224.64 
L 214.438456 42.76472 
L 212.927032 42.76472 
z
" clip-path="url(#pe8c61a6b2a)" style="fill: #1f77b4"/>
   </g>
   <g id="patch_105">
    <path d="M 214.438456 224.64 
L 215.949881 224.64 
L 215.949881 45.765963 
L 214.438456 45.765963 
z
" clip-path="url(#pe8c61a6b2a)" style="fill: #1f77b4"/>
   </g>
   <g id="patch_106">
    <path d="M 215.949881 224.64 
L 217.461305 224.64 
L 217.461305 30.159503 
L 215.949881 30.159503 
z
" clip-path="url(#pe8c61a6b2a)" style="fill: #1f77b4"/>
   </g>
   <g id="patch_107">
    <path d="M 217.461305 224.64 
L 218.972729 224.64 
L 218.972729 22.356273 
L 217.461305 22.356273 
z
" clip-path="url(#pe8c61a6b2a)" style="fill: #1f77b4"/>
   </g>
   <g id="patch_108">
    <path d="M 218.972729 224.64 
L 220.484153 224.64 
L 220.484153 33.160745 
L 218.972729 33.160745 
z
" clip-path="url(#pe8c61a6b2a)" style="fill: #1f77b4"/>
   </g>
   <g id="patch_109">
    <path d="M 220.484153 224.64 
L 221.995577 224.64 
L 221.995577 51.768447 
L 220.484153 51.768447 
z
" clip-path="url(#pe8c61a6b2a)" style="fill: #1f77b4"/>
   </g>
   <g id="patch_110">
    <path d="M 221.995577 224.64 
L 223.507001 224.64 
L 223.507001 34.361242 
L 221.995577 34.361242 
z
" clip-path="url(#pe8c61a6b2a)" style="fill: #1f77b4"/>
   </g>
   <g id="patch_111">
    <path d="M 223.507001 224.64 
L 225.018425 224.64 
L 225.018425 39.16323 
L 223.507001 39.16323 
z
" clip-path="url(#pe8c61a6b2a)" style="fill: #1f77b4"/>
   </g>
   <g id="patch_112">
    <path d="M 225.018425 224.64 
L 226.52985 224.64 
L 226.52985 49.967702 
L 225.018425 49.967702 
z
" clip-path="url(#pe8c61a6b2a)" style="fill: #1f77b4"/>
   </g>
   <g id="patch_113">
    <path d="M 226.52985 224.64 
L 228.041274 224.64 
L 228.041274 30.159503 
L 226.52985 30.159503 
z
" clip-path="url(#pe8c61a6b2a)" style="fill: #1f77b4"/>
   </g>
   <g id="patch_114">
    <path d="M 228.041274 224.64 
L 229.552698 224.64 
L 229.552698 37.362484 
L 228.041274 37.362484 
z
" clip-path="url(#pe8c61a6b2a)" style="fill: #1f77b4"/>
   </g>
   <g id="patch_115">
    <path d="M 229.552698 224.64 
L 231.064122 224.64 
L 231.064122 41.564224 
L 229.552698 41.564224 
z
" clip-path="url(#pe8c61a6b2a)" style="fill: #1f77b4"/>
   </g>
   <g id="patch_116">
    <path d="M 231.064122 224.64 
L 232.575546 224.64 
L 232.575546 55.970186 
L 231.064122 55.970186 
z
" clip-path="url(#pe8c61a6b2a)" style="fill: #1f77b4"/>
   </g>
   <g id="patch_117">
    <path d="M 232.575546 224.64 
L 234.08697 224.64 
L 234.08697 42.76472 
L 232.575546 42.76472 
z
" clip-path="url(#pe8c61a6b2a)" style="fill: #1f77b4"/>
   </g>
   <g id="patch_118">
    <path d="M 234.08697 224.64 
L 235.598394 224.64 
L 235.598394 51.168199 
L 234.08697 51.168199 
z
" clip-path="url(#pe8c61a6b2a)" style="fill: #1f77b4"/>
   </g>
   <g id="patch_119">
    <path d="M 235.598394 224.64 
L 237.109819 224.64 
L 237.109819 37.962733 
L 235.598394 37.962733 
z
" clip-path="url(#pe8c61a6b2a)" style="fill: #1f77b4"/>
   </g>
   <g id="patch_120">
    <path d="M 237.109819 224.64 
L 238.621243 224.64 
L 238.621243 42.164472 
L 237.109819 42.164472 
z
" clip-path="url(#pe8c61a6b2a)" style="fill: #1f77b4"/>
   </g>
   <g id="patch_121">
    <path d="M 238.621243 224.64 
L 240.132667 224.64 
L 240.132667 45.165714 
L 238.621243 45.165714 
z
" clip-path="url(#pe8c61a6b2a)" style="fill: #1f77b4"/>
   </g>
   <g id="patch_122">
    <path d="M 240.132667 224.64 
L 241.644091 224.64 
L 241.644091 41.564224 
L 240.132667 41.564224 
z
" clip-path="url(#pe8c61a6b2a)" style="fill: #1f77b4"/>
   </g>
   <g id="patch_123">
    <path d="M 241.644091 224.64 
L 243.155515 224.64 
L 243.155515 48.166957 
L 241.644091 48.166957 
z
" clip-path="url(#pe8c61a6b2a)" style="fill: #1f77b4"/>
   </g>
   <g id="patch_124">
    <path d="M 243.155515 224.64 
L 244.666939 224.64 
L 244.666939 69.775901 
L 243.155515 69.775901 
z
" clip-path="url(#pe8c61a6b2a)" style="fill: #1f77b4"/>
   </g>
   <g id="patch_125">
    <path d="M 244.666939 224.64 
L 246.178363 224.64 
L 246.178363 72.176894 
L 244.666939 72.176894 
z
" clip-path="url(#pe8c61a6b2a)" style="fill: #1f77b4"/>
   </g>
   <g id="patch_126">
    <path d="M 246.178363 224.64 
L 247.689788 224.64 
L 247.689788 61.972671 
L 246.178363 61.972671 
z
" clip-path="url(#pe8c61a6b2a)" style="fill: #1f77b4"/>
   </g>
   <g id="patch_127">
    <path d="M 247.689788 224.64 
L 249.201212 224.64 
L 249.201212 37.962733 
L 247.689788 37.962733 
z
" clip-path="url(#pe8c61a6b2a)" style="fill: #1f77b4"/>
   </g>
   <g id="patch_128">
    <path d="M 249.201212 224.64 
L 250.712636 224.64 
L 250.712636 50.56795 
L 249.201212 50.56795 
z
" clip-path="url(#pe8c61a6b2a)" style="fill: #1f77b4"/>
   </g>
   <g id="patch_129">
    <path d="M 250.712636 224.64 
L 252.22406 224.64 
L 252.22406 45.765963 
L 250.712636 45.765963 
z
" clip-path="url(#pe8c61a6b2a)" style="fill: #1f77b4"/>
   </g>
   <g id="patch_130">
    <path d="M 252.22406 224.64 
L 253.735484 224.64 
L 253.735484 30.759752 
L 252.22406 30.759752 
z
" clip-path="url(#pe8c61a6b2a)" style="fill: #1f77b4"/>
   </g>
   <g id="patch_131">
    <path d="M 253.735484 224.64 
L 255.246908 224.64 
L 255.246908 62.572919 
L 253.735484 62.572919 
z
" clip-path="url(#pe8c61a6b2a)" style="fill: #1f77b4"/>
   </g>
   <g id="patch_132">
    <path d="M 255.246908 224.64 
L 256.758332 224.64 
L 256.758332 61.372422 
L 255.246908 61.372422 
z
" clip-path="url(#pe8c61a6b2a)" style="fill: #1f77b4"/>
   </g>
   <g id="patch_133">
    <path d="M 256.758332 224.64 
L 258.269757 224.64 
L 258.269757 44.565466 
L 256.758332 44.565466 
z
" clip-path="url(#pe8c61a6b2a)" style="fill: #1f77b4"/>
   </g>
   <g id="patch_134">
    <path d="M 258.269757 224.64 
L 259.781181 224.64 
L 259.781181 58.971429 
L 258.269757 58.971429 
z
" clip-path="url(#pe8c61a6b2a)" style="fill: #1f77b4"/>
   </g>
   <g id="patch_135">
    <path d="M 259.781181 224.64 
L 261.292605 224.64 
L 261.292605 72.176894 
L 259.781181 72.176894 
z
" clip-path="url(#pe8c61a6b2a)" style="fill: #1f77b4"/>
   </g>
   <g id="patch_136">
    <path d="M 261.292605 224.64 
L 262.804029 224.64 
L 262.804029 74.577888 
L 261.292605 74.577888 
z
" clip-path="url(#pe8c61a6b2a)" style="fill: #1f77b4"/>
   </g>
   <g id="patch_137">
    <path d="M 262.804029 224.64 
L 264.315453 224.64 
L 264.315453 46.96646 
L 262.804029 46.96646 
z
" clip-path="url(#pe8c61a6b2a)" style="fill: #1f77b4"/>
   </g>
   <g id="patch_138">
    <path d="M 264.315453 224.64 
L 265.826877 224.64 
L 265.826877 66.774658 
L 264.315453 66.774658 
z
" clip-path="url(#pe8c61a6b2a)" style="fill: #1f77b4"/>
   </g>
   <g id="patch_139">
    <path d="M 265.826877 224.64 
L 267.338301 224.64 
L 267.338301 72.176894 
L 265.826877 72.176894 
z
" clip-path="url(#pe8c61a6b2a)" style="fill: #1f77b4"/>
   </g>
   <g id="patch_140">
    <path d="M 267.338301 224.64 
L 268.849726 224.64 
L 268.849726 64.973913 
L 267.338301 64.973913 
z
" clip-path="url(#pe8c61a6b2a)" style="fill: #1f77b4"/>
   </g>
   <g id="patch_141">
    <path d="M 268.849726 224.64 
L 270.36115 224.64 
L 270.36115 91.985093 
L 268.849726 91.985093 
z
" clip-path="url(#pe8c61a6b2a)" style="fill: #1f77b4"/>
   </g>
   <g id="patch_142">
    <path d="M 270.36115 224.64 
L 271.872574 224.64 
L 271.872574 80.580373 
L 270.36115 80.580373 
z
" clip-path="url(#pe8c61a6b2a)" style="fill: #1f77b4"/>
   </g>
   <g id="patch_143">
    <path d="M 271.872574 224.64 
L 273.383998 224.64 
L 273.383998 85.982609 
L 271.872574 85.982609 
z
" clip-path="url(#pe8c61a6b2a)" style="fill: #1f77b4"/>
   </g>
   <g id="patch_144">
    <path d="M 273.383998 224.64 
L 274.895422 224.64 
L 274.895422 84.782112 
L 273.383998 84.782112 
z
" clip-path="url(#pe8c61a6b2a)" style="fill: #1f77b4"/>
   </g>
   <g id="patch_145">
    <path d="M 274.895422 224.64 
L 276.406846 224.64 
L 276.406846 61.972671 
L 274.895422 61.972671 
z
" clip-path="url(#pe8c61a6b2a)" style="fill: #1f77b4"/>
   </g>
   <g id="patch_146">
    <path d="M 276.406846 224.64 
L 277.91827 224.64 
L 277.91827 84.782112 
L 276.406846 84.782112 
z
" clip-path="url(#pe8c61a6b2a)" style="fill: #1f77b4"/>
   </g>
   <g id="patch_147">
    <path d="M 277.91827 224.64 
L 279.429695 224.64 
L 279.429695 73.377391 
L 277.91827 73.377391 
z
" clip-path="url(#pe8c61a6b2a)" style="fill: #1f77b4"/>
   </g>
   <g id="patch_148">
    <path d="M 279.429695 224.64 
L 280.941119 224.64 
L 280.941119 96.787081 
L 279.429695 96.787081 
z
" clip-path="url(#pe8c61a6b2a)" style="fill: #1f77b4"/>
   </g>
   <g id="patch_149">
    <path d="M 280.941119 224.64 
L 282.452543 224.64 
L 282.452543 67.975155 
L 280.941119 67.975155 
z
" clip-path="url(#pe8c61a6b2a)" style="fill: #1f77b4"/>
   </g>
   <g id="patch_150">
    <path d="M 282.452543 224.64 
L 283.963967 224.64 
L 283.963967 85.982609 
L 282.452543 85.982609 
z
" clip-path="url(#pe8c61a6b2a)" style="fill: #1f77b4"/>
   </g>
   <g id="patch_151">
    <path d="M 283.963967 224.64 
L 285.475391 224.64 
L 285.475391 108.79205 
L 283.963967 108.79205 
z
" clip-path="url(#pe8c61a6b2a)" style="fill: #1f77b4"/>
   </g>
   <g id="patch_152">
    <path d="M 285.475391 224.64 
L 286.986815 224.64 
L 286.986815 77.57913 
L 285.475391 77.57913 
z
" clip-path="url(#pe8c61a6b2a)" style="fill: #1f77b4"/>
   </g>
   <g id="patch_153">
    <path d="M 286.986815 224.64 
L 288.498239 224.64 
L 288.498239 103.990062 
L 286.986815 103.990062 
z
" clip-path="url(#pe8c61a6b2a)" style="fill: #1f77b4"/>
   </g>
   <g id="patch_154">
    <path d="M 288.498239 224.64 
L 290.009664 224.64 
L 290.009664 107.591553 
L 288.498239 107.591553 
z
" clip-path="url(#pe8c61a6b2a)" style="fill: #1f77b4"/>
   </g>
   <g id="patch_155">
    <path d="M 290.009664 224.64 
L 291.521088 224.64 
L 291.521088 96.186832 
L 290.009664 96.186832 
z
" clip-path="url(#pe8c61a6b2a)" style="fill: #1f77b4"/>
   </g>
   <g id="patch_156">
    <path d="M 291.521088 224.64 
L 293.032512 224.64 
L 293.032512 102.789565 
L 291.521088 102.789565 
z
" clip-path="url(#pe8c61a6b2a)" style="fill: #1f77b4"/>
   </g>
   <g id="patch_157">
    <path d="M 293.032512 224.64 
L 294.543936 224.64 
L 294.543936 104.590311 
L 293.032512 104.590311 
z
" clip-path="url(#pe8c61a6b2a)" style="fill: #1f77b4"/>
   </g>
   <g id="patch_158">
    <path d="M 294.543936 224.64 
L 296.05536 224.64 
L 296.05536 110.592795 
L 294.543936 110.592795 
z
" clip-path="url(#pe8c61a6b2a)" style="fill: #1f77b4"/>
   </g>
   <g id="patch_159">
    <path d="M 296.05536 224.64 
L 297.566784 224.64 
L 297.566784 109.992547 
L 296.05536 109.992547 
z
" clip-path="url(#pe8c61a6b2a)" style="fill: #1f77b4"/>
   </g>
   <g id="patch_160">
    <path d="M 297.566784 224.64 
L 299.078208 224.64 
L 299.078208 97.387329 
L 297.566784 97.387329 
z
" clip-path="url(#pe8c61a6b2a)" style="fill: #1f77b4"/>
   </g>
   <g id="patch_161">
    <path d="M 299.078208 224.64 
L 300.589633 224.64 
L 300.589633 121.997516 
L 299.078208 121.997516 
z
" clip-path="url(#pe8c61a6b2a)" style="fill: #1f77b4"/>
   </g>
   <g id="patch_162">
    <path d="M 300.589633 224.64 
L 302.101057 224.64 
L 302.101057 121.997516 
L 300.589633 121.997516 
z
" clip-path="url(#pe8c61a6b2a)" style="fill: #1f77b4"/>
   </g>
   <g id="patch_163">
    <path d="M 302.101057 224.64 
L 303.612481 224.64 
L 303.612481 119.596522 
L 302.101057 119.596522 
z
" clip-path="url(#pe8c61a6b2a)" style="fill: #1f77b4"/>
   </g>
   <g id="patch_164">
    <path d="M 303.612481 224.64 
L 305.123905 224.64 
L 305.123905 121.997516 
L 303.612481 121.997516 
z
" clip-path="url(#pe8c61a6b2a)" style="fill: #1f77b4"/>
   </g>
   <g id="patch_165">
    <path d="M 305.123905 224.64 
L 306.635329 224.64 
L 306.635329 116.59528 
L 305.123905 116.59528 
z
" clip-path="url(#pe8c61a6b2a)" style="fill: #1f77b4"/>
   </g>
   <g id="patch_166">
    <path d="M 306.635329 224.64 
L 308.146753 224.64 
L 308.146753 117.795776 
L 306.635329 117.795776 
z
" clip-path="url(#pe8c61a6b2a)" style="fill: #1f77b4"/>
   </g>
   <g id="patch_167">
    <path d="M 308.146753 224.64 
L 309.658177 224.64 
L 309.658177 112.39354 
L 308.146753 112.39354 
z
" clip-path="url(#pe8c61a6b2a)" style="fill: #1f77b4"/>
   </g>
   <g id="patch_168">
    <path d="M 309.658177 224.64 
L 311.169602 224.64 
L 311.169602 135.80323 
L 309.658177 135.80323 
z
" clip-path="url(#pe8c61a6b2a)" style="fill: #1f77b4"/>
   </g>
   <g id="patch_169">
    <path d="M 311.169602 224.64 
L 312.681026 224.64 
L 312.681026 126.199255 
L 311.169602 126.199255 
z
" clip-path="url(#pe8c61a6b2a)" style="fill: #1f77b4"/>
   </g>
   <g id="patch_170">
    <path d="M 312.681026 224.64 
L 314.19245 224.64 
L 314.19245 131.001242 
L 312.681026 131.001242 
z
" clip-path="url(#pe8c61a6b2a)" style="fill: #1f77b4"/>
   </g>
   <g id="patch_171">
    <path d="M 314.19245 224.64 
L 315.703874 224.64 
L 315.703874 128 
L 314.19245 128 
z
" clip-path="url(#pe8c61a6b2a)" style="fill: #1f77b4"/>
   </g>
   <g id="patch_172">
    <path d="M 315.703874 224.64 
L 317.215298 224.64 
L 317.215298 131.001242 
L 315.703874 131.001242 
z
" clip-path="url(#pe8c61a6b2a)" style="fill: #1f77b4"/>
   </g>
   <g id="patch_173">
    <path d="M 317.215298 224.64 
L 318.726722 224.64 
L 318.726722 132.201739 
L 317.215298 132.201739 
z
" clip-path="url(#pe8c61a6b2a)" style="fill: #1f77b4"/>
   </g>
   <g id="patch_174">
    <path d="M 318.726722 224.64 
L 320.238146 224.64 
L 320.238146 128.600248 
L 318.726722 128.600248 
z
" clip-path="url(#pe8c61a6b2a)" style="fill: #1f77b4"/>
   </g>
   <g id="patch_175">
    <path d="M 320.238146 224.64 
L 321.749571 224.64 
L 321.749571 140.004969 
L 320.238146 140.004969 
z
" clip-path="url(#pe8c61a6b2a)" style="fill: #1f77b4"/>
   </g>
   <g id="patch_176">
    <path d="M 321.749571 224.64 
L 323.260995 224.64 
L 323.260995 141.805714 
L 321.749571 141.805714 
z
" clip-path="url(#pe8c61a6b2a)" style="fill: #1f77b4"/>
   </g>
   <g id="patch_177">
    <path d="M 323.260995 224.64 
L 324.772419 224.64 
L 324.772419 147.808199 
L 323.260995 147.808199 
z
" clip-path="url(#pe8c61a6b2a)" style="fill: #1f77b4"/>
   </g>
   <g id="patch_178">
    <path d="M 324.772419 224.64 
L 326.283843 224.64 
L 326.283843 158.012422 
L 324.772419 158.012422 
z
" clip-path="url(#pe8c61a6b2a)" style="fill: #1f77b4"/>
   </g>
   <g id="patch_179">
    <path d="M 326.283843 224.64 
L 327.795267 224.64 
L 327.795267 144.206708 
L 326.283843 144.206708 
z
" clip-path="url(#pe8c61a6b2a)" style="fill: #1f77b4"/>
   </g>
   <g id="patch_180">
    <path d="M 327.795267 224.64 
L 329.306691 224.64 
L 329.306691 159.212919 
L 327.795267 159.212919 
z
" clip-path="url(#pe8c61a6b2a)" style="fill: #1f77b4"/>
   </g>
   <g id="patch_181">
    <path d="M 329.306691 224.64 
L 330.818115 224.64 
L 330.818115 160.413416 
L 329.306691 160.413416 
z
" clip-path="url(#pe8c61a6b2a)" style="fill: #1f77b4"/>
   </g>
   <g id="patch_182">
    <path d="M 330.818115 224.64 
L 332.32954 224.64 
L 332.32954 169.417143 
L 330.818115 169.417143 
z
" clip-path="url(#pe8c61a6b2a)" style="fill: #1f77b4"/>
   </g>
   <g id="patch_183">
    <path d="M 332.32954 224.64 
L 333.840964 224.64 
L 333.840964 162.214161 
L 332.32954 162.214161 
z
" clip-path="url(#pe8c61a6b2a)" style="fill: #1f77b4"/>
   </g>
   <g id="patch_184">
    <path d="M 333.840964 224.64 
L 335.352388 224.64 
L 335.352388 176.620124 
L 333.840964 176.620124 
z
" clip-path="url(#pe8c61a6b2a)" style="fill: #1f77b4"/>
   </g>
   <g id="patch_185">
    <path d="M 335.352388 224.64 
L 336.863812 224.64 
L 336.863812 171.818137 
L 335.352388 171.818137 
z
" clip-path="url(#pe8c61a6b2a)" style="fill: #1f77b4"/>
   </g>
   <g id="patch_186">
    <path d="M 336.863812 224.64 
L 338.375236 224.64 
L 338.375236 179.621366 
L 336.863812 179.621366 
z
" clip-path="url(#pe8c61a6b2a)" style="fill: #1f77b4"/>
   </g>
   <g id="patch_187">
    <path d="M 338.375236 224.64 
L 339.88666 224.64 
L 339.88666 174.21913 
L 338.375236 174.21913 
z
" clip-path="url(#pe8c61a6b2a)" style="fill: #1f77b4"/>
   </g>
   <g id="patch_188">
    <path d="M 339.88666 224.64 
L 341.398084 224.64 
L 341.398084 179.021118 
L 339.88666 179.021118 
z
" clip-path="url(#pe8c61a6b2a)" style="fill: #1f77b4"/>
   </g>
   <g id="patch_189">
    <path d="M 341.398084 224.64 
L 342.909508 224.64 
L 342.909508 183.222857 
L 341.398084 183.222857 
z
" clip-path="url(#pe8c61a6b2a)" style="fill: #1f77b4"/>
   </g>
   <g id="patch_190">
    <path d="M 342.909508 224.64 
L 344.420933 224.64 
L 344.420933 192.226584 
L 342.909508 192.226584 
z
" clip-path="url(#pe8c61a6b2a)" style="fill: #1f77b4"/>
   </g>
   <g id="patch_191">
    <path d="M 344.420933 224.64 
L 345.932357 224.64 
L 345.932357 184.423354 
L 344.420933 184.423354 
z
" clip-path="url(#pe8c61a6b2a)" style="fill: #1f77b4"/>
   </g>
   <g id="patch_192">
    <path d="M 345.932357 224.64 
L 347.443781 224.64 
L 347.443781 188.024845 
L 345.932357 188.024845 
z
" clip-path="url(#pe8c61a6b2a)" style="fill: #1f77b4"/>
   </g>
   <g id="patch_193">
    <path d="M 347.443781 224.64 
L 348.955205 224.64 
L 348.955205 198.229068 
L 347.443781 198.229068 
z
" clip-path="url(#pe8c61a6b2a)" style="fill: #1f77b4"/>
   </g>
   <g id="patch_194">
    <path d="M 348.955205 224.64 
L 350.466629 224.64 
L 350.466629 200.630062 
L 348.955205 200.630062 
z
" clip-path="url(#pe8c61a6b2a)" style="fill: #1f77b4"/>
   </g>
   <g id="patch_195">
    <path d="M 350.466629 224.64 
L 351.978053 224.64 
L 351.978053 203.631304 
L 350.466629 203.631304 
z
" clip-path="url(#pe8c61a6b2a)" style="fill: #1f77b4"/>
   </g>
   <g id="patch_196">
    <path d="M 351.978053 224.64 
L 353.489477 224.64 
L 353.489477 206.632547 
L 351.978053 206.632547 
z
" clip-path="url(#pe8c61a6b2a)" style="fill: #1f77b4"/>
   </g>
   <g id="patch_197">
    <path d="M 353.489477 224.64 
L 355.000902 224.64 
L 355.000902 208.433292 
L 353.489477 208.433292 
z
" clip-path="url(#pe8c61a6b2a)" style="fill: #1f77b4"/>
   </g>
   <g id="patch_198">
    <path d="M 355.000902 224.64 
L 356.512326 224.64 
L 356.512326 210.234037 
L 355.000902 210.234037 
z
" clip-path="url(#pe8c61a6b2a)" style="fill: #1f77b4"/>
   </g>
   <g id="patch_199">
    <path d="M 356.512326 224.64 
L 358.02375 224.64 
L 358.02375 219.838012 
L 356.512326 219.838012 
z
" clip-path="url(#pe8c61a6b2a)" style="fill: #1f77b4"/>
   </g>
   <g id="patch_200">
    <path d="M 358.02375 224.64 
L 359.535174 224.64 
L 359.535174 216.83677 
L 358.02375 216.83677 
z
" clip-path="url(#pe8c61a6b2a)" style="fill: #1f77b4"/>
   </g>
   <g id="patch_201">
    <path d="M 359.535174 224.64 
L 361.046598 224.64 
L 361.046598 217.437019 
L 359.535174 217.437019 
z
" clip-path="url(#pe8c61a6b2a)" style="fill: #1f77b4"/>
   </g>
   <g id="patch_202">
    <path d="M 361.046598 224.64 
L 362.558022 224.64 
L 362.558022 219.237764 
L 361.046598 219.237764 
z
" clip-path="url(#pe8c61a6b2a)" style="fill: #1f77b4"/>
   </g>
   <g id="matplotlib.axis_1">
    <g id="xtick_1">
     <g id="line2d_1">
      <defs>
       <path id="md222f5895f" d="M 0 0 
L 0 3.5 
" style="stroke: #000000; stroke-width: 0.8"/>
      </defs>
      <g>
       <use xlink:href="#md222f5895f" x="58.999432" y="224.64" style="stroke: #000000; stroke-width: 0.8"/>
      </g>
     </g>
     <g id="text_1">
      <!-- 0.0 -->
      <g transform="translate(51.047869 239.238437)scale(0.1 -0.1)">
       <defs>
        <path id="DejaVuSans-30" d="M 2034 4250 
Q 1547 4250 1301 3770 
Q 1056 3291 1056 2328 
Q 1056 1369 1301 889 
Q 1547 409 2034 409 
Q 2525 409 2770 889 
Q 3016 1369 3016 2328 
Q 3016 3291 2770 3770 
Q 2525 4250 2034 4250 
z
M 2034 4750 
Q 2819 4750 3233 4129 
Q 3647 3509 3647 2328 
Q 3647 1150 3233 529 
Q 2819 -91 2034 -91 
Q 1250 -91 836 529 
Q 422 1150 422 2328 
Q 422 3509 836 4129 
Q 1250 4750 2034 4750 
z
" transform="scale(0.015625)"/>
        <path id="DejaVuSans-2e" d="M 684 794 
L 1344 794 
L 1344 0 
L 684 0 
L 684 794 
z
" transform="scale(0.015625)"/>
       </defs>
       <use xlink:href="#DejaVuSans-30"/>
       <use xlink:href="#DejaVuSans-2e" x="63.623047"/>
       <use xlink:href="#DejaVuSans-30" x="95.410156"/>
      </g>
     </g>
    </g>
    <g id="xtick_2">
     <g id="line2d_2">
      <g>
       <use xlink:href="#md222f5895f" x="97.752214" y="224.64" style="stroke: #000000; stroke-width: 0.8"/>
      </g>
     </g>
     <g id="text_2">
      <!-- 0.2 -->
      <g transform="translate(89.800651 239.238437)scale(0.1 -0.1)">
       <defs>
        <path id="DejaVuSans-32" d="M 1228 531 
L 3431 531 
L 3431 0 
L 469 0 
L 469 531 
Q 828 903 1448 1529 
Q 2069 2156 2228 2338 
Q 2531 2678 2651 2914 
Q 2772 3150 2772 3378 
Q 2772 3750 2511 3984 
Q 2250 4219 1831 4219 
Q 1534 4219 1204 4116 
Q 875 4013 500 3803 
L 500 4441 
Q 881 4594 1212 4672 
Q 1544 4750 1819 4750 
Q 2544 4750 2975 4387 
Q 3406 4025 3406 3419 
Q 3406 3131 3298 2873 
Q 3191 2616 2906 2266 
Q 2828 2175 2409 1742 
Q 1991 1309 1228 531 
z
" transform="scale(0.015625)"/>
       </defs>
       <use xlink:href="#DejaVuSans-30"/>
       <use xlink:href="#DejaVuSans-2e" x="63.623047"/>
       <use xlink:href="#DejaVuSans-32" x="95.410156"/>
      </g>
     </g>
    </g>
    <g id="xtick_3">
     <g id="line2d_3">
      <g>
       <use xlink:href="#md222f5895f" x="136.504995" y="224.64" style="stroke: #000000; stroke-width: 0.8"/>
      </g>
     </g>
     <g id="text_3">
      <!-- 0.4 -->
      <g transform="translate(128.553433 239.238437)scale(0.1 -0.1)">
       <defs>
        <path id="DejaVuSans-34" d="M 2419 4116 
L 825 1625 
L 2419 1625 
L 2419 4116 
z
M 2253 4666 
L 3047 4666 
L 3047 1625 
L 3713 1625 
L 3713 1100 
L 3047 1100 
L 3047 0 
L 2419 0 
L 2419 1100 
L 313 1100 
L 313 1709 
L 2253 4666 
z
" transform="scale(0.015625)"/>
       </defs>
       <use xlink:href="#DejaVuSans-30"/>
       <use xlink:href="#DejaVuSans-2e" x="63.623047"/>
       <use xlink:href="#DejaVuSans-34" x="95.410156"/>
      </g>
     </g>
    </g>
    <g id="xtick_4">
     <g id="line2d_4">
      <g>
       <use xlink:href="#md222f5895f" x="175.257777" y="224.64" style="stroke: #000000; stroke-width: 0.8"/>
      </g>
     </g>
     <g id="text_4">
      <!-- 0.6 -->
      <g transform="translate(167.306215 239.238437)scale(0.1 -0.1)">
       <defs>
        <path id="DejaVuSans-36" d="M 2113 2584 
Q 1688 2584 1439 2293 
Q 1191 2003 1191 1497 
Q 1191 994 1439 701 
Q 1688 409 2113 409 
Q 2538 409 2786 701 
Q 3034 994 3034 1497 
Q 3034 2003 2786 2293 
Q 2538 2584 2113 2584 
z
M 3366 4563 
L 3366 3988 
Q 3128 4100 2886 4159 
Q 2644 4219 2406 4219 
Q 1781 4219 1451 3797 
Q 1122 3375 1075 2522 
Q 1259 2794 1537 2939 
Q 1816 3084 2150 3084 
Q 2853 3084 3261 2657 
Q 3669 2231 3669 1497 
Q 3669 778 3244 343 
Q 2819 -91 2113 -91 
Q 1303 -91 875 529 
Q 447 1150 447 2328 
Q 447 3434 972 4092 
Q 1497 4750 2381 4750 
Q 2619 4750 2861 4703 
Q 3103 4656 3366 4563 
z
" transform="scale(0.015625)"/>
       </defs>
       <use xlink:href="#DejaVuSans-30"/>
       <use xlink:href="#DejaVuSans-2e" x="63.623047"/>
       <use xlink:href="#DejaVuSans-36" x="95.410156"/>
      </g>
     </g>
    </g>
    <g id="xtick_5">
     <g id="line2d_5">
      <g>
       <use xlink:href="#md222f5895f" x="214.010559" y="224.64" style="stroke: #000000; stroke-width: 0.8"/>
      </g>
     </g>
     <g id="text_5">
      <!-- 0.8 -->
      <g transform="translate(206.058996 239.238437)scale(0.1 -0.1)">
       <defs>
        <path id="DejaVuSans-38" d="M 2034 2216 
Q 1584 2216 1326 1975 
Q 1069 1734 1069 1313 
Q 1069 891 1326 650 
Q 1584 409 2034 409 
Q 2484 409 2743 651 
Q 3003 894 3003 1313 
Q 3003 1734 2745 1975 
Q 2488 2216 2034 2216 
z
M 1403 2484 
Q 997 2584 770 2862 
Q 544 3141 544 3541 
Q 544 4100 942 4425 
Q 1341 4750 2034 4750 
Q 2731 4750 3128 4425 
Q 3525 4100 3525 3541 
Q 3525 3141 3298 2862 
Q 3072 2584 2669 2484 
Q 3125 2378 3379 2068 
Q 3634 1759 3634 1313 
Q 3634 634 3220 271 
Q 2806 -91 2034 -91 
Q 1263 -91 848 271 
Q 434 634 434 1313 
Q 434 1759 690 2068 
Q 947 2378 1403 2484 
z
M 1172 3481 
Q 1172 3119 1398 2916 
Q 1625 2713 2034 2713 
Q 2441 2713 2670 2916 
Q 2900 3119 2900 3481 
Q 2900 3844 2670 4047 
Q 2441 4250 2034 4250 
Q 1625 4250 1398 4047 
Q 1172 3844 1172 3481 
z
" transform="scale(0.015625)"/>
       </defs>
       <use xlink:href="#DejaVuSans-30"/>
       <use xlink:href="#DejaVuSans-2e" x="63.623047"/>
       <use xlink:href="#DejaVuSans-38" x="95.410156"/>
      </g>
     </g>
    </g>
    <g id="xtick_6">
     <g id="line2d_6">
      <g>
       <use xlink:href="#md222f5895f" x="252.763341" y="224.64" style="stroke: #000000; stroke-width: 0.8"/>
      </g>
     </g>
     <g id="text_6">
      <!-- 1.0 -->
      <g transform="translate(244.811778 239.238437)scale(0.1 -0.1)">
       <defs>
        <path id="DejaVuSans-31" d="M 794 531 
L 1825 531 
L 1825 4091 
L 703 3866 
L 703 4441 
L 1819 4666 
L 2450 4666 
L 2450 531 
L 3481 531 
L 3481 0 
L 794 0 
L 794 531 
z
" transform="scale(0.015625)"/>
       </defs>
       <use xlink:href="#DejaVuSans-31"/>
       <use xlink:href="#DejaVuSans-2e" x="63.623047"/>
       <use xlink:href="#DejaVuSans-30" x="95.410156"/>
      </g>
     </g>
    </g>
    <g id="xtick_7">
     <g id="line2d_7">
      <g>
       <use xlink:href="#md222f5895f" x="291.516122" y="224.64" style="stroke: #000000; stroke-width: 0.8"/>
      </g>
     </g>
     <g id="text_7">
      <!-- 1.2 -->
      <g transform="translate(283.56456 239.238437)scale(0.1 -0.1)">
       <use xlink:href="#DejaVuSans-31"/>
       <use xlink:href="#DejaVuSans-2e" x="63.623047"/>
       <use xlink:href="#DejaVuSans-32" x="95.410156"/>
      </g>
     </g>
    </g>
    <g id="xtick_8">
     <g id="line2d_8">
      <g>
       <use xlink:href="#md222f5895f" x="330.268904" y="224.64" style="stroke: #000000; stroke-width: 0.8"/>
      </g>
     </g>
     <g id="text_8">
      <!-- 1.4 -->
      <g transform="translate(322.317342 239.238437)scale(0.1 -0.1)">
       <use xlink:href="#DejaVuSans-31"/>
       <use xlink:href="#DejaVuSans-2e" x="63.623047"/>
       <use xlink:href="#DejaVuSans-34" x="95.410156"/>
      </g>
     </g>
    </g>
    <g id="xtick_9">
     <g id="line2d_9">
      <g>
       <use xlink:href="#md222f5895f" x="369.021686" y="224.64" style="stroke: #000000; stroke-width: 0.8"/>
      </g>
     </g>
     <g id="text_9">
      <!-- 1.6 -->
      <g transform="translate(361.070124 239.238437)scale(0.1 -0.1)">
       <use xlink:href="#DejaVuSans-31"/>
       <use xlink:href="#DejaVuSans-2e" x="63.623047"/>
       <use xlink:href="#DejaVuSans-36" x="95.410156"/>
      </g>
     </g>
    </g>
    <g id="text_10">
     <!-- Angle with normal (rad) -->
     <g transform="translate(151.863281 252.916562)scale(0.1 -0.1)">
      <defs>
       <path id="DejaVuSans-41" d="M 2188 4044 
L 1331 1722 
L 3047 1722 
L 2188 4044 
z
M 1831 4666 
L 2547 4666 
L 4325 0 
L 3669 0 
L 3244 1197 
L 1141 1197 
L 716 0 
L 50 0 
L 1831 4666 
z
" transform="scale(0.015625)"/>
       <path id="DejaVuSans-6e" d="M 3513 2113 
L 3513 0 
L 2938 0 
L 2938 2094 
Q 2938 2591 2744 2837 
Q 2550 3084 2163 3084 
Q 1697 3084 1428 2787 
Q 1159 2491 1159 1978 
L 1159 0 
L 581 0 
L 581 3500 
L 1159 3500 
L 1159 2956 
Q 1366 3272 1645 3428 
Q 1925 3584 2291 3584 
Q 2894 3584 3203 3211 
Q 3513 2838 3513 2113 
z
" transform="scale(0.015625)"/>
       <path id="DejaVuSans-67" d="M 2906 1791 
Q 2906 2416 2648 2759 
Q 2391 3103 1925 3103 
Q 1463 3103 1205 2759 
Q 947 2416 947 1791 
Q 947 1169 1205 825 
Q 1463 481 1925 481 
Q 2391 481 2648 825 
Q 2906 1169 2906 1791 
z
M 3481 434 
Q 3481 -459 3084 -895 
Q 2688 -1331 1869 -1331 
Q 1566 -1331 1297 -1286 
Q 1028 -1241 775 -1147 
L 775 -588 
Q 1028 -725 1275 -790 
Q 1522 -856 1778 -856 
Q 2344 -856 2625 -561 
Q 2906 -266 2906 331 
L 2906 616 
Q 2728 306 2450 153 
Q 2172 0 1784 0 
Q 1141 0 747 490 
Q 353 981 353 1791 
Q 353 2603 747 3093 
Q 1141 3584 1784 3584 
Q 2172 3584 2450 3431 
Q 2728 3278 2906 2969 
L 2906 3500 
L 3481 3500 
L 3481 434 
z
" transform="scale(0.015625)"/>
       <path id="DejaVuSans-6c" d="M 603 4863 
L 1178 4863 
L 1178 0 
L 603 0 
L 603 4863 
z
" transform="scale(0.015625)"/>
       <path id="DejaVuSans-65" d="M 3597 1894 
L 3597 1613 
L 953 1613 
Q 991 1019 1311 708 
Q 1631 397 2203 397 
Q 2534 397 2845 478 
Q 3156 559 3463 722 
L 3463 178 
Q 3153 47 2828 -22 
Q 2503 -91 2169 -91 
Q 1331 -91 842 396 
Q 353 884 353 1716 
Q 353 2575 817 3079 
Q 1281 3584 2069 3584 
Q 2775 3584 3186 3129 
Q 3597 2675 3597 1894 
z
M 3022 2063 
Q 3016 2534 2758 2815 
Q 2500 3097 2075 3097 
Q 1594 3097 1305 2825 
Q 1016 2553 972 2059 
L 3022 2063 
z
" transform="scale(0.015625)"/>
       <path id="DejaVuSans-20" transform="scale(0.015625)"/>
       <path id="DejaVuSans-77" d="M 269 3500 
L 844 3500 
L 1563 769 
L 2278 3500 
L 2956 3500 
L 3675 769 
L 4391 3500 
L 4966 3500 
L 4050 0 
L 3372 0 
L 2619 2869 
L 1863 0 
L 1184 0 
L 269 3500 
z
" transform="scale(0.015625)"/>
       <path id="DejaVuSans-69" d="M 603 3500 
L 1178 3500 
L 1178 0 
L 603 0 
L 603 3500 
z
M 603 4863 
L 1178 4863 
L 1178 4134 
L 603 4134 
L 603 4863 
z
" transform="scale(0.015625)"/>
       <path id="DejaVuSans-74" d="M 1172 4494 
L 1172 3500 
L 2356 3500 
L 2356 3053 
L 1172 3053 
L 1172 1153 
Q 1172 725 1289 603 
Q 1406 481 1766 481 
L 2356 481 
L 2356 0 
L 1766 0 
Q 1100 0 847 248 
Q 594 497 594 1153 
L 594 3053 
L 172 3053 
L 172 3500 
L 594 3500 
L 594 4494 
L 1172 4494 
z
" transform="scale(0.015625)"/>
       <path id="DejaVuSans-68" d="M 3513 2113 
L 3513 0 
L 2938 0 
L 2938 2094 
Q 2938 2591 2744 2837 
Q 2550 3084 2163 3084 
Q 1697 3084 1428 2787 
Q 1159 2491 1159 1978 
L 1159 0 
L 581 0 
L 581 4863 
L 1159 4863 
L 1159 2956 
Q 1366 3272 1645 3428 
Q 1925 3584 2291 3584 
Q 2894 3584 3203 3211 
Q 3513 2838 3513 2113 
z
" transform="scale(0.015625)"/>
       <path id="DejaVuSans-6f" d="M 1959 3097 
Q 1497 3097 1228 2736 
Q 959 2375 959 1747 
Q 959 1119 1226 758 
Q 1494 397 1959 397 
Q 2419 397 2687 759 
Q 2956 1122 2956 1747 
Q 2956 2369 2687 2733 
Q 2419 3097 1959 3097 
z
M 1959 3584 
Q 2709 3584 3137 3096 
Q 3566 2609 3566 1747 
Q 3566 888 3137 398 
Q 2709 -91 1959 -91 
Q 1206 -91 779 398 
Q 353 888 353 1747 
Q 353 2609 779 3096 
Q 1206 3584 1959 3584 
z
" transform="scale(0.015625)"/>
       <path id="DejaVuSans-72" d="M 2631 2963 
Q 2534 3019 2420 3045 
Q 2306 3072 2169 3072 
Q 1681 3072 1420 2755 
Q 1159 2438 1159 1844 
L 1159 0 
L 581 0 
L 581 3500 
L 1159 3500 
L 1159 2956 
Q 1341 3275 1631 3429 
Q 1922 3584 2338 3584 
Q 2397 3584 2469 3576 
Q 2541 3569 2628 3553 
L 2631 2963 
z
" transform="scale(0.015625)"/>
       <path id="DejaVuSans-6d" d="M 3328 2828 
Q 3544 3216 3844 3400 
Q 4144 3584 4550 3584 
Q 5097 3584 5394 3201 
Q 5691 2819 5691 2113 
L 5691 0 
L 5113 0 
L 5113 2094 
Q 5113 2597 4934 2840 
Q 4756 3084 4391 3084 
Q 3944 3084 3684 2787 
Q 3425 2491 3425 1978 
L 3425 0 
L 2847 0 
L 2847 2094 
Q 2847 2600 2669 2842 
Q 2491 3084 2119 3084 
Q 1678 3084 1418 2786 
Q 1159 2488 1159 1978 
L 1159 0 
L 581 0 
L 581 3500 
L 1159 3500 
L 1159 2956 
Q 1356 3278 1631 3431 
Q 1906 3584 2284 3584 
Q 2666 3584 2933 3390 
Q 3200 3197 3328 2828 
z
" transform="scale(0.015625)"/>
       <path id="DejaVuSans-61" d="M 2194 1759 
Q 1497 1759 1228 1600 
Q 959 1441 959 1056 
Q 959 750 1161 570 
Q 1363 391 1709 391 
Q 2188 391 2477 730 
Q 2766 1069 2766 1631 
L 2766 1759 
L 2194 1759 
z
M 3341 1997 
L 3341 0 
L 2766 0 
L 2766 531 
Q 2569 213 2275 61 
Q 1981 -91 1556 -91 
Q 1019 -91 701 211 
Q 384 513 384 1019 
Q 384 1609 779 1909 
Q 1175 2209 1959 2209 
L 2766 2209 
L 2766 2266 
Q 2766 2663 2505 2880 
Q 2244 3097 1772 3097 
Q 1472 3097 1187 3025 
Q 903 2953 641 2809 
L 641 3341 
Q 956 3463 1253 3523 
Q 1550 3584 1831 3584 
Q 2591 3584 2966 3190 
Q 3341 2797 3341 1997 
z
" transform="scale(0.015625)"/>
       <path id="DejaVuSans-28" d="M 1984 4856 
Q 1566 4138 1362 3434 
Q 1159 2731 1159 2009 
Q 1159 1288 1364 580 
Q 1569 -128 1984 -844 
L 1484 -844 
Q 1016 -109 783 600 
Q 550 1309 550 2009 
Q 550 2706 781 3412 
Q 1013 4119 1484 4856 
L 1984 4856 
z
" transform="scale(0.015625)"/>
       <path id="DejaVuSans-64" d="M 2906 2969 
L 2906 4863 
L 3481 4863 
L 3481 0 
L 2906 0 
L 2906 525 
Q 2725 213 2448 61 
Q 2172 -91 1784 -91 
Q 1150 -91 751 415 
Q 353 922 353 1747 
Q 353 2572 751 3078 
Q 1150 3584 1784 3584 
Q 2172 3584 2448 3432 
Q 2725 3281 2906 2969 
z
M 947 1747 
Q 947 1113 1208 752 
Q 1469 391 1925 391 
Q 2381 391 2643 752 
Q 2906 1113 2906 1747 
Q 2906 2381 2643 2742 
Q 2381 3103 1925 3103 
Q 1469 3103 1208 2742 
Q 947 2381 947 1747 
z
" transform="scale(0.015625)"/>
       <path id="DejaVuSans-29" d="M 513 4856 
L 1013 4856 
Q 1481 4119 1714 3412 
Q 1947 2706 1947 2009 
Q 1947 1309 1714 600 
Q 1481 -109 1013 -844 
L 513 -844 
Q 928 -128 1133 580 
Q 1338 1288 1338 2009 
Q 1338 2731 1133 3434 
Q 928 4138 513 4856 
z
" transform="scale(0.015625)"/>
      </defs>
      <use xlink:href="#DejaVuSans-41"/>
      <use xlink:href="#DejaVuSans-6e" x="68.408203"/>
      <use xlink:href="#DejaVuSans-67" x="131.787109"/>
      <use xlink:href="#DejaVuSans-6c" x="195.263672"/>
      <use xlink:href="#DejaVuSans-65" x="223.046875"/>
      <use xlink:href="#DejaVuSans-20" x="284.570312"/>
      <use xlink:href="#DejaVuSans-77" x="316.357422"/>
      <use xlink:href="#DejaVuSans-69" x="398.144531"/>
      <use xlink:href="#DejaVuSans-74" x="425.927734"/>
      <use xlink:href="#DejaVuSans-68" x="465.136719"/>
      <use xlink:href="#DejaVuSans-20" x="528.515625"/>
      <use xlink:href="#DejaVuSans-6e" x="560.302734"/>
      <use xlink:href="#DejaVuSans-6f" x="623.681641"/>
      <use xlink:href="#DejaVuSans-72" x="684.863281"/>
      <use xlink:href="#DejaVuSans-6d" x="724.226562"/>
      <use xlink:href="#DejaVuSans-61" x="821.638672"/>
      <use xlink:href="#DejaVuSans-6c" x="882.917969"/>
      <use xlink:href="#DejaVuSans-20" x="910.701172"/>
      <use xlink:href="#DejaVuSans-28" x="942.488281"/>
      <use xlink:href="#DejaVuSans-72" x="981.501953"/>
      <use xlink:href="#DejaVuSans-61" x="1022.615234"/>
      <use xlink:href="#DejaVuSans-64" x="1083.894531"/>
      <use xlink:href="#DejaVuSans-29" x="1147.371094"/>
     </g>
    </g>
   </g>
   <g id="matplotlib.axis_2">
    <g id="ytick_1">
     <g id="line2d_10">
      <defs>
       <path id="m5238d96a01" d="M 0 0 
L -3.5 0 
" style="stroke: #000000; stroke-width: 0.8"/>
      </defs>
      <g>
       <use xlink:href="#m5238d96a01" x="43.78125" y="224.64" style="stroke: #000000; stroke-width: 0.8"/>
      </g>
     </g>
     <g id="text_11">
      <!-- 0.0 -->
      <g transform="translate(20.878125 228.439219)scale(0.1 -0.1)">
       <use xlink:href="#DejaVuSans-30"/>
       <use xlink:href="#DejaVuSans-2e" x="63.623047"/>
       <use xlink:href="#DejaVuSans-30" x="95.410156"/>
      </g>
     </g>
    </g>
    <g id="ytick_2">
     <g id="line2d_11">
      <g>
       <use xlink:href="#m5238d96a01" x="43.78125" y="187.18287" style="stroke: #000000; stroke-width: 0.8"/>
      </g>
     </g>
     <g id="text_12">
      <!-- 0.2 -->
      <g transform="translate(20.878125 190.982089)scale(0.1 -0.1)">
       <use xlink:href="#DejaVuSans-30"/>
       <use xlink:href="#DejaVuSans-2e" x="63.623047"/>
       <use xlink:href="#DejaVuSans-32" x="95.410156"/>
      </g>
     </g>
    </g>
    <g id="ytick_3">
     <g id="line2d_12">
      <g>
       <use xlink:href="#m5238d96a01" x="43.78125" y="149.72574" style="stroke: #000000; stroke-width: 0.8"/>
      </g>
     </g>
     <g id="text_13">
      <!-- 0.4 -->
      <g transform="translate(20.878125 153.524958)scale(0.1 -0.1)">
       <use xlink:href="#DejaVuSans-30"/>
       <use xlink:href="#DejaVuSans-2e" x="63.623047"/>
       <use xlink:href="#DejaVuSans-34" x="95.410156"/>
      </g>
     </g>
    </g>
    <g id="ytick_4">
     <g id="line2d_13">
      <g>
       <use xlink:href="#m5238d96a01" x="43.78125" y="112.26861" style="stroke: #000000; stroke-width: 0.8"/>
      </g>
     </g>
     <g id="text_14">
      <!-- 0.6 -->
      <g transform="translate(20.878125 116.067828)scale(0.1 -0.1)">
       <use xlink:href="#DejaVuSans-30"/>
       <use xlink:href="#DejaVuSans-2e" x="63.623047"/>
       <use xlink:href="#DejaVuSans-36" x="95.410156"/>
      </g>
     </g>
    </g>
    <g id="ytick_5">
     <g id="line2d_14">
      <g>
       <use xlink:href="#m5238d96a01" x="43.78125" y="74.811479" style="stroke: #000000; stroke-width: 0.8"/>
      </g>
     </g>
     <g id="text_15">
      <!-- 0.8 -->
      <g transform="translate(20.878125 78.610698)scale(0.1 -0.1)">
       <use xlink:href="#DejaVuSans-30"/>
       <use xlink:href="#DejaVuSans-2e" x="63.623047"/>
       <use xlink:href="#DejaVuSans-38" x="95.410156"/>
      </g>
     </g>
    </g>
    <g id="ytick_6">
     <g id="line2d_15">
      <g>
       <use xlink:href="#m5238d96a01" x="43.78125" y="37.354349" style="stroke: #000000; stroke-width: 0.8"/>
      </g>
     </g>
     <g id="text_16">
      <!-- 1.0 -->
      <g transform="translate(20.878125 41.153568)scale(0.1 -0.1)">
       <use xlink:href="#DejaVuSans-31"/>
       <use xlink:href="#DejaVuSans-2e" x="63.623047"/>
       <use xlink:href="#DejaVuSans-30" x="95.410156"/>
      </g>
     </g>
    </g>
    <g id="text_17">
     <!-- Probability density -->
     <g transform="translate(14.798438 162.270781)rotate(-90)scale(0.1 -0.1)">
      <defs>
       <path id="DejaVuSans-50" d="M 1259 4147 
L 1259 2394 
L 2053 2394 
Q 2494 2394 2734 2622 
Q 2975 2850 2975 3272 
Q 2975 3691 2734 3919 
Q 2494 4147 2053 4147 
L 1259 4147 
z
M 628 4666 
L 2053 4666 
Q 2838 4666 3239 4311 
Q 3641 3956 3641 3272 
Q 3641 2581 3239 2228 
Q 2838 1875 2053 1875 
L 1259 1875 
L 1259 0 
L 628 0 
L 628 4666 
z
" transform="scale(0.015625)"/>
       <path id="DejaVuSans-62" d="M 3116 1747 
Q 3116 2381 2855 2742 
Q 2594 3103 2138 3103 
Q 1681 3103 1420 2742 
Q 1159 2381 1159 1747 
Q 1159 1113 1420 752 
Q 1681 391 2138 391 
Q 2594 391 2855 752 
Q 3116 1113 3116 1747 
z
M 1159 2969 
Q 1341 3281 1617 3432 
Q 1894 3584 2278 3584 
Q 2916 3584 3314 3078 
Q 3713 2572 3713 1747 
Q 3713 922 3314 415 
Q 2916 -91 2278 -91 
Q 1894 -91 1617 61 
Q 1341 213 1159 525 
L 1159 0 
L 581 0 
L 581 4863 
L 1159 4863 
L 1159 2969 
z
" transform="scale(0.015625)"/>
       <path id="DejaVuSans-79" d="M 2059 -325 
Q 1816 -950 1584 -1140 
Q 1353 -1331 966 -1331 
L 506 -1331 
L 506 -850 
L 844 -850 
Q 1081 -850 1212 -737 
Q 1344 -625 1503 -206 
L 1606 56 
L 191 3500 
L 800 3500 
L 1894 763 
L 2988 3500 
L 3597 3500 
L 2059 -325 
z
" transform="scale(0.015625)"/>
       <path id="DejaVuSans-73" d="M 2834 3397 
L 2834 2853 
Q 2591 2978 2328 3040 
Q 2066 3103 1784 3103 
Q 1356 3103 1142 2972 
Q 928 2841 928 2578 
Q 928 2378 1081 2264 
Q 1234 2150 1697 2047 
L 1894 2003 
Q 2506 1872 2764 1633 
Q 3022 1394 3022 966 
Q 3022 478 2636 193 
Q 2250 -91 1575 -91 
Q 1294 -91 989 -36 
Q 684 19 347 128 
L 347 722 
Q 666 556 975 473 
Q 1284 391 1588 391 
Q 1994 391 2212 530 
Q 2431 669 2431 922 
Q 2431 1156 2273 1281 
Q 2116 1406 1581 1522 
L 1381 1569 
Q 847 1681 609 1914 
Q 372 2147 372 2553 
Q 372 3047 722 3315 
Q 1072 3584 1716 3584 
Q 2034 3584 2315 3537 
Q 2597 3491 2834 3397 
z
" transform="scale(0.015625)"/>
      </defs>
      <use xlink:href="#DejaVuSans-50"/>
      <use xlink:href="#DejaVuSans-72" x="58.552734"/>
      <use xlink:href="#DejaVuSans-6f" x="97.416016"/>
      <use xlink:href="#DejaVuSans-62" x="158.597656"/>
      <use xlink:href="#DejaVuSans-61" x="222.074219"/>
      <use xlink:href="#DejaVuSans-62" x="283.353516"/>
      <use xlink:href="#DejaVuSans-69" x="346.830078"/>
      <use xlink:href="#DejaVuSans-6c" x="374.613281"/>
      <use xlink:href="#DejaVuSans-69" x="402.396484"/>
      <use xlink:href="#DejaVuSans-74" x="430.179688"/>
      <use xlink:href="#DejaVuSans-79" x="469.388672"/>
      <use xlink:href="#DejaVuSans-20" x="528.568359"/>
      <use xlink:href="#DejaVuSans-64" x="560.355469"/>
      <use xlink:href="#DejaVuSans-65" x="623.832031"/>
      <use xlink:href="#DejaVuSans-6e" x="685.355469"/>
      <use xlink:href="#DejaVuSans-73" x="748.734375"/>
      <use xlink:href="#DejaVuSans-69" x="800.833984"/>
      <use xlink:href="#DejaVuSans-74" x="828.617188"/>
      <use xlink:href="#DejaVuSans-79" x="867.826172"/>
     </g>
    </g>
   </g>
   <g id="line2d_16">
    <path d="M 58.999432 224.64 
L 77.888867 188.355137 
L 87.942921 169.516991 
L 96.473633 153.990372 
L 104.090341 140.586354 
L 111.097712 128.711367 
L 117.495746 118.305559 
L 123.589112 108.82561 
L 129.37781 100.243305 
L 134.86184 92.52176 
L 140.041201 85.617385 
L 144.915894 79.481685 
L 149.790587 73.713402 
L 154.360611 68.652322 
L 158.625967 64.241528 
L 162.891324 60.141586 
L 167.15668 56.360442 
L 171.117368 53.141251 
L 175.078056 50.208646 
L 179.038744 47.567528 
L 182.694764 45.392115 
L 186.350783 43.471932 
L 190.006803 41.809716 
L 193.662822 40.407831 
L 197.014174 39.353176 
L 200.365525 38.520216 
L 203.716877 37.909947 
L 207.068228 37.5231 
L 210.419579 37.360137 
L 213.770931 37.421254 
L 217.122282 37.706377 
L 220.473633 38.215165 
L 223.824985 38.947009 
L 227.176336 39.901034 
L 230.527687 41.076098 
L 233.879039 42.470796 
L 237.535058 44.240807 
L 241.191078 46.267689 
L 244.847098 48.548555 
L 248.503117 51.080158 
L 252.463805 54.101488 
L 256.424493 57.4078 
L 260.385181 60.993568 
L 264.650537 65.160811 
L 268.915894 69.637126 
L 273.485918 74.766283 
L 278.055943 80.228864 
L 282.930636 86.409418 
L 288.109997 93.359251 
L 293.289358 100.684198 
L 298.773388 108.82561 
L 304.562085 117.821256 
L 310.655451 127.701591 
L 317.358154 139.011165 
L 324.365525 151.27196 
L 332.286901 165.590531 
L 341.42695 182.59598 
L 352.699678 204.067849 
L 363.363068 224.64 
L 363.363068 224.64 
" clip-path="url(#pe8c61a6b2a)" style="fill: none; stroke: #ff7f0e; stroke-width: 1.5; stroke-linecap: square"/>
   </g>
   <g id="patch_203">
    <path d="M 43.78125 224.64 
L 43.78125 7.2 
" style="fill: none; stroke: #000000; stroke-width: 0.8; stroke-linejoin: miter; stroke-linecap: square"/>
   </g>
   <g id="patch_204">
    <path d="M 378.58125 224.64 
L 378.58125 7.2 
" style="fill: none; stroke: #000000; stroke-width: 0.8; stroke-linejoin: miter; stroke-linecap: square"/>
   </g>
   <g id="patch_205">
    <path d="M 43.78125 224.64 
L 378.58125 224.64 
" style="fill: none; stroke: #000000; stroke-width: 0.8; stroke-linejoin: miter; stroke-linecap: square"/>
   </g>
   <g id="patch_206">
    <path d="M 43.78125 7.2 
L 378.58125 7.2 
" style="fill: none; stroke: #000000; stroke-width: 0.8; stroke-linejoin: miter; stroke-linecap: square"/>
   </g>
  </g>
 </g>
 <defs>
  <clipPath id="pe8c61a6b2a">
   <rect x="43.78125" y="7.2" width="334.8" height="217.44"/>
  </clipPath>
 </defs>
</svg>
