<?xml version="1.0" encoding="utf-8" standalone="no"?>
<!DOCTYPE svg PUBLIC "-//W3C//DTD SVG 1.1//EN"
  "http://www.w3.org/Graphics/SVG/1.1/DTD/svg11.dtd">
<svg xmlns:xlink="http://www.w3.org/1999/xlink" width="414.46375pt" height="310.86825pt" viewBox="0 0 414.46375 310.86825" xmlns="http://www.w3.org/2000/svg" version="1.1">
 <metadata>
  <rdf:RDF xmlns:dc="http://purl.org/dc/elements/1.1/" xmlns:cc="http://creativecommons.org/ns#" xmlns:rdf="http://www.w3.org/1999/02/22-rdf-syntax-ns#">
   <cc:Work>
    <dc:type rdf:resource="http://purl.org/dc/dcmitype/StillImage"/>
    <dc:date>2022-12-26T15:21:18.719058</dc:date>
    <dc:format>image/svg+xml</dc:format>
    <dc:creator>
     <cc:Agent>
      <dc:title>Matplotlib v3.5.3, https://matplotlib.org/</dc:title>
     </cc:Agent>
    </dc:creator>
   </cc:Work>
  </rdf:RDF>
 </metadata>
 <defs>
  <style type="text/css">*{stroke-linejoin: round; stroke-linecap: butt}</style>
 </defs>
 <g id="figure_1">
  <g id="patch_1">
   <path d="M 0 310.86825 
L 414.46375 310.86825 
L 414.46375 0 
L 0 0 
z
" style="fill: #ffffff"/>
  </g>
  <g id="axes_1">
   <g id="patch_2">
    <path d="M 50.14375 273.312 
L 407.26375 273.312 
L 407.26375 7.2 
L 50.14375 7.2 
z
" style="fill: #ffffff"/>
   </g>
   <g id="patch_3">
    <path d="M 66.683331 273.312 
L 68.304988 273.312 
L 68.304988 272.119341 
L 66.683331 272.119341 
z
" clip-path="url(#p358d499f54)" style="fill: #1f77b4"/>
   </g>
   <g id="patch_4">
    <path d="M 68.304988 273.312 
L 69.926645 273.312 
L 69.926645 271.523012 
L 68.304988 271.523012 
z
" clip-path="url(#p358d499f54)" style="fill: #1f77b4"/>
   </g>
   <g id="patch_5">
    <path d="M 69.926645 273.312 
L 71.548302 273.312 
L 71.548302 270.330353 
L 69.926645 270.330353 
z
" clip-path="url(#p358d499f54)" style="fill: #1f77b4"/>
   </g>
   <g id="patch_6">
    <path d="M 71.548302 273.312 
L 73.169959 273.312 
L 73.169959 269.137694 
L 71.548302 269.137694 
z
" clip-path="url(#p358d499f54)" style="fill: #1f77b4"/>
   </g>
   <g id="patch_7">
    <path d="M 73.169959 273.312 
L 74.791616 273.312 
L 74.791616 267.348706 
L 73.169959 267.348706 
z
" clip-path="url(#p358d499f54)" style="fill: #1f77b4"/>
   </g>
   <g id="patch_8">
    <path d="M 74.791616 273.312 
L 76.413273 273.312 
L 76.413273 266.752376 
L 74.791616 266.752376 
z
" clip-path="url(#p358d499f54)" style="fill: #1f77b4"/>
   </g>
   <g id="patch_9">
    <path d="M 76.413273 273.312 
L 78.03493 273.312 
L 78.03493 265.559718 
L 76.413273 265.559718 
z
" clip-path="url(#p358d499f54)" style="fill: #1f77b4"/>
   </g>
   <g id="patch_10">
    <path d="M 78.03493 273.312 
L 79.656587 273.312 
L 79.656587 264.963388 
L 78.03493 264.963388 
z
" clip-path="url(#p358d499f54)" style="fill: #1f77b4"/>
   </g>
   <g id="patch_11">
    <path d="M 79.656587 273.312 
L 81.278244 273.312 
L 81.278244 261.981741 
L 79.656587 261.981741 
z
" clip-path="url(#p358d499f54)" style="fill: #1f77b4"/>
   </g>
   <g id="patch_12">
    <path d="M 81.278244 273.312 
L 82.899902 273.312 
L 82.899902 260.192753 
L 81.278244 260.192753 
z
" clip-path="url(#p358d499f54)" style="fill: #1f77b4"/>
   </g>
   <g id="patch_13">
    <path d="M 82.899902 273.312 
L 84.521559 273.312 
L 84.521559 261.981741 
L 82.899902 261.981741 
z
" clip-path="url(#p358d499f54)" style="fill: #1f77b4"/>
   </g>
   <g id="patch_14">
    <path d="M 84.521559 273.312 
L 86.143216 273.312 
L 86.143216 253.633129 
L 84.521559 253.633129 
z
" clip-path="url(#p358d499f54)" style="fill: #1f77b4"/>
   </g>
   <g id="patch_15">
    <path d="M 86.143216 273.312 
L 87.764873 273.312 
L 87.764873 267.348706 
L 86.143216 267.348706 
z
" clip-path="url(#p358d499f54)" style="fill: #1f77b4"/>
   </g>
   <g id="patch_16">
    <path d="M 87.764873 273.312 
L 89.38653 273.312 
L 89.38653 248.266165 
L 87.764873 248.266165 
z
" clip-path="url(#p358d499f54)" style="fill: #1f77b4"/>
   </g>
   <g id="patch_17">
    <path d="M 89.38653 273.312 
L 91.008187 273.312 
L 91.008187 257.807435 
L 89.38653 257.807435 
z
" clip-path="url(#p358d499f54)" style="fill: #1f77b4"/>
   </g>
   <g id="patch_18">
    <path d="M 91.008187 273.312 
L 92.629844 273.312 
L 92.629844 257.211106 
L 91.008187 257.211106 
z
" clip-path="url(#p358d499f54)" style="fill: #1f77b4"/>
   </g>
   <g id="patch_19">
    <path d="M 92.629844 273.312 
L 94.251501 273.312 
L 94.251501 258.403765 
L 92.629844 258.403765 
z
" clip-path="url(#p358d499f54)" style="fill: #1f77b4"/>
   </g>
   <g id="patch_20">
    <path d="M 94.251501 273.312 
L 95.873158 273.312 
L 95.873158 252.440471 
L 94.251501 252.440471 
z
" clip-path="url(#p358d499f54)" style="fill: #1f77b4"/>
   </g>
   <g id="patch_21">
    <path d="M 95.873158 273.312 
L 97.494815 273.312 
L 97.494815 247.073506 
L 95.873158 247.073506 
z
" clip-path="url(#p358d499f54)" style="fill: #1f77b4"/>
   </g>
   <g id="patch_22">
    <path d="M 97.494815 273.312 
L 99.116473 273.312 
L 99.116473 248.862494 
L 97.494815 248.862494 
z
" clip-path="url(#p358d499f54)" style="fill: #1f77b4"/>
   </g>
   <g id="patch_23">
    <path d="M 99.116473 273.312 
L 100.73813 273.312 
L 100.73813 243.495529 
L 99.116473 243.495529 
z
" clip-path="url(#p358d499f54)" style="fill: #1f77b4"/>
   </g>
   <g id="patch_24">
    <path d="M 100.73813 273.312 
L 102.359787 273.312 
L 102.359787 251.844141 
L 100.73813 251.844141 
z
" clip-path="url(#p358d499f54)" style="fill: #1f77b4"/>
   </g>
   <g id="patch_25">
    <path d="M 102.359787 273.312 
L 103.981444 273.312 
L 103.981444 247.073506 
L 102.359787 247.073506 
z
" clip-path="url(#p358d499f54)" style="fill: #1f77b4"/>
   </g>
   <g id="patch_26">
    <path d="M 103.981444 273.312 
L 105.603101 273.312 
L 105.603101 243.495529 
L 103.981444 243.495529 
z
" clip-path="url(#p358d499f54)" style="fill: #1f77b4"/>
   </g>
   <g id="patch_27">
    <path d="M 105.603101 273.312 
L 107.224758 273.312 
L 107.224758 242.8992 
L 105.603101 242.8992 
z
" clip-path="url(#p358d499f54)" style="fill: #1f77b4"/>
   </g>
   <g id="patch_28">
    <path d="M 107.224758 273.312 
L 108.846415 273.312 
L 108.846415 238.128565 
L 107.224758 238.128565 
z
" clip-path="url(#p358d499f54)" style="fill: #1f77b4"/>
   </g>
   <g id="patch_29">
    <path d="M 108.846415 273.312 
L 110.468072 273.312 
L 110.468072 237.532235 
L 108.846415 237.532235 
z
" clip-path="url(#p358d499f54)" style="fill: #1f77b4"/>
   </g>
   <g id="patch_30">
    <path d="M 110.468072 273.312 
L 112.089729 273.312 
L 112.089729 242.302871 
L 110.468072 242.302871 
z
" clip-path="url(#p358d499f54)" style="fill: #1f77b4"/>
   </g>
   <g id="patch_31">
    <path d="M 112.089729 273.312 
L 113.711386 273.312 
L 113.711386 239.321224 
L 112.089729 239.321224 
z
" clip-path="url(#p358d499f54)" style="fill: #1f77b4"/>
   </g>
   <g id="patch_32">
    <path d="M 113.711386 273.312 
L 115.333043 273.312 
L 115.333043 250.055153 
L 113.711386 250.055153 
z
" clip-path="url(#p358d499f54)" style="fill: #1f77b4"/>
   </g>
   <g id="patch_33">
    <path d="M 115.333043 273.312 
L 116.954701 273.312 
L 116.954701 239.917553 
L 115.333043 239.917553 
z
" clip-path="url(#p358d499f54)" style="fill: #1f77b4"/>
   </g>
   <g id="patch_34">
    <path d="M 116.954701 273.312 
L 118.576358 273.312 
L 118.576358 227.990965 
L 116.954701 227.990965 
z
" clip-path="url(#p358d499f54)" style="fill: #1f77b4"/>
   </g>
   <g id="patch_35">
    <path d="M 118.576358 273.312 
L 120.198015 273.312 
L 120.198015 232.165271 
L 118.576358 232.165271 
z
" clip-path="url(#p358d499f54)" style="fill: #1f77b4"/>
   </g>
   <g id="patch_36">
    <path d="M 120.198015 273.312 
L 121.819672 273.312 
L 121.819672 219.046024 
L 120.198015 219.046024 
z
" clip-path="url(#p358d499f54)" style="fill: #1f77b4"/>
   </g>
   <g id="patch_37">
    <path d="M 121.819672 273.312 
L 123.441329 273.312 
L 123.441329 233.357929 
L 121.819672 233.357929 
z
" clip-path="url(#p358d499f54)" style="fill: #1f77b4"/>
   </g>
   <g id="patch_38">
    <path d="M 123.441329 273.312 
L 125.062986 273.312 
L 125.062986 219.642353 
L 123.441329 219.642353 
z
" clip-path="url(#p358d499f54)" style="fill: #1f77b4"/>
   </g>
   <g id="patch_39">
    <path d="M 125.062986 273.312 
L 126.684643 273.312 
L 126.684643 222.624 
L 125.062986 222.624 
z
" clip-path="url(#p358d499f54)" style="fill: #1f77b4"/>
   </g>
   <g id="patch_40">
    <path d="M 126.684643 273.312 
L 128.3063 273.312 
L 128.3063 220.835012 
L 126.684643 220.835012 
z
" clip-path="url(#p358d499f54)" style="fill: #1f77b4"/>
   </g>
   <g id="patch_41">
    <path d="M 128.3063 273.312 
L 129.927957 273.312 
L 129.927957 225.009318 
L 128.3063 225.009318 
z
" clip-path="url(#p358d499f54)" style="fill: #1f77b4"/>
   </g>
   <g id="patch_42">
    <path d="M 129.927957 273.312 
L 131.549614 273.312 
L 131.549614 227.394635 
L 129.927957 227.394635 
z
" clip-path="url(#p358d499f54)" style="fill: #1f77b4"/>
   </g>
   <g id="patch_43">
    <path d="M 131.549614 273.312 
L 133.171272 273.312 
L 133.171272 219.642353 
L 131.549614 219.642353 
z
" clip-path="url(#p358d499f54)" style="fill: #1f77b4"/>
   </g>
   <g id="patch_44">
    <path d="M 133.171272 273.312 
L 134.792929 273.312 
L 134.792929 223.220329 
L 133.171272 223.220329 
z
" clip-path="url(#p358d499f54)" style="fill: #1f77b4"/>
   </g>
   <g id="patch_45">
    <path d="M 134.792929 273.312 
L 136.414586 273.312 
L 136.414586 239.917553 
L 134.792929 239.917553 
z
" clip-path="url(#p358d499f54)" style="fill: #1f77b4"/>
   </g>
   <g id="patch_46">
    <path d="M 136.414586 273.312 
L 138.036243 273.312 
L 138.036243 223.220329 
L 136.414586 223.220329 
z
" clip-path="url(#p358d499f54)" style="fill: #1f77b4"/>
   </g>
   <g id="patch_47">
    <path d="M 138.036243 273.312 
L 139.6579 273.312 
L 139.6579 230.376282 
L 138.036243 230.376282 
z
" clip-path="url(#p358d499f54)" style="fill: #1f77b4"/>
   </g>
   <g id="patch_48">
    <path d="M 139.6579 273.312 
L 141.279557 273.312 
L 141.279557 216.660706 
L 139.6579 216.660706 
z
" clip-path="url(#p358d499f54)" style="fill: #1f77b4"/>
   </g>
   <g id="patch_49">
    <path d="M 141.279557 273.312 
L 142.901214 273.312 
L 142.901214 219.046024 
L 141.279557 219.046024 
z
" clip-path="url(#p358d499f54)" style="fill: #1f77b4"/>
   </g>
   <g id="patch_50">
    <path d="M 142.901214 273.312 
L 144.522871 273.312 
L 144.522871 213.679059 
L 142.901214 213.679059 
z
" clip-path="url(#p358d499f54)" style="fill: #1f77b4"/>
   </g>
   <g id="patch_51">
    <path d="M 144.522871 273.312 
L 146.144528 273.312 
L 146.144528 211.890071 
L 144.522871 211.890071 
z
" clip-path="url(#p358d499f54)" style="fill: #1f77b4"/>
   </g>
   <g id="patch_52">
    <path d="M 146.144528 273.312 
L 147.766185 273.312 
L 147.766185 220.238682 
L 146.144528 220.238682 
z
" clip-path="url(#p358d499f54)" style="fill: #1f77b4"/>
   </g>
   <g id="patch_53">
    <path d="M 147.766185 273.312 
L 149.387842 273.312 
L 149.387842 211.293741 
L 147.766185 211.293741 
z
" clip-path="url(#p358d499f54)" style="fill: #1f77b4"/>
   </g>
   <g id="patch_54">
    <path d="M 149.387842 273.312 
L 151.0095 273.312 
L 151.0095 209.504753 
L 149.387842 209.504753 
z
" clip-path="url(#p358d499f54)" style="fill: #1f77b4"/>
   </g>
   <g id="patch_55">
    <path d="M 151.0095 273.312 
L 152.631157 273.312 
L 152.631157 199.963482 
L 151.0095 199.963482 
z
" clip-path="url(#p358d499f54)" style="fill: #1f77b4"/>
   </g>
   <g id="patch_56">
    <path d="M 152.631157 273.312 
L 154.252814 273.312 
L 154.252814 207.119435 
L 152.631157 207.119435 
z
" clip-path="url(#p358d499f54)" style="fill: #1f77b4"/>
   </g>
   <g id="patch_57">
    <path d="M 154.252814 273.312 
L 155.874471 273.312 
L 155.874471 206.523106 
L 154.252814 206.523106 
z
" clip-path="url(#p358d499f54)" style="fill: #1f77b4"/>
   </g>
   <g id="patch_58">
    <path d="M 155.874471 273.312 
L 157.496128 273.312 
L 157.496128 214.871718 
L 155.874471 214.871718 
z
" clip-path="url(#p358d499f54)" style="fill: #1f77b4"/>
   </g>
   <g id="patch_59">
    <path d="M 157.496128 273.312 
L 159.117785 273.312 
L 159.117785 202.3488 
L 157.496128 202.3488 
z
" clip-path="url(#p358d499f54)" style="fill: #1f77b4"/>
   </g>
   <g id="patch_60">
    <path d="M 159.117785 273.312 
L 160.739442 273.312 
L 160.739442 203.541459 
L 159.117785 203.541459 
z
" clip-path="url(#p358d499f54)" style="fill: #1f77b4"/>
   </g>
   <g id="patch_61">
    <path d="M 160.739442 273.312 
L 162.361099 273.312 
L 162.361099 208.312094 
L 160.739442 208.312094 
z
" clip-path="url(#p358d499f54)" style="fill: #1f77b4"/>
   </g>
   <g id="patch_62">
    <path d="M 162.361099 273.312 
L 163.982756 273.312 
L 163.982756 200.559812 
L 162.361099 200.559812 
z
" clip-path="url(#p358d499f54)" style="fill: #1f77b4"/>
   </g>
   <g id="patch_63">
    <path d="M 163.982756 273.312 
L 165.604413 273.312 
L 165.604413 207.715765 
L 163.982756 207.715765 
z
" clip-path="url(#p358d499f54)" style="fill: #1f77b4"/>
   </g>
   <g id="patch_64">
    <path d="M 165.604413 273.312 
L 167.22607 273.312 
L 167.22607 194.596518 
L 165.604413 194.596518 
z
" clip-path="url(#p358d499f54)" style="fill: #1f77b4"/>
   </g>
   <g id="patch_65">
    <path d="M 167.22607 273.312 
L 168.847728 273.312 
L 168.847728 195.789176 
L 167.22607 195.789176 
z
" clip-path="url(#p358d499f54)" style="fill: #1f77b4"/>
   </g>
   <g id="patch_66">
    <path d="M 168.847728 273.312 
L 170.469385 273.312 
L 170.469385 207.715765 
L 168.847728 207.715765 
z
" clip-path="url(#p358d499f54)" style="fill: #1f77b4"/>
   </g>
   <g id="patch_67">
    <path d="M 170.469385 273.312 
L 172.091042 273.312 
L 172.091042 195.192847 
L 170.469385 195.192847 
z
" clip-path="url(#p358d499f54)" style="fill: #1f77b4"/>
   </g>
   <g id="patch_68">
    <path d="M 172.091042 273.312 
L 173.712699 273.312 
L 173.712699 201.752471 
L 172.091042 201.752471 
z
" clip-path="url(#p358d499f54)" style="fill: #1f77b4"/>
   </g>
   <g id="patch_69">
    <path d="M 173.712699 273.312 
L 175.334356 273.312 
L 175.334356 196.385506 
L 173.712699 196.385506 
z
" clip-path="url(#p358d499f54)" style="fill: #1f77b4"/>
   </g>
   <g id="patch_70">
    <path d="M 175.334356 273.312 
L 176.956013 273.312 
L 176.956013 202.945129 
L 175.334356 202.945129 
z
" clip-path="url(#p358d499f54)" style="fill: #1f77b4"/>
   </g>
   <g id="patch_71">
    <path d="M 176.956013 273.312 
L 178.57767 273.312 
L 178.57767 189.825882 
L 176.956013 189.825882 
z
" clip-path="url(#p358d499f54)" style="fill: #1f77b4"/>
   </g>
   <g id="patch_72">
    <path d="M 178.57767 273.312 
L 180.199327 273.312 
L 180.199327 189.229553 
L 178.57767 189.229553 
z
" clip-path="url(#p358d499f54)" style="fill: #1f77b4"/>
   </g>
   <g id="patch_73">
    <path d="M 180.199327 273.312 
L 181.820984 273.312 
L 181.820984 187.440565 
L 180.199327 187.440565 
z
" clip-path="url(#p358d499f54)" style="fill: #1f77b4"/>
   </g>
   <g id="patch_74">
    <path d="M 181.820984 273.312 
L 183.442641 273.312 
L 183.442641 187.440565 
L 181.820984 187.440565 
z
" clip-path="url(#p358d499f54)" style="fill: #1f77b4"/>
   </g>
   <g id="patch_75">
    <path d="M 183.442641 273.312 
L 185.064299 273.312 
L 185.064299 178.495624 
L 183.442641 178.495624 
z
" clip-path="url(#p358d499f54)" style="fill: #1f77b4"/>
   </g>
   <g id="patch_76">
    <path d="M 185.064299 273.312 
L 186.685956 273.312 
L 186.685956 189.825882 
L 185.064299 189.825882 
z
" clip-path="url(#p358d499f54)" style="fill: #1f77b4"/>
   </g>
   <g id="patch_77">
    <path d="M 186.685956 273.312 
L 188.307613 273.312 
L 188.307613 191.614871 
L 186.685956 191.614871 
z
" clip-path="url(#p358d499f54)" style="fill: #1f77b4"/>
   </g>
   <g id="patch_78">
    <path d="M 188.307613 273.312 
L 189.92927 273.312 
L 189.92927 176.706635 
L 188.307613 176.706635 
z
" clip-path="url(#p358d499f54)" style="fill: #1f77b4"/>
   </g>
   <g id="patch_79">
    <path d="M 189.92927 273.312 
L 191.550927 273.312 
L 191.550927 189.229553 
L 189.92927 189.229553 
z
" clip-path="url(#p358d499f54)" style="fill: #1f77b4"/>
   </g>
   <g id="patch_80">
    <path d="M 191.550927 273.312 
L 193.172584 273.312 
L 193.172584 170.147012 
L 191.550927 170.147012 
z
" clip-path="url(#p358d499f54)" style="fill: #1f77b4"/>
   </g>
   <g id="patch_81">
    <path d="M 193.172584 273.312 
L 194.794241 273.312 
L 194.794241 184.458918 
L 193.172584 184.458918 
z
" clip-path="url(#p358d499f54)" style="fill: #1f77b4"/>
   </g>
   <g id="patch_82">
    <path d="M 194.794241 273.312 
L 196.415898 273.312 
L 196.415898 165.376376 
L 194.794241 165.376376 
z
" clip-path="url(#p358d499f54)" style="fill: #1f77b4"/>
   </g>
   <g id="patch_83">
    <path d="M 196.415898 273.312 
L 198.037555 273.312 
L 198.037555 169.550682 
L 196.415898 169.550682 
z
" clip-path="url(#p358d499f54)" style="fill: #1f77b4"/>
   </g>
   <g id="patch_84">
    <path d="M 198.037555 273.312 
L 199.659212 273.312 
L 199.659212 176.110306 
L 198.037555 176.110306 
z
" clip-path="url(#p358d499f54)" style="fill: #1f77b4"/>
   </g>
   <g id="patch_85">
    <path d="M 199.659212 273.312 
L 201.280869 273.312 
L 201.280869 181.477271 
L 199.659212 181.477271 
z
" clip-path="url(#p358d499f54)" style="fill: #1f77b4"/>
   </g>
   <g id="patch_86">
    <path d="M 201.280869 273.312 
L 202.902527 273.312 
L 202.902527 172.532329 
L 201.280869 172.532329 
z
" clip-path="url(#p358d499f54)" style="fill: #1f77b4"/>
   </g>
   <g id="patch_87">
    <path d="M 202.902527 273.312 
L 204.524184 273.312 
L 204.524184 157.624094 
L 202.902527 157.624094 
z
" clip-path="url(#p358d499f54)" style="fill: #1f77b4"/>
   </g>
   <g id="patch_88">
    <path d="M 204.524184 273.312 
L 206.145841 273.312 
L 206.145841 182.669929 
L 204.524184 182.669929 
z
" clip-path="url(#p358d499f54)" style="fill: #1f77b4"/>
   </g>
   <g id="patch_89">
    <path d="M 206.145841 273.312 
L 207.767498 273.312 
L 207.767498 162.991059 
L 206.145841 162.991059 
z
" clip-path="url(#p358d499f54)" style="fill: #1f77b4"/>
   </g>
   <g id="patch_90">
    <path d="M 207.767498 273.312 
L 209.389155 273.312 
L 209.389155 171.936 
L 207.767498 171.936 
z
" clip-path="url(#p358d499f54)" style="fill: #1f77b4"/>
   </g>
   <g id="patch_91">
    <path d="M 209.389155 273.312 
L 211.010812 273.312 
L 211.010812 168.954353 
L 209.389155 168.954353 
z
" clip-path="url(#p358d499f54)" style="fill: #1f77b4"/>
   </g>
   <g id="patch_92">
    <path d="M 211.010812 273.312 
L 212.632469 273.312 
L 212.632469 165.972706 
L 211.010812 165.972706 
z
" clip-path="url(#p358d499f54)" style="fill: #1f77b4"/>
   </g>
   <g id="patch_93">
    <path d="M 212.632469 273.312 
L 214.254126 273.312 
L 214.254126 159.413082 
L 212.632469 159.413082 
z
" clip-path="url(#p358d499f54)" style="fill: #1f77b4"/>
   </g>
   <g id="patch_94">
    <path d="M 214.254126 273.312 
L 215.875783 273.312 
L 215.875783 162.394729 
L 214.254126 162.394729 
z
" clip-path="url(#p358d499f54)" style="fill: #1f77b4"/>
   </g>
   <g id="patch_95">
    <path d="M 215.875783 273.312 
L 217.49744 273.312 
L 217.49744 167.761694 
L 215.875783 167.761694 
z
" clip-path="url(#p358d499f54)" style="fill: #1f77b4"/>
   </g>
   <g id="patch_96">
    <path d="M 217.49744 273.312 
L 219.119098 273.312 
L 219.119098 176.706635 
L 217.49744 176.706635 
z
" clip-path="url(#p358d499f54)" style="fill: #1f77b4"/>
   </g>
   <g id="patch_97">
    <path d="M 219.119098 273.312 
L 220.740755 273.312 
L 220.740755 158.816753 
L 219.119098 158.816753 
z
" clip-path="url(#p358d499f54)" style="fill: #1f77b4"/>
   </g>
   <g id="patch_98">
    <path d="M 220.740755 273.312 
L 222.362412 273.312 
L 222.362412 155.238776 
L 220.740755 155.238776 
z
" clip-path="url(#p358d499f54)" style="fill: #1f77b4"/>
   </g>
   <g id="patch_99">
    <path d="M 222.362412 273.312 
L 223.984069 273.312 
L 223.984069 160.605741 
L 222.362412 160.605741 
z
" clip-path="url(#p358d499f54)" style="fill: #1f77b4"/>
   </g>
   <g id="patch_100">
    <path d="M 223.984069 273.312 
L 225.605726 273.312 
L 225.605726 152.257129 
L 223.984069 152.257129 
z
" clip-path="url(#p358d499f54)" style="fill: #1f77b4"/>
   </g>
   <g id="patch_101">
    <path d="M 225.605726 273.312 
L 227.227383 273.312 
L 227.227383 151.6608 
L 225.605726 151.6608 
z
" clip-path="url(#p358d499f54)" style="fill: #1f77b4"/>
   </g>
   <g id="patch_102">
    <path d="M 227.227383 273.312 
L 228.84904 273.312 
L 228.84904 154.642447 
L 227.227383 154.642447 
z
" clip-path="url(#p358d499f54)" style="fill: #1f77b4"/>
   </g>
   <g id="patch_103">
    <path d="M 228.84904 273.312 
L 230.470697 273.312 
L 230.470697 166.569035 
L 228.84904 166.569035 
z
" clip-path="url(#p358d499f54)" style="fill: #1f77b4"/>
   </g>
   <g id="patch_104">
    <path d="M 230.470697 273.312 
L 232.092354 273.312 
L 232.092354 162.991059 
L 230.470697 162.991059 
z
" clip-path="url(#p358d499f54)" style="fill: #1f77b4"/>
   </g>
   <g id="patch_105">
    <path d="M 232.092354 273.312 
L 233.714011 273.312 
L 233.714011 159.413082 
L 232.092354 159.413082 
z
" clip-path="url(#p358d499f54)" style="fill: #1f77b4"/>
   </g>
   <g id="patch_106">
    <path d="M 233.714011 273.312 
L 235.335668 273.312 
L 235.335668 147.486494 
L 233.714011 147.486494 
z
" clip-path="url(#p358d499f54)" style="fill: #1f77b4"/>
   </g>
   <g id="patch_107">
    <path d="M 235.335668 273.312 
L 236.957326 273.312 
L 236.957326 157.624094 
L 235.335668 157.624094 
z
" clip-path="url(#p358d499f54)" style="fill: #1f77b4"/>
   </g>
   <g id="patch_108">
    <path d="M 236.957326 273.312 
L 238.578983 273.312 
L 238.578983 140.926871 
L 236.957326 140.926871 
z
" clip-path="url(#p358d499f54)" style="fill: #1f77b4"/>
   </g>
   <g id="patch_109">
    <path d="M 238.578983 273.312 
L 240.20064 273.312 
L 240.20064 161.7984 
L 238.578983 161.7984 
z
" clip-path="url(#p358d499f54)" style="fill: #1f77b4"/>
   </g>
   <g id="patch_110">
    <path d="M 240.20064 273.312 
L 241.822297 273.312 
L 241.822297 148.679153 
L 240.20064 148.679153 
z
" clip-path="url(#p358d499f54)" style="fill: #1f77b4"/>
   </g>
   <g id="patch_111">
    <path d="M 241.822297 273.312 
L 243.443954 273.312 
L 243.443954 146.890165 
L 241.822297 146.890165 
z
" clip-path="url(#p358d499f54)" style="fill: #1f77b4"/>
   </g>
   <g id="patch_112">
    <path d="M 243.443954 273.312 
L 245.065611 273.312 
L 245.065611 164.780047 
L 243.443954 164.780047 
z
" clip-path="url(#p358d499f54)" style="fill: #1f77b4"/>
   </g>
   <g id="patch_113">
    <path d="M 245.065611 273.312 
L 246.687268 273.312 
L 246.687268 140.330541 
L 245.065611 140.330541 
z
" clip-path="url(#p358d499f54)" style="fill: #1f77b4"/>
   </g>
   <g id="patch_114">
    <path d="M 246.687268 273.312 
L 248.308925 273.312 
L 248.308925 117.670024 
L 246.687268 117.670024 
z
" clip-path="url(#p358d499f54)" style="fill: #1f77b4"/>
   </g>
   <g id="patch_115">
    <path d="M 248.308925 273.312 
L 249.930582 273.312 
L 249.930582 141.5232 
L 248.308925 141.5232 
z
" clip-path="url(#p358d499f54)" style="fill: #1f77b4"/>
   </g>
   <g id="patch_116">
    <path d="M 249.930582 273.312 
L 251.552239 273.312 
L 251.552239 130.192941 
L 249.930582 130.192941 
z
" clip-path="url(#p358d499f54)" style="fill: #1f77b4"/>
   </g>
   <g id="patch_117">
    <path d="M 251.552239 273.312 
L 253.173896 273.312 
L 253.173896 135.559906 
L 251.552239 135.559906 
z
" clip-path="url(#p358d499f54)" style="fill: #1f77b4"/>
   </g>
   <g id="patch_118">
    <path d="M 253.173896 273.312 
L 254.795554 273.312 
L 254.795554 139.734212 
L 253.173896 139.734212 
z
" clip-path="url(#p358d499f54)" style="fill: #1f77b4"/>
   </g>
   <g id="patch_119">
    <path d="M 254.795554 273.312 
L 256.417211 273.312 
L 256.417211 117.073694 
L 254.795554 117.073694 
z
" clip-path="url(#p358d499f54)" style="fill: #1f77b4"/>
   </g>
   <g id="patch_120">
    <path d="M 256.417211 273.312 
L 258.038868 273.312 
L 258.038868 136.156235 
L 256.417211 136.156235 
z
" clip-path="url(#p358d499f54)" style="fill: #1f77b4"/>
   </g>
   <g id="patch_121">
    <path d="M 258.038868 273.312 
L 259.660525 273.312 
L 259.660525 134.963576 
L 258.038868 134.963576 
z
" clip-path="url(#p358d499f54)" style="fill: #1f77b4"/>
   </g>
   <g id="patch_122">
    <path d="M 259.660525 273.312 
L 261.282182 273.312 
L 261.282182 140.330541 
L 259.660525 140.330541 
z
" clip-path="url(#p358d499f54)" style="fill: #1f77b4"/>
   </g>
   <g id="patch_123">
    <path d="M 261.282182 273.312 
L 262.903839 273.312 
L 262.903839 126.018635 
L 261.282182 126.018635 
z
" clip-path="url(#p358d499f54)" style="fill: #1f77b4"/>
   </g>
   <g id="patch_124">
    <path d="M 262.903839 273.312 
L 264.525496 273.312 
L 264.525496 136.156235 
L 262.903839 136.156235 
z
" clip-path="url(#p358d499f54)" style="fill: #1f77b4"/>
   </g>
   <g id="patch_125">
    <path d="M 264.525496 273.312 
L 266.147153 273.312 
L 266.147153 151.6608 
L 264.525496 151.6608 
z
" clip-path="url(#p358d499f54)" style="fill: #1f77b4"/>
   </g>
   <g id="patch_126">
    <path d="M 266.147153 273.312 
L 267.76881 273.312 
L 267.76881 108.725082 
L 266.147153 108.725082 
z
" clip-path="url(#p358d499f54)" style="fill: #1f77b4"/>
   </g>
   <g id="patch_127">
    <path d="M 267.76881 273.312 
L 269.390467 273.312 
L 269.390467 118.266353 
L 267.76881 118.266353 
z
" clip-path="url(#p358d499f54)" style="fill: #1f77b4"/>
   </g>
   <g id="patch_128">
    <path d="M 269.390467 273.312 
L 271.012125 273.312 
L 271.012125 137.945224 
L 269.390467 137.945224 
z
" clip-path="url(#p358d499f54)" style="fill: #1f77b4"/>
   </g>
   <g id="patch_129">
    <path d="M 271.012125 273.312 
L 272.633782 273.312 
L 272.633782 134.963576 
L 271.012125 134.963576 
z
" clip-path="url(#p358d499f54)" style="fill: #1f77b4"/>
   </g>
   <g id="patch_130">
    <path d="M 272.633782 273.312 
L 274.255439 273.312 
L 274.255439 126.614965 
L 272.633782 126.614965 
z
" clip-path="url(#p358d499f54)" style="fill: #1f77b4"/>
   </g>
   <g id="patch_131">
    <path d="M 274.255439 273.312 
L 275.877096 273.312 
L 275.877096 105.147106 
L 274.255439 105.147106 
z
" clip-path="url(#p358d499f54)" style="fill: #1f77b4"/>
   </g>
   <g id="patch_132">
    <path d="M 275.877096 273.312 
L 277.498753 273.312 
L 277.498753 126.018635 
L 275.877096 126.018635 
z
" clip-path="url(#p358d499f54)" style="fill: #1f77b4"/>
   </g>
   <g id="patch_133">
    <path d="M 277.498753 273.312 
L 279.12041 273.312 
L 279.12041 106.339765 
L 277.498753 106.339765 
z
" clip-path="url(#p358d499f54)" style="fill: #1f77b4"/>
   </g>
   <g id="patch_134">
    <path d="M 279.12041 273.312 
L 280.742067 273.312 
L 280.742067 115.284706 
L 279.12041 115.284706 
z
" clip-path="url(#p358d499f54)" style="fill: #1f77b4"/>
   </g>
   <g id="patch_135">
    <path d="M 280.742067 273.312 
L 282.363724 273.312 
L 282.363724 124.825976 
L 280.742067 124.825976 
z
" clip-path="url(#p358d499f54)" style="fill: #1f77b4"/>
   </g>
   <g id="patch_136">
    <path d="M 282.363724 273.312 
L 283.985381 273.312 
L 283.985381 128.403953 
L 282.363724 128.403953 
z
" clip-path="url(#p358d499f54)" style="fill: #1f77b4"/>
   </g>
   <g id="patch_137">
    <path d="M 283.985381 273.312 
L 285.607038 273.312 
L 285.607038 112.303059 
L 283.985381 112.303059 
z
" clip-path="url(#p358d499f54)" style="fill: #1f77b4"/>
   </g>
   <g id="patch_138">
    <path d="M 285.607038 273.312 
L 287.228695 273.312 
L 287.228695 112.303059 
L 285.607038 112.303059 
z
" clip-path="url(#p358d499f54)" style="fill: #1f77b4"/>
   </g>
   <g id="patch_139">
    <path d="M 287.228695 273.312 
L 288.850353 273.312 
L 288.850353 100.376471 
L 287.228695 100.376471 
z
" clip-path="url(#p358d499f54)" style="fill: #1f77b4"/>
   </g>
   <g id="patch_140">
    <path d="M 288.850353 273.312 
L 290.47201 273.312 
L 290.47201 111.706729 
L 288.850353 111.706729 
z
" clip-path="url(#p358d499f54)" style="fill: #1f77b4"/>
   </g>
   <g id="patch_141">
    <path d="M 290.47201 273.312 
L 292.093667 273.312 
L 292.093667 92.027859 
L 290.47201 92.027859 
z
" clip-path="url(#p358d499f54)" style="fill: #1f77b4"/>
   </g>
   <g id="patch_142">
    <path d="M 292.093667 273.312 
L 293.715324 273.312 
L 293.715324 106.936094 
L 292.093667 106.936094 
z
" clip-path="url(#p358d499f54)" style="fill: #1f77b4"/>
   </g>
   <g id="patch_143">
    <path d="M 293.715324 273.312 
L 295.336981 273.312 
L 295.336981 100.376471 
L 293.715324 100.376471 
z
" clip-path="url(#p358d499f54)" style="fill: #1f77b4"/>
   </g>
   <g id="patch_144">
    <path d="M 295.336981 273.312 
L 296.958638 273.312 
L 296.958638 92.027859 
L 295.336981 92.027859 
z
" clip-path="url(#p358d499f54)" style="fill: #1f77b4"/>
   </g>
   <g id="patch_145">
    <path d="M 296.958638 273.312 
L 298.580295 273.312 
L 298.580295 115.284706 
L 296.958638 115.284706 
z
" clip-path="url(#p358d499f54)" style="fill: #1f77b4"/>
   </g>
   <g id="patch_146">
    <path d="M 298.580295 273.312 
L 300.201952 273.312 
L 300.201952 106.936094 
L 298.580295 106.936094 
z
" clip-path="url(#p358d499f54)" style="fill: #1f77b4"/>
   </g>
   <g id="patch_147">
    <path d="M 300.201952 273.312 
L 301.823609 273.312 
L 301.823609 103.358118 
L 300.201952 103.358118 
z
" clip-path="url(#p358d499f54)" style="fill: #1f77b4"/>
   </g>
   <g id="patch_148">
    <path d="M 301.823609 273.312 
L 303.445266 273.312 
L 303.445266 114.688376 
L 301.823609 114.688376 
z
" clip-path="url(#p358d499f54)" style="fill: #1f77b4"/>
   </g>
   <g id="patch_149">
    <path d="M 303.445266 273.312 
L 305.066923 273.312 
L 305.066923 80.6976 
L 303.445266 80.6976 
z
" clip-path="url(#p358d499f54)" style="fill: #1f77b4"/>
   </g>
   <g id="patch_150">
    <path d="M 305.066923 273.312 
L 306.688581 273.312 
L 306.688581 86.064565 
L 305.066923 86.064565 
z
" clip-path="url(#p358d499f54)" style="fill: #1f77b4"/>
   </g>
   <g id="patch_151">
    <path d="M 306.688581 273.312 
L 308.310238 273.312 
L 308.310238 102.761788 
L 306.688581 102.761788 
z
" clip-path="url(#p358d499f54)" style="fill: #1f77b4"/>
   </g>
   <g id="patch_152">
    <path d="M 308.310238 273.312 
L 309.931895 273.312 
L 309.931895 99.183812 
L 308.310238 99.183812 
z
" clip-path="url(#p358d499f54)" style="fill: #1f77b4"/>
   </g>
   <g id="patch_153">
    <path d="M 309.931895 273.312 
L 311.553552 273.312 
L 311.553552 92.027859 
L 309.931895 92.027859 
z
" clip-path="url(#p358d499f54)" style="fill: #1f77b4"/>
   </g>
   <g id="patch_154">
    <path d="M 311.553552 273.312 
L 313.175209 273.312 
L 313.175209 97.991153 
L 311.553552 97.991153 
z
" clip-path="url(#p358d499f54)" style="fill: #1f77b4"/>
   </g>
   <g id="patch_155">
    <path d="M 313.175209 273.312 
L 314.796866 273.312 
L 314.796866 92.027859 
L 313.175209 92.027859 
z
" clip-path="url(#p358d499f54)" style="fill: #1f77b4"/>
   </g>
   <g id="patch_156">
    <path d="M 314.796866 273.312 
L 316.418523 273.312 
L 316.418523 69.963671 
L 314.796866 69.963671 
z
" clip-path="url(#p358d499f54)" style="fill: #1f77b4"/>
   </g>
   <g id="patch_157">
    <path d="M 316.418523 273.312 
L 318.04018 273.312 
L 318.04018 93.220518 
L 316.418523 93.220518 
z
" clip-path="url(#p358d499f54)" style="fill: #1f77b4"/>
   </g>
   <g id="patch_158">
    <path d="M 318.04018 273.312 
L 319.661837 273.312 
L 319.661837 83.679247 
L 318.04018 83.679247 
z
" clip-path="url(#p358d499f54)" style="fill: #1f77b4"/>
   </g>
   <g id="patch_159">
    <path d="M 319.661837 273.312 
L 321.283494 273.312 
L 321.283494 76.523294 
L 319.661837 76.523294 
z
" clip-path="url(#p358d499f54)" style="fill: #1f77b4"/>
   </g>
   <g id="patch_160">
    <path d="M 321.283494 273.312 
L 322.905152 273.312 
L 322.905152 105.147106 
L 321.283494 105.147106 
z
" clip-path="url(#p358d499f54)" style="fill: #1f77b4"/>
   </g>
   <g id="patch_161">
    <path d="M 322.905152 273.312 
L 324.526809 273.312 
L 324.526809 61.615059 
L 322.905152 61.615059 
z
" clip-path="url(#p358d499f54)" style="fill: #1f77b4"/>
   </g>
   <g id="patch_162">
    <path d="M 324.526809 273.312 
L 326.148466 273.312 
L 326.148466 90.238871 
L 324.526809 90.238871 
z
" clip-path="url(#p358d499f54)" style="fill: #1f77b4"/>
   </g>
   <g id="patch_163">
    <path d="M 326.148466 273.312 
L 327.770123 273.312 
L 327.770123 102.761788 
L 326.148466 102.761788 
z
" clip-path="url(#p358d499f54)" style="fill: #1f77b4"/>
   </g>
   <g id="patch_164">
    <path d="M 327.770123 273.312 
L 329.39178 273.312 
L 329.39178 74.137976 
L 327.770123 74.137976 
z
" clip-path="url(#p358d499f54)" style="fill: #1f77b4"/>
   </g>
   <g id="patch_165">
    <path d="M 329.39178 273.312 
L 331.013437 273.312 
L 331.013437 75.330635 
L 329.39178 75.330635 
z
" clip-path="url(#p358d499f54)" style="fill: #1f77b4"/>
   </g>
   <g id="patch_166">
    <path d="M 331.013437 273.312 
L 332.635094 273.312 
L 332.635094 82.486588 
L 331.013437 82.486588 
z
" clip-path="url(#p358d499f54)" style="fill: #1f77b4"/>
   </g>
   <g id="patch_167">
    <path d="M 332.635094 273.312 
L 334.256751 273.312 
L 334.256751 86.064565 
L 332.635094 86.064565 
z
" clip-path="url(#p358d499f54)" style="fill: #1f77b4"/>
   </g>
   <g id="patch_168">
    <path d="M 334.256751 273.312 
L 335.878408 273.312 
L 335.878408 58.037082 
L 334.256751 58.037082 
z
" clip-path="url(#p358d499f54)" style="fill: #1f77b4"/>
   </g>
   <g id="patch_169">
    <path d="M 335.878408 273.312 
L 337.500065 273.312 
L 337.500065 61.018729 
L 335.878408 61.018729 
z
" clip-path="url(#p358d499f54)" style="fill: #1f77b4"/>
   </g>
   <g id="patch_170">
    <path d="M 337.500065 273.312 
L 339.121722 273.312 
L 339.121722 78.908612 
L 337.500065 78.908612 
z
" clip-path="url(#p358d499f54)" style="fill: #1f77b4"/>
   </g>
   <g id="patch_171">
    <path d="M 339.121722 273.312 
L 340.74338 273.312 
L 340.74338 84.275576 
L 339.121722 84.275576 
z
" clip-path="url(#p358d499f54)" style="fill: #1f77b4"/>
   </g>
   <g id="patch_172">
    <path d="M 340.74338 273.312 
L 342.365037 273.312 
L 342.365037 77.715953 
L 340.74338 77.715953 
z
" clip-path="url(#p358d499f54)" style="fill: #1f77b4"/>
   </g>
   <g id="patch_173">
    <path d="M 342.365037 273.312 
L 343.986694 273.312 
L 343.986694 69.367341 
L 342.365037 69.367341 
z
" clip-path="url(#p358d499f54)" style="fill: #1f77b4"/>
   </g>
   <g id="patch_174">
    <path d="M 343.986694 273.312 
L 345.608351 273.312 
L 345.608351 71.752659 
L 343.986694 71.752659 
z
" clip-path="url(#p358d499f54)" style="fill: #1f77b4"/>
   </g>
   <g id="patch_175">
    <path d="M 345.608351 273.312 
L 347.230008 273.312 
L 347.230008 69.367341 
L 345.608351 69.367341 
z
" clip-path="url(#p358d499f54)" style="fill: #1f77b4"/>
   </g>
   <g id="patch_176">
    <path d="M 347.230008 273.312 
L 348.851665 273.312 
L 348.851665 66.385694 
L 347.230008 66.385694 
z
" clip-path="url(#p358d499f54)" style="fill: #1f77b4"/>
   </g>
   <g id="patch_177">
    <path d="M 348.851665 273.312 
L 350.473322 273.312 
L 350.473322 64.000376 
L 348.851665 64.000376 
z
" clip-path="url(#p358d499f54)" style="fill: #1f77b4"/>
   </g>
   <g id="patch_178">
    <path d="M 350.473322 273.312 
L 352.094979 273.312 
L 352.094979 54.459106 
L 350.473322 54.459106 
z
" clip-path="url(#p358d499f54)" style="fill: #1f77b4"/>
   </g>
   <g id="patch_179">
    <path d="M 352.094979 273.312 
L 353.716636 273.312 
L 353.716636 66.385694 
L 352.094979 66.385694 
z
" clip-path="url(#p358d499f54)" style="fill: #1f77b4"/>
   </g>
   <g id="patch_180">
    <path d="M 353.716636 273.312 
L 355.338293 273.312 
L 355.338293 44.321506 
L 353.716636 44.321506 
z
" clip-path="url(#p358d499f54)" style="fill: #1f77b4"/>
   </g>
   <g id="patch_181">
    <path d="M 355.338293 273.312 
L 356.959951 273.312 
L 356.959951 81.890259 
L 355.338293 81.890259 
z
" clip-path="url(#p358d499f54)" style="fill: #1f77b4"/>
   </g>
   <g id="patch_182">
    <path d="M 356.959951 273.312 
L 358.581608 273.312 
L 358.581608 41.936188 
L 356.959951 41.936188 
z
" clip-path="url(#p358d499f54)" style="fill: #1f77b4"/>
   </g>
   <g id="patch_183">
    <path d="M 358.581608 273.312 
L 360.203265 273.312 
L 360.203265 68.174682 
L 358.581608 68.174682 
z
" clip-path="url(#p358d499f54)" style="fill: #1f77b4"/>
   </g>
   <g id="patch_184">
    <path d="M 360.203265 273.312 
L 361.824922 273.312 
L 361.824922 61.615059 
L 360.203265 61.615059 
z
" clip-path="url(#p358d499f54)" style="fill: #1f77b4"/>
   </g>
   <g id="patch_185">
    <path d="M 361.824922 273.312 
L 363.446579 273.312 
L 363.446579 56.844424 
L 361.824922 56.844424 
z
" clip-path="url(#p358d499f54)" style="fill: #1f77b4"/>
   </g>
   <g id="patch_186">
    <path d="M 363.446579 273.312 
L 365.068236 273.312 
L 365.068236 61.018729 
L 363.446579 61.018729 
z
" clip-path="url(#p358d499f54)" style="fill: #1f77b4"/>
   </g>
   <g id="patch_187">
    <path d="M 365.068236 273.312 
L 366.689893 273.312 
L 366.689893 38.358212 
L 365.068236 38.358212 
z
" clip-path="url(#p358d499f54)" style="fill: #1f77b4"/>
   </g>
   <g id="patch_188">
    <path d="M 366.689893 273.312 
L 368.31155 273.312 
L 368.31155 41.936188 
L 366.689893 41.936188 
z
" clip-path="url(#p358d499f54)" style="fill: #1f77b4"/>
   </g>
   <g id="patch_189">
    <path d="M 368.31155 273.312 
L 369.933207 273.312 
L 369.933207 52.670118 
L 368.31155 52.670118 
z
" clip-path="url(#p358d499f54)" style="fill: #1f77b4"/>
   </g>
   <g id="patch_190">
    <path d="M 369.933207 273.312 
L 371.554864 273.312 
L 371.554864 44.917835 
L 369.933207 44.917835 
z
" clip-path="url(#p358d499f54)" style="fill: #1f77b4"/>
   </g>
   <g id="patch_191">
    <path d="M 371.554864 273.312 
L 373.176521 273.312 
L 373.176521 47.303153 
L 371.554864 47.303153 
z
" clip-path="url(#p358d499f54)" style="fill: #1f77b4"/>
   </g>
   <g id="patch_192">
    <path d="M 373.176521 273.312 
L 374.798179 273.312 
L 374.798179 52.073788 
L 373.176521 52.073788 
z
" clip-path="url(#p358d499f54)" style="fill: #1f77b4"/>
   </g>
   <g id="patch_193">
    <path d="M 374.798179 273.312 
L 376.419836 273.312 
L 376.419836 38.358212 
L 374.798179 38.358212 
z
" clip-path="url(#p358d499f54)" style="fill: #1f77b4"/>
   </g>
   <g id="patch_194">
    <path d="M 376.419836 273.312 
L 378.041493 273.312 
L 378.041493 52.073788 
L 376.419836 52.073788 
z
" clip-path="url(#p358d499f54)" style="fill: #1f77b4"/>
   </g>
   <g id="patch_195">
    <path d="M 378.041493 273.312 
L 379.66315 273.312 
L 379.66315 42.532518 
L 378.041493 42.532518 
z
" clip-path="url(#p358d499f54)" style="fill: #1f77b4"/>
   </g>
   <g id="patch_196">
    <path d="M 379.66315 273.312 
L 381.284807 273.312 
L 381.284807 59.826071 
L 379.66315 59.826071 
z
" clip-path="url(#p358d499f54)" style="fill: #1f77b4"/>
   </g>
   <g id="patch_197">
    <path d="M 381.284807 273.312 
L 382.906464 273.312 
L 382.906464 35.972894 
L 381.284807 35.972894 
z
" clip-path="url(#p358d499f54)" style="fill: #1f77b4"/>
   </g>
   <g id="patch_198">
    <path d="M 382.906464 273.312 
L 384.528121 273.312 
L 384.528121 52.670118 
L 382.906464 52.670118 
z
" clip-path="url(#p358d499f54)" style="fill: #1f77b4"/>
   </g>
   <g id="patch_199">
    <path d="M 384.528121 273.312 
L 386.149778 273.312 
L 386.149778 38.954541 
L 384.528121 38.954541 
z
" clip-path="url(#p358d499f54)" style="fill: #1f77b4"/>
   </g>
   <g id="patch_200">
    <path d="M 386.149778 273.312 
L 387.771435 273.312 
L 387.771435 34.780235 
L 386.149778 34.780235 
z
" clip-path="url(#p358d499f54)" style="fill: #1f77b4"/>
   </g>
   <g id="patch_201">
    <path d="M 387.771435 273.312 
L 389.393092 273.312 
L 389.393092 41.936188 
L 387.771435 41.936188 
z
" clip-path="url(#p358d499f54)" style="fill: #1f77b4"/>
   </g>
   <g id="patch_202">
    <path d="M 389.393092 273.312 
L 391.014749 273.312 
L 391.014749 19.872 
L 389.393092 19.872 
z
" clip-path="url(#p358d499f54)" style="fill: #1f77b4"/>
   </g>
   <g id="matplotlib.axis_1">
    <g id="xtick_1">
     <g id="line2d_1">
      <defs>
       <path id="m7b2ed10518" d="M 0 0 
L 0 3.5 
" style="stroke: #000000; stroke-width: 0.8"/>
      </defs>
      <g>
       <use xlink:href="#m7b2ed10518" x="66.376477" y="273.312" style="stroke: #000000; stroke-width: 0.8"/>
      </g>
     </g>
     <g id="text_1">
      <!-- 0.0 -->
      <g transform="translate(58.424915 287.910437)scale(0.1 -0.1)">
       <defs>
        <path id="DejaVuSans-30" d="M 2034 4250 
Q 1547 4250 1301 3770 
Q 1056 3291 1056 2328 
Q 1056 1369 1301 889 
Q 1547 409 2034 409 
Q 2525 409 2770 889 
Q 3016 1369 3016 2328 
Q 3016 3291 2770 3770 
Q 2525 4250 2034 4250 
z
M 2034 4750 
Q 2819 4750 3233 4129 
Q 3647 3509 3647 2328 
Q 3647 1150 3233 529 
Q 2819 -91 2034 -91 
Q 1250 -91 836 529 
Q 422 1150 422 2328 
Q 422 3509 836 4129 
Q 1250 4750 2034 4750 
z
" transform="scale(0.015625)"/>
        <path id="DejaVuSans-2e" d="M 684 794 
L 1344 794 
L 1344 0 
L 684 0 
L 684 794 
z
" transform="scale(0.015625)"/>
       </defs>
       <use xlink:href="#DejaVuSans-30"/>
       <use xlink:href="#DejaVuSans-2e" x="63.623047"/>
       <use xlink:href="#DejaVuSans-30" x="95.410156"/>
      </g>
     </g>
    </g>
    <g id="xtick_2">
     <g id="line2d_2">
      <g>
       <use xlink:href="#m7b2ed10518" x="131.307386" y="273.312" style="stroke: #000000; stroke-width: 0.8"/>
      </g>
     </g>
     <g id="text_2">
      <!-- 0.2 -->
      <g transform="translate(123.355824 287.910437)scale(0.1 -0.1)">
       <defs>
        <path id="DejaVuSans-32" d="M 1228 531 
L 3431 531 
L 3431 0 
L 469 0 
L 469 531 
Q 828 903 1448 1529 
Q 2069 2156 2228 2338 
Q 2531 2678 2651 2914 
Q 2772 3150 2772 3378 
Q 2772 3750 2511 3984 
Q 2250 4219 1831 4219 
Q 1534 4219 1204 4116 
Q 875 4013 500 3803 
L 500 4441 
Q 881 4594 1212 4672 
Q 1544 4750 1819 4750 
Q 2544 4750 2975 4387 
Q 3406 4025 3406 3419 
Q 3406 3131 3298 2873 
Q 3191 2616 2906 2266 
Q 2828 2175 2409 1742 
Q 1991 1309 1228 531 
z
" transform="scale(0.015625)"/>
       </defs>
       <use xlink:href="#DejaVuSans-30"/>
       <use xlink:href="#DejaVuSans-2e" x="63.623047"/>
       <use xlink:href="#DejaVuSans-32" x="95.410156"/>
      </g>
     </g>
    </g>
    <g id="xtick_3">
     <g id="line2d_3">
      <g>
       <use xlink:href="#m7b2ed10518" x="196.238295" y="273.312" style="stroke: #000000; stroke-width: 0.8"/>
      </g>
     </g>
     <g id="text_3">
      <!-- 0.4 -->
      <g transform="translate(188.286733 287.910437)scale(0.1 -0.1)">
       <defs>
        <path id="DejaVuSans-34" d="M 2419 4116 
L 825 1625 
L 2419 1625 
L 2419 4116 
z
M 2253 4666 
L 3047 4666 
L 3047 1625 
L 3713 1625 
L 3713 1100 
L 3047 1100 
L 3047 0 
L 2419 0 
L 2419 1100 
L 313 1100 
L 313 1709 
L 2253 4666 
z
" transform="scale(0.015625)"/>
       </defs>
       <use xlink:href="#DejaVuSans-30"/>
       <use xlink:href="#DejaVuSans-2e" x="63.623047"/>
       <use xlink:href="#DejaVuSans-34" x="95.410156"/>
      </g>
     </g>
    </g>
    <g id="xtick_4">
     <g id="line2d_4">
      <g>
       <use xlink:href="#m7b2ed10518" x="261.169205" y="273.312" style="stroke: #000000; stroke-width: 0.8"/>
      </g>
     </g>
     <g id="text_4">
      <!-- 0.6 -->
      <g transform="translate(253.217642 287.910437)scale(0.1 -0.1)">
       <defs>
        <path id="DejaVuSans-36" d="M 2113 2584 
Q 1688 2584 1439 2293 
Q 1191 2003 1191 1497 
Q 1191 994 1439 701 
Q 1688 409 2113 409 
Q 2538 409 2786 701 
Q 3034 994 3034 1497 
Q 3034 2003 2786 2293 
Q 2538 2584 2113 2584 
z
M 3366 4563 
L 3366 3988 
Q 3128 4100 2886 4159 
Q 2644 4219 2406 4219 
Q 1781 4219 1451 3797 
Q 1122 3375 1075 2522 
Q 1259 2794 1537 2939 
Q 1816 3084 2150 3084 
Q 2853 3084 3261 2657 
Q 3669 2231 3669 1497 
Q 3669 778 3244 343 
Q 2819 -91 2113 -91 
Q 1303 -91 875 529 
Q 447 1150 447 2328 
Q 447 3434 972 4092 
Q 1497 4750 2381 4750 
Q 2619 4750 2861 4703 
Q 3103 4656 3366 4563 
z
" transform="scale(0.015625)"/>
       </defs>
       <use xlink:href="#DejaVuSans-30"/>
       <use xlink:href="#DejaVuSans-2e" x="63.623047"/>
       <use xlink:href="#DejaVuSans-36" x="95.410156"/>
      </g>
     </g>
    </g>
    <g id="xtick_5">
     <g id="line2d_5">
      <g>
       <use xlink:href="#m7b2ed10518" x="326.100114" y="273.312" style="stroke: #000000; stroke-width: 0.8"/>
      </g>
     </g>
     <g id="text_5">
      <!-- 0.8 -->
      <g transform="translate(318.148551 287.910437)scale(0.1 -0.1)">
       <defs>
        <path id="DejaVuSans-38" d="M 2034 2216 
Q 1584 2216 1326 1975 
Q 1069 1734 1069 1313 
Q 1069 891 1326 650 
Q 1584 409 2034 409 
Q 2484 409 2743 651 
Q 3003 894 3003 1313 
Q 3003 1734 2745 1975 
Q 2488 2216 2034 2216 
z
M 1403 2484 
Q 997 2584 770 2862 
Q 544 3141 544 3541 
Q 544 4100 942 4425 
Q 1341 4750 2034 4750 
Q 2731 4750 3128 4425 
Q 3525 4100 3525 3541 
Q 3525 3141 3298 2862 
Q 3072 2584 2669 2484 
Q 3125 2378 3379 2068 
Q 3634 1759 3634 1313 
Q 3634 634 3220 271 
Q 2806 -91 2034 -91 
Q 1263 -91 848 271 
Q 434 634 434 1313 
Q 434 1759 690 2068 
Q 947 2378 1403 2484 
z
M 1172 3481 
Q 1172 3119 1398 2916 
Q 1625 2713 2034 2713 
Q 2441 2713 2670 2916 
Q 2900 3119 2900 3481 
Q 2900 3844 2670 4047 
Q 2441 4250 2034 4250 
Q 1625 4250 1398 4047 
Q 1172 3844 1172 3481 
z
" transform="scale(0.015625)"/>
       </defs>
       <use xlink:href="#DejaVuSans-30"/>
       <use xlink:href="#DejaVuSans-2e" x="63.623047"/>
       <use xlink:href="#DejaVuSans-38" x="95.410156"/>
      </g>
     </g>
    </g>
    <g id="xtick_6">
     <g id="line2d_6">
      <g>
       <use xlink:href="#m7b2ed10518" x="391.031023" y="273.312" style="stroke: #000000; stroke-width: 0.8"/>
      </g>
     </g>
     <g id="text_6">
      <!-- 1.0 -->
      <g transform="translate(383.07946 287.910437)scale(0.1 -0.1)">
       <defs>
        <path id="DejaVuSans-31" d="M 794 531 
L 1825 531 
L 1825 4091 
L 703 3866 
L 703 4441 
L 1819 4666 
L 2450 4666 
L 2450 531 
L 3481 531 
L 3481 0 
L 794 0 
L 794 531 
z
" transform="scale(0.015625)"/>
       </defs>
       <use xlink:href="#DejaVuSans-31"/>
       <use xlink:href="#DejaVuSans-2e" x="63.623047"/>
       <use xlink:href="#DejaVuSans-30" x="95.410156"/>
      </g>
     </g>
    </g>
    <g id="text_7">
     <!-- Propagation direction -->
     <g transform="translate(175.221719 301.588562)scale(0.1 -0.1)">
      <defs>
       <path id="DejaVuSans-50" d="M 1259 4147 
L 1259 2394 
L 2053 2394 
Q 2494 2394 2734 2622 
Q 2975 2850 2975 3272 
Q 2975 3691 2734 3919 
Q 2494 4147 2053 4147 
L 1259 4147 
z
M 628 4666 
L 2053 4666 
Q 2838 4666 3239 4311 
Q 3641 3956 3641 3272 
Q 3641 2581 3239 2228 
Q 2838 1875 2053 1875 
L 1259 1875 
L 1259 0 
L 628 0 
L 628 4666 
z
" transform="scale(0.015625)"/>
       <path id="DejaVuSans-72" d="M 2631 2963 
Q 2534 3019 2420 3045 
Q 2306 3072 2169 3072 
Q 1681 3072 1420 2755 
Q 1159 2438 1159 1844 
L 1159 0 
L 581 0 
L 581 3500 
L 1159 3500 
L 1159 2956 
Q 1341 3275 1631 3429 
Q 1922 3584 2338 3584 
Q 2397 3584 2469 3576 
Q 2541 3569 2628 3553 
L 2631 2963 
z
" transform="scale(0.015625)"/>
       <path id="DejaVuSans-6f" d="M 1959 3097 
Q 1497 3097 1228 2736 
Q 959 2375 959 1747 
Q 959 1119 1226 758 
Q 1494 397 1959 397 
Q 2419 397 2687 759 
Q 2956 1122 2956 1747 
Q 2956 2369 2687 2733 
Q 2419 3097 1959 3097 
z
M 1959 3584 
Q 2709 3584 3137 3096 
Q 3566 2609 3566 1747 
Q 3566 888 3137 398 
Q 2709 -91 1959 -91 
Q 1206 -91 779 398 
Q 353 888 353 1747 
Q 353 2609 779 3096 
Q 1206 3584 1959 3584 
z
" transform="scale(0.015625)"/>
       <path id="DejaVuSans-70" d="M 1159 525 
L 1159 -1331 
L 581 -1331 
L 581 3500 
L 1159 3500 
L 1159 2969 
Q 1341 3281 1617 3432 
Q 1894 3584 2278 3584 
Q 2916 3584 3314 3078 
Q 3713 2572 3713 1747 
Q 3713 922 3314 415 
Q 2916 -91 2278 -91 
Q 1894 -91 1617 61 
Q 1341 213 1159 525 
z
M 3116 1747 
Q 3116 2381 2855 2742 
Q 2594 3103 2138 3103 
Q 1681 3103 1420 2742 
Q 1159 2381 1159 1747 
Q 1159 1113 1420 752 
Q 1681 391 2138 391 
Q 2594 391 2855 752 
Q 3116 1113 3116 1747 
z
" transform="scale(0.015625)"/>
       <path id="DejaVuSans-61" d="M 2194 1759 
Q 1497 1759 1228 1600 
Q 959 1441 959 1056 
Q 959 750 1161 570 
Q 1363 391 1709 391 
Q 2188 391 2477 730 
Q 2766 1069 2766 1631 
L 2766 1759 
L 2194 1759 
z
M 3341 1997 
L 3341 0 
L 2766 0 
L 2766 531 
Q 2569 213 2275 61 
Q 1981 -91 1556 -91 
Q 1019 -91 701 211 
Q 384 513 384 1019 
Q 384 1609 779 1909 
Q 1175 2209 1959 2209 
L 2766 2209 
L 2766 2266 
Q 2766 2663 2505 2880 
Q 2244 3097 1772 3097 
Q 1472 3097 1187 3025 
Q 903 2953 641 2809 
L 641 3341 
Q 956 3463 1253 3523 
Q 1550 3584 1831 3584 
Q 2591 3584 2966 3190 
Q 3341 2797 3341 1997 
z
" transform="scale(0.015625)"/>
       <path id="DejaVuSans-67" d="M 2906 1791 
Q 2906 2416 2648 2759 
Q 2391 3103 1925 3103 
Q 1463 3103 1205 2759 
Q 947 2416 947 1791 
Q 947 1169 1205 825 
Q 1463 481 1925 481 
Q 2391 481 2648 825 
Q 2906 1169 2906 1791 
z
M 3481 434 
Q 3481 -459 3084 -895 
Q 2688 -1331 1869 -1331 
Q 1566 -1331 1297 -1286 
Q 1028 -1241 775 -1147 
L 775 -588 
Q 1028 -725 1275 -790 
Q 1522 -856 1778 -856 
Q 2344 -856 2625 -561 
Q 2906 -266 2906 331 
L 2906 616 
Q 2728 306 2450 153 
Q 2172 0 1784 0 
Q 1141 0 747 490 
Q 353 981 353 1791 
Q 353 2603 747 3093 
Q 1141 3584 1784 3584 
Q 2172 3584 2450 3431 
Q 2728 3278 2906 2969 
L 2906 3500 
L 3481 3500 
L 3481 434 
z
" transform="scale(0.015625)"/>
       <path id="DejaVuSans-74" d="M 1172 4494 
L 1172 3500 
L 2356 3500 
L 2356 3053 
L 1172 3053 
L 1172 1153 
Q 1172 725 1289 603 
Q 1406 481 1766 481 
L 2356 481 
L 2356 0 
L 1766 0 
Q 1100 0 847 248 
Q 594 497 594 1153 
L 594 3053 
L 172 3053 
L 172 3500 
L 594 3500 
L 594 4494 
L 1172 4494 
z
" transform="scale(0.015625)"/>
       <path id="DejaVuSans-69" d="M 603 3500 
L 1178 3500 
L 1178 0 
L 603 0 
L 603 3500 
z
M 603 4863 
L 1178 4863 
L 1178 4134 
L 603 4134 
L 603 4863 
z
" transform="scale(0.015625)"/>
       <path id="DejaVuSans-6e" d="M 3513 2113 
L 3513 0 
L 2938 0 
L 2938 2094 
Q 2938 2591 2744 2837 
Q 2550 3084 2163 3084 
Q 1697 3084 1428 2787 
Q 1159 2491 1159 1978 
L 1159 0 
L 581 0 
L 581 3500 
L 1159 3500 
L 1159 2956 
Q 1366 3272 1645 3428 
Q 1925 3584 2291 3584 
Q 2894 3584 3203 3211 
Q 3513 2838 3513 2113 
z
" transform="scale(0.015625)"/>
       <path id="DejaVuSans-20" transform="scale(0.015625)"/>
       <path id="DejaVuSans-64" d="M 2906 2969 
L 2906 4863 
L 3481 4863 
L 3481 0 
L 2906 0 
L 2906 525 
Q 2725 213 2448 61 
Q 2172 -91 1784 -91 
Q 1150 -91 751 415 
Q 353 922 353 1747 
Q 353 2572 751 3078 
Q 1150 3584 1784 3584 
Q 2172 3584 2448 3432 
Q 2725 3281 2906 2969 
z
M 947 1747 
Q 947 1113 1208 752 
Q 1469 391 1925 391 
Q 2381 391 2643 752 
Q 2906 1113 2906 1747 
Q 2906 2381 2643 2742 
Q 2381 3103 1925 3103 
Q 1469 3103 1208 2742 
Q 947 2381 947 1747 
z
" transform="scale(0.015625)"/>
       <path id="DejaVuSans-65" d="M 3597 1894 
L 3597 1613 
L 953 1613 
Q 991 1019 1311 708 
Q 1631 397 2203 397 
Q 2534 397 2845 478 
Q 3156 559 3463 722 
L 3463 178 
Q 3153 47 2828 -22 
Q 2503 -91 2169 -91 
Q 1331 -91 842 396 
Q 353 884 353 1716 
Q 353 2575 817 3079 
Q 1281 3584 2069 3584 
Q 2775 3584 3186 3129 
Q 3597 2675 3597 1894 
z
M 3022 2063 
Q 3016 2534 2758 2815 
Q 2500 3097 2075 3097 
Q 1594 3097 1305 2825 
Q 1016 2553 972 2059 
L 3022 2063 
z
" transform="scale(0.015625)"/>
       <path id="DejaVuSans-63" d="M 3122 3366 
L 3122 2828 
Q 2878 2963 2633 3030 
Q 2388 3097 2138 3097 
Q 1578 3097 1268 2742 
Q 959 2388 959 1747 
Q 959 1106 1268 751 
Q 1578 397 2138 397 
Q 2388 397 2633 464 
Q 2878 531 3122 666 
L 3122 134 
Q 2881 22 2623 -34 
Q 2366 -91 2075 -91 
Q 1284 -91 818 406 
Q 353 903 353 1747 
Q 353 2603 823 3093 
Q 1294 3584 2113 3584 
Q 2378 3584 2631 3529 
Q 2884 3475 3122 3366 
z
" transform="scale(0.015625)"/>
      </defs>
      <use xlink:href="#DejaVuSans-50"/>
      <use xlink:href="#DejaVuSans-72" x="58.552734"/>
      <use xlink:href="#DejaVuSans-6f" x="97.416016"/>
      <use xlink:href="#DejaVuSans-70" x="158.597656"/>
      <use xlink:href="#DejaVuSans-61" x="222.074219"/>
      <use xlink:href="#DejaVuSans-67" x="283.353516"/>
      <use xlink:href="#DejaVuSans-61" x="346.830078"/>
      <use xlink:href="#DejaVuSans-74" x="408.109375"/>
      <use xlink:href="#DejaVuSans-69" x="447.318359"/>
      <use xlink:href="#DejaVuSans-6f" x="475.101562"/>
      <use xlink:href="#DejaVuSans-6e" x="536.283203"/>
      <use xlink:href="#DejaVuSans-20" x="599.662109"/>
      <use xlink:href="#DejaVuSans-64" x="631.449219"/>
      <use xlink:href="#DejaVuSans-69" x="694.925781"/>
      <use xlink:href="#DejaVuSans-72" x="722.708984"/>
      <use xlink:href="#DejaVuSans-65" x="761.572266"/>
      <use xlink:href="#DejaVuSans-63" x="823.095703"/>
      <use xlink:href="#DejaVuSans-74" x="878.076172"/>
      <use xlink:href="#DejaVuSans-69" x="917.285156"/>
      <use xlink:href="#DejaVuSans-6f" x="945.068359"/>
      <use xlink:href="#DejaVuSans-6e" x="1006.25"/>
     </g>
    </g>
   </g>
   <g id="matplotlib.axis_2">
    <g id="ytick_1">
     <g id="line2d_7">
      <defs>
       <path id="m2871ce2013" d="M 0 0 
L -3.5 0 
" style="stroke: #000000; stroke-width: 0.8"/>
      </defs>
      <g>
       <use xlink:href="#m2871ce2013" x="50.14375" y="273.312" style="stroke: #000000; stroke-width: 0.8"/>
      </g>
     </g>
     <g id="text_8">
      <!-- 0.00 -->
      <g transform="translate(20.878125 277.111219)scale(0.1 -0.1)">
       <use xlink:href="#DejaVuSans-30"/>
       <use xlink:href="#DejaVuSans-2e" x="63.623047"/>
       <use xlink:href="#DejaVuSans-30" x="95.410156"/>
       <use xlink:href="#DejaVuSans-30" x="159.033203"/>
      </g>
     </g>
    </g>
    <g id="ytick_2">
     <g id="line2d_8">
      <g>
       <use xlink:href="#m2871ce2013" x="50.14375" y="243.525206" style="stroke: #000000; stroke-width: 0.8"/>
      </g>
     </g>
     <g id="text_9">
      <!-- 0.25 -->
      <g transform="translate(20.878125 247.324424)scale(0.1 -0.1)">
       <defs>
        <path id="DejaVuSans-35" d="M 691 4666 
L 3169 4666 
L 3169 4134 
L 1269 4134 
L 1269 2991 
Q 1406 3038 1543 3061 
Q 1681 3084 1819 3084 
Q 2600 3084 3056 2656 
Q 3513 2228 3513 1497 
Q 3513 744 3044 326 
Q 2575 -91 1722 -91 
Q 1428 -91 1123 -41 
Q 819 9 494 109 
L 494 744 
Q 775 591 1075 516 
Q 1375 441 1709 441 
Q 2250 441 2565 725 
Q 2881 1009 2881 1497 
Q 2881 1984 2565 2268 
Q 2250 2553 1709 2553 
Q 1456 2553 1204 2497 
Q 953 2441 691 2322 
L 691 4666 
z
" transform="scale(0.015625)"/>
       </defs>
       <use xlink:href="#DejaVuSans-30"/>
       <use xlink:href="#DejaVuSans-2e" x="63.623047"/>
       <use xlink:href="#DejaVuSans-32" x="95.410156"/>
       <use xlink:href="#DejaVuSans-35" x="159.033203"/>
      </g>
     </g>
    </g>
    <g id="ytick_3">
     <g id="line2d_9">
      <g>
       <use xlink:href="#m2871ce2013" x="50.14375" y="213.738411" style="stroke: #000000; stroke-width: 0.8"/>
      </g>
     </g>
     <g id="text_10">
      <!-- 0.50 -->
      <g transform="translate(20.878125 217.53763)scale(0.1 -0.1)">
       <use xlink:href="#DejaVuSans-30"/>
       <use xlink:href="#DejaVuSans-2e" x="63.623047"/>
       <use xlink:href="#DejaVuSans-35" x="95.410156"/>
       <use xlink:href="#DejaVuSans-30" x="159.033203"/>
      </g>
     </g>
    </g>
    <g id="ytick_4">
     <g id="line2d_10">
      <g>
       <use xlink:href="#m2871ce2013" x="50.14375" y="183.951617" style="stroke: #000000; stroke-width: 0.8"/>
      </g>
     </g>
     <g id="text_11">
      <!-- 0.75 -->
      <g transform="translate(20.878125 187.750835)scale(0.1 -0.1)">
       <defs>
        <path id="DejaVuSans-37" d="M 525 4666 
L 3525 4666 
L 3525 4397 
L 1831 0 
L 1172 0 
L 2766 4134 
L 525 4134 
L 525 4666 
z
" transform="scale(0.015625)"/>
       </defs>
       <use xlink:href="#DejaVuSans-30"/>
       <use xlink:href="#DejaVuSans-2e" x="63.623047"/>
       <use xlink:href="#DejaVuSans-37" x="95.410156"/>
       <use xlink:href="#DejaVuSans-35" x="159.033203"/>
      </g>
     </g>
    </g>
    <g id="ytick_5">
     <g id="line2d_11">
      <g>
       <use xlink:href="#m2871ce2013" x="50.14375" y="154.164822" style="stroke: #000000; stroke-width: 0.8"/>
      </g>
     </g>
     <g id="text_12">
      <!-- 1.00 -->
      <g transform="translate(20.878125 157.964041)scale(0.1 -0.1)">
       <use xlink:href="#DejaVuSans-31"/>
       <use xlink:href="#DejaVuSans-2e" x="63.623047"/>
       <use xlink:href="#DejaVuSans-30" x="95.410156"/>
       <use xlink:href="#DejaVuSans-30" x="159.033203"/>
      </g>
     </g>
    </g>
    <g id="ytick_6">
     <g id="line2d_12">
      <g>
       <use xlink:href="#m2871ce2013" x="50.14375" y="124.378028" style="stroke: #000000; stroke-width: 0.8"/>
      </g>
     </g>
     <g id="text_13">
      <!-- 1.25 -->
      <g transform="translate(20.878125 128.177247)scale(0.1 -0.1)">
       <use xlink:href="#DejaVuSans-31"/>
       <use xlink:href="#DejaVuSans-2e" x="63.623047"/>
       <use xlink:href="#DejaVuSans-32" x="95.410156"/>
       <use xlink:href="#DejaVuSans-35" x="159.033203"/>
      </g>
     </g>
    </g>
    <g id="ytick_7">
     <g id="line2d_13">
      <g>
       <use xlink:href="#m2871ce2013" x="50.14375" y="94.591233" style="stroke: #000000; stroke-width: 0.8"/>
      </g>
     </g>
     <g id="text_14">
      <!-- 1.50 -->
      <g transform="translate(20.878125 98.390452)scale(0.1 -0.1)">
       <use xlink:href="#DejaVuSans-31"/>
       <use xlink:href="#DejaVuSans-2e" x="63.623047"/>
       <use xlink:href="#DejaVuSans-35" x="95.410156"/>
       <use xlink:href="#DejaVuSans-30" x="159.033203"/>
      </g>
     </g>
    </g>
    <g id="ytick_8">
     <g id="line2d_14">
      <g>
       <use xlink:href="#m2871ce2013" x="50.14375" y="64.804439" style="stroke: #000000; stroke-width: 0.8"/>
      </g>
     </g>
     <g id="text_15">
      <!-- 1.75 -->
      <g transform="translate(20.878125 68.603658)scale(0.1 -0.1)">
       <use xlink:href="#DejaVuSans-31"/>
       <use xlink:href="#DejaVuSans-2e" x="63.623047"/>
       <use xlink:href="#DejaVuSans-37" x="95.410156"/>
       <use xlink:href="#DejaVuSans-35" x="159.033203"/>
      </g>
     </g>
    </g>
    <g id="ytick_9">
     <g id="line2d_15">
      <g>
       <use xlink:href="#m2871ce2013" x="50.14375" y="35.017644" style="stroke: #000000; stroke-width: 0.8"/>
      </g>
     </g>
     <g id="text_16">
      <!-- 2.00 -->
      <g transform="translate(20.878125 38.816863)scale(0.1 -0.1)">
       <use xlink:href="#DejaVuSans-32"/>
       <use xlink:href="#DejaVuSans-2e" x="63.623047"/>
       <use xlink:href="#DejaVuSans-30" x="95.410156"/>
       <use xlink:href="#DejaVuSans-30" x="159.033203"/>
      </g>
     </g>
    </g>
    <g id="text_17">
     <!-- Probability density -->
     <g transform="translate(14.798438 186.606781)rotate(-90)scale(0.1 -0.1)">
      <defs>
       <path id="DejaVuSans-62" d="M 3116 1747 
Q 3116 2381 2855 2742 
Q 2594 3103 2138 3103 
Q 1681 3103 1420 2742 
Q 1159 2381 1159 1747 
Q 1159 1113 1420 752 
Q 1681 391 2138 391 
Q 2594 391 2855 752 
Q 3116 1113 3116 1747 
z
M 1159 2969 
Q 1341 3281 1617 3432 
Q 1894 3584 2278 3584 
Q 2916 3584 3314 3078 
Q 3713 2572 3713 1747 
Q 3713 922 3314 415 
Q 2916 -91 2278 -91 
Q 1894 -91 1617 61 
Q 1341 213 1159 525 
L 1159 0 
L 581 0 
L 581 4863 
L 1159 4863 
L 1159 2969 
z
" transform="scale(0.015625)"/>
       <path id="DejaVuSans-6c" d="M 603 4863 
L 1178 4863 
L 1178 0 
L 603 0 
L 603 4863 
z
" transform="scale(0.015625)"/>
       <path id="DejaVuSans-79" d="M 2059 -325 
Q 1816 -950 1584 -1140 
Q 1353 -1331 966 -1331 
L 506 -1331 
L 506 -850 
L 844 -850 
Q 1081 -850 1212 -737 
Q 1344 -625 1503 -206 
L 1606 56 
L 191 3500 
L 800 3500 
L 1894 763 
L 2988 3500 
L 3597 3500 
L 2059 -325 
z
" transform="scale(0.015625)"/>
       <path id="DejaVuSans-73" d="M 2834 3397 
L 2834 2853 
Q 2591 2978 2328 3040 
Q 2066 3103 1784 3103 
Q 1356 3103 1142 2972 
Q 928 2841 928 2578 
Q 928 2378 1081 2264 
Q 1234 2150 1697 2047 
L 1894 2003 
Q 2506 1872 2764 1633 
Q 3022 1394 3022 966 
Q 3022 478 2636 193 
Q 2250 -91 1575 -91 
Q 1294 -91 989 -36 
Q 684 19 347 128 
L 347 722 
Q 666 556 975 473 
Q 1284 391 1588 391 
Q 1994 391 2212 530 
Q 2431 669 2431 922 
Q 2431 1156 2273 1281 
Q 2116 1406 1581 1522 
L 1381 1569 
Q 847 1681 609 1914 
Q 372 2147 372 2553 
Q 372 3047 722 3315 
Q 1072 3584 1716 3584 
Q 2034 3584 2315 3537 
Q 2597 3491 2834 3397 
z
" transform="scale(0.015625)"/>
      </defs>
      <use xlink:href="#DejaVuSans-50"/>
      <use xlink:href="#DejaVuSans-72" x="58.552734"/>
      <use xlink:href="#DejaVuSans-6f" x="97.416016"/>
      <use xlink:href="#DejaVuSans-62" x="158.597656"/>
      <use xlink:href="#DejaVuSans-61" x="222.074219"/>
      <use xlink:href="#DejaVuSans-62" x="283.353516"/>
      <use xlink:href="#DejaVuSans-69" x="346.830078"/>
      <use xlink:href="#DejaVuSans-6c" x="374.613281"/>
      <use xlink:href="#DejaVuSans-69" x="402.396484"/>
      <use xlink:href="#DejaVuSans-74" x="430.179688"/>
      <use xlink:href="#DejaVuSans-79" x="469.388672"/>
      <use xlink:href="#DejaVuSans-20" x="528.568359"/>
      <use xlink:href="#DejaVuSans-64" x="560.355469"/>
      <use xlink:href="#DejaVuSans-65" x="623.832031"/>
      <use xlink:href="#DejaVuSans-6e" x="685.355469"/>
      <use xlink:href="#DejaVuSans-73" x="748.734375"/>
      <use xlink:href="#DejaVuSans-69" x="800.833984"/>
      <use xlink:href="#DejaVuSans-74" x="828.617188"/>
      <use xlink:href="#DejaVuSans-79" x="867.826172"/>
     </g>
    </g>
   </g>
   <g id="line2d_16">
    <path d="M 66.376477 273.312 
L 391.031023 35.017644 
L 391.031023 35.017644 
" clip-path="url(#p358d499f54)" style="fill: none; stroke: #ff7f0e; stroke-width: 1.5; stroke-linecap: square"/>
   </g>
   <g id="patch_203">
    <path d="M 50.14375 273.312 
L 50.14375 7.2 
" style="fill: none; stroke: #000000; stroke-width: 0.8; stroke-linejoin: miter; stroke-linecap: square"/>
   </g>
   <g id="patch_204">
    <path d="M 407.26375 273.312 
L 407.26375 7.2 
" style="fill: none; stroke: #000000; stroke-width: 0.8; stroke-linejoin: miter; stroke-linecap: square"/>
   </g>
   <g id="patch_205">
    <path d="M 50.14375 273.312 
L 407.26375 273.312 
" style="fill: none; stroke: #000000; stroke-width: 0.8; stroke-linejoin: miter; stroke-linecap: square"/>
   </g>
   <g id="patch_206">
    <path d="M 50.14375 7.2 
L 407.26375 7.2 
" style="fill: none; stroke: #000000; stroke-width: 0.8; stroke-linejoin: miter; stroke-linecap: square"/>
   </g>
  </g>
 </g>
 <defs>
  <clipPath id="p358d499f54">
   <rect x="50.14375" y="7.2" width="357.12" height="266.112"/>
  </clipPath>
 </defs>
</svg>
