<?xml version="1.0" encoding="utf-8" standalone="no"?>
<!DOCTYPE svg PUBLIC "-//W3C//DTD SVG 1.1//EN"
  "http://www.w3.org/Graphics/SVG/1.1/DTD/svg11.dtd">
<svg xmlns:xlink="http://www.w3.org/1999/xlink" width="414.46375pt" height="310.86825pt" viewBox="0 0 414.46375 310.86825" xmlns="http://www.w3.org/2000/svg" version="1.1">
 <metadata>
  <rdf:RDF xmlns:dc="http://purl.org/dc/elements/1.1/" xmlns:cc="http://creativecommons.org/ns#" xmlns:rdf="http://www.w3.org/1999/02/22-rdf-syntax-ns#">
   <cc:Work>
    <dc:type rdf:resource="http://purl.org/dc/dcmitype/StillImage"/>
    <dc:date>2023-01-15T00:37:43.066067</dc:date>
    <dc:format>image/svg+xml</dc:format>
    <dc:creator>
     <cc:Agent>
      <dc:title>Matplotlib v3.5.3, https://matplotlib.org/</dc:title>
     </cc:Agent>
    </dc:creator>
   </cc:Work>
  </rdf:RDF>
 </metadata>
 <defs>
  <style type="text/css">*{stroke-linejoin: round; stroke-linecap: butt}</style>
 </defs>
 <g id="figure_1">
  <g id="patch_1">
   <path d="M 0 310.86825 
L 414.46375 310.86825 
L 414.46375 0 
L 0 0 
z
" style="fill: #ffffff"/>
  </g>
  <g id="axes_1">
   <g id="patch_2">
    <path d="M 50.14375 273.312 
L 407.26375 273.312 
L 407.26375 7.2 
L 50.14375 7.2 
z
" style="fill: #ffffff"/>
   </g>
   <g id="patch_3">
    <path d="M 69.013734 273.312 
L 70.623803 273.312 
L 70.623803 269.725585 
L 69.013734 269.725585 
z
" clip-path="url(#pfb66f650de)" style="fill: #1f77b4"/>
   </g>
   <g id="patch_4">
    <path d="M 70.623803 273.312 
L 72.233871 273.312 
L 72.233871 270.921057 
L 70.623803 270.921057 
z
" clip-path="url(#pfb66f650de)" style="fill: #1f77b4"/>
   </g>
   <g id="patch_5">
    <path d="M 72.233871 273.312 
L 73.843939 273.312 
L 73.843939 270.323321 
L 72.233871 270.323321 
z
" clip-path="url(#pfb66f650de)" style="fill: #1f77b4"/>
   </g>
   <g id="patch_6">
    <path d="M 73.843939 273.312 
L 75.454007 273.312 
L 75.454007 267.334642 
L 73.843939 267.334642 
z
" clip-path="url(#pfb66f650de)" style="fill: #1f77b4"/>
   </g>
   <g id="patch_7">
    <path d="M 75.454007 273.312 
L 77.064075 273.312 
L 77.064075 268.530113 
L 75.454007 268.530113 
z
" clip-path="url(#pfb66f650de)" style="fill: #1f77b4"/>
   </g>
   <g id="patch_8">
    <path d="M 77.064075 273.312 
L 78.674143 273.312 
L 78.674143 261.357283 
L 77.064075 261.357283 
z
" clip-path="url(#pfb66f650de)" style="fill: #1f77b4"/>
   </g>
   <g id="patch_9">
    <path d="M 78.674143 273.312 
L 80.284211 273.312 
L 80.284211 265.541434 
L 78.674143 265.541434 
z
" clip-path="url(#pfb66f650de)" style="fill: #1f77b4"/>
   </g>
   <g id="patch_10">
    <path d="M 80.284211 273.312 
L 81.894279 273.312 
L 81.894279 265.541434 
L 80.284211 265.541434 
z
" clip-path="url(#pfb66f650de)" style="fill: #1f77b4"/>
   </g>
   <g id="patch_11">
    <path d="M 81.894279 273.312 
L 83.504347 273.312 
L 83.504347 256.575396 
L 81.894279 256.575396 
z
" clip-path="url(#pfb66f650de)" style="fill: #1f77b4"/>
   </g>
   <g id="patch_12">
    <path d="M 83.504347 273.312 
L 85.114415 273.312 
L 85.114415 256.575396 
L 83.504347 256.575396 
z
" clip-path="url(#pfb66f650de)" style="fill: #1f77b4"/>
   </g>
   <g id="patch_13">
    <path d="M 85.114415 273.312 
L 86.724483 273.312 
L 86.724483 259.564075 
L 85.114415 259.564075 
z
" clip-path="url(#pfb66f650de)" style="fill: #1f77b4"/>
   </g>
   <g id="patch_14">
    <path d="M 86.724483 273.312 
L 88.334552 273.312 
L 88.334552 252.391245 
L 86.724483 252.391245 
z
" clip-path="url(#pfb66f650de)" style="fill: #1f77b4"/>
   </g>
   <g id="patch_15">
    <path d="M 88.334552 273.312 
L 89.94462 273.312 
L 89.94462 257.770868 
L 88.334552 257.770868 
z
" clip-path="url(#pfb66f650de)" style="fill: #1f77b4"/>
   </g>
   <g id="patch_16">
    <path d="M 89.94462 273.312 
L 91.554688 273.312 
L 91.554688 257.173132 
L 89.94462 257.173132 
z
" clip-path="url(#pfb66f650de)" style="fill: #1f77b4"/>
   </g>
   <g id="patch_17">
    <path d="M 91.554688 273.312 
L 93.164756 273.312 
L 93.164756 255.379925 
L 91.554688 255.379925 
z
" clip-path="url(#pfb66f650de)" style="fill: #1f77b4"/>
   </g>
   <g id="patch_18">
    <path d="M 93.164756 273.312 
L 94.774824 273.312 
L 94.774824 254.782189 
L 93.164756 254.782189 
z
" clip-path="url(#pfb66f650de)" style="fill: #1f77b4"/>
   </g>
   <g id="patch_19">
    <path d="M 94.774824 273.312 
L 96.384892 273.312 
L 96.384892 254.782189 
L 94.774824 254.782189 
z
" clip-path="url(#pfb66f650de)" style="fill: #1f77b4"/>
   </g>
   <g id="patch_20">
    <path d="M 96.384892 273.312 
L 97.99496 273.312 
L 97.99496 255.97766 
L 96.384892 255.97766 
z
" clip-path="url(#pfb66f650de)" style="fill: #1f77b4"/>
   </g>
   <g id="patch_21">
    <path d="M 97.99496 273.312 
L 99.605028 273.312 
L 99.605028 254.184453 
L 97.99496 254.184453 
z
" clip-path="url(#pfb66f650de)" style="fill: #1f77b4"/>
   </g>
   <g id="patch_22">
    <path d="M 99.605028 273.312 
L 101.215096 273.312 
L 101.215096 250.598038 
L 99.605028 250.598038 
z
" clip-path="url(#pfb66f650de)" style="fill: #1f77b4"/>
   </g>
   <g id="patch_23">
    <path d="M 101.215096 273.312 
L 102.825164 273.312 
L 102.825164 243.425208 
L 101.215096 243.425208 
z
" clip-path="url(#pfb66f650de)" style="fill: #1f77b4"/>
   </g>
   <g id="patch_24">
    <path d="M 102.825164 273.312 
L 104.435232 273.312 
L 104.435232 247.011623 
L 102.825164 247.011623 
z
" clip-path="url(#pfb66f650de)" style="fill: #1f77b4"/>
   </g>
   <g id="patch_25">
    <path d="M 104.435232 273.312 
L 106.045301 273.312 
L 106.045301 239.241057 
L 104.435232 239.241057 
z
" clip-path="url(#pfb66f650de)" style="fill: #1f77b4"/>
   </g>
   <g id="patch_26">
    <path d="M 106.045301 273.312 
L 107.655369 273.312 
L 107.655369 244.022943 
L 106.045301 244.022943 
z
" clip-path="url(#pfb66f650de)" style="fill: #1f77b4"/>
   </g>
   <g id="patch_27">
    <path d="M 107.655369 273.312 
L 109.265437 273.312 
L 109.265437 240.436528 
L 107.655369 240.436528 
z
" clip-path="url(#pfb66f650de)" style="fill: #1f77b4"/>
   </g>
   <g id="patch_28">
    <path d="M 109.265437 273.312 
L 110.875505 273.312 
L 110.875505 242.229736 
L 109.265437 242.229736 
z
" clip-path="url(#pfb66f650de)" style="fill: #1f77b4"/>
   </g>
   <g id="patch_29">
    <path d="M 110.875505 273.312 
L 112.485573 273.312 
L 112.485573 246.413887 
L 110.875505 246.413887 
z
" clip-path="url(#pfb66f650de)" style="fill: #1f77b4"/>
   </g>
   <g id="patch_30">
    <path d="M 112.485573 273.312 
L 114.095641 273.312 
L 114.095641 237.447849 
L 112.485573 237.447849 
z
" clip-path="url(#pfb66f650de)" style="fill: #1f77b4"/>
   </g>
   <g id="patch_31">
    <path d="M 114.095641 273.312 
L 115.705709 273.312 
L 115.705709 241.034264 
L 114.095641 241.034264 
z
" clip-path="url(#pfb66f650de)" style="fill: #1f77b4"/>
   </g>
   <g id="patch_32">
    <path d="M 115.705709 273.312 
L 117.315777 273.312 
L 117.315777 244.620679 
L 115.705709 244.620679 
z
" clip-path="url(#pfb66f650de)" style="fill: #1f77b4"/>
   </g>
   <g id="patch_33">
    <path d="M 117.315777 273.312 
L 118.925845 273.312 
L 118.925845 236.252377 
L 117.315777 236.252377 
z
" clip-path="url(#pfb66f650de)" style="fill: #1f77b4"/>
   </g>
   <g id="patch_34">
    <path d="M 118.925845 273.312 
L 120.535913 273.312 
L 120.535913 232.665962 
L 118.925845 232.665962 
z
" clip-path="url(#pfb66f650de)" style="fill: #1f77b4"/>
   </g>
   <g id="patch_35">
    <path d="M 120.535913 273.312 
L 122.145981 273.312 
L 122.145981 229.079547 
L 120.535913 229.079547 
z
" clip-path="url(#pfb66f650de)" style="fill: #1f77b4"/>
   </g>
   <g id="patch_36">
    <path d="M 122.145981 273.312 
L 123.75605 273.312 
L 123.75605 228.481811 
L 122.145981 228.481811 
z
" clip-path="url(#pfb66f650de)" style="fill: #1f77b4"/>
   </g>
   <g id="patch_37">
    <path d="M 123.75605 273.312 
L 125.366118 273.312 
L 125.366118 232.068226 
L 123.75605 232.068226 
z
" clip-path="url(#pfb66f650de)" style="fill: #1f77b4"/>
   </g>
   <g id="patch_38">
    <path d="M 125.366118 273.312 
L 126.976186 273.312 
L 126.976186 234.45917 
L 125.366118 234.45917 
z
" clip-path="url(#pfb66f650de)" style="fill: #1f77b4"/>
   </g>
   <g id="patch_39">
    <path d="M 126.976186 273.312 
L 128.586254 273.312 
L 128.586254 231.470491 
L 126.976186 231.470491 
z
" clip-path="url(#pfb66f650de)" style="fill: #1f77b4"/>
   </g>
   <g id="patch_40">
    <path d="M 128.586254 273.312 
L 130.196322 273.312 
L 130.196322 231.470491 
L 128.586254 231.470491 
z
" clip-path="url(#pfb66f650de)" style="fill: #1f77b4"/>
   </g>
   <g id="patch_41">
    <path d="M 130.196322 273.312 
L 131.80639 273.312 
L 131.80639 227.28634 
L 130.196322 227.28634 
z
" clip-path="url(#pfb66f650de)" style="fill: #1f77b4"/>
   </g>
   <g id="patch_42">
    <path d="M 131.80639 273.312 
L 133.416458 273.312 
L 133.416458 224.895396 
L 131.80639 224.895396 
z
" clip-path="url(#pfb66f650de)" style="fill: #1f77b4"/>
   </g>
   <g id="patch_43">
    <path d="M 133.416458 273.312 
L 135.026526 273.312 
L 135.026526 227.28634 
L 133.416458 227.28634 
z
" clip-path="url(#pfb66f650de)" style="fill: #1f77b4"/>
   </g>
   <g id="patch_44">
    <path d="M 135.026526 273.312 
L 136.636594 273.312 
L 136.636594 228.481811 
L 135.026526 228.481811 
z
" clip-path="url(#pfb66f650de)" style="fill: #1f77b4"/>
   </g>
   <g id="patch_45">
    <path d="M 136.636594 273.312 
L 138.246662 273.312 
L 138.246662 222.504453 
L 136.636594 222.504453 
z
" clip-path="url(#pfb66f650de)" style="fill: #1f77b4"/>
   </g>
   <g id="patch_46">
    <path d="M 138.246662 273.312 
L 139.85673 273.312 
L 139.85673 225.493132 
L 138.246662 225.493132 
z
" clip-path="url(#pfb66f650de)" style="fill: #1f77b4"/>
   </g>
   <g id="patch_47">
    <path d="M 139.85673 273.312 
L 141.466799 273.312 
L 141.466799 227.884075 
L 139.85673 227.884075 
z
" clip-path="url(#pfb66f650de)" style="fill: #1f77b4"/>
   </g>
   <g id="patch_48">
    <path d="M 141.466799 273.312 
L 143.076867 273.312 
L 143.076867 216.527094 
L 141.466799 216.527094 
z
" clip-path="url(#pfb66f650de)" style="fill: #1f77b4"/>
   </g>
   <g id="patch_49">
    <path d="M 143.076867 273.312 
L 144.686935 273.312 
L 144.686935 211.147472 
L 143.076867 211.147472 
z
" clip-path="url(#pfb66f650de)" style="fill: #1f77b4"/>
   </g>
   <g id="patch_50">
    <path d="M 144.686935 273.312 
L 146.297003 273.312 
L 146.297003 203.974642 
L 144.686935 203.974642 
z
" clip-path="url(#pfb66f650de)" style="fill: #1f77b4"/>
   </g>
   <g id="patch_51">
    <path d="M 146.297003 273.312 
L 147.907071 273.312 
L 147.907071 203.376906 
L 146.297003 203.376906 
z
" clip-path="url(#pfb66f650de)" style="fill: #1f77b4"/>
   </g>
   <g id="patch_52">
    <path d="M 147.907071 273.312 
L 149.517139 273.312 
L 149.517139 211.745208 
L 147.907071 211.745208 
z
" clip-path="url(#pfb66f650de)" style="fill: #1f77b4"/>
   </g>
   <g id="patch_53">
    <path d="M 149.517139 273.312 
L 151.127207 273.312 
L 151.127207 218.320302 
L 149.517139 218.320302 
z
" clip-path="url(#pfb66f650de)" style="fill: #1f77b4"/>
   </g>
   <g id="patch_54">
    <path d="M 151.127207 273.312 
L 152.737275 273.312 
L 152.737275 199.192755 
L 151.127207 199.192755 
z
" clip-path="url(#pfb66f650de)" style="fill: #1f77b4"/>
   </g>
   <g id="patch_55">
    <path d="M 152.737275 273.312 
L 154.347343 273.312 
L 154.347343 211.147472 
L 152.737275 211.147472 
z
" clip-path="url(#pfb66f650de)" style="fill: #1f77b4"/>
   </g>
   <g id="patch_56">
    <path d="M 154.347343 273.312 
L 155.957411 273.312 
L 155.957411 211.147472 
L 154.347343 211.147472 
z
" clip-path="url(#pfb66f650de)" style="fill: #1f77b4"/>
   </g>
   <g id="patch_57">
    <path d="M 155.957411 273.312 
L 157.567479 273.312 
L 157.567479 208.158792 
L 155.957411 208.158792 
z
" clip-path="url(#pfb66f650de)" style="fill: #1f77b4"/>
   </g>
   <g id="patch_58">
    <path d="M 157.567479 273.312 
L 159.177548 273.312 
L 159.177548 215.331623 
L 157.567479 215.331623 
z
" clip-path="url(#pfb66f650de)" style="fill: #1f77b4"/>
   </g>
   <g id="patch_59">
    <path d="M 159.177548 273.312 
L 160.787616 273.312 
L 160.787616 208.756528 
L 159.177548 208.756528 
z
" clip-path="url(#pfb66f650de)" style="fill: #1f77b4"/>
   </g>
   <g id="patch_60">
    <path d="M 160.787616 273.312 
L 162.397684 273.312 
L 162.397684 205.767849 
L 160.787616 205.767849 
z
" clip-path="url(#pfb66f650de)" style="fill: #1f77b4"/>
   </g>
   <g id="patch_61">
    <path d="M 162.397684 273.312 
L 164.007752 273.312 
L 164.007752 198.595019 
L 162.397684 198.595019 
z
" clip-path="url(#pfb66f650de)" style="fill: #1f77b4"/>
   </g>
   <g id="patch_62">
    <path d="M 164.007752 273.312 
L 165.61782 273.312 
L 165.61782 201.583698 
L 164.007752 201.583698 
z
" clip-path="url(#pfb66f650de)" style="fill: #1f77b4"/>
   </g>
   <g id="patch_63">
    <path d="M 165.61782 273.312 
L 167.227888 273.312 
L 167.227888 212.940679 
L 165.61782 212.940679 
z
" clip-path="url(#pfb66f650de)" style="fill: #1f77b4"/>
   </g>
   <g id="patch_64">
    <path d="M 167.227888 273.312 
L 168.837956 273.312 
L 168.837956 197.997283 
L 167.227888 197.997283 
z
" clip-path="url(#pfb66f650de)" style="fill: #1f77b4"/>
   </g>
   <g id="patch_65">
    <path d="M 168.837956 273.312 
L 170.448024 273.312 
L 170.448024 217.722566 
L 168.837956 217.722566 
z
" clip-path="url(#pfb66f650de)" style="fill: #1f77b4"/>
   </g>
   <g id="patch_66">
    <path d="M 170.448024 273.312 
L 172.058092 273.312 
L 172.058092 210.549736 
L 170.448024 210.549736 
z
" clip-path="url(#pfb66f650de)" style="fill: #1f77b4"/>
   </g>
   <g id="patch_67">
    <path d="M 172.058092 273.312 
L 173.66816 273.312 
L 173.66816 187.238038 
L 172.058092 187.238038 
z
" clip-path="url(#pfb66f650de)" style="fill: #1f77b4"/>
   </g>
   <g id="patch_68">
    <path d="M 173.66816 273.312 
L 175.278228 273.312 
L 175.278228 196.204075 
L 173.66816 196.204075 
z
" clip-path="url(#pfb66f650de)" style="fill: #1f77b4"/>
   </g>
   <g id="patch_69">
    <path d="M 175.278228 273.312 
L 176.888297 273.312 
L 176.888297 179.467472 
L 175.278228 179.467472 
z
" clip-path="url(#pfb66f650de)" style="fill: #1f77b4"/>
   </g>
   <g id="patch_70">
    <path d="M 176.888297 273.312 
L 178.498365 273.312 
L 178.498365 183.651623 
L 176.888297 183.651623 
z
" clip-path="url(#pfb66f650de)" style="fill: #1f77b4"/>
   </g>
   <g id="patch_71">
    <path d="M 178.498365 273.312 
L 180.108433 273.312 
L 180.108433 195.008604 
L 178.498365 195.008604 
z
" clip-path="url(#pfb66f650de)" style="fill: #1f77b4"/>
   </g>
   <g id="patch_72">
    <path d="M 180.108433 273.312 
L 181.718501 273.312 
L 181.718501 188.433509 
L 180.108433 188.433509 
z
" clip-path="url(#pfb66f650de)" style="fill: #1f77b4"/>
   </g>
   <g id="patch_73">
    <path d="M 181.718501 273.312 
L 183.328569 273.312 
L 183.328569 194.410868 
L 181.718501 194.410868 
z
" clip-path="url(#pfb66f650de)" style="fill: #1f77b4"/>
   </g>
   <g id="patch_74">
    <path d="M 183.328569 273.312 
L 184.938637 273.312 
L 184.938637 182.456151 
L 183.328569 182.456151 
z
" clip-path="url(#pfb66f650de)" style="fill: #1f77b4"/>
   </g>
   <g id="patch_75">
    <path d="M 184.938637 273.312 
L 186.548705 273.312 
L 186.548705 180.662943 
L 184.938637 180.662943 
z
" clip-path="url(#pfb66f650de)" style="fill: #1f77b4"/>
   </g>
   <g id="patch_76">
    <path d="M 186.548705 273.312 
L 188.158773 273.312 
L 188.158773 181.260679 
L 186.548705 181.260679 
z
" clip-path="url(#pfb66f650de)" style="fill: #1f77b4"/>
   </g>
   <g id="patch_77">
    <path d="M 188.158773 273.312 
L 189.768841 273.312 
L 189.768841 184.847094 
L 188.158773 184.847094 
z
" clip-path="url(#pfb66f650de)" style="fill: #1f77b4"/>
   </g>
   <g id="patch_78">
    <path d="M 189.768841 273.312 
L 191.378909 273.312 
L 191.378909 184.847094 
L 189.768841 184.847094 
z
" clip-path="url(#pfb66f650de)" style="fill: #1f77b4"/>
   </g>
   <g id="patch_79">
    <path d="M 191.378909 273.312 
L 192.988977 273.312 
L 192.988977 186.042566 
L 191.378909 186.042566 
z
" clip-path="url(#pfb66f650de)" style="fill: #1f77b4"/>
   </g>
   <g id="patch_80">
    <path d="M 192.988977 273.312 
L 194.599046 273.312 
L 194.599046 190.226717 
L 192.988977 190.226717 
z
" clip-path="url(#pfb66f650de)" style="fill: #1f77b4"/>
   </g>
   <g id="patch_81">
    <path d="M 194.599046 273.312 
L 196.209114 273.312 
L 196.209114 186.640302 
L 194.599046 186.640302 
z
" clip-path="url(#pfb66f650de)" style="fill: #1f77b4"/>
   </g>
   <g id="patch_82">
    <path d="M 196.209114 273.312 
L 197.819182 273.312 
L 197.819182 184.847094 
L 196.209114 184.847094 
z
" clip-path="url(#pfb66f650de)" style="fill: #1f77b4"/>
   </g>
   <g id="patch_83">
    <path d="M 197.819182 273.312 
L 199.42925 273.312 
L 199.42925 174.685585 
L 197.819182 174.685585 
z
" clip-path="url(#pfb66f650de)" style="fill: #1f77b4"/>
   </g>
   <g id="patch_84">
    <path d="M 199.42925 273.312 
L 201.039318 273.312 
L 201.039318 177.674264 
L 199.42925 177.674264 
z
" clip-path="url(#pfb66f650de)" style="fill: #1f77b4"/>
   </g>
   <g id="patch_85">
    <path d="M 201.039318 273.312 
L 202.649386 273.312 
L 202.649386 178.272 
L 201.039318 178.272 
z
" clip-path="url(#pfb66f650de)" style="fill: #1f77b4"/>
   </g>
   <g id="patch_86">
    <path d="M 202.649386 273.312 
L 204.259454 273.312 
L 204.259454 171.696906 
L 202.649386 171.696906 
z
" clip-path="url(#pfb66f650de)" style="fill: #1f77b4"/>
   </g>
   <g id="patch_87">
    <path d="M 204.259454 273.312 
L 205.869522 273.312 
L 205.869522 171.696906 
L 204.259454 171.696906 
z
" clip-path="url(#pfb66f650de)" style="fill: #1f77b4"/>
   </g>
   <g id="patch_88">
    <path d="M 205.869522 273.312 
L 207.47959 273.312 
L 207.47959 162.730868 
L 205.869522 162.730868 
z
" clip-path="url(#pfb66f650de)" style="fill: #1f77b4"/>
   </g>
   <g id="patch_89">
    <path d="M 207.47959 273.312 
L 209.089658 273.312 
L 209.089658 179.467472 
L 207.47959 179.467472 
z
" clip-path="url(#pfb66f650de)" style="fill: #1f77b4"/>
   </g>
   <g id="patch_90">
    <path d="M 209.089658 273.312 
L 210.699726 273.312 
L 210.699726 162.133132 
L 209.089658 162.133132 
z
" clip-path="url(#pfb66f650de)" style="fill: #1f77b4"/>
   </g>
   <g id="patch_91">
    <path d="M 210.699726 273.312 
L 212.309795 273.312 
L 212.309795 163.92634 
L 210.699726 163.92634 
z
" clip-path="url(#pfb66f650de)" style="fill: #1f77b4"/>
   </g>
   <g id="patch_92">
    <path d="M 212.309795 273.312 
L 213.919863 273.312 
L 213.919863 178.869736 
L 212.309795 178.869736 
z
" clip-path="url(#pfb66f650de)" style="fill: #1f77b4"/>
   </g>
   <g id="patch_93">
    <path d="M 213.919863 273.312 
L 215.529931 273.312 
L 215.529931 177.076528 
L 213.919863 177.076528 
z
" clip-path="url(#pfb66f650de)" style="fill: #1f77b4"/>
   </g>
   <g id="patch_94">
    <path d="M 215.529931 273.312 
L 217.139999 273.312 
L 217.139999 172.294642 
L 215.529931 172.294642 
z
" clip-path="url(#pfb66f650de)" style="fill: #1f77b4"/>
   </g>
   <g id="patch_95">
    <path d="M 217.139999 273.312 
L 218.750067 273.312 
L 218.750067 178.869736 
L 217.139999 178.869736 
z
" clip-path="url(#pfb66f650de)" style="fill: #1f77b4"/>
   </g>
   <g id="patch_96">
    <path d="M 218.750067 273.312 
L 220.360135 273.312 
L 220.360135 161.535396 
L 218.750067 161.535396 
z
" clip-path="url(#pfb66f650de)" style="fill: #1f77b4"/>
   </g>
   <g id="patch_97">
    <path d="M 220.360135 273.312 
L 221.970203 273.312 
L 221.970203 166.915019 
L 220.360135 166.915019 
z
" clip-path="url(#pfb66f650de)" style="fill: #1f77b4"/>
   </g>
   <g id="patch_98">
    <path d="M 221.970203 273.312 
L 223.580271 273.312 
L 223.580271 159.144453 
L 221.970203 159.144453 
z
" clip-path="url(#pfb66f650de)" style="fill: #1f77b4"/>
   </g>
   <g id="patch_99">
    <path d="M 223.580271 273.312 
L 225.190339 273.312 
L 225.190339 176.478792 
L 223.580271 176.478792 
z
" clip-path="url(#pfb66f650de)" style="fill: #1f77b4"/>
   </g>
   <g id="patch_100">
    <path d="M 225.190339 273.312 
L 226.800407 273.312 
L 226.800407 148.385208 
L 225.190339 148.385208 
z
" clip-path="url(#pfb66f650de)" style="fill: #1f77b4"/>
   </g>
   <g id="patch_101">
    <path d="M 226.800407 273.312 
L 228.410475 273.312 
L 228.410475 144.798792 
L 226.800407 144.798792 
z
" clip-path="url(#pfb66f650de)" style="fill: #1f77b4"/>
   </g>
   <g id="patch_102">
    <path d="M 228.410475 273.312 
L 230.020544 273.312 
L 230.020544 161.535396 
L 228.410475 161.535396 
z
" clip-path="url(#pfb66f650de)" style="fill: #1f77b4"/>
   </g>
   <g id="patch_103">
    <path d="M 230.020544 273.312 
L 231.630612 273.312 
L 231.630612 143.005585 
L 230.020544 143.005585 
z
" clip-path="url(#pfb66f650de)" style="fill: #1f77b4"/>
   </g>
   <g id="patch_104">
    <path d="M 231.630612 273.312 
L 233.24068 273.312 
L 233.24068 155.558038 
L 231.630612 155.558038 
z
" clip-path="url(#pfb66f650de)" style="fill: #1f77b4"/>
   </g>
   <g id="patch_105">
    <path d="M 233.24068 273.312 
L 234.850748 273.312 
L 234.850748 146.592 
L 233.24068 146.592 
z
" clip-path="url(#pfb66f650de)" style="fill: #1f77b4"/>
   </g>
   <g id="patch_106">
    <path d="M 234.850748 273.312 
L 236.460816 273.312 
L 236.460816 166.915019 
L 234.850748 166.915019 
z
" clip-path="url(#pfb66f650de)" style="fill: #1f77b4"/>
   </g>
   <g id="patch_107">
    <path d="M 236.460816 273.312 
L 238.070884 273.312 
L 238.070884 133.441811 
L 236.460816 133.441811 
z
" clip-path="url(#pfb66f650de)" style="fill: #1f77b4"/>
   </g>
   <g id="patch_108">
    <path d="M 238.070884 273.312 
L 239.680952 273.312 
L 239.680952 147.787472 
L 238.070884 147.787472 
z
" clip-path="url(#pfb66f650de)" style="fill: #1f77b4"/>
   </g>
   <g id="patch_109">
    <path d="M 239.680952 273.312 
L 241.29102 273.312 
L 241.29102 150.178415 
L 239.680952 150.178415 
z
" clip-path="url(#pfb66f650de)" style="fill: #1f77b4"/>
   </g>
   <g id="patch_110">
    <path d="M 241.29102 273.312 
L 242.901088 273.312 
L 242.901088 145.396528 
L 241.29102 145.396528 
z
" clip-path="url(#pfb66f650de)" style="fill: #1f77b4"/>
   </g>
   <g id="patch_111">
    <path d="M 242.901088 273.312 
L 244.511156 273.312 
L 244.511156 148.982943 
L 242.901088 148.982943 
z
" clip-path="url(#pfb66f650de)" style="fill: #1f77b4"/>
   </g>
   <g id="patch_112">
    <path d="M 244.511156 273.312 
L 246.121224 273.312 
L 246.121224 159.742189 
L 244.511156 159.742189 
z
" clip-path="url(#pfb66f650de)" style="fill: #1f77b4"/>
   </g>
   <g id="patch_113">
    <path d="M 246.121224 273.312 
L 247.731292 273.312 
L 247.731292 132.844075 
L 246.121224 132.844075 
z
" clip-path="url(#pfb66f650de)" style="fill: #1f77b4"/>
   </g>
   <g id="patch_114">
    <path d="M 247.731292 273.312 
L 249.341361 273.312 
L 249.341361 141.810113 
L 247.731292 141.810113 
z
" clip-path="url(#pfb66f650de)" style="fill: #1f77b4"/>
   </g>
   <g id="patch_115">
    <path d="M 249.341361 273.312 
L 250.951429 273.312 
L 250.951429 144.201057 
L 249.341361 144.201057 
z
" clip-path="url(#pfb66f650de)" style="fill: #1f77b4"/>
   </g>
   <g id="patch_116">
    <path d="M 250.951429 273.312 
L 252.561497 273.312 
L 252.561497 131.050868 
L 250.951429 131.050868 
z
" clip-path="url(#pfb66f650de)" style="fill: #1f77b4"/>
   </g>
   <g id="patch_117">
    <path d="M 252.561497 273.312 
L 254.171565 273.312 
L 254.171565 126.866717 
L 252.561497 126.866717 
z
" clip-path="url(#pfb66f650de)" style="fill: #1f77b4"/>
   </g>
   <g id="patch_118">
    <path d="M 254.171565 273.312 
L 255.781633 273.312 
L 255.781633 153.167094 
L 254.171565 153.167094 
z
" clip-path="url(#pfb66f650de)" style="fill: #1f77b4"/>
   </g>
   <g id="patch_119">
    <path d="M 255.781633 273.312 
L 257.391701 273.312 
L 257.391701 125.671245 
L 255.781633 125.671245 
z
" clip-path="url(#pfb66f650de)" style="fill: #1f77b4"/>
   </g>
   <g id="patch_120">
    <path d="M 257.391701 273.312 
L 259.001769 273.312 
L 259.001769 136.430491 
L 257.391701 136.430491 
z
" clip-path="url(#pfb66f650de)" style="fill: #1f77b4"/>
   </g>
   <g id="patch_121">
    <path d="M 259.001769 273.312 
L 260.611837 273.312 
L 260.611837 127.464453 
L 259.001769 127.464453 
z
" clip-path="url(#pfb66f650de)" style="fill: #1f77b4"/>
   </g>
   <g id="patch_122">
    <path d="M 260.611837 273.312 
L 262.221905 273.312 
L 262.221905 138.223698 
L 260.611837 138.223698 
z
" clip-path="url(#pfb66f650de)" style="fill: #1f77b4"/>
   </g>
   <g id="patch_123">
    <path d="M 262.221905 273.312 
L 263.831973 273.312 
L 263.831973 134.039547 
L 262.221905 134.039547 
z
" clip-path="url(#pfb66f650de)" style="fill: #1f77b4"/>
   </g>
   <g id="patch_124">
    <path d="M 263.831973 273.312 
L 265.442041 273.312 
L 265.442041 127.464453 
L 263.831973 127.464453 
z
" clip-path="url(#pfb66f650de)" style="fill: #1f77b4"/>
   </g>
   <g id="patch_125">
    <path d="M 265.442041 273.312 
L 267.05211 273.312 
L 267.05211 119.096151 
L 265.442041 119.096151 
z
" clip-path="url(#pfb66f650de)" style="fill: #1f77b4"/>
   </g>
   <g id="patch_126">
    <path d="M 267.05211 273.312 
L 268.662178 273.312 
L 268.662178 123.878038 
L 267.05211 123.878038 
z
" clip-path="url(#pfb66f650de)" style="fill: #1f77b4"/>
   </g>
   <g id="patch_127">
    <path d="M 268.662178 273.312 
L 270.272246 273.312 
L 270.272246 125.073509 
L 268.662178 125.073509 
z
" clip-path="url(#pfb66f650de)" style="fill: #1f77b4"/>
   </g>
   <g id="patch_128">
    <path d="M 270.272246 273.312 
L 271.882314 273.312 
L 271.882314 120.291623 
L 270.272246 120.291623 
z
" clip-path="url(#pfb66f650de)" style="fill: #1f77b4"/>
   </g>
   <g id="patch_129">
    <path d="M 271.882314 273.312 
L 273.492382 273.312 
L 273.492382 105.348226 
L 271.882314 105.348226 
z
" clip-path="url(#pfb66f650de)" style="fill: #1f77b4"/>
   </g>
   <g id="patch_130">
    <path d="M 273.492382 273.312 
L 275.10245 273.312 
L 275.10245 110.130113 
L 273.492382 110.130113 
z
" clip-path="url(#pfb66f650de)" style="fill: #1f77b4"/>
   </g>
   <g id="patch_131">
    <path d="M 275.10245 273.312 
L 276.712518 273.312 
L 276.712518 119.096151 
L 275.10245 119.096151 
z
" clip-path="url(#pfb66f650de)" style="fill: #1f77b4"/>
   </g>
   <g id="patch_132">
    <path d="M 276.712518 273.312 
L 278.322586 273.312 
L 278.322586 114.314264 
L 276.712518 114.314264 
z
" clip-path="url(#pfb66f650de)" style="fill: #1f77b4"/>
   </g>
   <g id="patch_133">
    <path d="M 278.322586 273.312 
L 279.932654 273.312 
L 279.932654 112.521057 
L 278.322586 112.521057 
z
" clip-path="url(#pfb66f650de)" style="fill: #1f77b4"/>
   </g>
   <g id="patch_134">
    <path d="M 279.932654 273.312 
L 281.542722 273.312 
L 281.542722 103.555019 
L 279.932654 103.555019 
z
" clip-path="url(#pfb66f650de)" style="fill: #1f77b4"/>
   </g>
   <g id="patch_135">
    <path d="M 281.542722 273.312 
L 283.15279 273.312 
L 283.15279 117.302943 
L 281.542722 117.302943 
z
" clip-path="url(#pfb66f650de)" style="fill: #1f77b4"/>
   </g>
   <g id="patch_136">
    <path d="M 283.15279 273.312 
L 284.762859 273.312 
L 284.762859 101.164075 
L 283.15279 101.164075 
z
" clip-path="url(#pfb66f650de)" style="fill: #1f77b4"/>
   </g>
   <g id="patch_137">
    <path d="M 284.762859 273.312 
L 286.372927 273.312 
L 286.372927 114.912 
L 284.762859 114.912 
z
" clip-path="url(#pfb66f650de)" style="fill: #1f77b4"/>
   </g>
   <g id="patch_138">
    <path d="M 286.372927 273.312 
L 287.982995 273.312 
L 287.982995 114.912 
L 286.372927 114.912 
z
" clip-path="url(#pfb66f650de)" style="fill: #1f77b4"/>
   </g>
   <g id="patch_139">
    <path d="M 287.982995 273.312 
L 289.593063 273.312 
L 289.593063 108.336906 
L 287.982995 108.336906 
z
" clip-path="url(#pfb66f650de)" style="fill: #1f77b4"/>
   </g>
   <g id="patch_140">
    <path d="M 289.593063 273.312 
L 291.203131 273.312 
L 291.203131 93.991245 
L 289.593063 93.991245 
z
" clip-path="url(#pfb66f650de)" style="fill: #1f77b4"/>
   </g>
   <g id="patch_141">
    <path d="M 291.203131 273.312 
L 292.813199 273.312 
L 292.813199 107.141434 
L 291.203131 107.141434 
z
" clip-path="url(#pfb66f650de)" style="fill: #1f77b4"/>
   </g>
   <g id="patch_142">
    <path d="M 292.813199 273.312 
L 294.423267 273.312 
L 294.423267 117.900679 
L 292.813199 117.900679 
z
" clip-path="url(#pfb66f650de)" style="fill: #1f77b4"/>
   </g>
   <g id="patch_143">
    <path d="M 294.423267 273.312 
L 296.033335 273.312 
L 296.033335 95.784453 
L 294.423267 95.784453 
z
" clip-path="url(#pfb66f650de)" style="fill: #1f77b4"/>
   </g>
   <g id="patch_144">
    <path d="M 296.033335 273.312 
L 297.643403 273.312 
L 297.643403 107.73917 
L 296.033335 107.73917 
z
" clip-path="url(#pfb66f650de)" style="fill: #1f77b4"/>
   </g>
   <g id="patch_145">
    <path d="M 297.643403 273.312 
L 299.253471 273.312 
L 299.253471 95.784453 
L 297.643403 95.784453 
z
" clip-path="url(#pfb66f650de)" style="fill: #1f77b4"/>
   </g>
   <g id="patch_146">
    <path d="M 299.253471 273.312 
L 300.863539 273.312 
L 300.863539 116.107472 
L 299.253471 116.107472 
z
" clip-path="url(#pfb66f650de)" style="fill: #1f77b4"/>
   </g>
   <g id="patch_147">
    <path d="M 300.863539 273.312 
L 302.473608 273.312 
L 302.473608 99.968604 
L 300.863539 99.968604 
z
" clip-path="url(#pfb66f650de)" style="fill: #1f77b4"/>
   </g>
   <g id="patch_148">
    <path d="M 302.473608 273.312 
L 304.083676 273.312 
L 304.083676 86.220679 
L 302.473608 86.220679 
z
" clip-path="url(#pfb66f650de)" style="fill: #1f77b4"/>
   </g>
   <g id="patch_149">
    <path d="M 304.083676 273.312 
L 305.693744 273.312 
L 305.693744 82.634264 
L 304.083676 82.634264 
z
" clip-path="url(#pfb66f650de)" style="fill: #1f77b4"/>
   </g>
   <g id="patch_150">
    <path d="M 305.693744 273.312 
L 307.303812 273.312 
L 307.303812 104.750491 
L 305.693744 104.750491 
z
" clip-path="url(#pfb66f650de)" style="fill: #1f77b4"/>
   </g>
   <g id="patch_151">
    <path d="M 307.303812 273.312 
L 308.91388 273.312 
L 308.91388 99.370868 
L 307.303812 99.370868 
z
" clip-path="url(#pfb66f650de)" style="fill: #1f77b4"/>
   </g>
   <g id="patch_152">
    <path d="M 308.91388 273.312 
L 310.523948 273.312 
L 310.523948 97.57766 
L 308.91388 97.57766 
z
" clip-path="url(#pfb66f650de)" style="fill: #1f77b4"/>
   </g>
   <g id="patch_153">
    <path d="M 310.523948 273.312 
L 312.134016 273.312 
L 312.134016 83.829736 
L 310.523948 83.829736 
z
" clip-path="url(#pfb66f650de)" style="fill: #1f77b4"/>
   </g>
   <g id="patch_154">
    <path d="M 312.134016 273.312 
L 313.744084 273.312 
L 313.744084 85.025208 
L 312.134016 85.025208 
z
" clip-path="url(#pfb66f650de)" style="fill: #1f77b4"/>
   </g>
   <g id="patch_155">
    <path d="M 313.744084 273.312 
L 315.354152 273.312 
L 315.354152 83.829736 
L 313.744084 83.829736 
z
" clip-path="url(#pfb66f650de)" style="fill: #1f77b4"/>
   </g>
   <g id="patch_156">
    <path d="M 315.354152 273.312 
L 316.96422 273.312 
L 316.96422 108.336906 
L 315.354152 108.336906 
z
" clip-path="url(#pfb66f650de)" style="fill: #1f77b4"/>
   </g>
   <g id="patch_157">
    <path d="M 316.96422 273.312 
L 318.574288 273.312 
L 318.574288 70.679547 
L 316.96422 70.679547 
z
" clip-path="url(#pfb66f650de)" style="fill: #1f77b4"/>
   </g>
   <g id="patch_158">
    <path d="M 318.574288 273.312 
L 320.184357 273.312 
L 320.184357 83.829736 
L 318.574288 83.829736 
z
" clip-path="url(#pfb66f650de)" style="fill: #1f77b4"/>
   </g>
   <g id="patch_159">
    <path d="M 320.184357 273.312 
L 321.794425 273.312 
L 321.794425 89.807094 
L 320.184357 89.807094 
z
" clip-path="url(#pfb66f650de)" style="fill: #1f77b4"/>
   </g>
   <g id="patch_160">
    <path d="M 321.794425 273.312 
L 323.404493 273.312 
L 323.404493 84.427472 
L 321.794425 84.427472 
z
" clip-path="url(#pfb66f650de)" style="fill: #1f77b4"/>
   </g>
   <g id="patch_161">
    <path d="M 323.404493 273.312 
L 325.014561 273.312 
L 325.014561 93.393509 
L 323.404493 93.393509 
z
" clip-path="url(#pfb66f650de)" style="fill: #1f77b4"/>
   </g>
   <g id="patch_162">
    <path d="M 325.014561 273.312 
L 326.624629 273.312 
L 326.624629 72.472755 
L 325.014561 72.472755 
z
" clip-path="url(#pfb66f650de)" style="fill: #1f77b4"/>
   </g>
   <g id="patch_163">
    <path d="M 326.624629 273.312 
L 328.234697 273.312 
L 328.234697 88.013887 
L 326.624629 88.013887 
z
" clip-path="url(#pfb66f650de)" style="fill: #1f77b4"/>
   </g>
   <g id="patch_164">
    <path d="M 328.234697 273.312 
L 329.844765 273.312 
L 329.844765 79.645585 
L 328.234697 79.645585 
z
" clip-path="url(#pfb66f650de)" style="fill: #1f77b4"/>
   </g>
   <g id="patch_165">
    <path d="M 329.844765 273.312 
L 331.454833 273.312 
L 331.454833 91.600302 
L 329.844765 91.600302 
z
" clip-path="url(#pfb66f650de)" style="fill: #1f77b4"/>
   </g>
   <g id="patch_166">
    <path d="M 331.454833 273.312 
L 333.064901 273.312 
L 333.064901 57.529358 
L 331.454833 57.529358 
z
" clip-path="url(#pfb66f650de)" style="fill: #1f77b4"/>
   </g>
   <g id="patch_167">
    <path d="M 333.064901 273.312 
L 334.674969 273.312 
L 334.674969 77.254642 
L 333.064901 77.254642 
z
" clip-path="url(#pfb66f650de)" style="fill: #1f77b4"/>
   </g>
   <g id="patch_168">
    <path d="M 334.674969 273.312 
L 336.285037 273.312 
L 336.285037 92.198038 
L 334.674969 92.198038 
z
" clip-path="url(#pfb66f650de)" style="fill: #1f77b4"/>
   </g>
   <g id="patch_169">
    <path d="M 336.285037 273.312 
L 337.895106 273.312 
L 337.895106 78.450113 
L 336.285037 78.450113 
z
" clip-path="url(#pfb66f650de)" style="fill: #1f77b4"/>
   </g>
   <g id="patch_170">
    <path d="M 337.895106 273.312 
L 339.505174 273.312 
L 339.505174 68.288604 
L 337.895106 68.288604 
z
" clip-path="url(#pfb66f650de)" style="fill: #1f77b4"/>
   </g>
   <g id="patch_171">
    <path d="M 339.505174 273.312 
L 341.115242 273.312 
L 341.115242 82.634264 
L 339.505174 82.634264 
z
" clip-path="url(#pfb66f650de)" style="fill: #1f77b4"/>
   </g>
   <g id="patch_172">
    <path d="M 341.115242 273.312 
L 342.72531 273.312 
L 342.72531 67.093132 
L 341.115242 67.093132 
z
" clip-path="url(#pfb66f650de)" style="fill: #1f77b4"/>
   </g>
   <g id="patch_173">
    <path d="M 342.72531 273.312 
L 344.335378 273.312 
L 344.335378 80.243321 
L 342.72531 80.243321 
z
" clip-path="url(#pfb66f650de)" style="fill: #1f77b4"/>
   </g>
   <g id="patch_174">
    <path d="M 344.335378 273.312 
L 345.945446 273.312 
L 345.945446 74.863698 
L 344.335378 74.863698 
z
" clip-path="url(#pfb66f650de)" style="fill: #1f77b4"/>
   </g>
   <g id="patch_175">
    <path d="M 345.945446 273.312 
L 347.555514 273.312 
L 347.555514 58.72483 
L 345.945446 58.72483 
z
" clip-path="url(#pfb66f650de)" style="fill: #1f77b4"/>
   </g>
   <g id="patch_176">
    <path d="M 347.555514 273.312 
L 349.165582 273.312 
L 349.165582 73.070491 
L 347.555514 73.070491 
z
" clip-path="url(#pfb66f650de)" style="fill: #1f77b4"/>
   </g>
   <g id="patch_177">
    <path d="M 349.165582 273.312 
L 350.77565 273.312 
L 350.77565 66.495396 
L 349.165582 66.495396 
z
" clip-path="url(#pfb66f650de)" style="fill: #1f77b4"/>
   </g>
   <g id="patch_178">
    <path d="M 350.77565 273.312 
L 352.385718 273.312 
L 352.385718 81.438792 
L 350.77565 81.438792 
z
" clip-path="url(#pfb66f650de)" style="fill: #1f77b4"/>
   </g>
   <g id="patch_179">
    <path d="M 352.385718 273.312 
L 353.995786 273.312 
L 353.995786 61.115774 
L 352.385718 61.115774 
z
" clip-path="url(#pfb66f650de)" style="fill: #1f77b4"/>
   </g>
   <g id="patch_180">
    <path d="M 353.995786 273.312 
L 355.605855 273.312 
L 355.605855 68.88634 
L 353.995786 68.88634 
z
" clip-path="url(#pfb66f650de)" style="fill: #1f77b4"/>
   </g>
   <g id="patch_181">
    <path d="M 355.605855 273.312 
L 357.215923 273.312 
L 357.215923 82.634264 
L 355.605855 82.634264 
z
" clip-path="url(#pfb66f650de)" style="fill: #1f77b4"/>
   </g>
   <g id="patch_182">
    <path d="M 357.215923 273.312 
L 358.825991 273.312 
L 358.825991 44.976906 
L 357.215923 44.976906 
z
" clip-path="url(#pfb66f650de)" style="fill: #1f77b4"/>
   </g>
   <g id="patch_183">
    <path d="M 358.825991 273.312 
L 360.436059 273.312 
L 360.436059 40.792755 
L 358.825991 40.792755 
z
" clip-path="url(#pfb66f650de)" style="fill: #1f77b4"/>
   </g>
   <g id="patch_184">
    <path d="M 360.436059 273.312 
L 362.046127 273.312 
L 362.046127 64.104453 
L 360.436059 64.104453 
z
" clip-path="url(#pfb66f650de)" style="fill: #1f77b4"/>
   </g>
   <g id="patch_185">
    <path d="M 362.046127 273.312 
L 363.656195 273.312 
L 363.656195 41.988226 
L 362.046127 41.988226 
z
" clip-path="url(#pfb66f650de)" style="fill: #1f77b4"/>
   </g>
   <g id="patch_186">
    <path d="M 363.656195 273.312 
L 365.266263 273.312 
L 365.266263 49.758792 
L 363.656195 49.758792 
z
" clip-path="url(#pfb66f650de)" style="fill: #1f77b4"/>
   </g>
   <g id="patch_187">
    <path d="M 365.266263 273.312 
L 366.876331 273.312 
L 366.876331 67.093132 
L 365.266263 67.093132 
z
" clip-path="url(#pfb66f650de)" style="fill: #1f77b4"/>
   </g>
   <g id="patch_188">
    <path d="M 366.876331 273.312 
L 368.486399 273.312 
L 368.486399 56.333887 
L 366.876331 56.333887 
z
" clip-path="url(#pfb66f650de)" style="fill: #1f77b4"/>
   </g>
   <g id="patch_189">
    <path d="M 368.486399 273.312 
L 370.096467 273.312 
L 370.096467 59.322566 
L 368.486399 59.322566 
z
" clip-path="url(#pfb66f650de)" style="fill: #1f77b4"/>
   </g>
   <g id="patch_190">
    <path d="M 370.096467 273.312 
L 371.706535 273.312 
L 371.706535 49.758792 
L 370.096467 49.758792 
z
" clip-path="url(#pfb66f650de)" style="fill: #1f77b4"/>
   </g>
   <g id="patch_191">
    <path d="M 371.706535 273.312 
L 373.316604 273.312 
L 373.316604 50.356528 
L 371.706535 50.356528 
z
" clip-path="url(#pfb66f650de)" style="fill: #1f77b4"/>
   </g>
   <g id="patch_192">
    <path d="M 373.316604 273.312 
L 374.926672 273.312 
L 374.926672 47.965585 
L 373.316604 47.965585 
z
" clip-path="url(#pfb66f650de)" style="fill: #1f77b4"/>
   </g>
   <g id="patch_193">
    <path d="M 374.926672 273.312 
L 376.53674 273.312 
L 376.53674 42.585962 
L 374.926672 42.585962 
z
" clip-path="url(#pfb66f650de)" style="fill: #1f77b4"/>
   </g>
   <g id="patch_194">
    <path d="M 376.53674 273.312 
L 378.146808 273.312 
L 378.146808 46.770113 
L 376.53674 46.770113 
z
" clip-path="url(#pfb66f650de)" style="fill: #1f77b4"/>
   </g>
   <g id="patch_195">
    <path d="M 378.146808 273.312 
L 379.756876 273.312 
L 379.756876 42.585962 
L 378.146808 42.585962 
z
" clip-path="url(#pfb66f650de)" style="fill: #1f77b4"/>
   </g>
   <g id="patch_196">
    <path d="M 379.756876 273.312 
L 381.366944 273.312 
L 381.366944 45.574642 
L 379.756876 45.574642 
z
" clip-path="url(#pfb66f650de)" style="fill: #1f77b4"/>
   </g>
   <g id="patch_197">
    <path d="M 381.366944 273.312 
L 382.977012 273.312 
L 382.977012 32.424453 
L 381.366944 32.424453 
z
" clip-path="url(#pfb66f650de)" style="fill: #1f77b4"/>
   </g>
   <g id="patch_198">
    <path d="M 382.977012 273.312 
L 384.58708 273.312 
L 384.58708 35.413132 
L 382.977012 35.413132 
z
" clip-path="url(#pfb66f650de)" style="fill: #1f77b4"/>
   </g>
   <g id="patch_199">
    <path d="M 384.58708 273.312 
L 386.197148 273.312 
L 386.197148 20.469736 
L 384.58708 20.469736 
z
" clip-path="url(#pfb66f650de)" style="fill: #1f77b4"/>
   </g>
   <g id="patch_200">
    <path d="M 386.197148 273.312 
L 387.807216 273.312 
L 387.807216 46.172377 
L 386.197148 46.172377 
z
" clip-path="url(#pfb66f650de)" style="fill: #1f77b4"/>
   </g>
   <g id="patch_201">
    <path d="M 387.807216 273.312 
L 389.417284 273.312 
L 389.417284 41.988226 
L 387.807216 41.988226 
z
" clip-path="url(#pfb66f650de)" style="fill: #1f77b4"/>
   </g>
   <g id="patch_202">
    <path d="M 389.417284 273.312 
L 391.027353 273.312 
L 391.027353 19.872 
L 389.417284 19.872 
z
" clip-path="url(#pfb66f650de)" style="fill: #1f77b4"/>
   </g>
   <g id="matplotlib.axis_1">
    <g id="xtick_1">
     <g id="line2d_1">
      <defs>
       <path id="mbb52f6d434" d="M 0 0 
L 0 3.5 
" style="stroke: #000000; stroke-width: 0.8"/>
      </defs>
      <g>
       <use xlink:href="#mbb52f6d434" x="66.376477" y="273.312" style="stroke: #000000; stroke-width: 0.8"/>
      </g>
     </g>
     <g id="text_1">
      <!-- 0.0 -->
      <g transform="translate(58.424915 287.910437)scale(0.1 -0.1)">
       <defs>
        <path id="DejaVuSans-30" d="M 2034 4250 
Q 1547 4250 1301 3770 
Q 1056 3291 1056 2328 
Q 1056 1369 1301 889 
Q 1547 409 2034 409 
Q 2525 409 2770 889 
Q 3016 1369 3016 2328 
Q 3016 3291 2770 3770 
Q 2525 4250 2034 4250 
z
M 2034 4750 
Q 2819 4750 3233 4129 
Q 3647 3509 3647 2328 
Q 3647 1150 3233 529 
Q 2819 -91 2034 -91 
Q 1250 -91 836 529 
Q 422 1150 422 2328 
Q 422 3509 836 4129 
Q 1250 4750 2034 4750 
z
" transform="scale(0.015625)"/>
        <path id="DejaVuSans-2e" d="M 684 794 
L 1344 794 
L 1344 0 
L 684 0 
L 684 794 
z
" transform="scale(0.015625)"/>
       </defs>
       <use xlink:href="#DejaVuSans-30"/>
       <use xlink:href="#DejaVuSans-2e" x="63.623047"/>
       <use xlink:href="#DejaVuSans-30" x="95.410156"/>
      </g>
     </g>
    </g>
    <g id="xtick_2">
     <g id="line2d_2">
      <g>
       <use xlink:href="#mbb52f6d434" x="131.307386" y="273.312" style="stroke: #000000; stroke-width: 0.8"/>
      </g>
     </g>
     <g id="text_2">
      <!-- 0.2 -->
      <g transform="translate(123.355824 287.910437)scale(0.1 -0.1)">
       <defs>
        <path id="DejaVuSans-32" d="M 1228 531 
L 3431 531 
L 3431 0 
L 469 0 
L 469 531 
Q 828 903 1448 1529 
Q 2069 2156 2228 2338 
Q 2531 2678 2651 2914 
Q 2772 3150 2772 3378 
Q 2772 3750 2511 3984 
Q 2250 4219 1831 4219 
Q 1534 4219 1204 4116 
Q 875 4013 500 3803 
L 500 4441 
Q 881 4594 1212 4672 
Q 1544 4750 1819 4750 
Q 2544 4750 2975 4387 
Q 3406 4025 3406 3419 
Q 3406 3131 3298 2873 
Q 3191 2616 2906 2266 
Q 2828 2175 2409 1742 
Q 1991 1309 1228 531 
z
" transform="scale(0.015625)"/>
       </defs>
       <use xlink:href="#DejaVuSans-30"/>
       <use xlink:href="#DejaVuSans-2e" x="63.623047"/>
       <use xlink:href="#DejaVuSans-32" x="95.410156"/>
      </g>
     </g>
    </g>
    <g id="xtick_3">
     <g id="line2d_3">
      <g>
       <use xlink:href="#mbb52f6d434" x="196.238295" y="273.312" style="stroke: #000000; stroke-width: 0.8"/>
      </g>
     </g>
     <g id="text_3">
      <!-- 0.4 -->
      <g transform="translate(188.286733 287.910437)scale(0.1 -0.1)">
       <defs>
        <path id="DejaVuSans-34" d="M 2419 4116 
L 825 1625 
L 2419 1625 
L 2419 4116 
z
M 2253 4666 
L 3047 4666 
L 3047 1625 
L 3713 1625 
L 3713 1100 
L 3047 1100 
L 3047 0 
L 2419 0 
L 2419 1100 
L 313 1100 
L 313 1709 
L 2253 4666 
z
" transform="scale(0.015625)"/>
       </defs>
       <use xlink:href="#DejaVuSans-30"/>
       <use xlink:href="#DejaVuSans-2e" x="63.623047"/>
       <use xlink:href="#DejaVuSans-34" x="95.410156"/>
      </g>
     </g>
    </g>
    <g id="xtick_4">
     <g id="line2d_4">
      <g>
       <use xlink:href="#mbb52f6d434" x="261.169205" y="273.312" style="stroke: #000000; stroke-width: 0.8"/>
      </g>
     </g>
     <g id="text_4">
      <!-- 0.6 -->
      <g transform="translate(253.217642 287.910437)scale(0.1 -0.1)">
       <defs>
        <path id="DejaVuSans-36" d="M 2113 2584 
Q 1688 2584 1439 2293 
Q 1191 2003 1191 1497 
Q 1191 994 1439 701 
Q 1688 409 2113 409 
Q 2538 409 2786 701 
Q 3034 994 3034 1497 
Q 3034 2003 2786 2293 
Q 2538 2584 2113 2584 
z
M 3366 4563 
L 3366 3988 
Q 3128 4100 2886 4159 
Q 2644 4219 2406 4219 
Q 1781 4219 1451 3797 
Q 1122 3375 1075 2522 
Q 1259 2794 1537 2939 
Q 1816 3084 2150 3084 
Q 2853 3084 3261 2657 
Q 3669 2231 3669 1497 
Q 3669 778 3244 343 
Q 2819 -91 2113 -91 
Q 1303 -91 875 529 
Q 447 1150 447 2328 
Q 447 3434 972 4092 
Q 1497 4750 2381 4750 
Q 2619 4750 2861 4703 
Q 3103 4656 3366 4563 
z
" transform="scale(0.015625)"/>
       </defs>
       <use xlink:href="#DejaVuSans-30"/>
       <use xlink:href="#DejaVuSans-2e" x="63.623047"/>
       <use xlink:href="#DejaVuSans-36" x="95.410156"/>
      </g>
     </g>
    </g>
    <g id="xtick_5">
     <g id="line2d_5">
      <g>
       <use xlink:href="#mbb52f6d434" x="326.100114" y="273.312" style="stroke: #000000; stroke-width: 0.8"/>
      </g>
     </g>
     <g id="text_5">
      <!-- 0.8 -->
      <g transform="translate(318.148551 287.910437)scale(0.1 -0.1)">
       <defs>
        <path id="DejaVuSans-38" d="M 2034 2216 
Q 1584 2216 1326 1975 
Q 1069 1734 1069 1313 
Q 1069 891 1326 650 
Q 1584 409 2034 409 
Q 2484 409 2743 651 
Q 3003 894 3003 1313 
Q 3003 1734 2745 1975 
Q 2488 2216 2034 2216 
z
M 1403 2484 
Q 997 2584 770 2862 
Q 544 3141 544 3541 
Q 544 4100 942 4425 
Q 1341 4750 2034 4750 
Q 2731 4750 3128 4425 
Q 3525 4100 3525 3541 
Q 3525 3141 3298 2862 
Q 3072 2584 2669 2484 
Q 3125 2378 3379 2068 
Q 3634 1759 3634 1313 
Q 3634 634 3220 271 
Q 2806 -91 2034 -91 
Q 1263 -91 848 271 
Q 434 634 434 1313 
Q 434 1759 690 2068 
Q 947 2378 1403 2484 
z
M 1172 3481 
Q 1172 3119 1398 2916 
Q 1625 2713 2034 2713 
Q 2441 2713 2670 2916 
Q 2900 3119 2900 3481 
Q 2900 3844 2670 4047 
Q 2441 4250 2034 4250 
Q 1625 4250 1398 4047 
Q 1172 3844 1172 3481 
z
" transform="scale(0.015625)"/>
       </defs>
       <use xlink:href="#DejaVuSans-30"/>
       <use xlink:href="#DejaVuSans-2e" x="63.623047"/>
       <use xlink:href="#DejaVuSans-38" x="95.410156"/>
      </g>
     </g>
    </g>
    <g id="xtick_6">
     <g id="line2d_6">
      <g>
       <use xlink:href="#mbb52f6d434" x="391.031023" y="273.312" style="stroke: #000000; stroke-width: 0.8"/>
      </g>
     </g>
     <g id="text_6">
      <!-- 1.0 -->
      <g transform="translate(383.07946 287.910437)scale(0.1 -0.1)">
       <defs>
        <path id="DejaVuSans-31" d="M 794 531 
L 1825 531 
L 1825 4091 
L 703 3866 
L 703 4441 
L 1819 4666 
L 2450 4666 
L 2450 531 
L 3481 531 
L 3481 0 
L 794 0 
L 794 531 
z
" transform="scale(0.015625)"/>
       </defs>
       <use xlink:href="#DejaVuSans-31"/>
       <use xlink:href="#DejaVuSans-2e" x="63.623047"/>
       <use xlink:href="#DejaVuSans-30" x="95.410156"/>
      </g>
     </g>
    </g>
    <g id="text_7">
     <!-- Propagation direction -->
     <g transform="translate(175.221719 301.588562)scale(0.1 -0.1)">
      <defs>
       <path id="DejaVuSans-50" d="M 1259 4147 
L 1259 2394 
L 2053 2394 
Q 2494 2394 2734 2622 
Q 2975 2850 2975 3272 
Q 2975 3691 2734 3919 
Q 2494 4147 2053 4147 
L 1259 4147 
z
M 628 4666 
L 2053 4666 
Q 2838 4666 3239 4311 
Q 3641 3956 3641 3272 
Q 3641 2581 3239 2228 
Q 2838 1875 2053 1875 
L 1259 1875 
L 1259 0 
L 628 0 
L 628 4666 
z
" transform="scale(0.015625)"/>
       <path id="DejaVuSans-72" d="M 2631 2963 
Q 2534 3019 2420 3045 
Q 2306 3072 2169 3072 
Q 1681 3072 1420 2755 
Q 1159 2438 1159 1844 
L 1159 0 
L 581 0 
L 581 3500 
L 1159 3500 
L 1159 2956 
Q 1341 3275 1631 3429 
Q 1922 3584 2338 3584 
Q 2397 3584 2469 3576 
Q 2541 3569 2628 3553 
L 2631 2963 
z
" transform="scale(0.015625)"/>
       <path id="DejaVuSans-6f" d="M 1959 3097 
Q 1497 3097 1228 2736 
Q 959 2375 959 1747 
Q 959 1119 1226 758 
Q 1494 397 1959 397 
Q 2419 397 2687 759 
Q 2956 1122 2956 1747 
Q 2956 2369 2687 2733 
Q 2419 3097 1959 3097 
z
M 1959 3584 
Q 2709 3584 3137 3096 
Q 3566 2609 3566 1747 
Q 3566 888 3137 398 
Q 2709 -91 1959 -91 
Q 1206 -91 779 398 
Q 353 888 353 1747 
Q 353 2609 779 3096 
Q 1206 3584 1959 3584 
z
" transform="scale(0.015625)"/>
       <path id="DejaVuSans-70" d="M 1159 525 
L 1159 -1331 
L 581 -1331 
L 581 3500 
L 1159 3500 
L 1159 2969 
Q 1341 3281 1617 3432 
Q 1894 3584 2278 3584 
Q 2916 3584 3314 3078 
Q 3713 2572 3713 1747 
Q 3713 922 3314 415 
Q 2916 -91 2278 -91 
Q 1894 -91 1617 61 
Q 1341 213 1159 525 
z
M 3116 1747 
Q 3116 2381 2855 2742 
Q 2594 3103 2138 3103 
Q 1681 3103 1420 2742 
Q 1159 2381 1159 1747 
Q 1159 1113 1420 752 
Q 1681 391 2138 391 
Q 2594 391 2855 752 
Q 3116 1113 3116 1747 
z
" transform="scale(0.015625)"/>
       <path id="DejaVuSans-61" d="M 2194 1759 
Q 1497 1759 1228 1600 
Q 959 1441 959 1056 
Q 959 750 1161 570 
Q 1363 391 1709 391 
Q 2188 391 2477 730 
Q 2766 1069 2766 1631 
L 2766 1759 
L 2194 1759 
z
M 3341 1997 
L 3341 0 
L 2766 0 
L 2766 531 
Q 2569 213 2275 61 
Q 1981 -91 1556 -91 
Q 1019 -91 701 211 
Q 384 513 384 1019 
Q 384 1609 779 1909 
Q 1175 2209 1959 2209 
L 2766 2209 
L 2766 2266 
Q 2766 2663 2505 2880 
Q 2244 3097 1772 3097 
Q 1472 3097 1187 3025 
Q 903 2953 641 2809 
L 641 3341 
Q 956 3463 1253 3523 
Q 1550 3584 1831 3584 
Q 2591 3584 2966 3190 
Q 3341 2797 3341 1997 
z
" transform="scale(0.015625)"/>
       <path id="DejaVuSans-67" d="M 2906 1791 
Q 2906 2416 2648 2759 
Q 2391 3103 1925 3103 
Q 1463 3103 1205 2759 
Q 947 2416 947 1791 
Q 947 1169 1205 825 
Q 1463 481 1925 481 
Q 2391 481 2648 825 
Q 2906 1169 2906 1791 
z
M 3481 434 
Q 3481 -459 3084 -895 
Q 2688 -1331 1869 -1331 
Q 1566 -1331 1297 -1286 
Q 1028 -1241 775 -1147 
L 775 -588 
Q 1028 -725 1275 -790 
Q 1522 -856 1778 -856 
Q 2344 -856 2625 -561 
Q 2906 -266 2906 331 
L 2906 616 
Q 2728 306 2450 153 
Q 2172 0 1784 0 
Q 1141 0 747 490 
Q 353 981 353 1791 
Q 353 2603 747 3093 
Q 1141 3584 1784 3584 
Q 2172 3584 2450 3431 
Q 2728 3278 2906 2969 
L 2906 3500 
L 3481 3500 
L 3481 434 
z
" transform="scale(0.015625)"/>
       <path id="DejaVuSans-74" d="M 1172 4494 
L 1172 3500 
L 2356 3500 
L 2356 3053 
L 1172 3053 
L 1172 1153 
Q 1172 725 1289 603 
Q 1406 481 1766 481 
L 2356 481 
L 2356 0 
L 1766 0 
Q 1100 0 847 248 
Q 594 497 594 1153 
L 594 3053 
L 172 3053 
L 172 3500 
L 594 3500 
L 594 4494 
L 1172 4494 
z
" transform="scale(0.015625)"/>
       <path id="DejaVuSans-69" d="M 603 3500 
L 1178 3500 
L 1178 0 
L 603 0 
L 603 3500 
z
M 603 4863 
L 1178 4863 
L 1178 4134 
L 603 4134 
L 603 4863 
z
" transform="scale(0.015625)"/>
       <path id="DejaVuSans-6e" d="M 3513 2113 
L 3513 0 
L 2938 0 
L 2938 2094 
Q 2938 2591 2744 2837 
Q 2550 3084 2163 3084 
Q 1697 3084 1428 2787 
Q 1159 2491 1159 1978 
L 1159 0 
L 581 0 
L 581 3500 
L 1159 3500 
L 1159 2956 
Q 1366 3272 1645 3428 
Q 1925 3584 2291 3584 
Q 2894 3584 3203 3211 
Q 3513 2838 3513 2113 
z
" transform="scale(0.015625)"/>
       <path id="DejaVuSans-20" transform="scale(0.015625)"/>
       <path id="DejaVuSans-64" d="M 2906 2969 
L 2906 4863 
L 3481 4863 
L 3481 0 
L 2906 0 
L 2906 525 
Q 2725 213 2448 61 
Q 2172 -91 1784 -91 
Q 1150 -91 751 415 
Q 353 922 353 1747 
Q 353 2572 751 3078 
Q 1150 3584 1784 3584 
Q 2172 3584 2448 3432 
Q 2725 3281 2906 2969 
z
M 947 1747 
Q 947 1113 1208 752 
Q 1469 391 1925 391 
Q 2381 391 2643 752 
Q 2906 1113 2906 1747 
Q 2906 2381 2643 2742 
Q 2381 3103 1925 3103 
Q 1469 3103 1208 2742 
Q 947 2381 947 1747 
z
" transform="scale(0.015625)"/>
       <path id="DejaVuSans-65" d="M 3597 1894 
L 3597 1613 
L 953 1613 
Q 991 1019 1311 708 
Q 1631 397 2203 397 
Q 2534 397 2845 478 
Q 3156 559 3463 722 
L 3463 178 
Q 3153 47 2828 -22 
Q 2503 -91 2169 -91 
Q 1331 -91 842 396 
Q 353 884 353 1716 
Q 353 2575 817 3079 
Q 1281 3584 2069 3584 
Q 2775 3584 3186 3129 
Q 3597 2675 3597 1894 
z
M 3022 2063 
Q 3016 2534 2758 2815 
Q 2500 3097 2075 3097 
Q 1594 3097 1305 2825 
Q 1016 2553 972 2059 
L 3022 2063 
z
" transform="scale(0.015625)"/>
       <path id="DejaVuSans-63" d="M 3122 3366 
L 3122 2828 
Q 2878 2963 2633 3030 
Q 2388 3097 2138 3097 
Q 1578 3097 1268 2742 
Q 959 2388 959 1747 
Q 959 1106 1268 751 
Q 1578 397 2138 397 
Q 2388 397 2633 464 
Q 2878 531 3122 666 
L 3122 134 
Q 2881 22 2623 -34 
Q 2366 -91 2075 -91 
Q 1284 -91 818 406 
Q 353 903 353 1747 
Q 353 2603 823 3093 
Q 1294 3584 2113 3584 
Q 2378 3584 2631 3529 
Q 2884 3475 3122 3366 
z
" transform="scale(0.015625)"/>
      </defs>
      <use xlink:href="#DejaVuSans-50"/>
      <use xlink:href="#DejaVuSans-72" x="58.552734"/>
      <use xlink:href="#DejaVuSans-6f" x="97.416016"/>
      <use xlink:href="#DejaVuSans-70" x="158.597656"/>
      <use xlink:href="#DejaVuSans-61" x="222.074219"/>
      <use xlink:href="#DejaVuSans-67" x="283.353516"/>
      <use xlink:href="#DejaVuSans-61" x="346.830078"/>
      <use xlink:href="#DejaVuSans-74" x="408.109375"/>
      <use xlink:href="#DejaVuSans-69" x="447.318359"/>
      <use xlink:href="#DejaVuSans-6f" x="475.101562"/>
      <use xlink:href="#DejaVuSans-6e" x="536.283203"/>
      <use xlink:href="#DejaVuSans-20" x="599.662109"/>
      <use xlink:href="#DejaVuSans-64" x="631.449219"/>
      <use xlink:href="#DejaVuSans-69" x="694.925781"/>
      <use xlink:href="#DejaVuSans-72" x="722.708984"/>
      <use xlink:href="#DejaVuSans-65" x="761.572266"/>
      <use xlink:href="#DejaVuSans-63" x="823.095703"/>
      <use xlink:href="#DejaVuSans-74" x="878.076172"/>
      <use xlink:href="#DejaVuSans-69" x="917.285156"/>
      <use xlink:href="#DejaVuSans-6f" x="945.068359"/>
      <use xlink:href="#DejaVuSans-6e" x="1006.25"/>
     </g>
    </g>
   </g>
   <g id="matplotlib.axis_2">
    <g id="ytick_1">
     <g id="line2d_7">
      <defs>
       <path id="m961e6f8f8f" d="M 0 0 
L -3.5 0 
" style="stroke: #000000; stroke-width: 0.8"/>
      </defs>
      <g>
       <use xlink:href="#m961e6f8f8f" x="50.14375" y="273.312" style="stroke: #000000; stroke-width: 0.8"/>
      </g>
     </g>
     <g id="text_8">
      <!-- 0.00 -->
      <g transform="translate(20.878125 277.111219)scale(0.1 -0.1)">
       <use xlink:href="#DejaVuSans-30"/>
       <use xlink:href="#DejaVuSans-2e" x="63.623047"/>
       <use xlink:href="#DejaVuSans-30" x="95.410156"/>
       <use xlink:href="#DejaVuSans-30" x="159.033203"/>
      </g>
     </g>
    </g>
    <g id="ytick_2">
     <g id="line2d_8">
      <g>
       <use xlink:href="#m961e6f8f8f" x="50.14375" y="243.668324" style="stroke: #000000; stroke-width: 0.8"/>
      </g>
     </g>
     <g id="text_9">
      <!-- 0.25 -->
      <g transform="translate(20.878125 247.467543)scale(0.1 -0.1)">
       <defs>
        <path id="DejaVuSans-35" d="M 691 4666 
L 3169 4666 
L 3169 4134 
L 1269 4134 
L 1269 2991 
Q 1406 3038 1543 3061 
Q 1681 3084 1819 3084 
Q 2600 3084 3056 2656 
Q 3513 2228 3513 1497 
Q 3513 744 3044 326 
Q 2575 -91 1722 -91 
Q 1428 -91 1123 -41 
Q 819 9 494 109 
L 494 744 
Q 775 591 1075 516 
Q 1375 441 1709 441 
Q 2250 441 2565 725 
Q 2881 1009 2881 1497 
Q 2881 1984 2565 2268 
Q 2250 2553 1709 2553 
Q 1456 2553 1204 2497 
Q 953 2441 691 2322 
L 691 4666 
z
" transform="scale(0.015625)"/>
       </defs>
       <use xlink:href="#DejaVuSans-30"/>
       <use xlink:href="#DejaVuSans-2e" x="63.623047"/>
       <use xlink:href="#DejaVuSans-32" x="95.410156"/>
       <use xlink:href="#DejaVuSans-35" x="159.033203"/>
      </g>
     </g>
    </g>
    <g id="ytick_3">
     <g id="line2d_9">
      <g>
       <use xlink:href="#m961e6f8f8f" x="50.14375" y="214.024648" style="stroke: #000000; stroke-width: 0.8"/>
      </g>
     </g>
     <g id="text_10">
      <!-- 0.50 -->
      <g transform="translate(20.878125 217.823867)scale(0.1 -0.1)">
       <use xlink:href="#DejaVuSans-30"/>
       <use xlink:href="#DejaVuSans-2e" x="63.623047"/>
       <use xlink:href="#DejaVuSans-35" x="95.410156"/>
       <use xlink:href="#DejaVuSans-30" x="159.033203"/>
      </g>
     </g>
    </g>
    <g id="ytick_4">
     <g id="line2d_10">
      <g>
       <use xlink:href="#m961e6f8f8f" x="50.14375" y="184.380972" style="stroke: #000000; stroke-width: 0.8"/>
      </g>
     </g>
     <g id="text_11">
      <!-- 0.75 -->
      <g transform="translate(20.878125 188.180191)scale(0.1 -0.1)">
       <defs>
        <path id="DejaVuSans-37" d="M 525 4666 
L 3525 4666 
L 3525 4397 
L 1831 0 
L 1172 0 
L 2766 4134 
L 525 4134 
L 525 4666 
z
" transform="scale(0.015625)"/>
       </defs>
       <use xlink:href="#DejaVuSans-30"/>
       <use xlink:href="#DejaVuSans-2e" x="63.623047"/>
       <use xlink:href="#DejaVuSans-37" x="95.410156"/>
       <use xlink:href="#DejaVuSans-35" x="159.033203"/>
      </g>
     </g>
    </g>
    <g id="ytick_5">
     <g id="line2d_11">
      <g>
       <use xlink:href="#m961e6f8f8f" x="50.14375" y="154.737296" style="stroke: #000000; stroke-width: 0.8"/>
      </g>
     </g>
     <g id="text_12">
      <!-- 1.00 -->
      <g transform="translate(20.878125 158.536515)scale(0.1 -0.1)">
       <use xlink:href="#DejaVuSans-31"/>
       <use xlink:href="#DejaVuSans-2e" x="63.623047"/>
       <use xlink:href="#DejaVuSans-30" x="95.410156"/>
       <use xlink:href="#DejaVuSans-30" x="159.033203"/>
      </g>
     </g>
    </g>
    <g id="ytick_6">
     <g id="line2d_12">
      <g>
       <use xlink:href="#m961e6f8f8f" x="50.14375" y="125.09362" style="stroke: #000000; stroke-width: 0.8"/>
      </g>
     </g>
     <g id="text_13">
      <!-- 1.25 -->
      <g transform="translate(20.878125 128.892839)scale(0.1 -0.1)">
       <use xlink:href="#DejaVuSans-31"/>
       <use xlink:href="#DejaVuSans-2e" x="63.623047"/>
       <use xlink:href="#DejaVuSans-32" x="95.410156"/>
       <use xlink:href="#DejaVuSans-35" x="159.033203"/>
      </g>
     </g>
    </g>
    <g id="ytick_7">
     <g id="line2d_13">
      <g>
       <use xlink:href="#m961e6f8f8f" x="50.14375" y="95.449944" style="stroke: #000000; stroke-width: 0.8"/>
      </g>
     </g>
     <g id="text_14">
      <!-- 1.50 -->
      <g transform="translate(20.878125 99.249163)scale(0.1 -0.1)">
       <use xlink:href="#DejaVuSans-31"/>
       <use xlink:href="#DejaVuSans-2e" x="63.623047"/>
       <use xlink:href="#DejaVuSans-35" x="95.410156"/>
       <use xlink:href="#DejaVuSans-30" x="159.033203"/>
      </g>
     </g>
    </g>
    <g id="ytick_8">
     <g id="line2d_14">
      <g>
       <use xlink:href="#m961e6f8f8f" x="50.14375" y="65.806268" style="stroke: #000000; stroke-width: 0.8"/>
      </g>
     </g>
     <g id="text_15">
      <!-- 1.75 -->
      <g transform="translate(20.878125 69.605487)scale(0.1 -0.1)">
       <use xlink:href="#DejaVuSans-31"/>
       <use xlink:href="#DejaVuSans-2e" x="63.623047"/>
       <use xlink:href="#DejaVuSans-37" x="95.410156"/>
       <use xlink:href="#DejaVuSans-35" x="159.033203"/>
      </g>
     </g>
    </g>
    <g id="ytick_9">
     <g id="line2d_15">
      <g>
       <use xlink:href="#m961e6f8f8f" x="50.14375" y="36.162592" style="stroke: #000000; stroke-width: 0.8"/>
      </g>
     </g>
     <g id="text_16">
      <!-- 2.00 -->
      <g transform="translate(20.878125 39.96181)scale(0.1 -0.1)">
       <use xlink:href="#DejaVuSans-32"/>
       <use xlink:href="#DejaVuSans-2e" x="63.623047"/>
       <use xlink:href="#DejaVuSans-30" x="95.410156"/>
       <use xlink:href="#DejaVuSans-30" x="159.033203"/>
      </g>
     </g>
    </g>
    <g id="text_17">
     <!-- Probability density -->
     <g transform="translate(14.798438 186.606781)rotate(-90)scale(0.1 -0.1)">
      <defs>
       <path id="DejaVuSans-62" d="M 3116 1747 
Q 3116 2381 2855 2742 
Q 2594 3103 2138 3103 
Q 1681 3103 1420 2742 
Q 1159 2381 1159 1747 
Q 1159 1113 1420 752 
Q 1681 391 2138 391 
Q 2594 391 2855 752 
Q 3116 1113 3116 1747 
z
M 1159 2969 
Q 1341 3281 1617 3432 
Q 1894 3584 2278 3584 
Q 2916 3584 3314 3078 
Q 3713 2572 3713 1747 
Q 3713 922 3314 415 
Q 2916 -91 2278 -91 
Q 1894 -91 1617 61 
Q 1341 213 1159 525 
L 1159 0 
L 581 0 
L 581 4863 
L 1159 4863 
L 1159 2969 
z
" transform="scale(0.015625)"/>
       <path id="DejaVuSans-6c" d="M 603 4863 
L 1178 4863 
L 1178 0 
L 603 0 
L 603 4863 
z
" transform="scale(0.015625)"/>
       <path id="DejaVuSans-79" d="M 2059 -325 
Q 1816 -950 1584 -1140 
Q 1353 -1331 966 -1331 
L 506 -1331 
L 506 -850 
L 844 -850 
Q 1081 -850 1212 -737 
Q 1344 -625 1503 -206 
L 1606 56 
L 191 3500 
L 800 3500 
L 1894 763 
L 2988 3500 
L 3597 3500 
L 2059 -325 
z
" transform="scale(0.015625)"/>
       <path id="DejaVuSans-73" d="M 2834 3397 
L 2834 2853 
Q 2591 2978 2328 3040 
Q 2066 3103 1784 3103 
Q 1356 3103 1142 2972 
Q 928 2841 928 2578 
Q 928 2378 1081 2264 
Q 1234 2150 1697 2047 
L 1894 2003 
Q 2506 1872 2764 1633 
Q 3022 1394 3022 966 
Q 3022 478 2636 193 
Q 2250 -91 1575 -91 
Q 1294 -91 989 -36 
Q 684 19 347 128 
L 347 722 
Q 666 556 975 473 
Q 1284 391 1588 391 
Q 1994 391 2212 530 
Q 2431 669 2431 922 
Q 2431 1156 2273 1281 
Q 2116 1406 1581 1522 
L 1381 1569 
Q 847 1681 609 1914 
Q 372 2147 372 2553 
Q 372 3047 722 3315 
Q 1072 3584 1716 3584 
Q 2034 3584 2315 3537 
Q 2597 3491 2834 3397 
z
" transform="scale(0.015625)"/>
      </defs>
      <use xlink:href="#DejaVuSans-50"/>
      <use xlink:href="#DejaVuSans-72" x="58.552734"/>
      <use xlink:href="#DejaVuSans-6f" x="97.416016"/>
      <use xlink:href="#DejaVuSans-62" x="158.597656"/>
      <use xlink:href="#DejaVuSans-61" x="222.074219"/>
      <use xlink:href="#DejaVuSans-62" x="283.353516"/>
      <use xlink:href="#DejaVuSans-69" x="346.830078"/>
      <use xlink:href="#DejaVuSans-6c" x="374.613281"/>
      <use xlink:href="#DejaVuSans-69" x="402.396484"/>
      <use xlink:href="#DejaVuSans-74" x="430.179688"/>
      <use xlink:href="#DejaVuSans-79" x="469.388672"/>
      <use xlink:href="#DejaVuSans-20" x="528.568359"/>
      <use xlink:href="#DejaVuSans-64" x="560.355469"/>
      <use xlink:href="#DejaVuSans-65" x="623.832031"/>
      <use xlink:href="#DejaVuSans-6e" x="685.355469"/>
      <use xlink:href="#DejaVuSans-73" x="748.734375"/>
      <use xlink:href="#DejaVuSans-69" x="800.833984"/>
      <use xlink:href="#DejaVuSans-74" x="828.617188"/>
      <use xlink:href="#DejaVuSans-79" x="867.826172"/>
     </g>
    </g>
   </g>
   <g id="line2d_16">
    <path d="M 66.376477 273.312 
L 391.031023 36.162592 
L 391.031023 36.162592 
" clip-path="url(#pfb66f650de)" style="fill: none; stroke: #ff7f0e; stroke-width: 1.5; stroke-linecap: square"/>
   </g>
   <g id="patch_203">
    <path d="M 50.14375 273.312 
L 50.14375 7.2 
" style="fill: none; stroke: #000000; stroke-width: 0.8; stroke-linejoin: miter; stroke-linecap: square"/>
   </g>
   <g id="patch_204">
    <path d="M 407.26375 273.312 
L 407.26375 7.2 
" style="fill: none; stroke: #000000; stroke-width: 0.8; stroke-linejoin: miter; stroke-linecap: square"/>
   </g>
   <g id="patch_205">
    <path d="M 50.14375 273.312 
L 407.26375 273.312 
" style="fill: none; stroke: #000000; stroke-width: 0.8; stroke-linejoin: miter; stroke-linecap: square"/>
   </g>
   <g id="patch_206">
    <path d="M 50.14375 7.2 
L 407.26375 7.2 
" style="fill: none; stroke: #000000; stroke-width: 0.8; stroke-linejoin: miter; stroke-linecap: square"/>
   </g>
  </g>
 </g>
 <defs>
  <clipPath id="pfb66f650de">
   <rect x="50.14375" y="7.2" width="357.12" height="266.112"/>
  </clipPath>
 </defs>
</svg>
