<?xml version="1.0" encoding="utf-8" standalone="no"?>
<!DOCTYPE svg PUBLIC "-//W3C//DTD SVG 1.1//EN"
  "http://www.w3.org/Graphics/SVG/1.1/DTD/svg11.dtd">
<svg xmlns:xlink="http://www.w3.org/1999/xlink" width="385.78125pt" height="262.19625pt" viewBox="0 0 385.78125 262.19625" xmlns="http://www.w3.org/2000/svg" version="1.1">
 <metadata>
  <rdf:RDF xmlns:dc="http://purl.org/dc/elements/1.1/" xmlns:cc="http://creativecommons.org/ns#" xmlns:rdf="http://www.w3.org/1999/02/22-rdf-syntax-ns#">
   <cc:Work>
    <dc:type rdf:resource="http://purl.org/dc/dcmitype/StillImage"/>
    <dc:date>2022-08-11T14:28:54.465242</dc:date>
    <dc:format>image/svg+xml</dc:format>
    <dc:creator>
     <cc:Agent>
      <dc:title>Matplotlib v3.5.2, https://matplotlib.org/</dc:title>
     </cc:Agent>
    </dc:creator>
   </cc:Work>
  </rdf:RDF>
 </metadata>
 <defs>
  <style type="text/css">*{stroke-linejoin: round; stroke-linecap: butt}</style>
 </defs>
 <g id="figure_1">
  <g id="patch_1">
   <path d="M 0 262.19625 
L 385.78125 262.19625 
L 385.78125 0 
L 0 0 
L 0 262.19625 
z
" style="fill: none"/>
  </g>
  <g id="axes_1">
   <g id="patch_2">
    <path d="M 43.78125 224.64 
L 378.58125 224.64 
L 378.58125 7.2 
L 43.78125 7.2 
z
" style="fill: #ffffff"/>
   </g>
   <g id="patch_3">
    <path d="M 59.345289 224.64 
L 60.8591 224.64 
L 60.8591 222.182009 
L 59.345289 222.182009 
z
" clip-path="url(#p527bbb236d)" style="fill: #1f77b4"/>
   </g>
   <g id="patch_4">
    <path d="M 60.8591 224.64 
L 62.372912 224.64 
L 62.372912 219.109521 
L 60.8591 219.109521 
z
" clip-path="url(#p527bbb236d)" style="fill: #1f77b4"/>
   </g>
   <g id="patch_5">
    <path d="M 62.372912 224.64 
L 63.886724 224.64 
L 63.886724 218.495023 
L 62.372912 218.495023 
z
" clip-path="url(#p527bbb236d)" style="fill: #1f77b4"/>
   </g>
   <g id="patch_6">
    <path d="M 63.886724 224.64 
L 65.400535 224.64 
L 65.400535 214.808037 
L 63.886724 214.808037 
z
" clip-path="url(#p527bbb236d)" style="fill: #1f77b4"/>
   </g>
   <g id="patch_7">
    <path d="M 65.400535 224.64 
L 66.914347 224.64 
L 66.914347 211.121051 
L 65.400535 211.121051 
z
" clip-path="url(#p527bbb236d)" style="fill: #1f77b4"/>
   </g>
   <g id="patch_8">
    <path d="M 66.914347 224.64 
L 68.428159 224.64 
L 68.428159 204.976075 
L 66.914347 204.976075 
z
" clip-path="url(#p527bbb236d)" style="fill: #1f77b4"/>
   </g>
   <g id="patch_9">
    <path d="M 68.428159 224.64 
L 69.94197 224.64 
L 69.94197 206.20507 
L 68.428159 206.20507 
z
" clip-path="url(#p527bbb236d)" style="fill: #1f77b4"/>
   </g>
   <g id="patch_10">
    <path d="M 69.94197 224.64 
L 71.455782 224.64 
L 71.455782 198.831098 
L 69.94197 198.831098 
z
" clip-path="url(#p527bbb236d)" style="fill: #1f77b4"/>
   </g>
   <g id="patch_11">
    <path d="M 71.455782 224.64 
L 72.969594 224.64 
L 72.969594 193.300619 
L 71.455782 193.300619 
z
" clip-path="url(#p527bbb236d)" style="fill: #1f77b4"/>
   </g>
   <g id="patch_12">
    <path d="M 72.969594 224.64 
L 74.483405 224.64 
L 74.483405 201.289089 
L 72.969594 201.289089 
z
" clip-path="url(#p527bbb236d)" style="fill: #1f77b4"/>
   </g>
   <g id="patch_13">
    <path d="M 74.483405 224.64 
L 75.997217 224.64 
L 75.997217 196.987605 
L 74.483405 196.987605 
z
" clip-path="url(#p527bbb236d)" style="fill: #1f77b4"/>
   </g>
   <g id="patch_14">
    <path d="M 75.997217 224.64 
L 77.511029 224.64 
L 77.511029 193.915117 
L 75.997217 193.915117 
z
" clip-path="url(#p527bbb236d)" style="fill: #1f77b4"/>
   </g>
   <g id="patch_15">
    <path d="M 77.511029 224.64 
L 79.02484 224.64 
L 79.02484 188.999135 
L 77.511029 188.999135 
z
" clip-path="url(#p527bbb236d)" style="fill: #1f77b4"/>
   </g>
   <g id="patch_16">
    <path d="M 79.02484 224.64 
L 80.538652 224.64 
L 80.538652 183.468656 
L 79.02484 183.468656 
z
" clip-path="url(#p527bbb236d)" style="fill: #1f77b4"/>
   </g>
   <g id="patch_17">
    <path d="M 80.538652 224.64 
L 82.052464 224.64 
L 82.052464 184.697652 
L 80.538652 184.697652 
z
" clip-path="url(#p527bbb236d)" style="fill: #1f77b4"/>
   </g>
   <g id="patch_18">
    <path d="M 82.052464 224.64 
L 83.566275 224.64 
L 83.566275 182.854159 
L 82.052464 182.854159 
z
" clip-path="url(#p527bbb236d)" style="fill: #1f77b4"/>
   </g>
   <g id="patch_19">
    <path d="M 83.566275 224.64 
L 85.080087 224.64 
L 85.080087 167.491717 
L 83.566275 167.491717 
z
" clip-path="url(#p527bbb236d)" style="fill: #1f77b4"/>
   </g>
   <g id="patch_20">
    <path d="M 85.080087 224.64 
L 86.593899 224.64 
L 86.593899 178.552675 
L 85.080087 178.552675 
z
" clip-path="url(#p527bbb236d)" style="fill: #1f77b4"/>
   </g>
   <g id="patch_21">
    <path d="M 86.593899 224.64 
L 88.10771 224.64 
L 88.10771 167.491717 
L 86.593899 167.491717 
z
" clip-path="url(#p527bbb236d)" style="fill: #1f77b4"/>
   </g>
   <g id="patch_22">
    <path d="M 88.10771 224.64 
L 89.621522 224.64 
L 89.621522 165.648224 
L 88.10771 165.648224 
z
" clip-path="url(#p527bbb236d)" style="fill: #1f77b4"/>
   </g>
   <g id="patch_23">
    <path d="M 89.621522 224.64 
L 91.135334 224.64 
L 91.135334 157.659754 
L 89.621522 157.659754 
z
" clip-path="url(#p527bbb236d)" style="fill: #1f77b4"/>
   </g>
   <g id="patch_24">
    <path d="M 91.135334 224.64 
L 92.649145 224.64 
L 92.649145 165.648224 
L 91.135334 165.648224 
z
" clip-path="url(#p527bbb236d)" style="fill: #1f77b4"/>
   </g>
   <g id="patch_25">
    <path d="M 92.649145 224.64 
L 94.162957 224.64 
L 94.162957 159.503247 
L 92.649145 159.503247 
z
" clip-path="url(#p527bbb236d)" style="fill: #1f77b4"/>
   </g>
   <g id="patch_26">
    <path d="M 94.162957 224.64 
L 95.676768 224.64 
L 95.676768 155.816261 
L 94.162957 155.816261 
z
" clip-path="url(#p527bbb236d)" style="fill: #1f77b4"/>
   </g>
   <g id="patch_27">
    <path d="M 95.676768 224.64 
L 97.19058 224.64 
L 97.19058 153.972768 
L 95.676768 153.972768 
z
" clip-path="url(#p527bbb236d)" style="fill: #1f77b4"/>
   </g>
   <g id="patch_28">
    <path d="M 97.19058 224.64 
L 98.704392 224.64 
L 98.704392 155.816261 
L 97.19058 155.816261 
z
" clip-path="url(#p527bbb236d)" style="fill: #1f77b4"/>
   </g>
   <g id="patch_29">
    <path d="M 98.704392 224.64 
L 100.218203 224.64 
L 100.218203 146.598796 
L 98.704392 146.598796 
z
" clip-path="url(#p527bbb236d)" style="fill: #1f77b4"/>
   </g>
   <g id="patch_30">
    <path d="M 100.218203 224.64 
L 101.732015 224.64 
L 101.732015 138.610326 
L 100.218203 138.610326 
z
" clip-path="url(#p527bbb236d)" style="fill: #1f77b4"/>
   </g>
   <g id="patch_31">
    <path d="M 101.732015 224.64 
L 103.245827 224.64 
L 103.245827 139.839322 
L 101.732015 139.839322 
z
" clip-path="url(#p527bbb236d)" style="fill: #1f77b4"/>
   </g>
   <g id="patch_32">
    <path d="M 103.245827 224.64 
L 104.759638 224.64 
L 104.759638 145.369801 
L 103.245827 145.369801 
z
" clip-path="url(#p527bbb236d)" style="fill: #1f77b4"/>
   </g>
   <g id="patch_33">
    <path d="M 104.759638 224.64 
L 106.27345 224.64 
L 106.27345 137.381331 
L 104.759638 137.381331 
z
" clip-path="url(#p527bbb236d)" style="fill: #1f77b4"/>
   </g>
   <g id="patch_34">
    <path d="M 106.27345 224.64 
L 107.787262 224.64 
L 107.787262 136.152336 
L 106.27345 136.152336 
z
" clip-path="url(#p527bbb236d)" style="fill: #1f77b4"/>
   </g>
   <g id="patch_35">
    <path d="M 107.787262 224.64 
L 109.301073 224.64 
L 109.301073 137.381331 
L 107.787262 137.381331 
z
" clip-path="url(#p527bbb236d)" style="fill: #1f77b4"/>
   </g>
   <g id="patch_36">
    <path d="M 109.301073 224.64 
L 110.814885 224.64 
L 110.814885 139.224824 
L 109.301073 139.224824 
z
" clip-path="url(#p527bbb236d)" style="fill: #1f77b4"/>
   </g>
   <g id="patch_37">
    <path d="M 110.814885 224.64 
L 112.328697 224.64 
L 112.328697 112.801424 
L 110.814885 112.801424 
z
" clip-path="url(#p527bbb236d)" style="fill: #1f77b4"/>
   </g>
   <g id="patch_38">
    <path d="M 112.328697 224.64 
L 113.842508 224.64 
L 113.842508 123.247885 
L 112.328697 123.247885 
z
" clip-path="url(#p527bbb236d)" style="fill: #1f77b4"/>
   </g>
   <g id="patch_39">
    <path d="M 113.842508 224.64 
L 115.35632 224.64 
L 115.35632 119.560899 
L 113.842508 119.560899 
z
" clip-path="url(#p527bbb236d)" style="fill: #1f77b4"/>
   </g>
   <g id="patch_40">
    <path d="M 115.35632 224.64 
L 116.870132 224.64 
L 116.870132 98.667978 
L 115.35632 98.667978 
z
" clip-path="url(#p527bbb236d)" style="fill: #1f77b4"/>
   </g>
   <g id="patch_41">
    <path d="M 116.870132 224.64 
L 118.383943 224.64 
L 118.383943 120.789894 
L 116.870132 120.789894 
z
" clip-path="url(#p527bbb236d)" style="fill: #1f77b4"/>
   </g>
   <g id="patch_42">
    <path d="M 118.383943 224.64 
L 119.897755 224.64 
L 119.897755 101.740466 
L 118.383943 101.740466 
z
" clip-path="url(#p527bbb236d)" style="fill: #1f77b4"/>
   </g>
   <g id="patch_43">
    <path d="M 119.897755 224.64 
L 121.411567 224.64 
L 121.411567 112.801424 
L 119.897755 112.801424 
z
" clip-path="url(#p527bbb236d)" style="fill: #1f77b4"/>
   </g>
   <g id="patch_44">
    <path d="M 121.411567 224.64 
L 122.925378 224.64 
L 122.925378 113.415922 
L 121.411567 113.415922 
z
" clip-path="url(#p527bbb236d)" style="fill: #1f77b4"/>
   </g>
   <g id="patch_45">
    <path d="M 122.925378 224.64 
L 124.43919 224.64 
L 124.43919 102.354964 
L 122.925378 102.354964 
z
" clip-path="url(#p527bbb236d)" style="fill: #1f77b4"/>
   </g>
   <g id="patch_46">
    <path d="M 124.43919 224.64 
L 125.953002 224.64 
L 125.953002 97.438983 
L 124.43919 97.438983 
z
" clip-path="url(#p527bbb236d)" style="fill: #1f77b4"/>
   </g>
   <g id="patch_47">
    <path d="M 125.953002 224.64 
L 127.466813 224.64 
L 127.466813 113.415922 
L 125.953002 113.415922 
z
" clip-path="url(#p527bbb236d)" style="fill: #1f77b4"/>
   </g>
   <g id="patch_48">
    <path d="M 127.466813 224.64 
L 128.980625 224.64 
L 128.980625 102.354964 
L 127.466813 102.354964 
z
" clip-path="url(#p527bbb236d)" style="fill: #1f77b4"/>
   </g>
   <g id="patch_49">
    <path d="M 128.980625 224.64 
L 130.494437 224.64 
L 130.494437 83.305536 
L 128.980625 83.305536 
z
" clip-path="url(#p527bbb236d)" style="fill: #1f77b4"/>
   </g>
   <g id="patch_50">
    <path d="M 130.494437 224.64 
L 132.008248 224.64 
L 132.008248 99.896973 
L 130.494437 99.896973 
z
" clip-path="url(#p527bbb236d)" style="fill: #1f77b4"/>
   </g>
   <g id="patch_51">
    <path d="M 132.008248 224.64 
L 133.52206 224.64 
L 133.52206 106.04195 
L 132.008248 106.04195 
z
" clip-path="url(#p527bbb236d)" style="fill: #1f77b4"/>
   </g>
   <g id="patch_52">
    <path d="M 133.52206 224.64 
L 135.035872 224.64 
L 135.035872 77.775057 
L 133.52206 77.775057 
z
" clip-path="url(#p527bbb236d)" style="fill: #1f77b4"/>
   </g>
   <g id="patch_53">
    <path d="M 135.035872 224.64 
L 136.549683 224.64 
L 136.549683 81.462043 
L 135.035872 81.462043 
z
" clip-path="url(#p527bbb236d)" style="fill: #1f77b4"/>
   </g>
   <g id="patch_54">
    <path d="M 136.549683 224.64 
L 138.063495 224.64 
L 138.063495 78.389555 
L 136.549683 78.389555 
z
" clip-path="url(#p527bbb236d)" style="fill: #1f77b4"/>
   </g>
   <g id="patch_55">
    <path d="M 138.063495 224.64 
L 139.577307 224.64 
L 139.577307 91.294006 
L 138.063495 91.294006 
z
" clip-path="url(#p527bbb236d)" style="fill: #1f77b4"/>
   </g>
   <g id="patch_56">
    <path d="M 139.577307 224.64 
L 141.091118 224.64 
L 141.091118 80.233048 
L 139.577307 80.233048 
z
" clip-path="url(#p527bbb236d)" style="fill: #1f77b4"/>
   </g>
   <g id="patch_57">
    <path d="M 141.091118 224.64 
L 142.60493 224.64 
L 142.60493 62.412616 
L 141.091118 62.412616 
z
" clip-path="url(#p527bbb236d)" style="fill: #1f77b4"/>
   </g>
   <g id="patch_58">
    <path d="M 142.60493 224.64 
L 144.118741 224.64 
L 144.118741 93.751997 
L 142.60493 93.751997 
z
" clip-path="url(#p527bbb236d)" style="fill: #1f77b4"/>
   </g>
   <g id="patch_59">
    <path d="M 144.118741 224.64 
L 145.632553 224.64 
L 145.632553 91.294006 
L 144.118741 91.294006 
z
" clip-path="url(#p527bbb236d)" style="fill: #1f77b4"/>
   </g>
   <g id="patch_60">
    <path d="M 145.632553 224.64 
L 147.146365 224.64 
L 147.146365 83.920034 
L 145.632553 83.920034 
z
" clip-path="url(#p527bbb236d)" style="fill: #1f77b4"/>
   </g>
   <g id="patch_61">
    <path d="M 147.146365 224.64 
L 148.660176 224.64 
L 148.660176 56.882136 
L 147.146365 56.882136 
z
" clip-path="url(#p527bbb236d)" style="fill: #1f77b4"/>
   </g>
   <g id="patch_62">
    <path d="M 148.660176 224.64 
L 150.173988 224.64 
L 150.173988 82.076541 
L 148.660176 82.076541 
z
" clip-path="url(#p527bbb236d)" style="fill: #1f77b4"/>
   </g>
   <g id="patch_63">
    <path d="M 150.173988 224.64 
L 151.6878 224.64 
L 151.6878 67.328597 
L 150.173988 67.328597 
z
" clip-path="url(#p527bbb236d)" style="fill: #1f77b4"/>
   </g>
   <g id="patch_64">
    <path d="M 151.6878 224.64 
L 153.201611 224.64 
L 153.201611 59.954625 
L 151.6878 59.954625 
z
" clip-path="url(#p527bbb236d)" style="fill: #1f77b4"/>
   </g>
   <g id="patch_65">
    <path d="M 153.201611 224.64 
L 154.715423 224.64 
L 154.715423 69.17209 
L 153.201611 69.17209 
z
" clip-path="url(#p527bbb236d)" style="fill: #1f77b4"/>
   </g>
   <g id="patch_66">
    <path d="M 154.715423 224.64 
L 156.229235 224.64 
L 156.229235 61.798118 
L 154.715423 61.798118 
z
" clip-path="url(#p527bbb236d)" style="fill: #1f77b4"/>
   </g>
   <g id="patch_67">
    <path d="M 156.229235 224.64 
L 157.743046 224.64 
L 157.743046 76.546062 
L 156.229235 76.546062 
z
" clip-path="url(#p527bbb236d)" style="fill: #1f77b4"/>
   </g>
   <g id="patch_68">
    <path d="M 157.743046 224.64 
L 159.256858 224.64 
L 159.256858 62.412616 
L 157.743046 62.412616 
z
" clip-path="url(#p527bbb236d)" style="fill: #1f77b4"/>
   </g>
   <g id="patch_69">
    <path d="M 159.256858 224.64 
L 160.77067 224.64 
L 160.77067 51.351657 
L 159.256858 51.351657 
z
" clip-path="url(#p527bbb236d)" style="fill: #1f77b4"/>
   </g>
   <g id="patch_70">
    <path d="M 160.77067 224.64 
L 162.284481 224.64 
L 162.284481 66.099602 
L 160.77067 66.099602 
z
" clip-path="url(#p527bbb236d)" style="fill: #1f77b4"/>
   </g>
   <g id="patch_71">
    <path d="M 162.284481 224.64 
L 163.798293 224.64 
L 163.798293 56.882136 
L 162.284481 56.882136 
z
" clip-path="url(#p527bbb236d)" style="fill: #1f77b4"/>
   </g>
   <g id="patch_72">
    <path d="M 163.798293 224.64 
L 165.312105 224.64 
L 165.312105 69.17209 
L 163.798293 69.17209 
z
" clip-path="url(#p527bbb236d)" style="fill: #1f77b4"/>
   </g>
   <g id="patch_73">
    <path d="M 165.312105 224.64 
L 166.825916 224.64 
L 166.825916 48.893667 
L 165.312105 48.893667 
z
" clip-path="url(#p527bbb236d)" style="fill: #1f77b4"/>
   </g>
   <g id="patch_74">
    <path d="M 166.825916 224.64 
L 168.339728 224.64 
L 168.339728 56.267639 
L 166.825916 56.267639 
z
" clip-path="url(#p527bbb236d)" style="fill: #1f77b4"/>
   </g>
   <g id="patch_75">
    <path d="M 168.339728 224.64 
L 169.85354 224.64 
L 169.85354 59.954625 
L 168.339728 59.954625 
z
" clip-path="url(#p527bbb236d)" style="fill: #1f77b4"/>
   </g>
   <g id="patch_76">
    <path d="M 169.85354 224.64 
L 171.367351 224.64 
L 171.367351 61.798118 
L 169.85354 61.798118 
z
" clip-path="url(#p527bbb236d)" style="fill: #1f77b4"/>
   </g>
   <g id="patch_77">
    <path d="M 171.367351 224.64 
L 172.881163 224.64 
L 172.881163 60.569123 
L 171.367351 60.569123 
z
" clip-path="url(#p527bbb236d)" style="fill: #1f77b4"/>
   </g>
   <g id="patch_78">
    <path d="M 172.881163 224.64 
L 174.394975 224.64 
L 174.394975 53.19515 
L 172.881163 53.19515 
z
" clip-path="url(#p527bbb236d)" style="fill: #1f77b4"/>
   </g>
   <g id="patch_79">
    <path d="M 174.394975 224.64 
L 175.908786 224.64 
L 175.908786 40.290699 
L 174.394975 40.290699 
z
" clip-path="url(#p527bbb236d)" style="fill: #1f77b4"/>
   </g>
   <g id="patch_80">
    <path d="M 175.908786 224.64 
L 177.422598 224.64 
L 177.422598 33.531225 
L 175.908786 33.531225 
z
" clip-path="url(#p527bbb236d)" style="fill: #1f77b4"/>
   </g>
   <g id="patch_81">
    <path d="M 177.422598 224.64 
L 178.93641 224.64 
L 178.93641 28.615244 
L 177.422598 28.615244 
z
" clip-path="url(#p527bbb236d)" style="fill: #1f77b4"/>
   </g>
   <g id="patch_82">
    <path d="M 178.93641 224.64 
L 180.450221 224.64 
L 180.450221 49.508164 
L 178.93641 49.508164 
z
" clip-path="url(#p527bbb236d)" style="fill: #1f77b4"/>
   </g>
   <g id="patch_83">
    <path d="M 180.450221 224.64 
L 181.964033 224.64 
L 181.964033 26.771751 
L 180.450221 26.771751 
z
" clip-path="url(#p527bbb236d)" style="fill: #1f77b4"/>
   </g>
   <g id="patch_84">
    <path d="M 181.964033 224.64 
L 183.477845 224.64 
L 183.477845 21.855769 
L 181.964033 21.855769 
z
" clip-path="url(#p527bbb236d)" style="fill: #1f77b4"/>
   </g>
   <g id="patch_85">
    <path d="M 183.477845 224.64 
L 184.991656 224.64 
L 184.991656 42.134192 
L 183.477845 42.134192 
z
" clip-path="url(#p527bbb236d)" style="fill: #1f77b4"/>
   </g>
   <g id="patch_86">
    <path d="M 184.991656 224.64 
L 186.505468 224.64 
L 186.505468 35.374718 
L 184.991656 35.374718 
z
" clip-path="url(#p527bbb236d)" style="fill: #1f77b4"/>
   </g>
   <g id="patch_87">
    <path d="M 186.505468 224.64 
L 188.019279 224.64 
L 188.019279 35.374718 
L 186.505468 35.374718 
z
" clip-path="url(#p527bbb236d)" style="fill: #1f77b4"/>
   </g>
   <g id="patch_88">
    <path d="M 188.019279 224.64 
L 189.533091 224.64 
L 189.533091 35.989216 
L 188.019279 35.989216 
z
" clip-path="url(#p527bbb236d)" style="fill: #1f77b4"/>
   </g>
   <g id="patch_89">
    <path d="M 189.533091 224.64 
L 191.046903 224.64 
L 191.046903 43.363188 
L 189.533091 43.363188 
z
" clip-path="url(#p527bbb236d)" style="fill: #1f77b4"/>
   </g>
   <g id="patch_90">
    <path d="M 191.046903 224.64 
L 192.560714 224.64 
L 192.560714 34.145723 
L 191.046903 34.145723 
z
" clip-path="url(#p527bbb236d)" style="fill: #1f77b4"/>
   </g>
   <g id="patch_91">
    <path d="M 192.560714 224.64 
L 194.074526 224.64 
L 194.074526 21.855769 
L 192.560714 21.855769 
z
" clip-path="url(#p527bbb236d)" style="fill: #1f77b4"/>
   </g>
   <g id="patch_92">
    <path d="M 194.074526 224.64 
L 195.588338 224.64 
L 195.588338 56.882136 
L 194.074526 56.882136 
z
" clip-path="url(#p527bbb236d)" style="fill: #1f77b4"/>
   </g>
   <g id="patch_93">
    <path d="M 195.588338 224.64 
L 197.102149 224.64 
L 197.102149 35.989216 
L 195.588338 35.989216 
z
" clip-path="url(#p527bbb236d)" style="fill: #1f77b4"/>
   </g>
   <g id="patch_94">
    <path d="M 197.102149 224.64 
L 198.615961 224.64 
L 198.615961 35.374718 
L 197.102149 35.374718 
z
" clip-path="url(#p527bbb236d)" style="fill: #1f77b4"/>
   </g>
   <g id="patch_95">
    <path d="M 198.615961 224.64 
L 200.129773 224.64 
L 200.129773 29.229741 
L 198.615961 29.229741 
z
" clip-path="url(#p527bbb236d)" style="fill: #1f77b4"/>
   </g>
   <g id="patch_96">
    <path d="M 200.129773 224.64 
L 201.643584 224.64 
L 201.643584 53.809648 
L 200.129773 53.809648 
z
" clip-path="url(#p527bbb236d)" style="fill: #1f77b4"/>
   </g>
   <g id="patch_97">
    <path d="M 201.643584 224.64 
L 203.157396 224.64 
L 203.157396 24.31376 
L 201.643584 24.31376 
z
" clip-path="url(#p527bbb236d)" style="fill: #1f77b4"/>
   </g>
   <g id="patch_98">
    <path d="M 203.157396 224.64 
L 204.671208 224.64 
L 204.671208 38.447206 
L 203.157396 38.447206 
z
" clip-path="url(#p527bbb236d)" style="fill: #1f77b4"/>
   </g>
   <g id="patch_99">
    <path d="M 204.671208 224.64 
L 206.185019 224.64 
L 206.185019 37.218211 
L 204.671208 37.218211 
z
" clip-path="url(#p527bbb236d)" style="fill: #1f77b4"/>
   </g>
   <g id="patch_100">
    <path d="M 206.185019 224.64 
L 207.698831 224.64 
L 207.698831 34.145723 
L 206.185019 34.145723 
z
" clip-path="url(#p527bbb236d)" style="fill: #1f77b4"/>
   </g>
   <g id="patch_101">
    <path d="M 207.698831 224.64 
L 209.212643 224.64 
L 209.212643 34.76022 
L 207.698831 34.76022 
z
" clip-path="url(#p527bbb236d)" style="fill: #1f77b4"/>
   </g>
   <g id="patch_102">
    <path d="M 209.212643 224.64 
L 210.726454 224.64 
L 210.726454 35.989216 
L 209.212643 35.989216 
z
" clip-path="url(#p527bbb236d)" style="fill: #1f77b4"/>
   </g>
   <g id="patch_103">
    <path d="M 210.726454 224.64 
L 212.240266 224.64 
L 212.240266 21.241272 
L 210.726454 21.241272 
z
" clip-path="url(#p527bbb236d)" style="fill: #1f77b4"/>
   </g>
   <g id="patch_104">
    <path d="M 212.240266 224.64 
L 213.754078 224.64 
L 213.754078 26.157253 
L 212.240266 26.157253 
z
" clip-path="url(#p527bbb236d)" style="fill: #1f77b4"/>
   </g>
   <g id="patch_105">
    <path d="M 213.754078 224.64 
L 215.267889 224.64 
L 215.267889 30.458737 
L 213.754078 30.458737 
z
" clip-path="url(#p527bbb236d)" style="fill: #1f77b4"/>
   </g>
   <g id="patch_106">
    <path d="M 215.267889 224.64 
L 216.781701 224.64 
L 216.781701 28.615244 
L 215.267889 28.615244 
z
" clip-path="url(#p527bbb236d)" style="fill: #1f77b4"/>
   </g>
   <g id="patch_107">
    <path d="M 216.781701 224.64 
L 218.295513 224.64 
L 218.295513 26.771751 
L 216.781701 26.771751 
z
" clip-path="url(#p527bbb236d)" style="fill: #1f77b4"/>
   </g>
   <g id="patch_108">
    <path d="M 218.295513 224.64 
L 219.809324 224.64 
L 219.809324 26.157253 
L 218.295513 26.157253 
z
" clip-path="url(#p527bbb236d)" style="fill: #1f77b4"/>
   </g>
   <g id="patch_109">
    <path d="M 219.809324 224.64 
L 221.323136 224.64 
L 221.323136 33.531225 
L 219.809324 33.531225 
z
" clip-path="url(#p527bbb236d)" style="fill: #1f77b4"/>
   </g>
   <g id="patch_110">
    <path d="M 221.323136 224.64 
L 222.836948 224.64 
L 222.836948 33.531225 
L 221.323136 33.531225 
z
" clip-path="url(#p527bbb236d)" style="fill: #1f77b4"/>
   </g>
   <g id="patch_111">
    <path d="M 222.836948 224.64 
L 224.350759 224.64 
L 224.350759 29.229741 
L 222.836948 29.229741 
z
" clip-path="url(#p527bbb236d)" style="fill: #1f77b4"/>
   </g>
   <g id="patch_112">
    <path d="M 224.350759 224.64 
L 225.864571 224.64 
L 225.864571 45.206681 
L 224.350759 45.206681 
z
" clip-path="url(#p527bbb236d)" style="fill: #1f77b4"/>
   </g>
   <g id="patch_113">
    <path d="M 225.864571 224.64 
L 227.378383 224.64 
L 227.378383 37.218211 
L 225.864571 37.218211 
z
" clip-path="url(#p527bbb236d)" style="fill: #1f77b4"/>
   </g>
   <g id="patch_114">
    <path d="M 227.378383 224.64 
L 228.892194 224.64 
L 228.892194 49.508164 
L 227.378383 49.508164 
z
" clip-path="url(#p527bbb236d)" style="fill: #1f77b4"/>
   </g>
   <g id="patch_115">
    <path d="M 228.892194 224.64 
L 230.406006 224.64 
L 230.406006 32.30223 
L 228.892194 32.30223 
z
" clip-path="url(#p527bbb236d)" style="fill: #1f77b4"/>
   </g>
   <g id="patch_116">
    <path d="M 230.406006 224.64 
L 231.919817 224.64 
L 231.919817 42.134192 
L 230.406006 42.134192 
z
" clip-path="url(#p527bbb236d)" style="fill: #1f77b4"/>
   </g>
   <g id="patch_117">
    <path d="M 231.919817 224.64 
L 233.433629 224.64 
L 233.433629 29.229741 
L 231.919817 29.229741 
z
" clip-path="url(#p527bbb236d)" style="fill: #1f77b4"/>
   </g>
   <g id="patch_118">
    <path d="M 233.433629 224.64 
L 234.947441 224.64 
L 234.947441 72.859076 
L 233.433629 72.859076 
z
" clip-path="url(#p527bbb236d)" style="fill: #1f77b4"/>
   </g>
   <g id="patch_119">
    <path d="M 234.947441 224.64 
L 236.461252 224.64 
L 236.461252 44.592183 
L 234.947441 44.592183 
z
" clip-path="url(#p527bbb236d)" style="fill: #1f77b4"/>
   </g>
   <g id="patch_120">
    <path d="M 236.461252 224.64 
L 237.975064 224.64 
L 237.975064 17.554286 
L 236.461252 17.554286 
z
" clip-path="url(#p527bbb236d)" style="fill: #1f77b4"/>
   </g>
   <g id="patch_121">
    <path d="M 237.975064 224.64 
L 239.488876 224.64 
L 239.488876 44.592183 
L 237.975064 44.592183 
z
" clip-path="url(#p527bbb236d)" style="fill: #1f77b4"/>
   </g>
   <g id="patch_122">
    <path d="M 239.488876 224.64 
L 241.002687 224.64 
L 241.002687 24.928258 
L 239.488876 24.928258 
z
" clip-path="url(#p527bbb236d)" style="fill: #1f77b4"/>
   </g>
   <g id="patch_123">
    <path d="M 241.002687 224.64 
L 242.516499 224.64 
L 242.516499 41.519695 
L 241.002687 41.519695 
z
" clip-path="url(#p527bbb236d)" style="fill: #1f77b4"/>
   </g>
   <g id="patch_124">
    <path d="M 242.516499 224.64 
L 244.030311 224.64 
L 244.030311 55.653141 
L 242.516499 55.653141 
z
" clip-path="url(#p527bbb236d)" style="fill: #1f77b4"/>
   </g>
   <g id="patch_125">
    <path d="M 244.030311 224.64 
L 245.544122 224.64 
L 245.544122 31.073234 
L 244.030311 31.073234 
z
" clip-path="url(#p527bbb236d)" style="fill: #1f77b4"/>
   </g>
   <g id="patch_126">
    <path d="M 245.544122 224.64 
L 247.057934 224.64 
L 247.057934 56.882136 
L 245.544122 56.882136 
z
" clip-path="url(#p527bbb236d)" style="fill: #1f77b4"/>
   </g>
   <g id="patch_127">
    <path d="M 247.057934 224.64 
L 248.571746 224.64 
L 248.571746 39.676202 
L 247.057934 39.676202 
z
" clip-path="url(#p527bbb236d)" style="fill: #1f77b4"/>
   </g>
   <g id="patch_128">
    <path d="M 248.571746 224.64 
L 250.085557 224.64 
L 250.085557 53.809648 
L 248.571746 53.809648 
z
" clip-path="url(#p527bbb236d)" style="fill: #1f77b4"/>
   </g>
   <g id="patch_129">
    <path d="M 250.085557 224.64 
L 251.599369 224.64 
L 251.599369 24.31376 
L 250.085557 24.31376 
z
" clip-path="url(#p527bbb236d)" style="fill: #1f77b4"/>
   </g>
   <g id="patch_130">
    <path d="M 251.599369 224.64 
L 253.113181 224.64 
L 253.113181 23.699262 
L 251.599369 23.699262 
z
" clip-path="url(#p527bbb236d)" style="fill: #1f77b4"/>
   </g>
   <g id="patch_131">
    <path d="M 253.113181 224.64 
L 254.626992 224.64 
L 254.626992 42.74869 
L 253.113181 42.74869 
z
" clip-path="url(#p527bbb236d)" style="fill: #1f77b4"/>
   </g>
   <g id="patch_132">
    <path d="M 254.626992 224.64 
L 256.140804 224.64 
L 256.140804 68.557592 
L 254.626992 68.557592 
z
" clip-path="url(#p527bbb236d)" style="fill: #1f77b4"/>
   </g>
   <g id="patch_133">
    <path d="M 256.140804 224.64 
L 257.654616 224.64 
L 257.654616 71.630081 
L 256.140804 71.630081 
z
" clip-path="url(#p527bbb236d)" style="fill: #1f77b4"/>
   </g>
   <g id="patch_134">
    <path d="M 257.654616 224.64 
L 259.168427 224.64 
L 259.168427 53.809648 
L 257.654616 53.809648 
z
" clip-path="url(#p527bbb236d)" style="fill: #1f77b4"/>
   </g>
   <g id="patch_135">
    <path d="M 259.168427 224.64 
L 260.682239 224.64 
L 260.682239 47.664671 
L 259.168427 47.664671 
z
" clip-path="url(#p527bbb236d)" style="fill: #1f77b4"/>
   </g>
   <g id="patch_136">
    <path d="M 260.682239 224.64 
L 262.196051 224.64 
L 262.196051 69.786588 
L 260.682239 69.786588 
z
" clip-path="url(#p527bbb236d)" style="fill: #1f77b4"/>
   </g>
   <g id="patch_137">
    <path d="M 262.196051 224.64 
L 263.709862 224.64 
L 263.709862 55.653141 
L 262.196051 55.653141 
z
" clip-path="url(#p527bbb236d)" style="fill: #1f77b4"/>
   </g>
   <g id="patch_138">
    <path d="M 263.709862 224.64 
L 265.223674 224.64 
L 265.223674 67.943095 
L 263.709862 67.943095 
z
" clip-path="url(#p527bbb236d)" style="fill: #1f77b4"/>
   </g>
   <g id="patch_139">
    <path d="M 265.223674 224.64 
L 266.737486 224.64 
L 266.737486 80.847546 
L 265.223674 80.847546 
z
" clip-path="url(#p527bbb236d)" style="fill: #1f77b4"/>
   </g>
   <g id="patch_140">
    <path d="M 266.737486 224.64 
L 268.251297 224.64 
L 268.251297 64.870606 
L 266.737486 64.870606 
z
" clip-path="url(#p527bbb236d)" style="fill: #1f77b4"/>
   </g>
   <g id="patch_141">
    <path d="M 268.251297 224.64 
L 269.765109 224.64 
L 269.765109 57.496634 
L 268.251297 57.496634 
z
" clip-path="url(#p527bbb236d)" style="fill: #1f77b4"/>
   </g>
   <g id="patch_142">
    <path d="M 269.765109 224.64 
L 271.278921 224.64 
L 271.278921 63.027113 
L 269.765109 63.027113 
z
" clip-path="url(#p527bbb236d)" style="fill: #1f77b4"/>
   </g>
   <g id="patch_143">
    <path d="M 271.278921 224.64 
L 272.792732 224.64 
L 272.792732 74.702569 
L 271.278921 74.702569 
z
" clip-path="url(#p527bbb236d)" style="fill: #1f77b4"/>
   </g>
   <g id="patch_144">
    <path d="M 272.792732 224.64 
L 274.306544 224.64 
L 274.306544 67.328597 
L 272.792732 67.328597 
z
" clip-path="url(#p527bbb236d)" style="fill: #1f77b4"/>
   </g>
   <g id="patch_145">
    <path d="M 274.306544 224.64 
L 275.820355 224.64 
L 275.820355 91.294006 
L 274.306544 91.294006 
z
" clip-path="url(#p527bbb236d)" style="fill: #1f77b4"/>
   </g>
   <g id="patch_146">
    <path d="M 275.820355 224.64 
L 277.334167 224.64 
L 277.334167 75.317067 
L 275.820355 75.317067 
z
" clip-path="url(#p527bbb236d)" style="fill: #1f77b4"/>
   </g>
   <g id="patch_147">
    <path d="M 277.334167 224.64 
L 278.847979 224.64 
L 278.847979 73.473574 
L 277.334167 73.473574 
z
" clip-path="url(#p527bbb236d)" style="fill: #1f77b4"/>
   </g>
   <g id="patch_148">
    <path d="M 278.847979 224.64 
L 280.36179 224.64 
L 280.36179 71.630081 
L 278.847979 71.630081 
z
" clip-path="url(#p527bbb236d)" style="fill: #1f77b4"/>
   </g>
   <g id="patch_149">
    <path d="M 280.36179 224.64 
L 281.875602 224.64 
L 281.875602 84.534532 
L 280.36179 84.534532 
z
" clip-path="url(#p527bbb236d)" style="fill: #1f77b4"/>
   </g>
   <g id="patch_150">
    <path d="M 281.875602 224.64 
L 283.389414 224.64 
L 283.389414 68.557592 
L 281.875602 68.557592 
z
" clip-path="url(#p527bbb236d)" style="fill: #1f77b4"/>
   </g>
   <g id="patch_151">
    <path d="M 283.389414 224.64 
L 284.903225 224.64 
L 284.903225 75.931564 
L 283.389414 75.931564 
z
" clip-path="url(#p527bbb236d)" style="fill: #1f77b4"/>
   </g>
   <g id="patch_152">
    <path d="M 284.903225 224.64 
L 286.417037 224.64 
L 286.417037 96.209987 
L 284.903225 96.209987 
z
" clip-path="url(#p527bbb236d)" style="fill: #1f77b4"/>
   </g>
   <g id="patch_153">
    <path d="M 286.417037 224.64 
L 287.930849 224.64 
L 287.930849 96.209987 
L 286.417037 96.209987 
z
" clip-path="url(#p527bbb236d)" style="fill: #1f77b4"/>
   </g>
   <g id="patch_154">
    <path d="M 287.930849 224.64 
L 289.44466 224.64 
L 289.44466 93.137499 
L 287.930849 93.137499 
z
" clip-path="url(#p527bbb236d)" style="fill: #1f77b4"/>
   </g>
   <g id="patch_155">
    <path d="M 289.44466 224.64 
L 290.958472 224.64 
L 290.958472 94.366494 
L 289.44466 94.366494 
z
" clip-path="url(#p527bbb236d)" style="fill: #1f77b4"/>
   </g>
   <g id="patch_156">
    <path d="M 290.958472 224.64 
L 292.472284 224.64 
L 292.472284 88.221518 
L 290.958472 88.221518 
z
" clip-path="url(#p527bbb236d)" style="fill: #1f77b4"/>
   </g>
   <g id="patch_157">
    <path d="M 292.472284 224.64 
L 293.986095 224.64 
L 293.986095 109.114438 
L 292.472284 109.114438 
z
" clip-path="url(#p527bbb236d)" style="fill: #1f77b4"/>
   </g>
   <g id="patch_158">
    <path d="M 293.986095 224.64 
L 295.499907 224.64 
L 295.499907 90.065011 
L 293.986095 90.065011 
z
" clip-path="url(#p527bbb236d)" style="fill: #1f77b4"/>
   </g>
   <g id="patch_159">
    <path d="M 295.499907 224.64 
L 297.013719 224.64 
L 297.013719 101.740466 
L 295.499907 101.740466 
z
" clip-path="url(#p527bbb236d)" style="fill: #1f77b4"/>
   </g>
   <g id="patch_160">
    <path d="M 297.013719 224.64 
L 298.52753 224.64 
L 298.52753 98.05348 
L 297.013719 98.05348 
z
" clip-path="url(#p527bbb236d)" style="fill: #1f77b4"/>
   </g>
   <g id="patch_161">
    <path d="M 298.52753 224.64 
L 300.041342 224.64 
L 300.041342 114.644917 
L 298.52753 114.644917 
z
" clip-path="url(#p527bbb236d)" style="fill: #1f77b4"/>
   </g>
   <g id="patch_162">
    <path d="M 300.041342 224.64 
L 301.555154 224.64 
L 301.555154 115.873913 
L 300.041342 115.873913 
z
" clip-path="url(#p527bbb236d)" style="fill: #1f77b4"/>
   </g>
   <g id="patch_163">
    <path d="M 301.555154 224.64 
L 303.068965 224.64 
L 303.068965 102.354964 
L 301.555154 102.354964 
z
" clip-path="url(#p527bbb236d)" style="fill: #1f77b4"/>
   </g>
   <g id="patch_164">
    <path d="M 303.068965 224.64 
L 304.582777 224.64 
L 304.582777 110.343434 
L 303.068965 110.343434 
z
" clip-path="url(#p527bbb236d)" style="fill: #1f77b4"/>
   </g>
   <g id="patch_165">
    <path d="M 304.582777 224.64 
L 306.096589 224.64 
L 306.096589 124.47688 
L 304.582777 124.47688 
z
" clip-path="url(#p527bbb236d)" style="fill: #1f77b4"/>
   </g>
   <g id="patch_166">
    <path d="M 306.096589 224.64 
L 307.6104 224.64 
L 307.6104 115.259415 
L 306.096589 115.259415 
z
" clip-path="url(#p527bbb236d)" style="fill: #1f77b4"/>
   </g>
   <g id="patch_167">
    <path d="M 307.6104 224.64 
L 309.124212 224.64 
L 309.124212 107.270945 
L 307.6104 107.270945 
z
" clip-path="url(#p527bbb236d)" style="fill: #1f77b4"/>
   </g>
   <g id="patch_168">
    <path d="M 309.124212 224.64 
L 310.638024 224.64 
L 310.638024 127.549368 
L 309.124212 127.549368 
z
" clip-path="url(#p527bbb236d)" style="fill: #1f77b4"/>
   </g>
   <g id="patch_169">
    <path d="M 310.638024 224.64 
L 312.151835 224.64 
L 312.151835 128.163866 
L 310.638024 128.163866 
z
" clip-path="url(#p527bbb236d)" style="fill: #1f77b4"/>
   </g>
   <g id="patch_170">
    <path d="M 312.151835 224.64 
L 313.665647 224.64 
L 313.665647 137.381331 
L 312.151835 137.381331 
z
" clip-path="url(#p527bbb236d)" style="fill: #1f77b4"/>
   </g>
   <g id="patch_171">
    <path d="M 313.665647 224.64 
L 315.179459 224.64 
L 315.179459 126.320373 
L 313.665647 126.320373 
z
" clip-path="url(#p527bbb236d)" style="fill: #1f77b4"/>
   </g>
   <g id="patch_172">
    <path d="M 315.179459 224.64 
L 316.69327 224.64 
L 316.69327 126.320373 
L 315.179459 126.320373 
z
" clip-path="url(#p527bbb236d)" style="fill: #1f77b4"/>
   </g>
   <g id="patch_173">
    <path d="M 316.69327 224.64 
L 318.207082 224.64 
L 318.207082 138.610326 
L 316.69327 138.610326 
z
" clip-path="url(#p527bbb236d)" style="fill: #1f77b4"/>
   </g>
   <g id="patch_174">
    <path d="M 318.207082 224.64 
L 319.720893 224.64 
L 319.720893 131.850852 
L 318.207082 131.850852 
z
" clip-path="url(#p527bbb236d)" style="fill: #1f77b4"/>
   </g>
   <g id="patch_175">
    <path d="M 319.720893 224.64 
L 321.234705 224.64 
L 321.234705 131.850852 
L 319.720893 131.850852 
z
" clip-path="url(#p527bbb236d)" style="fill: #1f77b4"/>
   </g>
   <g id="patch_176">
    <path d="M 321.234705 224.64 
L 322.748517 224.64 
L 322.748517 135.537838 
L 321.234705 135.537838 
z
" clip-path="url(#p527bbb236d)" style="fill: #1f77b4"/>
   </g>
   <g id="patch_177">
    <path d="M 322.748517 224.64 
L 324.262328 224.64 
L 324.262328 157.045256 
L 322.748517 157.045256 
z
" clip-path="url(#p527bbb236d)" style="fill: #1f77b4"/>
   </g>
   <g id="patch_178">
    <path d="M 324.262328 224.64 
L 325.77614 224.64 
L 325.77614 157.659754 
L 324.262328 157.659754 
z
" clip-path="url(#p527bbb236d)" style="fill: #1f77b4"/>
   </g>
   <g id="patch_179">
    <path d="M 325.77614 224.64 
L 327.289952 224.64 
L 327.289952 145.369801 
L 325.77614 145.369801 
z
" clip-path="url(#p527bbb236d)" style="fill: #1f77b4"/>
   </g>
   <g id="patch_180">
    <path d="M 327.289952 224.64 
L 328.803763 224.64 
L 328.803763 141.682815 
L 327.289952 141.682815 
z
" clip-path="url(#p527bbb236d)" style="fill: #1f77b4"/>
   </g>
   <g id="patch_181">
    <path d="M 328.803763 224.64 
L 330.317575 224.64 
L 330.317575 161.34674 
L 328.803763 161.34674 
z
" clip-path="url(#p527bbb236d)" style="fill: #1f77b4"/>
   </g>
   <g id="patch_182">
    <path d="M 330.317575 224.64 
L 331.831387 224.64 
L 331.831387 158.274252 
L 330.317575 158.274252 
z
" clip-path="url(#p527bbb236d)" style="fill: #1f77b4"/>
   </g>
   <g id="patch_183">
    <path d="M 331.831387 224.64 
L 333.345198 224.64 
L 333.345198 168.720712 
L 331.831387 168.720712 
z
" clip-path="url(#p527bbb236d)" style="fill: #1f77b4"/>
   </g>
   <g id="patch_184">
    <path d="M 333.345198 224.64 
L 334.85901 224.64 
L 334.85901 164.419228 
L 333.345198 164.419228 
z
" clip-path="url(#p527bbb236d)" style="fill: #1f77b4"/>
   </g>
   <g id="patch_185">
    <path d="M 334.85901 224.64 
L 336.372822 224.64 
L 336.372822 171.178703 
L 334.85901 171.178703 
z
" clip-path="url(#p527bbb236d)" style="fill: #1f77b4"/>
   </g>
   <g id="patch_186">
    <path d="M 336.372822 224.64 
L 337.886633 224.64 
L 337.886633 171.178703 
L 336.372822 171.178703 
z
" clip-path="url(#p527bbb236d)" style="fill: #1f77b4"/>
   </g>
   <g id="patch_187">
    <path d="M 337.886633 224.64 
L 339.400445 224.64 
L 339.400445 177.32368 
L 337.886633 177.32368 
z
" clip-path="url(#p527bbb236d)" style="fill: #1f77b4"/>
   </g>
   <g id="patch_188">
    <path d="M 339.400445 224.64 
L 340.914257 224.64 
L 340.914257 173.022196 
L 339.400445 173.022196 
z
" clip-path="url(#p527bbb236d)" style="fill: #1f77b4"/>
   </g>
   <g id="patch_189">
    <path d="M 340.914257 224.64 
L 342.428068 224.64 
L 342.428068 192.071624 
L 340.914257 192.071624 
z
" clip-path="url(#p527bbb236d)" style="fill: #1f77b4"/>
   </g>
   <g id="patch_190">
    <path d="M 342.428068 224.64 
L 343.94188 224.64 
L 343.94188 176.709182 
L 342.428068 176.709182 
z
" clip-path="url(#p527bbb236d)" style="fill: #1f77b4"/>
   </g>
   <g id="patch_191">
    <path d="M 343.94188 224.64 
L 345.455692 224.64 
L 345.455692 188.999135 
L 343.94188 188.999135 
z
" clip-path="url(#p527bbb236d)" style="fill: #1f77b4"/>
   </g>
   <g id="patch_192">
    <path d="M 345.455692 224.64 
L 346.969503 224.64 
L 346.969503 194.529614 
L 345.455692 194.529614 
z
" clip-path="url(#p527bbb236d)" style="fill: #1f77b4"/>
   </g>
   <g id="patch_193">
    <path d="M 346.969503 224.64 
L 348.483315 224.64 
L 348.483315 184.697652 
L 346.969503 184.697652 
z
" clip-path="url(#p527bbb236d)" style="fill: #1f77b4"/>
   </g>
   <g id="patch_194">
    <path d="M 348.483315 224.64 
L 349.997127 224.64 
L 349.997127 193.300619 
L 348.483315 193.300619 
z
" clip-path="url(#p527bbb236d)" style="fill: #1f77b4"/>
   </g>
   <g id="patch_195">
    <path d="M 349.997127 224.64 
L 351.510938 224.64 
L 351.510938 193.300619 
L 349.997127 193.300619 
z
" clip-path="url(#p527bbb236d)" style="fill: #1f77b4"/>
   </g>
   <g id="patch_196">
    <path d="M 351.510938 224.64 
L 353.02475 224.64 
L 353.02475 206.20507 
L 351.510938 206.20507 
z
" clip-path="url(#p527bbb236d)" style="fill: #1f77b4"/>
   </g>
   <g id="patch_197">
    <path d="M 353.02475 224.64 
L 354.538562 224.64 
L 354.538562 206.819568 
L 353.02475 206.819568 
z
" clip-path="url(#p527bbb236d)" style="fill: #1f77b4"/>
   </g>
   <g id="patch_198">
    <path d="M 354.538562 224.64 
L 356.052373 224.64 
L 356.052373 204.976075 
L 354.538562 204.976075 
z
" clip-path="url(#p527bbb236d)" style="fill: #1f77b4"/>
   </g>
   <g id="patch_199">
    <path d="M 356.052373 224.64 
L 357.566185 224.64 
L 357.566185 214.19354 
L 356.052373 214.19354 
z
" clip-path="url(#p527bbb236d)" style="fill: #1f77b4"/>
   </g>
   <g id="patch_200">
    <path d="M 357.566185 224.64 
L 359.079997 224.64 
L 359.079997 214.19354 
L 357.566185 214.19354 
z
" clip-path="url(#p527bbb236d)" style="fill: #1f77b4"/>
   </g>
   <g id="patch_201">
    <path d="M 359.079997 224.64 
L 360.593808 224.64 
L 360.593808 217.266028 
L 359.079997 217.266028 
z
" clip-path="url(#p527bbb236d)" style="fill: #1f77b4"/>
   </g>
   <g id="patch_202">
    <path d="M 360.593808 224.64 
L 362.10762 224.64 
L 362.10762 220.338516 
L 360.593808 220.338516 
z
" clip-path="url(#p527bbb236d)" style="fill: #1f77b4"/>
   </g>
   <g id="matplotlib.axis_1">
    <g id="xtick_1">
     <g id="line2d_1">
      <defs>
       <path id="mda638aaf4d" d="M 0 0 
L 0 3.5 
" style="stroke: #000000; stroke-width: 0.8"/>
      </defs>
      <g>
       <use xlink:href="#mda638aaf4d" x="58.999432" y="224.64" style="stroke: #000000; stroke-width: 0.8"/>
      </g>
     </g>
     <g id="text_1">
      <!-- 0.0 -->
      <g transform="translate(51.047869 239.238437)scale(0.1 -0.1)">
       <defs>
        <path id="DejaVuSans-30" d="M 2034 4250 
Q 1547 4250 1301 3770 
Q 1056 3291 1056 2328 
Q 1056 1369 1301 889 
Q 1547 409 2034 409 
Q 2525 409 2770 889 
Q 3016 1369 3016 2328 
Q 3016 3291 2770 3770 
Q 2525 4250 2034 4250 
z
M 2034 4750 
Q 2819 4750 3233 4129 
Q 3647 3509 3647 2328 
Q 3647 1150 3233 529 
Q 2819 -91 2034 -91 
Q 1250 -91 836 529 
Q 422 1150 422 2328 
Q 422 3509 836 4129 
Q 1250 4750 2034 4750 
z
" transform="scale(0.015625)"/>
        <path id="DejaVuSans-2e" d="M 684 794 
L 1344 794 
L 1344 0 
L 684 0 
L 684 794 
z
" transform="scale(0.015625)"/>
       </defs>
       <use xlink:href="#DejaVuSans-30"/>
       <use xlink:href="#DejaVuSans-2e" x="63.623047"/>
       <use xlink:href="#DejaVuSans-30" x="95.410156"/>
      </g>
     </g>
    </g>
    <g id="xtick_2">
     <g id="line2d_2">
      <g>
       <use xlink:href="#mda638aaf4d" x="97.752214" y="224.64" style="stroke: #000000; stroke-width: 0.8"/>
      </g>
     </g>
     <g id="text_2">
      <!-- 0.2 -->
      <g transform="translate(89.800651 239.238437)scale(0.1 -0.1)">
       <defs>
        <path id="DejaVuSans-32" d="M 1228 531 
L 3431 531 
L 3431 0 
L 469 0 
L 469 531 
Q 828 903 1448 1529 
Q 2069 2156 2228 2338 
Q 2531 2678 2651 2914 
Q 2772 3150 2772 3378 
Q 2772 3750 2511 3984 
Q 2250 4219 1831 4219 
Q 1534 4219 1204 4116 
Q 875 4013 500 3803 
L 500 4441 
Q 881 4594 1212 4672 
Q 1544 4750 1819 4750 
Q 2544 4750 2975 4387 
Q 3406 4025 3406 3419 
Q 3406 3131 3298 2873 
Q 3191 2616 2906 2266 
Q 2828 2175 2409 1742 
Q 1991 1309 1228 531 
z
" transform="scale(0.015625)"/>
       </defs>
       <use xlink:href="#DejaVuSans-30"/>
       <use xlink:href="#DejaVuSans-2e" x="63.623047"/>
       <use xlink:href="#DejaVuSans-32" x="95.410156"/>
      </g>
     </g>
    </g>
    <g id="xtick_3">
     <g id="line2d_3">
      <g>
       <use xlink:href="#mda638aaf4d" x="136.504995" y="224.64" style="stroke: #000000; stroke-width: 0.8"/>
      </g>
     </g>
     <g id="text_3">
      <!-- 0.4 -->
      <g transform="translate(128.553433 239.238437)scale(0.1 -0.1)">
       <defs>
        <path id="DejaVuSans-34" d="M 2419 4116 
L 825 1625 
L 2419 1625 
L 2419 4116 
z
M 2253 4666 
L 3047 4666 
L 3047 1625 
L 3713 1625 
L 3713 1100 
L 3047 1100 
L 3047 0 
L 2419 0 
L 2419 1100 
L 313 1100 
L 313 1709 
L 2253 4666 
z
" transform="scale(0.015625)"/>
       </defs>
       <use xlink:href="#DejaVuSans-30"/>
       <use xlink:href="#DejaVuSans-2e" x="63.623047"/>
       <use xlink:href="#DejaVuSans-34" x="95.410156"/>
      </g>
     </g>
    </g>
    <g id="xtick_4">
     <g id="line2d_4">
      <g>
       <use xlink:href="#mda638aaf4d" x="175.257777" y="224.64" style="stroke: #000000; stroke-width: 0.8"/>
      </g>
     </g>
     <g id="text_4">
      <!-- 0.6 -->
      <g transform="translate(167.306215 239.238437)scale(0.1 -0.1)">
       <defs>
        <path id="DejaVuSans-36" d="M 2113 2584 
Q 1688 2584 1439 2293 
Q 1191 2003 1191 1497 
Q 1191 994 1439 701 
Q 1688 409 2113 409 
Q 2538 409 2786 701 
Q 3034 994 3034 1497 
Q 3034 2003 2786 2293 
Q 2538 2584 2113 2584 
z
M 3366 4563 
L 3366 3988 
Q 3128 4100 2886 4159 
Q 2644 4219 2406 4219 
Q 1781 4219 1451 3797 
Q 1122 3375 1075 2522 
Q 1259 2794 1537 2939 
Q 1816 3084 2150 3084 
Q 2853 3084 3261 2657 
Q 3669 2231 3669 1497 
Q 3669 778 3244 343 
Q 2819 -91 2113 -91 
Q 1303 -91 875 529 
Q 447 1150 447 2328 
Q 447 3434 972 4092 
Q 1497 4750 2381 4750 
Q 2619 4750 2861 4703 
Q 3103 4656 3366 4563 
z
" transform="scale(0.015625)"/>
       </defs>
       <use xlink:href="#DejaVuSans-30"/>
       <use xlink:href="#DejaVuSans-2e" x="63.623047"/>
       <use xlink:href="#DejaVuSans-36" x="95.410156"/>
      </g>
     </g>
    </g>
    <g id="xtick_5">
     <g id="line2d_5">
      <g>
       <use xlink:href="#mda638aaf4d" x="214.010559" y="224.64" style="stroke: #000000; stroke-width: 0.8"/>
      </g>
     </g>
     <g id="text_5">
      <!-- 0.8 -->
      <g transform="translate(206.058996 239.238437)scale(0.1 -0.1)">
       <defs>
        <path id="DejaVuSans-38" d="M 2034 2216 
Q 1584 2216 1326 1975 
Q 1069 1734 1069 1313 
Q 1069 891 1326 650 
Q 1584 409 2034 409 
Q 2484 409 2743 651 
Q 3003 894 3003 1313 
Q 3003 1734 2745 1975 
Q 2488 2216 2034 2216 
z
M 1403 2484 
Q 997 2584 770 2862 
Q 544 3141 544 3541 
Q 544 4100 942 4425 
Q 1341 4750 2034 4750 
Q 2731 4750 3128 4425 
Q 3525 4100 3525 3541 
Q 3525 3141 3298 2862 
Q 3072 2584 2669 2484 
Q 3125 2378 3379 2068 
Q 3634 1759 3634 1313 
Q 3634 634 3220 271 
Q 2806 -91 2034 -91 
Q 1263 -91 848 271 
Q 434 634 434 1313 
Q 434 1759 690 2068 
Q 947 2378 1403 2484 
z
M 1172 3481 
Q 1172 3119 1398 2916 
Q 1625 2713 2034 2713 
Q 2441 2713 2670 2916 
Q 2900 3119 2900 3481 
Q 2900 3844 2670 4047 
Q 2441 4250 2034 4250 
Q 1625 4250 1398 4047 
Q 1172 3844 1172 3481 
z
" transform="scale(0.015625)"/>
       </defs>
       <use xlink:href="#DejaVuSans-30"/>
       <use xlink:href="#DejaVuSans-2e" x="63.623047"/>
       <use xlink:href="#DejaVuSans-38" x="95.410156"/>
      </g>
     </g>
    </g>
    <g id="xtick_6">
     <g id="line2d_6">
      <g>
       <use xlink:href="#mda638aaf4d" x="252.763341" y="224.64" style="stroke: #000000; stroke-width: 0.8"/>
      </g>
     </g>
     <g id="text_6">
      <!-- 1.0 -->
      <g transform="translate(244.811778 239.238437)scale(0.1 -0.1)">
       <defs>
        <path id="DejaVuSans-31" d="M 794 531 
L 1825 531 
L 1825 4091 
L 703 3866 
L 703 4441 
L 1819 4666 
L 2450 4666 
L 2450 531 
L 3481 531 
L 3481 0 
L 794 0 
L 794 531 
z
" transform="scale(0.015625)"/>
       </defs>
       <use xlink:href="#DejaVuSans-31"/>
       <use xlink:href="#DejaVuSans-2e" x="63.623047"/>
       <use xlink:href="#DejaVuSans-30" x="95.410156"/>
      </g>
     </g>
    </g>
    <g id="xtick_7">
     <g id="line2d_7">
      <g>
       <use xlink:href="#mda638aaf4d" x="291.516122" y="224.64" style="stroke: #000000; stroke-width: 0.8"/>
      </g>
     </g>
     <g id="text_7">
      <!-- 1.2 -->
      <g transform="translate(283.56456 239.238437)scale(0.1 -0.1)">
       <use xlink:href="#DejaVuSans-31"/>
       <use xlink:href="#DejaVuSans-2e" x="63.623047"/>
       <use xlink:href="#DejaVuSans-32" x="95.410156"/>
      </g>
     </g>
    </g>
    <g id="xtick_8">
     <g id="line2d_8">
      <g>
       <use xlink:href="#mda638aaf4d" x="330.268904" y="224.64" style="stroke: #000000; stroke-width: 0.8"/>
      </g>
     </g>
     <g id="text_8">
      <!-- 1.4 -->
      <g transform="translate(322.317342 239.238437)scale(0.1 -0.1)">
       <use xlink:href="#DejaVuSans-31"/>
       <use xlink:href="#DejaVuSans-2e" x="63.623047"/>
       <use xlink:href="#DejaVuSans-34" x="95.410156"/>
      </g>
     </g>
    </g>
    <g id="xtick_9">
     <g id="line2d_9">
      <g>
       <use xlink:href="#mda638aaf4d" x="369.021686" y="224.64" style="stroke: #000000; stroke-width: 0.8"/>
      </g>
     </g>
     <g id="text_9">
      <!-- 1.6 -->
      <g transform="translate(361.070124 239.238437)scale(0.1 -0.1)">
       <use xlink:href="#DejaVuSans-31"/>
       <use xlink:href="#DejaVuSans-2e" x="63.623047"/>
       <use xlink:href="#DejaVuSans-36" x="95.410156"/>
      </g>
     </g>
    </g>
    <g id="text_10">
     <!-- Angle with normal (rad) -->
     <g transform="translate(151.863281 252.916562)scale(0.1 -0.1)">
      <defs>
       <path id="DejaVuSans-41" d="M 2188 4044 
L 1331 1722 
L 3047 1722 
L 2188 4044 
z
M 1831 4666 
L 2547 4666 
L 4325 0 
L 3669 0 
L 3244 1197 
L 1141 1197 
L 716 0 
L 50 0 
L 1831 4666 
z
" transform="scale(0.015625)"/>
       <path id="DejaVuSans-6e" d="M 3513 2113 
L 3513 0 
L 2938 0 
L 2938 2094 
Q 2938 2591 2744 2837 
Q 2550 3084 2163 3084 
Q 1697 3084 1428 2787 
Q 1159 2491 1159 1978 
L 1159 0 
L 581 0 
L 581 3500 
L 1159 3500 
L 1159 2956 
Q 1366 3272 1645 3428 
Q 1925 3584 2291 3584 
Q 2894 3584 3203 3211 
Q 3513 2838 3513 2113 
z
" transform="scale(0.015625)"/>
       <path id="DejaVuSans-67" d="M 2906 1791 
Q 2906 2416 2648 2759 
Q 2391 3103 1925 3103 
Q 1463 3103 1205 2759 
Q 947 2416 947 1791 
Q 947 1169 1205 825 
Q 1463 481 1925 481 
Q 2391 481 2648 825 
Q 2906 1169 2906 1791 
z
M 3481 434 
Q 3481 -459 3084 -895 
Q 2688 -1331 1869 -1331 
Q 1566 -1331 1297 -1286 
Q 1028 -1241 775 -1147 
L 775 -588 
Q 1028 -725 1275 -790 
Q 1522 -856 1778 -856 
Q 2344 -856 2625 -561 
Q 2906 -266 2906 331 
L 2906 616 
Q 2728 306 2450 153 
Q 2172 0 1784 0 
Q 1141 0 747 490 
Q 353 981 353 1791 
Q 353 2603 747 3093 
Q 1141 3584 1784 3584 
Q 2172 3584 2450 3431 
Q 2728 3278 2906 2969 
L 2906 3500 
L 3481 3500 
L 3481 434 
z
" transform="scale(0.015625)"/>
       <path id="DejaVuSans-6c" d="M 603 4863 
L 1178 4863 
L 1178 0 
L 603 0 
L 603 4863 
z
" transform="scale(0.015625)"/>
       <path id="DejaVuSans-65" d="M 3597 1894 
L 3597 1613 
L 953 1613 
Q 991 1019 1311 708 
Q 1631 397 2203 397 
Q 2534 397 2845 478 
Q 3156 559 3463 722 
L 3463 178 
Q 3153 47 2828 -22 
Q 2503 -91 2169 -91 
Q 1331 -91 842 396 
Q 353 884 353 1716 
Q 353 2575 817 3079 
Q 1281 3584 2069 3584 
Q 2775 3584 3186 3129 
Q 3597 2675 3597 1894 
z
M 3022 2063 
Q 3016 2534 2758 2815 
Q 2500 3097 2075 3097 
Q 1594 3097 1305 2825 
Q 1016 2553 972 2059 
L 3022 2063 
z
" transform="scale(0.015625)"/>
       <path id="DejaVuSans-20" transform="scale(0.015625)"/>
       <path id="DejaVuSans-77" d="M 269 3500 
L 844 3500 
L 1563 769 
L 2278 3500 
L 2956 3500 
L 3675 769 
L 4391 3500 
L 4966 3500 
L 4050 0 
L 3372 0 
L 2619 2869 
L 1863 0 
L 1184 0 
L 269 3500 
z
" transform="scale(0.015625)"/>
       <path id="DejaVuSans-69" d="M 603 3500 
L 1178 3500 
L 1178 0 
L 603 0 
L 603 3500 
z
M 603 4863 
L 1178 4863 
L 1178 4134 
L 603 4134 
L 603 4863 
z
" transform="scale(0.015625)"/>
       <path id="DejaVuSans-74" d="M 1172 4494 
L 1172 3500 
L 2356 3500 
L 2356 3053 
L 1172 3053 
L 1172 1153 
Q 1172 725 1289 603 
Q 1406 481 1766 481 
L 2356 481 
L 2356 0 
L 1766 0 
Q 1100 0 847 248 
Q 594 497 594 1153 
L 594 3053 
L 172 3053 
L 172 3500 
L 594 3500 
L 594 4494 
L 1172 4494 
z
" transform="scale(0.015625)"/>
       <path id="DejaVuSans-68" d="M 3513 2113 
L 3513 0 
L 2938 0 
L 2938 2094 
Q 2938 2591 2744 2837 
Q 2550 3084 2163 3084 
Q 1697 3084 1428 2787 
Q 1159 2491 1159 1978 
L 1159 0 
L 581 0 
L 581 4863 
L 1159 4863 
L 1159 2956 
Q 1366 3272 1645 3428 
Q 1925 3584 2291 3584 
Q 2894 3584 3203 3211 
Q 3513 2838 3513 2113 
z
" transform="scale(0.015625)"/>
       <path id="DejaVuSans-6f" d="M 1959 3097 
Q 1497 3097 1228 2736 
Q 959 2375 959 1747 
Q 959 1119 1226 758 
Q 1494 397 1959 397 
Q 2419 397 2687 759 
Q 2956 1122 2956 1747 
Q 2956 2369 2687 2733 
Q 2419 3097 1959 3097 
z
M 1959 3584 
Q 2709 3584 3137 3096 
Q 3566 2609 3566 1747 
Q 3566 888 3137 398 
Q 2709 -91 1959 -91 
Q 1206 -91 779 398 
Q 353 888 353 1747 
Q 353 2609 779 3096 
Q 1206 3584 1959 3584 
z
" transform="scale(0.015625)"/>
       <path id="DejaVuSans-72" d="M 2631 2963 
Q 2534 3019 2420 3045 
Q 2306 3072 2169 3072 
Q 1681 3072 1420 2755 
Q 1159 2438 1159 1844 
L 1159 0 
L 581 0 
L 581 3500 
L 1159 3500 
L 1159 2956 
Q 1341 3275 1631 3429 
Q 1922 3584 2338 3584 
Q 2397 3584 2469 3576 
Q 2541 3569 2628 3553 
L 2631 2963 
z
" transform="scale(0.015625)"/>
       <path id="DejaVuSans-6d" d="M 3328 2828 
Q 3544 3216 3844 3400 
Q 4144 3584 4550 3584 
Q 5097 3584 5394 3201 
Q 5691 2819 5691 2113 
L 5691 0 
L 5113 0 
L 5113 2094 
Q 5113 2597 4934 2840 
Q 4756 3084 4391 3084 
Q 3944 3084 3684 2787 
Q 3425 2491 3425 1978 
L 3425 0 
L 2847 0 
L 2847 2094 
Q 2847 2600 2669 2842 
Q 2491 3084 2119 3084 
Q 1678 3084 1418 2786 
Q 1159 2488 1159 1978 
L 1159 0 
L 581 0 
L 581 3500 
L 1159 3500 
L 1159 2956 
Q 1356 3278 1631 3431 
Q 1906 3584 2284 3584 
Q 2666 3584 2933 3390 
Q 3200 3197 3328 2828 
z
" transform="scale(0.015625)"/>
       <path id="DejaVuSans-61" d="M 2194 1759 
Q 1497 1759 1228 1600 
Q 959 1441 959 1056 
Q 959 750 1161 570 
Q 1363 391 1709 391 
Q 2188 391 2477 730 
Q 2766 1069 2766 1631 
L 2766 1759 
L 2194 1759 
z
M 3341 1997 
L 3341 0 
L 2766 0 
L 2766 531 
Q 2569 213 2275 61 
Q 1981 -91 1556 -91 
Q 1019 -91 701 211 
Q 384 513 384 1019 
Q 384 1609 779 1909 
Q 1175 2209 1959 2209 
L 2766 2209 
L 2766 2266 
Q 2766 2663 2505 2880 
Q 2244 3097 1772 3097 
Q 1472 3097 1187 3025 
Q 903 2953 641 2809 
L 641 3341 
Q 956 3463 1253 3523 
Q 1550 3584 1831 3584 
Q 2591 3584 2966 3190 
Q 3341 2797 3341 1997 
z
" transform="scale(0.015625)"/>
       <path id="DejaVuSans-28" d="M 1984 4856 
Q 1566 4138 1362 3434 
Q 1159 2731 1159 2009 
Q 1159 1288 1364 580 
Q 1569 -128 1984 -844 
L 1484 -844 
Q 1016 -109 783 600 
Q 550 1309 550 2009 
Q 550 2706 781 3412 
Q 1013 4119 1484 4856 
L 1984 4856 
z
" transform="scale(0.015625)"/>
       <path id="DejaVuSans-64" d="M 2906 2969 
L 2906 4863 
L 3481 4863 
L 3481 0 
L 2906 0 
L 2906 525 
Q 2725 213 2448 61 
Q 2172 -91 1784 -91 
Q 1150 -91 751 415 
Q 353 922 353 1747 
Q 353 2572 751 3078 
Q 1150 3584 1784 3584 
Q 2172 3584 2448 3432 
Q 2725 3281 2906 2969 
z
M 947 1747 
Q 947 1113 1208 752 
Q 1469 391 1925 391 
Q 2381 391 2643 752 
Q 2906 1113 2906 1747 
Q 2906 2381 2643 2742 
Q 2381 3103 1925 3103 
Q 1469 3103 1208 2742 
Q 947 2381 947 1747 
z
" transform="scale(0.015625)"/>
       <path id="DejaVuSans-29" d="M 513 4856 
L 1013 4856 
Q 1481 4119 1714 3412 
Q 1947 2706 1947 2009 
Q 1947 1309 1714 600 
Q 1481 -109 1013 -844 
L 513 -844 
Q 928 -128 1133 580 
Q 1338 1288 1338 2009 
Q 1338 2731 1133 3434 
Q 928 4138 513 4856 
z
" transform="scale(0.015625)"/>
      </defs>
      <use xlink:href="#DejaVuSans-41"/>
      <use xlink:href="#DejaVuSans-6e" x="68.408203"/>
      <use xlink:href="#DejaVuSans-67" x="131.787109"/>
      <use xlink:href="#DejaVuSans-6c" x="195.263672"/>
      <use xlink:href="#DejaVuSans-65" x="223.046875"/>
      <use xlink:href="#DejaVuSans-20" x="284.570312"/>
      <use xlink:href="#DejaVuSans-77" x="316.357422"/>
      <use xlink:href="#DejaVuSans-69" x="398.144531"/>
      <use xlink:href="#DejaVuSans-74" x="425.927734"/>
      <use xlink:href="#DejaVuSans-68" x="465.136719"/>
      <use xlink:href="#DejaVuSans-20" x="528.515625"/>
      <use xlink:href="#DejaVuSans-6e" x="560.302734"/>
      <use xlink:href="#DejaVuSans-6f" x="623.681641"/>
      <use xlink:href="#DejaVuSans-72" x="684.863281"/>
      <use xlink:href="#DejaVuSans-6d" x="724.226562"/>
      <use xlink:href="#DejaVuSans-61" x="821.638672"/>
      <use xlink:href="#DejaVuSans-6c" x="882.917969"/>
      <use xlink:href="#DejaVuSans-20" x="910.701172"/>
      <use xlink:href="#DejaVuSans-28" x="942.488281"/>
      <use xlink:href="#DejaVuSans-72" x="981.501953"/>
      <use xlink:href="#DejaVuSans-61" x="1022.615234"/>
      <use xlink:href="#DejaVuSans-64" x="1083.894531"/>
      <use xlink:href="#DejaVuSans-29" x="1147.371094"/>
     </g>
    </g>
   </g>
   <g id="matplotlib.axis_2">
    <g id="ytick_1">
     <g id="line2d_10">
      <defs>
       <path id="mdf4bf4cbfc" d="M 0 0 
L -3.5 0 
" style="stroke: #000000; stroke-width: 0.8"/>
      </defs>
      <g>
       <use xlink:href="#mdf4bf4cbfc" x="43.78125" y="224.64" style="stroke: #000000; stroke-width: 0.8"/>
      </g>
     </g>
     <g id="text_11">
      <!-- 0.0 -->
      <g transform="translate(20.878125 228.439219)scale(0.1 -0.1)">
       <use xlink:href="#DejaVuSans-30"/>
       <use xlink:href="#DejaVuSans-2e" x="63.623047"/>
       <use xlink:href="#DejaVuSans-30" x="95.410156"/>
      </g>
     </g>
    </g>
    <g id="ytick_2">
     <g id="line2d_11">
      <g>
       <use xlink:href="#mdf4bf4cbfc" x="43.78125" y="186.233106" style="stroke: #000000; stroke-width: 0.8"/>
      </g>
     </g>
     <g id="text_12">
      <!-- 0.2 -->
      <g transform="translate(20.878125 190.032325)scale(0.1 -0.1)">
       <use xlink:href="#DejaVuSans-30"/>
       <use xlink:href="#DejaVuSans-2e" x="63.623047"/>
       <use xlink:href="#DejaVuSans-32" x="95.410156"/>
      </g>
     </g>
    </g>
    <g id="ytick_3">
     <g id="line2d_12">
      <g>
       <use xlink:href="#mdf4bf4cbfc" x="43.78125" y="147.826212" style="stroke: #000000; stroke-width: 0.8"/>
      </g>
     </g>
     <g id="text_13">
      <!-- 0.4 -->
      <g transform="translate(20.878125 151.625431)scale(0.1 -0.1)">
       <use xlink:href="#DejaVuSans-30"/>
       <use xlink:href="#DejaVuSans-2e" x="63.623047"/>
       <use xlink:href="#DejaVuSans-34" x="95.410156"/>
      </g>
     </g>
    </g>
    <g id="ytick_4">
     <g id="line2d_13">
      <g>
       <use xlink:href="#mdf4bf4cbfc" x="43.78125" y="109.419319" style="stroke: #000000; stroke-width: 0.8"/>
      </g>
     </g>
     <g id="text_14">
      <!-- 0.6 -->
      <g transform="translate(20.878125 113.218537)scale(0.1 -0.1)">
       <use xlink:href="#DejaVuSans-30"/>
       <use xlink:href="#DejaVuSans-2e" x="63.623047"/>
       <use xlink:href="#DejaVuSans-36" x="95.410156"/>
      </g>
     </g>
    </g>
    <g id="ytick_5">
     <g id="line2d_14">
      <g>
       <use xlink:href="#mdf4bf4cbfc" x="43.78125" y="71.012425" style="stroke: #000000; stroke-width: 0.8"/>
      </g>
     </g>
     <g id="text_15">
      <!-- 0.8 -->
      <g transform="translate(20.878125 74.811644)scale(0.1 -0.1)">
       <use xlink:href="#DejaVuSans-30"/>
       <use xlink:href="#DejaVuSans-2e" x="63.623047"/>
       <use xlink:href="#DejaVuSans-38" x="95.410156"/>
      </g>
     </g>
    </g>
    <g id="ytick_6">
     <g id="line2d_15">
      <g>
       <use xlink:href="#mdf4bf4cbfc" x="43.78125" y="32.605531" style="stroke: #000000; stroke-width: 0.8"/>
      </g>
     </g>
     <g id="text_16">
      <!-- 1.0 -->
      <g transform="translate(20.878125 36.40475)scale(0.1 -0.1)">
       <use xlink:href="#DejaVuSans-31"/>
       <use xlink:href="#DejaVuSans-2e" x="63.623047"/>
       <use xlink:href="#DejaVuSans-30" x="95.410156"/>
      </g>
     </g>
    </g>
    <g id="text_17">
     <!-- Probability density -->
     <g transform="translate(14.798438 162.270781)rotate(-90)scale(0.1 -0.1)">
      <defs>
       <path id="DejaVuSans-50" d="M 1259 4147 
L 1259 2394 
L 2053 2394 
Q 2494 2394 2734 2622 
Q 2975 2850 2975 3272 
Q 2975 3691 2734 3919 
Q 2494 4147 2053 4147 
L 1259 4147 
z
M 628 4666 
L 2053 4666 
Q 2838 4666 3239 4311 
Q 3641 3956 3641 3272 
Q 3641 2581 3239 2228 
Q 2838 1875 2053 1875 
L 1259 1875 
L 1259 0 
L 628 0 
L 628 4666 
z
" transform="scale(0.015625)"/>
       <path id="DejaVuSans-62" d="M 3116 1747 
Q 3116 2381 2855 2742 
Q 2594 3103 2138 3103 
Q 1681 3103 1420 2742 
Q 1159 2381 1159 1747 
Q 1159 1113 1420 752 
Q 1681 391 2138 391 
Q 2594 391 2855 752 
Q 3116 1113 3116 1747 
z
M 1159 2969 
Q 1341 3281 1617 3432 
Q 1894 3584 2278 3584 
Q 2916 3584 3314 3078 
Q 3713 2572 3713 1747 
Q 3713 922 3314 415 
Q 2916 -91 2278 -91 
Q 1894 -91 1617 61 
Q 1341 213 1159 525 
L 1159 0 
L 581 0 
L 581 4863 
L 1159 4863 
L 1159 2969 
z
" transform="scale(0.015625)"/>
       <path id="DejaVuSans-79" d="M 2059 -325 
Q 1816 -950 1584 -1140 
Q 1353 -1331 966 -1331 
L 506 -1331 
L 506 -850 
L 844 -850 
Q 1081 -850 1212 -737 
Q 1344 -625 1503 -206 
L 1606 56 
L 191 3500 
L 800 3500 
L 1894 763 
L 2988 3500 
L 3597 3500 
L 2059 -325 
z
" transform="scale(0.015625)"/>
       <path id="DejaVuSans-73" d="M 2834 3397 
L 2834 2853 
Q 2591 2978 2328 3040 
Q 2066 3103 1784 3103 
Q 1356 3103 1142 2972 
Q 928 2841 928 2578 
Q 928 2378 1081 2264 
Q 1234 2150 1697 2047 
L 1894 2003 
Q 2506 1872 2764 1633 
Q 3022 1394 3022 966 
Q 3022 478 2636 193 
Q 2250 -91 1575 -91 
Q 1294 -91 989 -36 
Q 684 19 347 128 
L 347 722 
Q 666 556 975 473 
Q 1284 391 1588 391 
Q 1994 391 2212 530 
Q 2431 669 2431 922 
Q 2431 1156 2273 1281 
Q 2116 1406 1581 1522 
L 1381 1569 
Q 847 1681 609 1914 
Q 372 2147 372 2553 
Q 372 3047 722 3315 
Q 1072 3584 1716 3584 
Q 2034 3584 2315 3537 
Q 2597 3491 2834 3397 
z
" transform="scale(0.015625)"/>
      </defs>
      <use xlink:href="#DejaVuSans-50"/>
      <use xlink:href="#DejaVuSans-72" x="58.552734"/>
      <use xlink:href="#DejaVuSans-6f" x="97.416016"/>
      <use xlink:href="#DejaVuSans-62" x="158.597656"/>
      <use xlink:href="#DejaVuSans-61" x="222.074219"/>
      <use xlink:href="#DejaVuSans-62" x="283.353516"/>
      <use xlink:href="#DejaVuSans-69" x="346.830078"/>
      <use xlink:href="#DejaVuSans-6c" x="374.613281"/>
      <use xlink:href="#DejaVuSans-69" x="402.396484"/>
      <use xlink:href="#DejaVuSans-74" x="430.179688"/>
      <use xlink:href="#DejaVuSans-79" x="469.388672"/>
      <use xlink:href="#DejaVuSans-20" x="528.568359"/>
      <use xlink:href="#DejaVuSans-64" x="560.355469"/>
      <use xlink:href="#DejaVuSans-65" x="623.832031"/>
      <use xlink:href="#DejaVuSans-6e" x="685.355469"/>
      <use xlink:href="#DejaVuSans-73" x="748.734375"/>
      <use xlink:href="#DejaVuSans-69" x="800.833984"/>
      <use xlink:href="#DejaVuSans-74" x="828.617188"/>
      <use xlink:href="#DejaVuSans-79" x="867.826172"/>
     </g>
    </g>
   </g>
   <g id="line2d_16">
    <path d="M 58.999432 224.64 
L 77.888867 187.435098 
L 87.942921 168.119291 
L 96.473633 152.198979 
L 104.090341 138.455088 
L 110.793044 126.79815 
L 117.191078 116.107002 
L 123.284444 106.364194 
L 129.073142 97.541173 
L 134.557171 89.600463 
L 139.736533 82.497681 
L 144.611225 76.183377 
L 149.18125 70.604699 
L 153.751275 65.368703 
L 158.016631 60.801235 
L 162.281987 56.551288 
L 166.547343 52.627098 
L 170.508031 49.28155 
L 174.468719 46.229038 
L 178.124739 43.675846 
L 181.780759 41.380329 
L 185.436778 39.345755 
L 189.092798 37.575022 
L 192.444149 36.185787 
L 195.795501 35.022037 
L 199.146852 34.085163 
L 202.498203 33.376287 
L 205.849555 32.896258 
L 209.200906 32.645648 
L 212.552257 32.624759 
L 215.903609 32.833616 
L 219.25496 33.271967 
L 222.606311 33.93929 
L 225.957663 34.834784 
L 229.309014 35.95738 
L 232.660365 37.305734 
L 236.011717 38.878232 
L 239.667736 40.847102 
L 243.323756 43.077675 
L 246.979776 45.566775 
L 250.635795 48.310858 
L 254.596483 51.566814 
L 258.557171 55.111988 
L 262.822528 59.246506 
L 267.087884 63.701558 
L 271.35324 68.468509 
L 275.923265 73.911561 
L 280.493289 79.689939 
L 285.367982 86.208647 
L 290.547343 93.518305 
L 296.031373 101.665845 
L 301.515402 110.207309 
L 307.608768 120.126515 
L 314.006803 130.985761 
L 320.709506 142.799209 
L 328.021545 156.131187 
L 336.247589 171.592036 
L 345.996975 190.401854 
L 359.40238 216.791513 
L 363.363068 224.64 
L 363.363068 224.64 
" clip-path="url(#p527bbb236d)" style="fill: none; stroke: #ff7f0e; stroke-width: 1.5; stroke-linecap: square"/>
   </g>
   <g id="patch_203">
    <path d="M 43.78125 224.64 
L 43.78125 7.2 
" style="fill: none; stroke: #000000; stroke-width: 0.8; stroke-linejoin: miter; stroke-linecap: square"/>
   </g>
   <g id="patch_204">
    <path d="M 378.58125 224.64 
L 378.58125 7.2 
" style="fill: none; stroke: #000000; stroke-width: 0.8; stroke-linejoin: miter; stroke-linecap: square"/>
   </g>
   <g id="patch_205">
    <path d="M 43.78125 224.64 
L 378.58125 224.64 
" style="fill: none; stroke: #000000; stroke-width: 0.8; stroke-linejoin: miter; stroke-linecap: square"/>
   </g>
   <g id="patch_206">
    <path d="M 43.78125 7.2 
L 378.58125 7.2 
" style="fill: none; stroke: #000000; stroke-width: 0.8; stroke-linejoin: miter; stroke-linecap: square"/>
   </g>
  </g>
 </g>
 <defs>
  <clipPath id="p527bbb236d">
   <rect x="43.78125" y="7.2" width="334.8" height="217.44"/>
  </clipPath>
 </defs>
</svg>
