<?xml version="1.0" encoding="utf-8" standalone="no"?>
<!DOCTYPE svg PUBLIC "-//W3C//DTD SVG 1.1//EN"
  "http://www.w3.org/Graphics/SVG/1.1/DTD/svg11.dtd">
<svg xmlns:xlink="http://www.w3.org/1999/xlink" width="385.78125pt" height="262.19625pt" viewBox="0 0 385.78125 262.19625" xmlns="http://www.w3.org/2000/svg" version="1.1">
 <metadata>
  <rdf:RDF xmlns:dc="http://purl.org/dc/elements/1.1/" xmlns:cc="http://creativecommons.org/ns#" xmlns:rdf="http://www.w3.org/1999/02/22-rdf-syntax-ns#">
   <cc:Work>
    <dc:type rdf:resource="http://purl.org/dc/dcmitype/StillImage"/>
    <dc:date>2022-08-11T12:28:44.014666</dc:date>
    <dc:format>image/svg+xml</dc:format>
    <dc:creator>
     <cc:Agent>
      <dc:title>Matplotlib v3.5.2, https://matplotlib.org/</dc:title>
     </cc:Agent>
    </dc:creator>
   </cc:Work>
  </rdf:RDF>
 </metadata>
 <defs>
  <style type="text/css">*{stroke-linejoin: round; stroke-linecap: butt}</style>
 </defs>
 <g id="figure_1">
  <g id="patch_1">
   <path d="M 0 262.19625 
L 385.78125 262.19625 
L 385.78125 0 
L 0 0 
L 0 262.19625 
z
" style="fill: none"/>
  </g>
  <g id="axes_1">
   <g id="patch_2">
    <path d="M 43.78125 224.64 
L 378.58125 224.64 
L 378.58125 7.2 
L 43.78125 7.2 
z
" style="fill: #ffffff"/>
   </g>
   <g id="patch_3">
    <path d="M 60.792929 224.64 
L 62.298504 224.64 
L 62.298504 218.05635 
L 60.792929 218.05635 
z
" clip-path="url(#p3d47e28772)" style="fill: #1f77b4"/>
   </g>
   <g id="patch_4">
    <path d="M 62.298504 224.64 
L 63.804078 224.64 
L 63.804078 218.05635 
L 62.298504 218.05635 
z
" clip-path="url(#p3d47e28772)" style="fill: #1f77b4"/>
   </g>
   <g id="patch_5">
    <path d="M 63.804078 224.64 
L 65.309653 224.64 
L 65.309653 212.071214 
L 63.804078 212.071214 
z
" clip-path="url(#p3d47e28772)" style="fill: #1f77b4"/>
   </g>
   <g id="patch_6">
    <path d="M 65.309653 224.64 
L 66.815227 224.64 
L 66.815227 210.275673 
L 65.309653 210.275673 
z
" clip-path="url(#p3d47e28772)" style="fill: #1f77b4"/>
   </g>
   <g id="patch_7">
    <path d="M 66.815227 224.64 
L 68.320802 224.64 
L 68.320802 209.078646 
L 66.815227 209.078646 
z
" clip-path="url(#p3d47e28772)" style="fill: #1f77b4"/>
   </g>
   <g id="patch_8">
    <path d="M 68.320802 224.64 
L 69.826377 224.64 
L 69.826377 206.684591 
L 68.320802 206.684591 
z
" clip-path="url(#p3d47e28772)" style="fill: #1f77b4"/>
   </g>
   <g id="patch_9">
    <path d="M 69.826377 224.64 
L 71.331951 224.64 
L 71.331951 203.093509 
L 69.826377 203.093509 
z
" clip-path="url(#p3d47e28772)" style="fill: #1f77b4"/>
   </g>
   <g id="patch_10">
    <path d="M 71.331951 224.64 
L 72.837526 224.64 
L 72.837526 203.093509 
L 71.331951 203.093509 
z
" clip-path="url(#p3d47e28772)" style="fill: #1f77b4"/>
   </g>
   <g id="patch_11">
    <path d="M 72.837526 224.64 
L 74.343101 224.64 
L 74.343101 197.108373 
L 72.837526 197.108373 
z
" clip-path="url(#p3d47e28772)" style="fill: #1f77b4"/>
   </g>
   <g id="patch_12">
    <path d="M 74.343101 224.64 
L 75.848675 224.64 
L 75.848675 186.335128 
L 74.343101 186.335128 
z
" clip-path="url(#p3d47e28772)" style="fill: #1f77b4"/>
   </g>
   <g id="patch_13">
    <path d="M 75.848675 224.64 
L 77.35425 224.64 
L 77.35425 183.34256 
L 75.848675 183.34256 
z
" clip-path="url(#p3d47e28772)" style="fill: #1f77b4"/>
   </g>
   <g id="patch_14">
    <path d="M 77.35425 224.64 
L 78.859825 224.64 
L 78.859825 194.115805 
L 77.35425 194.115805 
z
" clip-path="url(#p3d47e28772)" style="fill: #1f77b4"/>
   </g>
   <g id="patch_15">
    <path d="M 78.859825 224.64 
L 80.365399 224.64 
L 80.365399 188.729182 
L 78.859825 188.729182 
z
" clip-path="url(#p3d47e28772)" style="fill: #1f77b4"/>
   </g>
   <g id="patch_16">
    <path d="M 80.365399 224.64 
L 81.870974 224.64 
L 81.870974 174.963369 
L 80.365399 174.963369 
z
" clip-path="url(#p3d47e28772)" style="fill: #1f77b4"/>
   </g>
   <g id="patch_17">
    <path d="M 81.870974 224.64 
L 83.376549 224.64 
L 83.376549 175.561883 
L 81.870974 175.561883 
z
" clip-path="url(#p3d47e28772)" style="fill: #1f77b4"/>
   </g>
   <g id="patch_18">
    <path d="M 83.376549 224.64 
L 84.882123 224.64 
L 84.882123 173.766342 
L 83.376549 173.766342 
z
" clip-path="url(#p3d47e28772)" style="fill: #1f77b4"/>
   </g>
   <g id="patch_19">
    <path d="M 84.882123 224.64 
L 86.387698 224.64 
L 86.387698 170.773774 
L 84.882123 170.773774 
z
" clip-path="url(#p3d47e28772)" style="fill: #1f77b4"/>
   </g>
   <g id="patch_20">
    <path d="M 86.387698 224.64 
L 87.893272 224.64 
L 87.893272 170.17526 
L 86.387698 170.17526 
z
" clip-path="url(#p3d47e28772)" style="fill: #1f77b4"/>
   </g>
   <g id="patch_21">
    <path d="M 87.893272 224.64 
L 89.398847 224.64 
L 89.398847 175.561883 
L 87.893272 175.561883 
z
" clip-path="url(#p3d47e28772)" style="fill: #1f77b4"/>
   </g>
   <g id="patch_22">
    <path d="M 89.398847 224.64 
L 90.904422 224.64 
L 90.904422 161.796069 
L 89.398847 161.796069 
z
" clip-path="url(#p3d47e28772)" style="fill: #1f77b4"/>
   </g>
   <g id="patch_23">
    <path d="M 90.904422 224.64 
L 92.409996 224.64 
L 92.409996 163.59161 
L 90.904422 163.59161 
z
" clip-path="url(#p3d47e28772)" style="fill: #1f77b4"/>
   </g>
   <g id="patch_24">
    <path d="M 92.409996 224.64 
L 93.915571 224.64 
L 93.915571 157.606474 
L 92.409996 157.606474 
z
" clip-path="url(#p3d47e28772)" style="fill: #1f77b4"/>
   </g>
   <g id="patch_25">
    <path d="M 93.915571 224.64 
L 95.421146 224.64 
L 95.421146 157.00796 
L 93.915571 157.00796 
z
" clip-path="url(#p3d47e28772)" style="fill: #1f77b4"/>
   </g>
   <g id="patch_26">
    <path d="M 95.421146 224.64 
L 96.92672 224.64 
L 96.92672 165.985665 
L 95.421146 165.985665 
z
" clip-path="url(#p3d47e28772)" style="fill: #1f77b4"/>
   </g>
   <g id="patch_27">
    <path d="M 96.92672 224.64 
L 98.432295 224.64 
L 98.432295 150.42431 
L 96.92672 150.42431 
z
" clip-path="url(#p3d47e28772)" style="fill: #1f77b4"/>
   </g>
   <g id="patch_28">
    <path d="M 98.432295 224.64 
L 99.93787 224.64 
L 99.93787 168.978233 
L 98.432295 168.978233 
z
" clip-path="url(#p3d47e28772)" style="fill: #1f77b4"/>
   </g>
   <g id="patch_29">
    <path d="M 99.93787 224.64 
L 101.443444 224.64 
L 101.443444 159.402015 
L 99.93787 159.402015 
z
" clip-path="url(#p3d47e28772)" style="fill: #1f77b4"/>
   </g>
   <g id="patch_30">
    <path d="M 101.443444 224.64 
L 102.949019 224.64 
L 102.949019 136.658497 
L 101.443444 136.658497 
z
" clip-path="url(#p3d47e28772)" style="fill: #1f77b4"/>
   </g>
   <g id="patch_31">
    <path d="M 102.949019 224.64 
L 104.454594 224.64 
L 104.454594 148.62877 
L 102.949019 148.62877 
z
" clip-path="url(#p3d47e28772)" style="fill: #1f77b4"/>
   </g>
   <g id="patch_32">
    <path d="M 104.454594 224.64 
L 105.960168 224.64 
L 105.960168 143.840661 
L 104.454594 143.840661 
z
" clip-path="url(#p3d47e28772)" style="fill: #1f77b4"/>
   </g>
   <g id="patch_33">
    <path d="M 105.960168 224.64 
L 107.465743 224.64 
L 107.465743 134.862956 
L 105.960168 134.862956 
z
" clip-path="url(#p3d47e28772)" style="fill: #1f77b4"/>
   </g>
   <g id="patch_34">
    <path d="M 107.465743 224.64 
L 108.971317 224.64 
L 108.971317 121.097143 
L 107.465743 121.097143 
z
" clip-path="url(#p3d47e28772)" style="fill: #1f77b4"/>
   </g>
   <g id="patch_35">
    <path d="M 108.971317 224.64 
L 110.476892 224.64 
L 110.476892 133.067415 
L 108.971317 133.067415 
z
" clip-path="url(#p3d47e28772)" style="fill: #1f77b4"/>
   </g>
   <g id="patch_36">
    <path d="M 110.476892 224.64 
L 111.982467 224.64 
L 111.982467 137.257011 
L 110.476892 137.257011 
z
" clip-path="url(#p3d47e28772)" style="fill: #1f77b4"/>
   </g>
   <g id="patch_37">
    <path d="M 111.982467 224.64 
L 113.488041 224.64 
L 113.488041 125.286738 
L 111.982467 125.286738 
z
" clip-path="url(#p3d47e28772)" style="fill: #1f77b4"/>
   </g>
   <g id="patch_38">
    <path d="M 113.488041 224.64 
L 114.993616 224.64 
L 114.993616 126.483765 
L 113.488041 126.483765 
z
" clip-path="url(#p3d47e28772)" style="fill: #1f77b4"/>
   </g>
   <g id="patch_39">
    <path d="M 114.993616 224.64 
L 116.499191 224.64 
L 116.499191 130.074847 
L 114.993616 130.074847 
z
" clip-path="url(#p3d47e28772)" style="fill: #1f77b4"/>
   </g>
   <g id="patch_40">
    <path d="M 116.499191 224.64 
L 118.004765 224.64 
L 118.004765 112.717952 
L 116.499191 112.717952 
z
" clip-path="url(#p3d47e28772)" style="fill: #1f77b4"/>
   </g>
   <g id="patch_41">
    <path d="M 118.004765 224.64 
L 119.51034 224.64 
L 119.51034 97.156598 
L 118.004765 97.156598 
z
" clip-path="url(#p3d47e28772)" style="fill: #1f77b4"/>
   </g>
   <g id="patch_42">
    <path d="M 119.51034 224.64 
L 121.015915 224.64 
L 121.015915 109.12687 
L 119.51034 109.12687 
z
" clip-path="url(#p3d47e28772)" style="fill: #1f77b4"/>
   </g>
   <g id="patch_43">
    <path d="M 121.015915 224.64 
L 122.521489 224.64 
L 122.521489 99.550652 
L 121.015915 99.550652 
z
" clip-path="url(#p3d47e28772)" style="fill: #1f77b4"/>
   </g>
   <g id="patch_44">
    <path d="M 122.521489 224.64 
L 124.027064 224.64 
L 124.027064 109.725384 
L 122.521489 109.725384 
z
" clip-path="url(#p3d47e28772)" style="fill: #1f77b4"/>
   </g>
   <g id="patch_45">
    <path d="M 124.027064 224.64 
L 125.532639 224.64 
L 125.532639 100.149166 
L 124.027064 100.149166 
z
" clip-path="url(#p3d47e28772)" style="fill: #1f77b4"/>
   </g>
   <g id="patch_46">
    <path d="M 125.532639 224.64 
L 127.038213 224.64 
L 127.038213 115.112007 
L 125.532639 115.112007 
z
" clip-path="url(#p3d47e28772)" style="fill: #1f77b4"/>
   </g>
   <g id="patch_47">
    <path d="M 127.038213 224.64 
L 128.543788 224.64 
L 128.543788 106.732816 
L 127.038213 106.732816 
z
" clip-path="url(#p3d47e28772)" style="fill: #1f77b4"/>
   </g>
   <g id="patch_48">
    <path d="M 128.543788 224.64 
L 130.049362 224.64 
L 130.049362 97.755111 
L 128.543788 97.755111 
z
" clip-path="url(#p3d47e28772)" style="fill: #1f77b4"/>
   </g>
   <g id="patch_49">
    <path d="M 130.049362 224.64 
L 131.554937 224.64 
L 131.554937 117.506061 
L 130.049362 117.506061 
z
" clip-path="url(#p3d47e28772)" style="fill: #1f77b4"/>
   </g>
   <g id="patch_50">
    <path d="M 131.554937 224.64 
L 133.060512 224.64 
L 133.060512 95.361057 
L 131.554937 95.361057 
z
" clip-path="url(#p3d47e28772)" style="fill: #1f77b4"/>
   </g>
   <g id="patch_51">
    <path d="M 133.060512 224.64 
L 134.566086 224.64 
L 134.566086 83.989298 
L 133.060512 83.989298 
z
" clip-path="url(#p3d47e28772)" style="fill: #1f77b4"/>
   </g>
   <g id="patch_52">
    <path d="M 134.566086 224.64 
L 136.071661 224.64 
L 136.071661 94.16403 
L 134.566086 94.16403 
z
" clip-path="url(#p3d47e28772)" style="fill: #1f77b4"/>
   </g>
   <g id="patch_53">
    <path d="M 136.071661 224.64 
L 137.577236 224.64 
L 137.577236 86.383353 
L 136.071661 86.383353 
z
" clip-path="url(#p3d47e28772)" style="fill: #1f77b4"/>
   </g>
   <g id="patch_54">
    <path d="M 137.577236 224.64 
L 139.08281 224.64 
L 139.08281 94.16403 
L 137.577236 94.16403 
z
" clip-path="url(#p3d47e28772)" style="fill: #1f77b4"/>
   </g>
   <g id="patch_55">
    <path d="M 139.08281 224.64 
L 140.588385 224.64 
L 140.588385 74.41308 
L 139.08281 74.41308 
z
" clip-path="url(#p3d47e28772)" style="fill: #1f77b4"/>
   </g>
   <g id="patch_56">
    <path d="M 140.588385 224.64 
L 142.09396 224.64 
L 142.09396 79.201189 
L 140.588385 79.201189 
z
" clip-path="url(#p3d47e28772)" style="fill: #1f77b4"/>
   </g>
   <g id="patch_57">
    <path d="M 142.09396 224.64 
L 143.599534 224.64 
L 143.599534 89.375921 
L 142.09396 89.375921 
z
" clip-path="url(#p3d47e28772)" style="fill: #1f77b4"/>
   </g>
   <g id="patch_58">
    <path d="M 143.599534 224.64 
L 145.105109 224.64 
L 145.105109 80.398216 
L 143.599534 80.398216 
z
" clip-path="url(#p3d47e28772)" style="fill: #1f77b4"/>
   </g>
   <g id="patch_59">
    <path d="M 145.105109 224.64 
L 146.610684 224.64 
L 146.610684 85.784839 
L 145.105109 85.784839 
z
" clip-path="url(#p3d47e28772)" style="fill: #1f77b4"/>
   </g>
   <g id="patch_60">
    <path d="M 146.610684 224.64 
L 148.116258 224.64 
L 148.116258 72.617539 
L 146.610684 72.617539 
z
" clip-path="url(#p3d47e28772)" style="fill: #1f77b4"/>
   </g>
   <g id="patch_61">
    <path d="M 148.116258 224.64 
L 149.621833 224.64 
L 149.621833 76.807135 
L 148.116258 76.807135 
z
" clip-path="url(#p3d47e28772)" style="fill: #1f77b4"/>
   </g>
   <g id="patch_62">
    <path d="M 149.621833 224.64 
L 151.127407 224.64 
L 151.127407 79.201189 
L 149.621833 79.201189 
z
" clip-path="url(#p3d47e28772)" style="fill: #1f77b4"/>
   </g>
   <g id="patch_63">
    <path d="M 151.127407 224.64 
L 152.632982 224.64 
L 152.632982 85.784839 
L 151.127407 85.784839 
z
" clip-path="url(#p3d47e28772)" style="fill: #1f77b4"/>
   </g>
   <g id="patch_64">
    <path d="M 152.632982 224.64 
L 154.138557 224.64 
L 154.138557 59.450239 
L 152.632982 59.450239 
z
" clip-path="url(#p3d47e28772)" style="fill: #1f77b4"/>
   </g>
   <g id="patch_65">
    <path d="M 154.138557 224.64 
L 155.644131 224.64 
L 155.644131 70.223485 
L 154.138557 70.223485 
z
" clip-path="url(#p3d47e28772)" style="fill: #1f77b4"/>
   </g>
   <g id="patch_66">
    <path d="M 155.644131 224.64 
L 157.149706 224.64 
L 157.149706 49.874021 
L 155.644131 49.874021 
z
" clip-path="url(#p3d47e28772)" style="fill: #1f77b4"/>
   </g>
   <g id="patch_67">
    <path d="M 157.149706 224.64 
L 158.655281 224.64 
L 158.655281 64.238348 
L 157.149706 64.238348 
z
" clip-path="url(#p3d47e28772)" style="fill: #1f77b4"/>
   </g>
   <g id="patch_68">
    <path d="M 158.655281 224.64 
L 160.160855 224.64 
L 160.160855 55.859158 
L 158.655281 55.859158 
z
" clip-path="url(#p3d47e28772)" style="fill: #1f77b4"/>
   </g>
   <g id="patch_69">
    <path d="M 160.160855 224.64 
L 161.66643 224.64 
L 161.66643 62.442808 
L 160.160855 62.442808 
z
" clip-path="url(#p3d47e28772)" style="fill: #1f77b4"/>
   </g>
   <g id="patch_70">
    <path d="M 161.66643 224.64 
L 163.172005 224.64 
L 163.172005 57.056185 
L 161.66643 57.056185 
z
" clip-path="url(#p3d47e28772)" style="fill: #1f77b4"/>
   </g>
   <g id="patch_71">
    <path d="M 163.172005 224.64 
L 164.677579 224.64 
L 164.677579 46.28294 
L 163.172005 46.28294 
z
" clip-path="url(#p3d47e28772)" style="fill: #1f77b4"/>
   </g>
   <g id="patch_72">
    <path d="M 164.677579 224.64 
L 166.183154 224.64 
L 166.183154 68.427944 
L 164.677579 68.427944 
z
" clip-path="url(#p3d47e28772)" style="fill: #1f77b4"/>
   </g>
   <g id="patch_73">
    <path d="M 166.183154 224.64 
L 167.688729 224.64 
L 167.688729 67.230917 
L 166.183154 67.230917 
z
" clip-path="url(#p3d47e28772)" style="fill: #1f77b4"/>
   </g>
   <g id="patch_74">
    <path d="M 167.688729 224.64 
L 169.194303 224.64 
L 169.194303 48.676994 
L 167.688729 48.676994 
z
" clip-path="url(#p3d47e28772)" style="fill: #1f77b4"/>
   </g>
   <g id="patch_75">
    <path d="M 169.194303 224.64 
L 170.699878 224.64 
L 170.699878 45.684426 
L 169.194303 45.684426 
z
" clip-path="url(#p3d47e28772)" style="fill: #1f77b4"/>
   </g>
   <g id="patch_76">
    <path d="M 170.699878 224.64 
L 172.205453 224.64 
L 172.205453 46.28294 
L 170.699878 46.28294 
z
" clip-path="url(#p3d47e28772)" style="fill: #1f77b4"/>
   </g>
   <g id="patch_77">
    <path d="M 172.205453 224.64 
L 173.711027 224.64 
L 173.711027 54.66213 
L 172.205453 54.66213 
z
" clip-path="url(#p3d47e28772)" style="fill: #1f77b4"/>
   </g>
   <g id="patch_78">
    <path d="M 173.711027 224.64 
L 175.216602 224.64 
L 175.216602 40.896317 
L 173.711027 40.896317 
z
" clip-path="url(#p3d47e28772)" style="fill: #1f77b4"/>
   </g>
   <g id="patch_79">
    <path d="M 175.216602 224.64 
L 176.722176 224.64 
L 176.722176 38.502263 
L 175.216602 38.502263 
z
" clip-path="url(#p3d47e28772)" style="fill: #1f77b4"/>
   </g>
   <g id="patch_80">
    <path d="M 176.722176 224.64 
L 178.227751 224.64 
L 178.227751 56.457671 
L 176.722176 56.457671 
z
" clip-path="url(#p3d47e28772)" style="fill: #1f77b4"/>
   </g>
   <g id="patch_81">
    <path d="M 178.227751 224.64 
L 179.733326 224.64 
L 179.733326 57.056185 
L 178.227751 57.056185 
z
" clip-path="url(#p3d47e28772)" style="fill: #1f77b4"/>
   </g>
   <g id="patch_82">
    <path d="M 179.733326 224.64 
L 181.2389 224.64 
L 181.2389 49.275508 
L 179.733326 49.275508 
z
" clip-path="url(#p3d47e28772)" style="fill: #1f77b4"/>
   </g>
   <g id="patch_83">
    <path d="M 181.2389 224.64 
L 182.744475 224.64 
L 182.744475 55.859158 
L 181.2389 55.859158 
z
" clip-path="url(#p3d47e28772)" style="fill: #1f77b4"/>
   </g>
   <g id="patch_84">
    <path d="M 182.744475 224.64 
L 184.25005 224.64 
L 184.25005 33.11564 
L 182.744475 33.11564 
z
" clip-path="url(#p3d47e28772)" style="fill: #1f77b4"/>
   </g>
   <g id="patch_85">
    <path d="M 184.25005 224.64 
L 185.755624 224.64 
L 185.755624 52.268076 
L 184.25005 52.268076 
z
" clip-path="url(#p3d47e28772)" style="fill: #1f77b4"/>
   </g>
   <g id="patch_86">
    <path d="M 185.755624 224.64 
L 187.261199 224.64 
L 187.261199 50.472535 
L 185.755624 50.472535 
z
" clip-path="url(#p3d47e28772)" style="fill: #1f77b4"/>
   </g>
   <g id="patch_87">
    <path d="M 187.261199 224.64 
L 188.766774 224.64 
L 188.766774 36.706722 
L 187.261199 36.706722 
z
" clip-path="url(#p3d47e28772)" style="fill: #1f77b4"/>
   </g>
   <g id="patch_88">
    <path d="M 188.766774 224.64 
L 190.272348 224.64 
L 190.272348 38.502263 
L 188.766774 38.502263 
z
" clip-path="url(#p3d47e28772)" style="fill: #1f77b4"/>
   </g>
   <g id="patch_89">
    <path d="M 190.272348 224.64 
L 191.777923 224.64 
L 191.777923 60.647267 
L 190.272348 60.647267 
z
" clip-path="url(#p3d47e28772)" style="fill: #1f77b4"/>
   </g>
   <g id="patch_90">
    <path d="M 191.777923 224.64 
L 193.283498 224.64 
L 193.283498 35.509694 
L 191.777923 35.509694 
z
" clip-path="url(#p3d47e28772)" style="fill: #1f77b4"/>
   </g>
   <g id="patch_91">
    <path d="M 193.283498 224.64 
L 194.789072 224.64 
L 194.789072 36.108208 
L 193.283498 36.108208 
z
" clip-path="url(#p3d47e28772)" style="fill: #1f77b4"/>
   </g>
   <g id="patch_92">
    <path d="M 194.789072 224.64 
L 196.294647 224.64 
L 196.294647 46.28294 
L 194.789072 46.28294 
z
" clip-path="url(#p3d47e28772)" style="fill: #1f77b4"/>
   </g>
   <g id="patch_93">
    <path d="M 196.294647 224.64 
L 197.800221 224.64 
L 197.800221 49.275508 
L 196.294647 49.275508 
z
" clip-path="url(#p3d47e28772)" style="fill: #1f77b4"/>
   </g>
   <g id="patch_94">
    <path d="M 197.800221 224.64 
L 199.305796 224.64 
L 199.305796 45.085912 
L 197.800221 45.085912 
z
" clip-path="url(#p3d47e28772)" style="fill: #1f77b4"/>
   </g>
   <g id="patch_95">
    <path d="M 199.305796 224.64 
L 200.811371 224.64 
L 200.811371 35.509694 
L 199.305796 35.509694 
z
" clip-path="url(#p3d47e28772)" style="fill: #1f77b4"/>
   </g>
   <g id="patch_96">
    <path d="M 200.811371 224.64 
L 202.316945 224.64 
L 202.316945 61.844294 
L 200.811371 61.844294 
z
" clip-path="url(#p3d47e28772)" style="fill: #1f77b4"/>
   </g>
   <g id="patch_97">
    <path d="M 202.316945 224.64 
L 203.82252 224.64 
L 203.82252 24.736449 
L 202.316945 24.736449 
z
" clip-path="url(#p3d47e28772)" style="fill: #1f77b4"/>
   </g>
   <g id="patch_98">
    <path d="M 203.82252 224.64 
L 205.328095 224.64 
L 205.328095 50.472535 
L 203.82252 50.472535 
z
" clip-path="url(#p3d47e28772)" style="fill: #1f77b4"/>
   </g>
   <g id="patch_99">
    <path d="M 205.328095 224.64 
L 206.833669 224.64 
L 206.833669 38.502263 
L 205.328095 38.502263 
z
" clip-path="url(#p3d47e28772)" style="fill: #1f77b4"/>
   </g>
   <g id="patch_100">
    <path d="M 206.833669 224.64 
L 208.339244 224.64 
L 208.339244 36.108208 
L 206.833669 36.108208 
z
" clip-path="url(#p3d47e28772)" style="fill: #1f77b4"/>
   </g>
   <g id="patch_101">
    <path d="M 208.339244 224.64 
L 209.844819 224.64 
L 209.844819 35.509694 
L 208.339244 35.509694 
z
" clip-path="url(#p3d47e28772)" style="fill: #1f77b4"/>
   </g>
   <g id="patch_102">
    <path d="M 209.844819 224.64 
L 211.350393 224.64 
L 211.350393 37.305235 
L 209.844819 37.305235 
z
" clip-path="url(#p3d47e28772)" style="fill: #1f77b4"/>
   </g>
   <g id="patch_103">
    <path d="M 211.350393 224.64 
L 212.855968 224.64 
L 212.855968 48.078481 
L 211.350393 48.078481 
z
" clip-path="url(#p3d47e28772)" style="fill: #1f77b4"/>
   </g>
   <g id="patch_104">
    <path d="M 212.855968 224.64 
L 214.361543 224.64 
L 214.361543 56.457671 
L 212.855968 56.457671 
z
" clip-path="url(#p3d47e28772)" style="fill: #1f77b4"/>
   </g>
   <g id="patch_105">
    <path d="M 214.361543 224.64 
L 215.867117 224.64 
L 215.867117 40.297803 
L 214.361543 40.297803 
z
" clip-path="url(#p3d47e28772)" style="fill: #1f77b4"/>
   </g>
   <g id="patch_106">
    <path d="M 215.867117 224.64 
L 217.372692 224.64 
L 217.372692 46.881453 
L 215.867117 46.881453 
z
" clip-path="url(#p3d47e28772)" style="fill: #1f77b4"/>
   </g>
   <g id="patch_107">
    <path d="M 217.372692 224.64 
L 218.878266 224.64 
L 218.878266 33.11564 
L 217.372692 33.11564 
z
" clip-path="url(#p3d47e28772)" style="fill: #1f77b4"/>
   </g>
   <g id="patch_108">
    <path d="M 218.878266 224.64 
L 220.383841 224.64 
L 220.383841 17.554286 
L 218.878266 17.554286 
z
" clip-path="url(#p3d47e28772)" style="fill: #1f77b4"/>
   </g>
   <g id="patch_109">
    <path d="M 220.383841 224.64 
L 221.889416 224.64 
L 221.889416 45.085912 
L 220.383841 45.085912 
z
" clip-path="url(#p3d47e28772)" style="fill: #1f77b4"/>
   </g>
   <g id="patch_110">
    <path d="M 221.889416 224.64 
L 223.39499 224.64 
L 223.39499 22.940908 
L 221.889416 22.940908 
z
" clip-path="url(#p3d47e28772)" style="fill: #1f77b4"/>
   </g>
   <g id="patch_111">
    <path d="M 223.39499 224.64 
L 224.900565 224.64 
L 224.900565 37.903749 
L 223.39499 37.903749 
z
" clip-path="url(#p3d47e28772)" style="fill: #1f77b4"/>
   </g>
   <g id="patch_112">
    <path d="M 224.900565 224.64 
L 226.40614 224.64 
L 226.40614 33.714154 
L 224.900565 33.714154 
z
" clip-path="url(#p3d47e28772)" style="fill: #1f77b4"/>
   </g>
   <g id="patch_113">
    <path d="M 226.40614 224.64 
L 227.911714 224.64 
L 227.911714 23.539422 
L 226.40614 23.539422 
z
" clip-path="url(#p3d47e28772)" style="fill: #1f77b4"/>
   </g>
   <g id="patch_114">
    <path d="M 227.911714 224.64 
L 229.417289 224.64 
L 229.417289 49.874021 
L 227.911714 49.874021 
z
" clip-path="url(#p3d47e28772)" style="fill: #1f77b4"/>
   </g>
   <g id="patch_115">
    <path d="M 229.417289 224.64 
L 230.922864 224.64 
L 230.922864 45.684426 
L 229.417289 45.684426 
z
" clip-path="url(#p3d47e28772)" style="fill: #1f77b4"/>
   </g>
   <g id="patch_116">
    <path d="M 230.922864 224.64 
L 232.428438 224.64 
L 232.428438 54.063617 
L 230.922864 54.063617 
z
" clip-path="url(#p3d47e28772)" style="fill: #1f77b4"/>
   </g>
   <g id="patch_117">
    <path d="M 232.428438 224.64 
L 233.934013 224.64 
L 233.934013 48.676994 
L 232.428438 48.676994 
z
" clip-path="url(#p3d47e28772)" style="fill: #1f77b4"/>
   </g>
   <g id="patch_118">
    <path d="M 233.934013 224.64 
L 235.439588 224.64 
L 235.439588 22.342395 
L 233.934013 22.342395 
z
" clip-path="url(#p3d47e28772)" style="fill: #1f77b4"/>
   </g>
   <g id="patch_119">
    <path d="M 235.439588 224.64 
L 236.945162 224.64 
L 236.945162 47.479967 
L 235.439588 47.479967 
z
" clip-path="url(#p3d47e28772)" style="fill: #1f77b4"/>
   </g>
   <g id="patch_120">
    <path d="M 236.945162 224.64 
L 238.450737 224.64 
L 238.450737 40.297803 
L 236.945162 40.297803 
z
" clip-path="url(#p3d47e28772)" style="fill: #1f77b4"/>
   </g>
   <g id="patch_121">
    <path d="M 238.450737 224.64 
L 239.956311 224.64 
L 239.956311 36.706722 
L 238.450737 36.706722 
z
" clip-path="url(#p3d47e28772)" style="fill: #1f77b4"/>
   </g>
   <g id="patch_122">
    <path d="M 239.956311 224.64 
L 241.461886 224.64 
L 241.461886 33.714154 
L 239.956311 33.714154 
z
" clip-path="url(#p3d47e28772)" style="fill: #1f77b4"/>
   </g>
   <g id="patch_123">
    <path d="M 241.461886 224.64 
L 242.967461 224.64 
L 242.967461 47.479967 
L 241.461886 47.479967 
z
" clip-path="url(#p3d47e28772)" style="fill: #1f77b4"/>
   </g>
   <g id="patch_124">
    <path d="M 242.967461 224.64 
L 244.473035 224.64 
L 244.473035 51.071049 
L 242.967461 51.071049 
z
" clip-path="url(#p3d47e28772)" style="fill: #1f77b4"/>
   </g>
   <g id="patch_125">
    <path d="M 244.473035 224.64 
L 245.97861 224.64 
L 245.97861 47.479967 
L 244.473035 47.479967 
z
" clip-path="url(#p3d47e28772)" style="fill: #1f77b4"/>
   </g>
   <g id="patch_126">
    <path d="M 245.97861 224.64 
L 247.484185 224.64 
L 247.484185 54.063617 
L 245.97861 54.063617 
z
" clip-path="url(#p3d47e28772)" style="fill: #1f77b4"/>
   </g>
   <g id="patch_127">
    <path d="M 247.484185 224.64 
L 248.989759 224.64 
L 248.989759 61.844294 
L 247.484185 61.844294 
z
" clip-path="url(#p3d47e28772)" style="fill: #1f77b4"/>
   </g>
   <g id="patch_128">
    <path d="M 248.989759 224.64 
L 250.495334 224.64 
L 250.495334 46.881453 
L 248.989759 46.881453 
z
" clip-path="url(#p3d47e28772)" style="fill: #1f77b4"/>
   </g>
   <g id="patch_129">
    <path d="M 250.495334 224.64 
L 252.000909 224.64 
L 252.000909 58.253212 
L 250.495334 58.253212 
z
" clip-path="url(#p3d47e28772)" style="fill: #1f77b4"/>
   </g>
   <g id="patch_130">
    <path d="M 252.000909 224.64 
L 253.506483 224.64 
L 253.506483 45.684426 
L 252.000909 45.684426 
z
" clip-path="url(#p3d47e28772)" style="fill: #1f77b4"/>
   </g>
   <g id="patch_131">
    <path d="M 253.506483 224.64 
L 255.012058 224.64 
L 255.012058 50.472535 
L 253.506483 50.472535 
z
" clip-path="url(#p3d47e28772)" style="fill: #1f77b4"/>
   </g>
   <g id="patch_132">
    <path d="M 255.012058 224.64 
L 256.517633 224.64 
L 256.517633 56.457671 
L 255.012058 56.457671 
z
" clip-path="url(#p3d47e28772)" style="fill: #1f77b4"/>
   </g>
   <g id="patch_133">
    <path d="M 256.517633 224.64 
L 258.023207 224.64 
L 258.023207 67.230917 
L 256.517633 67.230917 
z
" clip-path="url(#p3d47e28772)" style="fill: #1f77b4"/>
   </g>
   <g id="patch_134">
    <path d="M 258.023207 224.64 
L 259.528782 224.64 
L 259.528782 53.465103 
L 258.023207 53.465103 
z
" clip-path="url(#p3d47e28772)" style="fill: #1f77b4"/>
   </g>
   <g id="patch_135">
    <path d="M 259.528782 224.64 
L 261.034356 224.64 
L 261.034356 63.639835 
L 259.528782 63.639835 
z
" clip-path="url(#p3d47e28772)" style="fill: #1f77b4"/>
   </g>
   <g id="patch_136">
    <path d="M 261.034356 224.64 
L 262.539931 224.64 
L 262.539931 76.807135 
L 261.034356 76.807135 
z
" clip-path="url(#p3d47e28772)" style="fill: #1f77b4"/>
   </g>
   <g id="patch_137">
    <path d="M 262.539931 224.64 
L 264.045506 224.64 
L 264.045506 59.450239 
L 262.539931 59.450239 
z
" clip-path="url(#p3d47e28772)" style="fill: #1f77b4"/>
   </g>
   <g id="patch_138">
    <path d="M 264.045506 224.64 
L 265.55108 224.64 
L 265.55108 85.186325 
L 264.045506 85.186325 
z
" clip-path="url(#p3d47e28772)" style="fill: #1f77b4"/>
   </g>
   <g id="patch_139">
    <path d="M 265.55108 224.64 
L 267.056655 224.64 
L 267.056655 52.268076 
L 265.55108 52.268076 
z
" clip-path="url(#p3d47e28772)" style="fill: #1f77b4"/>
   </g>
   <g id="patch_140">
    <path d="M 267.056655 224.64 
L 268.56223 224.64 
L 268.56223 78.602675 
L 267.056655 78.602675 
z
" clip-path="url(#p3d47e28772)" style="fill: #1f77b4"/>
   </g>
   <g id="patch_141">
    <path d="M 268.56223 224.64 
L 270.067804 224.64 
L 270.067804 80.99673 
L 268.56223 80.99673 
z
" clip-path="url(#p3d47e28772)" style="fill: #1f77b4"/>
   </g>
   <g id="patch_142">
    <path d="M 270.067804 224.64 
L 271.573379 224.64 
L 271.573379 54.66213 
L 270.067804 54.66213 
z
" clip-path="url(#p3d47e28772)" style="fill: #1f77b4"/>
   </g>
   <g id="patch_143">
    <path d="M 271.573379 224.64 
L 273.078954 224.64 
L 273.078954 75.011594 
L 271.573379 75.011594 
z
" clip-path="url(#p3d47e28772)" style="fill: #1f77b4"/>
   </g>
   <g id="patch_144">
    <path d="M 273.078954 224.64 
L 274.584528 224.64 
L 274.584528 68.427944 
L 273.078954 68.427944 
z
" clip-path="url(#p3d47e28772)" style="fill: #1f77b4"/>
   </g>
   <g id="patch_145">
    <path d="M 274.584528 224.64 
L 276.090103 224.64 
L 276.090103 92.368489 
L 274.584528 92.368489 
z
" clip-path="url(#p3d47e28772)" style="fill: #1f77b4"/>
   </g>
   <g id="patch_146">
    <path d="M 276.090103 224.64 
L 277.595678 224.64 
L 277.595678 65.435376 
L 276.090103 65.435376 
z
" clip-path="url(#p3d47e28772)" style="fill: #1f77b4"/>
   </g>
   <g id="patch_147">
    <path d="M 277.595678 224.64 
L 279.101252 224.64 
L 279.101252 78.602675 
L 277.595678 78.602675 
z
" clip-path="url(#p3d47e28772)" style="fill: #1f77b4"/>
   </g>
   <g id="patch_148">
    <path d="M 279.101252 224.64 
L 280.606827 224.64 
L 280.606827 86.981866 
L 279.101252 86.981866 
z
" clip-path="url(#p3d47e28772)" style="fill: #1f77b4"/>
   </g>
   <g id="patch_149">
    <path d="M 280.606827 224.64 
L 282.112401 224.64 
L 282.112401 90.572948 
L 280.606827 90.572948 
z
" clip-path="url(#p3d47e28772)" style="fill: #1f77b4"/>
   </g>
   <g id="patch_150">
    <path d="M 282.112401 224.64 
L 283.617976 224.64 
L 283.617976 92.368489 
L 282.112401 92.368489 
z
" clip-path="url(#p3d47e28772)" style="fill: #1f77b4"/>
   </g>
   <g id="patch_151">
    <path d="M 283.617976 224.64 
L 285.123551 224.64 
L 285.123551 83.989298 
L 283.617976 83.989298 
z
" clip-path="url(#p3d47e28772)" style="fill: #1f77b4"/>
   </g>
   <g id="patch_152">
    <path d="M 285.123551 224.64 
L 286.629125 224.64 
L 286.629125 94.762543 
L 285.123551 94.762543 
z
" clip-path="url(#p3d47e28772)" style="fill: #1f77b4"/>
   </g>
   <g id="patch_153">
    <path d="M 286.629125 224.64 
L 288.1347 224.64 
L 288.1347 86.981866 
L 286.629125 86.981866 
z
" clip-path="url(#p3d47e28772)" style="fill: #1f77b4"/>
   </g>
   <g id="patch_154">
    <path d="M 288.1347 224.64 
L 289.640275 224.64 
L 289.640275 103.141734 
L 288.1347 103.141734 
z
" clip-path="url(#p3d47e28772)" style="fill: #1f77b4"/>
   </g>
   <g id="patch_155">
    <path d="M 289.640275 224.64 
L 291.145849 224.64 
L 291.145849 97.755111 
L 289.640275 97.755111 
z
" clip-path="url(#p3d47e28772)" style="fill: #1f77b4"/>
   </g>
   <g id="patch_156">
    <path d="M 291.145849 224.64 
L 292.651424 224.64 
L 292.651424 104.338761 
L 291.145849 104.338761 
z
" clip-path="url(#p3d47e28772)" style="fill: #1f77b4"/>
   </g>
   <g id="patch_157">
    <path d="M 292.651424 224.64 
L 294.156999 224.64 
L 294.156999 115.71052 
L 292.651424 115.71052 
z
" clip-path="url(#p3d47e28772)" style="fill: #1f77b4"/>
   </g>
   <g id="patch_158">
    <path d="M 294.156999 224.64 
L 295.662573 224.64 
L 295.662573 106.134302 
L 294.156999 106.134302 
z
" clip-path="url(#p3d47e28772)" style="fill: #1f77b4"/>
   </g>
   <g id="patch_159">
    <path d="M 295.662573 224.64 
L 297.168148 224.64 
L 297.168148 112.717952 
L 295.662573 112.717952 
z
" clip-path="url(#p3d47e28772)" style="fill: #1f77b4"/>
   </g>
   <g id="patch_160">
    <path d="M 297.168148 224.64 
L 298.673723 224.64 
L 298.673723 110.323898 
L 297.168148 110.323898 
z
" clip-path="url(#p3d47e28772)" style="fill: #1f77b4"/>
   </g>
   <g id="patch_161">
    <path d="M 298.673723 224.64 
L 300.179297 224.64 
L 300.179297 122.892684 
L 298.673723 122.892684 
z
" clip-path="url(#p3d47e28772)" style="fill: #1f77b4"/>
   </g>
   <g id="patch_162">
    <path d="M 300.179297 224.64 
L 301.684872 224.64 
L 301.684872 115.71052 
L 300.179297 115.71052 
z
" clip-path="url(#p3d47e28772)" style="fill: #1f77b4"/>
   </g>
   <g id="patch_163">
    <path d="M 301.684872 224.64 
L 303.190446 224.64 
L 303.190446 115.71052 
L 301.684872 115.71052 
z
" clip-path="url(#p3d47e28772)" style="fill: #1f77b4"/>
   </g>
   <g id="patch_164">
    <path d="M 303.190446 224.64 
L 304.696021 224.64 
L 304.696021 97.755111 
L 303.190446 97.755111 
z
" clip-path="url(#p3d47e28772)" style="fill: #1f77b4"/>
   </g>
   <g id="patch_165">
    <path d="M 304.696021 224.64 
L 306.201596 224.64 
L 306.201596 113.914979 
L 304.696021 113.914979 
z
" clip-path="url(#p3d47e28772)" style="fill: #1f77b4"/>
   </g>
   <g id="patch_166">
    <path d="M 306.201596 224.64 
L 307.70717 224.64 
L 307.70717 123.491197 
L 306.201596 123.491197 
z
" clip-path="url(#p3d47e28772)" style="fill: #1f77b4"/>
   </g>
   <g id="patch_167">
    <path d="M 307.70717 224.64 
L 309.212745 224.64 
L 309.212745 119.301602 
L 307.70717 119.301602 
z
" clip-path="url(#p3d47e28772)" style="fill: #1f77b4"/>
   </g>
   <g id="patch_168">
    <path d="M 309.212745 224.64 
L 310.71832 224.64 
L 310.71832 136.059983 
L 309.212745 136.059983 
z
" clip-path="url(#p3d47e28772)" style="fill: #1f77b4"/>
   </g>
   <g id="patch_169">
    <path d="M 310.71832 224.64 
L 312.223894 224.64 
L 312.223894 121.695656 
L 310.71832 121.695656 
z
" clip-path="url(#p3d47e28772)" style="fill: #1f77b4"/>
   </g>
   <g id="patch_170">
    <path d="M 312.223894 224.64 
L 313.729469 224.64 
L 313.729469 143.242147 
L 312.223894 143.242147 
z
" clip-path="url(#p3d47e28772)" style="fill: #1f77b4"/>
   </g>
   <g id="patch_171">
    <path d="M 313.729469 224.64 
L 315.235044 224.64 
L 315.235044 137.855524 
L 313.729469 137.855524 
z
" clip-path="url(#p3d47e28772)" style="fill: #1f77b4"/>
   </g>
   <g id="patch_172">
    <path d="M 315.235044 224.64 
L 316.740618 224.64 
L 316.740618 131.271874 
L 315.235044 131.271874 
z
" clip-path="url(#p3d47e28772)" style="fill: #1f77b4"/>
   </g>
   <g id="patch_173">
    <path d="M 316.740618 224.64 
L 318.246193 224.64 
L 318.246193 134.862956 
L 316.740618 134.862956 
z
" clip-path="url(#p3d47e28772)" style="fill: #1f77b4"/>
   </g>
   <g id="patch_174">
    <path d="M 318.246193 224.64 
L 319.751768 224.64 
L 319.751768 142.643633 
L 318.246193 142.643633 
z
" clip-path="url(#p3d47e28772)" style="fill: #1f77b4"/>
   </g>
   <g id="patch_175">
    <path d="M 319.751768 224.64 
L 321.257342 224.64 
L 321.257342 162.993097 
L 319.751768 162.993097 
z
" clip-path="url(#p3d47e28772)" style="fill: #1f77b4"/>
   </g>
   <g id="patch_176">
    <path d="M 321.257342 224.64 
L 322.762917 224.64 
L 322.762917 145.037688 
L 321.257342 145.037688 
z
" clip-path="url(#p3d47e28772)" style="fill: #1f77b4"/>
   </g>
   <g id="patch_177">
    <path d="M 322.762917 224.64 
L 324.268491 224.64 
L 324.268491 143.242147 
L 322.762917 143.242147 
z
" clip-path="url(#p3d47e28772)" style="fill: #1f77b4"/>
   </g>
   <g id="patch_178">
    <path d="M 324.268491 224.64 
L 325.774066 224.64 
L 325.774066 159.402015 
L 324.268491 159.402015 
z
" clip-path="url(#p3d47e28772)" style="fill: #1f77b4"/>
   </g>
   <g id="patch_179">
    <path d="M 325.774066 224.64 
L 327.279641 224.64 
L 327.279641 151.022824 
L 325.774066 151.022824 
z
" clip-path="url(#p3d47e28772)" style="fill: #1f77b4"/>
   </g>
   <g id="patch_180">
    <path d="M 327.279641 224.64 
L 328.785215 224.64 
L 328.785215 170.17526 
L 327.279641 170.17526 
z
" clip-path="url(#p3d47e28772)" style="fill: #1f77b4"/>
   </g>
   <g id="patch_181">
    <path d="M 328.785215 224.64 
L 330.29079 224.64 
L 330.29079 165.985665 
L 328.785215 165.985665 
z
" clip-path="url(#p3d47e28772)" style="fill: #1f77b4"/>
   </g>
   <g id="patch_182">
    <path d="M 330.29079 224.64 
L 331.796365 224.64 
L 331.796365 164.190124 
L 330.29079 164.190124 
z
" clip-path="url(#p3d47e28772)" style="fill: #1f77b4"/>
   </g>
   <g id="patch_183">
    <path d="M 331.796365 224.64 
L 333.301939 224.64 
L 333.301939 164.190124 
L 331.796365 164.190124 
z
" clip-path="url(#p3d47e28772)" style="fill: #1f77b4"/>
   </g>
   <g id="patch_184">
    <path d="M 333.301939 224.64 
L 334.807514 224.64 
L 334.807514 169.576746 
L 333.301939 169.576746 
z
" clip-path="url(#p3d47e28772)" style="fill: #1f77b4"/>
   </g>
   <g id="patch_185">
    <path d="M 334.807514 224.64 
L 336.313089 224.64 
L 336.313089 178.554451 
L 334.807514 178.554451 
z
" clip-path="url(#p3d47e28772)" style="fill: #1f77b4"/>
   </g>
   <g id="patch_186">
    <path d="M 336.313089 224.64 
L 337.818663 224.64 
L 337.818663 175.561883 
L 336.313089 175.561883 
z
" clip-path="url(#p3d47e28772)" style="fill: #1f77b4"/>
   </g>
   <g id="patch_187">
    <path d="M 337.818663 224.64 
L 339.324238 224.64 
L 339.324238 187.532155 
L 337.818663 187.532155 
z
" clip-path="url(#p3d47e28772)" style="fill: #1f77b4"/>
   </g>
   <g id="patch_188">
    <path d="M 339.324238 224.64 
L 340.829813 224.64 
L 340.829813 187.532155 
L 339.324238 187.532155 
z
" clip-path="url(#p3d47e28772)" style="fill: #1f77b4"/>
   </g>
   <g id="patch_189">
    <path d="M 340.829813 224.64 
L 342.335387 224.64 
L 342.335387 171.970801 
L 340.829813 171.970801 
z
" clip-path="url(#p3d47e28772)" style="fill: #1f77b4"/>
   </g>
   <g id="patch_190">
    <path d="M 342.335387 224.64 
L 343.840962 224.64 
L 343.840962 189.327696 
L 342.335387 189.327696 
z
" clip-path="url(#p3d47e28772)" style="fill: #1f77b4"/>
   </g>
   <g id="patch_191">
    <path d="M 343.840962 224.64 
L 345.346536 224.64 
L 345.346536 190.524723 
L 343.840962 190.524723 
z
" clip-path="url(#p3d47e28772)" style="fill: #1f77b4"/>
   </g>
   <g id="patch_192">
    <path d="M 345.346536 224.64 
L 346.852111 224.64 
L 346.852111 186.335128 
L 345.346536 186.335128 
z
" clip-path="url(#p3d47e28772)" style="fill: #1f77b4"/>
   </g>
   <g id="patch_193">
    <path d="M 346.852111 224.64 
L 348.357686 224.64 
L 348.357686 198.903914 
L 346.852111 198.903914 
z
" clip-path="url(#p3d47e28772)" style="fill: #1f77b4"/>
   </g>
   <g id="patch_194">
    <path d="M 348.357686 224.64 
L 349.86326 224.64 
L 349.86326 204.290537 
L 348.357686 204.290537 
z
" clip-path="url(#p3d47e28772)" style="fill: #1f77b4"/>
   </g>
   <g id="patch_195">
    <path d="M 349.86326 224.64 
L 351.368835 224.64 
L 351.368835 198.3054 
L 349.86326 198.3054 
z
" clip-path="url(#p3d47e28772)" style="fill: #1f77b4"/>
   </g>
   <g id="patch_196">
    <path d="M 351.368835 224.64 
L 352.87441 224.64 
L 352.87441 200.100941 
L 351.368835 200.100941 
z
" clip-path="url(#p3d47e28772)" style="fill: #1f77b4"/>
   </g>
   <g id="patch_197">
    <path d="M 352.87441 224.64 
L 354.379984 224.64 
L 354.379984 210.874187 
L 352.87441 210.874187 
z
" clip-path="url(#p3d47e28772)" style="fill: #1f77b4"/>
   </g>
   <g id="patch_198">
    <path d="M 354.379984 224.64 
L 355.885559 224.64 
L 355.885559 212.669727 
L 354.379984 212.669727 
z
" clip-path="url(#p3d47e28772)" style="fill: #1f77b4"/>
   </g>
   <g id="patch_199">
    <path d="M 355.885559 224.64 
L 357.391134 224.64 
L 357.391134 215.063782 
L 355.885559 215.063782 
z
" clip-path="url(#p3d47e28772)" style="fill: #1f77b4"/>
   </g>
   <g id="patch_200">
    <path d="M 357.391134 224.64 
L 358.896708 224.64 
L 358.896708 212.669727 
L 357.391134 212.669727 
z
" clip-path="url(#p3d47e28772)" style="fill: #1f77b4"/>
   </g>
   <g id="patch_201">
    <path d="M 358.896708 224.64 
L 360.402283 224.64 
L 360.402283 218.05635 
L 358.896708 218.05635 
z
" clip-path="url(#p3d47e28772)" style="fill: #1f77b4"/>
   </g>
   <g id="patch_202">
    <path d="M 360.402283 224.64 
L 361.907858 224.64 
L 361.907858 220.450405 
L 360.402283 220.450405 
z
" clip-path="url(#p3d47e28772)" style="fill: #1f77b4"/>
   </g>
   <g id="matplotlib.axis_1">
    <g id="xtick_1">
     <g id="line2d_1">
      <defs>
       <path id="m5190fc81c3" d="M 0 0 
L 0 3.5 
" style="stroke: #000000; stroke-width: 0.8"/>
      </defs>
      <g>
       <use xlink:href="#m5190fc81c3" x="58.999432" y="224.64" style="stroke: #000000; stroke-width: 0.8"/>
      </g>
     </g>
     <g id="text_1">
      <!-- 0.0 -->
      <g transform="translate(51.047869 239.238437)scale(0.1 -0.1)">
       <defs>
        <path id="DejaVuSans-30" d="M 2034 4250 
Q 1547 4250 1301 3770 
Q 1056 3291 1056 2328 
Q 1056 1369 1301 889 
Q 1547 409 2034 409 
Q 2525 409 2770 889 
Q 3016 1369 3016 2328 
Q 3016 3291 2770 3770 
Q 2525 4250 2034 4250 
z
M 2034 4750 
Q 2819 4750 3233 4129 
Q 3647 3509 3647 2328 
Q 3647 1150 3233 529 
Q 2819 -91 2034 -91 
Q 1250 -91 836 529 
Q 422 1150 422 2328 
Q 422 3509 836 4129 
Q 1250 4750 2034 4750 
z
" transform="scale(0.015625)"/>
        <path id="DejaVuSans-2e" d="M 684 794 
L 1344 794 
L 1344 0 
L 684 0 
L 684 794 
z
" transform="scale(0.015625)"/>
       </defs>
       <use xlink:href="#DejaVuSans-30"/>
       <use xlink:href="#DejaVuSans-2e" x="63.623047"/>
       <use xlink:href="#DejaVuSans-30" x="95.410156"/>
      </g>
     </g>
    </g>
    <g id="xtick_2">
     <g id="line2d_2">
      <g>
       <use xlink:href="#m5190fc81c3" x="97.752214" y="224.64" style="stroke: #000000; stroke-width: 0.8"/>
      </g>
     </g>
     <g id="text_2">
      <!-- 0.2 -->
      <g transform="translate(89.800651 239.238437)scale(0.1 -0.1)">
       <defs>
        <path id="DejaVuSans-32" d="M 1228 531 
L 3431 531 
L 3431 0 
L 469 0 
L 469 531 
Q 828 903 1448 1529 
Q 2069 2156 2228 2338 
Q 2531 2678 2651 2914 
Q 2772 3150 2772 3378 
Q 2772 3750 2511 3984 
Q 2250 4219 1831 4219 
Q 1534 4219 1204 4116 
Q 875 4013 500 3803 
L 500 4441 
Q 881 4594 1212 4672 
Q 1544 4750 1819 4750 
Q 2544 4750 2975 4387 
Q 3406 4025 3406 3419 
Q 3406 3131 3298 2873 
Q 3191 2616 2906 2266 
Q 2828 2175 2409 1742 
Q 1991 1309 1228 531 
z
" transform="scale(0.015625)"/>
       </defs>
       <use xlink:href="#DejaVuSans-30"/>
       <use xlink:href="#DejaVuSans-2e" x="63.623047"/>
       <use xlink:href="#DejaVuSans-32" x="95.410156"/>
      </g>
     </g>
    </g>
    <g id="xtick_3">
     <g id="line2d_3">
      <g>
       <use xlink:href="#m5190fc81c3" x="136.504995" y="224.64" style="stroke: #000000; stroke-width: 0.8"/>
      </g>
     </g>
     <g id="text_3">
      <!-- 0.4 -->
      <g transform="translate(128.553433 239.238437)scale(0.1 -0.1)">
       <defs>
        <path id="DejaVuSans-34" d="M 2419 4116 
L 825 1625 
L 2419 1625 
L 2419 4116 
z
M 2253 4666 
L 3047 4666 
L 3047 1625 
L 3713 1625 
L 3713 1100 
L 3047 1100 
L 3047 0 
L 2419 0 
L 2419 1100 
L 313 1100 
L 313 1709 
L 2253 4666 
z
" transform="scale(0.015625)"/>
       </defs>
       <use xlink:href="#DejaVuSans-30"/>
       <use xlink:href="#DejaVuSans-2e" x="63.623047"/>
       <use xlink:href="#DejaVuSans-34" x="95.410156"/>
      </g>
     </g>
    </g>
    <g id="xtick_4">
     <g id="line2d_4">
      <g>
       <use xlink:href="#m5190fc81c3" x="175.257777" y="224.64" style="stroke: #000000; stroke-width: 0.8"/>
      </g>
     </g>
     <g id="text_4">
      <!-- 0.6 -->
      <g transform="translate(167.306215 239.238437)scale(0.1 -0.1)">
       <defs>
        <path id="DejaVuSans-36" d="M 2113 2584 
Q 1688 2584 1439 2293 
Q 1191 2003 1191 1497 
Q 1191 994 1439 701 
Q 1688 409 2113 409 
Q 2538 409 2786 701 
Q 3034 994 3034 1497 
Q 3034 2003 2786 2293 
Q 2538 2584 2113 2584 
z
M 3366 4563 
L 3366 3988 
Q 3128 4100 2886 4159 
Q 2644 4219 2406 4219 
Q 1781 4219 1451 3797 
Q 1122 3375 1075 2522 
Q 1259 2794 1537 2939 
Q 1816 3084 2150 3084 
Q 2853 3084 3261 2657 
Q 3669 2231 3669 1497 
Q 3669 778 3244 343 
Q 2819 -91 2113 -91 
Q 1303 -91 875 529 
Q 447 1150 447 2328 
Q 447 3434 972 4092 
Q 1497 4750 2381 4750 
Q 2619 4750 2861 4703 
Q 3103 4656 3366 4563 
z
" transform="scale(0.015625)"/>
       </defs>
       <use xlink:href="#DejaVuSans-30"/>
       <use xlink:href="#DejaVuSans-2e" x="63.623047"/>
       <use xlink:href="#DejaVuSans-36" x="95.410156"/>
      </g>
     </g>
    </g>
    <g id="xtick_5">
     <g id="line2d_5">
      <g>
       <use xlink:href="#m5190fc81c3" x="214.010559" y="224.64" style="stroke: #000000; stroke-width: 0.8"/>
      </g>
     </g>
     <g id="text_5">
      <!-- 0.8 -->
      <g transform="translate(206.058996 239.238437)scale(0.1 -0.1)">
       <defs>
        <path id="DejaVuSans-38" d="M 2034 2216 
Q 1584 2216 1326 1975 
Q 1069 1734 1069 1313 
Q 1069 891 1326 650 
Q 1584 409 2034 409 
Q 2484 409 2743 651 
Q 3003 894 3003 1313 
Q 3003 1734 2745 1975 
Q 2488 2216 2034 2216 
z
M 1403 2484 
Q 997 2584 770 2862 
Q 544 3141 544 3541 
Q 544 4100 942 4425 
Q 1341 4750 2034 4750 
Q 2731 4750 3128 4425 
Q 3525 4100 3525 3541 
Q 3525 3141 3298 2862 
Q 3072 2584 2669 2484 
Q 3125 2378 3379 2068 
Q 3634 1759 3634 1313 
Q 3634 634 3220 271 
Q 2806 -91 2034 -91 
Q 1263 -91 848 271 
Q 434 634 434 1313 
Q 434 1759 690 2068 
Q 947 2378 1403 2484 
z
M 1172 3481 
Q 1172 3119 1398 2916 
Q 1625 2713 2034 2713 
Q 2441 2713 2670 2916 
Q 2900 3119 2900 3481 
Q 2900 3844 2670 4047 
Q 2441 4250 2034 4250 
Q 1625 4250 1398 4047 
Q 1172 3844 1172 3481 
z
" transform="scale(0.015625)"/>
       </defs>
       <use xlink:href="#DejaVuSans-30"/>
       <use xlink:href="#DejaVuSans-2e" x="63.623047"/>
       <use xlink:href="#DejaVuSans-38" x="95.410156"/>
      </g>
     </g>
    </g>
    <g id="xtick_6">
     <g id="line2d_6">
      <g>
       <use xlink:href="#m5190fc81c3" x="252.763341" y="224.64" style="stroke: #000000; stroke-width: 0.8"/>
      </g>
     </g>
     <g id="text_6">
      <!-- 1.0 -->
      <g transform="translate(244.811778 239.238437)scale(0.1 -0.1)">
       <defs>
        <path id="DejaVuSans-31" d="M 794 531 
L 1825 531 
L 1825 4091 
L 703 3866 
L 703 4441 
L 1819 4666 
L 2450 4666 
L 2450 531 
L 3481 531 
L 3481 0 
L 794 0 
L 794 531 
z
" transform="scale(0.015625)"/>
       </defs>
       <use xlink:href="#DejaVuSans-31"/>
       <use xlink:href="#DejaVuSans-2e" x="63.623047"/>
       <use xlink:href="#DejaVuSans-30" x="95.410156"/>
      </g>
     </g>
    </g>
    <g id="xtick_7">
     <g id="line2d_7">
      <g>
       <use xlink:href="#m5190fc81c3" x="291.516122" y="224.64" style="stroke: #000000; stroke-width: 0.8"/>
      </g>
     </g>
     <g id="text_7">
      <!-- 1.2 -->
      <g transform="translate(283.56456 239.238437)scale(0.1 -0.1)">
       <use xlink:href="#DejaVuSans-31"/>
       <use xlink:href="#DejaVuSans-2e" x="63.623047"/>
       <use xlink:href="#DejaVuSans-32" x="95.410156"/>
      </g>
     </g>
    </g>
    <g id="xtick_8">
     <g id="line2d_8">
      <g>
       <use xlink:href="#m5190fc81c3" x="330.268904" y="224.64" style="stroke: #000000; stroke-width: 0.8"/>
      </g>
     </g>
     <g id="text_8">
      <!-- 1.4 -->
      <g transform="translate(322.317342 239.238437)scale(0.1 -0.1)">
       <use xlink:href="#DejaVuSans-31"/>
       <use xlink:href="#DejaVuSans-2e" x="63.623047"/>
       <use xlink:href="#DejaVuSans-34" x="95.410156"/>
      </g>
     </g>
    </g>
    <g id="xtick_9">
     <g id="line2d_9">
      <g>
       <use xlink:href="#m5190fc81c3" x="369.021686" y="224.64" style="stroke: #000000; stroke-width: 0.8"/>
      </g>
     </g>
     <g id="text_9">
      <!-- 1.6 -->
      <g transform="translate(361.070124 239.238437)scale(0.1 -0.1)">
       <use xlink:href="#DejaVuSans-31"/>
       <use xlink:href="#DejaVuSans-2e" x="63.623047"/>
       <use xlink:href="#DejaVuSans-36" x="95.410156"/>
      </g>
     </g>
    </g>
    <g id="text_10">
     <!-- Angle with normal (rad) -->
     <g transform="translate(151.863281 252.916562)scale(0.1 -0.1)">
      <defs>
       <path id="DejaVuSans-41" d="M 2188 4044 
L 1331 1722 
L 3047 1722 
L 2188 4044 
z
M 1831 4666 
L 2547 4666 
L 4325 0 
L 3669 0 
L 3244 1197 
L 1141 1197 
L 716 0 
L 50 0 
L 1831 4666 
z
" transform="scale(0.015625)"/>
       <path id="DejaVuSans-6e" d="M 3513 2113 
L 3513 0 
L 2938 0 
L 2938 2094 
Q 2938 2591 2744 2837 
Q 2550 3084 2163 3084 
Q 1697 3084 1428 2787 
Q 1159 2491 1159 1978 
L 1159 0 
L 581 0 
L 581 3500 
L 1159 3500 
L 1159 2956 
Q 1366 3272 1645 3428 
Q 1925 3584 2291 3584 
Q 2894 3584 3203 3211 
Q 3513 2838 3513 2113 
z
" transform="scale(0.015625)"/>
       <path id="DejaVuSans-67" d="M 2906 1791 
Q 2906 2416 2648 2759 
Q 2391 3103 1925 3103 
Q 1463 3103 1205 2759 
Q 947 2416 947 1791 
Q 947 1169 1205 825 
Q 1463 481 1925 481 
Q 2391 481 2648 825 
Q 2906 1169 2906 1791 
z
M 3481 434 
Q 3481 -459 3084 -895 
Q 2688 -1331 1869 -1331 
Q 1566 -1331 1297 -1286 
Q 1028 -1241 775 -1147 
L 775 -588 
Q 1028 -725 1275 -790 
Q 1522 -856 1778 -856 
Q 2344 -856 2625 -561 
Q 2906 -266 2906 331 
L 2906 616 
Q 2728 306 2450 153 
Q 2172 0 1784 0 
Q 1141 0 747 490 
Q 353 981 353 1791 
Q 353 2603 747 3093 
Q 1141 3584 1784 3584 
Q 2172 3584 2450 3431 
Q 2728 3278 2906 2969 
L 2906 3500 
L 3481 3500 
L 3481 434 
z
" transform="scale(0.015625)"/>
       <path id="DejaVuSans-6c" d="M 603 4863 
L 1178 4863 
L 1178 0 
L 603 0 
L 603 4863 
z
" transform="scale(0.015625)"/>
       <path id="DejaVuSans-65" d="M 3597 1894 
L 3597 1613 
L 953 1613 
Q 991 1019 1311 708 
Q 1631 397 2203 397 
Q 2534 397 2845 478 
Q 3156 559 3463 722 
L 3463 178 
Q 3153 47 2828 -22 
Q 2503 -91 2169 -91 
Q 1331 -91 842 396 
Q 353 884 353 1716 
Q 353 2575 817 3079 
Q 1281 3584 2069 3584 
Q 2775 3584 3186 3129 
Q 3597 2675 3597 1894 
z
M 3022 2063 
Q 3016 2534 2758 2815 
Q 2500 3097 2075 3097 
Q 1594 3097 1305 2825 
Q 1016 2553 972 2059 
L 3022 2063 
z
" transform="scale(0.015625)"/>
       <path id="DejaVuSans-20" transform="scale(0.015625)"/>
       <path id="DejaVuSans-77" d="M 269 3500 
L 844 3500 
L 1563 769 
L 2278 3500 
L 2956 3500 
L 3675 769 
L 4391 3500 
L 4966 3500 
L 4050 0 
L 3372 0 
L 2619 2869 
L 1863 0 
L 1184 0 
L 269 3500 
z
" transform="scale(0.015625)"/>
       <path id="DejaVuSans-69" d="M 603 3500 
L 1178 3500 
L 1178 0 
L 603 0 
L 603 3500 
z
M 603 4863 
L 1178 4863 
L 1178 4134 
L 603 4134 
L 603 4863 
z
" transform="scale(0.015625)"/>
       <path id="DejaVuSans-74" d="M 1172 4494 
L 1172 3500 
L 2356 3500 
L 2356 3053 
L 1172 3053 
L 1172 1153 
Q 1172 725 1289 603 
Q 1406 481 1766 481 
L 2356 481 
L 2356 0 
L 1766 0 
Q 1100 0 847 248 
Q 594 497 594 1153 
L 594 3053 
L 172 3053 
L 172 3500 
L 594 3500 
L 594 4494 
L 1172 4494 
z
" transform="scale(0.015625)"/>
       <path id="DejaVuSans-68" d="M 3513 2113 
L 3513 0 
L 2938 0 
L 2938 2094 
Q 2938 2591 2744 2837 
Q 2550 3084 2163 3084 
Q 1697 3084 1428 2787 
Q 1159 2491 1159 1978 
L 1159 0 
L 581 0 
L 581 4863 
L 1159 4863 
L 1159 2956 
Q 1366 3272 1645 3428 
Q 1925 3584 2291 3584 
Q 2894 3584 3203 3211 
Q 3513 2838 3513 2113 
z
" transform="scale(0.015625)"/>
       <path id="DejaVuSans-6f" d="M 1959 3097 
Q 1497 3097 1228 2736 
Q 959 2375 959 1747 
Q 959 1119 1226 758 
Q 1494 397 1959 397 
Q 2419 397 2687 759 
Q 2956 1122 2956 1747 
Q 2956 2369 2687 2733 
Q 2419 3097 1959 3097 
z
M 1959 3584 
Q 2709 3584 3137 3096 
Q 3566 2609 3566 1747 
Q 3566 888 3137 398 
Q 2709 -91 1959 -91 
Q 1206 -91 779 398 
Q 353 888 353 1747 
Q 353 2609 779 3096 
Q 1206 3584 1959 3584 
z
" transform="scale(0.015625)"/>
       <path id="DejaVuSans-72" d="M 2631 2963 
Q 2534 3019 2420 3045 
Q 2306 3072 2169 3072 
Q 1681 3072 1420 2755 
Q 1159 2438 1159 1844 
L 1159 0 
L 581 0 
L 581 3500 
L 1159 3500 
L 1159 2956 
Q 1341 3275 1631 3429 
Q 1922 3584 2338 3584 
Q 2397 3584 2469 3576 
Q 2541 3569 2628 3553 
L 2631 2963 
z
" transform="scale(0.015625)"/>
       <path id="DejaVuSans-6d" d="M 3328 2828 
Q 3544 3216 3844 3400 
Q 4144 3584 4550 3584 
Q 5097 3584 5394 3201 
Q 5691 2819 5691 2113 
L 5691 0 
L 5113 0 
L 5113 2094 
Q 5113 2597 4934 2840 
Q 4756 3084 4391 3084 
Q 3944 3084 3684 2787 
Q 3425 2491 3425 1978 
L 3425 0 
L 2847 0 
L 2847 2094 
Q 2847 2600 2669 2842 
Q 2491 3084 2119 3084 
Q 1678 3084 1418 2786 
Q 1159 2488 1159 1978 
L 1159 0 
L 581 0 
L 581 3500 
L 1159 3500 
L 1159 2956 
Q 1356 3278 1631 3431 
Q 1906 3584 2284 3584 
Q 2666 3584 2933 3390 
Q 3200 3197 3328 2828 
z
" transform="scale(0.015625)"/>
       <path id="DejaVuSans-61" d="M 2194 1759 
Q 1497 1759 1228 1600 
Q 959 1441 959 1056 
Q 959 750 1161 570 
Q 1363 391 1709 391 
Q 2188 391 2477 730 
Q 2766 1069 2766 1631 
L 2766 1759 
L 2194 1759 
z
M 3341 1997 
L 3341 0 
L 2766 0 
L 2766 531 
Q 2569 213 2275 61 
Q 1981 -91 1556 -91 
Q 1019 -91 701 211 
Q 384 513 384 1019 
Q 384 1609 779 1909 
Q 1175 2209 1959 2209 
L 2766 2209 
L 2766 2266 
Q 2766 2663 2505 2880 
Q 2244 3097 1772 3097 
Q 1472 3097 1187 3025 
Q 903 2953 641 2809 
L 641 3341 
Q 956 3463 1253 3523 
Q 1550 3584 1831 3584 
Q 2591 3584 2966 3190 
Q 3341 2797 3341 1997 
z
" transform="scale(0.015625)"/>
       <path id="DejaVuSans-28" d="M 1984 4856 
Q 1566 4138 1362 3434 
Q 1159 2731 1159 2009 
Q 1159 1288 1364 580 
Q 1569 -128 1984 -844 
L 1484 -844 
Q 1016 -109 783 600 
Q 550 1309 550 2009 
Q 550 2706 781 3412 
Q 1013 4119 1484 4856 
L 1984 4856 
z
" transform="scale(0.015625)"/>
       <path id="DejaVuSans-64" d="M 2906 2969 
L 2906 4863 
L 3481 4863 
L 3481 0 
L 2906 0 
L 2906 525 
Q 2725 213 2448 61 
Q 2172 -91 1784 -91 
Q 1150 -91 751 415 
Q 353 922 353 1747 
Q 353 2572 751 3078 
Q 1150 3584 1784 3584 
Q 2172 3584 2448 3432 
Q 2725 3281 2906 2969 
z
M 947 1747 
Q 947 1113 1208 752 
Q 1469 391 1925 391 
Q 2381 391 2643 752 
Q 2906 1113 2906 1747 
Q 2906 2381 2643 2742 
Q 2381 3103 1925 3103 
Q 1469 3103 1208 2742 
Q 947 2381 947 1747 
z
" transform="scale(0.015625)"/>
       <path id="DejaVuSans-29" d="M 513 4856 
L 1013 4856 
Q 1481 4119 1714 3412 
Q 1947 2706 1947 2009 
Q 1947 1309 1714 600 
Q 1481 -109 1013 -844 
L 513 -844 
Q 928 -128 1133 580 
Q 1338 1288 1338 2009 
Q 1338 2731 1133 3434 
Q 928 4138 513 4856 
z
" transform="scale(0.015625)"/>
      </defs>
      <use xlink:href="#DejaVuSans-41"/>
      <use xlink:href="#DejaVuSans-6e" x="68.408203"/>
      <use xlink:href="#DejaVuSans-67" x="131.787109"/>
      <use xlink:href="#DejaVuSans-6c" x="195.263672"/>
      <use xlink:href="#DejaVuSans-65" x="223.046875"/>
      <use xlink:href="#DejaVuSans-20" x="284.570312"/>
      <use xlink:href="#DejaVuSans-77" x="316.357422"/>
      <use xlink:href="#DejaVuSans-69" x="398.144531"/>
      <use xlink:href="#DejaVuSans-74" x="425.927734"/>
      <use xlink:href="#DejaVuSans-68" x="465.136719"/>
      <use xlink:href="#DejaVuSans-20" x="528.515625"/>
      <use xlink:href="#DejaVuSans-6e" x="560.302734"/>
      <use xlink:href="#DejaVuSans-6f" x="623.681641"/>
      <use xlink:href="#DejaVuSans-72" x="684.863281"/>
      <use xlink:href="#DejaVuSans-6d" x="724.226562"/>
      <use xlink:href="#DejaVuSans-61" x="821.638672"/>
      <use xlink:href="#DejaVuSans-6c" x="882.917969"/>
      <use xlink:href="#DejaVuSans-20" x="910.701172"/>
      <use xlink:href="#DejaVuSans-28" x="942.488281"/>
      <use xlink:href="#DejaVuSans-72" x="981.501953"/>
      <use xlink:href="#DejaVuSans-61" x="1022.615234"/>
      <use xlink:href="#DejaVuSans-64" x="1083.894531"/>
      <use xlink:href="#DejaVuSans-29" x="1147.371094"/>
     </g>
    </g>
   </g>
   <g id="matplotlib.axis_2">
    <g id="ytick_1">
     <g id="line2d_10">
      <defs>
       <path id="md38b811429" d="M 0 0 
L -3.5 0 
" style="stroke: #000000; stroke-width: 0.8"/>
      </defs>
      <g>
       <use xlink:href="#md38b811429" x="43.78125" y="224.64" style="stroke: #000000; stroke-width: 0.8"/>
      </g>
     </g>
     <g id="text_11">
      <!-- 0.0 -->
      <g transform="translate(20.878125 228.439219)scale(0.1 -0.1)">
       <use xlink:href="#DejaVuSans-30"/>
       <use xlink:href="#DejaVuSans-2e" x="63.623047"/>
       <use xlink:href="#DejaVuSans-30" x="95.410156"/>
      </g>
     </g>
    </g>
    <g id="ytick_2">
     <g id="line2d_11">
      <g>
       <use xlink:href="#md38b811429" x="43.78125" y="187.435675" style="stroke: #000000; stroke-width: 0.8"/>
      </g>
     </g>
     <g id="text_12">
      <!-- 0.2 -->
      <g transform="translate(20.878125 191.234893)scale(0.1 -0.1)">
       <use xlink:href="#DejaVuSans-30"/>
       <use xlink:href="#DejaVuSans-2e" x="63.623047"/>
       <use xlink:href="#DejaVuSans-32" x="95.410156"/>
      </g>
     </g>
    </g>
    <g id="ytick_3">
     <g id="line2d_12">
      <g>
       <use xlink:href="#md38b811429" x="43.78125" y="150.231349" style="stroke: #000000; stroke-width: 0.8"/>
      </g>
     </g>
     <g id="text_13">
      <!-- 0.4 -->
      <g transform="translate(20.878125 154.030568)scale(0.1 -0.1)">
       <use xlink:href="#DejaVuSans-30"/>
       <use xlink:href="#DejaVuSans-2e" x="63.623047"/>
       <use xlink:href="#DejaVuSans-34" x="95.410156"/>
      </g>
     </g>
    </g>
    <g id="ytick_4">
     <g id="line2d_13">
      <g>
       <use xlink:href="#md38b811429" x="43.78125" y="113.027024" style="stroke: #000000; stroke-width: 0.8"/>
      </g>
     </g>
     <g id="text_14">
      <!-- 0.6 -->
      <g transform="translate(20.878125 116.826243)scale(0.1 -0.1)">
       <use xlink:href="#DejaVuSans-30"/>
       <use xlink:href="#DejaVuSans-2e" x="63.623047"/>
       <use xlink:href="#DejaVuSans-36" x="95.410156"/>
      </g>
     </g>
    </g>
    <g id="ytick_5">
     <g id="line2d_14">
      <g>
       <use xlink:href="#md38b811429" x="43.78125" y="75.822699" style="stroke: #000000; stroke-width: 0.8"/>
      </g>
     </g>
     <g id="text_15">
      <!-- 0.8 -->
      <g transform="translate(20.878125 79.621918)scale(0.1 -0.1)">
       <use xlink:href="#DejaVuSans-30"/>
       <use xlink:href="#DejaVuSans-2e" x="63.623047"/>
       <use xlink:href="#DejaVuSans-38" x="95.410156"/>
      </g>
     </g>
    </g>
    <g id="ytick_6">
     <g id="line2d_15">
      <g>
       <use xlink:href="#md38b811429" x="43.78125" y="38.618373" style="stroke: #000000; stroke-width: 0.8"/>
      </g>
     </g>
     <g id="text_16">
      <!-- 1.0 -->
      <g transform="translate(20.878125 42.417592)scale(0.1 -0.1)">
       <use xlink:href="#DejaVuSans-31"/>
       <use xlink:href="#DejaVuSans-2e" x="63.623047"/>
       <use xlink:href="#DejaVuSans-30" x="95.410156"/>
      </g>
     </g>
    </g>
    <g id="text_17">
     <!-- Probability density -->
     <g transform="translate(14.798438 162.270781)rotate(-90)scale(0.1 -0.1)">
      <defs>
       <path id="DejaVuSans-50" d="M 1259 4147 
L 1259 2394 
L 2053 2394 
Q 2494 2394 2734 2622 
Q 2975 2850 2975 3272 
Q 2975 3691 2734 3919 
Q 2494 4147 2053 4147 
L 1259 4147 
z
M 628 4666 
L 2053 4666 
Q 2838 4666 3239 4311 
Q 3641 3956 3641 3272 
Q 3641 2581 3239 2228 
Q 2838 1875 2053 1875 
L 1259 1875 
L 1259 0 
L 628 0 
L 628 4666 
z
" transform="scale(0.015625)"/>
       <path id="DejaVuSans-62" d="M 3116 1747 
Q 3116 2381 2855 2742 
Q 2594 3103 2138 3103 
Q 1681 3103 1420 2742 
Q 1159 2381 1159 1747 
Q 1159 1113 1420 752 
Q 1681 391 2138 391 
Q 2594 391 2855 752 
Q 3116 1113 3116 1747 
z
M 1159 2969 
Q 1341 3281 1617 3432 
Q 1894 3584 2278 3584 
Q 2916 3584 3314 3078 
Q 3713 2572 3713 1747 
Q 3713 922 3314 415 
Q 2916 -91 2278 -91 
Q 1894 -91 1617 61 
Q 1341 213 1159 525 
L 1159 0 
L 581 0 
L 581 4863 
L 1159 4863 
L 1159 2969 
z
" transform="scale(0.015625)"/>
       <path id="DejaVuSans-79" d="M 2059 -325 
Q 1816 -950 1584 -1140 
Q 1353 -1331 966 -1331 
L 506 -1331 
L 506 -850 
L 844 -850 
Q 1081 -850 1212 -737 
Q 1344 -625 1503 -206 
L 1606 56 
L 191 3500 
L 800 3500 
L 1894 763 
L 2988 3500 
L 3597 3500 
L 2059 -325 
z
" transform="scale(0.015625)"/>
       <path id="DejaVuSans-73" d="M 2834 3397 
L 2834 2853 
Q 2591 2978 2328 3040 
Q 2066 3103 1784 3103 
Q 1356 3103 1142 2972 
Q 928 2841 928 2578 
Q 928 2378 1081 2264 
Q 1234 2150 1697 2047 
L 1894 2003 
Q 2506 1872 2764 1633 
Q 3022 1394 3022 966 
Q 3022 478 2636 193 
Q 2250 -91 1575 -91 
Q 1294 -91 989 -36 
Q 684 19 347 128 
L 347 722 
Q 666 556 975 473 
Q 1284 391 1588 391 
Q 1994 391 2212 530 
Q 2431 669 2431 922 
Q 2431 1156 2273 1281 
Q 2116 1406 1581 1522 
L 1381 1569 
Q 847 1681 609 1914 
Q 372 2147 372 2553 
Q 372 3047 722 3315 
Q 1072 3584 1716 3584 
Q 2034 3584 2315 3537 
Q 2597 3491 2834 3397 
z
" transform="scale(0.015625)"/>
      </defs>
      <use xlink:href="#DejaVuSans-50"/>
      <use xlink:href="#DejaVuSans-72" x="58.552734"/>
      <use xlink:href="#DejaVuSans-6f" x="97.416016"/>
      <use xlink:href="#DejaVuSans-62" x="158.597656"/>
      <use xlink:href="#DejaVuSans-61" x="222.074219"/>
      <use xlink:href="#DejaVuSans-62" x="283.353516"/>
      <use xlink:href="#DejaVuSans-69" x="346.830078"/>
      <use xlink:href="#DejaVuSans-6c" x="374.613281"/>
      <use xlink:href="#DejaVuSans-69" x="402.396484"/>
      <use xlink:href="#DejaVuSans-74" x="430.179688"/>
      <use xlink:href="#DejaVuSans-79" x="469.388672"/>
      <use xlink:href="#DejaVuSans-20" x="528.568359"/>
      <use xlink:href="#DejaVuSans-64" x="560.355469"/>
      <use xlink:href="#DejaVuSans-65" x="623.832031"/>
      <use xlink:href="#DejaVuSans-6e" x="685.355469"/>
      <use xlink:href="#DejaVuSans-73" x="748.734375"/>
      <use xlink:href="#DejaVuSans-69" x="800.833984"/>
      <use xlink:href="#DejaVuSans-74" x="828.617188"/>
      <use xlink:href="#DejaVuSans-79" x="867.826172"/>
     </g>
    </g>
   </g>
   <g id="line2d_16">
    <path d="M 58.999432 224.64 
L 77.888867 188.60003 
L 88.247589 169.33022 
L 96.778302 153.925776 
L 104.395009 140.631295 
L 111.097712 129.358806 
L 117.495746 119.023229 
L 123.589112 109.607262 
L 129.37781 101.08288 
L 134.86184 93.413449 
L 140.041201 86.555674 
L 144.915894 80.461384 
L 149.790587 74.732032 
L 154.360611 69.705111 
L 158.625967 65.324085 
L 162.891324 61.251815 
L 167.15668 57.496191 
L 171.117368 54.298726 
L 175.078056 51.385914 
L 179.038744 48.762622 
L 182.694764 46.60189 
L 186.350783 44.694668 
L 190.006803 43.04367 
L 193.662822 41.651247 
L 197.014174 40.60371 
L 200.365525 39.776371 
L 203.716877 39.170222 
L 207.068228 38.785985 
L 210.419579 38.624122 
L 213.770931 38.684826 
L 217.122282 38.968025 
L 220.473633 39.473379 
L 223.824985 40.200284 
L 227.176336 41.14787 
L 230.527687 42.315004 
L 234.183707 43.836985 
L 237.839727 45.616412 
L 241.495746 47.650751 
L 245.151766 49.937105 
L 248.807786 52.472219 
L 252.768474 55.495115 
L 256.729162 58.800665 
L 260.68985 62.383344 
L 264.955206 66.544662 
L 269.220562 71.012369 
L 273.790587 76.129348 
L 278.360611 81.576718 
L 283.235304 87.737743 
L 288.414665 94.663144 
L 293.594026 101.959933 
L 299.078056 110.067559 
L 304.866754 119.023229 
L 310.96012 128.856852 
L 317.662822 140.109774 
L 324.974862 152.845035 
L 332.896238 167.100523 
L 342.036287 184.020677 
L 353.613682 205.951926 
L 363.363068 224.64 
L 363.363068 224.64 
" clip-path="url(#p3d47e28772)" style="fill: none; stroke: #ff7f0e; stroke-width: 1.5; stroke-linecap: square"/>
   </g>
   <g id="patch_203">
    <path d="M 43.78125 224.64 
L 43.78125 7.2 
" style="fill: none; stroke: #000000; stroke-width: 0.8; stroke-linejoin: miter; stroke-linecap: square"/>
   </g>
   <g id="patch_204">
    <path d="M 378.58125 224.64 
L 378.58125 7.2 
" style="fill: none; stroke: #000000; stroke-width: 0.8; stroke-linejoin: miter; stroke-linecap: square"/>
   </g>
   <g id="patch_205">
    <path d="M 43.78125 224.64 
L 378.58125 224.64 
" style="fill: none; stroke: #000000; stroke-width: 0.8; stroke-linejoin: miter; stroke-linecap: square"/>
   </g>
   <g id="patch_206">
    <path d="M 43.78125 7.2 
L 378.58125 7.2 
" style="fill: none; stroke: #000000; stroke-width: 0.8; stroke-linejoin: miter; stroke-linecap: square"/>
   </g>
  </g>
 </g>
 <defs>
  <clipPath id="p3d47e28772">
   <rect x="43.78125" y="7.2" width="334.8" height="217.44"/>
  </clipPath>
 </defs>
</svg>
