<?xml version="1.0" encoding="utf-8" standalone="no"?>
<!DOCTYPE svg PUBLIC "-//W3C//DTD SVG 1.1//EN"
  "http://www.w3.org/Graphics/SVG/1.1/DTD/svg11.dtd">
<svg xmlns:xlink="http://www.w3.org/1999/xlink" width="385.78125pt" height="262.19625pt" viewBox="0 0 385.78125 262.19625" xmlns="http://www.w3.org/2000/svg" version="1.1">
 <metadata>
  <rdf:RDF xmlns:dc="http://purl.org/dc/elements/1.1/" xmlns:cc="http://creativecommons.org/ns#" xmlns:rdf="http://www.w3.org/1999/02/22-rdf-syntax-ns#">
   <cc:Work>
    <dc:type rdf:resource="http://purl.org/dc/dcmitype/StillImage"/>
    <dc:date>2022-08-10T17:50:08.682922</dc:date>
    <dc:format>image/svg+xml</dc:format>
    <dc:creator>
     <cc:Agent>
      <dc:title>Matplotlib v3.5.2, https://matplotlib.org/</dc:title>
     </cc:Agent>
    </dc:creator>
   </cc:Work>
  </rdf:RDF>
 </metadata>
 <defs>
  <style type="text/css">*{stroke-linejoin: round; stroke-linecap: butt}</style>
 </defs>
 <g id="figure_1">
  <g id="patch_1">
   <path d="M 0 262.19625 
L 385.78125 262.19625 
L 385.78125 0 
L 0 0 
L 0 262.19625 
z
" style="fill: none"/>
  </g>
  <g id="axes_1">
   <g id="patch_2">
    <path d="M 43.78125 224.64 
L 378.58125 224.64 
L 378.58125 7.2 
L 43.78125 7.2 
z
" style="fill: #ffffff"/>
   </g>
   <g id="patch_3">
    <path d="M 59.630074 224.64 
L 61.145209 224.64 
L 61.145209 221.833961 
L 59.630074 221.833961 
z
" clip-path="url(#p84374fa868)" style="fill: #1f77b4"/>
   </g>
   <g id="patch_4">
    <path d="M 61.145209 224.64 
L 62.660343 224.64 
L 62.660343 219.589129 
L 61.145209 219.589129 
z
" clip-path="url(#p84374fa868)" style="fill: #1f77b4"/>
   </g>
   <g id="patch_5">
    <path d="M 62.660343 224.64 
L 64.175478 224.64 
L 64.175478 215.099466 
L 62.660343 215.099466 
z
" clip-path="url(#p84374fa868)" style="fill: #1f77b4"/>
   </g>
   <g id="patch_6">
    <path d="M 64.175478 224.64 
L 65.690613 224.64 
L 65.690613 216.783089 
L 64.175478 216.783089 
z
" clip-path="url(#p84374fa868)" style="fill: #1f77b4"/>
   </g>
   <g id="patch_7">
    <path d="M 65.690613 224.64 
L 67.205747 224.64 
L 67.205747 210.048595 
L 65.690613 210.048595 
z
" clip-path="url(#p84374fa868)" style="fill: #1f77b4"/>
   </g>
   <g id="patch_8">
    <path d="M 67.205747 224.64 
L 68.720882 224.64 
L 68.720882 206.681347 
L 67.205747 206.681347 
z
" clip-path="url(#p84374fa868)" style="fill: #1f77b4"/>
   </g>
   <g id="patch_9">
    <path d="M 68.720882 224.64 
L 70.236017 224.64 
L 70.236017 202.191684 
L 68.720882 202.191684 
z
" clip-path="url(#p84374fa868)" style="fill: #1f77b4"/>
   </g>
   <g id="patch_10">
    <path d="M 70.236017 224.64 
L 71.751151 224.64 
L 71.751151 207.242555 
L 70.236017 207.242555 
z
" clip-path="url(#p84374fa868)" style="fill: #1f77b4"/>
   </g>
   <g id="patch_11">
    <path d="M 71.751151 224.64 
L 73.266286 224.64 
L 73.266286 197.140813 
L 71.751151 197.140813 
z
" clip-path="url(#p84374fa868)" style="fill: #1f77b4"/>
   </g>
   <g id="patch_12">
    <path d="M 73.266286 224.64 
L 74.781421 224.64 
L 74.781421 201.069268 
L 73.266286 201.069268 
z
" clip-path="url(#p84374fa868)" style="fill: #1f77b4"/>
   </g>
   <g id="patch_13">
    <path d="M 74.781421 224.64 
L 76.296555 224.64 
L 76.296555 200.50806 
L 74.781421 200.50806 
z
" clip-path="url(#p84374fa868)" style="fill: #1f77b4"/>
   </g>
   <g id="patch_14">
    <path d="M 76.296555 224.64 
L 77.81169 224.64 
L 77.81169 196.018397 
L 76.296555 196.018397 
z
" clip-path="url(#p84374fa868)" style="fill: #1f77b4"/>
   </g>
   <g id="patch_15">
    <path d="M 77.81169 224.64 
L 79.326825 224.64 
L 79.326825 190.406318 
L 77.81169 190.406318 
z
" clip-path="url(#p84374fa868)" style="fill: #1f77b4"/>
   </g>
   <g id="patch_16">
    <path d="M 79.326825 224.64 
L 80.841959 224.64 
L 80.841959 185.355447 
L 79.326825 185.355447 
z
" clip-path="url(#p84374fa868)" style="fill: #1f77b4"/>
   </g>
   <g id="patch_17">
    <path d="M 80.841959 224.64 
L 82.357094 224.64 
L 82.357094 188.161487 
L 80.841959 188.161487 
z
" clip-path="url(#p84374fa868)" style="fill: #1f77b4"/>
   </g>
   <g id="patch_18">
    <path d="M 82.357094 224.64 
L 83.872229 224.64 
L 83.872229 190.967526 
L 82.357094 190.967526 
z
" clip-path="url(#p84374fa868)" style="fill: #1f77b4"/>
   </g>
   <g id="patch_19">
    <path d="M 83.872229 224.64 
L 85.387363 224.64 
L 85.387363 183.110616 
L 83.872229 183.110616 
z
" clip-path="url(#p84374fa868)" style="fill: #1f77b4"/>
   </g>
   <g id="patch_20">
    <path d="M 85.387363 224.64 
L 86.902498 224.64 
L 86.902498 177.498537 
L 85.387363 177.498537 
z
" clip-path="url(#p84374fa868)" style="fill: #1f77b4"/>
   </g>
   <g id="patch_21">
    <path d="M 86.902498 224.64 
L 88.417633 224.64 
L 88.417633 170.202834 
L 86.902498 170.202834 
z
" clip-path="url(#p84374fa868)" style="fill: #1f77b4"/>
   </g>
   <g id="patch_22">
    <path d="M 88.417633 224.64 
L 89.932767 224.64 
L 89.932767 172.447666 
L 88.417633 172.447666 
z
" clip-path="url(#p84374fa868)" style="fill: #1f77b4"/>
   </g>
   <g id="patch_23">
    <path d="M 89.932767 224.64 
L 91.447902 224.64 
L 91.447902 174.131289 
L 89.932767 174.131289 
z
" clip-path="url(#p84374fa868)" style="fill: #1f77b4"/>
   </g>
   <g id="patch_24">
    <path d="M 91.447902 224.64 
L 92.963037 224.64 
L 92.963037 169.641626 
L 91.447902 169.641626 
z
" clip-path="url(#p84374fa868)" style="fill: #1f77b4"/>
   </g>
   <g id="patch_25">
    <path d="M 92.963037 224.64 
L 94.478171 224.64 
L 94.478171 161.784715 
L 92.963037 161.784715 
z
" clip-path="url(#p84374fa868)" style="fill: #1f77b4"/>
   </g>
   <g id="patch_26">
    <path d="M 94.478171 224.64 
L 95.993306 224.64 
L 95.993306 167.396794 
L 94.478171 167.396794 
z
" clip-path="url(#p84374fa868)" style="fill: #1f77b4"/>
   </g>
   <g id="patch_27">
    <path d="M 95.993306 224.64 
L 97.508441 224.64 
L 97.508441 161.223508 
L 95.993306 161.223508 
z
" clip-path="url(#p84374fa868)" style="fill: #1f77b4"/>
   </g>
   <g id="patch_28">
    <path d="M 97.508441 224.64 
L 99.023575 224.64 
L 99.023575 143.826063 
L 97.508441 143.826063 
z
" clip-path="url(#p84374fa868)" style="fill: #1f77b4"/>
   </g>
   <g id="patch_29">
    <path d="M 99.023575 224.64 
L 100.53871 224.64 
L 100.53871 156.172636 
L 99.023575 156.172636 
z
" clip-path="url(#p84374fa868)" style="fill: #1f77b4"/>
   </g>
   <g id="patch_30">
    <path d="M 100.53871 224.64 
L 102.053845 224.64 
L 102.053845 154.489013 
L 100.53871 154.489013 
z
" clip-path="url(#p84374fa868)" style="fill: #1f77b4"/>
   </g>
   <g id="patch_31">
    <path d="M 102.053845 224.64 
L 103.568979 224.64 
L 103.568979 138.775192 
L 102.053845 138.775192 
z
" clip-path="url(#p84374fa868)" style="fill: #1f77b4"/>
   </g>
   <g id="patch_32">
    <path d="M 103.568979 224.64 
L 105.084114 224.64 
L 105.084114 143.264855 
L 103.568979 143.264855 
z
" clip-path="url(#p84374fa868)" style="fill: #1f77b4"/>
   </g>
   <g id="patch_33">
    <path d="M 105.084114 224.64 
L 106.599249 224.64 
L 106.599249 147.19331 
L 105.084114 147.19331 
z
" clip-path="url(#p84374fa868)" style="fill: #1f77b4"/>
   </g>
   <g id="patch_34">
    <path d="M 106.599249 224.64 
L 108.114383 224.64 
L 108.114383 148.876934 
L 106.599249 148.876934 
z
" clip-path="url(#p84374fa868)" style="fill: #1f77b4"/>
   </g>
   <g id="patch_35">
    <path d="M 108.114383 224.64 
L 109.629518 224.64 
L 109.629518 139.3364 
L 108.114383 139.3364 
z
" clip-path="url(#p84374fa868)" style="fill: #1f77b4"/>
   </g>
   <g id="patch_36">
    <path d="M 109.629518 224.64 
L 111.144653 224.64 
L 111.144653 137.652776 
L 109.629518 137.652776 
z
" clip-path="url(#p84374fa868)" style="fill: #1f77b4"/>
   </g>
   <g id="patch_37">
    <path d="M 111.144653 224.64 
L 112.659787 224.64 
L 112.659787 130.918281 
L 111.144653 130.918281 
z
" clip-path="url(#p84374fa868)" style="fill: #1f77b4"/>
   </g>
   <g id="patch_38">
    <path d="M 112.659787 224.64 
L 114.174922 224.64 
L 114.174922 123.622578 
L 112.659787 123.622578 
z
" clip-path="url(#p84374fa868)" style="fill: #1f77b4"/>
   </g>
   <g id="patch_39">
    <path d="M 114.174922 224.64 
L 115.690057 224.64 
L 115.690057 129.234657 
L 114.174922 129.234657 
z
" clip-path="url(#p84374fa868)" style="fill: #1f77b4"/>
   </g>
   <g id="patch_40">
    <path d="M 115.690057 224.64 
L 117.205191 224.64 
L 117.205191 112.39842 
L 115.690057 112.39842 
z
" clip-path="url(#p84374fa868)" style="fill: #1f77b4"/>
   </g>
   <g id="patch_41">
    <path d="M 117.205191 224.64 
L 118.720326 224.64 
L 118.720326 135.969152 
L 117.205191 135.969152 
z
" clip-path="url(#p84374fa868)" style="fill: #1f77b4"/>
   </g>
   <g id="patch_42">
    <path d="M 118.720326 224.64 
L 120.235461 224.64 
L 120.235461 130.918281 
L 118.720326 130.918281 
z
" clip-path="url(#p84374fa868)" style="fill: #1f77b4"/>
   </g>
   <g id="patch_43">
    <path d="M 120.235461 224.64 
L 121.750595 224.64 
L 121.750595 128.112242 
L 120.235461 128.112242 
z
" clip-path="url(#p84374fa868)" style="fill: #1f77b4"/>
   </g>
   <g id="patch_44">
    <path d="M 121.750595 224.64 
L 123.26573 224.64 
L 123.26573 122.500163 
L 121.750595 122.500163 
z
" clip-path="url(#p84374fa868)" style="fill: #1f77b4"/>
   </g>
   <g id="patch_45">
    <path d="M 123.26573 224.64 
L 124.780865 224.64 
L 124.780865 117.449292 
L 123.26573 117.449292 
z
" clip-path="url(#p84374fa868)" style="fill: #1f77b4"/>
   </g>
   <g id="patch_46">
    <path d="M 124.780865 224.64 
L 126.295999 224.64 
L 126.295999 112.39842 
L 124.780865 112.39842 
z
" clip-path="url(#p84374fa868)" style="fill: #1f77b4"/>
   </g>
   <g id="patch_47">
    <path d="M 126.295999 224.64 
L 127.811134 224.64 
L 127.811134 102.857886 
L 126.295999 102.857886 
z
" clip-path="url(#p84374fa868)" style="fill: #1f77b4"/>
   </g>
   <g id="patch_48">
    <path d="M 127.811134 224.64 
L 129.326269 224.64 
L 129.326269 114.643252 
L 127.811134 114.643252 
z
" clip-path="url(#p84374fa868)" style="fill: #1f77b4"/>
   </g>
   <g id="patch_49">
    <path d="M 129.326269 224.64 
L 130.841403 224.64 
L 130.841403 118.010499 
L 129.326269 118.010499 
z
" clip-path="url(#p84374fa868)" style="fill: #1f77b4"/>
   </g>
   <g id="patch_50">
    <path d="M 130.841403 224.64 
L 132.356538 224.64 
L 132.356538 96.123391 
L 130.841403 96.123391 
z
" clip-path="url(#p84374fa868)" style="fill: #1f77b4"/>
   </g>
   <g id="patch_51">
    <path d="M 132.356538 224.64 
L 133.871673 224.64 
L 133.871673 97.807015 
L 132.356538 97.807015 
z
" clip-path="url(#p84374fa868)" style="fill: #1f77b4"/>
   </g>
   <g id="patch_52">
    <path d="M 133.871673 224.64 
L 135.386807 224.64 
L 135.386807 88.266481 
L 133.871673 88.266481 
z
" clip-path="url(#p84374fa868)" style="fill: #1f77b4"/>
   </g>
   <g id="patch_53">
    <path d="M 135.386807 224.64 
L 136.901942 224.64 
L 136.901942 93.317352 
L 135.386807 93.317352 
z
" clip-path="url(#p84374fa868)" style="fill: #1f77b4"/>
   </g>
   <g id="patch_54">
    <path d="M 136.901942 224.64 
L 138.417077 224.64 
L 138.417077 98.368223 
L 136.901942 98.368223 
z
" clip-path="url(#p84374fa868)" style="fill: #1f77b4"/>
   </g>
   <g id="patch_55">
    <path d="M 138.417077 224.64 
L 139.932211 224.64 
L 139.932211 88.266481 
L 138.417077 88.266481 
z
" clip-path="url(#p84374fa868)" style="fill: #1f77b4"/>
   </g>
   <g id="patch_56">
    <path d="M 139.932211 224.64 
L 141.447346 224.64 
L 141.447346 92.756144 
L 139.932211 92.756144 
z
" clip-path="url(#p84374fa868)" style="fill: #1f77b4"/>
   </g>
   <g id="patch_57">
    <path d="M 141.447346 224.64 
L 142.962481 224.64 
L 142.962481 78.164739 
L 141.447346 78.164739 
z
" clip-path="url(#p84374fa868)" style="fill: #1f77b4"/>
   </g>
   <g id="patch_58">
    <path d="M 142.962481 224.64 
L 144.477615 224.64 
L 144.477615 83.21561 
L 142.962481 83.21561 
z
" clip-path="url(#p84374fa868)" style="fill: #1f77b4"/>
   </g>
   <g id="patch_59">
    <path d="M 144.477615 224.64 
L 145.99275 224.64 
L 145.99275 97.245807 
L 144.477615 97.245807 
z
" clip-path="url(#p84374fa868)" style="fill: #1f77b4"/>
   </g>
   <g id="patch_60">
    <path d="M 145.99275 224.64 
L 147.507885 224.64 
L 147.507885 74.236283 
L 145.99275 74.236283 
z
" clip-path="url(#p84374fa868)" style="fill: #1f77b4"/>
   </g>
   <g id="patch_61">
    <path d="M 147.507885 224.64 
L 149.023019 224.64 
L 149.023019 93.87856 
L 147.507885 93.87856 
z
" clip-path="url(#p84374fa868)" style="fill: #1f77b4"/>
   </g>
   <g id="patch_62">
    <path d="M 149.023019 224.64 
L 150.538154 224.64 
L 150.538154 84.338026 
L 149.023019 84.338026 
z
" clip-path="url(#p84374fa868)" style="fill: #1f77b4"/>
   </g>
   <g id="patch_63">
    <path d="M 150.538154 224.64 
L 152.053289 224.64 
L 152.053289 80.40957 
L 150.538154 80.40957 
z
" clip-path="url(#p84374fa868)" style="fill: #1f77b4"/>
   </g>
   <g id="patch_64">
    <path d="M 152.053289 224.64 
L 153.568423 224.64 
L 153.568423 84.899233 
L 152.053289 84.899233 
z
" clip-path="url(#p84374fa868)" style="fill: #1f77b4"/>
   </g>
   <g id="patch_65">
    <path d="M 153.568423 224.64 
L 155.083558 224.64 
L 155.083558 80.970778 
L 153.568423 80.970778 
z
" clip-path="url(#p84374fa868)" style="fill: #1f77b4"/>
   </g>
   <g id="patch_66">
    <path d="M 155.083558 224.64 
L 156.598693 224.64 
L 156.598693 66.940581 
L 155.083558 66.940581 
z
" clip-path="url(#p84374fa868)" style="fill: #1f77b4"/>
   </g>
   <g id="patch_67">
    <path d="M 156.598693 224.64 
L 158.113827 224.64 
L 158.113827 70.869036 
L 156.598693 70.869036 
z
" clip-path="url(#p84374fa868)" style="fill: #1f77b4"/>
   </g>
   <g id="patch_68">
    <path d="M 158.113827 224.64 
L 159.628962 224.64 
L 159.628962 76.481115 
L 158.113827 76.481115 
z
" clip-path="url(#p84374fa868)" style="fill: #1f77b4"/>
   </g>
   <g id="patch_69">
    <path d="M 159.628962 224.64 
L 161.144097 224.64 
L 161.144097 63.573333 
L 159.628962 63.573333 
z
" clip-path="url(#p84374fa868)" style="fill: #1f77b4"/>
   </g>
   <g id="patch_70">
    <path d="M 161.144097 224.64 
L 162.659231 224.64 
L 162.659231 64.134541 
L 161.144097 64.134541 
z
" clip-path="url(#p84374fa868)" style="fill: #1f77b4"/>
   </g>
   <g id="patch_71">
    <path d="M 162.659231 224.64 
L 164.174366 224.64 
L 164.174366 73.675075 
L 162.659231 73.675075 
z
" clip-path="url(#p84374fa868)" style="fill: #1f77b4"/>
   </g>
   <g id="patch_72">
    <path d="M 164.174366 224.64 
L 165.689501 224.64 
L 165.689501 35.512938 
L 164.174366 35.512938 
z
" clip-path="url(#p84374fa868)" style="fill: #1f77b4"/>
   </g>
   <g id="patch_73">
    <path d="M 165.689501 224.64 
L 167.204635 224.64 
L 167.204635 80.40957 
L 165.689501 80.40957 
z
" clip-path="url(#p84374fa868)" style="fill: #1f77b4"/>
   </g>
   <g id="patch_74">
    <path d="M 167.204635 224.64 
L 168.71977 224.64 
L 168.71977 68.062997 
L 167.204635 68.062997 
z
" clip-path="url(#p84374fa868)" style="fill: #1f77b4"/>
   </g>
   <g id="patch_75">
    <path d="M 168.71977 224.64 
L 170.234905 224.64 
L 170.234905 63.012125 
L 168.71977 63.012125 
z
" clip-path="url(#p84374fa868)" style="fill: #1f77b4"/>
   </g>
   <g id="patch_76">
    <path d="M 170.234905 224.64 
L 171.750039 224.64 
L 171.750039 65.818165 
L 170.234905 65.818165 
z
" clip-path="url(#p84374fa868)" style="fill: #1f77b4"/>
   </g>
   <g id="patch_77">
    <path d="M 171.750039 224.64 
L 173.265174 224.64 
L 173.265174 83.21561 
L 171.750039 83.21561 
z
" clip-path="url(#p84374fa868)" style="fill: #1f77b4"/>
   </g>
   <g id="patch_78">
    <path d="M 173.265174 224.64 
L 174.780309 224.64 
L 174.780309 70.869036 
L 173.265174 70.869036 
z
" clip-path="url(#p84374fa868)" style="fill: #1f77b4"/>
   </g>
   <g id="patch_79">
    <path d="M 174.780309 224.64 
L 176.295444 224.64 
L 176.295444 58.522462 
L 174.780309 58.522462 
z
" clip-path="url(#p84374fa868)" style="fill: #1f77b4"/>
   </g>
   <g id="patch_80">
    <path d="M 176.295444 224.64 
L 177.810578 224.64 
L 177.810578 63.012125 
L 176.295444 63.012125 
z
" clip-path="url(#p84374fa868)" style="fill: #1f77b4"/>
   </g>
   <g id="patch_81">
    <path d="M 177.810578 224.64 
L 179.325713 224.64 
L 179.325713 60.206086 
L 177.810578 60.206086 
z
" clip-path="url(#p84374fa868)" style="fill: #1f77b4"/>
   </g>
   <g id="patch_82">
    <path d="M 179.325713 224.64 
L 180.840848 224.64 
L 180.840848 64.134541 
L 179.325713 64.134541 
z
" clip-path="url(#p84374fa868)" style="fill: #1f77b4"/>
   </g>
   <g id="patch_83">
    <path d="M 180.840848 224.64 
L 182.355982 224.64 
L 182.355982 56.277631 
L 180.840848 56.277631 
z
" clip-path="url(#p84374fa868)" style="fill: #1f77b4"/>
   </g>
   <g id="patch_84">
    <path d="M 182.355982 224.64 
L 183.871117 224.64 
L 183.871117 62.450918 
L 182.355982 62.450918 
z
" clip-path="url(#p84374fa868)" style="fill: #1f77b4"/>
   </g>
   <g id="patch_85">
    <path d="M 183.871117 224.64 
L 185.386252 224.64 
L 185.386252 66.379373 
L 183.871117 66.379373 
z
" clip-path="url(#p84374fa868)" style="fill: #1f77b4"/>
   </g>
   <g id="patch_86">
    <path d="M 185.386252 224.64 
L 186.901386 224.64 
L 186.901386 40.56381 
L 185.386252 40.56381 
z
" clip-path="url(#p84374fa868)" style="fill: #1f77b4"/>
   </g>
   <g id="patch_87">
    <path d="M 186.901386 224.64 
L 188.416521 224.64 
L 188.416521 51.787967 
L 186.901386 51.787967 
z
" clip-path="url(#p84374fa868)" style="fill: #1f77b4"/>
   </g>
   <g id="patch_88">
    <path d="M 188.416521 224.64 
L 189.931656 224.64 
L 189.931656 64.134541 
L 188.416521 64.134541 
z
" clip-path="url(#p84374fa868)" style="fill: #1f77b4"/>
   </g>
   <g id="patch_89">
    <path d="M 189.931656 224.64 
L 191.44679 224.64 
L 191.44679 47.859512 
L 189.931656 47.859512 
z
" clip-path="url(#p84374fa868)" style="fill: #1f77b4"/>
   </g>
   <g id="patch_90">
    <path d="M 191.44679 224.64 
L 192.961925 224.64 
L 192.961925 42.808641 
L 191.44679 42.808641 
z
" clip-path="url(#p84374fa868)" style="fill: #1f77b4"/>
   </g>
   <g id="patch_91">
    <path d="M 192.961925 224.64 
L 194.47706 224.64 
L 194.47706 59.08367 
L 192.961925 59.08367 
z
" clip-path="url(#p84374fa868)" style="fill: #1f77b4"/>
   </g>
   <g id="patch_92">
    <path d="M 194.47706 224.64 
L 195.992194 224.64 
L 195.992194 43.931057 
L 194.47706 43.931057 
z
" clip-path="url(#p84374fa868)" style="fill: #1f77b4"/>
   </g>
   <g id="patch_93">
    <path d="M 195.992194 224.64 
L 197.507329 224.64 
L 197.507329 56.277631 
L 195.992194 56.277631 
z
" clip-path="url(#p84374fa868)" style="fill: #1f77b4"/>
   </g>
   <g id="patch_94">
    <path d="M 197.507329 224.64 
L 199.022464 224.64 
L 199.022464 64.695749 
L 197.507329 64.695749 
z
" clip-path="url(#p84374fa868)" style="fill: #1f77b4"/>
   </g>
   <g id="patch_95">
    <path d="M 199.022464 224.64 
L 200.537598 224.64 
L 200.537598 46.175889 
L 199.022464 46.175889 
z
" clip-path="url(#p84374fa868)" style="fill: #1f77b4"/>
   </g>
   <g id="patch_96">
    <path d="M 200.537598 224.64 
L 202.052733 224.64 
L 202.052733 36.635354 
L 200.537598 36.635354 
z
" clip-path="url(#p84374fa868)" style="fill: #1f77b4"/>
   </g>
   <g id="patch_97">
    <path d="M 202.052733 224.64 
L 203.567868 224.64 
L 203.567868 48.981928 
L 202.052733 48.981928 
z
" clip-path="url(#p84374fa868)" style="fill: #1f77b4"/>
   </g>
   <g id="patch_98">
    <path d="M 203.567868 224.64 
L 205.083002 224.64 
L 205.083002 56.838839 
L 203.567868 56.838839 
z
" clip-path="url(#p84374fa868)" style="fill: #1f77b4"/>
   </g>
   <g id="patch_99">
    <path d="M 205.083002 224.64 
L 206.598137 224.64 
L 206.598137 45.614681 
L 205.083002 45.614681 
z
" clip-path="url(#p84374fa868)" style="fill: #1f77b4"/>
   </g>
   <g id="patch_100">
    <path d="M 206.598137 224.64 
L 208.113272 224.64 
L 208.113272 43.369849 
L 206.598137 43.369849 
z
" clip-path="url(#p84374fa868)" style="fill: #1f77b4"/>
   </g>
   <g id="patch_101">
    <path d="M 208.113272 224.64 
L 209.628406 224.64 
L 209.628406 46.175889 
L 208.113272 46.175889 
z
" clip-path="url(#p84374fa868)" style="fill: #1f77b4"/>
   </g>
   <g id="patch_102">
    <path d="M 209.628406 224.64 
L 211.143541 224.64 
L 211.143541 54.032799 
L 209.628406 54.032799 
z
" clip-path="url(#p84374fa868)" style="fill: #1f77b4"/>
   </g>
   <g id="patch_103">
    <path d="M 211.143541 224.64 
L 212.658676 224.64 
L 212.658676 38.318978 
L 211.143541 38.318978 
z
" clip-path="url(#p84374fa868)" style="fill: #1f77b4"/>
   </g>
   <g id="patch_104">
    <path d="M 212.658676 224.64 
L 214.17381 224.64 
L 214.17381 48.42072 
L 212.658676 48.42072 
z
" clip-path="url(#p84374fa868)" style="fill: #1f77b4"/>
   </g>
   <g id="patch_105">
    <path d="M 214.17381 224.64 
L 215.688945 224.64 
L 215.688945 52.349175 
L 214.17381 52.349175 
z
" clip-path="url(#p84374fa868)" style="fill: #1f77b4"/>
   </g>
   <g id="patch_106">
    <path d="M 215.688945 224.64 
L 217.20408 224.64 
L 217.20408 41.125017 
L 215.688945 41.125017 
z
" clip-path="url(#p84374fa868)" style="fill: #1f77b4"/>
   </g>
   <g id="patch_107">
    <path d="M 217.20408 224.64 
L 218.719214 224.64 
L 218.719214 17.554286 
L 217.20408 17.554286 
z
" clip-path="url(#p84374fa868)" style="fill: #1f77b4"/>
   </g>
   <g id="patch_108">
    <path d="M 218.719214 224.64 
L 220.234349 224.64 
L 220.234349 46.175889 
L 218.719214 46.175889 
z
" clip-path="url(#p84374fa868)" style="fill: #1f77b4"/>
   </g>
   <g id="patch_109">
    <path d="M 220.234349 224.64 
L 221.749484 224.64 
L 221.749484 36.635354 
L 220.234349 36.635354 
z
" clip-path="url(#p84374fa868)" style="fill: #1f77b4"/>
   </g>
   <g id="patch_110">
    <path d="M 221.749484 224.64 
L 223.264618 224.64 
L 223.264618 43.931057 
L 221.749484 43.931057 
z
" clip-path="url(#p84374fa868)" style="fill: #1f77b4"/>
   </g>
   <g id="patch_111">
    <path d="M 223.264618 224.64 
L 224.779753 224.64 
L 224.779753 43.931057 
L 223.264618 43.931057 
z
" clip-path="url(#p84374fa868)" style="fill: #1f77b4"/>
   </g>
   <g id="patch_112">
    <path d="M 224.779753 224.64 
L 226.294888 224.64 
L 226.294888 53.471591 
L 224.779753 53.471591 
z
" clip-path="url(#p84374fa868)" style="fill: #1f77b4"/>
   </g>
   <g id="patch_113">
    <path d="M 226.294888 224.64 
L 227.810022 224.64 
L 227.810022 75.358699 
L 226.294888 75.358699 
z
" clip-path="url(#p84374fa868)" style="fill: #1f77b4"/>
   </g>
   <g id="patch_114">
    <path d="M 227.810022 224.64 
L 229.325157 224.64 
L 229.325157 54.032799 
L 227.810022 54.032799 
z
" clip-path="url(#p84374fa868)" style="fill: #1f77b4"/>
   </g>
   <g id="patch_115">
    <path d="M 229.325157 224.64 
L 230.840292 224.64 
L 230.840292 57.400046 
L 229.325157 57.400046 
z
" clip-path="url(#p84374fa868)" style="fill: #1f77b4"/>
   </g>
   <g id="patch_116">
    <path d="M 230.840292 224.64 
L 232.355426 224.64 
L 232.355426 57.400046 
L 230.840292 57.400046 
z
" clip-path="url(#p84374fa868)" style="fill: #1f77b4"/>
   </g>
   <g id="patch_117">
    <path d="M 232.355426 224.64 
L 233.870561 224.64 
L 233.870561 51.22676 
L 232.355426 51.22676 
z
" clip-path="url(#p84374fa868)" style="fill: #1f77b4"/>
   </g>
   <g id="patch_118">
    <path d="M 233.870561 224.64 
L 235.385696 224.64 
L 235.385696 52.910383 
L 233.870561 52.910383 
z
" clip-path="url(#p84374fa868)" style="fill: #1f77b4"/>
   </g>
   <g id="patch_119">
    <path d="M 235.385696 224.64 
L 236.90083 224.64 
L 236.90083 59.644878 
L 235.385696 59.644878 
z
" clip-path="url(#p84374fa868)" style="fill: #1f77b4"/>
   </g>
   <g id="patch_120">
    <path d="M 236.90083 224.64 
L 238.415965 224.64 
L 238.415965 60.767294 
L 236.90083 60.767294 
z
" clip-path="url(#p84374fa868)" style="fill: #1f77b4"/>
   </g>
   <g id="patch_121">
    <path d="M 238.415965 224.64 
L 239.9311 224.64 
L 239.9311 41.686225 
L 238.415965 41.686225 
z
" clip-path="url(#p84374fa868)" style="fill: #1f77b4"/>
   </g>
   <g id="patch_122">
    <path d="M 239.9311 224.64 
L 241.446234 224.64 
L 241.446234 51.787967 
L 239.9311 51.787967 
z
" clip-path="url(#p84374fa868)" style="fill: #1f77b4"/>
   </g>
   <g id="patch_123">
    <path d="M 241.446234 224.64 
L 242.961369 224.64 
L 242.961369 70.307828 
L 241.446234 70.307828 
z
" clip-path="url(#p84374fa868)" style="fill: #1f77b4"/>
   </g>
   <g id="patch_124">
    <path d="M 242.961369 224.64 
L 244.476504 224.64 
L 244.476504 37.75777 
L 242.961369 37.75777 
z
" clip-path="url(#p84374fa868)" style="fill: #1f77b4"/>
   </g>
   <g id="patch_125">
    <path d="M 244.476504 224.64 
L 245.991638 224.64 
L 245.991638 66.379373 
L 244.476504 66.379373 
z
" clip-path="url(#p84374fa868)" style="fill: #1f77b4"/>
   </g>
   <g id="patch_126">
    <path d="M 245.991638 224.64 
L 247.506773 224.64 
L 247.506773 48.981928 
L 245.991638 48.981928 
z
" clip-path="url(#p84374fa868)" style="fill: #1f77b4"/>
   </g>
   <g id="patch_127">
    <path d="M 247.506773 224.64 
L 249.021908 224.64 
L 249.021908 55.155215 
L 247.506773 55.155215 
z
" clip-path="url(#p84374fa868)" style="fill: #1f77b4"/>
   </g>
   <g id="patch_128">
    <path d="M 249.021908 224.64 
L 250.537042 224.64 
L 250.537042 66.379373 
L 249.021908 66.379373 
z
" clip-path="url(#p84374fa868)" style="fill: #1f77b4"/>
   </g>
   <g id="patch_129">
    <path d="M 250.537042 224.64 
L 252.052177 224.64 
L 252.052177 80.40957 
L 250.537042 80.40957 
z
" clip-path="url(#p84374fa868)" style="fill: #1f77b4"/>
   </g>
   <g id="patch_130">
    <path d="M 252.052177 224.64 
L 253.567312 224.64 
L 253.567312 87.144065 
L 252.052177 87.144065 
z
" clip-path="url(#p84374fa868)" style="fill: #1f77b4"/>
   </g>
   <g id="patch_131">
    <path d="M 253.567312 224.64 
L 255.082446 224.64 
L 255.082446 55.155215 
L 253.567312 55.155215 
z
" clip-path="url(#p84374fa868)" style="fill: #1f77b4"/>
   </g>
   <g id="patch_132">
    <path d="M 255.082446 224.64 
L 256.597581 224.64 
L 256.597581 55.716423 
L 255.082446 55.716423 
z
" clip-path="url(#p84374fa868)" style="fill: #1f77b4"/>
   </g>
   <g id="patch_133">
    <path d="M 256.597581 224.64 
L 258.112716 224.64 
L 258.112716 83.21561 
L 256.597581 83.21561 
z
" clip-path="url(#p84374fa868)" style="fill: #1f77b4"/>
   </g>
   <g id="patch_134">
    <path d="M 258.112716 224.64 
L 259.62785 224.64 
L 259.62785 74.797491 
L 258.112716 74.797491 
z
" clip-path="url(#p84374fa868)" style="fill: #1f77b4"/>
   </g>
   <g id="patch_135">
    <path d="M 259.62785 224.64 
L 261.142985 224.64 
L 261.142985 74.236283 
L 259.62785 74.236283 
z
" clip-path="url(#p84374fa868)" style="fill: #1f77b4"/>
   </g>
   <g id="patch_136">
    <path d="M 261.142985 224.64 
L 262.65812 224.64 
L 262.65812 69.74662 
L 261.142985 69.74662 
z
" clip-path="url(#p84374fa868)" style="fill: #1f77b4"/>
   </g>
   <g id="patch_137">
    <path d="M 262.65812 224.64 
L 264.173254 224.64 
L 264.173254 78.164739 
L 262.65812 78.164739 
z
" clip-path="url(#p84374fa868)" style="fill: #1f77b4"/>
   </g>
   <g id="patch_138">
    <path d="M 264.173254 224.64 
L 265.688389 224.64 
L 265.688389 57.400046 
L 264.173254 57.400046 
z
" clip-path="url(#p84374fa868)" style="fill: #1f77b4"/>
   </g>
   <g id="patch_139">
    <path d="M 265.688389 224.64 
L 267.203524 224.64 
L 267.203524 82.654402 
L 265.688389 82.654402 
z
" clip-path="url(#p84374fa868)" style="fill: #1f77b4"/>
   </g>
   <g id="patch_140">
    <path d="M 267.203524 224.64 
L 268.718658 224.64 
L 268.718658 89.950105 
L 267.203524 89.950105 
z
" clip-path="url(#p84374fa868)" style="fill: #1f77b4"/>
   </g>
   <g id="patch_141">
    <path d="M 268.718658 224.64 
L 270.233793 224.64 
L 270.233793 82.093194 
L 268.718658 82.093194 
z
" clip-path="url(#p84374fa868)" style="fill: #1f77b4"/>
   </g>
   <g id="patch_142">
    <path d="M 270.233793 224.64 
L 271.748928 224.64 
L 271.748928 54.032799 
L 270.233793 54.032799 
z
" clip-path="url(#p84374fa868)" style="fill: #1f77b4"/>
   </g>
   <g id="patch_143">
    <path d="M 271.748928 224.64 
L 273.264062 224.64 
L 273.264062 84.899233 
L 271.748928 84.899233 
z
" clip-path="url(#p84374fa868)" style="fill: #1f77b4"/>
   </g>
   <g id="patch_144">
    <path d="M 273.264062 224.64 
L 274.779197 224.64 
L 274.779197 96.123391 
L 273.264062 96.123391 
z
" clip-path="url(#p84374fa868)" style="fill: #1f77b4"/>
   </g>
   <g id="patch_145">
    <path d="M 274.779197 224.64 
L 276.294332 224.64 
L 276.294332 85.460441 
L 274.779197 85.460441 
z
" clip-path="url(#p84374fa868)" style="fill: #1f77b4"/>
   </g>
   <g id="patch_146">
    <path d="M 276.294332 224.64 
L 277.809466 224.64 
L 277.809466 108.469965 
L 276.294332 108.469965 
z
" clip-path="url(#p84374fa868)" style="fill: #1f77b4"/>
   </g>
   <g id="patch_147">
    <path d="M 277.809466 224.64 
L 279.324601 224.64 
L 279.324601 93.317352 
L 277.809466 93.317352 
z
" clip-path="url(#p84374fa868)" style="fill: #1f77b4"/>
   </g>
   <g id="patch_148">
    <path d="M 279.324601 224.64 
L 280.839736 224.64 
L 280.839736 92.194936 
L 279.324601 92.194936 
z
" clip-path="url(#p84374fa868)" style="fill: #1f77b4"/>
   </g>
   <g id="patch_149">
    <path d="M 280.839736 224.64 
L 282.35487 224.64 
L 282.35487 96.123391 
L 280.839736 96.123391 
z
" clip-path="url(#p84374fa868)" style="fill: #1f77b4"/>
   </g>
   <g id="patch_150">
    <path d="M 282.35487 224.64 
L 283.870005 224.64 
L 283.870005 114.082044 
L 282.35487 114.082044 
z
" clip-path="url(#p84374fa868)" style="fill: #1f77b4"/>
   </g>
   <g id="patch_151">
    <path d="M 283.870005 224.64 
L 285.38514 224.64 
L 285.38514 106.225134 
L 283.870005 106.225134 
z
" clip-path="url(#p84374fa868)" style="fill: #1f77b4"/>
   </g>
   <g id="patch_152">
    <path d="M 285.38514 224.64 
L 286.900274 224.64 
L 286.900274 93.317352 
L 285.38514 93.317352 
z
" clip-path="url(#p84374fa868)" style="fill: #1f77b4"/>
   </g>
   <g id="patch_153">
    <path d="M 286.900274 224.64 
L 288.415409 224.64 
L 288.415409 102.857886 
L 286.900274 102.857886 
z
" clip-path="url(#p84374fa868)" style="fill: #1f77b4"/>
   </g>
   <g id="patch_154">
    <path d="M 288.415409 224.64 
L 289.930544 224.64 
L 289.930544 101.73547 
L 288.415409 101.73547 
z
" clip-path="url(#p84374fa868)" style="fill: #1f77b4"/>
   </g>
   <g id="patch_155">
    <path d="M 289.930544 224.64 
L 291.445678 224.64 
L 291.445678 96.684599 
L 289.930544 96.684599 
z
" clip-path="url(#p84374fa868)" style="fill: #1f77b4"/>
   </g>
   <g id="patch_156">
    <path d="M 291.445678 224.64 
L 292.960813 224.64 
L 292.960813 112.39842 
L 291.445678 112.39842 
z
" clip-path="url(#p84374fa868)" style="fill: #1f77b4"/>
   </g>
   <g id="patch_157">
    <path d="M 292.960813 224.64 
L 294.475948 224.64 
L 294.475948 104.54151 
L 292.960813 104.54151 
z
" clip-path="url(#p84374fa868)" style="fill: #1f77b4"/>
   </g>
   <g id="patch_158">
    <path d="M 294.475948 224.64 
L 295.991082 224.64 
L 295.991082 118.571707 
L 294.475948 118.571707 
z
" clip-path="url(#p84374fa868)" style="fill: #1f77b4"/>
   </g>
   <g id="patch_159">
    <path d="M 295.991082 224.64 
L 297.506217 224.64 
L 297.506217 120.816539 
L 295.991082 120.816539 
z
" clip-path="url(#p84374fa868)" style="fill: #1f77b4"/>
   </g>
   <g id="patch_160">
    <path d="M 297.506217 224.64 
L 299.021352 224.64 
L 299.021352 125.86741 
L 297.506217 125.86741 
z
" clip-path="url(#p84374fa868)" style="fill: #1f77b4"/>
   </g>
   <g id="patch_161">
    <path d="M 299.021352 224.64 
L 300.536486 224.64 
L 300.536486 90.511312 
L 299.021352 90.511312 
z
" clip-path="url(#p84374fa868)" style="fill: #1f77b4"/>
   </g>
   <g id="patch_162">
    <path d="M 300.536486 224.64 
L 302.051621 224.64 
L 302.051621 120.255331 
L 300.536486 120.255331 
z
" clip-path="url(#p84374fa868)" style="fill: #1f77b4"/>
   </g>
   <g id="patch_163">
    <path d="M 302.051621 224.64 
L 303.566756 224.64 
L 303.566756 126.428618 
L 302.051621 126.428618 
z
" clip-path="url(#p84374fa868)" style="fill: #1f77b4"/>
   </g>
   <g id="patch_164">
    <path d="M 303.566756 224.64 
L 305.08189 224.64 
L 305.08189 120.255331 
L 303.566756 120.255331 
z
" clip-path="url(#p84374fa868)" style="fill: #1f77b4"/>
   </g>
   <g id="patch_165">
    <path d="M 305.08189 224.64 
L 306.597025 224.64 
L 306.597025 123.622578 
L 305.08189 123.622578 
z
" clip-path="url(#p84374fa868)" style="fill: #1f77b4"/>
   </g>
   <g id="patch_166">
    <path d="M 306.597025 224.64 
L 308.11216 224.64 
L 308.11216 121.938955 
L 306.597025 121.938955 
z
" clip-path="url(#p84374fa868)" style="fill: #1f77b4"/>
   </g>
   <g id="patch_167">
    <path d="M 308.11216 224.64 
L 309.627294 224.64 
L 309.627294 143.264855 
L 308.11216 143.264855 
z
" clip-path="url(#p84374fa868)" style="fill: #1f77b4"/>
   </g>
   <g id="patch_168">
    <path d="M 309.627294 224.64 
L 311.142429 224.64 
L 311.142429 126.989826 
L 309.627294 126.989826 
z
" clip-path="url(#p84374fa868)" style="fill: #1f77b4"/>
   </g>
   <g id="patch_169">
    <path d="M 311.142429 224.64 
L 312.657564 224.64 
L 312.657564 129.234657 
L 311.142429 129.234657 
z
" clip-path="url(#p84374fa868)" style="fill: #1f77b4"/>
   </g>
   <g id="patch_170">
    <path d="M 312.657564 224.64 
L 314.172698 224.64 
L 314.172698 135.407944 
L 312.657564 135.407944 
z
" clip-path="url(#p84374fa868)" style="fill: #1f77b4"/>
   </g>
   <g id="patch_171">
    <path d="M 314.172698 224.64 
L 315.687833 224.64 
L 315.687833 151.682973 
L 314.172698 151.682973 
z
" clip-path="url(#p84374fa868)" style="fill: #1f77b4"/>
   </g>
   <g id="patch_172">
    <path d="M 315.687833 224.64 
L 317.202968 224.64 
L 317.202968 148.315726 
L 315.687833 148.315726 
z
" clip-path="url(#p84374fa868)" style="fill: #1f77b4"/>
   </g>
   <g id="patch_173">
    <path d="M 317.202968 224.64 
L 318.718102 224.64 
L 318.718102 147.19331 
L 317.202968 147.19331 
z
" clip-path="url(#p84374fa868)" style="fill: #1f77b4"/>
   </g>
   <g id="patch_174">
    <path d="M 318.718102 224.64 
L 320.233237 224.64 
L 320.233237 138.213984 
L 318.718102 138.213984 
z
" clip-path="url(#p84374fa868)" style="fill: #1f77b4"/>
   </g>
   <g id="patch_175">
    <path d="M 320.233237 224.64 
L 321.748372 224.64 
L 321.748372 141.581231 
L 320.233237 141.581231 
z
" clip-path="url(#p84374fa868)" style="fill: #1f77b4"/>
   </g>
   <g id="patch_176">
    <path d="M 321.748372 224.64 
L 323.263506 224.64 
L 323.263506 151.121765 
L 321.748372 151.121765 
z
" clip-path="url(#p84374fa868)" style="fill: #1f77b4"/>
   </g>
   <g id="patch_177">
    <path d="M 323.263506 224.64 
L 324.778641 224.64 
L 324.778641 152.805389 
L 323.263506 152.805389 
z
" clip-path="url(#p84374fa868)" style="fill: #1f77b4"/>
   </g>
   <g id="patch_178">
    <path d="M 324.778641 224.64 
L 326.293776 224.64 
L 326.293776 167.396794 
L 324.778641 167.396794 
z
" clip-path="url(#p84374fa868)" style="fill: #1f77b4"/>
   </g>
   <g id="patch_179">
    <path d="M 326.293776 224.64 
L 327.80891 224.64 
L 327.80891 155.050221 
L 326.293776 155.050221 
z
" clip-path="url(#p84374fa868)" style="fill: #1f77b4"/>
   </g>
   <g id="patch_180">
    <path d="M 327.80891 224.64 
L 329.324045 224.64 
L 329.324045 158.417468 
L 327.80891 158.417468 
z
" clip-path="url(#p84374fa868)" style="fill: #1f77b4"/>
   </g>
   <g id="patch_181">
    <path d="M 329.324045 224.64 
L 330.83918 224.64 
L 330.83918 173.008873 
L 329.324045 173.008873 
z
" clip-path="url(#p84374fa868)" style="fill: #1f77b4"/>
   </g>
   <g id="patch_182">
    <path d="M 330.83918 224.64 
L 332.354314 224.64 
L 332.354314 180.304576 
L 330.83918 180.304576 
z
" clip-path="url(#p84374fa868)" style="fill: #1f77b4"/>
   </g>
   <g id="patch_183">
    <path d="M 332.354314 224.64 
L 333.869449 224.64 
L 333.869449 171.886458 
L 332.354314 171.886458 
z
" clip-path="url(#p84374fa868)" style="fill: #1f77b4"/>
   </g>
   <g id="patch_184">
    <path d="M 333.869449 224.64 
L 335.384584 224.64 
L 335.384584 174.131289 
L 333.869449 174.131289 
z
" clip-path="url(#p84374fa868)" style="fill: #1f77b4"/>
   </g>
   <g id="patch_185">
    <path d="M 335.384584 224.64 
L 336.899718 224.64 
L 336.899718 180.304576 
L 335.384584 180.304576 
z
" clip-path="url(#p84374fa868)" style="fill: #1f77b4"/>
   </g>
   <g id="patch_186">
    <path d="M 336.899718 224.64 
L 338.414853 224.64 
L 338.414853 181.426992 
L 336.899718 181.426992 
z
" clip-path="url(#p84374fa868)" style="fill: #1f77b4"/>
   </g>
   <g id="patch_187">
    <path d="M 338.414853 224.64 
L 339.929988 224.64 
L 339.929988 171.32525 
L 338.414853 171.32525 
z
" clip-path="url(#p84374fa868)" style="fill: #1f77b4"/>
   </g>
   <g id="patch_188">
    <path d="M 339.929988 224.64 
L 341.445122 224.64 
L 341.445122 183.110616 
L 339.929988 183.110616 
z
" clip-path="url(#p84374fa868)" style="fill: #1f77b4"/>
   </g>
   <g id="patch_189">
    <path d="M 341.445122 224.64 
L 342.960257 224.64 
L 342.960257 180.865784 
L 341.445122 180.865784 
z
" clip-path="url(#p84374fa868)" style="fill: #1f77b4"/>
   </g>
   <g id="patch_190">
    <path d="M 342.960257 224.64 
L 344.475392 224.64 
L 344.475392 192.65115 
L 342.960257 192.65115 
z
" clip-path="url(#p84374fa868)" style="fill: #1f77b4"/>
   </g>
   <g id="patch_191">
    <path d="M 344.475392 224.64 
L 345.990526 224.64 
L 345.990526 192.089942 
L 344.475392 192.089942 
z
" clip-path="url(#p84374fa868)" style="fill: #1f77b4"/>
   </g>
   <g id="patch_192">
    <path d="M 345.990526 224.64 
L 347.505661 224.64 
L 347.505661 199.385645 
L 345.990526 199.385645 
z
" clip-path="url(#p84374fa868)" style="fill: #1f77b4"/>
   </g>
   <g id="patch_193">
    <path d="M 347.505661 224.64 
L 349.020796 224.64 
L 349.020796 195.457189 
L 347.505661 195.457189 
z
" clip-path="url(#p84374fa868)" style="fill: #1f77b4"/>
   </g>
   <g id="patch_194">
    <path d="M 349.020796 224.64 
L 350.53593 224.64 
L 350.53593 199.946852 
L 349.020796 199.946852 
z
" clip-path="url(#p84374fa868)" style="fill: #1f77b4"/>
   </g>
   <g id="patch_195">
    <path d="M 350.53593 224.64 
L 352.051065 224.64 
L 352.051065 202.752892 
L 350.53593 202.752892 
z
" clip-path="url(#p84374fa868)" style="fill: #1f77b4"/>
   </g>
   <g id="patch_196">
    <path d="M 352.051065 224.64 
L 353.5662 224.64 
L 353.5662 206.120139 
L 352.051065 206.120139 
z
" clip-path="url(#p84374fa868)" style="fill: #1f77b4"/>
   </g>
   <g id="patch_197">
    <path d="M 353.5662 224.64 
L 355.081334 224.64 
L 355.081334 209.487387 
L 353.5662 209.487387 
z
" clip-path="url(#p84374fa868)" style="fill: #1f77b4"/>
   </g>
   <g id="patch_198">
    <path d="M 355.081334 224.64 
L 356.596469 224.64 
L 356.596469 208.364971 
L 355.081334 208.364971 
z
" clip-path="url(#p84374fa868)" style="fill: #1f77b4"/>
   </g>
   <g id="patch_199">
    <path d="M 356.596469 224.64 
L 358.111604 224.64 
L 358.111604 213.415842 
L 356.596469 213.415842 
z
" clip-path="url(#p84374fa868)" style="fill: #1f77b4"/>
   </g>
   <g id="patch_200">
    <path d="M 358.111604 224.64 
L 359.626738 224.64 
L 359.626738 215.099466 
L 358.111604 215.099466 
z
" clip-path="url(#p84374fa868)" style="fill: #1f77b4"/>
   </g>
   <g id="patch_201">
    <path d="M 359.626738 224.64 
L 361.141873 224.64 
L 361.141873 219.027921 
L 359.626738 219.027921 
z
" clip-path="url(#p84374fa868)" style="fill: #1f77b4"/>
   </g>
   <g id="patch_202">
    <path d="M 361.141873 224.64 
L 362.657008 224.64 
L 362.657008 222.395168 
L 361.141873 222.395168 
z
" clip-path="url(#p84374fa868)" style="fill: #1f77b4"/>
   </g>
   <g id="matplotlib.axis_1">
    <g id="xtick_1">
     <g id="line2d_1">
      <defs>
       <path id="m4fbdad9749" d="M 0 0 
L 0 3.5 
" style="stroke: #000000; stroke-width: 0.8"/>
      </defs>
      <g>
       <use xlink:href="#m4fbdad9749" x="58.999432" y="224.64" style="stroke: #000000; stroke-width: 0.8"/>
      </g>
     </g>
     <g id="text_1">
      <!-- 0.0 -->
      <g transform="translate(51.047869 239.238437)scale(0.1 -0.1)">
       <defs>
        <path id="DejaVuSans-30" d="M 2034 4250 
Q 1547 4250 1301 3770 
Q 1056 3291 1056 2328 
Q 1056 1369 1301 889 
Q 1547 409 2034 409 
Q 2525 409 2770 889 
Q 3016 1369 3016 2328 
Q 3016 3291 2770 3770 
Q 2525 4250 2034 4250 
z
M 2034 4750 
Q 2819 4750 3233 4129 
Q 3647 3509 3647 2328 
Q 3647 1150 3233 529 
Q 2819 -91 2034 -91 
Q 1250 -91 836 529 
Q 422 1150 422 2328 
Q 422 3509 836 4129 
Q 1250 4750 2034 4750 
z
" transform="scale(0.015625)"/>
        <path id="DejaVuSans-2e" d="M 684 794 
L 1344 794 
L 1344 0 
L 684 0 
L 684 794 
z
" transform="scale(0.015625)"/>
       </defs>
       <use xlink:href="#DejaVuSans-30"/>
       <use xlink:href="#DejaVuSans-2e" x="63.623047"/>
       <use xlink:href="#DejaVuSans-30" x="95.410156"/>
      </g>
     </g>
    </g>
    <g id="xtick_2">
     <g id="line2d_2">
      <g>
       <use xlink:href="#m4fbdad9749" x="97.752214" y="224.64" style="stroke: #000000; stroke-width: 0.8"/>
      </g>
     </g>
     <g id="text_2">
      <!-- 0.2 -->
      <g transform="translate(89.800651 239.238437)scale(0.1 -0.1)">
       <defs>
        <path id="DejaVuSans-32" d="M 1228 531 
L 3431 531 
L 3431 0 
L 469 0 
L 469 531 
Q 828 903 1448 1529 
Q 2069 2156 2228 2338 
Q 2531 2678 2651 2914 
Q 2772 3150 2772 3378 
Q 2772 3750 2511 3984 
Q 2250 4219 1831 4219 
Q 1534 4219 1204 4116 
Q 875 4013 500 3803 
L 500 4441 
Q 881 4594 1212 4672 
Q 1544 4750 1819 4750 
Q 2544 4750 2975 4387 
Q 3406 4025 3406 3419 
Q 3406 3131 3298 2873 
Q 3191 2616 2906 2266 
Q 2828 2175 2409 1742 
Q 1991 1309 1228 531 
z
" transform="scale(0.015625)"/>
       </defs>
       <use xlink:href="#DejaVuSans-30"/>
       <use xlink:href="#DejaVuSans-2e" x="63.623047"/>
       <use xlink:href="#DejaVuSans-32" x="95.410156"/>
      </g>
     </g>
    </g>
    <g id="xtick_3">
     <g id="line2d_3">
      <g>
       <use xlink:href="#m4fbdad9749" x="136.504995" y="224.64" style="stroke: #000000; stroke-width: 0.8"/>
      </g>
     </g>
     <g id="text_3">
      <!-- 0.4 -->
      <g transform="translate(128.553433 239.238437)scale(0.1 -0.1)">
       <defs>
        <path id="DejaVuSans-34" d="M 2419 4116 
L 825 1625 
L 2419 1625 
L 2419 4116 
z
M 2253 4666 
L 3047 4666 
L 3047 1625 
L 3713 1625 
L 3713 1100 
L 3047 1100 
L 3047 0 
L 2419 0 
L 2419 1100 
L 313 1100 
L 313 1709 
L 2253 4666 
z
" transform="scale(0.015625)"/>
       </defs>
       <use xlink:href="#DejaVuSans-30"/>
       <use xlink:href="#DejaVuSans-2e" x="63.623047"/>
       <use xlink:href="#DejaVuSans-34" x="95.410156"/>
      </g>
     </g>
    </g>
    <g id="xtick_4">
     <g id="line2d_4">
      <g>
       <use xlink:href="#m4fbdad9749" x="175.257777" y="224.64" style="stroke: #000000; stroke-width: 0.8"/>
      </g>
     </g>
     <g id="text_4">
      <!-- 0.6 -->
      <g transform="translate(167.306215 239.238437)scale(0.1 -0.1)">
       <defs>
        <path id="DejaVuSans-36" d="M 2113 2584 
Q 1688 2584 1439 2293 
Q 1191 2003 1191 1497 
Q 1191 994 1439 701 
Q 1688 409 2113 409 
Q 2538 409 2786 701 
Q 3034 994 3034 1497 
Q 3034 2003 2786 2293 
Q 2538 2584 2113 2584 
z
M 3366 4563 
L 3366 3988 
Q 3128 4100 2886 4159 
Q 2644 4219 2406 4219 
Q 1781 4219 1451 3797 
Q 1122 3375 1075 2522 
Q 1259 2794 1537 2939 
Q 1816 3084 2150 3084 
Q 2853 3084 3261 2657 
Q 3669 2231 3669 1497 
Q 3669 778 3244 343 
Q 2819 -91 2113 -91 
Q 1303 -91 875 529 
Q 447 1150 447 2328 
Q 447 3434 972 4092 
Q 1497 4750 2381 4750 
Q 2619 4750 2861 4703 
Q 3103 4656 3366 4563 
z
" transform="scale(0.015625)"/>
       </defs>
       <use xlink:href="#DejaVuSans-30"/>
       <use xlink:href="#DejaVuSans-2e" x="63.623047"/>
       <use xlink:href="#DejaVuSans-36" x="95.410156"/>
      </g>
     </g>
    </g>
    <g id="xtick_5">
     <g id="line2d_5">
      <g>
       <use xlink:href="#m4fbdad9749" x="214.010559" y="224.64" style="stroke: #000000; stroke-width: 0.8"/>
      </g>
     </g>
     <g id="text_5">
      <!-- 0.8 -->
      <g transform="translate(206.058996 239.238437)scale(0.1 -0.1)">
       <defs>
        <path id="DejaVuSans-38" d="M 2034 2216 
Q 1584 2216 1326 1975 
Q 1069 1734 1069 1313 
Q 1069 891 1326 650 
Q 1584 409 2034 409 
Q 2484 409 2743 651 
Q 3003 894 3003 1313 
Q 3003 1734 2745 1975 
Q 2488 2216 2034 2216 
z
M 1403 2484 
Q 997 2584 770 2862 
Q 544 3141 544 3541 
Q 544 4100 942 4425 
Q 1341 4750 2034 4750 
Q 2731 4750 3128 4425 
Q 3525 4100 3525 3541 
Q 3525 3141 3298 2862 
Q 3072 2584 2669 2484 
Q 3125 2378 3379 2068 
Q 3634 1759 3634 1313 
Q 3634 634 3220 271 
Q 2806 -91 2034 -91 
Q 1263 -91 848 271 
Q 434 634 434 1313 
Q 434 1759 690 2068 
Q 947 2378 1403 2484 
z
M 1172 3481 
Q 1172 3119 1398 2916 
Q 1625 2713 2034 2713 
Q 2441 2713 2670 2916 
Q 2900 3119 2900 3481 
Q 2900 3844 2670 4047 
Q 2441 4250 2034 4250 
Q 1625 4250 1398 4047 
Q 1172 3844 1172 3481 
z
" transform="scale(0.015625)"/>
       </defs>
       <use xlink:href="#DejaVuSans-30"/>
       <use xlink:href="#DejaVuSans-2e" x="63.623047"/>
       <use xlink:href="#DejaVuSans-38" x="95.410156"/>
      </g>
     </g>
    </g>
    <g id="xtick_6">
     <g id="line2d_6">
      <g>
       <use xlink:href="#m4fbdad9749" x="252.763341" y="224.64" style="stroke: #000000; stroke-width: 0.8"/>
      </g>
     </g>
     <g id="text_6">
      <!-- 1.0 -->
      <g transform="translate(244.811778 239.238437)scale(0.1 -0.1)">
       <defs>
        <path id="DejaVuSans-31" d="M 794 531 
L 1825 531 
L 1825 4091 
L 703 3866 
L 703 4441 
L 1819 4666 
L 2450 4666 
L 2450 531 
L 3481 531 
L 3481 0 
L 794 0 
L 794 531 
z
" transform="scale(0.015625)"/>
       </defs>
       <use xlink:href="#DejaVuSans-31"/>
       <use xlink:href="#DejaVuSans-2e" x="63.623047"/>
       <use xlink:href="#DejaVuSans-30" x="95.410156"/>
      </g>
     </g>
    </g>
    <g id="xtick_7">
     <g id="line2d_7">
      <g>
       <use xlink:href="#m4fbdad9749" x="291.516122" y="224.64" style="stroke: #000000; stroke-width: 0.8"/>
      </g>
     </g>
     <g id="text_7">
      <!-- 1.2 -->
      <g transform="translate(283.56456 239.238437)scale(0.1 -0.1)">
       <use xlink:href="#DejaVuSans-31"/>
       <use xlink:href="#DejaVuSans-2e" x="63.623047"/>
       <use xlink:href="#DejaVuSans-32" x="95.410156"/>
      </g>
     </g>
    </g>
    <g id="xtick_8">
     <g id="line2d_8">
      <g>
       <use xlink:href="#m4fbdad9749" x="330.268904" y="224.64" style="stroke: #000000; stroke-width: 0.8"/>
      </g>
     </g>
     <g id="text_8">
      <!-- 1.4 -->
      <g transform="translate(322.317342 239.238437)scale(0.1 -0.1)">
       <use xlink:href="#DejaVuSans-31"/>
       <use xlink:href="#DejaVuSans-2e" x="63.623047"/>
       <use xlink:href="#DejaVuSans-34" x="95.410156"/>
      </g>
     </g>
    </g>
    <g id="xtick_9">
     <g id="line2d_9">
      <g>
       <use xlink:href="#m4fbdad9749" x="369.021686" y="224.64" style="stroke: #000000; stroke-width: 0.8"/>
      </g>
     </g>
     <g id="text_9">
      <!-- 1.6 -->
      <g transform="translate(361.070124 239.238437)scale(0.1 -0.1)">
       <use xlink:href="#DejaVuSans-31"/>
       <use xlink:href="#DejaVuSans-2e" x="63.623047"/>
       <use xlink:href="#DejaVuSans-36" x="95.410156"/>
      </g>
     </g>
    </g>
    <g id="text_10">
     <!-- Angle with normal (rad) -->
     <g transform="translate(151.863281 252.916562)scale(0.1 -0.1)">
      <defs>
       <path id="DejaVuSans-41" d="M 2188 4044 
L 1331 1722 
L 3047 1722 
L 2188 4044 
z
M 1831 4666 
L 2547 4666 
L 4325 0 
L 3669 0 
L 3244 1197 
L 1141 1197 
L 716 0 
L 50 0 
L 1831 4666 
z
" transform="scale(0.015625)"/>
       <path id="DejaVuSans-6e" d="M 3513 2113 
L 3513 0 
L 2938 0 
L 2938 2094 
Q 2938 2591 2744 2837 
Q 2550 3084 2163 3084 
Q 1697 3084 1428 2787 
Q 1159 2491 1159 1978 
L 1159 0 
L 581 0 
L 581 3500 
L 1159 3500 
L 1159 2956 
Q 1366 3272 1645 3428 
Q 1925 3584 2291 3584 
Q 2894 3584 3203 3211 
Q 3513 2838 3513 2113 
z
" transform="scale(0.015625)"/>
       <path id="DejaVuSans-67" d="M 2906 1791 
Q 2906 2416 2648 2759 
Q 2391 3103 1925 3103 
Q 1463 3103 1205 2759 
Q 947 2416 947 1791 
Q 947 1169 1205 825 
Q 1463 481 1925 481 
Q 2391 481 2648 825 
Q 2906 1169 2906 1791 
z
M 3481 434 
Q 3481 -459 3084 -895 
Q 2688 -1331 1869 -1331 
Q 1566 -1331 1297 -1286 
Q 1028 -1241 775 -1147 
L 775 -588 
Q 1028 -725 1275 -790 
Q 1522 -856 1778 -856 
Q 2344 -856 2625 -561 
Q 2906 -266 2906 331 
L 2906 616 
Q 2728 306 2450 153 
Q 2172 0 1784 0 
Q 1141 0 747 490 
Q 353 981 353 1791 
Q 353 2603 747 3093 
Q 1141 3584 1784 3584 
Q 2172 3584 2450 3431 
Q 2728 3278 2906 2969 
L 2906 3500 
L 3481 3500 
L 3481 434 
z
" transform="scale(0.015625)"/>
       <path id="DejaVuSans-6c" d="M 603 4863 
L 1178 4863 
L 1178 0 
L 603 0 
L 603 4863 
z
" transform="scale(0.015625)"/>
       <path id="DejaVuSans-65" d="M 3597 1894 
L 3597 1613 
L 953 1613 
Q 991 1019 1311 708 
Q 1631 397 2203 397 
Q 2534 397 2845 478 
Q 3156 559 3463 722 
L 3463 178 
Q 3153 47 2828 -22 
Q 2503 -91 2169 -91 
Q 1331 -91 842 396 
Q 353 884 353 1716 
Q 353 2575 817 3079 
Q 1281 3584 2069 3584 
Q 2775 3584 3186 3129 
Q 3597 2675 3597 1894 
z
M 3022 2063 
Q 3016 2534 2758 2815 
Q 2500 3097 2075 3097 
Q 1594 3097 1305 2825 
Q 1016 2553 972 2059 
L 3022 2063 
z
" transform="scale(0.015625)"/>
       <path id="DejaVuSans-20" transform="scale(0.015625)"/>
       <path id="DejaVuSans-77" d="M 269 3500 
L 844 3500 
L 1563 769 
L 2278 3500 
L 2956 3500 
L 3675 769 
L 4391 3500 
L 4966 3500 
L 4050 0 
L 3372 0 
L 2619 2869 
L 1863 0 
L 1184 0 
L 269 3500 
z
" transform="scale(0.015625)"/>
       <path id="DejaVuSans-69" d="M 603 3500 
L 1178 3500 
L 1178 0 
L 603 0 
L 603 3500 
z
M 603 4863 
L 1178 4863 
L 1178 4134 
L 603 4134 
L 603 4863 
z
" transform="scale(0.015625)"/>
       <path id="DejaVuSans-74" d="M 1172 4494 
L 1172 3500 
L 2356 3500 
L 2356 3053 
L 1172 3053 
L 1172 1153 
Q 1172 725 1289 603 
Q 1406 481 1766 481 
L 2356 481 
L 2356 0 
L 1766 0 
Q 1100 0 847 248 
Q 594 497 594 1153 
L 594 3053 
L 172 3053 
L 172 3500 
L 594 3500 
L 594 4494 
L 1172 4494 
z
" transform="scale(0.015625)"/>
       <path id="DejaVuSans-68" d="M 3513 2113 
L 3513 0 
L 2938 0 
L 2938 2094 
Q 2938 2591 2744 2837 
Q 2550 3084 2163 3084 
Q 1697 3084 1428 2787 
Q 1159 2491 1159 1978 
L 1159 0 
L 581 0 
L 581 4863 
L 1159 4863 
L 1159 2956 
Q 1366 3272 1645 3428 
Q 1925 3584 2291 3584 
Q 2894 3584 3203 3211 
Q 3513 2838 3513 2113 
z
" transform="scale(0.015625)"/>
       <path id="DejaVuSans-6f" d="M 1959 3097 
Q 1497 3097 1228 2736 
Q 959 2375 959 1747 
Q 959 1119 1226 758 
Q 1494 397 1959 397 
Q 2419 397 2687 759 
Q 2956 1122 2956 1747 
Q 2956 2369 2687 2733 
Q 2419 3097 1959 3097 
z
M 1959 3584 
Q 2709 3584 3137 3096 
Q 3566 2609 3566 1747 
Q 3566 888 3137 398 
Q 2709 -91 1959 -91 
Q 1206 -91 779 398 
Q 353 888 353 1747 
Q 353 2609 779 3096 
Q 1206 3584 1959 3584 
z
" transform="scale(0.015625)"/>
       <path id="DejaVuSans-72" d="M 2631 2963 
Q 2534 3019 2420 3045 
Q 2306 3072 2169 3072 
Q 1681 3072 1420 2755 
Q 1159 2438 1159 1844 
L 1159 0 
L 581 0 
L 581 3500 
L 1159 3500 
L 1159 2956 
Q 1341 3275 1631 3429 
Q 1922 3584 2338 3584 
Q 2397 3584 2469 3576 
Q 2541 3569 2628 3553 
L 2631 2963 
z
" transform="scale(0.015625)"/>
       <path id="DejaVuSans-6d" d="M 3328 2828 
Q 3544 3216 3844 3400 
Q 4144 3584 4550 3584 
Q 5097 3584 5394 3201 
Q 5691 2819 5691 2113 
L 5691 0 
L 5113 0 
L 5113 2094 
Q 5113 2597 4934 2840 
Q 4756 3084 4391 3084 
Q 3944 3084 3684 2787 
Q 3425 2491 3425 1978 
L 3425 0 
L 2847 0 
L 2847 2094 
Q 2847 2600 2669 2842 
Q 2491 3084 2119 3084 
Q 1678 3084 1418 2786 
Q 1159 2488 1159 1978 
L 1159 0 
L 581 0 
L 581 3500 
L 1159 3500 
L 1159 2956 
Q 1356 3278 1631 3431 
Q 1906 3584 2284 3584 
Q 2666 3584 2933 3390 
Q 3200 3197 3328 2828 
z
" transform="scale(0.015625)"/>
       <path id="DejaVuSans-61" d="M 2194 1759 
Q 1497 1759 1228 1600 
Q 959 1441 959 1056 
Q 959 750 1161 570 
Q 1363 391 1709 391 
Q 2188 391 2477 730 
Q 2766 1069 2766 1631 
L 2766 1759 
L 2194 1759 
z
M 3341 1997 
L 3341 0 
L 2766 0 
L 2766 531 
Q 2569 213 2275 61 
Q 1981 -91 1556 -91 
Q 1019 -91 701 211 
Q 384 513 384 1019 
Q 384 1609 779 1909 
Q 1175 2209 1959 2209 
L 2766 2209 
L 2766 2266 
Q 2766 2663 2505 2880 
Q 2244 3097 1772 3097 
Q 1472 3097 1187 3025 
Q 903 2953 641 2809 
L 641 3341 
Q 956 3463 1253 3523 
Q 1550 3584 1831 3584 
Q 2591 3584 2966 3190 
Q 3341 2797 3341 1997 
z
" transform="scale(0.015625)"/>
       <path id="DejaVuSans-28" d="M 1984 4856 
Q 1566 4138 1362 3434 
Q 1159 2731 1159 2009 
Q 1159 1288 1364 580 
Q 1569 -128 1984 -844 
L 1484 -844 
Q 1016 -109 783 600 
Q 550 1309 550 2009 
Q 550 2706 781 3412 
Q 1013 4119 1484 4856 
L 1984 4856 
z
" transform="scale(0.015625)"/>
       <path id="DejaVuSans-64" d="M 2906 2969 
L 2906 4863 
L 3481 4863 
L 3481 0 
L 2906 0 
L 2906 525 
Q 2725 213 2448 61 
Q 2172 -91 1784 -91 
Q 1150 -91 751 415 
Q 353 922 353 1747 
Q 353 2572 751 3078 
Q 1150 3584 1784 3584 
Q 2172 3584 2448 3432 
Q 2725 3281 2906 2969 
z
M 947 1747 
Q 947 1113 1208 752 
Q 1469 391 1925 391 
Q 2381 391 2643 752 
Q 2906 1113 2906 1747 
Q 2906 2381 2643 2742 
Q 2381 3103 1925 3103 
Q 1469 3103 1208 2742 
Q 947 2381 947 1747 
z
" transform="scale(0.015625)"/>
       <path id="DejaVuSans-29" d="M 513 4856 
L 1013 4856 
Q 1481 4119 1714 3412 
Q 1947 2706 1947 2009 
Q 1947 1309 1714 600 
Q 1481 -109 1013 -844 
L 513 -844 
Q 928 -128 1133 580 
Q 1338 1288 1338 2009 
Q 1338 2731 1133 3434 
Q 928 4138 513 4856 
z
" transform="scale(0.015625)"/>
      </defs>
      <use xlink:href="#DejaVuSans-41"/>
      <use xlink:href="#DejaVuSans-6e" x="68.408203"/>
      <use xlink:href="#DejaVuSans-67" x="131.787109"/>
      <use xlink:href="#DejaVuSans-6c" x="195.263672"/>
      <use xlink:href="#DejaVuSans-65" x="223.046875"/>
      <use xlink:href="#DejaVuSans-20" x="284.570312"/>
      <use xlink:href="#DejaVuSans-77" x="316.357422"/>
      <use xlink:href="#DejaVuSans-69" x="398.144531"/>
      <use xlink:href="#DejaVuSans-74" x="425.927734"/>
      <use xlink:href="#DejaVuSans-68" x="465.136719"/>
      <use xlink:href="#DejaVuSans-20" x="528.515625"/>
      <use xlink:href="#DejaVuSans-6e" x="560.302734"/>
      <use xlink:href="#DejaVuSans-6f" x="623.681641"/>
      <use xlink:href="#DejaVuSans-72" x="684.863281"/>
      <use xlink:href="#DejaVuSans-6d" x="724.226562"/>
      <use xlink:href="#DejaVuSans-61" x="821.638672"/>
      <use xlink:href="#DejaVuSans-6c" x="882.917969"/>
      <use xlink:href="#DejaVuSans-20" x="910.701172"/>
      <use xlink:href="#DejaVuSans-28" x="942.488281"/>
      <use xlink:href="#DejaVuSans-72" x="981.501953"/>
      <use xlink:href="#DejaVuSans-61" x="1022.615234"/>
      <use xlink:href="#DejaVuSans-64" x="1083.894531"/>
      <use xlink:href="#DejaVuSans-29" x="1147.371094"/>
     </g>
    </g>
   </g>
   <g id="matplotlib.axis_2">
    <g id="ytick_1">
     <g id="line2d_10">
      <defs>
       <path id="m52c69cc47e" d="M 0 0 
L -3.5 0 
" style="stroke: #000000; stroke-width: 0.8"/>
      </defs>
      <g>
       <use xlink:href="#m52c69cc47e" x="43.78125" y="224.64" style="stroke: #000000; stroke-width: 0.8"/>
      </g>
     </g>
     <g id="text_11">
      <!-- 0.0 -->
      <g transform="translate(20.878125 228.439219)scale(0.1 -0.1)">
       <use xlink:href="#DejaVuSans-30"/>
       <use xlink:href="#DejaVuSans-2e" x="63.623047"/>
       <use xlink:href="#DejaVuSans-30" x="95.410156"/>
      </g>
     </g>
    </g>
    <g id="ytick_2">
     <g id="line2d_11">
      <g>
       <use xlink:href="#m52c69cc47e" x="43.78125" y="189.53313" style="stroke: #000000; stroke-width: 0.8"/>
      </g>
     </g>
     <g id="text_12">
      <!-- 0.2 -->
      <g transform="translate(20.878125 193.332349)scale(0.1 -0.1)">
       <use xlink:href="#DejaVuSans-30"/>
       <use xlink:href="#DejaVuSans-2e" x="63.623047"/>
       <use xlink:href="#DejaVuSans-32" x="95.410156"/>
      </g>
     </g>
    </g>
    <g id="ytick_3">
     <g id="line2d_12">
      <g>
       <use xlink:href="#m52c69cc47e" x="43.78125" y="154.42626" style="stroke: #000000; stroke-width: 0.8"/>
      </g>
     </g>
     <g id="text_13">
      <!-- 0.4 -->
      <g transform="translate(20.878125 158.225479)scale(0.1 -0.1)">
       <use xlink:href="#DejaVuSans-30"/>
       <use xlink:href="#DejaVuSans-2e" x="63.623047"/>
       <use xlink:href="#DejaVuSans-34" x="95.410156"/>
      </g>
     </g>
    </g>
    <g id="ytick_4">
     <g id="line2d_13">
      <g>
       <use xlink:href="#m52c69cc47e" x="43.78125" y="119.31939" style="stroke: #000000; stroke-width: 0.8"/>
      </g>
     </g>
     <g id="text_14">
      <!-- 0.6 -->
      <g transform="translate(20.878125 123.118609)scale(0.1 -0.1)">
       <use xlink:href="#DejaVuSans-30"/>
       <use xlink:href="#DejaVuSans-2e" x="63.623047"/>
       <use xlink:href="#DejaVuSans-36" x="95.410156"/>
      </g>
     </g>
    </g>
    <g id="ytick_5">
     <g id="line2d_14">
      <g>
       <use xlink:href="#m52c69cc47e" x="43.78125" y="84.21252" style="stroke: #000000; stroke-width: 0.8"/>
      </g>
     </g>
     <g id="text_15">
      <!-- 0.8 -->
      <g transform="translate(20.878125 88.011739)scale(0.1 -0.1)">
       <use xlink:href="#DejaVuSans-30"/>
       <use xlink:href="#DejaVuSans-2e" x="63.623047"/>
       <use xlink:href="#DejaVuSans-38" x="95.410156"/>
      </g>
     </g>
    </g>
    <g id="ytick_6">
     <g id="line2d_15">
      <g>
       <use xlink:href="#m52c69cc47e" x="43.78125" y="49.105651" style="stroke: #000000; stroke-width: 0.8"/>
      </g>
     </g>
     <g id="text_16">
      <!-- 1.0 -->
      <g transform="translate(20.878125 52.904869)scale(0.1 -0.1)">
       <use xlink:href="#DejaVuSans-31"/>
       <use xlink:href="#DejaVuSans-2e" x="63.623047"/>
       <use xlink:href="#DejaVuSans-30" x="95.410156"/>
      </g>
     </g>
    </g>
    <g id="ytick_7">
     <g id="line2d_16">
      <g>
       <use xlink:href="#m52c69cc47e" x="43.78125" y="13.998781" style="stroke: #000000; stroke-width: 0.8"/>
      </g>
     </g>
     <g id="text_17">
      <!-- 1.2 -->
      <g transform="translate(20.878125 17.797999)scale(0.1 -0.1)">
       <use xlink:href="#DejaVuSans-31"/>
       <use xlink:href="#DejaVuSans-2e" x="63.623047"/>
       <use xlink:href="#DejaVuSans-32" x="95.410156"/>
      </g>
     </g>
    </g>
    <g id="text_18">
     <!-- Probability density -->
     <g transform="translate(14.798438 162.270781)rotate(-90)scale(0.1 -0.1)">
      <defs>
       <path id="DejaVuSans-50" d="M 1259 4147 
L 1259 2394 
L 2053 2394 
Q 2494 2394 2734 2622 
Q 2975 2850 2975 3272 
Q 2975 3691 2734 3919 
Q 2494 4147 2053 4147 
L 1259 4147 
z
M 628 4666 
L 2053 4666 
Q 2838 4666 3239 4311 
Q 3641 3956 3641 3272 
Q 3641 2581 3239 2228 
Q 2838 1875 2053 1875 
L 1259 1875 
L 1259 0 
L 628 0 
L 628 4666 
z
" transform="scale(0.015625)"/>
       <path id="DejaVuSans-62" d="M 3116 1747 
Q 3116 2381 2855 2742 
Q 2594 3103 2138 3103 
Q 1681 3103 1420 2742 
Q 1159 2381 1159 1747 
Q 1159 1113 1420 752 
Q 1681 391 2138 391 
Q 2594 391 2855 752 
Q 3116 1113 3116 1747 
z
M 1159 2969 
Q 1341 3281 1617 3432 
Q 1894 3584 2278 3584 
Q 2916 3584 3314 3078 
Q 3713 2572 3713 1747 
Q 3713 922 3314 415 
Q 2916 -91 2278 -91 
Q 1894 -91 1617 61 
Q 1341 213 1159 525 
L 1159 0 
L 581 0 
L 581 4863 
L 1159 4863 
L 1159 2969 
z
" transform="scale(0.015625)"/>
       <path id="DejaVuSans-79" d="M 2059 -325 
Q 1816 -950 1584 -1140 
Q 1353 -1331 966 -1331 
L 506 -1331 
L 506 -850 
L 844 -850 
Q 1081 -850 1212 -737 
Q 1344 -625 1503 -206 
L 1606 56 
L 191 3500 
L 800 3500 
L 1894 763 
L 2988 3500 
L 3597 3500 
L 2059 -325 
z
" transform="scale(0.015625)"/>
       <path id="DejaVuSans-73" d="M 2834 3397 
L 2834 2853 
Q 2591 2978 2328 3040 
Q 2066 3103 1784 3103 
Q 1356 3103 1142 2972 
Q 928 2841 928 2578 
Q 928 2378 1081 2264 
Q 1234 2150 1697 2047 
L 1894 2003 
Q 2506 1872 2764 1633 
Q 3022 1394 3022 966 
Q 3022 478 2636 193 
Q 2250 -91 1575 -91 
Q 1294 -91 989 -36 
Q 684 19 347 128 
L 347 722 
Q 666 556 975 473 
Q 1284 391 1588 391 
Q 1994 391 2212 530 
Q 2431 669 2431 922 
Q 2431 1156 2273 1281 
Q 2116 1406 1581 1522 
L 1381 1569 
Q 847 1681 609 1914 
Q 372 2147 372 2553 
Q 372 3047 722 3315 
Q 1072 3584 1716 3584 
Q 2034 3584 2315 3537 
Q 2597 3491 2834 3397 
z
" transform="scale(0.015625)"/>
      </defs>
      <use xlink:href="#DejaVuSans-50"/>
      <use xlink:href="#DejaVuSans-72" x="58.552734"/>
      <use xlink:href="#DejaVuSans-6f" x="97.416016"/>
      <use xlink:href="#DejaVuSans-62" x="158.597656"/>
      <use xlink:href="#DejaVuSans-61" x="222.074219"/>
      <use xlink:href="#DejaVuSans-62" x="283.353516"/>
      <use xlink:href="#DejaVuSans-69" x="346.830078"/>
      <use xlink:href="#DejaVuSans-6c" x="374.613281"/>
      <use xlink:href="#DejaVuSans-69" x="402.396484"/>
      <use xlink:href="#DejaVuSans-74" x="430.179688"/>
      <use xlink:href="#DejaVuSans-79" x="469.388672"/>
      <use xlink:href="#DejaVuSans-20" x="528.568359"/>
      <use xlink:href="#DejaVuSans-64" x="560.355469"/>
      <use xlink:href="#DejaVuSans-65" x="623.832031"/>
      <use xlink:href="#DejaVuSans-6e" x="685.355469"/>
      <use xlink:href="#DejaVuSans-73" x="748.734375"/>
      <use xlink:href="#DejaVuSans-69" x="800.833984"/>
      <use xlink:href="#DejaVuSans-74" x="828.617188"/>
      <use xlink:href="#DejaVuSans-79" x="867.826172"/>
     </g>
    </g>
   </g>
   <g id="line2d_17">
    <path d="M 58.999432 224.64 
L 78.193535 190.090462 
L 88.247589 172.448401 
L 96.778302 157.912408 
L 104.395009 145.367425 
L 111.40238 134.256786 
L 117.800415 124.523634 
L 123.893781 115.659149 
L 129.682479 107.636541 
L 135.166508 100.420927 
L 140.345869 93.971169 
L 145.220562 88.24156 
L 150.095255 82.857196 
L 154.665279 78.135039 
L 159.235304 73.738811 
L 163.50066 69.938363 
L 167.766017 66.437729 
L 171.726705 63.461533 
L 175.687393 60.754678 
L 179.64808 58.321687 
L 183.3041 56.322448 
L 186.96012 54.562876 
L 190.616139 53.045477 
L 194.272159 51.772412 
L 197.928179 50.745493 
L 201.584198 49.966182 
L 204.93555 49.470285 
L 208.286901 49.183978 
L 211.638252 49.107603 
L 214.989604 49.241252 
L 218.340955 49.584765 
L 221.692307 50.13773 
L 225.043658 50.899486 
L 228.699678 51.96754 
L 232.355697 53.281463 
L 236.011717 54.839384 
L 239.667736 56.639083 
L 243.323756 58.678 
L 247.284444 61.1534 
L 251.245132 63.901998 
L 255.20582 66.9192 
L 259.471176 70.463094 
L 263.736533 74.305784 
L 268.001889 78.439822 
L 272.571913 83.183342 
L 277.141938 88.24156 
L 282.016631 93.971169 
L 287.195992 100.420927 
L 292.375353 107.225622 
L 297.859383 114.795839 
L 303.64808 123.167848 
L 309.741447 132.37115 
L 316.444149 142.914765 
L 323.45152 154.354876 
L 331.372896 167.726534 
L 340.208277 183.085541 
L 351.176336 202.617806 
L 363.363068 224.64 
L 363.363068 224.64 
" clip-path="url(#p84374fa868)" style="fill: none; stroke: #ff7f0e; stroke-width: 1.5; stroke-linecap: square"/>
   </g>
   <g id="patch_203">
    <path d="M 43.78125 224.64 
L 43.78125 7.2 
" style="fill: none; stroke: #000000; stroke-width: 0.8; stroke-linejoin: miter; stroke-linecap: square"/>
   </g>
   <g id="patch_204">
    <path d="M 378.58125 224.64 
L 378.58125 7.2 
" style="fill: none; stroke: #000000; stroke-width: 0.8; stroke-linejoin: miter; stroke-linecap: square"/>
   </g>
   <g id="patch_205">
    <path d="M 43.78125 224.64 
L 378.58125 224.64 
" style="fill: none; stroke: #000000; stroke-width: 0.8; stroke-linejoin: miter; stroke-linecap: square"/>
   </g>
   <g id="patch_206">
    <path d="M 43.78125 7.2 
L 378.58125 7.2 
" style="fill: none; stroke: #000000; stroke-width: 0.8; stroke-linejoin: miter; stroke-linecap: square"/>
   </g>
  </g>
 </g>
 <defs>
  <clipPath id="p84374fa868">
   <rect x="43.78125" y="7.2" width="334.8" height="217.44"/>
  </clipPath>
 </defs>
</svg>
