<?xml version="1.0" encoding="utf-8" standalone="no"?>
<!DOCTYPE svg PUBLIC "-//W3C//DTD SVG 1.1//EN"
  "http://www.w3.org/Graphics/SVG/1.1/DTD/svg11.dtd">
<svg xmlns:xlink="http://www.w3.org/1999/xlink" width="408.10125pt" height="310.86825pt" viewBox="0 0 408.10125 310.86825" xmlns="http://www.w3.org/2000/svg" version="1.1">
 <metadata>
  <rdf:RDF xmlns:dc="http://purl.org/dc/elements/1.1/" xmlns:cc="http://creativecommons.org/ns#" xmlns:rdf="http://www.w3.org/1999/02/22-rdf-syntax-ns#">
   <cc:Work>
    <dc:type rdf:resource="http://purl.org/dc/dcmitype/StillImage"/>
    <dc:date>2023-02-12T00:38:21.660250</dc:date>
    <dc:format>image/svg+xml</dc:format>
    <dc:creator>
     <cc:Agent>
      <dc:title>Matplotlib v3.5.3, https://matplotlib.org/</dc:title>
     </cc:Agent>
    </dc:creator>
   </cc:Work>
  </rdf:RDF>
 </metadata>
 <defs>
  <style type="text/css">*{stroke-linejoin: round; stroke-linecap: butt}</style>
 </defs>
 <g id="figure_1">
  <g id="patch_1">
   <path d="M 0 310.86825 
L 408.10125 310.86825 
L 408.10125 0 
L 0 0 
z
" style="fill: #ffffff"/>
  </g>
  <g id="axes_1">
   <g id="patch_2">
    <path d="M 43.78125 273.312 
L 400.90125 273.312 
L 400.90125 7.2 
L 43.78125 7.2 
z
" style="fill: #ffffff"/>
   </g>
   <g id="patch_3">
    <path d="M 61.356197 273.312 
L 62.970822 273.312 
L 62.970822 269.712 
L 61.356197 269.712 
z
" clip-path="url(#p2055aed33d)" style="fill: #1f77b4"/>
   </g>
   <g id="patch_4">
    <path d="M 62.970822 273.312 
L 64.585447 273.312 
L 64.585447 263.952 
L 62.970822 263.952 
z
" clip-path="url(#p2055aed33d)" style="fill: #1f77b4"/>
   </g>
   <g id="patch_5">
    <path d="M 64.585447 273.312 
L 66.200071 273.312 
L 66.200071 258.192 
L 64.585447 258.192 
z
" clip-path="url(#p2055aed33d)" style="fill: #1f77b4"/>
   </g>
   <g id="patch_6">
    <path d="M 66.200071 273.312 
L 67.814696 273.312 
L 67.814696 255.312 
L 66.200071 255.312 
z
" clip-path="url(#p2055aed33d)" style="fill: #1f77b4"/>
   </g>
   <g id="patch_7">
    <path d="M 67.814696 273.312 
L 69.429321 273.312 
L 69.429321 255.312 
L 67.814696 255.312 
z
" clip-path="url(#p2055aed33d)" style="fill: #1f77b4"/>
   </g>
   <g id="patch_8">
    <path d="M 69.429321 273.312 
L 71.043946 273.312 
L 71.043946 256.752 
L 69.429321 256.752 
z
" clip-path="url(#p2055aed33d)" style="fill: #1f77b4"/>
   </g>
   <g id="patch_9">
    <path d="M 71.043946 273.312 
L 72.658571 273.312 
L 72.658571 248.832 
L 71.043946 248.832 
z
" clip-path="url(#p2055aed33d)" style="fill: #1f77b4"/>
   </g>
   <g id="patch_10">
    <path d="M 72.658571 273.312 
L 74.273196 273.312 
L 74.273196 239.472 
L 72.658571 239.472 
z
" clip-path="url(#p2055aed33d)" style="fill: #1f77b4"/>
   </g>
   <g id="patch_11">
    <path d="M 74.273196 273.312 
L 75.887821 273.312 
L 75.887821 239.472 
L 74.273196 239.472 
z
" clip-path="url(#p2055aed33d)" style="fill: #1f77b4"/>
   </g>
   <g id="patch_12">
    <path d="M 75.887821 273.312 
L 77.502445 273.312 
L 77.502445 228.672 
L 75.887821 228.672 
z
" clip-path="url(#p2055aed33d)" style="fill: #1f77b4"/>
   </g>
   <g id="patch_13">
    <path d="M 77.502445 273.312 
L 79.11707 273.312 
L 79.11707 230.832 
L 77.502445 230.832 
z
" clip-path="url(#p2055aed33d)" style="fill: #1f77b4"/>
   </g>
   <g id="patch_14">
    <path d="M 79.11707 273.312 
L 80.731695 273.312 
L 80.731695 235.872 
L 79.11707 235.872 
z
" clip-path="url(#p2055aed33d)" style="fill: #1f77b4"/>
   </g>
   <g id="patch_15">
    <path d="M 80.731695 273.312 
L 82.34632 273.312 
L 82.34632 229.392 
L 80.731695 229.392 
z
" clip-path="url(#p2055aed33d)" style="fill: #1f77b4"/>
   </g>
   <g id="patch_16">
    <path d="M 82.34632 273.312 
L 83.960945 273.312 
L 83.960945 225.792 
L 82.34632 225.792 
z
" clip-path="url(#p2055aed33d)" style="fill: #1f77b4"/>
   </g>
   <g id="patch_17">
    <path d="M 83.960945 273.312 
L 85.57557 273.312 
L 85.57557 222.912 
L 83.960945 222.912 
z
" clip-path="url(#p2055aed33d)" style="fill: #1f77b4"/>
   </g>
   <g id="patch_18">
    <path d="M 85.57557 273.312 
L 87.190195 273.312 
L 87.190195 223.632 
L 85.57557 223.632 
z
" clip-path="url(#p2055aed33d)" style="fill: #1f77b4"/>
   </g>
   <g id="patch_19">
    <path d="M 87.190195 273.312 
L 88.804819 273.312 
L 88.804819 206.352 
L 87.190195 206.352 
z
" clip-path="url(#p2055aed33d)" style="fill: #1f77b4"/>
   </g>
   <g id="patch_20">
    <path d="M 88.804819 273.312 
L 90.419444 273.312 
L 90.419444 212.112 
L 88.804819 212.112 
z
" clip-path="url(#p2055aed33d)" style="fill: #1f77b4"/>
   </g>
   <g id="patch_21">
    <path d="M 90.419444 273.312 
L 92.034069 273.312 
L 92.034069 216.432 
L 90.419444 216.432 
z
" clip-path="url(#p2055aed33d)" style="fill: #1f77b4"/>
   </g>
   <g id="patch_22">
    <path d="M 92.034069 273.312 
L 93.648694 273.312 
L 93.648694 209.952 
L 92.034069 209.952 
z
" clip-path="url(#p2055aed33d)" style="fill: #1f77b4"/>
   </g>
   <g id="patch_23">
    <path d="M 93.648694 273.312 
L 95.263319 273.312 
L 95.263319 201.312 
L 93.648694 201.312 
z
" clip-path="url(#p2055aed33d)" style="fill: #1f77b4"/>
   </g>
   <g id="patch_24">
    <path d="M 95.263319 273.312 
L 96.877944 273.312 
L 96.877944 193.392 
L 95.263319 193.392 
z
" clip-path="url(#p2055aed33d)" style="fill: #1f77b4"/>
   </g>
   <g id="patch_25">
    <path d="M 96.877944 273.312 
L 98.492569 273.312 
L 98.492569 186.192 
L 96.877944 186.192 
z
" clip-path="url(#p2055aed33d)" style="fill: #1f77b4"/>
   </g>
   <g id="patch_26">
    <path d="M 98.492569 273.312 
L 100.107194 273.312 
L 100.107194 175.392 
L 98.492569 175.392 
z
" clip-path="url(#p2055aed33d)" style="fill: #1f77b4"/>
   </g>
   <g id="patch_27">
    <path d="M 100.107194 273.312 
L 101.721818 273.312 
L 101.721818 184.032 
L 100.107194 184.032 
z
" clip-path="url(#p2055aed33d)" style="fill: #1f77b4"/>
   </g>
   <g id="patch_28">
    <path d="M 101.721818 273.312 
L 103.336443 273.312 
L 103.336443 181.872 
L 101.721818 181.872 
z
" clip-path="url(#p2055aed33d)" style="fill: #1f77b4"/>
   </g>
   <g id="patch_29">
    <path d="M 103.336443 273.312 
L 104.951068 273.312 
L 104.951068 190.512 
L 103.336443 190.512 
z
" clip-path="url(#p2055aed33d)" style="fill: #1f77b4"/>
   </g>
   <g id="patch_30">
    <path d="M 104.951068 273.312 
L 106.565693 273.312 
L 106.565693 162.432 
L 104.951068 162.432 
z
" clip-path="url(#p2055aed33d)" style="fill: #1f77b4"/>
   </g>
   <g id="patch_31">
    <path d="M 106.565693 273.312 
L 108.180318 273.312 
L 108.180318 171.792 
L 106.565693 171.792 
z
" clip-path="url(#p2055aed33d)" style="fill: #1f77b4"/>
   </g>
   <g id="patch_32">
    <path d="M 108.180318 273.312 
L 109.794943 273.312 
L 109.794943 181.872 
L 108.180318 181.872 
z
" clip-path="url(#p2055aed33d)" style="fill: #1f77b4"/>
   </g>
   <g id="patch_33">
    <path d="M 109.794943 273.312 
L 111.409568 273.312 
L 111.409568 155.952 
L 109.794943 155.952 
z
" clip-path="url(#p2055aed33d)" style="fill: #1f77b4"/>
   </g>
   <g id="patch_34">
    <path d="M 111.409568 273.312 
L 113.024192 273.312 
L 113.024192 169.632 
L 111.409568 169.632 
z
" clip-path="url(#p2055aed33d)" style="fill: #1f77b4"/>
   </g>
   <g id="patch_35">
    <path d="M 113.024192 273.312 
L 114.638817 273.312 
L 114.638817 167.472 
L 113.024192 167.472 
z
" clip-path="url(#p2055aed33d)" style="fill: #1f77b4"/>
   </g>
   <g id="patch_36">
    <path d="M 114.638817 273.312 
L 116.253442 273.312 
L 116.253442 154.512 
L 114.638817 154.512 
z
" clip-path="url(#p2055aed33d)" style="fill: #1f77b4"/>
   </g>
   <g id="patch_37">
    <path d="M 116.253442 273.312 
L 117.868067 273.312 
L 117.868067 161.712 
L 116.253442 161.712 
z
" clip-path="url(#p2055aed33d)" style="fill: #1f77b4"/>
   </g>
   <g id="patch_38">
    <path d="M 117.868067 273.312 
L 119.482692 273.312 
L 119.482692 157.392 
L 117.868067 157.392 
z
" clip-path="url(#p2055aed33d)" style="fill: #1f77b4"/>
   </g>
   <g id="patch_39">
    <path d="M 119.482692 273.312 
L 121.097317 273.312 
L 121.097317 148.752 
L 119.482692 148.752 
z
" clip-path="url(#p2055aed33d)" style="fill: #1f77b4"/>
   </g>
   <g id="patch_40">
    <path d="M 121.097317 273.312 
L 122.711942 273.312 
L 122.711942 154.512 
L 121.097317 154.512 
z
" clip-path="url(#p2055aed33d)" style="fill: #1f77b4"/>
   </g>
   <g id="patch_41">
    <path d="M 122.711942 273.312 
L 124.326567 273.312 
L 124.326567 138.672 
L 122.711942 138.672 
z
" clip-path="url(#p2055aed33d)" style="fill: #1f77b4"/>
   </g>
   <g id="patch_42">
    <path d="M 124.326567 273.312 
L 125.941191 273.312 
L 125.941191 152.352 
L 124.326567 152.352 
z
" clip-path="url(#p2055aed33d)" style="fill: #1f77b4"/>
   </g>
   <g id="patch_43">
    <path d="M 125.941191 273.312 
L 127.555816 273.312 
L 127.555816 137.232 
L 125.941191 137.232 
z
" clip-path="url(#p2055aed33d)" style="fill: #1f77b4"/>
   </g>
   <g id="patch_44">
    <path d="M 127.555816 273.312 
L 129.170441 273.312 
L 129.170441 140.832 
L 127.555816 140.832 
z
" clip-path="url(#p2055aed33d)" style="fill: #1f77b4"/>
   </g>
   <g id="patch_45">
    <path d="M 129.170441 273.312 
L 130.785066 273.312 
L 130.785066 130.752 
L 129.170441 130.752 
z
" clip-path="url(#p2055aed33d)" style="fill: #1f77b4"/>
   </g>
   <g id="patch_46">
    <path d="M 130.785066 273.312 
L 132.399691 273.312 
L 132.399691 117.792 
L 130.785066 117.792 
z
" clip-path="url(#p2055aed33d)" style="fill: #1f77b4"/>
   </g>
   <g id="patch_47">
    <path d="M 132.399691 273.312 
L 134.014316 273.312 
L 134.014316 137.232 
L 132.399691 137.232 
z
" clip-path="url(#p2055aed33d)" style="fill: #1f77b4"/>
   </g>
   <g id="patch_48">
    <path d="M 134.014316 273.312 
L 135.628941 273.312 
L 135.628941 112.032 
L 134.014316 112.032 
z
" clip-path="url(#p2055aed33d)" style="fill: #1f77b4"/>
   </g>
   <g id="patch_49">
    <path d="M 135.628941 273.312 
L 137.243565 273.312 
L 137.243565 122.112 
L 135.628941 122.112 
z
" clip-path="url(#p2055aed33d)" style="fill: #1f77b4"/>
   </g>
   <g id="patch_50">
    <path d="M 137.243565 273.312 
L 138.85819 273.312 
L 138.85819 112.752 
L 137.243565 112.752 
z
" clip-path="url(#p2055aed33d)" style="fill: #1f77b4"/>
   </g>
   <g id="patch_51">
    <path d="M 138.85819 273.312 
L 140.472815 273.312 
L 140.472815 115.632 
L 138.85819 115.632 
z
" clip-path="url(#p2055aed33d)" style="fill: #1f77b4"/>
   </g>
   <g id="patch_52">
    <path d="M 140.472815 273.312 
L 142.08744 273.312 
L 142.08744 118.512 
L 140.472815 118.512 
z
" clip-path="url(#p2055aed33d)" style="fill: #1f77b4"/>
   </g>
   <g id="patch_53">
    <path d="M 142.08744 273.312 
L 143.702065 273.312 
L 143.702065 114.192 
L 142.08744 114.192 
z
" clip-path="url(#p2055aed33d)" style="fill: #1f77b4"/>
   </g>
   <g id="patch_54">
    <path d="M 143.702065 273.312 
L 145.31669 273.312 
L 145.31669 101.952 
L 143.702065 101.952 
z
" clip-path="url(#p2055aed33d)" style="fill: #1f77b4"/>
   </g>
   <g id="patch_55">
    <path d="M 145.31669 273.312 
L 146.931315 273.312 
L 146.931315 112.752 
L 145.31669 112.752 
z
" clip-path="url(#p2055aed33d)" style="fill: #1f77b4"/>
   </g>
   <g id="patch_56">
    <path d="M 146.931315 273.312 
L 148.545939 273.312 
L 148.545939 124.272 
L 146.931315 124.272 
z
" clip-path="url(#p2055aed33d)" style="fill: #1f77b4"/>
   </g>
   <g id="patch_57">
    <path d="M 148.545939 273.312 
L 150.160564 273.312 
L 150.160564 104.832 
L 148.545939 104.832 
z
" clip-path="url(#p2055aed33d)" style="fill: #1f77b4"/>
   </g>
   <g id="patch_58">
    <path d="M 150.160564 273.312 
L 151.775189 273.312 
L 151.775189 112.032 
L 150.160564 112.032 
z
" clip-path="url(#p2055aed33d)" style="fill: #1f77b4"/>
   </g>
   <g id="patch_59">
    <path d="M 151.775189 273.312 
L 153.389814 273.312 
L 153.389814 104.832 
L 151.775189 104.832 
z
" clip-path="url(#p2055aed33d)" style="fill: #1f77b4"/>
   </g>
   <g id="patch_60">
    <path d="M 153.389814 273.312 
L 155.004439 273.312 
L 155.004439 105.552 
L 153.389814 105.552 
z
" clip-path="url(#p2055aed33d)" style="fill: #1f77b4"/>
   </g>
   <g id="patch_61">
    <path d="M 155.004439 273.312 
L 156.619064 273.312 
L 156.619064 69.552 
L 155.004439 69.552 
z
" clip-path="url(#p2055aed33d)" style="fill: #1f77b4"/>
   </g>
   <g id="patch_62">
    <path d="M 156.619064 273.312 
L 158.233689 273.312 
L 158.233689 99.792 
L 156.619064 99.792 
z
" clip-path="url(#p2055aed33d)" style="fill: #1f77b4"/>
   </g>
   <g id="patch_63">
    <path d="M 158.233689 273.312 
L 159.848314 273.312 
L 159.848314 91.152 
L 158.233689 91.152 
z
" clip-path="url(#p2055aed33d)" style="fill: #1f77b4"/>
   </g>
   <g id="patch_64">
    <path d="M 159.848314 273.312 
L 161.462938 273.312 
L 161.462938 72.432 
L 159.848314 72.432 
z
" clip-path="url(#p2055aed33d)" style="fill: #1f77b4"/>
   </g>
   <g id="patch_65">
    <path d="M 161.462938 273.312 
L 163.077563 273.312 
L 163.077563 93.312 
L 161.462938 93.312 
z
" clip-path="url(#p2055aed33d)" style="fill: #1f77b4"/>
   </g>
   <g id="patch_66">
    <path d="M 163.077563 273.312 
L 164.692188 273.312 
L 164.692188 103.392 
L 163.077563 103.392 
z
" clip-path="url(#p2055aed33d)" style="fill: #1f77b4"/>
   </g>
   <g id="patch_67">
    <path d="M 164.692188 273.312 
L 166.306813 273.312 
L 166.306813 55.872 
L 164.692188 55.872 
z
" clip-path="url(#p2055aed33d)" style="fill: #1f77b4"/>
   </g>
   <g id="patch_68">
    <path d="M 166.306813 273.312 
L 167.921438 273.312 
L 167.921438 68.112 
L 166.306813 68.112 
z
" clip-path="url(#p2055aed33d)" style="fill: #1f77b4"/>
   </g>
   <g id="patch_69">
    <path d="M 167.921438 273.312 
L 169.536063 273.312 
L 169.536063 99.072 
L 167.921438 99.072 
z
" clip-path="url(#p2055aed33d)" style="fill: #1f77b4"/>
   </g>
   <g id="patch_70">
    <path d="M 169.536063 273.312 
L 171.150688 273.312 
L 171.150688 79.632 
L 169.536063 79.632 
z
" clip-path="url(#p2055aed33d)" style="fill: #1f77b4"/>
   </g>
   <g id="patch_71">
    <path d="M 171.150688 273.312 
L 172.765312 273.312 
L 172.765312 60.912 
L 171.150688 60.912 
z
" clip-path="url(#p2055aed33d)" style="fill: #1f77b4"/>
   </g>
   <g id="patch_72">
    <path d="M 172.765312 273.312 
L 174.379937 273.312 
L 174.379937 76.752 
L 172.765312 76.752 
z
" clip-path="url(#p2055aed33d)" style="fill: #1f77b4"/>
   </g>
   <g id="patch_73">
    <path d="M 174.379937 273.312 
L 175.994562 273.312 
L 175.994562 65.952 
L 174.379937 65.952 
z
" clip-path="url(#p2055aed33d)" style="fill: #1f77b4"/>
   </g>
   <g id="patch_74">
    <path d="M 175.994562 273.312 
L 177.609187 273.312 
L 177.609187 42.912 
L 175.994562 42.912 
z
" clip-path="url(#p2055aed33d)" style="fill: #1f77b4"/>
   </g>
   <g id="patch_75">
    <path d="M 177.609187 273.312 
L 179.223812 273.312 
L 179.223812 65.952 
L 177.609187 65.952 
z
" clip-path="url(#p2055aed33d)" style="fill: #1f77b4"/>
   </g>
   <g id="patch_76">
    <path d="M 179.223812 273.312 
L 180.838437 273.312 
L 180.838437 60.912 
L 179.223812 60.912 
z
" clip-path="url(#p2055aed33d)" style="fill: #1f77b4"/>
   </g>
   <g id="patch_77">
    <path d="M 180.838437 273.312 
L 182.453062 273.312 
L 182.453062 59.472 
L 180.838437 59.472 
z
" clip-path="url(#p2055aed33d)" style="fill: #1f77b4"/>
   </g>
   <g id="patch_78">
    <path d="M 182.453062 273.312 
L 184.067686 273.312 
L 184.067686 76.752 
L 182.453062 76.752 
z
" clip-path="url(#p2055aed33d)" style="fill: #1f77b4"/>
   </g>
   <g id="patch_79">
    <path d="M 184.067686 273.312 
L 185.682311 273.312 
L 185.682311 48.672 
L 184.067686 48.672 
z
" clip-path="url(#p2055aed33d)" style="fill: #1f77b4"/>
   </g>
   <g id="patch_80">
    <path d="M 185.682311 273.312 
L 187.296936 273.312 
L 187.296936 66.672 
L 185.682311 66.672 
z
" clip-path="url(#p2055aed33d)" style="fill: #1f77b4"/>
   </g>
   <g id="patch_81">
    <path d="M 187.296936 273.312 
L 188.911561 273.312 
L 188.911561 46.512 
L 187.296936 46.512 
z
" clip-path="url(#p2055aed33d)" style="fill: #1f77b4"/>
   </g>
   <g id="patch_82">
    <path d="M 188.911561 273.312 
L 190.526186 273.312 
L 190.526186 68.832 
L 188.911561 68.832 
z
" clip-path="url(#p2055aed33d)" style="fill: #1f77b4"/>
   </g>
   <g id="patch_83">
    <path d="M 190.526186 273.312 
L 192.140811 273.312 
L 192.140811 62.352 
L 190.526186 62.352 
z
" clip-path="url(#p2055aed33d)" style="fill: #1f77b4"/>
   </g>
   <g id="patch_84">
    <path d="M 192.140811 273.312 
L 193.755436 273.312 
L 193.755436 32.832 
L 192.140811 32.832 
z
" clip-path="url(#p2055aed33d)" style="fill: #1f77b4"/>
   </g>
   <g id="patch_85">
    <path d="M 193.755436 273.312 
L 195.370061 273.312 
L 195.370061 58.752 
L 193.755436 58.752 
z
" clip-path="url(#p2055aed33d)" style="fill: #1f77b4"/>
   </g>
   <g id="patch_86">
    <path d="M 195.370061 273.312 
L 196.984685 273.312 
L 196.984685 40.752 
L 195.370061 40.752 
z
" clip-path="url(#p2055aed33d)" style="fill: #1f77b4"/>
   </g>
   <g id="patch_87">
    <path d="M 196.984685 273.312 
L 198.59931 273.312 
L 198.59931 40.032 
L 196.984685 40.032 
z
" clip-path="url(#p2055aed33d)" style="fill: #1f77b4"/>
   </g>
   <g id="patch_88">
    <path d="M 198.59931 273.312 
L 200.213935 273.312 
L 200.213935 45.792 
L 198.59931 45.792 
z
" clip-path="url(#p2055aed33d)" style="fill: #1f77b4"/>
   </g>
   <g id="patch_89">
    <path d="M 200.213935 273.312 
L 201.82856 273.312 
L 201.82856 47.232 
L 200.213935 47.232 
z
" clip-path="url(#p2055aed33d)" style="fill: #1f77b4"/>
   </g>
   <g id="patch_90">
    <path d="M 201.82856 273.312 
L 203.443185 273.312 
L 203.443185 24.912 
L 201.82856 24.912 
z
" clip-path="url(#p2055aed33d)" style="fill: #1f77b4"/>
   </g>
   <g id="patch_91">
    <path d="M 203.443185 273.312 
L 205.05781 273.312 
L 205.05781 71.712 
L 203.443185 71.712 
z
" clip-path="url(#p2055aed33d)" style="fill: #1f77b4"/>
   </g>
   <g id="patch_92">
    <path d="M 205.05781 273.312 
L 206.672435 273.312 
L 206.672435 52.272 
L 205.05781 52.272 
z
" clip-path="url(#p2055aed33d)" style="fill: #1f77b4"/>
   </g>
   <g id="patch_93">
    <path d="M 206.672435 273.312 
L 208.287059 273.312 
L 208.287059 42.192 
L 206.672435 42.192 
z
" clip-path="url(#p2055aed33d)" style="fill: #1f77b4"/>
   </g>
   <g id="patch_94">
    <path d="M 208.287059 273.312 
L 209.901684 273.312 
L 209.901684 42.912 
L 208.287059 42.912 
z
" clip-path="url(#p2055aed33d)" style="fill: #1f77b4"/>
   </g>
   <g id="patch_95">
    <path d="M 209.901684 273.312 
L 211.516309 273.312 
L 211.516309 24.192 
L 209.901684 24.192 
z
" clip-path="url(#p2055aed33d)" style="fill: #1f77b4"/>
   </g>
   <g id="patch_96">
    <path d="M 211.516309 273.312 
L 213.130934 273.312 
L 213.130934 58.752 
L 211.516309 58.752 
z
" clip-path="url(#p2055aed33d)" style="fill: #1f77b4"/>
   </g>
   <g id="patch_97">
    <path d="M 213.130934 273.312 
L 214.745559 273.312 
L 214.745559 35.712 
L 213.130934 35.712 
z
" clip-path="url(#p2055aed33d)" style="fill: #1f77b4"/>
   </g>
   <g id="patch_98">
    <path d="M 214.745559 273.312 
L 216.360184 273.312 
L 216.360184 43.632 
L 214.745559 43.632 
z
" clip-path="url(#p2055aed33d)" style="fill: #1f77b4"/>
   </g>
   <g id="patch_99">
    <path d="M 216.360184 273.312 
L 217.974809 273.312 
L 217.974809 49.392 
L 216.360184 49.392 
z
" clip-path="url(#p2055aed33d)" style="fill: #1f77b4"/>
   </g>
   <g id="patch_100">
    <path d="M 217.974809 273.312 
L 219.589434 273.312 
L 219.589434 40.752 
L 217.974809 40.752 
z
" clip-path="url(#p2055aed33d)" style="fill: #1f77b4"/>
   </g>
   <g id="patch_101">
    <path d="M 219.589434 273.312 
L 221.204058 273.312 
L 221.204058 45.792 
L 219.589434 45.792 
z
" clip-path="url(#p2055aed33d)" style="fill: #1f77b4"/>
   </g>
   <g id="patch_102">
    <path d="M 221.204058 273.312 
L 222.818683 273.312 
L 222.818683 53.712 
L 221.204058 53.712 
z
" clip-path="url(#p2055aed33d)" style="fill: #1f77b4"/>
   </g>
   <g id="patch_103">
    <path d="M 222.818683 273.312 
L 224.433308 273.312 
L 224.433308 43.632 
L 222.818683 43.632 
z
" clip-path="url(#p2055aed33d)" style="fill: #1f77b4"/>
   </g>
   <g id="patch_104">
    <path d="M 224.433308 273.312 
L 226.047933 273.312 
L 226.047933 47.952 
L 224.433308 47.952 
z
" clip-path="url(#p2055aed33d)" style="fill: #1f77b4"/>
   </g>
   <g id="patch_105">
    <path d="M 226.047933 273.312 
L 227.662558 273.312 
L 227.662558 44.352 
L 226.047933 44.352 
z
" clip-path="url(#p2055aed33d)" style="fill: #1f77b4"/>
   </g>
   <g id="patch_106">
    <path d="M 227.662558 273.312 
L 229.277183 273.312 
L 229.277183 41.472 
L 227.662558 41.472 
z
" clip-path="url(#p2055aed33d)" style="fill: #1f77b4"/>
   </g>
   <g id="patch_107">
    <path d="M 229.277183 273.312 
L 230.891808 273.312 
L 230.891808 40.752 
L 229.277183 40.752 
z
" clip-path="url(#p2055aed33d)" style="fill: #1f77b4"/>
   </g>
   <g id="patch_108">
    <path d="M 230.891808 273.312 
L 232.506432 273.312 
L 232.506432 47.232 
L 230.891808 47.232 
z
" clip-path="url(#p2055aed33d)" style="fill: #1f77b4"/>
   </g>
   <g id="patch_109">
    <path d="M 232.506432 273.312 
L 234.121057 273.312 
L 234.121057 60.192 
L 232.506432 60.192 
z
" clip-path="url(#p2055aed33d)" style="fill: #1f77b4"/>
   </g>
   <g id="patch_110">
    <path d="M 234.121057 273.312 
L 235.735682 273.312 
L 235.735682 65.232 
L 234.121057 65.232 
z
" clip-path="url(#p2055aed33d)" style="fill: #1f77b4"/>
   </g>
   <g id="patch_111">
    <path d="M 235.735682 273.312 
L 237.350307 273.312 
L 237.350307 56.592 
L 235.735682 56.592 
z
" clip-path="url(#p2055aed33d)" style="fill: #1f77b4"/>
   </g>
   <g id="patch_112">
    <path d="M 237.350307 273.312 
L 238.964932 273.312 
L 238.964932 73.872 
L 237.350307 73.872 
z
" clip-path="url(#p2055aed33d)" style="fill: #1f77b4"/>
   </g>
   <g id="patch_113">
    <path d="M 238.964932 273.312 
L 240.579557 273.312 
L 240.579557 51.552 
L 238.964932 51.552 
z
" clip-path="url(#p2055aed33d)" style="fill: #1f77b4"/>
   </g>
   <g id="patch_114">
    <path d="M 240.579557 273.312 
L 242.194182 273.312 
L 242.194182 61.632 
L 240.579557 61.632 
z
" clip-path="url(#p2055aed33d)" style="fill: #1f77b4"/>
   </g>
   <g id="patch_115">
    <path d="M 242.194182 273.312 
L 243.808806 273.312 
L 243.808806 76.752 
L 242.194182 76.752 
z
" clip-path="url(#p2055aed33d)" style="fill: #1f77b4"/>
   </g>
   <g id="patch_116">
    <path d="M 243.808806 273.312 
L 245.423431 273.312 
L 245.423431 52.272 
L 243.808806 52.272 
z
" clip-path="url(#p2055aed33d)" style="fill: #1f77b4"/>
   </g>
   <g id="patch_117">
    <path d="M 245.423431 273.312 
L 247.038056 273.312 
L 247.038056 42.912 
L 245.423431 42.912 
z
" clip-path="url(#p2055aed33d)" style="fill: #1f77b4"/>
   </g>
   <g id="patch_118">
    <path d="M 247.038056 273.312 
L 248.652681 273.312 
L 248.652681 19.872 
L 247.038056 19.872 
z
" clip-path="url(#p2055aed33d)" style="fill: #1f77b4"/>
   </g>
   <g id="patch_119">
    <path d="M 248.652681 273.312 
L 250.267306 273.312 
L 250.267306 75.312 
L 248.652681 75.312 
z
" clip-path="url(#p2055aed33d)" style="fill: #1f77b4"/>
   </g>
   <g id="patch_120">
    <path d="M 250.267306 273.312 
L 251.881931 273.312 
L 251.881931 59.472 
L 250.267306 59.472 
z
" clip-path="url(#p2055aed33d)" style="fill: #1f77b4"/>
   </g>
   <g id="patch_121">
    <path d="M 251.881931 273.312 
L 253.496556 273.312 
L 253.496556 70.272 
L 251.881931 70.272 
z
" clip-path="url(#p2055aed33d)" style="fill: #1f77b4"/>
   </g>
   <g id="patch_122">
    <path d="M 253.496556 273.312 
L 255.111181 273.312 
L 255.111181 64.512 
L 253.496556 64.512 
z
" clip-path="url(#p2055aed33d)" style="fill: #1f77b4"/>
   </g>
   <g id="patch_123">
    <path d="M 255.111181 273.312 
L 256.725805 273.312 
L 256.725805 58.752 
L 255.111181 58.752 
z
" clip-path="url(#p2055aed33d)" style="fill: #1f77b4"/>
   </g>
   <g id="patch_124">
    <path d="M 256.725805 273.312 
L 258.34043 273.312 
L 258.34043 62.352 
L 256.725805 62.352 
z
" clip-path="url(#p2055aed33d)" style="fill: #1f77b4"/>
   </g>
   <g id="patch_125">
    <path d="M 258.34043 273.312 
L 259.955055 273.312 
L 259.955055 61.632 
L 258.34043 61.632 
z
" clip-path="url(#p2055aed33d)" style="fill: #1f77b4"/>
   </g>
   <g id="patch_126">
    <path d="M 259.955055 273.312 
L 261.56968 273.312 
L 261.56968 76.752 
L 259.955055 76.752 
z
" clip-path="url(#p2055aed33d)" style="fill: #1f77b4"/>
   </g>
   <g id="patch_127">
    <path d="M 261.56968 273.312 
L 263.184305 273.312 
L 263.184305 47.232 
L 261.56968 47.232 
z
" clip-path="url(#p2055aed33d)" style="fill: #1f77b4"/>
   </g>
   <g id="patch_128">
    <path d="M 263.184305 273.312 
L 264.79893 273.312 
L 264.79893 69.552 
L 263.184305 69.552 
z
" clip-path="url(#p2055aed33d)" style="fill: #1f77b4"/>
   </g>
   <g id="patch_129">
    <path d="M 264.79893 273.312 
L 266.413555 273.312 
L 266.413555 62.352 
L 264.79893 62.352 
z
" clip-path="url(#p2055aed33d)" style="fill: #1f77b4"/>
   </g>
   <g id="patch_130">
    <path d="M 266.413555 273.312 
L 268.028179 273.312 
L 268.028179 56.592 
L 266.413555 56.592 
z
" clip-path="url(#p2055aed33d)" style="fill: #1f77b4"/>
   </g>
   <g id="patch_131">
    <path d="M 268.028179 273.312 
L 269.642804 273.312 
L 269.642804 61.632 
L 268.028179 61.632 
z
" clip-path="url(#p2055aed33d)" style="fill: #1f77b4"/>
   </g>
   <g id="patch_132">
    <path d="M 269.642804 273.312 
L 271.257429 273.312 
L 271.257429 50.832 
L 269.642804 50.832 
z
" clip-path="url(#p2055aed33d)" style="fill: #1f77b4"/>
   </g>
   <g id="patch_133">
    <path d="M 271.257429 273.312 
L 272.872054 273.312 
L 272.872054 65.952 
L 271.257429 65.952 
z
" clip-path="url(#p2055aed33d)" style="fill: #1f77b4"/>
   </g>
   <g id="patch_134">
    <path d="M 272.872054 273.312 
L 274.486679 273.312 
L 274.486679 81.072 
L 272.872054 81.072 
z
" clip-path="url(#p2055aed33d)" style="fill: #1f77b4"/>
   </g>
   <g id="patch_135">
    <path d="M 274.486679 273.312 
L 276.101304 273.312 
L 276.101304 76.752 
L 274.486679 76.752 
z
" clip-path="url(#p2055aed33d)" style="fill: #1f77b4"/>
   </g>
   <g id="patch_136">
    <path d="M 276.101304 273.312 
L 277.715929 273.312 
L 277.715929 104.832 
L 276.101304 104.832 
z
" clip-path="url(#p2055aed33d)" style="fill: #1f77b4"/>
   </g>
   <g id="patch_137">
    <path d="M 277.715929 273.312 
L 279.330553 273.312 
L 279.330553 69.552 
L 277.715929 69.552 
z
" clip-path="url(#p2055aed33d)" style="fill: #1f77b4"/>
   </g>
   <g id="patch_138">
    <path d="M 279.330553 273.312 
L 280.945178 273.312 
L 280.945178 70.992 
L 279.330553 70.992 
z
" clip-path="url(#p2055aed33d)" style="fill: #1f77b4"/>
   </g>
   <g id="patch_139">
    <path d="M 280.945178 273.312 
L 282.559803 273.312 
L 282.559803 70.992 
L 280.945178 70.992 
z
" clip-path="url(#p2055aed33d)" style="fill: #1f77b4"/>
   </g>
   <g id="patch_140">
    <path d="M 282.559803 273.312 
L 284.174428 273.312 
L 284.174428 54.432 
L 282.559803 54.432 
z
" clip-path="url(#p2055aed33d)" style="fill: #1f77b4"/>
   </g>
   <g id="patch_141">
    <path d="M 284.174428 273.312 
L 285.789053 273.312 
L 285.789053 76.032 
L 284.174428 76.032 
z
" clip-path="url(#p2055aed33d)" style="fill: #1f77b4"/>
   </g>
   <g id="patch_142">
    <path d="M 285.789053 273.312 
L 287.403678 273.312 
L 287.403678 107.712 
L 285.789053 107.712 
z
" clip-path="url(#p2055aed33d)" style="fill: #1f77b4"/>
   </g>
   <g id="patch_143">
    <path d="M 287.403678 273.312 
L 289.018303 273.312 
L 289.018303 106.272 
L 287.403678 106.272 
z
" clip-path="url(#p2055aed33d)" style="fill: #1f77b4"/>
   </g>
   <g id="patch_144">
    <path d="M 289.018303 273.312 
L 290.632928 273.312 
L 290.632928 81.792 
L 289.018303 81.792 
z
" clip-path="url(#p2055aed33d)" style="fill: #1f77b4"/>
   </g>
   <g id="patch_145">
    <path d="M 290.632928 273.312 
L 292.247552 273.312 
L 292.247552 109.872 
L 290.632928 109.872 
z
" clip-path="url(#p2055aed33d)" style="fill: #1f77b4"/>
   </g>
   <g id="patch_146">
    <path d="M 292.247552 273.312 
L 293.862177 273.312 
L 293.862177 93.312 
L 292.247552 93.312 
z
" clip-path="url(#p2055aed33d)" style="fill: #1f77b4"/>
   </g>
   <g id="patch_147">
    <path d="M 293.862177 273.312 
L 295.476802 273.312 
L 295.476802 92.592 
L 293.862177 92.592 
z
" clip-path="url(#p2055aed33d)" style="fill: #1f77b4"/>
   </g>
   <g id="patch_148">
    <path d="M 295.476802 273.312 
L 297.091427 273.312 
L 297.091427 102.672 
L 295.476802 102.672 
z
" clip-path="url(#p2055aed33d)" style="fill: #1f77b4"/>
   </g>
   <g id="patch_149">
    <path d="M 297.091427 273.312 
L 298.706052 273.312 
L 298.706052 119.232 
L 297.091427 119.232 
z
" clip-path="url(#p2055aed33d)" style="fill: #1f77b4"/>
   </g>
   <g id="patch_150">
    <path d="M 298.706052 273.312 
L 300.320677 273.312 
L 300.320677 102.672 
L 298.706052 102.672 
z
" clip-path="url(#p2055aed33d)" style="fill: #1f77b4"/>
   </g>
   <g id="patch_151">
    <path d="M 300.320677 273.312 
L 301.935302 273.312 
L 301.935302 94.752 
L 300.320677 94.752 
z
" clip-path="url(#p2055aed33d)" style="fill: #1f77b4"/>
   </g>
   <g id="patch_152">
    <path d="M 301.935302 273.312 
L 303.549926 273.312 
L 303.549926 130.752 
L 301.935302 130.752 
z
" clip-path="url(#p2055aed33d)" style="fill: #1f77b4"/>
   </g>
   <g id="patch_153">
    <path d="M 303.549926 273.312 
L 305.164551 273.312 
L 305.164551 121.392 
L 303.549926 121.392 
z
" clip-path="url(#p2055aed33d)" style="fill: #1f77b4"/>
   </g>
   <g id="patch_154">
    <path d="M 305.164551 273.312 
L 306.779176 273.312 
L 306.779176 134.352 
L 305.164551 134.352 
z
" clip-path="url(#p2055aed33d)" style="fill: #1f77b4"/>
   </g>
   <g id="patch_155">
    <path d="M 306.779176 273.312 
L 308.393801 273.312 
L 308.393801 127.152 
L 306.779176 127.152 
z
" clip-path="url(#p2055aed33d)" style="fill: #1f77b4"/>
   </g>
   <g id="patch_156">
    <path d="M 308.393801 273.312 
L 310.008426 273.312 
L 310.008426 131.472 
L 308.393801 131.472 
z
" clip-path="url(#p2055aed33d)" style="fill: #1f77b4"/>
   </g>
   <g id="patch_157">
    <path d="M 310.008426 273.312 
L 311.623051 273.312 
L 311.623051 140.112 
L 310.008426 140.112 
z
" clip-path="url(#p2055aed33d)" style="fill: #1f77b4"/>
   </g>
   <g id="patch_158">
    <path d="M 311.623051 273.312 
L 313.237676 273.312 
L 313.237676 147.312 
L 311.623051 147.312 
z
" clip-path="url(#p2055aed33d)" style="fill: #1f77b4"/>
   </g>
   <g id="patch_159">
    <path d="M 313.237676 273.312 
L 314.852301 273.312 
L 314.852301 136.512 
L 313.237676 136.512 
z
" clip-path="url(#p2055aed33d)" style="fill: #1f77b4"/>
   </g>
   <g id="patch_160">
    <path d="M 314.852301 273.312 
L 316.466925 273.312 
L 316.466925 140.832 
L 314.852301 140.832 
z
" clip-path="url(#p2055aed33d)" style="fill: #1f77b4"/>
   </g>
   <g id="patch_161">
    <path d="M 316.466925 273.312 
L 318.08155 273.312 
L 318.08155 142.272 
L 316.466925 142.272 
z
" clip-path="url(#p2055aed33d)" style="fill: #1f77b4"/>
   </g>
   <g id="patch_162">
    <path d="M 318.08155 273.312 
L 319.696175 273.312 
L 319.696175 133.632 
L 318.08155 133.632 
z
" clip-path="url(#p2055aed33d)" style="fill: #1f77b4"/>
   </g>
   <g id="patch_163">
    <path d="M 319.696175 273.312 
L 321.3108 273.312 
L 321.3108 145.872 
L 319.696175 145.872 
z
" clip-path="url(#p2055aed33d)" style="fill: #1f77b4"/>
   </g>
   <g id="patch_164">
    <path d="M 321.3108 273.312 
L 322.925425 273.312 
L 322.925425 136.512 
L 321.3108 136.512 
z
" clip-path="url(#p2055aed33d)" style="fill: #1f77b4"/>
   </g>
   <g id="patch_165">
    <path d="M 322.925425 273.312 
L 324.54005 273.312 
L 324.54005 158.112 
L 322.925425 158.112 
z
" clip-path="url(#p2055aed33d)" style="fill: #1f77b4"/>
   </g>
   <g id="patch_166">
    <path d="M 324.54005 273.312 
L 326.154675 273.312 
L 326.154675 166.032 
L 324.54005 166.032 
z
" clip-path="url(#p2055aed33d)" style="fill: #1f77b4"/>
   </g>
   <g id="patch_167">
    <path d="M 326.154675 273.312 
L 327.769299 273.312 
L 327.769299 175.392 
L 326.154675 175.392 
z
" clip-path="url(#p2055aed33d)" style="fill: #1f77b4"/>
   </g>
   <g id="patch_168">
    <path d="M 327.769299 273.312 
L 329.383924 273.312 
L 329.383924 172.512 
L 327.769299 172.512 
z
" clip-path="url(#p2055aed33d)" style="fill: #1f77b4"/>
   </g>
   <g id="patch_169">
    <path d="M 329.383924 273.312 
L 330.998549 273.312 
L 330.998549 175.392 
L 329.383924 175.392 
z
" clip-path="url(#p2055aed33d)" style="fill: #1f77b4"/>
   </g>
   <g id="patch_170">
    <path d="M 330.998549 273.312 
L 332.613174 273.312 
L 332.613174 149.472 
L 330.998549 149.472 
z
" clip-path="url(#p2055aed33d)" style="fill: #1f77b4"/>
   </g>
   <g id="patch_171">
    <path d="M 332.613174 273.312 
L 334.227799 273.312 
L 334.227799 168.912 
L 332.613174 168.912 
z
" clip-path="url(#p2055aed33d)" style="fill: #1f77b4"/>
   </g>
   <g id="patch_172">
    <path d="M 334.227799 273.312 
L 335.842424 273.312 
L 335.842424 165.312 
L 334.227799 165.312 
z
" clip-path="url(#p2055aed33d)" style="fill: #1f77b4"/>
   </g>
   <g id="patch_173">
    <path d="M 335.842424 273.312 
L 337.457049 273.312 
L 337.457049 176.112 
L 335.842424 176.112 
z
" clip-path="url(#p2055aed33d)" style="fill: #1f77b4"/>
   </g>
   <g id="patch_174">
    <path d="M 337.457049 273.312 
L 339.071673 273.312 
L 339.071673 177.552 
L 337.457049 177.552 
z
" clip-path="url(#p2055aed33d)" style="fill: #1f77b4"/>
   </g>
   <g id="patch_175">
    <path d="M 339.071673 273.312 
L 340.686298 273.312 
L 340.686298 186.912 
L 339.071673 186.912 
z
" clip-path="url(#p2055aed33d)" style="fill: #1f77b4"/>
   </g>
   <g id="patch_176">
    <path d="M 340.686298 273.312 
L 342.300923 273.312 
L 342.300923 180.432 
L 340.686298 180.432 
z
" clip-path="url(#p2055aed33d)" style="fill: #1f77b4"/>
   </g>
   <g id="patch_177">
    <path d="M 342.300923 273.312 
L 343.915548 273.312 
L 343.915548 191.952 
L 342.300923 191.952 
z
" clip-path="url(#p2055aed33d)" style="fill: #1f77b4"/>
   </g>
   <g id="patch_178">
    <path d="M 343.915548 273.312 
L 345.530173 273.312 
L 345.530173 178.272 
L 343.915548 178.272 
z
" clip-path="url(#p2055aed33d)" style="fill: #1f77b4"/>
   </g>
   <g id="patch_179">
    <path d="M 345.530173 273.312 
L 347.144798 273.312 
L 347.144798 199.872 
L 345.530173 199.872 
z
" clip-path="url(#p2055aed33d)" style="fill: #1f77b4"/>
   </g>
   <g id="patch_180">
    <path d="M 347.144798 273.312 
L 348.759423 273.312 
L 348.759423 200.592 
L 347.144798 200.592 
z
" clip-path="url(#p2055aed33d)" style="fill: #1f77b4"/>
   </g>
   <g id="patch_181">
    <path d="M 348.759423 273.312 
L 350.374048 273.312 
L 350.374048 196.272 
L 348.759423 196.272 
z
" clip-path="url(#p2055aed33d)" style="fill: #1f77b4"/>
   </g>
   <g id="patch_182">
    <path d="M 350.374048 273.312 
L 351.988672 273.312 
L 351.988672 189.072 
L 350.374048 189.072 
z
" clip-path="url(#p2055aed33d)" style="fill: #1f77b4"/>
   </g>
   <g id="patch_183">
    <path d="M 351.988672 273.312 
L 353.603297 273.312 
L 353.603297 220.752 
L 351.988672 220.752 
z
" clip-path="url(#p2055aed33d)" style="fill: #1f77b4"/>
   </g>
   <g id="patch_184">
    <path d="M 353.603297 273.312 
L 355.217922 273.312 
L 355.217922 212.832 
L 353.603297 212.832 
z
" clip-path="url(#p2055aed33d)" style="fill: #1f77b4"/>
   </g>
   <g id="patch_185">
    <path d="M 355.217922 273.312 
L 356.832547 273.312 
L 356.832547 211.392 
L 355.217922 211.392 
z
" clip-path="url(#p2055aed33d)" style="fill: #1f77b4"/>
   </g>
   <g id="patch_186">
    <path d="M 356.832547 273.312 
L 358.447172 273.312 
L 358.447172 216.432 
L 356.832547 216.432 
z
" clip-path="url(#p2055aed33d)" style="fill: #1f77b4"/>
   </g>
   <g id="patch_187">
    <path d="M 358.447172 273.312 
L 360.061797 273.312 
L 360.061797 223.632 
L 358.447172 223.632 
z
" clip-path="url(#p2055aed33d)" style="fill: #1f77b4"/>
   </g>
   <g id="patch_188">
    <path d="M 360.061797 273.312 
L 361.676422 273.312 
L 361.676422 210.672 
L 360.061797 210.672 
z
" clip-path="url(#p2055aed33d)" style="fill: #1f77b4"/>
   </g>
   <g id="patch_189">
    <path d="M 361.676422 273.312 
L 363.291046 273.312 
L 363.291046 221.472 
L 361.676422 221.472 
z
" clip-path="url(#p2055aed33d)" style="fill: #1f77b4"/>
   </g>
   <g id="patch_190">
    <path d="M 363.291046 273.312 
L 364.905671 273.312 
L 364.905671 219.312 
L 363.291046 219.312 
z
" clip-path="url(#p2055aed33d)" style="fill: #1f77b4"/>
   </g>
   <g id="patch_191">
    <path d="M 364.905671 273.312 
L 366.520296 273.312 
L 366.520296 231.552 
L 364.905671 231.552 
z
" clip-path="url(#p2055aed33d)" style="fill: #1f77b4"/>
   </g>
   <g id="patch_192">
    <path d="M 366.520296 273.312 
L 368.134921 273.312 
L 368.134921 240.912 
L 366.520296 240.912 
z
" clip-path="url(#p2055aed33d)" style="fill: #1f77b4"/>
   </g>
   <g id="patch_193">
    <path d="M 368.134921 273.312 
L 369.749546 273.312 
L 369.749546 235.152 
L 368.134921 235.152 
z
" clip-path="url(#p2055aed33d)" style="fill: #1f77b4"/>
   </g>
   <g id="patch_194">
    <path d="M 369.749546 273.312 
L 371.364171 273.312 
L 371.364171 240.912 
L 369.749546 240.912 
z
" clip-path="url(#p2055aed33d)" style="fill: #1f77b4"/>
   </g>
   <g id="patch_195">
    <path d="M 371.364171 273.312 
L 372.978796 273.312 
L 372.978796 247.392 
L 371.364171 247.392 
z
" clip-path="url(#p2055aed33d)" style="fill: #1f77b4"/>
   </g>
   <g id="patch_196">
    <path d="M 372.978796 273.312 
L 374.59342 273.312 
L 374.59342 253.872 
L 372.978796 253.872 
z
" clip-path="url(#p2055aed33d)" style="fill: #1f77b4"/>
   </g>
   <g id="patch_197">
    <path d="M 374.59342 273.312 
L 376.208045 273.312 
L 376.208045 257.472 
L 374.59342 257.472 
z
" clip-path="url(#p2055aed33d)" style="fill: #1f77b4"/>
   </g>
   <g id="patch_198">
    <path d="M 376.208045 273.312 
L 377.82267 273.312 
L 377.82267 256.032 
L 376.208045 256.032 
z
" clip-path="url(#p2055aed33d)" style="fill: #1f77b4"/>
   </g>
   <g id="patch_199">
    <path d="M 377.82267 273.312 
L 379.437295 273.312 
L 379.437295 266.112 
L 377.82267 266.112 
z
" clip-path="url(#p2055aed33d)" style="fill: #1f77b4"/>
   </g>
   <g id="patch_200">
    <path d="M 379.437295 273.312 
L 381.05192 273.312 
L 381.05192 266.832 
L 379.437295 266.832 
z
" clip-path="url(#p2055aed33d)" style="fill: #1f77b4"/>
   </g>
   <g id="patch_201">
    <path d="M 381.05192 273.312 
L 382.666545 273.312 
L 382.666545 268.272 
L 381.05192 268.272 
z
" clip-path="url(#p2055aed33d)" style="fill: #1f77b4"/>
   </g>
   <g id="patch_202">
    <path d="M 382.666545 273.312 
L 384.28117 273.312 
L 384.28117 269.712 
L 382.666545 269.712 
z
" clip-path="url(#p2055aed33d)" style="fill: #1f77b4"/>
   </g>
   <g id="matplotlib.axis_1">
    <g id="xtick_1">
     <g id="line2d_1">
      <defs>
       <path id="m464e8a1885" d="M 0 0 
L 0 3.5 
" style="stroke: #000000; stroke-width: 0.8"/>
      </defs>
      <g>
       <use xlink:href="#m464e8a1885" x="60.013977" y="273.312" style="stroke: #000000; stroke-width: 0.8"/>
      </g>
     </g>
     <g id="text_1">
      <!-- 0.0 -->
      <g transform="translate(52.062415 287.910437)scale(0.1 -0.1)">
       <defs>
        <path id="DejaVuSans-30" d="M 2034 4250 
Q 1547 4250 1301 3770 
Q 1056 3291 1056 2328 
Q 1056 1369 1301 889 
Q 1547 409 2034 409 
Q 2525 409 2770 889 
Q 3016 1369 3016 2328 
Q 3016 3291 2770 3770 
Q 2525 4250 2034 4250 
z
M 2034 4750 
Q 2819 4750 3233 4129 
Q 3647 3509 3647 2328 
Q 3647 1150 3233 529 
Q 2819 -91 2034 -91 
Q 1250 -91 836 529 
Q 422 1150 422 2328 
Q 422 3509 836 4129 
Q 1250 4750 2034 4750 
z
" transform="scale(0.015625)"/>
        <path id="DejaVuSans-2e" d="M 684 794 
L 1344 794 
L 1344 0 
L 684 0 
L 684 794 
z
" transform="scale(0.015625)"/>
       </defs>
       <use xlink:href="#DejaVuSans-30"/>
       <use xlink:href="#DejaVuSans-2e" x="63.623047"/>
       <use xlink:href="#DejaVuSans-30" x="95.410156"/>
      </g>
     </g>
    </g>
    <g id="xtick_2">
     <g id="line2d_2">
      <g>
       <use xlink:href="#m464e8a1885" x="101.350278" y="273.312" style="stroke: #000000; stroke-width: 0.8"/>
      </g>
     </g>
     <g id="text_2">
      <!-- 0.2 -->
      <g transform="translate(93.398715 287.910437)scale(0.1 -0.1)">
       <defs>
        <path id="DejaVuSans-32" d="M 1228 531 
L 3431 531 
L 3431 0 
L 469 0 
L 469 531 
Q 828 903 1448 1529 
Q 2069 2156 2228 2338 
Q 2531 2678 2651 2914 
Q 2772 3150 2772 3378 
Q 2772 3750 2511 3984 
Q 2250 4219 1831 4219 
Q 1534 4219 1204 4116 
Q 875 4013 500 3803 
L 500 4441 
Q 881 4594 1212 4672 
Q 1544 4750 1819 4750 
Q 2544 4750 2975 4387 
Q 3406 4025 3406 3419 
Q 3406 3131 3298 2873 
Q 3191 2616 2906 2266 
Q 2828 2175 2409 1742 
Q 1991 1309 1228 531 
z
" transform="scale(0.015625)"/>
       </defs>
       <use xlink:href="#DejaVuSans-30"/>
       <use xlink:href="#DejaVuSans-2e" x="63.623047"/>
       <use xlink:href="#DejaVuSans-32" x="95.410156"/>
      </g>
     </g>
    </g>
    <g id="xtick_3">
     <g id="line2d_3">
      <g>
       <use xlink:href="#m464e8a1885" x="142.686578" y="273.312" style="stroke: #000000; stroke-width: 0.8"/>
      </g>
     </g>
     <g id="text_3">
      <!-- 0.4 -->
      <g transform="translate(134.735016 287.910437)scale(0.1 -0.1)">
       <defs>
        <path id="DejaVuSans-34" d="M 2419 4116 
L 825 1625 
L 2419 1625 
L 2419 4116 
z
M 2253 4666 
L 3047 4666 
L 3047 1625 
L 3713 1625 
L 3713 1100 
L 3047 1100 
L 3047 0 
L 2419 0 
L 2419 1100 
L 313 1100 
L 313 1709 
L 2253 4666 
z
" transform="scale(0.015625)"/>
       </defs>
       <use xlink:href="#DejaVuSans-30"/>
       <use xlink:href="#DejaVuSans-2e" x="63.623047"/>
       <use xlink:href="#DejaVuSans-34" x="95.410156"/>
      </g>
     </g>
    </g>
    <g id="xtick_4">
     <g id="line2d_4">
      <g>
       <use xlink:href="#m464e8a1885" x="184.022879" y="273.312" style="stroke: #000000; stroke-width: 0.8"/>
      </g>
     </g>
     <g id="text_4">
      <!-- 0.6 -->
      <g transform="translate(176.071316 287.910437)scale(0.1 -0.1)">
       <defs>
        <path id="DejaVuSans-36" d="M 2113 2584 
Q 1688 2584 1439 2293 
Q 1191 2003 1191 1497 
Q 1191 994 1439 701 
Q 1688 409 2113 409 
Q 2538 409 2786 701 
Q 3034 994 3034 1497 
Q 3034 2003 2786 2293 
Q 2538 2584 2113 2584 
z
M 3366 4563 
L 3366 3988 
Q 3128 4100 2886 4159 
Q 2644 4219 2406 4219 
Q 1781 4219 1451 3797 
Q 1122 3375 1075 2522 
Q 1259 2794 1537 2939 
Q 1816 3084 2150 3084 
Q 2853 3084 3261 2657 
Q 3669 2231 3669 1497 
Q 3669 778 3244 343 
Q 2819 -91 2113 -91 
Q 1303 -91 875 529 
Q 447 1150 447 2328 
Q 447 3434 972 4092 
Q 1497 4750 2381 4750 
Q 2619 4750 2861 4703 
Q 3103 4656 3366 4563 
z
" transform="scale(0.015625)"/>
       </defs>
       <use xlink:href="#DejaVuSans-30"/>
       <use xlink:href="#DejaVuSans-2e" x="63.623047"/>
       <use xlink:href="#DejaVuSans-36" x="95.410156"/>
      </g>
     </g>
    </g>
    <g id="xtick_5">
     <g id="line2d_5">
      <g>
       <use xlink:href="#m464e8a1885" x="225.35918" y="273.312" style="stroke: #000000; stroke-width: 0.8"/>
      </g>
     </g>
     <g id="text_5">
      <!-- 0.8 -->
      <g transform="translate(217.407617 287.910437)scale(0.1 -0.1)">
       <defs>
        <path id="DejaVuSans-38" d="M 2034 2216 
Q 1584 2216 1326 1975 
Q 1069 1734 1069 1313 
Q 1069 891 1326 650 
Q 1584 409 2034 409 
Q 2484 409 2743 651 
Q 3003 894 3003 1313 
Q 3003 1734 2745 1975 
Q 2488 2216 2034 2216 
z
M 1403 2484 
Q 997 2584 770 2862 
Q 544 3141 544 3541 
Q 544 4100 942 4425 
Q 1341 4750 2034 4750 
Q 2731 4750 3128 4425 
Q 3525 4100 3525 3541 
Q 3525 3141 3298 2862 
Q 3072 2584 2669 2484 
Q 3125 2378 3379 2068 
Q 3634 1759 3634 1313 
Q 3634 634 3220 271 
Q 2806 -91 2034 -91 
Q 1263 -91 848 271 
Q 434 634 434 1313 
Q 434 1759 690 2068 
Q 947 2378 1403 2484 
z
M 1172 3481 
Q 1172 3119 1398 2916 
Q 1625 2713 2034 2713 
Q 2441 2713 2670 2916 
Q 2900 3119 2900 3481 
Q 2900 3844 2670 4047 
Q 2441 4250 2034 4250 
Q 1625 4250 1398 4047 
Q 1172 3844 1172 3481 
z
" transform="scale(0.015625)"/>
       </defs>
       <use xlink:href="#DejaVuSans-30"/>
       <use xlink:href="#DejaVuSans-2e" x="63.623047"/>
       <use xlink:href="#DejaVuSans-38" x="95.410156"/>
      </g>
     </g>
    </g>
    <g id="xtick_6">
     <g id="line2d_6">
      <g>
       <use xlink:href="#m464e8a1885" x="266.69548" y="273.312" style="stroke: #000000; stroke-width: 0.8"/>
      </g>
     </g>
     <g id="text_6">
      <!-- 1.0 -->
      <g transform="translate(258.743918 287.910437)scale(0.1 -0.1)">
       <defs>
        <path id="DejaVuSans-31" d="M 794 531 
L 1825 531 
L 1825 4091 
L 703 3866 
L 703 4441 
L 1819 4666 
L 2450 4666 
L 2450 531 
L 3481 531 
L 3481 0 
L 794 0 
L 794 531 
z
" transform="scale(0.015625)"/>
       </defs>
       <use xlink:href="#DejaVuSans-31"/>
       <use xlink:href="#DejaVuSans-2e" x="63.623047"/>
       <use xlink:href="#DejaVuSans-30" x="95.410156"/>
      </g>
     </g>
    </g>
    <g id="xtick_7">
     <g id="line2d_7">
      <g>
       <use xlink:href="#m464e8a1885" x="308.031781" y="273.312" style="stroke: #000000; stroke-width: 0.8"/>
      </g>
     </g>
     <g id="text_7">
      <!-- 1.2 -->
      <g transform="translate(300.080218 287.910437)scale(0.1 -0.1)">
       <use xlink:href="#DejaVuSans-31"/>
       <use xlink:href="#DejaVuSans-2e" x="63.623047"/>
       <use xlink:href="#DejaVuSans-32" x="95.410156"/>
      </g>
     </g>
    </g>
    <g id="xtick_8">
     <g id="line2d_8">
      <g>
       <use xlink:href="#m464e8a1885" x="349.368081" y="273.312" style="stroke: #000000; stroke-width: 0.8"/>
      </g>
     </g>
     <g id="text_8">
      <!-- 1.4 -->
      <g transform="translate(341.416519 287.910437)scale(0.1 -0.1)">
       <use xlink:href="#DejaVuSans-31"/>
       <use xlink:href="#DejaVuSans-2e" x="63.623047"/>
       <use xlink:href="#DejaVuSans-34" x="95.410156"/>
      </g>
     </g>
    </g>
    <g id="xtick_9">
     <g id="line2d_9">
      <g>
       <use xlink:href="#m464e8a1885" x="390.704382" y="273.312" style="stroke: #000000; stroke-width: 0.8"/>
      </g>
     </g>
     <g id="text_9">
      <!-- 1.6 -->
      <g transform="translate(382.752819 287.910437)scale(0.1 -0.1)">
       <use xlink:href="#DejaVuSans-31"/>
       <use xlink:href="#DejaVuSans-2e" x="63.623047"/>
       <use xlink:href="#DejaVuSans-36" x="95.410156"/>
      </g>
     </g>
    </g>
    <g id="text_10">
     <!-- Angle with normal (rad) -->
     <g transform="translate(163.023281 301.588562)scale(0.1 -0.1)">
      <defs>
       <path id="DejaVuSans-41" d="M 2188 4044 
L 1331 1722 
L 3047 1722 
L 2188 4044 
z
M 1831 4666 
L 2547 4666 
L 4325 0 
L 3669 0 
L 3244 1197 
L 1141 1197 
L 716 0 
L 50 0 
L 1831 4666 
z
" transform="scale(0.015625)"/>
       <path id="DejaVuSans-6e" d="M 3513 2113 
L 3513 0 
L 2938 0 
L 2938 2094 
Q 2938 2591 2744 2837 
Q 2550 3084 2163 3084 
Q 1697 3084 1428 2787 
Q 1159 2491 1159 1978 
L 1159 0 
L 581 0 
L 581 3500 
L 1159 3500 
L 1159 2956 
Q 1366 3272 1645 3428 
Q 1925 3584 2291 3584 
Q 2894 3584 3203 3211 
Q 3513 2838 3513 2113 
z
" transform="scale(0.015625)"/>
       <path id="DejaVuSans-67" d="M 2906 1791 
Q 2906 2416 2648 2759 
Q 2391 3103 1925 3103 
Q 1463 3103 1205 2759 
Q 947 2416 947 1791 
Q 947 1169 1205 825 
Q 1463 481 1925 481 
Q 2391 481 2648 825 
Q 2906 1169 2906 1791 
z
M 3481 434 
Q 3481 -459 3084 -895 
Q 2688 -1331 1869 -1331 
Q 1566 -1331 1297 -1286 
Q 1028 -1241 775 -1147 
L 775 -588 
Q 1028 -725 1275 -790 
Q 1522 -856 1778 -856 
Q 2344 -856 2625 -561 
Q 2906 -266 2906 331 
L 2906 616 
Q 2728 306 2450 153 
Q 2172 0 1784 0 
Q 1141 0 747 490 
Q 353 981 353 1791 
Q 353 2603 747 3093 
Q 1141 3584 1784 3584 
Q 2172 3584 2450 3431 
Q 2728 3278 2906 2969 
L 2906 3500 
L 3481 3500 
L 3481 434 
z
" transform="scale(0.015625)"/>
       <path id="DejaVuSans-6c" d="M 603 4863 
L 1178 4863 
L 1178 0 
L 603 0 
L 603 4863 
z
" transform="scale(0.015625)"/>
       <path id="DejaVuSans-65" d="M 3597 1894 
L 3597 1613 
L 953 1613 
Q 991 1019 1311 708 
Q 1631 397 2203 397 
Q 2534 397 2845 478 
Q 3156 559 3463 722 
L 3463 178 
Q 3153 47 2828 -22 
Q 2503 -91 2169 -91 
Q 1331 -91 842 396 
Q 353 884 353 1716 
Q 353 2575 817 3079 
Q 1281 3584 2069 3584 
Q 2775 3584 3186 3129 
Q 3597 2675 3597 1894 
z
M 3022 2063 
Q 3016 2534 2758 2815 
Q 2500 3097 2075 3097 
Q 1594 3097 1305 2825 
Q 1016 2553 972 2059 
L 3022 2063 
z
" transform="scale(0.015625)"/>
       <path id="DejaVuSans-20" transform="scale(0.015625)"/>
       <path id="DejaVuSans-77" d="M 269 3500 
L 844 3500 
L 1563 769 
L 2278 3500 
L 2956 3500 
L 3675 769 
L 4391 3500 
L 4966 3500 
L 4050 0 
L 3372 0 
L 2619 2869 
L 1863 0 
L 1184 0 
L 269 3500 
z
" transform="scale(0.015625)"/>
       <path id="DejaVuSans-69" d="M 603 3500 
L 1178 3500 
L 1178 0 
L 603 0 
L 603 3500 
z
M 603 4863 
L 1178 4863 
L 1178 4134 
L 603 4134 
L 603 4863 
z
" transform="scale(0.015625)"/>
       <path id="DejaVuSans-74" d="M 1172 4494 
L 1172 3500 
L 2356 3500 
L 2356 3053 
L 1172 3053 
L 1172 1153 
Q 1172 725 1289 603 
Q 1406 481 1766 481 
L 2356 481 
L 2356 0 
L 1766 0 
Q 1100 0 847 248 
Q 594 497 594 1153 
L 594 3053 
L 172 3053 
L 172 3500 
L 594 3500 
L 594 4494 
L 1172 4494 
z
" transform="scale(0.015625)"/>
       <path id="DejaVuSans-68" d="M 3513 2113 
L 3513 0 
L 2938 0 
L 2938 2094 
Q 2938 2591 2744 2837 
Q 2550 3084 2163 3084 
Q 1697 3084 1428 2787 
Q 1159 2491 1159 1978 
L 1159 0 
L 581 0 
L 581 4863 
L 1159 4863 
L 1159 2956 
Q 1366 3272 1645 3428 
Q 1925 3584 2291 3584 
Q 2894 3584 3203 3211 
Q 3513 2838 3513 2113 
z
" transform="scale(0.015625)"/>
       <path id="DejaVuSans-6f" d="M 1959 3097 
Q 1497 3097 1228 2736 
Q 959 2375 959 1747 
Q 959 1119 1226 758 
Q 1494 397 1959 397 
Q 2419 397 2687 759 
Q 2956 1122 2956 1747 
Q 2956 2369 2687 2733 
Q 2419 3097 1959 3097 
z
M 1959 3584 
Q 2709 3584 3137 3096 
Q 3566 2609 3566 1747 
Q 3566 888 3137 398 
Q 2709 -91 1959 -91 
Q 1206 -91 779 398 
Q 353 888 353 1747 
Q 353 2609 779 3096 
Q 1206 3584 1959 3584 
z
" transform="scale(0.015625)"/>
       <path id="DejaVuSans-72" d="M 2631 2963 
Q 2534 3019 2420 3045 
Q 2306 3072 2169 3072 
Q 1681 3072 1420 2755 
Q 1159 2438 1159 1844 
L 1159 0 
L 581 0 
L 581 3500 
L 1159 3500 
L 1159 2956 
Q 1341 3275 1631 3429 
Q 1922 3584 2338 3584 
Q 2397 3584 2469 3576 
Q 2541 3569 2628 3553 
L 2631 2963 
z
" transform="scale(0.015625)"/>
       <path id="DejaVuSans-6d" d="M 3328 2828 
Q 3544 3216 3844 3400 
Q 4144 3584 4550 3584 
Q 5097 3584 5394 3201 
Q 5691 2819 5691 2113 
L 5691 0 
L 5113 0 
L 5113 2094 
Q 5113 2597 4934 2840 
Q 4756 3084 4391 3084 
Q 3944 3084 3684 2787 
Q 3425 2491 3425 1978 
L 3425 0 
L 2847 0 
L 2847 2094 
Q 2847 2600 2669 2842 
Q 2491 3084 2119 3084 
Q 1678 3084 1418 2786 
Q 1159 2488 1159 1978 
L 1159 0 
L 581 0 
L 581 3500 
L 1159 3500 
L 1159 2956 
Q 1356 3278 1631 3431 
Q 1906 3584 2284 3584 
Q 2666 3584 2933 3390 
Q 3200 3197 3328 2828 
z
" transform="scale(0.015625)"/>
       <path id="DejaVuSans-61" d="M 2194 1759 
Q 1497 1759 1228 1600 
Q 959 1441 959 1056 
Q 959 750 1161 570 
Q 1363 391 1709 391 
Q 2188 391 2477 730 
Q 2766 1069 2766 1631 
L 2766 1759 
L 2194 1759 
z
M 3341 1997 
L 3341 0 
L 2766 0 
L 2766 531 
Q 2569 213 2275 61 
Q 1981 -91 1556 -91 
Q 1019 -91 701 211 
Q 384 513 384 1019 
Q 384 1609 779 1909 
Q 1175 2209 1959 2209 
L 2766 2209 
L 2766 2266 
Q 2766 2663 2505 2880 
Q 2244 3097 1772 3097 
Q 1472 3097 1187 3025 
Q 903 2953 641 2809 
L 641 3341 
Q 956 3463 1253 3523 
Q 1550 3584 1831 3584 
Q 2591 3584 2966 3190 
Q 3341 2797 3341 1997 
z
" transform="scale(0.015625)"/>
       <path id="DejaVuSans-28" d="M 1984 4856 
Q 1566 4138 1362 3434 
Q 1159 2731 1159 2009 
Q 1159 1288 1364 580 
Q 1569 -128 1984 -844 
L 1484 -844 
Q 1016 -109 783 600 
Q 550 1309 550 2009 
Q 550 2706 781 3412 
Q 1013 4119 1484 4856 
L 1984 4856 
z
" transform="scale(0.015625)"/>
       <path id="DejaVuSans-64" d="M 2906 2969 
L 2906 4863 
L 3481 4863 
L 3481 0 
L 2906 0 
L 2906 525 
Q 2725 213 2448 61 
Q 2172 -91 1784 -91 
Q 1150 -91 751 415 
Q 353 922 353 1747 
Q 353 2572 751 3078 
Q 1150 3584 1784 3584 
Q 2172 3584 2448 3432 
Q 2725 3281 2906 2969 
z
M 947 1747 
Q 947 1113 1208 752 
Q 1469 391 1925 391 
Q 2381 391 2643 752 
Q 2906 1113 2906 1747 
Q 2906 2381 2643 2742 
Q 2381 3103 1925 3103 
Q 1469 3103 1208 2742 
Q 947 2381 947 1747 
z
" transform="scale(0.015625)"/>
       <path id="DejaVuSans-29" d="M 513 4856 
L 1013 4856 
Q 1481 4119 1714 3412 
Q 1947 2706 1947 2009 
Q 1947 1309 1714 600 
Q 1481 -109 1013 -844 
L 513 -844 
Q 928 -128 1133 580 
Q 1338 1288 1338 2009 
Q 1338 2731 1133 3434 
Q 928 4138 513 4856 
z
" transform="scale(0.015625)"/>
      </defs>
      <use xlink:href="#DejaVuSans-41"/>
      <use xlink:href="#DejaVuSans-6e" x="68.408203"/>
      <use xlink:href="#DejaVuSans-67" x="131.787109"/>
      <use xlink:href="#DejaVuSans-6c" x="195.263672"/>
      <use xlink:href="#DejaVuSans-65" x="223.046875"/>
      <use xlink:href="#DejaVuSans-20" x="284.570312"/>
      <use xlink:href="#DejaVuSans-77" x="316.357422"/>
      <use xlink:href="#DejaVuSans-69" x="398.144531"/>
      <use xlink:href="#DejaVuSans-74" x="425.927734"/>
      <use xlink:href="#DejaVuSans-68" x="465.136719"/>
      <use xlink:href="#DejaVuSans-20" x="528.515625"/>
      <use xlink:href="#DejaVuSans-6e" x="560.302734"/>
      <use xlink:href="#DejaVuSans-6f" x="623.681641"/>
      <use xlink:href="#DejaVuSans-72" x="684.863281"/>
      <use xlink:href="#DejaVuSans-6d" x="724.226562"/>
      <use xlink:href="#DejaVuSans-61" x="821.638672"/>
      <use xlink:href="#DejaVuSans-6c" x="882.917969"/>
      <use xlink:href="#DejaVuSans-20" x="910.701172"/>
      <use xlink:href="#DejaVuSans-28" x="942.488281"/>
      <use xlink:href="#DejaVuSans-72" x="981.501953"/>
      <use xlink:href="#DejaVuSans-61" x="1022.615234"/>
      <use xlink:href="#DejaVuSans-64" x="1083.894531"/>
      <use xlink:href="#DejaVuSans-29" x="1147.371094"/>
     </g>
    </g>
   </g>
   <g id="matplotlib.axis_2">
    <g id="ytick_1">
     <g id="line2d_10">
      <defs>
       <path id="m425c004672" d="M 0 0 
L -3.5 0 
" style="stroke: #000000; stroke-width: 0.8"/>
      </defs>
      <g>
       <use xlink:href="#m425c004672" x="43.78125" y="273.312" style="stroke: #000000; stroke-width: 0.8"/>
      </g>
     </g>
     <g id="text_11">
      <!-- 0.0 -->
      <g transform="translate(20.878125 277.111219)scale(0.1 -0.1)">
       <use xlink:href="#DejaVuSans-30"/>
       <use xlink:href="#DejaVuSans-2e" x="63.623047"/>
       <use xlink:href="#DejaVuSans-30" x="95.410156"/>
      </g>
     </g>
    </g>
    <g id="ytick_2">
     <g id="line2d_11">
      <g>
       <use xlink:href="#m425c004672" x="43.78125" y="228.314073" style="stroke: #000000; stroke-width: 0.8"/>
      </g>
     </g>
     <g id="text_12">
      <!-- 0.2 -->
      <g transform="translate(20.878125 232.113292)scale(0.1 -0.1)">
       <use xlink:href="#DejaVuSans-30"/>
       <use xlink:href="#DejaVuSans-2e" x="63.623047"/>
       <use xlink:href="#DejaVuSans-32" x="95.410156"/>
      </g>
     </g>
    </g>
    <g id="ytick_3">
     <g id="line2d_12">
      <g>
       <use xlink:href="#m425c004672" x="43.78125" y="183.316146" style="stroke: #000000; stroke-width: 0.8"/>
      </g>
     </g>
     <g id="text_13">
      <!-- 0.4 -->
      <g transform="translate(20.878125 187.115364)scale(0.1 -0.1)">
       <use xlink:href="#DejaVuSans-30"/>
       <use xlink:href="#DejaVuSans-2e" x="63.623047"/>
       <use xlink:href="#DejaVuSans-34" x="95.410156"/>
      </g>
     </g>
    </g>
    <g id="ytick_4">
     <g id="line2d_13">
      <g>
       <use xlink:href="#m425c004672" x="43.78125" y="138.318218" style="stroke: #000000; stroke-width: 0.8"/>
      </g>
     </g>
     <g id="text_14">
      <!-- 0.6 -->
      <g transform="translate(20.878125 142.117437)scale(0.1 -0.1)">
       <use xlink:href="#DejaVuSans-30"/>
       <use xlink:href="#DejaVuSans-2e" x="63.623047"/>
       <use xlink:href="#DejaVuSans-36" x="95.410156"/>
      </g>
     </g>
    </g>
    <g id="ytick_5">
     <g id="line2d_14">
      <g>
       <use xlink:href="#m425c004672" x="43.78125" y="93.320291" style="stroke: #000000; stroke-width: 0.8"/>
      </g>
     </g>
     <g id="text_15">
      <!-- 0.8 -->
      <g transform="translate(20.878125 97.11951)scale(0.1 -0.1)">
       <use xlink:href="#DejaVuSans-30"/>
       <use xlink:href="#DejaVuSans-2e" x="63.623047"/>
       <use xlink:href="#DejaVuSans-38" x="95.410156"/>
      </g>
     </g>
    </g>
    <g id="ytick_6">
     <g id="line2d_15">
      <g>
       <use xlink:href="#m425c004672" x="43.78125" y="48.322364" style="stroke: #000000; stroke-width: 0.8"/>
      </g>
     </g>
     <g id="text_16">
      <!-- 1.0 -->
      <g transform="translate(20.878125 52.121583)scale(0.1 -0.1)">
       <use xlink:href="#DejaVuSans-31"/>
       <use xlink:href="#DejaVuSans-2e" x="63.623047"/>
       <use xlink:href="#DejaVuSans-30" x="95.410156"/>
      </g>
     </g>
    </g>
    <g id="text_17">
     <!-- Probability density -->
     <g transform="translate(14.798438 186.606781)rotate(-90)scale(0.1 -0.1)">
      <defs>
       <path id="DejaVuSans-50" d="M 1259 4147 
L 1259 2394 
L 2053 2394 
Q 2494 2394 2734 2622 
Q 2975 2850 2975 3272 
Q 2975 3691 2734 3919 
Q 2494 4147 2053 4147 
L 1259 4147 
z
M 628 4666 
L 2053 4666 
Q 2838 4666 3239 4311 
Q 3641 3956 3641 3272 
Q 3641 2581 3239 2228 
Q 2838 1875 2053 1875 
L 1259 1875 
L 1259 0 
L 628 0 
L 628 4666 
z
" transform="scale(0.015625)"/>
       <path id="DejaVuSans-62" d="M 3116 1747 
Q 3116 2381 2855 2742 
Q 2594 3103 2138 3103 
Q 1681 3103 1420 2742 
Q 1159 2381 1159 1747 
Q 1159 1113 1420 752 
Q 1681 391 2138 391 
Q 2594 391 2855 752 
Q 3116 1113 3116 1747 
z
M 1159 2969 
Q 1341 3281 1617 3432 
Q 1894 3584 2278 3584 
Q 2916 3584 3314 3078 
Q 3713 2572 3713 1747 
Q 3713 922 3314 415 
Q 2916 -91 2278 -91 
Q 1894 -91 1617 61 
Q 1341 213 1159 525 
L 1159 0 
L 581 0 
L 581 4863 
L 1159 4863 
L 1159 2969 
z
" transform="scale(0.015625)"/>
       <path id="DejaVuSans-79" d="M 2059 -325 
Q 1816 -950 1584 -1140 
Q 1353 -1331 966 -1331 
L 506 -1331 
L 506 -850 
L 844 -850 
Q 1081 -850 1212 -737 
Q 1344 -625 1503 -206 
L 1606 56 
L 191 3500 
L 800 3500 
L 1894 763 
L 2988 3500 
L 3597 3500 
L 2059 -325 
z
" transform="scale(0.015625)"/>
       <path id="DejaVuSans-73" d="M 2834 3397 
L 2834 2853 
Q 2591 2978 2328 3040 
Q 2066 3103 1784 3103 
Q 1356 3103 1142 2972 
Q 928 2841 928 2578 
Q 928 2378 1081 2264 
Q 1234 2150 1697 2047 
L 1894 2003 
Q 2506 1872 2764 1633 
Q 3022 1394 3022 966 
Q 3022 478 2636 193 
Q 2250 -91 1575 -91 
Q 1294 -91 989 -36 
Q 684 19 347 128 
L 347 722 
Q 666 556 975 473 
Q 1284 391 1588 391 
Q 1994 391 2212 530 
Q 2431 669 2431 922 
Q 2431 1156 2273 1281 
Q 2116 1406 1581 1522 
L 1381 1569 
Q 847 1681 609 1914 
Q 372 2147 372 2553 
Q 372 3047 722 3315 
Q 1072 3584 1716 3584 
Q 2034 3584 2315 3537 
Q 2597 3491 2834 3397 
z
" transform="scale(0.015625)"/>
      </defs>
      <use xlink:href="#DejaVuSans-50"/>
      <use xlink:href="#DejaVuSans-72" x="58.552734"/>
      <use xlink:href="#DejaVuSans-6f" x="97.416016"/>
      <use xlink:href="#DejaVuSans-62" x="158.597656"/>
      <use xlink:href="#DejaVuSans-61" x="222.074219"/>
      <use xlink:href="#DejaVuSans-62" x="283.353516"/>
      <use xlink:href="#DejaVuSans-69" x="346.830078"/>
      <use xlink:href="#DejaVuSans-6c" x="374.613281"/>
      <use xlink:href="#DejaVuSans-69" x="402.396484"/>
      <use xlink:href="#DejaVuSans-74" x="430.179688"/>
      <use xlink:href="#DejaVuSans-79" x="469.388672"/>
      <use xlink:href="#DejaVuSans-20" x="528.568359"/>
      <use xlink:href="#DejaVuSans-64" x="560.355469"/>
      <use xlink:href="#DejaVuSans-65" x="623.832031"/>
      <use xlink:href="#DejaVuSans-6e" x="685.355469"/>
      <use xlink:href="#DejaVuSans-73" x="748.734375"/>
      <use xlink:href="#DejaVuSans-69" x="800.833984"/>
      <use xlink:href="#DejaVuSans-74" x="828.617188"/>
      <use xlink:href="#DejaVuSans-79" x="867.826172"/>
     </g>
    </g>
   </g>
   <g id="line2d_16">
    <path d="M 60.013977 273.312 
L 79.837728 230.416681 
L 90.237073 208.44542 
L 99.01152 190.408855 
L 106.811029 174.873857 
L 113.960578 161.123692 
L 120.460169 149.087652 
L 126.63478 138.10771 
L 132.484411 128.150164 
L 138.009063 119.172255 
L 143.208736 111.124347 
L 148.408408 103.486959 
L 153.283101 96.71695 
L 158.157794 90.339812 
L 162.707507 84.754801 
L 167.257221 79.535215 
L 171.481954 75.024514 
L 175.706688 70.845165 
L 179.606442 67.287454 
L 183.506197 64.023101 
L 187.405951 61.056755 
L 190.980726 58.60301 
L 194.555501 56.406164 
L 198.130275 54.468844 
L 201.70505 52.793368 
L 205.279825 51.381742 
L 208.52962 50.328834 
L 211.779415 49.496423 
L 215.029211 48.885334 
L 218.279006 48.49617 
L 221.528801 48.329317 
L 224.778596 48.384939 
L 228.028392 48.662982 
L 231.278187 49.16317 
L 234.527982 49.885009 
L 237.777777 50.827786 
L 241.027573 51.990567 
L 244.277368 53.372203 
L 247.852143 55.143143 
L 251.426917 57.175121 
L 255.001692 59.465705 
L 258.576467 62.012156 
L 262.476221 65.078328 
L 266.375976 68.441004 
L 270.27573 72.095396 
L 274.500464 76.377469 
L 278.725198 80.988634 
L 282.949931 85.921184 
L 287.499645 91.583116 
L 292.049358 97.597239 
L 296.924051 104.418511 
L 301.798744 111.61552 
L 306.998416 119.68842 
L 312.523068 128.69145 
L 318.3727 138.673908 
L 324.547311 149.678175 
L 331.046901 161.737543 
L 337.871471 174.873857 
L 345.346 189.751517 
L 353.795468 207.091733 
L 363.544854 227.641927 
L 375.894076 254.231546 
L 384.668523 273.312 
L 384.668523 273.312 
" clip-path="url(#p2055aed33d)" style="fill: none; stroke: #ff7f0e; stroke-width: 1.5; stroke-linecap: square"/>
   </g>
   <g id="patch_203">
    <path d="M 43.78125 273.312 
L 43.78125 7.2 
" style="fill: none; stroke: #000000; stroke-width: 0.8; stroke-linejoin: miter; stroke-linecap: square"/>
   </g>
   <g id="patch_204">
    <path d="M 400.90125 273.312 
L 400.90125 7.2 
" style="fill: none; stroke: #000000; stroke-width: 0.8; stroke-linejoin: miter; stroke-linecap: square"/>
   </g>
   <g id="patch_205">
    <path d="M 43.78125 273.312 
L 400.90125 273.312 
" style="fill: none; stroke: #000000; stroke-width: 0.8; stroke-linejoin: miter; stroke-linecap: square"/>
   </g>
   <g id="patch_206">
    <path d="M 43.78125 7.2 
L 400.90125 7.2 
" style="fill: none; stroke: #000000; stroke-width: 0.8; stroke-linejoin: miter; stroke-linecap: square"/>
   </g>
  </g>
 </g>
 <defs>
  <clipPath id="p2055aed33d">
   <rect x="43.78125" y="7.2" width="357.12" height="266.112"/>
  </clipPath>
 </defs>
</svg>
