<?xml version="1.0" encoding="utf-8" standalone="no"?>
<!DOCTYPE svg PUBLIC "-//W3C//DTD SVG 1.1//EN"
  "http://www.w3.org/Graphics/SVG/1.1/DTD/svg11.dtd">
<svg xmlns:xlink="http://www.w3.org/1999/xlink" width="392.14375pt" height="262.19625pt" viewBox="0 0 392.14375 262.19625" xmlns="http://www.w3.org/2000/svg" version="1.1">
 <metadata>
  <rdf:RDF xmlns:dc="http://purl.org/dc/elements/1.1/" xmlns:cc="http://creativecommons.org/ns#" xmlns:rdf="http://www.w3.org/1999/02/22-rdf-syntax-ns#">
   <cc:Work>
    <dc:type rdf:resource="http://purl.org/dc/dcmitype/StillImage"/>
    <dc:date>2022-07-18T04:14:34.153193</dc:date>
    <dc:format>image/svg+xml</dc:format>
    <dc:creator>
     <cc:Agent>
      <dc:title>Matplotlib v3.5.2, https://matplotlib.org/</dc:title>
     </cc:Agent>
    </dc:creator>
   </cc:Work>
  </rdf:RDF>
 </metadata>
 <defs>
  <style type="text/css">*{stroke-linejoin: round; stroke-linecap: butt}</style>
 </defs>
 <g id="figure_1">
  <g id="patch_1">
   <path d="M 0 262.19625 
L 392.14375 262.19625 
L 392.14375 0 
L 0 0 
L 0 262.19625 
z
" style="fill: none"/>
  </g>
  <g id="axes_1">
   <g id="patch_2">
    <path d="M 50.14375 224.64 
L 384.94375 224.64 
L 384.94375 7.2 
L 50.14375 7.2 
z
" style="fill: #ffffff"/>
   </g>
   <g id="patch_3">
    <path d="M 67.250728 224.64 
L 68.763078 224.64 
L 68.763078 223.142995 
L 67.250728 223.142995 
z
" clip-path="url(#p746025aa57)" style="fill: #1f77b4"/>
   </g>
   <g id="patch_4">
    <path d="M 68.763078 224.64 
L 70.275428 224.64 
L 70.275428 221.146988 
L 68.763078 221.146988 
z
" clip-path="url(#p746025aa57)" style="fill: #1f77b4"/>
   </g>
   <g id="patch_5">
    <path d="M 70.275428 224.64 
L 71.787778 224.64 
L 71.787778 221.146988 
L 70.275428 221.146988 
z
" clip-path="url(#p746025aa57)" style="fill: #1f77b4"/>
   </g>
   <g id="patch_6">
    <path d="M 71.787778 224.64 
L 73.300127 224.64 
L 73.300127 219.150981 
L 71.787778 219.150981 
z
" clip-path="url(#p746025aa57)" style="fill: #1f77b4"/>
   </g>
   <g id="patch_7">
    <path d="M 73.300127 224.64 
L 74.812477 224.64 
L 74.812477 218.152978 
L 73.300127 218.152978 
z
" clip-path="url(#p746025aa57)" style="fill: #1f77b4"/>
   </g>
   <g id="patch_8">
    <path d="M 74.812477 224.64 
L 76.324827 224.64 
L 76.324827 217.154974 
L 74.812477 217.154974 
z
" clip-path="url(#p746025aa57)" style="fill: #1f77b4"/>
   </g>
   <g id="patch_9">
    <path d="M 76.324827 224.64 
L 77.837177 224.64 
L 77.837177 218.651979 
L 76.324827 218.651979 
z
" clip-path="url(#p746025aa57)" style="fill: #1f77b4"/>
   </g>
   <g id="patch_10">
    <path d="M 77.837177 224.64 
L 79.349527 224.64 
L 79.349527 219.150981 
L 77.837177 219.150981 
z
" clip-path="url(#p746025aa57)" style="fill: #1f77b4"/>
   </g>
   <g id="patch_11">
    <path d="M 79.349527 224.64 
L 80.861876 224.64 
L 80.861876 214.160964 
L 79.349527 214.160964 
z
" clip-path="url(#p746025aa57)" style="fill: #1f77b4"/>
   </g>
   <g id="patch_12">
    <path d="M 80.861876 224.64 
L 82.374226 224.64 
L 82.374226 218.152978 
L 80.861876 218.152978 
z
" clip-path="url(#p746025aa57)" style="fill: #1f77b4"/>
   </g>
   <g id="patch_13">
    <path d="M 82.374226 224.64 
L 83.886576 224.64 
L 83.886576 209.170947 
L 82.374226 209.170947 
z
" clip-path="url(#p746025aa57)" style="fill: #1f77b4"/>
   </g>
   <g id="patch_14">
    <path d="M 83.886576 224.64 
L 85.398926 224.64 
L 85.398926 212.164957 
L 83.886576 212.164957 
z
" clip-path="url(#p746025aa57)" style="fill: #1f77b4"/>
   </g>
   <g id="patch_15">
    <path d="M 85.398926 224.64 
L 86.911276 224.64 
L 86.911276 209.669948 
L 85.398926 209.669948 
z
" clip-path="url(#p746025aa57)" style="fill: #1f77b4"/>
   </g>
   <g id="patch_16">
    <path d="M 86.911276 224.64 
L 88.423625 224.64 
L 88.423625 209.669948 
L 86.911276 209.669948 
z
" clip-path="url(#p746025aa57)" style="fill: #1f77b4"/>
   </g>
   <g id="patch_17">
    <path d="M 88.423625 224.64 
L 89.935975 224.64 
L 89.935975 206.176936 
L 88.423625 206.176936 
z
" clip-path="url(#p746025aa57)" style="fill: #1f77b4"/>
   </g>
   <g id="patch_18">
    <path d="M 89.935975 224.64 
L 91.448325 224.64 
L 91.448325 208.172943 
L 89.935975 208.172943 
z
" clip-path="url(#p746025aa57)" style="fill: #1f77b4"/>
   </g>
   <g id="patch_19">
    <path d="M 91.448325 224.64 
L 92.960675 224.64 
L 92.960675 208.671945 
L 91.448325 208.671945 
z
" clip-path="url(#p746025aa57)" style="fill: #1f77b4"/>
   </g>
   <g id="patch_20">
    <path d="M 92.960675 224.64 
L 94.473025 224.64 
L 94.473025 205.677935 
L 92.960675 205.677935 
z
" clip-path="url(#p746025aa57)" style="fill: #1f77b4"/>
   </g>
   <g id="patch_21">
    <path d="M 94.473025 224.64 
L 95.985375 224.64 
L 95.985375 199.190912 
L 94.473025 199.190912 
z
" clip-path="url(#p746025aa57)" style="fill: #1f77b4"/>
   </g>
   <g id="patch_22">
    <path d="M 95.985375 224.64 
L 97.497724 224.64 
L 97.497724 205.178933 
L 95.985375 205.178933 
z
" clip-path="url(#p746025aa57)" style="fill: #1f77b4"/>
   </g>
   <g id="patch_23">
    <path d="M 97.497724 224.64 
L 99.010074 224.64 
L 99.010074 204.679931 
L 97.497724 204.679931 
z
" clip-path="url(#p746025aa57)" style="fill: #1f77b4"/>
   </g>
   <g id="patch_24">
    <path d="M 99.010074 224.64 
L 100.522424 224.64 
L 100.522424 202.184923 
L 99.010074 202.184923 
z
" clip-path="url(#p746025aa57)" style="fill: #1f77b4"/>
   </g>
   <g id="patch_25">
    <path d="M 100.522424 224.64 
L 102.034774 224.64 
L 102.034774 198.69191 
L 100.522424 198.69191 
z
" clip-path="url(#p746025aa57)" style="fill: #1f77b4"/>
   </g>
   <g id="patch_26">
    <path d="M 102.034774 224.64 
L 103.547124 224.64 
L 103.547124 203.182926 
L 102.034774 203.182926 
z
" clip-path="url(#p746025aa57)" style="fill: #1f77b4"/>
   </g>
   <g id="patch_27">
    <path d="M 103.547124 224.64 
L 105.059473 224.64 
L 105.059473 203.182926 
L 103.547124 203.182926 
z
" clip-path="url(#p746025aa57)" style="fill: #1f77b4"/>
   </g>
   <g id="patch_28">
    <path d="M 105.059473 224.64 
L 106.571823 224.64 
L 106.571823 201.685921 
L 105.059473 201.685921 
z
" clip-path="url(#p746025aa57)" style="fill: #1f77b4"/>
   </g>
   <g id="patch_29">
    <path d="M 106.571823 224.64 
L 108.084173 224.64 
L 108.084173 200.188916 
L 106.571823 200.188916 
z
" clip-path="url(#p746025aa57)" style="fill: #1f77b4"/>
   </g>
   <g id="patch_30">
    <path d="M 108.084173 224.64 
L 109.596523 224.64 
L 109.596523 195.198898 
L 108.084173 195.198898 
z
" clip-path="url(#p746025aa57)" style="fill: #1f77b4"/>
   </g>
   <g id="patch_31">
    <path d="M 109.596523 224.64 
L 111.108873 224.64 
L 111.108873 191.206885 
L 109.596523 191.206885 
z
" clip-path="url(#p746025aa57)" style="fill: #1f77b4"/>
   </g>
   <g id="patch_32">
    <path d="M 111.108873 224.64 
L 112.621222 224.64 
L 112.621222 189.210878 
L 111.108873 189.210878 
z
" clip-path="url(#p746025aa57)" style="fill: #1f77b4"/>
   </g>
   <g id="patch_33">
    <path d="M 112.621222 224.64 
L 114.133572 224.64 
L 114.133572 190.707883 
L 112.621222 190.707883 
z
" clip-path="url(#p746025aa57)" style="fill: #1f77b4"/>
   </g>
   <g id="patch_34">
    <path d="M 114.133572 224.64 
L 115.645922 224.64 
L 115.645922 195.198898 
L 114.133572 195.198898 
z
" clip-path="url(#p746025aa57)" style="fill: #1f77b4"/>
   </g>
   <g id="patch_35">
    <path d="M 115.645922 224.64 
L 117.158272 224.64 
L 117.158272 186.715869 
L 115.645922 186.715869 
z
" clip-path="url(#p746025aa57)" style="fill: #1f77b4"/>
   </g>
   <g id="patch_36">
    <path d="M 117.158272 224.64 
L 118.670622 224.64 
L 118.670622 195.6979 
L 117.158272 195.6979 
z
" clip-path="url(#p746025aa57)" style="fill: #1f77b4"/>
   </g>
   <g id="patch_37">
    <path d="M 118.670622 224.64 
L 120.182972 224.64 
L 120.182972 180.228847 
L 118.670622 180.228847 
z
" clip-path="url(#p746025aa57)" style="fill: #1f77b4"/>
   </g>
   <g id="patch_38">
    <path d="M 120.182972 224.64 
L 121.695321 224.64 
L 121.695321 183.721859 
L 120.182972 183.721859 
z
" clip-path="url(#p746025aa57)" style="fill: #1f77b4"/>
   </g>
   <g id="patch_39">
    <path d="M 121.695321 224.64 
L 123.207671 224.64 
L 123.207671 189.210878 
L 121.695321 189.210878 
z
" clip-path="url(#p746025aa57)" style="fill: #1f77b4"/>
   </g>
   <g id="patch_40">
    <path d="M 123.207671 224.64 
L 124.720021 224.64 
L 124.720021 184.220861 
L 123.207671 184.220861 
z
" clip-path="url(#p746025aa57)" style="fill: #1f77b4"/>
   </g>
   <g id="patch_41">
    <path d="M 124.720021 224.64 
L 126.232371 224.64 
L 126.232371 189.70988 
L 124.720021 189.70988 
z
" clip-path="url(#p746025aa57)" style="fill: #1f77b4"/>
   </g>
   <g id="patch_42">
    <path d="M 126.232371 224.64 
L 127.744721 224.64 
L 127.744721 187.214871 
L 126.232371 187.214871 
z
" clip-path="url(#p746025aa57)" style="fill: #1f77b4"/>
   </g>
   <g id="patch_43">
    <path d="M 127.744721 224.64 
L 129.25707 224.64 
L 129.25707 181.725852 
L 127.744721 181.725852 
z
" clip-path="url(#p746025aa57)" style="fill: #1f77b4"/>
   </g>
   <g id="patch_44">
    <path d="M 129.25707 224.64 
L 130.76942 224.64 
L 130.76942 175.737831 
L 129.25707 175.737831 
z
" clip-path="url(#p746025aa57)" style="fill: #1f77b4"/>
   </g>
   <g id="patch_45">
    <path d="M 130.76942 224.64 
L 132.28177 224.64 
L 132.28177 183.222857 
L 130.76942 183.222857 
z
" clip-path="url(#p746025aa57)" style="fill: #1f77b4"/>
   </g>
   <g id="patch_46">
    <path d="M 132.28177 224.64 
L 133.79412 224.64 
L 133.79412 182.723855 
L 132.28177 182.723855 
z
" clip-path="url(#p746025aa57)" style="fill: #1f77b4"/>
   </g>
   <g id="patch_47">
    <path d="M 133.79412 224.64 
L 135.30647 224.64 
L 135.30647 181.22685 
L 133.79412 181.22685 
z
" clip-path="url(#p746025aa57)" style="fill: #1f77b4"/>
   </g>
   <g id="patch_48">
    <path d="M 135.30647 224.64 
L 136.818819 224.64 
L 136.818819 185.218864 
L 135.30647 185.218864 
z
" clip-path="url(#p746025aa57)" style="fill: #1f77b4"/>
   </g>
   <g id="patch_49">
    <path d="M 136.818819 224.64 
L 138.331169 224.64 
L 138.331169 179.729845 
L 136.818819 179.729845 
z
" clip-path="url(#p746025aa57)" style="fill: #1f77b4"/>
   </g>
   <g id="patch_50">
    <path d="M 138.331169 224.64 
L 139.843519 224.64 
L 139.843519 179.729845 
L 138.331169 179.729845 
z
" clip-path="url(#p746025aa57)" style="fill: #1f77b4"/>
   </g>
   <g id="patch_51">
    <path d="M 139.843519 224.64 
L 141.355869 224.64 
L 141.355869 173.741824 
L 139.843519 173.741824 
z
" clip-path="url(#p746025aa57)" style="fill: #1f77b4"/>
   </g>
   <g id="patch_52">
    <path d="M 141.355869 224.64 
L 142.868219 224.64 
L 142.868219 171.246816 
L 141.355869 171.246816 
z
" clip-path="url(#p746025aa57)" style="fill: #1f77b4"/>
   </g>
   <g id="patch_53">
    <path d="M 142.868219 224.64 
L 144.380569 224.64 
L 144.380569 175.23883 
L 142.868219 175.23883 
z
" clip-path="url(#p746025aa57)" style="fill: #1f77b4"/>
   </g>
   <g id="patch_54">
    <path d="M 144.380569 224.64 
L 145.892918 224.64 
L 145.892918 174.739828 
L 144.380569 174.739828 
z
" clip-path="url(#p746025aa57)" style="fill: #1f77b4"/>
   </g>
   <g id="patch_55">
    <path d="M 145.892918 224.64 
L 147.405268 224.64 
L 147.405268 177.234836 
L 145.892918 177.234836 
z
" clip-path="url(#p746025aa57)" style="fill: #1f77b4"/>
   </g>
   <g id="patch_56">
    <path d="M 147.405268 224.64 
L 148.917618 224.64 
L 148.917618 172.244819 
L 147.405268 172.244819 
z
" clip-path="url(#p746025aa57)" style="fill: #1f77b4"/>
   </g>
   <g id="patch_57">
    <path d="M 148.917618 224.64 
L 150.429968 224.64 
L 150.429968 176.236833 
L 148.917618 176.236833 
z
" clip-path="url(#p746025aa57)" style="fill: #1f77b4"/>
   </g>
   <g id="patch_58">
    <path d="M 150.429968 224.64 
L 151.942318 224.64 
L 151.942318 173.242823 
L 150.429968 173.242823 
z
" clip-path="url(#p746025aa57)" style="fill: #1f77b4"/>
   </g>
   <g id="patch_59">
    <path d="M 151.942318 224.64 
L 153.454667 224.64 
L 153.454667 175.23883 
L 151.942318 175.23883 
z
" clip-path="url(#p746025aa57)" style="fill: #1f77b4"/>
   </g>
   <g id="patch_60">
    <path d="M 153.454667 224.64 
L 154.967017 224.64 
L 154.967017 166.7558 
L 153.454667 166.7558 
z
" clip-path="url(#p746025aa57)" style="fill: #1f77b4"/>
   </g>
   <g id="patch_61">
    <path d="M 154.967017 224.64 
L 156.479367 224.64 
L 156.479367 169.749811 
L 154.967017 169.749811 
z
" clip-path="url(#p746025aa57)" style="fill: #1f77b4"/>
   </g>
   <g id="patch_62">
    <path d="M 156.479367 224.64 
L 157.991717 224.64 
L 157.991717 176.735835 
L 156.479367 176.735835 
z
" clip-path="url(#p746025aa57)" style="fill: #1f77b4"/>
   </g>
   <g id="patch_63">
    <path d="M 157.991717 224.64 
L 159.504067 224.64 
L 159.504067 161.266781 
L 157.991717 161.266781 
z
" clip-path="url(#p746025aa57)" style="fill: #1f77b4"/>
   </g>
   <g id="patch_64">
    <path d="M 159.504067 224.64 
L 161.016416 224.64 
L 161.016416 161.765783 
L 159.504067 161.765783 
z
" clip-path="url(#p746025aa57)" style="fill: #1f77b4"/>
   </g>
   <g id="patch_65">
    <path d="M 161.016416 224.64 
L 162.528766 224.64 
L 162.528766 168.751807 
L 161.016416 168.751807 
z
" clip-path="url(#p746025aa57)" style="fill: #1f77b4"/>
   </g>
   <g id="patch_66">
    <path d="M 162.528766 224.64 
L 164.041116 224.64 
L 164.041116 161.765783 
L 162.528766 161.765783 
z
" clip-path="url(#p746025aa57)" style="fill: #1f77b4"/>
   </g>
   <g id="patch_67">
    <path d="M 164.041116 224.64 
L 165.553466 224.64 
L 165.553466 164.260792 
L 164.041116 164.260792 
z
" clip-path="url(#p746025aa57)" style="fill: #1f77b4"/>
   </g>
   <g id="patch_68">
    <path d="M 165.553466 224.64 
L 167.065816 224.64 
L 167.065816 160.268778 
L 165.553466 160.268778 
z
" clip-path="url(#p746025aa57)" style="fill: #1f77b4"/>
   </g>
   <g id="patch_69">
    <path d="M 167.065816 224.64 
L 168.578166 224.64 
L 168.578166 150.787745 
L 167.065816 150.787745 
z
" clip-path="url(#p746025aa57)" style="fill: #1f77b4"/>
   </g>
   <g id="patch_70">
    <path d="M 168.578166 224.64 
L 170.090515 224.64 
L 170.090515 157.773769 
L 168.578166 157.773769 
z
" clip-path="url(#p746025aa57)" style="fill: #1f77b4"/>
   </g>
   <g id="patch_71">
    <path d="M 170.090515 224.64 
L 171.602865 224.64 
L 171.602865 161.266781 
L 170.090515 161.266781 
z
" clip-path="url(#p746025aa57)" style="fill: #1f77b4"/>
   </g>
   <g id="patch_72">
    <path d="M 171.602865 224.64 
L 173.115215 224.64 
L 173.115215 155.777762 
L 171.602865 155.777762 
z
" clip-path="url(#p746025aa57)" style="fill: #1f77b4"/>
   </g>
   <g id="patch_73">
    <path d="M 173.115215 224.64 
L 174.627565 224.64 
L 174.627565 152.28475 
L 173.115215 152.28475 
z
" clip-path="url(#p746025aa57)" style="fill: #1f77b4"/>
   </g>
   <g id="patch_74">
    <path d="M 174.627565 224.64 
L 176.139915 224.64 
L 176.139915 162.763787 
L 174.627565 162.763787 
z
" clip-path="url(#p746025aa57)" style="fill: #1f77b4"/>
   </g>
   <g id="patch_75">
    <path d="M 176.139915 224.64 
L 177.652264 224.64 
L 177.652264 155.278761 
L 176.139915 155.278761 
z
" clip-path="url(#p746025aa57)" style="fill: #1f77b4"/>
   </g>
   <g id="patch_76">
    <path d="M 177.652264 224.64 
L 179.164614 224.64 
L 179.164614 156.276764 
L 177.652264 156.276764 
z
" clip-path="url(#p746025aa57)" style="fill: #1f77b4"/>
   </g>
   <g id="patch_77">
    <path d="M 179.164614 224.64 
L 180.676964 224.64 
L 180.676964 143.302719 
L 179.164614 143.302719 
z
" clip-path="url(#p746025aa57)" style="fill: #1f77b4"/>
   </g>
   <g id="patch_78">
    <path d="M 180.676964 224.64 
L 182.189314 224.64 
L 182.189314 145.298726 
L 180.676964 145.298726 
z
" clip-path="url(#p746025aa57)" style="fill: #1f77b4"/>
   </g>
   <g id="patch_79">
    <path d="M 182.189314 224.64 
L 183.701664 224.64 
L 183.701664 155.777762 
L 182.189314 155.777762 
z
" clip-path="url(#p746025aa57)" style="fill: #1f77b4"/>
   </g>
   <g id="patch_80">
    <path d="M 183.701664 224.64 
L 185.214013 224.64 
L 185.214013 147.793735 
L 183.701664 147.793735 
z
" clip-path="url(#p746025aa57)" style="fill: #1f77b4"/>
   </g>
   <g id="patch_81">
    <path d="M 185.214013 224.64 
L 186.726363 224.64 
L 186.726363 143.801721 
L 185.214013 143.801721 
z
" clip-path="url(#p746025aa57)" style="fill: #1f77b4"/>
   </g>
   <g id="patch_82">
    <path d="M 186.726363 224.64 
L 188.238713 224.64 
L 188.238713 149.789742 
L 186.726363 149.789742 
z
" clip-path="url(#p746025aa57)" style="fill: #1f77b4"/>
   </g>
   <g id="patch_83">
    <path d="M 188.238713 224.64 
L 189.751063 224.64 
L 189.751063 146.795731 
L 188.238713 146.795731 
z
" clip-path="url(#p746025aa57)" style="fill: #1f77b4"/>
   </g>
   <g id="patch_84">
    <path d="M 189.751063 224.64 
L 191.263413 224.64 
L 191.263413 138.312702 
L 189.751063 138.312702 
z
" clip-path="url(#p746025aa57)" style="fill: #1f77b4"/>
   </g>
   <g id="patch_85">
    <path d="M 191.263413 224.64 
L 192.775763 224.64 
L 192.775763 146.29673 
L 191.263413 146.29673 
z
" clip-path="url(#p746025aa57)" style="fill: #1f77b4"/>
   </g>
   <g id="patch_86">
    <path d="M 192.775763 224.64 
L 194.288112 224.64 
L 194.288112 144.799725 
L 192.775763 144.799725 
z
" clip-path="url(#p746025aa57)" style="fill: #1f77b4"/>
   </g>
   <g id="patch_87">
    <path d="M 194.288112 224.64 
L 195.800462 224.64 
L 195.800462 137.314699 
L 194.288112 137.314699 
z
" clip-path="url(#p746025aa57)" style="fill: #1f77b4"/>
   </g>
   <g id="patch_88">
    <path d="M 195.800462 224.64 
L 197.312812 224.64 
L 197.312812 139.809707 
L 195.800462 139.809707 
z
" clip-path="url(#p746025aa57)" style="fill: #1f77b4"/>
   </g>
   <g id="patch_89">
    <path d="M 197.312812 224.64 
L 198.825162 224.64 
L 198.825162 146.29673 
L 197.312812 146.29673 
z
" clip-path="url(#p746025aa57)" style="fill: #1f77b4"/>
   </g>
   <g id="patch_90">
    <path d="M 198.825162 224.64 
L 200.337512 224.64 
L 200.337512 136.815697 
L 198.825162 136.815697 
z
" clip-path="url(#p746025aa57)" style="fill: #1f77b4"/>
   </g>
   <g id="patch_91">
    <path d="M 200.337512 224.64 
L 201.849861 224.64 
L 201.849861 127.833666 
L 200.337512 127.833666 
z
" clip-path="url(#p746025aa57)" style="fill: #1f77b4"/>
   </g>
   <g id="patch_92">
    <path d="M 201.849861 224.64 
L 203.362211 224.64 
L 203.362211 138.811704 
L 201.849861 138.811704 
z
" clip-path="url(#p746025aa57)" style="fill: #1f77b4"/>
   </g>
   <g id="patch_93">
    <path d="M 203.362211 224.64 
L 204.874561 224.64 
L 204.874561 126.835663 
L 203.362211 126.835663 
z
" clip-path="url(#p746025aa57)" style="fill: #1f77b4"/>
   </g>
   <g id="patch_94">
    <path d="M 204.874561 224.64 
L 206.386911 224.64 
L 206.386911 136.815697 
L 204.874561 136.815697 
z
" clip-path="url(#p746025aa57)" style="fill: #1f77b4"/>
   </g>
   <g id="patch_95">
    <path d="M 206.386911 224.64 
L 207.899261 224.64 
L 207.899261 123.841652 
L 206.386911 123.841652 
z
" clip-path="url(#p746025aa57)" style="fill: #1f77b4"/>
   </g>
   <g id="patch_96">
    <path d="M 207.899261 224.64 
L 209.41161 224.64 
L 209.41161 136.815697 
L 207.899261 136.815697 
z
" clip-path="url(#p746025aa57)" style="fill: #1f77b4"/>
   </g>
   <g id="patch_97">
    <path d="M 209.41161 224.64 
L 210.92396 224.64 
L 210.92396 126.336661 
L 209.41161 126.336661 
z
" clip-path="url(#p746025aa57)" style="fill: #1f77b4"/>
   </g>
   <g id="patch_98">
    <path d="M 210.92396 224.64 
L 212.43631 224.64 
L 212.43631 127.334664 
L 210.92396 127.334664 
z
" clip-path="url(#p746025aa57)" style="fill: #1f77b4"/>
   </g>
   <g id="patch_99">
    <path d="M 212.43631 224.64 
L 213.94866 224.64 
L 213.94866 130.328675 
L 212.43631 130.328675 
z
" clip-path="url(#p746025aa57)" style="fill: #1f77b4"/>
   </g>
   <g id="patch_100">
    <path d="M 213.94866 224.64 
L 215.46101 224.64 
L 215.46101 119.849639 
L 213.94866 119.849639 
z
" clip-path="url(#p746025aa57)" style="fill: #1f77b4"/>
   </g>
   <g id="patch_101">
    <path d="M 215.46101 224.64 
L 216.97336 224.64 
L 216.97336 129.330671 
L 215.46101 129.330671 
z
" clip-path="url(#p746025aa57)" style="fill: #1f77b4"/>
   </g>
   <g id="patch_102">
    <path d="M 216.97336 224.64 
L 218.485709 224.64 
L 218.485709 133.322685 
L 216.97336 133.322685 
z
" clip-path="url(#p746025aa57)" style="fill: #1f77b4"/>
   </g>
   <g id="patch_103">
    <path d="M 218.485709 224.64 
L 219.998059 224.64 
L 219.998059 128.332668 
L 218.485709 128.332668 
z
" clip-path="url(#p746025aa57)" style="fill: #1f77b4"/>
   </g>
   <g id="patch_104">
    <path d="M 219.998059 224.64 
L 221.510409 224.64 
L 221.510409 120.34864 
L 219.998059 120.34864 
z
" clip-path="url(#p746025aa57)" style="fill: #1f77b4"/>
   </g>
   <g id="patch_105">
    <path d="M 221.510409 224.64 
L 223.022759 224.64 
L 223.022759 118.851635 
L 221.510409 118.851635 
z
" clip-path="url(#p746025aa57)" style="fill: #1f77b4"/>
   </g>
   <g id="patch_106">
    <path d="M 223.022759 224.64 
L 224.535109 224.64 
L 224.535109 129.829673 
L 223.022759 129.829673 
z
" clip-path="url(#p746025aa57)" style="fill: #1f77b4"/>
   </g>
   <g id="patch_107">
    <path d="M 224.535109 224.64 
L 226.047458 224.64 
L 226.047458 109.370602 
L 224.535109 109.370602 
z
" clip-path="url(#p746025aa57)" style="fill: #1f77b4"/>
   </g>
   <g id="patch_108">
    <path d="M 226.047458 224.64 
L 227.559808 224.64 
L 227.559808 111.366609 
L 226.047458 111.366609 
z
" clip-path="url(#p746025aa57)" style="fill: #1f77b4"/>
   </g>
   <g id="patch_109">
    <path d="M 227.559808 224.64 
L 229.072158 224.64 
L 229.072158 137.314699 
L 227.559808 137.314699 
z
" clip-path="url(#p746025aa57)" style="fill: #1f77b4"/>
   </g>
   <g id="patch_110">
    <path d="M 229.072158 224.64 
L 230.584508 224.64 
L 230.584508 106.875594 
L 229.072158 106.875594 
z
" clip-path="url(#p746025aa57)" style="fill: #1f77b4"/>
   </g>
   <g id="patch_111">
    <path d="M 230.584508 224.64 
L 232.096858 224.64 
L 232.096858 122.344647 
L 230.584508 122.344647 
z
" clip-path="url(#p746025aa57)" style="fill: #1f77b4"/>
   </g>
   <g id="patch_112">
    <path d="M 232.096858 224.64 
L 233.609207 224.64 
L 233.609207 114.36062 
L 232.096858 114.36062 
z
" clip-path="url(#p746025aa57)" style="fill: #1f77b4"/>
   </g>
   <g id="patch_113">
    <path d="M 233.609207 224.64 
L 235.121557 224.64 
L 235.121557 116.356627 
L 233.609207 116.356627 
z
" clip-path="url(#p746025aa57)" style="fill: #1f77b4"/>
   </g>
   <g id="patch_114">
    <path d="M 235.121557 224.64 
L 236.633907 224.64 
L 236.633907 114.36062 
L 235.121557 114.36062 
z
" clip-path="url(#p746025aa57)" style="fill: #1f77b4"/>
   </g>
   <g id="patch_115">
    <path d="M 236.633907 224.64 
L 238.146257 224.64 
L 238.146257 119.350637 
L 236.633907 119.350637 
z
" clip-path="url(#p746025aa57)" style="fill: #1f77b4"/>
   </g>
   <g id="patch_116">
    <path d="M 238.146257 224.64 
L 239.658607 224.64 
L 239.658607 101.386575 
L 238.146257 101.386575 
z
" clip-path="url(#p746025aa57)" style="fill: #1f77b4"/>
   </g>
   <g id="patch_117">
    <path d="M 239.658607 224.64 
L 241.170957 224.64 
L 241.170957 100.388571 
L 239.658607 100.388571 
z
" clip-path="url(#p746025aa57)" style="fill: #1f77b4"/>
   </g>
   <g id="patch_118">
    <path d="M 241.170957 224.64 
L 242.683306 224.64 
L 242.683306 106.376592 
L 241.170957 106.376592 
z
" clip-path="url(#p746025aa57)" style="fill: #1f77b4"/>
   </g>
   <g id="patch_119">
    <path d="M 242.683306 224.64 
L 244.195656 224.64 
L 244.195656 106.376592 
L 242.683306 106.376592 
z
" clip-path="url(#p746025aa57)" style="fill: #1f77b4"/>
   </g>
   <g id="patch_120">
    <path d="M 244.195656 224.64 
L 245.708006 224.64 
L 245.708006 105.87759 
L 244.195656 105.87759 
z
" clip-path="url(#p746025aa57)" style="fill: #1f77b4"/>
   </g>
   <g id="patch_121">
    <path d="M 245.708006 224.64 
L 247.220356 224.64 
L 247.220356 103.382582 
L 245.708006 103.382582 
z
" clip-path="url(#p746025aa57)" style="fill: #1f77b4"/>
   </g>
   <g id="patch_122">
    <path d="M 247.220356 224.64 
L 248.732706 224.64 
L 248.732706 101.885577 
L 247.220356 101.885577 
z
" clip-path="url(#p746025aa57)" style="fill: #1f77b4"/>
   </g>
   <g id="patch_123">
    <path d="M 248.732706 224.64 
L 250.245055 224.64 
L 250.245055 94.400551 
L 248.732706 94.400551 
z
" clip-path="url(#p746025aa57)" style="fill: #1f77b4"/>
   </g>
   <g id="patch_124">
    <path d="M 250.245055 224.64 
L 251.757405 224.64 
L 251.757405 102.384578 
L 250.245055 102.384578 
z
" clip-path="url(#p746025aa57)" style="fill: #1f77b4"/>
   </g>
   <g id="patch_125">
    <path d="M 251.757405 224.64 
L 253.269755 224.64 
L 253.269755 100.388571 
L 251.757405 100.388571 
z
" clip-path="url(#p746025aa57)" style="fill: #1f77b4"/>
   </g>
   <g id="patch_126">
    <path d="M 253.269755 224.64 
L 254.782105 224.64 
L 254.782105 96.396558 
L 253.269755 96.396558 
z
" clip-path="url(#p746025aa57)" style="fill: #1f77b4"/>
   </g>
   <g id="patch_127">
    <path d="M 254.782105 224.64 
L 256.294455 224.64 
L 256.294455 110.867608 
L 254.782105 110.867608 
z
" clip-path="url(#p746025aa57)" style="fill: #1f77b4"/>
   </g>
   <g id="patch_128">
    <path d="M 256.294455 224.64 
L 257.806804 224.64 
L 257.806804 105.378589 
L 256.294455 105.378589 
z
" clip-path="url(#p746025aa57)" style="fill: #1f77b4"/>
   </g>
   <g id="patch_129">
    <path d="M 257.806804 224.64 
L 259.319154 224.64 
L 259.319154 105.378589 
L 257.806804 105.378589 
z
" clip-path="url(#p746025aa57)" style="fill: #1f77b4"/>
   </g>
   <g id="patch_130">
    <path d="M 259.319154 224.64 
L 260.831504 224.64 
L 260.831504 109.869604 
L 259.319154 109.869604 
z
" clip-path="url(#p746025aa57)" style="fill: #1f77b4"/>
   </g>
   <g id="patch_131">
    <path d="M 260.831504 224.64 
L 262.343854 224.64 
L 262.343854 91.40654 
L 260.831504 91.40654 
z
" clip-path="url(#p746025aa57)" style="fill: #1f77b4"/>
   </g>
   <g id="patch_132">
    <path d="M 262.343854 224.64 
L 263.856204 224.64 
L 263.856204 84.919518 
L 262.343854 84.919518 
z
" clip-path="url(#p746025aa57)" style="fill: #1f77b4"/>
   </g>
   <g id="patch_133">
    <path d="M 263.856204 224.64 
L 265.368554 224.64 
L 265.368554 104.380585 
L 263.856204 104.380585 
z
" clip-path="url(#p746025aa57)" style="fill: #1f77b4"/>
   </g>
   <g id="patch_134">
    <path d="M 265.368554 224.64 
L 266.880903 224.64 
L 266.880903 74.939484 
L 265.368554 74.939484 
z
" clip-path="url(#p746025aa57)" style="fill: #1f77b4"/>
   </g>
   <g id="patch_135">
    <path d="M 266.880903 224.64 
L 268.393253 224.64 
L 268.393253 89.909535 
L 266.880903 89.909535 
z
" clip-path="url(#p746025aa57)" style="fill: #1f77b4"/>
   </g>
   <g id="patch_136">
    <path d="M 268.393253 224.64 
L 269.905603 224.64 
L 269.905603 92.903546 
L 268.393253 92.903546 
z
" clip-path="url(#p746025aa57)" style="fill: #1f77b4"/>
   </g>
   <g id="patch_137">
    <path d="M 269.905603 224.64 
L 271.417953 224.64 
L 271.417953 82.424509 
L 269.905603 82.424509 
z
" clip-path="url(#p746025aa57)" style="fill: #1f77b4"/>
   </g>
   <g id="patch_138">
    <path d="M 271.417953 224.64 
L 272.930303 224.64 
L 272.930303 88.41253 
L 271.417953 88.41253 
z
" clip-path="url(#p746025aa57)" style="fill: #1f77b4"/>
   </g>
   <g id="patch_139">
    <path d="M 272.930303 224.64 
L 274.442652 224.64 
L 274.442652 90.408537 
L 272.930303 90.408537 
z
" clip-path="url(#p746025aa57)" style="fill: #1f77b4"/>
   </g>
   <g id="patch_140">
    <path d="M 274.442652 224.64 
L 275.955002 224.64 
L 275.955002 92.404544 
L 274.442652 92.404544 
z
" clip-path="url(#p746025aa57)" style="fill: #1f77b4"/>
   </g>
   <g id="patch_141">
    <path d="M 275.955002 224.64 
L 277.467352 224.64 
L 277.467352 99.88957 
L 275.955002 99.88957 
z
" clip-path="url(#p746025aa57)" style="fill: #1f77b4"/>
   </g>
   <g id="patch_142">
    <path d="M 277.467352 224.64 
L 278.979702 224.64 
L 278.979702 88.911532 
L 277.467352 88.911532 
z
" clip-path="url(#p746025aa57)" style="fill: #1f77b4"/>
   </g>
   <g id="patch_143">
    <path d="M 278.979702 224.64 
L 280.492052 224.64 
L 280.492052 84.919518 
L 278.979702 84.919518 
z
" clip-path="url(#p746025aa57)" style="fill: #1f77b4"/>
   </g>
   <g id="patch_144">
    <path d="M 280.492052 224.64 
L 282.004401 224.64 
L 282.004401 82.923511 
L 280.492052 82.923511 
z
" clip-path="url(#p746025aa57)" style="fill: #1f77b4"/>
   </g>
   <g id="patch_145">
    <path d="M 282.004401 224.64 
L 283.516751 224.64 
L 283.516751 77.434492 
L 282.004401 77.434492 
z
" clip-path="url(#p746025aa57)" style="fill: #1f77b4"/>
   </g>
   <g id="patch_146">
    <path d="M 283.516751 224.64 
L 285.029101 224.64 
L 285.029101 78.931497 
L 283.516751 78.931497 
z
" clip-path="url(#p746025aa57)" style="fill: #1f77b4"/>
   </g>
   <g id="patch_147">
    <path d="M 285.029101 224.64 
L 286.541451 224.64 
L 286.541451 95.398554 
L 285.029101 95.398554 
z
" clip-path="url(#p746025aa57)" style="fill: #1f77b4"/>
   </g>
   <g id="patch_148">
    <path d="M 286.541451 224.64 
L 288.053801 224.64 
L 288.053801 81.925508 
L 286.541451 81.925508 
z
" clip-path="url(#p746025aa57)" style="fill: #1f77b4"/>
   </g>
   <g id="patch_149">
    <path d="M 288.053801 224.64 
L 289.566151 224.64 
L 289.566151 82.424509 
L 288.053801 82.424509 
z
" clip-path="url(#p746025aa57)" style="fill: #1f77b4"/>
   </g>
   <g id="patch_150">
    <path d="M 289.566151 224.64 
L 291.0785 224.64 
L 291.0785 70.94747 
L 289.566151 70.94747 
z
" clip-path="url(#p746025aa57)" style="fill: #1f77b4"/>
   </g>
   <g id="patch_151">
    <path d="M 291.0785 224.64 
L 292.59085 224.64 
L 292.59085 78.931497 
L 291.0785 78.931497 
z
" clip-path="url(#p746025aa57)" style="fill: #1f77b4"/>
   </g>
   <g id="patch_152">
    <path d="M 292.59085 224.64 
L 294.1032 224.64 
L 294.1032 78.931497 
L 292.59085 78.931497 
z
" clip-path="url(#p746025aa57)" style="fill: #1f77b4"/>
   </g>
   <g id="patch_153">
    <path d="M 294.1032 224.64 
L 295.61555 224.64 
L 295.61555 68.452461 
L 294.1032 68.452461 
z
" clip-path="url(#p746025aa57)" style="fill: #1f77b4"/>
   </g>
   <g id="patch_154">
    <path d="M 295.61555 224.64 
L 297.1279 224.64 
L 297.1279 75.937487 
L 295.61555 75.937487 
z
" clip-path="url(#p746025aa57)" style="fill: #1f77b4"/>
   </g>
   <g id="patch_155">
    <path d="M 297.1279 224.64 
L 298.640249 224.64 
L 298.640249 68.951463 
L 297.1279 68.951463 
z
" clip-path="url(#p746025aa57)" style="fill: #1f77b4"/>
   </g>
   <g id="patch_156">
    <path d="M 298.640249 224.64 
L 300.152599 224.64 
L 300.152599 71.945473 
L 298.640249 71.945473 
z
" clip-path="url(#p746025aa57)" style="fill: #1f77b4"/>
   </g>
   <g id="patch_157">
    <path d="M 300.152599 224.64 
L 301.664949 224.64 
L 301.664949 80.927504 
L 300.152599 80.927504 
z
" clip-path="url(#p746025aa57)" style="fill: #1f77b4"/>
   </g>
   <g id="patch_158">
    <path d="M 301.664949 224.64 
L 303.177299 224.64 
L 303.177299 82.923511 
L 301.664949 82.923511 
z
" clip-path="url(#p746025aa57)" style="fill: #1f77b4"/>
   </g>
   <g id="patch_159">
    <path d="M 303.177299 224.64 
L 304.689649 224.64 
L 304.689649 75.937487 
L 303.177299 75.937487 
z
" clip-path="url(#p746025aa57)" style="fill: #1f77b4"/>
   </g>
   <g id="patch_160">
    <path d="M 304.689649 224.64 
L 306.201998 224.64 
L 306.201998 63.462444 
L 304.689649 63.462444 
z
" clip-path="url(#p746025aa57)" style="fill: #1f77b4"/>
   </g>
   <g id="patch_161">
    <path d="M 306.201998 224.64 
L 307.714348 224.64 
L 307.714348 50.488399 
L 306.201998 50.488399 
z
" clip-path="url(#p746025aa57)" style="fill: #1f77b4"/>
   </g>
   <g id="patch_162">
    <path d="M 307.714348 224.64 
L 309.226698 224.64 
L 309.226698 72.444475 
L 307.714348 72.444475 
z
" clip-path="url(#p746025aa57)" style="fill: #1f77b4"/>
   </g>
   <g id="patch_163">
    <path d="M 309.226698 224.64 
L 310.739048 224.64 
L 310.739048 63.462444 
L 309.226698 63.462444 
z
" clip-path="url(#p746025aa57)" style="fill: #1f77b4"/>
   </g>
   <g id="patch_164">
    <path d="M 310.739048 224.64 
L 312.251398 224.64 
L 312.251398 66.955456 
L 310.739048 66.955456 
z
" clip-path="url(#p746025aa57)" style="fill: #1f77b4"/>
   </g>
   <g id="patch_165">
    <path d="M 312.251398 224.64 
L 313.763748 224.64 
L 313.763748 45.997384 
L 312.251398 45.997384 
z
" clip-path="url(#p746025aa57)" style="fill: #1f77b4"/>
   </g>
   <g id="patch_166">
    <path d="M 313.763748 224.64 
L 315.276097 224.64 
L 315.276097 58.472427 
L 313.763748 58.472427 
z
" clip-path="url(#p746025aa57)" style="fill: #1f77b4"/>
   </g>
   <g id="patch_167">
    <path d="M 315.276097 224.64 
L 316.788447 224.64 
L 316.788447 60.967435 
L 315.276097 60.967435 
z
" clip-path="url(#p746025aa57)" style="fill: #1f77b4"/>
   </g>
   <g id="patch_168">
    <path d="M 316.788447 224.64 
L 318.300797 224.64 
L 318.300797 65.458451 
L 316.788447 65.458451 
z
" clip-path="url(#p746025aa57)" style="fill: #1f77b4"/>
   </g>
   <g id="patch_169">
    <path d="M 318.300797 224.64 
L 319.813147 224.64 
L 319.813147 52.484406 
L 318.300797 52.484406 
z
" clip-path="url(#p746025aa57)" style="fill: #1f77b4"/>
   </g>
   <g id="patch_170">
    <path d="M 319.813147 224.64 
L 321.325497 224.64 
L 321.325497 65.458451 
L 319.813147 65.458451 
z
" clip-path="url(#p746025aa57)" style="fill: #1f77b4"/>
   </g>
   <g id="patch_171">
    <path d="M 321.325497 224.64 
L 322.837846 224.64 
L 322.837846 49.490396 
L 321.325497 49.490396 
z
" clip-path="url(#p746025aa57)" style="fill: #1f77b4"/>
   </g>
   <g id="patch_172">
    <path d="M 322.837846 224.64 
L 324.350196 224.64 
L 324.350196 73.94148 
L 322.837846 73.94148 
z
" clip-path="url(#p746025aa57)" style="fill: #1f77b4"/>
   </g>
   <g id="patch_173">
    <path d="M 324.350196 224.64 
L 325.862546 224.64 
L 325.862546 52.983408 
L 324.350196 52.983408 
z
" clip-path="url(#p746025aa57)" style="fill: #1f77b4"/>
   </g>
   <g id="patch_174">
    <path d="M 325.862546 224.64 
L 327.374896 224.64 
L 327.374896 37.514355 
L 325.862546 37.514355 
z
" clip-path="url(#p746025aa57)" style="fill: #1f77b4"/>
   </g>
   <g id="patch_175">
    <path d="M 327.374896 224.64 
L 328.887246 224.64 
L 328.887246 58.971429 
L 327.374896 58.971429 
z
" clip-path="url(#p746025aa57)" style="fill: #1f77b4"/>
   </g>
   <g id="patch_176">
    <path d="M 328.887246 224.64 
L 330.399595 224.64 
L 330.399595 41.007367 
L 328.887246 41.007367 
z
" clip-path="url(#p746025aa57)" style="fill: #1f77b4"/>
   </g>
   <g id="patch_177">
    <path d="M 330.399595 224.64 
L 331.911945 224.64 
L 331.911945 46.995387 
L 330.399595 46.995387 
z
" clip-path="url(#p746025aa57)" style="fill: #1f77b4"/>
   </g>
   <g id="patch_178">
    <path d="M 331.911945 224.64 
L 333.424295 224.64 
L 333.424295 47.993391 
L 331.911945 47.993391 
z
" clip-path="url(#p746025aa57)" style="fill: #1f77b4"/>
   </g>
   <g id="patch_179">
    <path d="M 333.424295 224.64 
L 334.936645 224.64 
L 334.936645 42.00537 
L 333.424295 42.00537 
z
" clip-path="url(#p746025aa57)" style="fill: #1f77b4"/>
   </g>
   <g id="patch_180">
    <path d="M 334.936645 224.64 
L 336.448995 224.64 
L 336.448995 34.021343 
L 334.936645 34.021343 
z
" clip-path="url(#p746025aa57)" style="fill: #1f77b4"/>
   </g>
   <g id="patch_181">
    <path d="M 336.448995 224.64 
L 337.961345 224.64 
L 337.961345 39.510361 
L 336.448995 39.510361 
z
" clip-path="url(#p746025aa57)" style="fill: #1f77b4"/>
   </g>
   <g id="patch_182">
    <path d="M 337.961345 224.64 
L 339.473694 224.64 
L 339.473694 60.967435 
L 337.961345 60.967435 
z
" clip-path="url(#p746025aa57)" style="fill: #1f77b4"/>
   </g>
   <g id="patch_183">
    <path d="M 339.473694 224.64 
L 340.986044 224.64 
L 340.986044 48.991394 
L 339.473694 48.991394 
z
" clip-path="url(#p746025aa57)" style="fill: #1f77b4"/>
   </g>
   <g id="patch_184">
    <path d="M 340.986044 224.64 
L 342.498394 224.64 
L 342.498394 28.033322 
L 340.986044 28.033322 
z
" clip-path="url(#p746025aa57)" style="fill: #1f77b4"/>
   </g>
   <g id="patch_185">
    <path d="M 342.498394 224.64 
L 344.010744 224.64 
L 344.010744 45.498382 
L 342.498394 45.498382 
z
" clip-path="url(#p746025aa57)" style="fill: #1f77b4"/>
   </g>
   <g id="patch_186">
    <path d="M 344.010744 224.64 
L 345.523094 224.64 
L 345.523094 30.029329 
L 344.010744 30.029329 
z
" clip-path="url(#p746025aa57)" style="fill: #1f77b4"/>
   </g>
   <g id="patch_187">
    <path d="M 345.523094 224.64 
L 347.035443 224.64 
L 347.035443 29.530327 
L 345.523094 29.530327 
z
" clip-path="url(#p746025aa57)" style="fill: #1f77b4"/>
   </g>
   <g id="patch_188">
    <path d="M 347.035443 224.64 
L 348.547793 224.64 
L 348.547793 37.514355 
L 347.035443 37.514355 
z
" clip-path="url(#p746025aa57)" style="fill: #1f77b4"/>
   </g>
   <g id="patch_189">
    <path d="M 348.547793 224.64 
L 350.060143 224.64 
L 350.060143 40.009363 
L 348.547793 40.009363 
z
" clip-path="url(#p746025aa57)" style="fill: #1f77b4"/>
   </g>
   <g id="patch_190">
    <path d="M 350.060143 224.64 
L 351.572493 224.64 
L 351.572493 40.508365 
L 350.060143 40.508365 
z
" clip-path="url(#p746025aa57)" style="fill: #1f77b4"/>
   </g>
   <g id="patch_191">
    <path d="M 351.572493 224.64 
L 353.084843 224.64 
L 353.084843 27.53432 
L 351.572493 27.53432 
z
" clip-path="url(#p746025aa57)" style="fill: #1f77b4"/>
   </g>
   <g id="patch_192">
    <path d="M 353.084843 224.64 
L 354.597192 224.64 
L 354.597192 49.989398 
L 353.084843 49.989398 
z
" clip-path="url(#p746025aa57)" style="fill: #1f77b4"/>
   </g>
   <g id="patch_193">
    <path d="M 354.597192 224.64 
L 356.109542 224.64 
L 356.109542 20.049294 
L 354.597192 20.049294 
z
" clip-path="url(#p746025aa57)" style="fill: #1f77b4"/>
   </g>
   <g id="patch_194">
    <path d="M 356.109542 224.64 
L 357.621892 224.64 
L 357.621892 41.007367 
L 356.109542 41.007367 
z
" clip-path="url(#p746025aa57)" style="fill: #1f77b4"/>
   </g>
   <g id="patch_195">
    <path d="M 357.621892 224.64 
L 359.134242 224.64 
L 359.134242 33.522341 
L 357.621892 33.522341 
z
" clip-path="url(#p746025aa57)" style="fill: #1f77b4"/>
   </g>
   <g id="patch_196">
    <path d="M 359.134242 224.64 
L 360.646592 224.64 
L 360.646592 45.997384 
L 359.134242 45.997384 
z
" clip-path="url(#p746025aa57)" style="fill: #1f77b4"/>
   </g>
   <g id="patch_197">
    <path d="M 360.646592 224.64 
L 362.158942 224.64 
L 362.158942 33.023339 
L 360.646592 33.023339 
z
" clip-path="url(#p746025aa57)" style="fill: #1f77b4"/>
   </g>
   <g id="patch_198">
    <path d="M 362.158942 224.64 
L 363.671291 224.64 
L 363.671291 41.506368 
L 362.158942 41.506368 
z
" clip-path="url(#p746025aa57)" style="fill: #1f77b4"/>
   </g>
   <g id="patch_199">
    <path d="M 363.671291 224.64 
L 365.183641 224.64 
L 365.183641 29.031325 
L 363.671291 29.031325 
z
" clip-path="url(#p746025aa57)" style="fill: #1f77b4"/>
   </g>
   <g id="patch_200">
    <path d="M 365.183641 224.64 
L 366.695991 224.64 
L 366.695991 17.554286 
L 365.183641 17.554286 
z
" clip-path="url(#p746025aa57)" style="fill: #1f77b4"/>
   </g>
   <g id="patch_201">
    <path d="M 366.695991 224.64 
L 368.208341 224.64 
L 368.208341 41.007367 
L 366.695991 41.007367 
z
" clip-path="url(#p746025aa57)" style="fill: #1f77b4"/>
   </g>
   <g id="patch_202">
    <path d="M 368.208341 224.64 
L 369.720691 224.64 
L 369.720691 40.508365 
L 368.208341 40.508365 
z
" clip-path="url(#p746025aa57)" style="fill: #1f77b4"/>
   </g>
   <g id="matplotlib.axis_1">
    <g id="xtick_1">
     <g id="line2d_1">
      <defs>
       <path id="m35ec86f998" d="M 0 0 
L 0 3.5 
" style="stroke: #000000; stroke-width: 0.8"/>
      </defs>
      <g>
       <use xlink:href="#m35ec86f998" x="65.361932" y="224.64" style="stroke: #000000; stroke-width: 0.8"/>
      </g>
     </g>
     <g id="text_1">
      <!-- 0.0 -->
      <g transform="translate(57.410369 239.238437)scale(0.1 -0.1)">
       <defs>
        <path id="DejaVuSans-30" d="M 2034 4250 
Q 1547 4250 1301 3770 
Q 1056 3291 1056 2328 
Q 1056 1369 1301 889 
Q 1547 409 2034 409 
Q 2525 409 2770 889 
Q 3016 1369 3016 2328 
Q 3016 3291 2770 3770 
Q 2525 4250 2034 4250 
z
M 2034 4750 
Q 2819 4750 3233 4129 
Q 3647 3509 3647 2328 
Q 3647 1150 3233 529 
Q 2819 -91 2034 -91 
Q 1250 -91 836 529 
Q 422 1150 422 2328 
Q 422 3509 836 4129 
Q 1250 4750 2034 4750 
z
" transform="scale(0.015625)"/>
        <path id="DejaVuSans-2e" d="M 684 794 
L 1344 794 
L 1344 0 
L 684 0 
L 684 794 
z
" transform="scale(0.015625)"/>
       </defs>
       <use xlink:href="#DejaVuSans-30"/>
       <use xlink:href="#DejaVuSans-2e" x="63.623047"/>
       <use xlink:href="#DejaVuSans-30" x="95.410156"/>
      </g>
     </g>
    </g>
    <g id="xtick_2">
     <g id="line2d_2">
      <g>
       <use xlink:href="#m35ec86f998" x="126.234659" y="224.64" style="stroke: #000000; stroke-width: 0.8"/>
      </g>
     </g>
     <g id="text_2">
      <!-- 0.2 -->
      <g transform="translate(118.283097 239.238437)scale(0.1 -0.1)">
       <defs>
        <path id="DejaVuSans-32" d="M 1228 531 
L 3431 531 
L 3431 0 
L 469 0 
L 469 531 
Q 828 903 1448 1529 
Q 2069 2156 2228 2338 
Q 2531 2678 2651 2914 
Q 2772 3150 2772 3378 
Q 2772 3750 2511 3984 
Q 2250 4219 1831 4219 
Q 1534 4219 1204 4116 
Q 875 4013 500 3803 
L 500 4441 
Q 881 4594 1212 4672 
Q 1544 4750 1819 4750 
Q 2544 4750 2975 4387 
Q 3406 4025 3406 3419 
Q 3406 3131 3298 2873 
Q 3191 2616 2906 2266 
Q 2828 2175 2409 1742 
Q 1991 1309 1228 531 
z
" transform="scale(0.015625)"/>
       </defs>
       <use xlink:href="#DejaVuSans-30"/>
       <use xlink:href="#DejaVuSans-2e" x="63.623047"/>
       <use xlink:href="#DejaVuSans-32" x="95.410156"/>
      </g>
     </g>
    </g>
    <g id="xtick_3">
     <g id="line2d_3">
      <g>
       <use xlink:href="#m35ec86f998" x="187.107386" y="224.64" style="stroke: #000000; stroke-width: 0.8"/>
      </g>
     </g>
     <g id="text_3">
      <!-- 0.4 -->
      <g transform="translate(179.155824 239.238437)scale(0.1 -0.1)">
       <defs>
        <path id="DejaVuSans-34" d="M 2419 4116 
L 825 1625 
L 2419 1625 
L 2419 4116 
z
M 2253 4666 
L 3047 4666 
L 3047 1625 
L 3713 1625 
L 3713 1100 
L 3047 1100 
L 3047 0 
L 2419 0 
L 2419 1100 
L 313 1100 
L 313 1709 
L 2253 4666 
z
" transform="scale(0.015625)"/>
       </defs>
       <use xlink:href="#DejaVuSans-30"/>
       <use xlink:href="#DejaVuSans-2e" x="63.623047"/>
       <use xlink:href="#DejaVuSans-34" x="95.410156"/>
      </g>
     </g>
    </g>
    <g id="xtick_4">
     <g id="line2d_4">
      <g>
       <use xlink:href="#m35ec86f998" x="247.980114" y="224.64" style="stroke: #000000; stroke-width: 0.8"/>
      </g>
     </g>
     <g id="text_4">
      <!-- 0.6 -->
      <g transform="translate(240.028551 239.238437)scale(0.1 -0.1)">
       <defs>
        <path id="DejaVuSans-36" d="M 2113 2584 
Q 1688 2584 1439 2293 
Q 1191 2003 1191 1497 
Q 1191 994 1439 701 
Q 1688 409 2113 409 
Q 2538 409 2786 701 
Q 3034 994 3034 1497 
Q 3034 2003 2786 2293 
Q 2538 2584 2113 2584 
z
M 3366 4563 
L 3366 3988 
Q 3128 4100 2886 4159 
Q 2644 4219 2406 4219 
Q 1781 4219 1451 3797 
Q 1122 3375 1075 2522 
Q 1259 2794 1537 2939 
Q 1816 3084 2150 3084 
Q 2853 3084 3261 2657 
Q 3669 2231 3669 1497 
Q 3669 778 3244 343 
Q 2819 -91 2113 -91 
Q 1303 -91 875 529 
Q 447 1150 447 2328 
Q 447 3434 972 4092 
Q 1497 4750 2381 4750 
Q 2619 4750 2861 4703 
Q 3103 4656 3366 4563 
z
" transform="scale(0.015625)"/>
       </defs>
       <use xlink:href="#DejaVuSans-30"/>
       <use xlink:href="#DejaVuSans-2e" x="63.623047"/>
       <use xlink:href="#DejaVuSans-36" x="95.410156"/>
      </g>
     </g>
    </g>
    <g id="xtick_5">
     <g id="line2d_5">
      <g>
       <use xlink:href="#m35ec86f998" x="308.852841" y="224.64" style="stroke: #000000; stroke-width: 0.8"/>
      </g>
     </g>
     <g id="text_5">
      <!-- 0.8 -->
      <g transform="translate(300.901278 239.238437)scale(0.1 -0.1)">
       <defs>
        <path id="DejaVuSans-38" d="M 2034 2216 
Q 1584 2216 1326 1975 
Q 1069 1734 1069 1313 
Q 1069 891 1326 650 
Q 1584 409 2034 409 
Q 2484 409 2743 651 
Q 3003 894 3003 1313 
Q 3003 1734 2745 1975 
Q 2488 2216 2034 2216 
z
M 1403 2484 
Q 997 2584 770 2862 
Q 544 3141 544 3541 
Q 544 4100 942 4425 
Q 1341 4750 2034 4750 
Q 2731 4750 3128 4425 
Q 3525 4100 3525 3541 
Q 3525 3141 3298 2862 
Q 3072 2584 2669 2484 
Q 3125 2378 3379 2068 
Q 3634 1759 3634 1313 
Q 3634 634 3220 271 
Q 2806 -91 2034 -91 
Q 1263 -91 848 271 
Q 434 634 434 1313 
Q 434 1759 690 2068 
Q 947 2378 1403 2484 
z
M 1172 3481 
Q 1172 3119 1398 2916 
Q 1625 2713 2034 2713 
Q 2441 2713 2670 2916 
Q 2900 3119 2900 3481 
Q 2900 3844 2670 4047 
Q 2441 4250 2034 4250 
Q 1625 4250 1398 4047 
Q 1172 3844 1172 3481 
z
" transform="scale(0.015625)"/>
       </defs>
       <use xlink:href="#DejaVuSans-30"/>
       <use xlink:href="#DejaVuSans-2e" x="63.623047"/>
       <use xlink:href="#DejaVuSans-38" x="95.410156"/>
      </g>
     </g>
    </g>
    <g id="xtick_6">
     <g id="line2d_6">
      <g>
       <use xlink:href="#m35ec86f998" x="369.725568" y="224.64" style="stroke: #000000; stroke-width: 0.8"/>
      </g>
     </g>
     <g id="text_6">
      <!-- 1.0 -->
      <g transform="translate(361.774006 239.238437)scale(0.1 -0.1)">
       <defs>
        <path id="DejaVuSans-31" d="M 794 531 
L 1825 531 
L 1825 4091 
L 703 3866 
L 703 4441 
L 1819 4666 
L 2450 4666 
L 2450 531 
L 3481 531 
L 3481 0 
L 794 0 
L 794 531 
z
" transform="scale(0.015625)"/>
       </defs>
       <use xlink:href="#DejaVuSans-31"/>
       <use xlink:href="#DejaVuSans-2e" x="63.623047"/>
       <use xlink:href="#DejaVuSans-30" x="95.410156"/>
      </g>
     </g>
    </g>
    <g id="text_7">
     <!-- Propagation direction -->
     <g transform="translate(164.061719 252.916562)scale(0.1 -0.1)">
      <defs>
       <path id="DejaVuSans-50" d="M 1259 4147 
L 1259 2394 
L 2053 2394 
Q 2494 2394 2734 2622 
Q 2975 2850 2975 3272 
Q 2975 3691 2734 3919 
Q 2494 4147 2053 4147 
L 1259 4147 
z
M 628 4666 
L 2053 4666 
Q 2838 4666 3239 4311 
Q 3641 3956 3641 3272 
Q 3641 2581 3239 2228 
Q 2838 1875 2053 1875 
L 1259 1875 
L 1259 0 
L 628 0 
L 628 4666 
z
" transform="scale(0.015625)"/>
       <path id="DejaVuSans-72" d="M 2631 2963 
Q 2534 3019 2420 3045 
Q 2306 3072 2169 3072 
Q 1681 3072 1420 2755 
Q 1159 2438 1159 1844 
L 1159 0 
L 581 0 
L 581 3500 
L 1159 3500 
L 1159 2956 
Q 1341 3275 1631 3429 
Q 1922 3584 2338 3584 
Q 2397 3584 2469 3576 
Q 2541 3569 2628 3553 
L 2631 2963 
z
" transform="scale(0.015625)"/>
       <path id="DejaVuSans-6f" d="M 1959 3097 
Q 1497 3097 1228 2736 
Q 959 2375 959 1747 
Q 959 1119 1226 758 
Q 1494 397 1959 397 
Q 2419 397 2687 759 
Q 2956 1122 2956 1747 
Q 2956 2369 2687 2733 
Q 2419 3097 1959 3097 
z
M 1959 3584 
Q 2709 3584 3137 3096 
Q 3566 2609 3566 1747 
Q 3566 888 3137 398 
Q 2709 -91 1959 -91 
Q 1206 -91 779 398 
Q 353 888 353 1747 
Q 353 2609 779 3096 
Q 1206 3584 1959 3584 
z
" transform="scale(0.015625)"/>
       <path id="DejaVuSans-70" d="M 1159 525 
L 1159 -1331 
L 581 -1331 
L 581 3500 
L 1159 3500 
L 1159 2969 
Q 1341 3281 1617 3432 
Q 1894 3584 2278 3584 
Q 2916 3584 3314 3078 
Q 3713 2572 3713 1747 
Q 3713 922 3314 415 
Q 2916 -91 2278 -91 
Q 1894 -91 1617 61 
Q 1341 213 1159 525 
z
M 3116 1747 
Q 3116 2381 2855 2742 
Q 2594 3103 2138 3103 
Q 1681 3103 1420 2742 
Q 1159 2381 1159 1747 
Q 1159 1113 1420 752 
Q 1681 391 2138 391 
Q 2594 391 2855 752 
Q 3116 1113 3116 1747 
z
" transform="scale(0.015625)"/>
       <path id="DejaVuSans-61" d="M 2194 1759 
Q 1497 1759 1228 1600 
Q 959 1441 959 1056 
Q 959 750 1161 570 
Q 1363 391 1709 391 
Q 2188 391 2477 730 
Q 2766 1069 2766 1631 
L 2766 1759 
L 2194 1759 
z
M 3341 1997 
L 3341 0 
L 2766 0 
L 2766 531 
Q 2569 213 2275 61 
Q 1981 -91 1556 -91 
Q 1019 -91 701 211 
Q 384 513 384 1019 
Q 384 1609 779 1909 
Q 1175 2209 1959 2209 
L 2766 2209 
L 2766 2266 
Q 2766 2663 2505 2880 
Q 2244 3097 1772 3097 
Q 1472 3097 1187 3025 
Q 903 2953 641 2809 
L 641 3341 
Q 956 3463 1253 3523 
Q 1550 3584 1831 3584 
Q 2591 3584 2966 3190 
Q 3341 2797 3341 1997 
z
" transform="scale(0.015625)"/>
       <path id="DejaVuSans-67" d="M 2906 1791 
Q 2906 2416 2648 2759 
Q 2391 3103 1925 3103 
Q 1463 3103 1205 2759 
Q 947 2416 947 1791 
Q 947 1169 1205 825 
Q 1463 481 1925 481 
Q 2391 481 2648 825 
Q 2906 1169 2906 1791 
z
M 3481 434 
Q 3481 -459 3084 -895 
Q 2688 -1331 1869 -1331 
Q 1566 -1331 1297 -1286 
Q 1028 -1241 775 -1147 
L 775 -588 
Q 1028 -725 1275 -790 
Q 1522 -856 1778 -856 
Q 2344 -856 2625 -561 
Q 2906 -266 2906 331 
L 2906 616 
Q 2728 306 2450 153 
Q 2172 0 1784 0 
Q 1141 0 747 490 
Q 353 981 353 1791 
Q 353 2603 747 3093 
Q 1141 3584 1784 3584 
Q 2172 3584 2450 3431 
Q 2728 3278 2906 2969 
L 2906 3500 
L 3481 3500 
L 3481 434 
z
" transform="scale(0.015625)"/>
       <path id="DejaVuSans-74" d="M 1172 4494 
L 1172 3500 
L 2356 3500 
L 2356 3053 
L 1172 3053 
L 1172 1153 
Q 1172 725 1289 603 
Q 1406 481 1766 481 
L 2356 481 
L 2356 0 
L 1766 0 
Q 1100 0 847 248 
Q 594 497 594 1153 
L 594 3053 
L 172 3053 
L 172 3500 
L 594 3500 
L 594 4494 
L 1172 4494 
z
" transform="scale(0.015625)"/>
       <path id="DejaVuSans-69" d="M 603 3500 
L 1178 3500 
L 1178 0 
L 603 0 
L 603 3500 
z
M 603 4863 
L 1178 4863 
L 1178 4134 
L 603 4134 
L 603 4863 
z
" transform="scale(0.015625)"/>
       <path id="DejaVuSans-6e" d="M 3513 2113 
L 3513 0 
L 2938 0 
L 2938 2094 
Q 2938 2591 2744 2837 
Q 2550 3084 2163 3084 
Q 1697 3084 1428 2787 
Q 1159 2491 1159 1978 
L 1159 0 
L 581 0 
L 581 3500 
L 1159 3500 
L 1159 2956 
Q 1366 3272 1645 3428 
Q 1925 3584 2291 3584 
Q 2894 3584 3203 3211 
Q 3513 2838 3513 2113 
z
" transform="scale(0.015625)"/>
       <path id="DejaVuSans-20" transform="scale(0.015625)"/>
       <path id="DejaVuSans-64" d="M 2906 2969 
L 2906 4863 
L 3481 4863 
L 3481 0 
L 2906 0 
L 2906 525 
Q 2725 213 2448 61 
Q 2172 -91 1784 -91 
Q 1150 -91 751 415 
Q 353 922 353 1747 
Q 353 2572 751 3078 
Q 1150 3584 1784 3584 
Q 2172 3584 2448 3432 
Q 2725 3281 2906 2969 
z
M 947 1747 
Q 947 1113 1208 752 
Q 1469 391 1925 391 
Q 2381 391 2643 752 
Q 2906 1113 2906 1747 
Q 2906 2381 2643 2742 
Q 2381 3103 1925 3103 
Q 1469 3103 1208 2742 
Q 947 2381 947 1747 
z
" transform="scale(0.015625)"/>
       <path id="DejaVuSans-65" d="M 3597 1894 
L 3597 1613 
L 953 1613 
Q 991 1019 1311 708 
Q 1631 397 2203 397 
Q 2534 397 2845 478 
Q 3156 559 3463 722 
L 3463 178 
Q 3153 47 2828 -22 
Q 2503 -91 2169 -91 
Q 1331 -91 842 396 
Q 353 884 353 1716 
Q 353 2575 817 3079 
Q 1281 3584 2069 3584 
Q 2775 3584 3186 3129 
Q 3597 2675 3597 1894 
z
M 3022 2063 
Q 3016 2534 2758 2815 
Q 2500 3097 2075 3097 
Q 1594 3097 1305 2825 
Q 1016 2553 972 2059 
L 3022 2063 
z
" transform="scale(0.015625)"/>
       <path id="DejaVuSans-63" d="M 3122 3366 
L 3122 2828 
Q 2878 2963 2633 3030 
Q 2388 3097 2138 3097 
Q 1578 3097 1268 2742 
Q 959 2388 959 1747 
Q 959 1106 1268 751 
Q 1578 397 2138 397 
Q 2388 397 2633 464 
Q 2878 531 3122 666 
L 3122 134 
Q 2881 22 2623 -34 
Q 2366 -91 2075 -91 
Q 1284 -91 818 406 
Q 353 903 353 1747 
Q 353 2603 823 3093 
Q 1294 3584 2113 3584 
Q 2378 3584 2631 3529 
Q 2884 3475 3122 3366 
z
" transform="scale(0.015625)"/>
      </defs>
      <use xlink:href="#DejaVuSans-50"/>
      <use xlink:href="#DejaVuSans-72" x="58.552734"/>
      <use xlink:href="#DejaVuSans-6f" x="97.416016"/>
      <use xlink:href="#DejaVuSans-70" x="158.597656"/>
      <use xlink:href="#DejaVuSans-61" x="222.074219"/>
      <use xlink:href="#DejaVuSans-67" x="283.353516"/>
      <use xlink:href="#DejaVuSans-61" x="346.830078"/>
      <use xlink:href="#DejaVuSans-74" x="408.109375"/>
      <use xlink:href="#DejaVuSans-69" x="447.318359"/>
      <use xlink:href="#DejaVuSans-6f" x="475.101562"/>
      <use xlink:href="#DejaVuSans-6e" x="536.283203"/>
      <use xlink:href="#DejaVuSans-20" x="599.662109"/>
      <use xlink:href="#DejaVuSans-64" x="631.449219"/>
      <use xlink:href="#DejaVuSans-69" x="694.925781"/>
      <use xlink:href="#DejaVuSans-72" x="722.708984"/>
      <use xlink:href="#DejaVuSans-65" x="761.572266"/>
      <use xlink:href="#DejaVuSans-63" x="823.095703"/>
      <use xlink:href="#DejaVuSans-74" x="878.076172"/>
      <use xlink:href="#DejaVuSans-69" x="917.285156"/>
      <use xlink:href="#DejaVuSans-6f" x="945.068359"/>
      <use xlink:href="#DejaVuSans-6e" x="1006.25"/>
     </g>
    </g>
   </g>
   <g id="matplotlib.axis_2">
    <g id="ytick_1">
     <g id="line2d_7">
      <defs>
       <path id="m2499b7e332" d="M 0 0 
L -3.5 0 
" style="stroke: #000000; stroke-width: 0.8"/>
      </defs>
      <g>
       <use xlink:href="#m2499b7e332" x="50.14375" y="224.64" style="stroke: #000000; stroke-width: 0.8"/>
      </g>
     </g>
     <g id="text_8">
      <!-- 0.00 -->
      <g transform="translate(20.878125 228.439219)scale(0.1 -0.1)">
       <use xlink:href="#DejaVuSans-30"/>
       <use xlink:href="#DejaVuSans-2e" x="63.623047"/>
       <use xlink:href="#DejaVuSans-30" x="95.410156"/>
       <use xlink:href="#DejaVuSans-30" x="159.033203"/>
      </g>
     </g>
    </g>
    <g id="ytick_2">
     <g id="line2d_8">
      <g>
       <use xlink:href="#m2499b7e332" x="50.14375" y="199.845147" style="stroke: #000000; stroke-width: 0.8"/>
      </g>
     </g>
     <g id="text_9">
      <!-- 0.25 -->
      <g transform="translate(20.878125 203.644366)scale(0.1 -0.1)">
       <defs>
        <path id="DejaVuSans-35" d="M 691 4666 
L 3169 4666 
L 3169 4134 
L 1269 4134 
L 1269 2991 
Q 1406 3038 1543 3061 
Q 1681 3084 1819 3084 
Q 2600 3084 3056 2656 
Q 3513 2228 3513 1497 
Q 3513 744 3044 326 
Q 2575 -91 1722 -91 
Q 1428 -91 1123 -41 
Q 819 9 494 109 
L 494 744 
Q 775 591 1075 516 
Q 1375 441 1709 441 
Q 2250 441 2565 725 
Q 2881 1009 2881 1497 
Q 2881 1984 2565 2268 
Q 2250 2553 1709 2553 
Q 1456 2553 1204 2497 
Q 953 2441 691 2322 
L 691 4666 
z
" transform="scale(0.015625)"/>
       </defs>
       <use xlink:href="#DejaVuSans-30"/>
       <use xlink:href="#DejaVuSans-2e" x="63.623047"/>
       <use xlink:href="#DejaVuSans-32" x="95.410156"/>
       <use xlink:href="#DejaVuSans-35" x="159.033203"/>
      </g>
     </g>
    </g>
    <g id="ytick_3">
     <g id="line2d_9">
      <g>
       <use xlink:href="#m2499b7e332" x="50.14375" y="175.050294" style="stroke: #000000; stroke-width: 0.8"/>
      </g>
     </g>
     <g id="text_10">
      <!-- 0.50 -->
      <g transform="translate(20.878125 178.849513)scale(0.1 -0.1)">
       <use xlink:href="#DejaVuSans-30"/>
       <use xlink:href="#DejaVuSans-2e" x="63.623047"/>
       <use xlink:href="#DejaVuSans-35" x="95.410156"/>
       <use xlink:href="#DejaVuSans-30" x="159.033203"/>
      </g>
     </g>
    </g>
    <g id="ytick_4">
     <g id="line2d_10">
      <g>
       <use xlink:href="#m2499b7e332" x="50.14375" y="150.255441" style="stroke: #000000; stroke-width: 0.8"/>
      </g>
     </g>
     <g id="text_11">
      <!-- 0.75 -->
      <g transform="translate(20.878125 154.05466)scale(0.1 -0.1)">
       <defs>
        <path id="DejaVuSans-37" d="M 525 4666 
L 3525 4666 
L 3525 4397 
L 1831 0 
L 1172 0 
L 2766 4134 
L 525 4134 
L 525 4666 
z
" transform="scale(0.015625)"/>
       </defs>
       <use xlink:href="#DejaVuSans-30"/>
       <use xlink:href="#DejaVuSans-2e" x="63.623047"/>
       <use xlink:href="#DejaVuSans-37" x="95.410156"/>
       <use xlink:href="#DejaVuSans-35" x="159.033203"/>
      </g>
     </g>
    </g>
    <g id="ytick_5">
     <g id="line2d_11">
      <g>
       <use xlink:href="#m2499b7e332" x="50.14375" y="125.460588" style="stroke: #000000; stroke-width: 0.8"/>
      </g>
     </g>
     <g id="text_12">
      <!-- 1.00 -->
      <g transform="translate(20.878125 129.259807)scale(0.1 -0.1)">
       <use xlink:href="#DejaVuSans-31"/>
       <use xlink:href="#DejaVuSans-2e" x="63.623047"/>
       <use xlink:href="#DejaVuSans-30" x="95.410156"/>
       <use xlink:href="#DejaVuSans-30" x="159.033203"/>
      </g>
     </g>
    </g>
    <g id="ytick_6">
     <g id="line2d_12">
      <g>
       <use xlink:href="#m2499b7e332" x="50.14375" y="100.665735" style="stroke: #000000; stroke-width: 0.8"/>
      </g>
     </g>
     <g id="text_13">
      <!-- 1.25 -->
      <g transform="translate(20.878125 104.464954)scale(0.1 -0.1)">
       <use xlink:href="#DejaVuSans-31"/>
       <use xlink:href="#DejaVuSans-2e" x="63.623047"/>
       <use xlink:href="#DejaVuSans-32" x="95.410156"/>
       <use xlink:href="#DejaVuSans-35" x="159.033203"/>
      </g>
     </g>
    </g>
    <g id="ytick_7">
     <g id="line2d_13">
      <g>
       <use xlink:href="#m2499b7e332" x="50.14375" y="75.870883" style="stroke: #000000; stroke-width: 0.8"/>
      </g>
     </g>
     <g id="text_14">
      <!-- 1.50 -->
      <g transform="translate(20.878125 79.670101)scale(0.1 -0.1)">
       <use xlink:href="#DejaVuSans-31"/>
       <use xlink:href="#DejaVuSans-2e" x="63.623047"/>
       <use xlink:href="#DejaVuSans-35" x="95.410156"/>
       <use xlink:href="#DejaVuSans-30" x="159.033203"/>
      </g>
     </g>
    </g>
    <g id="ytick_8">
     <g id="line2d_14">
      <g>
       <use xlink:href="#m2499b7e332" x="50.14375" y="51.07603" style="stroke: #000000; stroke-width: 0.8"/>
      </g>
     </g>
     <g id="text_15">
      <!-- 1.75 -->
      <g transform="translate(20.878125 54.875248)scale(0.1 -0.1)">
       <use xlink:href="#DejaVuSans-31"/>
       <use xlink:href="#DejaVuSans-2e" x="63.623047"/>
       <use xlink:href="#DejaVuSans-37" x="95.410156"/>
       <use xlink:href="#DejaVuSans-35" x="159.033203"/>
      </g>
     </g>
    </g>
    <g id="ytick_9">
     <g id="line2d_15">
      <g>
       <use xlink:href="#m2499b7e332" x="50.14375" y="26.281177" style="stroke: #000000; stroke-width: 0.8"/>
      </g>
     </g>
     <g id="text_16">
      <!-- 2.00 -->
      <g transform="translate(20.878125 30.080396)scale(0.1 -0.1)">
       <use xlink:href="#DejaVuSans-32"/>
       <use xlink:href="#DejaVuSans-2e" x="63.623047"/>
       <use xlink:href="#DejaVuSans-30" x="95.410156"/>
       <use xlink:href="#DejaVuSans-30" x="159.033203"/>
      </g>
     </g>
    </g>
    <g id="text_17">
     <!-- Probability density -->
     <g transform="translate(14.798438 162.270781)rotate(-90)scale(0.1 -0.1)">
      <defs>
       <path id="DejaVuSans-62" d="M 3116 1747 
Q 3116 2381 2855 2742 
Q 2594 3103 2138 3103 
Q 1681 3103 1420 2742 
Q 1159 2381 1159 1747 
Q 1159 1113 1420 752 
Q 1681 391 2138 391 
Q 2594 391 2855 752 
Q 3116 1113 3116 1747 
z
M 1159 2969 
Q 1341 3281 1617 3432 
Q 1894 3584 2278 3584 
Q 2916 3584 3314 3078 
Q 3713 2572 3713 1747 
Q 3713 922 3314 415 
Q 2916 -91 2278 -91 
Q 1894 -91 1617 61 
Q 1341 213 1159 525 
L 1159 0 
L 581 0 
L 581 4863 
L 1159 4863 
L 1159 2969 
z
" transform="scale(0.015625)"/>
       <path id="DejaVuSans-6c" d="M 603 4863 
L 1178 4863 
L 1178 0 
L 603 0 
L 603 4863 
z
" transform="scale(0.015625)"/>
       <path id="DejaVuSans-79" d="M 2059 -325 
Q 1816 -950 1584 -1140 
Q 1353 -1331 966 -1331 
L 506 -1331 
L 506 -850 
L 844 -850 
Q 1081 -850 1212 -737 
Q 1344 -625 1503 -206 
L 1606 56 
L 191 3500 
L 800 3500 
L 1894 763 
L 2988 3500 
L 3597 3500 
L 2059 -325 
z
" transform="scale(0.015625)"/>
       <path id="DejaVuSans-73" d="M 2834 3397 
L 2834 2853 
Q 2591 2978 2328 3040 
Q 2066 3103 1784 3103 
Q 1356 3103 1142 2972 
Q 928 2841 928 2578 
Q 928 2378 1081 2264 
Q 1234 2150 1697 2047 
L 1894 2003 
Q 2506 1872 2764 1633 
Q 3022 1394 3022 966 
Q 3022 478 2636 193 
Q 2250 -91 1575 -91 
Q 1294 -91 989 -36 
Q 684 19 347 128 
L 347 722 
Q 666 556 975 473 
Q 1284 391 1588 391 
Q 1994 391 2212 530 
Q 2431 669 2431 922 
Q 2431 1156 2273 1281 
Q 2116 1406 1581 1522 
L 1381 1569 
Q 847 1681 609 1914 
Q 372 2147 372 2553 
Q 372 3047 722 3315 
Q 1072 3584 1716 3584 
Q 2034 3584 2315 3537 
Q 2597 3491 2834 3397 
z
" transform="scale(0.015625)"/>
      </defs>
      <use xlink:href="#DejaVuSans-50"/>
      <use xlink:href="#DejaVuSans-72" x="58.552734"/>
      <use xlink:href="#DejaVuSans-6f" x="97.416016"/>
      <use xlink:href="#DejaVuSans-62" x="158.597656"/>
      <use xlink:href="#DejaVuSans-61" x="222.074219"/>
      <use xlink:href="#DejaVuSans-62" x="283.353516"/>
      <use xlink:href="#DejaVuSans-69" x="346.830078"/>
      <use xlink:href="#DejaVuSans-6c" x="374.613281"/>
      <use xlink:href="#DejaVuSans-69" x="402.396484"/>
      <use xlink:href="#DejaVuSans-74" x="430.179688"/>
      <use xlink:href="#DejaVuSans-79" x="469.388672"/>
      <use xlink:href="#DejaVuSans-20" x="528.568359"/>
      <use xlink:href="#DejaVuSans-64" x="560.355469"/>
      <use xlink:href="#DejaVuSans-65" x="623.832031"/>
      <use xlink:href="#DejaVuSans-6e" x="685.355469"/>
      <use xlink:href="#DejaVuSans-73" x="748.734375"/>
      <use xlink:href="#DejaVuSans-69" x="800.833984"/>
      <use xlink:href="#DejaVuSans-74" x="828.617188"/>
      <use xlink:href="#DejaVuSans-79" x="867.826172"/>
     </g>
    </g>
   </g>
   <g id="line2d_16">
    <path d="M 65.361932 224.64 
L 369.725568 26.281177 
L 369.725568 26.281177 
" clip-path="url(#p746025aa57)" style="fill: none; stroke: #ff7f0e; stroke-width: 1.5; stroke-linecap: square"/>
   </g>
   <g id="patch_203">
    <path d="M 50.14375 224.64 
L 50.14375 7.2 
" style="fill: none; stroke: #000000; stroke-width: 0.8; stroke-linejoin: miter; stroke-linecap: square"/>
   </g>
   <g id="patch_204">
    <path d="M 384.94375 224.64 
L 384.94375 7.2 
" style="fill: none; stroke: #000000; stroke-width: 0.8; stroke-linejoin: miter; stroke-linecap: square"/>
   </g>
   <g id="patch_205">
    <path d="M 50.14375 224.64 
L 384.94375 224.64 
" style="fill: none; stroke: #000000; stroke-width: 0.8; stroke-linejoin: miter; stroke-linecap: square"/>
   </g>
   <g id="patch_206">
    <path d="M 50.14375 7.2 
L 384.94375 7.2 
" style="fill: none; stroke: #000000; stroke-width: 0.8; stroke-linejoin: miter; stroke-linecap: square"/>
   </g>
  </g>
 </g>
 <defs>
  <clipPath id="p746025aa57">
   <rect x="50.14375" y="7.2" width="334.8" height="217.44"/>
  </clipPath>
 </defs>
</svg>
