<?xml version="1.0" encoding="utf-8" standalone="no"?>
<!DOCTYPE svg PUBLIC "-//W3C//DTD SVG 1.1//EN"
  "http://www.w3.org/Graphics/SVG/1.1/DTD/svg11.dtd">
<svg xmlns:xlink="http://www.w3.org/1999/xlink" width="392.14375pt" height="262.19625pt" viewBox="0 0 392.14375 262.19625" xmlns="http://www.w3.org/2000/svg" version="1.1">
 <metadata>
  <rdf:RDF xmlns:dc="http://purl.org/dc/elements/1.1/" xmlns:cc="http://creativecommons.org/ns#" xmlns:rdf="http://www.w3.org/1999/02/22-rdf-syntax-ns#">
   <cc:Work>
    <dc:type rdf:resource="http://purl.org/dc/dcmitype/StillImage"/>
    <dc:date>2022-07-18T11:53:50.490035</dc:date>
    <dc:format>image/svg+xml</dc:format>
    <dc:creator>
     <cc:Agent>
      <dc:title>Matplotlib v3.5.2, https://matplotlib.org/</dc:title>
     </cc:Agent>
    </dc:creator>
   </cc:Work>
  </rdf:RDF>
 </metadata>
 <defs>
  <style type="text/css">*{stroke-linejoin: round; stroke-linecap: butt}</style>
 </defs>
 <g id="figure_1">
  <g id="patch_1">
   <path d="M 0 262.19625 
L 392.14375 262.19625 
L 392.14375 0 
L 0 0 
L 0 262.19625 
z
" style="fill: none"/>
  </g>
  <g id="axes_1">
   <g id="patch_2">
    <path d="M 50.14375 224.64 
L 384.94375 224.64 
L 384.94375 7.2 
L 50.14375 7.2 
z
" style="fill: #ffffff"/>
   </g>
   <g id="patch_3">
    <path d="M 66.283192 224.64 
L 67.800401 224.64 
L 67.800401 223.167827 
L 66.283192 223.167827 
z
" clip-path="url(#p299d53952e)" style="fill: #1f77b4"/>
   </g>
   <g id="patch_4">
    <path d="M 67.800401 224.64 
L 69.31761 224.64 
L 69.31761 222.677102 
L 67.800401 222.677102 
z
" clip-path="url(#p299d53952e)" style="fill: #1f77b4"/>
   </g>
   <g id="patch_5">
    <path d="M 69.31761 224.64 
L 70.834818 224.64 
L 70.834818 221.695653 
L 69.31761 221.695653 
z
" clip-path="url(#p299d53952e)" style="fill: #1f77b4"/>
   </g>
   <g id="patch_6">
    <path d="M 70.834818 224.64 
L 72.352027 224.64 
L 72.352027 222.677102 
L 70.834818 222.677102 
z
" clip-path="url(#p299d53952e)" style="fill: #1f77b4"/>
   </g>
   <g id="patch_7">
    <path d="M 72.352027 224.64 
L 73.869236 224.64 
L 73.869236 216.788409 
L 72.352027 216.788409 
z
" clip-path="url(#p299d53952e)" style="fill: #1f77b4"/>
   </g>
   <g id="patch_8">
    <path d="M 73.869236 224.64 
L 75.386445 224.64 
L 75.386445 220.22348 
L 73.869236 220.22348 
z
" clip-path="url(#p299d53952e)" style="fill: #1f77b4"/>
   </g>
   <g id="patch_9">
    <path d="M 75.386445 224.64 
L 76.903653 224.64 
L 76.903653 219.242031 
L 75.386445 219.242031 
z
" clip-path="url(#p299d53952e)" style="fill: #1f77b4"/>
   </g>
   <g id="patch_10">
    <path d="M 76.903653 224.64 
L 78.420862 224.64 
L 78.420862 217.279133 
L 76.903653 217.279133 
z
" clip-path="url(#p299d53952e)" style="fill: #1f77b4"/>
   </g>
   <g id="patch_11">
    <path d="M 78.420862 224.64 
L 79.938071 224.64 
L 79.938071 213.353338 
L 78.420862 213.353338 
z
" clip-path="url(#p299d53952e)" style="fill: #1f77b4"/>
   </g>
   <g id="patch_12">
    <path d="M 79.938071 224.64 
L 81.45528 224.64 
L 81.45528 218.260582 
L 79.938071 218.260582 
z
" clip-path="url(#p299d53952e)" style="fill: #1f77b4"/>
   </g>
   <g id="patch_13">
    <path d="M 81.45528 224.64 
L 82.972489 224.64 
L 82.972489 216.297684 
L 81.45528 216.297684 
z
" clip-path="url(#p299d53952e)" style="fill: #1f77b4"/>
   </g>
   <g id="patch_14">
    <path d="M 82.972489 224.64 
L 84.489697 224.64 
L 84.489697 213.844062 
L 82.972489 213.844062 
z
" clip-path="url(#p299d53952e)" style="fill: #1f77b4"/>
   </g>
   <g id="patch_15">
    <path d="M 84.489697 224.64 
L 86.006906 224.64 
L 86.006906 216.297684 
L 84.489697 216.297684 
z
" clip-path="url(#p299d53952e)" style="fill: #1f77b4"/>
   </g>
   <g id="patch_16">
    <path d="M 86.006906 224.64 
L 87.524115 224.64 
L 87.524115 208.936818 
L 86.006906 208.936818 
z
" clip-path="url(#p299d53952e)" style="fill: #1f77b4"/>
   </g>
   <g id="patch_17">
    <path d="M 87.524115 224.64 
L 89.041324 224.64 
L 89.041324 200.594502 
L 87.524115 200.594502 
z
" clip-path="url(#p299d53952e)" style="fill: #1f77b4"/>
   </g>
   <g id="patch_18">
    <path d="M 89.041324 224.64 
L 90.558533 224.64 
L 90.558533 206.483196 
L 89.041324 206.483196 
z
" clip-path="url(#p299d53952e)" style="fill: #1f77b4"/>
   </g>
   <g id="patch_19">
    <path d="M 90.558533 224.64 
L 92.075741 224.64 
L 92.075741 211.39044 
L 90.558533 211.39044 
z
" clip-path="url(#p299d53952e)" style="fill: #1f77b4"/>
   </g>
   <g id="patch_20">
    <path d="M 92.075741 224.64 
L 93.59295 224.64 
L 93.59295 211.39044 
L 92.075741 211.39044 
z
" clip-path="url(#p299d53952e)" style="fill: #1f77b4"/>
   </g>
   <g id="patch_21">
    <path d="M 93.59295 224.64 
L 95.110159 224.64 
L 95.110159 207.464645 
L 93.59295 207.464645 
z
" clip-path="url(#p299d53952e)" style="fill: #1f77b4"/>
   </g>
   <g id="patch_22">
    <path d="M 95.110159 224.64 
L 96.627368 224.64 
L 96.627368 205.011022 
L 95.110159 205.011022 
z
" clip-path="url(#p299d53952e)" style="fill: #1f77b4"/>
   </g>
   <g id="patch_23">
    <path d="M 96.627368 224.64 
L 98.144577 224.64 
L 98.144577 205.992471 
L 96.627368 205.992471 
z
" clip-path="url(#p299d53952e)" style="fill: #1f77b4"/>
   </g>
   <g id="patch_24">
    <path d="M 98.144577 224.64 
L 99.661785 224.64 
L 99.661785 204.520298 
L 98.144577 204.520298 
z
" clip-path="url(#p299d53952e)" style="fill: #1f77b4"/>
   </g>
   <g id="patch_25">
    <path d="M 99.661785 224.64 
L 101.178994 224.64 
L 101.178994 195.687258 
L 99.661785 195.687258 
z
" clip-path="url(#p299d53952e)" style="fill: #1f77b4"/>
   </g>
   <g id="patch_26">
    <path d="M 101.178994 224.64 
L 102.696203 224.64 
L 102.696203 201.085227 
L 101.178994 201.085227 
z
" clip-path="url(#p299d53952e)" style="fill: #1f77b4"/>
   </g>
   <g id="patch_27">
    <path d="M 102.696203 224.64 
L 104.213412 224.64 
L 104.213412 201.575951 
L 102.696203 201.575951 
z
" clip-path="url(#p299d53952e)" style="fill: #1f77b4"/>
   </g>
   <g id="patch_28">
    <path d="M 104.213412 224.64 
L 105.730621 224.64 
L 105.730621 204.029573 
L 104.213412 204.029573 
z
" clip-path="url(#p299d53952e)" style="fill: #1f77b4"/>
   </g>
   <g id="patch_29">
    <path d="M 105.730621 224.64 
L 107.247829 224.64 
L 107.247829 198.631605 
L 105.730621 198.631605 
z
" clip-path="url(#p299d53952e)" style="fill: #1f77b4"/>
   </g>
   <g id="patch_30">
    <path d="M 107.247829 224.64 
L 108.765038 224.64 
L 108.765038 195.687258 
L 107.247829 195.687258 
z
" clip-path="url(#p299d53952e)" style="fill: #1f77b4"/>
   </g>
   <g id="patch_31">
    <path d="M 108.765038 224.64 
L 110.282247 224.64 
L 110.282247 193.72436 
L 108.765038 193.72436 
z
" clip-path="url(#p299d53952e)" style="fill: #1f77b4"/>
   </g>
   <g id="patch_32">
    <path d="M 110.282247 224.64 
L 111.799456 224.64 
L 111.799456 195.196534 
L 110.282247 195.196534 
z
" clip-path="url(#p299d53952e)" style="fill: #1f77b4"/>
   </g>
   <g id="patch_33">
    <path d="M 111.799456 224.64 
L 113.316664 224.64 
L 113.316664 193.72436 
L 111.799456 193.72436 
z
" clip-path="url(#p299d53952e)" style="fill: #1f77b4"/>
   </g>
   <g id="patch_34">
    <path d="M 113.316664 224.64 
L 114.833873 224.64 
L 114.833873 190.780014 
L 113.316664 190.780014 
z
" clip-path="url(#p299d53952e)" style="fill: #1f77b4"/>
   </g>
   <g id="patch_35">
    <path d="M 114.833873 224.64 
L 116.351082 224.64 
L 116.351082 199.122329 
L 114.833873 199.122329 
z
" clip-path="url(#p299d53952e)" style="fill: #1f77b4"/>
   </g>
   <g id="patch_36">
    <path d="M 116.351082 224.64 
L 117.868291 224.64 
L 117.868291 190.289289 
L 116.351082 190.289289 
z
" clip-path="url(#p299d53952e)" style="fill: #1f77b4"/>
   </g>
   <g id="patch_37">
    <path d="M 117.868291 224.64 
L 119.3855 224.64 
L 119.3855 190.780014 
L 117.868291 190.780014 
z
" clip-path="url(#p299d53952e)" style="fill: #1f77b4"/>
   </g>
   <g id="patch_38">
    <path d="M 119.3855 224.64 
L 120.902708 224.64 
L 120.902708 190.289289 
L 119.3855 190.289289 
z
" clip-path="url(#p299d53952e)" style="fill: #1f77b4"/>
   </g>
   <g id="patch_39">
    <path d="M 120.902708 224.64 
L 122.419917 224.64 
L 122.419917 185.382045 
L 120.902708 185.382045 
z
" clip-path="url(#p299d53952e)" style="fill: #1f77b4"/>
   </g>
   <g id="patch_40">
    <path d="M 122.419917 224.64 
L 123.937126 224.64 
L 123.937126 190.289289 
L 122.419917 190.289289 
z
" clip-path="url(#p299d53952e)" style="fill: #1f77b4"/>
   </g>
   <g id="patch_41">
    <path d="M 123.937126 224.64 
L 125.454335 224.64 
L 125.454335 180.965525 
L 123.937126 180.965525 
z
" clip-path="url(#p299d53952e)" style="fill: #1f77b4"/>
   </g>
   <g id="patch_42">
    <path d="M 125.454335 224.64 
L 126.971544 224.64 
L 126.971544 179.984076 
L 125.454335 179.984076 
z
" clip-path="url(#p299d53952e)" style="fill: #1f77b4"/>
   </g>
   <g id="patch_43">
    <path d="M 126.971544 224.64 
L 128.488752 224.64 
L 128.488752 184.400596 
L 126.971544 184.400596 
z
" clip-path="url(#p299d53952e)" style="fill: #1f77b4"/>
   </g>
   <g id="patch_44">
    <path d="M 128.488752 224.64 
L 130.005961 224.64 
L 130.005961 188.817116 
L 128.488752 188.817116 
z
" clip-path="url(#p299d53952e)" style="fill: #1f77b4"/>
   </g>
   <g id="patch_45">
    <path d="M 130.005961 224.64 
L 131.52317 224.64 
L 131.52317 185.872769 
L 130.005961 185.872769 
z
" clip-path="url(#p299d53952e)" style="fill: #1f77b4"/>
   </g>
   <g id="patch_46">
    <path d="M 131.52317 224.64 
L 133.040379 224.64 
L 133.040379 178.511903 
L 131.52317 178.511903 
z
" clip-path="url(#p299d53952e)" style="fill: #1f77b4"/>
   </g>
   <g id="patch_47">
    <path d="M 133.040379 224.64 
L 134.557588 224.64 
L 134.557588 186.363494 
L 133.040379 186.363494 
z
" clip-path="url(#p299d53952e)" style="fill: #1f77b4"/>
   </g>
   <g id="patch_48">
    <path d="M 134.557588 224.64 
L 136.074796 224.64 
L 136.074796 183.419147 
L 134.557588 183.419147 
z
" clip-path="url(#p299d53952e)" style="fill: #1f77b4"/>
   </g>
   <g id="patch_49">
    <path d="M 136.074796 224.64 
L 137.592005 224.64 
L 137.592005 176.549005 
L 136.074796 176.549005 
z
" clip-path="url(#p299d53952e)" style="fill: #1f77b4"/>
   </g>
   <g id="patch_50">
    <path d="M 137.592005 224.64 
L 139.109214 224.64 
L 139.109214 173.113934 
L 137.592005 173.113934 
z
" clip-path="url(#p299d53952e)" style="fill: #1f77b4"/>
   </g>
   <g id="patch_51">
    <path d="M 139.109214 224.64 
L 140.626423 224.64 
L 140.626423 171.151036 
L 139.109214 171.151036 
z
" clip-path="url(#p299d53952e)" style="fill: #1f77b4"/>
   </g>
   <g id="patch_52">
    <path d="M 140.626423 224.64 
L 142.143631 224.64 
L 142.143631 171.64176 
L 140.626423 171.64176 
z
" clip-path="url(#p299d53952e)" style="fill: #1f77b4"/>
   </g>
   <g id="patch_53">
    <path d="M 142.143631 224.64 
L 143.66084 224.64 
L 143.66084 172.623209 
L 142.143631 172.623209 
z
" clip-path="url(#p299d53952e)" style="fill: #1f77b4"/>
   </g>
   <g id="patch_54">
    <path d="M 143.66084 224.64 
L 145.178049 224.64 
L 145.178049 180.965525 
L 143.66084 180.965525 
z
" clip-path="url(#p299d53952e)" style="fill: #1f77b4"/>
   </g>
   <g id="patch_55">
    <path d="M 145.178049 224.64 
L 146.695258 224.64 
L 146.695258 170.660311 
L 145.178049 170.660311 
z
" clip-path="url(#p299d53952e)" style="fill: #1f77b4"/>
   </g>
   <g id="patch_56">
    <path d="M 146.695258 224.64 
L 148.212467 224.64 
L 148.212467 179.493351 
L 146.695258 179.493351 
z
" clip-path="url(#p299d53952e)" style="fill: #1f77b4"/>
   </g>
   <g id="patch_57">
    <path d="M 148.212467 224.64 
L 149.729675 224.64 
L 149.729675 172.132485 
L 148.212467 172.132485 
z
" clip-path="url(#p299d53952e)" style="fill: #1f77b4"/>
   </g>
   <g id="patch_58">
    <path d="M 149.729675 224.64 
L 151.246884 224.64 
L 151.246884 165.262343 
L 149.729675 165.262343 
z
" clip-path="url(#p299d53952e)" style="fill: #1f77b4"/>
   </g>
   <g id="patch_59">
    <path d="M 151.246884 224.64 
L 152.764093 224.64 
L 152.764093 167.22524 
L 151.246884 167.22524 
z
" clip-path="url(#p299d53952e)" style="fill: #1f77b4"/>
   </g>
   <g id="patch_60">
    <path d="M 152.764093 224.64 
L 154.281302 224.64 
L 154.281302 164.771618 
L 152.764093 164.771618 
z
" clip-path="url(#p299d53952e)" style="fill: #1f77b4"/>
   </g>
   <g id="patch_61">
    <path d="M 154.281302 224.64 
L 155.798511 224.64 
L 155.798511 175.076831 
L 154.281302 175.076831 
z
" clip-path="url(#p299d53952e)" style="fill: #1f77b4"/>
   </g>
   <g id="patch_62">
    <path d="M 155.798511 224.64 
L 157.315719 224.64 
L 157.315719 161.827271 
L 155.798511 161.827271 
z
" clip-path="url(#p299d53952e)" style="fill: #1f77b4"/>
   </g>
   <g id="patch_63">
    <path d="M 157.315719 224.64 
L 158.832928 224.64 
L 158.832928 162.80872 
L 157.315719 162.80872 
z
" clip-path="url(#p299d53952e)" style="fill: #1f77b4"/>
   </g>
   <g id="patch_64">
    <path d="M 158.832928 224.64 
L 160.350137 224.64 
L 160.350137 158.882925 
L 158.832928 158.882925 
z
" clip-path="url(#p299d53952e)" style="fill: #1f77b4"/>
   </g>
   <g id="patch_65">
    <path d="M 160.350137 224.64 
L 161.867346 224.64 
L 161.867346 159.864374 
L 160.350137 159.864374 
z
" clip-path="url(#p299d53952e)" style="fill: #1f77b4"/>
   </g>
   <g id="patch_66">
    <path d="M 161.867346 224.64 
L 163.384555 224.64 
L 163.384555 164.280894 
L 161.867346 164.280894 
z
" clip-path="url(#p299d53952e)" style="fill: #1f77b4"/>
   </g>
   <g id="patch_67">
    <path d="M 163.384555 224.64 
L 164.901763 224.64 
L 164.901763 150.540609 
L 163.384555 150.540609 
z
" clip-path="url(#p299d53952e)" style="fill: #1f77b4"/>
   </g>
   <g id="patch_68">
    <path d="M 164.901763 224.64 
L 166.418972 224.64 
L 166.418972 158.882925 
L 164.901763 158.882925 
z
" clip-path="url(#p299d53952e)" style="fill: #1f77b4"/>
   </g>
   <g id="patch_69">
    <path d="M 166.418972 224.64 
L 167.936181 224.64 
L 167.936181 155.938578 
L 166.418972 155.938578 
z
" clip-path="url(#p299d53952e)" style="fill: #1f77b4"/>
   </g>
   <g id="patch_70">
    <path d="M 167.936181 224.64 
L 169.45339 224.64 
L 169.45339 155.447854 
L 167.936181 155.447854 
z
" clip-path="url(#p299d53952e)" style="fill: #1f77b4"/>
   </g>
   <g id="patch_71">
    <path d="M 169.45339 224.64 
L 170.970599 224.64 
L 170.970599 169.678863 
L 169.45339 169.678863 
z
" clip-path="url(#p299d53952e)" style="fill: #1f77b4"/>
   </g>
   <g id="patch_72">
    <path d="M 170.970599 224.64 
L 172.487807 224.64 
L 172.487807 156.920027 
L 170.970599 156.920027 
z
" clip-path="url(#p299d53952e)" style="fill: #1f77b4"/>
   </g>
   <g id="patch_73">
    <path d="M 172.487807 224.64 
L 174.005016 224.64 
L 174.005016 159.864374 
L 172.487807 159.864374 
z
" clip-path="url(#p299d53952e)" style="fill: #1f77b4"/>
   </g>
   <g id="patch_74">
    <path d="M 174.005016 224.64 
L 175.522225 224.64 
L 175.522225 163.299445 
L 174.005016 163.299445 
z
" clip-path="url(#p299d53952e)" style="fill: #1f77b4"/>
   </g>
   <g id="patch_75">
    <path d="M 175.522225 224.64 
L 177.039434 224.64 
L 177.039434 148.577712 
L 175.522225 148.577712 
z
" clip-path="url(#p299d53952e)" style="fill: #1f77b4"/>
   </g>
   <g id="patch_76">
    <path d="M 177.039434 224.64 
L 178.556642 224.64 
L 178.556642 154.466405 
L 177.039434 154.466405 
z
" clip-path="url(#p299d53952e)" style="fill: #1f77b4"/>
   </g>
   <g id="patch_77">
    <path d="M 178.556642 224.64 
L 180.073851 224.64 
L 180.073851 150.049885 
L 178.556642 150.049885 
z
" clip-path="url(#p299d53952e)" style="fill: #1f77b4"/>
   </g>
   <g id="patch_78">
    <path d="M 180.073851 224.64 
L 181.59106 224.64 
L 181.59106 143.670467 
L 180.073851 143.670467 
z
" clip-path="url(#p299d53952e)" style="fill: #1f77b4"/>
   </g>
   <g id="patch_79">
    <path d="M 181.59106 224.64 
L 183.108269 224.64 
L 183.108269 148.577712 
L 181.59106 148.577712 
z
" clip-path="url(#p299d53952e)" style="fill: #1f77b4"/>
   </g>
   <g id="patch_80">
    <path d="M 183.108269 224.64 
L 184.625478 224.64 
L 184.625478 153.484956 
L 183.108269 153.484956 
z
" clip-path="url(#p299d53952e)" style="fill: #1f77b4"/>
   </g>
   <g id="patch_81">
    <path d="M 184.625478 224.64 
L 186.142686 224.64 
L 186.142686 158.3922 
L 184.625478 158.3922 
z
" clip-path="url(#p299d53952e)" style="fill: #1f77b4"/>
   </g>
   <g id="patch_82">
    <path d="M 186.142686 224.64 
L 187.659895 224.64 
L 187.659895 148.086987 
L 186.142686 148.086987 
z
" clip-path="url(#p299d53952e)" style="fill: #1f77b4"/>
   </g>
   <g id="patch_83">
    <path d="M 187.659895 224.64 
L 189.177104 224.64 
L 189.177104 147.105538 
L 187.659895 147.105538 
z
" clip-path="url(#p299d53952e)" style="fill: #1f77b4"/>
   </g>
   <g id="patch_84">
    <path d="M 189.177104 224.64 
L 190.694313 224.64 
L 190.694313 144.161192 
L 189.177104 144.161192 
z
" clip-path="url(#p299d53952e)" style="fill: #1f77b4"/>
   </g>
   <g id="patch_85">
    <path d="M 190.694313 224.64 
L 192.211522 224.64 
L 192.211522 153.484956 
L 190.694313 153.484956 
z
" clip-path="url(#p299d53952e)" style="fill: #1f77b4"/>
   </g>
   <g id="patch_86">
    <path d="M 192.211522 224.64 
L 193.72873 224.64 
L 193.72873 152.012783 
L 192.211522 152.012783 
z
" clip-path="url(#p299d53952e)" style="fill: #1f77b4"/>
   </g>
   <g id="patch_87">
    <path d="M 193.72873 224.64 
L 195.245939 224.64 
L 195.245939 142.198294 
L 193.72873 142.198294 
z
" clip-path="url(#p299d53952e)" style="fill: #1f77b4"/>
   </g>
   <g id="patch_88">
    <path d="M 195.245939 224.64 
L 196.763148 224.64 
L 196.763148 136.309601 
L 195.245939 136.309601 
z
" clip-path="url(#p299d53952e)" style="fill: #1f77b4"/>
   </g>
   <g id="patch_89">
    <path d="M 196.763148 224.64 
L 198.280357 224.64 
L 198.280357 137.781774 
L 196.763148 137.781774 
z
" clip-path="url(#p299d53952e)" style="fill: #1f77b4"/>
   </g>
   <g id="patch_90">
    <path d="M 198.280357 224.64 
L 199.797566 224.64 
L 199.797566 129.930183 
L 198.280357 129.930183 
z
" clip-path="url(#p299d53952e)" style="fill: #1f77b4"/>
   </g>
   <g id="patch_91">
    <path d="M 199.797566 224.64 
L 201.314774 224.64 
L 201.314774 129.439458 
L 199.797566 129.439458 
z
" clip-path="url(#p299d53952e)" style="fill: #1f77b4"/>
   </g>
   <g id="patch_92">
    <path d="M 201.314774 224.64 
L 202.831983 224.64 
L 202.831983 129.439458 
L 201.314774 129.439458 
z
" clip-path="url(#p299d53952e)" style="fill: #1f77b4"/>
   </g>
   <g id="patch_93">
    <path d="M 202.831983 224.64 
L 204.349192 224.64 
L 204.349192 128.948734 
L 202.831983 128.948734 
z
" clip-path="url(#p299d53952e)" style="fill: #1f77b4"/>
   </g>
   <g id="patch_94">
    <path d="M 204.349192 224.64 
L 205.866401 224.64 
L 205.866401 128.948734 
L 204.349192 128.948734 
z
" clip-path="url(#p299d53952e)" style="fill: #1f77b4"/>
   </g>
   <g id="patch_95">
    <path d="M 205.866401 224.64 
L 207.383609 224.64 
L 207.383609 136.800325 
L 205.866401 136.800325 
z
" clip-path="url(#p299d53952e)" style="fill: #1f77b4"/>
   </g>
   <g id="patch_96">
    <path d="M 207.383609 224.64 
L 208.900818 224.64 
L 208.900818 140.235396 
L 207.383609 140.235396 
z
" clip-path="url(#p299d53952e)" style="fill: #1f77b4"/>
   </g>
   <g id="patch_97">
    <path d="M 208.900818 224.64 
L 210.418027 224.64 
L 210.418027 128.458009 
L 208.900818 128.458009 
z
" clip-path="url(#p299d53952e)" style="fill: #1f77b4"/>
   </g>
   <g id="patch_98">
    <path d="M 210.418027 224.64 
L 211.935236 224.64 
L 211.935236 134.837427 
L 210.418027 134.837427 
z
" clip-path="url(#p299d53952e)" style="fill: #1f77b4"/>
   </g>
   <g id="patch_99">
    <path d="M 211.935236 224.64 
L 213.452445 224.64 
L 213.452445 132.874529 
L 211.935236 132.874529 
z
" clip-path="url(#p299d53952e)" style="fill: #1f77b4"/>
   </g>
   <g id="patch_100">
    <path d="M 213.452445 224.64 
L 214.969653 224.64 
L 214.969653 133.365254 
L 213.452445 133.365254 
z
" clip-path="url(#p299d53952e)" style="fill: #1f77b4"/>
   </g>
   <g id="patch_101">
    <path d="M 214.969653 224.64 
L 216.486862 224.64 
L 216.486862 135.328152 
L 214.969653 135.328152 
z
" clip-path="url(#p299d53952e)" style="fill: #1f77b4"/>
   </g>
   <g id="patch_102">
    <path d="M 216.486862 224.64 
L 218.004071 224.64 
L 218.004071 132.383805 
L 216.486862 132.383805 
z
" clip-path="url(#p299d53952e)" style="fill: #1f77b4"/>
   </g>
   <g id="patch_103">
    <path d="M 218.004071 224.64 
L 219.52128 224.64 
L 219.52128 131.893081 
L 218.004071 131.893081 
z
" clip-path="url(#p299d53952e)" style="fill: #1f77b4"/>
   </g>
   <g id="patch_104">
    <path d="M 219.52128 224.64 
L 221.038489 224.64 
L 221.038489 131.402356 
L 219.52128 131.402356 
z
" clip-path="url(#p299d53952e)" style="fill: #1f77b4"/>
   </g>
   <g id="patch_105">
    <path d="M 221.038489 224.64 
L 222.555697 224.64 
L 222.555697 126.004387 
L 221.038489 126.004387 
z
" clip-path="url(#p299d53952e)" style="fill: #1f77b4"/>
   </g>
   <g id="patch_106">
    <path d="M 222.555697 224.64 
L 224.072906 224.64 
L 224.072906 120.606418 
L 222.555697 120.606418 
z
" clip-path="url(#p299d53952e)" style="fill: #1f77b4"/>
   </g>
   <g id="patch_107">
    <path d="M 224.072906 224.64 
L 225.590115 224.64 
L 225.590115 115.20845 
L 224.072906 115.20845 
z
" clip-path="url(#p299d53952e)" style="fill: #1f77b4"/>
   </g>
   <g id="patch_108">
    <path d="M 225.590115 224.64 
L 227.107324 224.64 
L 227.107324 138.763223 
L 225.590115 138.763223 
z
" clip-path="url(#p299d53952e)" style="fill: #1f77b4"/>
   </g>
   <g id="patch_109">
    <path d="M 227.107324 224.64 
L 228.624533 224.64 
L 228.624533 117.171347 
L 227.107324 117.171347 
z
" clip-path="url(#p299d53952e)" style="fill: #1f77b4"/>
   </g>
   <g id="patch_110">
    <path d="M 228.624533 224.64 
L 230.141741 224.64 
L 230.141741 118.643521 
L 228.624533 118.643521 
z
" clip-path="url(#p299d53952e)" style="fill: #1f77b4"/>
   </g>
   <g id="patch_111">
    <path d="M 230.141741 224.64 
L 231.65895 224.64 
L 231.65895 106.866134 
L 230.141741 106.866134 
z
" clip-path="url(#p299d53952e)" style="fill: #1f77b4"/>
   </g>
   <g id="patch_112">
    <path d="M 231.65895 224.64 
L 233.176159 224.64 
L 233.176159 126.985836 
L 231.65895 126.985836 
z
" clip-path="url(#p299d53952e)" style="fill: #1f77b4"/>
   </g>
   <g id="patch_113">
    <path d="M 233.176159 224.64 
L 234.693368 224.64 
L 234.693368 119.62497 
L 233.176159 119.62497 
z
" clip-path="url(#p299d53952e)" style="fill: #1f77b4"/>
   </g>
   <g id="patch_114">
    <path d="M 234.693368 224.64 
L 236.210577 224.64 
L 236.210577 123.060041 
L 234.693368 123.060041 
z
" clip-path="url(#p299d53952e)" style="fill: #1f77b4"/>
   </g>
   <g id="patch_115">
    <path d="M 236.210577 224.64 
L 237.727785 224.64 
L 237.727785 107.847583 
L 236.210577 107.847583 
z
" clip-path="url(#p299d53952e)" style="fill: #1f77b4"/>
   </g>
   <g id="patch_116">
    <path d="M 237.727785 224.64 
L 239.244994 224.64 
L 239.244994 106.37541 
L 237.727785 106.37541 
z
" clip-path="url(#p299d53952e)" style="fill: #1f77b4"/>
   </g>
   <g id="patch_117">
    <path d="M 239.244994 224.64 
L 240.762203 224.64 
L 240.762203 114.717725 
L 239.244994 114.717725 
z
" clip-path="url(#p299d53952e)" style="fill: #1f77b4"/>
   </g>
   <g id="patch_118">
    <path d="M 240.762203 224.64 
L 242.279412 224.64 
L 242.279412 115.699174 
L 240.762203 115.699174 
z
" clip-path="url(#p299d53952e)" style="fill: #1f77b4"/>
   </g>
   <g id="patch_119">
    <path d="M 242.279412 224.64 
L 243.79662 224.64 
L 243.79662 119.134245 
L 242.279412 119.134245 
z
" clip-path="url(#p299d53952e)" style="fill: #1f77b4"/>
   </g>
   <g id="patch_120">
    <path d="M 243.79662 224.64 
L 245.313829 224.64 
L 245.313829 99.995992 
L 243.79662 99.995992 
z
" clip-path="url(#p299d53952e)" style="fill: #1f77b4"/>
   </g>
   <g id="patch_121">
    <path d="M 245.313829 224.64 
L 246.831038 224.64 
L 246.831038 108.829032 
L 245.313829 108.829032 
z
" clip-path="url(#p299d53952e)" style="fill: #1f77b4"/>
   </g>
   <g id="patch_122">
    <path d="M 246.831038 224.64 
L 248.348247 224.64 
L 248.348247 105.884685 
L 246.831038 105.884685 
z
" clip-path="url(#p299d53952e)" style="fill: #1f77b4"/>
   </g>
   <g id="patch_123">
    <path d="M 248.348247 224.64 
L 249.865456 224.64 
L 249.865456 98.033094 
L 248.348247 98.033094 
z
" clip-path="url(#p299d53952e)" style="fill: #1f77b4"/>
   </g>
   <g id="patch_124">
    <path d="M 249.865456 224.64 
L 251.382664 224.64 
L 251.382664 97.051645 
L 249.865456 97.051645 
z
" clip-path="url(#p299d53952e)" style="fill: #1f77b4"/>
   </g>
   <g id="patch_125">
    <path d="M 251.382664 224.64 
L 252.899873 224.64 
L 252.899873 102.449614 
L 251.382664 102.449614 
z
" clip-path="url(#p299d53952e)" style="fill: #1f77b4"/>
   </g>
   <g id="patch_126">
    <path d="M 252.899873 224.64 
L 254.417082 224.64 
L 254.417082 93.12585 
L 252.899873 93.12585 
z
" clip-path="url(#p299d53952e)" style="fill: #1f77b4"/>
   </g>
   <g id="patch_127">
    <path d="M 254.417082 224.64 
L 255.934291 224.64 
L 255.934291 96.560921 
L 254.417082 96.560921 
z
" clip-path="url(#p299d53952e)" style="fill: #1f77b4"/>
   </g>
   <g id="patch_128">
    <path d="M 255.934291 224.64 
L 257.4515 224.64 
L 257.4515 113.245552 
L 255.934291 113.245552 
z
" clip-path="url(#p299d53952e)" style="fill: #1f77b4"/>
   </g>
   <g id="patch_129">
    <path d="M 257.4515 224.64 
L 258.968708 224.64 
L 258.968708 105.393961 
L 257.4515 105.393961 
z
" clip-path="url(#p299d53952e)" style="fill: #1f77b4"/>
   </g>
   <g id="patch_130">
    <path d="M 258.968708 224.64 
L 260.485917 224.64 
L 260.485917 95.579472 
L 258.968708 95.579472 
z
" clip-path="url(#p299d53952e)" style="fill: #1f77b4"/>
   </g>
   <g id="patch_131">
    <path d="M 260.485917 224.64 
L 262.003126 224.64 
L 262.003126 95.088747 
L 260.485917 95.088747 
z
" clip-path="url(#p299d53952e)" style="fill: #1f77b4"/>
   </g>
   <g id="patch_132">
    <path d="M 262.003126 224.64 
L 263.520335 224.64 
L 263.520335 84.29281 
L 262.003126 84.29281 
z
" clip-path="url(#p299d53952e)" style="fill: #1f77b4"/>
   </g>
   <g id="patch_133">
    <path d="M 263.520335 224.64 
L 265.037544 224.64 
L 265.037544 109.810481 
L 263.520335 109.810481 
z
" clip-path="url(#p299d53952e)" style="fill: #1f77b4"/>
   </g>
   <g id="patch_134">
    <path d="M 265.037544 224.64 
L 266.554752 224.64 
L 266.554752 95.088747 
L 265.037544 95.088747 
z
" clip-path="url(#p299d53952e)" style="fill: #1f77b4"/>
   </g>
   <g id="patch_135">
    <path d="M 266.554752 224.64 
L 268.071961 224.64 
L 268.071961 103.921787 
L 266.554752 103.921787 
z
" clip-path="url(#p299d53952e)" style="fill: #1f77b4"/>
   </g>
   <g id="patch_136">
    <path d="M 268.071961 224.64 
L 269.58917 224.64 
L 269.58917 94.107299 
L 268.071961 94.107299 
z
" clip-path="url(#p299d53952e)" style="fill: #1f77b4"/>
   </g>
   <g id="patch_137">
    <path d="M 269.58917 224.64 
L 271.106379 224.64 
L 271.106379 90.672227 
L 269.58917 90.672227 
z
" clip-path="url(#p299d53952e)" style="fill: #1f77b4"/>
   </g>
   <g id="patch_138">
    <path d="M 271.106379 224.64 
L 272.623588 224.64 
L 272.623588 90.181503 
L 271.106379 90.181503 
z
" clip-path="url(#p299d53952e)" style="fill: #1f77b4"/>
   </g>
   <g id="patch_139">
    <path d="M 272.623588 224.64 
L 274.140796 224.64 
L 274.140796 95.088747 
L 272.623588 95.088747 
z
" clip-path="url(#p299d53952e)" style="fill: #1f77b4"/>
   </g>
   <g id="patch_140">
    <path d="M 274.140796 224.64 
L 275.658005 224.64 
L 275.658005 109.319756 
L 274.140796 109.319756 
z
" clip-path="url(#p299d53952e)" style="fill: #1f77b4"/>
   </g>
   <g id="patch_141">
    <path d="M 275.658005 224.64 
L 277.175214 224.64 
L 277.175214 83.802085 
L 275.658005 83.802085 
z
" clip-path="url(#p299d53952e)" style="fill: #1f77b4"/>
   </g>
   <g id="patch_142">
    <path d="M 277.175214 224.64 
L 278.692423 224.64 
L 278.692423 87.237156 
L 277.175214 87.237156 
z
" clip-path="url(#p299d53952e)" style="fill: #1f77b4"/>
   </g>
   <g id="patch_143">
    <path d="M 278.692423 224.64 
L 280.209631 224.64 
L 280.209631 87.237156 
L 278.692423 87.237156 
z
" clip-path="url(#p299d53952e)" style="fill: #1f77b4"/>
   </g>
   <g id="patch_144">
    <path d="M 280.209631 224.64 
L 281.72684 224.64 
L 281.72684 89.690779 
L 280.209631 89.690779 
z
" clip-path="url(#p299d53952e)" style="fill: #1f77b4"/>
   </g>
   <g id="patch_145">
    <path d="M 281.72684 224.64 
L 283.244049 224.64 
L 283.244049 96.070196 
L 281.72684 96.070196 
z
" clip-path="url(#p299d53952e)" style="fill: #1f77b4"/>
   </g>
   <g id="patch_146">
    <path d="M 283.244049 224.64 
L 284.761258 224.64 
L 284.761258 69.571077 
L 283.244049 69.571077 
z
" clip-path="url(#p299d53952e)" style="fill: #1f77b4"/>
   </g>
   <g id="patch_147">
    <path d="M 284.761258 224.64 
L 286.278467 224.64 
L 286.278467 88.70933 
L 284.761258 88.70933 
z
" clip-path="url(#p299d53952e)" style="fill: #1f77b4"/>
   </g>
   <g id="patch_148">
    <path d="M 286.278467 224.64 
L 287.795675 224.64 
L 287.795675 82.820636 
L 286.278467 82.820636 
z
" clip-path="url(#p299d53952e)" style="fill: #1f77b4"/>
   </g>
   <g id="patch_149">
    <path d="M 287.795675 224.64 
L 289.312884 224.64 
L 289.312884 77.913392 
L 287.795675 77.913392 
z
" clip-path="url(#p299d53952e)" style="fill: #1f77b4"/>
   </g>
   <g id="patch_150">
    <path d="M 289.312884 224.64 
L 290.830093 224.64 
L 290.830093 81.348463 
L 289.312884 81.348463 
z
" clip-path="url(#p299d53952e)" style="fill: #1f77b4"/>
   </g>
   <g id="patch_151">
    <path d="M 290.830093 224.64 
L 292.347302 224.64 
L 292.347302 77.422668 
L 290.830093 77.422668 
z
" clip-path="url(#p299d53952e)" style="fill: #1f77b4"/>
   </g>
   <g id="patch_152">
    <path d="M 292.347302 224.64 
L 293.864511 224.64 
L 293.864511 59.756588 
L 292.347302 59.756588 
z
" clip-path="url(#p299d53952e)" style="fill: #1f77b4"/>
   </g>
   <g id="patch_153">
    <path d="M 293.864511 224.64 
L 295.381719 224.64 
L 295.381719 82.820636 
L 293.864511 82.820636 
z
" clip-path="url(#p299d53952e)" style="fill: #1f77b4"/>
   </g>
   <g id="patch_154">
    <path d="M 295.381719 224.64 
L 296.898928 224.64 
L 296.898928 86.255708 
L 295.381719 86.255708 
z
" clip-path="url(#p299d53952e)" style="fill: #1f77b4"/>
   </g>
   <g id="patch_155">
    <path d="M 296.898928 224.64 
L 298.416137 224.64 
L 298.416137 74.969045 
L 296.898928 74.969045 
z
" clip-path="url(#p299d53952e)" style="fill: #1f77b4"/>
   </g>
   <g id="patch_156">
    <path d="M 298.416137 224.64 
L 299.933346 224.64 
L 299.933346 83.802085 
L 298.416137 83.802085 
z
" clip-path="url(#p299d53952e)" style="fill: #1f77b4"/>
   </g>
   <g id="patch_157">
    <path d="M 299.933346 224.64 
L 301.450555 224.64 
L 301.450555 79.385565 
L 299.933346 79.385565 
z
" clip-path="url(#p299d53952e)" style="fill: #1f77b4"/>
   </g>
   <g id="patch_158">
    <path d="M 301.450555 224.64 
L 302.967763 224.64 
L 302.967763 73.987596 
L 301.450555 73.987596 
z
" clip-path="url(#p299d53952e)" style="fill: #1f77b4"/>
   </g>
   <g id="patch_159">
    <path d="M 302.967763 224.64 
L 304.484972 224.64 
L 304.484972 63.191659 
L 302.967763 63.191659 
z
" clip-path="url(#p299d53952e)" style="fill: #1f77b4"/>
   </g>
   <g id="patch_160">
    <path d="M 304.484972 224.64 
L 306.002181 224.64 
L 306.002181 72.515423 
L 304.484972 72.515423 
z
" clip-path="url(#p299d53952e)" style="fill: #1f77b4"/>
   </g>
   <g id="patch_161">
    <path d="M 306.002181 224.64 
L 307.51939 224.64 
L 307.51939 77.913392 
L 306.002181 77.913392 
z
" clip-path="url(#p299d53952e)" style="fill: #1f77b4"/>
   </g>
   <g id="patch_162">
    <path d="M 307.51939 224.64 
L 309.036598 224.64 
L 309.036598 68.098903 
L 307.51939 68.098903 
z
" clip-path="url(#p299d53952e)" style="fill: #1f77b4"/>
   </g>
   <g id="patch_163">
    <path d="M 309.036598 224.64 
L 310.553807 224.64 
L 310.553807 63.191659 
L 309.036598 63.191659 
z
" clip-path="url(#p299d53952e)" style="fill: #1f77b4"/>
   </g>
   <g id="patch_164">
    <path d="M 310.553807 224.64 
L 312.071016 224.64 
L 312.071016 57.79369 
L 310.553807 57.79369 
z
" clip-path="url(#p299d53952e)" style="fill: #1f77b4"/>
   </g>
   <g id="patch_165">
    <path d="M 312.071016 224.64 
L 313.588225 224.64 
L 313.588225 61.719485 
L 312.071016 61.719485 
z
" clip-path="url(#p299d53952e)" style="fill: #1f77b4"/>
   </g>
   <g id="patch_166">
    <path d="M 313.588225 224.64 
L 315.105434 224.64 
L 315.105434 71.04325 
L 313.588225 71.04325 
z
" clip-path="url(#p299d53952e)" style="fill: #1f77b4"/>
   </g>
   <g id="patch_167">
    <path d="M 315.105434 224.64 
L 316.622642 224.64 
L 316.622642 54.849343 
L 315.105434 54.849343 
z
" clip-path="url(#p299d53952e)" style="fill: #1f77b4"/>
   </g>
   <g id="patch_168">
    <path d="M 316.622642 224.64 
L 318.139851 224.64 
L 318.139851 52.395721 
L 316.622642 52.395721 
z
" clip-path="url(#p299d53952e)" style="fill: #1f77b4"/>
   </g>
   <g id="patch_169">
    <path d="M 318.139851 224.64 
L 319.65706 224.64 
L 319.65706 75.45977 
L 318.139851 75.45977 
z
" clip-path="url(#p299d53952e)" style="fill: #1f77b4"/>
   </g>
   <g id="patch_170">
    <path d="M 319.65706 224.64 
L 321.174269 224.64 
L 321.174269 72.024699 
L 319.65706 72.024699 
z
" clip-path="url(#p299d53952e)" style="fill: #1f77b4"/>
   </g>
   <g id="patch_171">
    <path d="M 321.174269 224.64 
L 322.691478 224.64 
L 322.691478 48.469926 
L 321.174269 48.469926 
z
" clip-path="url(#p299d53952e)" style="fill: #1f77b4"/>
   </g>
   <g id="patch_172">
    <path d="M 322.691478 224.64 
L 324.208686 224.64 
L 324.208686 55.340068 
L 322.691478 55.340068 
z
" clip-path="url(#p299d53952e)" style="fill: #1f77b4"/>
   </g>
   <g id="patch_173">
    <path d="M 324.208686 224.64 
L 325.725895 224.64 
L 325.725895 48.96065 
L 324.208686 48.96065 
z
" clip-path="url(#p299d53952e)" style="fill: #1f77b4"/>
   </g>
   <g id="patch_174">
    <path d="M 325.725895 224.64 
L 327.243104 224.64 
L 327.243104 50.923548 
L 325.725895 50.923548 
z
" clip-path="url(#p299d53952e)" style="fill: #1f77b4"/>
   </g>
   <g id="patch_175">
    <path d="M 327.243104 224.64 
L 328.760313 224.64 
L 328.760313 43.071957 
L 327.243104 43.071957 
z
" clip-path="url(#p299d53952e)" style="fill: #1f77b4"/>
   </g>
   <g id="patch_176">
    <path d="M 328.760313 224.64 
L 330.277522 224.64 
L 330.277522 48.96065 
L 328.760313 48.96065 
z
" clip-path="url(#p299d53952e)" style="fill: #1f77b4"/>
   </g>
   <g id="patch_177">
    <path d="M 330.277522 224.64 
L 331.79473 224.64 
L 331.79473 57.302965 
L 330.277522 57.302965 
z
" clip-path="url(#p299d53952e)" style="fill: #1f77b4"/>
   </g>
   <g id="patch_178">
    <path d="M 331.79473 224.64 
L 333.311939 224.64 
L 333.311939 40.618334 
L 331.79473 40.618334 
z
" clip-path="url(#p299d53952e)" style="fill: #1f77b4"/>
   </g>
   <g id="patch_179">
    <path d="M 333.311939 224.64 
L 334.829148 224.64 
L 334.829148 62.700934 
L 333.311939 62.700934 
z
" clip-path="url(#p299d53952e)" style="fill: #1f77b4"/>
   </g>
   <g id="patch_180">
    <path d="M 334.829148 224.64 
L 336.346357 224.64 
L 336.346357 49.451374 
L 334.829148 49.451374 
z
" clip-path="url(#p299d53952e)" style="fill: #1f77b4"/>
   </g>
   <g id="patch_181">
    <path d="M 336.346357 224.64 
L 337.863566 224.64 
L 337.863566 43.562681 
L 336.346357 43.562681 
z
" clip-path="url(#p299d53952e)" style="fill: #1f77b4"/>
   </g>
   <g id="patch_182">
    <path d="M 337.863566 224.64 
L 339.380774 224.64 
L 339.380774 56.812241 
L 337.863566 56.812241 
z
" clip-path="url(#p299d53952e)" style="fill: #1f77b4"/>
   </g>
   <g id="patch_183">
    <path d="M 339.380774 224.64 
L 340.897983 224.64 
L 340.897983 50.923548 
L 339.380774 50.923548 
z
" clip-path="url(#p299d53952e)" style="fill: #1f77b4"/>
   </g>
   <g id="patch_184">
    <path d="M 340.897983 224.64 
L 342.415192 224.64 
L 342.415192 45.525579 
L 340.897983 45.525579 
z
" clip-path="url(#p299d53952e)" style="fill: #1f77b4"/>
   </g>
   <g id="patch_185">
    <path d="M 342.415192 224.64 
L 343.932401 224.64 
L 343.932401 25.896601 
L 342.415192 25.896601 
z
" clip-path="url(#p299d53952e)" style="fill: #1f77b4"/>
   </g>
   <g id="patch_186">
    <path d="M 343.932401 224.64 
L 345.449609 224.64 
L 345.449609 42.090508 
L 343.932401 42.090508 
z
" clip-path="url(#p299d53952e)" style="fill: #1f77b4"/>
   </g>
   <g id="patch_187">
    <path d="M 345.449609 224.64 
L 346.966818 224.64 
L 346.966818 26.387326 
L 345.449609 26.387326 
z
" clip-path="url(#p299d53952e)" style="fill: #1f77b4"/>
   </g>
   <g id="patch_188">
    <path d="M 346.966818 224.64 
L 348.484027 224.64 
L 348.484027 20.989357 
L 346.966818 20.989357 
z
" clip-path="url(#p299d53952e)" style="fill: #1f77b4"/>
   </g>
   <g id="patch_189">
    <path d="M 348.484027 224.64 
L 350.001236 224.64 
L 350.001236 48.469926 
L 348.484027 48.469926 
z
" clip-path="url(#p299d53952e)" style="fill: #1f77b4"/>
   </g>
   <g id="patch_190">
    <path d="M 350.001236 224.64 
L 351.518445 224.64 
L 351.518445 37.183263 
L 350.001236 37.183263 
z
" clip-path="url(#p299d53952e)" style="fill: #1f77b4"/>
   </g>
   <g id="patch_191">
    <path d="M 351.518445 224.64 
L 353.035653 224.64 
L 353.035653 46.507028 
L 351.518445 46.507028 
z
" clip-path="url(#p299d53952e)" style="fill: #1f77b4"/>
   </g>
   <g id="patch_192">
    <path d="M 353.035653 224.64 
L 354.552862 224.64 
L 354.552862 52.395721 
L 353.035653 52.395721 
z
" clip-path="url(#p299d53952e)" style="fill: #1f77b4"/>
   </g>
   <g id="patch_193">
    <path d="M 354.552862 224.64 
L 356.070071 224.64 
L 356.070071 47.979201 
L 354.552862 47.979201 
z
" clip-path="url(#p299d53952e)" style="fill: #1f77b4"/>
   </g>
   <g id="patch_194">
    <path d="M 356.070071 224.64 
L 357.58728 224.64 
L 357.58728 35.71109 
L 356.070071 35.71109 
z
" clip-path="url(#p299d53952e)" style="fill: #1f77b4"/>
   </g>
   <g id="patch_195">
    <path d="M 357.58728 224.64 
L 359.104489 224.64 
L 359.104489 46.016303 
L 357.58728 46.016303 
z
" clip-path="url(#p299d53952e)" style="fill: #1f77b4"/>
   </g>
   <g id="patch_196">
    <path d="M 359.104489 224.64 
L 360.621697 224.64 
L 360.621697 34.729641 
L 359.104489 34.729641 
z
" clip-path="url(#p299d53952e)" style="fill: #1f77b4"/>
   </g>
   <g id="patch_197">
    <path d="M 360.621697 224.64 
L 362.138906 224.64 
L 362.138906 31.785295 
L 360.621697 31.785295 
z
" clip-path="url(#p299d53952e)" style="fill: #1f77b4"/>
   </g>
   <g id="patch_198">
    <path d="M 362.138906 224.64 
L 363.656115 224.64 
L 363.656115 34.729641 
L 362.138906 34.729641 
z
" clip-path="url(#p299d53952e)" style="fill: #1f77b4"/>
   </g>
   <g id="patch_199">
    <path d="M 363.656115 224.64 
L 365.173324 224.64 
L 365.173324 26.387326 
L 363.656115 26.387326 
z
" clip-path="url(#p299d53952e)" style="fill: #1f77b4"/>
   </g>
   <g id="patch_200">
    <path d="M 365.173324 224.64 
L 366.690533 224.64 
L 366.690533 17.554286 
L 365.173324 17.554286 
z
" clip-path="url(#p299d53952e)" style="fill: #1f77b4"/>
   </g>
   <g id="patch_201">
    <path d="M 366.690533 224.64 
L 368.207741 224.64 
L 368.207741 50.923548 
L 366.690533 50.923548 
z
" clip-path="url(#p299d53952e)" style="fill: #1f77b4"/>
   </g>
   <g id="patch_202">
    <path d="M 368.207741 224.64 
L 369.72495 224.64 
L 369.72495 47.488477 
L 368.207741 47.488477 
z
" clip-path="url(#p299d53952e)" style="fill: #1f77b4"/>
   </g>
   <g id="matplotlib.axis_1">
    <g id="xtick_1">
     <g id="line2d_1">
      <defs>
       <path id="m1ca774d9f9" d="M 0 0 
L 0 3.5 
" style="stroke: #000000; stroke-width: 0.8"/>
      </defs>
      <g>
       <use xlink:href="#m1ca774d9f9" x="65.361932" y="224.64" style="stroke: #000000; stroke-width: 0.8"/>
      </g>
     </g>
     <g id="text_1">
      <!-- 0.0 -->
      <g transform="translate(57.410369 239.238437)scale(0.1 -0.1)">
       <defs>
        <path id="DejaVuSans-30" d="M 2034 4250 
Q 1547 4250 1301 3770 
Q 1056 3291 1056 2328 
Q 1056 1369 1301 889 
Q 1547 409 2034 409 
Q 2525 409 2770 889 
Q 3016 1369 3016 2328 
Q 3016 3291 2770 3770 
Q 2525 4250 2034 4250 
z
M 2034 4750 
Q 2819 4750 3233 4129 
Q 3647 3509 3647 2328 
Q 3647 1150 3233 529 
Q 2819 -91 2034 -91 
Q 1250 -91 836 529 
Q 422 1150 422 2328 
Q 422 3509 836 4129 
Q 1250 4750 2034 4750 
z
" transform="scale(0.015625)"/>
        <path id="DejaVuSans-2e" d="M 684 794 
L 1344 794 
L 1344 0 
L 684 0 
L 684 794 
z
" transform="scale(0.015625)"/>
       </defs>
       <use xlink:href="#DejaVuSans-30"/>
       <use xlink:href="#DejaVuSans-2e" x="63.623047"/>
       <use xlink:href="#DejaVuSans-30" x="95.410156"/>
      </g>
     </g>
    </g>
    <g id="xtick_2">
     <g id="line2d_2">
      <g>
       <use xlink:href="#m1ca774d9f9" x="126.234659" y="224.64" style="stroke: #000000; stroke-width: 0.8"/>
      </g>
     </g>
     <g id="text_2">
      <!-- 0.2 -->
      <g transform="translate(118.283097 239.238437)scale(0.1 -0.1)">
       <defs>
        <path id="DejaVuSans-32" d="M 1228 531 
L 3431 531 
L 3431 0 
L 469 0 
L 469 531 
Q 828 903 1448 1529 
Q 2069 2156 2228 2338 
Q 2531 2678 2651 2914 
Q 2772 3150 2772 3378 
Q 2772 3750 2511 3984 
Q 2250 4219 1831 4219 
Q 1534 4219 1204 4116 
Q 875 4013 500 3803 
L 500 4441 
Q 881 4594 1212 4672 
Q 1544 4750 1819 4750 
Q 2544 4750 2975 4387 
Q 3406 4025 3406 3419 
Q 3406 3131 3298 2873 
Q 3191 2616 2906 2266 
Q 2828 2175 2409 1742 
Q 1991 1309 1228 531 
z
" transform="scale(0.015625)"/>
       </defs>
       <use xlink:href="#DejaVuSans-30"/>
       <use xlink:href="#DejaVuSans-2e" x="63.623047"/>
       <use xlink:href="#DejaVuSans-32" x="95.410156"/>
      </g>
     </g>
    </g>
    <g id="xtick_3">
     <g id="line2d_3">
      <g>
       <use xlink:href="#m1ca774d9f9" x="187.107386" y="224.64" style="stroke: #000000; stroke-width: 0.8"/>
      </g>
     </g>
     <g id="text_3">
      <!-- 0.4 -->
      <g transform="translate(179.155824 239.238437)scale(0.1 -0.1)">
       <defs>
        <path id="DejaVuSans-34" d="M 2419 4116 
L 825 1625 
L 2419 1625 
L 2419 4116 
z
M 2253 4666 
L 3047 4666 
L 3047 1625 
L 3713 1625 
L 3713 1100 
L 3047 1100 
L 3047 0 
L 2419 0 
L 2419 1100 
L 313 1100 
L 313 1709 
L 2253 4666 
z
" transform="scale(0.015625)"/>
       </defs>
       <use xlink:href="#DejaVuSans-30"/>
       <use xlink:href="#DejaVuSans-2e" x="63.623047"/>
       <use xlink:href="#DejaVuSans-34" x="95.410156"/>
      </g>
     </g>
    </g>
    <g id="xtick_4">
     <g id="line2d_4">
      <g>
       <use xlink:href="#m1ca774d9f9" x="247.980114" y="224.64" style="stroke: #000000; stroke-width: 0.8"/>
      </g>
     </g>
     <g id="text_4">
      <!-- 0.6 -->
      <g transform="translate(240.028551 239.238437)scale(0.1 -0.1)">
       <defs>
        <path id="DejaVuSans-36" d="M 2113 2584 
Q 1688 2584 1439 2293 
Q 1191 2003 1191 1497 
Q 1191 994 1439 701 
Q 1688 409 2113 409 
Q 2538 409 2786 701 
Q 3034 994 3034 1497 
Q 3034 2003 2786 2293 
Q 2538 2584 2113 2584 
z
M 3366 4563 
L 3366 3988 
Q 3128 4100 2886 4159 
Q 2644 4219 2406 4219 
Q 1781 4219 1451 3797 
Q 1122 3375 1075 2522 
Q 1259 2794 1537 2939 
Q 1816 3084 2150 3084 
Q 2853 3084 3261 2657 
Q 3669 2231 3669 1497 
Q 3669 778 3244 343 
Q 2819 -91 2113 -91 
Q 1303 -91 875 529 
Q 447 1150 447 2328 
Q 447 3434 972 4092 
Q 1497 4750 2381 4750 
Q 2619 4750 2861 4703 
Q 3103 4656 3366 4563 
z
" transform="scale(0.015625)"/>
       </defs>
       <use xlink:href="#DejaVuSans-30"/>
       <use xlink:href="#DejaVuSans-2e" x="63.623047"/>
       <use xlink:href="#DejaVuSans-36" x="95.410156"/>
      </g>
     </g>
    </g>
    <g id="xtick_5">
     <g id="line2d_5">
      <g>
       <use xlink:href="#m1ca774d9f9" x="308.852841" y="224.64" style="stroke: #000000; stroke-width: 0.8"/>
      </g>
     </g>
     <g id="text_5">
      <!-- 0.8 -->
      <g transform="translate(300.901278 239.238437)scale(0.1 -0.1)">
       <defs>
        <path id="DejaVuSans-38" d="M 2034 2216 
Q 1584 2216 1326 1975 
Q 1069 1734 1069 1313 
Q 1069 891 1326 650 
Q 1584 409 2034 409 
Q 2484 409 2743 651 
Q 3003 894 3003 1313 
Q 3003 1734 2745 1975 
Q 2488 2216 2034 2216 
z
M 1403 2484 
Q 997 2584 770 2862 
Q 544 3141 544 3541 
Q 544 4100 942 4425 
Q 1341 4750 2034 4750 
Q 2731 4750 3128 4425 
Q 3525 4100 3525 3541 
Q 3525 3141 3298 2862 
Q 3072 2584 2669 2484 
Q 3125 2378 3379 2068 
Q 3634 1759 3634 1313 
Q 3634 634 3220 271 
Q 2806 -91 2034 -91 
Q 1263 -91 848 271 
Q 434 634 434 1313 
Q 434 1759 690 2068 
Q 947 2378 1403 2484 
z
M 1172 3481 
Q 1172 3119 1398 2916 
Q 1625 2713 2034 2713 
Q 2441 2713 2670 2916 
Q 2900 3119 2900 3481 
Q 2900 3844 2670 4047 
Q 2441 4250 2034 4250 
Q 1625 4250 1398 4047 
Q 1172 3844 1172 3481 
z
" transform="scale(0.015625)"/>
       </defs>
       <use xlink:href="#DejaVuSans-30"/>
       <use xlink:href="#DejaVuSans-2e" x="63.623047"/>
       <use xlink:href="#DejaVuSans-38" x="95.410156"/>
      </g>
     </g>
    </g>
    <g id="xtick_6">
     <g id="line2d_6">
      <g>
       <use xlink:href="#m1ca774d9f9" x="369.725568" y="224.64" style="stroke: #000000; stroke-width: 0.8"/>
      </g>
     </g>
     <g id="text_6">
      <!-- 1.0 -->
      <g transform="translate(361.774006 239.238437)scale(0.1 -0.1)">
       <defs>
        <path id="DejaVuSans-31" d="M 794 531 
L 1825 531 
L 1825 4091 
L 703 3866 
L 703 4441 
L 1819 4666 
L 2450 4666 
L 2450 531 
L 3481 531 
L 3481 0 
L 794 0 
L 794 531 
z
" transform="scale(0.015625)"/>
       </defs>
       <use xlink:href="#DejaVuSans-31"/>
       <use xlink:href="#DejaVuSans-2e" x="63.623047"/>
       <use xlink:href="#DejaVuSans-30" x="95.410156"/>
      </g>
     </g>
    </g>
    <g id="text_7">
     <!-- Propagation direction -->
     <g transform="translate(164.061719 252.916562)scale(0.1 -0.1)">
      <defs>
       <path id="DejaVuSans-50" d="M 1259 4147 
L 1259 2394 
L 2053 2394 
Q 2494 2394 2734 2622 
Q 2975 2850 2975 3272 
Q 2975 3691 2734 3919 
Q 2494 4147 2053 4147 
L 1259 4147 
z
M 628 4666 
L 2053 4666 
Q 2838 4666 3239 4311 
Q 3641 3956 3641 3272 
Q 3641 2581 3239 2228 
Q 2838 1875 2053 1875 
L 1259 1875 
L 1259 0 
L 628 0 
L 628 4666 
z
" transform="scale(0.015625)"/>
       <path id="DejaVuSans-72" d="M 2631 2963 
Q 2534 3019 2420 3045 
Q 2306 3072 2169 3072 
Q 1681 3072 1420 2755 
Q 1159 2438 1159 1844 
L 1159 0 
L 581 0 
L 581 3500 
L 1159 3500 
L 1159 2956 
Q 1341 3275 1631 3429 
Q 1922 3584 2338 3584 
Q 2397 3584 2469 3576 
Q 2541 3569 2628 3553 
L 2631 2963 
z
" transform="scale(0.015625)"/>
       <path id="DejaVuSans-6f" d="M 1959 3097 
Q 1497 3097 1228 2736 
Q 959 2375 959 1747 
Q 959 1119 1226 758 
Q 1494 397 1959 397 
Q 2419 397 2687 759 
Q 2956 1122 2956 1747 
Q 2956 2369 2687 2733 
Q 2419 3097 1959 3097 
z
M 1959 3584 
Q 2709 3584 3137 3096 
Q 3566 2609 3566 1747 
Q 3566 888 3137 398 
Q 2709 -91 1959 -91 
Q 1206 -91 779 398 
Q 353 888 353 1747 
Q 353 2609 779 3096 
Q 1206 3584 1959 3584 
z
" transform="scale(0.015625)"/>
       <path id="DejaVuSans-70" d="M 1159 525 
L 1159 -1331 
L 581 -1331 
L 581 3500 
L 1159 3500 
L 1159 2969 
Q 1341 3281 1617 3432 
Q 1894 3584 2278 3584 
Q 2916 3584 3314 3078 
Q 3713 2572 3713 1747 
Q 3713 922 3314 415 
Q 2916 -91 2278 -91 
Q 1894 -91 1617 61 
Q 1341 213 1159 525 
z
M 3116 1747 
Q 3116 2381 2855 2742 
Q 2594 3103 2138 3103 
Q 1681 3103 1420 2742 
Q 1159 2381 1159 1747 
Q 1159 1113 1420 752 
Q 1681 391 2138 391 
Q 2594 391 2855 752 
Q 3116 1113 3116 1747 
z
" transform="scale(0.015625)"/>
       <path id="DejaVuSans-61" d="M 2194 1759 
Q 1497 1759 1228 1600 
Q 959 1441 959 1056 
Q 959 750 1161 570 
Q 1363 391 1709 391 
Q 2188 391 2477 730 
Q 2766 1069 2766 1631 
L 2766 1759 
L 2194 1759 
z
M 3341 1997 
L 3341 0 
L 2766 0 
L 2766 531 
Q 2569 213 2275 61 
Q 1981 -91 1556 -91 
Q 1019 -91 701 211 
Q 384 513 384 1019 
Q 384 1609 779 1909 
Q 1175 2209 1959 2209 
L 2766 2209 
L 2766 2266 
Q 2766 2663 2505 2880 
Q 2244 3097 1772 3097 
Q 1472 3097 1187 3025 
Q 903 2953 641 2809 
L 641 3341 
Q 956 3463 1253 3523 
Q 1550 3584 1831 3584 
Q 2591 3584 2966 3190 
Q 3341 2797 3341 1997 
z
" transform="scale(0.015625)"/>
       <path id="DejaVuSans-67" d="M 2906 1791 
Q 2906 2416 2648 2759 
Q 2391 3103 1925 3103 
Q 1463 3103 1205 2759 
Q 947 2416 947 1791 
Q 947 1169 1205 825 
Q 1463 481 1925 481 
Q 2391 481 2648 825 
Q 2906 1169 2906 1791 
z
M 3481 434 
Q 3481 -459 3084 -895 
Q 2688 -1331 1869 -1331 
Q 1566 -1331 1297 -1286 
Q 1028 -1241 775 -1147 
L 775 -588 
Q 1028 -725 1275 -790 
Q 1522 -856 1778 -856 
Q 2344 -856 2625 -561 
Q 2906 -266 2906 331 
L 2906 616 
Q 2728 306 2450 153 
Q 2172 0 1784 0 
Q 1141 0 747 490 
Q 353 981 353 1791 
Q 353 2603 747 3093 
Q 1141 3584 1784 3584 
Q 2172 3584 2450 3431 
Q 2728 3278 2906 2969 
L 2906 3500 
L 3481 3500 
L 3481 434 
z
" transform="scale(0.015625)"/>
       <path id="DejaVuSans-74" d="M 1172 4494 
L 1172 3500 
L 2356 3500 
L 2356 3053 
L 1172 3053 
L 1172 1153 
Q 1172 725 1289 603 
Q 1406 481 1766 481 
L 2356 481 
L 2356 0 
L 1766 0 
Q 1100 0 847 248 
Q 594 497 594 1153 
L 594 3053 
L 172 3053 
L 172 3500 
L 594 3500 
L 594 4494 
L 1172 4494 
z
" transform="scale(0.015625)"/>
       <path id="DejaVuSans-69" d="M 603 3500 
L 1178 3500 
L 1178 0 
L 603 0 
L 603 3500 
z
M 603 4863 
L 1178 4863 
L 1178 4134 
L 603 4134 
L 603 4863 
z
" transform="scale(0.015625)"/>
       <path id="DejaVuSans-6e" d="M 3513 2113 
L 3513 0 
L 2938 0 
L 2938 2094 
Q 2938 2591 2744 2837 
Q 2550 3084 2163 3084 
Q 1697 3084 1428 2787 
Q 1159 2491 1159 1978 
L 1159 0 
L 581 0 
L 581 3500 
L 1159 3500 
L 1159 2956 
Q 1366 3272 1645 3428 
Q 1925 3584 2291 3584 
Q 2894 3584 3203 3211 
Q 3513 2838 3513 2113 
z
" transform="scale(0.015625)"/>
       <path id="DejaVuSans-20" transform="scale(0.015625)"/>
       <path id="DejaVuSans-64" d="M 2906 2969 
L 2906 4863 
L 3481 4863 
L 3481 0 
L 2906 0 
L 2906 525 
Q 2725 213 2448 61 
Q 2172 -91 1784 -91 
Q 1150 -91 751 415 
Q 353 922 353 1747 
Q 353 2572 751 3078 
Q 1150 3584 1784 3584 
Q 2172 3584 2448 3432 
Q 2725 3281 2906 2969 
z
M 947 1747 
Q 947 1113 1208 752 
Q 1469 391 1925 391 
Q 2381 391 2643 752 
Q 2906 1113 2906 1747 
Q 2906 2381 2643 2742 
Q 2381 3103 1925 3103 
Q 1469 3103 1208 2742 
Q 947 2381 947 1747 
z
" transform="scale(0.015625)"/>
       <path id="DejaVuSans-65" d="M 3597 1894 
L 3597 1613 
L 953 1613 
Q 991 1019 1311 708 
Q 1631 397 2203 397 
Q 2534 397 2845 478 
Q 3156 559 3463 722 
L 3463 178 
Q 3153 47 2828 -22 
Q 2503 -91 2169 -91 
Q 1331 -91 842 396 
Q 353 884 353 1716 
Q 353 2575 817 3079 
Q 1281 3584 2069 3584 
Q 2775 3584 3186 3129 
Q 3597 2675 3597 1894 
z
M 3022 2063 
Q 3016 2534 2758 2815 
Q 2500 3097 2075 3097 
Q 1594 3097 1305 2825 
Q 1016 2553 972 2059 
L 3022 2063 
z
" transform="scale(0.015625)"/>
       <path id="DejaVuSans-63" d="M 3122 3366 
L 3122 2828 
Q 2878 2963 2633 3030 
Q 2388 3097 2138 3097 
Q 1578 3097 1268 2742 
Q 959 2388 959 1747 
Q 959 1106 1268 751 
Q 1578 397 2138 397 
Q 2388 397 2633 464 
Q 2878 531 3122 666 
L 3122 134 
Q 2881 22 2623 -34 
Q 2366 -91 2075 -91 
Q 1284 -91 818 406 
Q 353 903 353 1747 
Q 353 2603 823 3093 
Q 1294 3584 2113 3584 
Q 2378 3584 2631 3529 
Q 2884 3475 3122 3366 
z
" transform="scale(0.015625)"/>
      </defs>
      <use xlink:href="#DejaVuSans-50"/>
      <use xlink:href="#DejaVuSans-72" x="58.552734"/>
      <use xlink:href="#DejaVuSans-6f" x="97.416016"/>
      <use xlink:href="#DejaVuSans-70" x="158.597656"/>
      <use xlink:href="#DejaVuSans-61" x="222.074219"/>
      <use xlink:href="#DejaVuSans-67" x="283.353516"/>
      <use xlink:href="#DejaVuSans-61" x="346.830078"/>
      <use xlink:href="#DejaVuSans-74" x="408.109375"/>
      <use xlink:href="#DejaVuSans-69" x="447.318359"/>
      <use xlink:href="#DejaVuSans-6f" x="475.101562"/>
      <use xlink:href="#DejaVuSans-6e" x="536.283203"/>
      <use xlink:href="#DejaVuSans-20" x="599.662109"/>
      <use xlink:href="#DejaVuSans-64" x="631.449219"/>
      <use xlink:href="#DejaVuSans-69" x="694.925781"/>
      <use xlink:href="#DejaVuSans-72" x="722.708984"/>
      <use xlink:href="#DejaVuSans-65" x="761.572266"/>
      <use xlink:href="#DejaVuSans-63" x="823.095703"/>
      <use xlink:href="#DejaVuSans-74" x="878.076172"/>
      <use xlink:href="#DejaVuSans-69" x="917.285156"/>
      <use xlink:href="#DejaVuSans-6f" x="945.068359"/>
      <use xlink:href="#DejaVuSans-6e" x="1006.25"/>
     </g>
    </g>
   </g>
   <g id="matplotlib.axis_2">
    <g id="ytick_1">
     <g id="line2d_7">
      <defs>
       <path id="m120e76b9f4" d="M 0 0 
L -3.5 0 
" style="stroke: #000000; stroke-width: 0.8"/>
      </defs>
      <g>
       <use xlink:href="#m120e76b9f4" x="50.14375" y="224.64" style="stroke: #000000; stroke-width: 0.8"/>
      </g>
     </g>
     <g id="text_8">
      <!-- 0.00 -->
      <g transform="translate(20.878125 228.439219)scale(0.1 -0.1)">
       <use xlink:href="#DejaVuSans-30"/>
       <use xlink:href="#DejaVuSans-2e" x="63.623047"/>
       <use xlink:href="#DejaVuSans-30" x="95.410156"/>
       <use xlink:href="#DejaVuSans-30" x="159.033203"/>
      </g>
     </g>
    </g>
    <g id="ytick_2">
     <g id="line2d_8">
      <g>
       <use xlink:href="#m120e76b9f4" x="50.14375" y="200.178095" style="stroke: #000000; stroke-width: 0.8"/>
      </g>
     </g>
     <g id="text_9">
      <!-- 0.25 -->
      <g transform="translate(20.878125 203.977314)scale(0.1 -0.1)">
       <defs>
        <path id="DejaVuSans-35" d="M 691 4666 
L 3169 4666 
L 3169 4134 
L 1269 4134 
L 1269 2991 
Q 1406 3038 1543 3061 
Q 1681 3084 1819 3084 
Q 2600 3084 3056 2656 
Q 3513 2228 3513 1497 
Q 3513 744 3044 326 
Q 2575 -91 1722 -91 
Q 1428 -91 1123 -41 
Q 819 9 494 109 
L 494 744 
Q 775 591 1075 516 
Q 1375 441 1709 441 
Q 2250 441 2565 725 
Q 2881 1009 2881 1497 
Q 2881 1984 2565 2268 
Q 2250 2553 1709 2553 
Q 1456 2553 1204 2497 
Q 953 2441 691 2322 
L 691 4666 
z
" transform="scale(0.015625)"/>
       </defs>
       <use xlink:href="#DejaVuSans-30"/>
       <use xlink:href="#DejaVuSans-2e" x="63.623047"/>
       <use xlink:href="#DejaVuSans-32" x="95.410156"/>
       <use xlink:href="#DejaVuSans-35" x="159.033203"/>
      </g>
     </g>
    </g>
    <g id="ytick_3">
     <g id="line2d_9">
      <g>
       <use xlink:href="#m120e76b9f4" x="50.14375" y="175.71619" style="stroke: #000000; stroke-width: 0.8"/>
      </g>
     </g>
     <g id="text_10">
      <!-- 0.50 -->
      <g transform="translate(20.878125 179.515409)scale(0.1 -0.1)">
       <use xlink:href="#DejaVuSans-30"/>
       <use xlink:href="#DejaVuSans-2e" x="63.623047"/>
       <use xlink:href="#DejaVuSans-35" x="95.410156"/>
       <use xlink:href="#DejaVuSans-30" x="159.033203"/>
      </g>
     </g>
    </g>
    <g id="ytick_4">
     <g id="line2d_10">
      <g>
       <use xlink:href="#m120e76b9f4" x="50.14375" y="151.254285" style="stroke: #000000; stroke-width: 0.8"/>
      </g>
     </g>
     <g id="text_11">
      <!-- 0.75 -->
      <g transform="translate(20.878125 155.053504)scale(0.1 -0.1)">
       <defs>
        <path id="DejaVuSans-37" d="M 525 4666 
L 3525 4666 
L 3525 4397 
L 1831 0 
L 1172 0 
L 2766 4134 
L 525 4134 
L 525 4666 
z
" transform="scale(0.015625)"/>
       </defs>
       <use xlink:href="#DejaVuSans-30"/>
       <use xlink:href="#DejaVuSans-2e" x="63.623047"/>
       <use xlink:href="#DejaVuSans-37" x="95.410156"/>
       <use xlink:href="#DejaVuSans-35" x="159.033203"/>
      </g>
     </g>
    </g>
    <g id="ytick_5">
     <g id="line2d_11">
      <g>
       <use xlink:href="#m120e76b9f4" x="50.14375" y="126.79238" style="stroke: #000000; stroke-width: 0.8"/>
      </g>
     </g>
     <g id="text_12">
      <!-- 1.00 -->
      <g transform="translate(20.878125 130.591599)scale(0.1 -0.1)">
       <use xlink:href="#DejaVuSans-31"/>
       <use xlink:href="#DejaVuSans-2e" x="63.623047"/>
       <use xlink:href="#DejaVuSans-30" x="95.410156"/>
       <use xlink:href="#DejaVuSans-30" x="159.033203"/>
      </g>
     </g>
    </g>
    <g id="ytick_6">
     <g id="line2d_12">
      <g>
       <use xlink:href="#m120e76b9f4" x="50.14375" y="102.330475" style="stroke: #000000; stroke-width: 0.8"/>
      </g>
     </g>
     <g id="text_13">
      <!-- 1.25 -->
      <g transform="translate(20.878125 106.129694)scale(0.1 -0.1)">
       <use xlink:href="#DejaVuSans-31"/>
       <use xlink:href="#DejaVuSans-2e" x="63.623047"/>
       <use xlink:href="#DejaVuSans-32" x="95.410156"/>
       <use xlink:href="#DejaVuSans-35" x="159.033203"/>
      </g>
     </g>
    </g>
    <g id="ytick_7">
     <g id="line2d_13">
      <g>
       <use xlink:href="#m120e76b9f4" x="50.14375" y="77.86857" style="stroke: #000000; stroke-width: 0.8"/>
      </g>
     </g>
     <g id="text_14">
      <!-- 1.50 -->
      <g transform="translate(20.878125 81.667789)scale(0.1 -0.1)">
       <use xlink:href="#DejaVuSans-31"/>
       <use xlink:href="#DejaVuSans-2e" x="63.623047"/>
       <use xlink:href="#DejaVuSans-35" x="95.410156"/>
       <use xlink:href="#DejaVuSans-30" x="159.033203"/>
      </g>
     </g>
    </g>
    <g id="ytick_8">
     <g id="line2d_14">
      <g>
       <use xlink:href="#m120e76b9f4" x="50.14375" y="53.406665" style="stroke: #000000; stroke-width: 0.8"/>
      </g>
     </g>
     <g id="text_15">
      <!-- 1.75 -->
      <g transform="translate(20.878125 57.205884)scale(0.1 -0.1)">
       <use xlink:href="#DejaVuSans-31"/>
       <use xlink:href="#DejaVuSans-2e" x="63.623047"/>
       <use xlink:href="#DejaVuSans-37" x="95.410156"/>
       <use xlink:href="#DejaVuSans-35" x="159.033203"/>
      </g>
     </g>
    </g>
    <g id="ytick_9">
     <g id="line2d_15">
      <g>
       <use xlink:href="#m120e76b9f4" x="50.14375" y="28.94476" style="stroke: #000000; stroke-width: 0.8"/>
      </g>
     </g>
     <g id="text_16">
      <!-- 2.00 -->
      <g transform="translate(20.878125 32.743979)scale(0.1 -0.1)">
       <use xlink:href="#DejaVuSans-32"/>
       <use xlink:href="#DejaVuSans-2e" x="63.623047"/>
       <use xlink:href="#DejaVuSans-30" x="95.410156"/>
       <use xlink:href="#DejaVuSans-30" x="159.033203"/>
      </g>
     </g>
    </g>
    <g id="text_17">
     <!-- Probability density -->
     <g transform="translate(14.798438 162.270781)rotate(-90)scale(0.1 -0.1)">
      <defs>
       <path id="DejaVuSans-62" d="M 3116 1747 
Q 3116 2381 2855 2742 
Q 2594 3103 2138 3103 
Q 1681 3103 1420 2742 
Q 1159 2381 1159 1747 
Q 1159 1113 1420 752 
Q 1681 391 2138 391 
Q 2594 391 2855 752 
Q 3116 1113 3116 1747 
z
M 1159 2969 
Q 1341 3281 1617 3432 
Q 1894 3584 2278 3584 
Q 2916 3584 3314 3078 
Q 3713 2572 3713 1747 
Q 3713 922 3314 415 
Q 2916 -91 2278 -91 
Q 1894 -91 1617 61 
Q 1341 213 1159 525 
L 1159 0 
L 581 0 
L 581 4863 
L 1159 4863 
L 1159 2969 
z
" transform="scale(0.015625)"/>
       <path id="DejaVuSans-6c" d="M 603 4863 
L 1178 4863 
L 1178 0 
L 603 0 
L 603 4863 
z
" transform="scale(0.015625)"/>
       <path id="DejaVuSans-79" d="M 2059 -325 
Q 1816 -950 1584 -1140 
Q 1353 -1331 966 -1331 
L 506 -1331 
L 506 -850 
L 844 -850 
Q 1081 -850 1212 -737 
Q 1344 -625 1503 -206 
L 1606 56 
L 191 3500 
L 800 3500 
L 1894 763 
L 2988 3500 
L 3597 3500 
L 2059 -325 
z
" transform="scale(0.015625)"/>
       <path id="DejaVuSans-73" d="M 2834 3397 
L 2834 2853 
Q 2591 2978 2328 3040 
Q 2066 3103 1784 3103 
Q 1356 3103 1142 2972 
Q 928 2841 928 2578 
Q 928 2378 1081 2264 
Q 1234 2150 1697 2047 
L 1894 2003 
Q 2506 1872 2764 1633 
Q 3022 1394 3022 966 
Q 3022 478 2636 193 
Q 2250 -91 1575 -91 
Q 1294 -91 989 -36 
Q 684 19 347 128 
L 347 722 
Q 666 556 975 473 
Q 1284 391 1588 391 
Q 1994 391 2212 530 
Q 2431 669 2431 922 
Q 2431 1156 2273 1281 
Q 2116 1406 1581 1522 
L 1381 1569 
Q 847 1681 609 1914 
Q 372 2147 372 2553 
Q 372 3047 722 3315 
Q 1072 3584 1716 3584 
Q 2034 3584 2315 3537 
Q 2597 3491 2834 3397 
z
" transform="scale(0.015625)"/>
      </defs>
      <use xlink:href="#DejaVuSans-50"/>
      <use xlink:href="#DejaVuSans-72" x="58.552734"/>
      <use xlink:href="#DejaVuSans-6f" x="97.416016"/>
      <use xlink:href="#DejaVuSans-62" x="158.597656"/>
      <use xlink:href="#DejaVuSans-61" x="222.074219"/>
      <use xlink:href="#DejaVuSans-62" x="283.353516"/>
      <use xlink:href="#DejaVuSans-69" x="346.830078"/>
      <use xlink:href="#DejaVuSans-6c" x="374.613281"/>
      <use xlink:href="#DejaVuSans-69" x="402.396484"/>
      <use xlink:href="#DejaVuSans-74" x="430.179688"/>
      <use xlink:href="#DejaVuSans-79" x="469.388672"/>
      <use xlink:href="#DejaVuSans-20" x="528.568359"/>
      <use xlink:href="#DejaVuSans-64" x="560.355469"/>
      <use xlink:href="#DejaVuSans-65" x="623.832031"/>
      <use xlink:href="#DejaVuSans-6e" x="685.355469"/>
      <use xlink:href="#DejaVuSans-73" x="748.734375"/>
      <use xlink:href="#DejaVuSans-69" x="800.833984"/>
      <use xlink:href="#DejaVuSans-74" x="828.617188"/>
      <use xlink:href="#DejaVuSans-79" x="867.826172"/>
     </g>
    </g>
   </g>
   <g id="line2d_16">
    <path d="M 65.361932 224.64 
L 369.725568 28.94476 
L 369.725568 28.94476 
" clip-path="url(#p299d53952e)" style="fill: none; stroke: #ff7f0e; stroke-width: 1.5; stroke-linecap: square"/>
   </g>
   <g id="patch_203">
    <path d="M 50.14375 224.64 
L 50.14375 7.2 
" style="fill: none; stroke: #000000; stroke-width: 0.8; stroke-linejoin: miter; stroke-linecap: square"/>
   </g>
   <g id="patch_204">
    <path d="M 384.94375 224.64 
L 384.94375 7.2 
" style="fill: none; stroke: #000000; stroke-width: 0.8; stroke-linejoin: miter; stroke-linecap: square"/>
   </g>
   <g id="patch_205">
    <path d="M 50.14375 224.64 
L 384.94375 224.64 
" style="fill: none; stroke: #000000; stroke-width: 0.8; stroke-linejoin: miter; stroke-linecap: square"/>
   </g>
   <g id="patch_206">
    <path d="M 50.14375 7.2 
L 384.94375 7.2 
" style="fill: none; stroke: #000000; stroke-width: 0.8; stroke-linejoin: miter; stroke-linecap: square"/>
   </g>
  </g>
 </g>
 <defs>
  <clipPath id="p299d53952e">
   <rect x="50.14375" y="7.2" width="334.8" height="217.44"/>
  </clipPath>
 </defs>
</svg>
