<?xml version="1.0" encoding="utf-8" standalone="no"?>
<!DOCTYPE svg PUBLIC "-//W3C//DTD SVG 1.1//EN"
  "http://www.w3.org/Graphics/SVG/1.1/DTD/svg11.dtd">
<svg xmlns:xlink="http://www.w3.org/1999/xlink" width="414.46375pt" height="310.86825pt" viewBox="0 0 414.46375 310.86825" xmlns="http://www.w3.org/2000/svg" version="1.1">
 <metadata>
  <rdf:RDF xmlns:dc="http://purl.org/dc/elements/1.1/" xmlns:cc="http://creativecommons.org/ns#" xmlns:rdf="http://www.w3.org/1999/02/22-rdf-syntax-ns#">
   <cc:Work>
    <dc:type rdf:resource="http://purl.org/dc/dcmitype/StillImage"/>
    <dc:date>2022-11-17T18:10:34.793411</dc:date>
    <dc:format>image/svg+xml</dc:format>
    <dc:creator>
     <cc:Agent>
      <dc:title>Matplotlib v3.5.3, https://matplotlib.org/</dc:title>
     </cc:Agent>
    </dc:creator>
   </cc:Work>
  </rdf:RDF>
 </metadata>
 <defs>
  <style type="text/css">*{stroke-linejoin: round; stroke-linecap: butt}</style>
 </defs>
 <g id="figure_1">
  <g id="patch_1">
   <path d="M 0 310.86825 
L 414.46375 310.86825 
L 414.46375 0 
L 0 0 
z
" style="fill: #ffffff"/>
  </g>
  <g id="axes_1">
   <g id="patch_2">
    <path d="M 50.14375 273.312 
L 407.26375 273.312 
L 407.26375 7.2 
L 50.14375 7.2 
z
" style="fill: #ffffff"/>
   </g>
   <g id="patch_3">
    <path d="M 68.160292 273.312 
L 69.774622 273.312 
L 69.774622 272.119341 
L 68.160292 272.119341 
z
" clip-path="url(#pc10a192ae7)" style="fill: #1f77b4"/>
   </g>
   <g id="patch_4">
    <path d="M 69.774622 273.312 
L 71.388952 273.312 
L 71.388952 270.926682 
L 69.774622 270.926682 
z
" clip-path="url(#pc10a192ae7)" style="fill: #1f77b4"/>
   </g>
   <g id="patch_5">
    <path d="M 71.388952 273.312 
L 73.003282 273.312 
L 73.003282 270.926682 
L 71.388952 270.926682 
z
" clip-path="url(#pc10a192ae7)" style="fill: #1f77b4"/>
   </g>
   <g id="patch_6">
    <path d="M 73.003282 273.312 
L 74.617612 273.312 
L 74.617612 267.348706 
L 73.003282 267.348706 
z
" clip-path="url(#pc10a192ae7)" style="fill: #1f77b4"/>
   </g>
   <g id="patch_7">
    <path d="M 74.617612 273.312 
L 76.231942 273.312 
L 76.231942 267.348706 
L 74.617612 267.348706 
z
" clip-path="url(#pc10a192ae7)" style="fill: #1f77b4"/>
   </g>
   <g id="patch_8">
    <path d="M 76.231942 273.312 
L 77.846272 273.312 
L 77.846272 266.752376 
L 76.231942 266.752376 
z
" clip-path="url(#pc10a192ae7)" style="fill: #1f77b4"/>
   </g>
   <g id="patch_9">
    <path d="M 77.846272 273.312 
L 79.460602 273.312 
L 79.460602 260.789082 
L 77.846272 260.789082 
z
" clip-path="url(#pc10a192ae7)" style="fill: #1f77b4"/>
   </g>
   <g id="patch_10">
    <path d="M 79.460602 273.312 
L 81.074932 273.312 
L 81.074932 263.770729 
L 79.460602 263.770729 
z
" clip-path="url(#pc10a192ae7)" style="fill: #1f77b4"/>
   </g>
   <g id="patch_11">
    <path d="M 81.074932 273.312 
L 82.689263 273.312 
L 82.689263 264.963388 
L 81.074932 264.963388 
z
" clip-path="url(#pc10a192ae7)" style="fill: #1f77b4"/>
   </g>
   <g id="patch_12">
    <path d="M 82.689263 273.312 
L 84.303593 273.312 
L 84.303593 264.367059 
L 82.689263 264.367059 
z
" clip-path="url(#pc10a192ae7)" style="fill: #1f77b4"/>
   </g>
   <g id="patch_13">
    <path d="M 84.303593 273.312 
L 85.917923 273.312 
L 85.917923 257.211106 
L 84.303593 257.211106 
z
" clip-path="url(#pc10a192ae7)" style="fill: #1f77b4"/>
   </g>
   <g id="patch_14">
    <path d="M 85.917923 273.312 
L 87.532253 273.312 
L 87.532253 259.596424 
L 85.917923 259.596424 
z
" clip-path="url(#pc10a192ae7)" style="fill: #1f77b4"/>
   </g>
   <g id="patch_15">
    <path d="M 87.532253 273.312 
L 89.146583 273.312 
L 89.146583 257.211106 
L 87.532253 257.211106 
z
" clip-path="url(#pc10a192ae7)" style="fill: #1f77b4"/>
   </g>
   <g id="patch_16">
    <path d="M 89.146583 273.312 
L 90.760913 273.312 
L 90.760913 256.018447 
L 89.146583 256.018447 
z
" clip-path="url(#pc10a192ae7)" style="fill: #1f77b4"/>
   </g>
   <g id="patch_17">
    <path d="M 90.760913 273.312 
L 92.375243 273.312 
L 92.375243 257.211106 
L 90.760913 257.211106 
z
" clip-path="url(#pc10a192ae7)" style="fill: #1f77b4"/>
   </g>
   <g id="patch_18">
    <path d="M 92.375243 273.312 
L 93.989573 273.312 
L 93.989573 251.247812 
L 92.375243 251.247812 
z
" clip-path="url(#pc10a192ae7)" style="fill: #1f77b4"/>
   </g>
   <g id="patch_19">
    <path d="M 93.989573 273.312 
L 95.603903 273.312 
L 95.603903 248.266165 
L 93.989573 248.266165 
z
" clip-path="url(#pc10a192ae7)" style="fill: #1f77b4"/>
   </g>
   <g id="patch_20">
    <path d="M 95.603903 273.312 
L 97.218234 273.312 
L 97.218234 256.614776 
L 95.603903 256.614776 
z
" clip-path="url(#pc10a192ae7)" style="fill: #1f77b4"/>
   </g>
   <g id="patch_21">
    <path d="M 97.218234 273.312 
L 98.832564 273.312 
L 98.832564 253.633129 
L 97.218234 253.633129 
z
" clip-path="url(#pc10a192ae7)" style="fill: #1f77b4"/>
   </g>
   <g id="patch_22">
    <path d="M 98.832564 273.312 
L 100.446894 273.312 
L 100.446894 252.440471 
L 98.832564 252.440471 
z
" clip-path="url(#pc10a192ae7)" style="fill: #1f77b4"/>
   </g>
   <g id="patch_23">
    <path d="M 100.446894 273.312 
L 102.061224 273.312 
L 102.061224 253.633129 
L 100.446894 253.633129 
z
" clip-path="url(#pc10a192ae7)" style="fill: #1f77b4"/>
   </g>
   <g id="patch_24">
    <path d="M 102.061224 273.312 
L 103.675554 273.312 
L 103.675554 242.8992 
L 102.061224 242.8992 
z
" clip-path="url(#pc10a192ae7)" style="fill: #1f77b4"/>
   </g>
   <g id="patch_25">
    <path d="M 103.675554 273.312 
L 105.289884 273.312 
L 105.289884 241.706541 
L 103.675554 241.706541 
z
" clip-path="url(#pc10a192ae7)" style="fill: #1f77b4"/>
   </g>
   <g id="patch_26">
    <path d="M 105.289884 273.312 
L 106.904214 273.312 
L 106.904214 247.669835 
L 105.289884 247.669835 
z
" clip-path="url(#pc10a192ae7)" style="fill: #1f77b4"/>
   </g>
   <g id="patch_27">
    <path d="M 106.904214 273.312 
L 108.518544 273.312 
L 108.518544 241.706541 
L 106.904214 241.706541 
z
" clip-path="url(#pc10a192ae7)" style="fill: #1f77b4"/>
   </g>
   <g id="patch_28">
    <path d="M 108.518544 273.312 
L 110.132875 273.312 
L 110.132875 245.880847 
L 108.518544 245.880847 
z
" clip-path="url(#pc10a192ae7)" style="fill: #1f77b4"/>
   </g>
   <g id="patch_29">
    <path d="M 110.132875 273.312 
L 111.747205 273.312 
L 111.747205 234.550588 
L 110.132875 234.550588 
z
" clip-path="url(#pc10a192ae7)" style="fill: #1f77b4"/>
   </g>
   <g id="patch_30">
    <path d="M 111.747205 273.312 
L 113.361535 273.312 
L 113.361535 232.165271 
L 111.747205 232.165271 
z
" clip-path="url(#pc10a192ae7)" style="fill: #1f77b4"/>
   </g>
   <g id="patch_31">
    <path d="M 113.361535 273.312 
L 114.975865 273.312 
L 114.975865 230.376282 
L 113.361535 230.376282 
z
" clip-path="url(#pc10a192ae7)" style="fill: #1f77b4"/>
   </g>
   <g id="patch_32">
    <path d="M 114.975865 273.312 
L 116.590195 273.312 
L 116.590195 235.146918 
L 114.975865 235.146918 
z
" clip-path="url(#pc10a192ae7)" style="fill: #1f77b4"/>
   </g>
   <g id="patch_33">
    <path d="M 116.590195 273.312 
L 118.204525 273.312 
L 118.204525 240.513882 
L 116.590195 240.513882 
z
" clip-path="url(#pc10a192ae7)" style="fill: #1f77b4"/>
   </g>
   <g id="patch_34">
    <path d="M 118.204525 273.312 
L 119.818855 273.312 
L 119.818855 227.990965 
L 118.204525 227.990965 
z
" clip-path="url(#pc10a192ae7)" style="fill: #1f77b4"/>
   </g>
   <g id="patch_35">
    <path d="M 119.818855 273.312 
L 121.433185 273.312 
L 121.433185 230.972612 
L 119.818855 230.972612 
z
" clip-path="url(#pc10a192ae7)" style="fill: #1f77b4"/>
   </g>
   <g id="patch_36">
    <path d="M 121.433185 273.312 
L 123.047515 273.312 
L 123.047515 236.935906 
L 121.433185 236.935906 
z
" clip-path="url(#pc10a192ae7)" style="fill: #1f77b4"/>
   </g>
   <g id="patch_37">
    <path d="M 123.047515 273.312 
L 124.661846 273.312 
L 124.661846 227.990965 
L 123.047515 227.990965 
z
" clip-path="url(#pc10a192ae7)" style="fill: #1f77b4"/>
   </g>
   <g id="patch_38">
    <path d="M 124.661846 273.312 
L 126.276176 273.312 
L 126.276176 234.550588 
L 124.661846 234.550588 
z
" clip-path="url(#pc10a192ae7)" style="fill: #1f77b4"/>
   </g>
   <g id="patch_39">
    <path d="M 126.276176 273.312 
L 127.890506 273.312 
L 127.890506 223.816659 
L 126.276176 223.816659 
z
" clip-path="url(#pc10a192ae7)" style="fill: #1f77b4"/>
   </g>
   <g id="patch_40">
    <path d="M 127.890506 273.312 
L 129.504836 273.312 
L 129.504836 225.009318 
L 127.890506 225.009318 
z
" clip-path="url(#pc10a192ae7)" style="fill: #1f77b4"/>
   </g>
   <g id="patch_41">
    <path d="M 129.504836 273.312 
L 131.119166 273.312 
L 131.119166 229.183624 
L 129.504836 229.183624 
z
" clip-path="url(#pc10a192ae7)" style="fill: #1f77b4"/>
   </g>
   <g id="patch_42">
    <path d="M 131.119166 273.312 
L 132.733496 273.312 
L 132.733496 229.183624 
L 131.119166 229.183624 
z
" clip-path="url(#pc10a192ae7)" style="fill: #1f77b4"/>
   </g>
   <g id="patch_43">
    <path d="M 132.733496 273.312 
L 134.347826 273.312 
L 134.347826 224.412988 
L 132.733496 224.412988 
z
" clip-path="url(#pc10a192ae7)" style="fill: #1f77b4"/>
   </g>
   <g id="patch_44">
    <path d="M 134.347826 273.312 
L 135.962156 273.312 
L 135.962156 223.220329 
L 134.347826 223.220329 
z
" clip-path="url(#pc10a192ae7)" style="fill: #1f77b4"/>
   </g>
   <g id="patch_45">
    <path d="M 135.962156 273.312 
L 137.576486 273.312 
L 137.576486 225.605647 
L 135.962156 225.605647 
z
" clip-path="url(#pc10a192ae7)" style="fill: #1f77b4"/>
   </g>
   <g id="patch_46">
    <path d="M 137.576486 273.312 
L 139.190817 273.312 
L 139.190817 214.871718 
L 137.576486 214.871718 
z
" clip-path="url(#pc10a192ae7)" style="fill: #1f77b4"/>
   </g>
   <g id="patch_47">
    <path d="M 139.190817 273.312 
L 140.805147 273.312 
L 140.805147 227.394635 
L 139.190817 227.394635 
z
" clip-path="url(#pc10a192ae7)" style="fill: #1f77b4"/>
   </g>
   <g id="patch_48">
    <path d="M 140.805147 273.312 
L 142.419477 273.312 
L 142.419477 220.238682 
L 140.805147 220.238682 
z
" clip-path="url(#pc10a192ae7)" style="fill: #1f77b4"/>
   </g>
   <g id="patch_49">
    <path d="M 142.419477 273.312 
L 144.033807 273.312 
L 144.033807 208.908424 
L 142.419477 208.908424 
z
" clip-path="url(#pc10a192ae7)" style="fill: #1f77b4"/>
   </g>
   <g id="patch_50">
    <path d="M 144.033807 273.312 
L 145.648137 273.312 
L 145.648137 206.523106 
L 144.033807 206.523106 
z
" clip-path="url(#pc10a192ae7)" style="fill: #1f77b4"/>
   </g>
   <g id="patch_51">
    <path d="M 145.648137 273.312 
L 147.262467 273.312 
L 147.262467 212.4864 
L 145.648137 212.4864 
z
" clip-path="url(#pc10a192ae7)" style="fill: #1f77b4"/>
   </g>
   <g id="patch_52">
    <path d="M 147.262467 273.312 
L 148.876797 273.312 
L 148.876797 211.293741 
L 147.262467 211.293741 
z
" clip-path="url(#pc10a192ae7)" style="fill: #1f77b4"/>
   </g>
   <g id="patch_53">
    <path d="M 148.876797 273.312 
L 150.491127 273.312 
L 150.491127 208.908424 
L 148.876797 208.908424 
z
" clip-path="url(#pc10a192ae7)" style="fill: #1f77b4"/>
   </g>
   <g id="patch_54">
    <path d="M 150.491127 273.312 
L 152.105457 273.312 
L 152.105457 206.523106 
L 150.491127 206.523106 
z
" clip-path="url(#pc10a192ae7)" style="fill: #1f77b4"/>
   </g>
   <g id="patch_55">
    <path d="M 152.105457 273.312 
L 153.719788 273.312 
L 153.719788 211.890071 
L 152.105457 211.890071 
z
" clip-path="url(#pc10a192ae7)" style="fill: #1f77b4"/>
   </g>
   <g id="patch_56">
    <path d="M 153.719788 273.312 
L 155.334118 273.312 
L 155.334118 207.119435 
L 153.719788 207.119435 
z
" clip-path="url(#pc10a192ae7)" style="fill: #1f77b4"/>
   </g>
   <g id="patch_57">
    <path d="M 155.334118 273.312 
L 156.948448 273.312 
L 156.948448 211.890071 
L 155.334118 211.890071 
z
" clip-path="url(#pc10a192ae7)" style="fill: #1f77b4"/>
   </g>
   <g id="patch_58">
    <path d="M 156.948448 273.312 
L 158.562778 273.312 
L 158.562778 211.293741 
L 156.948448 211.293741 
z
" clip-path="url(#pc10a192ae7)" style="fill: #1f77b4"/>
   </g>
   <g id="patch_59">
    <path d="M 158.562778 273.312 
L 160.177108 273.312 
L 160.177108 208.312094 
L 158.562778 208.312094 
z
" clip-path="url(#pc10a192ae7)" style="fill: #1f77b4"/>
   </g>
   <g id="patch_60">
    <path d="M 160.177108 273.312 
L 161.791438 273.312 
L 161.791438 208.908424 
L 160.177108 208.908424 
z
" clip-path="url(#pc10a192ae7)" style="fill: #1f77b4"/>
   </g>
   <g id="patch_61">
    <path d="M 161.791438 273.312 
L 163.405768 273.312 
L 163.405768 203.541459 
L 161.791438 203.541459 
z
" clip-path="url(#pc10a192ae7)" style="fill: #1f77b4"/>
   </g>
   <g id="patch_62">
    <path d="M 163.405768 273.312 
L 165.020098 273.312 
L 165.020098 202.945129 
L 163.405768 202.945129 
z
" clip-path="url(#pc10a192ae7)" style="fill: #1f77b4"/>
   </g>
   <g id="patch_63">
    <path d="M 165.020098 273.312 
L 166.634428 273.312 
L 166.634428 202.945129 
L 165.020098 202.945129 
z
" clip-path="url(#pc10a192ae7)" style="fill: #1f77b4"/>
   </g>
   <g id="patch_64">
    <path d="M 166.634428 273.312 
L 168.248759 273.312 
L 168.248759 198.770824 
L 166.634428 198.770824 
z
" clip-path="url(#pc10a192ae7)" style="fill: #1f77b4"/>
   </g>
   <g id="patch_65">
    <path d="M 168.248759 273.312 
L 169.863089 273.312 
L 169.863089 210.101082 
L 168.248759 210.101082 
z
" clip-path="url(#pc10a192ae7)" style="fill: #1f77b4"/>
   </g>
   <g id="patch_66">
    <path d="M 169.863089 273.312 
L 171.477419 273.312 
L 171.477419 195.789176 
L 169.863089 195.789176 
z
" clip-path="url(#pc10a192ae7)" style="fill: #1f77b4"/>
   </g>
   <g id="patch_67">
    <path d="M 171.477419 273.312 
L 173.091749 273.312 
L 173.091749 196.981835 
L 171.477419 196.981835 
z
" clip-path="url(#pc10a192ae7)" style="fill: #1f77b4"/>
   </g>
   <g id="patch_68">
    <path d="M 173.091749 273.312 
L 174.706079 273.312 
L 174.706079 207.715765 
L 173.091749 207.715765 
z
" clip-path="url(#pc10a192ae7)" style="fill: #1f77b4"/>
   </g>
   <g id="patch_69">
    <path d="M 174.706079 273.312 
L 176.320409 273.312 
L 176.320409 186.247906 
L 174.706079 186.247906 
z
" clip-path="url(#pc10a192ae7)" style="fill: #1f77b4"/>
   </g>
   <g id="patch_70">
    <path d="M 176.320409 273.312 
L 177.934739 273.312 
L 177.934739 202.945129 
L 176.320409 202.945129 
z
" clip-path="url(#pc10a192ae7)" style="fill: #1f77b4"/>
   </g>
   <g id="patch_71">
    <path d="M 177.934739 273.312 
L 179.549069 273.312 
L 179.549069 182.669929 
L 177.934739 182.669929 
z
" clip-path="url(#pc10a192ae7)" style="fill: #1f77b4"/>
   </g>
   <g id="patch_72">
    <path d="M 179.549069 273.312 
L 181.163399 273.312 
L 181.163399 198.174494 
L 179.549069 198.174494 
z
" clip-path="url(#pc10a192ae7)" style="fill: #1f77b4"/>
   </g>
   <g id="patch_73">
    <path d="M 181.163399 273.312 
L 182.77773 273.312 
L 182.77773 191.614871 
L 181.163399 191.614871 
z
" clip-path="url(#pc10a192ae7)" style="fill: #1f77b4"/>
   </g>
   <g id="patch_74">
    <path d="M 182.77773 273.312 
L 184.39206 273.312 
L 184.39206 182.0736 
L 182.77773 182.0736 
z
" clip-path="url(#pc10a192ae7)" style="fill: #1f77b4"/>
   </g>
   <g id="patch_75">
    <path d="M 184.39206 273.312 
L 186.00639 273.312 
L 186.00639 184.458918 
L 184.39206 184.458918 
z
" clip-path="url(#pc10a192ae7)" style="fill: #1f77b4"/>
   </g>
   <g id="patch_76">
    <path d="M 186.00639 273.312 
L 187.62072 273.312 
L 187.62072 193.403859 
L 186.00639 193.403859 
z
" clip-path="url(#pc10a192ae7)" style="fill: #1f77b4"/>
   </g>
   <g id="patch_77">
    <path d="M 187.62072 273.312 
L 189.23505 273.312 
L 189.23505 179.688282 
L 187.62072 179.688282 
z
" clip-path="url(#pc10a192ae7)" style="fill: #1f77b4"/>
   </g>
   <g id="patch_78">
    <path d="M 189.23505 273.312 
L 190.84938 273.312 
L 190.84938 192.807529 
L 189.23505 192.807529 
z
" clip-path="url(#pc10a192ae7)" style="fill: #1f77b4"/>
   </g>
   <g id="patch_79">
    <path d="M 190.84938 273.312 
L 192.46371 273.312 
L 192.46371 177.899294 
L 190.84938 177.899294 
z
" clip-path="url(#pc10a192ae7)" style="fill: #1f77b4"/>
   </g>
   <g id="patch_80">
    <path d="M 192.46371 273.312 
L 194.07804 273.312 
L 194.07804 168.954353 
L 192.46371 168.954353 
z
" clip-path="url(#pc10a192ae7)" style="fill: #1f77b4"/>
   </g>
   <g id="patch_81">
    <path d="M 194.07804 273.312 
L 195.69237 273.312 
L 195.69237 170.147012 
L 194.07804 170.147012 
z
" clip-path="url(#pc10a192ae7)" style="fill: #1f77b4"/>
   </g>
   <g id="patch_82">
    <path d="M 195.69237 273.312 
L 197.306701 273.312 
L 197.306701 186.247906 
L 195.69237 186.247906 
z
" clip-path="url(#pc10a192ae7)" style="fill: #1f77b4"/>
   </g>
   <g id="patch_83">
    <path d="M 197.306701 273.312 
L 198.921031 273.312 
L 198.921031 180.880941 
L 197.306701 180.880941 
z
" clip-path="url(#pc10a192ae7)" style="fill: #1f77b4"/>
   </g>
   <g id="patch_84">
    <path d="M 198.921031 273.312 
L 200.535361 273.312 
L 200.535361 174.917647 
L 198.921031 174.917647 
z
" clip-path="url(#pc10a192ae7)" style="fill: #1f77b4"/>
   </g>
   <g id="patch_85">
    <path d="M 200.535361 273.312 
L 202.149691 273.312 
L 202.149691 167.761694 
L 200.535361 167.761694 
z
" clip-path="url(#pc10a192ae7)" style="fill: #1f77b4"/>
   </g>
   <g id="patch_86">
    <path d="M 202.149691 273.312 
L 203.764021 273.312 
L 203.764021 176.110306 
L 202.149691 176.110306 
z
" clip-path="url(#pc10a192ae7)" style="fill: #1f77b4"/>
   </g>
   <g id="patch_87">
    <path d="M 203.764021 273.312 
L 205.378351 273.312 
L 205.378351 182.0736 
L 203.764021 182.0736 
z
" clip-path="url(#pc10a192ae7)" style="fill: #1f77b4"/>
   </g>
   <g id="patch_88">
    <path d="M 205.378351 273.312 
L 206.992681 273.312 
L 206.992681 162.991059 
L 205.378351 162.991059 
z
" clip-path="url(#pc10a192ae7)" style="fill: #1f77b4"/>
   </g>
   <g id="patch_89">
    <path d="M 206.992681 273.312 
L 208.607011 273.312 
L 208.607011 153.449788 
L 206.992681 153.449788 
z
" clip-path="url(#pc10a192ae7)" style="fill: #1f77b4"/>
   </g>
   <g id="patch_90">
    <path d="M 208.607011 273.312 
L 210.221341 273.312 
L 210.221341 176.110306 
L 208.607011 176.110306 
z
" clip-path="url(#pc10a192ae7)" style="fill: #1f77b4"/>
   </g>
   <g id="patch_91">
    <path d="M 210.221341 273.312 
L 211.835672 273.312 
L 211.835672 170.147012 
L 210.221341 170.147012 
z
" clip-path="url(#pc10a192ae7)" style="fill: #1f77b4"/>
   </g>
   <g id="patch_92">
    <path d="M 211.835672 273.312 
L 213.450002 273.312 
L 213.450002 177.899294 
L 211.835672 177.899294 
z
" clip-path="url(#pc10a192ae7)" style="fill: #1f77b4"/>
   </g>
   <g id="patch_93">
    <path d="M 213.450002 273.312 
L 215.064332 273.312 
L 215.064332 157.624094 
L 213.450002 157.624094 
z
" clip-path="url(#pc10a192ae7)" style="fill: #1f77b4"/>
   </g>
   <g id="patch_94">
    <path d="M 215.064332 273.312 
L 216.678662 273.312 
L 216.678662 155.238776 
L 215.064332 155.238776 
z
" clip-path="url(#pc10a192ae7)" style="fill: #1f77b4"/>
   </g>
   <g id="patch_95">
    <path d="M 216.678662 273.312 
L 218.292992 273.312 
L 218.292992 163.587388 
L 216.678662 163.587388 
z
" clip-path="url(#pc10a192ae7)" style="fill: #1f77b4"/>
   </g>
   <g id="patch_96">
    <path d="M 218.292992 273.312 
L 219.907322 273.312 
L 219.907322 160.605741 
L 218.292992 160.605741 
z
" clip-path="url(#pc10a192ae7)" style="fill: #1f77b4"/>
   </g>
   <g id="patch_97">
    <path d="M 219.907322 273.312 
L 221.521652 273.312 
L 221.521652 147.486494 
L 219.907322 147.486494 
z
" clip-path="url(#pc10a192ae7)" style="fill: #1f77b4"/>
   </g>
   <g id="patch_98">
    <path d="M 221.521652 273.312 
L 223.135982 273.312 
L 223.135982 163.587388 
L 221.521652 163.587388 
z
" clip-path="url(#pc10a192ae7)" style="fill: #1f77b4"/>
   </g>
   <g id="patch_99">
    <path d="M 223.135982 273.312 
L 224.750312 273.312 
L 224.750312 175.513976 
L 223.135982 175.513976 
z
" clip-path="url(#pc10a192ae7)" style="fill: #1f77b4"/>
   </g>
   <g id="patch_100">
    <path d="M 224.750312 273.312 
L 226.364643 273.312 
L 226.364643 151.6608 
L 224.750312 151.6608 
z
" clip-path="url(#pc10a192ae7)" style="fill: #1f77b4"/>
   </g>
   <g id="patch_101">
    <path d="M 226.364643 273.312 
L 227.978973 273.312 
L 227.978973 142.715859 
L 226.364643 142.715859 
z
" clip-path="url(#pc10a192ae7)" style="fill: #1f77b4"/>
   </g>
   <g id="patch_102">
    <path d="M 227.978973 273.312 
L 229.593303 273.312 
L 229.593303 144.504847 
L 227.978973 144.504847 
z
" clip-path="url(#pc10a192ae7)" style="fill: #1f77b4"/>
   </g>
   <g id="patch_103">
    <path d="M 229.593303 273.312 
L 231.207633 273.312 
L 231.207633 151.064471 
L 229.593303 151.064471 
z
" clip-path="url(#pc10a192ae7)" style="fill: #1f77b4"/>
   </g>
   <g id="patch_104">
    <path d="M 231.207633 273.312 
L 232.821963 273.312 
L 232.821963 162.394729 
L 231.207633 162.394729 
z
" clip-path="url(#pc10a192ae7)" style="fill: #1f77b4"/>
   </g>
   <g id="patch_105">
    <path d="M 232.821963 273.312 
L 234.436293 273.312 
L 234.436293 155.835106 
L 232.821963 155.835106 
z
" clip-path="url(#pc10a192ae7)" style="fill: #1f77b4"/>
   </g>
   <g id="patch_106">
    <path d="M 234.436293 273.312 
L 236.050623 273.312 
L 236.050623 167.761694 
L 234.436293 167.761694 
z
" clip-path="url(#pc10a192ae7)" style="fill: #1f77b4"/>
   </g>
   <g id="patch_107">
    <path d="M 236.050623 273.312 
L 237.664953 273.312 
L 237.664953 134.963576 
L 236.050623 134.963576 
z
" clip-path="url(#pc10a192ae7)" style="fill: #1f77b4"/>
   </g>
   <g id="patch_108">
    <path d="M 237.664953 273.312 
L 239.279283 273.312 
L 239.279283 148.082824 
L 237.664953 148.082824 
z
" clip-path="url(#pc10a192ae7)" style="fill: #1f77b4"/>
   </g>
   <g id="patch_109">
    <path d="M 239.279283 273.312 
L 240.893614 273.312 
L 240.893614 149.871812 
L 239.279283 149.871812 
z
" clip-path="url(#pc10a192ae7)" style="fill: #1f77b4"/>
   </g>
   <g id="patch_110">
    <path d="M 240.893614 273.312 
L 242.507944 273.312 
L 242.507944 149.871812 
L 240.893614 149.871812 
z
" clip-path="url(#pc10a192ae7)" style="fill: #1f77b4"/>
   </g>
   <g id="patch_111">
    <path d="M 242.507944 273.312 
L 244.122274 273.312 
L 244.122274 157.624094 
L 242.507944 157.624094 
z
" clip-path="url(#pc10a192ae7)" style="fill: #1f77b4"/>
   </g>
   <g id="patch_112">
    <path d="M 244.122274 273.312 
L 245.736604 273.312 
L 245.736604 135.559906 
L 244.122274 135.559906 
z
" clip-path="url(#pc10a192ae7)" style="fill: #1f77b4"/>
   </g>
   <g id="patch_113">
    <path d="M 245.736604 273.312 
L 247.350934 273.312 
L 247.350934 144.504847 
L 245.736604 144.504847 
z
" clip-path="url(#pc10a192ae7)" style="fill: #1f77b4"/>
   </g>
   <g id="patch_114">
    <path d="M 247.350934 273.312 
L 248.965264 273.312 
L 248.965264 142.715859 
L 247.350934 142.715859 
z
" clip-path="url(#pc10a192ae7)" style="fill: #1f77b4"/>
   </g>
   <g id="patch_115">
    <path d="M 248.965264 273.312 
L 250.579594 273.312 
L 250.579594 133.174588 
L 248.965264 133.174588 
z
" clip-path="url(#pc10a192ae7)" style="fill: #1f77b4"/>
   </g>
   <g id="patch_116">
    <path d="M 250.579594 273.312 
L 252.193924 273.312 
L 252.193924 146.890165 
L 250.579594 146.890165 
z
" clip-path="url(#pc10a192ae7)" style="fill: #1f77b4"/>
   </g>
   <g id="patch_117">
    <path d="M 252.193924 273.312 
L 253.808254 273.312 
L 253.808254 129.000282 
L 252.193924 129.000282 
z
" clip-path="url(#pc10a192ae7)" style="fill: #1f77b4"/>
   </g>
   <g id="patch_118">
    <path d="M 253.808254 273.312 
L 255.422585 273.312 
L 255.422585 122.440659 
L 253.808254 122.440659 
z
" clip-path="url(#pc10a192ae7)" style="fill: #1f77b4"/>
   </g>
   <g id="patch_119">
    <path d="M 255.422585 273.312 
L 257.036915 273.312 
L 257.036915 135.559906 
L 255.422585 135.559906 
z
" clip-path="url(#pc10a192ae7)" style="fill: #1f77b4"/>
   </g>
   <g id="patch_120">
    <path d="M 257.036915 273.312 
L 258.651245 273.312 
L 258.651245 138.541553 
L 257.036915 138.541553 
z
" clip-path="url(#pc10a192ae7)" style="fill: #1f77b4"/>
   </g>
   <g id="patch_121">
    <path d="M 258.651245 273.312 
L 260.265575 273.312 
L 260.265575 140.330541 
L 258.651245 140.330541 
z
" clip-path="url(#pc10a192ae7)" style="fill: #1f77b4"/>
   </g>
   <g id="patch_122">
    <path d="M 260.265575 273.312 
L 261.879905 273.312 
L 261.879905 133.770918 
L 260.265575 133.770918 
z
" clip-path="url(#pc10a192ae7)" style="fill: #1f77b4"/>
   </g>
   <g id="patch_123">
    <path d="M 261.879905 273.312 
L 263.494235 273.312 
L 263.494235 115.284706 
L 261.879905 115.284706 
z
" clip-path="url(#pc10a192ae7)" style="fill: #1f77b4"/>
   </g>
   <g id="patch_124">
    <path d="M 263.494235 273.312 
L 265.108565 273.312 
L 265.108565 118.862682 
L 263.494235 118.862682 
z
" clip-path="url(#pc10a192ae7)" style="fill: #1f77b4"/>
   </g>
   <g id="patch_125">
    <path d="M 265.108565 273.312 
L 266.722895 273.312 
L 266.722895 133.770918 
L 265.108565 133.770918 
z
" clip-path="url(#pc10a192ae7)" style="fill: #1f77b4"/>
   </g>
   <g id="patch_126">
    <path d="M 266.722895 273.312 
L 268.337225 273.312 
L 268.337225 117.670024 
L 266.722895 117.670024 
z
" clip-path="url(#pc10a192ae7)" style="fill: #1f77b4"/>
   </g>
   <g id="patch_127">
    <path d="M 268.337225 273.312 
L 269.951556 273.312 
L 269.951556 132.578259 
L 268.337225 132.578259 
z
" clip-path="url(#pc10a192ae7)" style="fill: #1f77b4"/>
   </g>
   <g id="patch_128">
    <path d="M 269.951556 273.312 
L 271.565886 273.312 
L 271.565886 118.862682 
L 269.951556 118.862682 
z
" clip-path="url(#pc10a192ae7)" style="fill: #1f77b4"/>
   </g>
   <g id="patch_129">
    <path d="M 271.565886 273.312 
L 273.180216 273.312 
L 273.180216 128.403953 
L 271.565886 128.403953 
z
" clip-path="url(#pc10a192ae7)" style="fill: #1f77b4"/>
   </g>
   <g id="patch_130">
    <path d="M 273.180216 273.312 
L 274.794546 273.312 
L 274.794546 115.284706 
L 273.180216 115.284706 
z
" clip-path="url(#pc10a192ae7)" style="fill: #1f77b4"/>
   </g>
   <g id="patch_131">
    <path d="M 274.794546 273.312 
L 276.408876 273.312 
L 276.408876 120.651671 
L 274.794546 120.651671 
z
" clip-path="url(#pc10a192ae7)" style="fill: #1f77b4"/>
   </g>
   <g id="patch_132">
    <path d="M 276.408876 273.312 
L 278.023206 273.312 
L 278.023206 109.321412 
L 276.408876 109.321412 
z
" clip-path="url(#pc10a192ae7)" style="fill: #1f77b4"/>
   </g>
   <g id="patch_133">
    <path d="M 278.023206 273.312 
L 279.637536 273.312 
L 279.637536 122.440659 
L 278.023206 122.440659 
z
" clip-path="url(#pc10a192ae7)" style="fill: #1f77b4"/>
   </g>
   <g id="patch_134">
    <path d="M 279.637536 273.312 
L 281.251866 273.312 
L 281.251866 127.211294 
L 279.637536 127.211294 
z
" clip-path="url(#pc10a192ae7)" style="fill: #1f77b4"/>
   </g>
   <g id="patch_135">
    <path d="M 281.251866 273.312 
L 282.866196 273.312 
L 282.866196 106.339765 
L 281.251866 106.339765 
z
" clip-path="url(#pc10a192ae7)" style="fill: #1f77b4"/>
   </g>
   <g id="patch_136">
    <path d="M 282.866196 273.312 
L 284.480527 273.312 
L 284.480527 106.339765 
L 282.866196 106.339765 
z
" clip-path="url(#pc10a192ae7)" style="fill: #1f77b4"/>
   </g>
   <g id="patch_137">
    <path d="M 284.480527 273.312 
L 286.094857 273.312 
L 286.094857 112.303059 
L 284.480527 112.303059 
z
" clip-path="url(#pc10a192ae7)" style="fill: #1f77b4"/>
   </g>
   <g id="patch_138">
    <path d="M 286.094857 273.312 
L 287.709187 273.312 
L 287.709187 124.229647 
L 286.094857 124.229647 
z
" clip-path="url(#pc10a192ae7)" style="fill: #1f77b4"/>
   </g>
   <g id="patch_139">
    <path d="M 287.709187 273.312 
L 289.323517 273.312 
L 289.323517 130.192941 
L 287.709187 130.192941 
z
" clip-path="url(#pc10a192ae7)" style="fill: #1f77b4"/>
   </g>
   <g id="patch_140">
    <path d="M 289.323517 273.312 
L 290.937847 273.312 
L 290.937847 111.706729 
L 289.323517 111.706729 
z
" clip-path="url(#pc10a192ae7)" style="fill: #1f77b4"/>
   </g>
   <g id="patch_141">
    <path d="M 290.937847 273.312 
L 292.552177 273.312 
L 292.552177 91.431529 
L 290.937847 91.431529 
z
" clip-path="url(#pc10a192ae7)" style="fill: #1f77b4"/>
   </g>
   <g id="patch_142">
    <path d="M 292.552177 273.312 
L 294.166507 273.312 
L 294.166507 111.1104 
L 292.552177 111.1104 
z
" clip-path="url(#pc10a192ae7)" style="fill: #1f77b4"/>
   </g>
   <g id="patch_143">
    <path d="M 294.166507 273.312 
L 295.780837 273.312 
L 295.780837 109.917741 
L 294.166507 109.917741 
z
" clip-path="url(#pc10a192ae7)" style="fill: #1f77b4"/>
   </g>
   <g id="patch_144">
    <path d="M 295.780837 273.312 
L 297.395167 273.312 
L 297.395167 96.798494 
L 295.780837 96.798494 
z
" clip-path="url(#pc10a192ae7)" style="fill: #1f77b4"/>
   </g>
   <g id="patch_145">
    <path d="M 297.395167 273.312 
L 299.009498 273.312 
L 299.009498 113.495718 
L 297.395167 113.495718 
z
" clip-path="url(#pc10a192ae7)" style="fill: #1f77b4"/>
   </g>
   <g id="patch_146">
    <path d="M 299.009498 273.312 
L 300.623828 273.312 
L 300.623828 102.165459 
L 299.009498 102.165459 
z
" clip-path="url(#pc10a192ae7)" style="fill: #1f77b4"/>
   </g>
   <g id="patch_147">
    <path d="M 300.623828 273.312 
L 302.238158 273.312 
L 302.238158 102.165459 
L 300.623828 102.165459 
z
" clip-path="url(#pc10a192ae7)" style="fill: #1f77b4"/>
   </g>
   <g id="patch_148">
    <path d="M 302.238158 273.312 
L 303.852488 273.312 
L 303.852488 82.486588 
L 302.238158 82.486588 
z
" clip-path="url(#pc10a192ae7)" style="fill: #1f77b4"/>
   </g>
   <g id="patch_149">
    <path d="M 303.852488 273.312 
L 305.466818 273.312 
L 305.466818 93.220518 
L 303.852488 93.220518 
z
" clip-path="url(#pc10a192ae7)" style="fill: #1f77b4"/>
   </g>
   <g id="patch_150">
    <path d="M 305.466818 273.312 
L 307.081148 273.312 
L 307.081148 118.266353 
L 305.466818 118.266353 
z
" clip-path="url(#pc10a192ae7)" style="fill: #1f77b4"/>
   </g>
   <g id="patch_151">
    <path d="M 307.081148 273.312 
L 308.695478 273.312 
L 308.695478 106.339765 
L 307.081148 106.339765 
z
" clip-path="url(#pc10a192ae7)" style="fill: #1f77b4"/>
   </g>
   <g id="patch_152">
    <path d="M 308.695478 273.312 
L 310.309808 273.312 
L 310.309808 90.8352 
L 308.695478 90.8352 
z
" clip-path="url(#pc10a192ae7)" style="fill: #1f77b4"/>
   </g>
   <g id="patch_153">
    <path d="M 310.309808 273.312 
L 311.924138 273.312 
L 311.924138 95.009506 
L 310.309808 95.009506 
z
" clip-path="url(#pc10a192ae7)" style="fill: #1f77b4"/>
   </g>
   <g id="patch_154">
    <path d="M 311.924138 273.312 
L 313.538469 273.312 
L 313.538469 97.991153 
L 311.924138 97.991153 
z
" clip-path="url(#pc10a192ae7)" style="fill: #1f77b4"/>
   </g>
   <g id="patch_155">
    <path d="M 313.538469 273.312 
L 315.152799 273.312 
L 315.152799 71.156329 
L 313.538469 71.156329 
z
" clip-path="url(#pc10a192ae7)" style="fill: #1f77b4"/>
   </g>
   <g id="patch_156">
    <path d="M 315.152799 273.312 
L 316.767129 273.312 
L 316.767129 103.954447 
L 315.152799 103.954447 
z
" clip-path="url(#pc10a192ae7)" style="fill: #1f77b4"/>
   </g>
   <g id="patch_157">
    <path d="M 316.767129 273.312 
L 318.381459 273.312 
L 318.381459 74.137976 
L 316.767129 74.137976 
z
" clip-path="url(#pc10a192ae7)" style="fill: #1f77b4"/>
   </g>
   <g id="patch_158">
    <path d="M 318.381459 273.312 
L 319.995789 273.312 
L 319.995789 92.624188 
L 318.381459 92.624188 
z
" clip-path="url(#pc10a192ae7)" style="fill: #1f77b4"/>
   </g>
   <g id="patch_159">
    <path d="M 319.995789 273.312 
L 321.610119 273.312 
L 321.610119 91.431529 
L 319.995789 91.431529 
z
" clip-path="url(#pc10a192ae7)" style="fill: #1f77b4"/>
   </g>
   <g id="patch_160">
    <path d="M 321.610119 273.312 
L 323.224449 273.312 
L 323.224449 93.816847 
L 321.610119 93.816847 
z
" clip-path="url(#pc10a192ae7)" style="fill: #1f77b4"/>
   </g>
   <g id="patch_161">
    <path d="M 323.224449 273.312 
L 324.838779 273.312 
L 324.838779 84.871906 
L 323.224449 84.871906 
z
" clip-path="url(#pc10a192ae7)" style="fill: #1f77b4"/>
   </g>
   <g id="patch_162">
    <path d="M 324.838779 273.312 
L 326.453109 273.312 
L 326.453109 84.275576 
L 324.838779 84.275576 
z
" clip-path="url(#pc10a192ae7)" style="fill: #1f77b4"/>
   </g>
   <g id="patch_163">
    <path d="M 326.453109 273.312 
L 328.06744 273.312 
L 328.06744 62.211388 
L 326.453109 62.211388 
z
" clip-path="url(#pc10a192ae7)" style="fill: #1f77b4"/>
   </g>
   <g id="patch_164">
    <path d="M 328.06744 273.312 
L 329.68177 273.312 
L 329.68177 78.908612 
L 328.06744 78.908612 
z
" clip-path="url(#pc10a192ae7)" style="fill: #1f77b4"/>
   </g>
   <g id="patch_165">
    <path d="M 329.68177 273.312 
L 331.2961 273.312 
L 331.2961 81.890259 
L 329.68177 81.890259 
z
" clip-path="url(#pc10a192ae7)" style="fill: #1f77b4"/>
   </g>
   <g id="patch_166">
    <path d="M 331.2961 273.312 
L 332.91043 273.312 
L 332.91043 52.670118 
L 331.2961 52.670118 
z
" clip-path="url(#pc10a192ae7)" style="fill: #1f77b4"/>
   </g>
   <g id="patch_167">
    <path d="M 332.91043 273.312 
L 334.52476 273.312 
L 334.52476 77.715953 
L 332.91043 77.715953 
z
" clip-path="url(#pc10a192ae7)" style="fill: #1f77b4"/>
   </g>
   <g id="patch_168">
    <path d="M 334.52476 273.312 
L 336.13909 273.312 
L 336.13909 80.6976 
L 334.52476 80.6976 
z
" clip-path="url(#pc10a192ae7)" style="fill: #1f77b4"/>
   </g>
   <g id="patch_169">
    <path d="M 336.13909 273.312 
L 337.75342 273.312 
L 337.75342 92.027859 
L 336.13909 92.027859 
z
" clip-path="url(#pc10a192ae7)" style="fill: #1f77b4"/>
   </g>
   <g id="patch_170">
    <path d="M 337.75342 273.312 
L 339.36775 273.312 
L 339.36775 61.615059 
L 337.75342 61.615059 
z
" clip-path="url(#pc10a192ae7)" style="fill: #1f77b4"/>
   </g>
   <g id="patch_171">
    <path d="M 339.36775 273.312 
L 340.98208 273.312 
L 340.98208 87.853553 
L 339.36775 87.853553 
z
" clip-path="url(#pc10a192ae7)" style="fill: #1f77b4"/>
   </g>
   <g id="patch_172">
    <path d="M 340.98208 273.312 
L 342.596411 273.312 
L 342.596411 62.807718 
L 340.98208 62.807718 
z
" clip-path="url(#pc10a192ae7)" style="fill: #1f77b4"/>
   </g>
   <g id="patch_173">
    <path d="M 342.596411 273.312 
L 344.210741 273.312 
L 344.210741 79.504941 
L 342.596411 79.504941 
z
" clip-path="url(#pc10a192ae7)" style="fill: #1f77b4"/>
   </g>
   <g id="patch_174">
    <path d="M 344.210741 273.312 
L 345.825071 273.312 
L 345.825071 55.651765 
L 344.210741 55.651765 
z
" clip-path="url(#pc10a192ae7)" style="fill: #1f77b4"/>
   </g>
   <g id="patch_175">
    <path d="M 345.825071 273.312 
L 347.439401 273.312 
L 347.439401 62.211388 
L 345.825071 62.211388 
z
" clip-path="url(#pc10a192ae7)" style="fill: #1f77b4"/>
   </g>
   <g id="patch_176">
    <path d="M 347.439401 273.312 
L 349.053731 273.312 
L 349.053731 66.385694 
L 347.439401 66.385694 
z
" clip-path="url(#pc10a192ae7)" style="fill: #1f77b4"/>
   </g>
   <g id="patch_177">
    <path d="M 349.053731 273.312 
L 350.668061 273.312 
L 350.668061 70.56 
L 349.053731 70.56 
z
" clip-path="url(#pc10a192ae7)" style="fill: #1f77b4"/>
   </g>
   <g id="patch_178">
    <path d="M 350.668061 273.312 
L 352.282391 273.312 
L 352.282391 87.257224 
L 350.668061 87.257224 
z
" clip-path="url(#pc10a192ae7)" style="fill: #1f77b4"/>
   </g>
   <g id="patch_179">
    <path d="M 352.282391 273.312 
L 353.896721 273.312 
L 353.896721 60.4224 
L 352.282391 60.4224 
z
" clip-path="url(#pc10a192ae7)" style="fill: #1f77b4"/>
   </g>
   <g id="patch_180">
    <path d="M 353.896721 273.312 
L 355.511051 273.312 
L 355.511051 79.504941 
L 353.896721 79.504941 
z
" clip-path="url(#pc10a192ae7)" style="fill: #1f77b4"/>
   </g>
   <g id="patch_181">
    <path d="M 355.511051 273.312 
L 357.125382 273.312 
L 357.125382 69.963671 
L 355.511051 69.963671 
z
" clip-path="url(#pc10a192ae7)" style="fill: #1f77b4"/>
   </g>
   <g id="patch_182">
    <path d="M 357.125382 273.312 
L 358.739712 273.312 
L 358.739712 62.211388 
L 357.125382 62.211388 
z
" clip-path="url(#pc10a192ae7)" style="fill: #1f77b4"/>
   </g>
   <g id="patch_183">
    <path d="M 358.739712 273.312 
L 360.354042 273.312 
L 360.354042 41.936188 
L 358.739712 41.936188 
z
" clip-path="url(#pc10a192ae7)" style="fill: #1f77b4"/>
   </g>
   <g id="patch_184">
    <path d="M 360.354042 273.312 
L 361.968372 273.312 
L 361.968372 55.055435 
L 360.354042 55.055435 
z
" clip-path="url(#pc10a192ae7)" style="fill: #1f77b4"/>
   </g>
   <g id="patch_185">
    <path d="M 361.968372 273.312 
L 363.582702 273.312 
L 363.582702 45.514165 
L 361.968372 45.514165 
z
" clip-path="url(#pc10a192ae7)" style="fill: #1f77b4"/>
   </g>
   <g id="patch_186">
    <path d="M 363.582702 273.312 
L 365.197032 273.312 
L 365.197032 44.917835 
L 363.582702 44.917835 
z
" clip-path="url(#pc10a192ae7)" style="fill: #1f77b4"/>
   </g>
   <g id="patch_187">
    <path d="M 365.197032 273.312 
L 366.811362 273.312 
L 366.811362 80.6976 
L 365.197032 80.6976 
z
" clip-path="url(#pc10a192ae7)" style="fill: #1f77b4"/>
   </g>
   <g id="patch_188">
    <path d="M 366.811362 273.312 
L 368.425692 273.312 
L 368.425692 53.862776 
L 366.811362 53.862776 
z
" clip-path="url(#pc10a192ae7)" style="fill: #1f77b4"/>
   </g>
   <g id="patch_189">
    <path d="M 368.425692 273.312 
L 370.040022 273.312 
L 370.040022 56.844424 
L 368.425692 56.844424 
z
" clip-path="url(#pc10a192ae7)" style="fill: #1f77b4"/>
   </g>
   <g id="patch_190">
    <path d="M 370.040022 273.312 
L 371.654353 273.312 
L 371.654353 48.495812 
L 370.040022 48.495812 
z
" clip-path="url(#pc10a192ae7)" style="fill: #1f77b4"/>
   </g>
   <g id="patch_191">
    <path d="M 371.654353 273.312 
L 373.268683 273.312 
L 373.268683 53.266447 
L 371.654353 53.266447 
z
" clip-path="url(#pc10a192ae7)" style="fill: #1f77b4"/>
   </g>
   <g id="patch_192">
    <path d="M 373.268683 273.312 
L 374.883013 273.312 
L 374.883013 59.229741 
L 373.268683 59.229741 
z
" clip-path="url(#pc10a192ae7)" style="fill: #1f77b4"/>
   </g>
   <g id="patch_193">
    <path d="M 374.883013 273.312 
L 376.497343 273.312 
L 376.497343 33.587576 
L 374.883013 33.587576 
z
" clip-path="url(#pc10a192ae7)" style="fill: #1f77b4"/>
   </g>
   <g id="patch_194">
    <path d="M 376.497343 273.312 
L 378.111673 273.312 
L 378.111673 52.670118 
L 376.497343 52.670118 
z
" clip-path="url(#pc10a192ae7)" style="fill: #1f77b4"/>
   </g>
   <g id="patch_195">
    <path d="M 378.111673 273.312 
L 379.726003 273.312 
L 379.726003 49.688471 
L 378.111673 49.688471 
z
" clip-path="url(#pc10a192ae7)" style="fill: #1f77b4"/>
   </g>
   <g id="patch_196">
    <path d="M 379.726003 273.312 
L 381.340333 273.312 
L 381.340333 19.872 
L 379.726003 19.872 
z
" clip-path="url(#pc10a192ae7)" style="fill: #1f77b4"/>
   </g>
   <g id="patch_197">
    <path d="M 381.340333 273.312 
L 382.954663 273.312 
L 382.954663 38.358212 
L 381.340333 38.358212 
z
" clip-path="url(#pc10a192ae7)" style="fill: #1f77b4"/>
   </g>
   <g id="patch_198">
    <path d="M 382.954663 273.312 
L 384.568993 273.312 
L 384.568993 59.229741 
L 382.954663 59.229741 
z
" clip-path="url(#pc10a192ae7)" style="fill: #1f77b4"/>
   </g>
   <g id="patch_199">
    <path d="M 384.568993 273.312 
L 386.183324 273.312 
L 386.183324 41.936188 
L 384.568993 41.936188 
z
" clip-path="url(#pc10a192ae7)" style="fill: #1f77b4"/>
   </g>
   <g id="patch_200">
    <path d="M 386.183324 273.312 
L 387.797654 273.312 
L 387.797654 36.569224 
L 386.183324 36.569224 
z
" clip-path="url(#pc10a192ae7)" style="fill: #1f77b4"/>
   </g>
   <g id="patch_201">
    <path d="M 387.797654 273.312 
L 389.411984 273.312 
L 389.411984 37.761882 
L 387.797654 37.761882 
z
" clip-path="url(#pc10a192ae7)" style="fill: #1f77b4"/>
   </g>
   <g id="patch_202">
    <path d="M 389.411984 273.312 
L 391.026314 273.312 
L 391.026314 47.303153 
L 389.411984 47.303153 
z
" clip-path="url(#pc10a192ae7)" style="fill: #1f77b4"/>
   </g>
   <g id="matplotlib.axis_1">
    <g id="xtick_1">
     <g id="line2d_1">
      <defs>
       <path id="m349affc0d9" d="M 0 0 
L 0 3.5 
" style="stroke: #000000; stroke-width: 0.8"/>
      </defs>
      <g>
       <use xlink:href="#m349affc0d9" x="66.376477" y="273.312" style="stroke: #000000; stroke-width: 0.8"/>
      </g>
     </g>
     <g id="text_1">
      <!-- 0.0 -->
      <g transform="translate(58.424915 287.910437)scale(0.1 -0.1)">
       <defs>
        <path id="DejaVuSans-30" d="M 2034 4250 
Q 1547 4250 1301 3770 
Q 1056 3291 1056 2328 
Q 1056 1369 1301 889 
Q 1547 409 2034 409 
Q 2525 409 2770 889 
Q 3016 1369 3016 2328 
Q 3016 3291 2770 3770 
Q 2525 4250 2034 4250 
z
M 2034 4750 
Q 2819 4750 3233 4129 
Q 3647 3509 3647 2328 
Q 3647 1150 3233 529 
Q 2819 -91 2034 -91 
Q 1250 -91 836 529 
Q 422 1150 422 2328 
Q 422 3509 836 4129 
Q 1250 4750 2034 4750 
z
" transform="scale(0.015625)"/>
        <path id="DejaVuSans-2e" d="M 684 794 
L 1344 794 
L 1344 0 
L 684 0 
L 684 794 
z
" transform="scale(0.015625)"/>
       </defs>
       <use xlink:href="#DejaVuSans-30"/>
       <use xlink:href="#DejaVuSans-2e" x="63.623047"/>
       <use xlink:href="#DejaVuSans-30" x="95.410156"/>
      </g>
     </g>
    </g>
    <g id="xtick_2">
     <g id="line2d_2">
      <g>
       <use xlink:href="#m349affc0d9" x="131.307386" y="273.312" style="stroke: #000000; stroke-width: 0.8"/>
      </g>
     </g>
     <g id="text_2">
      <!-- 0.2 -->
      <g transform="translate(123.355824 287.910437)scale(0.1 -0.1)">
       <defs>
        <path id="DejaVuSans-32" d="M 1228 531 
L 3431 531 
L 3431 0 
L 469 0 
L 469 531 
Q 828 903 1448 1529 
Q 2069 2156 2228 2338 
Q 2531 2678 2651 2914 
Q 2772 3150 2772 3378 
Q 2772 3750 2511 3984 
Q 2250 4219 1831 4219 
Q 1534 4219 1204 4116 
Q 875 4013 500 3803 
L 500 4441 
Q 881 4594 1212 4672 
Q 1544 4750 1819 4750 
Q 2544 4750 2975 4387 
Q 3406 4025 3406 3419 
Q 3406 3131 3298 2873 
Q 3191 2616 2906 2266 
Q 2828 2175 2409 1742 
Q 1991 1309 1228 531 
z
" transform="scale(0.015625)"/>
       </defs>
       <use xlink:href="#DejaVuSans-30"/>
       <use xlink:href="#DejaVuSans-2e" x="63.623047"/>
       <use xlink:href="#DejaVuSans-32" x="95.410156"/>
      </g>
     </g>
    </g>
    <g id="xtick_3">
     <g id="line2d_3">
      <g>
       <use xlink:href="#m349affc0d9" x="196.238295" y="273.312" style="stroke: #000000; stroke-width: 0.8"/>
      </g>
     </g>
     <g id="text_3">
      <!-- 0.4 -->
      <g transform="translate(188.286733 287.910437)scale(0.1 -0.1)">
       <defs>
        <path id="DejaVuSans-34" d="M 2419 4116 
L 825 1625 
L 2419 1625 
L 2419 4116 
z
M 2253 4666 
L 3047 4666 
L 3047 1625 
L 3713 1625 
L 3713 1100 
L 3047 1100 
L 3047 0 
L 2419 0 
L 2419 1100 
L 313 1100 
L 313 1709 
L 2253 4666 
z
" transform="scale(0.015625)"/>
       </defs>
       <use xlink:href="#DejaVuSans-30"/>
       <use xlink:href="#DejaVuSans-2e" x="63.623047"/>
       <use xlink:href="#DejaVuSans-34" x="95.410156"/>
      </g>
     </g>
    </g>
    <g id="xtick_4">
     <g id="line2d_4">
      <g>
       <use xlink:href="#m349affc0d9" x="261.169205" y="273.312" style="stroke: #000000; stroke-width: 0.8"/>
      </g>
     </g>
     <g id="text_4">
      <!-- 0.6 -->
      <g transform="translate(253.217642 287.910437)scale(0.1 -0.1)">
       <defs>
        <path id="DejaVuSans-36" d="M 2113 2584 
Q 1688 2584 1439 2293 
Q 1191 2003 1191 1497 
Q 1191 994 1439 701 
Q 1688 409 2113 409 
Q 2538 409 2786 701 
Q 3034 994 3034 1497 
Q 3034 2003 2786 2293 
Q 2538 2584 2113 2584 
z
M 3366 4563 
L 3366 3988 
Q 3128 4100 2886 4159 
Q 2644 4219 2406 4219 
Q 1781 4219 1451 3797 
Q 1122 3375 1075 2522 
Q 1259 2794 1537 2939 
Q 1816 3084 2150 3084 
Q 2853 3084 3261 2657 
Q 3669 2231 3669 1497 
Q 3669 778 3244 343 
Q 2819 -91 2113 -91 
Q 1303 -91 875 529 
Q 447 1150 447 2328 
Q 447 3434 972 4092 
Q 1497 4750 2381 4750 
Q 2619 4750 2861 4703 
Q 3103 4656 3366 4563 
z
" transform="scale(0.015625)"/>
       </defs>
       <use xlink:href="#DejaVuSans-30"/>
       <use xlink:href="#DejaVuSans-2e" x="63.623047"/>
       <use xlink:href="#DejaVuSans-36" x="95.410156"/>
      </g>
     </g>
    </g>
    <g id="xtick_5">
     <g id="line2d_5">
      <g>
       <use xlink:href="#m349affc0d9" x="326.100114" y="273.312" style="stroke: #000000; stroke-width: 0.8"/>
      </g>
     </g>
     <g id="text_5">
      <!-- 0.8 -->
      <g transform="translate(318.148551 287.910437)scale(0.1 -0.1)">
       <defs>
        <path id="DejaVuSans-38" d="M 2034 2216 
Q 1584 2216 1326 1975 
Q 1069 1734 1069 1313 
Q 1069 891 1326 650 
Q 1584 409 2034 409 
Q 2484 409 2743 651 
Q 3003 894 3003 1313 
Q 3003 1734 2745 1975 
Q 2488 2216 2034 2216 
z
M 1403 2484 
Q 997 2584 770 2862 
Q 544 3141 544 3541 
Q 544 4100 942 4425 
Q 1341 4750 2034 4750 
Q 2731 4750 3128 4425 
Q 3525 4100 3525 3541 
Q 3525 3141 3298 2862 
Q 3072 2584 2669 2484 
Q 3125 2378 3379 2068 
Q 3634 1759 3634 1313 
Q 3634 634 3220 271 
Q 2806 -91 2034 -91 
Q 1263 -91 848 271 
Q 434 634 434 1313 
Q 434 1759 690 2068 
Q 947 2378 1403 2484 
z
M 1172 3481 
Q 1172 3119 1398 2916 
Q 1625 2713 2034 2713 
Q 2441 2713 2670 2916 
Q 2900 3119 2900 3481 
Q 2900 3844 2670 4047 
Q 2441 4250 2034 4250 
Q 1625 4250 1398 4047 
Q 1172 3844 1172 3481 
z
" transform="scale(0.015625)"/>
       </defs>
       <use xlink:href="#DejaVuSans-30"/>
       <use xlink:href="#DejaVuSans-2e" x="63.623047"/>
       <use xlink:href="#DejaVuSans-38" x="95.410156"/>
      </g>
     </g>
    </g>
    <g id="xtick_6">
     <g id="line2d_6">
      <g>
       <use xlink:href="#m349affc0d9" x="391.031023" y="273.312" style="stroke: #000000; stroke-width: 0.8"/>
      </g>
     </g>
     <g id="text_6">
      <!-- 1.0 -->
      <g transform="translate(383.07946 287.910437)scale(0.1 -0.1)">
       <defs>
        <path id="DejaVuSans-31" d="M 794 531 
L 1825 531 
L 1825 4091 
L 703 3866 
L 703 4441 
L 1819 4666 
L 2450 4666 
L 2450 531 
L 3481 531 
L 3481 0 
L 794 0 
L 794 531 
z
" transform="scale(0.015625)"/>
       </defs>
       <use xlink:href="#DejaVuSans-31"/>
       <use xlink:href="#DejaVuSans-2e" x="63.623047"/>
       <use xlink:href="#DejaVuSans-30" x="95.410156"/>
      </g>
     </g>
    </g>
    <g id="text_7">
     <!-- Propagation direction -->
     <g transform="translate(175.221719 301.588562)scale(0.1 -0.1)">
      <defs>
       <path id="DejaVuSans-50" d="M 1259 4147 
L 1259 2394 
L 2053 2394 
Q 2494 2394 2734 2622 
Q 2975 2850 2975 3272 
Q 2975 3691 2734 3919 
Q 2494 4147 2053 4147 
L 1259 4147 
z
M 628 4666 
L 2053 4666 
Q 2838 4666 3239 4311 
Q 3641 3956 3641 3272 
Q 3641 2581 3239 2228 
Q 2838 1875 2053 1875 
L 1259 1875 
L 1259 0 
L 628 0 
L 628 4666 
z
" transform="scale(0.015625)"/>
       <path id="DejaVuSans-72" d="M 2631 2963 
Q 2534 3019 2420 3045 
Q 2306 3072 2169 3072 
Q 1681 3072 1420 2755 
Q 1159 2438 1159 1844 
L 1159 0 
L 581 0 
L 581 3500 
L 1159 3500 
L 1159 2956 
Q 1341 3275 1631 3429 
Q 1922 3584 2338 3584 
Q 2397 3584 2469 3576 
Q 2541 3569 2628 3553 
L 2631 2963 
z
" transform="scale(0.015625)"/>
       <path id="DejaVuSans-6f" d="M 1959 3097 
Q 1497 3097 1228 2736 
Q 959 2375 959 1747 
Q 959 1119 1226 758 
Q 1494 397 1959 397 
Q 2419 397 2687 759 
Q 2956 1122 2956 1747 
Q 2956 2369 2687 2733 
Q 2419 3097 1959 3097 
z
M 1959 3584 
Q 2709 3584 3137 3096 
Q 3566 2609 3566 1747 
Q 3566 888 3137 398 
Q 2709 -91 1959 -91 
Q 1206 -91 779 398 
Q 353 888 353 1747 
Q 353 2609 779 3096 
Q 1206 3584 1959 3584 
z
" transform="scale(0.015625)"/>
       <path id="DejaVuSans-70" d="M 1159 525 
L 1159 -1331 
L 581 -1331 
L 581 3500 
L 1159 3500 
L 1159 2969 
Q 1341 3281 1617 3432 
Q 1894 3584 2278 3584 
Q 2916 3584 3314 3078 
Q 3713 2572 3713 1747 
Q 3713 922 3314 415 
Q 2916 -91 2278 -91 
Q 1894 -91 1617 61 
Q 1341 213 1159 525 
z
M 3116 1747 
Q 3116 2381 2855 2742 
Q 2594 3103 2138 3103 
Q 1681 3103 1420 2742 
Q 1159 2381 1159 1747 
Q 1159 1113 1420 752 
Q 1681 391 2138 391 
Q 2594 391 2855 752 
Q 3116 1113 3116 1747 
z
" transform="scale(0.015625)"/>
       <path id="DejaVuSans-61" d="M 2194 1759 
Q 1497 1759 1228 1600 
Q 959 1441 959 1056 
Q 959 750 1161 570 
Q 1363 391 1709 391 
Q 2188 391 2477 730 
Q 2766 1069 2766 1631 
L 2766 1759 
L 2194 1759 
z
M 3341 1997 
L 3341 0 
L 2766 0 
L 2766 531 
Q 2569 213 2275 61 
Q 1981 -91 1556 -91 
Q 1019 -91 701 211 
Q 384 513 384 1019 
Q 384 1609 779 1909 
Q 1175 2209 1959 2209 
L 2766 2209 
L 2766 2266 
Q 2766 2663 2505 2880 
Q 2244 3097 1772 3097 
Q 1472 3097 1187 3025 
Q 903 2953 641 2809 
L 641 3341 
Q 956 3463 1253 3523 
Q 1550 3584 1831 3584 
Q 2591 3584 2966 3190 
Q 3341 2797 3341 1997 
z
" transform="scale(0.015625)"/>
       <path id="DejaVuSans-67" d="M 2906 1791 
Q 2906 2416 2648 2759 
Q 2391 3103 1925 3103 
Q 1463 3103 1205 2759 
Q 947 2416 947 1791 
Q 947 1169 1205 825 
Q 1463 481 1925 481 
Q 2391 481 2648 825 
Q 2906 1169 2906 1791 
z
M 3481 434 
Q 3481 -459 3084 -895 
Q 2688 -1331 1869 -1331 
Q 1566 -1331 1297 -1286 
Q 1028 -1241 775 -1147 
L 775 -588 
Q 1028 -725 1275 -790 
Q 1522 -856 1778 -856 
Q 2344 -856 2625 -561 
Q 2906 -266 2906 331 
L 2906 616 
Q 2728 306 2450 153 
Q 2172 0 1784 0 
Q 1141 0 747 490 
Q 353 981 353 1791 
Q 353 2603 747 3093 
Q 1141 3584 1784 3584 
Q 2172 3584 2450 3431 
Q 2728 3278 2906 2969 
L 2906 3500 
L 3481 3500 
L 3481 434 
z
" transform="scale(0.015625)"/>
       <path id="DejaVuSans-74" d="M 1172 4494 
L 1172 3500 
L 2356 3500 
L 2356 3053 
L 1172 3053 
L 1172 1153 
Q 1172 725 1289 603 
Q 1406 481 1766 481 
L 2356 481 
L 2356 0 
L 1766 0 
Q 1100 0 847 248 
Q 594 497 594 1153 
L 594 3053 
L 172 3053 
L 172 3500 
L 594 3500 
L 594 4494 
L 1172 4494 
z
" transform="scale(0.015625)"/>
       <path id="DejaVuSans-69" d="M 603 3500 
L 1178 3500 
L 1178 0 
L 603 0 
L 603 3500 
z
M 603 4863 
L 1178 4863 
L 1178 4134 
L 603 4134 
L 603 4863 
z
" transform="scale(0.015625)"/>
       <path id="DejaVuSans-6e" d="M 3513 2113 
L 3513 0 
L 2938 0 
L 2938 2094 
Q 2938 2591 2744 2837 
Q 2550 3084 2163 3084 
Q 1697 3084 1428 2787 
Q 1159 2491 1159 1978 
L 1159 0 
L 581 0 
L 581 3500 
L 1159 3500 
L 1159 2956 
Q 1366 3272 1645 3428 
Q 1925 3584 2291 3584 
Q 2894 3584 3203 3211 
Q 3513 2838 3513 2113 
z
" transform="scale(0.015625)"/>
       <path id="DejaVuSans-20" transform="scale(0.015625)"/>
       <path id="DejaVuSans-64" d="M 2906 2969 
L 2906 4863 
L 3481 4863 
L 3481 0 
L 2906 0 
L 2906 525 
Q 2725 213 2448 61 
Q 2172 -91 1784 -91 
Q 1150 -91 751 415 
Q 353 922 353 1747 
Q 353 2572 751 3078 
Q 1150 3584 1784 3584 
Q 2172 3584 2448 3432 
Q 2725 3281 2906 2969 
z
M 947 1747 
Q 947 1113 1208 752 
Q 1469 391 1925 391 
Q 2381 391 2643 752 
Q 2906 1113 2906 1747 
Q 2906 2381 2643 2742 
Q 2381 3103 1925 3103 
Q 1469 3103 1208 2742 
Q 947 2381 947 1747 
z
" transform="scale(0.015625)"/>
       <path id="DejaVuSans-65" d="M 3597 1894 
L 3597 1613 
L 953 1613 
Q 991 1019 1311 708 
Q 1631 397 2203 397 
Q 2534 397 2845 478 
Q 3156 559 3463 722 
L 3463 178 
Q 3153 47 2828 -22 
Q 2503 -91 2169 -91 
Q 1331 -91 842 396 
Q 353 884 353 1716 
Q 353 2575 817 3079 
Q 1281 3584 2069 3584 
Q 2775 3584 3186 3129 
Q 3597 2675 3597 1894 
z
M 3022 2063 
Q 3016 2534 2758 2815 
Q 2500 3097 2075 3097 
Q 1594 3097 1305 2825 
Q 1016 2553 972 2059 
L 3022 2063 
z
" transform="scale(0.015625)"/>
       <path id="DejaVuSans-63" d="M 3122 3366 
L 3122 2828 
Q 2878 2963 2633 3030 
Q 2388 3097 2138 3097 
Q 1578 3097 1268 2742 
Q 959 2388 959 1747 
Q 959 1106 1268 751 
Q 1578 397 2138 397 
Q 2388 397 2633 464 
Q 2878 531 3122 666 
L 3122 134 
Q 2881 22 2623 -34 
Q 2366 -91 2075 -91 
Q 1284 -91 818 406 
Q 353 903 353 1747 
Q 353 2603 823 3093 
Q 1294 3584 2113 3584 
Q 2378 3584 2631 3529 
Q 2884 3475 3122 3366 
z
" transform="scale(0.015625)"/>
      </defs>
      <use xlink:href="#DejaVuSans-50"/>
      <use xlink:href="#DejaVuSans-72" x="58.552734"/>
      <use xlink:href="#DejaVuSans-6f" x="97.416016"/>
      <use xlink:href="#DejaVuSans-70" x="158.597656"/>
      <use xlink:href="#DejaVuSans-61" x="222.074219"/>
      <use xlink:href="#DejaVuSans-67" x="283.353516"/>
      <use xlink:href="#DejaVuSans-61" x="346.830078"/>
      <use xlink:href="#DejaVuSans-74" x="408.109375"/>
      <use xlink:href="#DejaVuSans-69" x="447.318359"/>
      <use xlink:href="#DejaVuSans-6f" x="475.101562"/>
      <use xlink:href="#DejaVuSans-6e" x="536.283203"/>
      <use xlink:href="#DejaVuSans-20" x="599.662109"/>
      <use xlink:href="#DejaVuSans-64" x="631.449219"/>
      <use xlink:href="#DejaVuSans-69" x="694.925781"/>
      <use xlink:href="#DejaVuSans-72" x="722.708984"/>
      <use xlink:href="#DejaVuSans-65" x="761.572266"/>
      <use xlink:href="#DejaVuSans-63" x="823.095703"/>
      <use xlink:href="#DejaVuSans-74" x="878.076172"/>
      <use xlink:href="#DejaVuSans-69" x="917.285156"/>
      <use xlink:href="#DejaVuSans-6f" x="945.068359"/>
      <use xlink:href="#DejaVuSans-6e" x="1006.25"/>
     </g>
    </g>
   </g>
   <g id="matplotlib.axis_2">
    <g id="ytick_1">
     <g id="line2d_7">
      <defs>
       <path id="mad43255b97" d="M 0 0 
L -3.5 0 
" style="stroke: #000000; stroke-width: 0.8"/>
      </defs>
      <g>
       <use xlink:href="#mad43255b97" x="50.14375" y="273.312" style="stroke: #000000; stroke-width: 0.8"/>
      </g>
     </g>
     <g id="text_8">
      <!-- 0.00 -->
      <g transform="translate(20.878125 277.111219)scale(0.1 -0.1)">
       <use xlink:href="#DejaVuSans-30"/>
       <use xlink:href="#DejaVuSans-2e" x="63.623047"/>
       <use xlink:href="#DejaVuSans-30" x="95.410156"/>
       <use xlink:href="#DejaVuSans-30" x="159.033203"/>
      </g>
     </g>
    </g>
    <g id="ytick_2">
     <g id="line2d_8">
      <g>
       <use xlink:href="#mad43255b97" x="50.14375" y="243.659788" style="stroke: #000000; stroke-width: 0.8"/>
      </g>
     </g>
     <g id="text_9">
      <!-- 0.25 -->
      <g transform="translate(20.878125 247.459007)scale(0.1 -0.1)">
       <defs>
        <path id="DejaVuSans-35" d="M 691 4666 
L 3169 4666 
L 3169 4134 
L 1269 4134 
L 1269 2991 
Q 1406 3038 1543 3061 
Q 1681 3084 1819 3084 
Q 2600 3084 3056 2656 
Q 3513 2228 3513 1497 
Q 3513 744 3044 326 
Q 2575 -91 1722 -91 
Q 1428 -91 1123 -41 
Q 819 9 494 109 
L 494 744 
Q 775 591 1075 516 
Q 1375 441 1709 441 
Q 2250 441 2565 725 
Q 2881 1009 2881 1497 
Q 2881 1984 2565 2268 
Q 2250 2553 1709 2553 
Q 1456 2553 1204 2497 
Q 953 2441 691 2322 
L 691 4666 
z
" transform="scale(0.015625)"/>
       </defs>
       <use xlink:href="#DejaVuSans-30"/>
       <use xlink:href="#DejaVuSans-2e" x="63.623047"/>
       <use xlink:href="#DejaVuSans-32" x="95.410156"/>
       <use xlink:href="#DejaVuSans-35" x="159.033203"/>
      </g>
     </g>
    </g>
    <g id="ytick_3">
     <g id="line2d_9">
      <g>
       <use xlink:href="#mad43255b97" x="50.14375" y="214.007577" style="stroke: #000000; stroke-width: 0.8"/>
      </g>
     </g>
     <g id="text_10">
      <!-- 0.50 -->
      <g transform="translate(20.878125 217.806796)scale(0.1 -0.1)">
       <use xlink:href="#DejaVuSans-30"/>
       <use xlink:href="#DejaVuSans-2e" x="63.623047"/>
       <use xlink:href="#DejaVuSans-35" x="95.410156"/>
       <use xlink:href="#DejaVuSans-30" x="159.033203"/>
      </g>
     </g>
    </g>
    <g id="ytick_4">
     <g id="line2d_10">
      <g>
       <use xlink:href="#mad43255b97" x="50.14375" y="184.355365" style="stroke: #000000; stroke-width: 0.8"/>
      </g>
     </g>
     <g id="text_11">
      <!-- 0.75 -->
      <g transform="translate(20.878125 188.154584)scale(0.1 -0.1)">
       <defs>
        <path id="DejaVuSans-37" d="M 525 4666 
L 3525 4666 
L 3525 4397 
L 1831 0 
L 1172 0 
L 2766 4134 
L 525 4134 
L 525 4666 
z
" transform="scale(0.015625)"/>
       </defs>
       <use xlink:href="#DejaVuSans-30"/>
       <use xlink:href="#DejaVuSans-2e" x="63.623047"/>
       <use xlink:href="#DejaVuSans-37" x="95.410156"/>
       <use xlink:href="#DejaVuSans-35" x="159.033203"/>
      </g>
     </g>
    </g>
    <g id="ytick_5">
     <g id="line2d_11">
      <g>
       <use xlink:href="#mad43255b97" x="50.14375" y="154.703154" style="stroke: #000000; stroke-width: 0.8"/>
      </g>
     </g>
     <g id="text_12">
      <!-- 1.00 -->
      <g transform="translate(20.878125 158.502373)scale(0.1 -0.1)">
       <use xlink:href="#DejaVuSans-31"/>
       <use xlink:href="#DejaVuSans-2e" x="63.623047"/>
       <use xlink:href="#DejaVuSans-30" x="95.410156"/>
       <use xlink:href="#DejaVuSans-30" x="159.033203"/>
      </g>
     </g>
    </g>
    <g id="ytick_6">
     <g id="line2d_12">
      <g>
       <use xlink:href="#mad43255b97" x="50.14375" y="125.050942" style="stroke: #000000; stroke-width: 0.8"/>
      </g>
     </g>
     <g id="text_13">
      <!-- 1.25 -->
      <g transform="translate(20.878125 128.850161)scale(0.1 -0.1)">
       <use xlink:href="#DejaVuSans-31"/>
       <use xlink:href="#DejaVuSans-2e" x="63.623047"/>
       <use xlink:href="#DejaVuSans-32" x="95.410156"/>
       <use xlink:href="#DejaVuSans-35" x="159.033203"/>
      </g>
     </g>
    </g>
    <g id="ytick_7">
     <g id="line2d_13">
      <g>
       <use xlink:href="#mad43255b97" x="50.14375" y="95.398731" style="stroke: #000000; stroke-width: 0.8"/>
      </g>
     </g>
     <g id="text_14">
      <!-- 1.50 -->
      <g transform="translate(20.878125 99.19795)scale(0.1 -0.1)">
       <use xlink:href="#DejaVuSans-31"/>
       <use xlink:href="#DejaVuSans-2e" x="63.623047"/>
       <use xlink:href="#DejaVuSans-35" x="95.410156"/>
       <use xlink:href="#DejaVuSans-30" x="159.033203"/>
      </g>
     </g>
    </g>
    <g id="ytick_8">
     <g id="line2d_14">
      <g>
       <use xlink:href="#mad43255b97" x="50.14375" y="65.746519" style="stroke: #000000; stroke-width: 0.8"/>
      </g>
     </g>
     <g id="text_15">
      <!-- 1.75 -->
      <g transform="translate(20.878125 69.545738)scale(0.1 -0.1)">
       <use xlink:href="#DejaVuSans-31"/>
       <use xlink:href="#DejaVuSans-2e" x="63.623047"/>
       <use xlink:href="#DejaVuSans-37" x="95.410156"/>
       <use xlink:href="#DejaVuSans-35" x="159.033203"/>
      </g>
     </g>
    </g>
    <g id="ytick_9">
     <g id="line2d_15">
      <g>
       <use xlink:href="#mad43255b97" x="50.14375" y="36.094308" style="stroke: #000000; stroke-width: 0.8"/>
      </g>
     </g>
     <g id="text_16">
      <!-- 2.00 -->
      <g transform="translate(20.878125 39.893526)scale(0.1 -0.1)">
       <use xlink:href="#DejaVuSans-32"/>
       <use xlink:href="#DejaVuSans-2e" x="63.623047"/>
       <use xlink:href="#DejaVuSans-30" x="95.410156"/>
       <use xlink:href="#DejaVuSans-30" x="159.033203"/>
      </g>
     </g>
    </g>
    <g id="text_17">
     <!-- Probability density -->
     <g transform="translate(14.798438 186.606781)rotate(-90)scale(0.1 -0.1)">
      <defs>
       <path id="DejaVuSans-62" d="M 3116 1747 
Q 3116 2381 2855 2742 
Q 2594 3103 2138 3103 
Q 1681 3103 1420 2742 
Q 1159 2381 1159 1747 
Q 1159 1113 1420 752 
Q 1681 391 2138 391 
Q 2594 391 2855 752 
Q 3116 1113 3116 1747 
z
M 1159 2969 
Q 1341 3281 1617 3432 
Q 1894 3584 2278 3584 
Q 2916 3584 3314 3078 
Q 3713 2572 3713 1747 
Q 3713 922 3314 415 
Q 2916 -91 2278 -91 
Q 1894 -91 1617 61 
Q 1341 213 1159 525 
L 1159 0 
L 581 0 
L 581 4863 
L 1159 4863 
L 1159 2969 
z
" transform="scale(0.015625)"/>
       <path id="DejaVuSans-6c" d="M 603 4863 
L 1178 4863 
L 1178 0 
L 603 0 
L 603 4863 
z
" transform="scale(0.015625)"/>
       <path id="DejaVuSans-79" d="M 2059 -325 
Q 1816 -950 1584 -1140 
Q 1353 -1331 966 -1331 
L 506 -1331 
L 506 -850 
L 844 -850 
Q 1081 -850 1212 -737 
Q 1344 -625 1503 -206 
L 1606 56 
L 191 3500 
L 800 3500 
L 1894 763 
L 2988 3500 
L 3597 3500 
L 2059 -325 
z
" transform="scale(0.015625)"/>
       <path id="DejaVuSans-73" d="M 2834 3397 
L 2834 2853 
Q 2591 2978 2328 3040 
Q 2066 3103 1784 3103 
Q 1356 3103 1142 2972 
Q 928 2841 928 2578 
Q 928 2378 1081 2264 
Q 1234 2150 1697 2047 
L 1894 2003 
Q 2506 1872 2764 1633 
Q 3022 1394 3022 966 
Q 3022 478 2636 193 
Q 2250 -91 1575 -91 
Q 1294 -91 989 -36 
Q 684 19 347 128 
L 347 722 
Q 666 556 975 473 
Q 1284 391 1588 391 
Q 1994 391 2212 530 
Q 2431 669 2431 922 
Q 2431 1156 2273 1281 
Q 2116 1406 1581 1522 
L 1381 1569 
Q 847 1681 609 1914 
Q 372 2147 372 2553 
Q 372 3047 722 3315 
Q 1072 3584 1716 3584 
Q 2034 3584 2315 3537 
Q 2597 3491 2834 3397 
z
" transform="scale(0.015625)"/>
      </defs>
      <use xlink:href="#DejaVuSans-50"/>
      <use xlink:href="#DejaVuSans-72" x="58.552734"/>
      <use xlink:href="#DejaVuSans-6f" x="97.416016"/>
      <use xlink:href="#DejaVuSans-62" x="158.597656"/>
      <use xlink:href="#DejaVuSans-61" x="222.074219"/>
      <use xlink:href="#DejaVuSans-62" x="283.353516"/>
      <use xlink:href="#DejaVuSans-69" x="346.830078"/>
      <use xlink:href="#DejaVuSans-6c" x="374.613281"/>
      <use xlink:href="#DejaVuSans-69" x="402.396484"/>
      <use xlink:href="#DejaVuSans-74" x="430.179688"/>
      <use xlink:href="#DejaVuSans-79" x="469.388672"/>
      <use xlink:href="#DejaVuSans-20" x="528.568359"/>
      <use xlink:href="#DejaVuSans-64" x="560.355469"/>
      <use xlink:href="#DejaVuSans-65" x="623.832031"/>
      <use xlink:href="#DejaVuSans-6e" x="685.355469"/>
      <use xlink:href="#DejaVuSans-73" x="748.734375"/>
      <use xlink:href="#DejaVuSans-69" x="800.833984"/>
      <use xlink:href="#DejaVuSans-74" x="828.617188"/>
      <use xlink:href="#DejaVuSans-79" x="867.826172"/>
     </g>
    </g>
   </g>
   <g id="line2d_16">
    <path d="M 66.376477 273.312 
L 391.031023 36.094308 
L 391.031023 36.094308 
" clip-path="url(#pc10a192ae7)" style="fill: none; stroke: #ff7f0e; stroke-width: 1.5; stroke-linecap: square"/>
   </g>
   <g id="patch_203">
    <path d="M 50.14375 273.312 
L 50.14375 7.2 
" style="fill: none; stroke: #000000; stroke-width: 0.8; stroke-linejoin: miter; stroke-linecap: square"/>
   </g>
   <g id="patch_204">
    <path d="M 407.26375 273.312 
L 407.26375 7.2 
" style="fill: none; stroke: #000000; stroke-width: 0.8; stroke-linejoin: miter; stroke-linecap: square"/>
   </g>
   <g id="patch_205">
    <path d="M 50.14375 273.312 
L 407.26375 273.312 
" style="fill: none; stroke: #000000; stroke-width: 0.8; stroke-linejoin: miter; stroke-linecap: square"/>
   </g>
   <g id="patch_206">
    <path d="M 50.14375 7.2 
L 407.26375 7.2 
" style="fill: none; stroke: #000000; stroke-width: 0.8; stroke-linejoin: miter; stroke-linecap: square"/>
   </g>
  </g>
 </g>
 <defs>
  <clipPath id="pc10a192ae7">
   <rect x="50.14375" y="7.2" width="357.12" height="266.112"/>
  </clipPath>
 </defs>
</svg>
