<?xml version="1.0" encoding="utf-8" standalone="no"?>
<!DOCTYPE svg PUBLIC "-//W3C//DTD SVG 1.1//EN"
  "http://www.w3.org/Graphics/SVG/1.1/DTD/svg11.dtd">
<svg xmlns:xlink="http://www.w3.org/1999/xlink" width="408.10125pt" height="310.86825pt" viewBox="0 0 408.10125 310.86825" xmlns="http://www.w3.org/2000/svg" version="1.1">
 <metadata>
  <rdf:RDF xmlns:dc="http://purl.org/dc/elements/1.1/" xmlns:cc="http://creativecommons.org/ns#" xmlns:rdf="http://www.w3.org/1999/02/22-rdf-syntax-ns#">
   <cc:Work>
    <dc:type rdf:resource="http://purl.org/dc/dcmitype/StillImage"/>
    <dc:date>2022-11-17T18:10:35.800913</dc:date>
    <dc:format>image/svg+xml</dc:format>
    <dc:creator>
     <cc:Agent>
      <dc:title>Matplotlib v3.5.3, https://matplotlib.org/</dc:title>
     </cc:Agent>
    </dc:creator>
   </cc:Work>
  </rdf:RDF>
 </metadata>
 <defs>
  <style type="text/css">*{stroke-linejoin: round; stroke-linecap: butt}</style>
 </defs>
 <g id="figure_1">
  <g id="patch_1">
   <path d="M 0 310.86825 
L 408.10125 310.86825 
L 408.10125 0 
L 0 0 
z
" style="fill: #ffffff"/>
  </g>
  <g id="axes_1">
   <g id="patch_2">
    <path d="M 43.78125 273.312 
L 400.90125 273.312 
L 400.90125 7.2 
L 43.78125 7.2 
z
" style="fill: #ffffff"/>
   </g>
   <g id="patch_3">
    <path d="M 61.127148 273.312 
L 62.739177 273.312 
L 62.739177 270.267676 
L 61.127148 270.267676 
z
" clip-path="url(#pe8c68b9a9c)" style="fill: #1f77b4"/>
   </g>
   <g id="patch_4">
    <path d="M 62.739177 273.312 
L 64.351206 273.312 
L 64.351206 265.701189 
L 62.739177 265.701189 
z
" clip-path="url(#pe8c68b9a9c)" style="fill: #1f77b4"/>
   </g>
   <g id="patch_5">
    <path d="M 64.351206 273.312 
L 65.963234 273.312 
L 65.963234 264.940108 
L 64.351206 264.940108 
z
" clip-path="url(#pe8c68b9a9c)" style="fill: #1f77b4"/>
   </g>
   <g id="patch_6">
    <path d="M 65.963234 273.312 
L 67.575263 273.312 
L 67.575263 260.373622 
L 65.963234 260.373622 
z
" clip-path="url(#pe8c68b9a9c)" style="fill: #1f77b4"/>
   </g>
   <g id="patch_7">
    <path d="M 67.575263 273.312 
L 69.187292 273.312 
L 69.187292 255.046054 
L 67.575263 255.046054 
z
" clip-path="url(#pe8c68b9a9c)" style="fill: #1f77b4"/>
   </g>
   <g id="patch_8">
    <path d="M 69.187292 273.312 
L 70.799321 273.312 
L 70.799321 251.240649 
L 69.187292 251.240649 
z
" clip-path="url(#pe8c68b9a9c)" style="fill: #1f77b4"/>
   </g>
   <g id="patch_9">
    <path d="M 70.799321 273.312 
L 72.41135 273.312 
L 72.41135 245.152 
L 70.799321 245.152 
z
" clip-path="url(#pe8c68b9a9c)" style="fill: #1f77b4"/>
   </g>
   <g id="patch_10">
    <path d="M 72.41135 273.312 
L 74.023378 273.312 
L 74.023378 246.674162 
L 72.41135 246.674162 
z
" clip-path="url(#pe8c68b9a9c)" style="fill: #1f77b4"/>
   </g>
   <g id="patch_11">
    <path d="M 74.023378 273.312 
L 75.635407 273.312 
L 75.635407 237.541189 
L 74.023378 237.541189 
z
" clip-path="url(#pe8c68b9a9c)" style="fill: #1f77b4"/>
   </g>
   <g id="patch_12">
    <path d="M 75.635407 273.312 
L 77.247436 273.312 
L 77.247436 242.107676 
L 75.635407 242.107676 
z
" clip-path="url(#pe8c68b9a9c)" style="fill: #1f77b4"/>
   </g>
   <g id="patch_13">
    <path d="M 77.247436 273.312 
L 78.859465 273.312 
L 78.859465 227.647135 
L 77.247436 227.647135 
z
" clip-path="url(#pe8c68b9a9c)" style="fill: #1f77b4"/>
   </g>
   <g id="patch_14">
    <path d="M 78.859465 273.312 
L 80.471494 273.312 
L 80.471494 228.408216 
L 78.859465 228.408216 
z
" clip-path="url(#pe8c68b9a9c)" style="fill: #1f77b4"/>
   </g>
   <g id="patch_15">
    <path d="M 80.471494 273.312 
L 82.083522 273.312 
L 82.083522 224.602811 
L 80.471494 224.602811 
z
" clip-path="url(#pe8c68b9a9c)" style="fill: #1f77b4"/>
   </g>
   <g id="patch_16">
    <path d="M 82.083522 273.312 
L 83.695551 273.312 
L 83.695551 222.319568 
L 82.083522 222.319568 
z
" clip-path="url(#pe8c68b9a9c)" style="fill: #1f77b4"/>
   </g>
   <g id="patch_17">
    <path d="M 83.695551 273.312 
L 85.30758 273.312 
L 85.30758 226.124973 
L 83.695551 226.124973 
z
" clip-path="url(#pe8c68b9a9c)" style="fill: #1f77b4"/>
   </g>
   <g id="patch_18">
    <path d="M 85.30758 273.312 
L 86.919609 273.312 
L 86.919609 220.036324 
L 85.30758 220.036324 
z
" clip-path="url(#pe8c68b9a9c)" style="fill: #1f77b4"/>
   </g>
   <g id="patch_19">
    <path d="M 86.919609 273.312 
L 88.531638 273.312 
L 88.531638 202.531459 
L 86.919609 202.531459 
z
" clip-path="url(#pe8c68b9a9c)" style="fill: #1f77b4"/>
   </g>
   <g id="patch_20">
    <path d="M 88.531638 273.312 
L 90.143666 273.312 
L 90.143666 201.770378 
L 88.531638 201.770378 
z
" clip-path="url(#pe8c68b9a9c)" style="fill: #1f77b4"/>
   </g>
   <g id="patch_21">
    <path d="M 90.143666 273.312 
L 91.755695 273.312 
L 91.755695 210.903351 
L 90.143666 210.903351 
z
" clip-path="url(#pe8c68b9a9c)" style="fill: #1f77b4"/>
   </g>
   <g id="patch_22">
    <path d="M 91.755695 273.312 
L 93.367724 273.312 
L 93.367724 207.859027 
L 91.755695 207.859027 
z
" clip-path="url(#pe8c68b9a9c)" style="fill: #1f77b4"/>
   </g>
   <g id="patch_23">
    <path d="M 93.367724 273.312 
L 94.979753 273.312 
L 94.979753 181.221189 
L 93.367724 181.221189 
z
" clip-path="url(#pe8c68b9a9c)" style="fill: #1f77b4"/>
   </g>
   <g id="patch_24">
    <path d="M 94.979753 273.312 
L 96.591781 273.312 
L 96.591781 185.787676 
L 94.979753 185.787676 
z
" clip-path="url(#pe8c68b9a9c)" style="fill: #1f77b4"/>
   </g>
   <g id="patch_25">
    <path d="M 96.591781 273.312 
L 98.20381 273.312 
L 98.20381 183.504432 
L 96.591781 183.504432 
z
" clip-path="url(#pe8c68b9a9c)" style="fill: #1f77b4"/>
   </g>
   <g id="patch_26">
    <path d="M 98.20381 273.312 
L 99.815839 273.312 
L 99.815839 191.115243 
L 98.20381 191.115243 
z
" clip-path="url(#pe8c68b9a9c)" style="fill: #1f77b4"/>
   </g>
   <g id="patch_27">
    <path d="M 99.815839 273.312 
L 101.427868 273.312 
L 101.427868 191.876324 
L 99.815839 191.876324 
z
" clip-path="url(#pe8c68b9a9c)" style="fill: #1f77b4"/>
   </g>
   <g id="patch_28">
    <path d="M 101.427868 273.312 
L 103.039897 273.312 
L 103.039897 186.548757 
L 101.427868 186.548757 
z
" clip-path="url(#pe8c68b9a9c)" style="fill: #1f77b4"/>
   </g>
   <g id="patch_29">
    <path d="M 103.039897 273.312 
L 104.651925 273.312 
L 104.651925 185.787676 
L 103.039897 185.787676 
z
" clip-path="url(#pe8c68b9a9c)" style="fill: #1f77b4"/>
   </g>
   <g id="patch_30">
    <path d="M 104.651925 273.312 
L 106.263954 273.312 
L 106.263954 172.088216 
L 104.651925 172.088216 
z
" clip-path="url(#pe8c68b9a9c)" style="fill: #1f77b4"/>
   </g>
   <g id="patch_31">
    <path d="M 106.263954 273.312 
L 107.875983 273.312 
L 107.875983 161.433081 
L 106.263954 161.433081 
z
" clip-path="url(#pe8c68b9a9c)" style="fill: #1f77b4"/>
   </g>
   <g id="patch_32">
    <path d="M 107.875983 273.312 
L 109.488012 273.312 
L 109.488012 164.477405 
L 107.875983 164.477405 
z
" clip-path="url(#pe8c68b9a9c)" style="fill: #1f77b4"/>
   </g>
   <g id="patch_33">
    <path d="M 109.488012 273.312 
L 111.100041 273.312 
L 111.100041 166.760649 
L 109.488012 166.760649 
z
" clip-path="url(#pe8c68b9a9c)" style="fill: #1f77b4"/>
   </g>
   <g id="patch_34">
    <path d="M 111.100041 273.312 
L 112.712069 273.312 
L 112.712069 147.733622 
L 111.100041 147.733622 
z
" clip-path="url(#pe8c68b9a9c)" style="fill: #1f77b4"/>
   </g>
   <g id="patch_35">
    <path d="M 112.712069 273.312 
L 114.324098 273.312 
L 114.324098 140.883892 
L 112.712069 140.883892 
z
" clip-path="url(#pe8c68b9a9c)" style="fill: #1f77b4"/>
   </g>
   <g id="patch_36">
    <path d="M 114.324098 273.312 
L 115.936127 273.312 
L 115.936127 130.228757 
L 114.324098 130.228757 
z
" clip-path="url(#pe8c68b9a9c)" style="fill: #1f77b4"/>
   </g>
   <g id="patch_37">
    <path d="M 115.936127 273.312 
L 117.548156 273.312 
L 117.548156 159.910919 
L 115.936127 159.910919 
z
" clip-path="url(#pe8c68b9a9c)" style="fill: #1f77b4"/>
   </g>
   <g id="patch_38">
    <path d="M 117.548156 273.312 
L 119.160184 273.312 
L 119.160184 159.149838 
L 117.548156 159.149838 
z
" clip-path="url(#pe8c68b9a9c)" style="fill: #1f77b4"/>
   </g>
   <g id="patch_39">
    <path d="M 119.160184 273.312 
L 120.772213 273.312 
L 120.772213 140.122811 
L 119.160184 140.122811 
z
" clip-path="url(#pe8c68b9a9c)" style="fill: #1f77b4"/>
   </g>
   <g id="patch_40">
    <path d="M 120.772213 273.312 
L 122.384242 273.312 
L 122.384242 146.972541 
L 120.772213 146.972541 
z
" clip-path="url(#pe8c68b9a9c)" style="fill: #1f77b4"/>
   </g>
   <g id="patch_41">
    <path d="M 122.384242 273.312 
L 123.996271 273.312 
L 123.996271 140.122811 
L 122.384242 140.122811 
z
" clip-path="url(#pe8c68b9a9c)" style="fill: #1f77b4"/>
   </g>
   <g id="patch_42">
    <path d="M 123.996271 273.312 
L 125.6083 273.312 
L 125.6083 121.095784 
L 123.996271 121.095784 
z
" clip-path="url(#pe8c68b9a9c)" style="fill: #1f77b4"/>
   </g>
   <g id="patch_43">
    <path d="M 125.6083 273.312 
L 127.220328 273.312 
L 127.220328 156.866595 
L 125.6083 156.866595 
z
" clip-path="url(#pe8c68b9a9c)" style="fill: #1f77b4"/>
   </g>
   <g id="patch_44">
    <path d="M 127.220328 273.312 
L 128.832357 273.312 
L 128.832357 115.007135 
L 127.220328 115.007135 
z
" clip-path="url(#pe8c68b9a9c)" style="fill: #1f77b4"/>
   </g>
   <g id="patch_45">
    <path d="M 128.832357 273.312 
L 130.444386 273.312 
L 130.444386 136.317405 
L 128.832357 136.317405 
z
" clip-path="url(#pe8c68b9a9c)" style="fill: #1f77b4"/>
   </g>
   <g id="patch_46">
    <path d="M 130.444386 273.312 
L 132.056415 273.312 
L 132.056415 118.812541 
L 130.444386 118.812541 
z
" clip-path="url(#pe8c68b9a9c)" style="fill: #1f77b4"/>
   </g>
   <g id="patch_47">
    <path d="M 132.056415 273.312 
L 133.668444 273.312 
L 133.668444 108.918486 
L 132.056415 108.918486 
z
" clip-path="url(#pe8c68b9a9c)" style="fill: #1f77b4"/>
   </g>
   <g id="patch_48">
    <path d="M 133.668444 273.312 
L 135.280472 273.312 
L 135.280472 127.184432 
L 133.668444 127.184432 
z
" clip-path="url(#pe8c68b9a9c)" style="fill: #1f77b4"/>
   </g>
   <g id="patch_49">
    <path d="M 135.280472 273.312 
L 136.892501 273.312 
L 136.892501 107.396324 
L 135.280472 107.396324 
z
" clip-path="url(#pe8c68b9a9c)" style="fill: #1f77b4"/>
   </g>
   <g id="patch_50">
    <path d="M 136.892501 273.312 
L 138.50453 273.312 
L 138.50453 115.768216 
L 136.892501 115.768216 
z
" clip-path="url(#pe8c68b9a9c)" style="fill: #1f77b4"/>
   </g>
   <g id="patch_51">
    <path d="M 138.50453 273.312 
L 140.116559 273.312 
L 140.116559 108.918486 
L 138.50453 108.918486 
z
" clip-path="url(#pe8c68b9a9c)" style="fill: #1f77b4"/>
   </g>
   <g id="patch_52">
    <path d="M 140.116559 273.312 
L 141.728587 273.312 
L 141.728587 109.679568 
L 140.116559 109.679568 
z
" clip-path="url(#pe8c68b9a9c)" style="fill: #1f77b4"/>
   </g>
   <g id="patch_53">
    <path d="M 141.728587 273.312 
L 143.340616 273.312 
L 143.340616 133.273081 
L 141.728587 133.273081 
z
" clip-path="url(#pe8c68b9a9c)" style="fill: #1f77b4"/>
   </g>
   <g id="patch_54">
    <path d="M 143.340616 273.312 
L 144.952645 273.312 
L 144.952645 88.369297 
L 143.340616 88.369297 
z
" clip-path="url(#pe8c68b9a9c)" style="fill: #1f77b4"/>
   </g>
   <g id="patch_55">
    <path d="M 144.952645 273.312 
L 146.564674 273.312 
L 146.564674 104.352 
L 144.952645 104.352 
z
" clip-path="url(#pe8c68b9a9c)" style="fill: #1f77b4"/>
   </g>
   <g id="patch_56">
    <path d="M 146.564674 273.312 
L 148.176703 273.312 
L 148.176703 70.864432 
L 146.564674 70.864432 
z
" clip-path="url(#pe8c68b9a9c)" style="fill: #1f77b4"/>
   </g>
   <g id="patch_57">
    <path d="M 148.176703 273.312 
L 149.788731 273.312 
L 149.788731 89.891459 
L 148.176703 89.891459 
z
" clip-path="url(#pe8c68b9a9c)" style="fill: #1f77b4"/>
   </g>
   <g id="patch_58">
    <path d="M 149.788731 273.312 
L 151.40076 273.312 
L 151.40076 89.891459 
L 149.788731 89.891459 
z
" clip-path="url(#pe8c68b9a9c)" style="fill: #1f77b4"/>
   </g>
   <g id="patch_59">
    <path d="M 151.40076 273.312 
L 153.012789 273.312 
L 153.012789 70.864432 
L 151.40076 70.864432 
z
" clip-path="url(#pe8c68b9a9c)" style="fill: #1f77b4"/>
   </g>
   <g id="patch_60">
    <path d="M 153.012789 273.312 
L 154.624818 273.312 
L 154.624818 85.324973 
L 153.012789 85.324973 
z
" clip-path="url(#pe8c68b9a9c)" style="fill: #1f77b4"/>
   </g>
   <g id="patch_61">
    <path d="M 154.624818 273.312 
L 156.236847 273.312 
L 156.236847 88.369297 
L 154.624818 88.369297 
z
" clip-path="url(#pe8c68b9a9c)" style="fill: #1f77b4"/>
   </g>
   <g id="patch_62">
    <path d="M 156.236847 273.312 
L 157.848875 273.312 
L 157.848875 93.696865 
L 156.236847 93.696865 
z
" clip-path="url(#pe8c68b9a9c)" style="fill: #1f77b4"/>
   </g>
   <g id="patch_63">
    <path d="M 157.848875 273.312 
L 159.460904 273.312 
L 159.460904 87.608216 
L 157.848875 87.608216 
z
" clip-path="url(#pe8c68b9a9c)" style="fill: #1f77b4"/>
   </g>
   <g id="patch_64">
    <path d="M 159.460904 273.312 
L 161.072933 273.312 
L 161.072933 87.608216 
L 159.460904 87.608216 
z
" clip-path="url(#pe8c68b9a9c)" style="fill: #1f77b4"/>
   </g>
   <g id="patch_65">
    <path d="M 161.072933 273.312 
L 162.684962 273.312 
L 162.684962 72.386595 
L 161.072933 72.386595 
z
" clip-path="url(#pe8c68b9a9c)" style="fill: #1f77b4"/>
   </g>
   <g id="patch_66">
    <path d="M 162.684962 273.312 
L 164.296991 273.312 
L 164.296991 96.741189 
L 162.684962 96.741189 
z
" clip-path="url(#pe8c68b9a9c)" style="fill: #1f77b4"/>
   </g>
   <g id="patch_67">
    <path d="M 164.296991 273.312 
L 165.909019 273.312 
L 165.909019 83.04173 
L 164.296991 83.04173 
z
" clip-path="url(#pe8c68b9a9c)" style="fill: #1f77b4"/>
   </g>
   <g id="patch_68">
    <path d="M 165.909019 273.312 
L 167.521048 273.312 
L 167.521048 60.209297 
L 165.909019 60.209297 
z
" clip-path="url(#pe8c68b9a9c)" style="fill: #1f77b4"/>
   </g>
   <g id="patch_69">
    <path d="M 167.521048 273.312 
L 169.133077 273.312 
L 169.133077 66.297946 
L 167.521048 66.297946 
z
" clip-path="url(#pe8c68b9a9c)" style="fill: #1f77b4"/>
   </g>
   <g id="patch_70">
    <path d="M 169.133077 273.312 
L 170.745106 273.312 
L 170.745106 60.209297 
L 169.133077 60.209297 
z
" clip-path="url(#pe8c68b9a9c)" style="fill: #1f77b4"/>
   </g>
   <g id="patch_71">
    <path d="M 170.745106 273.312 
L 172.357134 273.312 
L 172.357134 51.837405 
L 170.745106 51.837405 
z
" clip-path="url(#pe8c68b9a9c)" style="fill: #1f77b4"/>
   </g>
   <g id="patch_72">
    <path d="M 172.357134 273.312 
L 173.969163 273.312 
L 173.969163 73.147676 
L 172.357134 73.147676 
z
" clip-path="url(#pe8c68b9a9c)" style="fill: #1f77b4"/>
   </g>
   <g id="patch_73">
    <path d="M 173.969163 273.312 
L 175.581192 273.312 
L 175.581192 50.315243 
L 173.969163 50.315243 
z
" clip-path="url(#pe8c68b9a9c)" style="fill: #1f77b4"/>
   </g>
   <g id="patch_74">
    <path d="M 175.581192 273.312 
L 177.193221 273.312 
L 177.193221 66.297946 
L 175.581192 66.297946 
z
" clip-path="url(#pe8c68b9a9c)" style="fill: #1f77b4"/>
   </g>
   <g id="patch_75">
    <path d="M 177.193221 273.312 
L 178.80525 273.312 
L 178.80525 70.864432 
L 177.193221 70.864432 
z
" clip-path="url(#pe8c68b9a9c)" style="fill: #1f77b4"/>
   </g>
   <g id="patch_76">
    <path d="M 178.80525 273.312 
L 180.417278 273.312 
L 180.417278 34.332541 
L 178.80525 34.332541 
z
" clip-path="url(#pe8c68b9a9c)" style="fill: #1f77b4"/>
   </g>
   <g id="patch_77">
    <path d="M 180.417278 273.312 
L 182.029307 273.312 
L 182.029307 73.147676 
L 180.417278 73.147676 
z
" clip-path="url(#pe8c68b9a9c)" style="fill: #1f77b4"/>
   </g>
   <g id="patch_78">
    <path d="M 182.029307 273.312 
L 183.641336 273.312 
L 183.641336 64.014703 
L 182.029307 64.014703 
z
" clip-path="url(#pe8c68b9a9c)" style="fill: #1f77b4"/>
   </g>
   <g id="patch_79">
    <path d="M 183.641336 273.312 
L 185.253365 273.312 
L 185.253365 49.554162 
L 183.641336 49.554162 
z
" clip-path="url(#pe8c68b9a9c)" style="fill: #1f77b4"/>
   </g>
   <g id="patch_80">
    <path d="M 185.253365 273.312 
L 186.865394 273.312 
L 186.865394 34.332541 
L 185.253365 34.332541 
z
" clip-path="url(#pe8c68b9a9c)" style="fill: #1f77b4"/>
   </g>
   <g id="patch_81">
    <path d="M 186.865394 273.312 
L 188.477422 273.312 
L 188.477422 27.482811 
L 186.865394 27.482811 
z
" clip-path="url(#pe8c68b9a9c)" style="fill: #1f77b4"/>
   </g>
   <g id="patch_82">
    <path d="M 188.477422 273.312 
L 190.089451 273.312 
L 190.089451 38.899027 
L 188.477422 38.899027 
z
" clip-path="url(#pe8c68b9a9c)" style="fill: #1f77b4"/>
   </g>
   <g id="patch_83">
    <path d="M 190.089451 273.312 
L 191.70148 273.312 
L 191.70148 39.660108 
L 190.089451 39.660108 
z
" clip-path="url(#pe8c68b9a9c)" style="fill: #1f77b4"/>
   </g>
   <g id="patch_84">
    <path d="M 191.70148 273.312 
L 193.313509 273.312 
L 193.313509 35.093622 
L 191.70148 35.093622 
z
" clip-path="url(#pe8c68b9a9c)" style="fill: #1f77b4"/>
   </g>
   <g id="patch_85">
    <path d="M 193.313509 273.312 
L 194.925537 273.312 
L 194.925537 47.270919 
L 193.313509 47.270919 
z
" clip-path="url(#pe8c68b9a9c)" style="fill: #1f77b4"/>
   </g>
   <g id="patch_86">
    <path d="M 194.925537 273.312 
L 196.537566 273.312 
L 196.537566 44.987676 
L 194.925537 44.987676 
z
" clip-path="url(#pe8c68b9a9c)" style="fill: #1f77b4"/>
   </g>
   <g id="patch_87">
    <path d="M 196.537566 273.312 
L 198.149595 273.312 
L 198.149595 48.032 
L 196.537566 48.032 
z
" clip-path="url(#pe8c68b9a9c)" style="fill: #1f77b4"/>
   </g>
   <g id="patch_88">
    <path d="M 198.149595 273.312 
L 199.761624 273.312 
L 199.761624 44.987676 
L 198.149595 44.987676 
z
" clip-path="url(#pe8c68b9a9c)" style="fill: #1f77b4"/>
   </g>
   <g id="patch_89">
    <path d="M 199.761624 273.312 
L 201.373653 273.312 
L 201.373653 49.554162 
L 199.761624 49.554162 
z
" clip-path="url(#pe8c68b9a9c)" style="fill: #1f77b4"/>
   </g>
   <g id="patch_90">
    <path d="M 201.373653 273.312 
L 202.985681 273.312 
L 202.985681 25.960649 
L 201.373653 25.960649 
z
" clip-path="url(#pe8c68b9a9c)" style="fill: #1f77b4"/>
   </g>
   <g id="patch_91">
    <path d="M 202.985681 273.312 
L 204.59771 273.312 
L 204.59771 49.554162 
L 202.985681 49.554162 
z
" clip-path="url(#pe8c68b9a9c)" style="fill: #1f77b4"/>
   </g>
   <g id="patch_92">
    <path d="M 204.59771 273.312 
L 206.209739 273.312 
L 206.209739 22.155243 
L 204.59771 22.155243 
z
" clip-path="url(#pe8c68b9a9c)" style="fill: #1f77b4"/>
   </g>
   <g id="patch_93">
    <path d="M 206.209739 273.312 
L 207.821768 273.312 
L 207.821768 37.376865 
L 206.209739 37.376865 
z
" clip-path="url(#pe8c68b9a9c)" style="fill: #1f77b4"/>
   </g>
   <g id="patch_94">
    <path d="M 207.821768 273.312 
L 209.433797 273.312 
L 209.433797 39.660108 
L 207.821768 39.660108 
z
" clip-path="url(#pe8c68b9a9c)" style="fill: #1f77b4"/>
   </g>
   <g id="patch_95">
    <path d="M 209.433797 273.312 
L 211.045825 273.312 
L 211.045825 30.527135 
L 209.433797 30.527135 
z
" clip-path="url(#pe8c68b9a9c)" style="fill: #1f77b4"/>
   </g>
   <g id="patch_96">
    <path d="M 211.045825 273.312 
L 212.657854 273.312 
L 212.657854 60.209297 
L 211.045825 60.209297 
z
" clip-path="url(#pe8c68b9a9c)" style="fill: #1f77b4"/>
   </g>
   <g id="patch_97">
    <path d="M 212.657854 273.312 
L 214.269883 273.312 
L 214.269883 43.465514 
L 212.657854 43.465514 
z
" clip-path="url(#pe8c68b9a9c)" style="fill: #1f77b4"/>
   </g>
   <g id="patch_98">
    <path d="M 214.269883 273.312 
L 215.881912 273.312 
L 215.881912 29.004973 
L 214.269883 29.004973 
z
" clip-path="url(#pe8c68b9a9c)" style="fill: #1f77b4"/>
   </g>
   <g id="patch_99">
    <path d="M 215.881912 273.312 
L 217.49394 273.312 
L 217.49394 28.243892 
L 215.881912 28.243892 
z
" clip-path="url(#pe8c68b9a9c)" style="fill: #1f77b4"/>
   </g>
   <g id="patch_100">
    <path d="M 217.49394 273.312 
L 219.105969 273.312 
L 219.105969 32.810378 
L 217.49394 32.810378 
z
" clip-path="url(#pe8c68b9a9c)" style="fill: #1f77b4"/>
   </g>
   <g id="patch_101">
    <path d="M 219.105969 273.312 
L 220.717998 273.312 
L 220.717998 44.987676 
L 219.105969 44.987676 
z
" clip-path="url(#pe8c68b9a9c)" style="fill: #1f77b4"/>
   </g>
   <g id="patch_102">
    <path d="M 220.717998 273.312 
L 222.330027 273.312 
L 222.330027 22.916324 
L 220.717998 22.916324 
z
" clip-path="url(#pe8c68b9a9c)" style="fill: #1f77b4"/>
   </g>
   <g id="patch_103">
    <path d="M 222.330027 273.312 
L 223.942056 273.312 
L 223.942056 41.943351 
L 222.330027 41.943351 
z
" clip-path="url(#pe8c68b9a9c)" style="fill: #1f77b4"/>
   </g>
   <g id="patch_104">
    <path d="M 223.942056 273.312 
L 225.554084 273.312 
L 225.554084 33.571459 
L 223.942056 33.571459 
z
" clip-path="url(#pe8c68b9a9c)" style="fill: #1f77b4"/>
   </g>
   <g id="patch_105">
    <path d="M 225.554084 273.312 
L 227.166113 273.312 
L 227.166113 19.872 
L 225.554084 19.872 
z
" clip-path="url(#pe8c68b9a9c)" style="fill: #1f77b4"/>
   </g>
   <g id="patch_106">
    <path d="M 227.166113 273.312 
L 228.778142 273.312 
L 228.778142 39.660108 
L 227.166113 39.660108 
z
" clip-path="url(#pe8c68b9a9c)" style="fill: #1f77b4"/>
   </g>
   <g id="patch_107">
    <path d="M 228.778142 273.312 
L 230.390171 273.312 
L 230.390171 73.908757 
L 228.778142 73.908757 
z
" clip-path="url(#pe8c68b9a9c)" style="fill: #1f77b4"/>
   </g>
   <g id="patch_108">
    <path d="M 230.390171 273.312 
L 232.0022 273.312 
L 232.0022 35.093622 
L 230.390171 35.093622 
z
" clip-path="url(#pe8c68b9a9c)" style="fill: #1f77b4"/>
   </g>
   <g id="patch_109">
    <path d="M 232.0022 273.312 
L 233.614228 273.312 
L 233.614228 29.004973 
L 232.0022 29.004973 
z
" clip-path="url(#pe8c68b9a9c)" style="fill: #1f77b4"/>
   </g>
   <g id="patch_110">
    <path d="M 233.614228 273.312 
L 235.226257 273.312 
L 235.226257 23.677405 
L 233.614228 23.677405 
z
" clip-path="url(#pe8c68b9a9c)" style="fill: #1f77b4"/>
   </g>
   <g id="patch_111">
    <path d="M 235.226257 273.312 
L 236.838286 273.312 
L 236.838286 54.120649 
L 235.226257 54.120649 
z
" clip-path="url(#pe8c68b9a9c)" style="fill: #1f77b4"/>
   </g>
   <g id="patch_112">
    <path d="M 236.838286 273.312 
L 238.450315 273.312 
L 238.450315 38.899027 
L 236.838286 38.899027 
z
" clip-path="url(#pe8c68b9a9c)" style="fill: #1f77b4"/>
   </g>
   <g id="patch_113">
    <path d="M 238.450315 273.312 
L 240.062343 273.312 
L 240.062343 43.465514 
L 238.450315 43.465514 
z
" clip-path="url(#pe8c68b9a9c)" style="fill: #1f77b4"/>
   </g>
   <g id="patch_114">
    <path d="M 240.062343 273.312 
L 241.674372 273.312 
L 241.674372 25.199568 
L 240.062343 25.199568 
z
" clip-path="url(#pe8c68b9a9c)" style="fill: #1f77b4"/>
   </g>
   <g id="patch_115">
    <path d="M 241.674372 273.312 
L 243.286401 273.312 
L 243.286401 39.660108 
L 241.674372 39.660108 
z
" clip-path="url(#pe8c68b9a9c)" style="fill: #1f77b4"/>
   </g>
   <g id="patch_116">
    <path d="M 243.286401 273.312 
L 244.89843 273.312 
L 244.89843 31.288216 
L 243.286401 31.288216 
z
" clip-path="url(#pe8c68b9a9c)" style="fill: #1f77b4"/>
   </g>
   <g id="patch_117">
    <path d="M 244.89843 273.312 
L 246.510459 273.312 
L 246.510459 53.359568 
L 244.89843 53.359568 
z
" clip-path="url(#pe8c68b9a9c)" style="fill: #1f77b4"/>
   </g>
   <g id="patch_118">
    <path d="M 246.510459 273.312 
L 248.122487 273.312 
L 248.122487 32.810378 
L 246.510459 32.810378 
z
" clip-path="url(#pe8c68b9a9c)" style="fill: #1f77b4"/>
   </g>
   <g id="patch_119">
    <path d="M 248.122487 273.312 
L 249.734516 273.312 
L 249.734516 41.18227 
L 248.122487 41.18227 
z
" clip-path="url(#pe8c68b9a9c)" style="fill: #1f77b4"/>
   </g>
   <g id="patch_120">
    <path d="M 249.734516 273.312 
L 251.346545 273.312 
L 251.346545 27.482811 
L 249.734516 27.482811 
z
" clip-path="url(#pe8c68b9a9c)" style="fill: #1f77b4"/>
   </g>
   <g id="patch_121">
    <path d="M 251.346545 273.312 
L 252.958574 273.312 
L 252.958574 51.076324 
L 251.346545 51.076324 
z
" clip-path="url(#pe8c68b9a9c)" style="fill: #1f77b4"/>
   </g>
   <g id="patch_122">
    <path d="M 252.958574 273.312 
L 254.570603 273.312 
L 254.570603 55.642811 
L 252.958574 55.642811 
z
" clip-path="url(#pe8c68b9a9c)" style="fill: #1f77b4"/>
   </g>
   <g id="patch_123">
    <path d="M 254.570603 273.312 
L 256.182631 273.312 
L 256.182631 54.120649 
L 254.570603 54.120649 
z
" clip-path="url(#pe8c68b9a9c)" style="fill: #1f77b4"/>
   </g>
   <g id="patch_124">
    <path d="M 256.182631 273.312 
L 257.79466 273.312 
L 257.79466 28.243892 
L 256.182631 28.243892 
z
" clip-path="url(#pe8c68b9a9c)" style="fill: #1f77b4"/>
   </g>
   <g id="patch_125">
    <path d="M 257.79466 273.312 
L 259.406689 273.312 
L 259.406689 44.226595 
L 257.79466 44.226595 
z
" clip-path="url(#pe8c68b9a9c)" style="fill: #1f77b4"/>
   </g>
   <g id="patch_126">
    <path d="M 259.406689 273.312 
L 261.018718 273.312 
L 261.018718 55.642811 
L 259.406689 55.642811 
z
" clip-path="url(#pe8c68b9a9c)" style="fill: #1f77b4"/>
   </g>
   <g id="patch_127">
    <path d="M 261.018718 273.312 
L 262.630747 273.312 
L 262.630747 52.598486 
L 261.018718 52.598486 
z
" clip-path="url(#pe8c68b9a9c)" style="fill: #1f77b4"/>
   </g>
   <g id="patch_128">
    <path d="M 262.630747 273.312 
L 264.242775 273.312 
L 264.242775 61.731459 
L 262.630747 61.731459 
z
" clip-path="url(#pe8c68b9a9c)" style="fill: #1f77b4"/>
   </g>
   <g id="patch_129">
    <path d="M 264.242775 273.312 
L 265.854804 273.312 
L 265.854804 51.837405 
L 264.242775 51.837405 
z
" clip-path="url(#pe8c68b9a9c)" style="fill: #1f77b4"/>
   </g>
   <g id="patch_130">
    <path d="M 265.854804 273.312 
L 267.466833 273.312 
L 267.466833 74.669838 
L 265.854804 74.669838 
z
" clip-path="url(#pe8c68b9a9c)" style="fill: #1f77b4"/>
   </g>
   <g id="patch_131">
    <path d="M 267.466833 273.312 
L 269.078862 273.312 
L 269.078862 60.209297 
L 267.466833 60.209297 
z
" clip-path="url(#pe8c68b9a9c)" style="fill: #1f77b4"/>
   </g>
   <g id="patch_132">
    <path d="M 269.078862 273.312 
L 270.69089 273.312 
L 270.69089 55.642811 
L 269.078862 55.642811 
z
" clip-path="url(#pe8c68b9a9c)" style="fill: #1f77b4"/>
   </g>
   <g id="patch_133">
    <path d="M 270.69089 273.312 
L 272.302919 273.312 
L 272.302919 70.103351 
L 270.69089 70.103351 
z
" clip-path="url(#pe8c68b9a9c)" style="fill: #1f77b4"/>
   </g>
   <g id="patch_134">
    <path d="M 272.302919 273.312 
L 273.914948 273.312 
L 273.914948 88.369297 
L 272.302919 88.369297 
z
" clip-path="url(#pe8c68b9a9c)" style="fill: #1f77b4"/>
   </g>
   <g id="patch_135">
    <path d="M 273.914948 273.312 
L 275.526977 273.312 
L 275.526977 60.970378 
L 273.914948 60.970378 
z
" clip-path="url(#pe8c68b9a9c)" style="fill: #1f77b4"/>
   </g>
   <g id="patch_136">
    <path d="M 275.526977 273.312 
L 277.139006 273.312 
L 277.139006 50.315243 
L 275.526977 50.315243 
z
" clip-path="url(#pe8c68b9a9c)" style="fill: #1f77b4"/>
   </g>
   <g id="patch_137">
    <path d="M 277.139006 273.312 
L 278.751034 273.312 
L 278.751034 52.598486 
L 277.139006 52.598486 
z
" clip-path="url(#pe8c68b9a9c)" style="fill: #1f77b4"/>
   </g>
   <g id="patch_138">
    <path d="M 278.751034 273.312 
L 280.363063 273.312 
L 280.363063 92.935784 
L 278.751034 92.935784 
z
" clip-path="url(#pe8c68b9a9c)" style="fill: #1f77b4"/>
   </g>
   <g id="patch_139">
    <path d="M 280.363063 273.312 
L 281.975092 273.312 
L 281.975092 73.147676 
L 280.363063 73.147676 
z
" clip-path="url(#pe8c68b9a9c)" style="fill: #1f77b4"/>
   </g>
   <g id="patch_140">
    <path d="M 281.975092 273.312 
L 283.587121 273.312 
L 283.587121 65.536865 
L 281.975092 65.536865 
z
" clip-path="url(#pe8c68b9a9c)" style="fill: #1f77b4"/>
   </g>
   <g id="patch_141">
    <path d="M 283.587121 273.312 
L 285.19915 273.312 
L 285.19915 75.430919 
L 283.587121 75.430919 
z
" clip-path="url(#pe8c68b9a9c)" style="fill: #1f77b4"/>
   </g>
   <g id="patch_142">
    <path d="M 285.19915 273.312 
L 286.811178 273.312 
L 286.811178 58.687135 
L 285.19915 58.687135 
z
" clip-path="url(#pe8c68b9a9c)" style="fill: #1f77b4"/>
   </g>
   <g id="patch_143">
    <path d="M 286.811178 273.312 
L 288.423207 273.312 
L 288.423207 88.369297 
L 286.811178 88.369297 
z
" clip-path="url(#pe8c68b9a9c)" style="fill: #1f77b4"/>
   </g>
   <g id="patch_144">
    <path d="M 288.423207 273.312 
L 290.035236 273.312 
L 290.035236 105.874162 
L 288.423207 105.874162 
z
" clip-path="url(#pe8c68b9a9c)" style="fill: #1f77b4"/>
   </g>
   <g id="patch_145">
    <path d="M 290.035236 273.312 
L 291.647265 273.312 
L 291.647265 70.103351 
L 290.035236 70.103351 
z
" clip-path="url(#pe8c68b9a9c)" style="fill: #1f77b4"/>
   </g>
   <g id="patch_146">
    <path d="M 291.647265 273.312 
L 293.259293 273.312 
L 293.259293 69.34227 
L 291.647265 69.34227 
z
" clip-path="url(#pe8c68b9a9c)" style="fill: #1f77b4"/>
   </g>
   <g id="patch_147">
    <path d="M 293.259293 273.312 
L 294.871322 273.312 
L 294.871322 105.874162 
L 293.259293 105.874162 
z
" clip-path="url(#pe8c68b9a9c)" style="fill: #1f77b4"/>
   </g>
   <g id="patch_148">
    <path d="M 294.871322 273.312 
L 296.483351 273.312 
L 296.483351 93.696865 
L 294.871322 93.696865 
z
" clip-path="url(#pe8c68b9a9c)" style="fill: #1f77b4"/>
   </g>
   <g id="patch_149">
    <path d="M 296.483351 273.312 
L 298.09538 273.312 
L 298.09538 89.130378 
L 296.483351 89.130378 
z
" clip-path="url(#pe8c68b9a9c)" style="fill: #1f77b4"/>
   </g>
   <g id="patch_150">
    <path d="M 298.09538 273.312 
L 299.707409 273.312 
L 299.707409 105.113081 
L 298.09538 105.113081 
z
" clip-path="url(#pe8c68b9a9c)" style="fill: #1f77b4"/>
   </g>
   <g id="patch_151">
    <path d="M 299.707409 273.312 
L 301.319437 273.312 
L 301.319437 96.741189 
L 299.707409 96.741189 
z
" clip-path="url(#pe8c68b9a9c)" style="fill: #1f77b4"/>
   </g>
   <g id="patch_152">
    <path d="M 301.319437 273.312 
L 302.931466 273.312 
L 302.931466 89.130378 
L 301.319437 89.130378 
z
" clip-path="url(#pe8c68b9a9c)" style="fill: #1f77b4"/>
   </g>
   <g id="patch_153">
    <path d="M 302.931466 273.312 
L 304.543495 273.312 
L 304.543495 108.918486 
L 302.931466 108.918486 
z
" clip-path="url(#pe8c68b9a9c)" style="fill: #1f77b4"/>
   </g>
   <g id="patch_154">
    <path d="M 304.543495 273.312 
L 306.155524 273.312 
L 306.155524 108.918486 
L 304.543495 108.918486 
z
" clip-path="url(#pe8c68b9a9c)" style="fill: #1f77b4"/>
   </g>
   <g id="patch_155">
    <path d="M 306.155524 273.312 
L 307.767553 273.312 
L 307.767553 115.007135 
L 306.155524 115.007135 
z
" clip-path="url(#pe8c68b9a9c)" style="fill: #1f77b4"/>
   </g>
   <g id="patch_156">
    <path d="M 307.767553 273.312 
L 309.379581 273.312 
L 309.379581 108.157405 
L 307.767553 108.157405 
z
" clip-path="url(#pe8c68b9a9c)" style="fill: #1f77b4"/>
   </g>
   <g id="patch_157">
    <path d="M 309.379581 273.312 
L 310.99161 273.312 
L 310.99161 128.706595 
L 309.379581 128.706595 
z
" clip-path="url(#pe8c68b9a9c)" style="fill: #1f77b4"/>
   </g>
   <g id="patch_158">
    <path d="M 310.99161 273.312 
L 312.603639 273.312 
L 312.603639 112.723892 
L 310.99161 112.723892 
z
" clip-path="url(#pe8c68b9a9c)" style="fill: #1f77b4"/>
   </g>
   <g id="patch_159">
    <path d="M 312.603639 273.312 
L 314.215668 273.312 
L 314.215668 120.334703 
L 312.603639 120.334703 
z
" clip-path="url(#pe8c68b9a9c)" style="fill: #1f77b4"/>
   </g>
   <g id="patch_160">
    <path d="M 314.215668 273.312 
L 315.827696 273.312 
L 315.827696 146.972541 
L 314.215668 146.972541 
z
" clip-path="url(#pe8c68b9a9c)" style="fill: #1f77b4"/>
   </g>
   <g id="patch_161">
    <path d="M 315.827696 273.312 
L 317.439725 273.312 
L 317.439725 124.140108 
L 315.827696 124.140108 
z
" clip-path="url(#pe8c68b9a9c)" style="fill: #1f77b4"/>
   </g>
   <g id="patch_162">
    <path d="M 317.439725 273.312 
L 319.051754 273.312 
L 319.051754 145.450378 
L 317.439725 145.450378 
z
" clip-path="url(#pe8c68b9a9c)" style="fill: #1f77b4"/>
   </g>
   <g id="patch_163">
    <path d="M 319.051754 273.312 
L 320.663783 273.312 
L 320.663783 136.317405 
L 319.051754 136.317405 
z
" clip-path="url(#pe8c68b9a9c)" style="fill: #1f77b4"/>
   </g>
   <g id="patch_164">
    <path d="M 320.663783 273.312 
L 322.275812 273.312 
L 322.275812 140.122811 
L 320.663783 140.122811 
z
" clip-path="url(#pe8c68b9a9c)" style="fill: #1f77b4"/>
   </g>
   <g id="patch_165">
    <path d="M 322.275812 273.312 
L 323.88784 273.312 
L 323.88784 140.883892 
L 322.275812 140.883892 
z
" clip-path="url(#pe8c68b9a9c)" style="fill: #1f77b4"/>
   </g>
   <g id="patch_166">
    <path d="M 323.88784 273.312 
L 325.499869 273.312 
L 325.499869 153.82227 
L 323.88784 153.82227 
z
" clip-path="url(#pe8c68b9a9c)" style="fill: #1f77b4"/>
   </g>
   <g id="patch_167">
    <path d="M 325.499869 273.312 
L 327.111898 273.312 
L 327.111898 150.016865 
L 325.499869 150.016865 
z
" clip-path="url(#pe8c68b9a9c)" style="fill: #1f77b4"/>
   </g>
   <g id="patch_168">
    <path d="M 327.111898 273.312 
L 328.723927 273.312 
L 328.723927 156.105514 
L 327.111898 156.105514 
z
" clip-path="url(#pe8c68b9a9c)" style="fill: #1f77b4"/>
   </g>
   <g id="patch_169">
    <path d="M 328.723927 273.312 
L 330.335956 273.312 
L 330.335956 146.972541 
L 328.723927 146.972541 
z
" clip-path="url(#pe8c68b9a9c)" style="fill: #1f77b4"/>
   </g>
   <g id="patch_170">
    <path d="M 330.335956 273.312 
L 331.947984 273.312 
L 331.947984 148.494703 
L 330.335956 148.494703 
z
" clip-path="url(#pe8c68b9a9c)" style="fill: #1f77b4"/>
   </g>
   <g id="patch_171">
    <path d="M 331.947984 273.312 
L 333.560013 273.312 
L 333.560013 154.583351 
L 331.947984 154.583351 
z
" clip-path="url(#pe8c68b9a9c)" style="fill: #1f77b4"/>
   </g>
   <g id="patch_172">
    <path d="M 333.560013 273.312 
L 335.172042 273.312 
L 335.172042 138.600649 
L 333.560013 138.600649 
z
" clip-path="url(#pe8c68b9a9c)" style="fill: #1f77b4"/>
   </g>
   <g id="patch_173">
    <path d="M 335.172042 273.312 
L 336.784071 273.312 
L 336.784071 166.760649 
L 335.172042 166.760649 
z
" clip-path="url(#pe8c68b9a9c)" style="fill: #1f77b4"/>
   </g>
   <g id="patch_174">
    <path d="M 336.784071 273.312 
L 338.3961 273.312 
L 338.3961 172.088216 
L 336.784071 172.088216 
z
" clip-path="url(#pe8c68b9a9c)" style="fill: #1f77b4"/>
   </g>
   <g id="patch_175">
    <path d="M 338.3961 273.312 
L 340.008128 273.312 
L 340.008128 178.937946 
L 338.3961 178.937946 
z
" clip-path="url(#pe8c68b9a9c)" style="fill: #1f77b4"/>
   </g>
   <g id="patch_176">
    <path d="M 340.008128 273.312 
L 341.620157 273.312 
L 341.620157 173.610378 
L 340.008128 173.610378 
z
" clip-path="url(#pe8c68b9a9c)" style="fill: #1f77b4"/>
   </g>
   <g id="patch_177">
    <path d="M 341.620157 273.312 
L 343.232186 273.312 
L 343.232186 185.026595 
L 341.620157 185.026595 
z
" clip-path="url(#pe8c68b9a9c)" style="fill: #1f77b4"/>
   </g>
   <g id="patch_178">
    <path d="M 343.232186 273.312 
L 344.844215 273.312 
L 344.844215 186.548757 
L 343.232186 186.548757 
z
" clip-path="url(#pe8c68b9a9c)" style="fill: #1f77b4"/>
   </g>
   <g id="patch_179">
    <path d="M 344.844215 273.312 
L 346.456243 273.312 
L 346.456243 178.937946 
L 344.844215 178.937946 
z
" clip-path="url(#pe8c68b9a9c)" style="fill: #1f77b4"/>
   </g>
   <g id="patch_180">
    <path d="M 346.456243 273.312 
L 348.068272 273.312 
L 348.068272 190.354162 
L 346.456243 190.354162 
z
" clip-path="url(#pe8c68b9a9c)" style="fill: #1f77b4"/>
   </g>
   <g id="patch_181">
    <path d="M 348.068272 273.312 
L 349.680301 273.312 
L 349.680301 193.398486 
L 348.068272 193.398486 
z
" clip-path="url(#pe8c68b9a9c)" style="fill: #1f77b4"/>
   </g>
   <g id="patch_182">
    <path d="M 349.680301 273.312 
L 351.29233 273.312 
L 351.29233 189.593081 
L 349.680301 189.593081 
z
" clip-path="url(#pe8c68b9a9c)" style="fill: #1f77b4"/>
   </g>
   <g id="patch_183">
    <path d="M 351.29233 273.312 
L 352.904359 273.312 
L 352.904359 199.487135 
L 351.29233 199.487135 
z
" clip-path="url(#pe8c68b9a9c)" style="fill: #1f77b4"/>
   </g>
   <g id="patch_184">
    <path d="M 352.904359 273.312 
L 354.516387 273.312 
L 354.516387 192.637405 
L 352.904359 192.637405 
z
" clip-path="url(#pe8c68b9a9c)" style="fill: #1f77b4"/>
   </g>
   <g id="patch_185">
    <path d="M 354.516387 273.312 
L 356.128416 273.312 
L 356.128416 191.115243 
L 354.516387 191.115243 
z
" clip-path="url(#pe8c68b9a9c)" style="fill: #1f77b4"/>
   </g>
   <g id="patch_186">
    <path d="M 356.128416 273.312 
L 357.740445 273.312 
L 357.740445 213.186595 
L 356.128416 213.186595 
z
" clip-path="url(#pe8c68b9a9c)" style="fill: #1f77b4"/>
   </g>
   <g id="patch_187">
    <path d="M 357.740445 273.312 
L 359.352474 273.312 
L 359.352474 213.947676 
L 357.740445 213.947676 
z
" clip-path="url(#pe8c68b9a9c)" style="fill: #1f77b4"/>
   </g>
   <g id="patch_188">
    <path d="M 359.352474 273.312 
L 360.964503 273.312 
L 360.964503 213.186595 
L 359.352474 213.186595 
z
" clip-path="url(#pe8c68b9a9c)" style="fill: #1f77b4"/>
   </g>
   <g id="patch_189">
    <path d="M 360.964503 273.312 
L 362.576531 273.312 
L 362.576531 220.036324 
L 360.964503 220.036324 
z
" clip-path="url(#pe8c68b9a9c)" style="fill: #1f77b4"/>
   </g>
   <g id="patch_190">
    <path d="M 362.576531 273.312 
L 364.18856 273.312 
L 364.18856 233.735784 
L 362.576531 233.735784 
z
" clip-path="url(#pe8c68b9a9c)" style="fill: #1f77b4"/>
   </g>
   <g id="patch_191">
    <path d="M 364.18856 273.312 
L 365.800589 273.312 
L 365.800589 241.346595 
L 364.18856 241.346595 
z
" clip-path="url(#pe8c68b9a9c)" style="fill: #1f77b4"/>
   </g>
   <g id="patch_192">
    <path d="M 365.800589 273.312 
L 367.412618 273.312 
L 367.412618 227.647135 
L 365.800589 227.647135 
z
" clip-path="url(#pe8c68b9a9c)" style="fill: #1f77b4"/>
   </g>
   <g id="patch_193">
    <path d="M 367.412618 273.312 
L 369.024646 273.312 
L 369.024646 232.974703 
L 367.412618 232.974703 
z
" clip-path="url(#pe8c68b9a9c)" style="fill: #1f77b4"/>
   </g>
   <g id="patch_194">
    <path d="M 369.024646 273.312 
L 370.636675 273.312 
L 370.636675 235.257946 
L 369.024646 235.257946 
z
" clip-path="url(#pe8c68b9a9c)" style="fill: #1f77b4"/>
   </g>
   <g id="patch_195">
    <path d="M 370.636675 273.312 
L 372.248704 273.312 
L 372.248704 248.196324 
L 370.636675 248.196324 
z
" clip-path="url(#pe8c68b9a9c)" style="fill: #1f77b4"/>
   </g>
   <g id="patch_196">
    <path d="M 372.248704 273.312 
L 373.860733 273.312 
L 373.860733 246.674162 
L 372.248704 246.674162 
z
" clip-path="url(#pe8c68b9a9c)" style="fill: #1f77b4"/>
   </g>
   <g id="patch_197">
    <path d="M 373.860733 273.312 
L 375.472762 273.312 
L 375.472762 257.329297 
L 373.860733 257.329297 
z
" clip-path="url(#pe8c68b9a9c)" style="fill: #1f77b4"/>
   </g>
   <g id="patch_198">
    <path d="M 375.472762 273.312 
L 377.08479 273.312 
L 377.08479 246.674162 
L 375.472762 246.674162 
z
" clip-path="url(#pe8c68b9a9c)" style="fill: #1f77b4"/>
   </g>
   <g id="patch_199">
    <path d="M 377.08479 273.312 
L 378.696819 273.312 
L 378.696819 261.134703 
L 377.08479 261.134703 
z
" clip-path="url(#pe8c68b9a9c)" style="fill: #1f77b4"/>
   </g>
   <g id="patch_200">
    <path d="M 378.696819 273.312 
L 380.308848 273.312 
L 380.308848 261.134703 
L 378.696819 261.134703 
z
" clip-path="url(#pe8c68b9a9c)" style="fill: #1f77b4"/>
   </g>
   <g id="patch_201">
    <path d="M 380.308848 273.312 
L 381.920877 273.312 
L 381.920877 269.506595 
L 380.308848 269.506595 
z
" clip-path="url(#pe8c68b9a9c)" style="fill: #1f77b4"/>
   </g>
   <g id="patch_202">
    <path d="M 381.920877 273.312 
L 383.532906 273.312 
L 383.532906 269.506595 
L 381.920877 269.506595 
z
" clip-path="url(#pe8c68b9a9c)" style="fill: #1f77b4"/>
   </g>
   <g id="matplotlib.axis_1">
    <g id="xtick_1">
     <g id="line2d_1">
      <defs>
       <path id="madb0a8846d" d="M 0 0 
L 0 3.5 
" style="stroke: #000000; stroke-width: 0.8"/>
      </defs>
      <g>
       <use xlink:href="#madb0a8846d" x="60.013977" y="273.312" style="stroke: #000000; stroke-width: 0.8"/>
      </g>
     </g>
     <g id="text_1">
      <!-- 0.0 -->
      <g transform="translate(52.062415 287.910437)scale(0.1 -0.1)">
       <defs>
        <path id="DejaVuSans-30" d="M 2034 4250 
Q 1547 4250 1301 3770 
Q 1056 3291 1056 2328 
Q 1056 1369 1301 889 
Q 1547 409 2034 409 
Q 2525 409 2770 889 
Q 3016 1369 3016 2328 
Q 3016 3291 2770 3770 
Q 2525 4250 2034 4250 
z
M 2034 4750 
Q 2819 4750 3233 4129 
Q 3647 3509 3647 2328 
Q 3647 1150 3233 529 
Q 2819 -91 2034 -91 
Q 1250 -91 836 529 
Q 422 1150 422 2328 
Q 422 3509 836 4129 
Q 1250 4750 2034 4750 
z
" transform="scale(0.015625)"/>
        <path id="DejaVuSans-2e" d="M 684 794 
L 1344 794 
L 1344 0 
L 684 0 
L 684 794 
z
" transform="scale(0.015625)"/>
       </defs>
       <use xlink:href="#DejaVuSans-30"/>
       <use xlink:href="#DejaVuSans-2e" x="63.623047"/>
       <use xlink:href="#DejaVuSans-30" x="95.410156"/>
      </g>
     </g>
    </g>
    <g id="xtick_2">
     <g id="line2d_2">
      <g>
       <use xlink:href="#madb0a8846d" x="101.350278" y="273.312" style="stroke: #000000; stroke-width: 0.8"/>
      </g>
     </g>
     <g id="text_2">
      <!-- 0.2 -->
      <g transform="translate(93.398715 287.910437)scale(0.1 -0.1)">
       <defs>
        <path id="DejaVuSans-32" d="M 1228 531 
L 3431 531 
L 3431 0 
L 469 0 
L 469 531 
Q 828 903 1448 1529 
Q 2069 2156 2228 2338 
Q 2531 2678 2651 2914 
Q 2772 3150 2772 3378 
Q 2772 3750 2511 3984 
Q 2250 4219 1831 4219 
Q 1534 4219 1204 4116 
Q 875 4013 500 3803 
L 500 4441 
Q 881 4594 1212 4672 
Q 1544 4750 1819 4750 
Q 2544 4750 2975 4387 
Q 3406 4025 3406 3419 
Q 3406 3131 3298 2873 
Q 3191 2616 2906 2266 
Q 2828 2175 2409 1742 
Q 1991 1309 1228 531 
z
" transform="scale(0.015625)"/>
       </defs>
       <use xlink:href="#DejaVuSans-30"/>
       <use xlink:href="#DejaVuSans-2e" x="63.623047"/>
       <use xlink:href="#DejaVuSans-32" x="95.410156"/>
      </g>
     </g>
    </g>
    <g id="xtick_3">
     <g id="line2d_3">
      <g>
       <use xlink:href="#madb0a8846d" x="142.686578" y="273.312" style="stroke: #000000; stroke-width: 0.8"/>
      </g>
     </g>
     <g id="text_3">
      <!-- 0.4 -->
      <g transform="translate(134.735016 287.910437)scale(0.1 -0.1)">
       <defs>
        <path id="DejaVuSans-34" d="M 2419 4116 
L 825 1625 
L 2419 1625 
L 2419 4116 
z
M 2253 4666 
L 3047 4666 
L 3047 1625 
L 3713 1625 
L 3713 1100 
L 3047 1100 
L 3047 0 
L 2419 0 
L 2419 1100 
L 313 1100 
L 313 1709 
L 2253 4666 
z
" transform="scale(0.015625)"/>
       </defs>
       <use xlink:href="#DejaVuSans-30"/>
       <use xlink:href="#DejaVuSans-2e" x="63.623047"/>
       <use xlink:href="#DejaVuSans-34" x="95.410156"/>
      </g>
     </g>
    </g>
    <g id="xtick_4">
     <g id="line2d_4">
      <g>
       <use xlink:href="#madb0a8846d" x="184.022879" y="273.312" style="stroke: #000000; stroke-width: 0.8"/>
      </g>
     </g>
     <g id="text_4">
      <!-- 0.6 -->
      <g transform="translate(176.071316 287.910437)scale(0.1 -0.1)">
       <defs>
        <path id="DejaVuSans-36" d="M 2113 2584 
Q 1688 2584 1439 2293 
Q 1191 2003 1191 1497 
Q 1191 994 1439 701 
Q 1688 409 2113 409 
Q 2538 409 2786 701 
Q 3034 994 3034 1497 
Q 3034 2003 2786 2293 
Q 2538 2584 2113 2584 
z
M 3366 4563 
L 3366 3988 
Q 3128 4100 2886 4159 
Q 2644 4219 2406 4219 
Q 1781 4219 1451 3797 
Q 1122 3375 1075 2522 
Q 1259 2794 1537 2939 
Q 1816 3084 2150 3084 
Q 2853 3084 3261 2657 
Q 3669 2231 3669 1497 
Q 3669 778 3244 343 
Q 2819 -91 2113 -91 
Q 1303 -91 875 529 
Q 447 1150 447 2328 
Q 447 3434 972 4092 
Q 1497 4750 2381 4750 
Q 2619 4750 2861 4703 
Q 3103 4656 3366 4563 
z
" transform="scale(0.015625)"/>
       </defs>
       <use xlink:href="#DejaVuSans-30"/>
       <use xlink:href="#DejaVuSans-2e" x="63.623047"/>
       <use xlink:href="#DejaVuSans-36" x="95.410156"/>
      </g>
     </g>
    </g>
    <g id="xtick_5">
     <g id="line2d_5">
      <g>
       <use xlink:href="#madb0a8846d" x="225.35918" y="273.312" style="stroke: #000000; stroke-width: 0.8"/>
      </g>
     </g>
     <g id="text_5">
      <!-- 0.8 -->
      <g transform="translate(217.407617 287.910437)scale(0.1 -0.1)">
       <defs>
        <path id="DejaVuSans-38" d="M 2034 2216 
Q 1584 2216 1326 1975 
Q 1069 1734 1069 1313 
Q 1069 891 1326 650 
Q 1584 409 2034 409 
Q 2484 409 2743 651 
Q 3003 894 3003 1313 
Q 3003 1734 2745 1975 
Q 2488 2216 2034 2216 
z
M 1403 2484 
Q 997 2584 770 2862 
Q 544 3141 544 3541 
Q 544 4100 942 4425 
Q 1341 4750 2034 4750 
Q 2731 4750 3128 4425 
Q 3525 4100 3525 3541 
Q 3525 3141 3298 2862 
Q 3072 2584 2669 2484 
Q 3125 2378 3379 2068 
Q 3634 1759 3634 1313 
Q 3634 634 3220 271 
Q 2806 -91 2034 -91 
Q 1263 -91 848 271 
Q 434 634 434 1313 
Q 434 1759 690 2068 
Q 947 2378 1403 2484 
z
M 1172 3481 
Q 1172 3119 1398 2916 
Q 1625 2713 2034 2713 
Q 2441 2713 2670 2916 
Q 2900 3119 2900 3481 
Q 2900 3844 2670 4047 
Q 2441 4250 2034 4250 
Q 1625 4250 1398 4047 
Q 1172 3844 1172 3481 
z
" transform="scale(0.015625)"/>
       </defs>
       <use xlink:href="#DejaVuSans-30"/>
       <use xlink:href="#DejaVuSans-2e" x="63.623047"/>
       <use xlink:href="#DejaVuSans-38" x="95.410156"/>
      </g>
     </g>
    </g>
    <g id="xtick_6">
     <g id="line2d_6">
      <g>
       <use xlink:href="#madb0a8846d" x="266.69548" y="273.312" style="stroke: #000000; stroke-width: 0.8"/>
      </g>
     </g>
     <g id="text_6">
      <!-- 1.0 -->
      <g transform="translate(258.743918 287.910437)scale(0.1 -0.1)">
       <defs>
        <path id="DejaVuSans-31" d="M 794 531 
L 1825 531 
L 1825 4091 
L 703 3866 
L 703 4441 
L 1819 4666 
L 2450 4666 
L 2450 531 
L 3481 531 
L 3481 0 
L 794 0 
L 794 531 
z
" transform="scale(0.015625)"/>
       </defs>
       <use xlink:href="#DejaVuSans-31"/>
       <use xlink:href="#DejaVuSans-2e" x="63.623047"/>
       <use xlink:href="#DejaVuSans-30" x="95.410156"/>
      </g>
     </g>
    </g>
    <g id="xtick_7">
     <g id="line2d_7">
      <g>
       <use xlink:href="#madb0a8846d" x="308.031781" y="273.312" style="stroke: #000000; stroke-width: 0.8"/>
      </g>
     </g>
     <g id="text_7">
      <!-- 1.2 -->
      <g transform="translate(300.080218 287.910437)scale(0.1 -0.1)">
       <use xlink:href="#DejaVuSans-31"/>
       <use xlink:href="#DejaVuSans-2e" x="63.623047"/>
       <use xlink:href="#DejaVuSans-32" x="95.410156"/>
      </g>
     </g>
    </g>
    <g id="xtick_8">
     <g id="line2d_8">
      <g>
       <use xlink:href="#madb0a8846d" x="349.368081" y="273.312" style="stroke: #000000; stroke-width: 0.8"/>
      </g>
     </g>
     <g id="text_8">
      <!-- 1.4 -->
      <g transform="translate(341.416519 287.910437)scale(0.1 -0.1)">
       <use xlink:href="#DejaVuSans-31"/>
       <use xlink:href="#DejaVuSans-2e" x="63.623047"/>
       <use xlink:href="#DejaVuSans-34" x="95.410156"/>
      </g>
     </g>
    </g>
    <g id="xtick_9">
     <g id="line2d_9">
      <g>
       <use xlink:href="#madb0a8846d" x="390.704382" y="273.312" style="stroke: #000000; stroke-width: 0.8"/>
      </g>
     </g>
     <g id="text_9">
      <!-- 1.6 -->
      <g transform="translate(382.752819 287.910437)scale(0.1 -0.1)">
       <use xlink:href="#DejaVuSans-31"/>
       <use xlink:href="#DejaVuSans-2e" x="63.623047"/>
       <use xlink:href="#DejaVuSans-36" x="95.410156"/>
      </g>
     </g>
    </g>
    <g id="text_10">
     <!-- Angle with normal (rad) -->
     <g transform="translate(163.023281 301.588562)scale(0.1 -0.1)">
      <defs>
       <path id="DejaVuSans-41" d="M 2188 4044 
L 1331 1722 
L 3047 1722 
L 2188 4044 
z
M 1831 4666 
L 2547 4666 
L 4325 0 
L 3669 0 
L 3244 1197 
L 1141 1197 
L 716 0 
L 50 0 
L 1831 4666 
z
" transform="scale(0.015625)"/>
       <path id="DejaVuSans-6e" d="M 3513 2113 
L 3513 0 
L 2938 0 
L 2938 2094 
Q 2938 2591 2744 2837 
Q 2550 3084 2163 3084 
Q 1697 3084 1428 2787 
Q 1159 2491 1159 1978 
L 1159 0 
L 581 0 
L 581 3500 
L 1159 3500 
L 1159 2956 
Q 1366 3272 1645 3428 
Q 1925 3584 2291 3584 
Q 2894 3584 3203 3211 
Q 3513 2838 3513 2113 
z
" transform="scale(0.015625)"/>
       <path id="DejaVuSans-67" d="M 2906 1791 
Q 2906 2416 2648 2759 
Q 2391 3103 1925 3103 
Q 1463 3103 1205 2759 
Q 947 2416 947 1791 
Q 947 1169 1205 825 
Q 1463 481 1925 481 
Q 2391 481 2648 825 
Q 2906 1169 2906 1791 
z
M 3481 434 
Q 3481 -459 3084 -895 
Q 2688 -1331 1869 -1331 
Q 1566 -1331 1297 -1286 
Q 1028 -1241 775 -1147 
L 775 -588 
Q 1028 -725 1275 -790 
Q 1522 -856 1778 -856 
Q 2344 -856 2625 -561 
Q 2906 -266 2906 331 
L 2906 616 
Q 2728 306 2450 153 
Q 2172 0 1784 0 
Q 1141 0 747 490 
Q 353 981 353 1791 
Q 353 2603 747 3093 
Q 1141 3584 1784 3584 
Q 2172 3584 2450 3431 
Q 2728 3278 2906 2969 
L 2906 3500 
L 3481 3500 
L 3481 434 
z
" transform="scale(0.015625)"/>
       <path id="DejaVuSans-6c" d="M 603 4863 
L 1178 4863 
L 1178 0 
L 603 0 
L 603 4863 
z
" transform="scale(0.015625)"/>
       <path id="DejaVuSans-65" d="M 3597 1894 
L 3597 1613 
L 953 1613 
Q 991 1019 1311 708 
Q 1631 397 2203 397 
Q 2534 397 2845 478 
Q 3156 559 3463 722 
L 3463 178 
Q 3153 47 2828 -22 
Q 2503 -91 2169 -91 
Q 1331 -91 842 396 
Q 353 884 353 1716 
Q 353 2575 817 3079 
Q 1281 3584 2069 3584 
Q 2775 3584 3186 3129 
Q 3597 2675 3597 1894 
z
M 3022 2063 
Q 3016 2534 2758 2815 
Q 2500 3097 2075 3097 
Q 1594 3097 1305 2825 
Q 1016 2553 972 2059 
L 3022 2063 
z
" transform="scale(0.015625)"/>
       <path id="DejaVuSans-20" transform="scale(0.015625)"/>
       <path id="DejaVuSans-77" d="M 269 3500 
L 844 3500 
L 1563 769 
L 2278 3500 
L 2956 3500 
L 3675 769 
L 4391 3500 
L 4966 3500 
L 4050 0 
L 3372 0 
L 2619 2869 
L 1863 0 
L 1184 0 
L 269 3500 
z
" transform="scale(0.015625)"/>
       <path id="DejaVuSans-69" d="M 603 3500 
L 1178 3500 
L 1178 0 
L 603 0 
L 603 3500 
z
M 603 4863 
L 1178 4863 
L 1178 4134 
L 603 4134 
L 603 4863 
z
" transform="scale(0.015625)"/>
       <path id="DejaVuSans-74" d="M 1172 4494 
L 1172 3500 
L 2356 3500 
L 2356 3053 
L 1172 3053 
L 1172 1153 
Q 1172 725 1289 603 
Q 1406 481 1766 481 
L 2356 481 
L 2356 0 
L 1766 0 
Q 1100 0 847 248 
Q 594 497 594 1153 
L 594 3053 
L 172 3053 
L 172 3500 
L 594 3500 
L 594 4494 
L 1172 4494 
z
" transform="scale(0.015625)"/>
       <path id="DejaVuSans-68" d="M 3513 2113 
L 3513 0 
L 2938 0 
L 2938 2094 
Q 2938 2591 2744 2837 
Q 2550 3084 2163 3084 
Q 1697 3084 1428 2787 
Q 1159 2491 1159 1978 
L 1159 0 
L 581 0 
L 581 4863 
L 1159 4863 
L 1159 2956 
Q 1366 3272 1645 3428 
Q 1925 3584 2291 3584 
Q 2894 3584 3203 3211 
Q 3513 2838 3513 2113 
z
" transform="scale(0.015625)"/>
       <path id="DejaVuSans-6f" d="M 1959 3097 
Q 1497 3097 1228 2736 
Q 959 2375 959 1747 
Q 959 1119 1226 758 
Q 1494 397 1959 397 
Q 2419 397 2687 759 
Q 2956 1122 2956 1747 
Q 2956 2369 2687 2733 
Q 2419 3097 1959 3097 
z
M 1959 3584 
Q 2709 3584 3137 3096 
Q 3566 2609 3566 1747 
Q 3566 888 3137 398 
Q 2709 -91 1959 -91 
Q 1206 -91 779 398 
Q 353 888 353 1747 
Q 353 2609 779 3096 
Q 1206 3584 1959 3584 
z
" transform="scale(0.015625)"/>
       <path id="DejaVuSans-72" d="M 2631 2963 
Q 2534 3019 2420 3045 
Q 2306 3072 2169 3072 
Q 1681 3072 1420 2755 
Q 1159 2438 1159 1844 
L 1159 0 
L 581 0 
L 581 3500 
L 1159 3500 
L 1159 2956 
Q 1341 3275 1631 3429 
Q 1922 3584 2338 3584 
Q 2397 3584 2469 3576 
Q 2541 3569 2628 3553 
L 2631 2963 
z
" transform="scale(0.015625)"/>
       <path id="DejaVuSans-6d" d="M 3328 2828 
Q 3544 3216 3844 3400 
Q 4144 3584 4550 3584 
Q 5097 3584 5394 3201 
Q 5691 2819 5691 2113 
L 5691 0 
L 5113 0 
L 5113 2094 
Q 5113 2597 4934 2840 
Q 4756 3084 4391 3084 
Q 3944 3084 3684 2787 
Q 3425 2491 3425 1978 
L 3425 0 
L 2847 0 
L 2847 2094 
Q 2847 2600 2669 2842 
Q 2491 3084 2119 3084 
Q 1678 3084 1418 2786 
Q 1159 2488 1159 1978 
L 1159 0 
L 581 0 
L 581 3500 
L 1159 3500 
L 1159 2956 
Q 1356 3278 1631 3431 
Q 1906 3584 2284 3584 
Q 2666 3584 2933 3390 
Q 3200 3197 3328 2828 
z
" transform="scale(0.015625)"/>
       <path id="DejaVuSans-61" d="M 2194 1759 
Q 1497 1759 1228 1600 
Q 959 1441 959 1056 
Q 959 750 1161 570 
Q 1363 391 1709 391 
Q 2188 391 2477 730 
Q 2766 1069 2766 1631 
L 2766 1759 
L 2194 1759 
z
M 3341 1997 
L 3341 0 
L 2766 0 
L 2766 531 
Q 2569 213 2275 61 
Q 1981 -91 1556 -91 
Q 1019 -91 701 211 
Q 384 513 384 1019 
Q 384 1609 779 1909 
Q 1175 2209 1959 2209 
L 2766 2209 
L 2766 2266 
Q 2766 2663 2505 2880 
Q 2244 3097 1772 3097 
Q 1472 3097 1187 3025 
Q 903 2953 641 2809 
L 641 3341 
Q 956 3463 1253 3523 
Q 1550 3584 1831 3584 
Q 2591 3584 2966 3190 
Q 3341 2797 3341 1997 
z
" transform="scale(0.015625)"/>
       <path id="DejaVuSans-28" d="M 1984 4856 
Q 1566 4138 1362 3434 
Q 1159 2731 1159 2009 
Q 1159 1288 1364 580 
Q 1569 -128 1984 -844 
L 1484 -844 
Q 1016 -109 783 600 
Q 550 1309 550 2009 
Q 550 2706 781 3412 
Q 1013 4119 1484 4856 
L 1984 4856 
z
" transform="scale(0.015625)"/>
       <path id="DejaVuSans-64" d="M 2906 2969 
L 2906 4863 
L 3481 4863 
L 3481 0 
L 2906 0 
L 2906 525 
Q 2725 213 2448 61 
Q 2172 -91 1784 -91 
Q 1150 -91 751 415 
Q 353 922 353 1747 
Q 353 2572 751 3078 
Q 1150 3584 1784 3584 
Q 2172 3584 2448 3432 
Q 2725 3281 2906 2969 
z
M 947 1747 
Q 947 1113 1208 752 
Q 1469 391 1925 391 
Q 2381 391 2643 752 
Q 2906 1113 2906 1747 
Q 2906 2381 2643 2742 
Q 2381 3103 1925 3103 
Q 1469 3103 1208 2742 
Q 947 2381 947 1747 
z
" transform="scale(0.015625)"/>
       <path id="DejaVuSans-29" d="M 513 4856 
L 1013 4856 
Q 1481 4119 1714 3412 
Q 1947 2706 1947 2009 
Q 1947 1309 1714 600 
Q 1481 -109 1013 -844 
L 513 -844 
Q 928 -128 1133 580 
Q 1338 1288 1338 2009 
Q 1338 2731 1133 3434 
Q 928 4138 513 4856 
z
" transform="scale(0.015625)"/>
      </defs>
      <use xlink:href="#DejaVuSans-41"/>
      <use xlink:href="#DejaVuSans-6e" x="68.408203"/>
      <use xlink:href="#DejaVuSans-67" x="131.787109"/>
      <use xlink:href="#DejaVuSans-6c" x="195.263672"/>
      <use xlink:href="#DejaVuSans-65" x="223.046875"/>
      <use xlink:href="#DejaVuSans-20" x="284.570312"/>
      <use xlink:href="#DejaVuSans-77" x="316.357422"/>
      <use xlink:href="#DejaVuSans-69" x="398.144531"/>
      <use xlink:href="#DejaVuSans-74" x="425.927734"/>
      <use xlink:href="#DejaVuSans-68" x="465.136719"/>
      <use xlink:href="#DejaVuSans-20" x="528.515625"/>
      <use xlink:href="#DejaVuSans-6e" x="560.302734"/>
      <use xlink:href="#DejaVuSans-6f" x="623.681641"/>
      <use xlink:href="#DejaVuSans-72" x="684.863281"/>
      <use xlink:href="#DejaVuSans-6d" x="724.226562"/>
      <use xlink:href="#DejaVuSans-61" x="821.638672"/>
      <use xlink:href="#DejaVuSans-6c" x="882.917969"/>
      <use xlink:href="#DejaVuSans-20" x="910.701172"/>
      <use xlink:href="#DejaVuSans-28" x="942.488281"/>
      <use xlink:href="#DejaVuSans-72" x="981.501953"/>
      <use xlink:href="#DejaVuSans-61" x="1022.615234"/>
      <use xlink:href="#DejaVuSans-64" x="1083.894531"/>
      <use xlink:href="#DejaVuSans-29" x="1147.371094"/>
     </g>
    </g>
   </g>
   <g id="matplotlib.axis_2">
    <g id="ytick_1">
     <g id="line2d_10">
      <defs>
       <path id="m4dad26d045" d="M 0 0 
L -3.5 0 
" style="stroke: #000000; stroke-width: 0.8"/>
      </defs>
      <g>
       <use xlink:href="#m4dad26d045" x="43.78125" y="273.312" style="stroke: #000000; stroke-width: 0.8"/>
      </g>
     </g>
     <g id="text_11">
      <!-- 0.0 -->
      <g transform="translate(20.878125 277.111219)scale(0.1 -0.1)">
       <use xlink:href="#DejaVuSans-30"/>
       <use xlink:href="#DejaVuSans-2e" x="63.623047"/>
       <use xlink:href="#DejaVuSans-30" x="95.410156"/>
      </g>
     </g>
    </g>
    <g id="ytick_2">
     <g id="line2d_11">
      <g>
       <use xlink:href="#m4dad26d045" x="43.78125" y="225.823102" style="stroke: #000000; stroke-width: 0.8"/>
      </g>
     </g>
     <g id="text_12">
      <!-- 0.2 -->
      <g transform="translate(20.878125 229.62232)scale(0.1 -0.1)">
       <use xlink:href="#DejaVuSans-30"/>
       <use xlink:href="#DejaVuSans-2e" x="63.623047"/>
       <use xlink:href="#DejaVuSans-32" x="95.410156"/>
      </g>
     </g>
    </g>
    <g id="ytick_3">
     <g id="line2d_12">
      <g>
       <use xlink:href="#m4dad26d045" x="43.78125" y="178.334203" style="stroke: #000000; stroke-width: 0.8"/>
      </g>
     </g>
     <g id="text_13">
      <!-- 0.4 -->
      <g transform="translate(20.878125 182.133422)scale(0.1 -0.1)">
       <use xlink:href="#DejaVuSans-30"/>
       <use xlink:href="#DejaVuSans-2e" x="63.623047"/>
       <use xlink:href="#DejaVuSans-34" x="95.410156"/>
      </g>
     </g>
    </g>
    <g id="ytick_4">
     <g id="line2d_13">
      <g>
       <use xlink:href="#m4dad26d045" x="43.78125" y="130.845305" style="stroke: #000000; stroke-width: 0.8"/>
      </g>
     </g>
     <g id="text_14">
      <!-- 0.6 -->
      <g transform="translate(20.878125 134.644523)scale(0.1 -0.1)">
       <use xlink:href="#DejaVuSans-30"/>
       <use xlink:href="#DejaVuSans-2e" x="63.623047"/>
       <use xlink:href="#DejaVuSans-36" x="95.410156"/>
      </g>
     </g>
    </g>
    <g id="ytick_5">
     <g id="line2d_14">
      <g>
       <use xlink:href="#m4dad26d045" x="43.78125" y="83.356406" style="stroke: #000000; stroke-width: 0.8"/>
      </g>
     </g>
     <g id="text_15">
      <!-- 0.8 -->
      <g transform="translate(20.878125 87.155625)scale(0.1 -0.1)">
       <use xlink:href="#DejaVuSans-30"/>
       <use xlink:href="#DejaVuSans-2e" x="63.623047"/>
       <use xlink:href="#DejaVuSans-38" x="95.410156"/>
      </g>
     </g>
    </g>
    <g id="ytick_6">
     <g id="line2d_15">
      <g>
       <use xlink:href="#m4dad26d045" x="43.78125" y="35.867508" style="stroke: #000000; stroke-width: 0.8"/>
      </g>
     </g>
     <g id="text_16">
      <!-- 1.0 -->
      <g transform="translate(20.878125 39.666727)scale(0.1 -0.1)">
       <use xlink:href="#DejaVuSans-31"/>
       <use xlink:href="#DejaVuSans-2e" x="63.623047"/>
       <use xlink:href="#DejaVuSans-30" x="95.410156"/>
      </g>
     </g>
    </g>
    <g id="text_17">
     <!-- Probability density -->
     <g transform="translate(14.798438 186.606781)rotate(-90)scale(0.1 -0.1)">
      <defs>
       <path id="DejaVuSans-50" d="M 1259 4147 
L 1259 2394 
L 2053 2394 
Q 2494 2394 2734 2622 
Q 2975 2850 2975 3272 
Q 2975 3691 2734 3919 
Q 2494 4147 2053 4147 
L 1259 4147 
z
M 628 4666 
L 2053 4666 
Q 2838 4666 3239 4311 
Q 3641 3956 3641 3272 
Q 3641 2581 3239 2228 
Q 2838 1875 2053 1875 
L 1259 1875 
L 1259 0 
L 628 0 
L 628 4666 
z
" transform="scale(0.015625)"/>
       <path id="DejaVuSans-62" d="M 3116 1747 
Q 3116 2381 2855 2742 
Q 2594 3103 2138 3103 
Q 1681 3103 1420 2742 
Q 1159 2381 1159 1747 
Q 1159 1113 1420 752 
Q 1681 391 2138 391 
Q 2594 391 2855 752 
Q 3116 1113 3116 1747 
z
M 1159 2969 
Q 1341 3281 1617 3432 
Q 1894 3584 2278 3584 
Q 2916 3584 3314 3078 
Q 3713 2572 3713 1747 
Q 3713 922 3314 415 
Q 2916 -91 2278 -91 
Q 1894 -91 1617 61 
Q 1341 213 1159 525 
L 1159 0 
L 581 0 
L 581 4863 
L 1159 4863 
L 1159 2969 
z
" transform="scale(0.015625)"/>
       <path id="DejaVuSans-79" d="M 2059 -325 
Q 1816 -950 1584 -1140 
Q 1353 -1331 966 -1331 
L 506 -1331 
L 506 -850 
L 844 -850 
Q 1081 -850 1212 -737 
Q 1344 -625 1503 -206 
L 1606 56 
L 191 3500 
L 800 3500 
L 1894 763 
L 2988 3500 
L 3597 3500 
L 2059 -325 
z
" transform="scale(0.015625)"/>
       <path id="DejaVuSans-73" d="M 2834 3397 
L 2834 2853 
Q 2591 2978 2328 3040 
Q 2066 3103 1784 3103 
Q 1356 3103 1142 2972 
Q 928 2841 928 2578 
Q 928 2378 1081 2264 
Q 1234 2150 1697 2047 
L 1894 2003 
Q 2506 1872 2764 1633 
Q 3022 1394 3022 966 
Q 3022 478 2636 193 
Q 2250 -91 1575 -91 
Q 1294 -91 989 -36 
Q 684 19 347 128 
L 347 722 
Q 666 556 975 473 
Q 1284 391 1588 391 
Q 1994 391 2212 530 
Q 2431 669 2431 922 
Q 2431 1156 2273 1281 
Q 2116 1406 1581 1522 
L 1381 1569 
Q 847 1681 609 1914 
Q 372 2147 372 2553 
Q 372 3047 722 3315 
Q 1072 3584 1716 3584 
Q 2034 3584 2315 3537 
Q 2597 3491 2834 3397 
z
" transform="scale(0.015625)"/>
      </defs>
      <use xlink:href="#DejaVuSans-50"/>
      <use xlink:href="#DejaVuSans-72" x="58.552734"/>
      <use xlink:href="#DejaVuSans-6f" x="97.416016"/>
      <use xlink:href="#DejaVuSans-62" x="158.597656"/>
      <use xlink:href="#DejaVuSans-61" x="222.074219"/>
      <use xlink:href="#DejaVuSans-62" x="283.353516"/>
      <use xlink:href="#DejaVuSans-69" x="346.830078"/>
      <use xlink:href="#DejaVuSans-6c" x="374.613281"/>
      <use xlink:href="#DejaVuSans-69" x="402.396484"/>
      <use xlink:href="#DejaVuSans-74" x="430.179688"/>
      <use xlink:href="#DejaVuSans-79" x="469.388672"/>
      <use xlink:href="#DejaVuSans-20" x="528.568359"/>
      <use xlink:href="#DejaVuSans-64" x="560.355469"/>
      <use xlink:href="#DejaVuSans-65" x="623.832031"/>
      <use xlink:href="#DejaVuSans-6e" x="685.355469"/>
      <use xlink:href="#DejaVuSans-73" x="748.734375"/>
      <use xlink:href="#DejaVuSans-69" x="800.833984"/>
      <use xlink:href="#DejaVuSans-74" x="828.617188"/>
      <use xlink:href="#DejaVuSans-79" x="867.826172"/>
     </g>
    </g>
   </g>
   <g id="line2d_16">
    <path d="M 60.013977 273.312 
L 79.512749 228.775331 
L 89.912094 205.569902 
L 98.686541 186.514139 
L 106.486049 170.096522 
L 113.635599 155.561064 
L 120.135189 142.83412 
L 126.3098 131.220684 
L 132.159432 120.685622 
L 137.684084 111.184208 
L 142.883756 102.664413 
L 148.083429 94.576552 
L 152.958121 87.404686 
L 157.507835 81.083786 
L 162.057548 75.135425 
L 166.282282 69.95561 
L 170.507016 65.115618 
L 174.73175 60.623536 
L 178.631504 56.792298 
L 182.531258 53.269362 
L 186.431012 50.059745 
L 190.005787 47.39675 
L 193.580562 45.004061 
L 197.155337 42.884541 
L 200.730112 41.040726 
L 203.979907 39.605642 
L 207.229702 38.40166 
L 210.479497 37.429971 
L 213.729293 36.691534 
L 216.979088 36.187082 
L 220.228883 35.917111 
L 223.478678 35.88189 
L 226.728474 36.081453 
L 229.978269 36.515603 
L 233.228064 37.183911 
L 236.477859 38.085715 
L 239.727655 39.220124 
L 242.97745 40.586016 
L 246.227245 42.18204 
L 249.80202 44.201579 
L 253.376795 46.495248 
L 256.951569 49.060302 
L 260.526344 51.893672 
L 264.426098 55.286643 
L 268.325853 58.99006 
L 272.225607 62.99865 
L 276.450341 67.679038 
L 280.675075 72.703053 
L 284.899809 78.062301 
L 289.449522 84.198418 
L 293.999235 90.701038 
L 298.873928 98.060505 
L 304.073601 106.339922 
L 309.273273 115.04197 
L 314.797925 124.726318 
L 320.647556 135.44248 
L 326.822167 147.232394 
L 333.321758 160.128135 
L 340.471307 174.828387 
L 348.270816 191.399934 
L 357.045263 210.59558 
L 367.444608 233.919843 
L 382.068687 267.339026 
L 384.668523 273.312 
L 384.668523 273.312 
" clip-path="url(#pe8c68b9a9c)" style="fill: none; stroke: #ff7f0e; stroke-width: 1.5; stroke-linecap: square"/>
   </g>
   <g id="patch_203">
    <path d="M 43.78125 273.312 
L 43.78125 7.2 
" style="fill: none; stroke: #000000; stroke-width: 0.8; stroke-linejoin: miter; stroke-linecap: square"/>
   </g>
   <g id="patch_204">
    <path d="M 400.90125 273.312 
L 400.90125 7.2 
" style="fill: none; stroke: #000000; stroke-width: 0.8; stroke-linejoin: miter; stroke-linecap: square"/>
   </g>
   <g id="patch_205">
    <path d="M 43.78125 273.312 
L 400.90125 273.312 
" style="fill: none; stroke: #000000; stroke-width: 0.8; stroke-linejoin: miter; stroke-linecap: square"/>
   </g>
   <g id="patch_206">
    <path d="M 43.78125 7.2 
L 400.90125 7.2 
" style="fill: none; stroke: #000000; stroke-width: 0.8; stroke-linejoin: miter; stroke-linecap: square"/>
   </g>
  </g>
 </g>
 <defs>
  <clipPath id="pe8c68b9a9c">
   <rect x="43.78125" y="7.2" width="357.12" height="266.112"/>
  </clipPath>
 </defs>
</svg>
