<?xml version="1.0" encoding="utf-8" standalone="no"?>
<!DOCTYPE svg PUBLIC "-//W3C//DTD SVG 1.1//EN"
  "http://www.w3.org/Graphics/SVG/1.1/DTD/svg11.dtd">
<svg xmlns:xlink="http://www.w3.org/1999/xlink" width="408.10125pt" height="310.86825pt" viewBox="0 0 408.10125 310.86825" xmlns="http://www.w3.org/2000/svg" version="1.1">
 <metadata>
  <rdf:RDF xmlns:dc="http://purl.org/dc/elements/1.1/" xmlns:cc="http://creativecommons.org/ns#" xmlns:rdf="http://www.w3.org/1999/02/22-rdf-syntax-ns#">
   <cc:Work>
    <dc:type rdf:resource="http://purl.org/dc/dcmitype/StillImage"/>
    <dc:date>2023-01-08T00:38:02.081667</dc:date>
    <dc:format>image/svg+xml</dc:format>
    <dc:creator>
     <cc:Agent>
      <dc:title>Matplotlib v3.5.3, https://matplotlib.org/</dc:title>
     </cc:Agent>
    </dc:creator>
   </cc:Work>
  </rdf:RDF>
 </metadata>
 <defs>
  <style type="text/css">*{stroke-linejoin: round; stroke-linecap: butt}</style>
 </defs>
 <g id="figure_1">
  <g id="patch_1">
   <path d="M 0 310.86825 
L 408.10125 310.86825 
L 408.10125 0 
L 0 0 
z
" style="fill: #ffffff"/>
  </g>
  <g id="axes_1">
   <g id="patch_2">
    <path d="M 43.78125 273.312 
L 400.90125 273.312 
L 400.90125 7.2 
L 43.78125 7.2 
z
" style="fill: #ffffff"/>
   </g>
   <g id="patch_3">
    <path d="M 61.504778 273.312 
L 63.112489 273.312 
L 63.112489 270.407244 
L 61.504778 270.407244 
z
" clip-path="url(#pf692f15e54)" style="fill: #1f77b4"/>
   </g>
   <g id="patch_4">
    <path d="M 63.112489 273.312 
L 64.720201 273.312 
L 64.720201 263.145352 
L 63.112489 263.145352 
z
" clip-path="url(#pf692f15e54)" style="fill: #1f77b4"/>
   </g>
   <g id="patch_5">
    <path d="M 64.720201 273.312 
L 66.327913 273.312 
L 66.327913 258.788218 
L 64.720201 258.788218 
z
" clip-path="url(#pf692f15e54)" style="fill: #1f77b4"/>
   </g>
   <g id="patch_6">
    <path d="M 66.327913 273.312 
L 67.935625 273.312 
L 67.935625 257.33584 
L 66.327913 257.33584 
z
" clip-path="url(#pf692f15e54)" style="fill: #1f77b4"/>
   </g>
   <g id="patch_7">
    <path d="M 67.935625 273.312 
L 69.543336 273.312 
L 69.543336 249.347759 
L 67.935625 249.347759 
z
" clip-path="url(#pf692f15e54)" style="fill: #1f77b4"/>
   </g>
   <g id="patch_8">
    <path d="M 69.543336 273.312 
L 71.151048 273.312 
L 71.151048 254.431083 
L 69.543336 254.431083 
z
" clip-path="url(#pf692f15e54)" style="fill: #1f77b4"/>
   </g>
   <g id="patch_9">
    <path d="M 71.151048 273.312 
L 72.75876 273.312 
L 72.75876 239.181112 
L 71.151048 239.181112 
z
" clip-path="url(#pf692f15e54)" style="fill: #1f77b4"/>
   </g>
   <g id="patch_10">
    <path d="M 72.75876 273.312 
L 74.366471 273.312 
L 74.366471 245.716814 
L 72.75876 245.716814 
z
" clip-path="url(#pf692f15e54)" style="fill: #1f77b4"/>
   </g>
   <g id="patch_11">
    <path d="M 74.366471 273.312 
L 75.974183 273.312 
L 75.974183 240.63349 
L 74.366471 240.63349 
z
" clip-path="url(#pf692f15e54)" style="fill: #1f77b4"/>
   </g>
   <g id="patch_12">
    <path d="M 75.974183 273.312 
L 77.581895 273.312 
L 77.581895 233.371599 
L 75.974183 233.371599 
z
" clip-path="url(#pf692f15e54)" style="fill: #1f77b4"/>
   </g>
   <g id="patch_13">
    <path d="M 77.581895 273.312 
L 79.189607 273.312 
L 79.189607 230.466842 
L 77.581895 230.466842 
z
" clip-path="url(#pf692f15e54)" style="fill: #1f77b4"/>
   </g>
   <g id="patch_14">
    <path d="M 79.189607 273.312 
L 80.797318 273.312 
L 80.797318 223.93114 
L 79.189607 223.93114 
z
" clip-path="url(#pf692f15e54)" style="fill: #1f77b4"/>
   </g>
   <g id="patch_15">
    <path d="M 80.797318 273.312 
L 82.40503 273.312 
L 82.40503 221.752573 
L 80.797318 221.752573 
z
" clip-path="url(#pf692f15e54)" style="fill: #1f77b4"/>
   </g>
   <g id="patch_16">
    <path d="M 82.40503 273.312 
L 84.012742 273.312 
L 84.012742 217.395438 
L 82.40503 217.395438 
z
" clip-path="url(#pf692f15e54)" style="fill: #1f77b4"/>
   </g>
   <g id="patch_17">
    <path d="M 84.012742 273.312 
L 85.620453 273.312 
L 85.620453 214.490682 
L 84.012742 214.490682 
z
" clip-path="url(#pf692f15e54)" style="fill: #1f77b4"/>
   </g>
   <g id="patch_18">
    <path d="M 85.620453 273.312 
L 87.228165 273.312 
L 87.228165 210.133547 
L 85.620453 210.133547 
z
" clip-path="url(#pf692f15e54)" style="fill: #1f77b4"/>
   </g>
   <g id="patch_19">
    <path d="M 87.228165 273.312 
L 88.835877 273.312 
L 88.835877 231.919221 
L 87.228165 231.919221 
z
" clip-path="url(#pf692f15e54)" style="fill: #1f77b4"/>
   </g>
   <g id="patch_20">
    <path d="M 88.835877 273.312 
L 90.443588 273.312 
L 90.443588 211.585926 
L 88.835877 211.585926 
z
" clip-path="url(#pf692f15e54)" style="fill: #1f77b4"/>
   </g>
   <g id="patch_21">
    <path d="M 90.443588 273.312 
L 92.0513 273.312 
L 92.0513 216.669249 
L 90.443588 216.669249 
z
" clip-path="url(#pf692f15e54)" style="fill: #1f77b4"/>
   </g>
   <g id="patch_22">
    <path d="M 92.0513 273.312 
L 93.659012 273.312 
L 93.659012 206.502602 
L 92.0513 206.502602 
z
" clip-path="url(#pf692f15e54)" style="fill: #1f77b4"/>
   </g>
   <g id="patch_23">
    <path d="M 93.659012 273.312 
L 95.266724 273.312 
L 95.266724 210.133547 
L 93.659012 210.133547 
z
" clip-path="url(#pf692f15e54)" style="fill: #1f77b4"/>
   </g>
   <g id="patch_24">
    <path d="M 95.266724 273.312 
L 96.874435 273.312 
L 96.874435 197.788332 
L 95.266724 197.788332 
z
" clip-path="url(#pf692f15e54)" style="fill: #1f77b4"/>
   </g>
   <g id="patch_25">
    <path d="M 96.874435 273.312 
L 98.482147 273.312 
L 98.482147 189.074063 
L 96.874435 189.074063 
z
" clip-path="url(#pf692f15e54)" style="fill: #1f77b4"/>
   </g>
   <g id="patch_26">
    <path d="M 98.482147 273.312 
L 100.089859 273.312 
L 100.089859 200.693089 
L 98.482147 200.693089 
z
" clip-path="url(#pf692f15e54)" style="fill: #1f77b4"/>
   </g>
   <g id="patch_27">
    <path d="M 100.089859 273.312 
L 101.69757 273.312 
L 101.69757 187.621685 
L 100.089859 187.621685 
z
" clip-path="url(#pf692f15e54)" style="fill: #1f77b4"/>
   </g>
   <g id="patch_28">
    <path d="M 101.69757 273.312 
L 103.305282 273.312 
L 103.305282 189.800252 
L 101.69757 189.800252 
z
" clip-path="url(#pf692f15e54)" style="fill: #1f77b4"/>
   </g>
   <g id="patch_29">
    <path d="M 103.305282 273.312 
L 104.912994 273.312 
L 104.912994 184.716928 
L 103.305282 184.716928 
z
" clip-path="url(#pf692f15e54)" style="fill: #1f77b4"/>
   </g>
   <g id="patch_30">
    <path d="M 104.912994 273.312 
L 106.520706 273.312 
L 106.520706 170.193146 
L 104.912994 170.193146 
z
" clip-path="url(#pf692f15e54)" style="fill: #1f77b4"/>
   </g>
   <g id="patch_31">
    <path d="M 106.520706 273.312 
L 108.128417 273.312 
L 108.128417 174.550281 
L 106.520706 174.550281 
z
" clip-path="url(#pf692f15e54)" style="fill: #1f77b4"/>
   </g>
   <g id="patch_32">
    <path d="M 108.128417 273.312 
L 109.736129 273.312 
L 109.736129 162.205066 
L 108.128417 162.205066 
z
" clip-path="url(#pf692f15e54)" style="fill: #1f77b4"/>
   </g>
   <g id="patch_33">
    <path d="M 109.736129 273.312 
L 111.343841 273.312 
L 111.343841 166.562201 
L 109.736129 166.562201 
z
" clip-path="url(#pf692f15e54)" style="fill: #1f77b4"/>
   </g>
   <g id="patch_34">
    <path d="M 111.343841 273.312 
L 112.951552 273.312 
L 112.951552 168.740768 
L 111.343841 168.740768 
z
" clip-path="url(#pf692f15e54)" style="fill: #1f77b4"/>
   </g>
   <g id="patch_35">
    <path d="M 112.951552 273.312 
L 114.559264 273.312 
L 114.559264 162.931255 
L 112.951552 162.931255 
z
" clip-path="url(#pf692f15e54)" style="fill: #1f77b4"/>
   </g>
   <g id="patch_36">
    <path d="M 114.559264 273.312 
L 116.166976 273.312 
L 116.166976 164.383633 
L 114.559264 164.383633 
z
" clip-path="url(#pf692f15e54)" style="fill: #1f77b4"/>
   </g>
   <g id="patch_37">
    <path d="M 116.166976 273.312 
L 117.774688 273.312 
L 117.774688 149.133662 
L 116.166976 149.133662 
z
" clip-path="url(#pf692f15e54)" style="fill: #1f77b4"/>
   </g>
   <g id="patch_38">
    <path d="M 117.774688 273.312 
L 119.382399 273.312 
L 119.382399 162.931255 
L 117.774688 162.931255 
z
" clip-path="url(#pf692f15e54)" style="fill: #1f77b4"/>
   </g>
   <g id="patch_39">
    <path d="M 119.382399 273.312 
L 120.990111 273.312 
L 120.990111 157.121742 
L 119.382399 157.121742 
z
" clip-path="url(#pf692f15e54)" style="fill: #1f77b4"/>
   </g>
   <g id="patch_40">
    <path d="M 120.990111 273.312 
L 122.597823 273.312 
L 122.597823 137.514636 
L 120.990111 137.514636 
z
" clip-path="url(#pf692f15e54)" style="fill: #1f77b4"/>
   </g>
   <g id="patch_41">
    <path d="M 122.597823 273.312 
L 124.205534 273.312 
L 124.205534 150.58604 
L 122.597823 150.58604 
z
" clip-path="url(#pf692f15e54)" style="fill: #1f77b4"/>
   </g>
   <g id="patch_42">
    <path d="M 124.205534 273.312 
L 125.813246 273.312 
L 125.813246 152.038418 
L 124.205534 152.038418 
z
" clip-path="url(#pf692f15e54)" style="fill: #1f77b4"/>
   </g>
   <g id="patch_43">
    <path d="M 125.813246 273.312 
L 127.420958 273.312 
L 127.420958 133.883691 
L 125.813246 133.883691 
z
" clip-path="url(#pf692f15e54)" style="fill: #1f77b4"/>
   </g>
   <g id="patch_44">
    <path d="M 127.420958 273.312 
L 129.028669 273.312 
L 129.028669 122.990854 
L 127.420958 122.990854 
z
" clip-path="url(#pf692f15e54)" style="fill: #1f77b4"/>
   </g>
   <g id="patch_45">
    <path d="M 129.028669 273.312 
L 130.636381 273.312 
L 130.636381 131.705123 
L 129.028669 131.705123 
z
" clip-path="url(#pf692f15e54)" style="fill: #1f77b4"/>
   </g>
   <g id="patch_46">
    <path d="M 130.636381 273.312 
L 132.244093 273.312 
L 132.244093 125.89561 
L 130.636381 125.89561 
z
" clip-path="url(#pf692f15e54)" style="fill: #1f77b4"/>
   </g>
   <g id="patch_47">
    <path d="M 132.244093 273.312 
L 133.851805 273.312 
L 133.851805 140.419393 
L 132.244093 140.419393 
z
" clip-path="url(#pf692f15e54)" style="fill: #1f77b4"/>
   </g>
   <g id="patch_48">
    <path d="M 133.851805 273.312 
L 135.459516 273.312 
L 135.459516 120.812287 
L 133.851805 120.812287 
z
" clip-path="url(#pf692f15e54)" style="fill: #1f77b4"/>
   </g>
   <g id="patch_49">
    <path d="M 135.459516 273.312 
L 137.067228 273.312 
L 137.067228 122.990854 
L 135.459516 122.990854 
z
" clip-path="url(#pf692f15e54)" style="fill: #1f77b4"/>
   </g>
   <g id="patch_50">
    <path d="M 137.067228 273.312 
L 138.67494 273.312 
L 138.67494 114.276585 
L 137.067228 114.276585 
z
" clip-path="url(#pf692f15e54)" style="fill: #1f77b4"/>
   </g>
   <g id="patch_51">
    <path d="M 138.67494 273.312 
L 140.282651 273.312 
L 140.282651 115.728963 
L 138.67494 115.728963 
z
" clip-path="url(#pf692f15e54)" style="fill: #1f77b4"/>
   </g>
   <g id="patch_52">
    <path d="M 140.282651 273.312 
L 141.890363 273.312 
L 141.890363 118.633719 
L 140.282651 118.633719 
z
" clip-path="url(#pf692f15e54)" style="fill: #1f77b4"/>
   </g>
   <g id="patch_53">
    <path d="M 141.890363 273.312 
L 143.498075 273.312 
L 143.498075 109.193261 
L 141.890363 109.193261 
z
" clip-path="url(#pf692f15e54)" style="fill: #1f77b4"/>
   </g>
   <g id="patch_54">
    <path d="M 143.498075 273.312 
L 145.105787 273.312 
L 145.105787 136.788447 
L 143.498075 136.788447 
z
" clip-path="url(#pf692f15e54)" style="fill: #1f77b4"/>
   </g>
   <g id="patch_55">
    <path d="M 145.105787 273.312 
L 146.713498 273.312 
L 146.713498 96.848046 
L 145.105787 96.848046 
z
" clip-path="url(#pf692f15e54)" style="fill: #1f77b4"/>
   </g>
   <g id="patch_56">
    <path d="M 146.713498 273.312 
L 148.32121 273.312 
L 148.32121 103.383748 
L 146.713498 103.383748 
z
" clip-path="url(#pf692f15e54)" style="fill: #1f77b4"/>
   </g>
   <g id="patch_57">
    <path d="M 148.32121 273.312 
L 149.928922 273.312 
L 149.928922 83.050453 
L 148.32121 83.050453 
z
" clip-path="url(#pf692f15e54)" style="fill: #1f77b4"/>
   </g>
   <g id="patch_58">
    <path d="M 149.928922 273.312 
L 151.536633 273.312 
L 151.536633 102.657559 
L 149.928922 102.657559 
z
" clip-path="url(#pf692f15e54)" style="fill: #1f77b4"/>
   </g>
   <g id="patch_59">
    <path d="M 151.536633 273.312 
L 153.144345 273.312 
L 153.144345 89.586155 
L 151.536633 89.586155 
z
" clip-path="url(#pf692f15e54)" style="fill: #1f77b4"/>
   </g>
   <g id="patch_60">
    <path d="M 153.144345 273.312 
L 154.752057 273.312 
L 154.752057 97.574235 
L 153.144345 97.574235 
z
" clip-path="url(#pf692f15e54)" style="fill: #1f77b4"/>
   </g>
   <g id="patch_61">
    <path d="M 154.752057 273.312 
L 156.359769 273.312 
L 156.359769 80.145696 
L 154.752057 80.145696 
z
" clip-path="url(#pf692f15e54)" style="fill: #1f77b4"/>
   </g>
   <g id="patch_62">
    <path d="M 156.359769 273.312 
L 157.96748 273.312 
L 157.96748 83.776642 
L 156.359769 83.776642 
z
" clip-path="url(#pf692f15e54)" style="fill: #1f77b4"/>
   </g>
   <g id="patch_63">
    <path d="M 157.96748 273.312 
L 159.575192 273.312 
L 159.575192 94.669479 
L 157.96748 94.669479 
z
" clip-path="url(#pf692f15e54)" style="fill: #1f77b4"/>
   </g>
   <g id="patch_64">
    <path d="M 159.575192 273.312 
L 161.182904 273.312 
L 161.182904 93.943289 
L 159.575192 93.943289 
z
" clip-path="url(#pf692f15e54)" style="fill: #1f77b4"/>
   </g>
   <g id="patch_65">
    <path d="M 161.182904 273.312 
L 162.790615 273.312 
L 162.790615 84.502831 
L 161.182904 84.502831 
z
" clip-path="url(#pf692f15e54)" style="fill: #1f77b4"/>
   </g>
   <g id="patch_66">
    <path d="M 162.790615 273.312 
L 164.398327 273.312 
L 164.398327 85.22902 
L 162.790615 85.22902 
z
" clip-path="url(#pf692f15e54)" style="fill: #1f77b4"/>
   </g>
   <g id="patch_67">
    <path d="M 164.398327 273.312 
L 166.006039 273.312 
L 166.006039 86.681398 
L 164.398327 86.681398 
z
" clip-path="url(#pf692f15e54)" style="fill: #1f77b4"/>
   </g>
   <g id="patch_68">
    <path d="M 166.006039 273.312 
L 167.61375 273.312 
L 167.61375 81.598074 
L 166.006039 81.598074 
z
" clip-path="url(#pf692f15e54)" style="fill: #1f77b4"/>
   </g>
   <g id="patch_69">
    <path d="M 167.61375 273.312 
L 169.221462 273.312 
L 169.221462 69.25286 
L 167.61375 69.25286 
z
" clip-path="url(#pf692f15e54)" style="fill: #1f77b4"/>
   </g>
   <g id="patch_70">
    <path d="M 169.221462 273.312 
L 170.829174 273.312 
L 170.829174 89.586155 
L 169.221462 89.586155 
z
" clip-path="url(#pf692f15e54)" style="fill: #1f77b4"/>
   </g>
   <g id="patch_71">
    <path d="M 170.829174 273.312 
L 172.436886 273.312 
L 172.436886 91.764722 
L 170.829174 91.764722 
z
" clip-path="url(#pf692f15e54)" style="fill: #1f77b4"/>
   </g>
   <g id="patch_72">
    <path d="M 172.436886 273.312 
L 174.044597 273.312 
L 174.044597 63.443347 
L 172.436886 63.443347 
z
" clip-path="url(#pf692f15e54)" style="fill: #1f77b4"/>
   </g>
   <g id="patch_73">
    <path d="M 174.044597 273.312 
L 175.652309 273.312 
L 175.652309 86.681398 
L 174.044597 86.681398 
z
" clip-path="url(#pf692f15e54)" style="fill: #1f77b4"/>
   </g>
   <g id="patch_74">
    <path d="M 175.652309 273.312 
L 177.260021 273.312 
L 177.260021 87.407587 
L 175.652309 87.407587 
z
" clip-path="url(#pf692f15e54)" style="fill: #1f77b4"/>
   </g>
   <g id="patch_75">
    <path d="M 177.260021 273.312 
L 178.867732 273.312 
L 178.867732 57.633834 
L 177.260021 57.633834 
z
" clip-path="url(#pf692f15e54)" style="fill: #1f77b4"/>
   </g>
   <g id="patch_76">
    <path d="M 178.867732 273.312 
L 180.475444 273.312 
L 180.475444 83.776642 
L 178.867732 83.776642 
z
" clip-path="url(#pf692f15e54)" style="fill: #1f77b4"/>
   </g>
   <g id="patch_77">
    <path d="M 180.475444 273.312 
L 182.083156 273.312 
L 182.083156 49.645754 
L 180.475444 49.645754 
z
" clip-path="url(#pf692f15e54)" style="fill: #1f77b4"/>
   </g>
   <g id="patch_78">
    <path d="M 182.083156 273.312 
L 183.690868 273.312 
L 183.690868 85.22902 
L 182.083156 85.22902 
z
" clip-path="url(#pf692f15e54)" style="fill: #1f77b4"/>
   </g>
   <g id="patch_79">
    <path d="M 183.690868 273.312 
L 185.298579 273.312 
L 185.298579 59.086212 
L 183.690868 59.086212 
z
" clip-path="url(#pf692f15e54)" style="fill: #1f77b4"/>
   </g>
   <g id="patch_80">
    <path d="M 185.298579 273.312 
L 186.906291 273.312 
L 186.906291 59.086212 
L 185.298579 59.086212 
z
" clip-path="url(#pf692f15e54)" style="fill: #1f77b4"/>
   </g>
   <g id="patch_81">
    <path d="M 186.906291 273.312 
L 188.514003 273.312 
L 188.514003 56.907645 
L 186.906291 56.907645 
z
" clip-path="url(#pf692f15e54)" style="fill: #1f77b4"/>
   </g>
   <g id="patch_82">
    <path d="M 188.514003 273.312 
L 190.121714 273.312 
L 190.121714 42.383862 
L 188.514003 42.383862 
z
" clip-path="url(#pf692f15e54)" style="fill: #1f77b4"/>
   </g>
   <g id="patch_83">
    <path d="M 190.121714 273.312 
L 191.729426 273.312 
L 191.729426 72.883805 
L 190.121714 72.883805 
z
" clip-path="url(#pf692f15e54)" style="fill: #1f77b4"/>
   </g>
   <g id="patch_84">
    <path d="M 191.729426 273.312 
L 193.337138 273.312 
L 193.337138 45.288619 
L 191.729426 45.288619 
z
" clip-path="url(#pf692f15e54)" style="fill: #1f77b4"/>
   </g>
   <g id="patch_85">
    <path d="M 193.337138 273.312 
L 194.944849 273.312 
L 194.944849 56.907645 
L 193.337138 56.907645 
z
" clip-path="url(#pf692f15e54)" style="fill: #1f77b4"/>
   </g>
   <g id="patch_86">
    <path d="M 194.944849 273.312 
L 196.552561 273.312 
L 196.552561 49.645754 
L 194.944849 49.645754 
z
" clip-path="url(#pf692f15e54)" style="fill: #1f77b4"/>
   </g>
   <g id="patch_87">
    <path d="M 196.552561 273.312 
L 198.160273 273.312 
L 198.160273 59.812401 
L 196.552561 59.812401 
z
" clip-path="url(#pf692f15e54)" style="fill: #1f77b4"/>
   </g>
   <g id="patch_88">
    <path d="M 198.160273 273.312 
L 199.767985 273.312 
L 199.767985 67.074292 
L 198.160273 67.074292 
z
" clip-path="url(#pf692f15e54)" style="fill: #1f77b4"/>
   </g>
   <g id="patch_89">
    <path d="M 199.767985 273.312 
L 201.375696 273.312 
L 201.375696 54.729077 
L 199.767985 54.729077 
z
" clip-path="url(#pf692f15e54)" style="fill: #1f77b4"/>
   </g>
   <g id="patch_90">
    <path d="M 201.375696 273.312 
L 202.983408 273.312 
L 202.983408 47.467186 
L 201.375696 47.467186 
z
" clip-path="url(#pf692f15e54)" style="fill: #1f77b4"/>
   </g>
   <g id="patch_91">
    <path d="M 202.983408 273.312 
L 204.59112 273.312 
L 204.59112 77.24094 
L 202.983408 77.24094 
z
" clip-path="url(#pf692f15e54)" style="fill: #1f77b4"/>
   </g>
   <g id="patch_92">
    <path d="M 204.59112 273.312 
L 206.198831 273.312 
L 206.198831 50.371943 
L 204.59112 50.371943 
z
" clip-path="url(#pf692f15e54)" style="fill: #1f77b4"/>
   </g>
   <g id="patch_93">
    <path d="M 206.198831 273.312 
L 207.806543 273.312 
L 207.806543 40.931484 
L 206.198831 40.931484 
z
" clip-path="url(#pf692f15e54)" style="fill: #1f77b4"/>
   </g>
   <g id="patch_94">
    <path d="M 207.806543 273.312 
L 209.414255 273.312 
L 209.414255 60.53859 
L 207.806543 60.53859 
z
" clip-path="url(#pf692f15e54)" style="fill: #1f77b4"/>
   </g>
   <g id="patch_95">
    <path d="M 209.414255 273.312 
L 211.021967 273.312 
L 211.021967 49.645754 
L 209.414255 49.645754 
z
" clip-path="url(#pf692f15e54)" style="fill: #1f77b4"/>
   </g>
   <g id="patch_96">
    <path d="M 211.021967 273.312 
L 212.629678 273.312 
L 212.629678 40.931484 
L 211.021967 40.931484 
z
" clip-path="url(#pf692f15e54)" style="fill: #1f77b4"/>
   </g>
   <g id="patch_97">
    <path d="M 212.629678 273.312 
L 214.23739 273.312 
L 214.23739 50.371943 
L 212.629678 50.371943 
z
" clip-path="url(#pf692f15e54)" style="fill: #1f77b4"/>
   </g>
   <g id="patch_98">
    <path d="M 214.23739 273.312 
L 215.845102 273.312 
L 215.845102 43.836241 
L 214.23739 43.836241 
z
" clip-path="url(#pf692f15e54)" style="fill: #1f77b4"/>
   </g>
   <g id="patch_99">
    <path d="M 215.845102 273.312 
L 217.452813 273.312 
L 217.452813 27.86008 
L 215.845102 27.86008 
z
" clip-path="url(#pf692f15e54)" style="fill: #1f77b4"/>
   </g>
   <g id="patch_100">
    <path d="M 217.452813 273.312 
L 219.060525 273.312 
L 219.060525 52.55051 
L 217.452813 52.55051 
z
" clip-path="url(#pf692f15e54)" style="fill: #1f77b4"/>
   </g>
   <g id="patch_101">
    <path d="M 219.060525 273.312 
L 220.668237 273.312 
L 220.668237 47.467186 
L 219.060525 47.467186 
z
" clip-path="url(#pf692f15e54)" style="fill: #1f77b4"/>
   </g>
   <g id="patch_102">
    <path d="M 220.668237 273.312 
L 222.275949 273.312 
L 222.275949 35.121971 
L 220.668237 35.121971 
z
" clip-path="url(#pf692f15e54)" style="fill: #1f77b4"/>
   </g>
   <g id="patch_103">
    <path d="M 222.275949 273.312 
L 223.88366 273.312 
L 223.88366 62.717158 
L 222.275949 62.717158 
z
" clip-path="url(#pf692f15e54)" style="fill: #1f77b4"/>
   </g>
   <g id="patch_104">
    <path d="M 223.88366 273.312 
L 225.491372 273.312 
L 225.491372 40.931484 
L 223.88366 40.931484 
z
" clip-path="url(#pf692f15e54)" style="fill: #1f77b4"/>
   </g>
   <g id="patch_105">
    <path d="M 225.491372 273.312 
L 227.099084 273.312 
L 227.099084 37.300539 
L 225.491372 37.300539 
z
" clip-path="url(#pf692f15e54)" style="fill: #1f77b4"/>
   </g>
   <g id="patch_106">
    <path d="M 227.099084 273.312 
L 228.706795 273.312 
L 228.706795 45.288619 
L 227.099084 45.288619 
z
" clip-path="url(#pf692f15e54)" style="fill: #1f77b4"/>
   </g>
   <g id="patch_107">
    <path d="M 228.706795 273.312 
L 230.314507 273.312 
L 230.314507 32.943404 
L 228.706795 32.943404 
z
" clip-path="url(#pf692f15e54)" style="fill: #1f77b4"/>
   </g>
   <g id="patch_108">
    <path d="M 230.314507 273.312 
L 231.922219 273.312 
L 231.922219 49.645754 
L 230.314507 49.645754 
z
" clip-path="url(#pf692f15e54)" style="fill: #1f77b4"/>
   </g>
   <g id="patch_109">
    <path d="M 231.922219 273.312 
L 233.52993 273.312 
L 233.52993 42.383862 
L 231.922219 42.383862 
z
" clip-path="url(#pf692f15e54)" style="fill: #1f77b4"/>
   </g>
   <g id="patch_110">
    <path d="M 233.52993 273.312 
L 235.137642 273.312 
L 235.137642 24.229135 
L 233.52993 24.229135 
z
" clip-path="url(#pf692f15e54)" style="fill: #1f77b4"/>
   </g>
   <g id="patch_111">
    <path d="M 235.137642 273.312 
L 236.745354 273.312 
L 236.745354 30.038648 
L 235.137642 30.038648 
z
" clip-path="url(#pf692f15e54)" style="fill: #1f77b4"/>
   </g>
   <g id="patch_112">
    <path d="M 236.745354 273.312 
L 238.353066 273.312 
L 238.353066 67.800481 
L 236.745354 67.800481 
z
" clip-path="url(#pf692f15e54)" style="fill: #1f77b4"/>
   </g>
   <g id="patch_113">
    <path d="M 238.353066 273.312 
L 239.960777 273.312 
L 239.960777 34.395782 
L 238.353066 34.395782 
z
" clip-path="url(#pf692f15e54)" style="fill: #1f77b4"/>
   </g>
   <g id="patch_114">
    <path d="M 239.960777 273.312 
L 241.568489 273.312 
L 241.568489 38.026728 
L 239.960777 38.026728 
z
" clip-path="url(#pf692f15e54)" style="fill: #1f77b4"/>
   </g>
   <g id="patch_115">
    <path d="M 241.568489 273.312 
L 243.176201 273.312 
L 243.176201 64.895725 
L 241.568489 64.895725 
z
" clip-path="url(#pf692f15e54)" style="fill: #1f77b4"/>
   </g>
   <g id="patch_116">
    <path d="M 243.176201 273.312 
L 244.783912 273.312 
L 244.783912 50.371943 
L 243.176201 50.371943 
z
" clip-path="url(#pf692f15e54)" style="fill: #1f77b4"/>
   </g>
   <g id="patch_117">
    <path d="M 244.783912 273.312 
L 246.391624 273.312 
L 246.391624 46.014808 
L 244.783912 46.014808 
z
" clip-path="url(#pf692f15e54)" style="fill: #1f77b4"/>
   </g>
   <g id="patch_118">
    <path d="M 246.391624 273.312 
L 247.999336 273.312 
L 247.999336 46.740997 
L 246.391624 46.740997 
z
" clip-path="url(#pf692f15e54)" style="fill: #1f77b4"/>
   </g>
   <g id="patch_119">
    <path d="M 247.999336 273.312 
L 249.607048 273.312 
L 249.607048 19.872 
L 247.999336 19.872 
z
" clip-path="url(#pf692f15e54)" style="fill: #1f77b4"/>
   </g>
   <g id="patch_120">
    <path d="M 249.607048 273.312 
L 251.214759 273.312 
L 251.214759 61.264779 
L 249.607048 61.264779 
z
" clip-path="url(#pf692f15e54)" style="fill: #1f77b4"/>
   </g>
   <g id="patch_121">
    <path d="M 251.214759 273.312 
L 252.822471 273.312 
L 252.822471 58.360023 
L 251.214759 58.360023 
z
" clip-path="url(#pf692f15e54)" style="fill: #1f77b4"/>
   </g>
   <g id="patch_122">
    <path d="M 252.822471 273.312 
L 254.430183 273.312 
L 254.430183 61.264779 
L 252.822471 61.264779 
z
" clip-path="url(#pf692f15e54)" style="fill: #1f77b4"/>
   </g>
   <g id="patch_123">
    <path d="M 254.430183 273.312 
L 256.037894 273.312 
L 256.037894 59.812401 
L 254.430183 59.812401 
z
" clip-path="url(#pf692f15e54)" style="fill: #1f77b4"/>
   </g>
   <g id="patch_124">
    <path d="M 256.037894 273.312 
L 257.645606 273.312 
L 257.645606 51.824321 
L 256.037894 51.824321 
z
" clip-path="url(#pf692f15e54)" style="fill: #1f77b4"/>
   </g>
   <g id="patch_125">
    <path d="M 257.645606 273.312 
L 259.253318 273.312 
L 259.253318 59.812401 
L 257.645606 59.812401 
z
" clip-path="url(#pf692f15e54)" style="fill: #1f77b4"/>
   </g>
   <g id="patch_126">
    <path d="M 259.253318 273.312 
L 260.861029 273.312 
L 260.861029 46.740997 
L 259.253318 46.740997 
z
" clip-path="url(#pf692f15e54)" style="fill: #1f77b4"/>
   </g>
   <g id="patch_127">
    <path d="M 260.861029 273.312 
L 262.468741 273.312 
L 262.468741 52.55051 
L 260.861029 52.55051 
z
" clip-path="url(#pf692f15e54)" style="fill: #1f77b4"/>
   </g>
   <g id="patch_128">
    <path d="M 262.468741 273.312 
L 264.076453 273.312 
L 264.076453 59.812401 
L 262.468741 59.812401 
z
" clip-path="url(#pf692f15e54)" style="fill: #1f77b4"/>
   </g>
   <g id="patch_129">
    <path d="M 264.076453 273.312 
L 265.684165 273.312 
L 265.684165 60.53859 
L 264.076453 60.53859 
z
" clip-path="url(#pf692f15e54)" style="fill: #1f77b4"/>
   </g>
   <g id="patch_130">
    <path d="M 265.684165 273.312 
L 267.291876 273.312 
L 267.291876 64.895725 
L 265.684165 64.895725 
z
" clip-path="url(#pf692f15e54)" style="fill: #1f77b4"/>
   </g>
   <g id="patch_131">
    <path d="M 267.291876 273.312 
L 268.899588 273.312 
L 268.899588 64.169536 
L 267.291876 64.169536 
z
" clip-path="url(#pf692f15e54)" style="fill: #1f77b4"/>
   </g>
   <g id="patch_132">
    <path d="M 268.899588 273.312 
L 270.5073 273.312 
L 270.5073 66.348103 
L 268.899588 66.348103 
z
" clip-path="url(#pf692f15e54)" style="fill: #1f77b4"/>
   </g>
   <g id="patch_133">
    <path d="M 270.5073 273.312 
L 272.115011 273.312 
L 272.115011 64.895725 
L 270.5073 64.895725 
z
" clip-path="url(#pf692f15e54)" style="fill: #1f77b4"/>
   </g>
   <g id="patch_134">
    <path d="M 272.115011 273.312 
L 273.722723 273.312 
L 273.722723 72.157616 
L 272.115011 72.157616 
z
" clip-path="url(#pf692f15e54)" style="fill: #1f77b4"/>
   </g>
   <g id="patch_135">
    <path d="M 273.722723 273.312 
L 275.330435 273.312 
L 275.330435 90.312344 
L 273.722723 90.312344 
z
" clip-path="url(#pf692f15e54)" style="fill: #1f77b4"/>
   </g>
   <g id="patch_136">
    <path d="M 275.330435 273.312 
L 276.938147 273.312 
L 276.938147 78.693318 
L 275.330435 78.693318 
z
" clip-path="url(#pf692f15e54)" style="fill: #1f77b4"/>
   </g>
   <g id="patch_137">
    <path d="M 276.938147 273.312 
L 278.545858 273.312 
L 278.545858 62.717158 
L 276.938147 62.717158 
z
" clip-path="url(#pf692f15e54)" style="fill: #1f77b4"/>
   </g>
   <g id="patch_138">
    <path d="M 278.545858 273.312 
L 280.15357 273.312 
L 280.15357 89.586155 
L 278.545858 89.586155 
z
" clip-path="url(#pf692f15e54)" style="fill: #1f77b4"/>
   </g>
   <g id="patch_139">
    <path d="M 280.15357 273.312 
L 281.761282 273.312 
L 281.761282 83.776642 
L 280.15357 83.776642 
z
" clip-path="url(#pf692f15e54)" style="fill: #1f77b4"/>
   </g>
   <g id="patch_140">
    <path d="M 281.761282 273.312 
L 283.368993 273.312 
L 283.368993 74.336183 
L 281.761282 74.336183 
z
" clip-path="url(#pf692f15e54)" style="fill: #1f77b4"/>
   </g>
   <g id="patch_141">
    <path d="M 283.368993 273.312 
L 284.976705 273.312 
L 284.976705 85.22902 
L 283.368993 85.22902 
z
" clip-path="url(#pf692f15e54)" style="fill: #1f77b4"/>
   </g>
   <g id="patch_142">
    <path d="M 284.976705 273.312 
L 286.584417 273.312 
L 286.584417 114.276585 
L 284.976705 114.276585 
z
" clip-path="url(#pf692f15e54)" style="fill: #1f77b4"/>
   </g>
   <g id="patch_143">
    <path d="M 286.584417 273.312 
L 288.192129 273.312 
L 288.192129 111.371828 
L 286.584417 111.371828 
z
" clip-path="url(#pf692f15e54)" style="fill: #1f77b4"/>
   </g>
   <g id="patch_144">
    <path d="M 288.192129 273.312 
L 289.79984 273.312 
L 289.79984 89.586155 
L 288.192129 89.586155 
z
" clip-path="url(#pf692f15e54)" style="fill: #1f77b4"/>
   </g>
   <g id="patch_145">
    <path d="M 289.79984 273.312 
L 291.407552 273.312 
L 291.407552 100.478991 
L 289.79984 100.478991 
z
" clip-path="url(#pf692f15e54)" style="fill: #1f77b4"/>
   </g>
   <g id="patch_146">
    <path d="M 291.407552 273.312 
L 293.015264 273.312 
L 293.015264 104.836126 
L 291.407552 104.836126 
z
" clip-path="url(#pf692f15e54)" style="fill: #1f77b4"/>
   </g>
   <g id="patch_147">
    <path d="M 293.015264 273.312 
L 294.622975 273.312 
L 294.622975 104.836126 
L 293.015264 104.836126 
z
" clip-path="url(#pf692f15e54)" style="fill: #1f77b4"/>
   </g>
   <g id="patch_148">
    <path d="M 294.622975 273.312 
L 296.230687 273.312 
L 296.230687 101.205181 
L 294.622975 101.205181 
z
" clip-path="url(#pf692f15e54)" style="fill: #1f77b4"/>
   </g>
   <g id="patch_149">
    <path d="M 296.230687 273.312 
L 297.838399 273.312 
L 297.838399 108.467072 
L 296.230687 108.467072 
z
" clip-path="url(#pf692f15e54)" style="fill: #1f77b4"/>
   </g>
   <g id="patch_150">
    <path d="M 297.838399 273.312 
L 299.44611 273.312 
L 299.44611 98.300424 
L 297.838399 98.300424 
z
" clip-path="url(#pf692f15e54)" style="fill: #1f77b4"/>
   </g>
   <g id="patch_151">
    <path d="M 299.44611 273.312 
L 301.053822 273.312 
L 301.053822 118.633719 
L 299.44611 118.633719 
z
" clip-path="url(#pf692f15e54)" style="fill: #1f77b4"/>
   </g>
   <g id="patch_152">
    <path d="M 301.053822 273.312 
L 302.661534 273.312 
L 302.661534 95.395668 
L 301.053822 95.395668 
z
" clip-path="url(#pf692f15e54)" style="fill: #1f77b4"/>
   </g>
   <g id="patch_153">
    <path d="M 302.661534 273.312 
L 304.269246 273.312 
L 304.269246 106.288504 
L 302.661534 106.288504 
z
" clip-path="url(#pf692f15e54)" style="fill: #1f77b4"/>
   </g>
   <g id="patch_154">
    <path d="M 304.269246 273.312 
L 305.876957 273.312 
L 305.876957 107.740883 
L 304.269246 107.740883 
z
" clip-path="url(#pf692f15e54)" style="fill: #1f77b4"/>
   </g>
   <g id="patch_155">
    <path d="M 305.876957 273.312 
L 307.484669 273.312 
L 307.484669 112.098017 
L 305.876957 112.098017 
z
" clip-path="url(#pf692f15e54)" style="fill: #1f77b4"/>
   </g>
   <g id="patch_156">
    <path d="M 307.484669 273.312 
L 309.092381 273.312 
L 309.092381 114.276585 
L 307.484669 114.276585 
z
" clip-path="url(#pf692f15e54)" style="fill: #1f77b4"/>
   </g>
   <g id="patch_157">
    <path d="M 309.092381 273.312 
L 310.700092 273.312 
L 310.700092 135.336069 
L 309.092381 135.336069 
z
" clip-path="url(#pf692f15e54)" style="fill: #1f77b4"/>
   </g>
   <g id="patch_158">
    <path d="M 310.700092 273.312 
L 312.307804 273.312 
L 312.307804 137.514636 
L 310.700092 137.514636 
z
" clip-path="url(#pf692f15e54)" style="fill: #1f77b4"/>
   </g>
   <g id="patch_159">
    <path d="M 312.307804 273.312 
L 313.915516 273.312 
L 313.915516 135.336069 
L 312.307804 135.336069 
z
" clip-path="url(#pf692f15e54)" style="fill: #1f77b4"/>
   </g>
   <g id="patch_160">
    <path d="M 313.915516 273.312 
L 315.523228 273.312 
L 315.523228 123.717043 
L 313.915516 123.717043 
z
" clip-path="url(#pf692f15e54)" style="fill: #1f77b4"/>
   </g>
   <g id="patch_161">
    <path d="M 315.523228 273.312 
L 317.130939 273.312 
L 317.130939 145.502716 
L 315.523228 145.502716 
z
" clip-path="url(#pf692f15e54)" style="fill: #1f77b4"/>
   </g>
   <g id="patch_162">
    <path d="M 317.130939 273.312 
L 318.738651 273.312 
L 318.738651 120.812287 
L 317.130939 120.812287 
z
" clip-path="url(#pf692f15e54)" style="fill: #1f77b4"/>
   </g>
   <g id="patch_163">
    <path d="M 318.738651 273.312 
L 320.346363 273.312 
L 320.346363 134.60988 
L 318.738651 134.60988 
z
" clip-path="url(#pf692f15e54)" style="fill: #1f77b4"/>
   </g>
   <g id="patch_164">
    <path d="M 320.346363 273.312 
L 321.954074 273.312 
L 321.954074 143.324149 
L 320.346363 143.324149 
z
" clip-path="url(#pf692f15e54)" style="fill: #1f77b4"/>
   </g>
   <g id="patch_165">
    <path d="M 321.954074 273.312 
L 323.561786 273.312 
L 323.561786 145.502716 
L 321.954074 145.502716 
z
" clip-path="url(#pf692f15e54)" style="fill: #1f77b4"/>
   </g>
   <g id="patch_166">
    <path d="M 323.561786 273.312 
L 325.169498 273.312 
L 325.169498 144.050338 
L 323.561786 144.050338 
z
" clip-path="url(#pf692f15e54)" style="fill: #1f77b4"/>
   </g>
   <g id="patch_167">
    <path d="M 325.169498 273.312 
L 326.777209 273.312 
L 326.777209 140.419393 
L 325.169498 140.419393 
z
" clip-path="url(#pf692f15e54)" style="fill: #1f77b4"/>
   </g>
   <g id="patch_168">
    <path d="M 326.777209 273.312 
L 328.384921 273.312 
L 328.384921 170.919335 
L 326.777209 170.919335 
z
" clip-path="url(#pf692f15e54)" style="fill: #1f77b4"/>
   </g>
   <g id="patch_169">
    <path d="M 328.384921 273.312 
L 329.992633 273.312 
L 329.992633 160.752688 
L 328.384921 160.752688 
z
" clip-path="url(#pf692f15e54)" style="fill: #1f77b4"/>
   </g>
   <g id="patch_170">
    <path d="M 329.992633 273.312 
L 331.600345 273.312 
L 331.600345 172.371713 
L 329.992633 172.371713 
z
" clip-path="url(#pf692f15e54)" style="fill: #1f77b4"/>
   </g>
   <g id="patch_171">
    <path d="M 331.600345 273.312 
L 333.208056 273.312 
L 333.208056 166.562201 
L 331.600345 166.562201 
z
" clip-path="url(#pf692f15e54)" style="fill: #1f77b4"/>
   </g>
   <g id="patch_172">
    <path d="M 333.208056 273.312 
L 334.815768 273.312 
L 334.815768 170.919335 
L 333.208056 170.919335 
z
" clip-path="url(#pf692f15e54)" style="fill: #1f77b4"/>
   </g>
   <g id="patch_173">
    <path d="M 334.815768 273.312 
L 336.42348 273.312 
L 336.42348 173.824092 
L 334.815768 173.824092 
z
" clip-path="url(#pf692f15e54)" style="fill: #1f77b4"/>
   </g>
   <g id="patch_174">
    <path d="M 336.42348 273.312 
L 338.031191 273.312 
L 338.031191 176.728848 
L 336.42348 176.728848 
z
" clip-path="url(#pf692f15e54)" style="fill: #1f77b4"/>
   </g>
   <g id="patch_175">
    <path d="M 338.031191 273.312 
L 339.638903 273.312 
L 339.638903 176.728848 
L 338.031191 176.728848 
z
" clip-path="url(#pf692f15e54)" style="fill: #1f77b4"/>
   </g>
   <g id="patch_176">
    <path d="M 339.638903 273.312 
L 341.246615 273.312 
L 341.246615 175.27647 
L 339.638903 175.27647 
z
" clip-path="url(#pf692f15e54)" style="fill: #1f77b4"/>
   </g>
   <g id="patch_177">
    <path d="M 341.246615 273.312 
L 342.854327 273.312 
L 342.854327 183.990739 
L 341.246615 183.990739 
z
" clip-path="url(#pf692f15e54)" style="fill: #1f77b4"/>
   </g>
   <g id="patch_178">
    <path d="M 342.854327 273.312 
L 344.462038 273.312 
L 344.462038 185.443117 
L 342.854327 185.443117 
z
" clip-path="url(#pf692f15e54)" style="fill: #1f77b4"/>
   </g>
   <g id="patch_179">
    <path d="M 344.462038 273.312 
L 346.06975 273.312 
L 346.06975 186.895496 
L 344.462038 186.895496 
z
" clip-path="url(#pf692f15e54)" style="fill: #1f77b4"/>
   </g>
   <g id="patch_180">
    <path d="M 346.06975 273.312 
L 347.677462 273.312 
L 347.677462 189.800252 
L 346.06975 189.800252 
z
" clip-path="url(#pf692f15e54)" style="fill: #1f77b4"/>
   </g>
   <g id="patch_181">
    <path d="M 347.677462 273.312 
L 349.285173 273.312 
L 349.285173 197.062143 
L 347.677462 197.062143 
z
" clip-path="url(#pf692f15e54)" style="fill: #1f77b4"/>
   </g>
   <g id="patch_182">
    <path d="M 349.285173 273.312 
L 350.892885 273.312 
L 350.892885 197.062143 
L 349.285173 197.062143 
z
" clip-path="url(#pf692f15e54)" style="fill: #1f77b4"/>
   </g>
   <g id="patch_183">
    <path d="M 350.892885 273.312 
L 352.500597 273.312 
L 352.500597 205.776413 
L 350.892885 205.776413 
z
" clip-path="url(#pf692f15e54)" style="fill: #1f77b4"/>
   </g>
   <g id="patch_184">
    <path d="M 352.500597 273.312 
L 354.108309 273.312 
L 354.108309 210.133547 
L 352.500597 210.133547 
z
" clip-path="url(#pf692f15e54)" style="fill: #1f77b4"/>
   </g>
   <g id="patch_185">
    <path d="M 354.108309 273.312 
L 355.71602 273.312 
L 355.71602 218.121628 
L 354.108309 218.121628 
z
" clip-path="url(#pf692f15e54)" style="fill: #1f77b4"/>
   </g>
   <g id="patch_186">
    <path d="M 355.71602 273.312 
L 357.323732 273.312 
L 357.323732 224.65733 
L 355.71602 224.65733 
z
" clip-path="url(#pf692f15e54)" style="fill: #1f77b4"/>
   </g>
   <g id="patch_187">
    <path d="M 357.323732 273.312 
L 358.931444 273.312 
L 358.931444 224.65733 
L 357.323732 224.65733 
z
" clip-path="url(#pf692f15e54)" style="fill: #1f77b4"/>
   </g>
   <g id="patch_188">
    <path d="M 358.931444 273.312 
L 360.539155 273.312 
L 360.539155 225.383519 
L 358.931444 225.383519 
z
" clip-path="url(#pf692f15e54)" style="fill: #1f77b4"/>
   </g>
   <g id="patch_189">
    <path d="M 360.539155 273.312 
L 362.146867 273.312 
L 362.146867 220.300195 
L 360.539155 220.300195 
z
" clip-path="url(#pf692f15e54)" style="fill: #1f77b4"/>
   </g>
   <g id="patch_190">
    <path d="M 362.146867 273.312 
L 363.754579 273.312 
L 363.754579 222.478762 
L 362.146867 222.478762 
z
" clip-path="url(#pf692f15e54)" style="fill: #1f77b4"/>
   </g>
   <g id="patch_191">
    <path d="M 363.754579 273.312 
L 365.36229 273.312 
L 365.36229 230.466842 
L 363.754579 230.466842 
z
" clip-path="url(#pf692f15e54)" style="fill: #1f77b4"/>
   </g>
   <g id="patch_192">
    <path d="M 365.36229 273.312 
L 366.970002 273.312 
L 366.970002 232.64541 
L 365.36229 232.64541 
z
" clip-path="url(#pf692f15e54)" style="fill: #1f77b4"/>
   </g>
   <g id="patch_193">
    <path d="M 366.970002 273.312 
L 368.577714 273.312 
L 368.577714 236.276355 
L 366.970002 236.276355 
z
" clip-path="url(#pf692f15e54)" style="fill: #1f77b4"/>
   </g>
   <g id="patch_194">
    <path d="M 368.577714 273.312 
L 370.185426 273.312 
L 370.185426 241.359679 
L 368.577714 241.359679 
z
" clip-path="url(#pf692f15e54)" style="fill: #1f77b4"/>
   </g>
   <g id="patch_195">
    <path d="M 370.185426 273.312 
L 371.793137 273.312 
L 371.793137 242.085868 
L 370.185426 242.085868 
z
" clip-path="url(#pf692f15e54)" style="fill: #1f77b4"/>
   </g>
   <g id="patch_196">
    <path d="M 371.793137 273.312 
L 373.400849 273.312 
L 373.400849 237.002544 
L 371.793137 237.002544 
z
" clip-path="url(#pf692f15e54)" style="fill: #1f77b4"/>
   </g>
   <g id="patch_197">
    <path d="M 373.400849 273.312 
L 375.008561 273.312 
L 375.008561 252.252516 
L 373.400849 252.252516 
z
" clip-path="url(#pf692f15e54)" style="fill: #1f77b4"/>
   </g>
   <g id="patch_198">
    <path d="M 375.008561 273.312 
L 376.616272 273.312 
L 376.616272 252.978705 
L 375.008561 252.978705 
z
" clip-path="url(#pf692f15e54)" style="fill: #1f77b4"/>
   </g>
   <g id="patch_199">
    <path d="M 376.616272 273.312 
L 378.223984 273.312 
L 378.223984 258.062029 
L 376.616272 258.062029 
z
" clip-path="url(#pf692f15e54)" style="fill: #1f77b4"/>
   </g>
   <g id="patch_200">
    <path d="M 378.223984 273.312 
L 379.831696 273.312 
L 379.831696 258.062029 
L 378.223984 258.062029 
z
" clip-path="url(#pf692f15e54)" style="fill: #1f77b4"/>
   </g>
   <g id="patch_201">
    <path d="M 379.831696 273.312 
L 381.439408 273.312 
L 381.439408 266.050109 
L 379.831696 266.050109 
z
" clip-path="url(#pf692f15e54)" style="fill: #1f77b4"/>
   </g>
   <g id="patch_202">
    <path d="M 381.439408 273.312 
L 383.047119 273.312 
L 383.047119 269.681054 
L 381.439408 269.681054 
z
" clip-path="url(#pf692f15e54)" style="fill: #1f77b4"/>
   </g>
   <g id="matplotlib.axis_1">
    <g id="xtick_1">
     <g id="line2d_1">
      <defs>
       <path id="m6a2b92375c" d="M 0 0 
L 0 3.5 
" style="stroke: #000000; stroke-width: 0.8"/>
      </defs>
      <g>
       <use xlink:href="#m6a2b92375c" x="60.013977" y="273.312" style="stroke: #000000; stroke-width: 0.8"/>
      </g>
     </g>
     <g id="text_1">
      <!-- 0.0 -->
      <g transform="translate(52.062415 287.910437)scale(0.1 -0.1)">
       <defs>
        <path id="DejaVuSans-30" d="M 2034 4250 
Q 1547 4250 1301 3770 
Q 1056 3291 1056 2328 
Q 1056 1369 1301 889 
Q 1547 409 2034 409 
Q 2525 409 2770 889 
Q 3016 1369 3016 2328 
Q 3016 3291 2770 3770 
Q 2525 4250 2034 4250 
z
M 2034 4750 
Q 2819 4750 3233 4129 
Q 3647 3509 3647 2328 
Q 3647 1150 3233 529 
Q 2819 -91 2034 -91 
Q 1250 -91 836 529 
Q 422 1150 422 2328 
Q 422 3509 836 4129 
Q 1250 4750 2034 4750 
z
" transform="scale(0.015625)"/>
        <path id="DejaVuSans-2e" d="M 684 794 
L 1344 794 
L 1344 0 
L 684 0 
L 684 794 
z
" transform="scale(0.015625)"/>
       </defs>
       <use xlink:href="#DejaVuSans-30"/>
       <use xlink:href="#DejaVuSans-2e" x="63.623047"/>
       <use xlink:href="#DejaVuSans-30" x="95.410156"/>
      </g>
     </g>
    </g>
    <g id="xtick_2">
     <g id="line2d_2">
      <g>
       <use xlink:href="#m6a2b92375c" x="101.350278" y="273.312" style="stroke: #000000; stroke-width: 0.8"/>
      </g>
     </g>
     <g id="text_2">
      <!-- 0.2 -->
      <g transform="translate(93.398715 287.910437)scale(0.1 -0.1)">
       <defs>
        <path id="DejaVuSans-32" d="M 1228 531 
L 3431 531 
L 3431 0 
L 469 0 
L 469 531 
Q 828 903 1448 1529 
Q 2069 2156 2228 2338 
Q 2531 2678 2651 2914 
Q 2772 3150 2772 3378 
Q 2772 3750 2511 3984 
Q 2250 4219 1831 4219 
Q 1534 4219 1204 4116 
Q 875 4013 500 3803 
L 500 4441 
Q 881 4594 1212 4672 
Q 1544 4750 1819 4750 
Q 2544 4750 2975 4387 
Q 3406 4025 3406 3419 
Q 3406 3131 3298 2873 
Q 3191 2616 2906 2266 
Q 2828 2175 2409 1742 
Q 1991 1309 1228 531 
z
" transform="scale(0.015625)"/>
       </defs>
       <use xlink:href="#DejaVuSans-30"/>
       <use xlink:href="#DejaVuSans-2e" x="63.623047"/>
       <use xlink:href="#DejaVuSans-32" x="95.410156"/>
      </g>
     </g>
    </g>
    <g id="xtick_3">
     <g id="line2d_3">
      <g>
       <use xlink:href="#m6a2b92375c" x="142.686578" y="273.312" style="stroke: #000000; stroke-width: 0.8"/>
      </g>
     </g>
     <g id="text_3">
      <!-- 0.4 -->
      <g transform="translate(134.735016 287.910437)scale(0.1 -0.1)">
       <defs>
        <path id="DejaVuSans-34" d="M 2419 4116 
L 825 1625 
L 2419 1625 
L 2419 4116 
z
M 2253 4666 
L 3047 4666 
L 3047 1625 
L 3713 1625 
L 3713 1100 
L 3047 1100 
L 3047 0 
L 2419 0 
L 2419 1100 
L 313 1100 
L 313 1709 
L 2253 4666 
z
" transform="scale(0.015625)"/>
       </defs>
       <use xlink:href="#DejaVuSans-30"/>
       <use xlink:href="#DejaVuSans-2e" x="63.623047"/>
       <use xlink:href="#DejaVuSans-34" x="95.410156"/>
      </g>
     </g>
    </g>
    <g id="xtick_4">
     <g id="line2d_4">
      <g>
       <use xlink:href="#m6a2b92375c" x="184.022879" y="273.312" style="stroke: #000000; stroke-width: 0.8"/>
      </g>
     </g>
     <g id="text_4">
      <!-- 0.6 -->
      <g transform="translate(176.071316 287.910437)scale(0.1 -0.1)">
       <defs>
        <path id="DejaVuSans-36" d="M 2113 2584 
Q 1688 2584 1439 2293 
Q 1191 2003 1191 1497 
Q 1191 994 1439 701 
Q 1688 409 2113 409 
Q 2538 409 2786 701 
Q 3034 994 3034 1497 
Q 3034 2003 2786 2293 
Q 2538 2584 2113 2584 
z
M 3366 4563 
L 3366 3988 
Q 3128 4100 2886 4159 
Q 2644 4219 2406 4219 
Q 1781 4219 1451 3797 
Q 1122 3375 1075 2522 
Q 1259 2794 1537 2939 
Q 1816 3084 2150 3084 
Q 2853 3084 3261 2657 
Q 3669 2231 3669 1497 
Q 3669 778 3244 343 
Q 2819 -91 2113 -91 
Q 1303 -91 875 529 
Q 447 1150 447 2328 
Q 447 3434 972 4092 
Q 1497 4750 2381 4750 
Q 2619 4750 2861 4703 
Q 3103 4656 3366 4563 
z
" transform="scale(0.015625)"/>
       </defs>
       <use xlink:href="#DejaVuSans-30"/>
       <use xlink:href="#DejaVuSans-2e" x="63.623047"/>
       <use xlink:href="#DejaVuSans-36" x="95.410156"/>
      </g>
     </g>
    </g>
    <g id="xtick_5">
     <g id="line2d_5">
      <g>
       <use xlink:href="#m6a2b92375c" x="225.35918" y="273.312" style="stroke: #000000; stroke-width: 0.8"/>
      </g>
     </g>
     <g id="text_5">
      <!-- 0.8 -->
      <g transform="translate(217.407617 287.910437)scale(0.1 -0.1)">
       <defs>
        <path id="DejaVuSans-38" d="M 2034 2216 
Q 1584 2216 1326 1975 
Q 1069 1734 1069 1313 
Q 1069 891 1326 650 
Q 1584 409 2034 409 
Q 2484 409 2743 651 
Q 3003 894 3003 1313 
Q 3003 1734 2745 1975 
Q 2488 2216 2034 2216 
z
M 1403 2484 
Q 997 2584 770 2862 
Q 544 3141 544 3541 
Q 544 4100 942 4425 
Q 1341 4750 2034 4750 
Q 2731 4750 3128 4425 
Q 3525 4100 3525 3541 
Q 3525 3141 3298 2862 
Q 3072 2584 2669 2484 
Q 3125 2378 3379 2068 
Q 3634 1759 3634 1313 
Q 3634 634 3220 271 
Q 2806 -91 2034 -91 
Q 1263 -91 848 271 
Q 434 634 434 1313 
Q 434 1759 690 2068 
Q 947 2378 1403 2484 
z
M 1172 3481 
Q 1172 3119 1398 2916 
Q 1625 2713 2034 2713 
Q 2441 2713 2670 2916 
Q 2900 3119 2900 3481 
Q 2900 3844 2670 4047 
Q 2441 4250 2034 4250 
Q 1625 4250 1398 4047 
Q 1172 3844 1172 3481 
z
" transform="scale(0.015625)"/>
       </defs>
       <use xlink:href="#DejaVuSans-30"/>
       <use xlink:href="#DejaVuSans-2e" x="63.623047"/>
       <use xlink:href="#DejaVuSans-38" x="95.410156"/>
      </g>
     </g>
    </g>
    <g id="xtick_6">
     <g id="line2d_6">
      <g>
       <use xlink:href="#m6a2b92375c" x="266.69548" y="273.312" style="stroke: #000000; stroke-width: 0.8"/>
      </g>
     </g>
     <g id="text_6">
      <!-- 1.0 -->
      <g transform="translate(258.743918 287.910437)scale(0.1 -0.1)">
       <defs>
        <path id="DejaVuSans-31" d="M 794 531 
L 1825 531 
L 1825 4091 
L 703 3866 
L 703 4441 
L 1819 4666 
L 2450 4666 
L 2450 531 
L 3481 531 
L 3481 0 
L 794 0 
L 794 531 
z
" transform="scale(0.015625)"/>
       </defs>
       <use xlink:href="#DejaVuSans-31"/>
       <use xlink:href="#DejaVuSans-2e" x="63.623047"/>
       <use xlink:href="#DejaVuSans-30" x="95.410156"/>
      </g>
     </g>
    </g>
    <g id="xtick_7">
     <g id="line2d_7">
      <g>
       <use xlink:href="#m6a2b92375c" x="308.031781" y="273.312" style="stroke: #000000; stroke-width: 0.8"/>
      </g>
     </g>
     <g id="text_7">
      <!-- 1.2 -->
      <g transform="translate(300.080218 287.910437)scale(0.1 -0.1)">
       <use xlink:href="#DejaVuSans-31"/>
       <use xlink:href="#DejaVuSans-2e" x="63.623047"/>
       <use xlink:href="#DejaVuSans-32" x="95.410156"/>
      </g>
     </g>
    </g>
    <g id="xtick_8">
     <g id="line2d_8">
      <g>
       <use xlink:href="#m6a2b92375c" x="349.368081" y="273.312" style="stroke: #000000; stroke-width: 0.8"/>
      </g>
     </g>
     <g id="text_8">
      <!-- 1.4 -->
      <g transform="translate(341.416519 287.910437)scale(0.1 -0.1)">
       <use xlink:href="#DejaVuSans-31"/>
       <use xlink:href="#DejaVuSans-2e" x="63.623047"/>
       <use xlink:href="#DejaVuSans-34" x="95.410156"/>
      </g>
     </g>
    </g>
    <g id="xtick_9">
     <g id="line2d_9">
      <g>
       <use xlink:href="#m6a2b92375c" x="390.704382" y="273.312" style="stroke: #000000; stroke-width: 0.8"/>
      </g>
     </g>
     <g id="text_9">
      <!-- 1.6 -->
      <g transform="translate(382.752819 287.910437)scale(0.1 -0.1)">
       <use xlink:href="#DejaVuSans-31"/>
       <use xlink:href="#DejaVuSans-2e" x="63.623047"/>
       <use xlink:href="#DejaVuSans-36" x="95.410156"/>
      </g>
     </g>
    </g>
    <g id="text_10">
     <!-- Angle with normal (rad) -->
     <g transform="translate(163.023281 301.588562)scale(0.1 -0.1)">
      <defs>
       <path id="DejaVuSans-41" d="M 2188 4044 
L 1331 1722 
L 3047 1722 
L 2188 4044 
z
M 1831 4666 
L 2547 4666 
L 4325 0 
L 3669 0 
L 3244 1197 
L 1141 1197 
L 716 0 
L 50 0 
L 1831 4666 
z
" transform="scale(0.015625)"/>
       <path id="DejaVuSans-6e" d="M 3513 2113 
L 3513 0 
L 2938 0 
L 2938 2094 
Q 2938 2591 2744 2837 
Q 2550 3084 2163 3084 
Q 1697 3084 1428 2787 
Q 1159 2491 1159 1978 
L 1159 0 
L 581 0 
L 581 3500 
L 1159 3500 
L 1159 2956 
Q 1366 3272 1645 3428 
Q 1925 3584 2291 3584 
Q 2894 3584 3203 3211 
Q 3513 2838 3513 2113 
z
" transform="scale(0.015625)"/>
       <path id="DejaVuSans-67" d="M 2906 1791 
Q 2906 2416 2648 2759 
Q 2391 3103 1925 3103 
Q 1463 3103 1205 2759 
Q 947 2416 947 1791 
Q 947 1169 1205 825 
Q 1463 481 1925 481 
Q 2391 481 2648 825 
Q 2906 1169 2906 1791 
z
M 3481 434 
Q 3481 -459 3084 -895 
Q 2688 -1331 1869 -1331 
Q 1566 -1331 1297 -1286 
Q 1028 -1241 775 -1147 
L 775 -588 
Q 1028 -725 1275 -790 
Q 1522 -856 1778 -856 
Q 2344 -856 2625 -561 
Q 2906 -266 2906 331 
L 2906 616 
Q 2728 306 2450 153 
Q 2172 0 1784 0 
Q 1141 0 747 490 
Q 353 981 353 1791 
Q 353 2603 747 3093 
Q 1141 3584 1784 3584 
Q 2172 3584 2450 3431 
Q 2728 3278 2906 2969 
L 2906 3500 
L 3481 3500 
L 3481 434 
z
" transform="scale(0.015625)"/>
       <path id="DejaVuSans-6c" d="M 603 4863 
L 1178 4863 
L 1178 0 
L 603 0 
L 603 4863 
z
" transform="scale(0.015625)"/>
       <path id="DejaVuSans-65" d="M 3597 1894 
L 3597 1613 
L 953 1613 
Q 991 1019 1311 708 
Q 1631 397 2203 397 
Q 2534 397 2845 478 
Q 3156 559 3463 722 
L 3463 178 
Q 3153 47 2828 -22 
Q 2503 -91 2169 -91 
Q 1331 -91 842 396 
Q 353 884 353 1716 
Q 353 2575 817 3079 
Q 1281 3584 2069 3584 
Q 2775 3584 3186 3129 
Q 3597 2675 3597 1894 
z
M 3022 2063 
Q 3016 2534 2758 2815 
Q 2500 3097 2075 3097 
Q 1594 3097 1305 2825 
Q 1016 2553 972 2059 
L 3022 2063 
z
" transform="scale(0.015625)"/>
       <path id="DejaVuSans-20" transform="scale(0.015625)"/>
       <path id="DejaVuSans-77" d="M 269 3500 
L 844 3500 
L 1563 769 
L 2278 3500 
L 2956 3500 
L 3675 769 
L 4391 3500 
L 4966 3500 
L 4050 0 
L 3372 0 
L 2619 2869 
L 1863 0 
L 1184 0 
L 269 3500 
z
" transform="scale(0.015625)"/>
       <path id="DejaVuSans-69" d="M 603 3500 
L 1178 3500 
L 1178 0 
L 603 0 
L 603 3500 
z
M 603 4863 
L 1178 4863 
L 1178 4134 
L 603 4134 
L 603 4863 
z
" transform="scale(0.015625)"/>
       <path id="DejaVuSans-74" d="M 1172 4494 
L 1172 3500 
L 2356 3500 
L 2356 3053 
L 1172 3053 
L 1172 1153 
Q 1172 725 1289 603 
Q 1406 481 1766 481 
L 2356 481 
L 2356 0 
L 1766 0 
Q 1100 0 847 248 
Q 594 497 594 1153 
L 594 3053 
L 172 3053 
L 172 3500 
L 594 3500 
L 594 4494 
L 1172 4494 
z
" transform="scale(0.015625)"/>
       <path id="DejaVuSans-68" d="M 3513 2113 
L 3513 0 
L 2938 0 
L 2938 2094 
Q 2938 2591 2744 2837 
Q 2550 3084 2163 3084 
Q 1697 3084 1428 2787 
Q 1159 2491 1159 1978 
L 1159 0 
L 581 0 
L 581 4863 
L 1159 4863 
L 1159 2956 
Q 1366 3272 1645 3428 
Q 1925 3584 2291 3584 
Q 2894 3584 3203 3211 
Q 3513 2838 3513 2113 
z
" transform="scale(0.015625)"/>
       <path id="DejaVuSans-6f" d="M 1959 3097 
Q 1497 3097 1228 2736 
Q 959 2375 959 1747 
Q 959 1119 1226 758 
Q 1494 397 1959 397 
Q 2419 397 2687 759 
Q 2956 1122 2956 1747 
Q 2956 2369 2687 2733 
Q 2419 3097 1959 3097 
z
M 1959 3584 
Q 2709 3584 3137 3096 
Q 3566 2609 3566 1747 
Q 3566 888 3137 398 
Q 2709 -91 1959 -91 
Q 1206 -91 779 398 
Q 353 888 353 1747 
Q 353 2609 779 3096 
Q 1206 3584 1959 3584 
z
" transform="scale(0.015625)"/>
       <path id="DejaVuSans-72" d="M 2631 2963 
Q 2534 3019 2420 3045 
Q 2306 3072 2169 3072 
Q 1681 3072 1420 2755 
Q 1159 2438 1159 1844 
L 1159 0 
L 581 0 
L 581 3500 
L 1159 3500 
L 1159 2956 
Q 1341 3275 1631 3429 
Q 1922 3584 2338 3584 
Q 2397 3584 2469 3576 
Q 2541 3569 2628 3553 
L 2631 2963 
z
" transform="scale(0.015625)"/>
       <path id="DejaVuSans-6d" d="M 3328 2828 
Q 3544 3216 3844 3400 
Q 4144 3584 4550 3584 
Q 5097 3584 5394 3201 
Q 5691 2819 5691 2113 
L 5691 0 
L 5113 0 
L 5113 2094 
Q 5113 2597 4934 2840 
Q 4756 3084 4391 3084 
Q 3944 3084 3684 2787 
Q 3425 2491 3425 1978 
L 3425 0 
L 2847 0 
L 2847 2094 
Q 2847 2600 2669 2842 
Q 2491 3084 2119 3084 
Q 1678 3084 1418 2786 
Q 1159 2488 1159 1978 
L 1159 0 
L 581 0 
L 581 3500 
L 1159 3500 
L 1159 2956 
Q 1356 3278 1631 3431 
Q 1906 3584 2284 3584 
Q 2666 3584 2933 3390 
Q 3200 3197 3328 2828 
z
" transform="scale(0.015625)"/>
       <path id="DejaVuSans-61" d="M 2194 1759 
Q 1497 1759 1228 1600 
Q 959 1441 959 1056 
Q 959 750 1161 570 
Q 1363 391 1709 391 
Q 2188 391 2477 730 
Q 2766 1069 2766 1631 
L 2766 1759 
L 2194 1759 
z
M 3341 1997 
L 3341 0 
L 2766 0 
L 2766 531 
Q 2569 213 2275 61 
Q 1981 -91 1556 -91 
Q 1019 -91 701 211 
Q 384 513 384 1019 
Q 384 1609 779 1909 
Q 1175 2209 1959 2209 
L 2766 2209 
L 2766 2266 
Q 2766 2663 2505 2880 
Q 2244 3097 1772 3097 
Q 1472 3097 1187 3025 
Q 903 2953 641 2809 
L 641 3341 
Q 956 3463 1253 3523 
Q 1550 3584 1831 3584 
Q 2591 3584 2966 3190 
Q 3341 2797 3341 1997 
z
" transform="scale(0.015625)"/>
       <path id="DejaVuSans-28" d="M 1984 4856 
Q 1566 4138 1362 3434 
Q 1159 2731 1159 2009 
Q 1159 1288 1364 580 
Q 1569 -128 1984 -844 
L 1484 -844 
Q 1016 -109 783 600 
Q 550 1309 550 2009 
Q 550 2706 781 3412 
Q 1013 4119 1484 4856 
L 1984 4856 
z
" transform="scale(0.015625)"/>
       <path id="DejaVuSans-64" d="M 2906 2969 
L 2906 4863 
L 3481 4863 
L 3481 0 
L 2906 0 
L 2906 525 
Q 2725 213 2448 61 
Q 2172 -91 1784 -91 
Q 1150 -91 751 415 
Q 353 922 353 1747 
Q 353 2572 751 3078 
Q 1150 3584 1784 3584 
Q 2172 3584 2448 3432 
Q 2725 3281 2906 2969 
z
M 947 1747 
Q 947 1113 1208 752 
Q 1469 391 1925 391 
Q 2381 391 2643 752 
Q 2906 1113 2906 1747 
Q 2906 2381 2643 2742 
Q 2381 3103 1925 3103 
Q 1469 3103 1208 2742 
Q 947 2381 947 1747 
z
" transform="scale(0.015625)"/>
       <path id="DejaVuSans-29" d="M 513 4856 
L 1013 4856 
Q 1481 4119 1714 3412 
Q 1947 2706 1947 2009 
Q 1947 1309 1714 600 
Q 1481 -109 1013 -844 
L 513 -844 
Q 928 -128 1133 580 
Q 1338 1288 1338 2009 
Q 1338 2731 1133 3434 
Q 928 4138 513 4856 
z
" transform="scale(0.015625)"/>
      </defs>
      <use xlink:href="#DejaVuSans-41"/>
      <use xlink:href="#DejaVuSans-6e" x="68.408203"/>
      <use xlink:href="#DejaVuSans-67" x="131.787109"/>
      <use xlink:href="#DejaVuSans-6c" x="195.263672"/>
      <use xlink:href="#DejaVuSans-65" x="223.046875"/>
      <use xlink:href="#DejaVuSans-20" x="284.570312"/>
      <use xlink:href="#DejaVuSans-77" x="316.357422"/>
      <use xlink:href="#DejaVuSans-69" x="398.144531"/>
      <use xlink:href="#DejaVuSans-74" x="425.927734"/>
      <use xlink:href="#DejaVuSans-68" x="465.136719"/>
      <use xlink:href="#DejaVuSans-20" x="528.515625"/>
      <use xlink:href="#DejaVuSans-6e" x="560.302734"/>
      <use xlink:href="#DejaVuSans-6f" x="623.681641"/>
      <use xlink:href="#DejaVuSans-72" x="684.863281"/>
      <use xlink:href="#DejaVuSans-6d" x="724.226562"/>
      <use xlink:href="#DejaVuSans-61" x="821.638672"/>
      <use xlink:href="#DejaVuSans-6c" x="882.917969"/>
      <use xlink:href="#DejaVuSans-20" x="910.701172"/>
      <use xlink:href="#DejaVuSans-28" x="942.488281"/>
      <use xlink:href="#DejaVuSans-72" x="981.501953"/>
      <use xlink:href="#DejaVuSans-61" x="1022.615234"/>
      <use xlink:href="#DejaVuSans-64" x="1083.894531"/>
      <use xlink:href="#DejaVuSans-29" x="1147.371094"/>
     </g>
    </g>
   </g>
   <g id="matplotlib.axis_2">
    <g id="ytick_1">
     <g id="line2d_10">
      <defs>
       <path id="m611ec61ef9" d="M 0 0 
L -3.5 0 
" style="stroke: #000000; stroke-width: 0.8"/>
      </defs>
      <g>
       <use xlink:href="#m611ec61ef9" x="43.78125" y="273.312" style="stroke: #000000; stroke-width: 0.8"/>
      </g>
     </g>
     <g id="text_11">
      <!-- 0.0 -->
      <g transform="translate(20.878125 277.111219)scale(0.1 -0.1)">
       <use xlink:href="#DejaVuSans-30"/>
       <use xlink:href="#DejaVuSans-2e" x="63.623047"/>
       <use xlink:href="#DejaVuSans-30" x="95.410156"/>
      </g>
     </g>
    </g>
    <g id="ytick_2">
     <g id="line2d_11">
      <g>
       <use xlink:href="#m611ec61ef9" x="43.78125" y="228.12159" style="stroke: #000000; stroke-width: 0.8"/>
      </g>
     </g>
     <g id="text_12">
      <!-- 0.2 -->
      <g transform="translate(20.878125 231.920809)scale(0.1 -0.1)">
       <use xlink:href="#DejaVuSans-30"/>
       <use xlink:href="#DejaVuSans-2e" x="63.623047"/>
       <use xlink:href="#DejaVuSans-32" x="95.410156"/>
      </g>
     </g>
    </g>
    <g id="ytick_3">
     <g id="line2d_12">
      <g>
       <use xlink:href="#m611ec61ef9" x="43.78125" y="182.93118" style="stroke: #000000; stroke-width: 0.8"/>
      </g>
     </g>
     <g id="text_13">
      <!-- 0.4 -->
      <g transform="translate(20.878125 186.730398)scale(0.1 -0.1)">
       <use xlink:href="#DejaVuSans-30"/>
       <use xlink:href="#DejaVuSans-2e" x="63.623047"/>
       <use xlink:href="#DejaVuSans-34" x="95.410156"/>
      </g>
     </g>
    </g>
    <g id="ytick_4">
     <g id="line2d_13">
      <g>
       <use xlink:href="#m611ec61ef9" x="43.78125" y="137.740769" style="stroke: #000000; stroke-width: 0.8"/>
      </g>
     </g>
     <g id="text_14">
      <!-- 0.6 -->
      <g transform="translate(20.878125 141.539988)scale(0.1 -0.1)">
       <use xlink:href="#DejaVuSans-30"/>
       <use xlink:href="#DejaVuSans-2e" x="63.623047"/>
       <use xlink:href="#DejaVuSans-36" x="95.410156"/>
      </g>
     </g>
    </g>
    <g id="ytick_5">
     <g id="line2d_14">
      <g>
       <use xlink:href="#m611ec61ef9" x="43.78125" y="92.550359" style="stroke: #000000; stroke-width: 0.8"/>
      </g>
     </g>
     <g id="text_15">
      <!-- 0.8 -->
      <g transform="translate(20.878125 96.349578)scale(0.1 -0.1)">
       <use xlink:href="#DejaVuSans-30"/>
       <use xlink:href="#DejaVuSans-2e" x="63.623047"/>
       <use xlink:href="#DejaVuSans-38" x="95.410156"/>
      </g>
     </g>
    </g>
    <g id="ytick_6">
     <g id="line2d_15">
      <g>
       <use xlink:href="#m611ec61ef9" x="43.78125" y="47.359949" style="stroke: #000000; stroke-width: 0.8"/>
      </g>
     </g>
     <g id="text_16">
      <!-- 1.0 -->
      <g transform="translate(20.878125 51.159168)scale(0.1 -0.1)">
       <use xlink:href="#DejaVuSans-31"/>
       <use xlink:href="#DejaVuSans-2e" x="63.623047"/>
       <use xlink:href="#DejaVuSans-30" x="95.410156"/>
      </g>
     </g>
    </g>
    <g id="text_17">
     <!-- Probability density -->
     <g transform="translate(14.798438 186.606781)rotate(-90)scale(0.1 -0.1)">
      <defs>
       <path id="DejaVuSans-50" d="M 1259 4147 
L 1259 2394 
L 2053 2394 
Q 2494 2394 2734 2622 
Q 2975 2850 2975 3272 
Q 2975 3691 2734 3919 
Q 2494 4147 2053 4147 
L 1259 4147 
z
M 628 4666 
L 2053 4666 
Q 2838 4666 3239 4311 
Q 3641 3956 3641 3272 
Q 3641 2581 3239 2228 
Q 2838 1875 2053 1875 
L 1259 1875 
L 1259 0 
L 628 0 
L 628 4666 
z
" transform="scale(0.015625)"/>
       <path id="DejaVuSans-62" d="M 3116 1747 
Q 3116 2381 2855 2742 
Q 2594 3103 2138 3103 
Q 1681 3103 1420 2742 
Q 1159 2381 1159 1747 
Q 1159 1113 1420 752 
Q 1681 391 2138 391 
Q 2594 391 2855 752 
Q 3116 1113 3116 1747 
z
M 1159 2969 
Q 1341 3281 1617 3432 
Q 1894 3584 2278 3584 
Q 2916 3584 3314 3078 
Q 3713 2572 3713 1747 
Q 3713 922 3314 415 
Q 2916 -91 2278 -91 
Q 1894 -91 1617 61 
Q 1341 213 1159 525 
L 1159 0 
L 581 0 
L 581 4863 
L 1159 4863 
L 1159 2969 
z
" transform="scale(0.015625)"/>
       <path id="DejaVuSans-79" d="M 2059 -325 
Q 1816 -950 1584 -1140 
Q 1353 -1331 966 -1331 
L 506 -1331 
L 506 -850 
L 844 -850 
Q 1081 -850 1212 -737 
Q 1344 -625 1503 -206 
L 1606 56 
L 191 3500 
L 800 3500 
L 1894 763 
L 2988 3500 
L 3597 3500 
L 2059 -325 
z
" transform="scale(0.015625)"/>
       <path id="DejaVuSans-73" d="M 2834 3397 
L 2834 2853 
Q 2591 2978 2328 3040 
Q 2066 3103 1784 3103 
Q 1356 3103 1142 2972 
Q 928 2841 928 2578 
Q 928 2378 1081 2264 
Q 1234 2150 1697 2047 
L 1894 2003 
Q 2506 1872 2764 1633 
Q 3022 1394 3022 966 
Q 3022 478 2636 193 
Q 2250 -91 1575 -91 
Q 1294 -91 989 -36 
Q 684 19 347 128 
L 347 722 
Q 666 556 975 473 
Q 1284 391 1588 391 
Q 1994 391 2212 530 
Q 2431 669 2431 922 
Q 2431 1156 2273 1281 
Q 2116 1406 1581 1522 
L 1381 1569 
Q 847 1681 609 1914 
Q 372 2147 372 2553 
Q 372 3047 722 3315 
Q 1072 3584 1716 3584 
Q 2034 3584 2315 3537 
Q 2597 3491 2834 3397 
z
" transform="scale(0.015625)"/>
      </defs>
      <use xlink:href="#DejaVuSans-50"/>
      <use xlink:href="#DejaVuSans-72" x="58.552734"/>
      <use xlink:href="#DejaVuSans-6f" x="97.416016"/>
      <use xlink:href="#DejaVuSans-62" x="158.597656"/>
      <use xlink:href="#DejaVuSans-61" x="222.074219"/>
      <use xlink:href="#DejaVuSans-62" x="283.353516"/>
      <use xlink:href="#DejaVuSans-69" x="346.830078"/>
      <use xlink:href="#DejaVuSans-6c" x="374.613281"/>
      <use xlink:href="#DejaVuSans-69" x="402.396484"/>
      <use xlink:href="#DejaVuSans-74" x="430.179688"/>
      <use xlink:href="#DejaVuSans-79" x="469.388672"/>
      <use xlink:href="#DejaVuSans-20" x="528.568359"/>
      <use xlink:href="#DejaVuSans-64" x="560.355469"/>
      <use xlink:href="#DejaVuSans-65" x="623.832031"/>
      <use xlink:href="#DejaVuSans-6e" x="685.355469"/>
      <use xlink:href="#DejaVuSans-73" x="748.734375"/>
      <use xlink:href="#DejaVuSans-69" x="800.833984"/>
      <use xlink:href="#DejaVuSans-74" x="828.617188"/>
      <use xlink:href="#DejaVuSans-79" x="867.826172"/>
     </g>
    </g>
   </g>
   <g id="line2d_16">
    <path d="M 60.013977 273.312 
L 79.837728 230.233192 
L 90.237073 208.167947 
L 99.01152 190.054229 
L 106.811029 174.452778 
L 113.960578 160.643795 
L 120.460169 148.55627 
L 126.63478 137.529361 
L 132.484411 127.52922 
L 138.009063 118.512907 
L 143.208736 110.430573 
L 148.408408 102.760516 
L 153.283101 95.961548 
L 158.157794 89.557131 
L 162.707507 83.948229 
L 167.257221 78.706316 
L 171.481954 74.17632 
L 175.706688 69.979094 
L 179.606442 66.406164 
L 183.506197 63.127848 
L 187.405951 60.148813 
L 190.980726 57.684572 
L 194.555501 55.478328 
L 198.130275 53.532721 
L 201.70505 51.850078 
L 205.279825 50.432414 
L 208.52962 49.375001 
L 211.779415 48.53903 
L 215.029211 47.925327 
L 218.279006 47.534499 
L 221.528801 47.366932 
L 224.778596 47.422792 
L 228.028392 47.702024 
L 231.278187 48.204352 
L 234.527982 48.929279 
L 237.777777 49.876088 
L 241.027573 51.043843 
L 244.277368 52.431389 
L 247.852143 54.209904 
L 251.426917 56.250574 
L 255.001692 58.550957 
L 258.576467 61.1083 
L 262.476221 64.187588 
L 266.375976 67.564648 
L 270.27573 71.234672 
L 274.500464 75.535062 
L 278.725198 80.165952 
L 282.949931 85.119602 
L 287.499645 90.805753 
L 292.049358 96.845602 
L 296.924051 103.696053 
L 301.798744 110.923848 
L 306.998416 119.03128 
L 312.523068 128.072821 
L 318.3727 138.09798 
L 324.547311 149.149319 
L 331.046901 161.260272 
L 337.871471 174.452778 
L 345.346 189.394078 
L 353.795468 206.808469 
L 363.544854 227.446569 
L 375.894076 254.149927 
L 384.668523 273.312 
L 384.668523 273.312 
" clip-path="url(#pf692f15e54)" style="fill: none; stroke: #ff7f0e; stroke-width: 1.5; stroke-linecap: square"/>
   </g>
   <g id="patch_203">
    <path d="M 43.78125 273.312 
L 43.78125 7.2 
" style="fill: none; stroke: #000000; stroke-width: 0.8; stroke-linejoin: miter; stroke-linecap: square"/>
   </g>
   <g id="patch_204">
    <path d="M 400.90125 273.312 
L 400.90125 7.2 
" style="fill: none; stroke: #000000; stroke-width: 0.8; stroke-linejoin: miter; stroke-linecap: square"/>
   </g>
   <g id="patch_205">
    <path d="M 43.78125 273.312 
L 400.90125 273.312 
" style="fill: none; stroke: #000000; stroke-width: 0.8; stroke-linejoin: miter; stroke-linecap: square"/>
   </g>
   <g id="patch_206">
    <path d="M 43.78125 7.2 
L 400.90125 7.2 
" style="fill: none; stroke: #000000; stroke-width: 0.8; stroke-linejoin: miter; stroke-linecap: square"/>
   </g>
  </g>
 </g>
 <defs>
  <clipPath id="pf692f15e54">
   <rect x="43.78125" y="7.2" width="357.12" height="266.112"/>
  </clipPath>
 </defs>
</svg>
