<?xml version="1.0" encoding="utf-8" standalone="no"?>
<!DOCTYPE svg PUBLIC "-//W3C//DTD SVG 1.1//EN"
  "http://www.w3.org/Graphics/SVG/1.1/DTD/svg11.dtd">
<svg xmlns:xlink="http://www.w3.org/1999/xlink" width="385.78125pt" height="262.19625pt" viewBox="0 0 385.78125 262.19625" xmlns="http://www.w3.org/2000/svg" version="1.1">
 <metadata>
  <rdf:RDF xmlns:dc="http://purl.org/dc/elements/1.1/" xmlns:cc="http://creativecommons.org/ns#" xmlns:rdf="http://www.w3.org/1999/02/22-rdf-syntax-ns#">
   <cc:Work>
    <dc:type rdf:resource="http://purl.org/dc/dcmitype/StillImage"/>
    <dc:date>2022-08-02T01:24:06.507239</dc:date>
    <dc:format>image/svg+xml</dc:format>
    <dc:creator>
     <cc:Agent>
      <dc:title>Matplotlib v3.5.2, https://matplotlib.org/</dc:title>
     </cc:Agent>
    </dc:creator>
   </cc:Work>
  </rdf:RDF>
 </metadata>
 <defs>
  <style type="text/css">*{stroke-linejoin: round; stroke-linecap: butt}</style>
 </defs>
 <g id="figure_1">
  <g id="patch_1">
   <path d="M 0 262.19625 
L 385.78125 262.19625 
L 385.78125 0 
L 0 0 
L 0 262.19625 
z
" style="fill: none"/>
  </g>
  <g id="axes_1">
   <g id="patch_2">
    <path d="M 43.78125 224.64 
L 378.58125 224.64 
L 378.58125 7.2 
L 43.78125 7.2 
z
" style="fill: #ffffff"/>
   </g>
   <g id="patch_3">
    <path d="M 59.965001 224.64 
L 61.481988 224.64 
L 61.481988 223.719619 
L 59.965001 223.719619 
z
" clip-path="url(#p31fa120367)" style="fill: #1f77b4"/>
   </g>
   <g id="patch_4">
    <path d="M 61.481988 224.64 
L 62.998976 224.64 
L 62.998976 222.339048 
L 61.481988 222.339048 
z
" clip-path="url(#p31fa120367)" style="fill: #1f77b4"/>
   </g>
   <g id="patch_5">
    <path d="M 62.998976 224.64 
L 64.515963 224.64 
L 64.515963 224.17981 
L 62.998976 224.17981 
z
" clip-path="url(#p31fa120367)" style="fill: #1f77b4"/>
   </g>
   <g id="patch_6">
    <path d="M 64.515963 224.64 
L 66.032951 224.64 
L 66.032951 219.577905 
L 64.515963 219.577905 
z
" clip-path="url(#p31fa120367)" style="fill: #1f77b4"/>
   </g>
   <g id="patch_7">
    <path d="M 66.032951 224.64 
L 67.549938 224.64 
L 67.549938 218.197333 
L 66.032951 218.197333 
z
" clip-path="url(#p31fa120367)" style="fill: #1f77b4"/>
   </g>
   <g id="patch_8">
    <path d="M 67.549938 224.64 
L 69.066926 224.64 
L 69.066926 220.038095 
L 67.549938 220.038095 
z
" clip-path="url(#p31fa120367)" style="fill: #1f77b4"/>
   </g>
   <g id="patch_9">
    <path d="M 69.066926 224.64 
L 70.583913 224.64 
L 70.583913 216.356571 
L 69.066926 216.356571 
z
" clip-path="url(#p31fa120367)" style="fill: #1f77b4"/>
   </g>
   <g id="patch_10">
    <path d="M 70.583913 224.64 
L 72.100901 224.64 
L 72.100901 220.038095 
L 70.583913 220.038095 
z
" clip-path="url(#p31fa120367)" style="fill: #1f77b4"/>
   </g>
   <g id="patch_11">
    <path d="M 72.100901 224.64 
L 73.617888 224.64 
L 73.617888 220.498286 
L 72.100901 220.498286 
z
" clip-path="url(#p31fa120367)" style="fill: #1f77b4"/>
   </g>
   <g id="patch_12">
    <path d="M 73.617888 224.64 
L 75.134875 224.64 
L 75.134875 216.356571 
L 73.617888 216.356571 
z
" clip-path="url(#p31fa120367)" style="fill: #1f77b4"/>
   </g>
   <g id="patch_13">
    <path d="M 75.134875 224.64 
L 76.651863 224.64 
L 76.651863 216.356571 
L 75.134875 216.356571 
z
" clip-path="url(#p31fa120367)" style="fill: #1f77b4"/>
   </g>
   <g id="patch_14">
    <path d="M 76.651863 224.64 
L 78.16885 224.64 
L 78.16885 217.276952 
L 76.651863 217.276952 
z
" clip-path="url(#p31fa120367)" style="fill: #1f77b4"/>
   </g>
   <g id="patch_15">
    <path d="M 78.16885 224.64 
L 79.685838 224.64 
L 79.685838 215.43619 
L 78.16885 215.43619 
z
" clip-path="url(#p31fa120367)" style="fill: #1f77b4"/>
   </g>
   <g id="patch_16">
    <path d="M 79.685838 224.64 
L 81.202825 224.64 
L 81.202825 213.595429 
L 79.685838 213.595429 
z
" clip-path="url(#p31fa120367)" style="fill: #1f77b4"/>
   </g>
   <g id="patch_17">
    <path d="M 81.202825 224.64 
L 82.719813 224.64 
L 82.719813 212.214857 
L 81.202825 212.214857 
z
" clip-path="url(#p31fa120367)" style="fill: #1f77b4"/>
   </g>
   <g id="patch_18">
    <path d="M 82.719813 224.64 
L 84.2368 224.64 
L 84.2368 210.834286 
L 82.719813 210.834286 
z
" clip-path="url(#p31fa120367)" style="fill: #1f77b4"/>
   </g>
   <g id="patch_19">
    <path d="M 84.2368 224.64 
L 85.753787 224.64 
L 85.753787 210.374095 
L 84.2368 210.374095 
z
" clip-path="url(#p31fa120367)" style="fill: #1f77b4"/>
   </g>
   <g id="patch_20">
    <path d="M 85.753787 224.64 
L 87.270775 224.64 
L 87.270775 207.612952 
L 85.753787 207.612952 
z
" clip-path="url(#p31fa120367)" style="fill: #1f77b4"/>
   </g>
   <g id="patch_21">
    <path d="M 87.270775 224.64 
L 88.787762 224.64 
L 88.787762 213.595429 
L 87.270775 213.595429 
z
" clip-path="url(#p31fa120367)" style="fill: #1f77b4"/>
   </g>
   <g id="patch_22">
    <path d="M 88.787762 224.64 
L 90.30475 224.64 
L 90.30475 208.073143 
L 88.787762 208.073143 
z
" clip-path="url(#p31fa120367)" style="fill: #1f77b4"/>
   </g>
   <g id="patch_23">
    <path d="M 90.30475 224.64 
L 91.821737 224.64 
L 91.821737 202.090667 
L 90.30475 202.090667 
z
" clip-path="url(#p31fa120367)" style="fill: #1f77b4"/>
   </g>
   <g id="patch_24">
    <path d="M 91.821737 224.64 
L 93.338725 224.64 
L 93.338725 203.011048 
L 91.821737 203.011048 
z
" clip-path="url(#p31fa120367)" style="fill: #1f77b4"/>
   </g>
   <g id="patch_25">
    <path d="M 93.338725 224.64 
L 94.855712 224.64 
L 94.855712 205.312 
L 93.338725 205.312 
z
" clip-path="url(#p31fa120367)" style="fill: #1f77b4"/>
   </g>
   <g id="patch_26">
    <path d="M 94.855712 224.64 
L 96.372699 224.64 
L 96.372699 202.550857 
L 94.855712 202.550857 
z
" clip-path="url(#p31fa120367)" style="fill: #1f77b4"/>
   </g>
   <g id="patch_27">
    <path d="M 96.372699 224.64 
L 97.889687 224.64 
L 97.889687 196.10819 
L 96.372699 196.10819 
z
" clip-path="url(#p31fa120367)" style="fill: #1f77b4"/>
   </g>
   <g id="patch_28">
    <path d="M 97.889687 224.64 
L 99.406674 224.64 
L 99.406674 199.789714 
L 97.889687 199.789714 
z
" clip-path="url(#p31fa120367)" style="fill: #1f77b4"/>
   </g>
   <g id="patch_29">
    <path d="M 99.406674 224.64 
L 100.923662 224.64 
L 100.923662 200.249905 
L 99.406674 200.249905 
z
" clip-path="url(#p31fa120367)" style="fill: #1f77b4"/>
   </g>
   <g id="patch_30">
    <path d="M 100.923662 224.64 
L 102.440649 224.64 
L 102.440649 202.550857 
L 100.923662 202.550857 
z
" clip-path="url(#p31fa120367)" style="fill: #1f77b4"/>
   </g>
   <g id="patch_31">
    <path d="M 102.440649 224.64 
L 103.957637 224.64 
L 103.957637 199.329524 
L 102.440649 199.329524 
z
" clip-path="url(#p31fa120367)" style="fill: #1f77b4"/>
   </g>
   <g id="patch_32">
    <path d="M 103.957637 224.64 
L 105.474624 224.64 
L 105.474624 189.205333 
L 103.957637 189.205333 
z
" clip-path="url(#p31fa120367)" style="fill: #1f77b4"/>
   </g>
   <g id="patch_33">
    <path d="M 105.474624 224.64 
L 106.991612 224.64 
L 106.991612 203.471238 
L 105.474624 203.471238 
z
" clip-path="url(#p31fa120367)" style="fill: #1f77b4"/>
   </g>
   <g id="patch_34">
    <path d="M 106.991612 224.64 
L 108.508599 224.64 
L 108.508599 192.886857 
L 106.991612 192.886857 
z
" clip-path="url(#p31fa120367)" style="fill: #1f77b4"/>
   </g>
   <g id="patch_35">
    <path d="M 108.508599 224.64 
L 110.025586 224.64 
L 110.025586 191.046095 
L 108.508599 191.046095 
z
" clip-path="url(#p31fa120367)" style="fill: #1f77b4"/>
   </g>
   <g id="patch_36">
    <path d="M 110.025586 224.64 
L 111.542574 224.64 
L 111.542574 200.249905 
L 110.025586 200.249905 
z
" clip-path="url(#p31fa120367)" style="fill: #1f77b4"/>
   </g>
   <g id="patch_37">
    <path d="M 111.542574 224.64 
L 113.059561 224.64 
L 113.059561 194.267429 
L 111.542574 194.267429 
z
" clip-path="url(#p31fa120367)" style="fill: #1f77b4"/>
   </g>
   <g id="patch_38">
    <path d="M 113.059561 224.64 
L 114.576549 224.64 
L 114.576549 192.886857 
L 113.059561 192.886857 
z
" clip-path="url(#p31fa120367)" style="fill: #1f77b4"/>
   </g>
   <g id="patch_39">
    <path d="M 114.576549 224.64 
L 116.093536 224.64 
L 116.093536 192.886857 
L 114.576549 192.886857 
z
" clip-path="url(#p31fa120367)" style="fill: #1f77b4"/>
   </g>
   <g id="patch_40">
    <path d="M 116.093536 224.64 
L 117.610524 224.64 
L 117.610524 196.10819 
L 116.093536 196.10819 
z
" clip-path="url(#p31fa120367)" style="fill: #1f77b4"/>
   </g>
   <g id="patch_41">
    <path d="M 117.610524 224.64 
L 119.127511 224.64 
L 119.127511 185.52381 
L 117.610524 185.52381 
z
" clip-path="url(#p31fa120367)" style="fill: #1f77b4"/>
   </g>
   <g id="patch_42">
    <path d="M 119.127511 224.64 
L 120.644498 224.64 
L 120.644498 194.267429 
L 119.127511 194.267429 
z
" clip-path="url(#p31fa120367)" style="fill: #1f77b4"/>
   </g>
   <g id="patch_43">
    <path d="M 120.644498 224.64 
L 122.161486 224.64 
L 122.161486 186.904381 
L 120.644498 186.904381 
z
" clip-path="url(#p31fa120367)" style="fill: #1f77b4"/>
   </g>
   <g id="patch_44">
    <path d="M 122.161486 224.64 
L 123.678473 224.64 
L 123.678473 190.125714 
L 122.161486 190.125714 
z
" clip-path="url(#p31fa120367)" style="fill: #1f77b4"/>
   </g>
   <g id="patch_45">
    <path d="M 123.678473 224.64 
L 125.195461 224.64 
L 125.195461 187.824762 
L 123.678473 187.824762 
z
" clip-path="url(#p31fa120367)" style="fill: #1f77b4"/>
   </g>
   <g id="patch_46">
    <path d="M 125.195461 224.64 
L 126.712448 224.64 
L 126.712448 180.461714 
L 125.195461 180.461714 
z
" clip-path="url(#p31fa120367)" style="fill: #1f77b4"/>
   </g>
   <g id="patch_47">
    <path d="M 126.712448 224.64 
L 128.229436 224.64 
L 128.229436 187.364571 
L 126.712448 187.364571 
z
" clip-path="url(#p31fa120367)" style="fill: #1f77b4"/>
   </g>
   <g id="patch_48">
    <path d="M 128.229436 224.64 
L 129.746423 224.64 
L 129.746423 177.240381 
L 128.229436 177.240381 
z
" clip-path="url(#p31fa120367)" style="fill: #1f77b4"/>
   </g>
   <g id="patch_49">
    <path d="M 129.746423 224.64 
L 131.263411 224.64 
L 131.263411 188.745143 
L 129.746423 188.745143 
z
" clip-path="url(#p31fa120367)" style="fill: #1f77b4"/>
   </g>
   <g id="patch_50">
    <path d="M 131.263411 224.64 
L 132.780398 224.64 
L 132.780398 179.081143 
L 131.263411 179.081143 
z
" clip-path="url(#p31fa120367)" style="fill: #1f77b4"/>
   </g>
   <g id="patch_51">
    <path d="M 132.780398 224.64 
L 134.297385 224.64 
L 134.297385 184.603429 
L 132.780398 184.603429 
z
" clip-path="url(#p31fa120367)" style="fill: #1f77b4"/>
   </g>
   <g id="patch_52">
    <path d="M 134.297385 224.64 
L 135.814373 224.64 
L 135.814373 179.081143 
L 134.297385 179.081143 
z
" clip-path="url(#p31fa120367)" style="fill: #1f77b4"/>
   </g>
   <g id="patch_53">
    <path d="M 135.814373 224.64 
L 137.33136 224.64 
L 137.33136 174.019048 
L 135.814373 174.019048 
z
" clip-path="url(#p31fa120367)" style="fill: #1f77b4"/>
   </g>
   <g id="patch_54">
    <path d="M 137.33136 224.64 
L 138.848348 224.64 
L 138.848348 177.240381 
L 137.33136 177.240381 
z
" clip-path="url(#p31fa120367)" style="fill: #1f77b4"/>
   </g>
   <g id="patch_55">
    <path d="M 138.848348 224.64 
L 140.365335 224.64 
L 140.365335 179.541333 
L 138.848348 179.541333 
z
" clip-path="url(#p31fa120367)" style="fill: #1f77b4"/>
   </g>
   <g id="patch_56">
    <path d="M 140.365335 224.64 
L 141.882323 224.64 
L 141.882323 174.939429 
L 140.365335 174.939429 
z
" clip-path="url(#p31fa120367)" style="fill: #1f77b4"/>
   </g>
   <g id="patch_57">
    <path d="M 141.882323 224.64 
L 143.39931 224.64 
L 143.39931 171.718095 
L 141.882323 171.718095 
z
" clip-path="url(#p31fa120367)" style="fill: #1f77b4"/>
   </g>
   <g id="patch_58">
    <path d="M 143.39931 224.64 
L 144.916297 224.64 
L 144.916297 167.576381 
L 143.39931 167.576381 
z
" clip-path="url(#p31fa120367)" style="fill: #1f77b4"/>
   </g>
   <g id="patch_59">
    <path d="M 144.916297 224.64 
L 146.433285 224.64 
L 146.433285 175.399619 
L 144.916297 175.399619 
z
" clip-path="url(#p31fa120367)" style="fill: #1f77b4"/>
   </g>
   <g id="patch_60">
    <path d="M 146.433285 224.64 
L 147.950272 224.64 
L 147.950272 173.098667 
L 146.433285 173.098667 
z
" clip-path="url(#p31fa120367)" style="fill: #1f77b4"/>
   </g>
   <g id="patch_61">
    <path d="M 147.950272 224.64 
L 149.46726 224.64 
L 149.46726 173.558857 
L 147.950272 173.558857 
z
" clip-path="url(#p31fa120367)" style="fill: #1f77b4"/>
   </g>
   <g id="patch_62">
    <path d="M 149.46726 224.64 
L 150.984247 224.64 
L 150.984247 173.558857 
L 149.46726 173.558857 
z
" clip-path="url(#p31fa120367)" style="fill: #1f77b4"/>
   </g>
   <g id="patch_63">
    <path d="M 150.984247 224.64 
L 152.501235 224.64 
L 152.501235 172.178286 
L 150.984247 172.178286 
z
" clip-path="url(#p31fa120367)" style="fill: #1f77b4"/>
   </g>
   <g id="patch_64">
    <path d="M 152.501235 224.64 
L 154.018222 224.64 
L 154.018222 167.11619 
L 152.501235 167.11619 
z
" clip-path="url(#p31fa120367)" style="fill: #1f77b4"/>
   </g>
   <g id="patch_65">
    <path d="M 154.018222 224.64 
L 155.535209 224.64 
L 155.535209 175.85981 
L 154.018222 175.85981 
z
" clip-path="url(#p31fa120367)" style="fill: #1f77b4"/>
   </g>
   <g id="patch_66">
    <path d="M 155.535209 224.64 
L 157.052197 224.64 
L 157.052197 169.417143 
L 155.535209 169.417143 
z
" clip-path="url(#p31fa120367)" style="fill: #1f77b4"/>
   </g>
   <g id="patch_67">
    <path d="M 157.052197 224.64 
L 158.569184 224.64 
L 158.569184 170.797714 
L 157.052197 170.797714 
z
" clip-path="url(#p31fa120367)" style="fill: #1f77b4"/>
   </g>
   <g id="patch_68">
    <path d="M 158.569184 224.64 
L 160.086172 224.64 
L 160.086172 168.956952 
L 158.569184 168.956952 
z
" clip-path="url(#p31fa120367)" style="fill: #1f77b4"/>
   </g>
   <g id="patch_69">
    <path d="M 160.086172 224.64 
L 161.603159 224.64 
L 161.603159 169.877333 
L 160.086172 169.877333 
z
" clip-path="url(#p31fa120367)" style="fill: #1f77b4"/>
   </g>
   <g id="patch_70">
    <path d="M 161.603159 224.64 
L 163.120147 224.64 
L 163.120147 155.151238 
L 161.603159 155.151238 
z
" clip-path="url(#p31fa120367)" style="fill: #1f77b4"/>
   </g>
   <g id="patch_71">
    <path d="M 163.120147 224.64 
L 164.637134 224.64 
L 164.637134 157.45219 
L 163.120147 157.45219 
z
" clip-path="url(#p31fa120367)" style="fill: #1f77b4"/>
   </g>
   <g id="patch_72">
    <path d="M 164.637134 224.64 
L 166.154122 224.64 
L 166.154122 160.213333 
L 164.637134 160.213333 
z
" clip-path="url(#p31fa120367)" style="fill: #1f77b4"/>
   </g>
   <g id="patch_73">
    <path d="M 166.154122 224.64 
L 167.671109 224.64 
L 167.671109 148.708571 
L 166.154122 148.708571 
z
" clip-path="url(#p31fa120367)" style="fill: #1f77b4"/>
   </g>
   <g id="patch_74">
    <path d="M 167.671109 224.64 
L 169.188096 224.64 
L 169.188096 165.735619 
L 167.671109 165.735619 
z
" clip-path="url(#p31fa120367)" style="fill: #1f77b4"/>
   </g>
   <g id="patch_75">
    <path d="M 169.188096 224.64 
L 170.705084 224.64 
L 170.705084 158.372571 
L 169.188096 158.372571 
z
" clip-path="url(#p31fa120367)" style="fill: #1f77b4"/>
   </g>
   <g id="patch_76">
    <path d="M 170.705084 224.64 
L 172.222071 224.64 
L 172.222071 159.753143 
L 170.705084 159.753143 
z
" clip-path="url(#p31fa120367)" style="fill: #1f77b4"/>
   </g>
   <g id="patch_77">
    <path d="M 172.222071 224.64 
L 173.739059 224.64 
L 173.739059 154.691048 
L 172.222071 154.691048 
z
" clip-path="url(#p31fa120367)" style="fill: #1f77b4"/>
   </g>
   <g id="patch_78">
    <path d="M 173.739059 224.64 
L 175.256046 224.64 
L 175.256046 153.310476 
L 173.739059 153.310476 
z
" clip-path="url(#p31fa120367)" style="fill: #1f77b4"/>
   </g>
   <g id="patch_79">
    <path d="M 175.256046 224.64 
L 176.773034 224.64 
L 176.773034 154.230857 
L 175.256046 154.230857 
z
" clip-path="url(#p31fa120367)" style="fill: #1f77b4"/>
   </g>
   <g id="patch_80">
    <path d="M 176.773034 224.64 
L 178.290021 224.64 
L 178.290021 147.78819 
L 176.773034 147.78819 
z
" clip-path="url(#p31fa120367)" style="fill: #1f77b4"/>
   </g>
   <g id="patch_81">
    <path d="M 178.290021 224.64 
L 179.807008 224.64 
L 179.807008 150.089143 
L 178.290021 150.089143 
z
" clip-path="url(#p31fa120367)" style="fill: #1f77b4"/>
   </g>
   <g id="patch_82">
    <path d="M 179.807008 224.64 
L 181.323996 224.64 
L 181.323996 154.230857 
L 179.807008 154.230857 
z
" clip-path="url(#p31fa120367)" style="fill: #1f77b4"/>
   </g>
   <g id="patch_83">
    <path d="M 181.323996 224.64 
L 182.840983 224.64 
L 182.840983 150.089143 
L 181.323996 150.089143 
z
" clip-path="url(#p31fa120367)" style="fill: #1f77b4"/>
   </g>
   <g id="patch_84">
    <path d="M 182.840983 224.64 
L 184.357971 224.64 
L 184.357971 161.133714 
L 182.840983 161.133714 
z
" clip-path="url(#p31fa120367)" style="fill: #1f77b4"/>
   </g>
   <g id="patch_85">
    <path d="M 184.357971 224.64 
L 185.874958 224.64 
L 185.874958 152.390095 
L 184.357971 152.390095 
z
" clip-path="url(#p31fa120367)" style="fill: #1f77b4"/>
   </g>
   <g id="patch_86">
    <path d="M 185.874958 224.64 
L 187.391946 224.64 
L 187.391946 151.929905 
L 185.874958 151.929905 
z
" clip-path="url(#p31fa120367)" style="fill: #1f77b4"/>
   </g>
   <g id="patch_87">
    <path d="M 187.391946 224.64 
L 188.908933 224.64 
L 188.908933 151.009524 
L 187.391946 151.009524 
z
" clip-path="url(#p31fa120367)" style="fill: #1f77b4"/>
   </g>
   <g id="patch_88">
    <path d="M 188.908933 224.64 
L 190.425921 224.64 
L 190.425921 149.168762 
L 188.908933 149.168762 
z
" clip-path="url(#p31fa120367)" style="fill: #1f77b4"/>
   </g>
   <g id="patch_89">
    <path d="M 190.425921 224.64 
L 191.942908 224.64 
L 191.942908 158.832762 
L 190.425921 158.832762 
z
" clip-path="url(#p31fa120367)" style="fill: #1f77b4"/>
   </g>
   <g id="patch_90">
    <path d="M 191.942908 224.64 
L 193.459895 224.64 
L 193.459895 134.442667 
L 191.942908 134.442667 
z
" clip-path="url(#p31fa120367)" style="fill: #1f77b4"/>
   </g>
   <g id="patch_91">
    <path d="M 193.459895 224.64 
L 194.976883 224.64 
L 194.976883 143.186286 
L 193.459895 143.186286 
z
" clip-path="url(#p31fa120367)" style="fill: #1f77b4"/>
   </g>
   <g id="patch_92">
    <path d="M 194.976883 224.64 
L 196.49387 224.64 
L 196.49387 149.168762 
L 194.976883 149.168762 
z
" clip-path="url(#p31fa120367)" style="fill: #1f77b4"/>
   </g>
   <g id="patch_93">
    <path d="M 196.49387 224.64 
L 198.010858 224.64 
L 198.010858 140.885333 
L 196.49387 140.885333 
z
" clip-path="url(#p31fa120367)" style="fill: #1f77b4"/>
   </g>
   <g id="patch_94">
    <path d="M 198.010858 224.64 
L 199.527845 224.64 
L 199.527845 143.646476 
L 198.010858 143.646476 
z
" clip-path="url(#p31fa120367)" style="fill: #1f77b4"/>
   </g>
   <g id="patch_95">
    <path d="M 199.527845 224.64 
L 201.044833 224.64 
L 201.044833 134.902857 
L 199.527845 134.902857 
z
" clip-path="url(#p31fa120367)" style="fill: #1f77b4"/>
   </g>
   <g id="patch_96">
    <path d="M 201.044833 224.64 
L 202.56182 224.64 
L 202.56182 143.646476 
L 201.044833 143.646476 
z
" clip-path="url(#p31fa120367)" style="fill: #1f77b4"/>
   </g>
   <g id="patch_97">
    <path d="M 202.56182 224.64 
L 204.078807 224.64 
L 204.078807 128.920381 
L 202.56182 128.920381 
z
" clip-path="url(#p31fa120367)" style="fill: #1f77b4"/>
   </g>
   <g id="patch_98">
    <path d="M 204.078807 224.64 
L 205.595795 224.64 
L 205.595795 138.584381 
L 204.078807 138.584381 
z
" clip-path="url(#p31fa120367)" style="fill: #1f77b4"/>
   </g>
   <g id="patch_99">
    <path d="M 205.595795 224.64 
L 207.112782 224.64 
L 207.112782 133.062095 
L 205.595795 133.062095 
z
" clip-path="url(#p31fa120367)" style="fill: #1f77b4"/>
   </g>
   <g id="patch_100">
    <path d="M 207.112782 224.64 
L 208.62977 224.64 
L 208.62977 133.982476 
L 207.112782 133.982476 
z
" clip-path="url(#p31fa120367)" style="fill: #1f77b4"/>
   </g>
   <g id="patch_101">
    <path d="M 208.62977 224.64 
L 210.146757 224.64 
L 210.146757 133.982476 
L 208.62977 133.982476 
z
" clip-path="url(#p31fa120367)" style="fill: #1f77b4"/>
   </g>
   <g id="patch_102">
    <path d="M 210.146757 224.64 
L 211.663745 224.64 
L 211.663745 132.601905 
L 210.146757 132.601905 
z
" clip-path="url(#p31fa120367)" style="fill: #1f77b4"/>
   </g>
   <g id="patch_103">
    <path d="M 211.663745 224.64 
L 213.180732 224.64 
L 213.180732 117.87581 
L 211.663745 117.87581 
z
" clip-path="url(#p31fa120367)" style="fill: #1f77b4"/>
   </g>
   <g id="patch_104">
    <path d="M 213.180732 224.64 
L 214.697719 224.64 
L 214.697719 122.477714 
L 213.180732 122.477714 
z
" clip-path="url(#p31fa120367)" style="fill: #1f77b4"/>
   </g>
   <g id="patch_105">
    <path d="M 214.697719 224.64 
L 216.214707 224.64 
L 216.214707 123.858286 
L 214.697719 123.858286 
z
" clip-path="url(#p31fa120367)" style="fill: #1f77b4"/>
   </g>
   <g id="patch_106">
    <path d="M 216.214707 224.64 
L 217.731694 224.64 
L 217.731694 114.654476 
L 216.214707 114.654476 
z
" clip-path="url(#p31fa120367)" style="fill: #1f77b4"/>
   </g>
   <g id="patch_107">
    <path d="M 217.731694 224.64 
L 219.248682 224.64 
L 219.248682 130.761143 
L 217.731694 130.761143 
z
" clip-path="url(#p31fa120367)" style="fill: #1f77b4"/>
   </g>
   <g id="patch_108">
    <path d="M 219.248682 224.64 
L 220.765669 224.64 
L 220.765669 124.778667 
L 219.248682 124.778667 
z
" clip-path="url(#p31fa120367)" style="fill: #1f77b4"/>
   </g>
   <g id="patch_109">
    <path d="M 220.765669 224.64 
L 222.282657 224.64 
L 222.282657 119.256381 
L 220.765669 119.256381 
z
" clip-path="url(#p31fa120367)" style="fill: #1f77b4"/>
   </g>
   <g id="patch_110">
    <path d="M 222.282657 224.64 
L 223.799644 224.64 
L 223.799644 123.858286 
L 222.282657 123.858286 
z
" clip-path="url(#p31fa120367)" style="fill: #1f77b4"/>
   </g>
   <g id="patch_111">
    <path d="M 223.799644 224.64 
L 225.316632 224.64 
L 225.316632 122.937905 
L 223.799644 122.937905 
z
" clip-path="url(#p31fa120367)" style="fill: #1f77b4"/>
   </g>
   <g id="patch_112">
    <path d="M 225.316632 224.64 
L 226.833619 224.64 
L 226.833619 122.477714 
L 225.316632 122.477714 
z
" clip-path="url(#p31fa120367)" style="fill: #1f77b4"/>
   </g>
   <g id="patch_113">
    <path d="M 226.833619 224.64 
L 228.350606 224.64 
L 228.350606 113.734095 
L 226.833619 113.734095 
z
" clip-path="url(#p31fa120367)" style="fill: #1f77b4"/>
   </g>
   <g id="patch_114">
    <path d="M 228.350606 224.64 
L 229.867594 224.64 
L 229.867594 116.035048 
L 228.350606 116.035048 
z
" clip-path="url(#p31fa120367)" style="fill: #1f77b4"/>
   </g>
   <g id="patch_115">
    <path d="M 229.867594 224.64 
L 231.384581 224.64 
L 231.384581 119.256381 
L 229.867594 119.256381 
z
" clip-path="url(#p31fa120367)" style="fill: #1f77b4"/>
   </g>
   <g id="patch_116">
    <path d="M 231.384581 224.64 
L 232.901569 224.64 
L 232.901569 106.831238 
L 231.384581 106.831238 
z
" clip-path="url(#p31fa120367)" style="fill: #1f77b4"/>
   </g>
   <g id="patch_117">
    <path d="M 232.901569 224.64 
L 234.418556 224.64 
L 234.418556 113.273905 
L 232.901569 113.273905 
z
" clip-path="url(#p31fa120367)" style="fill: #1f77b4"/>
   </g>
   <g id="patch_118">
    <path d="M 234.418556 224.64 
L 235.935544 224.64 
L 235.935544 118.336 
L 234.418556 118.336 
z
" clip-path="url(#p31fa120367)" style="fill: #1f77b4"/>
   </g>
   <g id="patch_119">
    <path d="M 235.935544 224.64 
L 237.452531 224.64 
L 237.452531 111.893333 
L 235.935544 111.893333 
z
" clip-path="url(#p31fa120367)" style="fill: #1f77b4"/>
   </g>
   <g id="patch_120">
    <path d="M 237.452531 224.64 
L 238.969518 224.64 
L 238.969518 121.557333 
L 237.452531 121.557333 
z
" clip-path="url(#p31fa120367)" style="fill: #1f77b4"/>
   </g>
   <g id="patch_121">
    <path d="M 238.969518 224.64 
L 240.486506 224.64 
L 240.486506 113.734095 
L 238.969518 113.734095 
z
" clip-path="url(#p31fa120367)" style="fill: #1f77b4"/>
   </g>
   <g id="patch_122">
    <path d="M 240.486506 224.64 
L 242.003493 224.64 
L 242.003493 124.318476 
L 240.486506 124.318476 
z
" clip-path="url(#p31fa120367)" style="fill: #1f77b4"/>
   </g>
   <g id="patch_123">
    <path d="M 242.003493 224.64 
L 243.520481 224.64 
L 243.520481 113.273905 
L 242.003493 113.273905 
z
" clip-path="url(#p31fa120367)" style="fill: #1f77b4"/>
   </g>
   <g id="patch_124">
    <path d="M 243.520481 224.64 
L 245.037468 224.64 
L 245.037468 107.291429 
L 243.520481 107.291429 
z
" clip-path="url(#p31fa120367)" style="fill: #1f77b4"/>
   </g>
   <g id="patch_125">
    <path d="M 245.037468 224.64 
L 246.554456 224.64 
L 246.554456 102.689524 
L 245.037468 102.689524 
z
" clip-path="url(#p31fa120367)" style="fill: #1f77b4"/>
   </g>
   <g id="patch_126">
    <path d="M 246.554456 224.64 
L 248.071443 224.64 
L 248.071443 120.636952 
L 246.554456 120.636952 
z
" clip-path="url(#p31fa120367)" style="fill: #1f77b4"/>
   </g>
   <g id="patch_127">
    <path d="M 248.071443 224.64 
L 249.588431 224.64 
L 249.588431 113.734095 
L 248.071443 113.734095 
z
" clip-path="url(#p31fa120367)" style="fill: #1f77b4"/>
   </g>
   <g id="patch_128">
    <path d="M 249.588431 224.64 
L 251.105418 224.64 
L 251.105418 127.079619 
L 249.588431 127.079619 
z
" clip-path="url(#p31fa120367)" style="fill: #1f77b4"/>
   </g>
   <g id="patch_129">
    <path d="M 251.105418 224.64 
L 252.622405 224.64 
L 252.622405 95.786667 
L 251.105418 95.786667 
z
" clip-path="url(#p31fa120367)" style="fill: #1f77b4"/>
   </g>
   <g id="patch_130">
    <path d="M 252.622405 224.64 
L 254.139393 224.64 
L 254.139393 115.114667 
L 252.622405 115.114667 
z
" clip-path="url(#p31fa120367)" style="fill: #1f77b4"/>
   </g>
   <g id="patch_131">
    <path d="M 254.139393 224.64 
L 255.65638 224.64 
L 255.65638 109.592381 
L 254.139393 109.592381 
z
" clip-path="url(#p31fa120367)" style="fill: #1f77b4"/>
   </g>
   <g id="patch_132">
    <path d="M 255.65638 224.64 
L 257.173368 224.64 
L 257.173368 104.990476 
L 255.65638 104.990476 
z
" clip-path="url(#p31fa120367)" style="fill: #1f77b4"/>
   </g>
   <g id="patch_133">
    <path d="M 257.173368 224.64 
L 258.690355 224.64 
L 258.690355 109.13219 
L 257.173368 109.13219 
z
" clip-path="url(#p31fa120367)" style="fill: #1f77b4"/>
   </g>
   <g id="patch_134">
    <path d="M 258.690355 224.64 
L 260.207343 224.64 
L 260.207343 94.866286 
L 258.690355 94.866286 
z
" clip-path="url(#p31fa120367)" style="fill: #1f77b4"/>
   </g>
   <g id="patch_135">
    <path d="M 260.207343 224.64 
L 261.72433 224.64 
L 261.72433 105.450667 
L 260.207343 105.450667 
z
" clip-path="url(#p31fa120367)" style="fill: #1f77b4"/>
   </g>
   <g id="patch_136">
    <path d="M 261.72433 224.64 
L 263.241317 224.64 
L 263.241317 109.13219 
L 261.72433 109.13219 
z
" clip-path="url(#p31fa120367)" style="fill: #1f77b4"/>
   </g>
   <g id="patch_137">
    <path d="M 263.241317 224.64 
L 264.758305 224.64 
L 264.758305 94.406095 
L 263.241317 94.406095 
z
" clip-path="url(#p31fa120367)" style="fill: #1f77b4"/>
   </g>
   <g id="patch_138">
    <path d="M 264.758305 224.64 
L 266.275292 224.64 
L 266.275292 91.644952 
L 264.758305 91.644952 
z
" clip-path="url(#p31fa120367)" style="fill: #1f77b4"/>
   </g>
   <g id="patch_139">
    <path d="M 266.275292 224.64 
L 267.79228 224.64 
L 267.79228 96.246857 
L 266.275292 96.246857 
z
" clip-path="url(#p31fa120367)" style="fill: #1f77b4"/>
   </g>
   <g id="patch_140">
    <path d="M 267.79228 224.64 
L 269.309267 224.64 
L 269.309267 87.503238 
L 267.79228 87.503238 
z
" clip-path="url(#p31fa120367)" style="fill: #1f77b4"/>
   </g>
   <g id="patch_141">
    <path d="M 269.309267 224.64 
L 270.826255 224.64 
L 270.826255 100.848762 
L 269.309267 100.848762 
z
" clip-path="url(#p31fa120367)" style="fill: #1f77b4"/>
   </g>
   <g id="patch_142">
    <path d="M 270.826255 224.64 
L 272.343242 224.64 
L 272.343242 99.928381 
L 270.826255 99.928381 
z
" clip-path="url(#p31fa120367)" style="fill: #1f77b4"/>
   </g>
   <g id="patch_143">
    <path d="M 272.343242 224.64 
L 273.860229 224.64 
L 273.860229 78.299429 
L 272.343242 78.299429 
z
" clip-path="url(#p31fa120367)" style="fill: #1f77b4"/>
   </g>
   <g id="patch_144">
    <path d="M 273.860229 224.64 
L 275.377217 224.64 
L 275.377217 103.609905 
L 273.860229 103.609905 
z
" clip-path="url(#p31fa120367)" style="fill: #1f77b4"/>
   </g>
   <g id="patch_145">
    <path d="M 275.377217 224.64 
L 276.894204 224.64 
L 276.894204 83.361524 
L 275.377217 83.361524 
z
" clip-path="url(#p31fa120367)" style="fill: #1f77b4"/>
   </g>
   <g id="patch_146">
    <path d="M 276.894204 224.64 
L 278.411192 224.64 
L 278.411192 98.54781 
L 276.894204 98.54781 
z
" clip-path="url(#p31fa120367)" style="fill: #1f77b4"/>
   </g>
   <g id="patch_147">
    <path d="M 278.411192 224.64 
L 279.928179 224.64 
L 279.928179 99.46819 
L 278.411192 99.46819 
z
" clip-path="url(#p31fa120367)" style="fill: #1f77b4"/>
   </g>
   <g id="patch_148">
    <path d="M 279.928179 224.64 
L 281.445167 224.64 
L 281.445167 95.326476 
L 279.928179 95.326476 
z
" clip-path="url(#p31fa120367)" style="fill: #1f77b4"/>
   </g>
   <g id="patch_149">
    <path d="M 281.445167 224.64 
L 282.962154 224.64 
L 282.962154 86.582857 
L 281.445167 86.582857 
z
" clip-path="url(#p31fa120367)" style="fill: #1f77b4"/>
   </g>
   <g id="patch_150">
    <path d="M 282.962154 224.64 
L 284.479142 224.64 
L 284.479142 93.485714 
L 282.962154 93.485714 
z
" clip-path="url(#p31fa120367)" style="fill: #1f77b4"/>
   </g>
   <g id="patch_151">
    <path d="M 284.479142 224.64 
L 285.996129 224.64 
L 285.996129 96.707048 
L 284.479142 96.707048 
z
" clip-path="url(#p31fa120367)" style="fill: #1f77b4"/>
   </g>
   <g id="patch_152">
    <path d="M 285.996129 224.64 
L 287.513116 224.64 
L 287.513116 91.184762 
L 285.996129 91.184762 
z
" clip-path="url(#p31fa120367)" style="fill: #1f77b4"/>
   </g>
   <g id="patch_153">
    <path d="M 287.513116 224.64 
L 289.030104 224.64 
L 289.030104 87.043048 
L 287.513116 87.043048 
z
" clip-path="url(#p31fa120367)" style="fill: #1f77b4"/>
   </g>
   <g id="patch_154">
    <path d="M 289.030104 224.64 
L 290.547091 224.64 
L 290.547091 90.264381 
L 289.030104 90.264381 
z
" clip-path="url(#p31fa120367)" style="fill: #1f77b4"/>
   </g>
   <g id="patch_155">
    <path d="M 290.547091 224.64 
L 292.064079 224.64 
L 292.064079 94.866286 
L 290.547091 94.866286 
z
" clip-path="url(#p31fa120367)" style="fill: #1f77b4"/>
   </g>
   <g id="patch_156">
    <path d="M 292.064079 224.64 
L 293.581066 224.64 
L 293.581066 86.582857 
L 292.064079 86.582857 
z
" clip-path="url(#p31fa120367)" style="fill: #1f77b4"/>
   </g>
   <g id="patch_157">
    <path d="M 293.581066 224.64 
L 295.098054 224.64 
L 295.098054 81.520762 
L 293.581066 81.520762 
z
" clip-path="url(#p31fa120367)" style="fill: #1f77b4"/>
   </g>
   <g id="patch_158">
    <path d="M 295.098054 224.64 
L 296.615041 224.64 
L 296.615041 85.662476 
L 295.098054 85.662476 
z
" clip-path="url(#p31fa120367)" style="fill: #1f77b4"/>
   </g>
   <g id="patch_159">
    <path d="M 296.615041 224.64 
L 298.132028 224.64 
L 298.132028 77.379048 
L 296.615041 77.379048 
z
" clip-path="url(#p31fa120367)" style="fill: #1f77b4"/>
   </g>
   <g id="patch_160">
    <path d="M 298.132028 224.64 
L 299.649016 224.64 
L 299.649016 91.644952 
L 298.132028 91.644952 
z
" clip-path="url(#p31fa120367)" style="fill: #1f77b4"/>
   </g>
   <g id="patch_161">
    <path d="M 299.649016 224.64 
L 301.166003 224.64 
L 301.166003 72.777143 
L 299.649016 72.777143 
z
" clip-path="url(#p31fa120367)" style="fill: #1f77b4"/>
   </g>
   <g id="patch_162">
    <path d="M 301.166003 224.64 
L 302.682991 224.64 
L 302.682991 86.122667 
L 301.166003 86.122667 
z
" clip-path="url(#p31fa120367)" style="fill: #1f77b4"/>
   </g>
   <g id="patch_163">
    <path d="M 302.682991 224.64 
L 304.199978 224.64 
L 304.199978 86.122667 
L 302.682991 86.122667 
z
" clip-path="url(#p31fa120367)" style="fill: #1f77b4"/>
   </g>
   <g id="patch_164">
    <path d="M 304.199978 224.64 
L 305.716966 224.64 
L 305.716966 62.652952 
L 304.199978 62.652952 
z
" clip-path="url(#p31fa120367)" style="fill: #1f77b4"/>
   </g>
   <g id="patch_165">
    <path d="M 305.716966 224.64 
L 307.233953 224.64 
L 307.233953 76.918857 
L 305.716966 76.918857 
z
" clip-path="url(#p31fa120367)" style="fill: #1f77b4"/>
   </g>
   <g id="patch_166">
    <path d="M 307.233953 224.64 
L 308.750941 224.64 
L 308.750941 72.777143 
L 307.233953 72.777143 
z
" clip-path="url(#p31fa120367)" style="fill: #1f77b4"/>
   </g>
   <g id="patch_167">
    <path d="M 308.750941 224.64 
L 310.267928 224.64 
L 310.267928 75.998476 
L 308.750941 75.998476 
z
" clip-path="url(#p31fa120367)" style="fill: #1f77b4"/>
   </g>
   <g id="patch_168">
    <path d="M 310.267928 224.64 
L 311.784915 224.64 
L 311.784915 69.55581 
L 310.267928 69.55581 
z
" clip-path="url(#p31fa120367)" style="fill: #1f77b4"/>
   </g>
   <g id="patch_169">
    <path d="M 311.784915 224.64 
L 313.301903 224.64 
L 313.301903 69.095619 
L 311.784915 69.095619 
z
" clip-path="url(#p31fa120367)" style="fill: #1f77b4"/>
   </g>
   <g id="patch_170">
    <path d="M 313.301903 224.64 
L 314.81889 224.64 
L 314.81889 84.281905 
L 313.301903 84.281905 
z
" clip-path="url(#p31fa120367)" style="fill: #1f77b4"/>
   </g>
   <g id="patch_171">
    <path d="M 314.81889 224.64 
L 316.335878 224.64 
L 316.335878 70.47619 
L 314.81889 70.47619 
z
" clip-path="url(#p31fa120367)" style="fill: #1f77b4"/>
   </g>
   <g id="patch_172">
    <path d="M 316.335878 224.64 
L 317.852865 224.64 
L 317.852865 72.316952 
L 316.335878 72.316952 
z
" clip-path="url(#p31fa120367)" style="fill: #1f77b4"/>
   </g>
   <g id="patch_173">
    <path d="M 317.852865 224.64 
L 319.369853 224.64 
L 319.369853 71.396571 
L 317.852865 71.396571 
z
" clip-path="url(#p31fa120367)" style="fill: #1f77b4"/>
   </g>
   <g id="patch_174">
    <path d="M 319.369853 224.64 
L 320.88684 224.64 
L 320.88684 69.55581 
L 319.369853 69.55581 
z
" clip-path="url(#p31fa120367)" style="fill: #1f77b4"/>
   </g>
   <g id="patch_175">
    <path d="M 320.88684 224.64 
L 322.403827 224.64 
L 322.403827 81.520762 
L 320.88684 81.520762 
z
" clip-path="url(#p31fa120367)" style="fill: #1f77b4"/>
   </g>
   <g id="patch_176">
    <path d="M 322.403827 224.64 
L 323.920815 224.64 
L 323.920815 76.918857 
L 322.403827 76.918857 
z
" clip-path="url(#p31fa120367)" style="fill: #1f77b4"/>
   </g>
   <g id="patch_177">
    <path d="M 323.920815 224.64 
L 325.437802 224.64 
L 325.437802 62.652952 
L 323.920815 62.652952 
z
" clip-path="url(#p31fa120367)" style="fill: #1f77b4"/>
   </g>
   <g id="patch_178">
    <path d="M 325.437802 224.64 
L 326.95479 224.64 
L 326.95479 67.254857 
L 325.437802 67.254857 
z
" clip-path="url(#p31fa120367)" style="fill: #1f77b4"/>
   </g>
   <g id="patch_179">
    <path d="M 326.95479 224.64 
L 328.471777 224.64 
L 328.471777 63.113143 
L 326.95479 63.113143 
z
" clip-path="url(#p31fa120367)" style="fill: #1f77b4"/>
   </g>
   <g id="patch_180">
    <path d="M 328.471777 224.64 
L 329.988765 224.64 
L 329.988765 64.493714 
L 328.471777 64.493714 
z
" clip-path="url(#p31fa120367)" style="fill: #1f77b4"/>
   </g>
   <g id="patch_181">
    <path d="M 329.988765 224.64 
L 331.505752 224.64 
L 331.505752 51.608381 
L 329.988765 51.608381 
z
" clip-path="url(#p31fa120367)" style="fill: #1f77b4"/>
   </g>
   <g id="patch_182">
    <path d="M 331.505752 224.64 
L 333.022739 224.64 
L 333.022739 57.590857 
L 331.505752 57.590857 
z
" clip-path="url(#p31fa120367)" style="fill: #1f77b4"/>
   </g>
   <g id="patch_183">
    <path d="M 333.022739 224.64 
L 334.539727 224.64 
L 334.539727 60.352 
L 333.022739 60.352 
z
" clip-path="url(#p31fa120367)" style="fill: #1f77b4"/>
   </g>
   <g id="patch_184">
    <path d="M 334.539727 224.64 
L 336.056714 224.64 
L 336.056714 45.165714 
L 334.539727 45.165714 
z
" clip-path="url(#p31fa120367)" style="fill: #1f77b4"/>
   </g>
   <g id="patch_185">
    <path d="M 336.056714 224.64 
L 337.573702 224.64 
L 337.573702 60.81219 
L 336.056714 60.81219 
z
" clip-path="url(#p31fa120367)" style="fill: #1f77b4"/>
   </g>
   <g id="patch_186">
    <path d="M 337.573702 224.64 
L 339.090689 224.64 
L 339.090689 49.767619 
L 337.573702 49.767619 
z
" clip-path="url(#p31fa120367)" style="fill: #1f77b4"/>
   </g>
   <g id="patch_187">
    <path d="M 339.090689 224.64 
L 340.607677 224.64 
L 340.607677 63.573333 
L 339.090689 63.573333 
z
" clip-path="url(#p31fa120367)" style="fill: #1f77b4"/>
   </g>
   <g id="patch_188">
    <path d="M 340.607677 224.64 
L 342.124664 224.64 
L 342.124664 50.688 
L 340.607677 50.688 
z
" clip-path="url(#p31fa120367)" style="fill: #1f77b4"/>
   </g>
   <g id="patch_189">
    <path d="M 342.124664 224.64 
L 343.641652 224.64 
L 343.641652 39.643429 
L 342.124664 39.643429 
z
" clip-path="url(#p31fa120367)" style="fill: #1f77b4"/>
   </g>
   <g id="patch_190">
    <path d="M 343.641652 224.64 
L 345.158639 224.64 
L 345.158639 63.573333 
L 343.641652 63.573333 
z
" clip-path="url(#p31fa120367)" style="fill: #1f77b4"/>
   </g>
   <g id="patch_191">
    <path d="M 345.158639 224.64 
L 346.675626 224.64 
L 346.675626 41.48419 
L 345.158639 41.48419 
z
" clip-path="url(#p31fa120367)" style="fill: #1f77b4"/>
   </g>
   <g id="patch_192">
    <path d="M 346.675626 224.64 
L 348.192614 224.64 
L 348.192614 48.387048 
L 346.675626 48.387048 
z
" clip-path="url(#p31fa120367)" style="fill: #1f77b4"/>
   </g>
   <g id="patch_193">
    <path d="M 348.192614 224.64 
L 349.709601 224.64 
L 349.709601 29.519238 
L 348.192614 29.519238 
z
" clip-path="url(#p31fa120367)" style="fill: #1f77b4"/>
   </g>
   <g id="patch_194">
    <path d="M 349.709601 224.64 
L 351.226589 224.64 
L 351.226589 55.750095 
L 349.709601 55.750095 
z
" clip-path="url(#p31fa120367)" style="fill: #1f77b4"/>
   </g>
   <g id="patch_195">
    <path d="M 351.226589 224.64 
L 352.743576 224.64 
L 352.743576 43.785143 
L 351.226589 43.785143 
z
" clip-path="url(#p31fa120367)" style="fill: #1f77b4"/>
   </g>
   <g id="patch_196">
    <path d="M 352.743576 224.64 
L 354.260564 224.64 
L 354.260564 40.56381 
L 352.743576 40.56381 
z
" clip-path="url(#p31fa120367)" style="fill: #1f77b4"/>
   </g>
   <g id="patch_197">
    <path d="M 354.260564 224.64 
L 355.777551 224.64 
L 355.777551 38.723048 
L 354.260564 38.723048 
z
" clip-path="url(#p31fa120367)" style="fill: #1f77b4"/>
   </g>
   <g id="patch_198">
    <path d="M 355.777551 224.64 
L 357.294538 224.64 
L 357.294538 41.024 
L 355.777551 41.024 
z
" clip-path="url(#p31fa120367)" style="fill: #1f77b4"/>
   </g>
   <g id="patch_199">
    <path d="M 357.294538 224.64 
L 358.811526 224.64 
L 358.811526 48.387048 
L 357.294538 48.387048 
z
" clip-path="url(#p31fa120367)" style="fill: #1f77b4"/>
   </g>
   <g id="patch_200">
    <path d="M 358.811526 224.64 
L 360.328513 224.64 
L 360.328513 43.785143 
L 358.811526 43.785143 
z
" clip-path="url(#p31fa120367)" style="fill: #1f77b4"/>
   </g>
   <g id="patch_201">
    <path d="M 360.328513 224.64 
L 361.845501 224.64 
L 361.845501 17.554286 
L 360.328513 17.554286 
z
" clip-path="url(#p31fa120367)" style="fill: #1f77b4"/>
   </g>
   <g id="patch_202">
    <path d="M 361.845501 224.64 
L 363.362488 224.64 
L 363.362488 37.802667 
L 361.845501 37.802667 
z
" clip-path="url(#p31fa120367)" style="fill: #1f77b4"/>
   </g>
   <g id="matplotlib.axis_1">
    <g id="xtick_1">
     <g id="line2d_1">
      <defs>
       <path id="mbced24494f" d="M 0 0 
L 0 3.5 
" style="stroke: #000000; stroke-width: 0.8"/>
      </defs>
      <g>
       <use xlink:href="#mbced24494f" x="58.999432" y="224.64" style="stroke: #000000; stroke-width: 0.8"/>
      </g>
     </g>
     <g id="text_1">
      <!-- 0.0 -->
      <g transform="translate(51.047869 239.238437)scale(0.1 -0.1)">
       <defs>
        <path id="DejaVuSans-30" d="M 2034 4250 
Q 1547 4250 1301 3770 
Q 1056 3291 1056 2328 
Q 1056 1369 1301 889 
Q 1547 409 2034 409 
Q 2525 409 2770 889 
Q 3016 1369 3016 2328 
Q 3016 3291 2770 3770 
Q 2525 4250 2034 4250 
z
M 2034 4750 
Q 2819 4750 3233 4129 
Q 3647 3509 3647 2328 
Q 3647 1150 3233 529 
Q 2819 -91 2034 -91 
Q 1250 -91 836 529 
Q 422 1150 422 2328 
Q 422 3509 836 4129 
Q 1250 4750 2034 4750 
z
" transform="scale(0.015625)"/>
        <path id="DejaVuSans-2e" d="M 684 794 
L 1344 794 
L 1344 0 
L 684 0 
L 684 794 
z
" transform="scale(0.015625)"/>
       </defs>
       <use xlink:href="#DejaVuSans-30"/>
       <use xlink:href="#DejaVuSans-2e" x="63.623047"/>
       <use xlink:href="#DejaVuSans-30" x="95.410156"/>
      </g>
     </g>
    </g>
    <g id="xtick_2">
     <g id="line2d_2">
      <g>
       <use xlink:href="#mbced24494f" x="119.872159" y="224.64" style="stroke: #000000; stroke-width: 0.8"/>
      </g>
     </g>
     <g id="text_2">
      <!-- 0.2 -->
      <g transform="translate(111.920597 239.238437)scale(0.1 -0.1)">
       <defs>
        <path id="DejaVuSans-32" d="M 1228 531 
L 3431 531 
L 3431 0 
L 469 0 
L 469 531 
Q 828 903 1448 1529 
Q 2069 2156 2228 2338 
Q 2531 2678 2651 2914 
Q 2772 3150 2772 3378 
Q 2772 3750 2511 3984 
Q 2250 4219 1831 4219 
Q 1534 4219 1204 4116 
Q 875 4013 500 3803 
L 500 4441 
Q 881 4594 1212 4672 
Q 1544 4750 1819 4750 
Q 2544 4750 2975 4387 
Q 3406 4025 3406 3419 
Q 3406 3131 3298 2873 
Q 3191 2616 2906 2266 
Q 2828 2175 2409 1742 
Q 1991 1309 1228 531 
z
" transform="scale(0.015625)"/>
       </defs>
       <use xlink:href="#DejaVuSans-30"/>
       <use xlink:href="#DejaVuSans-2e" x="63.623047"/>
       <use xlink:href="#DejaVuSans-32" x="95.410156"/>
      </g>
     </g>
    </g>
    <g id="xtick_3">
     <g id="line2d_3">
      <g>
       <use xlink:href="#mbced24494f" x="180.744886" y="224.64" style="stroke: #000000; stroke-width: 0.8"/>
      </g>
     </g>
     <g id="text_3">
      <!-- 0.4 -->
      <g transform="translate(172.793324 239.238437)scale(0.1 -0.1)">
       <defs>
        <path id="DejaVuSans-34" d="M 2419 4116 
L 825 1625 
L 2419 1625 
L 2419 4116 
z
M 2253 4666 
L 3047 4666 
L 3047 1625 
L 3713 1625 
L 3713 1100 
L 3047 1100 
L 3047 0 
L 2419 0 
L 2419 1100 
L 313 1100 
L 313 1709 
L 2253 4666 
z
" transform="scale(0.015625)"/>
       </defs>
       <use xlink:href="#DejaVuSans-30"/>
       <use xlink:href="#DejaVuSans-2e" x="63.623047"/>
       <use xlink:href="#DejaVuSans-34" x="95.410156"/>
      </g>
     </g>
    </g>
    <g id="xtick_4">
     <g id="line2d_4">
      <g>
       <use xlink:href="#mbced24494f" x="241.617614" y="224.64" style="stroke: #000000; stroke-width: 0.8"/>
      </g>
     </g>
     <g id="text_4">
      <!-- 0.6 -->
      <g transform="translate(233.666051 239.238437)scale(0.1 -0.1)">
       <defs>
        <path id="DejaVuSans-36" d="M 2113 2584 
Q 1688 2584 1439 2293 
Q 1191 2003 1191 1497 
Q 1191 994 1439 701 
Q 1688 409 2113 409 
Q 2538 409 2786 701 
Q 3034 994 3034 1497 
Q 3034 2003 2786 2293 
Q 2538 2584 2113 2584 
z
M 3366 4563 
L 3366 3988 
Q 3128 4100 2886 4159 
Q 2644 4219 2406 4219 
Q 1781 4219 1451 3797 
Q 1122 3375 1075 2522 
Q 1259 2794 1537 2939 
Q 1816 3084 2150 3084 
Q 2853 3084 3261 2657 
Q 3669 2231 3669 1497 
Q 3669 778 3244 343 
Q 2819 -91 2113 -91 
Q 1303 -91 875 529 
Q 447 1150 447 2328 
Q 447 3434 972 4092 
Q 1497 4750 2381 4750 
Q 2619 4750 2861 4703 
Q 3103 4656 3366 4563 
z
" transform="scale(0.015625)"/>
       </defs>
       <use xlink:href="#DejaVuSans-30"/>
       <use xlink:href="#DejaVuSans-2e" x="63.623047"/>
       <use xlink:href="#DejaVuSans-36" x="95.410156"/>
      </g>
     </g>
    </g>
    <g id="xtick_5">
     <g id="line2d_5">
      <g>
       <use xlink:href="#mbced24494f" x="302.490341" y="224.64" style="stroke: #000000; stroke-width: 0.8"/>
      </g>
     </g>
     <g id="text_5">
      <!-- 0.8 -->
      <g transform="translate(294.538778 239.238437)scale(0.1 -0.1)">
       <defs>
        <path id="DejaVuSans-38" d="M 2034 2216 
Q 1584 2216 1326 1975 
Q 1069 1734 1069 1313 
Q 1069 891 1326 650 
Q 1584 409 2034 409 
Q 2484 409 2743 651 
Q 3003 894 3003 1313 
Q 3003 1734 2745 1975 
Q 2488 2216 2034 2216 
z
M 1403 2484 
Q 997 2584 770 2862 
Q 544 3141 544 3541 
Q 544 4100 942 4425 
Q 1341 4750 2034 4750 
Q 2731 4750 3128 4425 
Q 3525 4100 3525 3541 
Q 3525 3141 3298 2862 
Q 3072 2584 2669 2484 
Q 3125 2378 3379 2068 
Q 3634 1759 3634 1313 
Q 3634 634 3220 271 
Q 2806 -91 2034 -91 
Q 1263 -91 848 271 
Q 434 634 434 1313 
Q 434 1759 690 2068 
Q 947 2378 1403 2484 
z
M 1172 3481 
Q 1172 3119 1398 2916 
Q 1625 2713 2034 2713 
Q 2441 2713 2670 2916 
Q 2900 3119 2900 3481 
Q 2900 3844 2670 4047 
Q 2441 4250 2034 4250 
Q 1625 4250 1398 4047 
Q 1172 3844 1172 3481 
z
" transform="scale(0.015625)"/>
       </defs>
       <use xlink:href="#DejaVuSans-30"/>
       <use xlink:href="#DejaVuSans-2e" x="63.623047"/>
       <use xlink:href="#DejaVuSans-38" x="95.410156"/>
      </g>
     </g>
    </g>
    <g id="xtick_6">
     <g id="line2d_6">
      <g>
       <use xlink:href="#mbced24494f" x="363.363068" y="224.64" style="stroke: #000000; stroke-width: 0.8"/>
      </g>
     </g>
     <g id="text_6">
      <!-- 1.0 -->
      <g transform="translate(355.411506 239.238437)scale(0.1 -0.1)">
       <defs>
        <path id="DejaVuSans-31" d="M 794 531 
L 1825 531 
L 1825 4091 
L 703 3866 
L 703 4441 
L 1819 4666 
L 2450 4666 
L 2450 531 
L 3481 531 
L 3481 0 
L 794 0 
L 794 531 
z
" transform="scale(0.015625)"/>
       </defs>
       <use xlink:href="#DejaVuSans-31"/>
       <use xlink:href="#DejaVuSans-2e" x="63.623047"/>
       <use xlink:href="#DejaVuSans-30" x="95.410156"/>
      </g>
     </g>
    </g>
    <g id="text_7">
     <!-- Propagation direction -->
     <g transform="translate(157.699219 252.916562)scale(0.1 -0.1)">
      <defs>
       <path id="DejaVuSans-50" d="M 1259 4147 
L 1259 2394 
L 2053 2394 
Q 2494 2394 2734 2622 
Q 2975 2850 2975 3272 
Q 2975 3691 2734 3919 
Q 2494 4147 2053 4147 
L 1259 4147 
z
M 628 4666 
L 2053 4666 
Q 2838 4666 3239 4311 
Q 3641 3956 3641 3272 
Q 3641 2581 3239 2228 
Q 2838 1875 2053 1875 
L 1259 1875 
L 1259 0 
L 628 0 
L 628 4666 
z
" transform="scale(0.015625)"/>
       <path id="DejaVuSans-72" d="M 2631 2963 
Q 2534 3019 2420 3045 
Q 2306 3072 2169 3072 
Q 1681 3072 1420 2755 
Q 1159 2438 1159 1844 
L 1159 0 
L 581 0 
L 581 3500 
L 1159 3500 
L 1159 2956 
Q 1341 3275 1631 3429 
Q 1922 3584 2338 3584 
Q 2397 3584 2469 3576 
Q 2541 3569 2628 3553 
L 2631 2963 
z
" transform="scale(0.015625)"/>
       <path id="DejaVuSans-6f" d="M 1959 3097 
Q 1497 3097 1228 2736 
Q 959 2375 959 1747 
Q 959 1119 1226 758 
Q 1494 397 1959 397 
Q 2419 397 2687 759 
Q 2956 1122 2956 1747 
Q 2956 2369 2687 2733 
Q 2419 3097 1959 3097 
z
M 1959 3584 
Q 2709 3584 3137 3096 
Q 3566 2609 3566 1747 
Q 3566 888 3137 398 
Q 2709 -91 1959 -91 
Q 1206 -91 779 398 
Q 353 888 353 1747 
Q 353 2609 779 3096 
Q 1206 3584 1959 3584 
z
" transform="scale(0.015625)"/>
       <path id="DejaVuSans-70" d="M 1159 525 
L 1159 -1331 
L 581 -1331 
L 581 3500 
L 1159 3500 
L 1159 2969 
Q 1341 3281 1617 3432 
Q 1894 3584 2278 3584 
Q 2916 3584 3314 3078 
Q 3713 2572 3713 1747 
Q 3713 922 3314 415 
Q 2916 -91 2278 -91 
Q 1894 -91 1617 61 
Q 1341 213 1159 525 
z
M 3116 1747 
Q 3116 2381 2855 2742 
Q 2594 3103 2138 3103 
Q 1681 3103 1420 2742 
Q 1159 2381 1159 1747 
Q 1159 1113 1420 752 
Q 1681 391 2138 391 
Q 2594 391 2855 752 
Q 3116 1113 3116 1747 
z
" transform="scale(0.015625)"/>
       <path id="DejaVuSans-61" d="M 2194 1759 
Q 1497 1759 1228 1600 
Q 959 1441 959 1056 
Q 959 750 1161 570 
Q 1363 391 1709 391 
Q 2188 391 2477 730 
Q 2766 1069 2766 1631 
L 2766 1759 
L 2194 1759 
z
M 3341 1997 
L 3341 0 
L 2766 0 
L 2766 531 
Q 2569 213 2275 61 
Q 1981 -91 1556 -91 
Q 1019 -91 701 211 
Q 384 513 384 1019 
Q 384 1609 779 1909 
Q 1175 2209 1959 2209 
L 2766 2209 
L 2766 2266 
Q 2766 2663 2505 2880 
Q 2244 3097 1772 3097 
Q 1472 3097 1187 3025 
Q 903 2953 641 2809 
L 641 3341 
Q 956 3463 1253 3523 
Q 1550 3584 1831 3584 
Q 2591 3584 2966 3190 
Q 3341 2797 3341 1997 
z
" transform="scale(0.015625)"/>
       <path id="DejaVuSans-67" d="M 2906 1791 
Q 2906 2416 2648 2759 
Q 2391 3103 1925 3103 
Q 1463 3103 1205 2759 
Q 947 2416 947 1791 
Q 947 1169 1205 825 
Q 1463 481 1925 481 
Q 2391 481 2648 825 
Q 2906 1169 2906 1791 
z
M 3481 434 
Q 3481 -459 3084 -895 
Q 2688 -1331 1869 -1331 
Q 1566 -1331 1297 -1286 
Q 1028 -1241 775 -1147 
L 775 -588 
Q 1028 -725 1275 -790 
Q 1522 -856 1778 -856 
Q 2344 -856 2625 -561 
Q 2906 -266 2906 331 
L 2906 616 
Q 2728 306 2450 153 
Q 2172 0 1784 0 
Q 1141 0 747 490 
Q 353 981 353 1791 
Q 353 2603 747 3093 
Q 1141 3584 1784 3584 
Q 2172 3584 2450 3431 
Q 2728 3278 2906 2969 
L 2906 3500 
L 3481 3500 
L 3481 434 
z
" transform="scale(0.015625)"/>
       <path id="DejaVuSans-74" d="M 1172 4494 
L 1172 3500 
L 2356 3500 
L 2356 3053 
L 1172 3053 
L 1172 1153 
Q 1172 725 1289 603 
Q 1406 481 1766 481 
L 2356 481 
L 2356 0 
L 1766 0 
Q 1100 0 847 248 
Q 594 497 594 1153 
L 594 3053 
L 172 3053 
L 172 3500 
L 594 3500 
L 594 4494 
L 1172 4494 
z
" transform="scale(0.015625)"/>
       <path id="DejaVuSans-69" d="M 603 3500 
L 1178 3500 
L 1178 0 
L 603 0 
L 603 3500 
z
M 603 4863 
L 1178 4863 
L 1178 4134 
L 603 4134 
L 603 4863 
z
" transform="scale(0.015625)"/>
       <path id="DejaVuSans-6e" d="M 3513 2113 
L 3513 0 
L 2938 0 
L 2938 2094 
Q 2938 2591 2744 2837 
Q 2550 3084 2163 3084 
Q 1697 3084 1428 2787 
Q 1159 2491 1159 1978 
L 1159 0 
L 581 0 
L 581 3500 
L 1159 3500 
L 1159 2956 
Q 1366 3272 1645 3428 
Q 1925 3584 2291 3584 
Q 2894 3584 3203 3211 
Q 3513 2838 3513 2113 
z
" transform="scale(0.015625)"/>
       <path id="DejaVuSans-20" transform="scale(0.015625)"/>
       <path id="DejaVuSans-64" d="M 2906 2969 
L 2906 4863 
L 3481 4863 
L 3481 0 
L 2906 0 
L 2906 525 
Q 2725 213 2448 61 
Q 2172 -91 1784 -91 
Q 1150 -91 751 415 
Q 353 922 353 1747 
Q 353 2572 751 3078 
Q 1150 3584 1784 3584 
Q 2172 3584 2448 3432 
Q 2725 3281 2906 2969 
z
M 947 1747 
Q 947 1113 1208 752 
Q 1469 391 1925 391 
Q 2381 391 2643 752 
Q 2906 1113 2906 1747 
Q 2906 2381 2643 2742 
Q 2381 3103 1925 3103 
Q 1469 3103 1208 2742 
Q 947 2381 947 1747 
z
" transform="scale(0.015625)"/>
       <path id="DejaVuSans-65" d="M 3597 1894 
L 3597 1613 
L 953 1613 
Q 991 1019 1311 708 
Q 1631 397 2203 397 
Q 2534 397 2845 478 
Q 3156 559 3463 722 
L 3463 178 
Q 3153 47 2828 -22 
Q 2503 -91 2169 -91 
Q 1331 -91 842 396 
Q 353 884 353 1716 
Q 353 2575 817 3079 
Q 1281 3584 2069 3584 
Q 2775 3584 3186 3129 
Q 3597 2675 3597 1894 
z
M 3022 2063 
Q 3016 2534 2758 2815 
Q 2500 3097 2075 3097 
Q 1594 3097 1305 2825 
Q 1016 2553 972 2059 
L 3022 2063 
z
" transform="scale(0.015625)"/>
       <path id="DejaVuSans-63" d="M 3122 3366 
L 3122 2828 
Q 2878 2963 2633 3030 
Q 2388 3097 2138 3097 
Q 1578 3097 1268 2742 
Q 959 2388 959 1747 
Q 959 1106 1268 751 
Q 1578 397 2138 397 
Q 2388 397 2633 464 
Q 2878 531 3122 666 
L 3122 134 
Q 2881 22 2623 -34 
Q 2366 -91 2075 -91 
Q 1284 -91 818 406 
Q 353 903 353 1747 
Q 353 2603 823 3093 
Q 1294 3584 2113 3584 
Q 2378 3584 2631 3529 
Q 2884 3475 3122 3366 
z
" transform="scale(0.015625)"/>
      </defs>
      <use xlink:href="#DejaVuSans-50"/>
      <use xlink:href="#DejaVuSans-72" x="58.552734"/>
      <use xlink:href="#DejaVuSans-6f" x="97.416016"/>
      <use xlink:href="#DejaVuSans-70" x="158.597656"/>
      <use xlink:href="#DejaVuSans-61" x="222.074219"/>
      <use xlink:href="#DejaVuSans-67" x="283.353516"/>
      <use xlink:href="#DejaVuSans-61" x="346.830078"/>
      <use xlink:href="#DejaVuSans-74" x="408.109375"/>
      <use xlink:href="#DejaVuSans-69" x="447.318359"/>
      <use xlink:href="#DejaVuSans-6f" x="475.101562"/>
      <use xlink:href="#DejaVuSans-6e" x="536.283203"/>
      <use xlink:href="#DejaVuSans-20" x="599.662109"/>
      <use xlink:href="#DejaVuSans-64" x="631.449219"/>
      <use xlink:href="#DejaVuSans-69" x="694.925781"/>
      <use xlink:href="#DejaVuSans-72" x="722.708984"/>
      <use xlink:href="#DejaVuSans-65" x="761.572266"/>
      <use xlink:href="#DejaVuSans-63" x="823.095703"/>
      <use xlink:href="#DejaVuSans-74" x="878.076172"/>
      <use xlink:href="#DejaVuSans-69" x="917.285156"/>
      <use xlink:href="#DejaVuSans-6f" x="945.068359"/>
      <use xlink:href="#DejaVuSans-6e" x="1006.25"/>
     </g>
    </g>
   </g>
   <g id="matplotlib.axis_2">
    <g id="ytick_1">
     <g id="line2d_7">
      <defs>
       <path id="mfc903e4156" d="M 0 0 
L -3.5 0 
" style="stroke: #000000; stroke-width: 0.8"/>
      </defs>
      <g>
       <use xlink:href="#mfc903e4156" x="43.78125" y="224.64" style="stroke: #000000; stroke-width: 0.8"/>
      </g>
     </g>
     <g id="text_8">
      <!-- 0.0 -->
      <g transform="translate(20.878125 228.439219)scale(0.1 -0.1)">
       <use xlink:href="#DejaVuSans-30"/>
       <use xlink:href="#DejaVuSans-2e" x="63.623047"/>
       <use xlink:href="#DejaVuSans-30" x="95.410156"/>
      </g>
     </g>
    </g>
    <g id="ytick_2">
     <g id="line2d_8">
      <g>
       <use xlink:href="#mfc903e4156" x="43.78125" y="178.767032" style="stroke: #000000; stroke-width: 0.8"/>
      </g>
     </g>
     <g id="text_9">
      <!-- 0.5 -->
      <g transform="translate(20.878125 182.566251)scale(0.1 -0.1)">
       <defs>
        <path id="DejaVuSans-35" d="M 691 4666 
L 3169 4666 
L 3169 4134 
L 1269 4134 
L 1269 2991 
Q 1406 3038 1543 3061 
Q 1681 3084 1819 3084 
Q 2600 3084 3056 2656 
Q 3513 2228 3513 1497 
Q 3513 744 3044 326 
Q 2575 -91 1722 -91 
Q 1428 -91 1123 -41 
Q 819 9 494 109 
L 494 744 
Q 775 591 1075 516 
Q 1375 441 1709 441 
Q 2250 441 2565 725 
Q 2881 1009 2881 1497 
Q 2881 1984 2565 2268 
Q 2250 2553 1709 2553 
Q 1456 2553 1204 2497 
Q 953 2441 691 2322 
L 691 4666 
z
" transform="scale(0.015625)"/>
       </defs>
       <use xlink:href="#DejaVuSans-30"/>
       <use xlink:href="#DejaVuSans-2e" x="63.623047"/>
       <use xlink:href="#DejaVuSans-35" x="95.410156"/>
      </g>
     </g>
    </g>
    <g id="ytick_3">
     <g id="line2d_9">
      <g>
       <use xlink:href="#mfc903e4156" x="43.78125" y="132.894064" style="stroke: #000000; stroke-width: 0.8"/>
      </g>
     </g>
     <g id="text_10">
      <!-- 1.0 -->
      <g transform="translate(20.878125 136.693282)scale(0.1 -0.1)">
       <use xlink:href="#DejaVuSans-31"/>
       <use xlink:href="#DejaVuSans-2e" x="63.623047"/>
       <use xlink:href="#DejaVuSans-30" x="95.410156"/>
      </g>
     </g>
    </g>
    <g id="ytick_4">
     <g id="line2d_10">
      <g>
       <use xlink:href="#mfc903e4156" x="43.78125" y="87.021095" style="stroke: #000000; stroke-width: 0.8"/>
      </g>
     </g>
     <g id="text_11">
      <!-- 1.5 -->
      <g transform="translate(20.878125 90.820314)scale(0.1 -0.1)">
       <use xlink:href="#DejaVuSans-31"/>
       <use xlink:href="#DejaVuSans-2e" x="63.623047"/>
       <use xlink:href="#DejaVuSans-35" x="95.410156"/>
      </g>
     </g>
    </g>
    <g id="ytick_5">
     <g id="line2d_11">
      <g>
       <use xlink:href="#mfc903e4156" x="43.78125" y="41.148127" style="stroke: #000000; stroke-width: 0.8"/>
      </g>
     </g>
     <g id="text_12">
      <!-- 2.0 -->
      <g transform="translate(20.878125 44.947346)scale(0.1 -0.1)">
       <use xlink:href="#DejaVuSans-32"/>
       <use xlink:href="#DejaVuSans-2e" x="63.623047"/>
       <use xlink:href="#DejaVuSans-30" x="95.410156"/>
      </g>
     </g>
    </g>
    <g id="text_13">
     <!-- Probability density -->
     <g transform="translate(14.798438 162.270781)rotate(-90)scale(0.1 -0.1)">
      <defs>
       <path id="DejaVuSans-62" d="M 3116 1747 
Q 3116 2381 2855 2742 
Q 2594 3103 2138 3103 
Q 1681 3103 1420 2742 
Q 1159 2381 1159 1747 
Q 1159 1113 1420 752 
Q 1681 391 2138 391 
Q 2594 391 2855 752 
Q 3116 1113 3116 1747 
z
M 1159 2969 
Q 1341 3281 1617 3432 
Q 1894 3584 2278 3584 
Q 2916 3584 3314 3078 
Q 3713 2572 3713 1747 
Q 3713 922 3314 415 
Q 2916 -91 2278 -91 
Q 1894 -91 1617 61 
Q 1341 213 1159 525 
L 1159 0 
L 581 0 
L 581 4863 
L 1159 4863 
L 1159 2969 
z
" transform="scale(0.015625)"/>
       <path id="DejaVuSans-6c" d="M 603 4863 
L 1178 4863 
L 1178 0 
L 603 0 
L 603 4863 
z
" transform="scale(0.015625)"/>
       <path id="DejaVuSans-79" d="M 2059 -325 
Q 1816 -950 1584 -1140 
Q 1353 -1331 966 -1331 
L 506 -1331 
L 506 -850 
L 844 -850 
Q 1081 -850 1212 -737 
Q 1344 -625 1503 -206 
L 1606 56 
L 191 3500 
L 800 3500 
L 1894 763 
L 2988 3500 
L 3597 3500 
L 2059 -325 
z
" transform="scale(0.015625)"/>
       <path id="DejaVuSans-73" d="M 2834 3397 
L 2834 2853 
Q 2591 2978 2328 3040 
Q 2066 3103 1784 3103 
Q 1356 3103 1142 2972 
Q 928 2841 928 2578 
Q 928 2378 1081 2264 
Q 1234 2150 1697 2047 
L 1894 2003 
Q 2506 1872 2764 1633 
Q 3022 1394 3022 966 
Q 3022 478 2636 193 
Q 2250 -91 1575 -91 
Q 1294 -91 989 -36 
Q 684 19 347 128 
L 347 722 
Q 666 556 975 473 
Q 1284 391 1588 391 
Q 1994 391 2212 530 
Q 2431 669 2431 922 
Q 2431 1156 2273 1281 
Q 2116 1406 1581 1522 
L 1381 1569 
Q 847 1681 609 1914 
Q 372 2147 372 2553 
Q 372 3047 722 3315 
Q 1072 3584 1716 3584 
Q 2034 3584 2315 3537 
Q 2597 3491 2834 3397 
z
" transform="scale(0.015625)"/>
      </defs>
      <use xlink:href="#DejaVuSans-50"/>
      <use xlink:href="#DejaVuSans-72" x="58.552734"/>
      <use xlink:href="#DejaVuSans-6f" x="97.416016"/>
      <use xlink:href="#DejaVuSans-62" x="158.597656"/>
      <use xlink:href="#DejaVuSans-61" x="222.074219"/>
      <use xlink:href="#DejaVuSans-62" x="283.353516"/>
      <use xlink:href="#DejaVuSans-69" x="346.830078"/>
      <use xlink:href="#DejaVuSans-6c" x="374.613281"/>
      <use xlink:href="#DejaVuSans-69" x="402.396484"/>
      <use xlink:href="#DejaVuSans-74" x="430.179688"/>
      <use xlink:href="#DejaVuSans-79" x="469.388672"/>
      <use xlink:href="#DejaVuSans-20" x="528.568359"/>
      <use xlink:href="#DejaVuSans-64" x="560.355469"/>
      <use xlink:href="#DejaVuSans-65" x="623.832031"/>
      <use xlink:href="#DejaVuSans-6e" x="685.355469"/>
      <use xlink:href="#DejaVuSans-73" x="748.734375"/>
      <use xlink:href="#DejaVuSans-69" x="800.833984"/>
      <use xlink:href="#DejaVuSans-74" x="828.617188"/>
      <use xlink:href="#DejaVuSans-79" x="867.826172"/>
     </g>
    </g>
   </g>
   <g id="line2d_12">
    <path d="M 58.999432 224.64 
L 363.363068 41.148127 
L 363.363068 41.148127 
" clip-path="url(#p31fa120367)" style="fill: none; stroke: #ff7f0e; stroke-width: 1.5; stroke-linecap: square"/>
   </g>
   <g id="patch_203">
    <path d="M 43.78125 224.64 
L 43.78125 7.2 
" style="fill: none; stroke: #000000; stroke-width: 0.8; stroke-linejoin: miter; stroke-linecap: square"/>
   </g>
   <g id="patch_204">
    <path d="M 378.58125 224.64 
L 378.58125 7.2 
" style="fill: none; stroke: #000000; stroke-width: 0.8; stroke-linejoin: miter; stroke-linecap: square"/>
   </g>
   <g id="patch_205">
    <path d="M 43.78125 224.64 
L 378.58125 224.64 
" style="fill: none; stroke: #000000; stroke-width: 0.8; stroke-linejoin: miter; stroke-linecap: square"/>
   </g>
   <g id="patch_206">
    <path d="M 43.78125 7.2 
L 378.58125 7.2 
" style="fill: none; stroke: #000000; stroke-width: 0.8; stroke-linejoin: miter; stroke-linecap: square"/>
   </g>
  </g>
 </g>
 <defs>
  <clipPath id="p31fa120367">
   <rect x="43.78125" y="7.2" width="334.8" height="217.44"/>
  </clipPath>
 </defs>
</svg>
