<?xml version="1.0" encoding="utf-8" standalone="no"?>
<!DOCTYPE svg PUBLIC "-//W3C//DTD SVG 1.1//EN"
  "http://www.w3.org/Graphics/SVG/1.1/DTD/svg11.dtd">
<svg xmlns:xlink="http://www.w3.org/1999/xlink" width="408.10125pt" height="310.86825pt" viewBox="0 0 408.10125 310.86825" xmlns="http://www.w3.org/2000/svg" version="1.1">
 <metadata>
  <rdf:RDF xmlns:dc="http://purl.org/dc/elements/1.1/" xmlns:cc="http://creativecommons.org/ns#" xmlns:rdf="http://www.w3.org/1999/02/22-rdf-syntax-ns#">
   <cc:Work>
    <dc:type rdf:resource="http://purl.org/dc/dcmitype/StillImage"/>
    <dc:date>2023-01-29T00:38:43.149693</dc:date>
    <dc:format>image/svg+xml</dc:format>
    <dc:creator>
     <cc:Agent>
      <dc:title>Matplotlib v3.5.3, https://matplotlib.org/</dc:title>
     </cc:Agent>
    </dc:creator>
   </cc:Work>
  </rdf:RDF>
 </metadata>
 <defs>
  <style type="text/css">*{stroke-linejoin: round; stroke-linecap: butt}</style>
 </defs>
 <g id="figure_1">
  <g id="patch_1">
   <path d="M 0 310.86825 
L 408.10125 310.86825 
L 408.10125 0 
L 0 0 
z
" style="fill: #ffffff"/>
  </g>
  <g id="axes_1">
   <g id="patch_2">
    <path d="M 43.78125 273.312 
L 400.90125 273.312 
L 400.90125 7.2 
L 43.78125 7.2 
z
" style="fill: #ffffff"/>
   </g>
   <g id="patch_3">
    <path d="M 60.545007 273.312 
L 62.163775 273.312 
L 62.163775 271.164203 
L 60.545007 271.164203 
z
" clip-path="url(#pf482eb15b3)" style="fill: #1f77b4"/>
   </g>
   <g id="patch_4">
    <path d="M 62.163775 273.312 
L 63.782542 273.312 
L 63.782542 266.86861 
L 62.163775 266.86861 
z
" clip-path="url(#pf482eb15b3)" style="fill: #1f77b4"/>
   </g>
   <g id="patch_5">
    <path d="M 63.782542 273.312 
L 65.40131 273.312 
L 65.40131 264.004881 
L 63.782542 264.004881 
z
" clip-path="url(#pf482eb15b3)" style="fill: #1f77b4"/>
   </g>
   <g id="patch_6">
    <path d="M 65.40131 273.312 
L 67.020078 273.312 
L 67.020078 261.857085 
L 65.40131 261.857085 
z
" clip-path="url(#pf482eb15b3)" style="fill: #1f77b4"/>
   </g>
   <g id="patch_7">
    <path d="M 67.020078 273.312 
L 68.638845 273.312 
L 68.638845 254.697763 
L 67.020078 254.697763 
z
" clip-path="url(#pf482eb15b3)" style="fill: #1f77b4"/>
   </g>
   <g id="patch_8">
    <path d="M 68.638845 273.312 
L 70.257613 273.312 
L 70.257613 253.981831 
L 68.638845 253.981831 
z
" clip-path="url(#pf482eb15b3)" style="fill: #1f77b4"/>
   </g>
   <g id="patch_9">
    <path d="M 70.257613 273.312 
L 71.876381 273.312 
L 71.876381 256.845559 
L 70.257613 256.845559 
z
" clip-path="url(#pf482eb15b3)" style="fill: #1f77b4"/>
   </g>
   <g id="patch_10">
    <path d="M 71.876381 273.312 
L 73.495148 273.312 
L 73.495148 242.526915 
L 71.876381 242.526915 
z
" clip-path="url(#pf482eb15b3)" style="fill: #1f77b4"/>
   </g>
   <g id="patch_11">
    <path d="M 73.495148 273.312 
L 75.113916 273.312 
L 75.113916 237.51539 
L 73.495148 237.51539 
z
" clip-path="url(#pf482eb15b3)" style="fill: #1f77b4"/>
   </g>
   <g id="patch_12">
    <path d="M 75.113916 273.312 
L 76.732684 273.312 
L 76.732684 231.787932 
L 75.113916 231.787932 
z
" clip-path="url(#pf482eb15b3)" style="fill: #1f77b4"/>
   </g>
   <g id="patch_13">
    <path d="M 76.732684 273.312 
L 78.351451 273.312 
L 78.351451 238.947254 
L 76.732684 238.947254 
z
" clip-path="url(#pf482eb15b3)" style="fill: #1f77b4"/>
   </g>
   <g id="patch_14">
    <path d="M 78.351451 273.312 
L 79.970219 273.312 
L 79.970219 231.072 
L 78.351451 231.072 
z
" clip-path="url(#pf482eb15b3)" style="fill: #1f77b4"/>
   </g>
   <g id="patch_15">
    <path d="M 79.970219 273.312 
L 81.588987 273.312 
L 81.588987 229.640136 
L 79.970219 229.640136 
z
" clip-path="url(#pf482eb15b3)" style="fill: #1f77b4"/>
   </g>
   <g id="patch_16">
    <path d="M 81.588987 273.312 
L 83.207754 273.312 
L 83.207754 231.072 
L 81.588987 231.072 
z
" clip-path="url(#pf482eb15b3)" style="fill: #1f77b4"/>
   </g>
   <g id="patch_17">
    <path d="M 83.207754 273.312 
L 84.826522 273.312 
L 84.826522 233.935729 
L 83.207754 233.935729 
z
" clip-path="url(#pf482eb15b3)" style="fill: #1f77b4"/>
   </g>
   <g id="patch_18">
    <path d="M 84.826522 273.312 
L 86.445289 273.312 
L 86.445289 216.753356 
L 84.826522 216.753356 
z
" clip-path="url(#pf482eb15b3)" style="fill: #1f77b4"/>
   </g>
   <g id="patch_19">
    <path d="M 86.445289 273.312 
L 88.064057 273.312 
L 88.064057 203.866576 
L 86.445289 203.866576 
z
" clip-path="url(#pf482eb15b3)" style="fill: #1f77b4"/>
   </g>
   <g id="patch_20">
    <path d="M 88.064057 273.312 
L 89.682825 273.312 
L 89.682825 209.594034 
L 88.064057 209.594034 
z
" clip-path="url(#pf482eb15b3)" style="fill: #1f77b4"/>
   </g>
   <g id="patch_21">
    <path d="M 89.682825 273.312 
L 91.301592 273.312 
L 91.301592 211.741831 
L 89.682825 211.741831 
z
" clip-path="url(#pf482eb15b3)" style="fill: #1f77b4"/>
   </g>
   <g id="patch_22">
    <path d="M 91.301592 273.312 
L 92.92036 273.312 
L 92.92036 203.866576 
L 91.301592 203.866576 
z
" clip-path="url(#pf482eb15b3)" style="fill: #1f77b4"/>
   </g>
   <g id="patch_23">
    <path d="M 92.92036 273.312 
L 94.539128 273.312 
L 94.539128 207.446237 
L 92.92036 207.446237 
z
" clip-path="url(#pf482eb15b3)" style="fill: #1f77b4"/>
   </g>
   <g id="patch_24">
    <path d="M 94.539128 273.312 
L 96.157895 273.312 
L 96.157895 191.695729 
L 94.539128 191.695729 
z
" clip-path="url(#pf482eb15b3)" style="fill: #1f77b4"/>
   </g>
   <g id="patch_25">
    <path d="M 96.157895 273.312 
L 97.776663 273.312 
L 97.776663 201.002847 
L 96.157895 201.002847 
z
" clip-path="url(#pf482eb15b3)" style="fill: #1f77b4"/>
   </g>
   <g id="patch_26">
    <path d="M 97.776663 273.312 
L 99.395431 273.312 
L 99.395431 192.411661 
L 97.776663 192.411661 
z
" clip-path="url(#pf482eb15b3)" style="fill: #1f77b4"/>
   </g>
   <g id="patch_27">
    <path d="M 99.395431 273.312 
L 101.014198 273.312 
L 101.014198 181.672678 
L 99.395431 181.672678 
z
" clip-path="url(#pf482eb15b3)" style="fill: #1f77b4"/>
   </g>
   <g id="patch_28">
    <path d="M 101.014198 273.312 
L 102.632966 273.312 
L 102.632966 184.536407 
L 101.014198 184.536407 
z
" clip-path="url(#pf482eb15b3)" style="fill: #1f77b4"/>
   </g>
   <g id="patch_29">
    <path d="M 102.632966 273.312 
L 104.251734 273.312 
L 104.251734 169.501831 
L 102.632966 169.501831 
z
" clip-path="url(#pf482eb15b3)" style="fill: #1f77b4"/>
   </g>
   <g id="patch_30">
    <path d="M 104.251734 273.312 
L 105.870501 273.312 
L 105.870501 183.104542 
L 104.251734 183.104542 
z
" clip-path="url(#pf482eb15b3)" style="fill: #1f77b4"/>
   </g>
   <g id="patch_31">
    <path d="M 105.870501 273.312 
L 107.489269 273.312 
L 107.489269 180.240814 
L 105.870501 180.240814 
z
" clip-path="url(#pf482eb15b3)" style="fill: #1f77b4"/>
   </g>
   <g id="patch_32">
    <path d="M 107.489269 273.312 
L 109.108036 273.312 
L 109.108036 168.069966 
L 107.489269 168.069966 
z
" clip-path="url(#pf482eb15b3)" style="fill: #1f77b4"/>
   </g>
   <g id="patch_33">
    <path d="M 109.108036 273.312 
L 110.726804 273.312 
L 110.726804 163.774373 
L 109.108036 163.774373 
z
" clip-path="url(#pf482eb15b3)" style="fill: #1f77b4"/>
   </g>
   <g id="patch_34">
    <path d="M 110.726804 273.312 
L 112.345572 273.312 
L 112.345572 158.762847 
L 110.726804 158.762847 
z
" clip-path="url(#pf482eb15b3)" style="fill: #1f77b4"/>
   </g>
   <g id="patch_35">
    <path d="M 112.345572 273.312 
L 113.964339 273.312 
L 113.964339 168.069966 
L 112.345572 168.069966 
z
" clip-path="url(#pf482eb15b3)" style="fill: #1f77b4"/>
   </g>
   <g id="patch_36">
    <path d="M 113.964339 273.312 
L 115.583107 273.312 
L 115.583107 145.876068 
L 113.964339 145.876068 
z
" clip-path="url(#pf482eb15b3)" style="fill: #1f77b4"/>
   </g>
   <g id="patch_37">
    <path d="M 115.583107 273.312 
L 117.201875 273.312 
L 117.201875 165.922169 
L 115.583107 165.922169 
z
" clip-path="url(#pf482eb15b3)" style="fill: #1f77b4"/>
   </g>
   <g id="patch_38">
    <path d="M 117.201875 273.312 
L 118.820642 273.312 
L 118.820642 137.284881 
L 117.201875 137.284881 
z
" clip-path="url(#pf482eb15b3)" style="fill: #1f77b4"/>
   </g>
   <g id="patch_39">
    <path d="M 118.820642 273.312 
L 120.43941 273.312 
L 120.43941 148.023864 
L 118.820642 148.023864 
z
" clip-path="url(#pf482eb15b3)" style="fill: #1f77b4"/>
   </g>
   <g id="patch_40">
    <path d="M 120.43941 273.312 
L 122.058178 273.312 
L 122.058178 158.762847 
L 120.43941 158.762847 
z
" clip-path="url(#pf482eb15b3)" style="fill: #1f77b4"/>
   </g>
   <g id="patch_41">
    <path d="M 122.058178 273.312 
L 123.676945 273.312 
L 123.676945 133.70522 
L 122.058178 133.70522 
z
" clip-path="url(#pf482eb15b3)" style="fill: #1f77b4"/>
   </g>
   <g id="patch_42">
    <path d="M 123.676945 273.312 
L 125.295713 273.312 
L 125.295713 149.455729 
L 123.676945 149.455729 
z
" clip-path="url(#pf482eb15b3)" style="fill: #1f77b4"/>
   </g>
   <g id="patch_43">
    <path d="M 125.295713 273.312 
L 126.914481 273.312 
L 126.914481 150.887593 
L 125.295713 150.887593 
z
" clip-path="url(#pf482eb15b3)" style="fill: #1f77b4"/>
   </g>
   <g id="patch_44">
    <path d="M 126.914481 273.312 
L 128.533248 273.312 
L 128.533248 125.114034 
L 126.914481 125.114034 
z
" clip-path="url(#pf482eb15b3)" style="fill: #1f77b4"/>
   </g>
   <g id="patch_45">
    <path d="M 128.533248 273.312 
L 130.152016 273.312 
L 130.152016 114.375051 
L 128.533248 114.375051 
z
" clip-path="url(#pf482eb15b3)" style="fill: #1f77b4"/>
   </g>
   <g id="patch_46">
    <path d="M 130.152016 273.312 
L 131.770783 273.312 
L 131.770783 114.375051 
L 130.152016 114.375051 
z
" clip-path="url(#pf482eb15b3)" style="fill: #1f77b4"/>
   </g>
   <g id="patch_47">
    <path d="M 131.770783 273.312 
L 133.389551 273.312 
L 133.389551 122.250305 
L 131.770783 122.250305 
z
" clip-path="url(#pf482eb15b3)" style="fill: #1f77b4"/>
   </g>
   <g id="patch_48">
    <path d="M 133.389551 273.312 
L 135.008319 273.312 
L 135.008319 136.568949 
L 133.389551 136.568949 
z
" clip-path="url(#pf482eb15b3)" style="fill: #1f77b4"/>
   </g>
   <g id="patch_49">
    <path d="M 135.008319 273.312 
L 136.627086 273.312 
L 136.627086 130.841492 
L 135.008319 130.841492 
z
" clip-path="url(#pf482eb15b3)" style="fill: #1f77b4"/>
   </g>
   <g id="patch_50">
    <path d="M 136.627086 273.312 
L 138.245854 273.312 
L 138.245854 107.931661 
L 136.627086 107.931661 
z
" clip-path="url(#pf482eb15b3)" style="fill: #1f77b4"/>
   </g>
   <g id="patch_51">
    <path d="M 138.245854 273.312 
L 139.864622 273.312 
L 139.864622 128.693695 
L 138.245854 128.693695 
z
" clip-path="url(#pf482eb15b3)" style="fill: #1f77b4"/>
   </g>
   <g id="patch_52">
    <path d="M 139.864622 273.312 
L 141.483389 273.312 
L 141.483389 109.363525 
L 139.864622 109.363525 
z
" clip-path="url(#pf482eb15b3)" style="fill: #1f77b4"/>
   </g>
   <g id="patch_53">
    <path d="M 141.483389 273.312 
L 143.102157 273.312 
L 143.102157 113.659119 
L 141.483389 113.659119 
z
" clip-path="url(#pf482eb15b3)" style="fill: #1f77b4"/>
   </g>
   <g id="patch_54">
    <path d="M 143.102157 273.312 
L 144.720925 273.312 
L 144.720925 102.204203 
L 143.102157 102.204203 
z
" clip-path="url(#pf482eb15b3)" style="fill: #1f77b4"/>
   </g>
   <g id="patch_55">
    <path d="M 144.720925 273.312 
L 146.339692 273.312 
L 146.339692 116.522847 
L 144.720925 116.522847 
z
" clip-path="url(#pf482eb15b3)" style="fill: #1f77b4"/>
   </g>
   <g id="patch_56">
    <path d="M 146.339692 273.312 
L 147.95846 273.312 
L 147.95846 105.067932 
L 146.339692 105.067932 
z
" clip-path="url(#pf482eb15b3)" style="fill: #1f77b4"/>
   </g>
   <g id="patch_57">
    <path d="M 147.95846 273.312 
L 149.577228 273.312 
L 149.577228 106.499797 
L 147.95846 106.499797 
z
" clip-path="url(#pf482eb15b3)" style="fill: #1f77b4"/>
   </g>
   <g id="patch_58">
    <path d="M 149.577228 273.312 
L 151.195995 273.312 
L 151.195995 96.476746 
L 149.577228 96.476746 
z
" clip-path="url(#pf482eb15b3)" style="fill: #1f77b4"/>
   </g>
   <g id="patch_59">
    <path d="M 151.195995 273.312 
L 152.814763 273.312 
L 152.814763 101.488271 
L 151.195995 101.488271 
z
" clip-path="url(#pf482eb15b3)" style="fill: #1f77b4"/>
   </g>
   <g id="patch_60">
    <path d="M 152.814763 273.312 
L 154.43353 273.312 
L 154.43353 76.430644 
L 152.814763 76.430644 
z
" clip-path="url(#pf482eb15b3)" style="fill: #1f77b4"/>
   </g>
   <g id="patch_61">
    <path d="M 154.43353 273.312 
L 156.052298 273.312 
L 156.052298 88.601492 
L 154.43353 88.601492 
z
" clip-path="url(#pf482eb15b3)" style="fill: #1f77b4"/>
   </g>
   <g id="patch_62">
    <path d="M 156.052298 273.312 
L 157.671066 273.312 
L 157.671066 100.056407 
L 156.052298 100.056407 
z
" clip-path="url(#pf482eb15b3)" style="fill: #1f77b4"/>
   </g>
   <g id="patch_63">
    <path d="M 157.671066 273.312 
L 159.289833 273.312 
L 159.289833 102.920136 
L 157.671066 102.920136 
z
" clip-path="url(#pf482eb15b3)" style="fill: #1f77b4"/>
   </g>
   <g id="patch_64">
    <path d="M 159.289833 273.312 
L 160.908601 273.312 
L 160.908601 101.488271 
L 159.289833 101.488271 
z
" clip-path="url(#pf482eb15b3)" style="fill: #1f77b4"/>
   </g>
   <g id="patch_65">
    <path d="M 160.908601 273.312 
L 162.527369 273.312 
L 162.527369 102.204203 
L 160.908601 102.204203 
z
" clip-path="url(#pf482eb15b3)" style="fill: #1f77b4"/>
   </g>
   <g id="patch_66">
    <path d="M 162.527369 273.312 
L 164.146136 273.312 
L 164.146136 84.305898 
L 162.527369 84.305898 
z
" clip-path="url(#pf482eb15b3)" style="fill: #1f77b4"/>
   </g>
   <g id="patch_67">
    <path d="M 164.146136 273.312 
L 165.764904 273.312 
L 165.764904 85.737763 
L 164.146136 85.737763 
z
" clip-path="url(#pf482eb15b3)" style="fill: #1f77b4"/>
   </g>
   <g id="patch_68">
    <path d="M 165.764904 273.312 
L 167.383672 273.312 
L 167.383672 71.419119 
L 165.764904 71.419119 
z
" clip-path="url(#pf482eb15b3)" style="fill: #1f77b4"/>
   </g>
   <g id="patch_69">
    <path d="M 167.383672 273.312 
L 169.002439 273.312 
L 169.002439 81.442169 
L 167.383672 81.442169 
z
" clip-path="url(#pf482eb15b3)" style="fill: #1f77b4"/>
   </g>
   <g id="patch_70">
    <path d="M 169.002439 273.312 
L 170.621207 273.312 
L 170.621207 85.021831 
L 169.002439 85.021831 
z
" clip-path="url(#pf482eb15b3)" style="fill: #1f77b4"/>
   </g>
   <g id="patch_71">
    <path d="M 170.621207 273.312 
L 172.239975 273.312 
L 172.239975 93.613017 
L 170.621207 93.613017 
z
" clip-path="url(#pf482eb15b3)" style="fill: #1f77b4"/>
   </g>
   <g id="patch_72">
    <path d="M 172.239975 273.312 
L 173.858742 273.312 
L 173.858742 93.613017 
L 172.239975 93.613017 
z
" clip-path="url(#pf482eb15b3)" style="fill: #1f77b4"/>
   </g>
   <g id="patch_73">
    <path d="M 173.858742 273.312 
L 175.47751 273.312 
L 175.47751 76.430644 
L 173.858742 76.430644 
z
" clip-path="url(#pf482eb15b3)" style="fill: #1f77b4"/>
   </g>
   <g id="patch_74">
    <path d="M 175.47751 273.312 
L 177.096277 273.312 
L 177.096277 51.373017 
L 175.47751 51.373017 
z
" clip-path="url(#pf482eb15b3)" style="fill: #1f77b4"/>
   </g>
   <g id="patch_75">
    <path d="M 177.096277 273.312 
L 178.715045 273.312 
L 178.715045 57.816407 
L 177.096277 57.816407 
z
" clip-path="url(#pf482eb15b3)" style="fill: #1f77b4"/>
   </g>
   <g id="patch_76">
    <path d="M 178.715045 273.312 
L 180.333813 273.312 
L 180.333813 67.839458 
L 178.715045 67.839458 
z
" clip-path="url(#pf482eb15b3)" style="fill: #1f77b4"/>
   </g>
   <g id="patch_77">
    <path d="M 180.333813 273.312 
L 181.95258 273.312 
L 181.95258 68.55539 
L 180.333813 68.55539 
z
" clip-path="url(#pf482eb15b3)" style="fill: #1f77b4"/>
   </g>
   <g id="patch_78">
    <path d="M 181.95258 273.312 
L 183.571348 273.312 
L 183.571348 67.123525 
L 181.95258 67.123525 
z
" clip-path="url(#pf482eb15b3)" style="fill: #1f77b4"/>
   </g>
   <g id="patch_79">
    <path d="M 183.571348 273.312 
L 185.190116 273.312 
L 185.190116 69.987254 
L 183.571348 69.987254 
z
" clip-path="url(#pf482eb15b3)" style="fill: #1f77b4"/>
   </g>
   <g id="patch_80">
    <path d="M 185.190116 273.312 
L 186.808883 273.312 
L 186.808883 80.010305 
L 185.190116 80.010305 
z
" clip-path="url(#pf482eb15b3)" style="fill: #1f77b4"/>
   </g>
   <g id="patch_81">
    <path d="M 186.808883 273.312 
L 188.427651 273.312 
L 188.427651 62.827932 
L 186.808883 62.827932 
z
" clip-path="url(#pf482eb15b3)" style="fill: #1f77b4"/>
   </g>
   <g id="patch_82">
    <path d="M 188.427651 273.312 
L 190.046419 273.312 
L 190.046419 46.361492 
L 188.427651 46.361492 
z
" clip-path="url(#pf482eb15b3)" style="fill: #1f77b4"/>
   </g>
   <g id="patch_83">
    <path d="M 190.046419 273.312 
L 191.665186 273.312 
L 191.665186 57.100475 
L 190.046419 57.100475 
z
" clip-path="url(#pf482eb15b3)" style="fill: #1f77b4"/>
   </g>
   <g id="patch_84">
    <path d="M 191.665186 273.312 
L 193.283954 273.312 
L 193.283954 69.271322 
L 191.665186 69.271322 
z
" clip-path="url(#pf482eb15b3)" style="fill: #1f77b4"/>
   </g>
   <g id="patch_85">
    <path d="M 193.283954 273.312 
L 194.902722 273.312 
L 194.902722 64.975729 
L 193.283954 64.975729 
z
" clip-path="url(#pf482eb15b3)" style="fill: #1f77b4"/>
   </g>
   <g id="patch_86">
    <path d="M 194.902722 273.312 
L 196.521489 273.312 
L 196.521489 54.952678 
L 194.902722 54.952678 
z
" clip-path="url(#pf482eb15b3)" style="fill: #1f77b4"/>
   </g>
   <g id="patch_87">
    <path d="M 196.521489 273.312 
L 198.140257 273.312 
L 198.140257 32.042847 
L 196.521489 32.042847 
z
" clip-path="url(#pf482eb15b3)" style="fill: #1f77b4"/>
   </g>
   <g id="patch_88">
    <path d="M 198.140257 273.312 
L 199.759024 273.312 
L 199.759024 70.703186 
L 198.140257 70.703186 
z
" clip-path="url(#pf482eb15b3)" style="fill: #1f77b4"/>
   </g>
   <g id="patch_89">
    <path d="M 199.759024 273.312 
L 201.377792 273.312 
L 201.377792 77.862508 
L 199.759024 77.862508 
z
" clip-path="url(#pf482eb15b3)" style="fill: #1f77b4"/>
   </g>
   <g id="patch_90">
    <path d="M 201.377792 273.312 
L 202.99656 273.312 
L 202.99656 50.657085 
L 201.377792 50.657085 
z
" clip-path="url(#pf482eb15b3)" style="fill: #1f77b4"/>
   </g>
   <g id="patch_91">
    <path d="M 202.99656 273.312 
L 204.615327 273.312 
L 204.615327 53.520814 
L 202.99656 53.520814 
z
" clip-path="url(#pf482eb15b3)" style="fill: #1f77b4"/>
   </g>
   <g id="patch_92">
    <path d="M 204.615327 273.312 
L 206.234095 273.312 
L 206.234095 57.100475 
L 204.615327 57.100475 
z
" clip-path="url(#pf482eb15b3)" style="fill: #1f77b4"/>
   </g>
   <g id="patch_93">
    <path d="M 206.234095 273.312 
L 207.852863 273.312 
L 207.852863 24.883525 
L 206.234095 24.883525 
z
" clip-path="url(#pf482eb15b3)" style="fill: #1f77b4"/>
   </g>
   <g id="patch_94">
    <path d="M 207.852863 273.312 
L 209.47163 273.312 
L 209.47163 69.271322 
L 207.852863 69.271322 
z
" clip-path="url(#pf482eb15b3)" style="fill: #1f77b4"/>
   </g>
   <g id="patch_95">
    <path d="M 209.47163 273.312 
L 211.090398 273.312 
L 211.090398 54.952678 
L 209.47163 54.952678 
z
" clip-path="url(#pf482eb15b3)" style="fill: #1f77b4"/>
   </g>
   <g id="patch_96">
    <path d="M 211.090398 273.312 
L 212.709166 273.312 
L 212.709166 49.941153 
L 211.090398 49.941153 
z
" clip-path="url(#pf482eb15b3)" style="fill: #1f77b4"/>
   </g>
   <g id="patch_97">
    <path d="M 212.709166 273.312 
L 214.327933 273.312 
L 214.327933 62.827932 
L 212.709166 62.827932 
z
" clip-path="url(#pf482eb15b3)" style="fill: #1f77b4"/>
   </g>
   <g id="patch_98">
    <path d="M 214.327933 273.312 
L 215.946701 273.312 
L 215.946701 24.883525 
L 214.327933 24.883525 
z
" clip-path="url(#pf482eb15b3)" style="fill: #1f77b4"/>
   </g>
   <g id="patch_99">
    <path d="M 215.946701 273.312 
L 217.565469 273.312 
L 217.565469 48.509288 
L 215.946701 48.509288 
z
" clip-path="url(#pf482eb15b3)" style="fill: #1f77b4"/>
   </g>
   <g id="patch_100">
    <path d="M 217.565469 273.312 
L 219.184236 273.312 
L 219.184236 54.952678 
L 217.565469 54.952678 
z
" clip-path="url(#pf482eb15b3)" style="fill: #1f77b4"/>
   </g>
   <g id="patch_101">
    <path d="M 219.184236 273.312 
L 220.803004 273.312 
L 220.803004 46.361492 
L 219.184236 46.361492 
z
" clip-path="url(#pf482eb15b3)" style="fill: #1f77b4"/>
   </g>
   <g id="patch_102">
    <path d="M 220.803004 273.312 
L 222.421771 273.312 
L 222.421771 23.451661 
L 220.803004 23.451661 
z
" clip-path="url(#pf482eb15b3)" style="fill: #1f77b4"/>
   </g>
   <g id="patch_103">
    <path d="M 222.421771 273.312 
L 224.040539 273.312 
L 224.040539 58.532339 
L 222.421771 58.532339 
z
" clip-path="url(#pf482eb15b3)" style="fill: #1f77b4"/>
   </g>
   <g id="patch_104">
    <path d="M 224.040539 273.312 
L 225.659307 273.312 
L 225.659307 53.520814 
L 224.040539 53.520814 
z
" clip-path="url(#pf482eb15b3)" style="fill: #1f77b4"/>
   </g>
   <g id="patch_105">
    <path d="M 225.659307 273.312 
L 227.278074 273.312 
L 227.278074 42.781831 
L 225.659307 42.781831 
z
" clip-path="url(#pf482eb15b3)" style="fill: #1f77b4"/>
   </g>
   <g id="patch_106">
    <path d="M 227.278074 273.312 
L 228.896842 273.312 
L 228.896842 19.872 
L 227.278074 19.872 
z
" clip-path="url(#pf482eb15b3)" style="fill: #1f77b4"/>
   </g>
   <g id="patch_107">
    <path d="M 228.896842 273.312 
L 230.51561 273.312 
L 230.51561 74.282847 
L 228.896842 74.282847 
z
" clip-path="url(#pf482eb15b3)" style="fill: #1f77b4"/>
   </g>
   <g id="patch_108">
    <path d="M 230.51561 273.312 
L 232.134377 273.312 
L 232.134377 43.497763 
L 230.51561 43.497763 
z
" clip-path="url(#pf482eb15b3)" style="fill: #1f77b4"/>
   </g>
   <g id="patch_109">
    <path d="M 232.134377 273.312 
L 233.753145 273.312 
L 233.753145 61.396068 
L 232.134377 61.396068 
z
" clip-path="url(#pf482eb15b3)" style="fill: #1f77b4"/>
   </g>
   <g id="patch_110">
    <path d="M 233.753145 273.312 
L 235.371913 273.312 
L 235.371913 57.816407 
L 233.753145 57.816407 
z
" clip-path="url(#pf482eb15b3)" style="fill: #1f77b4"/>
   </g>
   <g id="patch_111">
    <path d="M 235.371913 273.312 
L 236.99068 273.312 
L 236.99068 59.964203 
L 235.371913 59.964203 
z
" clip-path="url(#pf482eb15b3)" style="fill: #1f77b4"/>
   </g>
   <g id="patch_112">
    <path d="M 236.99068 273.312 
L 238.609448 273.312 
L 238.609448 46.361492 
L 236.99068 46.361492 
z
" clip-path="url(#pf482eb15b3)" style="fill: #1f77b4"/>
   </g>
   <g id="patch_113">
    <path d="M 238.609448 273.312 
L 240.228216 273.312 
L 240.228216 42.781831 
L 238.609448 42.781831 
z
" clip-path="url(#pf482eb15b3)" style="fill: #1f77b4"/>
   </g>
   <g id="patch_114">
    <path d="M 240.228216 273.312 
L 241.846983 273.312 
L 241.846983 29.895051 
L 240.228216 29.895051 
z
" clip-path="url(#pf482eb15b3)" style="fill: #1f77b4"/>
   </g>
   <g id="patch_115">
    <path d="M 241.846983 273.312 
L 243.465751 273.312 
L 243.465751 41.349966 
L 241.846983 41.349966 
z
" clip-path="url(#pf482eb15b3)" style="fill: #1f77b4"/>
   </g>
   <g id="patch_116">
    <path d="M 243.465751 273.312 
L 245.084518 273.312 
L 245.084518 48.509288 
L 243.465751 48.509288 
z
" clip-path="url(#pf482eb15b3)" style="fill: #1f77b4"/>
   </g>
   <g id="patch_117">
    <path d="M 245.084518 273.312 
L 246.703286 273.312 
L 246.703286 59.964203 
L 245.084518 59.964203 
z
" clip-path="url(#pf482eb15b3)" style="fill: #1f77b4"/>
   </g>
   <g id="patch_118">
    <path d="M 246.703286 273.312 
L 248.322054 273.312 
L 248.322054 59.248271 
L 246.703286 59.248271 
z
" clip-path="url(#pf482eb15b3)" style="fill: #1f77b4"/>
   </g>
   <g id="patch_119">
    <path d="M 248.322054 273.312 
L 249.940821 273.312 
L 249.940821 73.566915 
L 248.322054 73.566915 
z
" clip-path="url(#pf482eb15b3)" style="fill: #1f77b4"/>
   </g>
   <g id="patch_120">
    <path d="M 249.940821 273.312 
L 251.559589 273.312 
L 251.559589 57.100475 
L 249.940821 57.100475 
z
" clip-path="url(#pf482eb15b3)" style="fill: #1f77b4"/>
   </g>
   <g id="patch_121">
    <path d="M 251.559589 273.312 
L 253.178357 273.312 
L 253.178357 62.827932 
L 251.559589 62.827932 
z
" clip-path="url(#pf482eb15b3)" style="fill: #1f77b4"/>
   </g>
   <g id="patch_122">
    <path d="M 253.178357 273.312 
L 254.797124 273.312 
L 254.797124 57.816407 
L 253.178357 57.816407 
z
" clip-path="url(#pf482eb15b3)" style="fill: #1f77b4"/>
   </g>
   <g id="patch_123">
    <path d="M 254.797124 273.312 
L 256.415892 273.312 
L 256.415892 59.964203 
L 254.797124 59.964203 
z
" clip-path="url(#pf482eb15b3)" style="fill: #1f77b4"/>
   </g>
   <g id="patch_124">
    <path d="M 256.415892 273.312 
L 258.03466 273.312 
L 258.03466 76.430644 
L 256.415892 76.430644 
z
" clip-path="url(#pf482eb15b3)" style="fill: #1f77b4"/>
   </g>
   <g id="patch_125">
    <path d="M 258.03466 273.312 
L 259.653427 273.312 
L 259.653427 72.850983 
L 258.03466 72.850983 
z
" clip-path="url(#pf482eb15b3)" style="fill: #1f77b4"/>
   </g>
   <g id="patch_126">
    <path d="M 259.653427 273.312 
L 261.272195 273.312 
L 261.272195 54.236746 
L 259.653427 54.236746 
z
" clip-path="url(#pf482eb15b3)" style="fill: #1f77b4"/>
   </g>
   <g id="patch_127">
    <path d="M 261.272195 273.312 
L 262.890963 273.312 
L 262.890963 50.657085 
L 261.272195 50.657085 
z
" clip-path="url(#pf482eb15b3)" style="fill: #1f77b4"/>
   </g>
   <g id="patch_128">
    <path d="M 262.890963 273.312 
L 264.50973 273.312 
L 264.50973 43.497763 
L 262.890963 43.497763 
z
" clip-path="url(#pf482eb15b3)" style="fill: #1f77b4"/>
   </g>
   <g id="patch_129">
    <path d="M 264.50973 273.312 
L 266.128498 273.312 
L 266.128498 60.680136 
L 264.50973 60.680136 
z
" clip-path="url(#pf482eb15b3)" style="fill: #1f77b4"/>
   </g>
   <g id="patch_130">
    <path d="M 266.128498 273.312 
L 267.747265 273.312 
L 267.747265 74.99878 
L 266.128498 74.99878 
z
" clip-path="url(#pf482eb15b3)" style="fill: #1f77b4"/>
   </g>
   <g id="patch_131">
    <path d="M 267.747265 273.312 
L 269.366033 273.312 
L 269.366033 72.135051 
L 267.747265 72.135051 
z
" clip-path="url(#pf482eb15b3)" style="fill: #1f77b4"/>
   </g>
   <g id="patch_132">
    <path d="M 269.366033 273.312 
L 270.984801 273.312 
L 270.984801 77.146576 
L 269.366033 77.146576 
z
" clip-path="url(#pf482eb15b3)" style="fill: #1f77b4"/>
   </g>
   <g id="patch_133">
    <path d="M 270.984801 273.312 
L 272.603568 273.312 
L 272.603568 73.566915 
L 270.984801 73.566915 
z
" clip-path="url(#pf482eb15b3)" style="fill: #1f77b4"/>
   </g>
   <g id="patch_134">
    <path d="M 272.603568 273.312 
L 274.222336 273.312 
L 274.222336 58.532339 
L 272.603568 58.532339 
z
" clip-path="url(#pf482eb15b3)" style="fill: #1f77b4"/>
   </g>
   <g id="patch_135">
    <path d="M 274.222336 273.312 
L 275.841104 273.312 
L 275.841104 71.419119 
L 274.222336 71.419119 
z
" clip-path="url(#pf482eb15b3)" style="fill: #1f77b4"/>
   </g>
   <g id="patch_136">
    <path d="M 275.841104 273.312 
L 277.459871 273.312 
L 277.459871 59.964203 
L 275.841104 59.964203 
z
" clip-path="url(#pf482eb15b3)" style="fill: #1f77b4"/>
   </g>
   <g id="patch_137">
    <path d="M 277.459871 273.312 
L 279.078639 273.312 
L 279.078639 92.181153 
L 277.459871 92.181153 
z
" clip-path="url(#pf482eb15b3)" style="fill: #1f77b4"/>
   </g>
   <g id="patch_138">
    <path d="M 279.078639 273.312 
L 280.697407 273.312 
L 280.697407 93.613017 
L 279.078639 93.613017 
z
" clip-path="url(#pf482eb15b3)" style="fill: #1f77b4"/>
   </g>
   <g id="patch_139">
    <path d="M 280.697407 273.312 
L 282.316174 273.312 
L 282.316174 85.021831 
L 280.697407 85.021831 
z
" clip-path="url(#pf482eb15b3)" style="fill: #1f77b4"/>
   </g>
   <g id="patch_140">
    <path d="M 282.316174 273.312 
L 283.934942 273.312 
L 283.934942 82.158102 
L 282.316174 82.158102 
z
" clip-path="url(#pf482eb15b3)" style="fill: #1f77b4"/>
   </g>
   <g id="patch_141">
    <path d="M 283.934942 273.312 
L 285.55371 273.312 
L 285.55371 97.192678 
L 283.934942 97.192678 
z
" clip-path="url(#pf482eb15b3)" style="fill: #1f77b4"/>
   </g>
   <g id="patch_142">
    <path d="M 285.55371 273.312 
L 287.172477 273.312 
L 287.172477 91.46522 
L 285.55371 91.46522 
z
" clip-path="url(#pf482eb15b3)" style="fill: #1f77b4"/>
   </g>
   <g id="patch_143">
    <path d="M 287.172477 273.312 
L 288.791245 273.312 
L 288.791245 76.430644 
L 287.172477 76.430644 
z
" clip-path="url(#pf482eb15b3)" style="fill: #1f77b4"/>
   </g>
   <g id="patch_144">
    <path d="M 288.791245 273.312 
L 290.410012 273.312 
L 290.410012 100.056407 
L 288.791245 100.056407 
z
" clip-path="url(#pf482eb15b3)" style="fill: #1f77b4"/>
   </g>
   <g id="patch_145">
    <path d="M 290.410012 273.312 
L 292.02878 273.312 
L 292.02878 93.613017 
L 290.410012 93.613017 
z
" clip-path="url(#pf482eb15b3)" style="fill: #1f77b4"/>
   </g>
   <g id="patch_146">
    <path d="M 292.02878 273.312 
L 293.647548 273.312 
L 293.647548 102.204203 
L 292.02878 102.204203 
z
" clip-path="url(#pf482eb15b3)" style="fill: #1f77b4"/>
   </g>
   <g id="patch_147">
    <path d="M 293.647548 273.312 
L 295.266315 273.312 
L 295.266315 102.920136 
L 293.647548 102.920136 
z
" clip-path="url(#pf482eb15b3)" style="fill: #1f77b4"/>
   </g>
   <g id="patch_148">
    <path d="M 295.266315 273.312 
L 296.885083 273.312 
L 296.885083 122.966237 
L 295.266315 122.966237 
z
" clip-path="url(#pf482eb15b3)" style="fill: #1f77b4"/>
   </g>
   <g id="patch_149">
    <path d="M 296.885083 273.312 
L 298.503851 273.312 
L 298.503851 120.102508 
L 296.885083 120.102508 
z
" clip-path="url(#pf482eb15b3)" style="fill: #1f77b4"/>
   </g>
   <g id="patch_150">
    <path d="M 298.503851 273.312 
L 300.122618 273.312 
L 300.122618 95.044881 
L 298.503851 95.044881 
z
" clip-path="url(#pf482eb15b3)" style="fill: #1f77b4"/>
   </g>
   <g id="patch_151">
    <path d="M 300.122618 273.312 
L 301.741386 273.312 
L 301.741386 114.375051 
L 300.122618 114.375051 
z
" clip-path="url(#pf482eb15b3)" style="fill: #1f77b4"/>
   </g>
   <g id="patch_152">
    <path d="M 301.741386 273.312 
L 303.360154 273.312 
L 303.360154 122.250305 
L 301.741386 122.250305 
z
" clip-path="url(#pf482eb15b3)" style="fill: #1f77b4"/>
   </g>
   <g id="patch_153">
    <path d="M 303.360154 273.312 
L 304.978921 273.312 
L 304.978921 126.545898 
L 303.360154 126.545898 
z
" clip-path="url(#pf482eb15b3)" style="fill: #1f77b4"/>
   </g>
   <g id="patch_154">
    <path d="M 304.978921 273.312 
L 306.597689 273.312 
L 306.597689 122.966237 
L 304.978921 122.966237 
z
" clip-path="url(#pf482eb15b3)" style="fill: #1f77b4"/>
   </g>
   <g id="patch_155">
    <path d="M 306.597689 273.312 
L 308.216457 273.312 
L 308.216457 126.545898 
L 306.597689 126.545898 
z
" clip-path="url(#pf482eb15b3)" style="fill: #1f77b4"/>
   </g>
   <g id="patch_156">
    <path d="M 308.216457 273.312 
L 309.835224 273.312 
L 309.835224 121.534373 
L 308.216457 121.534373 
z
" clip-path="url(#pf482eb15b3)" style="fill: #1f77b4"/>
   </g>
   <g id="patch_157">
    <path d="M 309.835224 273.312 
L 311.453992 273.312 
L 311.453992 127.261831 
L 309.835224 127.261831 
z
" clip-path="url(#pf482eb15b3)" style="fill: #1f77b4"/>
   </g>
   <g id="patch_158">
    <path d="M 311.453992 273.312 
L 313.072759 273.312 
L 313.072759 143.728271 
L 311.453992 143.728271 
z
" clip-path="url(#pf482eb15b3)" style="fill: #1f77b4"/>
   </g>
   <g id="patch_159">
    <path d="M 313.072759 273.312 
L 314.691527 273.312 
L 314.691527 109.363525 
L 313.072759 109.363525 
z
" clip-path="url(#pf482eb15b3)" style="fill: #1f77b4"/>
   </g>
   <g id="patch_160">
    <path d="M 314.691527 273.312 
L 316.310295 273.312 
L 316.310295 118.670644 
L 314.691527 118.670644 
z
" clip-path="url(#pf482eb15b3)" style="fill: #1f77b4"/>
   </g>
   <g id="patch_161">
    <path d="M 316.310295 273.312 
L 317.929062 273.312 
L 317.929062 147.307932 
L 316.310295 147.307932 
z
" clip-path="url(#pf482eb15b3)" style="fill: #1f77b4"/>
   </g>
   <g id="patch_162">
    <path d="M 317.929062 273.312 
L 319.54783 273.312 
L 319.54783 130.125559 
L 317.929062 130.125559 
z
" clip-path="url(#pf482eb15b3)" style="fill: #1f77b4"/>
   </g>
   <g id="patch_163">
    <path d="M 319.54783 273.312 
L 321.166598 273.312 
L 321.166598 150.887593 
L 319.54783 150.887593 
z
" clip-path="url(#pf482eb15b3)" style="fill: #1f77b4"/>
   </g>
   <g id="patch_164">
    <path d="M 321.166598 273.312 
L 322.785365 273.312 
L 322.785365 141.580475 
L 321.166598 141.580475 
z
" clip-path="url(#pf482eb15b3)" style="fill: #1f77b4"/>
   </g>
   <g id="patch_165">
    <path d="M 322.785365 273.312 
L 324.404133 273.312 
L 324.404133 155.899119 
L 322.785365 155.899119 
z
" clip-path="url(#pf482eb15b3)" style="fill: #1f77b4"/>
   </g>
   <g id="patch_166">
    <path d="M 324.404133 273.312 
L 326.022901 273.312 
L 326.022901 158.762847 
L 324.404133 158.762847 
z
" clip-path="url(#pf482eb15b3)" style="fill: #1f77b4"/>
   </g>
   <g id="patch_167">
    <path d="M 326.022901 273.312 
L 327.641668 273.312 
L 327.641668 165.922169 
L 326.022901 165.922169 
z
" clip-path="url(#pf482eb15b3)" style="fill: #1f77b4"/>
   </g>
   <g id="patch_168">
    <path d="M 327.641668 273.312 
L 329.260436 273.312 
L 329.260436 152.319458 
L 327.641668 152.319458 
z
" clip-path="url(#pf482eb15b3)" style="fill: #1f77b4"/>
   </g>
   <g id="patch_169">
    <path d="M 329.260436 273.312 
L 330.879204 273.312 
L 330.879204 172.365559 
L 329.260436 172.365559 
z
" clip-path="url(#pf482eb15b3)" style="fill: #1f77b4"/>
   </g>
   <g id="patch_170">
    <path d="M 330.879204 273.312 
L 332.497971 273.312 
L 332.497971 168.069966 
L 330.879204 168.069966 
z
" clip-path="url(#pf482eb15b3)" style="fill: #1f77b4"/>
   </g>
   <g id="patch_171">
    <path d="M 332.497971 273.312 
L 334.116739 273.312 
L 334.116739 175.94522 
L 332.497971 175.94522 
z
" clip-path="url(#pf482eb15b3)" style="fill: #1f77b4"/>
   </g>
   <g id="patch_172">
    <path d="M 334.116739 273.312 
L 335.735506 273.312 
L 335.735506 163.058441 
L 334.116739 163.058441 
z
" clip-path="url(#pf482eb15b3)" style="fill: #1f77b4"/>
   </g>
   <g id="patch_173">
    <path d="M 335.735506 273.312 
L 337.354274 273.312 
L 337.354274 165.922169 
L 335.735506 165.922169 
z
" clip-path="url(#pf482eb15b3)" style="fill: #1f77b4"/>
   </g>
   <g id="patch_174">
    <path d="M 337.354274 273.312 
L 338.973042 273.312 
L 338.973042 169.501831 
L 337.354274 169.501831 
z
" clip-path="url(#pf482eb15b3)" style="fill: #1f77b4"/>
   </g>
   <g id="patch_175">
    <path d="M 338.973042 273.312 
L 340.591809 273.312 
L 340.591809 170.217763 
L 338.973042 170.217763 
z
" clip-path="url(#pf482eb15b3)" style="fill: #1f77b4"/>
   </g>
   <g id="patch_176">
    <path d="M 340.591809 273.312 
L 342.210577 273.312 
L 342.210577 187.400136 
L 340.591809 187.400136 
z
" clip-path="url(#pf482eb15b3)" style="fill: #1f77b4"/>
   </g>
   <g id="patch_177">
    <path d="M 342.210577 273.312 
L 343.829345 273.312 
L 343.829345 186.684203 
L 342.210577 186.684203 
z
" clip-path="url(#pf482eb15b3)" style="fill: #1f77b4"/>
   </g>
   <g id="patch_178">
    <path d="M 343.829345 273.312 
L 345.448112 273.312 
L 345.448112 196.707254 
L 343.829345 196.707254 
z
" clip-path="url(#pf482eb15b3)" style="fill: #1f77b4"/>
   </g>
   <g id="patch_179">
    <path d="M 345.448112 273.312 
L 347.06688 273.312 
L 347.06688 199.570983 
L 345.448112 199.570983 
z
" clip-path="url(#pf482eb15b3)" style="fill: #1f77b4"/>
   </g>
   <g id="patch_180">
    <path d="M 347.06688 273.312 
L 348.685648 273.312 
L 348.685648 191.695729 
L 347.06688 191.695729 
z
" clip-path="url(#pf482eb15b3)" style="fill: #1f77b4"/>
   </g>
   <g id="patch_181">
    <path d="M 348.685648 273.312 
L 350.304415 273.312 
L 350.304415 198.139119 
L 348.685648 198.139119 
z
" clip-path="url(#pf482eb15b3)" style="fill: #1f77b4"/>
   </g>
   <g id="patch_182">
    <path d="M 350.304415 273.312 
L 351.923183 273.312 
L 351.923183 205.298441 
L 350.304415 205.298441 
z
" clip-path="url(#pf482eb15b3)" style="fill: #1f77b4"/>
   </g>
   <g id="patch_183">
    <path d="M 351.923183 273.312 
L 353.541951 273.312 
L 353.541951 203.150644 
L 351.923183 203.150644 
z
" clip-path="url(#pf482eb15b3)" style="fill: #1f77b4"/>
   </g>
   <g id="patch_184">
    <path d="M 353.541951 273.312 
L 355.160718 273.312 
L 355.160718 213.889627 
L 353.541951 213.889627 
z
" clip-path="url(#pf482eb15b3)" style="fill: #1f77b4"/>
   </g>
   <g id="patch_185">
    <path d="M 355.160718 273.312 
L 356.779486 273.312 
L 356.779486 216.753356 
L 355.160718 216.753356 
z
" clip-path="url(#pf482eb15b3)" style="fill: #1f77b4"/>
   </g>
   <g id="patch_186">
    <path d="M 356.779486 273.312 
L 358.398253 273.312 
L 358.398253 206.014373 
L 356.779486 206.014373 
z
" clip-path="url(#pf482eb15b3)" style="fill: #1f77b4"/>
   </g>
   <g id="patch_187">
    <path d="M 358.398253 273.312 
L 360.017021 273.312 
L 360.017021 222.480814 
L 358.398253 222.480814 
z
" clip-path="url(#pf482eb15b3)" style="fill: #1f77b4"/>
   </g>
   <g id="patch_188">
    <path d="M 360.017021 273.312 
L 361.635789 273.312 
L 361.635789 220.333017 
L 360.017021 220.333017 
z
" clip-path="url(#pf482eb15b3)" style="fill: #1f77b4"/>
   </g>
   <g id="patch_189">
    <path d="M 361.635789 273.312 
L 363.254556 273.312 
L 363.254556 226.776407 
L 361.635789 226.776407 
z
" clip-path="url(#pf482eb15b3)" style="fill: #1f77b4"/>
   </g>
   <g id="patch_190">
    <path d="M 363.254556 273.312 
L 364.873324 273.312 
L 364.873324 241.810983 
L 363.254556 241.810983 
z
" clip-path="url(#pf482eb15b3)" style="fill: #1f77b4"/>
   </g>
   <g id="patch_191">
    <path d="M 364.873324 273.312 
L 366.492092 273.312 
L 366.492092 234.651661 
L 364.873324 234.651661 
z
" clip-path="url(#pf482eb15b3)" style="fill: #1f77b4"/>
   </g>
   <g id="patch_192">
    <path d="M 366.492092 273.312 
L 368.110859 273.312 
L 368.110859 231.072 
L 366.492092 231.072 
z
" clip-path="url(#pf482eb15b3)" style="fill: #1f77b4"/>
   </g>
   <g id="patch_193">
    <path d="M 368.110859 273.312 
L 369.729627 273.312 
L 369.729627 236.083525 
L 368.110859 236.083525 
z
" clip-path="url(#pf482eb15b3)" style="fill: #1f77b4"/>
   </g>
   <g id="patch_194">
    <path d="M 369.729627 273.312 
L 371.348395 273.312 
L 371.348395 235.367593 
L 369.729627 235.367593 
z
" clip-path="url(#pf482eb15b3)" style="fill: #1f77b4"/>
   </g>
   <g id="patch_195">
    <path d="M 371.348395 273.312 
L 372.967162 273.312 
L 372.967162 243.242847 
L 371.348395 243.242847 
z
" clip-path="url(#pf482eb15b3)" style="fill: #1f77b4"/>
   </g>
   <g id="patch_196">
    <path d="M 372.967162 273.312 
L 374.58593 273.312 
L 374.58593 243.242847 
L 372.967162 243.242847 
z
" clip-path="url(#pf482eb15b3)" style="fill: #1f77b4"/>
   </g>
   <g id="patch_197">
    <path d="M 374.58593 273.312 
L 376.204698 273.312 
L 376.204698 250.402169 
L 374.58593 250.402169 
z
" clip-path="url(#pf482eb15b3)" style="fill: #1f77b4"/>
   </g>
   <g id="patch_198">
    <path d="M 376.204698 273.312 
L 377.823465 273.312 
L 377.823465 253.265898 
L 376.204698 253.265898 
z
" clip-path="url(#pf482eb15b3)" style="fill: #1f77b4"/>
   </g>
   <g id="patch_199">
    <path d="M 377.823465 273.312 
L 379.442233 273.312 
L 379.442233 263.288949 
L 377.823465 263.288949 
z
" clip-path="url(#pf482eb15b3)" style="fill: #1f77b4"/>
   </g>
   <g id="patch_200">
    <path d="M 379.442233 273.312 
L 381.061 273.312 
L 381.061 261.141153 
L 379.442233 261.141153 
z
" clip-path="url(#pf482eb15b3)" style="fill: #1f77b4"/>
   </g>
   <g id="patch_201">
    <path d="M 381.061 273.312 
L 382.679768 273.312 
L 382.679768 267.584542 
L 381.061 267.584542 
z
" clip-path="url(#pf482eb15b3)" style="fill: #1f77b4"/>
   </g>
   <g id="patch_202">
    <path d="M 382.679768 273.312 
L 384.298536 273.312 
L 384.298536 269.016407 
L 382.679768 269.016407 
z
" clip-path="url(#pf482eb15b3)" style="fill: #1f77b4"/>
   </g>
   <g id="matplotlib.axis_1">
    <g id="xtick_1">
     <g id="line2d_1">
      <defs>
       <path id="m5ca4f9f5bf" d="M 0 0 
L 0 3.5 
" style="stroke: #000000; stroke-width: 0.8"/>
      </defs>
      <g>
       <use xlink:href="#m5ca4f9f5bf" x="60.013977" y="273.312" style="stroke: #000000; stroke-width: 0.8"/>
      </g>
     </g>
     <g id="text_1">
      <!-- 0.0 -->
      <g transform="translate(52.062415 287.910437)scale(0.1 -0.1)">
       <defs>
        <path id="DejaVuSans-30" d="M 2034 4250 
Q 1547 4250 1301 3770 
Q 1056 3291 1056 2328 
Q 1056 1369 1301 889 
Q 1547 409 2034 409 
Q 2525 409 2770 889 
Q 3016 1369 3016 2328 
Q 3016 3291 2770 3770 
Q 2525 4250 2034 4250 
z
M 2034 4750 
Q 2819 4750 3233 4129 
Q 3647 3509 3647 2328 
Q 3647 1150 3233 529 
Q 2819 -91 2034 -91 
Q 1250 -91 836 529 
Q 422 1150 422 2328 
Q 422 3509 836 4129 
Q 1250 4750 2034 4750 
z
" transform="scale(0.015625)"/>
        <path id="DejaVuSans-2e" d="M 684 794 
L 1344 794 
L 1344 0 
L 684 0 
L 684 794 
z
" transform="scale(0.015625)"/>
       </defs>
       <use xlink:href="#DejaVuSans-30"/>
       <use xlink:href="#DejaVuSans-2e" x="63.623047"/>
       <use xlink:href="#DejaVuSans-30" x="95.410156"/>
      </g>
     </g>
    </g>
    <g id="xtick_2">
     <g id="line2d_2">
      <g>
       <use xlink:href="#m5ca4f9f5bf" x="101.350278" y="273.312" style="stroke: #000000; stroke-width: 0.8"/>
      </g>
     </g>
     <g id="text_2">
      <!-- 0.2 -->
      <g transform="translate(93.398715 287.910437)scale(0.1 -0.1)">
       <defs>
        <path id="DejaVuSans-32" d="M 1228 531 
L 3431 531 
L 3431 0 
L 469 0 
L 469 531 
Q 828 903 1448 1529 
Q 2069 2156 2228 2338 
Q 2531 2678 2651 2914 
Q 2772 3150 2772 3378 
Q 2772 3750 2511 3984 
Q 2250 4219 1831 4219 
Q 1534 4219 1204 4116 
Q 875 4013 500 3803 
L 500 4441 
Q 881 4594 1212 4672 
Q 1544 4750 1819 4750 
Q 2544 4750 2975 4387 
Q 3406 4025 3406 3419 
Q 3406 3131 3298 2873 
Q 3191 2616 2906 2266 
Q 2828 2175 2409 1742 
Q 1991 1309 1228 531 
z
" transform="scale(0.015625)"/>
       </defs>
       <use xlink:href="#DejaVuSans-30"/>
       <use xlink:href="#DejaVuSans-2e" x="63.623047"/>
       <use xlink:href="#DejaVuSans-32" x="95.410156"/>
      </g>
     </g>
    </g>
    <g id="xtick_3">
     <g id="line2d_3">
      <g>
       <use xlink:href="#m5ca4f9f5bf" x="142.686578" y="273.312" style="stroke: #000000; stroke-width: 0.8"/>
      </g>
     </g>
     <g id="text_3">
      <!-- 0.4 -->
      <g transform="translate(134.735016 287.910437)scale(0.1 -0.1)">
       <defs>
        <path id="DejaVuSans-34" d="M 2419 4116 
L 825 1625 
L 2419 1625 
L 2419 4116 
z
M 2253 4666 
L 3047 4666 
L 3047 1625 
L 3713 1625 
L 3713 1100 
L 3047 1100 
L 3047 0 
L 2419 0 
L 2419 1100 
L 313 1100 
L 313 1709 
L 2253 4666 
z
" transform="scale(0.015625)"/>
       </defs>
       <use xlink:href="#DejaVuSans-30"/>
       <use xlink:href="#DejaVuSans-2e" x="63.623047"/>
       <use xlink:href="#DejaVuSans-34" x="95.410156"/>
      </g>
     </g>
    </g>
    <g id="xtick_4">
     <g id="line2d_4">
      <g>
       <use xlink:href="#m5ca4f9f5bf" x="184.022879" y="273.312" style="stroke: #000000; stroke-width: 0.8"/>
      </g>
     </g>
     <g id="text_4">
      <!-- 0.6 -->
      <g transform="translate(176.071316 287.910437)scale(0.1 -0.1)">
       <defs>
        <path id="DejaVuSans-36" d="M 2113 2584 
Q 1688 2584 1439 2293 
Q 1191 2003 1191 1497 
Q 1191 994 1439 701 
Q 1688 409 2113 409 
Q 2538 409 2786 701 
Q 3034 994 3034 1497 
Q 3034 2003 2786 2293 
Q 2538 2584 2113 2584 
z
M 3366 4563 
L 3366 3988 
Q 3128 4100 2886 4159 
Q 2644 4219 2406 4219 
Q 1781 4219 1451 3797 
Q 1122 3375 1075 2522 
Q 1259 2794 1537 2939 
Q 1816 3084 2150 3084 
Q 2853 3084 3261 2657 
Q 3669 2231 3669 1497 
Q 3669 778 3244 343 
Q 2819 -91 2113 -91 
Q 1303 -91 875 529 
Q 447 1150 447 2328 
Q 447 3434 972 4092 
Q 1497 4750 2381 4750 
Q 2619 4750 2861 4703 
Q 3103 4656 3366 4563 
z
" transform="scale(0.015625)"/>
       </defs>
       <use xlink:href="#DejaVuSans-30"/>
       <use xlink:href="#DejaVuSans-2e" x="63.623047"/>
       <use xlink:href="#DejaVuSans-36" x="95.410156"/>
      </g>
     </g>
    </g>
    <g id="xtick_5">
     <g id="line2d_5">
      <g>
       <use xlink:href="#m5ca4f9f5bf" x="225.35918" y="273.312" style="stroke: #000000; stroke-width: 0.8"/>
      </g>
     </g>
     <g id="text_5">
      <!-- 0.8 -->
      <g transform="translate(217.407617 287.910437)scale(0.1 -0.1)">
       <defs>
        <path id="DejaVuSans-38" d="M 2034 2216 
Q 1584 2216 1326 1975 
Q 1069 1734 1069 1313 
Q 1069 891 1326 650 
Q 1584 409 2034 409 
Q 2484 409 2743 651 
Q 3003 894 3003 1313 
Q 3003 1734 2745 1975 
Q 2488 2216 2034 2216 
z
M 1403 2484 
Q 997 2584 770 2862 
Q 544 3141 544 3541 
Q 544 4100 942 4425 
Q 1341 4750 2034 4750 
Q 2731 4750 3128 4425 
Q 3525 4100 3525 3541 
Q 3525 3141 3298 2862 
Q 3072 2584 2669 2484 
Q 3125 2378 3379 2068 
Q 3634 1759 3634 1313 
Q 3634 634 3220 271 
Q 2806 -91 2034 -91 
Q 1263 -91 848 271 
Q 434 634 434 1313 
Q 434 1759 690 2068 
Q 947 2378 1403 2484 
z
M 1172 3481 
Q 1172 3119 1398 2916 
Q 1625 2713 2034 2713 
Q 2441 2713 2670 2916 
Q 2900 3119 2900 3481 
Q 2900 3844 2670 4047 
Q 2441 4250 2034 4250 
Q 1625 4250 1398 4047 
Q 1172 3844 1172 3481 
z
" transform="scale(0.015625)"/>
       </defs>
       <use xlink:href="#DejaVuSans-30"/>
       <use xlink:href="#DejaVuSans-2e" x="63.623047"/>
       <use xlink:href="#DejaVuSans-38" x="95.410156"/>
      </g>
     </g>
    </g>
    <g id="xtick_6">
     <g id="line2d_6">
      <g>
       <use xlink:href="#m5ca4f9f5bf" x="266.69548" y="273.312" style="stroke: #000000; stroke-width: 0.8"/>
      </g>
     </g>
     <g id="text_6">
      <!-- 1.0 -->
      <g transform="translate(258.743918 287.910437)scale(0.1 -0.1)">
       <defs>
        <path id="DejaVuSans-31" d="M 794 531 
L 1825 531 
L 1825 4091 
L 703 3866 
L 703 4441 
L 1819 4666 
L 2450 4666 
L 2450 531 
L 3481 531 
L 3481 0 
L 794 0 
L 794 531 
z
" transform="scale(0.015625)"/>
       </defs>
       <use xlink:href="#DejaVuSans-31"/>
       <use xlink:href="#DejaVuSans-2e" x="63.623047"/>
       <use xlink:href="#DejaVuSans-30" x="95.410156"/>
      </g>
     </g>
    </g>
    <g id="xtick_7">
     <g id="line2d_7">
      <g>
       <use xlink:href="#m5ca4f9f5bf" x="308.031781" y="273.312" style="stroke: #000000; stroke-width: 0.8"/>
      </g>
     </g>
     <g id="text_7">
      <!-- 1.2 -->
      <g transform="translate(300.080218 287.910437)scale(0.1 -0.1)">
       <use xlink:href="#DejaVuSans-31"/>
       <use xlink:href="#DejaVuSans-2e" x="63.623047"/>
       <use xlink:href="#DejaVuSans-32" x="95.410156"/>
      </g>
     </g>
    </g>
    <g id="xtick_8">
     <g id="line2d_8">
      <g>
       <use xlink:href="#m5ca4f9f5bf" x="349.368081" y="273.312" style="stroke: #000000; stroke-width: 0.8"/>
      </g>
     </g>
     <g id="text_8">
      <!-- 1.4 -->
      <g transform="translate(341.416519 287.910437)scale(0.1 -0.1)">
       <use xlink:href="#DejaVuSans-31"/>
       <use xlink:href="#DejaVuSans-2e" x="63.623047"/>
       <use xlink:href="#DejaVuSans-34" x="95.410156"/>
      </g>
     </g>
    </g>
    <g id="xtick_9">
     <g id="line2d_9">
      <g>
       <use xlink:href="#m5ca4f9f5bf" x="390.704382" y="273.312" style="stroke: #000000; stroke-width: 0.8"/>
      </g>
     </g>
     <g id="text_9">
      <!-- 1.6 -->
      <g transform="translate(382.752819 287.910437)scale(0.1 -0.1)">
       <use xlink:href="#DejaVuSans-31"/>
       <use xlink:href="#DejaVuSans-2e" x="63.623047"/>
       <use xlink:href="#DejaVuSans-36" x="95.410156"/>
      </g>
     </g>
    </g>
    <g id="text_10">
     <!-- Angle with normal (rad) -->
     <g transform="translate(163.023281 301.588562)scale(0.1 -0.1)">
      <defs>
       <path id="DejaVuSans-41" d="M 2188 4044 
L 1331 1722 
L 3047 1722 
L 2188 4044 
z
M 1831 4666 
L 2547 4666 
L 4325 0 
L 3669 0 
L 3244 1197 
L 1141 1197 
L 716 0 
L 50 0 
L 1831 4666 
z
" transform="scale(0.015625)"/>
       <path id="DejaVuSans-6e" d="M 3513 2113 
L 3513 0 
L 2938 0 
L 2938 2094 
Q 2938 2591 2744 2837 
Q 2550 3084 2163 3084 
Q 1697 3084 1428 2787 
Q 1159 2491 1159 1978 
L 1159 0 
L 581 0 
L 581 3500 
L 1159 3500 
L 1159 2956 
Q 1366 3272 1645 3428 
Q 1925 3584 2291 3584 
Q 2894 3584 3203 3211 
Q 3513 2838 3513 2113 
z
" transform="scale(0.015625)"/>
       <path id="DejaVuSans-67" d="M 2906 1791 
Q 2906 2416 2648 2759 
Q 2391 3103 1925 3103 
Q 1463 3103 1205 2759 
Q 947 2416 947 1791 
Q 947 1169 1205 825 
Q 1463 481 1925 481 
Q 2391 481 2648 825 
Q 2906 1169 2906 1791 
z
M 3481 434 
Q 3481 -459 3084 -895 
Q 2688 -1331 1869 -1331 
Q 1566 -1331 1297 -1286 
Q 1028 -1241 775 -1147 
L 775 -588 
Q 1028 -725 1275 -790 
Q 1522 -856 1778 -856 
Q 2344 -856 2625 -561 
Q 2906 -266 2906 331 
L 2906 616 
Q 2728 306 2450 153 
Q 2172 0 1784 0 
Q 1141 0 747 490 
Q 353 981 353 1791 
Q 353 2603 747 3093 
Q 1141 3584 1784 3584 
Q 2172 3584 2450 3431 
Q 2728 3278 2906 2969 
L 2906 3500 
L 3481 3500 
L 3481 434 
z
" transform="scale(0.015625)"/>
       <path id="DejaVuSans-6c" d="M 603 4863 
L 1178 4863 
L 1178 0 
L 603 0 
L 603 4863 
z
" transform="scale(0.015625)"/>
       <path id="DejaVuSans-65" d="M 3597 1894 
L 3597 1613 
L 953 1613 
Q 991 1019 1311 708 
Q 1631 397 2203 397 
Q 2534 397 2845 478 
Q 3156 559 3463 722 
L 3463 178 
Q 3153 47 2828 -22 
Q 2503 -91 2169 -91 
Q 1331 -91 842 396 
Q 353 884 353 1716 
Q 353 2575 817 3079 
Q 1281 3584 2069 3584 
Q 2775 3584 3186 3129 
Q 3597 2675 3597 1894 
z
M 3022 2063 
Q 3016 2534 2758 2815 
Q 2500 3097 2075 3097 
Q 1594 3097 1305 2825 
Q 1016 2553 972 2059 
L 3022 2063 
z
" transform="scale(0.015625)"/>
       <path id="DejaVuSans-20" transform="scale(0.015625)"/>
       <path id="DejaVuSans-77" d="M 269 3500 
L 844 3500 
L 1563 769 
L 2278 3500 
L 2956 3500 
L 3675 769 
L 4391 3500 
L 4966 3500 
L 4050 0 
L 3372 0 
L 2619 2869 
L 1863 0 
L 1184 0 
L 269 3500 
z
" transform="scale(0.015625)"/>
       <path id="DejaVuSans-69" d="M 603 3500 
L 1178 3500 
L 1178 0 
L 603 0 
L 603 3500 
z
M 603 4863 
L 1178 4863 
L 1178 4134 
L 603 4134 
L 603 4863 
z
" transform="scale(0.015625)"/>
       <path id="DejaVuSans-74" d="M 1172 4494 
L 1172 3500 
L 2356 3500 
L 2356 3053 
L 1172 3053 
L 1172 1153 
Q 1172 725 1289 603 
Q 1406 481 1766 481 
L 2356 481 
L 2356 0 
L 1766 0 
Q 1100 0 847 248 
Q 594 497 594 1153 
L 594 3053 
L 172 3053 
L 172 3500 
L 594 3500 
L 594 4494 
L 1172 4494 
z
" transform="scale(0.015625)"/>
       <path id="DejaVuSans-68" d="M 3513 2113 
L 3513 0 
L 2938 0 
L 2938 2094 
Q 2938 2591 2744 2837 
Q 2550 3084 2163 3084 
Q 1697 3084 1428 2787 
Q 1159 2491 1159 1978 
L 1159 0 
L 581 0 
L 581 4863 
L 1159 4863 
L 1159 2956 
Q 1366 3272 1645 3428 
Q 1925 3584 2291 3584 
Q 2894 3584 3203 3211 
Q 3513 2838 3513 2113 
z
" transform="scale(0.015625)"/>
       <path id="DejaVuSans-6f" d="M 1959 3097 
Q 1497 3097 1228 2736 
Q 959 2375 959 1747 
Q 959 1119 1226 758 
Q 1494 397 1959 397 
Q 2419 397 2687 759 
Q 2956 1122 2956 1747 
Q 2956 2369 2687 2733 
Q 2419 3097 1959 3097 
z
M 1959 3584 
Q 2709 3584 3137 3096 
Q 3566 2609 3566 1747 
Q 3566 888 3137 398 
Q 2709 -91 1959 -91 
Q 1206 -91 779 398 
Q 353 888 353 1747 
Q 353 2609 779 3096 
Q 1206 3584 1959 3584 
z
" transform="scale(0.015625)"/>
       <path id="DejaVuSans-72" d="M 2631 2963 
Q 2534 3019 2420 3045 
Q 2306 3072 2169 3072 
Q 1681 3072 1420 2755 
Q 1159 2438 1159 1844 
L 1159 0 
L 581 0 
L 581 3500 
L 1159 3500 
L 1159 2956 
Q 1341 3275 1631 3429 
Q 1922 3584 2338 3584 
Q 2397 3584 2469 3576 
Q 2541 3569 2628 3553 
L 2631 2963 
z
" transform="scale(0.015625)"/>
       <path id="DejaVuSans-6d" d="M 3328 2828 
Q 3544 3216 3844 3400 
Q 4144 3584 4550 3584 
Q 5097 3584 5394 3201 
Q 5691 2819 5691 2113 
L 5691 0 
L 5113 0 
L 5113 2094 
Q 5113 2597 4934 2840 
Q 4756 3084 4391 3084 
Q 3944 3084 3684 2787 
Q 3425 2491 3425 1978 
L 3425 0 
L 2847 0 
L 2847 2094 
Q 2847 2600 2669 2842 
Q 2491 3084 2119 3084 
Q 1678 3084 1418 2786 
Q 1159 2488 1159 1978 
L 1159 0 
L 581 0 
L 581 3500 
L 1159 3500 
L 1159 2956 
Q 1356 3278 1631 3431 
Q 1906 3584 2284 3584 
Q 2666 3584 2933 3390 
Q 3200 3197 3328 2828 
z
" transform="scale(0.015625)"/>
       <path id="DejaVuSans-61" d="M 2194 1759 
Q 1497 1759 1228 1600 
Q 959 1441 959 1056 
Q 959 750 1161 570 
Q 1363 391 1709 391 
Q 2188 391 2477 730 
Q 2766 1069 2766 1631 
L 2766 1759 
L 2194 1759 
z
M 3341 1997 
L 3341 0 
L 2766 0 
L 2766 531 
Q 2569 213 2275 61 
Q 1981 -91 1556 -91 
Q 1019 -91 701 211 
Q 384 513 384 1019 
Q 384 1609 779 1909 
Q 1175 2209 1959 2209 
L 2766 2209 
L 2766 2266 
Q 2766 2663 2505 2880 
Q 2244 3097 1772 3097 
Q 1472 3097 1187 3025 
Q 903 2953 641 2809 
L 641 3341 
Q 956 3463 1253 3523 
Q 1550 3584 1831 3584 
Q 2591 3584 2966 3190 
Q 3341 2797 3341 1997 
z
" transform="scale(0.015625)"/>
       <path id="DejaVuSans-28" d="M 1984 4856 
Q 1566 4138 1362 3434 
Q 1159 2731 1159 2009 
Q 1159 1288 1364 580 
Q 1569 -128 1984 -844 
L 1484 -844 
Q 1016 -109 783 600 
Q 550 1309 550 2009 
Q 550 2706 781 3412 
Q 1013 4119 1484 4856 
L 1984 4856 
z
" transform="scale(0.015625)"/>
       <path id="DejaVuSans-64" d="M 2906 2969 
L 2906 4863 
L 3481 4863 
L 3481 0 
L 2906 0 
L 2906 525 
Q 2725 213 2448 61 
Q 2172 -91 1784 -91 
Q 1150 -91 751 415 
Q 353 922 353 1747 
Q 353 2572 751 3078 
Q 1150 3584 1784 3584 
Q 2172 3584 2448 3432 
Q 2725 3281 2906 2969 
z
M 947 1747 
Q 947 1113 1208 752 
Q 1469 391 1925 391 
Q 2381 391 2643 752 
Q 2906 1113 2906 1747 
Q 2906 2381 2643 2742 
Q 2381 3103 1925 3103 
Q 1469 3103 1208 2742 
Q 947 2381 947 1747 
z
" transform="scale(0.015625)"/>
       <path id="DejaVuSans-29" d="M 513 4856 
L 1013 4856 
Q 1481 4119 1714 3412 
Q 1947 2706 1947 2009 
Q 1947 1309 1714 600 
Q 1481 -109 1013 -844 
L 513 -844 
Q 928 -128 1133 580 
Q 1338 1288 1338 2009 
Q 1338 2731 1133 3434 
Q 928 4138 513 4856 
z
" transform="scale(0.015625)"/>
      </defs>
      <use xlink:href="#DejaVuSans-41"/>
      <use xlink:href="#DejaVuSans-6e" x="68.408203"/>
      <use xlink:href="#DejaVuSans-67" x="131.787109"/>
      <use xlink:href="#DejaVuSans-6c" x="195.263672"/>
      <use xlink:href="#DejaVuSans-65" x="223.046875"/>
      <use xlink:href="#DejaVuSans-20" x="284.570312"/>
      <use xlink:href="#DejaVuSans-77" x="316.357422"/>
      <use xlink:href="#DejaVuSans-69" x="398.144531"/>
      <use xlink:href="#DejaVuSans-74" x="425.927734"/>
      <use xlink:href="#DejaVuSans-68" x="465.136719"/>
      <use xlink:href="#DejaVuSans-20" x="528.515625"/>
      <use xlink:href="#DejaVuSans-6e" x="560.302734"/>
      <use xlink:href="#DejaVuSans-6f" x="623.681641"/>
      <use xlink:href="#DejaVuSans-72" x="684.863281"/>
      <use xlink:href="#DejaVuSans-6d" x="724.226562"/>
      <use xlink:href="#DejaVuSans-61" x="821.638672"/>
      <use xlink:href="#DejaVuSans-6c" x="882.917969"/>
      <use xlink:href="#DejaVuSans-20" x="910.701172"/>
      <use xlink:href="#DejaVuSans-28" x="942.488281"/>
      <use xlink:href="#DejaVuSans-72" x="981.501953"/>
      <use xlink:href="#DejaVuSans-61" x="1022.615234"/>
      <use xlink:href="#DejaVuSans-64" x="1083.894531"/>
      <use xlink:href="#DejaVuSans-29" x="1147.371094"/>
     </g>
    </g>
   </g>
   <g id="matplotlib.axis_2">
    <g id="ytick_1">
     <g id="line2d_10">
      <defs>
       <path id="m07856ed4ca" d="M 0 0 
L -3.5 0 
" style="stroke: #000000; stroke-width: 0.8"/>
      </defs>
      <g>
       <use xlink:href="#m07856ed4ca" x="43.78125" y="273.312" style="stroke: #000000; stroke-width: 0.8"/>
      </g>
     </g>
     <g id="text_11">
      <!-- 0.0 -->
      <g transform="translate(20.878125 277.111219)scale(0.1 -0.1)">
       <use xlink:href="#DejaVuSans-30"/>
       <use xlink:href="#DejaVuSans-2e" x="63.623047"/>
       <use xlink:href="#DejaVuSans-30" x="95.410156"/>
      </g>
     </g>
    </g>
    <g id="ytick_2">
     <g id="line2d_11">
      <g>
       <use xlink:href="#m07856ed4ca" x="43.78125" y="228.453496" style="stroke: #000000; stroke-width: 0.8"/>
      </g>
     </g>
     <g id="text_12">
      <!-- 0.2 -->
      <g transform="translate(20.878125 232.252714)scale(0.1 -0.1)">
       <use xlink:href="#DejaVuSans-30"/>
       <use xlink:href="#DejaVuSans-2e" x="63.623047"/>
       <use xlink:href="#DejaVuSans-32" x="95.410156"/>
      </g>
     </g>
    </g>
    <g id="ytick_3">
     <g id="line2d_12">
      <g>
       <use xlink:href="#m07856ed4ca" x="43.78125" y="183.594991" style="stroke: #000000; stroke-width: 0.8"/>
      </g>
     </g>
     <g id="text_13">
      <!-- 0.4 -->
      <g transform="translate(20.878125 187.39421)scale(0.1 -0.1)">
       <use xlink:href="#DejaVuSans-30"/>
       <use xlink:href="#DejaVuSans-2e" x="63.623047"/>
       <use xlink:href="#DejaVuSans-34" x="95.410156"/>
      </g>
     </g>
    </g>
    <g id="ytick_4">
     <g id="line2d_13">
      <g>
       <use xlink:href="#m07856ed4ca" x="43.78125" y="138.736487" style="stroke: #000000; stroke-width: 0.8"/>
      </g>
     </g>
     <g id="text_14">
      <!-- 0.6 -->
      <g transform="translate(20.878125 142.535706)scale(0.1 -0.1)">
       <use xlink:href="#DejaVuSans-30"/>
       <use xlink:href="#DejaVuSans-2e" x="63.623047"/>
       <use xlink:href="#DejaVuSans-36" x="95.410156"/>
      </g>
     </g>
    </g>
    <g id="ytick_5">
     <g id="line2d_14">
      <g>
       <use xlink:href="#m07856ed4ca" x="43.78125" y="93.877983" style="stroke: #000000; stroke-width: 0.8"/>
      </g>
     </g>
     <g id="text_15">
      <!-- 0.8 -->
      <g transform="translate(20.878125 97.677202)scale(0.1 -0.1)">
       <use xlink:href="#DejaVuSans-30"/>
       <use xlink:href="#DejaVuSans-2e" x="63.623047"/>
       <use xlink:href="#DejaVuSans-38" x="95.410156"/>
      </g>
     </g>
    </g>
    <g id="ytick_6">
     <g id="line2d_15">
      <g>
       <use xlink:href="#m07856ed4ca" x="43.78125" y="49.019478" style="stroke: #000000; stroke-width: 0.8"/>
      </g>
     </g>
     <g id="text_16">
      <!-- 1.0 -->
      <g transform="translate(20.878125 52.818697)scale(0.1 -0.1)">
       <use xlink:href="#DejaVuSans-31"/>
       <use xlink:href="#DejaVuSans-2e" x="63.623047"/>
       <use xlink:href="#DejaVuSans-30" x="95.410156"/>
      </g>
     </g>
    </g>
    <g id="text_17">
     <!-- Probability density -->
     <g transform="translate(14.798438 186.606781)rotate(-90)scale(0.1 -0.1)">
      <defs>
       <path id="DejaVuSans-50" d="M 1259 4147 
L 1259 2394 
L 2053 2394 
Q 2494 2394 2734 2622 
Q 2975 2850 2975 3272 
Q 2975 3691 2734 3919 
Q 2494 4147 2053 4147 
L 1259 4147 
z
M 628 4666 
L 2053 4666 
Q 2838 4666 3239 4311 
Q 3641 3956 3641 3272 
Q 3641 2581 3239 2228 
Q 2838 1875 2053 1875 
L 1259 1875 
L 1259 0 
L 628 0 
L 628 4666 
z
" transform="scale(0.015625)"/>
       <path id="DejaVuSans-62" d="M 3116 1747 
Q 3116 2381 2855 2742 
Q 2594 3103 2138 3103 
Q 1681 3103 1420 2742 
Q 1159 2381 1159 1747 
Q 1159 1113 1420 752 
Q 1681 391 2138 391 
Q 2594 391 2855 752 
Q 3116 1113 3116 1747 
z
M 1159 2969 
Q 1341 3281 1617 3432 
Q 1894 3584 2278 3584 
Q 2916 3584 3314 3078 
Q 3713 2572 3713 1747 
Q 3713 922 3314 415 
Q 2916 -91 2278 -91 
Q 1894 -91 1617 61 
Q 1341 213 1159 525 
L 1159 0 
L 581 0 
L 581 4863 
L 1159 4863 
L 1159 2969 
z
" transform="scale(0.015625)"/>
       <path id="DejaVuSans-79" d="M 2059 -325 
Q 1816 -950 1584 -1140 
Q 1353 -1331 966 -1331 
L 506 -1331 
L 506 -850 
L 844 -850 
Q 1081 -850 1212 -737 
Q 1344 -625 1503 -206 
L 1606 56 
L 191 3500 
L 800 3500 
L 1894 763 
L 2988 3500 
L 3597 3500 
L 2059 -325 
z
" transform="scale(0.015625)"/>
       <path id="DejaVuSans-73" d="M 2834 3397 
L 2834 2853 
Q 2591 2978 2328 3040 
Q 2066 3103 1784 3103 
Q 1356 3103 1142 2972 
Q 928 2841 928 2578 
Q 928 2378 1081 2264 
Q 1234 2150 1697 2047 
L 1894 2003 
Q 2506 1872 2764 1633 
Q 3022 1394 3022 966 
Q 3022 478 2636 193 
Q 2250 -91 1575 -91 
Q 1294 -91 989 -36 
Q 684 19 347 128 
L 347 722 
Q 666 556 975 473 
Q 1284 391 1588 391 
Q 1994 391 2212 530 
Q 2431 669 2431 922 
Q 2431 1156 2273 1281 
Q 2116 1406 1581 1522 
L 1381 1569 
Q 847 1681 609 1914 
Q 372 2147 372 2553 
Q 372 3047 722 3315 
Q 1072 3584 1716 3584 
Q 2034 3584 2315 3537 
Q 2597 3491 2834 3397 
z
" transform="scale(0.015625)"/>
      </defs>
      <use xlink:href="#DejaVuSans-50"/>
      <use xlink:href="#DejaVuSans-72" x="58.552734"/>
      <use xlink:href="#DejaVuSans-6f" x="97.416016"/>
      <use xlink:href="#DejaVuSans-62" x="158.597656"/>
      <use xlink:href="#DejaVuSans-61" x="222.074219"/>
      <use xlink:href="#DejaVuSans-62" x="283.353516"/>
      <use xlink:href="#DejaVuSans-69" x="346.830078"/>
      <use xlink:href="#DejaVuSans-6c" x="374.613281"/>
      <use xlink:href="#DejaVuSans-69" x="402.396484"/>
      <use xlink:href="#DejaVuSans-74" x="430.179688"/>
      <use xlink:href="#DejaVuSans-79" x="469.388672"/>
      <use xlink:href="#DejaVuSans-20" x="528.568359"/>
      <use xlink:href="#DejaVuSans-64" x="560.355469"/>
      <use xlink:href="#DejaVuSans-65" x="623.832031"/>
      <use xlink:href="#DejaVuSans-6e" x="685.355469"/>
      <use xlink:href="#DejaVuSans-73" x="748.734375"/>
      <use xlink:href="#DejaVuSans-69" x="800.833984"/>
      <use xlink:href="#DejaVuSans-74" x="828.617188"/>
      <use xlink:href="#DejaVuSans-79" x="867.826172"/>
     </g>
    </g>
   </g>
   <g id="line2d_16">
    <path d="M 60.013977 273.312 
L 79.837728 230.549589 
L 90.237073 208.646405 
L 99.01152 190.665725 
L 106.811029 175.178861 
L 113.960578 161.471299 
L 120.460169 149.472552 
L 126.63478 138.526631 
L 132.484411 128.599937 
L 138.009063 119.649846 
L 143.208736 111.626874 
L 148.408408 104.01315 
L 153.283101 97.264118 
L 158.157794 90.906738 
L 162.707507 85.339032 
L 167.257221 80.135619 
L 171.481954 75.638894 
L 175.706688 71.472494 
L 179.606442 67.925806 
L 183.506197 64.671568 
L 187.405951 61.714413 
L 190.980726 59.268271 
L 194.555501 57.078231 
L 198.130275 55.146914 
L 201.70505 53.47663 
L 205.279825 52.069378 
L 208.52962 51.019731 
L 211.779415 50.1899 
L 215.029211 49.580704 
L 218.279006 49.192746 
L 221.528801 49.02641 
L 224.778596 49.08186 
L 228.028392 49.359041 
L 231.278187 49.85768 
L 234.527982 50.577282 
L 237.777777 51.517137 
L 241.027573 52.676315 
L 244.277368 54.053671 
L 247.852143 55.819123 
L 251.426917 57.844805 
L 255.001692 60.128293 
L 258.576467 62.666854 
L 262.476221 65.723525 
L 266.375976 69.075782 
L 270.27573 72.718851 
L 274.500464 76.987657 
L 278.725198 81.584534 
L 282.949931 86.501802 
L 287.499645 92.14619 
L 292.049358 98.141679 
L 296.924051 104.941816 
L 301.798744 112.116525 
L 306.998416 120.164412 
L 312.523068 129.139546 
L 318.3727 139.091074 
L 324.547311 150.061246 
L 331.046901 162.083248 
L 337.871471 175.178861 
L 345.346 190.010423 
L 353.795468 207.296912 
L 363.544854 227.783433 
L 375.894076 254.290665 
L 384.668523 273.312 
L 384.668523 273.312 
" clip-path="url(#pf482eb15b3)" style="fill: none; stroke: #ff7f0e; stroke-width: 1.5; stroke-linecap: square"/>
   </g>
   <g id="patch_203">
    <path d="M 43.78125 273.312 
L 43.78125 7.2 
" style="fill: none; stroke: #000000; stroke-width: 0.8; stroke-linejoin: miter; stroke-linecap: square"/>
   </g>
   <g id="patch_204">
    <path d="M 400.90125 273.312 
L 400.90125 7.2 
" style="fill: none; stroke: #000000; stroke-width: 0.8; stroke-linejoin: miter; stroke-linecap: square"/>
   </g>
   <g id="patch_205">
    <path d="M 43.78125 273.312 
L 400.90125 273.312 
" style="fill: none; stroke: #000000; stroke-width: 0.8; stroke-linejoin: miter; stroke-linecap: square"/>
   </g>
   <g id="patch_206">
    <path d="M 43.78125 7.2 
L 400.90125 7.2 
" style="fill: none; stroke: #000000; stroke-width: 0.8; stroke-linejoin: miter; stroke-linecap: square"/>
   </g>
  </g>
 </g>
 <defs>
  <clipPath id="pf482eb15b3">
   <rect x="43.78125" y="7.2" width="357.12" height="266.112"/>
  </clipPath>
 </defs>
</svg>
