<?xml version="1.0" encoding="utf-8" standalone="no"?>
<!DOCTYPE svg PUBLIC "-//W3C//DTD SVG 1.1//EN"
  "http://www.w3.org/Graphics/SVG/1.1/DTD/svg11.dtd">
<svg xmlns:xlink="http://www.w3.org/1999/xlink" width="408.10125pt" height="312.783815pt" viewBox="0 0 408.10125 312.783815" xmlns="http://www.w3.org/2000/svg" version="1.1">
 <metadata>
  <rdf:RDF xmlns:dc="http://purl.org/dc/elements/1.1/" xmlns:cc="http://creativecommons.org/ns#" xmlns:rdf="http://www.w3.org/1999/02/22-rdf-syntax-ns#">
   <cc:Work>
    <dc:type rdf:resource="http://purl.org/dc/dcmitype/StillImage"/>
    <dc:date>2022-12-25T00:40:45.720221</dc:date>
    <dc:format>image/svg+xml</dc:format>
    <dc:creator>
     <cc:Agent>
      <dc:title>Matplotlib v3.5.3, https://matplotlib.org/</dc:title>
     </cc:Agent>
    </dc:creator>
   </cc:Work>
  </rdf:RDF>
 </metadata>
 <defs>
  <style type="text/css">*{stroke-linejoin: round; stroke-linecap: butt}</style>
 </defs>
 <g id="figure_1">
  <g id="patch_1">
   <path d="M 0 312.783815 
L 408.10125 312.783815 
L 408.10125 0 
L 0 0 
z
" style="fill: #ffffff"/>
  </g>
  <g id="axes_1">
   <g id="patch_2">
    <path d="M 43.78125 275.227565 
L 400.90125 275.227565 
L 400.90125 9.115565 
L 43.78125 9.115565 
z
" style="fill: #ffffff"/>
   </g>
   <g id="patch_3">
    <path d="M 60.729994 275.227565 
L 62.34609 275.227565 
L 62.34609 268.891565 
L 60.729994 268.891565 
z
" clip-path="url(#p303b556291)" style="fill: #1f77b4"/>
   </g>
   <g id="patch_4">
    <path d="M 62.34609 275.227565 
L 63.962186 275.227565 
L 63.962186 269.595565 
L 62.34609 269.595565 
z
" clip-path="url(#p303b556291)" style="fill: #1f77b4"/>
   </g>
   <g id="patch_5">
    <path d="M 63.962186 275.227565 
L 65.578282 275.227565 
L 65.578282 266.075565 
L 63.962186 266.075565 
z
" clip-path="url(#p303b556291)" style="fill: #1f77b4"/>
   </g>
   <g id="patch_6">
    <path d="M 65.578282 275.227565 
L 67.194378 275.227565 
L 67.194378 265.371565 
L 65.578282 265.371565 
z
" clip-path="url(#p303b556291)" style="fill: #1f77b4"/>
   </g>
   <g id="patch_7">
    <path d="M 67.194378 275.227565 
L 68.810473 275.227565 
L 68.810473 261.147565 
L 67.194378 261.147565 
z
" clip-path="url(#p303b556291)" style="fill: #1f77b4"/>
   </g>
   <g id="patch_8">
    <path d="M 68.810473 275.227565 
L 70.426569 275.227565 
L 70.426569 254.107565 
L 68.810473 254.107565 
z
" clip-path="url(#p303b556291)" style="fill: #1f77b4"/>
   </g>
   <g id="patch_9">
    <path d="M 70.426569 275.227565 
L 72.042665 275.227565 
L 72.042665 249.883565 
L 70.426569 249.883565 
z
" clip-path="url(#p303b556291)" style="fill: #1f77b4"/>
   </g>
   <g id="patch_10">
    <path d="M 72.042665 275.227565 
L 73.658761 275.227565 
L 73.658761 247.067565 
L 72.042665 247.067565 
z
" clip-path="url(#p303b556291)" style="fill: #1f77b4"/>
   </g>
   <g id="patch_11">
    <path d="M 73.658761 275.227565 
L 75.274857 275.227565 
L 75.274857 249.883565 
L 73.658761 249.883565 
z
" clip-path="url(#p303b556291)" style="fill: #1f77b4"/>
   </g>
   <g id="patch_12">
    <path d="M 75.274857 275.227565 
L 76.890953 275.227565 
L 76.890953 238.619565 
L 75.274857 238.619565 
z
" clip-path="url(#p303b556291)" style="fill: #1f77b4"/>
   </g>
   <g id="patch_13">
    <path d="M 76.890953 275.227565 
L 78.507049 275.227565 
L 78.507049 240.027565 
L 76.890953 240.027565 
z
" clip-path="url(#p303b556291)" style="fill: #1f77b4"/>
   </g>
   <g id="patch_14">
    <path d="M 78.507049 275.227565 
L 80.123144 275.227565 
L 80.123144 232.283565 
L 78.507049 232.283565 
z
" clip-path="url(#p303b556291)" style="fill: #1f77b4"/>
   </g>
   <g id="patch_15">
    <path d="M 80.123144 275.227565 
L 81.73924 275.227565 
L 81.73924 221.019565 
L 80.123144 221.019565 
z
" clip-path="url(#p303b556291)" style="fill: #1f77b4"/>
   </g>
   <g id="patch_16">
    <path d="M 81.73924 275.227565 
L 83.355336 275.227565 
L 83.355336 228.059565 
L 81.73924 228.059565 
z
" clip-path="url(#p303b556291)" style="fill: #1f77b4"/>
   </g>
   <g id="patch_17">
    <path d="M 83.355336 275.227565 
L 84.971432 275.227565 
L 84.971432 230.171565 
L 83.355336 230.171565 
z
" clip-path="url(#p303b556291)" style="fill: #1f77b4"/>
   </g>
   <g id="patch_18">
    <path d="M 84.971432 275.227565 
L 86.587528 275.227565 
L 86.587528 223.835565 
L 84.971432 223.835565 
z
" clip-path="url(#p303b556291)" style="fill: #1f77b4"/>
   </g>
   <g id="patch_19">
    <path d="M 86.587528 275.227565 
L 88.203624 275.227565 
L 88.203624 223.835565 
L 86.587528 223.835565 
z
" clip-path="url(#p303b556291)" style="fill: #1f77b4"/>
   </g>
   <g id="patch_20">
    <path d="M 88.203624 275.227565 
L 89.81972 275.227565 
L 89.81972 209.755565 
L 88.203624 209.755565 
z
" clip-path="url(#p303b556291)" style="fill: #1f77b4"/>
   </g>
   <g id="patch_21">
    <path d="M 89.81972 275.227565 
L 91.435816 275.227565 
L 91.435816 219.611565 
L 89.81972 219.611565 
z
" clip-path="url(#p303b556291)" style="fill: #1f77b4"/>
   </g>
   <g id="patch_22">
    <path d="M 91.435816 275.227565 
L 93.051911 275.227565 
L 93.051911 207.643565 
L 91.435816 207.643565 
z
" clip-path="url(#p303b556291)" style="fill: #1f77b4"/>
   </g>
   <g id="patch_23">
    <path d="M 93.051911 275.227565 
L 94.668007 275.227565 
L 94.668007 202.011565 
L 93.051911 202.011565 
z
" clip-path="url(#p303b556291)" style="fill: #1f77b4"/>
   </g>
   <g id="patch_24">
    <path d="M 94.668007 275.227565 
L 96.284103 275.227565 
L 96.284103 202.011565 
L 94.668007 202.011565 
z
" clip-path="url(#p303b556291)" style="fill: #1f77b4"/>
   </g>
   <g id="patch_25">
    <path d="M 96.284103 275.227565 
L 97.900199 275.227565 
L 97.900199 197.083565 
L 96.284103 197.083565 
z
" clip-path="url(#p303b556291)" style="fill: #1f77b4"/>
   </g>
   <g id="patch_26">
    <path d="M 97.900199 275.227565 
L 99.516295 275.227565 
L 99.516295 201.307565 
L 97.900199 201.307565 
z
" clip-path="url(#p303b556291)" style="fill: #1f77b4"/>
   </g>
   <g id="patch_27">
    <path d="M 99.516295 275.227565 
L 101.132391 275.227565 
L 101.132391 198.491565 
L 99.516295 198.491565 
z
" clip-path="url(#p303b556291)" style="fill: #1f77b4"/>
   </g>
   <g id="patch_28">
    <path d="M 101.132391 275.227565 
L 102.748487 275.227565 
L 102.748487 181.595565 
L 101.132391 181.595565 
z
" clip-path="url(#p303b556291)" style="fill: #1f77b4"/>
   </g>
   <g id="patch_29">
    <path d="M 102.748487 275.227565 
L 104.364583 275.227565 
L 104.364583 183.707565 
L 102.748487 183.707565 
z
" clip-path="url(#p303b556291)" style="fill: #1f77b4"/>
   </g>
   <g id="patch_30">
    <path d="M 104.364583 275.227565 
L 105.980678 275.227565 
L 105.980678 172.443565 
L 104.364583 172.443565 
z
" clip-path="url(#p303b556291)" style="fill: #1f77b4"/>
   </g>
   <g id="patch_31">
    <path d="M 105.980678 275.227565 
L 107.596774 275.227565 
L 107.596774 166.107565 
L 105.980678 166.107565 
z
" clip-path="url(#p303b556291)" style="fill: #1f77b4"/>
   </g>
   <g id="patch_32">
    <path d="M 107.596774 275.227565 
L 109.21287 275.227565 
L 109.21287 177.371565 
L 107.596774 177.371565 
z
" clip-path="url(#p303b556291)" style="fill: #1f77b4"/>
   </g>
   <g id="patch_33">
    <path d="M 109.21287 275.227565 
L 110.828966 275.227565 
L 110.828966 174.555565 
L 109.21287 174.555565 
z
" clip-path="url(#p303b556291)" style="fill: #1f77b4"/>
   </g>
   <g id="patch_34">
    <path d="M 110.828966 275.227565 
L 112.445062 275.227565 
L 112.445062 172.443565 
L 110.828966 172.443565 
z
" clip-path="url(#p303b556291)" style="fill: #1f77b4"/>
   </g>
   <g id="patch_35">
    <path d="M 112.445062 275.227565 
L 114.061158 275.227565 
L 114.061158 161.883565 
L 112.445062 161.883565 
z
" clip-path="url(#p303b556291)" style="fill: #1f77b4"/>
   </g>
   <g id="patch_36">
    <path d="M 114.061158 275.227565 
L 115.677254 275.227565 
L 115.677254 181.595565 
L 114.061158 181.595565 
z
" clip-path="url(#p303b556291)" style="fill: #1f77b4"/>
   </g>
   <g id="patch_37">
    <path d="M 115.677254 275.227565 
L 117.293349 275.227565 
L 117.293349 168.923565 
L 115.677254 168.923565 
z
" clip-path="url(#p303b556291)" style="fill: #1f77b4"/>
   </g>
   <g id="patch_38">
    <path d="M 117.293349 275.227565 
L 118.909445 275.227565 
L 118.909445 161.179565 
L 117.293349 161.179565 
z
" clip-path="url(#p303b556291)" style="fill: #1f77b4"/>
   </g>
   <g id="patch_39">
    <path d="M 118.909445 275.227565 
L 120.525541 275.227565 
L 120.525541 144.987565 
L 118.909445 144.987565 
z
" clip-path="url(#p303b556291)" style="fill: #1f77b4"/>
   </g>
   <g id="patch_40">
    <path d="M 120.525541 275.227565 
L 122.141637 275.227565 
L 122.141637 142.875565 
L 120.525541 142.875565 
z
" clip-path="url(#p303b556291)" style="fill: #1f77b4"/>
   </g>
   <g id="patch_41">
    <path d="M 122.141637 275.227565 
L 123.757733 275.227565 
L 123.757733 154.843565 
L 122.141637 154.843565 
z
" clip-path="url(#p303b556291)" style="fill: #1f77b4"/>
   </g>
   <g id="patch_42">
    <path d="M 123.757733 275.227565 
L 125.373829 275.227565 
L 125.373829 156.955565 
L 123.757733 156.955565 
z
" clip-path="url(#p303b556291)" style="fill: #1f77b4"/>
   </g>
   <g id="patch_43">
    <path d="M 125.373829 275.227565 
L 126.989925 275.227565 
L 126.989925 142.875565 
L 125.373829 142.875565 
z
" clip-path="url(#p303b556291)" style="fill: #1f77b4"/>
   </g>
   <g id="patch_44">
    <path d="M 126.989925 275.227565 
L 128.606021 275.227565 
L 128.606021 128.795565 
L 126.989925 128.795565 
z
" clip-path="url(#p303b556291)" style="fill: #1f77b4"/>
   </g>
   <g id="patch_45">
    <path d="M 128.606021 275.227565 
L 130.222116 275.227565 
L 130.222116 144.283565 
L 128.606021 144.283565 
z
" clip-path="url(#p303b556291)" style="fill: #1f77b4"/>
   </g>
   <g id="patch_46">
    <path d="M 130.222116 275.227565 
L 131.838212 275.227565 
L 131.838212 125.275565 
L 130.222116 125.275565 
z
" clip-path="url(#p303b556291)" style="fill: #1f77b4"/>
   </g>
   <g id="patch_47">
    <path d="M 131.838212 275.227565 
L 133.454308 275.227565 
L 133.454308 147.803565 
L 131.838212 147.803565 
z
" clip-path="url(#p303b556291)" style="fill: #1f77b4"/>
   </g>
   <g id="patch_48">
    <path d="M 133.454308 275.227565 
L 135.070404 275.227565 
L 135.070404 123.867565 
L 133.454308 123.867565 
z
" clip-path="url(#p303b556291)" style="fill: #1f77b4"/>
   </g>
   <g id="patch_49">
    <path d="M 135.070404 275.227565 
L 136.6865 275.227565 
L 136.6865 130.907565 
L 135.070404 130.907565 
z
" clip-path="url(#p303b556291)" style="fill: #1f77b4"/>
   </g>
   <g id="patch_50">
    <path d="M 136.6865 275.227565 
L 138.302596 275.227565 
L 138.302596 128.795565 
L 136.6865 128.795565 
z
" clip-path="url(#p303b556291)" style="fill: #1f77b4"/>
   </g>
   <g id="patch_51">
    <path d="M 138.302596 275.227565 
L 139.918692 275.227565 
L 139.918692 120.347565 
L 138.302596 120.347565 
z
" clip-path="url(#p303b556291)" style="fill: #1f77b4"/>
   </g>
   <g id="patch_52">
    <path d="M 139.918692 275.227565 
L 141.534788 275.227565 
L 141.534788 129.499565 
L 139.918692 129.499565 
z
" clip-path="url(#p303b556291)" style="fill: #1f77b4"/>
   </g>
   <g id="patch_53">
    <path d="M 141.534788 275.227565 
L 143.150883 275.227565 
L 143.150883 99.227565 
L 141.534788 99.227565 
z
" clip-path="url(#p303b556291)" style="fill: #1f77b4"/>
   </g>
   <g id="patch_54">
    <path d="M 143.150883 275.227565 
L 144.766979 275.227565 
L 144.766979 111.195565 
L 143.150883 111.195565 
z
" clip-path="url(#p303b556291)" style="fill: #1f77b4"/>
   </g>
   <g id="patch_55">
    <path d="M 144.766979 275.227565 
L 146.383075 275.227565 
L 146.383075 102.043565 
L 144.766979 102.043565 
z
" clip-path="url(#p303b556291)" style="fill: #1f77b4"/>
   </g>
   <g id="patch_56">
    <path d="M 146.383075 275.227565 
L 147.999171 275.227565 
L 147.999171 118.235565 
L 146.383075 118.235565 
z
" clip-path="url(#p303b556291)" style="fill: #1f77b4"/>
   </g>
   <g id="patch_57">
    <path d="M 147.999171 275.227565 
L 149.615267 275.227565 
L 149.615267 114.715565 
L 147.999171 114.715565 
z
" clip-path="url(#p303b556291)" style="fill: #1f77b4"/>
   </g>
   <g id="patch_58">
    <path d="M 149.615267 275.227565 
L 151.231363 275.227565 
L 151.231363 124.571565 
L 149.615267 124.571565 
z
" clip-path="url(#p303b556291)" style="fill: #1f77b4"/>
   </g>
   <g id="patch_59">
    <path d="M 151.231363 275.227565 
L 152.847459 275.227565 
L 152.847459 102.747565 
L 151.231363 102.747565 
z
" clip-path="url(#p303b556291)" style="fill: #1f77b4"/>
   </g>
   <g id="patch_60">
    <path d="M 152.847459 275.227565 
L 154.463554 275.227565 
L 154.463554 97.819565 
L 152.847459 97.819565 
z
" clip-path="url(#p303b556291)" style="fill: #1f77b4"/>
   </g>
   <g id="patch_61">
    <path d="M 154.463554 275.227565 
L 156.07965 275.227565 
L 156.07965 90.075565 
L 154.463554 90.075565 
z
" clip-path="url(#p303b556291)" style="fill: #1f77b4"/>
   </g>
   <g id="patch_62">
    <path d="M 156.07965 275.227565 
L 157.695746 275.227565 
L 157.695746 100.635565 
L 156.07965 100.635565 
z
" clip-path="url(#p303b556291)" style="fill: #1f77b4"/>
   </g>
   <g id="patch_63">
    <path d="M 157.695746 275.227565 
L 159.311842 275.227565 
L 159.311842 111.899565 
L 157.695746 111.899565 
z
" clip-path="url(#p303b556291)" style="fill: #1f77b4"/>
   </g>
   <g id="patch_64">
    <path d="M 159.311842 275.227565 
L 160.927938 275.227565 
L 160.927938 92.187565 
L 159.311842 92.187565 
z
" clip-path="url(#p303b556291)" style="fill: #1f77b4"/>
   </g>
   <g id="patch_65">
    <path d="M 160.927938 275.227565 
L 162.544034 275.227565 
L 162.544034 96.411565 
L 160.927938 96.411565 
z
" clip-path="url(#p303b556291)" style="fill: #1f77b4"/>
   </g>
   <g id="patch_66">
    <path d="M 162.544034 275.227565 
L 164.16013 275.227565 
L 164.16013 95.707565 
L 162.544034 95.707565 
z
" clip-path="url(#p303b556291)" style="fill: #1f77b4"/>
   </g>
   <g id="patch_67">
    <path d="M 164.16013 275.227565 
L 165.776226 275.227565 
L 165.776226 77.403565 
L 164.16013 77.403565 
z
" clip-path="url(#p303b556291)" style="fill: #1f77b4"/>
   </g>
   <g id="patch_68">
    <path d="M 165.776226 275.227565 
L 167.392321 275.227565 
L 167.392321 97.819565 
L 165.776226 97.819565 
z
" clip-path="url(#p303b556291)" style="fill: #1f77b4"/>
   </g>
   <g id="patch_69">
    <path d="M 167.392321 275.227565 
L 169.008417 275.227565 
L 169.008417 103.451565 
L 167.392321 103.451565 
z
" clip-path="url(#p303b556291)" style="fill: #1f77b4"/>
   </g>
   <g id="patch_70">
    <path d="M 169.008417 275.227565 
L 170.624513 275.227565 
L 170.624513 90.075565 
L 169.008417 90.075565 
z
" clip-path="url(#p303b556291)" style="fill: #1f77b4"/>
   </g>
   <g id="patch_71">
    <path d="M 170.624513 275.227565 
L 172.240609 275.227565 
L 172.240609 78.811565 
L 170.624513 78.811565 
z
" clip-path="url(#p303b556291)" style="fill: #1f77b4"/>
   </g>
   <g id="patch_72">
    <path d="M 172.240609 275.227565 
L 173.856705 275.227565 
L 173.856705 71.771565 
L 172.240609 71.771565 
z
" clip-path="url(#p303b556291)" style="fill: #1f77b4"/>
   </g>
   <g id="patch_73">
    <path d="M 173.856705 275.227565 
L 175.472801 275.227565 
L 175.472801 91.483565 
L 173.856705 91.483565 
z
" clip-path="url(#p303b556291)" style="fill: #1f77b4"/>
   </g>
   <g id="patch_74">
    <path d="M 175.472801 275.227565 
L 177.088897 275.227565 
L 177.088897 73.179565 
L 175.472801 73.179565 
z
" clip-path="url(#p303b556291)" style="fill: #1f77b4"/>
   </g>
   <g id="patch_75">
    <path d="M 177.088897 275.227565 
L 178.704993 275.227565 
L 178.704993 80.219565 
L 177.088897 80.219565 
z
" clip-path="url(#p303b556291)" style="fill: #1f77b4"/>
   </g>
   <g id="patch_76">
    <path d="M 178.704993 275.227565 
L 180.321088 275.227565 
L 180.321088 58.395565 
L 178.704993 58.395565 
z
" clip-path="url(#p303b556291)" style="fill: #1f77b4"/>
   </g>
   <g id="patch_77">
    <path d="M 180.321088 275.227565 
L 181.937184 275.227565 
L 181.937184 89.371565 
L 180.321088 89.371565 
z
" clip-path="url(#p303b556291)" style="fill: #1f77b4"/>
   </g>
   <g id="patch_78">
    <path d="M 181.937184 275.227565 
L 183.55328 275.227565 
L 183.55328 79.515565 
L 181.937184 79.515565 
z
" clip-path="url(#p303b556291)" style="fill: #1f77b4"/>
   </g>
   <g id="patch_79">
    <path d="M 183.55328 275.227565 
L 185.169376 275.227565 
L 185.169376 52.763565 
L 183.55328 52.763565 
z
" clip-path="url(#p303b556291)" style="fill: #1f77b4"/>
   </g>
   <g id="patch_80">
    <path d="M 185.169376 275.227565 
L 186.785472 275.227565 
L 186.785472 72.475565 
L 185.169376 72.475565 
z
" clip-path="url(#p303b556291)" style="fill: #1f77b4"/>
   </g>
   <g id="patch_81">
    <path d="M 186.785472 275.227565 
L 188.401568 275.227565 
L 188.401568 68.955565 
L 186.785472 68.955565 
z
" clip-path="url(#p303b556291)" style="fill: #1f77b4"/>
   </g>
   <g id="patch_82">
    <path d="M 188.401568 275.227565 
L 190.017664 275.227565 
L 190.017664 45.723565 
L 188.401568 45.723565 
z
" clip-path="url(#p303b556291)" style="fill: #1f77b4"/>
   </g>
   <g id="patch_83">
    <path d="M 190.017664 275.227565 
L 191.633759 275.227565 
L 191.633759 82.331565 
L 190.017664 82.331565 
z
" clip-path="url(#p303b556291)" style="fill: #1f77b4"/>
   </g>
   <g id="patch_84">
    <path d="M 191.633759 275.227565 
L 193.249855 275.227565 
L 193.249855 73.179565 
L 191.633759 73.179565 
z
" clip-path="url(#p303b556291)" style="fill: #1f77b4"/>
   </g>
   <g id="patch_85">
    <path d="M 193.249855 275.227565 
L 194.865951 275.227565 
L 194.865951 82.331565 
L 193.249855 82.331565 
z
" clip-path="url(#p303b556291)" style="fill: #1f77b4"/>
   </g>
   <g id="patch_86">
    <path d="M 194.865951 275.227565 
L 196.482047 275.227565 
L 196.482047 68.251565 
L 194.865951 68.251565 
z
" clip-path="url(#p303b556291)" style="fill: #1f77b4"/>
   </g>
   <g id="patch_87">
    <path d="M 196.482047 275.227565 
L 198.098143 275.227565 
L 198.098143 34.459565 
L 196.482047 34.459565 
z
" clip-path="url(#p303b556291)" style="fill: #1f77b4"/>
   </g>
   <g id="patch_88">
    <path d="M 198.098143 275.227565 
L 199.714239 275.227565 
L 199.714239 54.171565 
L 198.098143 54.171565 
z
" clip-path="url(#p303b556291)" style="fill: #1f77b4"/>
   </g>
   <g id="patch_89">
    <path d="M 199.714239 275.227565 
L 201.330335 275.227565 
L 201.330335 21.787565 
L 199.714239 21.787565 
z
" clip-path="url(#p303b556291)" style="fill: #1f77b4"/>
   </g>
   <g id="patch_90">
    <path d="M 201.330335 275.227565 
L 202.946431 275.227565 
L 202.946431 47.835565 
L 201.330335 47.835565 
z
" clip-path="url(#p303b556291)" style="fill: #1f77b4"/>
   </g>
   <g id="patch_91">
    <path d="M 202.946431 275.227565 
L 204.562526 275.227565 
L 204.562526 54.875565 
L 202.946431 54.875565 
z
" clip-path="url(#p303b556291)" style="fill: #1f77b4"/>
   </g>
   <g id="patch_92">
    <path d="M 204.562526 275.227565 
L 206.178622 275.227565 
L 206.178622 68.955565 
L 204.562526 68.955565 
z
" clip-path="url(#p303b556291)" style="fill: #1f77b4"/>
   </g>
   <g id="patch_93">
    <path d="M 206.178622 275.227565 
L 207.794718 275.227565 
L 207.794718 28.827565 
L 206.178622 28.827565 
z
" clip-path="url(#p303b556291)" style="fill: #1f77b4"/>
   </g>
   <g id="patch_94">
    <path d="M 207.794718 275.227565 
L 209.410814 275.227565 
L 209.410814 57.691565 
L 207.794718 57.691565 
z
" clip-path="url(#p303b556291)" style="fill: #1f77b4"/>
   </g>
   <g id="patch_95">
    <path d="M 209.410814 275.227565 
L 211.02691 275.227565 
L 211.02691 47.835565 
L 209.410814 47.835565 
z
" clip-path="url(#p303b556291)" style="fill: #1f77b4"/>
   </g>
   <g id="patch_96">
    <path d="M 211.02691 275.227565 
L 212.643006 275.227565 
L 212.643006 54.171565 
L 211.02691 54.171565 
z
" clip-path="url(#p303b556291)" style="fill: #1f77b4"/>
   </g>
   <g id="patch_97">
    <path d="M 212.643006 275.227565 
L 214.259102 275.227565 
L 214.259102 80.219565 
L 212.643006 80.219565 
z
" clip-path="url(#p303b556291)" style="fill: #1f77b4"/>
   </g>
   <g id="patch_98">
    <path d="M 214.259102 275.227565 
L 215.875198 275.227565 
L 215.875198 55.579565 
L 214.259102 55.579565 
z
" clip-path="url(#p303b556291)" style="fill: #1f77b4"/>
   </g>
   <g id="patch_99">
    <path d="M 215.875198 275.227565 
L 217.491293 275.227565 
L 217.491293 55.579565 
L 215.875198 55.579565 
z
" clip-path="url(#p303b556291)" style="fill: #1f77b4"/>
   </g>
   <g id="patch_100">
    <path d="M 217.491293 275.227565 
L 219.107389 275.227565 
L 219.107389 70.363565 
L 217.491293 70.363565 
z
" clip-path="url(#p303b556291)" style="fill: #1f77b4"/>
   </g>
   <g id="patch_101">
    <path d="M 219.107389 275.227565 
L 220.723485 275.227565 
L 220.723485 47.835565 
L 219.107389 47.835565 
z
" clip-path="url(#p303b556291)" style="fill: #1f77b4"/>
   </g>
   <g id="patch_102">
    <path d="M 220.723485 275.227565 
L 222.339581 275.227565 
L 222.339581 56.987565 
L 220.723485 56.987565 
z
" clip-path="url(#p303b556291)" style="fill: #1f77b4"/>
   </g>
   <g id="patch_103">
    <path d="M 222.339581 275.227565 
L 223.955677 275.227565 
L 223.955677 56.283565 
L 222.339581 56.283565 
z
" clip-path="url(#p303b556291)" style="fill: #1f77b4"/>
   </g>
   <g id="patch_104">
    <path d="M 223.955677 275.227565 
L 225.571773 275.227565 
L 225.571773 67.547565 
L 223.955677 67.547565 
z
" clip-path="url(#p303b556291)" style="fill: #1f77b4"/>
   </g>
   <g id="patch_105">
    <path d="M 225.571773 275.227565 
L 227.187869 275.227565 
L 227.187869 48.539565 
L 225.571773 48.539565 
z
" clip-path="url(#p303b556291)" style="fill: #1f77b4"/>
   </g>
   <g id="patch_106">
    <path d="M 227.187869 275.227565 
L 228.803964 275.227565 
L 228.803964 56.283565 
L 227.187869 56.283565 
z
" clip-path="url(#p303b556291)" style="fill: #1f77b4"/>
   </g>
   <g id="patch_107">
    <path d="M 228.803964 275.227565 
L 230.42006 275.227565 
L 230.42006 51.355565 
L 228.803964 51.355565 
z
" clip-path="url(#p303b556291)" style="fill: #1f77b4"/>
   </g>
   <g id="patch_108">
    <path d="M 230.42006 275.227565 
L 232.036156 275.227565 
L 232.036156 53.467565 
L 230.42006 53.467565 
z
" clip-path="url(#p303b556291)" style="fill: #1f77b4"/>
   </g>
   <g id="patch_109">
    <path d="M 232.036156 275.227565 
L 233.652252 275.227565 
L 233.652252 60.507565 
L 232.036156 60.507565 
z
" clip-path="url(#p303b556291)" style="fill: #1f77b4"/>
   </g>
   <g id="patch_110">
    <path d="M 233.652252 275.227565 
L 235.268348 275.227565 
L 235.268348 56.283565 
L 233.652252 56.283565 
z
" clip-path="url(#p303b556291)" style="fill: #1f77b4"/>
   </g>
   <g id="patch_111">
    <path d="M 235.268348 275.227565 
L 236.884444 275.227565 
L 236.884444 73.883565 
L 235.268348 73.883565 
z
" clip-path="url(#p303b556291)" style="fill: #1f77b4"/>
   </g>
   <g id="patch_112">
    <path d="M 236.884444 275.227565 
L 238.50054 275.227565 
L 238.50054 39.387565 
L 236.884444 39.387565 
z
" clip-path="url(#p303b556291)" style="fill: #1f77b4"/>
   </g>
   <g id="patch_113">
    <path d="M 238.50054 275.227565 
L 240.116636 275.227565 
L 240.116636 53.467565 
L 238.50054 53.467565 
z
" clip-path="url(#p303b556291)" style="fill: #1f77b4"/>
   </g>
   <g id="patch_114">
    <path d="M 240.116636 275.227565 
L 241.732731 275.227565 
L 241.732731 69.659565 
L 240.116636 69.659565 
z
" clip-path="url(#p303b556291)" style="fill: #1f77b4"/>
   </g>
   <g id="patch_115">
    <path d="M 241.732731 275.227565 
L 243.348827 275.227565 
L 243.348827 49.243565 
L 241.732731 49.243565 
z
" clip-path="url(#p303b556291)" style="fill: #1f77b4"/>
   </g>
   <g id="patch_116">
    <path d="M 243.348827 275.227565 
L 244.964923 275.227565 
L 244.964923 66.843565 
L 243.348827 66.843565 
z
" clip-path="url(#p303b556291)" style="fill: #1f77b4"/>
   </g>
   <g id="patch_117">
    <path d="M 244.964923 275.227565 
L 246.581019 275.227565 
L 246.581019 54.875565 
L 244.964923 54.875565 
z
" clip-path="url(#p303b556291)" style="fill: #1f77b4"/>
   </g>
   <g id="patch_118">
    <path d="M 246.581019 275.227565 
L 248.197115 275.227565 
L 248.197115 83.035565 
L 246.581019 83.035565 
z
" clip-path="url(#p303b556291)" style="fill: #1f77b4"/>
   </g>
   <g id="patch_119">
    <path d="M 248.197115 275.227565 
L 249.813211 275.227565 
L 249.813211 50.651565 
L 248.197115 50.651565 
z
" clip-path="url(#p303b556291)" style="fill: #1f77b4"/>
   </g>
   <g id="patch_120">
    <path d="M 249.813211 275.227565 
L 251.429307 275.227565 
L 251.429307 66.139565 
L 249.813211 66.139565 
z
" clip-path="url(#p303b556291)" style="fill: #1f77b4"/>
   </g>
   <g id="patch_121">
    <path d="M 251.429307 275.227565 
L 253.045403 275.227565 
L 253.045403 53.467565 
L 251.429307 53.467565 
z
" clip-path="url(#p303b556291)" style="fill: #1f77b4"/>
   </g>
   <g id="patch_122">
    <path d="M 253.045403 275.227565 
L 254.661498 275.227565 
L 254.661498 35.867565 
L 253.045403 35.867565 
z
" clip-path="url(#p303b556291)" style="fill: #1f77b4"/>
   </g>
   <g id="patch_123">
    <path d="M 254.661498 275.227565 
L 256.277594 275.227565 
L 256.277594 52.763565 
L 254.661498 52.763565 
z
" clip-path="url(#p303b556291)" style="fill: #1f77b4"/>
   </g>
   <g id="patch_124">
    <path d="M 256.277594 275.227565 
L 257.89369 275.227565 
L 257.89369 48.539565 
L 256.277594 48.539565 
z
" clip-path="url(#p303b556291)" style="fill: #1f77b4"/>
   </g>
   <g id="patch_125">
    <path d="M 257.89369 275.227565 
L 259.509786 275.227565 
L 259.509786 76.699565 
L 257.89369 76.699565 
z
" clip-path="url(#p303b556291)" style="fill: #1f77b4"/>
   </g>
   <g id="patch_126">
    <path d="M 259.509786 275.227565 
L 261.125882 275.227565 
L 261.125882 63.323565 
L 259.509786 63.323565 
z
" clip-path="url(#p303b556291)" style="fill: #1f77b4"/>
   </g>
   <g id="patch_127">
    <path d="M 261.125882 275.227565 
L 262.741978 275.227565 
L 262.741978 72.475565 
L 261.125882 72.475565 
z
" clip-path="url(#p303b556291)" style="fill: #1f77b4"/>
   </g>
   <g id="patch_128">
    <path d="M 262.741978 275.227565 
L 264.358074 275.227565 
L 264.358074 89.371565 
L 262.741978 89.371565 
z
" clip-path="url(#p303b556291)" style="fill: #1f77b4"/>
   </g>
   <g id="patch_129">
    <path d="M 264.358074 275.227565 
L 265.974169 275.227565 
L 265.974169 88.667565 
L 264.358074 88.667565 
z
" clip-path="url(#p303b556291)" style="fill: #1f77b4"/>
   </g>
   <g id="patch_130">
    <path d="M 265.974169 275.227565 
L 267.590265 275.227565 
L 267.590265 62.619565 
L 265.974169 62.619565 
z
" clip-path="url(#p303b556291)" style="fill: #1f77b4"/>
   </g>
   <g id="patch_131">
    <path d="M 267.590265 275.227565 
L 269.206361 275.227565 
L 269.206361 71.771565 
L 267.590265 71.771565 
z
" clip-path="url(#p303b556291)" style="fill: #1f77b4"/>
   </g>
   <g id="patch_132">
    <path d="M 269.206361 275.227565 
L 270.822457 275.227565 
L 270.822457 84.443565 
L 269.206361 84.443565 
z
" clip-path="url(#p303b556291)" style="fill: #1f77b4"/>
   </g>
   <g id="patch_133">
    <path d="M 270.822457 275.227565 
L 272.438553 275.227565 
L 272.438553 92.891565 
L 270.822457 92.891565 
z
" clip-path="url(#p303b556291)" style="fill: #1f77b4"/>
   </g>
   <g id="patch_134">
    <path d="M 272.438553 275.227565 
L 274.054649 275.227565 
L 274.054649 71.771565 
L 272.438553 71.771565 
z
" clip-path="url(#p303b556291)" style="fill: #1f77b4"/>
   </g>
   <g id="patch_135">
    <path d="M 274.054649 275.227565 
L 275.670745 275.227565 
L 275.670745 104.859565 
L 274.054649 104.859565 
z
" clip-path="url(#p303b556291)" style="fill: #1f77b4"/>
   </g>
   <g id="patch_136">
    <path d="M 275.670745 275.227565 
L 277.286841 275.227565 
L 277.286841 80.219565 
L 275.670745 80.219565 
z
" clip-path="url(#p303b556291)" style="fill: #1f77b4"/>
   </g>
   <g id="patch_137">
    <path d="M 277.286841 275.227565 
L 278.902936 275.227565 
L 278.902936 91.483565 
L 277.286841 91.483565 
z
" clip-path="url(#p303b556291)" style="fill: #1f77b4"/>
   </g>
   <g id="patch_138">
    <path d="M 278.902936 275.227565 
L 280.519032 275.227565 
L 280.519032 85.851565 
L 278.902936 85.851565 
z
" clip-path="url(#p303b556291)" style="fill: #1f77b4"/>
   </g>
   <g id="patch_139">
    <path d="M 280.519032 275.227565 
L 282.135128 275.227565 
L 282.135128 75.291565 
L 280.519032 75.291565 
z
" clip-path="url(#p303b556291)" style="fill: #1f77b4"/>
   </g>
   <g id="patch_140">
    <path d="M 282.135128 275.227565 
L 283.751224 275.227565 
L 283.751224 87.963565 
L 282.135128 87.963565 
z
" clip-path="url(#p303b556291)" style="fill: #1f77b4"/>
   </g>
   <g id="patch_141">
    <path d="M 283.751224 275.227565 
L 285.36732 275.227565 
L 285.36732 107.675565 
L 283.751224 107.675565 
z
" clip-path="url(#p303b556291)" style="fill: #1f77b4"/>
   </g>
   <g id="patch_142">
    <path d="M 285.36732 275.227565 
L 286.983416 275.227565 
L 286.983416 104.859565 
L 285.36732 104.859565 
z
" clip-path="url(#p303b556291)" style="fill: #1f77b4"/>
   </g>
   <g id="patch_143">
    <path d="M 286.983416 275.227565 
L 288.599512 275.227565 
L 288.599512 102.043565 
L 286.983416 102.043565 
z
" clip-path="url(#p303b556291)" style="fill: #1f77b4"/>
   </g>
   <g id="patch_144">
    <path d="M 288.599512 275.227565 
L 290.215608 275.227565 
L 290.215608 104.155565 
L 288.599512 104.155565 
z
" clip-path="url(#p303b556291)" style="fill: #1f77b4"/>
   </g>
   <g id="patch_145">
    <path d="M 290.215608 275.227565 
L 291.831703 275.227565 
L 291.831703 102.043565 
L 290.215608 102.043565 
z
" clip-path="url(#p303b556291)" style="fill: #1f77b4"/>
   </g>
   <g id="patch_146">
    <path d="M 291.831703 275.227565 
L 293.447799 275.227565 
L 293.447799 98.523565 
L 291.831703 98.523565 
z
" clip-path="url(#p303b556291)" style="fill: #1f77b4"/>
   </g>
   <g id="patch_147">
    <path d="M 293.447799 275.227565 
L 295.063895 275.227565 
L 295.063895 105.563565 
L 293.447799 105.563565 
z
" clip-path="url(#p303b556291)" style="fill: #1f77b4"/>
   </g>
   <g id="patch_148">
    <path d="M 295.063895 275.227565 
L 296.679991 275.227565 
L 296.679991 117.531565 
L 295.063895 117.531565 
z
" clip-path="url(#p303b556291)" style="fill: #1f77b4"/>
   </g>
   <g id="patch_149">
    <path d="M 296.679991 275.227565 
L 298.296087 275.227565 
L 298.296087 102.747565 
L 296.679991 102.747565 
z
" clip-path="url(#p303b556291)" style="fill: #1f77b4"/>
   </g>
   <g id="patch_150">
    <path d="M 298.296087 275.227565 
L 299.912183 275.227565 
L 299.912183 99.931565 
L 298.296087 99.931565 
z
" clip-path="url(#p303b556291)" style="fill: #1f77b4"/>
   </g>
   <g id="patch_151">
    <path d="M 299.912183 275.227565 
L 301.528279 275.227565 
L 301.528279 122.459565 
L 299.912183 122.459565 
z
" clip-path="url(#p303b556291)" style="fill: #1f77b4"/>
   </g>
   <g id="patch_152">
    <path d="M 301.528279 275.227565 
L 303.144374 275.227565 
L 303.144374 144.283565 
L 301.528279 144.283565 
z
" clip-path="url(#p303b556291)" style="fill: #1f77b4"/>
   </g>
   <g id="patch_153">
    <path d="M 303.144374 275.227565 
L 304.76047 275.227565 
L 304.76047 116.123565 
L 303.144374 116.123565 
z
" clip-path="url(#p303b556291)" style="fill: #1f77b4"/>
   </g>
   <g id="patch_154">
    <path d="M 304.76047 275.227565 
L 306.376566 275.227565 
L 306.376566 124.571565 
L 304.76047 124.571565 
z
" clip-path="url(#p303b556291)" style="fill: #1f77b4"/>
   </g>
   <g id="patch_155">
    <path d="M 306.376566 275.227565 
L 307.992662 275.227565 
L 307.992662 109.083565 
L 306.376566 109.083565 
z
" clip-path="url(#p303b556291)" style="fill: #1f77b4"/>
   </g>
   <g id="patch_156">
    <path d="M 307.992662 275.227565 
L 309.608758 275.227565 
L 309.608758 146.395565 
L 307.992662 146.395565 
z
" clip-path="url(#p303b556291)" style="fill: #1f77b4"/>
   </g>
   <g id="patch_157">
    <path d="M 309.608758 275.227565 
L 311.224854 275.227565 
L 311.224854 144.987565 
L 309.608758 144.987565 
z
" clip-path="url(#p303b556291)" style="fill: #1f77b4"/>
   </g>
   <g id="patch_158">
    <path d="M 311.224854 275.227565 
L 312.84095 275.227565 
L 312.84095 114.715565 
L 311.224854 114.715565 
z
" clip-path="url(#p303b556291)" style="fill: #1f77b4"/>
   </g>
   <g id="patch_159">
    <path d="M 312.84095 275.227565 
L 314.457046 275.227565 
L 314.457046 123.867565 
L 312.84095 123.867565 
z
" clip-path="url(#p303b556291)" style="fill: #1f77b4"/>
   </g>
   <g id="patch_160">
    <path d="M 314.457046 275.227565 
L 316.073141 275.227565 
L 316.073141 127.387565 
L 314.457046 127.387565 
z
" clip-path="url(#p303b556291)" style="fill: #1f77b4"/>
   </g>
   <g id="patch_161">
    <path d="M 316.073141 275.227565 
L 317.689237 275.227565 
L 317.689237 128.091565 
L 316.073141 128.091565 
z
" clip-path="url(#p303b556291)" style="fill: #1f77b4"/>
   </g>
   <g id="patch_162">
    <path d="M 317.689237 275.227565 
L 319.305333 275.227565 
L 319.305333 125.979565 
L 317.689237 125.979565 
z
" clip-path="url(#p303b556291)" style="fill: #1f77b4"/>
   </g>
   <g id="patch_163">
    <path d="M 319.305333 275.227565 
L 320.921429 275.227565 
L 320.921429 146.395565 
L 319.305333 146.395565 
z
" clip-path="url(#p303b556291)" style="fill: #1f77b4"/>
   </g>
   <g id="patch_164">
    <path d="M 320.921429 275.227565 
L 322.537525 275.227565 
L 322.537525 157.659565 
L 320.921429 157.659565 
z
" clip-path="url(#p303b556291)" style="fill: #1f77b4"/>
   </g>
   <g id="patch_165">
    <path d="M 322.537525 275.227565 
L 324.153621 275.227565 
L 324.153621 146.395565 
L 322.537525 146.395565 
z
" clip-path="url(#p303b556291)" style="fill: #1f77b4"/>
   </g>
   <g id="patch_166">
    <path d="M 324.153621 275.227565 
L 325.769717 275.227565 
L 325.769717 167.515565 
L 324.153621 167.515565 
z
" clip-path="url(#p303b556291)" style="fill: #1f77b4"/>
   </g>
   <g id="patch_167">
    <path d="M 325.769717 275.227565 
L 327.385813 275.227565 
L 327.385813 159.771565 
L 325.769717 159.771565 
z
" clip-path="url(#p303b556291)" style="fill: #1f77b4"/>
   </g>
   <g id="patch_168">
    <path d="M 327.385813 275.227565 
L 329.001908 275.227565 
L 329.001908 159.771565 
L 327.385813 159.771565 
z
" clip-path="url(#p303b556291)" style="fill: #1f77b4"/>
   </g>
   <g id="patch_169">
    <path d="M 329.001908 275.227565 
L 330.618004 275.227565 
L 330.618004 154.843565 
L 329.001908 154.843565 
z
" clip-path="url(#p303b556291)" style="fill: #1f77b4"/>
   </g>
   <g id="patch_170">
    <path d="M 330.618004 275.227565 
L 332.2341 275.227565 
L 332.2341 171.035565 
L 330.618004 171.035565 
z
" clip-path="url(#p303b556291)" style="fill: #1f77b4"/>
   </g>
   <g id="patch_171">
    <path d="M 332.2341 275.227565 
L 333.850196 275.227565 
L 333.850196 172.443565 
L 332.2341 172.443565 
z
" clip-path="url(#p303b556291)" style="fill: #1f77b4"/>
   </g>
   <g id="patch_172">
    <path d="M 333.850196 275.227565 
L 335.466292 275.227565 
L 335.466292 171.035565 
L 333.850196 171.035565 
z
" clip-path="url(#p303b556291)" style="fill: #1f77b4"/>
   </g>
   <g id="patch_173">
    <path d="M 335.466292 275.227565 
L 337.082388 275.227565 
L 337.082388 180.187565 
L 335.466292 180.187565 
z
" clip-path="url(#p303b556291)" style="fill: #1f77b4"/>
   </g>
   <g id="patch_174">
    <path d="M 337.082388 275.227565 
L 338.698484 275.227565 
L 338.698484 197.787565 
L 337.082388 197.787565 
z
" clip-path="url(#p303b556291)" style="fill: #1f77b4"/>
   </g>
   <g id="patch_175">
    <path d="M 338.698484 275.227565 
L 340.314579 275.227565 
L 340.314579 192.859565 
L 338.698484 192.859565 
z
" clip-path="url(#p303b556291)" style="fill: #1f77b4"/>
   </g>
   <g id="patch_176">
    <path d="M 340.314579 275.227565 
L 341.930675 275.227565 
L 341.930675 187.931565 
L 340.314579 187.931565 
z
" clip-path="url(#p303b556291)" style="fill: #1f77b4"/>
   </g>
   <g id="patch_177">
    <path d="M 341.930675 275.227565 
L 343.546771 275.227565 
L 343.546771 183.003565 
L 341.930675 183.003565 
z
" clip-path="url(#p303b556291)" style="fill: #1f77b4"/>
   </g>
   <g id="patch_178">
    <path d="M 343.546771 275.227565 
L 345.162867 275.227565 
L 345.162867 184.411565 
L 343.546771 184.411565 
z
" clip-path="url(#p303b556291)" style="fill: #1f77b4"/>
   </g>
   <g id="patch_179">
    <path d="M 345.162867 275.227565 
L 346.778963 275.227565 
L 346.778963 196.379565 
L 345.162867 196.379565 
z
" clip-path="url(#p303b556291)" style="fill: #1f77b4"/>
   </g>
   <g id="patch_180">
    <path d="M 346.778963 275.227565 
L 348.395059 275.227565 
L 348.395059 190.747565 
L 346.778963 190.747565 
z
" clip-path="url(#p303b556291)" style="fill: #1f77b4"/>
   </g>
   <g id="patch_181">
    <path d="M 348.395059 275.227565 
L 350.011155 275.227565 
L 350.011155 197.083565 
L 348.395059 197.083565 
z
" clip-path="url(#p303b556291)" style="fill: #1f77b4"/>
   </g>
   <g id="patch_182">
    <path d="M 350.011155 275.227565 
L 351.627251 275.227565 
L 351.627251 215.387565 
L 350.011155 215.387565 
z
" clip-path="url(#p303b556291)" style="fill: #1f77b4"/>
   </g>
   <g id="patch_183">
    <path d="M 351.627251 275.227565 
L 353.243346 275.227565 
L 353.243346 193.563565 
L 351.627251 193.563565 
z
" clip-path="url(#p303b556291)" style="fill: #1f77b4"/>
   </g>
   <g id="patch_184">
    <path d="M 353.243346 275.227565 
L 354.859442 275.227565 
L 354.859442 202.715565 
L 353.243346 202.715565 
z
" clip-path="url(#p303b556291)" style="fill: #1f77b4"/>
   </g>
   <g id="patch_185">
    <path d="M 354.859442 275.227565 
L 356.475538 275.227565 
L 356.475538 217.499565 
L 354.859442 217.499565 
z
" clip-path="url(#p303b556291)" style="fill: #1f77b4"/>
   </g>
   <g id="patch_186">
    <path d="M 356.475538 275.227565 
L 358.091634 275.227565 
L 358.091634 224.539565 
L 356.475538 224.539565 
z
" clip-path="url(#p303b556291)" style="fill: #1f77b4"/>
   </g>
   <g id="patch_187">
    <path d="M 358.091634 275.227565 
L 359.70773 275.227565 
L 359.70773 212.571565 
L 358.091634 212.571565 
z
" clip-path="url(#p303b556291)" style="fill: #1f77b4"/>
   </g>
   <g id="patch_188">
    <path d="M 359.70773 275.227565 
L 361.323826 275.227565 
L 361.323826 226.651565 
L 359.70773 226.651565 
z
" clip-path="url(#p303b556291)" style="fill: #1f77b4"/>
   </g>
   <g id="patch_189">
    <path d="M 361.323826 275.227565 
L 362.939922 275.227565 
L 362.939922 225.243565 
L 361.323826 225.243565 
z
" clip-path="url(#p303b556291)" style="fill: #1f77b4"/>
   </g>
   <g id="patch_190">
    <path d="M 362.939922 275.227565 
L 364.556018 275.227565 
L 364.556018 240.027565 
L 362.939922 240.027565 
z
" clip-path="url(#p303b556291)" style="fill: #1f77b4"/>
   </g>
   <g id="patch_191">
    <path d="M 364.556018 275.227565 
L 366.172113 275.227565 
L 366.172113 232.283565 
L 364.556018 232.283565 
z
" clip-path="url(#p303b556291)" style="fill: #1f77b4"/>
   </g>
   <g id="patch_192">
    <path d="M 366.172113 275.227565 
L 367.788209 275.227565 
L 367.788209 235.803565 
L 366.172113 235.803565 
z
" clip-path="url(#p303b556291)" style="fill: #1f77b4"/>
   </g>
   <g id="patch_193">
    <path d="M 367.788209 275.227565 
L 369.404305 275.227565 
L 369.404305 247.067565 
L 367.788209 247.067565 
z
" clip-path="url(#p303b556291)" style="fill: #1f77b4"/>
   </g>
   <g id="patch_194">
    <path d="M 369.404305 275.227565 
L 371.020401 275.227565 
L 371.020401 244.955565 
L 369.404305 244.955565 
z
" clip-path="url(#p303b556291)" style="fill: #1f77b4"/>
   </g>
   <g id="patch_195">
    <path d="M 371.020401 275.227565 
L 372.636497 275.227565 
L 372.636497 254.107565 
L 371.020401 254.107565 
z
" clip-path="url(#p303b556291)" style="fill: #1f77b4"/>
   </g>
   <g id="patch_196">
    <path d="M 372.636497 275.227565 
L 374.252593 275.227565 
L 374.252593 250.587565 
L 372.636497 250.587565 
z
" clip-path="url(#p303b556291)" style="fill: #1f77b4"/>
   </g>
   <g id="patch_197">
    <path d="M 374.252593 275.227565 
L 375.868689 275.227565 
L 375.868689 247.771565 
L 374.252593 247.771565 
z
" clip-path="url(#p303b556291)" style="fill: #1f77b4"/>
   </g>
   <g id="patch_198">
    <path d="M 375.868689 275.227565 
L 377.484784 275.227565 
L 377.484784 254.811565 
L 375.868689 254.811565 
z
" clip-path="url(#p303b556291)" style="fill: #1f77b4"/>
   </g>
   <g id="patch_199">
    <path d="M 377.484784 275.227565 
L 379.10088 275.227565 
L 379.10088 259.739565 
L 377.484784 259.739565 
z
" clip-path="url(#p303b556291)" style="fill: #1f77b4"/>
   </g>
   <g id="patch_200">
    <path d="M 379.10088 275.227565 
L 380.716976 275.227565 
L 380.716976 262.555565 
L 379.10088 262.555565 
z
" clip-path="url(#p303b556291)" style="fill: #1f77b4"/>
   </g>
   <g id="patch_201">
    <path d="M 380.716976 275.227565 
L 382.333072 275.227565 
L 382.333072 266.075565 
L 380.716976 266.075565 
z
" clip-path="url(#p303b556291)" style="fill: #1f77b4"/>
   </g>
   <g id="patch_202">
    <path d="M 382.333072 275.227565 
L 383.949168 275.227565 
L 383.949168 269.595565 
L 382.333072 269.595565 
z
" clip-path="url(#p303b556291)" style="fill: #1f77b4"/>
   </g>
   <g id="matplotlib.axis_1">
    <g id="xtick_1">
     <g id="line2d_1">
      <defs>
       <path id="mdf329b7432" d="M 0 0 
L 0 3.5 
" style="stroke: #000000; stroke-width: 0.8"/>
      </defs>
      <g>
       <use xlink:href="#mdf329b7432" x="60.013977" y="275.227565" style="stroke: #000000; stroke-width: 0.8"/>
      </g>
     </g>
     <g id="text_1">
      <!-- 0.0 -->
      <g transform="translate(52.062415 289.826002)scale(0.1 -0.1)">
       <defs>
        <path id="DejaVuSans-30" d="M 2034 4250 
Q 1547 4250 1301 3770 
Q 1056 3291 1056 2328 
Q 1056 1369 1301 889 
Q 1547 409 2034 409 
Q 2525 409 2770 889 
Q 3016 1369 3016 2328 
Q 3016 3291 2770 3770 
Q 2525 4250 2034 4250 
z
M 2034 4750 
Q 2819 4750 3233 4129 
Q 3647 3509 3647 2328 
Q 3647 1150 3233 529 
Q 2819 -91 2034 -91 
Q 1250 -91 836 529 
Q 422 1150 422 2328 
Q 422 3509 836 4129 
Q 1250 4750 2034 4750 
z
" transform="scale(0.015625)"/>
        <path id="DejaVuSans-2e" d="M 684 794 
L 1344 794 
L 1344 0 
L 684 0 
L 684 794 
z
" transform="scale(0.015625)"/>
       </defs>
       <use xlink:href="#DejaVuSans-30"/>
       <use xlink:href="#DejaVuSans-2e" x="63.623047"/>
       <use xlink:href="#DejaVuSans-30" x="95.410156"/>
      </g>
     </g>
    </g>
    <g id="xtick_2">
     <g id="line2d_2">
      <g>
       <use xlink:href="#mdf329b7432" x="101.350278" y="275.227565" style="stroke: #000000; stroke-width: 0.8"/>
      </g>
     </g>
     <g id="text_2">
      <!-- 0.2 -->
      <g transform="translate(93.398715 289.826002)scale(0.1 -0.1)">
       <defs>
        <path id="DejaVuSans-32" d="M 1228 531 
L 3431 531 
L 3431 0 
L 469 0 
L 469 531 
Q 828 903 1448 1529 
Q 2069 2156 2228 2338 
Q 2531 2678 2651 2914 
Q 2772 3150 2772 3378 
Q 2772 3750 2511 3984 
Q 2250 4219 1831 4219 
Q 1534 4219 1204 4116 
Q 875 4013 500 3803 
L 500 4441 
Q 881 4594 1212 4672 
Q 1544 4750 1819 4750 
Q 2544 4750 2975 4387 
Q 3406 4025 3406 3419 
Q 3406 3131 3298 2873 
Q 3191 2616 2906 2266 
Q 2828 2175 2409 1742 
Q 1991 1309 1228 531 
z
" transform="scale(0.015625)"/>
       </defs>
       <use xlink:href="#DejaVuSans-30"/>
       <use xlink:href="#DejaVuSans-2e" x="63.623047"/>
       <use xlink:href="#DejaVuSans-32" x="95.410156"/>
      </g>
     </g>
    </g>
    <g id="xtick_3">
     <g id="line2d_3">
      <g>
       <use xlink:href="#mdf329b7432" x="142.686578" y="275.227565" style="stroke: #000000; stroke-width: 0.8"/>
      </g>
     </g>
     <g id="text_3">
      <!-- 0.4 -->
      <g transform="translate(134.735016 289.826002)scale(0.1 -0.1)">
       <defs>
        <path id="DejaVuSans-34" d="M 2419 4116 
L 825 1625 
L 2419 1625 
L 2419 4116 
z
M 2253 4666 
L 3047 4666 
L 3047 1625 
L 3713 1625 
L 3713 1100 
L 3047 1100 
L 3047 0 
L 2419 0 
L 2419 1100 
L 313 1100 
L 313 1709 
L 2253 4666 
z
" transform="scale(0.015625)"/>
       </defs>
       <use xlink:href="#DejaVuSans-30"/>
       <use xlink:href="#DejaVuSans-2e" x="63.623047"/>
       <use xlink:href="#DejaVuSans-34" x="95.410156"/>
      </g>
     </g>
    </g>
    <g id="xtick_4">
     <g id="line2d_4">
      <g>
       <use xlink:href="#mdf329b7432" x="184.022879" y="275.227565" style="stroke: #000000; stroke-width: 0.8"/>
      </g>
     </g>
     <g id="text_4">
      <!-- 0.6 -->
      <g transform="translate(176.071316 289.826002)scale(0.1 -0.1)">
       <defs>
        <path id="DejaVuSans-36" d="M 2113 2584 
Q 1688 2584 1439 2293 
Q 1191 2003 1191 1497 
Q 1191 994 1439 701 
Q 1688 409 2113 409 
Q 2538 409 2786 701 
Q 3034 994 3034 1497 
Q 3034 2003 2786 2293 
Q 2538 2584 2113 2584 
z
M 3366 4563 
L 3366 3988 
Q 3128 4100 2886 4159 
Q 2644 4219 2406 4219 
Q 1781 4219 1451 3797 
Q 1122 3375 1075 2522 
Q 1259 2794 1537 2939 
Q 1816 3084 2150 3084 
Q 2853 3084 3261 2657 
Q 3669 2231 3669 1497 
Q 3669 778 3244 343 
Q 2819 -91 2113 -91 
Q 1303 -91 875 529 
Q 447 1150 447 2328 
Q 447 3434 972 4092 
Q 1497 4750 2381 4750 
Q 2619 4750 2861 4703 
Q 3103 4656 3366 4563 
z
" transform="scale(0.015625)"/>
       </defs>
       <use xlink:href="#DejaVuSans-30"/>
       <use xlink:href="#DejaVuSans-2e" x="63.623047"/>
       <use xlink:href="#DejaVuSans-36" x="95.410156"/>
      </g>
     </g>
    </g>
    <g id="xtick_5">
     <g id="line2d_5">
      <g>
       <use xlink:href="#mdf329b7432" x="225.35918" y="275.227565" style="stroke: #000000; stroke-width: 0.8"/>
      </g>
     </g>
     <g id="text_5">
      <!-- 0.8 -->
      <g transform="translate(217.407617 289.826002)scale(0.1 -0.1)">
       <defs>
        <path id="DejaVuSans-38" d="M 2034 2216 
Q 1584 2216 1326 1975 
Q 1069 1734 1069 1313 
Q 1069 891 1326 650 
Q 1584 409 2034 409 
Q 2484 409 2743 651 
Q 3003 894 3003 1313 
Q 3003 1734 2745 1975 
Q 2488 2216 2034 2216 
z
M 1403 2484 
Q 997 2584 770 2862 
Q 544 3141 544 3541 
Q 544 4100 942 4425 
Q 1341 4750 2034 4750 
Q 2731 4750 3128 4425 
Q 3525 4100 3525 3541 
Q 3525 3141 3298 2862 
Q 3072 2584 2669 2484 
Q 3125 2378 3379 2068 
Q 3634 1759 3634 1313 
Q 3634 634 3220 271 
Q 2806 -91 2034 -91 
Q 1263 -91 848 271 
Q 434 634 434 1313 
Q 434 1759 690 2068 
Q 947 2378 1403 2484 
z
M 1172 3481 
Q 1172 3119 1398 2916 
Q 1625 2713 2034 2713 
Q 2441 2713 2670 2916 
Q 2900 3119 2900 3481 
Q 2900 3844 2670 4047 
Q 2441 4250 2034 4250 
Q 1625 4250 1398 4047 
Q 1172 3844 1172 3481 
z
" transform="scale(0.015625)"/>
       </defs>
       <use xlink:href="#DejaVuSans-30"/>
       <use xlink:href="#DejaVuSans-2e" x="63.623047"/>
       <use xlink:href="#DejaVuSans-38" x="95.410156"/>
      </g>
     </g>
    </g>
    <g id="xtick_6">
     <g id="line2d_6">
      <g>
       <use xlink:href="#mdf329b7432" x="266.69548" y="275.227565" style="stroke: #000000; stroke-width: 0.8"/>
      </g>
     </g>
     <g id="text_6">
      <!-- 1.0 -->
      <g transform="translate(258.743918 289.826002)scale(0.1 -0.1)">
       <defs>
        <path id="DejaVuSans-31" d="M 794 531 
L 1825 531 
L 1825 4091 
L 703 3866 
L 703 4441 
L 1819 4666 
L 2450 4666 
L 2450 531 
L 3481 531 
L 3481 0 
L 794 0 
L 794 531 
z
" transform="scale(0.015625)"/>
       </defs>
       <use xlink:href="#DejaVuSans-31"/>
       <use xlink:href="#DejaVuSans-2e" x="63.623047"/>
       <use xlink:href="#DejaVuSans-30" x="95.410156"/>
      </g>
     </g>
    </g>
    <g id="xtick_7">
     <g id="line2d_7">
      <g>
       <use xlink:href="#mdf329b7432" x="308.031781" y="275.227565" style="stroke: #000000; stroke-width: 0.8"/>
      </g>
     </g>
     <g id="text_7">
      <!-- 1.2 -->
      <g transform="translate(300.080218 289.826002)scale(0.1 -0.1)">
       <use xlink:href="#DejaVuSans-31"/>
       <use xlink:href="#DejaVuSans-2e" x="63.623047"/>
       <use xlink:href="#DejaVuSans-32" x="95.410156"/>
      </g>
     </g>
    </g>
    <g id="xtick_8">
     <g id="line2d_8">
      <g>
       <use xlink:href="#mdf329b7432" x="349.368081" y="275.227565" style="stroke: #000000; stroke-width: 0.8"/>
      </g>
     </g>
     <g id="text_8">
      <!-- 1.4 -->
      <g transform="translate(341.416519 289.826002)scale(0.1 -0.1)">
       <use xlink:href="#DejaVuSans-31"/>
       <use xlink:href="#DejaVuSans-2e" x="63.623047"/>
       <use xlink:href="#DejaVuSans-34" x="95.410156"/>
      </g>
     </g>
    </g>
    <g id="xtick_9">
     <g id="line2d_9">
      <g>
       <use xlink:href="#mdf329b7432" x="390.704382" y="275.227565" style="stroke: #000000; stroke-width: 0.8"/>
      </g>
     </g>
     <g id="text_9">
      <!-- 1.6 -->
      <g transform="translate(382.752819 289.826002)scale(0.1 -0.1)">
       <use xlink:href="#DejaVuSans-31"/>
       <use xlink:href="#DejaVuSans-2e" x="63.623047"/>
       <use xlink:href="#DejaVuSans-36" x="95.410156"/>
      </g>
     </g>
    </g>
    <g id="text_10">
     <!-- Angle with normal (rad) -->
     <g transform="translate(163.023281 303.504127)scale(0.1 -0.1)">
      <defs>
       <path id="DejaVuSans-41" d="M 2188 4044 
L 1331 1722 
L 3047 1722 
L 2188 4044 
z
M 1831 4666 
L 2547 4666 
L 4325 0 
L 3669 0 
L 3244 1197 
L 1141 1197 
L 716 0 
L 50 0 
L 1831 4666 
z
" transform="scale(0.015625)"/>
       <path id="DejaVuSans-6e" d="M 3513 2113 
L 3513 0 
L 2938 0 
L 2938 2094 
Q 2938 2591 2744 2837 
Q 2550 3084 2163 3084 
Q 1697 3084 1428 2787 
Q 1159 2491 1159 1978 
L 1159 0 
L 581 0 
L 581 3500 
L 1159 3500 
L 1159 2956 
Q 1366 3272 1645 3428 
Q 1925 3584 2291 3584 
Q 2894 3584 3203 3211 
Q 3513 2838 3513 2113 
z
" transform="scale(0.015625)"/>
       <path id="DejaVuSans-67" d="M 2906 1791 
Q 2906 2416 2648 2759 
Q 2391 3103 1925 3103 
Q 1463 3103 1205 2759 
Q 947 2416 947 1791 
Q 947 1169 1205 825 
Q 1463 481 1925 481 
Q 2391 481 2648 825 
Q 2906 1169 2906 1791 
z
M 3481 434 
Q 3481 -459 3084 -895 
Q 2688 -1331 1869 -1331 
Q 1566 -1331 1297 -1286 
Q 1028 -1241 775 -1147 
L 775 -588 
Q 1028 -725 1275 -790 
Q 1522 -856 1778 -856 
Q 2344 -856 2625 -561 
Q 2906 -266 2906 331 
L 2906 616 
Q 2728 306 2450 153 
Q 2172 0 1784 0 
Q 1141 0 747 490 
Q 353 981 353 1791 
Q 353 2603 747 3093 
Q 1141 3584 1784 3584 
Q 2172 3584 2450 3431 
Q 2728 3278 2906 2969 
L 2906 3500 
L 3481 3500 
L 3481 434 
z
" transform="scale(0.015625)"/>
       <path id="DejaVuSans-6c" d="M 603 4863 
L 1178 4863 
L 1178 0 
L 603 0 
L 603 4863 
z
" transform="scale(0.015625)"/>
       <path id="DejaVuSans-65" d="M 3597 1894 
L 3597 1613 
L 953 1613 
Q 991 1019 1311 708 
Q 1631 397 2203 397 
Q 2534 397 2845 478 
Q 3156 559 3463 722 
L 3463 178 
Q 3153 47 2828 -22 
Q 2503 -91 2169 -91 
Q 1331 -91 842 396 
Q 353 884 353 1716 
Q 353 2575 817 3079 
Q 1281 3584 2069 3584 
Q 2775 3584 3186 3129 
Q 3597 2675 3597 1894 
z
M 3022 2063 
Q 3016 2534 2758 2815 
Q 2500 3097 2075 3097 
Q 1594 3097 1305 2825 
Q 1016 2553 972 2059 
L 3022 2063 
z
" transform="scale(0.015625)"/>
       <path id="DejaVuSans-20" transform="scale(0.015625)"/>
       <path id="DejaVuSans-77" d="M 269 3500 
L 844 3500 
L 1563 769 
L 2278 3500 
L 2956 3500 
L 3675 769 
L 4391 3500 
L 4966 3500 
L 4050 0 
L 3372 0 
L 2619 2869 
L 1863 0 
L 1184 0 
L 269 3500 
z
" transform="scale(0.015625)"/>
       <path id="DejaVuSans-69" d="M 603 3500 
L 1178 3500 
L 1178 0 
L 603 0 
L 603 3500 
z
M 603 4863 
L 1178 4863 
L 1178 4134 
L 603 4134 
L 603 4863 
z
" transform="scale(0.015625)"/>
       <path id="DejaVuSans-74" d="M 1172 4494 
L 1172 3500 
L 2356 3500 
L 2356 3053 
L 1172 3053 
L 1172 1153 
Q 1172 725 1289 603 
Q 1406 481 1766 481 
L 2356 481 
L 2356 0 
L 1766 0 
Q 1100 0 847 248 
Q 594 497 594 1153 
L 594 3053 
L 172 3053 
L 172 3500 
L 594 3500 
L 594 4494 
L 1172 4494 
z
" transform="scale(0.015625)"/>
       <path id="DejaVuSans-68" d="M 3513 2113 
L 3513 0 
L 2938 0 
L 2938 2094 
Q 2938 2591 2744 2837 
Q 2550 3084 2163 3084 
Q 1697 3084 1428 2787 
Q 1159 2491 1159 1978 
L 1159 0 
L 581 0 
L 581 4863 
L 1159 4863 
L 1159 2956 
Q 1366 3272 1645 3428 
Q 1925 3584 2291 3584 
Q 2894 3584 3203 3211 
Q 3513 2838 3513 2113 
z
" transform="scale(0.015625)"/>
       <path id="DejaVuSans-6f" d="M 1959 3097 
Q 1497 3097 1228 2736 
Q 959 2375 959 1747 
Q 959 1119 1226 758 
Q 1494 397 1959 397 
Q 2419 397 2687 759 
Q 2956 1122 2956 1747 
Q 2956 2369 2687 2733 
Q 2419 3097 1959 3097 
z
M 1959 3584 
Q 2709 3584 3137 3096 
Q 3566 2609 3566 1747 
Q 3566 888 3137 398 
Q 2709 -91 1959 -91 
Q 1206 -91 779 398 
Q 353 888 353 1747 
Q 353 2609 779 3096 
Q 1206 3584 1959 3584 
z
" transform="scale(0.015625)"/>
       <path id="DejaVuSans-72" d="M 2631 2963 
Q 2534 3019 2420 3045 
Q 2306 3072 2169 3072 
Q 1681 3072 1420 2755 
Q 1159 2438 1159 1844 
L 1159 0 
L 581 0 
L 581 3500 
L 1159 3500 
L 1159 2956 
Q 1341 3275 1631 3429 
Q 1922 3584 2338 3584 
Q 2397 3584 2469 3576 
Q 2541 3569 2628 3553 
L 2631 2963 
z
" transform="scale(0.015625)"/>
       <path id="DejaVuSans-6d" d="M 3328 2828 
Q 3544 3216 3844 3400 
Q 4144 3584 4550 3584 
Q 5097 3584 5394 3201 
Q 5691 2819 5691 2113 
L 5691 0 
L 5113 0 
L 5113 2094 
Q 5113 2597 4934 2840 
Q 4756 3084 4391 3084 
Q 3944 3084 3684 2787 
Q 3425 2491 3425 1978 
L 3425 0 
L 2847 0 
L 2847 2094 
Q 2847 2600 2669 2842 
Q 2491 3084 2119 3084 
Q 1678 3084 1418 2786 
Q 1159 2488 1159 1978 
L 1159 0 
L 581 0 
L 581 3500 
L 1159 3500 
L 1159 2956 
Q 1356 3278 1631 3431 
Q 1906 3584 2284 3584 
Q 2666 3584 2933 3390 
Q 3200 3197 3328 2828 
z
" transform="scale(0.015625)"/>
       <path id="DejaVuSans-61" d="M 2194 1759 
Q 1497 1759 1228 1600 
Q 959 1441 959 1056 
Q 959 750 1161 570 
Q 1363 391 1709 391 
Q 2188 391 2477 730 
Q 2766 1069 2766 1631 
L 2766 1759 
L 2194 1759 
z
M 3341 1997 
L 3341 0 
L 2766 0 
L 2766 531 
Q 2569 213 2275 61 
Q 1981 -91 1556 -91 
Q 1019 -91 701 211 
Q 384 513 384 1019 
Q 384 1609 779 1909 
Q 1175 2209 1959 2209 
L 2766 2209 
L 2766 2266 
Q 2766 2663 2505 2880 
Q 2244 3097 1772 3097 
Q 1472 3097 1187 3025 
Q 903 2953 641 2809 
L 641 3341 
Q 956 3463 1253 3523 
Q 1550 3584 1831 3584 
Q 2591 3584 2966 3190 
Q 3341 2797 3341 1997 
z
" transform="scale(0.015625)"/>
       <path id="DejaVuSans-28" d="M 1984 4856 
Q 1566 4138 1362 3434 
Q 1159 2731 1159 2009 
Q 1159 1288 1364 580 
Q 1569 -128 1984 -844 
L 1484 -844 
Q 1016 -109 783 600 
Q 550 1309 550 2009 
Q 550 2706 781 3412 
Q 1013 4119 1484 4856 
L 1984 4856 
z
" transform="scale(0.015625)"/>
       <path id="DejaVuSans-64" d="M 2906 2969 
L 2906 4863 
L 3481 4863 
L 3481 0 
L 2906 0 
L 2906 525 
Q 2725 213 2448 61 
Q 2172 -91 1784 -91 
Q 1150 -91 751 415 
Q 353 922 353 1747 
Q 353 2572 751 3078 
Q 1150 3584 1784 3584 
Q 2172 3584 2448 3432 
Q 2725 3281 2906 2969 
z
M 947 1747 
Q 947 1113 1208 752 
Q 1469 391 1925 391 
Q 2381 391 2643 752 
Q 2906 1113 2906 1747 
Q 2906 2381 2643 2742 
Q 2381 3103 1925 3103 
Q 1469 3103 1208 2742 
Q 947 2381 947 1747 
z
" transform="scale(0.015625)"/>
       <path id="DejaVuSans-29" d="M 513 4856 
L 1013 4856 
Q 1481 4119 1714 3412 
Q 1947 2706 1947 2009 
Q 1947 1309 1714 600 
Q 1481 -109 1013 -844 
L 513 -844 
Q 928 -128 1133 580 
Q 1338 1288 1338 2009 
Q 1338 2731 1133 3434 
Q 928 4138 513 4856 
z
" transform="scale(0.015625)"/>
      </defs>
      <use xlink:href="#DejaVuSans-41"/>
      <use xlink:href="#DejaVuSans-6e" x="68.408203"/>
      <use xlink:href="#DejaVuSans-67" x="131.787109"/>
      <use xlink:href="#DejaVuSans-6c" x="195.263672"/>
      <use xlink:href="#DejaVuSans-65" x="223.046875"/>
      <use xlink:href="#DejaVuSans-20" x="284.570312"/>
      <use xlink:href="#DejaVuSans-77" x="316.357422"/>
      <use xlink:href="#DejaVuSans-69" x="398.144531"/>
      <use xlink:href="#DejaVuSans-74" x="425.927734"/>
      <use xlink:href="#DejaVuSans-68" x="465.136719"/>
      <use xlink:href="#DejaVuSans-20" x="528.515625"/>
      <use xlink:href="#DejaVuSans-6e" x="560.302734"/>
      <use xlink:href="#DejaVuSans-6f" x="623.681641"/>
      <use xlink:href="#DejaVuSans-72" x="684.863281"/>
      <use xlink:href="#DejaVuSans-6d" x="724.226562"/>
      <use xlink:href="#DejaVuSans-61" x="821.638672"/>
      <use xlink:href="#DejaVuSans-6c" x="882.917969"/>
      <use xlink:href="#DejaVuSans-20" x="910.701172"/>
      <use xlink:href="#DejaVuSans-28" x="942.488281"/>
      <use xlink:href="#DejaVuSans-72" x="981.501953"/>
      <use xlink:href="#DejaVuSans-61" x="1022.615234"/>
      <use xlink:href="#DejaVuSans-64" x="1083.894531"/>
      <use xlink:href="#DejaVuSans-29" x="1147.371094"/>
     </g>
    </g>
   </g>
   <g id="matplotlib.axis_2">
    <g id="ytick_1">
     <g id="line2d_10">
      <defs>
       <path id="mfdf75e27bb" d="M 0 0 
L -3.5 0 
" style="stroke: #000000; stroke-width: 0.8"/>
      </defs>
      <g>
       <use xlink:href="#mfdf75e27bb" x="43.78125" y="275.227565" style="stroke: #000000; stroke-width: 0.8"/>
      </g>
     </g>
     <g id="text_11">
      <!-- 0.0 -->
      <g transform="translate(20.878125 279.026783)scale(0.1 -0.1)">
       <use xlink:href="#DejaVuSans-30"/>
       <use xlink:href="#DejaVuSans-2e" x="63.623047"/>
       <use xlink:href="#DejaVuSans-30" x="95.410156"/>
      </g>
     </g>
    </g>
    <g id="ytick_2">
     <g id="line2d_11">
      <g>
       <use xlink:href="#mfdf75e27bb" x="43.78125" y="231.189507" style="stroke: #000000; stroke-width: 0.8"/>
      </g>
     </g>
     <g id="text_12">
      <!-- 0.2 -->
      <g transform="translate(20.878125 234.988726)scale(0.1 -0.1)">
       <use xlink:href="#DejaVuSans-30"/>
       <use xlink:href="#DejaVuSans-2e" x="63.623047"/>
       <use xlink:href="#DejaVuSans-32" x="95.410156"/>
      </g>
     </g>
    </g>
    <g id="ytick_3">
     <g id="line2d_12">
      <g>
       <use xlink:href="#mfdf75e27bb" x="43.78125" y="187.151449" style="stroke: #000000; stroke-width: 0.8"/>
      </g>
     </g>
     <g id="text_13">
      <!-- 0.4 -->
      <g transform="translate(20.878125 190.950668)scale(0.1 -0.1)">
       <use xlink:href="#DejaVuSans-30"/>
       <use xlink:href="#DejaVuSans-2e" x="63.623047"/>
       <use xlink:href="#DejaVuSans-34" x="95.410156"/>
      </g>
     </g>
    </g>
    <g id="ytick_4">
     <g id="line2d_13">
      <g>
       <use xlink:href="#mfdf75e27bb" x="43.78125" y="143.113392" style="stroke: #000000; stroke-width: 0.8"/>
      </g>
     </g>
     <g id="text_14">
      <!-- 0.6 -->
      <g transform="translate(20.878125 146.91261)scale(0.1 -0.1)">
       <use xlink:href="#DejaVuSans-30"/>
       <use xlink:href="#DejaVuSans-2e" x="63.623047"/>
       <use xlink:href="#DejaVuSans-36" x="95.410156"/>
      </g>
     </g>
    </g>
    <g id="ytick_5">
     <g id="line2d_14">
      <g>
       <use xlink:href="#mfdf75e27bb" x="43.78125" y="99.075334" style="stroke: #000000; stroke-width: 0.8"/>
      </g>
     </g>
     <g id="text_15">
      <!-- 0.8 -->
      <g transform="translate(20.878125 102.874553)scale(0.1 -0.1)">
       <use xlink:href="#DejaVuSans-30"/>
       <use xlink:href="#DejaVuSans-2e" x="63.623047"/>
       <use xlink:href="#DejaVuSans-38" x="95.410156"/>
      </g>
     </g>
    </g>
    <g id="ytick_6">
     <g id="line2d_15">
      <g>
       <use xlink:href="#mfdf75e27bb" x="43.78125" y="55.037276" style="stroke: #000000; stroke-width: 0.8"/>
      </g>
     </g>
     <g id="text_16">
      <!-- 1.0 -->
      <g transform="translate(20.878125 58.836495)scale(0.1 -0.1)">
       <use xlink:href="#DejaVuSans-31"/>
       <use xlink:href="#DejaVuSans-2e" x="63.623047"/>
       <use xlink:href="#DejaVuSans-30" x="95.410156"/>
      </g>
     </g>
    </g>
    <g id="ytick_7">
     <g id="line2d_16">
      <g>
       <use xlink:href="#mfdf75e27bb" x="43.78125" y="10.999219" style="stroke: #000000; stroke-width: 0.8"/>
      </g>
     </g>
     <g id="text_17">
      <!-- 1.2 -->
      <g transform="translate(20.878125 14.798438)scale(0.1 -0.1)">
       <use xlink:href="#DejaVuSans-31"/>
       <use xlink:href="#DejaVuSans-2e" x="63.623047"/>
       <use xlink:href="#DejaVuSans-32" x="95.410156"/>
      </g>
     </g>
    </g>
    <g id="text_18">
     <!-- Probability density -->
     <g transform="translate(14.798438 188.522346)rotate(-90)scale(0.1 -0.1)">
      <defs>
       <path id="DejaVuSans-50" d="M 1259 4147 
L 1259 2394 
L 2053 2394 
Q 2494 2394 2734 2622 
Q 2975 2850 2975 3272 
Q 2975 3691 2734 3919 
Q 2494 4147 2053 4147 
L 1259 4147 
z
M 628 4666 
L 2053 4666 
Q 2838 4666 3239 4311 
Q 3641 3956 3641 3272 
Q 3641 2581 3239 2228 
Q 2838 1875 2053 1875 
L 1259 1875 
L 1259 0 
L 628 0 
L 628 4666 
z
" transform="scale(0.015625)"/>
       <path id="DejaVuSans-62" d="M 3116 1747 
Q 3116 2381 2855 2742 
Q 2594 3103 2138 3103 
Q 1681 3103 1420 2742 
Q 1159 2381 1159 1747 
Q 1159 1113 1420 752 
Q 1681 391 2138 391 
Q 2594 391 2855 752 
Q 3116 1113 3116 1747 
z
M 1159 2969 
Q 1341 3281 1617 3432 
Q 1894 3584 2278 3584 
Q 2916 3584 3314 3078 
Q 3713 2572 3713 1747 
Q 3713 922 3314 415 
Q 2916 -91 2278 -91 
Q 1894 -91 1617 61 
Q 1341 213 1159 525 
L 1159 0 
L 581 0 
L 581 4863 
L 1159 4863 
L 1159 2969 
z
" transform="scale(0.015625)"/>
       <path id="DejaVuSans-79" d="M 2059 -325 
Q 1816 -950 1584 -1140 
Q 1353 -1331 966 -1331 
L 506 -1331 
L 506 -850 
L 844 -850 
Q 1081 -850 1212 -737 
Q 1344 -625 1503 -206 
L 1606 56 
L 191 3500 
L 800 3500 
L 1894 763 
L 2988 3500 
L 3597 3500 
L 2059 -325 
z
" transform="scale(0.015625)"/>
       <path id="DejaVuSans-73" d="M 2834 3397 
L 2834 2853 
Q 2591 2978 2328 3040 
Q 2066 3103 1784 3103 
Q 1356 3103 1142 2972 
Q 928 2841 928 2578 
Q 928 2378 1081 2264 
Q 1234 2150 1697 2047 
L 1894 2003 
Q 2506 1872 2764 1633 
Q 3022 1394 3022 966 
Q 3022 478 2636 193 
Q 2250 -91 1575 -91 
Q 1294 -91 989 -36 
Q 684 19 347 128 
L 347 722 
Q 666 556 975 473 
Q 1284 391 1588 391 
Q 1994 391 2212 530 
Q 2431 669 2431 922 
Q 2431 1156 2273 1281 
Q 2116 1406 1581 1522 
L 1381 1569 
Q 847 1681 609 1914 
Q 372 2147 372 2553 
Q 372 3047 722 3315 
Q 1072 3584 1716 3584 
Q 2034 3584 2315 3537 
Q 2597 3491 2834 3397 
z
" transform="scale(0.015625)"/>
      </defs>
      <use xlink:href="#DejaVuSans-50"/>
      <use xlink:href="#DejaVuSans-72" x="58.552734"/>
      <use xlink:href="#DejaVuSans-6f" x="97.416016"/>
      <use xlink:href="#DejaVuSans-62" x="158.597656"/>
      <use xlink:href="#DejaVuSans-61" x="222.074219"/>
      <use xlink:href="#DejaVuSans-62" x="283.353516"/>
      <use xlink:href="#DejaVuSans-69" x="346.830078"/>
      <use xlink:href="#DejaVuSans-6c" x="374.613281"/>
      <use xlink:href="#DejaVuSans-69" x="402.396484"/>
      <use xlink:href="#DejaVuSans-74" x="430.179688"/>
      <use xlink:href="#DejaVuSans-79" x="469.388672"/>
      <use xlink:href="#DejaVuSans-20" x="528.568359"/>
      <use xlink:href="#DejaVuSans-64" x="560.355469"/>
      <use xlink:href="#DejaVuSans-65" x="623.832031"/>
      <use xlink:href="#DejaVuSans-6e" x="685.355469"/>
      <use xlink:href="#DejaVuSans-73" x="748.734375"/>
      <use xlink:href="#DejaVuSans-69" x="800.833984"/>
      <use xlink:href="#DejaVuSans-74" x="828.617188"/>
      <use xlink:href="#DejaVuSans-79" x="867.826172"/>
     </g>
    </g>
   </g>
   <g id="line2d_17">
    <path d="M 60.013977 275.227565 
L 79.837728 233.247263 
L 90.237073 211.744681 
L 99.01152 194.092861 
L 106.811029 178.889247 
L 113.960578 165.432392 
L 120.460169 153.653098 
L 126.63478 142.907374 
L 132.484411 133.162236 
L 138.009063 124.375839 
L 143.208736 116.499604 
L 148.408408 109.025133 
L 153.283101 102.399538 
L 158.157794 96.158433 
L 162.707507 90.692558 
L 167.257221 85.584313 
L 171.481954 81.169831 
L 175.706688 77.079634 
L 179.606442 73.597814 
L 183.506197 70.403095 
L 187.405951 67.500025 
L 190.980726 65.098622 
L 194.555501 62.948637 
L 198.130275 61.052643 
L 201.70505 59.412908 
L 205.279825 58.031394 
L 208.52962 57.000945 
L 211.779415 56.186291 
L 215.029211 55.588237 
L 218.279006 55.207375 
L 221.528801 55.044081 
L 224.778596 55.098517 
L 228.028392 55.370629 
L 231.278187 55.860147 
L 234.527982 56.566588 
L 237.777777 57.489254 
L 241.027573 58.627231 
L 244.602347 60.126342 
L 248.177122 61.88282 
L 251.751897 63.894564 
L 255.326672 66.159167 
L 258.901447 68.673919 
L 262.801201 71.699036 
L 266.700955 75.013957 
L 270.600709 78.613963 
L 274.825443 82.829723 
L 279.050177 87.366994 
L 283.274911 92.218194 
L 287.824624 97.784333 
L 292.374338 103.694357 
L 297.249031 110.395108 
L 302.448703 117.946382 
L 307.648375 125.895758 
L 313.173027 134.755649 
L 319.022659 144.573636 
L 325.19727 155.390461 
L 331.69686 167.237896 
L 338.52143 180.136439 
L 345.995959 194.73698 
L 354.445427 211.744681 
L 364.194813 231.888624 
L 376.869014 258.624762 
L 384.668523 275.227565 
L 384.668523 275.227565 
" clip-path="url(#p303b556291)" style="fill: none; stroke: #ff7f0e; stroke-width: 1.5; stroke-linecap: square"/>
   </g>
   <g id="patch_203">
    <path d="M 43.78125 275.227565 
L 43.78125 9.115565 
" style="fill: none; stroke: #000000; stroke-width: 0.8; stroke-linejoin: miter; stroke-linecap: square"/>
   </g>
   <g id="patch_204">
    <path d="M 400.90125 275.227565 
L 400.90125 9.115565 
" style="fill: none; stroke: #000000; stroke-width: 0.8; stroke-linejoin: miter; stroke-linecap: square"/>
   </g>
   <g id="patch_205">
    <path d="M 43.78125 275.227565 
L 400.90125 275.227565 
" style="fill: none; stroke: #000000; stroke-width: 0.8; stroke-linejoin: miter; stroke-linecap: square"/>
   </g>
   <g id="patch_206">
    <path d="M 43.78125 9.115565 
L 400.90125 9.115565 
" style="fill: none; stroke: #000000; stroke-width: 0.8; stroke-linejoin: miter; stroke-linecap: square"/>
   </g>
  </g>
 </g>
 <defs>
  <clipPath id="p303b556291">
   <rect x="43.78125" y="9.115565" width="357.12" height="266.112"/>
  </clipPath>
 </defs>
</svg>
