<?xml version="1.0" encoding="utf-8" standalone="no"?>
<!DOCTYPE svg PUBLIC "-//W3C//DTD SVG 1.1//EN"
  "http://www.w3.org/Graphics/SVG/1.1/DTD/svg11.dtd">
<svg xmlns:xlink="http://www.w3.org/1999/xlink" width="385.78125pt" height="262.19625pt" viewBox="0 0 385.78125 262.19625" xmlns="http://www.w3.org/2000/svg" version="1.1">
 <metadata>
  <rdf:RDF xmlns:dc="http://purl.org/dc/elements/1.1/" xmlns:cc="http://creativecommons.org/ns#" xmlns:rdf="http://www.w3.org/1999/02/22-rdf-syntax-ns#">
   <cc:Work>
    <dc:type rdf:resource="http://purl.org/dc/dcmitype/StillImage"/>
    <dc:date>2022-08-01T18:47:08.749811</dc:date>
    <dc:format>image/svg+xml</dc:format>
    <dc:creator>
     <cc:Agent>
      <dc:title>Matplotlib v3.5.2, https://matplotlib.org/</dc:title>
     </cc:Agent>
    </dc:creator>
   </cc:Work>
  </rdf:RDF>
 </metadata>
 <defs>
  <style type="text/css">*{stroke-linejoin: round; stroke-linecap: butt}</style>
 </defs>
 <g id="figure_1">
  <g id="patch_1">
   <path d="M 0 262.19625 
L 385.78125 262.19625 
L 385.78125 0 
L 0 0 
L 0 262.19625 
z
" style="fill: none"/>
  </g>
  <g id="axes_1">
   <g id="patch_2">
    <path d="M 43.78125 224.64 
L 378.58125 224.64 
L 378.58125 7.2 
L 43.78125 7.2 
z
" style="fill: #ffffff"/>
   </g>
   <g id="patch_3">
    <path d="M 61.416372 224.64 
L 62.9261 224.64 
L 62.9261 221.816104 
L 61.416372 221.816104 
z
" clip-path="url(#pdf5e58649a)" style="fill: #1f77b4"/>
   </g>
   <g id="patch_4">
    <path d="M 62.9261 224.64 
L 64.435828 224.64 
L 64.435828 220.874805 
L 62.9261 220.874805 
z
" clip-path="url(#pdf5e58649a)" style="fill: #1f77b4"/>
   </g>
   <g id="patch_5">
    <path d="M 64.435828 224.64 
L 65.945555 224.64 
L 65.945555 219.933506 
L 64.435828 219.933506 
z
" clip-path="url(#pdf5e58649a)" style="fill: #1f77b4"/>
   </g>
   <g id="patch_6">
    <path d="M 65.945555 224.64 
L 67.455283 224.64 
L 67.455283 221.345455 
L 65.945555 221.345455 
z
" clip-path="url(#pdf5e58649a)" style="fill: #1f77b4"/>
   </g>
   <g id="patch_7">
    <path d="M 67.455283 224.64 
L 68.965011 224.64 
L 68.965011 219.933506 
L 67.455283 219.933506 
z
" clip-path="url(#pdf5e58649a)" style="fill: #1f77b4"/>
   </g>
   <g id="patch_8">
    <path d="M 68.965011 224.64 
L 70.474738 224.64 
L 70.474738 218.521558 
L 68.965011 218.521558 
z
" clip-path="url(#pdf5e58649a)" style="fill: #1f77b4"/>
   </g>
   <g id="patch_9">
    <path d="M 70.474738 224.64 
L 71.984466 224.64 
L 71.984466 218.050909 
L 70.474738 218.050909 
z
" clip-path="url(#pdf5e58649a)" style="fill: #1f77b4"/>
   </g>
   <g id="patch_10">
    <path d="M 71.984466 224.64 
L 73.494194 224.64 
L 73.494194 217.58026 
L 71.984466 217.58026 
z
" clip-path="url(#pdf5e58649a)" style="fill: #1f77b4"/>
   </g>
   <g id="patch_11">
    <path d="M 73.494194 224.64 
L 75.003921 224.64 
L 75.003921 215.227013 
L 73.494194 215.227013 
z
" clip-path="url(#pdf5e58649a)" style="fill: #1f77b4"/>
   </g>
   <g id="patch_12">
    <path d="M 75.003921 224.64 
L 76.513649 224.64 
L 76.513649 215.697662 
L 75.003921 215.697662 
z
" clip-path="url(#pdf5e58649a)" style="fill: #1f77b4"/>
   </g>
   <g id="patch_13">
    <path d="M 76.513649 224.64 
L 78.023377 224.64 
L 78.023377 213.815065 
L 76.513649 213.815065 
z
" clip-path="url(#pdf5e58649a)" style="fill: #1f77b4"/>
   </g>
   <g id="patch_14">
    <path d="M 78.023377 224.64 
L 79.533104 224.64 
L 79.533104 216.168312 
L 78.023377 216.168312 
z
" clip-path="url(#pdf5e58649a)" style="fill: #1f77b4"/>
   </g>
   <g id="patch_15">
    <path d="M 79.533104 224.64 
L 81.042832 224.64 
L 81.042832 212.403117 
L 79.533104 212.403117 
z
" clip-path="url(#pdf5e58649a)" style="fill: #1f77b4"/>
   </g>
   <g id="patch_16">
    <path d="M 81.042832 224.64 
L 82.55256 224.64 
L 82.55256 213.344416 
L 81.042832 213.344416 
z
" clip-path="url(#pdf5e58649a)" style="fill: #1f77b4"/>
   </g>
   <g id="patch_17">
    <path d="M 82.55256 224.64 
L 84.062287 224.64 
L 84.062287 213.344416 
L 82.55256 213.344416 
z
" clip-path="url(#pdf5e58649a)" style="fill: #1f77b4"/>
   </g>
   <g id="patch_18">
    <path d="M 84.062287 224.64 
L 85.572015 224.64 
L 85.572015 210.991169 
L 84.062287 210.991169 
z
" clip-path="url(#pdf5e58649a)" style="fill: #1f77b4"/>
   </g>
   <g id="patch_19">
    <path d="M 85.572015 224.64 
L 87.081743 224.64 
L 87.081743 205.343377 
L 85.572015 205.343377 
z
" clip-path="url(#pdf5e58649a)" style="fill: #1f77b4"/>
   </g>
   <g id="patch_20">
    <path d="M 87.081743 224.64 
L 88.59147 224.64 
L 88.59147 208.637922 
L 87.081743 208.637922 
z
" clip-path="url(#pdf5e58649a)" style="fill: #1f77b4"/>
   </g>
   <g id="patch_21">
    <path d="M 88.59147 224.64 
L 90.101198 224.64 
L 90.101198 201.578182 
L 88.59147 201.578182 
z
" clip-path="url(#pdf5e58649a)" style="fill: #1f77b4"/>
   </g>
   <g id="patch_22">
    <path d="M 90.101198 224.64 
L 91.610926 224.64 
L 91.610926 201.107532 
L 90.101198 201.107532 
z
" clip-path="url(#pdf5e58649a)" style="fill: #1f77b4"/>
   </g>
   <g id="patch_23">
    <path d="M 91.610926 224.64 
L 93.120653 224.64 
L 93.120653 202.519481 
L 91.610926 202.519481 
z
" clip-path="url(#pdf5e58649a)" style="fill: #1f77b4"/>
   </g>
   <g id="patch_24">
    <path d="M 93.120653 224.64 
L 94.630381 224.64 
L 94.630381 202.048831 
L 93.120653 202.048831 
z
" clip-path="url(#pdf5e58649a)" style="fill: #1f77b4"/>
   </g>
   <g id="patch_25">
    <path d="M 94.630381 224.64 
L 96.140109 224.64 
L 96.140109 208.637922 
L 94.630381 208.637922 
z
" clip-path="url(#pdf5e58649a)" style="fill: #1f77b4"/>
   </g>
   <g id="patch_26">
    <path d="M 96.140109 224.64 
L 97.649836 224.64 
L 97.649836 194.989091 
L 96.140109 194.989091 
z
" clip-path="url(#pdf5e58649a)" style="fill: #1f77b4"/>
   </g>
   <g id="patch_27">
    <path d="M 97.649836 224.64 
L 99.159564 224.64 
L 99.159564 203.931429 
L 97.649836 203.931429 
z
" clip-path="url(#pdf5e58649a)" style="fill: #1f77b4"/>
   </g>
   <g id="patch_28">
    <path d="M 99.159564 224.64 
L 100.669292 224.64 
L 100.669292 199.695584 
L 99.159564 199.695584 
z
" clip-path="url(#pdf5e58649a)" style="fill: #1f77b4"/>
   </g>
   <g id="patch_29">
    <path d="M 100.669292 224.64 
L 102.179019 224.64 
L 102.179019 198.283636 
L 100.669292 198.283636 
z
" clip-path="url(#pdf5e58649a)" style="fill: #1f77b4"/>
   </g>
   <g id="patch_30">
    <path d="M 102.179019 224.64 
L 103.688747 224.64 
L 103.688747 197.812987 
L 102.179019 197.812987 
z
" clip-path="url(#pdf5e58649a)" style="fill: #1f77b4"/>
   </g>
   <g id="patch_31">
    <path d="M 103.688747 224.64 
L 105.198475 224.64 
L 105.198475 193.577143 
L 103.688747 193.577143 
z
" clip-path="url(#pdf5e58649a)" style="fill: #1f77b4"/>
   </g>
   <g id="patch_32">
    <path d="M 105.198475 224.64 
L 106.708202 224.64 
L 106.708202 196.871688 
L 105.198475 196.871688 
z
" clip-path="url(#pdf5e58649a)" style="fill: #1f77b4"/>
   </g>
   <g id="patch_33">
    <path d="M 106.708202 224.64 
L 108.21793 224.64 
L 108.21793 192.635844 
L 106.708202 192.635844 
z
" clip-path="url(#pdf5e58649a)" style="fill: #1f77b4"/>
   </g>
   <g id="patch_34">
    <path d="M 108.21793 224.64 
L 109.727658 224.64 
L 109.727658 194.989091 
L 108.21793 194.989091 
z
" clip-path="url(#pdf5e58649a)" style="fill: #1f77b4"/>
   </g>
   <g id="patch_35">
    <path d="M 109.727658 224.64 
L 111.237385 224.64 
L 111.237385 191.223896 
L 109.727658 191.223896 
z
" clip-path="url(#pdf5e58649a)" style="fill: #1f77b4"/>
   </g>
   <g id="patch_36">
    <path d="M 111.237385 224.64 
L 112.747113 224.64 
L 112.747113 193.577143 
L 111.237385 193.577143 
z
" clip-path="url(#pdf5e58649a)" style="fill: #1f77b4"/>
   </g>
   <g id="patch_37">
    <path d="M 112.747113 224.64 
L 114.256841 224.64 
L 114.256841 188.4 
L 112.747113 188.4 
z
" clip-path="url(#pdf5e58649a)" style="fill: #1f77b4"/>
   </g>
   <g id="patch_38">
    <path d="M 114.256841 224.64 
L 115.766568 224.64 
L 115.766568 194.047792 
L 114.256841 194.047792 
z
" clip-path="url(#pdf5e58649a)" style="fill: #1f77b4"/>
   </g>
   <g id="patch_39">
    <path d="M 115.766568 224.64 
L 117.276296 224.64 
L 117.276296 182.281558 
L 115.766568 182.281558 
z
" clip-path="url(#pdf5e58649a)" style="fill: #1f77b4"/>
   </g>
   <g id="patch_40">
    <path d="M 117.276296 224.64 
L 118.786024 224.64 
L 118.786024 188.4 
L 117.276296 188.4 
z
" clip-path="url(#pdf5e58649a)" style="fill: #1f77b4"/>
   </g>
   <g id="patch_41">
    <path d="M 118.786024 224.64 
L 120.295751 224.64 
L 120.295751 185.105455 
L 118.786024 185.105455 
z
" clip-path="url(#pdf5e58649a)" style="fill: #1f77b4"/>
   </g>
   <g id="patch_42">
    <path d="M 120.295751 224.64 
L 121.805479 224.64 
L 121.805479 184.634805 
L 120.295751 184.634805 
z
" clip-path="url(#pdf5e58649a)" style="fill: #1f77b4"/>
   </g>
   <g id="patch_43">
    <path d="M 121.805479 224.64 
L 123.315207 224.64 
L 123.315207 190.282597 
L 121.805479 190.282597 
z
" clip-path="url(#pdf5e58649a)" style="fill: #1f77b4"/>
   </g>
   <g id="patch_44">
    <path d="M 123.315207 224.64 
L 124.824934 224.64 
L 124.824934 183.222857 
L 123.315207 183.222857 
z
" clip-path="url(#pdf5e58649a)" style="fill: #1f77b4"/>
   </g>
   <g id="patch_45">
    <path d="M 124.824934 224.64 
L 126.334662 224.64 
L 126.334662 178.987013 
L 124.824934 178.987013 
z
" clip-path="url(#pdf5e58649a)" style="fill: #1f77b4"/>
   </g>
   <g id="patch_46">
    <path d="M 126.334662 224.64 
L 127.84439 224.64 
L 127.84439 187.458701 
L 126.334662 187.458701 
z
" clip-path="url(#pdf5e58649a)" style="fill: #1f77b4"/>
   </g>
   <g id="patch_47">
    <path d="M 127.84439 224.64 
L 129.354117 224.64 
L 129.354117 178.987013 
L 127.84439 178.987013 
z
" clip-path="url(#pdf5e58649a)" style="fill: #1f77b4"/>
   </g>
   <g id="patch_48">
    <path d="M 129.354117 224.64 
L 130.863845 224.64 
L 130.863845 172.868571 
L 129.354117 172.868571 
z
" clip-path="url(#pdf5e58649a)" style="fill: #1f77b4"/>
   </g>
   <g id="patch_49">
    <path d="M 130.863845 224.64 
L 132.373573 224.64 
L 132.373573 182.281558 
L 130.863845 182.281558 
z
" clip-path="url(#pdf5e58649a)" style="fill: #1f77b4"/>
   </g>
   <g id="patch_50">
    <path d="M 132.373573 224.64 
L 133.8833 224.64 
L 133.8833 181.34026 
L 132.373573 181.34026 
z
" clip-path="url(#pdf5e58649a)" style="fill: #1f77b4"/>
   </g>
   <g id="patch_51">
    <path d="M 133.8833 224.64 
L 135.393028 224.64 
L 135.393028 184.164156 
L 133.8833 184.164156 
z
" clip-path="url(#pdf5e58649a)" style="fill: #1f77b4"/>
   </g>
   <g id="patch_52">
    <path d="M 135.393028 224.64 
L 136.902756 224.64 
L 136.902756 169.103377 
L 135.393028 169.103377 
z
" clip-path="url(#pdf5e58649a)" style="fill: #1f77b4"/>
   </g>
   <g id="patch_53">
    <path d="M 136.902756 224.64 
L 138.412483 224.64 
L 138.412483 171.456623 
L 136.902756 171.456623 
z
" clip-path="url(#pdf5e58649a)" style="fill: #1f77b4"/>
   </g>
   <g id="patch_54">
    <path d="M 138.412483 224.64 
L 139.922211 224.64 
L 139.922211 172.397922 
L 138.412483 172.397922 
z
" clip-path="url(#pdf5e58649a)" style="fill: #1f77b4"/>
   </g>
   <g id="patch_55">
    <path d="M 139.922211 224.64 
L 141.431939 224.64 
L 141.431939 179.457662 
L 139.922211 179.457662 
z
" clip-path="url(#pdf5e58649a)" style="fill: #1f77b4"/>
   </g>
   <g id="patch_56">
    <path d="M 141.431939 224.64 
L 142.941666 224.64 
L 142.941666 169.574026 
L 141.431939 169.574026 
z
" clip-path="url(#pdf5e58649a)" style="fill: #1f77b4"/>
   </g>
   <g id="patch_57">
    <path d="M 142.941666 224.64 
L 144.451394 224.64 
L 144.451394 176.163117 
L 142.941666 176.163117 
z
" clip-path="url(#pdf5e58649a)" style="fill: #1f77b4"/>
   </g>
   <g id="patch_58">
    <path d="M 144.451394 224.64 
L 145.961122 224.64 
L 145.961122 172.397922 
L 144.451394 172.397922 
z
" clip-path="url(#pdf5e58649a)" style="fill: #1f77b4"/>
   </g>
   <g id="patch_59">
    <path d="M 145.961122 224.64 
L 147.470849 224.64 
L 147.470849 171.456623 
L 145.961122 171.456623 
z
" clip-path="url(#pdf5e58649a)" style="fill: #1f77b4"/>
   </g>
   <g id="patch_60">
    <path d="M 147.470849 224.64 
L 148.980577 224.64 
L 148.980577 170.515325 
L 147.470849 170.515325 
z
" clip-path="url(#pdf5e58649a)" style="fill: #1f77b4"/>
   </g>
   <g id="patch_61">
    <path d="M 148.980577 224.64 
L 150.490305 224.64 
L 150.490305 165.338182 
L 148.980577 165.338182 
z
" clip-path="url(#pdf5e58649a)" style="fill: #1f77b4"/>
   </g>
   <g id="patch_62">
    <path d="M 150.490305 224.64 
L 152.000032 224.64 
L 152.000032 176.633766 
L 150.490305 176.633766 
z
" clip-path="url(#pdf5e58649a)" style="fill: #1f77b4"/>
   </g>
   <g id="patch_63">
    <path d="M 152.000032 224.64 
L 153.50976 224.64 
L 153.50976 167.691429 
L 152.000032 167.691429 
z
" clip-path="url(#pdf5e58649a)" style="fill: #1f77b4"/>
   </g>
   <g id="patch_64">
    <path d="M 153.50976 224.64 
L 155.019488 224.64 
L 155.019488 162.043636 
L 153.50976 162.043636 
z
" clip-path="url(#pdf5e58649a)" style="fill: #1f77b4"/>
   </g>
   <g id="patch_65">
    <path d="M 155.019488 224.64 
L 156.529215 224.64 
L 156.529215 169.103377 
L 155.019488 169.103377 
z
" clip-path="url(#pdf5e58649a)" style="fill: #1f77b4"/>
   </g>
   <g id="patch_66">
    <path d="M 156.529215 224.64 
L 158.038943 224.64 
L 158.038943 163.926234 
L 156.529215 163.926234 
z
" clip-path="url(#pdf5e58649a)" style="fill: #1f77b4"/>
   </g>
   <g id="patch_67">
    <path d="M 158.038943 224.64 
L 159.548671 224.64 
L 159.548671 168.162078 
L 158.038943 168.162078 
z
" clip-path="url(#pdf5e58649a)" style="fill: #1f77b4"/>
   </g>
   <g id="patch_68">
    <path d="M 159.548671 224.64 
L 161.058398 224.64 
L 161.058398 157.807792 
L 159.548671 157.807792 
z
" clip-path="url(#pdf5e58649a)" style="fill: #1f77b4"/>
   </g>
   <g id="patch_69">
    <path d="M 161.058398 224.64 
L 162.568126 224.64 
L 162.568126 165.338182 
L 161.058398 165.338182 
z
" clip-path="url(#pdf5e58649a)" style="fill: #1f77b4"/>
   </g>
   <g id="patch_70">
    <path d="M 162.568126 224.64 
L 164.077854 224.64 
L 164.077854 160.631688 
L 162.568126 160.631688 
z
" clip-path="url(#pdf5e58649a)" style="fill: #1f77b4"/>
   </g>
   <g id="patch_71">
    <path d="M 164.077854 224.64 
L 165.587581 224.64 
L 165.587581 158.278442 
L 164.077854 158.278442 
z
" clip-path="url(#pdf5e58649a)" style="fill: #1f77b4"/>
   </g>
   <g id="patch_72">
    <path d="M 165.587581 224.64 
L 167.097309 224.64 
L 167.097309 163.455584 
L 165.587581 163.455584 
z
" clip-path="url(#pdf5e58649a)" style="fill: #1f77b4"/>
   </g>
   <g id="patch_73">
    <path d="M 167.097309 224.64 
L 168.607037 224.64 
L 168.607037 162.043636 
L 167.097309 162.043636 
z
" clip-path="url(#pdf5e58649a)" style="fill: #1f77b4"/>
   </g>
   <g id="patch_74">
    <path d="M 168.607037 224.64 
L 170.116764 224.64 
L 170.116764 153.571948 
L 168.607037 153.571948 
z
" clip-path="url(#pdf5e58649a)" style="fill: #1f77b4"/>
   </g>
   <g id="patch_75">
    <path d="M 170.116764 224.64 
L 171.626492 224.64 
L 171.626492 159.69039 
L 170.116764 159.69039 
z
" clip-path="url(#pdf5e58649a)" style="fill: #1f77b4"/>
   </g>
   <g id="patch_76">
    <path d="M 171.626492 224.64 
L 173.13622 224.64 
L 173.13622 152.16 
L 171.626492 152.16 
z
" clip-path="url(#pdf5e58649a)" style="fill: #1f77b4"/>
   </g>
   <g id="patch_77">
    <path d="M 173.13622 224.64 
L 174.645947 224.64 
L 174.645947 161.572987 
L 173.13622 161.572987 
z
" clip-path="url(#pdf5e58649a)" style="fill: #1f77b4"/>
   </g>
   <g id="patch_78">
    <path d="M 174.645947 224.64 
L 176.155675 224.64 
L 176.155675 155.454545 
L 174.645947 155.454545 
z
" clip-path="url(#pdf5e58649a)" style="fill: #1f77b4"/>
   </g>
   <g id="patch_79">
    <path d="M 176.155675 224.64 
L 177.665403 224.64 
L 177.665403 157.807792 
L 176.155675 157.807792 
z
" clip-path="url(#pdf5e58649a)" style="fill: #1f77b4"/>
   </g>
   <g id="patch_80">
    <path d="M 177.665403 224.64 
L 179.17513 224.64 
L 179.17513 150.277403 
L 177.665403 150.277403 
z
" clip-path="url(#pdf5e58649a)" style="fill: #1f77b4"/>
   </g>
   <g id="patch_81">
    <path d="M 179.17513 224.64 
L 180.684858 224.64 
L 180.684858 147.453506 
L 179.17513 147.453506 
z
" clip-path="url(#pdf5e58649a)" style="fill: #1f77b4"/>
   </g>
   <g id="patch_82">
    <path d="M 180.684858 224.64 
L 182.194586 224.64 
L 182.194586 149.806753 
L 180.684858 149.806753 
z
" clip-path="url(#pdf5e58649a)" style="fill: #1f77b4"/>
   </g>
   <g id="patch_83">
    <path d="M 182.194586 224.64 
L 183.704313 224.64 
L 183.704313 150.748052 
L 182.194586 150.748052 
z
" clip-path="url(#pdf5e58649a)" style="fill: #1f77b4"/>
   </g>
   <g id="patch_84">
    <path d="M 183.704313 224.64 
L 185.214041 224.64 
L 185.214041 144.62961 
L 183.704313 144.62961 
z
" clip-path="url(#pdf5e58649a)" style="fill: #1f77b4"/>
   </g>
   <g id="patch_85">
    <path d="M 185.214041 224.64 
L 186.723769 224.64 
L 186.723769 159.21974 
L 185.214041 159.21974 
z
" clip-path="url(#pdf5e58649a)" style="fill: #1f77b4"/>
   </g>
   <g id="patch_86">
    <path d="M 186.723769 224.64 
L 188.233496 224.64 
L 188.233496 152.630649 
L 186.723769 152.630649 
z
" clip-path="url(#pdf5e58649a)" style="fill: #1f77b4"/>
   </g>
   <g id="patch_87">
    <path d="M 188.233496 224.64 
L 189.743224 224.64 
L 189.743224 144.158961 
L 188.233496 144.158961 
z
" clip-path="url(#pdf5e58649a)" style="fill: #1f77b4"/>
   </g>
   <g id="patch_88">
    <path d="M 189.743224 224.64 
L 191.252952 224.64 
L 191.252952 152.16 
L 189.743224 152.16 
z
" clip-path="url(#pdf5e58649a)" style="fill: #1f77b4"/>
   </g>
   <g id="patch_89">
    <path d="M 191.252952 224.64 
L 192.762679 224.64 
L 192.762679 141.805714 
L 191.252952 141.805714 
z
" clip-path="url(#pdf5e58649a)" style="fill: #1f77b4"/>
   </g>
   <g id="patch_90">
    <path d="M 192.762679 224.64 
L 194.272407 224.64 
L 194.272407 148.865455 
L 192.762679 148.865455 
z
" clip-path="url(#pdf5e58649a)" style="fill: #1f77b4"/>
   </g>
   <g id="patch_91">
    <path d="M 194.272407 224.64 
L 195.782135 224.64 
L 195.782135 139.923117 
L 194.272407 139.923117 
z
" clip-path="url(#pdf5e58649a)" style="fill: #1f77b4"/>
   </g>
   <g id="patch_92">
    <path d="M 195.782135 224.64 
L 197.291862 224.64 
L 197.291862 141.805714 
L 195.782135 141.805714 
z
" clip-path="url(#pdf5e58649a)" style="fill: #1f77b4"/>
   </g>
   <g id="patch_93">
    <path d="M 197.291862 224.64 
L 198.80159 224.64 
L 198.80159 130.51013 
L 197.291862 130.51013 
z
" clip-path="url(#pdf5e58649a)" style="fill: #1f77b4"/>
   </g>
   <g id="patch_94">
    <path d="M 198.80159 224.64 
L 200.311318 224.64 
L 200.311318 145.10026 
L 198.80159 145.10026 
z
" clip-path="url(#pdf5e58649a)" style="fill: #1f77b4"/>
   </g>
   <g id="patch_95">
    <path d="M 200.311318 224.64 
L 201.821045 224.64 
L 201.821045 136.628571 
L 200.311318 136.628571 
z
" clip-path="url(#pdf5e58649a)" style="fill: #1f77b4"/>
   </g>
   <g id="patch_96">
    <path d="M 201.821045 224.64 
L 203.330773 224.64 
L 203.330773 143.688312 
L 201.821045 143.688312 
z
" clip-path="url(#pdf5e58649a)" style="fill: #1f77b4"/>
   </g>
   <g id="patch_97">
    <path d="M 203.330773 224.64 
L 204.840501 224.64 
L 204.840501 137.099221 
L 203.330773 137.099221 
z
" clip-path="url(#pdf5e58649a)" style="fill: #1f77b4"/>
   </g>
   <g id="patch_98">
    <path d="M 204.840501 224.64 
L 206.350228 224.64 
L 206.350228 136.157922 
L 204.840501 136.157922 
z
" clip-path="url(#pdf5e58649a)" style="fill: #1f77b4"/>
   </g>
   <g id="patch_99">
    <path d="M 206.350228 224.64 
L 207.859956 224.64 
L 207.859956 140.393766 
L 206.350228 140.393766 
z
" clip-path="url(#pdf5e58649a)" style="fill: #1f77b4"/>
   </g>
   <g id="patch_100">
    <path d="M 207.859956 224.64 
L 209.369684 224.64 
L 209.369684 140.864416 
L 207.859956 140.864416 
z
" clip-path="url(#pdf5e58649a)" style="fill: #1f77b4"/>
   </g>
   <g id="patch_101">
    <path d="M 209.369684 224.64 
L 210.879411 224.64 
L 210.879411 129.568831 
L 209.369684 129.568831 
z
" clip-path="url(#pdf5e58649a)" style="fill: #1f77b4"/>
   </g>
   <g id="patch_102">
    <path d="M 210.879411 224.64 
L 212.389139 224.64 
L 212.389139 138.040519 
L 210.879411 138.040519 
z
" clip-path="url(#pdf5e58649a)" style="fill: #1f77b4"/>
   </g>
   <g id="patch_103">
    <path d="M 212.389139 224.64 
L 213.898867 224.64 
L 213.898867 131.922078 
L 212.389139 131.922078 
z
" clip-path="url(#pdf5e58649a)" style="fill: #1f77b4"/>
   </g>
   <g id="patch_104">
    <path d="M 213.898867 224.64 
L 215.408594 224.64 
L 215.408594 134.745974 
L 213.898867 134.745974 
z
" clip-path="url(#pdf5e58649a)" style="fill: #1f77b4"/>
   </g>
   <g id="patch_105">
    <path d="M 215.408594 224.64 
L 216.918322 224.64 
L 216.918322 136.157922 
L 215.408594 136.157922 
z
" clip-path="url(#pdf5e58649a)" style="fill: #1f77b4"/>
   </g>
   <g id="patch_106">
    <path d="M 216.918322 224.64 
L 218.42805 224.64 
L 218.42805 135.216623 
L 216.918322 135.216623 
z
" clip-path="url(#pdf5e58649a)" style="fill: #1f77b4"/>
   </g>
   <g id="patch_107">
    <path d="M 218.42805 224.64 
L 219.937777 224.64 
L 219.937777 129.098182 
L 218.42805 129.098182 
z
" clip-path="url(#pdf5e58649a)" style="fill: #1f77b4"/>
   </g>
   <g id="patch_108">
    <path d="M 219.937777 224.64 
L 221.447505 224.64 
L 221.447505 126.744935 
L 219.937777 126.744935 
z
" clip-path="url(#pdf5e58649a)" style="fill: #1f77b4"/>
   </g>
   <g id="patch_109">
    <path d="M 221.447505 224.64 
L 222.957233 224.64 
L 222.957233 122.038442 
L 221.447505 122.038442 
z
" clip-path="url(#pdf5e58649a)" style="fill: #1f77b4"/>
   </g>
   <g id="patch_110">
    <path d="M 222.957233 224.64 
L 224.46696 224.64 
L 224.46696 122.038442 
L 222.957233 122.038442 
z
" clip-path="url(#pdf5e58649a)" style="fill: #1f77b4"/>
   </g>
   <g id="patch_111">
    <path d="M 224.46696 224.64 
L 225.976688 224.64 
L 225.976688 110.272208 
L 224.46696 110.272208 
z
" clip-path="url(#pdf5e58649a)" style="fill: #1f77b4"/>
   </g>
   <g id="patch_112">
    <path d="M 225.976688 224.64 
L 227.486416 224.64 
L 227.486416 116.390649 
L 225.976688 116.390649 
z
" clip-path="url(#pdf5e58649a)" style="fill: #1f77b4"/>
   </g>
   <g id="patch_113">
    <path d="M 227.486416 224.64 
L 228.996143 224.64 
L 228.996143 122.038442 
L 227.486416 122.038442 
z
" clip-path="url(#pdf5e58649a)" style="fill: #1f77b4"/>
   </g>
   <g id="patch_114">
    <path d="M 228.996143 224.64 
L 230.505871 224.64 
L 230.505871 117.331948 
L 228.996143 117.331948 
z
" clip-path="url(#pdf5e58649a)" style="fill: #1f77b4"/>
   </g>
   <g id="patch_115">
    <path d="M 230.505871 224.64 
L 232.015599 224.64 
L 232.015599 106.507013 
L 230.505871 106.507013 
z
" clip-path="url(#pdf5e58649a)" style="fill: #1f77b4"/>
   </g>
   <g id="patch_116">
    <path d="M 232.015599 224.64 
L 233.525326 224.64 
L 233.525326 121.567792 
L 232.015599 121.567792 
z
" clip-path="url(#pdf5e58649a)" style="fill: #1f77b4"/>
   </g>
   <g id="patch_117">
    <path d="M 233.525326 224.64 
L 235.035054 224.64 
L 235.035054 124.391688 
L 233.525326 124.391688 
z
" clip-path="url(#pdf5e58649a)" style="fill: #1f77b4"/>
   </g>
   <g id="patch_118">
    <path d="M 235.035054 224.64 
L 236.544782 224.64 
L 236.544782 113.566753 
L 235.035054 113.566753 
z
" clip-path="url(#pdf5e58649a)" style="fill: #1f77b4"/>
   </g>
   <g id="patch_119">
    <path d="M 236.544782 224.64 
L 238.054509 224.64 
L 238.054509 116.390649 
L 236.544782 116.390649 
z
" clip-path="url(#pdf5e58649a)" style="fill: #1f77b4"/>
   </g>
   <g id="patch_120">
    <path d="M 238.054509 224.64 
L 239.564237 224.64 
L 239.564237 107.918961 
L 238.054509 107.918961 
z
" clip-path="url(#pdf5e58649a)" style="fill: #1f77b4"/>
   </g>
   <g id="patch_121">
    <path d="M 239.564237 224.64 
L 241.073965 224.64 
L 241.073965 110.272208 
L 239.564237 110.272208 
z
" clip-path="url(#pdf5e58649a)" style="fill: #1f77b4"/>
   </g>
   <g id="patch_122">
    <path d="M 241.073965 224.64 
L 242.583692 224.64 
L 242.583692 122.038442 
L 241.073965 122.038442 
z
" clip-path="url(#pdf5e58649a)" style="fill: #1f77b4"/>
   </g>
   <g id="patch_123">
    <path d="M 242.583692 224.64 
L 244.09342 224.64 
L 244.09342 106.977662 
L 242.583692 106.977662 
z
" clip-path="url(#pdf5e58649a)" style="fill: #1f77b4"/>
   </g>
   <g id="patch_124">
    <path d="M 244.09342 224.64 
L 245.603148 224.64 
L 245.603148 107.918961 
L 244.09342 107.918961 
z
" clip-path="url(#pdf5e58649a)" style="fill: #1f77b4"/>
   </g>
   <g id="patch_125">
    <path d="M 245.603148 224.64 
L 247.112875 224.64 
L 247.112875 98.976623 
L 245.603148 98.976623 
z
" clip-path="url(#pdf5e58649a)" style="fill: #1f77b4"/>
   </g>
   <g id="patch_126">
    <path d="M 247.112875 224.64 
L 248.622603 224.64 
L 248.622603 100.859221 
L 247.112875 100.859221 
z
" clip-path="url(#pdf5e58649a)" style="fill: #1f77b4"/>
   </g>
   <g id="patch_127">
    <path d="M 248.622603 224.64 
L 250.132331 224.64 
L 250.132331 104.624416 
L 248.622603 104.624416 
z
" clip-path="url(#pdf5e58649a)" style="fill: #1f77b4"/>
   </g>
   <g id="patch_128">
    <path d="M 250.132331 224.64 
L 251.642058 224.64 
L 251.642058 110.272208 
L 250.132331 110.272208 
z
" clip-path="url(#pdf5e58649a)" style="fill: #1f77b4"/>
   </g>
   <g id="patch_129">
    <path d="M 251.642058 224.64 
L 253.151786 224.64 
L 253.151786 116.390649 
L 251.642058 116.390649 
z
" clip-path="url(#pdf5e58649a)" style="fill: #1f77b4"/>
   </g>
   <g id="patch_130">
    <path d="M 253.151786 224.64 
L 254.661514 224.64 
L 254.661514 106.977662 
L 253.151786 106.977662 
z
" clip-path="url(#pdf5e58649a)" style="fill: #1f77b4"/>
   </g>
   <g id="patch_131">
    <path d="M 254.661514 224.64 
L 256.171241 224.64 
L 256.171241 94.740779 
L 254.661514 94.740779 
z
" clip-path="url(#pdf5e58649a)" style="fill: #1f77b4"/>
   </g>
   <g id="patch_132">
    <path d="M 256.171241 224.64 
L 257.680969 224.64 
L 257.680969 104.624416 
L 256.171241 104.624416 
z
" clip-path="url(#pdf5e58649a)" style="fill: #1f77b4"/>
   </g>
   <g id="patch_133">
    <path d="M 257.680969 224.64 
L 259.190697 224.64 
L 259.190697 103.212468 
L 257.680969 103.212468 
z
" clip-path="url(#pdf5e58649a)" style="fill: #1f77b4"/>
   </g>
   <g id="patch_134">
    <path d="M 259.190697 224.64 
L 260.700424 224.64 
L 260.700424 98.505974 
L 259.190697 98.505974 
z
" clip-path="url(#pdf5e58649a)" style="fill: #1f77b4"/>
   </g>
   <g id="patch_135">
    <path d="M 260.700424 224.64 
L 262.210152 224.64 
L 262.210152 99.447273 
L 260.700424 99.447273 
z
" clip-path="url(#pdf5e58649a)" style="fill: #1f77b4"/>
   </g>
   <g id="patch_136">
    <path d="M 262.210152 224.64 
L 263.71988 224.64 
L 263.71988 113.566753 
L 262.210152 113.566753 
z
" clip-path="url(#pdf5e58649a)" style="fill: #1f77b4"/>
   </g>
   <g id="patch_137">
    <path d="M 263.71988 224.64 
L 265.229607 224.64 
L 265.229607 108.86026 
L 263.71988 108.86026 
z
" clip-path="url(#pdf5e58649a)" style="fill: #1f77b4"/>
   </g>
   <g id="patch_138">
    <path d="M 265.229607 224.64 
L 266.739335 224.64 
L 266.739335 106.036364 
L 265.229607 106.036364 
z
" clip-path="url(#pdf5e58649a)" style="fill: #1f77b4"/>
   </g>
   <g id="patch_139">
    <path d="M 266.739335 224.64 
L 268.249063 224.64 
L 268.249063 94.27013 
L 266.739335 94.27013 
z
" clip-path="url(#pdf5e58649a)" style="fill: #1f77b4"/>
   </g>
   <g id="patch_140">
    <path d="M 268.249063 224.64 
L 269.75879 224.64 
L 269.75879 101.800519 
L 268.249063 101.800519 
z
" clip-path="url(#pdf5e58649a)" style="fill: #1f77b4"/>
   </g>
   <g id="patch_141">
    <path d="M 269.75879 224.64 
L 271.268518 224.64 
L 271.268518 91.916883 
L 269.75879 91.916883 
z
" clip-path="url(#pdf5e58649a)" style="fill: #1f77b4"/>
   </g>
   <g id="patch_142">
    <path d="M 271.268518 224.64 
L 272.778246 224.64 
L 272.778246 87.21039 
L 271.268518 87.21039 
z
" clip-path="url(#pdf5e58649a)" style="fill: #1f77b4"/>
   </g>
   <g id="patch_143">
    <path d="M 272.778246 224.64 
L 274.287973 224.64 
L 274.287973 91.916883 
L 272.778246 91.916883 
z
" clip-path="url(#pdf5e58649a)" style="fill: #1f77b4"/>
   </g>
   <g id="patch_144">
    <path d="M 274.287973 224.64 
L 275.797701 224.64 
L 275.797701 86.269091 
L 274.287973 86.269091 
z
" clip-path="url(#pdf5e58649a)" style="fill: #1f77b4"/>
   </g>
   <g id="patch_145">
    <path d="M 275.797701 224.64 
L 277.307429 224.64 
L 277.307429 90.504935 
L 275.797701 90.504935 
z
" clip-path="url(#pdf5e58649a)" style="fill: #1f77b4"/>
   </g>
   <g id="patch_146">
    <path d="M 277.307429 224.64 
L 278.817156 224.64 
L 278.817156 78.738701 
L 277.307429 78.738701 
z
" clip-path="url(#pdf5e58649a)" style="fill: #1f77b4"/>
   </g>
   <g id="patch_147">
    <path d="M 278.817156 224.64 
L 280.326884 224.64 
L 280.326884 93.328831 
L 278.817156 93.328831 
z
" clip-path="url(#pdf5e58649a)" style="fill: #1f77b4"/>
   </g>
   <g id="patch_148">
    <path d="M 280.326884 224.64 
L 281.836612 224.64 
L 281.836612 90.975584 
L 280.326884 90.975584 
z
" clip-path="url(#pdf5e58649a)" style="fill: #1f77b4"/>
   </g>
   <g id="patch_149">
    <path d="M 281.836612 224.64 
L 283.346339 224.64 
L 283.346339 94.27013 
L 281.836612 94.27013 
z
" clip-path="url(#pdf5e58649a)" style="fill: #1f77b4"/>
   </g>
   <g id="patch_150">
    <path d="M 283.346339 224.64 
L 284.856067 224.64 
L 284.856067 76.856104 
L 283.346339 76.856104 
z
" clip-path="url(#pdf5e58649a)" style="fill: #1f77b4"/>
   </g>
   <g id="patch_151">
    <path d="M 284.856067 224.64 
L 286.365795 224.64 
L 286.365795 81.091948 
L 284.856067 81.091948 
z
" clip-path="url(#pdf5e58649a)" style="fill: #1f77b4"/>
   </g>
   <g id="patch_152">
    <path d="M 286.365795 224.64 
L 287.875522 224.64 
L 287.875522 90.975584 
L 286.365795 90.975584 
z
" clip-path="url(#pdf5e58649a)" style="fill: #1f77b4"/>
   </g>
   <g id="patch_153">
    <path d="M 287.875522 224.64 
L 289.38525 224.64 
L 289.38525 76.385455 
L 287.875522 76.385455 
z
" clip-path="url(#pdf5e58649a)" style="fill: #1f77b4"/>
   </g>
   <g id="patch_154">
    <path d="M 289.38525 224.64 
L 290.894978 224.64 
L 290.894978 87.681039 
L 289.38525 87.681039 
z
" clip-path="url(#pdf5e58649a)" style="fill: #1f77b4"/>
   </g>
   <g id="patch_155">
    <path d="M 290.894978 224.64 
L 292.404705 224.64 
L 292.404705 79.209351 
L 290.894978 79.209351 
z
" clip-path="url(#pdf5e58649a)" style="fill: #1f77b4"/>
   </g>
   <g id="patch_156">
    <path d="M 292.404705 224.64 
L 293.914433 224.64 
L 293.914433 75.444156 
L 292.404705 75.444156 
z
" clip-path="url(#pdf5e58649a)" style="fill: #1f77b4"/>
   </g>
   <g id="patch_157">
    <path d="M 293.914433 224.64 
L 295.424161 224.64 
L 295.424161 81.091948 
L 293.914433 81.091948 
z
" clip-path="url(#pdf5e58649a)" style="fill: #1f77b4"/>
   </g>
   <g id="patch_158">
    <path d="M 295.424161 224.64 
L 296.933888 224.64 
L 296.933888 66.501818 
L 295.424161 66.501818 
z
" clip-path="url(#pdf5e58649a)" style="fill: #1f77b4"/>
   </g>
   <g id="patch_159">
    <path d="M 296.933888 224.64 
L 298.443616 224.64 
L 298.443616 74.973506 
L 296.933888 74.973506 
z
" clip-path="url(#pdf5e58649a)" style="fill: #1f77b4"/>
   </g>
   <g id="patch_160">
    <path d="M 298.443616 224.64 
L 299.953344 224.64 
L 299.953344 77.797403 
L 298.443616 77.797403 
z
" clip-path="url(#pdf5e58649a)" style="fill: #1f77b4"/>
   </g>
   <g id="patch_161">
    <path d="M 299.953344 224.64 
L 301.463071 224.64 
L 301.463071 75.914805 
L 299.953344 75.914805 
z
" clip-path="url(#pdf5e58649a)" style="fill: #1f77b4"/>
   </g>
   <g id="patch_162">
    <path d="M 301.463071 224.64 
L 302.972799 224.64 
L 302.972799 68.384416 
L 301.463071 68.384416 
z
" clip-path="url(#pdf5e58649a)" style="fill: #1f77b4"/>
   </g>
   <g id="patch_163">
    <path d="M 302.972799 224.64 
L 304.482527 224.64 
L 304.482527 81.091948 
L 302.972799 81.091948 
z
" clip-path="url(#pdf5e58649a)" style="fill: #1f77b4"/>
   </g>
   <g id="patch_164">
    <path d="M 304.482527 224.64 
L 305.992254 224.64 
L 305.992254 72.62026 
L 304.482527 72.62026 
z
" clip-path="url(#pdf5e58649a)" style="fill: #1f77b4"/>
   </g>
   <g id="patch_165">
    <path d="M 305.992254 224.64 
L 307.501982 224.64 
L 307.501982 81.562597 
L 305.992254 81.562597 
z
" clip-path="url(#pdf5e58649a)" style="fill: #1f77b4"/>
   </g>
   <g id="patch_166">
    <path d="M 307.501982 224.64 
L 309.01171 224.64 
L 309.01171 79.209351 
L 307.501982 79.209351 
z
" clip-path="url(#pdf5e58649a)" style="fill: #1f77b4"/>
   </g>
   <g id="patch_167">
    <path d="M 309.01171 224.64 
L 310.521437 224.64 
L 310.521437 76.385455 
L 309.01171 76.385455 
z
" clip-path="url(#pdf5e58649a)" style="fill: #1f77b4"/>
   </g>
   <g id="patch_168">
    <path d="M 310.521437 224.64 
L 312.031165 224.64 
L 312.031165 63.677922 
L 310.521437 63.677922 
z
" clip-path="url(#pdf5e58649a)" style="fill: #1f77b4"/>
   </g>
   <g id="patch_169">
    <path d="M 312.031165 224.64 
L 313.540893 224.64 
L 313.540893 68.384416 
L 312.031165 68.384416 
z
" clip-path="url(#pdf5e58649a)" style="fill: #1f77b4"/>
   </g>
   <g id="patch_170">
    <path d="M 313.540893 224.64 
L 315.05062 224.64 
L 315.05062 61.324675 
L 313.540893 61.324675 
z
" clip-path="url(#pdf5e58649a)" style="fill: #1f77b4"/>
   </g>
   <g id="patch_171">
    <path d="M 315.05062 224.64 
L 316.560348 224.64 
L 316.560348 69.325714 
L 315.05062 69.325714 
z
" clip-path="url(#pdf5e58649a)" style="fill: #1f77b4"/>
   </g>
   <g id="patch_172">
    <path d="M 316.560348 224.64 
L 318.070076 224.64 
L 318.070076 58.03013 
L 316.560348 58.03013 
z
" clip-path="url(#pdf5e58649a)" style="fill: #1f77b4"/>
   </g>
   <g id="patch_173">
    <path d="M 318.070076 224.64 
L 319.579803 224.64 
L 319.579803 55.676883 
L 318.070076 55.676883 
z
" clip-path="url(#pdf5e58649a)" style="fill: #1f77b4"/>
   </g>
   <g id="patch_174">
    <path d="M 319.579803 224.64 
L 321.089531 224.64 
L 321.089531 61.795325 
L 319.579803 61.795325 
z
" clip-path="url(#pdf5e58649a)" style="fill: #1f77b4"/>
   </g>
   <g id="patch_175">
    <path d="M 321.089531 224.64 
L 322.599259 224.64 
L 322.599259 64.619221 
L 321.089531 64.619221 
z
" clip-path="url(#pdf5e58649a)" style="fill: #1f77b4"/>
   </g>
   <g id="patch_176">
    <path d="M 322.599259 224.64 
L 324.108986 224.64 
L 324.108986 71.208312 
L 322.599259 71.208312 
z
" clip-path="url(#pdf5e58649a)" style="fill: #1f77b4"/>
   </g>
   <g id="patch_177">
    <path d="M 324.108986 224.64 
L 325.618714 224.64 
L 325.618714 67.913766 
L 324.108986 67.913766 
z
" clip-path="url(#pdf5e58649a)" style="fill: #1f77b4"/>
   </g>
   <g id="patch_178">
    <path d="M 325.618714 224.64 
L 327.128442 224.64 
L 327.128442 53.794286 
L 325.618714 53.794286 
z
" clip-path="url(#pdf5e58649a)" style="fill: #1f77b4"/>
   </g>
   <g id="patch_179">
    <path d="M 327.128442 224.64 
L 328.638169 224.64 
L 328.638169 42.498701 
L 327.128442 42.498701 
z
" clip-path="url(#pdf5e58649a)" style="fill: #1f77b4"/>
   </g>
   <g id="patch_180">
    <path d="M 328.638169 224.64 
L 330.147897 224.64 
L 330.147897 52.852987 
L 328.638169 52.852987 
z
" clip-path="url(#pdf5e58649a)" style="fill: #1f77b4"/>
   </g>
   <g id="patch_181">
    <path d="M 330.147897 224.64 
L 331.657625 224.64 
L 331.657625 55.676883 
L 330.147897 55.676883 
z
" clip-path="url(#pdf5e58649a)" style="fill: #1f77b4"/>
   </g>
   <g id="patch_182">
    <path d="M 331.657625 224.64 
L 333.167352 224.64 
L 333.167352 48.146494 
L 331.657625 48.146494 
z
" clip-path="url(#pdf5e58649a)" style="fill: #1f77b4"/>
   </g>
   <g id="patch_183">
    <path d="M 333.167352 224.64 
L 334.67708 224.64 
L 334.67708 47.675844 
L 333.167352 47.675844 
z
" clip-path="url(#pdf5e58649a)" style="fill: #1f77b4"/>
   </g>
   <g id="patch_184">
    <path d="M 334.67708 224.64 
L 336.186808 224.64 
L 336.186808 53.794286 
L 334.67708 53.794286 
z
" clip-path="url(#pdf5e58649a)" style="fill: #1f77b4"/>
   </g>
   <g id="patch_185">
    <path d="M 336.186808 224.64 
L 337.696535 224.64 
L 337.696535 55.676883 
L 336.186808 55.676883 
z
" clip-path="url(#pdf5e58649a)" style="fill: #1f77b4"/>
   </g>
   <g id="patch_186">
    <path d="M 337.696535 224.64 
L 339.206263 224.64 
L 339.206263 60.383377 
L 337.696535 60.383377 
z
" clip-path="url(#pdf5e58649a)" style="fill: #1f77b4"/>
   </g>
   <g id="patch_187">
    <path d="M 339.206263 224.64 
L 340.715991 224.64 
L 340.715991 58.500779 
L 339.206263 58.500779 
z
" clip-path="url(#pdf5e58649a)" style="fill: #1f77b4"/>
   </g>
   <g id="patch_188">
    <path d="M 340.715991 224.64 
L 342.225718 224.64 
L 342.225718 50.029091 
L 340.715991 50.029091 
z
" clip-path="url(#pdf5e58649a)" style="fill: #1f77b4"/>
   </g>
   <g id="patch_189">
    <path d="M 342.225718 224.64 
L 343.735446 224.64 
L 343.735446 53.323636 
L 342.225718 53.323636 
z
" clip-path="url(#pdf5e58649a)" style="fill: #1f77b4"/>
   </g>
   <g id="patch_190">
    <path d="M 343.735446 224.64 
L 345.245174 224.64 
L 345.245174 45.322597 
L 343.735446 45.322597 
z
" clip-path="url(#pdf5e58649a)" style="fill: #1f77b4"/>
   </g>
   <g id="patch_191">
    <path d="M 345.245174 224.64 
L 346.754901 224.64 
L 346.754901 43.910649 
L 345.245174 43.910649 
z
" clip-path="url(#pdf5e58649a)" style="fill: #1f77b4"/>
   </g>
   <g id="patch_192">
    <path d="M 346.754901 224.64 
L 348.264629 224.64 
L 348.264629 48.146494 
L 346.754901 48.146494 
z
" clip-path="url(#pdf5e58649a)" style="fill: #1f77b4"/>
   </g>
   <g id="patch_193">
    <path d="M 348.264629 224.64 
L 349.774357 224.64 
L 349.774357 42.969351 
L 348.264629 42.969351 
z
" clip-path="url(#pdf5e58649a)" style="fill: #1f77b4"/>
   </g>
   <g id="patch_194">
    <path d="M 349.774357 224.64 
L 351.284084 224.64 
L 351.284084 53.794286 
L 349.774357 53.794286 
z
" clip-path="url(#pdf5e58649a)" style="fill: #1f77b4"/>
   </g>
   <g id="patch_195">
    <path d="M 351.284084 224.64 
L 352.793812 224.64 
L 352.793812 50.49974 
L 351.284084 50.49974 
z
" clip-path="url(#pdf5e58649a)" style="fill: #1f77b4"/>
   </g>
   <g id="patch_196">
    <path d="M 352.793812 224.64 
L 354.30354 224.64 
L 354.30354 59.442078 
L 352.793812 59.442078 
z
" clip-path="url(#pdf5e58649a)" style="fill: #1f77b4"/>
   </g>
   <g id="patch_197">
    <path d="M 354.30354 224.64 
L 355.813267 224.64 
L 355.813267 40.616104 
L 354.30354 40.616104 
z
" clip-path="url(#pdf5e58649a)" style="fill: #1f77b4"/>
   </g>
   <g id="patch_198">
    <path d="M 355.813267 224.64 
L 357.322995 224.64 
L 357.322995 46.263896 
L 355.813267 46.263896 
z
" clip-path="url(#pdf5e58649a)" style="fill: #1f77b4"/>
   </g>
   <g id="patch_199">
    <path d="M 357.322995 224.64 
L 358.832723 224.64 
L 358.832723 40.616104 
L 357.322995 40.616104 
z
" clip-path="url(#pdf5e58649a)" style="fill: #1f77b4"/>
   </g>
   <g id="patch_200">
    <path d="M 358.832723 224.64 
L 360.34245 224.64 
L 360.34245 37.792208 
L 358.832723 37.792208 
z
" clip-path="url(#pdf5e58649a)" style="fill: #1f77b4"/>
   </g>
   <g id="patch_201">
    <path d="M 360.34245 224.64 
L 361.852178 224.64 
L 361.852178 34.027013 
L 360.34245 34.027013 
z
" clip-path="url(#pdf5e58649a)" style="fill: #1f77b4"/>
   </g>
   <g id="patch_202">
    <path d="M 361.852178 224.64 
L 363.361906 224.64 
L 363.361906 17.554286 
L 361.852178 17.554286 
z
" clip-path="url(#pdf5e58649a)" style="fill: #1f77b4"/>
   </g>
   <g id="matplotlib.axis_1">
    <g id="xtick_1">
     <g id="line2d_1">
      <defs>
       <path id="m3925a16d4d" d="M 0 0 
L 0 3.5 
" style="stroke: #000000; stroke-width: 0.8"/>
      </defs>
      <g>
       <use xlink:href="#m3925a16d4d" x="58.999432" y="224.64" style="stroke: #000000; stroke-width: 0.8"/>
      </g>
     </g>
     <g id="text_1">
      <!-- 0.0 -->
      <g transform="translate(51.047869 239.238437)scale(0.1 -0.1)">
       <defs>
        <path id="DejaVuSans-30" d="M 2034 4250 
Q 1547 4250 1301 3770 
Q 1056 3291 1056 2328 
Q 1056 1369 1301 889 
Q 1547 409 2034 409 
Q 2525 409 2770 889 
Q 3016 1369 3016 2328 
Q 3016 3291 2770 3770 
Q 2525 4250 2034 4250 
z
M 2034 4750 
Q 2819 4750 3233 4129 
Q 3647 3509 3647 2328 
Q 3647 1150 3233 529 
Q 2819 -91 2034 -91 
Q 1250 -91 836 529 
Q 422 1150 422 2328 
Q 422 3509 836 4129 
Q 1250 4750 2034 4750 
z
" transform="scale(0.015625)"/>
        <path id="DejaVuSans-2e" d="M 684 794 
L 1344 794 
L 1344 0 
L 684 0 
L 684 794 
z
" transform="scale(0.015625)"/>
       </defs>
       <use xlink:href="#DejaVuSans-30"/>
       <use xlink:href="#DejaVuSans-2e" x="63.623047"/>
       <use xlink:href="#DejaVuSans-30" x="95.410156"/>
      </g>
     </g>
    </g>
    <g id="xtick_2">
     <g id="line2d_2">
      <g>
       <use xlink:href="#m3925a16d4d" x="119.872159" y="224.64" style="stroke: #000000; stroke-width: 0.8"/>
      </g>
     </g>
     <g id="text_2">
      <!-- 0.2 -->
      <g transform="translate(111.920597 239.238437)scale(0.1 -0.1)">
       <defs>
        <path id="DejaVuSans-32" d="M 1228 531 
L 3431 531 
L 3431 0 
L 469 0 
L 469 531 
Q 828 903 1448 1529 
Q 2069 2156 2228 2338 
Q 2531 2678 2651 2914 
Q 2772 3150 2772 3378 
Q 2772 3750 2511 3984 
Q 2250 4219 1831 4219 
Q 1534 4219 1204 4116 
Q 875 4013 500 3803 
L 500 4441 
Q 881 4594 1212 4672 
Q 1544 4750 1819 4750 
Q 2544 4750 2975 4387 
Q 3406 4025 3406 3419 
Q 3406 3131 3298 2873 
Q 3191 2616 2906 2266 
Q 2828 2175 2409 1742 
Q 1991 1309 1228 531 
z
" transform="scale(0.015625)"/>
       </defs>
       <use xlink:href="#DejaVuSans-30"/>
       <use xlink:href="#DejaVuSans-2e" x="63.623047"/>
       <use xlink:href="#DejaVuSans-32" x="95.410156"/>
      </g>
     </g>
    </g>
    <g id="xtick_3">
     <g id="line2d_3">
      <g>
       <use xlink:href="#m3925a16d4d" x="180.744886" y="224.64" style="stroke: #000000; stroke-width: 0.8"/>
      </g>
     </g>
     <g id="text_3">
      <!-- 0.4 -->
      <g transform="translate(172.793324 239.238437)scale(0.1 -0.1)">
       <defs>
        <path id="DejaVuSans-34" d="M 2419 4116 
L 825 1625 
L 2419 1625 
L 2419 4116 
z
M 2253 4666 
L 3047 4666 
L 3047 1625 
L 3713 1625 
L 3713 1100 
L 3047 1100 
L 3047 0 
L 2419 0 
L 2419 1100 
L 313 1100 
L 313 1709 
L 2253 4666 
z
" transform="scale(0.015625)"/>
       </defs>
       <use xlink:href="#DejaVuSans-30"/>
       <use xlink:href="#DejaVuSans-2e" x="63.623047"/>
       <use xlink:href="#DejaVuSans-34" x="95.410156"/>
      </g>
     </g>
    </g>
    <g id="xtick_4">
     <g id="line2d_4">
      <g>
       <use xlink:href="#m3925a16d4d" x="241.617614" y="224.64" style="stroke: #000000; stroke-width: 0.8"/>
      </g>
     </g>
     <g id="text_4">
      <!-- 0.6 -->
      <g transform="translate(233.666051 239.238437)scale(0.1 -0.1)">
       <defs>
        <path id="DejaVuSans-36" d="M 2113 2584 
Q 1688 2584 1439 2293 
Q 1191 2003 1191 1497 
Q 1191 994 1439 701 
Q 1688 409 2113 409 
Q 2538 409 2786 701 
Q 3034 994 3034 1497 
Q 3034 2003 2786 2293 
Q 2538 2584 2113 2584 
z
M 3366 4563 
L 3366 3988 
Q 3128 4100 2886 4159 
Q 2644 4219 2406 4219 
Q 1781 4219 1451 3797 
Q 1122 3375 1075 2522 
Q 1259 2794 1537 2939 
Q 1816 3084 2150 3084 
Q 2853 3084 3261 2657 
Q 3669 2231 3669 1497 
Q 3669 778 3244 343 
Q 2819 -91 2113 -91 
Q 1303 -91 875 529 
Q 447 1150 447 2328 
Q 447 3434 972 4092 
Q 1497 4750 2381 4750 
Q 2619 4750 2861 4703 
Q 3103 4656 3366 4563 
z
" transform="scale(0.015625)"/>
       </defs>
       <use xlink:href="#DejaVuSans-30"/>
       <use xlink:href="#DejaVuSans-2e" x="63.623047"/>
       <use xlink:href="#DejaVuSans-36" x="95.410156"/>
      </g>
     </g>
    </g>
    <g id="xtick_5">
     <g id="line2d_5">
      <g>
       <use xlink:href="#m3925a16d4d" x="302.490341" y="224.64" style="stroke: #000000; stroke-width: 0.8"/>
      </g>
     </g>
     <g id="text_5">
      <!-- 0.8 -->
      <g transform="translate(294.538778 239.238437)scale(0.1 -0.1)">
       <defs>
        <path id="DejaVuSans-38" d="M 2034 2216 
Q 1584 2216 1326 1975 
Q 1069 1734 1069 1313 
Q 1069 891 1326 650 
Q 1584 409 2034 409 
Q 2484 409 2743 651 
Q 3003 894 3003 1313 
Q 3003 1734 2745 1975 
Q 2488 2216 2034 2216 
z
M 1403 2484 
Q 997 2584 770 2862 
Q 544 3141 544 3541 
Q 544 4100 942 4425 
Q 1341 4750 2034 4750 
Q 2731 4750 3128 4425 
Q 3525 4100 3525 3541 
Q 3525 3141 3298 2862 
Q 3072 2584 2669 2484 
Q 3125 2378 3379 2068 
Q 3634 1759 3634 1313 
Q 3634 634 3220 271 
Q 2806 -91 2034 -91 
Q 1263 -91 848 271 
Q 434 634 434 1313 
Q 434 1759 690 2068 
Q 947 2378 1403 2484 
z
M 1172 3481 
Q 1172 3119 1398 2916 
Q 1625 2713 2034 2713 
Q 2441 2713 2670 2916 
Q 2900 3119 2900 3481 
Q 2900 3844 2670 4047 
Q 2441 4250 2034 4250 
Q 1625 4250 1398 4047 
Q 1172 3844 1172 3481 
z
" transform="scale(0.015625)"/>
       </defs>
       <use xlink:href="#DejaVuSans-30"/>
       <use xlink:href="#DejaVuSans-2e" x="63.623047"/>
       <use xlink:href="#DejaVuSans-38" x="95.410156"/>
      </g>
     </g>
    </g>
    <g id="xtick_6">
     <g id="line2d_6">
      <g>
       <use xlink:href="#m3925a16d4d" x="363.363068" y="224.64" style="stroke: #000000; stroke-width: 0.8"/>
      </g>
     </g>
     <g id="text_6">
      <!-- 1.0 -->
      <g transform="translate(355.411506 239.238437)scale(0.1 -0.1)">
       <defs>
        <path id="DejaVuSans-31" d="M 794 531 
L 1825 531 
L 1825 4091 
L 703 3866 
L 703 4441 
L 1819 4666 
L 2450 4666 
L 2450 531 
L 3481 531 
L 3481 0 
L 794 0 
L 794 531 
z
" transform="scale(0.015625)"/>
       </defs>
       <use xlink:href="#DejaVuSans-31"/>
       <use xlink:href="#DejaVuSans-2e" x="63.623047"/>
       <use xlink:href="#DejaVuSans-30" x="95.410156"/>
      </g>
     </g>
    </g>
    <g id="text_7">
     <!-- Propagation direction -->
     <g transform="translate(157.699219 252.916562)scale(0.1 -0.1)">
      <defs>
       <path id="DejaVuSans-50" d="M 1259 4147 
L 1259 2394 
L 2053 2394 
Q 2494 2394 2734 2622 
Q 2975 2850 2975 3272 
Q 2975 3691 2734 3919 
Q 2494 4147 2053 4147 
L 1259 4147 
z
M 628 4666 
L 2053 4666 
Q 2838 4666 3239 4311 
Q 3641 3956 3641 3272 
Q 3641 2581 3239 2228 
Q 2838 1875 2053 1875 
L 1259 1875 
L 1259 0 
L 628 0 
L 628 4666 
z
" transform="scale(0.015625)"/>
       <path id="DejaVuSans-72" d="M 2631 2963 
Q 2534 3019 2420 3045 
Q 2306 3072 2169 3072 
Q 1681 3072 1420 2755 
Q 1159 2438 1159 1844 
L 1159 0 
L 581 0 
L 581 3500 
L 1159 3500 
L 1159 2956 
Q 1341 3275 1631 3429 
Q 1922 3584 2338 3584 
Q 2397 3584 2469 3576 
Q 2541 3569 2628 3553 
L 2631 2963 
z
" transform="scale(0.015625)"/>
       <path id="DejaVuSans-6f" d="M 1959 3097 
Q 1497 3097 1228 2736 
Q 959 2375 959 1747 
Q 959 1119 1226 758 
Q 1494 397 1959 397 
Q 2419 397 2687 759 
Q 2956 1122 2956 1747 
Q 2956 2369 2687 2733 
Q 2419 3097 1959 3097 
z
M 1959 3584 
Q 2709 3584 3137 3096 
Q 3566 2609 3566 1747 
Q 3566 888 3137 398 
Q 2709 -91 1959 -91 
Q 1206 -91 779 398 
Q 353 888 353 1747 
Q 353 2609 779 3096 
Q 1206 3584 1959 3584 
z
" transform="scale(0.015625)"/>
       <path id="DejaVuSans-70" d="M 1159 525 
L 1159 -1331 
L 581 -1331 
L 581 3500 
L 1159 3500 
L 1159 2969 
Q 1341 3281 1617 3432 
Q 1894 3584 2278 3584 
Q 2916 3584 3314 3078 
Q 3713 2572 3713 1747 
Q 3713 922 3314 415 
Q 2916 -91 2278 -91 
Q 1894 -91 1617 61 
Q 1341 213 1159 525 
z
M 3116 1747 
Q 3116 2381 2855 2742 
Q 2594 3103 2138 3103 
Q 1681 3103 1420 2742 
Q 1159 2381 1159 1747 
Q 1159 1113 1420 752 
Q 1681 391 2138 391 
Q 2594 391 2855 752 
Q 3116 1113 3116 1747 
z
" transform="scale(0.015625)"/>
       <path id="DejaVuSans-61" d="M 2194 1759 
Q 1497 1759 1228 1600 
Q 959 1441 959 1056 
Q 959 750 1161 570 
Q 1363 391 1709 391 
Q 2188 391 2477 730 
Q 2766 1069 2766 1631 
L 2766 1759 
L 2194 1759 
z
M 3341 1997 
L 3341 0 
L 2766 0 
L 2766 531 
Q 2569 213 2275 61 
Q 1981 -91 1556 -91 
Q 1019 -91 701 211 
Q 384 513 384 1019 
Q 384 1609 779 1909 
Q 1175 2209 1959 2209 
L 2766 2209 
L 2766 2266 
Q 2766 2663 2505 2880 
Q 2244 3097 1772 3097 
Q 1472 3097 1187 3025 
Q 903 2953 641 2809 
L 641 3341 
Q 956 3463 1253 3523 
Q 1550 3584 1831 3584 
Q 2591 3584 2966 3190 
Q 3341 2797 3341 1997 
z
" transform="scale(0.015625)"/>
       <path id="DejaVuSans-67" d="M 2906 1791 
Q 2906 2416 2648 2759 
Q 2391 3103 1925 3103 
Q 1463 3103 1205 2759 
Q 947 2416 947 1791 
Q 947 1169 1205 825 
Q 1463 481 1925 481 
Q 2391 481 2648 825 
Q 2906 1169 2906 1791 
z
M 3481 434 
Q 3481 -459 3084 -895 
Q 2688 -1331 1869 -1331 
Q 1566 -1331 1297 -1286 
Q 1028 -1241 775 -1147 
L 775 -588 
Q 1028 -725 1275 -790 
Q 1522 -856 1778 -856 
Q 2344 -856 2625 -561 
Q 2906 -266 2906 331 
L 2906 616 
Q 2728 306 2450 153 
Q 2172 0 1784 0 
Q 1141 0 747 490 
Q 353 981 353 1791 
Q 353 2603 747 3093 
Q 1141 3584 1784 3584 
Q 2172 3584 2450 3431 
Q 2728 3278 2906 2969 
L 2906 3500 
L 3481 3500 
L 3481 434 
z
" transform="scale(0.015625)"/>
       <path id="DejaVuSans-74" d="M 1172 4494 
L 1172 3500 
L 2356 3500 
L 2356 3053 
L 1172 3053 
L 1172 1153 
Q 1172 725 1289 603 
Q 1406 481 1766 481 
L 2356 481 
L 2356 0 
L 1766 0 
Q 1100 0 847 248 
Q 594 497 594 1153 
L 594 3053 
L 172 3053 
L 172 3500 
L 594 3500 
L 594 4494 
L 1172 4494 
z
" transform="scale(0.015625)"/>
       <path id="DejaVuSans-69" d="M 603 3500 
L 1178 3500 
L 1178 0 
L 603 0 
L 603 3500 
z
M 603 4863 
L 1178 4863 
L 1178 4134 
L 603 4134 
L 603 4863 
z
" transform="scale(0.015625)"/>
       <path id="DejaVuSans-6e" d="M 3513 2113 
L 3513 0 
L 2938 0 
L 2938 2094 
Q 2938 2591 2744 2837 
Q 2550 3084 2163 3084 
Q 1697 3084 1428 2787 
Q 1159 2491 1159 1978 
L 1159 0 
L 581 0 
L 581 3500 
L 1159 3500 
L 1159 2956 
Q 1366 3272 1645 3428 
Q 1925 3584 2291 3584 
Q 2894 3584 3203 3211 
Q 3513 2838 3513 2113 
z
" transform="scale(0.015625)"/>
       <path id="DejaVuSans-20" transform="scale(0.015625)"/>
       <path id="DejaVuSans-64" d="M 2906 2969 
L 2906 4863 
L 3481 4863 
L 3481 0 
L 2906 0 
L 2906 525 
Q 2725 213 2448 61 
Q 2172 -91 1784 -91 
Q 1150 -91 751 415 
Q 353 922 353 1747 
Q 353 2572 751 3078 
Q 1150 3584 1784 3584 
Q 2172 3584 2448 3432 
Q 2725 3281 2906 2969 
z
M 947 1747 
Q 947 1113 1208 752 
Q 1469 391 1925 391 
Q 2381 391 2643 752 
Q 2906 1113 2906 1747 
Q 2906 2381 2643 2742 
Q 2381 3103 1925 3103 
Q 1469 3103 1208 2742 
Q 947 2381 947 1747 
z
" transform="scale(0.015625)"/>
       <path id="DejaVuSans-65" d="M 3597 1894 
L 3597 1613 
L 953 1613 
Q 991 1019 1311 708 
Q 1631 397 2203 397 
Q 2534 397 2845 478 
Q 3156 559 3463 722 
L 3463 178 
Q 3153 47 2828 -22 
Q 2503 -91 2169 -91 
Q 1331 -91 842 396 
Q 353 884 353 1716 
Q 353 2575 817 3079 
Q 1281 3584 2069 3584 
Q 2775 3584 3186 3129 
Q 3597 2675 3597 1894 
z
M 3022 2063 
Q 3016 2534 2758 2815 
Q 2500 3097 2075 3097 
Q 1594 3097 1305 2825 
Q 1016 2553 972 2059 
L 3022 2063 
z
" transform="scale(0.015625)"/>
       <path id="DejaVuSans-63" d="M 3122 3366 
L 3122 2828 
Q 2878 2963 2633 3030 
Q 2388 3097 2138 3097 
Q 1578 3097 1268 2742 
Q 959 2388 959 1747 
Q 959 1106 1268 751 
Q 1578 397 2138 397 
Q 2388 397 2633 464 
Q 2878 531 3122 666 
L 3122 134 
Q 2881 22 2623 -34 
Q 2366 -91 2075 -91 
Q 1284 -91 818 406 
Q 353 903 353 1747 
Q 353 2603 823 3093 
Q 1294 3584 2113 3584 
Q 2378 3584 2631 3529 
Q 2884 3475 3122 3366 
z
" transform="scale(0.015625)"/>
      </defs>
      <use xlink:href="#DejaVuSans-50"/>
      <use xlink:href="#DejaVuSans-72" x="58.552734"/>
      <use xlink:href="#DejaVuSans-6f" x="97.416016"/>
      <use xlink:href="#DejaVuSans-70" x="158.597656"/>
      <use xlink:href="#DejaVuSans-61" x="222.074219"/>
      <use xlink:href="#DejaVuSans-67" x="283.353516"/>
      <use xlink:href="#DejaVuSans-61" x="346.830078"/>
      <use xlink:href="#DejaVuSans-74" x="408.109375"/>
      <use xlink:href="#DejaVuSans-69" x="447.318359"/>
      <use xlink:href="#DejaVuSans-6f" x="475.101562"/>
      <use xlink:href="#DejaVuSans-6e" x="536.283203"/>
      <use xlink:href="#DejaVuSans-20" x="599.662109"/>
      <use xlink:href="#DejaVuSans-64" x="631.449219"/>
      <use xlink:href="#DejaVuSans-69" x="694.925781"/>
      <use xlink:href="#DejaVuSans-72" x="722.708984"/>
      <use xlink:href="#DejaVuSans-65" x="761.572266"/>
      <use xlink:href="#DejaVuSans-63" x="823.095703"/>
      <use xlink:href="#DejaVuSans-74" x="878.076172"/>
      <use xlink:href="#DejaVuSans-69" x="917.285156"/>
      <use xlink:href="#DejaVuSans-6f" x="945.068359"/>
      <use xlink:href="#DejaVuSans-6e" x="1006.25"/>
     </g>
    </g>
   </g>
   <g id="matplotlib.axis_2">
    <g id="ytick_1">
     <g id="line2d_7">
      <defs>
       <path id="m13437cf43b" d="M 0 0 
L -3.5 0 
" style="stroke: #000000; stroke-width: 0.8"/>
      </defs>
      <g>
       <use xlink:href="#m13437cf43b" x="43.78125" y="224.64" style="stroke: #000000; stroke-width: 0.8"/>
      </g>
     </g>
     <g id="text_8">
      <!-- 0.0 -->
      <g transform="translate(20.878125 228.439219)scale(0.1 -0.1)">
       <use xlink:href="#DejaVuSans-30"/>
       <use xlink:href="#DejaVuSans-2e" x="63.623047"/>
       <use xlink:href="#DejaVuSans-30" x="95.410156"/>
      </g>
     </g>
    </g>
    <g id="ytick_2">
     <g id="line2d_8">
      <g>
       <use xlink:href="#m13437cf43b" x="43.78125" y="177.948986" style="stroke: #000000; stroke-width: 0.8"/>
      </g>
     </g>
     <g id="text_9">
      <!-- 0.5 -->
      <g transform="translate(20.878125 181.748204)scale(0.1 -0.1)">
       <defs>
        <path id="DejaVuSans-35" d="M 691 4666 
L 3169 4666 
L 3169 4134 
L 1269 4134 
L 1269 2991 
Q 1406 3038 1543 3061 
Q 1681 3084 1819 3084 
Q 2600 3084 3056 2656 
Q 3513 2228 3513 1497 
Q 3513 744 3044 326 
Q 2575 -91 1722 -91 
Q 1428 -91 1123 -41 
Q 819 9 494 109 
L 494 744 
Q 775 591 1075 516 
Q 1375 441 1709 441 
Q 2250 441 2565 725 
Q 2881 1009 2881 1497 
Q 2881 1984 2565 2268 
Q 2250 2553 1709 2553 
Q 1456 2553 1204 2497 
Q 953 2441 691 2322 
L 691 4666 
z
" transform="scale(0.015625)"/>
       </defs>
       <use xlink:href="#DejaVuSans-30"/>
       <use xlink:href="#DejaVuSans-2e" x="63.623047"/>
       <use xlink:href="#DejaVuSans-35" x="95.410156"/>
      </g>
     </g>
    </g>
    <g id="ytick_3">
     <g id="line2d_9">
      <g>
       <use xlink:href="#m13437cf43b" x="43.78125" y="131.257971" style="stroke: #000000; stroke-width: 0.8"/>
      </g>
     </g>
     <g id="text_10">
      <!-- 1.0 -->
      <g transform="translate(20.878125 135.05719)scale(0.1 -0.1)">
       <use xlink:href="#DejaVuSans-31"/>
       <use xlink:href="#DejaVuSans-2e" x="63.623047"/>
       <use xlink:href="#DejaVuSans-30" x="95.410156"/>
      </g>
     </g>
    </g>
    <g id="ytick_4">
     <g id="line2d_10">
      <g>
       <use xlink:href="#m13437cf43b" x="43.78125" y="84.566957" style="stroke: #000000; stroke-width: 0.8"/>
      </g>
     </g>
     <g id="text_11">
      <!-- 1.5 -->
      <g transform="translate(20.878125 88.366176)scale(0.1 -0.1)">
       <use xlink:href="#DejaVuSans-31"/>
       <use xlink:href="#DejaVuSans-2e" x="63.623047"/>
       <use xlink:href="#DejaVuSans-35" x="95.410156"/>
      </g>
     </g>
    </g>
    <g id="ytick_5">
     <g id="line2d_11">
      <g>
       <use xlink:href="#m13437cf43b" x="43.78125" y="37.875942" style="stroke: #000000; stroke-width: 0.8"/>
      </g>
     </g>
     <g id="text_12">
      <!-- 2.0 -->
      <g transform="translate(20.878125 41.675161)scale(0.1 -0.1)">
       <use xlink:href="#DejaVuSans-32"/>
       <use xlink:href="#DejaVuSans-2e" x="63.623047"/>
       <use xlink:href="#DejaVuSans-30" x="95.410156"/>
      </g>
     </g>
    </g>
    <g id="text_13">
     <!-- Probability density -->
     <g transform="translate(14.798438 162.270781)rotate(-90)scale(0.1 -0.1)">
      <defs>
       <path id="DejaVuSans-62" d="M 3116 1747 
Q 3116 2381 2855 2742 
Q 2594 3103 2138 3103 
Q 1681 3103 1420 2742 
Q 1159 2381 1159 1747 
Q 1159 1113 1420 752 
Q 1681 391 2138 391 
Q 2594 391 2855 752 
Q 3116 1113 3116 1747 
z
M 1159 2969 
Q 1341 3281 1617 3432 
Q 1894 3584 2278 3584 
Q 2916 3584 3314 3078 
Q 3713 2572 3713 1747 
Q 3713 922 3314 415 
Q 2916 -91 2278 -91 
Q 1894 -91 1617 61 
Q 1341 213 1159 525 
L 1159 0 
L 581 0 
L 581 4863 
L 1159 4863 
L 1159 2969 
z
" transform="scale(0.015625)"/>
       <path id="DejaVuSans-6c" d="M 603 4863 
L 1178 4863 
L 1178 0 
L 603 0 
L 603 4863 
z
" transform="scale(0.015625)"/>
       <path id="DejaVuSans-79" d="M 2059 -325 
Q 1816 -950 1584 -1140 
Q 1353 -1331 966 -1331 
L 506 -1331 
L 506 -850 
L 844 -850 
Q 1081 -850 1212 -737 
Q 1344 -625 1503 -206 
L 1606 56 
L 191 3500 
L 800 3500 
L 1894 763 
L 2988 3500 
L 3597 3500 
L 2059 -325 
z
" transform="scale(0.015625)"/>
       <path id="DejaVuSans-73" d="M 2834 3397 
L 2834 2853 
Q 2591 2978 2328 3040 
Q 2066 3103 1784 3103 
Q 1356 3103 1142 2972 
Q 928 2841 928 2578 
Q 928 2378 1081 2264 
Q 1234 2150 1697 2047 
L 1894 2003 
Q 2506 1872 2764 1633 
Q 3022 1394 3022 966 
Q 3022 478 2636 193 
Q 2250 -91 1575 -91 
Q 1294 -91 989 -36 
Q 684 19 347 128 
L 347 722 
Q 666 556 975 473 
Q 1284 391 1588 391 
Q 1994 391 2212 530 
Q 2431 669 2431 922 
Q 2431 1156 2273 1281 
Q 2116 1406 1581 1522 
L 1381 1569 
Q 847 1681 609 1914 
Q 372 2147 372 2553 
Q 372 3047 722 3315 
Q 1072 3584 1716 3584 
Q 2034 3584 2315 3537 
Q 2597 3491 2834 3397 
z
" transform="scale(0.015625)"/>
      </defs>
      <use xlink:href="#DejaVuSans-50"/>
      <use xlink:href="#DejaVuSans-72" x="58.552734"/>
      <use xlink:href="#DejaVuSans-6f" x="97.416016"/>
      <use xlink:href="#DejaVuSans-62" x="158.597656"/>
      <use xlink:href="#DejaVuSans-61" x="222.074219"/>
      <use xlink:href="#DejaVuSans-62" x="283.353516"/>
      <use xlink:href="#DejaVuSans-69" x="346.830078"/>
      <use xlink:href="#DejaVuSans-6c" x="374.613281"/>
      <use xlink:href="#DejaVuSans-69" x="402.396484"/>
      <use xlink:href="#DejaVuSans-74" x="430.179688"/>
      <use xlink:href="#DejaVuSans-79" x="469.388672"/>
      <use xlink:href="#DejaVuSans-20" x="528.568359"/>
      <use xlink:href="#DejaVuSans-64" x="560.355469"/>
      <use xlink:href="#DejaVuSans-65" x="623.832031"/>
      <use xlink:href="#DejaVuSans-6e" x="685.355469"/>
      <use xlink:href="#DejaVuSans-73" x="748.734375"/>
      <use xlink:href="#DejaVuSans-69" x="800.833984"/>
      <use xlink:href="#DejaVuSans-74" x="828.617188"/>
      <use xlink:href="#DejaVuSans-79" x="867.826172"/>
     </g>
    </g>
   </g>
   <g id="line2d_12">
    <path d="M 58.999432 224.64 
L 363.363068 37.875942 
L 363.363068 37.875942 
" clip-path="url(#pdf5e58649a)" style="fill: none; stroke: #ff7f0e; stroke-width: 1.5; stroke-linecap: square"/>
   </g>
   <g id="patch_203">
    <path d="M 43.78125 224.64 
L 43.78125 7.2 
" style="fill: none; stroke: #000000; stroke-width: 0.8; stroke-linejoin: miter; stroke-linecap: square"/>
   </g>
   <g id="patch_204">
    <path d="M 378.58125 224.64 
L 378.58125 7.2 
" style="fill: none; stroke: #000000; stroke-width: 0.8; stroke-linejoin: miter; stroke-linecap: square"/>
   </g>
   <g id="patch_205">
    <path d="M 43.78125 224.64 
L 378.58125 224.64 
" style="fill: none; stroke: #000000; stroke-width: 0.8; stroke-linejoin: miter; stroke-linecap: square"/>
   </g>
   <g id="patch_206">
    <path d="M 43.78125 7.2 
L 378.58125 7.2 
" style="fill: none; stroke: #000000; stroke-width: 0.8; stroke-linejoin: miter; stroke-linecap: square"/>
   </g>
  </g>
 </g>
 <defs>
  <clipPath id="pdf5e58649a">
   <rect x="43.78125" y="7.2" width="334.8" height="217.44"/>
  </clipPath>
 </defs>
</svg>
