<?xml version="1.0" encoding="utf-8" standalone="no"?>
<!DOCTYPE svg PUBLIC "-//W3C//DTD SVG 1.1//EN"
  "http://www.w3.org/Graphics/SVG/1.1/DTD/svg11.dtd">
<svg xmlns:xlink="http://www.w3.org/1999/xlink" width="392.14375pt" height="262.19625pt" viewBox="0 0 392.14375 262.19625" xmlns="http://www.w3.org/2000/svg" version="1.1">
 <metadata>
  <rdf:RDF xmlns:dc="http://purl.org/dc/elements/1.1/" xmlns:cc="http://creativecommons.org/ns#" xmlns:rdf="http://www.w3.org/1999/02/22-rdf-syntax-ns#">
   <cc:Work>
    <dc:type rdf:resource="http://purl.org/dc/dcmitype/StillImage"/>
    <dc:date>2022-07-29T21:57:42.142186</dc:date>
    <dc:format>image/svg+xml</dc:format>
    <dc:creator>
     <cc:Agent>
      <dc:title>Matplotlib v3.5.2, https://matplotlib.org/</dc:title>
     </cc:Agent>
    </dc:creator>
   </cc:Work>
  </rdf:RDF>
 </metadata>
 <defs>
  <style type="text/css">*{stroke-linejoin: round; stroke-linecap: butt}</style>
 </defs>
 <g id="figure_1">
  <g id="patch_1">
   <path d="M 0 262.19625 
L 392.14375 262.19625 
L 392.14375 0 
L 0 0 
L 0 262.19625 
z
" style="fill: none"/>
  </g>
  <g id="axes_1">
   <g id="patch_2">
    <path d="M 50.14375 224.64 
L 384.94375 224.64 
L 384.94375 7.2 
L 50.14375 7.2 
z
" style="fill: #ffffff"/>
   </g>
   <g id="patch_3">
    <path d="M 67.704673 224.64 
L 69.214755 224.64 
L 69.214755 222.569143 
L 67.704673 222.569143 
z
" clip-path="url(#p69c539660a)" style="fill: #1f77b4"/>
   </g>
   <g id="patch_4">
    <path d="M 69.214755 224.64 
L 70.724837 224.64 
L 70.724837 220.498286 
L 69.214755 220.498286 
z
" clip-path="url(#p69c539660a)" style="fill: #1f77b4"/>
   </g>
   <g id="patch_5">
    <path d="M 70.724837 224.64 
L 72.23492 224.64 
L 72.23492 221.016 
L 70.724837 221.016 
z
" clip-path="url(#p69c539660a)" style="fill: #1f77b4"/>
   </g>
   <g id="patch_6">
    <path d="M 72.23492 224.64 
L 73.745002 224.64 
L 73.745002 222.051429 
L 72.23492 222.051429 
z
" clip-path="url(#p69c539660a)" style="fill: #1f77b4"/>
   </g>
   <g id="patch_7">
    <path d="M 73.745002 224.64 
L 75.255085 224.64 
L 75.255085 219.980571 
L 73.745002 219.980571 
z
" clip-path="url(#p69c539660a)" style="fill: #1f77b4"/>
   </g>
   <g id="patch_8">
    <path d="M 75.255085 224.64 
L 76.765167 224.64 
L 76.765167 215.838857 
L 75.255085 215.838857 
z
" clip-path="url(#p69c539660a)" style="fill: #1f77b4"/>
   </g>
   <g id="patch_9">
    <path d="M 76.765167 224.64 
L 78.275249 224.64 
L 78.275249 211.697143 
L 76.765167 211.697143 
z
" clip-path="url(#p69c539660a)" style="fill: #1f77b4"/>
   </g>
   <g id="patch_10">
    <path d="M 78.275249 224.64 
L 79.785332 224.64 
L 79.785332 216.356571 
L 78.275249 216.356571 
z
" clip-path="url(#p69c539660a)" style="fill: #1f77b4"/>
   </g>
   <g id="patch_11">
    <path d="M 79.785332 224.64 
L 81.295414 224.64 
L 81.295414 215.321143 
L 79.785332 215.321143 
z
" clip-path="url(#p69c539660a)" style="fill: #1f77b4"/>
   </g>
   <g id="patch_12">
    <path d="M 81.295414 224.64 
L 82.805496 224.64 
L 82.805496 216.356571 
L 81.295414 216.356571 
z
" clip-path="url(#p69c539660a)" style="fill: #1f77b4"/>
   </g>
   <g id="patch_13">
    <path d="M 82.805496 224.64 
L 84.315579 224.64 
L 84.315579 211.179429 
L 82.805496 211.179429 
z
" clip-path="url(#p69c539660a)" style="fill: #1f77b4"/>
   </g>
   <g id="patch_14">
    <path d="M 84.315579 224.64 
L 85.825661 224.64 
L 85.825661 209.626286 
L 84.315579 209.626286 
z
" clip-path="url(#p69c539660a)" style="fill: #1f77b4"/>
   </g>
   <g id="patch_15">
    <path d="M 85.825661 224.64 
L 87.335743 224.64 
L 87.335743 210.661714 
L 85.825661 210.661714 
z
" clip-path="url(#p69c539660a)" style="fill: #1f77b4"/>
   </g>
   <g id="patch_16">
    <path d="M 87.335743 224.64 
L 88.845826 224.64 
L 88.845826 210.144 
L 87.335743 210.144 
z
" clip-path="url(#p69c539660a)" style="fill: #1f77b4"/>
   </g>
   <g id="patch_17">
    <path d="M 88.845826 224.64 
L 90.355908 224.64 
L 90.355908 210.661714 
L 88.845826 210.661714 
z
" clip-path="url(#p69c539660a)" style="fill: #1f77b4"/>
   </g>
   <g id="patch_18">
    <path d="M 90.355908 224.64 
L 91.86599 224.64 
L 91.86599 202.378286 
L 90.355908 202.378286 
z
" clip-path="url(#p69c539660a)" style="fill: #1f77b4"/>
   </g>
   <g id="patch_19">
    <path d="M 91.86599 224.64 
L 93.376073 224.64 
L 93.376073 206.52 
L 91.86599 206.52 
z
" clip-path="url(#p69c539660a)" style="fill: #1f77b4"/>
   </g>
   <g id="patch_20">
    <path d="M 93.376073 224.64 
L 94.886155 224.64 
L 94.886155 201.860571 
L 93.376073 201.860571 
z
" clip-path="url(#p69c539660a)" style="fill: #1f77b4"/>
   </g>
   <g id="patch_21">
    <path d="M 94.886155 224.64 
L 96.396238 224.64 
L 96.396238 204.449143 
L 94.886155 204.449143 
z
" clip-path="url(#p69c539660a)" style="fill: #1f77b4"/>
   </g>
   <g id="patch_22">
    <path d="M 96.396238 224.64 
L 97.90632 224.64 
L 97.90632 205.484571 
L 96.396238 205.484571 
z
" clip-path="url(#p69c539660a)" style="fill: #1f77b4"/>
   </g>
   <g id="patch_23">
    <path d="M 97.90632 224.64 
L 99.416402 224.64 
L 99.416402 200.825143 
L 97.90632 200.825143 
z
" clip-path="url(#p69c539660a)" style="fill: #1f77b4"/>
   </g>
   <g id="patch_24">
    <path d="M 99.416402 224.64 
L 100.926485 224.64 
L 100.926485 203.413714 
L 99.416402 203.413714 
z
" clip-path="url(#p69c539660a)" style="fill: #1f77b4"/>
   </g>
   <g id="patch_25">
    <path d="M 100.926485 224.64 
L 102.436567 224.64 
L 102.436567 199.272 
L 100.926485 199.272 
z
" clip-path="url(#p69c539660a)" style="fill: #1f77b4"/>
   </g>
   <g id="patch_26">
    <path d="M 102.436567 224.64 
L 103.946649 224.64 
L 103.946649 197.201143 
L 102.436567 197.201143 
z
" clip-path="url(#p69c539660a)" style="fill: #1f77b4"/>
   </g>
   <g id="patch_27">
    <path d="M 103.946649 224.64 
L 105.456732 224.64 
L 105.456732 198.236571 
L 103.946649 198.236571 
z
" clip-path="url(#p69c539660a)" style="fill: #1f77b4"/>
   </g>
   <g id="patch_28">
    <path d="M 105.456732 224.64 
L 106.966814 224.64 
L 106.966814 202.896 
L 105.456732 202.896 
z
" clip-path="url(#p69c539660a)" style="fill: #1f77b4"/>
   </g>
   <g id="patch_29">
    <path d="M 106.966814 224.64 
L 108.476896 224.64 
L 108.476896 193.577143 
L 106.966814 193.577143 
z
" clip-path="url(#p69c539660a)" style="fill: #1f77b4"/>
   </g>
   <g id="patch_30">
    <path d="M 108.476896 224.64 
L 109.986979 224.64 
L 109.986979 189.953143 
L 108.476896 189.953143 
z
" clip-path="url(#p69c539660a)" style="fill: #1f77b4"/>
   </g>
   <g id="patch_31">
    <path d="M 109.986979 224.64 
L 111.497061 224.64 
L 111.497061 195.130286 
L 109.986979 195.130286 
z
" clip-path="url(#p69c539660a)" style="fill: #1f77b4"/>
   </g>
   <g id="patch_32">
    <path d="M 111.497061 224.64 
L 113.007144 224.64 
L 113.007144 194.612571 
L 111.497061 194.612571 
z
" clip-path="url(#p69c539660a)" style="fill: #1f77b4"/>
   </g>
   <g id="patch_33">
    <path d="M 113.007144 224.64 
L 114.517226 224.64 
L 114.517226 185.811429 
L 113.007144 185.811429 
z
" clip-path="url(#p69c539660a)" style="fill: #1f77b4"/>
   </g>
   <g id="patch_34">
    <path d="M 114.517226 224.64 
L 116.027308 224.64 
L 116.027308 195.130286 
L 114.517226 195.130286 
z
" clip-path="url(#p69c539660a)" style="fill: #1f77b4"/>
   </g>
   <g id="patch_35">
    <path d="M 116.027308 224.64 
L 117.537391 224.64 
L 117.537391 183.222857 
L 116.027308 183.222857 
z
" clip-path="url(#p69c539660a)" style="fill: #1f77b4"/>
   </g>
   <g id="patch_36">
    <path d="M 117.537391 224.64 
L 119.047473 224.64 
L 119.047473 190.470857 
L 117.537391 190.470857 
z
" clip-path="url(#p69c539660a)" style="fill: #1f77b4"/>
   </g>
   <g id="patch_37">
    <path d="M 119.047473 224.64 
L 120.557555 224.64 
L 120.557555 192.541714 
L 119.047473 192.541714 
z
" clip-path="url(#p69c539660a)" style="fill: #1f77b4"/>
   </g>
   <g id="patch_38">
    <path d="M 120.557555 224.64 
L 122.067638 224.64 
L 122.067638 186.846857 
L 120.557555 186.846857 
z
" clip-path="url(#p69c539660a)" style="fill: #1f77b4"/>
   </g>
   <g id="patch_39">
    <path d="M 122.067638 224.64 
L 123.57772 224.64 
L 123.57772 192.541714 
L 122.067638 192.541714 
z
" clip-path="url(#p69c539660a)" style="fill: #1f77b4"/>
   </g>
   <g id="patch_40">
    <path d="M 123.57772 224.64 
L 125.087802 224.64 
L 125.087802 182.187429 
L 123.57772 182.187429 
z
" clip-path="url(#p69c539660a)" style="fill: #1f77b4"/>
   </g>
   <g id="patch_41">
    <path d="M 125.087802 224.64 
L 126.597885 224.64 
L 126.597885 176.492571 
L 125.087802 176.492571 
z
" clip-path="url(#p69c539660a)" style="fill: #1f77b4"/>
   </g>
   <g id="patch_42">
    <path d="M 126.597885 224.64 
L 128.107967 224.64 
L 128.107967 187.364571 
L 126.597885 187.364571 
z
" clip-path="url(#p69c539660a)" style="fill: #1f77b4"/>
   </g>
   <g id="patch_43">
    <path d="M 128.107967 224.64 
L 129.61805 224.64 
L 129.61805 189.435429 
L 128.107967 189.435429 
z
" clip-path="url(#p69c539660a)" style="fill: #1f77b4"/>
   </g>
   <g id="patch_44">
    <path d="M 129.61805 224.64 
L 131.128132 224.64 
L 131.128132 185.811429 
L 129.61805 185.811429 
z
" clip-path="url(#p69c539660a)" style="fill: #1f77b4"/>
   </g>
   <g id="patch_45">
    <path d="M 131.128132 224.64 
L 132.638214 224.64 
L 132.638214 180.116571 
L 131.128132 180.116571 
z
" clip-path="url(#p69c539660a)" style="fill: #1f77b4"/>
   </g>
   <g id="patch_46">
    <path d="M 132.638214 224.64 
L 134.148297 224.64 
L 134.148297 179.598857 
L 132.638214 179.598857 
z
" clip-path="url(#p69c539660a)" style="fill: #1f77b4"/>
   </g>
   <g id="patch_47">
    <path d="M 134.148297 224.64 
L 135.658379 224.64 
L 135.658379 179.081143 
L 134.148297 179.081143 
z
" clip-path="url(#p69c539660a)" style="fill: #1f77b4"/>
   </g>
   <g id="patch_48">
    <path d="M 135.658379 224.64 
L 137.168461 224.64 
L 137.168461 173.386286 
L 135.658379 173.386286 
z
" clip-path="url(#p69c539660a)" style="fill: #1f77b4"/>
   </g>
   <g id="patch_49">
    <path d="M 137.168461 224.64 
L 138.678544 224.64 
L 138.678544 177.528 
L 137.168461 177.528 
z
" clip-path="url(#p69c539660a)" style="fill: #1f77b4"/>
   </g>
   <g id="patch_50">
    <path d="M 138.678544 224.64 
L 140.188626 224.64 
L 140.188626 179.598857 
L 138.678544 179.598857 
z
" clip-path="url(#p69c539660a)" style="fill: #1f77b4"/>
   </g>
   <g id="patch_51">
    <path d="M 140.188626 224.64 
L 141.698708 224.64 
L 141.698708 160.961143 
L 140.188626 160.961143 
z
" clip-path="url(#p69c539660a)" style="fill: #1f77b4"/>
   </g>
   <g id="patch_52">
    <path d="M 141.698708 224.64 
L 143.208791 224.64 
L 143.208791 175.457143 
L 141.698708 175.457143 
z
" clip-path="url(#p69c539660a)" style="fill: #1f77b4"/>
   </g>
   <g id="patch_53">
    <path d="M 143.208791 224.64 
L 144.718873 224.64 
L 144.718873 164.585143 
L 143.208791 164.585143 
z
" clip-path="url(#p69c539660a)" style="fill: #1f77b4"/>
   </g>
   <g id="patch_54">
    <path d="M 144.718873 224.64 
L 146.228955 224.64 
L 146.228955 168.726857 
L 144.718873 168.726857 
z
" clip-path="url(#p69c539660a)" style="fill: #1f77b4"/>
   </g>
   <g id="patch_55">
    <path d="M 146.228955 224.64 
L 147.739038 224.64 
L 147.739038 161.996571 
L 146.228955 161.996571 
z
" clip-path="url(#p69c539660a)" style="fill: #1f77b4"/>
   </g>
   <g id="patch_56">
    <path d="M 147.739038 224.64 
L 149.24912 224.64 
L 149.24912 163.549714 
L 147.739038 163.549714 
z
" clip-path="url(#p69c539660a)" style="fill: #1f77b4"/>
   </g>
   <g id="patch_57">
    <path d="M 149.24912 224.64 
L 150.759203 224.64 
L 150.759203 161.478857 
L 149.24912 161.478857 
z
" clip-path="url(#p69c539660a)" style="fill: #1f77b4"/>
   </g>
   <g id="patch_58">
    <path d="M 150.759203 224.64 
L 152.269285 224.64 
L 152.269285 164.585143 
L 150.759203 164.585143 
z
" clip-path="url(#p69c539660a)" style="fill: #1f77b4"/>
   </g>
   <g id="patch_59">
    <path d="M 152.269285 224.64 
L 153.779367 224.64 
L 153.779367 171.315429 
L 152.269285 171.315429 
z
" clip-path="url(#p69c539660a)" style="fill: #1f77b4"/>
   </g>
   <g id="patch_60">
    <path d="M 153.779367 224.64 
L 155.28945 224.64 
L 155.28945 170.28 
L 153.779367 170.28 
z
" clip-path="url(#p69c539660a)" style="fill: #1f77b4"/>
   </g>
   <g id="patch_61">
    <path d="M 155.28945 224.64 
L 156.799532 224.64 
L 156.799532 157.337143 
L 155.28945 157.337143 
z
" clip-path="url(#p69c539660a)" style="fill: #1f77b4"/>
   </g>
   <g id="patch_62">
    <path d="M 156.799532 224.64 
L 158.309614 224.64 
L 158.309614 165.102857 
L 156.799532 165.102857 
z
" clip-path="url(#p69c539660a)" style="fill: #1f77b4"/>
   </g>
   <g id="patch_63">
    <path d="M 158.309614 224.64 
L 159.819697 224.64 
L 159.819697 157.854857 
L 158.309614 157.854857 
z
" clip-path="url(#p69c539660a)" style="fill: #1f77b4"/>
   </g>
   <g id="patch_64">
    <path d="M 159.819697 224.64 
L 161.329779 224.64 
L 161.329779 150.089143 
L 159.819697 150.089143 
z
" clip-path="url(#p69c539660a)" style="fill: #1f77b4"/>
   </g>
   <g id="patch_65">
    <path d="M 161.329779 224.64 
L 162.839861 224.64 
L 162.839861 155.266286 
L 161.329779 155.266286 
z
" clip-path="url(#p69c539660a)" style="fill: #1f77b4"/>
   </g>
   <g id="patch_66">
    <path d="M 162.839861 224.64 
L 164.349944 224.64 
L 164.349944 163.032 
L 162.839861 163.032 
z
" clip-path="url(#p69c539660a)" style="fill: #1f77b4"/>
   </g>
   <g id="patch_67">
    <path d="M 164.349944 224.64 
L 165.860026 224.64 
L 165.860026 151.124571 
L 164.349944 151.124571 
z
" clip-path="url(#p69c539660a)" style="fill: #1f77b4"/>
   </g>
   <g id="patch_68">
    <path d="M 165.860026 224.64 
L 167.370109 224.64 
L 167.370109 153.195429 
L 165.860026 153.195429 
z
" clip-path="url(#p69c539660a)" style="fill: #1f77b4"/>
   </g>
   <g id="patch_69">
    <path d="M 167.370109 224.64 
L 168.880191 224.64 
L 168.880191 153.713143 
L 167.370109 153.713143 
z
" clip-path="url(#p69c539660a)" style="fill: #1f77b4"/>
   </g>
   <g id="patch_70">
    <path d="M 168.880191 224.64 
L 170.390273 224.64 
L 170.390273 159.408 
L 168.880191 159.408 
z
" clip-path="url(#p69c539660a)" style="fill: #1f77b4"/>
   </g>
   <g id="patch_71">
    <path d="M 170.390273 224.64 
L 171.900356 224.64 
L 171.900356 160.961143 
L 170.390273 160.961143 
z
" clip-path="url(#p69c539660a)" style="fill: #1f77b4"/>
   </g>
   <g id="patch_72">
    <path d="M 171.900356 224.64 
L 173.410438 224.64 
L 173.410438 155.266286 
L 171.900356 155.266286 
z
" clip-path="url(#p69c539660a)" style="fill: #1f77b4"/>
   </g>
   <g id="patch_73">
    <path d="M 173.410438 224.64 
L 174.92052 224.64 
L 174.92052 144.912 
L 173.410438 144.912 
z
" clip-path="url(#p69c539660a)" style="fill: #1f77b4"/>
   </g>
   <g id="patch_74">
    <path d="M 174.92052 224.64 
L 176.430603 224.64 
L 176.430603 155.266286 
L 174.92052 155.266286 
z
" clip-path="url(#p69c539660a)" style="fill: #1f77b4"/>
   </g>
   <g id="patch_75">
    <path d="M 176.430603 224.64 
L 177.940685 224.64 
L 177.940685 148.018286 
L 176.430603 148.018286 
z
" clip-path="url(#p69c539660a)" style="fill: #1f77b4"/>
   </g>
   <g id="patch_76">
    <path d="M 177.940685 224.64 
L 179.450767 224.64 
L 179.450767 149.053714 
L 177.940685 149.053714 
z
" clip-path="url(#p69c539660a)" style="fill: #1f77b4"/>
   </g>
   <g id="patch_77">
    <path d="M 179.450767 224.64 
L 180.96085 224.64 
L 180.96085 160.443429 
L 179.450767 160.443429 
z
" clip-path="url(#p69c539660a)" style="fill: #1f77b4"/>
   </g>
   <g id="patch_78">
    <path d="M 180.96085 224.64 
L 182.470932 224.64 
L 182.470932 137.664 
L 180.96085 137.664 
z
" clip-path="url(#p69c539660a)" style="fill: #1f77b4"/>
   </g>
   <g id="patch_79">
    <path d="M 182.470932 224.64 
L 183.981015 224.64 
L 183.981015 146.982857 
L 182.470932 146.982857 
z
" clip-path="url(#p69c539660a)" style="fill: #1f77b4"/>
   </g>
   <g id="patch_80">
    <path d="M 183.981015 224.64 
L 185.491097 224.64 
L 185.491097 137.664 
L 183.981015 137.664 
z
" clip-path="url(#p69c539660a)" style="fill: #1f77b4"/>
   </g>
   <g id="patch_81">
    <path d="M 185.491097 224.64 
L 187.001179 224.64 
L 187.001179 136.110857 
L 185.491097 136.110857 
z
" clip-path="url(#p69c539660a)" style="fill: #1f77b4"/>
   </g>
   <g id="patch_82">
    <path d="M 187.001179 224.64 
L 188.511262 224.64 
L 188.511262 134.557714 
L 187.001179 134.557714 
z
" clip-path="url(#p69c539660a)" style="fill: #1f77b4"/>
   </g>
   <g id="patch_83">
    <path d="M 188.511262 224.64 
L 190.021344 224.64 
L 190.021344 142.841143 
L 188.511262 142.841143 
z
" clip-path="url(#p69c539660a)" style="fill: #1f77b4"/>
   </g>
   <g id="patch_84">
    <path d="M 190.021344 224.64 
L 191.531426 224.64 
L 191.531426 140.770286 
L 190.021344 140.770286 
z
" clip-path="url(#p69c539660a)" style="fill: #1f77b4"/>
   </g>
   <g id="patch_85">
    <path d="M 191.531426 224.64 
L 193.041509 224.64 
L 193.041509 133.004571 
L 191.531426 133.004571 
z
" clip-path="url(#p69c539660a)" style="fill: #1f77b4"/>
   </g>
   <g id="patch_86">
    <path d="M 193.041509 224.64 
L 194.551591 224.64 
L 194.551591 146.465143 
L 193.041509 146.465143 
z
" clip-path="url(#p69c539660a)" style="fill: #1f77b4"/>
   </g>
   <g id="patch_87">
    <path d="M 194.551591 224.64 
L 196.061673 224.64 
L 196.061673 141.805714 
L 194.551591 141.805714 
z
" clip-path="url(#p69c539660a)" style="fill: #1f77b4"/>
   </g>
   <g id="patch_88">
    <path d="M 196.061673 224.64 
L 197.571756 224.64 
L 197.571756 136.628571 
L 196.061673 136.628571 
z
" clip-path="url(#p69c539660a)" style="fill: #1f77b4"/>
   </g>
   <g id="patch_89">
    <path d="M 197.571756 224.64 
L 199.081838 224.64 
L 199.081838 130.416 
L 197.571756 130.416 
z
" clip-path="url(#p69c539660a)" style="fill: #1f77b4"/>
   </g>
   <g id="patch_90">
    <path d="M 199.081838 224.64 
L 200.591921 224.64 
L 200.591921 127.827429 
L 199.081838 127.827429 
z
" clip-path="url(#p69c539660a)" style="fill: #1f77b4"/>
   </g>
   <g id="patch_91">
    <path d="M 200.591921 224.64 
L 202.102003 224.64 
L 202.102003 139.217143 
L 200.591921 139.217143 
z
" clip-path="url(#p69c539660a)" style="fill: #1f77b4"/>
   </g>
   <g id="patch_92">
    <path d="M 202.102003 224.64 
L 203.612085 224.64 
L 203.612085 131.969143 
L 202.102003 131.969143 
z
" clip-path="url(#p69c539660a)" style="fill: #1f77b4"/>
   </g>
   <g id="patch_93">
    <path d="M 203.612085 224.64 
L 205.122168 224.64 
L 205.122168 135.075429 
L 203.612085 135.075429 
z
" clip-path="url(#p69c539660a)" style="fill: #1f77b4"/>
   </g>
   <g id="patch_94">
    <path d="M 205.122168 224.64 
L 206.63225 224.64 
L 206.63225 144.394286 
L 205.122168 144.394286 
z
" clip-path="url(#p69c539660a)" style="fill: #1f77b4"/>
   </g>
   <g id="patch_95">
    <path d="M 206.63225 224.64 
L 208.142332 224.64 
L 208.142332 144.394286 
L 206.63225 144.394286 
z
" clip-path="url(#p69c539660a)" style="fill: #1f77b4"/>
   </g>
   <g id="patch_96">
    <path d="M 208.142332 224.64 
L 209.652415 224.64 
L 209.652415 124.203429 
L 208.142332 124.203429 
z
" clip-path="url(#p69c539660a)" style="fill: #1f77b4"/>
   </g>
   <g id="patch_97">
    <path d="M 209.652415 224.64 
L 211.162497 224.64 
L 211.162497 123.685714 
L 209.652415 123.685714 
z
" clip-path="url(#p69c539660a)" style="fill: #1f77b4"/>
   </g>
   <g id="patch_98">
    <path d="M 211.162497 224.64 
L 212.672579 224.64 
L 212.672579 129.898286 
L 211.162497 129.898286 
z
" clip-path="url(#p69c539660a)" style="fill: #1f77b4"/>
   </g>
   <g id="patch_99">
    <path d="M 212.672579 224.64 
L 214.182662 224.64 
L 214.182662 121.614857 
L 212.672579 121.614857 
z
" clip-path="url(#p69c539660a)" style="fill: #1f77b4"/>
   </g>
   <g id="patch_100">
    <path d="M 214.182662 224.64 
L 215.692744 224.64 
L 215.692744 129.380571 
L 214.182662 129.380571 
z
" clip-path="url(#p69c539660a)" style="fill: #1f77b4"/>
   </g>
   <g id="patch_101">
    <path d="M 215.692744 224.64 
L 217.202826 224.64 
L 217.202826 122.650286 
L 215.692744 122.650286 
z
" clip-path="url(#p69c539660a)" style="fill: #1f77b4"/>
   </g>
   <g id="patch_102">
    <path d="M 217.202826 224.64 
L 218.712909 224.64 
L 218.712909 134.557714 
L 217.202826 134.557714 
z
" clip-path="url(#p69c539660a)" style="fill: #1f77b4"/>
   </g>
   <g id="patch_103">
    <path d="M 218.712909 224.64 
L 220.222991 224.64 
L 220.222991 126.274286 
L 218.712909 126.274286 
z
" clip-path="url(#p69c539660a)" style="fill: #1f77b4"/>
   </g>
   <g id="patch_104">
    <path d="M 220.222991 224.64 
L 221.733074 224.64 
L 221.733074 125.756571 
L 220.222991 125.756571 
z
" clip-path="url(#p69c539660a)" style="fill: #1f77b4"/>
   </g>
   <g id="patch_105">
    <path d="M 221.733074 224.64 
L 223.243156 224.64 
L 223.243156 122.132571 
L 221.733074 122.132571 
z
" clip-path="url(#p69c539660a)" style="fill: #1f77b4"/>
   </g>
   <g id="patch_106">
    <path d="M 223.243156 224.64 
L 224.753238 224.64 
L 224.753238 121.097143 
L 223.243156 121.097143 
z
" clip-path="url(#p69c539660a)" style="fill: #1f77b4"/>
   </g>
   <g id="patch_107">
    <path d="M 224.753238 224.64 
L 226.263321 224.64 
L 226.263321 119.544 
L 224.753238 119.544 
z
" clip-path="url(#p69c539660a)" style="fill: #1f77b4"/>
   </g>
   <g id="patch_108">
    <path d="M 226.263321 224.64 
L 227.773403 224.64 
L 227.773403 103.494857 
L 226.263321 103.494857 
z
" clip-path="url(#p69c539660a)" style="fill: #1f77b4"/>
   </g>
   <g id="patch_109">
    <path d="M 227.773403 224.64 
L 229.283485 224.64 
L 229.283485 112.296 
L 227.773403 112.296 
z
" clip-path="url(#p69c539660a)" style="fill: #1f77b4"/>
   </g>
   <g id="patch_110">
    <path d="M 229.283485 224.64 
L 230.793568 224.64 
L 230.793568 109.189714 
L 229.283485 109.189714 
z
" clip-path="url(#p69c539660a)" style="fill: #1f77b4"/>
   </g>
   <g id="patch_111">
    <path d="M 230.793568 224.64 
L 232.30365 224.64 
L 232.30365 123.685714 
L 230.793568 123.685714 
z
" clip-path="url(#p69c539660a)" style="fill: #1f77b4"/>
   </g>
   <g id="patch_112">
    <path d="M 232.30365 224.64 
L 233.813732 224.64 
L 233.813732 119.026286 
L 232.30365 119.026286 
z
" clip-path="url(#p69c539660a)" style="fill: #1f77b4"/>
   </g>
   <g id="patch_113">
    <path d="M 233.813732 224.64 
L 235.323815 224.64 
L 235.323815 95.729143 
L 233.813732 95.729143 
z
" clip-path="url(#p69c539660a)" style="fill: #1f77b4"/>
   </g>
   <g id="patch_114">
    <path d="M 235.323815 224.64 
L 236.833897 224.64 
L 236.833897 105.565714 
L 235.323815 105.565714 
z
" clip-path="url(#p69c539660a)" style="fill: #1f77b4"/>
   </g>
   <g id="patch_115">
    <path d="M 236.833897 224.64 
L 238.34398 224.64 
L 238.34398 103.494857 
L 236.833897 103.494857 
z
" clip-path="url(#p69c539660a)" style="fill: #1f77b4"/>
   </g>
   <g id="patch_116">
    <path d="M 238.34398 224.64 
L 239.854062 224.64 
L 239.854062 98.835429 
L 238.34398 98.835429 
z
" clip-path="url(#p69c539660a)" style="fill: #1f77b4"/>
   </g>
   <g id="patch_117">
    <path d="M 239.854062 224.64 
L 241.364144 224.64 
L 241.364144 94.176 
L 239.854062 94.176 
z
" clip-path="url(#p69c539660a)" style="fill: #1f77b4"/>
   </g>
   <g id="patch_118">
    <path d="M 241.364144 224.64 
L 242.874227 224.64 
L 242.874227 93.658286 
L 241.364144 93.658286 
z
" clip-path="url(#p69c539660a)" style="fill: #1f77b4"/>
   </g>
   <g id="patch_119">
    <path d="M 242.874227 224.64 
L 244.384309 224.64 
L 244.384309 96.764571 
L 242.874227 96.764571 
z
" clip-path="url(#p69c539660a)" style="fill: #1f77b4"/>
   </g>
   <g id="patch_120">
    <path d="M 244.384309 224.64 
L 245.894391 224.64 
L 245.894391 100.388571 
L 244.384309 100.388571 
z
" clip-path="url(#p69c539660a)" style="fill: #1f77b4"/>
   </g>
   <g id="patch_121">
    <path d="M 245.894391 224.64 
L 247.404474 224.64 
L 247.404474 90.552 
L 245.894391 90.552 
z
" clip-path="url(#p69c539660a)" style="fill: #1f77b4"/>
   </g>
   <g id="patch_122">
    <path d="M 247.404474 224.64 
L 248.914556 224.64 
L 248.914556 87.963429 
L 247.404474 87.963429 
z
" clip-path="url(#p69c539660a)" style="fill: #1f77b4"/>
   </g>
   <g id="patch_123">
    <path d="M 248.914556 224.64 
L 250.424638 224.64 
L 250.424638 97.8 
L 248.914556 97.8 
z
" clip-path="url(#p69c539660a)" style="fill: #1f77b4"/>
   </g>
   <g id="patch_124">
    <path d="M 250.424638 224.64 
L 251.934721 224.64 
L 251.934721 103.494857 
L 250.424638 103.494857 
z
" clip-path="url(#p69c539660a)" style="fill: #1f77b4"/>
   </g>
   <g id="patch_125">
    <path d="M 251.934721 224.64 
L 253.444803 224.64 
L 253.444803 96.764571 
L 251.934721 96.764571 
z
" clip-path="url(#p69c539660a)" style="fill: #1f77b4"/>
   </g>
   <g id="patch_126">
    <path d="M 253.444803 224.64 
L 254.954886 224.64 
L 254.954886 95.729143 
L 253.444803 95.729143 
z
" clip-path="url(#p69c539660a)" style="fill: #1f77b4"/>
   </g>
   <g id="patch_127">
    <path d="M 254.954886 224.64 
L 256.464968 224.64 
L 256.464968 91.069714 
L 254.954886 91.069714 
z
" clip-path="url(#p69c539660a)" style="fill: #1f77b4"/>
   </g>
   <g id="patch_128">
    <path d="M 256.464968 224.64 
L 257.97505 224.64 
L 257.97505 95.729143 
L 256.464968 95.729143 
z
" clip-path="url(#p69c539660a)" style="fill: #1f77b4"/>
   </g>
   <g id="patch_129">
    <path d="M 257.97505 224.64 
L 259.485133 224.64 
L 259.485133 86.410286 
L 257.97505 86.410286 
z
" clip-path="url(#p69c539660a)" style="fill: #1f77b4"/>
   </g>
   <g id="patch_130">
    <path d="M 259.485133 224.64 
L 260.995215 224.64 
L 260.995215 81.750857 
L 259.485133 81.750857 
z
" clip-path="url(#p69c539660a)" style="fill: #1f77b4"/>
   </g>
   <g id="patch_131">
    <path d="M 260.995215 224.64 
L 262.505297 224.64 
L 262.505297 93.140571 
L 260.995215 93.140571 
z
" clip-path="url(#p69c539660a)" style="fill: #1f77b4"/>
   </g>
   <g id="patch_132">
    <path d="M 262.505297 224.64 
L 264.01538 224.64 
L 264.01538 91.069714 
L 262.505297 91.069714 
z
" clip-path="url(#p69c539660a)" style="fill: #1f77b4"/>
   </g>
   <g id="patch_133">
    <path d="M 264.01538 224.64 
L 265.525462 224.64 
L 265.525462 91.069714 
L 264.01538 91.069714 
z
" clip-path="url(#p69c539660a)" style="fill: #1f77b4"/>
   </g>
   <g id="patch_134">
    <path d="M 265.525462 224.64 
L 267.035544 224.64 
L 267.035544 84.339429 
L 265.525462 84.339429 
z
" clip-path="url(#p69c539660a)" style="fill: #1f77b4"/>
   </g>
   <g id="patch_135">
    <path d="M 267.035544 224.64 
L 268.545627 224.64 
L 268.545627 95.729143 
L 267.035544 95.729143 
z
" clip-path="url(#p69c539660a)" style="fill: #1f77b4"/>
   </g>
   <g id="patch_136">
    <path d="M 268.545627 224.64 
L 270.055709 224.64 
L 270.055709 76.056 
L 268.545627 76.056 
z
" clip-path="url(#p69c539660a)" style="fill: #1f77b4"/>
   </g>
   <g id="patch_137">
    <path d="M 270.055709 224.64 
L 271.565791 224.64 
L 271.565791 90.034286 
L 270.055709 90.034286 
z
" clip-path="url(#p69c539660a)" style="fill: #1f77b4"/>
   </g>
   <g id="patch_138">
    <path d="M 271.565791 224.64 
L 273.075874 224.64 
L 273.075874 79.162286 
L 271.565791 79.162286 
z
" clip-path="url(#p69c539660a)" style="fill: #1f77b4"/>
   </g>
   <g id="patch_139">
    <path d="M 273.075874 224.64 
L 274.585956 224.64 
L 274.585956 91.587429 
L 273.075874 91.587429 
z
" clip-path="url(#p69c539660a)" style="fill: #1f77b4"/>
   </g>
   <g id="patch_140">
    <path d="M 274.585956 224.64 
L 276.096039 224.64 
L 276.096039 90.034286 
L 274.585956 90.034286 
z
" clip-path="url(#p69c539660a)" style="fill: #1f77b4"/>
   </g>
   <g id="patch_141">
    <path d="M 276.096039 224.64 
L 277.606121 224.64 
L 277.606121 86.410286 
L 276.096039 86.410286 
z
" clip-path="url(#p69c539660a)" style="fill: #1f77b4"/>
   </g>
   <g id="patch_142">
    <path d="M 277.606121 224.64 
L 279.116203 224.64 
L 279.116203 71.396571 
L 277.606121 71.396571 
z
" clip-path="url(#p69c539660a)" style="fill: #1f77b4"/>
   </g>
   <g id="patch_143">
    <path d="M 279.116203 224.64 
L 280.626286 224.64 
L 280.626286 83.821714 
L 279.116203 83.821714 
z
" clip-path="url(#p69c539660a)" style="fill: #1f77b4"/>
   </g>
   <g id="patch_144">
    <path d="M 280.626286 224.64 
L 282.136368 224.64 
L 282.136368 76.056 
L 280.626286 76.056 
z
" clip-path="url(#p69c539660a)" style="fill: #1f77b4"/>
   </g>
   <g id="patch_145">
    <path d="M 282.136368 224.64 
L 283.64645 224.64 
L 283.64645 76.056 
L 282.136368 76.056 
z
" clip-path="url(#p69c539660a)" style="fill: #1f77b4"/>
   </g>
   <g id="patch_146">
    <path d="M 283.64645 224.64 
L 285.156533 224.64 
L 285.156533 66.737143 
L 283.64645 66.737143 
z
" clip-path="url(#p69c539660a)" style="fill: #1f77b4"/>
   </g>
   <g id="patch_147">
    <path d="M 285.156533 224.64 
L 286.666615 224.64 
L 286.666615 73.467429 
L 285.156533 73.467429 
z
" clip-path="url(#p69c539660a)" style="fill: #1f77b4"/>
   </g>
   <g id="patch_148">
    <path d="M 286.666615 224.64 
L 288.176697 224.64 
L 288.176697 84.857143 
L 286.666615 84.857143 
z
" clip-path="url(#p69c539660a)" style="fill: #1f77b4"/>
   </g>
   <g id="patch_149">
    <path d="M 288.176697 224.64 
L 289.68678 224.64 
L 289.68678 81.750857 
L 288.176697 81.750857 
z
" clip-path="url(#p69c539660a)" style="fill: #1f77b4"/>
   </g>
   <g id="patch_150">
    <path d="M 289.68678 224.64 
L 291.196862 224.64 
L 291.196862 82.786286 
L 289.68678 82.786286 
z
" clip-path="url(#p69c539660a)" style="fill: #1f77b4"/>
   </g>
   <g id="patch_151">
    <path d="M 291.196862 224.64 
L 292.706945 224.64 
L 292.706945 78.126857 
L 291.196862 78.126857 
z
" clip-path="url(#p69c539660a)" style="fill: #1f77b4"/>
   </g>
   <g id="patch_152">
    <path d="M 292.706945 224.64 
L 294.217027 224.64 
L 294.217027 75.538286 
L 292.706945 75.538286 
z
" clip-path="url(#p69c539660a)" style="fill: #1f77b4"/>
   </g>
   <g id="patch_153">
    <path d="M 294.217027 224.64 
L 295.727109 224.64 
L 295.727109 78.126857 
L 294.217027 78.126857 
z
" clip-path="url(#p69c539660a)" style="fill: #1f77b4"/>
   </g>
   <g id="patch_154">
    <path d="M 295.727109 224.64 
L 297.237192 224.64 
L 297.237192 74.502857 
L 295.727109 74.502857 
z
" clip-path="url(#p69c539660a)" style="fill: #1f77b4"/>
   </g>
   <g id="patch_155">
    <path d="M 297.237192 224.64 
L 298.747274 224.64 
L 298.747274 63.113143 
L 297.237192 63.113143 
z
" clip-path="url(#p69c539660a)" style="fill: #1f77b4"/>
   </g>
   <g id="patch_156">
    <path d="M 298.747274 224.64 
L 300.257356 224.64 
L 300.257356 79.68 
L 298.747274 79.68 
z
" clip-path="url(#p69c539660a)" style="fill: #1f77b4"/>
   </g>
   <g id="patch_157">
    <path d="M 300.257356 224.64 
L 301.767439 224.64 
L 301.767439 57.418286 
L 300.257356 57.418286 
z
" clip-path="url(#p69c539660a)" style="fill: #1f77b4"/>
   </g>
   <g id="patch_158">
    <path d="M 301.767439 224.64 
L 303.277521 224.64 
L 303.277521 70.878857 
L 301.767439 70.878857 
z
" clip-path="url(#p69c539660a)" style="fill: #1f77b4"/>
   </g>
   <g id="patch_159">
    <path d="M 303.277521 224.64 
L 304.787603 224.64 
L 304.787603 70.878857 
L 303.277521 70.878857 
z
" clip-path="url(#p69c539660a)" style="fill: #1f77b4"/>
   </g>
   <g id="patch_160">
    <path d="M 304.787603 224.64 
L 306.297686 224.64 
L 306.297686 55.347429 
L 304.787603 55.347429 
z
" clip-path="url(#p69c539660a)" style="fill: #1f77b4"/>
   </g>
   <g id="patch_161">
    <path d="M 306.297686 224.64 
L 307.807768 224.64 
L 307.807768 65.184 
L 306.297686 65.184 
z
" clip-path="url(#p69c539660a)" style="fill: #1f77b4"/>
   </g>
   <g id="patch_162">
    <path d="M 307.807768 224.64 
L 309.317851 224.64 
L 309.317851 65.184 
L 307.807768 65.184 
z
" clip-path="url(#p69c539660a)" style="fill: #1f77b4"/>
   </g>
   <g id="patch_163">
    <path d="M 309.317851 224.64 
L 310.827933 224.64 
L 310.827933 57.936 
L 309.317851 57.936 
z
" clip-path="url(#p69c539660a)" style="fill: #1f77b4"/>
   </g>
   <g id="patch_164">
    <path d="M 310.827933 224.64 
L 312.338015 224.64 
L 312.338015 61.042286 
L 310.827933 61.042286 
z
" clip-path="url(#p69c539660a)" style="fill: #1f77b4"/>
   </g>
   <g id="patch_165">
    <path d="M 312.338015 224.64 
L 313.848098 224.64 
L 313.848098 59.489143 
L 312.338015 59.489143 
z
" clip-path="url(#p69c539660a)" style="fill: #1f77b4"/>
   </g>
   <g id="patch_166">
    <path d="M 313.848098 224.64 
L 315.35818 224.64 
L 315.35818 41.369143 
L 313.848098 41.369143 
z
" clip-path="url(#p69c539660a)" style="fill: #1f77b4"/>
   </g>
   <g id="patch_167">
    <path d="M 315.35818 224.64 
L 316.868262 224.64 
L 316.868262 43.44 
L 315.35818 43.44 
z
" clip-path="url(#p69c539660a)" style="fill: #1f77b4"/>
   </g>
   <g id="patch_168">
    <path d="M 316.868262 224.64 
L 318.378345 224.64 
L 318.378345 51.205714 
L 316.868262 51.205714 
z
" clip-path="url(#p69c539660a)" style="fill: #1f77b4"/>
   </g>
   <g id="patch_169">
    <path d="M 318.378345 224.64 
L 319.888427 224.64 
L 319.888427 56.900571 
L 318.378345 56.900571 
z
" clip-path="url(#p69c539660a)" style="fill: #1f77b4"/>
   </g>
   <g id="patch_170">
    <path d="M 319.888427 224.64 
L 321.398509 224.64 
L 321.398509 42.922286 
L 319.888427 42.922286 
z
" clip-path="url(#p69c539660a)" style="fill: #1f77b4"/>
   </g>
   <g id="patch_171">
    <path d="M 321.398509 224.64 
L 322.908592 224.64 
L 322.908592 36.192 
L 321.398509 36.192 
z
" clip-path="url(#p69c539660a)" style="fill: #1f77b4"/>
   </g>
   <g id="patch_172">
    <path d="M 322.908592 224.64 
L 324.418674 224.64 
L 324.418674 47.581714 
L 322.908592 47.581714 
z
" clip-path="url(#p69c539660a)" style="fill: #1f77b4"/>
   </g>
   <g id="patch_173">
    <path d="M 324.418674 224.64 
L 325.928757 224.64 
L 325.928757 42.404571 
L 324.418674 42.404571 
z
" clip-path="url(#p69c539660a)" style="fill: #1f77b4"/>
   </g>
   <g id="patch_174">
    <path d="M 325.928757 224.64 
L 327.438839 224.64 
L 327.438839 31.014857 
L 325.928757 31.014857 
z
" clip-path="url(#p69c539660a)" style="fill: #1f77b4"/>
   </g>
   <g id="patch_175">
    <path d="M 327.438839 224.64 
L 328.948921 224.64 
L 328.948921 40.851429 
L 327.438839 40.851429 
z
" clip-path="url(#p69c539660a)" style="fill: #1f77b4"/>
   </g>
   <g id="patch_176">
    <path d="M 328.948921 224.64 
L 330.459004 224.64 
L 330.459004 55.347429 
L 328.948921 55.347429 
z
" clip-path="url(#p69c539660a)" style="fill: #1f77b4"/>
   </g>
   <g id="patch_177">
    <path d="M 330.459004 224.64 
L 331.969086 224.64 
L 331.969086 45.510857 
L 330.459004 45.510857 
z
" clip-path="url(#p69c539660a)" style="fill: #1f77b4"/>
   </g>
   <g id="patch_178">
    <path d="M 331.969086 224.64 
L 333.479168 224.64 
L 333.479168 66.737143 
L 331.969086 66.737143 
z
" clip-path="url(#p69c539660a)" style="fill: #1f77b4"/>
   </g>
   <g id="patch_179">
    <path d="M 333.479168 224.64 
L 334.989251 224.64 
L 334.989251 46.028571 
L 333.479168 46.028571 
z
" clip-path="url(#p69c539660a)" style="fill: #1f77b4"/>
   </g>
   <g id="patch_180">
    <path d="M 334.989251 224.64 
L 336.499333 224.64 
L 336.499333 48.617143 
L 334.989251 48.617143 
z
" clip-path="url(#p69c539660a)" style="fill: #1f77b4"/>
   </g>
   <g id="patch_181">
    <path d="M 336.499333 224.64 
L 338.009415 224.64 
L 338.009415 36.192 
L 336.499333 36.192 
z
" clip-path="url(#p69c539660a)" style="fill: #1f77b4"/>
   </g>
   <g id="patch_182">
    <path d="M 338.009415 224.64 
L 339.519498 224.64 
L 339.519498 34.638857 
L 338.009415 34.638857 
z
" clip-path="url(#p69c539660a)" style="fill: #1f77b4"/>
   </g>
   <g id="patch_183">
    <path d="M 339.519498 224.64 
L 341.02958 224.64 
L 341.02958 31.532571 
L 339.519498 31.532571 
z
" clip-path="url(#p69c539660a)" style="fill: #1f77b4"/>
   </g>
   <g id="patch_184">
    <path d="M 341.02958 224.64 
L 342.539662 224.64 
L 342.539662 24.802286 
L 341.02958 24.802286 
z
" clip-path="url(#p69c539660a)" style="fill: #1f77b4"/>
   </g>
   <g id="patch_185">
    <path d="M 342.539662 224.64 
L 344.049745 224.64 
L 344.049745 20.660571 
L 342.539662 20.660571 
z
" clip-path="url(#p69c539660a)" style="fill: #1f77b4"/>
   </g>
   <g id="patch_186">
    <path d="M 344.049745 224.64 
L 345.559827 224.64 
L 345.559827 40.851429 
L 344.049745 40.851429 
z
" clip-path="url(#p69c539660a)" style="fill: #1f77b4"/>
   </g>
   <g id="patch_187">
    <path d="M 345.559827 224.64 
L 347.06991 224.64 
L 347.06991 43.957714 
L 345.559827 43.957714 
z
" clip-path="url(#p69c539660a)" style="fill: #1f77b4"/>
   </g>
   <g id="patch_188">
    <path d="M 347.06991 224.64 
L 348.579992 224.64 
L 348.579992 29.461714 
L 347.06991 29.461714 
z
" clip-path="url(#p69c539660a)" style="fill: #1f77b4"/>
   </g>
   <g id="patch_189">
    <path d="M 348.579992 224.64 
L 350.090074 224.64 
L 350.090074 43.44 
L 348.579992 43.44 
z
" clip-path="url(#p69c539660a)" style="fill: #1f77b4"/>
   </g>
   <g id="patch_190">
    <path d="M 350.090074 224.64 
L 351.600157 224.64 
L 351.600157 33.085714 
L 350.090074 33.085714 
z
" clip-path="url(#p69c539660a)" style="fill: #1f77b4"/>
   </g>
   <g id="patch_191">
    <path d="M 351.600157 224.64 
L 353.110239 224.64 
L 353.110239 44.475429 
L 351.600157 44.475429 
z
" clip-path="url(#p69c539660a)" style="fill: #1f77b4"/>
   </g>
   <g id="patch_192">
    <path d="M 353.110239 224.64 
L 354.620321 224.64 
L 354.620321 37.227429 
L 353.110239 37.227429 
z
" clip-path="url(#p69c539660a)" style="fill: #1f77b4"/>
   </g>
   <g id="patch_193">
    <path d="M 354.620321 224.64 
L 356.130404 224.64 
L 356.130404 38.780571 
L 354.620321 38.780571 
z
" clip-path="url(#p69c539660a)" style="fill: #1f77b4"/>
   </g>
   <g id="patch_194">
    <path d="M 356.130404 224.64 
L 357.640486 224.64 
L 357.640486 23.766857 
L 356.130404 23.766857 
z
" clip-path="url(#p69c539660a)" style="fill: #1f77b4"/>
   </g>
   <g id="patch_195">
    <path d="M 357.640486 224.64 
L 359.150568 224.64 
L 359.150568 43.957714 
L 357.640486 43.957714 
z
" clip-path="url(#p69c539660a)" style="fill: #1f77b4"/>
   </g>
   <g id="patch_196">
    <path d="M 359.150568 224.64 
L 360.660651 224.64 
L 360.660651 22.213714 
L 359.150568 22.213714 
z
" clip-path="url(#p69c539660a)" style="fill: #1f77b4"/>
   </g>
   <g id="patch_197">
    <path d="M 360.660651 224.64 
L 362.170733 224.64 
L 362.170733 35.674286 
L 360.660651 35.674286 
z
" clip-path="url(#p69c539660a)" style="fill: #1f77b4"/>
   </g>
   <g id="patch_198">
    <path d="M 362.170733 224.64 
L 363.680816 224.64 
L 363.680816 17.554286 
L 362.170733 17.554286 
z
" clip-path="url(#p69c539660a)" style="fill: #1f77b4"/>
   </g>
   <g id="patch_199">
    <path d="M 363.680816 224.64 
L 365.190898 224.64 
L 365.190898 27.908571 
L 363.680816 27.908571 
z
" clip-path="url(#p69c539660a)" style="fill: #1f77b4"/>
   </g>
   <g id="patch_200">
    <path d="M 365.190898 224.64 
L 366.70098 224.64 
L 366.70098 53.276571 
L 365.190898 53.276571 
z
" clip-path="url(#p69c539660a)" style="fill: #1f77b4"/>
   </g>
   <g id="patch_201">
    <path d="M 366.70098 224.64 
L 368.211063 224.64 
L 368.211063 17.554286 
L 366.70098 17.554286 
z
" clip-path="url(#p69c539660a)" style="fill: #1f77b4"/>
   </g>
   <g id="patch_202">
    <path d="M 368.211063 224.64 
L 369.721145 224.64 
L 369.721145 22.213714 
L 368.211063 22.213714 
z
" clip-path="url(#p69c539660a)" style="fill: #1f77b4"/>
   </g>
   <g id="matplotlib.axis_1">
    <g id="xtick_1">
     <g id="line2d_1">
      <defs>
       <path id="mee500de648" d="M 0 0 
L 0 3.5 
" style="stroke: #000000; stroke-width: 0.8"/>
      </defs>
      <g>
       <use xlink:href="#mee500de648" x="65.361932" y="224.64" style="stroke: #000000; stroke-width: 0.8"/>
      </g>
     </g>
     <g id="text_1">
      <!-- 0.0 -->
      <g transform="translate(57.410369 239.238438)scale(0.1 -0.1)">
       <defs>
        <path id="DejaVuSans-30" d="M 2034 4250 
Q 1547 4250 1301 3770 
Q 1056 3291 1056 2328 
Q 1056 1369 1301 889 
Q 1547 409 2034 409 
Q 2525 409 2770 889 
Q 3016 1369 3016 2328 
Q 3016 3291 2770 3770 
Q 2525 4250 2034 4250 
z
M 2034 4750 
Q 2819 4750 3233 4129 
Q 3647 3509 3647 2328 
Q 3647 1150 3233 529 
Q 2819 -91 2034 -91 
Q 1250 -91 836 529 
Q 422 1150 422 2328 
Q 422 3509 836 4129 
Q 1250 4750 2034 4750 
z
" transform="scale(0.015625)"/>
        <path id="DejaVuSans-2e" d="M 684 794 
L 1344 794 
L 1344 0 
L 684 0 
L 684 794 
z
" transform="scale(0.015625)"/>
       </defs>
       <use xlink:href="#DejaVuSans-30"/>
       <use xlink:href="#DejaVuSans-2e" x="63.623047"/>
       <use xlink:href="#DejaVuSans-30" x="95.410156"/>
      </g>
     </g>
    </g>
    <g id="xtick_2">
     <g id="line2d_2">
      <g>
       <use xlink:href="#mee500de648" x="126.234659" y="224.64" style="stroke: #000000; stroke-width: 0.8"/>
      </g>
     </g>
     <g id="text_2">
      <!-- 0.2 -->
      <g transform="translate(118.283097 239.238438)scale(0.1 -0.1)">
       <defs>
        <path id="DejaVuSans-32" d="M 1228 531 
L 3431 531 
L 3431 0 
L 469 0 
L 469 531 
Q 828 903 1448 1529 
Q 2069 2156 2228 2338 
Q 2531 2678 2651 2914 
Q 2772 3150 2772 3378 
Q 2772 3750 2511 3984 
Q 2250 4219 1831 4219 
Q 1534 4219 1204 4116 
Q 875 4013 500 3803 
L 500 4441 
Q 881 4594 1212 4672 
Q 1544 4750 1819 4750 
Q 2544 4750 2975 4387 
Q 3406 4025 3406 3419 
Q 3406 3131 3298 2873 
Q 3191 2616 2906 2266 
Q 2828 2175 2409 1742 
Q 1991 1309 1228 531 
z
" transform="scale(0.015625)"/>
       </defs>
       <use xlink:href="#DejaVuSans-30"/>
       <use xlink:href="#DejaVuSans-2e" x="63.623047"/>
       <use xlink:href="#DejaVuSans-32" x="95.410156"/>
      </g>
     </g>
    </g>
    <g id="xtick_3">
     <g id="line2d_3">
      <g>
       <use xlink:href="#mee500de648" x="187.107386" y="224.64" style="stroke: #000000; stroke-width: 0.8"/>
      </g>
     </g>
     <g id="text_3">
      <!-- 0.4 -->
      <g transform="translate(179.155824 239.238438)scale(0.1 -0.1)">
       <defs>
        <path id="DejaVuSans-34" d="M 2419 4116 
L 825 1625 
L 2419 1625 
L 2419 4116 
z
M 2253 4666 
L 3047 4666 
L 3047 1625 
L 3713 1625 
L 3713 1100 
L 3047 1100 
L 3047 0 
L 2419 0 
L 2419 1100 
L 313 1100 
L 313 1709 
L 2253 4666 
z
" transform="scale(0.015625)"/>
       </defs>
       <use xlink:href="#DejaVuSans-30"/>
       <use xlink:href="#DejaVuSans-2e" x="63.623047"/>
       <use xlink:href="#DejaVuSans-34" x="95.410156"/>
      </g>
     </g>
    </g>
    <g id="xtick_4">
     <g id="line2d_4">
      <g>
       <use xlink:href="#mee500de648" x="247.980114" y="224.64" style="stroke: #000000; stroke-width: 0.8"/>
      </g>
     </g>
     <g id="text_4">
      <!-- 0.6 -->
      <g transform="translate(240.028551 239.238438)scale(0.1 -0.1)">
       <defs>
        <path id="DejaVuSans-36" d="M 2113 2584 
Q 1688 2584 1439 2293 
Q 1191 2003 1191 1497 
Q 1191 994 1439 701 
Q 1688 409 2113 409 
Q 2538 409 2786 701 
Q 3034 994 3034 1497 
Q 3034 2003 2786 2293 
Q 2538 2584 2113 2584 
z
M 3366 4563 
L 3366 3988 
Q 3128 4100 2886 4159 
Q 2644 4219 2406 4219 
Q 1781 4219 1451 3797 
Q 1122 3375 1075 2522 
Q 1259 2794 1537 2939 
Q 1816 3084 2150 3084 
Q 2853 3084 3261 2657 
Q 3669 2231 3669 1497 
Q 3669 778 3244 343 
Q 2819 -91 2113 -91 
Q 1303 -91 875 529 
Q 447 1150 447 2328 
Q 447 3434 972 4092 
Q 1497 4750 2381 4750 
Q 2619 4750 2861 4703 
Q 3103 4656 3366 4563 
z
" transform="scale(0.015625)"/>
       </defs>
       <use xlink:href="#DejaVuSans-30"/>
       <use xlink:href="#DejaVuSans-2e" x="63.623047"/>
       <use xlink:href="#DejaVuSans-36" x="95.410156"/>
      </g>
     </g>
    </g>
    <g id="xtick_5">
     <g id="line2d_5">
      <g>
       <use xlink:href="#mee500de648" x="308.852841" y="224.64" style="stroke: #000000; stroke-width: 0.8"/>
      </g>
     </g>
     <g id="text_5">
      <!-- 0.8 -->
      <g transform="translate(300.901278 239.238438)scale(0.1 -0.1)">
       <defs>
        <path id="DejaVuSans-38" d="M 2034 2216 
Q 1584 2216 1326 1975 
Q 1069 1734 1069 1313 
Q 1069 891 1326 650 
Q 1584 409 2034 409 
Q 2484 409 2743 651 
Q 3003 894 3003 1313 
Q 3003 1734 2745 1975 
Q 2488 2216 2034 2216 
z
M 1403 2484 
Q 997 2584 770 2862 
Q 544 3141 544 3541 
Q 544 4100 942 4425 
Q 1341 4750 2034 4750 
Q 2731 4750 3128 4425 
Q 3525 4100 3525 3541 
Q 3525 3141 3298 2862 
Q 3072 2584 2669 2484 
Q 3125 2378 3379 2068 
Q 3634 1759 3634 1313 
Q 3634 634 3220 271 
Q 2806 -91 2034 -91 
Q 1263 -91 848 271 
Q 434 634 434 1313 
Q 434 1759 690 2068 
Q 947 2378 1403 2484 
z
M 1172 3481 
Q 1172 3119 1398 2916 
Q 1625 2713 2034 2713 
Q 2441 2713 2670 2916 
Q 2900 3119 2900 3481 
Q 2900 3844 2670 4047 
Q 2441 4250 2034 4250 
Q 1625 4250 1398 4047 
Q 1172 3844 1172 3481 
z
" transform="scale(0.015625)"/>
       </defs>
       <use xlink:href="#DejaVuSans-30"/>
       <use xlink:href="#DejaVuSans-2e" x="63.623047"/>
       <use xlink:href="#DejaVuSans-38" x="95.410156"/>
      </g>
     </g>
    </g>
    <g id="xtick_6">
     <g id="line2d_6">
      <g>
       <use xlink:href="#mee500de648" x="369.725568" y="224.64" style="stroke: #000000; stroke-width: 0.8"/>
      </g>
     </g>
     <g id="text_6">
      <!-- 1.0 -->
      <g transform="translate(361.774006 239.238438)scale(0.1 -0.1)">
       <defs>
        <path id="DejaVuSans-31" d="M 794 531 
L 1825 531 
L 1825 4091 
L 703 3866 
L 703 4441 
L 1819 4666 
L 2450 4666 
L 2450 531 
L 3481 531 
L 3481 0 
L 794 0 
L 794 531 
z
" transform="scale(0.015625)"/>
       </defs>
       <use xlink:href="#DejaVuSans-31"/>
       <use xlink:href="#DejaVuSans-2e" x="63.623047"/>
       <use xlink:href="#DejaVuSans-30" x="95.410156"/>
      </g>
     </g>
    </g>
    <g id="text_7">
     <!-- Propagation direction -->
     <g transform="translate(164.061719 252.916563)scale(0.1 -0.1)">
      <defs>
       <path id="DejaVuSans-50" d="M 1259 4147 
L 1259 2394 
L 2053 2394 
Q 2494 2394 2734 2622 
Q 2975 2850 2975 3272 
Q 2975 3691 2734 3919 
Q 2494 4147 2053 4147 
L 1259 4147 
z
M 628 4666 
L 2053 4666 
Q 2838 4666 3239 4311 
Q 3641 3956 3641 3272 
Q 3641 2581 3239 2228 
Q 2838 1875 2053 1875 
L 1259 1875 
L 1259 0 
L 628 0 
L 628 4666 
z
" transform="scale(0.015625)"/>
       <path id="DejaVuSans-72" d="M 2631 2963 
Q 2534 3019 2420 3045 
Q 2306 3072 2169 3072 
Q 1681 3072 1420 2755 
Q 1159 2438 1159 1844 
L 1159 0 
L 581 0 
L 581 3500 
L 1159 3500 
L 1159 2956 
Q 1341 3275 1631 3429 
Q 1922 3584 2338 3584 
Q 2397 3584 2469 3576 
Q 2541 3569 2628 3553 
L 2631 2963 
z
" transform="scale(0.015625)"/>
       <path id="DejaVuSans-6f" d="M 1959 3097 
Q 1497 3097 1228 2736 
Q 959 2375 959 1747 
Q 959 1119 1226 758 
Q 1494 397 1959 397 
Q 2419 397 2687 759 
Q 2956 1122 2956 1747 
Q 2956 2369 2687 2733 
Q 2419 3097 1959 3097 
z
M 1959 3584 
Q 2709 3584 3137 3096 
Q 3566 2609 3566 1747 
Q 3566 888 3137 398 
Q 2709 -91 1959 -91 
Q 1206 -91 779 398 
Q 353 888 353 1747 
Q 353 2609 779 3096 
Q 1206 3584 1959 3584 
z
" transform="scale(0.015625)"/>
       <path id="DejaVuSans-70" d="M 1159 525 
L 1159 -1331 
L 581 -1331 
L 581 3500 
L 1159 3500 
L 1159 2969 
Q 1341 3281 1617 3432 
Q 1894 3584 2278 3584 
Q 2916 3584 3314 3078 
Q 3713 2572 3713 1747 
Q 3713 922 3314 415 
Q 2916 -91 2278 -91 
Q 1894 -91 1617 61 
Q 1341 213 1159 525 
z
M 3116 1747 
Q 3116 2381 2855 2742 
Q 2594 3103 2138 3103 
Q 1681 3103 1420 2742 
Q 1159 2381 1159 1747 
Q 1159 1113 1420 752 
Q 1681 391 2138 391 
Q 2594 391 2855 752 
Q 3116 1113 3116 1747 
z
" transform="scale(0.015625)"/>
       <path id="DejaVuSans-61" d="M 2194 1759 
Q 1497 1759 1228 1600 
Q 959 1441 959 1056 
Q 959 750 1161 570 
Q 1363 391 1709 391 
Q 2188 391 2477 730 
Q 2766 1069 2766 1631 
L 2766 1759 
L 2194 1759 
z
M 3341 1997 
L 3341 0 
L 2766 0 
L 2766 531 
Q 2569 213 2275 61 
Q 1981 -91 1556 -91 
Q 1019 -91 701 211 
Q 384 513 384 1019 
Q 384 1609 779 1909 
Q 1175 2209 1959 2209 
L 2766 2209 
L 2766 2266 
Q 2766 2663 2505 2880 
Q 2244 3097 1772 3097 
Q 1472 3097 1187 3025 
Q 903 2953 641 2809 
L 641 3341 
Q 956 3463 1253 3523 
Q 1550 3584 1831 3584 
Q 2591 3584 2966 3190 
Q 3341 2797 3341 1997 
z
" transform="scale(0.015625)"/>
       <path id="DejaVuSans-67" d="M 2906 1791 
Q 2906 2416 2648 2759 
Q 2391 3103 1925 3103 
Q 1463 3103 1205 2759 
Q 947 2416 947 1791 
Q 947 1169 1205 825 
Q 1463 481 1925 481 
Q 2391 481 2648 825 
Q 2906 1169 2906 1791 
z
M 3481 434 
Q 3481 -459 3084 -895 
Q 2688 -1331 1869 -1331 
Q 1566 -1331 1297 -1286 
Q 1028 -1241 775 -1147 
L 775 -588 
Q 1028 -725 1275 -790 
Q 1522 -856 1778 -856 
Q 2344 -856 2625 -561 
Q 2906 -266 2906 331 
L 2906 616 
Q 2728 306 2450 153 
Q 2172 0 1784 0 
Q 1141 0 747 490 
Q 353 981 353 1791 
Q 353 2603 747 3093 
Q 1141 3584 1784 3584 
Q 2172 3584 2450 3431 
Q 2728 3278 2906 2969 
L 2906 3500 
L 3481 3500 
L 3481 434 
z
" transform="scale(0.015625)"/>
       <path id="DejaVuSans-74" d="M 1172 4494 
L 1172 3500 
L 2356 3500 
L 2356 3053 
L 1172 3053 
L 1172 1153 
Q 1172 725 1289 603 
Q 1406 481 1766 481 
L 2356 481 
L 2356 0 
L 1766 0 
Q 1100 0 847 248 
Q 594 497 594 1153 
L 594 3053 
L 172 3053 
L 172 3500 
L 594 3500 
L 594 4494 
L 1172 4494 
z
" transform="scale(0.015625)"/>
       <path id="DejaVuSans-69" d="M 603 3500 
L 1178 3500 
L 1178 0 
L 603 0 
L 603 3500 
z
M 603 4863 
L 1178 4863 
L 1178 4134 
L 603 4134 
L 603 4863 
z
" transform="scale(0.015625)"/>
       <path id="DejaVuSans-6e" d="M 3513 2113 
L 3513 0 
L 2938 0 
L 2938 2094 
Q 2938 2591 2744 2837 
Q 2550 3084 2163 3084 
Q 1697 3084 1428 2787 
Q 1159 2491 1159 1978 
L 1159 0 
L 581 0 
L 581 3500 
L 1159 3500 
L 1159 2956 
Q 1366 3272 1645 3428 
Q 1925 3584 2291 3584 
Q 2894 3584 3203 3211 
Q 3513 2838 3513 2113 
z
" transform="scale(0.015625)"/>
       <path id="DejaVuSans-20" transform="scale(0.015625)"/>
       <path id="DejaVuSans-64" d="M 2906 2969 
L 2906 4863 
L 3481 4863 
L 3481 0 
L 2906 0 
L 2906 525 
Q 2725 213 2448 61 
Q 2172 -91 1784 -91 
Q 1150 -91 751 415 
Q 353 922 353 1747 
Q 353 2572 751 3078 
Q 1150 3584 1784 3584 
Q 2172 3584 2448 3432 
Q 2725 3281 2906 2969 
z
M 947 1747 
Q 947 1113 1208 752 
Q 1469 391 1925 391 
Q 2381 391 2643 752 
Q 2906 1113 2906 1747 
Q 2906 2381 2643 2742 
Q 2381 3103 1925 3103 
Q 1469 3103 1208 2742 
Q 947 2381 947 1747 
z
" transform="scale(0.015625)"/>
       <path id="DejaVuSans-65" d="M 3597 1894 
L 3597 1613 
L 953 1613 
Q 991 1019 1311 708 
Q 1631 397 2203 397 
Q 2534 397 2845 478 
Q 3156 559 3463 722 
L 3463 178 
Q 3153 47 2828 -22 
Q 2503 -91 2169 -91 
Q 1331 -91 842 396 
Q 353 884 353 1716 
Q 353 2575 817 3079 
Q 1281 3584 2069 3584 
Q 2775 3584 3186 3129 
Q 3597 2675 3597 1894 
z
M 3022 2063 
Q 3016 2534 2758 2815 
Q 2500 3097 2075 3097 
Q 1594 3097 1305 2825 
Q 1016 2553 972 2059 
L 3022 2063 
z
" transform="scale(0.015625)"/>
       <path id="DejaVuSans-63" d="M 3122 3366 
L 3122 2828 
Q 2878 2963 2633 3030 
Q 2388 3097 2138 3097 
Q 1578 3097 1268 2742 
Q 959 2388 959 1747 
Q 959 1106 1268 751 
Q 1578 397 2138 397 
Q 2388 397 2633 464 
Q 2878 531 3122 666 
L 3122 134 
Q 2881 22 2623 -34 
Q 2366 -91 2075 -91 
Q 1284 -91 818 406 
Q 353 903 353 1747 
Q 353 2603 823 3093 
Q 1294 3584 2113 3584 
Q 2378 3584 2631 3529 
Q 2884 3475 3122 3366 
z
" transform="scale(0.015625)"/>
      </defs>
      <use xlink:href="#DejaVuSans-50"/>
      <use xlink:href="#DejaVuSans-72" x="58.552734"/>
      <use xlink:href="#DejaVuSans-6f" x="97.416016"/>
      <use xlink:href="#DejaVuSans-70" x="158.597656"/>
      <use xlink:href="#DejaVuSans-61" x="222.074219"/>
      <use xlink:href="#DejaVuSans-67" x="283.353516"/>
      <use xlink:href="#DejaVuSans-61" x="346.830078"/>
      <use xlink:href="#DejaVuSans-74" x="408.109375"/>
      <use xlink:href="#DejaVuSans-69" x="447.318359"/>
      <use xlink:href="#DejaVuSans-6f" x="475.101562"/>
      <use xlink:href="#DejaVuSans-6e" x="536.283203"/>
      <use xlink:href="#DejaVuSans-20" x="599.662109"/>
      <use xlink:href="#DejaVuSans-64" x="631.449219"/>
      <use xlink:href="#DejaVuSans-69" x="694.925781"/>
      <use xlink:href="#DejaVuSans-72" x="722.708984"/>
      <use xlink:href="#DejaVuSans-65" x="761.572266"/>
      <use xlink:href="#DejaVuSans-63" x="823.095703"/>
      <use xlink:href="#DejaVuSans-74" x="878.076172"/>
      <use xlink:href="#DejaVuSans-69" x="917.285156"/>
      <use xlink:href="#DejaVuSans-6f" x="945.068359"/>
      <use xlink:href="#DejaVuSans-6e" x="1006.25"/>
     </g>
    </g>
   </g>
   <g id="matplotlib.axis_2">
    <g id="ytick_1">
     <g id="line2d_7">
      <defs>
       <path id="m0de6be0456" d="M 0 0 
L -3.5 0 
" style="stroke: #000000; stroke-width: 0.8"/>
      </defs>
      <g>
       <use xlink:href="#m0de6be0456" x="50.14375" y="224.64" style="stroke: #000000; stroke-width: 0.8"/>
      </g>
     </g>
     <g id="text_8">
      <!-- 0.00 -->
      <g transform="translate(20.878125 228.439219)scale(0.1 -0.1)">
       <use xlink:href="#DejaVuSans-30"/>
       <use xlink:href="#DejaVuSans-2e" x="63.623047"/>
       <use xlink:href="#DejaVuSans-30" x="95.410156"/>
       <use xlink:href="#DejaVuSans-30" x="159.033203"/>
      </g>
     </g>
    </g>
    <g id="ytick_2">
     <g id="line2d_8">
      <g>
       <use xlink:href="#m0de6be0456" x="50.14375" y="198.953909" style="stroke: #000000; stroke-width: 0.8"/>
      </g>
     </g>
     <g id="text_9">
      <!-- 0.25 -->
      <g transform="translate(20.878125 202.753128)scale(0.1 -0.1)">
       <defs>
        <path id="DejaVuSans-35" d="M 691 4666 
L 3169 4666 
L 3169 4134 
L 1269 4134 
L 1269 2991 
Q 1406 3038 1543 3061 
Q 1681 3084 1819 3084 
Q 2600 3084 3056 2656 
Q 3513 2228 3513 1497 
Q 3513 744 3044 326 
Q 2575 -91 1722 -91 
Q 1428 -91 1123 -41 
Q 819 9 494 109 
L 494 744 
Q 775 591 1075 516 
Q 1375 441 1709 441 
Q 2250 441 2565 725 
Q 2881 1009 2881 1497 
Q 2881 1984 2565 2268 
Q 2250 2553 1709 2553 
Q 1456 2553 1204 2497 
Q 953 2441 691 2322 
L 691 4666 
z
" transform="scale(0.015625)"/>
       </defs>
       <use xlink:href="#DejaVuSans-30"/>
       <use xlink:href="#DejaVuSans-2e" x="63.623047"/>
       <use xlink:href="#DejaVuSans-32" x="95.410156"/>
       <use xlink:href="#DejaVuSans-35" x="159.033203"/>
      </g>
     </g>
    </g>
    <g id="ytick_3">
     <g id="line2d_9">
      <g>
       <use xlink:href="#m0de6be0456" x="50.14375" y="173.267818" style="stroke: #000000; stroke-width: 0.8"/>
      </g>
     </g>
     <g id="text_10">
      <!-- 0.50 -->
      <g transform="translate(20.878125 177.067036)scale(0.1 -0.1)">
       <use xlink:href="#DejaVuSans-30"/>
       <use xlink:href="#DejaVuSans-2e" x="63.623047"/>
       <use xlink:href="#DejaVuSans-35" x="95.410156"/>
       <use xlink:href="#DejaVuSans-30" x="159.033203"/>
      </g>
     </g>
    </g>
    <g id="ytick_4">
     <g id="line2d_10">
      <g>
       <use xlink:href="#m0de6be0456" x="50.14375" y="147.581727" style="stroke: #000000; stroke-width: 0.8"/>
      </g>
     </g>
     <g id="text_11">
      <!-- 0.75 -->
      <g transform="translate(20.878125 151.380945)scale(0.1 -0.1)">
       <defs>
        <path id="DejaVuSans-37" d="M 525 4666 
L 3525 4666 
L 3525 4397 
L 1831 0 
L 1172 0 
L 2766 4134 
L 525 4134 
L 525 4666 
z
" transform="scale(0.015625)"/>
       </defs>
       <use xlink:href="#DejaVuSans-30"/>
       <use xlink:href="#DejaVuSans-2e" x="63.623047"/>
       <use xlink:href="#DejaVuSans-37" x="95.410156"/>
       <use xlink:href="#DejaVuSans-35" x="159.033203"/>
      </g>
     </g>
    </g>
    <g id="ytick_5">
     <g id="line2d_11">
      <g>
       <use xlink:href="#m0de6be0456" x="50.14375" y="121.895635" style="stroke: #000000; stroke-width: 0.8"/>
      </g>
     </g>
     <g id="text_12">
      <!-- 1.00 -->
      <g transform="translate(20.878125 125.694854)scale(0.1 -0.1)">
       <use xlink:href="#DejaVuSans-31"/>
       <use xlink:href="#DejaVuSans-2e" x="63.623047"/>
       <use xlink:href="#DejaVuSans-30" x="95.410156"/>
       <use xlink:href="#DejaVuSans-30" x="159.033203"/>
      </g>
     </g>
    </g>
    <g id="ytick_6">
     <g id="line2d_12">
      <g>
       <use xlink:href="#m0de6be0456" x="50.14375" y="96.209544" style="stroke: #000000; stroke-width: 0.8"/>
      </g>
     </g>
     <g id="text_13">
      <!-- 1.25 -->
      <g transform="translate(20.878125 100.008763)scale(0.1 -0.1)">
       <use xlink:href="#DejaVuSans-31"/>
       <use xlink:href="#DejaVuSans-2e" x="63.623047"/>
       <use xlink:href="#DejaVuSans-32" x="95.410156"/>
       <use xlink:href="#DejaVuSans-35" x="159.033203"/>
      </g>
     </g>
    </g>
    <g id="ytick_7">
     <g id="line2d_13">
      <g>
       <use xlink:href="#m0de6be0456" x="50.14375" y="70.523453" style="stroke: #000000; stroke-width: 0.8"/>
      </g>
     </g>
     <g id="text_14">
      <!-- 1.50 -->
      <g transform="translate(20.878125 74.322672)scale(0.1 -0.1)">
       <use xlink:href="#DejaVuSans-31"/>
       <use xlink:href="#DejaVuSans-2e" x="63.623047"/>
       <use xlink:href="#DejaVuSans-35" x="95.410156"/>
       <use xlink:href="#DejaVuSans-30" x="159.033203"/>
      </g>
     </g>
    </g>
    <g id="ytick_8">
     <g id="line2d_14">
      <g>
       <use xlink:href="#m0de6be0456" x="50.14375" y="44.837362" style="stroke: #000000; stroke-width: 0.8"/>
      </g>
     </g>
     <g id="text_15">
      <!-- 1.75 -->
      <g transform="translate(20.878125 48.636581)scale(0.1 -0.1)">
       <use xlink:href="#DejaVuSans-31"/>
       <use xlink:href="#DejaVuSans-2e" x="63.623047"/>
       <use xlink:href="#DejaVuSans-37" x="95.410156"/>
       <use xlink:href="#DejaVuSans-35" x="159.033203"/>
      </g>
     </g>
    </g>
    <g id="ytick_9">
     <g id="line2d_15">
      <g>
       <use xlink:href="#m0de6be0456" x="50.14375" y="19.151271" style="stroke: #000000; stroke-width: 0.8"/>
      </g>
     </g>
     <g id="text_16">
      <!-- 2.00 -->
      <g transform="translate(20.878125 22.950489)scale(0.1 -0.1)">
       <use xlink:href="#DejaVuSans-32"/>
       <use xlink:href="#DejaVuSans-2e" x="63.623047"/>
       <use xlink:href="#DejaVuSans-30" x="95.410156"/>
       <use xlink:href="#DejaVuSans-30" x="159.033203"/>
      </g>
     </g>
    </g>
    <g id="text_17">
     <!-- Probability density -->
     <g transform="translate(14.798438 162.270781)rotate(-90)scale(0.1 -0.1)">
      <defs>
       <path id="DejaVuSans-62" d="M 3116 1747 
Q 3116 2381 2855 2742 
Q 2594 3103 2138 3103 
Q 1681 3103 1420 2742 
Q 1159 2381 1159 1747 
Q 1159 1113 1420 752 
Q 1681 391 2138 391 
Q 2594 391 2855 752 
Q 3116 1113 3116 1747 
z
M 1159 2969 
Q 1341 3281 1617 3432 
Q 1894 3584 2278 3584 
Q 2916 3584 3314 3078 
Q 3713 2572 3713 1747 
Q 3713 922 3314 415 
Q 2916 -91 2278 -91 
Q 1894 -91 1617 61 
Q 1341 213 1159 525 
L 1159 0 
L 581 0 
L 581 4863 
L 1159 4863 
L 1159 2969 
z
" transform="scale(0.015625)"/>
       <path id="DejaVuSans-6c" d="M 603 4863 
L 1178 4863 
L 1178 0 
L 603 0 
L 603 4863 
z
" transform="scale(0.015625)"/>
       <path id="DejaVuSans-79" d="M 2059 -325 
Q 1816 -950 1584 -1140 
Q 1353 -1331 966 -1331 
L 506 -1331 
L 506 -850 
L 844 -850 
Q 1081 -850 1212 -737 
Q 1344 -625 1503 -206 
L 1606 56 
L 191 3500 
L 800 3500 
L 1894 763 
L 2988 3500 
L 3597 3500 
L 2059 -325 
z
" transform="scale(0.015625)"/>
       <path id="DejaVuSans-73" d="M 2834 3397 
L 2834 2853 
Q 2591 2978 2328 3040 
Q 2066 3103 1784 3103 
Q 1356 3103 1142 2972 
Q 928 2841 928 2578 
Q 928 2378 1081 2264 
Q 1234 2150 1697 2047 
L 1894 2003 
Q 2506 1872 2764 1633 
Q 3022 1394 3022 966 
Q 3022 478 2636 193 
Q 2250 -91 1575 -91 
Q 1294 -91 989 -36 
Q 684 19 347 128 
L 347 722 
Q 666 556 975 473 
Q 1284 391 1588 391 
Q 1994 391 2212 530 
Q 2431 669 2431 922 
Q 2431 1156 2273 1281 
Q 2116 1406 1581 1522 
L 1381 1569 
Q 847 1681 609 1914 
Q 372 2147 372 2553 
Q 372 3047 722 3315 
Q 1072 3584 1716 3584 
Q 2034 3584 2315 3537 
Q 2597 3491 2834 3397 
z
" transform="scale(0.015625)"/>
      </defs>
      <use xlink:href="#DejaVuSans-50"/>
      <use xlink:href="#DejaVuSans-72" x="58.552734"/>
      <use xlink:href="#DejaVuSans-6f" x="97.416016"/>
      <use xlink:href="#DejaVuSans-62" x="158.597656"/>
      <use xlink:href="#DejaVuSans-61" x="222.074219"/>
      <use xlink:href="#DejaVuSans-62" x="283.353516"/>
      <use xlink:href="#DejaVuSans-69" x="346.830078"/>
      <use xlink:href="#DejaVuSans-6c" x="374.613281"/>
      <use xlink:href="#DejaVuSans-69" x="402.396484"/>
      <use xlink:href="#DejaVuSans-74" x="430.179688"/>
      <use xlink:href="#DejaVuSans-79" x="469.388672"/>
      <use xlink:href="#DejaVuSans-20" x="528.568359"/>
      <use xlink:href="#DejaVuSans-64" x="560.355469"/>
      <use xlink:href="#DejaVuSans-65" x="623.832031"/>
      <use xlink:href="#DejaVuSans-6e" x="685.355469"/>
      <use xlink:href="#DejaVuSans-73" x="748.734375"/>
      <use xlink:href="#DejaVuSans-69" x="800.833984"/>
      <use xlink:href="#DejaVuSans-74" x="828.617188"/>
      <use xlink:href="#DejaVuSans-79" x="867.826172"/>
     </g>
    </g>
   </g>
   <g id="line2d_16">
    <path d="M 65.361932 224.64 
L 369.725568 19.151271 
L 369.725568 19.151271 
" clip-path="url(#p69c539660a)" style="fill: none; stroke: #ff7f0e; stroke-width: 1.5; stroke-linecap: square"/>
   </g>
   <g id="patch_203">
    <path d="M 50.14375 224.64 
L 50.14375 7.2 
" style="fill: none; stroke: #000000; stroke-width: 0.8; stroke-linejoin: miter; stroke-linecap: square"/>
   </g>
   <g id="patch_204">
    <path d="M 384.94375 224.64 
L 384.94375 7.2 
" style="fill: none; stroke: #000000; stroke-width: 0.8; stroke-linejoin: miter; stroke-linecap: square"/>
   </g>
   <g id="patch_205">
    <path d="M 50.14375 224.64 
L 384.94375 224.64 
" style="fill: none; stroke: #000000; stroke-width: 0.8; stroke-linejoin: miter; stroke-linecap: square"/>
   </g>
   <g id="patch_206">
    <path d="M 50.14375 7.2 
L 384.94375 7.2 
" style="fill: none; stroke: #000000; stroke-width: 0.8; stroke-linejoin: miter; stroke-linecap: square"/>
   </g>
  </g>
 </g>
 <defs>
  <clipPath id="p69c539660a">
   <rect x="50.14375" y="7.2" width="334.8" height="217.44"/>
  </clipPath>
 </defs>
</svg>
