<?xml version="1.0" encoding="utf-8" standalone="no"?>
<!DOCTYPE svg PUBLIC "-//W3C//DTD SVG 1.1//EN"
  "http://www.w3.org/Graphics/SVG/1.1/DTD/svg11.dtd">
<svg xmlns:xlink="http://www.w3.org/1999/xlink" width="385.78125pt" height="264.80097pt" viewBox="0 0 385.78125 264.80097" xmlns="http://www.w3.org/2000/svg" version="1.1">
 <metadata>
  <rdf:RDF xmlns:dc="http://purl.org/dc/elements/1.1/" xmlns:cc="http://creativecommons.org/ns#" xmlns:rdf="http://www.w3.org/1999/02/22-rdf-syntax-ns#">
   <cc:Work>
    <dc:type rdf:resource="http://purl.org/dc/dcmitype/StillImage"/>
    <dc:date>2022-08-02T02:12:19.667040</dc:date>
    <dc:format>image/svg+xml</dc:format>
    <dc:creator>
     <cc:Agent>
      <dc:title>Matplotlib v3.5.2, https://matplotlib.org/</dc:title>
     </cc:Agent>
    </dc:creator>
   </cc:Work>
  </rdf:RDF>
 </metadata>
 <defs>
  <style type="text/css">*{stroke-linejoin: round; stroke-linecap: butt}</style>
 </defs>
 <g id="figure_1">
  <g id="patch_1">
   <path d="M 0 264.80097 
L 385.78125 264.80097 
L 385.78125 0 
L 0 0 
L 0 264.80097 
z
" style="fill: none"/>
  </g>
  <g id="axes_1">
   <g id="patch_2">
    <path d="M 43.78125 227.24472 
L 378.58125 227.24472 
L 378.58125 9.80472 
L 43.78125 9.80472 
z
" style="fill: #ffffff"/>
   </g>
   <g id="patch_3">
    <path d="M 60.031649 227.24472 
L 61.540727 227.24472 
L 61.540727 222.617106 
L 60.031649 222.617106 
z
" clip-path="url(#p7f30558d0f)" style="fill: #1f77b4"/>
   </g>
   <g id="patch_4">
    <path d="M 61.540727 227.24472 
L 63.049804 227.24472 
L 63.049804 217.989493 
L 61.540727 217.989493 
z
" clip-path="url(#p7f30558d0f)" style="fill: #1f77b4"/>
   </g>
   <g id="patch_5">
    <path d="M 63.049804 227.24472 
L 64.558882 227.24472 
L 64.558882 219.724848 
L 63.049804 219.724848 
z
" clip-path="url(#p7f30558d0f)" style="fill: #1f77b4"/>
   </g>
   <g id="patch_6">
    <path d="M 64.558882 227.24472 
L 66.06796 227.24472 
L 66.06796 219.724848 
L 64.558882 219.724848 
z
" clip-path="url(#p7f30558d0f)" style="fill: #1f77b4"/>
   </g>
   <g id="patch_7">
    <path d="M 66.06796 227.24472 
L 67.577038 227.24472 
L 67.577038 216.832589 
L 66.06796 216.832589 
z
" clip-path="url(#p7f30558d0f)" style="fill: #1f77b4"/>
   </g>
   <g id="patch_8">
    <path d="M 67.577038 227.24472 
L 69.086115 227.24472 
L 69.086115 204.685103 
L 67.577038 204.685103 
z
" clip-path="url(#p7f30558d0f)" style="fill: #1f77b4"/>
   </g>
   <g id="patch_9">
    <path d="M 69.086115 227.24472 
L 70.595193 227.24472 
L 70.595193 207.577362 
L 69.086115 207.577362 
z
" clip-path="url(#p7f30558d0f)" style="fill: #1f77b4"/>
   </g>
   <g id="patch_10">
    <path d="M 70.595193 227.24472 
L 72.104271 227.24472 
L 72.104271 205.842007 
L 70.595193 205.842007 
z
" clip-path="url(#p7f30558d0f)" style="fill: #1f77b4"/>
   </g>
   <g id="patch_11">
    <path d="M 72.104271 227.24472 
L 73.613349 227.24472 
L 73.613349 206.420458 
L 72.104271 206.420458 
z
" clip-path="url(#p7f30558d0f)" style="fill: #1f77b4"/>
   </g>
   <g id="patch_12">
    <path d="M 73.613349 227.24472 
L 75.122426 227.24472 
L 75.122426 209.312717 
L 73.613349 209.312717 
z
" clip-path="url(#p7f30558d0f)" style="fill: #1f77b4"/>
   </g>
   <g id="patch_13">
    <path d="M 75.122426 227.24472 
L 76.631504 227.24472 
L 76.631504 186.174648 
L 75.122426 186.174648 
z
" clip-path="url(#p7f30558d0f)" style="fill: #1f77b4"/>
   </g>
   <g id="patch_14">
    <path d="M 76.631504 227.24472 
L 78.140582 227.24472 
L 78.140582 192.537617 
L 76.631504 192.537617 
z
" clip-path="url(#p7f30558d0f)" style="fill: #1f77b4"/>
   </g>
   <g id="patch_15">
    <path d="M 78.140582 227.24472 
L 79.64966 227.24472 
L 79.64966 185.017745 
L 78.140582 185.017745 
z
" clip-path="url(#p7f30558d0f)" style="fill: #1f77b4"/>
   </g>
   <g id="patch_16">
    <path d="M 79.64966 227.24472 
L 81.158738 227.24472 
L 81.158738 180.390131 
L 79.64966 180.390131 
z
" clip-path="url(#p7f30558d0f)" style="fill: #1f77b4"/>
   </g>
   <g id="patch_17">
    <path d="M 81.158738 227.24472 
L 82.667815 227.24472 
L 82.667815 175.762517 
L 81.158738 175.762517 
z
" clip-path="url(#p7f30558d0f)" style="fill: #1f77b4"/>
   </g>
   <g id="patch_18">
    <path d="M 82.667815 227.24472 
L 84.176893 227.24472 
L 84.176893 189.645359 
L 82.667815 189.645359 
z
" clip-path="url(#p7f30558d0f)" style="fill: #1f77b4"/>
   </g>
   <g id="patch_19">
    <path d="M 84.176893 227.24472 
L 85.685971 227.24472 
L 85.685971 182.703938 
L 84.176893 182.703938 
z
" clip-path="url(#p7f30558d0f)" style="fill: #1f77b4"/>
   </g>
   <g id="patch_20">
    <path d="M 85.685971 227.24472 
L 87.195049 227.24472 
L 87.195049 176.919421 
L 85.685971 176.919421 
z
" clip-path="url(#p7f30558d0f)" style="fill: #1f77b4"/>
   </g>
   <g id="patch_21">
    <path d="M 87.195049 227.24472 
L 88.704126 227.24472 
L 88.704126 169.399548 
L 87.195049 169.399548 
z
" clip-path="url(#p7f30558d0f)" style="fill: #1f77b4"/>
   </g>
   <g id="patch_22">
    <path d="M 88.704126 227.24472 
L 90.213204 227.24472 
L 90.213204 168.242645 
L 88.704126 168.242645 
z
" clip-path="url(#p7f30558d0f)" style="fill: #1f77b4"/>
   </g>
   <g id="patch_23">
    <path d="M 90.213204 227.24472 
L 91.722282 227.24472 
L 91.722282 158.987418 
L 90.213204 158.987418 
z
" clip-path="url(#p7f30558d0f)" style="fill: #1f77b4"/>
   </g>
   <g id="patch_24">
    <path d="M 91.722282 227.24472 
L 93.23136 227.24472 
L 93.23136 164.193483 
L 91.722282 164.193483 
z
" clip-path="url(#p7f30558d0f)" style="fill: #1f77b4"/>
   </g>
   <g id="patch_25">
    <path d="M 93.23136 227.24472 
L 94.740437 227.24472 
L 94.740437 171.134904 
L 93.23136 171.134904 
z
" clip-path="url(#p7f30558d0f)" style="fill: #1f77b4"/>
   </g>
   <g id="patch_26">
    <path d="M 94.740437 227.24472 
L 96.249515 227.24472 
L 96.249515 161.301224 
L 94.740437 161.301224 
z
" clip-path="url(#p7f30558d0f)" style="fill: #1f77b4"/>
   </g>
   <g id="patch_27">
    <path d="M 96.249515 227.24472 
L 97.758593 227.24472 
L 97.758593 160.144321 
L 96.249515 160.144321 
z
" clip-path="url(#p7f30558d0f)" style="fill: #1f77b4"/>
   </g>
   <g id="patch_28">
    <path d="M 97.758593 227.24472 
L 99.267671 227.24472 
L 99.267671 140.476963 
L 97.758593 140.476963 
z
" clip-path="url(#p7f30558d0f)" style="fill: #1f77b4"/>
   </g>
   <g id="patch_29">
    <path d="M 99.267671 227.24472 
L 100.776748 227.24472 
L 100.776748 163.03658 
L 99.267671 163.03658 
z
" clip-path="url(#p7f30558d0f)" style="fill: #1f77b4"/>
   </g>
   <g id="patch_30">
    <path d="M 100.776748 227.24472 
L 102.285826 227.24472 
L 102.285826 149.153738 
L 100.776748 149.153738 
z
" clip-path="url(#p7f30558d0f)" style="fill: #1f77b4"/>
   </g>
   <g id="patch_31">
    <path d="M 102.285826 227.24472 
L 103.794904 227.24472 
L 103.794904 153.781352 
L 102.285826 153.781352 
z
" clip-path="url(#p7f30558d0f)" style="fill: #1f77b4"/>
   </g>
   <g id="patch_32">
    <path d="M 103.794904 227.24472 
L 105.303982 227.24472 
L 105.303982 145.683028 
L 103.794904 145.683028 
z
" clip-path="url(#p7f30558d0f)" style="fill: #1f77b4"/>
   </g>
   <g id="patch_33">
    <path d="M 105.303982 227.24472 
L 106.813059 227.24472 
L 106.813059 152.045997 
L 105.303982 152.045997 
z
" clip-path="url(#p7f30558d0f)" style="fill: #1f77b4"/>
   </g>
   <g id="patch_34">
    <path d="M 106.813059 227.24472 
L 108.322137 227.24472 
L 108.322137 143.947673 
L 106.813059 143.947673 
z
" clip-path="url(#p7f30558d0f)" style="fill: #1f77b4"/>
   </g>
   <g id="patch_35">
    <path d="M 108.322137 227.24472 
L 109.831215 227.24472 
L 109.831215 135.849349 
L 108.322137 135.849349 
z
" clip-path="url(#p7f30558d0f)" style="fill: #1f77b4"/>
   </g>
   <g id="patch_36">
    <path d="M 109.831215 227.24472 
L 111.340293 227.24472 
L 111.340293 144.526125 
L 109.831215 144.526125 
z
" clip-path="url(#p7f30558d0f)" style="fill: #1f77b4"/>
   </g>
   <g id="patch_37">
    <path d="M 111.340293 227.24472 
L 112.84937 227.24472 
L 112.84937 137.006252 
L 111.340293 137.006252 
z
" clip-path="url(#p7f30558d0f)" style="fill: #1f77b4"/>
   </g>
   <g id="patch_38">
    <path d="M 112.84937 227.24472 
L 114.358448 227.24472 
L 114.358448 118.495797 
L 112.84937 118.495797 
z
" clip-path="url(#p7f30558d0f)" style="fill: #1f77b4"/>
   </g>
   <g id="patch_39">
    <path d="M 114.358448 227.24472 
L 115.867526 227.24472 
L 115.867526 111.554377 
L 114.358448 111.554377 
z
" clip-path="url(#p7f30558d0f)" style="fill: #1f77b4"/>
   </g>
   <g id="patch_40">
    <path d="M 115.867526 227.24472 
L 117.376604 227.24472 
L 117.376604 123.123411 
L 115.867526 123.123411 
z
" clip-path="url(#p7f30558d0f)" style="fill: #1f77b4"/>
   </g>
   <g id="patch_41">
    <path d="M 117.376604 227.24472 
L 118.885681 227.24472 
L 118.885681 136.427801 
L 117.376604 136.427801 
z
" clip-path="url(#p7f30558d0f)" style="fill: #1f77b4"/>
   </g>
   <g id="patch_42">
    <path d="M 118.885681 227.24472 
L 120.394759 227.24472 
L 120.394759 121.966508 
L 118.885681 121.966508 
z
" clip-path="url(#p7f30558d0f)" style="fill: #1f77b4"/>
   </g>
   <g id="patch_43">
    <path d="M 120.394759 227.24472 
L 121.903837 227.24472 
L 121.903837 121.966508 
L 120.394759 121.966508 
z
" clip-path="url(#p7f30558d0f)" style="fill: #1f77b4"/>
   </g>
   <g id="patch_44">
    <path d="M 121.903837 227.24472 
L 123.412915 227.24472 
L 123.412915 121.966508 
L 121.903837 121.966508 
z
" clip-path="url(#p7f30558d0f)" style="fill: #1f77b4"/>
   </g>
   <g id="patch_45">
    <path d="M 123.412915 227.24472 
L 124.921992 227.24472 
L 124.921992 111.554377 
L 123.412915 111.554377 
z
" clip-path="url(#p7f30558d0f)" style="fill: #1f77b4"/>
   </g>
   <g id="patch_46">
    <path d="M 124.921992 227.24472 
L 126.43107 227.24472 
L 126.43107 120.231153 
L 124.921992 120.231153 
z
" clip-path="url(#p7f30558d0f)" style="fill: #1f77b4"/>
   </g>
   <g id="patch_47">
    <path d="M 126.43107 227.24472 
L 127.940148 227.24472 
L 127.940148 110.975925 
L 126.43107 110.975925 
z
" clip-path="url(#p7f30558d0f)" style="fill: #1f77b4"/>
   </g>
   <g id="patch_48">
    <path d="M 127.940148 227.24472 
L 129.449226 227.24472 
L 129.449226 118.495797 
L 127.940148 118.495797 
z
" clip-path="url(#p7f30558d0f)" style="fill: #1f77b4"/>
   </g>
   <g id="patch_49">
    <path d="M 129.449226 227.24472 
L 130.958303 227.24472 
L 130.958303 100.563794 
L 129.449226 100.563794 
z
" clip-path="url(#p7f30558d0f)" style="fill: #1f77b4"/>
   </g>
   <g id="patch_50">
    <path d="M 130.958303 227.24472 
L 132.467381 227.24472 
L 132.467381 106.926763 
L 130.958303 106.926763 
z
" clip-path="url(#p7f30558d0f)" style="fill: #1f77b4"/>
   </g>
   <g id="patch_51">
    <path d="M 132.467381 227.24472 
L 133.976459 227.24472 
L 133.976459 112.71128 
L 132.467381 112.71128 
z
" clip-path="url(#p7f30558d0f)" style="fill: #1f77b4"/>
   </g>
   <g id="patch_52">
    <path d="M 133.976459 227.24472 
L 135.485537 227.24472 
L 135.485537 97.093084 
L 133.976459 97.093084 
z
" clip-path="url(#p7f30558d0f)" style="fill: #1f77b4"/>
   </g>
   <g id="patch_53">
    <path d="M 135.485537 227.24472 
L 136.994614 227.24472 
L 136.994614 95.936181 
L 135.485537 95.936181 
z
" clip-path="url(#p7f30558d0f)" style="fill: #1f77b4"/>
   </g>
   <g id="patch_54">
    <path d="M 136.994614 227.24472 
L 138.503692 227.24472 
L 138.503692 80.896436 
L 136.994614 80.896436 
z
" clip-path="url(#p7f30558d0f)" style="fill: #1f77b4"/>
   </g>
   <g id="patch_55">
    <path d="M 138.503692 227.24472 
L 140.01277 227.24472 
L 140.01277 87.837857 
L 138.503692 87.837857 
z
" clip-path="url(#p7f30558d0f)" style="fill: #1f77b4"/>
   </g>
   <g id="patch_56">
    <path d="M 140.01277 227.24472 
L 141.521848 227.24472 
L 141.521848 84.945598 
L 140.01277 84.945598 
z
" clip-path="url(#p7f30558d0f)" style="fill: #1f77b4"/>
   </g>
   <g id="patch_57">
    <path d="M 141.521848 227.24472 
L 143.030925 227.24472 
L 143.030925 79.161081 
L 141.521848 79.161081 
z
" clip-path="url(#p7f30558d0f)" style="fill: #1f77b4"/>
   </g>
   <g id="patch_58">
    <path d="M 143.030925 227.24472 
L 144.540003 227.24472 
L 144.540003 73.376564 
L 143.030925 73.376564 
z
" clip-path="url(#p7f30558d0f)" style="fill: #1f77b4"/>
   </g>
   <g id="patch_59">
    <path d="M 144.540003 227.24472 
L 146.049081 227.24472 
L 146.049081 78.582629 
L 144.540003 78.582629 
z
" clip-path="url(#p7f30558d0f)" style="fill: #1f77b4"/>
   </g>
   <g id="patch_60">
    <path d="M 146.049081 227.24472 
L 147.558159 227.24472 
L 147.558159 90.151663 
L 146.049081 90.151663 
z
" clip-path="url(#p7f30558d0f)" style="fill: #1f77b4"/>
   </g>
   <g id="patch_61">
    <path d="M 147.558159 227.24472 
L 149.067237 227.24472 
L 149.067237 82.053339 
L 147.558159 82.053339 
z
" clip-path="url(#p7f30558d0f)" style="fill: #1f77b4"/>
   </g>
   <g id="patch_62">
    <path d="M 149.067237 227.24472 
L 150.576314 227.24472 
L 150.576314 106.926763 
L 149.067237 106.926763 
z
" clip-path="url(#p7f30558d0f)" style="fill: #1f77b4"/>
   </g>
   <g id="patch_63">
    <path d="M 150.576314 227.24472 
L 152.085392 227.24472 
L 152.085392 83.210243 
L 150.576314 83.210243 
z
" clip-path="url(#p7f30558d0f)" style="fill: #1f77b4"/>
   </g>
   <g id="patch_64">
    <path d="M 152.085392 227.24472 
L 153.59447 227.24472 
L 153.59447 72.798112 
L 152.085392 72.798112 
z
" clip-path="url(#p7f30558d0f)" style="fill: #1f77b4"/>
   </g>
   <g id="patch_65">
    <path d="M 153.59447 227.24472 
L 155.103548 227.24472 
L 155.103548 89.573212 
L 153.59447 89.573212 
z
" clip-path="url(#p7f30558d0f)" style="fill: #1f77b4"/>
   </g>
   <g id="patch_66">
    <path d="M 155.103548 227.24472 
L 156.612625 227.24472 
L 156.612625 78.582629 
L 155.103548 78.582629 
z
" clip-path="url(#p7f30558d0f)" style="fill: #1f77b4"/>
   </g>
   <g id="patch_67">
    <path d="M 156.612625 227.24472 
L 158.121703 227.24472 
L 158.121703 73.955015 
L 156.612625 73.955015 
z
" clip-path="url(#p7f30558d0f)" style="fill: #1f77b4"/>
   </g>
   <g id="patch_68">
    <path d="M 158.121703 227.24472 
L 159.630781 227.24472 
L 159.630781 77.425726 
L 158.121703 77.425726 
z
" clip-path="url(#p7f30558d0f)" style="fill: #1f77b4"/>
   </g>
   <g id="patch_69">
    <path d="M 159.630781 227.24472 
L 161.139859 227.24472 
L 161.139859 76.268822 
L 159.630781 76.268822 
z
" clip-path="url(#p7f30558d0f)" style="fill: #1f77b4"/>
   </g>
   <g id="patch_70">
    <path d="M 161.139859 227.24472 
L 162.648936 227.24472 
L 162.648936 61.807529 
L 161.139859 61.807529 
z
" clip-path="url(#p7f30558d0f)" style="fill: #1f77b4"/>
   </g>
   <g id="patch_71">
    <path d="M 162.648936 227.24472 
L 164.158014 227.24472 
L 164.158014 52.552302 
L 162.648936 52.552302 
z
" clip-path="url(#p7f30558d0f)" style="fill: #1f77b4"/>
   </g>
   <g id="patch_72">
    <path d="M 164.158014 227.24472 
L 165.667092 227.24472 
L 165.667092 64.699788 
L 164.158014 64.699788 
z
" clip-path="url(#p7f30558d0f)" style="fill: #1f77b4"/>
   </g>
   <g id="patch_73">
    <path d="M 165.667092 227.24472 
L 167.17617 227.24472 
L 167.17617 64.699788 
L 165.667092 64.699788 
z
" clip-path="url(#p7f30558d0f)" style="fill: #1f77b4"/>
   </g>
   <g id="patch_74">
    <path d="M 167.17617 227.24472 
L 168.685247 227.24472 
L 168.685247 60.650626 
L 167.17617 60.650626 
z
" clip-path="url(#p7f30558d0f)" style="fill: #1f77b4"/>
   </g>
   <g id="patch_75">
    <path d="M 168.685247 227.24472 
L 170.194325 227.24472 
L 170.194325 73.376564 
L 168.685247 73.376564 
z
" clip-path="url(#p7f30558d0f)" style="fill: #1f77b4"/>
   </g>
   <g id="patch_76">
    <path d="M 170.194325 227.24472 
L 171.703403 227.24472 
L 171.703403 71.062757 
L 170.194325 71.062757 
z
" clip-path="url(#p7f30558d0f)" style="fill: #1f77b4"/>
   </g>
   <g id="patch_77">
    <path d="M 171.703403 227.24472 
L 173.212481 227.24472 
L 173.212481 60.650626 
L 171.703403 60.650626 
z
" clip-path="url(#p7f30558d0f)" style="fill: #1f77b4"/>
   </g>
   <g id="patch_78">
    <path d="M 173.212481 227.24472 
L 174.721558 227.24472 
L 174.721558 61.229078 
L 173.212481 61.229078 
z
" clip-path="url(#p7f30558d0f)" style="fill: #1f77b4"/>
   </g>
   <g id="patch_79">
    <path d="M 174.721558 227.24472 
L 176.230636 227.24472 
L 176.230636 70.484305 
L 174.721558 70.484305 
z
" clip-path="url(#p7f30558d0f)" style="fill: #1f77b4"/>
   </g>
   <g id="patch_80">
    <path d="M 176.230636 227.24472 
L 177.739714 227.24472 
L 177.739714 46.189333 
L 176.230636 46.189333 
z
" clip-path="url(#p7f30558d0f)" style="fill: #1f77b4"/>
   </g>
   <g id="patch_81">
    <path d="M 177.739714 227.24472 
L 179.248792 227.24472 
L 179.248792 53.709205 
L 177.739714 53.709205 
z
" clip-path="url(#p7f30558d0f)" style="fill: #1f77b4"/>
   </g>
   <g id="patch_82">
    <path d="M 179.248792 227.24472 
L 180.757869 227.24472 
L 180.757869 56.023012 
L 179.248792 56.023012 
z
" clip-path="url(#p7f30558d0f)" style="fill: #1f77b4"/>
   </g>
   <g id="patch_83">
    <path d="M 180.757869 227.24472 
L 182.266947 227.24472 
L 182.266947 53.709205 
L 180.757869 53.709205 
z
" clip-path="url(#p7f30558d0f)" style="fill: #1f77b4"/>
   </g>
   <g id="patch_84">
    <path d="M 182.266947 227.24472 
L 183.776025 227.24472 
L 183.776025 63.542884 
L 182.266947 63.542884 
z
" clip-path="url(#p7f30558d0f)" style="fill: #1f77b4"/>
   </g>
   <g id="patch_85">
    <path d="M 183.776025 227.24472 
L 185.285103 227.24472 
L 185.285103 71.062757 
L 183.776025 71.062757 
z
" clip-path="url(#p7f30558d0f)" style="fill: #1f77b4"/>
   </g>
   <g id="patch_86">
    <path d="M 185.285103 227.24472 
L 186.79418 227.24472 
L 186.79418 31.72804 
L 185.285103 31.72804 
z
" clip-path="url(#p7f30558d0f)" style="fill: #1f77b4"/>
   </g>
   <g id="patch_87">
    <path d="M 186.79418 227.24472 
L 188.303258 227.24472 
L 188.303258 64.121336 
L 186.79418 64.121336 
z
" clip-path="url(#p7f30558d0f)" style="fill: #1f77b4"/>
   </g>
   <g id="patch_88">
    <path d="M 188.303258 227.24472 
L 189.812336 227.24472 
L 189.812336 54.866109 
L 188.303258 54.866109 
z
" clip-path="url(#p7f30558d0f)" style="fill: #1f77b4"/>
   </g>
   <g id="patch_89">
    <path d="M 189.812336 227.24472 
L 191.321414 227.24472 
L 191.321414 40.404816 
L 189.812336 40.404816 
z
" clip-path="url(#p7f30558d0f)" style="fill: #1f77b4"/>
   </g>
   <g id="patch_90">
    <path d="M 191.321414 227.24472 
L 192.830491 227.24472 
L 192.830491 58.915271 
L 191.321414 58.915271 
z
" clip-path="url(#p7f30558d0f)" style="fill: #1f77b4"/>
   </g>
   <g id="patch_91">
    <path d="M 192.830491 227.24472 
L 194.339569 227.24472 
L 194.339569 45.610881 
L 192.830491 45.610881 
z
" clip-path="url(#p7f30558d0f)" style="fill: #1f77b4"/>
   </g>
   <g id="patch_92">
    <path d="M 194.339569 227.24472 
L 195.848647 227.24472 
L 195.848647 55.44456 
L 194.339569 55.44456 
z
" clip-path="url(#p7f30558d0f)" style="fill: #1f77b4"/>
   </g>
   <g id="patch_93">
    <path d="M 195.848647 227.24472 
L 197.357725 227.24472 
L 197.357725 62.964433 
L 195.848647 62.964433 
z
" clip-path="url(#p7f30558d0f)" style="fill: #1f77b4"/>
   </g>
   <g id="patch_94">
    <path d="M 197.357725 227.24472 
L 198.866802 227.24472 
L 198.866802 51.395398 
L 197.357725 51.395398 
z
" clip-path="url(#p7f30558d0f)" style="fill: #1f77b4"/>
   </g>
   <g id="patch_95">
    <path d="M 198.866802 227.24472 
L 200.37588 227.24472 
L 200.37588 53.709205 
L 198.866802 53.709205 
z
" clip-path="url(#p7f30558d0f)" style="fill: #1f77b4"/>
   </g>
   <g id="patch_96">
    <path d="M 200.37588 227.24472 
L 201.884958 227.24472 
L 201.884958 34.620299 
L 200.37588 34.620299 
z
" clip-path="url(#p7f30558d0f)" style="fill: #1f77b4"/>
   </g>
   <g id="patch_97">
    <path d="M 201.884958 227.24472 
L 203.394036 227.24472 
L 203.394036 45.03243 
L 201.884958 45.03243 
z
" clip-path="url(#p7f30558d0f)" style="fill: #1f77b4"/>
   </g>
   <g id="patch_98">
    <path d="M 203.394036 227.24472 
L 204.903113 227.24472 
L 204.903113 58.336819 
L 203.394036 58.336819 
z
" clip-path="url(#p7f30558d0f)" style="fill: #1f77b4"/>
   </g>
   <g id="patch_99">
    <path d="M 204.903113 227.24472 
L 206.412191 227.24472 
L 206.412191 49.081592 
L 204.903113 49.081592 
z
" clip-path="url(#p7f30558d0f)" style="fill: #1f77b4"/>
   </g>
   <g id="patch_100">
    <path d="M 206.412191 227.24472 
L 207.921269 227.24472 
L 207.921269 72.798112 
L 206.412191 72.798112 
z
" clip-path="url(#p7f30558d0f)" style="fill: #1f77b4"/>
   </g>
   <g id="patch_101">
    <path d="M 207.921269 227.24472 
L 209.430347 227.24472 
L 209.430347 20.159006 
L 207.921269 20.159006 
z
" clip-path="url(#p7f30558d0f)" style="fill: #1f77b4"/>
   </g>
   <g id="patch_102">
    <path d="M 209.430347 227.24472 
L 210.939424 227.24472 
L 210.939424 47.346236 
L 209.430347 47.346236 
z
" clip-path="url(#p7f30558d0f)" style="fill: #1f77b4"/>
   </g>
   <g id="patch_103">
    <path d="M 210.939424 227.24472 
L 212.448502 227.24472 
L 212.448502 56.601464 
L 210.939424 56.601464 
z
" clip-path="url(#p7f30558d0f)" style="fill: #1f77b4"/>
   </g>
   <g id="patch_104">
    <path d="M 212.448502 227.24472 
L 213.95758 227.24472 
L 213.95758 45.03243 
L 212.448502 45.03243 
z
" clip-path="url(#p7f30558d0f)" style="fill: #1f77b4"/>
   </g>
   <g id="patch_105">
    <path d="M 213.95758 227.24472 
L 215.466658 227.24472 
L 215.466658 58.336819 
L 213.95758 58.336819 
z
" clip-path="url(#p7f30558d0f)" style="fill: #1f77b4"/>
   </g>
   <g id="patch_106">
    <path d="M 215.466658 227.24472 
L 216.975736 227.24472 
L 216.975736 56.601464 
L 215.466658 56.601464 
z
" clip-path="url(#p7f30558d0f)" style="fill: #1f77b4"/>
   </g>
   <g id="patch_107">
    <path d="M 216.975736 227.24472 
L 218.484813 227.24472 
L 218.484813 27.100426 
L 216.975736 27.100426 
z
" clip-path="url(#p7f30558d0f)" style="fill: #1f77b4"/>
   </g>
   <g id="patch_108">
    <path d="M 218.484813 227.24472 
L 219.993891 227.24472 
L 219.993891 62.964433 
L 218.484813 62.964433 
z
" clip-path="url(#p7f30558d0f)" style="fill: #1f77b4"/>
   </g>
   <g id="patch_109">
    <path d="M 219.993891 227.24472 
L 221.502969 227.24472 
L 221.502969 52.552302 
L 219.993891 52.552302 
z
" clip-path="url(#p7f30558d0f)" style="fill: #1f77b4"/>
   </g>
   <g id="patch_110">
    <path d="M 221.502969 227.24472 
L 223.012047 227.24472 
L 223.012047 58.915271 
L 221.502969 58.915271 
z
" clip-path="url(#p7f30558d0f)" style="fill: #1f77b4"/>
   </g>
   <g id="patch_111">
    <path d="M 223.012047 227.24472 
L 224.521124 227.24472 
L 224.521124 58.336819 
L 223.012047 58.336819 
z
" clip-path="url(#p7f30558d0f)" style="fill: #1f77b4"/>
   </g>
   <g id="patch_112">
    <path d="M 224.521124 227.24472 
L 226.030202 227.24472 
L 226.030202 45.610881 
L 224.521124 45.610881 
z
" clip-path="url(#p7f30558d0f)" style="fill: #1f77b4"/>
   </g>
   <g id="patch_113">
    <path d="M 226.030202 227.24472 
L 227.53928 227.24472 
L 227.53928 51.97385 
L 226.030202 51.97385 
z
" clip-path="url(#p7f30558d0f)" style="fill: #1f77b4"/>
   </g>
   <g id="patch_114">
    <path d="M 227.53928 227.24472 
L 229.048358 227.24472 
L 229.048358 38.669461 
L 227.53928 38.669461 
z
" clip-path="url(#p7f30558d0f)" style="fill: #1f77b4"/>
   </g>
   <g id="patch_115">
    <path d="M 229.048358 227.24472 
L 230.557435 227.24472 
L 230.557435 60.650626 
L 229.048358 60.650626 
z
" clip-path="url(#p7f30558d0f)" style="fill: #1f77b4"/>
   </g>
   <g id="patch_116">
    <path d="M 230.557435 227.24472 
L 232.066513 227.24472 
L 232.066513 46.189333 
L 230.557435 46.189333 
z
" clip-path="url(#p7f30558d0f)" style="fill: #1f77b4"/>
   </g>
   <g id="patch_117">
    <path d="M 232.066513 227.24472 
L 233.575591 227.24472 
L 233.575591 51.97385 
L 232.066513 51.97385 
z
" clip-path="url(#p7f30558d0f)" style="fill: #1f77b4"/>
   </g>
   <g id="patch_118">
    <path d="M 233.575591 227.24472 
L 235.084669 227.24472 
L 235.084669 42.718623 
L 233.575591 42.718623 
z
" clip-path="url(#p7f30558d0f)" style="fill: #1f77b4"/>
   </g>
   <g id="patch_119">
    <path d="M 235.084669 227.24472 
L 236.593746 227.24472 
L 236.593746 58.336819 
L 235.084669 58.336819 
z
" clip-path="url(#p7f30558d0f)" style="fill: #1f77b4"/>
   </g>
   <g id="patch_120">
    <path d="M 236.593746 227.24472 
L 238.102824 227.24472 
L 238.102824 57.758367 
L 236.593746 57.758367 
z
" clip-path="url(#p7f30558d0f)" style="fill: #1f77b4"/>
   </g>
   <g id="patch_121">
    <path d="M 238.102824 227.24472 
L 239.611902 227.24472 
L 239.611902 46.767785 
L 238.102824 46.767785 
z
" clip-path="url(#p7f30558d0f)" style="fill: #1f77b4"/>
   </g>
   <g id="patch_122">
    <path d="M 239.611902 227.24472 
L 241.12098 227.24472 
L 241.12098 49.660043 
L 239.611902 49.660043 
z
" clip-path="url(#p7f30558d0f)" style="fill: #1f77b4"/>
   </g>
   <g id="patch_123">
    <path d="M 241.12098 227.24472 
L 242.630057 227.24472 
L 242.630057 44.453978 
L 241.12098 44.453978 
z
" clip-path="url(#p7f30558d0f)" style="fill: #1f77b4"/>
   </g>
   <g id="patch_124">
    <path d="M 242.630057 227.24472 
L 244.139135 227.24472 
L 244.139135 50.238495 
L 242.630057 50.238495 
z
" clip-path="url(#p7f30558d0f)" style="fill: #1f77b4"/>
   </g>
   <g id="patch_125">
    <path d="M 244.139135 227.24472 
L 245.648213 227.24472 
L 245.648213 56.023012 
L 244.139135 56.023012 
z
" clip-path="url(#p7f30558d0f)" style="fill: #1f77b4"/>
   </g>
   <g id="patch_126">
    <path d="M 245.648213 227.24472 
L 247.157291 227.24472 
L 247.157291 56.023012 
L 245.648213 56.023012 
z
" clip-path="url(#p7f30558d0f)" style="fill: #1f77b4"/>
   </g>
   <g id="patch_127">
    <path d="M 247.157291 227.24472 
L 248.666368 227.24472 
L 248.666368 58.336819 
L 247.157291 58.336819 
z
" clip-path="url(#p7f30558d0f)" style="fill: #1f77b4"/>
   </g>
   <g id="patch_128">
    <path d="M 248.666368 227.24472 
L 250.175446 227.24472 
L 250.175446 65.27824 
L 248.666368 65.27824 
z
" clip-path="url(#p7f30558d0f)" style="fill: #1f77b4"/>
   </g>
   <g id="patch_129">
    <path d="M 250.175446 227.24472 
L 251.684524 227.24472 
L 251.684524 74.533467 
L 250.175446 74.533467 
z
" clip-path="url(#p7f30558d0f)" style="fill: #1f77b4"/>
   </g>
   <g id="patch_130">
    <path d="M 251.684524 227.24472 
L 253.193602 227.24472 
L 253.193602 58.915271 
L 251.684524 58.915271 
z
" clip-path="url(#p7f30558d0f)" style="fill: #1f77b4"/>
   </g>
   <g id="patch_131">
    <path d="M 253.193602 227.24472 
L 254.702679 227.24472 
L 254.702679 72.798112 
L 253.193602 72.798112 
z
" clip-path="url(#p7f30558d0f)" style="fill: #1f77b4"/>
   </g>
   <g id="patch_132">
    <path d="M 254.702679 227.24472 
L 256.211757 227.24472 
L 256.211757 62.964433 
L 254.702679 62.964433 
z
" clip-path="url(#p7f30558d0f)" style="fill: #1f77b4"/>
   </g>
   <g id="patch_133">
    <path d="M 256.211757 227.24472 
L 257.720835 227.24472 
L 257.720835 64.699788 
L 256.211757 64.699788 
z
" clip-path="url(#p7f30558d0f)" style="fill: #1f77b4"/>
   </g>
   <g id="patch_134">
    <path d="M 257.720835 227.24472 
L 259.229913 227.24472 
L 259.229913 73.955015 
L 257.720835 73.955015 
z
" clip-path="url(#p7f30558d0f)" style="fill: #1f77b4"/>
   </g>
   <g id="patch_135">
    <path d="M 259.229913 227.24472 
L 260.73899 227.24472 
L 260.73899 71.641209 
L 259.229913 71.641209 
z
" clip-path="url(#p7f30558d0f)" style="fill: #1f77b4"/>
   </g>
   <g id="patch_136">
    <path d="M 260.73899 227.24472 
L 262.248068 227.24472 
L 262.248068 80.317984 
L 260.73899 80.317984 
z
" clip-path="url(#p7f30558d0f)" style="fill: #1f77b4"/>
   </g>
   <g id="patch_137">
    <path d="M 262.248068 227.24472 
L 263.757146 227.24472 
L 263.757146 80.317984 
L 262.248068 80.317984 
z
" clip-path="url(#p7f30558d0f)" style="fill: #1f77b4"/>
   </g>
   <g id="patch_138">
    <path d="M 263.757146 227.24472 
L 265.266224 227.24472 
L 265.266224 73.376564 
L 263.757146 73.376564 
z
" clip-path="url(#p7f30558d0f)" style="fill: #1f77b4"/>
   </g>
   <g id="patch_139">
    <path d="M 265.266224 227.24472 
L 266.775301 227.24472 
L 266.775301 73.376564 
L 265.266224 73.376564 
z
" clip-path="url(#p7f30558d0f)" style="fill: #1f77b4"/>
   </g>
   <g id="patch_140">
    <path d="M 266.775301 227.24472 
L 268.284379 227.24472 
L 268.284379 75.690371 
L 266.775301 75.690371 
z
" clip-path="url(#p7f30558d0f)" style="fill: #1f77b4"/>
   </g>
   <g id="patch_141">
    <path d="M 268.284379 227.24472 
L 269.793457 227.24472 
L 269.793457 72.798112 
L 268.284379 72.798112 
z
" clip-path="url(#p7f30558d0f)" style="fill: #1f77b4"/>
   </g>
   <g id="patch_142">
    <path d="M 269.793457 227.24472 
L 271.302535 227.24472 
L 271.302535 93.043922 
L 269.793457 93.043922 
z
" clip-path="url(#p7f30558d0f)" style="fill: #1f77b4"/>
   </g>
   <g id="patch_143">
    <path d="M 271.302535 227.24472 
L 272.811612 227.24472 
L 272.811612 94.779277 
L 271.302535 94.779277 
z
" clip-path="url(#p7f30558d0f)" style="fill: #1f77b4"/>
   </g>
   <g id="patch_144">
    <path d="M 272.811612 227.24472 
L 274.32069 227.24472 
L 274.32069 75.690371 
L 272.811612 75.690371 
z
" clip-path="url(#p7f30558d0f)" style="fill: #1f77b4"/>
   </g>
   <g id="patch_145">
    <path d="M 274.32069 227.24472 
L 275.829768 227.24472 
L 275.829768 86.680953 
L 274.32069 86.680953 
z
" clip-path="url(#p7f30558d0f)" style="fill: #1f77b4"/>
   </g>
   <g id="patch_146">
    <path d="M 275.829768 227.24472 
L 277.338846 227.24472 
L 277.338846 89.573212 
L 275.829768 89.573212 
z
" clip-path="url(#p7f30558d0f)" style="fill: #1f77b4"/>
   </g>
   <g id="patch_147">
    <path d="M 277.338846 227.24472 
L 278.847923 227.24472 
L 278.847923 102.299149 
L 277.338846 102.299149 
z
" clip-path="url(#p7f30558d0f)" style="fill: #1f77b4"/>
   </g>
   <g id="patch_148">
    <path d="M 278.847923 227.24472 
L 280.357001 227.24472 
L 280.357001 91.887019 
L 278.847923 91.887019 
z
" clip-path="url(#p7f30558d0f)" style="fill: #1f77b4"/>
   </g>
   <g id="patch_149">
    <path d="M 280.357001 227.24472 
L 281.866079 227.24472 
L 281.866079 90.730115 
L 280.357001 90.730115 
z
" clip-path="url(#p7f30558d0f)" style="fill: #1f77b4"/>
   </g>
   <g id="patch_150">
    <path d="M 281.866079 227.24472 
L 283.375157 227.24472 
L 283.375157 102.299149 
L 281.866079 102.299149 
z
" clip-path="url(#p7f30558d0f)" style="fill: #1f77b4"/>
   </g>
   <g id="patch_151">
    <path d="M 283.375157 227.24472 
L 284.884235 227.24472 
L 284.884235 112.132829 
L 283.375157 112.132829 
z
" clip-path="url(#p7f30558d0f)" style="fill: #1f77b4"/>
   </g>
   <g id="patch_152">
    <path d="M 284.884235 227.24472 
L 286.393312 227.24472 
L 286.393312 88.99476 
L 284.884235 88.99476 
z
" clip-path="url(#p7f30558d0f)" style="fill: #1f77b4"/>
   </g>
   <g id="patch_153">
    <path d="M 286.393312 227.24472 
L 287.90239 227.24472 
L 287.90239 97.093084 
L 286.393312 97.093084 
z
" clip-path="url(#p7f30558d0f)" style="fill: #1f77b4"/>
   </g>
   <g id="patch_154">
    <path d="M 287.90239 227.24472 
L 289.411468 227.24472 
L 289.411468 96.514632 
L 287.90239 96.514632 
z
" clip-path="url(#p7f30558d0f)" style="fill: #1f77b4"/>
   </g>
   <g id="patch_155">
    <path d="M 289.411468 227.24472 
L 290.920546 227.24472 
L 290.920546 113.289732 
L 289.411468 113.289732 
z
" clip-path="url(#p7f30558d0f)" style="fill: #1f77b4"/>
   </g>
   <g id="patch_156">
    <path d="M 290.920546 227.24472 
L 292.429623 227.24472 
L 292.429623 96.514632 
L 290.920546 96.514632 
z
" clip-path="url(#p7f30558d0f)" style="fill: #1f77b4"/>
   </g>
   <g id="patch_157">
    <path d="M 292.429623 227.24472 
L 293.938701 227.24472 
L 293.938701 108.083667 
L 292.429623 108.083667 
z
" clip-path="url(#p7f30558d0f)" style="fill: #1f77b4"/>
   </g>
   <g id="patch_158">
    <path d="M 293.938701 227.24472 
L 295.447779 227.24472 
L 295.447779 110.397473 
L 293.938701 110.397473 
z
" clip-path="url(#p7f30558d0f)" style="fill: #1f77b4"/>
   </g>
   <g id="patch_159">
    <path d="M 295.447779 227.24472 
L 296.956857 227.24472 
L 296.956857 98.828439 
L 295.447779 98.828439 
z
" clip-path="url(#p7f30558d0f)" style="fill: #1f77b4"/>
   </g>
   <g id="patch_160">
    <path d="M 296.956857 227.24472 
L 298.465934 227.24472 
L 298.465934 112.71128 
L 296.956857 112.71128 
z
" clip-path="url(#p7f30558d0f)" style="fill: #1f77b4"/>
   </g>
   <g id="patch_161">
    <path d="M 298.465934 227.24472 
L 299.975012 227.24472 
L 299.975012 108.083667 
L 298.465934 108.083667 
z
" clip-path="url(#p7f30558d0f)" style="fill: #1f77b4"/>
   </g>
   <g id="patch_162">
    <path d="M 299.975012 227.24472 
L 301.48409 227.24472 
L 301.48409 117.338894 
L 299.975012 117.338894 
z
" clip-path="url(#p7f30558d0f)" style="fill: #1f77b4"/>
   </g>
   <g id="patch_163">
    <path d="M 301.48409 227.24472 
L 302.993168 227.24472 
L 302.993168 128.907928 
L 301.48409 128.907928 
z
" clip-path="url(#p7f30558d0f)" style="fill: #1f77b4"/>
   </g>
   <g id="patch_164">
    <path d="M 302.993168 227.24472 
L 304.502245 227.24472 
L 304.502245 123.701863 
L 302.993168 123.701863 
z
" clip-path="url(#p7f30558d0f)" style="fill: #1f77b4"/>
   </g>
   <g id="patch_165">
    <path d="M 304.502245 227.24472 
L 306.011323 227.24472 
L 306.011323 121.966508 
L 304.502245 121.966508 
z
" clip-path="url(#p7f30558d0f)" style="fill: #1f77b4"/>
   </g>
   <g id="patch_166">
    <path d="M 306.011323 227.24472 
L 307.520401 227.24472 
L 307.520401 127.172573 
L 306.011323 127.172573 
z
" clip-path="url(#p7f30558d0f)" style="fill: #1f77b4"/>
   </g>
   <g id="patch_167">
    <path d="M 307.520401 227.24472 
L 309.029479 227.24472 
L 309.029479 126.594122 
L 307.520401 126.594122 
z
" clip-path="url(#p7f30558d0f)" style="fill: #1f77b4"/>
   </g>
   <g id="patch_168">
    <path d="M 309.029479 227.24472 
L 310.538556 227.24472 
L 310.538556 126.594122 
L 309.029479 126.594122 
z
" clip-path="url(#p7f30558d0f)" style="fill: #1f77b4"/>
   </g>
   <g id="patch_169">
    <path d="M 310.538556 227.24472 
L 312.047634 227.24472 
L 312.047634 134.692446 
L 310.538556 134.692446 
z
" clip-path="url(#p7f30558d0f)" style="fill: #1f77b4"/>
   </g>
   <g id="patch_170">
    <path d="M 312.047634 227.24472 
L 313.556712 227.24472 
L 313.556712 141.055414 
L 312.047634 141.055414 
z
" clip-path="url(#p7f30558d0f)" style="fill: #1f77b4"/>
   </g>
   <g id="patch_171">
    <path d="M 313.556712 227.24472 
L 315.06579 227.24472 
L 315.06579 142.212318 
L 313.556712 142.212318 
z
" clip-path="url(#p7f30558d0f)" style="fill: #1f77b4"/>
   </g>
   <g id="patch_172">
    <path d="M 315.06579 227.24472 
L 316.574867 227.24472 
L 316.574867 136.427801 
L 315.06579 136.427801 
z
" clip-path="url(#p7f30558d0f)" style="fill: #1f77b4"/>
   </g>
   <g id="patch_173">
    <path d="M 316.574867 227.24472 
L 318.083945 227.24472 
L 318.083945 134.692446 
L 316.574867 134.692446 
z
" clip-path="url(#p7f30558d0f)" style="fill: #1f77b4"/>
   </g>
   <g id="patch_174">
    <path d="M 318.083945 227.24472 
L 319.593023 227.24472 
L 319.593023 135.849349 
L 318.083945 135.849349 
z
" clip-path="url(#p7f30558d0f)" style="fill: #1f77b4"/>
   </g>
   <g id="patch_175">
    <path d="M 319.593023 227.24472 
L 321.102101 227.24472 
L 321.102101 158.987418 
L 319.593023 158.987418 
z
" clip-path="url(#p7f30558d0f)" style="fill: #1f77b4"/>
   </g>
   <g id="patch_176">
    <path d="M 321.102101 227.24472 
L 322.611178 227.24472 
L 322.611178 141.633866 
L 321.102101 141.633866 
z
" clip-path="url(#p7f30558d0f)" style="fill: #1f77b4"/>
   </g>
   <g id="patch_177">
    <path d="M 322.611178 227.24472 
L 324.120256 227.24472 
L 324.120256 153.2029 
L 322.611178 153.2029 
z
" clip-path="url(#p7f30558d0f)" style="fill: #1f77b4"/>
   </g>
   <g id="patch_178">
    <path d="M 324.120256 227.24472 
L 325.629334 227.24472 
L 325.629334 162.458128 
L 324.120256 162.458128 
z
" clip-path="url(#p7f30558d0f)" style="fill: #1f77b4"/>
   </g>
   <g id="patch_179">
    <path d="M 325.629334 227.24472 
L 327.138412 227.24472 
L 327.138412 161.879676 
L 325.629334 161.879676 
z
" clip-path="url(#p7f30558d0f)" style="fill: #1f77b4"/>
   </g>
   <g id="patch_180">
    <path d="M 327.138412 227.24472 
L 328.647489 227.24472 
L 328.647489 151.467545 
L 327.138412 151.467545 
z
" clip-path="url(#p7f30558d0f)" style="fill: #1f77b4"/>
   </g>
   <g id="patch_181">
    <path d="M 328.647489 227.24472 
L 330.156567 227.24472 
L 330.156567 164.193483 
L 328.647489 164.193483 
z
" clip-path="url(#p7f30558d0f)" style="fill: #1f77b4"/>
   </g>
   <g id="patch_182">
    <path d="M 330.156567 227.24472 
L 331.665645 227.24472 
L 331.665645 161.301224 
L 330.156567 161.301224 
z
" clip-path="url(#p7f30558d0f)" style="fill: #1f77b4"/>
   </g>
   <g id="patch_183">
    <path d="M 331.665645 227.24472 
L 333.174723 227.24472 
L 333.174723 173.448711 
L 331.665645 173.448711 
z
" clip-path="url(#p7f30558d0f)" style="fill: #1f77b4"/>
   </g>
   <g id="patch_184">
    <path d="M 333.174723 227.24472 
L 334.6838 227.24472 
L 334.6838 166.50729 
L 333.174723 166.50729 
z
" clip-path="url(#p7f30558d0f)" style="fill: #1f77b4"/>
   </g>
   <g id="patch_185">
    <path d="M 334.6838 227.24472 
L 336.192878 227.24472 
L 336.192878 175.762517 
L 334.6838 175.762517 
z
" clip-path="url(#p7f30558d0f)" style="fill: #1f77b4"/>
   </g>
   <g id="patch_186">
    <path d="M 336.192878 227.24472 
L 337.701956 227.24472 
L 337.701956 178.654776 
L 336.192878 178.654776 
z
" clip-path="url(#p7f30558d0f)" style="fill: #1f77b4"/>
   </g>
   <g id="patch_187">
    <path d="M 337.701956 227.24472 
L 339.211034 227.24472 
L 339.211034 176.919421 
L 337.701956 176.919421 
z
" clip-path="url(#p7f30558d0f)" style="fill: #1f77b4"/>
   </g>
   <g id="patch_188">
    <path d="M 339.211034 227.24472 
L 340.720111 227.24472 
L 340.720111 187.910003 
L 339.211034 187.910003 
z
" clip-path="url(#p7f30558d0f)" style="fill: #1f77b4"/>
   </g>
   <g id="patch_189">
    <path d="M 340.720111 227.24472 
L 342.229189 227.24472 
L 342.229189 182.125486 
L 340.720111 182.125486 
z
" clip-path="url(#p7f30558d0f)" style="fill: #1f77b4"/>
   </g>
   <g id="patch_190">
    <path d="M 342.229189 227.24472 
L 343.738267 227.24472 
L 343.738267 186.174648 
L 342.229189 186.174648 
z
" clip-path="url(#p7f30558d0f)" style="fill: #1f77b4"/>
   </g>
   <g id="patch_191">
    <path d="M 343.738267 227.24472 
L 345.247345 227.24472 
L 345.247345 186.7531 
L 343.738267 186.7531 
z
" clip-path="url(#p7f30558d0f)" style="fill: #1f77b4"/>
   </g>
   <g id="patch_192">
    <path d="M 345.247345 227.24472 
L 346.756422 227.24472 
L 346.756422 194.851424 
L 345.247345 194.851424 
z
" clip-path="url(#p7f30558d0f)" style="fill: #1f77b4"/>
   </g>
   <g id="patch_193">
    <path d="M 346.756422 227.24472 
L 348.2655 227.24472 
L 348.2655 202.371296 
L 346.756422 202.371296 
z
" clip-path="url(#p7f30558d0f)" style="fill: #1f77b4"/>
   </g>
   <g id="patch_194">
    <path d="M 348.2655 227.24472 
L 349.774578 227.24472 
L 349.774578 194.851424 
L 348.2655 194.851424 
z
" clip-path="url(#p7f30558d0f)" style="fill: #1f77b4"/>
   </g>
   <g id="patch_195">
    <path d="M 349.774578 227.24472 
L 351.283656 227.24472 
L 351.283656 204.685103 
L 349.774578 204.685103 
z
" clip-path="url(#p7f30558d0f)" style="fill: #1f77b4"/>
   </g>
   <g id="patch_196">
    <path d="M 351.283656 227.24472 
L 352.792734 227.24472 
L 352.792734 202.371296 
L 351.283656 202.371296 
z
" clip-path="url(#p7f30558d0f)" style="fill: #1f77b4"/>
   </g>
   <g id="patch_197">
    <path d="M 352.792734 227.24472 
L 354.301811 227.24472 
L 354.301811 205.842007 
L 352.792734 205.842007 
z
" clip-path="url(#p7f30558d0f)" style="fill: #1f77b4"/>
   </g>
   <g id="patch_198">
    <path d="M 354.301811 227.24472 
L 355.810889 227.24472 
L 355.810889 214.518782 
L 354.301811 214.518782 
z
" clip-path="url(#p7f30558d0f)" style="fill: #1f77b4"/>
   </g>
   <g id="patch_199">
    <path d="M 355.810889 227.24472 
L 357.319967 227.24472 
L 357.319967 211.626524 
L 355.810889 211.626524 
z
" clip-path="url(#p7f30558d0f)" style="fill: #1f77b4"/>
   </g>
   <g id="patch_200">
    <path d="M 357.319967 227.24472 
L 358.829045 227.24472 
L 358.829045 216.832589 
L 357.319967 216.832589 
z
" clip-path="url(#p7f30558d0f)" style="fill: #1f77b4"/>
   </g>
   <g id="patch_201">
    <path d="M 358.829045 227.24472 
L 360.338122 227.24472 
L 360.338122 215.097234 
L 358.829045 215.097234 
z
" clip-path="url(#p7f30558d0f)" style="fill: #1f77b4"/>
   </g>
   <g id="patch_202">
    <path d="M 360.338122 227.24472 
L 361.8472 227.24472 
L 361.8472 222.617106 
L 360.338122 222.617106 
z
" clip-path="url(#p7f30558d0f)" style="fill: #1f77b4"/>
   </g>
   <g id="matplotlib.axis_1">
    <g id="xtick_1">
     <g id="line2d_1">
      <defs>
       <path id="maa3e99d870" d="M 0 0 
L 0 3.5 
" style="stroke: #000000; stroke-width: 0.8"/>
      </defs>
      <g>
       <use xlink:href="#maa3e99d870" x="58.999432" y="227.24472" style="stroke: #000000; stroke-width: 0.8"/>
      </g>
     </g>
     <g id="text_1">
      <!-- 0.0 -->
      <g transform="translate(51.047869 241.843158)scale(0.1 -0.1)">
       <defs>
        <path id="DejaVuSans-30" d="M 2034 4250 
Q 1547 4250 1301 3770 
Q 1056 3291 1056 2328 
Q 1056 1369 1301 889 
Q 1547 409 2034 409 
Q 2525 409 2770 889 
Q 3016 1369 3016 2328 
Q 3016 3291 2770 3770 
Q 2525 4250 2034 4250 
z
M 2034 4750 
Q 2819 4750 3233 4129 
Q 3647 3509 3647 2328 
Q 3647 1150 3233 529 
Q 2819 -91 2034 -91 
Q 1250 -91 836 529 
Q 422 1150 422 2328 
Q 422 3509 836 4129 
Q 1250 4750 2034 4750 
z
" transform="scale(0.015625)"/>
        <path id="DejaVuSans-2e" d="M 684 794 
L 1344 794 
L 1344 0 
L 684 0 
L 684 794 
z
" transform="scale(0.015625)"/>
       </defs>
       <use xlink:href="#DejaVuSans-30"/>
       <use xlink:href="#DejaVuSans-2e" x="63.623047"/>
       <use xlink:href="#DejaVuSans-30" x="95.410156"/>
      </g>
     </g>
    </g>
    <g id="xtick_2">
     <g id="line2d_2">
      <g>
       <use xlink:href="#maa3e99d870" x="97.752214" y="227.24472" style="stroke: #000000; stroke-width: 0.8"/>
      </g>
     </g>
     <g id="text_2">
      <!-- 0.2 -->
      <g transform="translate(89.800651 241.843158)scale(0.1 -0.1)">
       <defs>
        <path id="DejaVuSans-32" d="M 1228 531 
L 3431 531 
L 3431 0 
L 469 0 
L 469 531 
Q 828 903 1448 1529 
Q 2069 2156 2228 2338 
Q 2531 2678 2651 2914 
Q 2772 3150 2772 3378 
Q 2772 3750 2511 3984 
Q 2250 4219 1831 4219 
Q 1534 4219 1204 4116 
Q 875 4013 500 3803 
L 500 4441 
Q 881 4594 1212 4672 
Q 1544 4750 1819 4750 
Q 2544 4750 2975 4387 
Q 3406 4025 3406 3419 
Q 3406 3131 3298 2873 
Q 3191 2616 2906 2266 
Q 2828 2175 2409 1742 
Q 1991 1309 1228 531 
z
" transform="scale(0.015625)"/>
       </defs>
       <use xlink:href="#DejaVuSans-30"/>
       <use xlink:href="#DejaVuSans-2e" x="63.623047"/>
       <use xlink:href="#DejaVuSans-32" x="95.410156"/>
      </g>
     </g>
    </g>
    <g id="xtick_3">
     <g id="line2d_3">
      <g>
       <use xlink:href="#maa3e99d870" x="136.504995" y="227.24472" style="stroke: #000000; stroke-width: 0.8"/>
      </g>
     </g>
     <g id="text_3">
      <!-- 0.4 -->
      <g transform="translate(128.553433 241.843158)scale(0.1 -0.1)">
       <defs>
        <path id="DejaVuSans-34" d="M 2419 4116 
L 825 1625 
L 2419 1625 
L 2419 4116 
z
M 2253 4666 
L 3047 4666 
L 3047 1625 
L 3713 1625 
L 3713 1100 
L 3047 1100 
L 3047 0 
L 2419 0 
L 2419 1100 
L 313 1100 
L 313 1709 
L 2253 4666 
z
" transform="scale(0.015625)"/>
       </defs>
       <use xlink:href="#DejaVuSans-30"/>
       <use xlink:href="#DejaVuSans-2e" x="63.623047"/>
       <use xlink:href="#DejaVuSans-34" x="95.410156"/>
      </g>
     </g>
    </g>
    <g id="xtick_4">
     <g id="line2d_4">
      <g>
       <use xlink:href="#maa3e99d870" x="175.257777" y="227.24472" style="stroke: #000000; stroke-width: 0.8"/>
      </g>
     </g>
     <g id="text_4">
      <!-- 0.6 -->
      <g transform="translate(167.306215 241.843158)scale(0.1 -0.1)">
       <defs>
        <path id="DejaVuSans-36" d="M 2113 2584 
Q 1688 2584 1439 2293 
Q 1191 2003 1191 1497 
Q 1191 994 1439 701 
Q 1688 409 2113 409 
Q 2538 409 2786 701 
Q 3034 994 3034 1497 
Q 3034 2003 2786 2293 
Q 2538 2584 2113 2584 
z
M 3366 4563 
L 3366 3988 
Q 3128 4100 2886 4159 
Q 2644 4219 2406 4219 
Q 1781 4219 1451 3797 
Q 1122 3375 1075 2522 
Q 1259 2794 1537 2939 
Q 1816 3084 2150 3084 
Q 2853 3084 3261 2657 
Q 3669 2231 3669 1497 
Q 3669 778 3244 343 
Q 2819 -91 2113 -91 
Q 1303 -91 875 529 
Q 447 1150 447 2328 
Q 447 3434 972 4092 
Q 1497 4750 2381 4750 
Q 2619 4750 2861 4703 
Q 3103 4656 3366 4563 
z
" transform="scale(0.015625)"/>
       </defs>
       <use xlink:href="#DejaVuSans-30"/>
       <use xlink:href="#DejaVuSans-2e" x="63.623047"/>
       <use xlink:href="#DejaVuSans-36" x="95.410156"/>
      </g>
     </g>
    </g>
    <g id="xtick_5">
     <g id="line2d_5">
      <g>
       <use xlink:href="#maa3e99d870" x="214.010559" y="227.24472" style="stroke: #000000; stroke-width: 0.8"/>
      </g>
     </g>
     <g id="text_5">
      <!-- 0.8 -->
      <g transform="translate(206.058996 241.843158)scale(0.1 -0.1)">
       <defs>
        <path id="DejaVuSans-38" d="M 2034 2216 
Q 1584 2216 1326 1975 
Q 1069 1734 1069 1313 
Q 1069 891 1326 650 
Q 1584 409 2034 409 
Q 2484 409 2743 651 
Q 3003 894 3003 1313 
Q 3003 1734 2745 1975 
Q 2488 2216 2034 2216 
z
M 1403 2484 
Q 997 2584 770 2862 
Q 544 3141 544 3541 
Q 544 4100 942 4425 
Q 1341 4750 2034 4750 
Q 2731 4750 3128 4425 
Q 3525 4100 3525 3541 
Q 3525 3141 3298 2862 
Q 3072 2584 2669 2484 
Q 3125 2378 3379 2068 
Q 3634 1759 3634 1313 
Q 3634 634 3220 271 
Q 2806 -91 2034 -91 
Q 1263 -91 848 271 
Q 434 634 434 1313 
Q 434 1759 690 2068 
Q 947 2378 1403 2484 
z
M 1172 3481 
Q 1172 3119 1398 2916 
Q 1625 2713 2034 2713 
Q 2441 2713 2670 2916 
Q 2900 3119 2900 3481 
Q 2900 3844 2670 4047 
Q 2441 4250 2034 4250 
Q 1625 4250 1398 4047 
Q 1172 3844 1172 3481 
z
" transform="scale(0.015625)"/>
       </defs>
       <use xlink:href="#DejaVuSans-30"/>
       <use xlink:href="#DejaVuSans-2e" x="63.623047"/>
       <use xlink:href="#DejaVuSans-38" x="95.410156"/>
      </g>
     </g>
    </g>
    <g id="xtick_6">
     <g id="line2d_6">
      <g>
       <use xlink:href="#maa3e99d870" x="252.763341" y="227.24472" style="stroke: #000000; stroke-width: 0.8"/>
      </g>
     </g>
     <g id="text_6">
      <!-- 1.0 -->
      <g transform="translate(244.811778 241.843158)scale(0.1 -0.1)">
       <defs>
        <path id="DejaVuSans-31" d="M 794 531 
L 1825 531 
L 1825 4091 
L 703 3866 
L 703 4441 
L 1819 4666 
L 2450 4666 
L 2450 531 
L 3481 531 
L 3481 0 
L 794 0 
L 794 531 
z
" transform="scale(0.015625)"/>
       </defs>
       <use xlink:href="#DejaVuSans-31"/>
       <use xlink:href="#DejaVuSans-2e" x="63.623047"/>
       <use xlink:href="#DejaVuSans-30" x="95.410156"/>
      </g>
     </g>
    </g>
    <g id="xtick_7">
     <g id="line2d_7">
      <g>
       <use xlink:href="#maa3e99d870" x="291.516122" y="227.24472" style="stroke: #000000; stroke-width: 0.8"/>
      </g>
     </g>
     <g id="text_7">
      <!-- 1.2 -->
      <g transform="translate(283.56456 241.843158)scale(0.1 -0.1)">
       <use xlink:href="#DejaVuSans-31"/>
       <use xlink:href="#DejaVuSans-2e" x="63.623047"/>
       <use xlink:href="#DejaVuSans-32" x="95.410156"/>
      </g>
     </g>
    </g>
    <g id="xtick_8">
     <g id="line2d_8">
      <g>
       <use xlink:href="#maa3e99d870" x="330.268904" y="227.24472" style="stroke: #000000; stroke-width: 0.8"/>
      </g>
     </g>
     <g id="text_8">
      <!-- 1.4 -->
      <g transform="translate(322.317342 241.843158)scale(0.1 -0.1)">
       <use xlink:href="#DejaVuSans-31"/>
       <use xlink:href="#DejaVuSans-2e" x="63.623047"/>
       <use xlink:href="#DejaVuSans-34" x="95.410156"/>
      </g>
     </g>
    </g>
    <g id="xtick_9">
     <g id="line2d_9">
      <g>
       <use xlink:href="#maa3e99d870" x="369.021686" y="227.24472" style="stroke: #000000; stroke-width: 0.8"/>
      </g>
     </g>
     <g id="text_9">
      <!-- 1.6 -->
      <g transform="translate(361.070124 241.843158)scale(0.1 -0.1)">
       <use xlink:href="#DejaVuSans-31"/>
       <use xlink:href="#DejaVuSans-2e" x="63.623047"/>
       <use xlink:href="#DejaVuSans-36" x="95.410156"/>
      </g>
     </g>
    </g>
    <g id="text_10">
     <!-- Angle with normal (rad) -->
     <g transform="translate(151.863281 255.521283)scale(0.1 -0.1)">
      <defs>
       <path id="DejaVuSans-41" d="M 2188 4044 
L 1331 1722 
L 3047 1722 
L 2188 4044 
z
M 1831 4666 
L 2547 4666 
L 4325 0 
L 3669 0 
L 3244 1197 
L 1141 1197 
L 716 0 
L 50 0 
L 1831 4666 
z
" transform="scale(0.015625)"/>
       <path id="DejaVuSans-6e" d="M 3513 2113 
L 3513 0 
L 2938 0 
L 2938 2094 
Q 2938 2591 2744 2837 
Q 2550 3084 2163 3084 
Q 1697 3084 1428 2787 
Q 1159 2491 1159 1978 
L 1159 0 
L 581 0 
L 581 3500 
L 1159 3500 
L 1159 2956 
Q 1366 3272 1645 3428 
Q 1925 3584 2291 3584 
Q 2894 3584 3203 3211 
Q 3513 2838 3513 2113 
z
" transform="scale(0.015625)"/>
       <path id="DejaVuSans-67" d="M 2906 1791 
Q 2906 2416 2648 2759 
Q 2391 3103 1925 3103 
Q 1463 3103 1205 2759 
Q 947 2416 947 1791 
Q 947 1169 1205 825 
Q 1463 481 1925 481 
Q 2391 481 2648 825 
Q 2906 1169 2906 1791 
z
M 3481 434 
Q 3481 -459 3084 -895 
Q 2688 -1331 1869 -1331 
Q 1566 -1331 1297 -1286 
Q 1028 -1241 775 -1147 
L 775 -588 
Q 1028 -725 1275 -790 
Q 1522 -856 1778 -856 
Q 2344 -856 2625 -561 
Q 2906 -266 2906 331 
L 2906 616 
Q 2728 306 2450 153 
Q 2172 0 1784 0 
Q 1141 0 747 490 
Q 353 981 353 1791 
Q 353 2603 747 3093 
Q 1141 3584 1784 3584 
Q 2172 3584 2450 3431 
Q 2728 3278 2906 2969 
L 2906 3500 
L 3481 3500 
L 3481 434 
z
" transform="scale(0.015625)"/>
       <path id="DejaVuSans-6c" d="M 603 4863 
L 1178 4863 
L 1178 0 
L 603 0 
L 603 4863 
z
" transform="scale(0.015625)"/>
       <path id="DejaVuSans-65" d="M 3597 1894 
L 3597 1613 
L 953 1613 
Q 991 1019 1311 708 
Q 1631 397 2203 397 
Q 2534 397 2845 478 
Q 3156 559 3463 722 
L 3463 178 
Q 3153 47 2828 -22 
Q 2503 -91 2169 -91 
Q 1331 -91 842 396 
Q 353 884 353 1716 
Q 353 2575 817 3079 
Q 1281 3584 2069 3584 
Q 2775 3584 3186 3129 
Q 3597 2675 3597 1894 
z
M 3022 2063 
Q 3016 2534 2758 2815 
Q 2500 3097 2075 3097 
Q 1594 3097 1305 2825 
Q 1016 2553 972 2059 
L 3022 2063 
z
" transform="scale(0.015625)"/>
       <path id="DejaVuSans-20" transform="scale(0.015625)"/>
       <path id="DejaVuSans-77" d="M 269 3500 
L 844 3500 
L 1563 769 
L 2278 3500 
L 2956 3500 
L 3675 769 
L 4391 3500 
L 4966 3500 
L 4050 0 
L 3372 0 
L 2619 2869 
L 1863 0 
L 1184 0 
L 269 3500 
z
" transform="scale(0.015625)"/>
       <path id="DejaVuSans-69" d="M 603 3500 
L 1178 3500 
L 1178 0 
L 603 0 
L 603 3500 
z
M 603 4863 
L 1178 4863 
L 1178 4134 
L 603 4134 
L 603 4863 
z
" transform="scale(0.015625)"/>
       <path id="DejaVuSans-74" d="M 1172 4494 
L 1172 3500 
L 2356 3500 
L 2356 3053 
L 1172 3053 
L 1172 1153 
Q 1172 725 1289 603 
Q 1406 481 1766 481 
L 2356 481 
L 2356 0 
L 1766 0 
Q 1100 0 847 248 
Q 594 497 594 1153 
L 594 3053 
L 172 3053 
L 172 3500 
L 594 3500 
L 594 4494 
L 1172 4494 
z
" transform="scale(0.015625)"/>
       <path id="DejaVuSans-68" d="M 3513 2113 
L 3513 0 
L 2938 0 
L 2938 2094 
Q 2938 2591 2744 2837 
Q 2550 3084 2163 3084 
Q 1697 3084 1428 2787 
Q 1159 2491 1159 1978 
L 1159 0 
L 581 0 
L 581 4863 
L 1159 4863 
L 1159 2956 
Q 1366 3272 1645 3428 
Q 1925 3584 2291 3584 
Q 2894 3584 3203 3211 
Q 3513 2838 3513 2113 
z
" transform="scale(0.015625)"/>
       <path id="DejaVuSans-6f" d="M 1959 3097 
Q 1497 3097 1228 2736 
Q 959 2375 959 1747 
Q 959 1119 1226 758 
Q 1494 397 1959 397 
Q 2419 397 2687 759 
Q 2956 1122 2956 1747 
Q 2956 2369 2687 2733 
Q 2419 3097 1959 3097 
z
M 1959 3584 
Q 2709 3584 3137 3096 
Q 3566 2609 3566 1747 
Q 3566 888 3137 398 
Q 2709 -91 1959 -91 
Q 1206 -91 779 398 
Q 353 888 353 1747 
Q 353 2609 779 3096 
Q 1206 3584 1959 3584 
z
" transform="scale(0.015625)"/>
       <path id="DejaVuSans-72" d="M 2631 2963 
Q 2534 3019 2420 3045 
Q 2306 3072 2169 3072 
Q 1681 3072 1420 2755 
Q 1159 2438 1159 1844 
L 1159 0 
L 581 0 
L 581 3500 
L 1159 3500 
L 1159 2956 
Q 1341 3275 1631 3429 
Q 1922 3584 2338 3584 
Q 2397 3584 2469 3576 
Q 2541 3569 2628 3553 
L 2631 2963 
z
" transform="scale(0.015625)"/>
       <path id="DejaVuSans-6d" d="M 3328 2828 
Q 3544 3216 3844 3400 
Q 4144 3584 4550 3584 
Q 5097 3584 5394 3201 
Q 5691 2819 5691 2113 
L 5691 0 
L 5113 0 
L 5113 2094 
Q 5113 2597 4934 2840 
Q 4756 3084 4391 3084 
Q 3944 3084 3684 2787 
Q 3425 2491 3425 1978 
L 3425 0 
L 2847 0 
L 2847 2094 
Q 2847 2600 2669 2842 
Q 2491 3084 2119 3084 
Q 1678 3084 1418 2786 
Q 1159 2488 1159 1978 
L 1159 0 
L 581 0 
L 581 3500 
L 1159 3500 
L 1159 2956 
Q 1356 3278 1631 3431 
Q 1906 3584 2284 3584 
Q 2666 3584 2933 3390 
Q 3200 3197 3328 2828 
z
" transform="scale(0.015625)"/>
       <path id="DejaVuSans-61" d="M 2194 1759 
Q 1497 1759 1228 1600 
Q 959 1441 959 1056 
Q 959 750 1161 570 
Q 1363 391 1709 391 
Q 2188 391 2477 730 
Q 2766 1069 2766 1631 
L 2766 1759 
L 2194 1759 
z
M 3341 1997 
L 3341 0 
L 2766 0 
L 2766 531 
Q 2569 213 2275 61 
Q 1981 -91 1556 -91 
Q 1019 -91 701 211 
Q 384 513 384 1019 
Q 384 1609 779 1909 
Q 1175 2209 1959 2209 
L 2766 2209 
L 2766 2266 
Q 2766 2663 2505 2880 
Q 2244 3097 1772 3097 
Q 1472 3097 1187 3025 
Q 903 2953 641 2809 
L 641 3341 
Q 956 3463 1253 3523 
Q 1550 3584 1831 3584 
Q 2591 3584 2966 3190 
Q 3341 2797 3341 1997 
z
" transform="scale(0.015625)"/>
       <path id="DejaVuSans-28" d="M 1984 4856 
Q 1566 4138 1362 3434 
Q 1159 2731 1159 2009 
Q 1159 1288 1364 580 
Q 1569 -128 1984 -844 
L 1484 -844 
Q 1016 -109 783 600 
Q 550 1309 550 2009 
Q 550 2706 781 3412 
Q 1013 4119 1484 4856 
L 1984 4856 
z
" transform="scale(0.015625)"/>
       <path id="DejaVuSans-64" d="M 2906 2969 
L 2906 4863 
L 3481 4863 
L 3481 0 
L 2906 0 
L 2906 525 
Q 2725 213 2448 61 
Q 2172 -91 1784 -91 
Q 1150 -91 751 415 
Q 353 922 353 1747 
Q 353 2572 751 3078 
Q 1150 3584 1784 3584 
Q 2172 3584 2448 3432 
Q 2725 3281 2906 2969 
z
M 947 1747 
Q 947 1113 1208 752 
Q 1469 391 1925 391 
Q 2381 391 2643 752 
Q 2906 1113 2906 1747 
Q 2906 2381 2643 2742 
Q 2381 3103 1925 3103 
Q 1469 3103 1208 2742 
Q 947 2381 947 1747 
z
" transform="scale(0.015625)"/>
       <path id="DejaVuSans-29" d="M 513 4856 
L 1013 4856 
Q 1481 4119 1714 3412 
Q 1947 2706 1947 2009 
Q 1947 1309 1714 600 
Q 1481 -109 1013 -844 
L 513 -844 
Q 928 -128 1133 580 
Q 1338 1288 1338 2009 
Q 1338 2731 1133 3434 
Q 928 4138 513 4856 
z
" transform="scale(0.015625)"/>
      </defs>
      <use xlink:href="#DejaVuSans-41"/>
      <use xlink:href="#DejaVuSans-6e" x="68.408203"/>
      <use xlink:href="#DejaVuSans-67" x="131.787109"/>
      <use xlink:href="#DejaVuSans-6c" x="195.263672"/>
      <use xlink:href="#DejaVuSans-65" x="223.046875"/>
      <use xlink:href="#DejaVuSans-20" x="284.570312"/>
      <use xlink:href="#DejaVuSans-77" x="316.357422"/>
      <use xlink:href="#DejaVuSans-69" x="398.144531"/>
      <use xlink:href="#DejaVuSans-74" x="425.927734"/>
      <use xlink:href="#DejaVuSans-68" x="465.136719"/>
      <use xlink:href="#DejaVuSans-20" x="528.515625"/>
      <use xlink:href="#DejaVuSans-6e" x="560.302734"/>
      <use xlink:href="#DejaVuSans-6f" x="623.681641"/>
      <use xlink:href="#DejaVuSans-72" x="684.863281"/>
      <use xlink:href="#DejaVuSans-6d" x="724.226562"/>
      <use xlink:href="#DejaVuSans-61" x="821.638672"/>
      <use xlink:href="#DejaVuSans-6c" x="882.917969"/>
      <use xlink:href="#DejaVuSans-20" x="910.701172"/>
      <use xlink:href="#DejaVuSans-28" x="942.488281"/>
      <use xlink:href="#DejaVuSans-72" x="981.501953"/>
      <use xlink:href="#DejaVuSans-61" x="1022.615234"/>
      <use xlink:href="#DejaVuSans-64" x="1083.894531"/>
      <use xlink:href="#DejaVuSans-29" x="1147.371094"/>
     </g>
    </g>
   </g>
   <g id="matplotlib.axis_2">
    <g id="ytick_1">
     <g id="line2d_10">
      <defs>
       <path id="mb611dc9249" d="M 0 0 
L -3.5 0 
" style="stroke: #000000; stroke-width: 0.8"/>
      </defs>
      <g>
       <use xlink:href="#mb611dc9249" x="43.78125" y="227.24472" style="stroke: #000000; stroke-width: 0.8"/>
      </g>
     </g>
     <g id="text_11">
      <!-- 0.0 -->
      <g transform="translate(20.878125 231.043939)scale(0.1 -0.1)">
       <use xlink:href="#DejaVuSans-30"/>
       <use xlink:href="#DejaVuSans-2e" x="63.623047"/>
       <use xlink:href="#DejaVuSans-30" x="95.410156"/>
      </g>
     </g>
    </g>
    <g id="ytick_2">
     <g id="line2d_11">
      <g>
       <use xlink:href="#mb611dc9249" x="43.78125" y="191.203803" style="stroke: #000000; stroke-width: 0.8"/>
      </g>
     </g>
     <g id="text_12">
      <!-- 0.2 -->
      <g transform="translate(20.878125 195.003022)scale(0.1 -0.1)">
       <use xlink:href="#DejaVuSans-30"/>
       <use xlink:href="#DejaVuSans-2e" x="63.623047"/>
       <use xlink:href="#DejaVuSans-32" x="95.410156"/>
      </g>
     </g>
    </g>
    <g id="ytick_3">
     <g id="line2d_12">
      <g>
       <use xlink:href="#mb611dc9249" x="43.78125" y="155.162886" style="stroke: #000000; stroke-width: 0.8"/>
      </g>
     </g>
     <g id="text_13">
      <!-- 0.4 -->
      <g transform="translate(20.878125 158.962105)scale(0.1 -0.1)">
       <use xlink:href="#DejaVuSans-30"/>
       <use xlink:href="#DejaVuSans-2e" x="63.623047"/>
       <use xlink:href="#DejaVuSans-34" x="95.410156"/>
      </g>
     </g>
    </g>
    <g id="ytick_4">
     <g id="line2d_13">
      <g>
       <use xlink:href="#mb611dc9249" x="43.78125" y="119.121969" style="stroke: #000000; stroke-width: 0.8"/>
      </g>
     </g>
     <g id="text_14">
      <!-- 0.6 -->
      <g transform="translate(20.878125 122.921188)scale(0.1 -0.1)">
       <use xlink:href="#DejaVuSans-30"/>
       <use xlink:href="#DejaVuSans-2e" x="63.623047"/>
       <use xlink:href="#DejaVuSans-36" x="95.410156"/>
      </g>
     </g>
    </g>
    <g id="ytick_5">
     <g id="line2d_14">
      <g>
       <use xlink:href="#mb611dc9249" x="43.78125" y="83.081053" style="stroke: #000000; stroke-width: 0.8"/>
      </g>
     </g>
     <g id="text_15">
      <!-- 0.8 -->
      <g transform="translate(20.878125 86.880271)scale(0.1 -0.1)">
       <use xlink:href="#DejaVuSans-30"/>
       <use xlink:href="#DejaVuSans-2e" x="63.623047"/>
       <use xlink:href="#DejaVuSans-38" x="95.410156"/>
      </g>
     </g>
    </g>
    <g id="ytick_6">
     <g id="line2d_15">
      <g>
       <use xlink:href="#mb611dc9249" x="43.78125" y="47.040136" style="stroke: #000000; stroke-width: 0.8"/>
      </g>
     </g>
     <g id="text_16">
      <!-- 1.0 -->
      <g transform="translate(20.878125 50.839354)scale(0.1 -0.1)">
       <use xlink:href="#DejaVuSans-31"/>
       <use xlink:href="#DejaVuSans-2e" x="63.623047"/>
       <use xlink:href="#DejaVuSans-30" x="95.410156"/>
      </g>
     </g>
    </g>
    <g id="ytick_7">
     <g id="line2d_16">
      <g>
       <use xlink:href="#mb611dc9249" x="43.78125" y="10.999219" style="stroke: #000000; stroke-width: 0.8"/>
      </g>
     </g>
     <g id="text_17">
      <!-- 1.2 -->
      <g transform="translate(20.878125 14.798438)scale(0.1 -0.1)">
       <use xlink:href="#DejaVuSans-31"/>
       <use xlink:href="#DejaVuSans-2e" x="63.623047"/>
       <use xlink:href="#DejaVuSans-32" x="95.410156"/>
      </g>
     </g>
    </g>
    <g id="text_18">
     <!-- Probability density -->
     <g transform="translate(14.798438 164.875501)rotate(-90)scale(0.1 -0.1)">
      <defs>
       <path id="DejaVuSans-50" d="M 1259 4147 
L 1259 2394 
L 2053 2394 
Q 2494 2394 2734 2622 
Q 2975 2850 2975 3272 
Q 2975 3691 2734 3919 
Q 2494 4147 2053 4147 
L 1259 4147 
z
M 628 4666 
L 2053 4666 
Q 2838 4666 3239 4311 
Q 3641 3956 3641 3272 
Q 3641 2581 3239 2228 
Q 2838 1875 2053 1875 
L 1259 1875 
L 1259 0 
L 628 0 
L 628 4666 
z
" transform="scale(0.015625)"/>
       <path id="DejaVuSans-62" d="M 3116 1747 
Q 3116 2381 2855 2742 
Q 2594 3103 2138 3103 
Q 1681 3103 1420 2742 
Q 1159 2381 1159 1747 
Q 1159 1113 1420 752 
Q 1681 391 2138 391 
Q 2594 391 2855 752 
Q 3116 1113 3116 1747 
z
M 1159 2969 
Q 1341 3281 1617 3432 
Q 1894 3584 2278 3584 
Q 2916 3584 3314 3078 
Q 3713 2572 3713 1747 
Q 3713 922 3314 415 
Q 2916 -91 2278 -91 
Q 1894 -91 1617 61 
Q 1341 213 1159 525 
L 1159 0 
L 581 0 
L 581 4863 
L 1159 4863 
L 1159 2969 
z
" transform="scale(0.015625)"/>
       <path id="DejaVuSans-79" d="M 2059 -325 
Q 1816 -950 1584 -1140 
Q 1353 -1331 966 -1331 
L 506 -1331 
L 506 -850 
L 844 -850 
Q 1081 -850 1212 -737 
Q 1344 -625 1503 -206 
L 1606 56 
L 191 3500 
L 800 3500 
L 1894 763 
L 2988 3500 
L 3597 3500 
L 2059 -325 
z
" transform="scale(0.015625)"/>
       <path id="DejaVuSans-73" d="M 2834 3397 
L 2834 2853 
Q 2591 2978 2328 3040 
Q 2066 3103 1784 3103 
Q 1356 3103 1142 2972 
Q 928 2841 928 2578 
Q 928 2378 1081 2264 
Q 1234 2150 1697 2047 
L 1894 2003 
Q 2506 1872 2764 1633 
Q 3022 1394 3022 966 
Q 3022 478 2636 193 
Q 2250 -91 1575 -91 
Q 1294 -91 989 -36 
Q 684 19 347 128 
L 347 722 
Q 666 556 975 473 
Q 1284 391 1588 391 
Q 1994 391 2212 530 
Q 2431 669 2431 922 
Q 2431 1156 2273 1281 
Q 2116 1406 1581 1522 
L 1381 1569 
Q 847 1681 609 1914 
Q 372 2147 372 2553 
Q 372 3047 722 3315 
Q 1072 3584 1716 3584 
Q 2034 3584 2315 3537 
Q 2597 3491 2834 3397 
z
" transform="scale(0.015625)"/>
      </defs>
      <use xlink:href="#DejaVuSans-50"/>
      <use xlink:href="#DejaVuSans-72" x="58.552734"/>
      <use xlink:href="#DejaVuSans-6f" x="97.416016"/>
      <use xlink:href="#DejaVuSans-62" x="158.597656"/>
      <use xlink:href="#DejaVuSans-61" x="222.074219"/>
      <use xlink:href="#DejaVuSans-62" x="283.353516"/>
      <use xlink:href="#DejaVuSans-69" x="346.830078"/>
      <use xlink:href="#DejaVuSans-6c" x="374.613281"/>
      <use xlink:href="#DejaVuSans-69" x="402.396484"/>
      <use xlink:href="#DejaVuSans-74" x="430.179688"/>
      <use xlink:href="#DejaVuSans-79" x="469.388672"/>
      <use xlink:href="#DejaVuSans-20" x="528.568359"/>
      <use xlink:href="#DejaVuSans-64" x="560.355469"/>
      <use xlink:href="#DejaVuSans-65" x="623.832031"/>
      <use xlink:href="#DejaVuSans-6e" x="685.355469"/>
      <use xlink:href="#DejaVuSans-73" x="748.734375"/>
      <use xlink:href="#DejaVuSans-69" x="800.833984"/>
      <use xlink:href="#DejaVuSans-74" x="828.617188"/>
      <use xlink:href="#DejaVuSans-79" x="867.826172"/>
     </g>
    </g>
   </g>
   <g id="line2d_17">
    <path d="M 58.999432 227.24472 
L 78.193535 191.775963 
L 88.247589 173.66452 
L 96.778302 158.741786 
L 104.395009 145.863033 
L 111.40238 134.456787 
L 117.800415 124.464677 
L 123.893781 115.364344 
L 129.682479 107.128289 
L 135.166508 99.720697 
L 140.345869 93.099338 
L 145.220562 87.217288 
L 150.095255 81.689669 
L 154.665279 76.841875 
L 159.235304 72.328681 
L 163.50066 68.42712 
L 167.766017 64.833348 
L 171.726705 61.777968 
L 175.687393 58.999095 
L 179.64808 56.501372 
L 183.3041 54.448942 
L 186.96012 52.642555 
L 190.616139 51.084784 
L 194.272159 49.777848 
L 197.928179 48.723607 
L 201.27953 47.980494 
L 204.630881 47.451869 
L 207.982233 47.138366 
L 211.333584 47.040358 
L 214.684936 47.157965 
L 218.036287 47.491044 
L 221.387638 48.039198 
L 224.73899 48.80177 
L 228.090341 49.777848 
L 231.746361 51.084784 
L 235.40238 52.642555 
L 239.0584 54.448942 
L 242.71442 56.501372 
L 246.370439 58.796925 
L 250.331127 61.55433 
L 254.291815 64.588615 
L 258.252503 67.894711 
L 262.517859 71.752751 
L 266.783216 75.912136 
L 271.35324 80.693849 
L 275.923265 85.801594 
L 280.797958 91.596397 
L 285.67265 97.734546 
L 290.852012 104.615142 
L 296.336041 112.28196 
L 302.124739 120.773718 
L 308.218105 130.122338 
L 314.616139 140.351054 
L 321.62351 151.986922 
L 329.240218 165.078908 
L 337.770931 180.193932 
L 348.129653 199.026527 
L 363.363068 227.24472 
L 363.363068 227.24472 
" clip-path="url(#p7f30558d0f)" style="fill: none; stroke: #ff7f0e; stroke-width: 1.5; stroke-linecap: square"/>
   </g>
   <g id="patch_203">
    <path d="M 43.78125 227.24472 
L 43.78125 9.80472 
" style="fill: none; stroke: #000000; stroke-width: 0.8; stroke-linejoin: miter; stroke-linecap: square"/>
   </g>
   <g id="patch_204">
    <path d="M 378.58125 227.24472 
L 378.58125 9.80472 
" style="fill: none; stroke: #000000; stroke-width: 0.8; stroke-linejoin: miter; stroke-linecap: square"/>
   </g>
   <g id="patch_205">
    <path d="M 43.78125 227.24472 
L 378.58125 227.24472 
" style="fill: none; stroke: #000000; stroke-width: 0.8; stroke-linejoin: miter; stroke-linecap: square"/>
   </g>
   <g id="patch_206">
    <path d="M 43.78125 9.80472 
L 378.58125 9.80472 
" style="fill: none; stroke: #000000; stroke-width: 0.8; stroke-linejoin: miter; stroke-linecap: square"/>
   </g>
  </g>
 </g>
 <defs>
  <clipPath id="p7f30558d0f">
   <rect x="43.78125" y="9.80472" width="334.8" height="217.44"/>
  </clipPath>
 </defs>
</svg>
